G75*
%MOIN*%
%OFA0B0*%
%FSLAX25Y25*%
%IPPOS*%
%LPD*%
%AMOC8*
5,1,8,0,0,1.08239X$1,22.5*
%
%ADD10C,0.00000*%
D10*
X0015725Y0243400D02*
X0014500Y0637101D01*
X0408201Y0637101D01*
X0409426Y0243400D01*
X0015725Y0243400D01*
X0032020Y0267022D02*
X0032022Y0267178D01*
X0032028Y0267334D01*
X0032038Y0267489D01*
X0032052Y0267644D01*
X0032070Y0267799D01*
X0032092Y0267953D01*
X0032117Y0268107D01*
X0032147Y0268260D01*
X0032181Y0268412D01*
X0032218Y0268564D01*
X0032259Y0268714D01*
X0032304Y0268863D01*
X0032353Y0269011D01*
X0032406Y0269158D01*
X0032462Y0269303D01*
X0032522Y0269447D01*
X0032586Y0269589D01*
X0032654Y0269730D01*
X0032725Y0269868D01*
X0032799Y0270005D01*
X0032877Y0270140D01*
X0032958Y0270273D01*
X0033043Y0270404D01*
X0033131Y0270533D01*
X0033222Y0270659D01*
X0033317Y0270783D01*
X0033414Y0270904D01*
X0033515Y0271023D01*
X0033619Y0271140D01*
X0033725Y0271253D01*
X0033835Y0271364D01*
X0033947Y0271472D01*
X0034062Y0271577D01*
X0034180Y0271680D01*
X0034300Y0271779D01*
X0034423Y0271875D01*
X0034548Y0271968D01*
X0034675Y0272057D01*
X0034805Y0272144D01*
X0034937Y0272227D01*
X0035071Y0272306D01*
X0035207Y0272383D01*
X0035345Y0272455D01*
X0035484Y0272525D01*
X0035626Y0272590D01*
X0035769Y0272652D01*
X0035913Y0272710D01*
X0036059Y0272765D01*
X0036207Y0272816D01*
X0036355Y0272863D01*
X0036505Y0272906D01*
X0036656Y0272945D01*
X0036808Y0272981D01*
X0036960Y0273012D01*
X0037114Y0273040D01*
X0037268Y0273064D01*
X0037422Y0273084D01*
X0037577Y0273100D01*
X0037733Y0273112D01*
X0037888Y0273120D01*
X0038044Y0273124D01*
X0038200Y0273124D01*
X0038356Y0273120D01*
X0038511Y0273112D01*
X0038667Y0273100D01*
X0038822Y0273084D01*
X0038976Y0273064D01*
X0039130Y0273040D01*
X0039284Y0273012D01*
X0039436Y0272981D01*
X0039588Y0272945D01*
X0039739Y0272906D01*
X0039889Y0272863D01*
X0040037Y0272816D01*
X0040185Y0272765D01*
X0040331Y0272710D01*
X0040475Y0272652D01*
X0040618Y0272590D01*
X0040760Y0272525D01*
X0040899Y0272455D01*
X0041037Y0272383D01*
X0041173Y0272306D01*
X0041307Y0272227D01*
X0041439Y0272144D01*
X0041569Y0272057D01*
X0041696Y0271968D01*
X0041821Y0271875D01*
X0041944Y0271779D01*
X0042064Y0271680D01*
X0042182Y0271577D01*
X0042297Y0271472D01*
X0042409Y0271364D01*
X0042519Y0271253D01*
X0042625Y0271140D01*
X0042729Y0271023D01*
X0042830Y0270904D01*
X0042927Y0270783D01*
X0043022Y0270659D01*
X0043113Y0270533D01*
X0043201Y0270404D01*
X0043286Y0270273D01*
X0043367Y0270140D01*
X0043445Y0270005D01*
X0043519Y0269868D01*
X0043590Y0269730D01*
X0043658Y0269589D01*
X0043722Y0269447D01*
X0043782Y0269303D01*
X0043838Y0269158D01*
X0043891Y0269011D01*
X0043940Y0268863D01*
X0043985Y0268714D01*
X0044026Y0268564D01*
X0044063Y0268412D01*
X0044097Y0268260D01*
X0044127Y0268107D01*
X0044152Y0267953D01*
X0044174Y0267799D01*
X0044192Y0267644D01*
X0044206Y0267489D01*
X0044216Y0267334D01*
X0044222Y0267178D01*
X0044224Y0267022D01*
X0044222Y0266866D01*
X0044216Y0266710D01*
X0044206Y0266555D01*
X0044192Y0266400D01*
X0044174Y0266245D01*
X0044152Y0266091D01*
X0044127Y0265937D01*
X0044097Y0265784D01*
X0044063Y0265632D01*
X0044026Y0265480D01*
X0043985Y0265330D01*
X0043940Y0265181D01*
X0043891Y0265033D01*
X0043838Y0264886D01*
X0043782Y0264741D01*
X0043722Y0264597D01*
X0043658Y0264455D01*
X0043590Y0264314D01*
X0043519Y0264176D01*
X0043445Y0264039D01*
X0043367Y0263904D01*
X0043286Y0263771D01*
X0043201Y0263640D01*
X0043113Y0263511D01*
X0043022Y0263385D01*
X0042927Y0263261D01*
X0042830Y0263140D01*
X0042729Y0263021D01*
X0042625Y0262904D01*
X0042519Y0262791D01*
X0042409Y0262680D01*
X0042297Y0262572D01*
X0042182Y0262467D01*
X0042064Y0262364D01*
X0041944Y0262265D01*
X0041821Y0262169D01*
X0041696Y0262076D01*
X0041569Y0261987D01*
X0041439Y0261900D01*
X0041307Y0261817D01*
X0041173Y0261738D01*
X0041037Y0261661D01*
X0040899Y0261589D01*
X0040760Y0261519D01*
X0040618Y0261454D01*
X0040475Y0261392D01*
X0040331Y0261334D01*
X0040185Y0261279D01*
X0040037Y0261228D01*
X0039889Y0261181D01*
X0039739Y0261138D01*
X0039588Y0261099D01*
X0039436Y0261063D01*
X0039284Y0261032D01*
X0039130Y0261004D01*
X0038976Y0260980D01*
X0038822Y0260960D01*
X0038667Y0260944D01*
X0038511Y0260932D01*
X0038356Y0260924D01*
X0038200Y0260920D01*
X0038044Y0260920D01*
X0037888Y0260924D01*
X0037733Y0260932D01*
X0037577Y0260944D01*
X0037422Y0260960D01*
X0037268Y0260980D01*
X0037114Y0261004D01*
X0036960Y0261032D01*
X0036808Y0261063D01*
X0036656Y0261099D01*
X0036505Y0261138D01*
X0036355Y0261181D01*
X0036207Y0261228D01*
X0036059Y0261279D01*
X0035913Y0261334D01*
X0035769Y0261392D01*
X0035626Y0261454D01*
X0035484Y0261519D01*
X0035345Y0261589D01*
X0035207Y0261661D01*
X0035071Y0261738D01*
X0034937Y0261817D01*
X0034805Y0261900D01*
X0034675Y0261987D01*
X0034548Y0262076D01*
X0034423Y0262169D01*
X0034300Y0262265D01*
X0034180Y0262364D01*
X0034062Y0262467D01*
X0033947Y0262572D01*
X0033835Y0262680D01*
X0033725Y0262791D01*
X0033619Y0262904D01*
X0033515Y0263021D01*
X0033414Y0263140D01*
X0033317Y0263261D01*
X0033222Y0263385D01*
X0033131Y0263511D01*
X0033043Y0263640D01*
X0032958Y0263771D01*
X0032877Y0263904D01*
X0032799Y0264039D01*
X0032725Y0264176D01*
X0032654Y0264314D01*
X0032586Y0264455D01*
X0032522Y0264597D01*
X0032462Y0264741D01*
X0032406Y0264886D01*
X0032353Y0265033D01*
X0032304Y0265181D01*
X0032259Y0265330D01*
X0032218Y0265480D01*
X0032181Y0265632D01*
X0032147Y0265784D01*
X0032117Y0265937D01*
X0032092Y0266091D01*
X0032070Y0266245D01*
X0032052Y0266400D01*
X0032038Y0266555D01*
X0032028Y0266710D01*
X0032022Y0266866D01*
X0032020Y0267022D01*
X0087315Y0345408D02*
X0087317Y0345542D01*
X0087323Y0345676D01*
X0087333Y0345810D01*
X0087347Y0345944D01*
X0087365Y0346077D01*
X0087386Y0346209D01*
X0087412Y0346341D01*
X0087442Y0346472D01*
X0087475Y0346602D01*
X0087512Y0346730D01*
X0087554Y0346858D01*
X0087598Y0346985D01*
X0087647Y0347110D01*
X0087699Y0347233D01*
X0087755Y0347355D01*
X0087815Y0347476D01*
X0087878Y0347594D01*
X0087944Y0347711D01*
X0088014Y0347825D01*
X0088087Y0347938D01*
X0088164Y0348048D01*
X0088244Y0348156D01*
X0088327Y0348261D01*
X0088413Y0348364D01*
X0088502Y0348464D01*
X0088594Y0348562D01*
X0088689Y0348657D01*
X0088787Y0348749D01*
X0088887Y0348838D01*
X0088990Y0348924D01*
X0089095Y0349007D01*
X0089203Y0349087D01*
X0089313Y0349164D01*
X0089426Y0349237D01*
X0089540Y0349307D01*
X0089657Y0349373D01*
X0089775Y0349436D01*
X0089896Y0349496D01*
X0090018Y0349552D01*
X0090141Y0349604D01*
X0090266Y0349653D01*
X0090393Y0349697D01*
X0090521Y0349739D01*
X0090649Y0349776D01*
X0090779Y0349809D01*
X0090910Y0349839D01*
X0091042Y0349865D01*
X0091174Y0349886D01*
X0091307Y0349904D01*
X0091441Y0349918D01*
X0091575Y0349928D01*
X0091709Y0349934D01*
X0091843Y0349936D01*
X0091977Y0349934D01*
X0092111Y0349928D01*
X0092245Y0349918D01*
X0092379Y0349904D01*
X0092512Y0349886D01*
X0092644Y0349865D01*
X0092776Y0349839D01*
X0092907Y0349809D01*
X0093037Y0349776D01*
X0093165Y0349739D01*
X0093293Y0349697D01*
X0093420Y0349653D01*
X0093545Y0349604D01*
X0093668Y0349552D01*
X0093790Y0349496D01*
X0093911Y0349436D01*
X0094029Y0349373D01*
X0094146Y0349307D01*
X0094260Y0349237D01*
X0094373Y0349164D01*
X0094483Y0349087D01*
X0094591Y0349007D01*
X0094696Y0348924D01*
X0094799Y0348838D01*
X0094899Y0348749D01*
X0094997Y0348657D01*
X0095092Y0348562D01*
X0095184Y0348464D01*
X0095273Y0348364D01*
X0095359Y0348261D01*
X0095442Y0348156D01*
X0095522Y0348048D01*
X0095599Y0347938D01*
X0095672Y0347825D01*
X0095742Y0347711D01*
X0095808Y0347594D01*
X0095871Y0347476D01*
X0095931Y0347355D01*
X0095987Y0347233D01*
X0096039Y0347110D01*
X0096088Y0346985D01*
X0096132Y0346858D01*
X0096174Y0346730D01*
X0096211Y0346602D01*
X0096244Y0346472D01*
X0096274Y0346341D01*
X0096300Y0346209D01*
X0096321Y0346077D01*
X0096339Y0345944D01*
X0096353Y0345810D01*
X0096363Y0345676D01*
X0096369Y0345542D01*
X0096371Y0345408D01*
X0096369Y0345274D01*
X0096363Y0345140D01*
X0096353Y0345006D01*
X0096339Y0344872D01*
X0096321Y0344739D01*
X0096300Y0344607D01*
X0096274Y0344475D01*
X0096244Y0344344D01*
X0096211Y0344214D01*
X0096174Y0344086D01*
X0096132Y0343958D01*
X0096088Y0343831D01*
X0096039Y0343706D01*
X0095987Y0343583D01*
X0095931Y0343461D01*
X0095871Y0343340D01*
X0095808Y0343222D01*
X0095742Y0343105D01*
X0095672Y0342991D01*
X0095599Y0342878D01*
X0095522Y0342768D01*
X0095442Y0342660D01*
X0095359Y0342555D01*
X0095273Y0342452D01*
X0095184Y0342352D01*
X0095092Y0342254D01*
X0094997Y0342159D01*
X0094899Y0342067D01*
X0094799Y0341978D01*
X0094696Y0341892D01*
X0094591Y0341809D01*
X0094483Y0341729D01*
X0094373Y0341652D01*
X0094260Y0341579D01*
X0094146Y0341509D01*
X0094029Y0341443D01*
X0093911Y0341380D01*
X0093790Y0341320D01*
X0093668Y0341264D01*
X0093545Y0341212D01*
X0093420Y0341163D01*
X0093293Y0341119D01*
X0093165Y0341077D01*
X0093037Y0341040D01*
X0092907Y0341007D01*
X0092776Y0340977D01*
X0092644Y0340951D01*
X0092512Y0340930D01*
X0092379Y0340912D01*
X0092245Y0340898D01*
X0092111Y0340888D01*
X0091977Y0340882D01*
X0091843Y0340880D01*
X0091709Y0340882D01*
X0091575Y0340888D01*
X0091441Y0340898D01*
X0091307Y0340912D01*
X0091174Y0340930D01*
X0091042Y0340951D01*
X0090910Y0340977D01*
X0090779Y0341007D01*
X0090649Y0341040D01*
X0090521Y0341077D01*
X0090393Y0341119D01*
X0090266Y0341163D01*
X0090141Y0341212D01*
X0090018Y0341264D01*
X0089896Y0341320D01*
X0089775Y0341380D01*
X0089657Y0341443D01*
X0089540Y0341509D01*
X0089426Y0341579D01*
X0089313Y0341652D01*
X0089203Y0341729D01*
X0089095Y0341809D01*
X0088990Y0341892D01*
X0088887Y0341978D01*
X0088787Y0342067D01*
X0088689Y0342159D01*
X0088594Y0342254D01*
X0088502Y0342352D01*
X0088413Y0342452D01*
X0088327Y0342555D01*
X0088244Y0342660D01*
X0088164Y0342768D01*
X0088087Y0342878D01*
X0088014Y0342991D01*
X0087944Y0343105D01*
X0087878Y0343222D01*
X0087815Y0343340D01*
X0087755Y0343461D01*
X0087699Y0343583D01*
X0087647Y0343706D01*
X0087598Y0343831D01*
X0087554Y0343958D01*
X0087512Y0344086D01*
X0087475Y0344214D01*
X0087442Y0344344D01*
X0087412Y0344475D01*
X0087386Y0344607D01*
X0087365Y0344739D01*
X0087347Y0344872D01*
X0087333Y0345006D01*
X0087323Y0345140D01*
X0087317Y0345274D01*
X0087315Y0345408D01*
X0197551Y0345408D02*
X0197553Y0345542D01*
X0197559Y0345676D01*
X0197569Y0345810D01*
X0197583Y0345944D01*
X0197601Y0346077D01*
X0197622Y0346209D01*
X0197648Y0346341D01*
X0197678Y0346472D01*
X0197711Y0346602D01*
X0197748Y0346730D01*
X0197790Y0346858D01*
X0197834Y0346985D01*
X0197883Y0347110D01*
X0197935Y0347233D01*
X0197991Y0347355D01*
X0198051Y0347476D01*
X0198114Y0347594D01*
X0198180Y0347711D01*
X0198250Y0347825D01*
X0198323Y0347938D01*
X0198400Y0348048D01*
X0198480Y0348156D01*
X0198563Y0348261D01*
X0198649Y0348364D01*
X0198738Y0348464D01*
X0198830Y0348562D01*
X0198925Y0348657D01*
X0199023Y0348749D01*
X0199123Y0348838D01*
X0199226Y0348924D01*
X0199331Y0349007D01*
X0199439Y0349087D01*
X0199549Y0349164D01*
X0199662Y0349237D01*
X0199776Y0349307D01*
X0199893Y0349373D01*
X0200011Y0349436D01*
X0200132Y0349496D01*
X0200254Y0349552D01*
X0200377Y0349604D01*
X0200502Y0349653D01*
X0200629Y0349697D01*
X0200757Y0349739D01*
X0200885Y0349776D01*
X0201015Y0349809D01*
X0201146Y0349839D01*
X0201278Y0349865D01*
X0201410Y0349886D01*
X0201543Y0349904D01*
X0201677Y0349918D01*
X0201811Y0349928D01*
X0201945Y0349934D01*
X0202079Y0349936D01*
X0202213Y0349934D01*
X0202347Y0349928D01*
X0202481Y0349918D01*
X0202615Y0349904D01*
X0202748Y0349886D01*
X0202880Y0349865D01*
X0203012Y0349839D01*
X0203143Y0349809D01*
X0203273Y0349776D01*
X0203401Y0349739D01*
X0203529Y0349697D01*
X0203656Y0349653D01*
X0203781Y0349604D01*
X0203904Y0349552D01*
X0204026Y0349496D01*
X0204147Y0349436D01*
X0204265Y0349373D01*
X0204382Y0349307D01*
X0204496Y0349237D01*
X0204609Y0349164D01*
X0204719Y0349087D01*
X0204827Y0349007D01*
X0204932Y0348924D01*
X0205035Y0348838D01*
X0205135Y0348749D01*
X0205233Y0348657D01*
X0205328Y0348562D01*
X0205420Y0348464D01*
X0205509Y0348364D01*
X0205595Y0348261D01*
X0205678Y0348156D01*
X0205758Y0348048D01*
X0205835Y0347938D01*
X0205908Y0347825D01*
X0205978Y0347711D01*
X0206044Y0347594D01*
X0206107Y0347476D01*
X0206167Y0347355D01*
X0206223Y0347233D01*
X0206275Y0347110D01*
X0206324Y0346985D01*
X0206368Y0346858D01*
X0206410Y0346730D01*
X0206447Y0346602D01*
X0206480Y0346472D01*
X0206510Y0346341D01*
X0206536Y0346209D01*
X0206557Y0346077D01*
X0206575Y0345944D01*
X0206589Y0345810D01*
X0206599Y0345676D01*
X0206605Y0345542D01*
X0206607Y0345408D01*
X0206605Y0345274D01*
X0206599Y0345140D01*
X0206589Y0345006D01*
X0206575Y0344872D01*
X0206557Y0344739D01*
X0206536Y0344607D01*
X0206510Y0344475D01*
X0206480Y0344344D01*
X0206447Y0344214D01*
X0206410Y0344086D01*
X0206368Y0343958D01*
X0206324Y0343831D01*
X0206275Y0343706D01*
X0206223Y0343583D01*
X0206167Y0343461D01*
X0206107Y0343340D01*
X0206044Y0343222D01*
X0205978Y0343105D01*
X0205908Y0342991D01*
X0205835Y0342878D01*
X0205758Y0342768D01*
X0205678Y0342660D01*
X0205595Y0342555D01*
X0205509Y0342452D01*
X0205420Y0342352D01*
X0205328Y0342254D01*
X0205233Y0342159D01*
X0205135Y0342067D01*
X0205035Y0341978D01*
X0204932Y0341892D01*
X0204827Y0341809D01*
X0204719Y0341729D01*
X0204609Y0341652D01*
X0204496Y0341579D01*
X0204382Y0341509D01*
X0204265Y0341443D01*
X0204147Y0341380D01*
X0204026Y0341320D01*
X0203904Y0341264D01*
X0203781Y0341212D01*
X0203656Y0341163D01*
X0203529Y0341119D01*
X0203401Y0341077D01*
X0203273Y0341040D01*
X0203143Y0341007D01*
X0203012Y0340977D01*
X0202880Y0340951D01*
X0202748Y0340930D01*
X0202615Y0340912D01*
X0202481Y0340898D01*
X0202347Y0340888D01*
X0202213Y0340882D01*
X0202079Y0340880D01*
X0201945Y0340882D01*
X0201811Y0340888D01*
X0201677Y0340898D01*
X0201543Y0340912D01*
X0201410Y0340930D01*
X0201278Y0340951D01*
X0201146Y0340977D01*
X0201015Y0341007D01*
X0200885Y0341040D01*
X0200757Y0341077D01*
X0200629Y0341119D01*
X0200502Y0341163D01*
X0200377Y0341212D01*
X0200254Y0341264D01*
X0200132Y0341320D01*
X0200011Y0341380D01*
X0199893Y0341443D01*
X0199776Y0341509D01*
X0199662Y0341579D01*
X0199549Y0341652D01*
X0199439Y0341729D01*
X0199331Y0341809D01*
X0199226Y0341892D01*
X0199123Y0341978D01*
X0199023Y0342067D01*
X0198925Y0342159D01*
X0198830Y0342254D01*
X0198738Y0342352D01*
X0198649Y0342452D01*
X0198563Y0342555D01*
X0198480Y0342660D01*
X0198400Y0342768D01*
X0198323Y0342878D01*
X0198250Y0342991D01*
X0198180Y0343105D01*
X0198114Y0343222D01*
X0198051Y0343340D01*
X0197991Y0343461D01*
X0197935Y0343583D01*
X0197883Y0343706D01*
X0197834Y0343831D01*
X0197790Y0343958D01*
X0197748Y0344086D01*
X0197711Y0344214D01*
X0197678Y0344344D01*
X0197648Y0344475D01*
X0197622Y0344607D01*
X0197601Y0344739D01*
X0197583Y0344872D01*
X0197569Y0345006D01*
X0197559Y0345140D01*
X0197553Y0345274D01*
X0197551Y0345408D01*
X0220835Y0301900D02*
X0220837Y0301993D01*
X0220843Y0302085D01*
X0220853Y0302177D01*
X0220867Y0302268D01*
X0220884Y0302359D01*
X0220906Y0302449D01*
X0220931Y0302538D01*
X0220960Y0302626D01*
X0220993Y0302712D01*
X0221030Y0302797D01*
X0221070Y0302881D01*
X0221114Y0302962D01*
X0221161Y0303042D01*
X0221211Y0303120D01*
X0221265Y0303195D01*
X0221322Y0303268D01*
X0221382Y0303338D01*
X0221445Y0303406D01*
X0221511Y0303471D01*
X0221579Y0303533D01*
X0221650Y0303593D01*
X0221724Y0303649D01*
X0221800Y0303702D01*
X0221878Y0303751D01*
X0221958Y0303798D01*
X0222040Y0303840D01*
X0222124Y0303880D01*
X0222209Y0303915D01*
X0222296Y0303947D01*
X0222384Y0303976D01*
X0222473Y0304000D01*
X0222563Y0304021D01*
X0222654Y0304037D01*
X0222746Y0304050D01*
X0222838Y0304059D01*
X0222931Y0304064D01*
X0223023Y0304065D01*
X0223116Y0304062D01*
X0223208Y0304055D01*
X0223300Y0304044D01*
X0223391Y0304029D01*
X0223482Y0304011D01*
X0223572Y0303988D01*
X0223660Y0303962D01*
X0223748Y0303932D01*
X0223834Y0303898D01*
X0223918Y0303861D01*
X0224001Y0303819D01*
X0224082Y0303775D01*
X0224162Y0303727D01*
X0224239Y0303676D01*
X0224313Y0303621D01*
X0224386Y0303563D01*
X0224456Y0303503D01*
X0224523Y0303439D01*
X0224587Y0303373D01*
X0224649Y0303303D01*
X0224707Y0303232D01*
X0224762Y0303158D01*
X0224814Y0303081D01*
X0224863Y0303002D01*
X0224909Y0302922D01*
X0224951Y0302839D01*
X0224989Y0302755D01*
X0225024Y0302669D01*
X0225055Y0302582D01*
X0225082Y0302494D01*
X0225105Y0302404D01*
X0225125Y0302314D01*
X0225141Y0302223D01*
X0225153Y0302131D01*
X0225161Y0302039D01*
X0225165Y0301946D01*
X0225165Y0301854D01*
X0225161Y0301761D01*
X0225153Y0301669D01*
X0225141Y0301577D01*
X0225125Y0301486D01*
X0225105Y0301396D01*
X0225082Y0301306D01*
X0225055Y0301218D01*
X0225024Y0301131D01*
X0224989Y0301045D01*
X0224951Y0300961D01*
X0224909Y0300878D01*
X0224863Y0300798D01*
X0224814Y0300719D01*
X0224762Y0300642D01*
X0224707Y0300568D01*
X0224649Y0300497D01*
X0224587Y0300427D01*
X0224523Y0300361D01*
X0224456Y0300297D01*
X0224386Y0300237D01*
X0224313Y0300179D01*
X0224239Y0300124D01*
X0224162Y0300073D01*
X0224083Y0300025D01*
X0224001Y0299981D01*
X0223918Y0299939D01*
X0223834Y0299902D01*
X0223748Y0299868D01*
X0223660Y0299838D01*
X0223572Y0299812D01*
X0223482Y0299789D01*
X0223391Y0299771D01*
X0223300Y0299756D01*
X0223208Y0299745D01*
X0223116Y0299738D01*
X0223023Y0299735D01*
X0222931Y0299736D01*
X0222838Y0299741D01*
X0222746Y0299750D01*
X0222654Y0299763D01*
X0222563Y0299779D01*
X0222473Y0299800D01*
X0222384Y0299824D01*
X0222296Y0299853D01*
X0222209Y0299885D01*
X0222124Y0299920D01*
X0222040Y0299960D01*
X0221958Y0300002D01*
X0221878Y0300049D01*
X0221800Y0300098D01*
X0221724Y0300151D01*
X0221650Y0300207D01*
X0221579Y0300267D01*
X0221511Y0300329D01*
X0221445Y0300394D01*
X0221382Y0300462D01*
X0221322Y0300532D01*
X0221265Y0300605D01*
X0221211Y0300680D01*
X0221161Y0300758D01*
X0221114Y0300838D01*
X0221070Y0300919D01*
X0221030Y0301003D01*
X0220993Y0301088D01*
X0220960Y0301174D01*
X0220931Y0301262D01*
X0220906Y0301351D01*
X0220884Y0301441D01*
X0220867Y0301532D01*
X0220853Y0301623D01*
X0220843Y0301715D01*
X0220837Y0301807D01*
X0220835Y0301900D01*
X0302850Y0301900D02*
X0302852Y0302012D01*
X0302858Y0302123D01*
X0302868Y0302235D01*
X0302882Y0302346D01*
X0302899Y0302456D01*
X0302921Y0302566D01*
X0302947Y0302675D01*
X0302976Y0302783D01*
X0303009Y0302889D01*
X0303046Y0302995D01*
X0303087Y0303099D01*
X0303132Y0303202D01*
X0303180Y0303303D01*
X0303231Y0303402D01*
X0303286Y0303499D01*
X0303345Y0303594D01*
X0303406Y0303688D01*
X0303471Y0303779D01*
X0303540Y0303867D01*
X0303611Y0303953D01*
X0303685Y0304037D01*
X0303763Y0304117D01*
X0303843Y0304195D01*
X0303926Y0304271D01*
X0304011Y0304343D01*
X0304099Y0304412D01*
X0304189Y0304478D01*
X0304282Y0304540D01*
X0304377Y0304600D01*
X0304474Y0304656D01*
X0304572Y0304708D01*
X0304673Y0304757D01*
X0304775Y0304802D01*
X0304879Y0304844D01*
X0304984Y0304882D01*
X0305091Y0304916D01*
X0305198Y0304946D01*
X0305307Y0304973D01*
X0305416Y0304995D01*
X0305527Y0305014D01*
X0305637Y0305029D01*
X0305749Y0305040D01*
X0305860Y0305047D01*
X0305972Y0305050D01*
X0306084Y0305049D01*
X0306196Y0305044D01*
X0306307Y0305035D01*
X0306418Y0305022D01*
X0306529Y0305005D01*
X0306639Y0304985D01*
X0306748Y0304960D01*
X0306856Y0304932D01*
X0306963Y0304899D01*
X0307069Y0304863D01*
X0307173Y0304823D01*
X0307276Y0304780D01*
X0307378Y0304733D01*
X0307477Y0304682D01*
X0307575Y0304628D01*
X0307671Y0304570D01*
X0307765Y0304509D01*
X0307856Y0304445D01*
X0307945Y0304378D01*
X0308032Y0304307D01*
X0308116Y0304233D01*
X0308198Y0304157D01*
X0308276Y0304077D01*
X0308352Y0303995D01*
X0308425Y0303910D01*
X0308495Y0303823D01*
X0308561Y0303733D01*
X0308625Y0303641D01*
X0308685Y0303547D01*
X0308742Y0303451D01*
X0308795Y0303352D01*
X0308845Y0303252D01*
X0308891Y0303151D01*
X0308934Y0303047D01*
X0308973Y0302942D01*
X0309008Y0302836D01*
X0309039Y0302729D01*
X0309067Y0302620D01*
X0309090Y0302511D01*
X0309110Y0302401D01*
X0309126Y0302290D01*
X0309138Y0302179D01*
X0309146Y0302068D01*
X0309150Y0301956D01*
X0309150Y0301844D01*
X0309146Y0301732D01*
X0309138Y0301621D01*
X0309126Y0301510D01*
X0309110Y0301399D01*
X0309090Y0301289D01*
X0309067Y0301180D01*
X0309039Y0301071D01*
X0309008Y0300964D01*
X0308973Y0300858D01*
X0308934Y0300753D01*
X0308891Y0300649D01*
X0308845Y0300548D01*
X0308795Y0300448D01*
X0308742Y0300349D01*
X0308685Y0300253D01*
X0308625Y0300159D01*
X0308561Y0300067D01*
X0308495Y0299977D01*
X0308425Y0299890D01*
X0308352Y0299805D01*
X0308276Y0299723D01*
X0308198Y0299643D01*
X0308116Y0299567D01*
X0308032Y0299493D01*
X0307945Y0299422D01*
X0307856Y0299355D01*
X0307765Y0299291D01*
X0307671Y0299230D01*
X0307575Y0299172D01*
X0307477Y0299118D01*
X0307378Y0299067D01*
X0307276Y0299020D01*
X0307173Y0298977D01*
X0307069Y0298937D01*
X0306963Y0298901D01*
X0306856Y0298868D01*
X0306748Y0298840D01*
X0306639Y0298815D01*
X0306529Y0298795D01*
X0306418Y0298778D01*
X0306307Y0298765D01*
X0306196Y0298756D01*
X0306084Y0298751D01*
X0305972Y0298750D01*
X0305860Y0298753D01*
X0305749Y0298760D01*
X0305637Y0298771D01*
X0305527Y0298786D01*
X0305416Y0298805D01*
X0305307Y0298827D01*
X0305198Y0298854D01*
X0305091Y0298884D01*
X0304984Y0298918D01*
X0304879Y0298956D01*
X0304775Y0298998D01*
X0304673Y0299043D01*
X0304572Y0299092D01*
X0304474Y0299144D01*
X0304377Y0299200D01*
X0304282Y0299260D01*
X0304189Y0299322D01*
X0304099Y0299388D01*
X0304011Y0299457D01*
X0303926Y0299529D01*
X0303843Y0299605D01*
X0303763Y0299683D01*
X0303685Y0299763D01*
X0303611Y0299847D01*
X0303540Y0299933D01*
X0303471Y0300021D01*
X0303406Y0300112D01*
X0303345Y0300206D01*
X0303286Y0300301D01*
X0303231Y0300398D01*
X0303180Y0300497D01*
X0303132Y0300598D01*
X0303087Y0300701D01*
X0303046Y0300805D01*
X0303009Y0300911D01*
X0302976Y0301017D01*
X0302947Y0301125D01*
X0302921Y0301234D01*
X0302899Y0301344D01*
X0302882Y0301454D01*
X0302868Y0301565D01*
X0302858Y0301677D01*
X0302852Y0301788D01*
X0302850Y0301900D01*
X0378477Y0267022D02*
X0378479Y0267178D01*
X0378485Y0267334D01*
X0378495Y0267489D01*
X0378509Y0267644D01*
X0378527Y0267799D01*
X0378549Y0267953D01*
X0378574Y0268107D01*
X0378604Y0268260D01*
X0378638Y0268412D01*
X0378675Y0268564D01*
X0378716Y0268714D01*
X0378761Y0268863D01*
X0378810Y0269011D01*
X0378863Y0269158D01*
X0378919Y0269303D01*
X0378979Y0269447D01*
X0379043Y0269589D01*
X0379111Y0269730D01*
X0379182Y0269868D01*
X0379256Y0270005D01*
X0379334Y0270140D01*
X0379415Y0270273D01*
X0379500Y0270404D01*
X0379588Y0270533D01*
X0379679Y0270659D01*
X0379774Y0270783D01*
X0379871Y0270904D01*
X0379972Y0271023D01*
X0380076Y0271140D01*
X0380182Y0271253D01*
X0380292Y0271364D01*
X0380404Y0271472D01*
X0380519Y0271577D01*
X0380637Y0271680D01*
X0380757Y0271779D01*
X0380880Y0271875D01*
X0381005Y0271968D01*
X0381132Y0272057D01*
X0381262Y0272144D01*
X0381394Y0272227D01*
X0381528Y0272306D01*
X0381664Y0272383D01*
X0381802Y0272455D01*
X0381941Y0272525D01*
X0382083Y0272590D01*
X0382226Y0272652D01*
X0382370Y0272710D01*
X0382516Y0272765D01*
X0382664Y0272816D01*
X0382812Y0272863D01*
X0382962Y0272906D01*
X0383113Y0272945D01*
X0383265Y0272981D01*
X0383417Y0273012D01*
X0383571Y0273040D01*
X0383725Y0273064D01*
X0383879Y0273084D01*
X0384034Y0273100D01*
X0384190Y0273112D01*
X0384345Y0273120D01*
X0384501Y0273124D01*
X0384657Y0273124D01*
X0384813Y0273120D01*
X0384968Y0273112D01*
X0385124Y0273100D01*
X0385279Y0273084D01*
X0385433Y0273064D01*
X0385587Y0273040D01*
X0385741Y0273012D01*
X0385893Y0272981D01*
X0386045Y0272945D01*
X0386196Y0272906D01*
X0386346Y0272863D01*
X0386494Y0272816D01*
X0386642Y0272765D01*
X0386788Y0272710D01*
X0386932Y0272652D01*
X0387075Y0272590D01*
X0387217Y0272525D01*
X0387356Y0272455D01*
X0387494Y0272383D01*
X0387630Y0272306D01*
X0387764Y0272227D01*
X0387896Y0272144D01*
X0388026Y0272057D01*
X0388153Y0271968D01*
X0388278Y0271875D01*
X0388401Y0271779D01*
X0388521Y0271680D01*
X0388639Y0271577D01*
X0388754Y0271472D01*
X0388866Y0271364D01*
X0388976Y0271253D01*
X0389082Y0271140D01*
X0389186Y0271023D01*
X0389287Y0270904D01*
X0389384Y0270783D01*
X0389479Y0270659D01*
X0389570Y0270533D01*
X0389658Y0270404D01*
X0389743Y0270273D01*
X0389824Y0270140D01*
X0389902Y0270005D01*
X0389976Y0269868D01*
X0390047Y0269730D01*
X0390115Y0269589D01*
X0390179Y0269447D01*
X0390239Y0269303D01*
X0390295Y0269158D01*
X0390348Y0269011D01*
X0390397Y0268863D01*
X0390442Y0268714D01*
X0390483Y0268564D01*
X0390520Y0268412D01*
X0390554Y0268260D01*
X0390584Y0268107D01*
X0390609Y0267953D01*
X0390631Y0267799D01*
X0390649Y0267644D01*
X0390663Y0267489D01*
X0390673Y0267334D01*
X0390679Y0267178D01*
X0390681Y0267022D01*
X0390679Y0266866D01*
X0390673Y0266710D01*
X0390663Y0266555D01*
X0390649Y0266400D01*
X0390631Y0266245D01*
X0390609Y0266091D01*
X0390584Y0265937D01*
X0390554Y0265784D01*
X0390520Y0265632D01*
X0390483Y0265480D01*
X0390442Y0265330D01*
X0390397Y0265181D01*
X0390348Y0265033D01*
X0390295Y0264886D01*
X0390239Y0264741D01*
X0390179Y0264597D01*
X0390115Y0264455D01*
X0390047Y0264314D01*
X0389976Y0264176D01*
X0389902Y0264039D01*
X0389824Y0263904D01*
X0389743Y0263771D01*
X0389658Y0263640D01*
X0389570Y0263511D01*
X0389479Y0263385D01*
X0389384Y0263261D01*
X0389287Y0263140D01*
X0389186Y0263021D01*
X0389082Y0262904D01*
X0388976Y0262791D01*
X0388866Y0262680D01*
X0388754Y0262572D01*
X0388639Y0262467D01*
X0388521Y0262364D01*
X0388401Y0262265D01*
X0388278Y0262169D01*
X0388153Y0262076D01*
X0388026Y0261987D01*
X0387896Y0261900D01*
X0387764Y0261817D01*
X0387630Y0261738D01*
X0387494Y0261661D01*
X0387356Y0261589D01*
X0387217Y0261519D01*
X0387075Y0261454D01*
X0386932Y0261392D01*
X0386788Y0261334D01*
X0386642Y0261279D01*
X0386494Y0261228D01*
X0386346Y0261181D01*
X0386196Y0261138D01*
X0386045Y0261099D01*
X0385893Y0261063D01*
X0385741Y0261032D01*
X0385587Y0261004D01*
X0385433Y0260980D01*
X0385279Y0260960D01*
X0385124Y0260944D01*
X0384968Y0260932D01*
X0384813Y0260924D01*
X0384657Y0260920D01*
X0384501Y0260920D01*
X0384345Y0260924D01*
X0384190Y0260932D01*
X0384034Y0260944D01*
X0383879Y0260960D01*
X0383725Y0260980D01*
X0383571Y0261004D01*
X0383417Y0261032D01*
X0383265Y0261063D01*
X0383113Y0261099D01*
X0382962Y0261138D01*
X0382812Y0261181D01*
X0382664Y0261228D01*
X0382516Y0261279D01*
X0382370Y0261334D01*
X0382226Y0261392D01*
X0382083Y0261454D01*
X0381941Y0261519D01*
X0381802Y0261589D01*
X0381664Y0261661D01*
X0381528Y0261738D01*
X0381394Y0261817D01*
X0381262Y0261900D01*
X0381132Y0261987D01*
X0381005Y0262076D01*
X0380880Y0262169D01*
X0380757Y0262265D01*
X0380637Y0262364D01*
X0380519Y0262467D01*
X0380404Y0262572D01*
X0380292Y0262680D01*
X0380182Y0262791D01*
X0380076Y0262904D01*
X0379972Y0263021D01*
X0379871Y0263140D01*
X0379774Y0263261D01*
X0379679Y0263385D01*
X0379588Y0263511D01*
X0379500Y0263640D01*
X0379415Y0263771D01*
X0379334Y0263904D01*
X0379256Y0264039D01*
X0379182Y0264176D01*
X0379111Y0264314D01*
X0379043Y0264455D01*
X0378979Y0264597D01*
X0378919Y0264741D01*
X0378863Y0264886D01*
X0378810Y0265033D01*
X0378761Y0265181D01*
X0378716Y0265330D01*
X0378675Y0265480D01*
X0378638Y0265632D01*
X0378604Y0265784D01*
X0378574Y0265937D01*
X0378549Y0266091D01*
X0378527Y0266245D01*
X0378509Y0266400D01*
X0378495Y0266555D01*
X0378485Y0266710D01*
X0378479Y0266866D01*
X0378477Y0267022D01*
X0382414Y0613479D02*
X0382416Y0613635D01*
X0382422Y0613791D01*
X0382432Y0613946D01*
X0382446Y0614101D01*
X0382464Y0614256D01*
X0382486Y0614410D01*
X0382511Y0614564D01*
X0382541Y0614717D01*
X0382575Y0614869D01*
X0382612Y0615021D01*
X0382653Y0615171D01*
X0382698Y0615320D01*
X0382747Y0615468D01*
X0382800Y0615615D01*
X0382856Y0615760D01*
X0382916Y0615904D01*
X0382980Y0616046D01*
X0383048Y0616187D01*
X0383119Y0616325D01*
X0383193Y0616462D01*
X0383271Y0616597D01*
X0383352Y0616730D01*
X0383437Y0616861D01*
X0383525Y0616990D01*
X0383616Y0617116D01*
X0383711Y0617240D01*
X0383808Y0617361D01*
X0383909Y0617480D01*
X0384013Y0617597D01*
X0384119Y0617710D01*
X0384229Y0617821D01*
X0384341Y0617929D01*
X0384456Y0618034D01*
X0384574Y0618137D01*
X0384694Y0618236D01*
X0384817Y0618332D01*
X0384942Y0618425D01*
X0385069Y0618514D01*
X0385199Y0618601D01*
X0385331Y0618684D01*
X0385465Y0618763D01*
X0385601Y0618840D01*
X0385739Y0618912D01*
X0385878Y0618982D01*
X0386020Y0619047D01*
X0386163Y0619109D01*
X0386307Y0619167D01*
X0386453Y0619222D01*
X0386601Y0619273D01*
X0386749Y0619320D01*
X0386899Y0619363D01*
X0387050Y0619402D01*
X0387202Y0619438D01*
X0387354Y0619469D01*
X0387508Y0619497D01*
X0387662Y0619521D01*
X0387816Y0619541D01*
X0387971Y0619557D01*
X0388127Y0619569D01*
X0388282Y0619577D01*
X0388438Y0619581D01*
X0388594Y0619581D01*
X0388750Y0619577D01*
X0388905Y0619569D01*
X0389061Y0619557D01*
X0389216Y0619541D01*
X0389370Y0619521D01*
X0389524Y0619497D01*
X0389678Y0619469D01*
X0389830Y0619438D01*
X0389982Y0619402D01*
X0390133Y0619363D01*
X0390283Y0619320D01*
X0390431Y0619273D01*
X0390579Y0619222D01*
X0390725Y0619167D01*
X0390869Y0619109D01*
X0391012Y0619047D01*
X0391154Y0618982D01*
X0391293Y0618912D01*
X0391431Y0618840D01*
X0391567Y0618763D01*
X0391701Y0618684D01*
X0391833Y0618601D01*
X0391963Y0618514D01*
X0392090Y0618425D01*
X0392215Y0618332D01*
X0392338Y0618236D01*
X0392458Y0618137D01*
X0392576Y0618034D01*
X0392691Y0617929D01*
X0392803Y0617821D01*
X0392913Y0617710D01*
X0393019Y0617597D01*
X0393123Y0617480D01*
X0393224Y0617361D01*
X0393321Y0617240D01*
X0393416Y0617116D01*
X0393507Y0616990D01*
X0393595Y0616861D01*
X0393680Y0616730D01*
X0393761Y0616597D01*
X0393839Y0616462D01*
X0393913Y0616325D01*
X0393984Y0616187D01*
X0394052Y0616046D01*
X0394116Y0615904D01*
X0394176Y0615760D01*
X0394232Y0615615D01*
X0394285Y0615468D01*
X0394334Y0615320D01*
X0394379Y0615171D01*
X0394420Y0615021D01*
X0394457Y0614869D01*
X0394491Y0614717D01*
X0394521Y0614564D01*
X0394546Y0614410D01*
X0394568Y0614256D01*
X0394586Y0614101D01*
X0394600Y0613946D01*
X0394610Y0613791D01*
X0394616Y0613635D01*
X0394618Y0613479D01*
X0394616Y0613323D01*
X0394610Y0613167D01*
X0394600Y0613012D01*
X0394586Y0612857D01*
X0394568Y0612702D01*
X0394546Y0612548D01*
X0394521Y0612394D01*
X0394491Y0612241D01*
X0394457Y0612089D01*
X0394420Y0611937D01*
X0394379Y0611787D01*
X0394334Y0611638D01*
X0394285Y0611490D01*
X0394232Y0611343D01*
X0394176Y0611198D01*
X0394116Y0611054D01*
X0394052Y0610912D01*
X0393984Y0610771D01*
X0393913Y0610633D01*
X0393839Y0610496D01*
X0393761Y0610361D01*
X0393680Y0610228D01*
X0393595Y0610097D01*
X0393507Y0609968D01*
X0393416Y0609842D01*
X0393321Y0609718D01*
X0393224Y0609597D01*
X0393123Y0609478D01*
X0393019Y0609361D01*
X0392913Y0609248D01*
X0392803Y0609137D01*
X0392691Y0609029D01*
X0392576Y0608924D01*
X0392458Y0608821D01*
X0392338Y0608722D01*
X0392215Y0608626D01*
X0392090Y0608533D01*
X0391963Y0608444D01*
X0391833Y0608357D01*
X0391701Y0608274D01*
X0391567Y0608195D01*
X0391431Y0608118D01*
X0391293Y0608046D01*
X0391154Y0607976D01*
X0391012Y0607911D01*
X0390869Y0607849D01*
X0390725Y0607791D01*
X0390579Y0607736D01*
X0390431Y0607685D01*
X0390283Y0607638D01*
X0390133Y0607595D01*
X0389982Y0607556D01*
X0389830Y0607520D01*
X0389678Y0607489D01*
X0389524Y0607461D01*
X0389370Y0607437D01*
X0389216Y0607417D01*
X0389061Y0607401D01*
X0388905Y0607389D01*
X0388750Y0607381D01*
X0388594Y0607377D01*
X0388438Y0607377D01*
X0388282Y0607381D01*
X0388127Y0607389D01*
X0387971Y0607401D01*
X0387816Y0607417D01*
X0387662Y0607437D01*
X0387508Y0607461D01*
X0387354Y0607489D01*
X0387202Y0607520D01*
X0387050Y0607556D01*
X0386899Y0607595D01*
X0386749Y0607638D01*
X0386601Y0607685D01*
X0386453Y0607736D01*
X0386307Y0607791D01*
X0386163Y0607849D01*
X0386020Y0607911D01*
X0385878Y0607976D01*
X0385739Y0608046D01*
X0385601Y0608118D01*
X0385465Y0608195D01*
X0385331Y0608274D01*
X0385199Y0608357D01*
X0385069Y0608444D01*
X0384942Y0608533D01*
X0384817Y0608626D01*
X0384694Y0608722D01*
X0384574Y0608821D01*
X0384456Y0608924D01*
X0384341Y0609029D01*
X0384229Y0609137D01*
X0384119Y0609248D01*
X0384013Y0609361D01*
X0383909Y0609478D01*
X0383808Y0609597D01*
X0383711Y0609718D01*
X0383616Y0609842D01*
X0383525Y0609968D01*
X0383437Y0610097D01*
X0383352Y0610228D01*
X0383271Y0610361D01*
X0383193Y0610496D01*
X0383119Y0610633D01*
X0383048Y0610771D01*
X0382980Y0610912D01*
X0382916Y0611054D01*
X0382856Y0611198D01*
X0382800Y0611343D01*
X0382747Y0611490D01*
X0382698Y0611638D01*
X0382653Y0611787D01*
X0382612Y0611937D01*
X0382575Y0612089D01*
X0382541Y0612241D01*
X0382511Y0612394D01*
X0382486Y0612548D01*
X0382464Y0612702D01*
X0382446Y0612857D01*
X0382432Y0613012D01*
X0382422Y0613167D01*
X0382416Y0613323D01*
X0382414Y0613479D01*
X0028083Y0613479D02*
X0028085Y0613635D01*
X0028091Y0613791D01*
X0028101Y0613946D01*
X0028115Y0614101D01*
X0028133Y0614256D01*
X0028155Y0614410D01*
X0028180Y0614564D01*
X0028210Y0614717D01*
X0028244Y0614869D01*
X0028281Y0615021D01*
X0028322Y0615171D01*
X0028367Y0615320D01*
X0028416Y0615468D01*
X0028469Y0615615D01*
X0028525Y0615760D01*
X0028585Y0615904D01*
X0028649Y0616046D01*
X0028717Y0616187D01*
X0028788Y0616325D01*
X0028862Y0616462D01*
X0028940Y0616597D01*
X0029021Y0616730D01*
X0029106Y0616861D01*
X0029194Y0616990D01*
X0029285Y0617116D01*
X0029380Y0617240D01*
X0029477Y0617361D01*
X0029578Y0617480D01*
X0029682Y0617597D01*
X0029788Y0617710D01*
X0029898Y0617821D01*
X0030010Y0617929D01*
X0030125Y0618034D01*
X0030243Y0618137D01*
X0030363Y0618236D01*
X0030486Y0618332D01*
X0030611Y0618425D01*
X0030738Y0618514D01*
X0030868Y0618601D01*
X0031000Y0618684D01*
X0031134Y0618763D01*
X0031270Y0618840D01*
X0031408Y0618912D01*
X0031547Y0618982D01*
X0031689Y0619047D01*
X0031832Y0619109D01*
X0031976Y0619167D01*
X0032122Y0619222D01*
X0032270Y0619273D01*
X0032418Y0619320D01*
X0032568Y0619363D01*
X0032719Y0619402D01*
X0032871Y0619438D01*
X0033023Y0619469D01*
X0033177Y0619497D01*
X0033331Y0619521D01*
X0033485Y0619541D01*
X0033640Y0619557D01*
X0033796Y0619569D01*
X0033951Y0619577D01*
X0034107Y0619581D01*
X0034263Y0619581D01*
X0034419Y0619577D01*
X0034574Y0619569D01*
X0034730Y0619557D01*
X0034885Y0619541D01*
X0035039Y0619521D01*
X0035193Y0619497D01*
X0035347Y0619469D01*
X0035499Y0619438D01*
X0035651Y0619402D01*
X0035802Y0619363D01*
X0035952Y0619320D01*
X0036100Y0619273D01*
X0036248Y0619222D01*
X0036394Y0619167D01*
X0036538Y0619109D01*
X0036681Y0619047D01*
X0036823Y0618982D01*
X0036962Y0618912D01*
X0037100Y0618840D01*
X0037236Y0618763D01*
X0037370Y0618684D01*
X0037502Y0618601D01*
X0037632Y0618514D01*
X0037759Y0618425D01*
X0037884Y0618332D01*
X0038007Y0618236D01*
X0038127Y0618137D01*
X0038245Y0618034D01*
X0038360Y0617929D01*
X0038472Y0617821D01*
X0038582Y0617710D01*
X0038688Y0617597D01*
X0038792Y0617480D01*
X0038893Y0617361D01*
X0038990Y0617240D01*
X0039085Y0617116D01*
X0039176Y0616990D01*
X0039264Y0616861D01*
X0039349Y0616730D01*
X0039430Y0616597D01*
X0039508Y0616462D01*
X0039582Y0616325D01*
X0039653Y0616187D01*
X0039721Y0616046D01*
X0039785Y0615904D01*
X0039845Y0615760D01*
X0039901Y0615615D01*
X0039954Y0615468D01*
X0040003Y0615320D01*
X0040048Y0615171D01*
X0040089Y0615021D01*
X0040126Y0614869D01*
X0040160Y0614717D01*
X0040190Y0614564D01*
X0040215Y0614410D01*
X0040237Y0614256D01*
X0040255Y0614101D01*
X0040269Y0613946D01*
X0040279Y0613791D01*
X0040285Y0613635D01*
X0040287Y0613479D01*
X0040285Y0613323D01*
X0040279Y0613167D01*
X0040269Y0613012D01*
X0040255Y0612857D01*
X0040237Y0612702D01*
X0040215Y0612548D01*
X0040190Y0612394D01*
X0040160Y0612241D01*
X0040126Y0612089D01*
X0040089Y0611937D01*
X0040048Y0611787D01*
X0040003Y0611638D01*
X0039954Y0611490D01*
X0039901Y0611343D01*
X0039845Y0611198D01*
X0039785Y0611054D01*
X0039721Y0610912D01*
X0039653Y0610771D01*
X0039582Y0610633D01*
X0039508Y0610496D01*
X0039430Y0610361D01*
X0039349Y0610228D01*
X0039264Y0610097D01*
X0039176Y0609968D01*
X0039085Y0609842D01*
X0038990Y0609718D01*
X0038893Y0609597D01*
X0038792Y0609478D01*
X0038688Y0609361D01*
X0038582Y0609248D01*
X0038472Y0609137D01*
X0038360Y0609029D01*
X0038245Y0608924D01*
X0038127Y0608821D01*
X0038007Y0608722D01*
X0037884Y0608626D01*
X0037759Y0608533D01*
X0037632Y0608444D01*
X0037502Y0608357D01*
X0037370Y0608274D01*
X0037236Y0608195D01*
X0037100Y0608118D01*
X0036962Y0608046D01*
X0036823Y0607976D01*
X0036681Y0607911D01*
X0036538Y0607849D01*
X0036394Y0607791D01*
X0036248Y0607736D01*
X0036100Y0607685D01*
X0035952Y0607638D01*
X0035802Y0607595D01*
X0035651Y0607556D01*
X0035499Y0607520D01*
X0035347Y0607489D01*
X0035193Y0607461D01*
X0035039Y0607437D01*
X0034885Y0607417D01*
X0034730Y0607401D01*
X0034574Y0607389D01*
X0034419Y0607381D01*
X0034263Y0607377D01*
X0034107Y0607377D01*
X0033951Y0607381D01*
X0033796Y0607389D01*
X0033640Y0607401D01*
X0033485Y0607417D01*
X0033331Y0607437D01*
X0033177Y0607461D01*
X0033023Y0607489D01*
X0032871Y0607520D01*
X0032719Y0607556D01*
X0032568Y0607595D01*
X0032418Y0607638D01*
X0032270Y0607685D01*
X0032122Y0607736D01*
X0031976Y0607791D01*
X0031832Y0607849D01*
X0031689Y0607911D01*
X0031547Y0607976D01*
X0031408Y0608046D01*
X0031270Y0608118D01*
X0031134Y0608195D01*
X0031000Y0608274D01*
X0030868Y0608357D01*
X0030738Y0608444D01*
X0030611Y0608533D01*
X0030486Y0608626D01*
X0030363Y0608722D01*
X0030243Y0608821D01*
X0030125Y0608924D01*
X0030010Y0609029D01*
X0029898Y0609137D01*
X0029788Y0609248D01*
X0029682Y0609361D01*
X0029578Y0609478D01*
X0029477Y0609597D01*
X0029380Y0609718D01*
X0029285Y0609842D01*
X0029194Y0609968D01*
X0029106Y0610097D01*
X0029021Y0610228D01*
X0028940Y0610361D01*
X0028862Y0610496D01*
X0028788Y0610633D01*
X0028717Y0610771D01*
X0028649Y0610912D01*
X0028585Y0611054D01*
X0028525Y0611198D01*
X0028469Y0611343D01*
X0028416Y0611490D01*
X0028367Y0611638D01*
X0028322Y0611787D01*
X0028281Y0611937D01*
X0028244Y0612089D01*
X0028210Y0612241D01*
X0028180Y0612394D01*
X0028155Y0612548D01*
X0028133Y0612702D01*
X0028115Y0612857D01*
X0028101Y0613012D01*
X0028091Y0613167D01*
X0028085Y0613323D01*
X0028083Y0613479D01*
M02*
