%
M48
M72
T01C0.01571
T02C0.01575
T03C0.03200
T04C0.04000
T05C0.04331
T06C0.04685
T07C0.04700
T08C0.05000
T09C0.05900
T10C0.06299
T11C0.09055
T12C0.12205
%
T01
X337900Y271575
X335450Y287500
X355050Y271575
T02
X36550Y248300
X21850Y276475
X21850Y288725
X21850Y300975
X40225Y316900
X40225Y349975
X47575Y361225
X47575Y369800
X47575Y375700
X41450Y375925
X41450Y369800
X47575Y383050
X41450Y394075
X41450Y406325
X46350Y414900
X46350Y427150
X52475Y433275
X50392Y443810
X63500Y450425
X72075Y460225
X75750Y467575
X78200Y483500
X73300Y485950
X63500Y476150
X58600Y472475
X40225Y460225
X30425Y474925
X30425Y482275
X36550Y494525
X52475Y504325
X70850Y504325
X85550Y496117
X86775Y482275
X107600Y483500
X110050Y477375
X145575Y477375
X154150Y484725
X165175Y492075
X165175Y501875
X182325Y501875
X195800Y506775
X194575Y492075
X183550Y483500
X176200Y465125
X168850Y462675
X168850Y447975
X176200Y443075
X172525Y435725
X172525Y430825
X182325Y430825
X182325Y435725
X187225Y455325
X183550Y462675
X206825Y445525
X211725Y430825
X197025Y407550
X195800Y397750
X195800Y384275
X189675Y378150
X184775Y373250
X171300Y374475
X172525Y387950
X177425Y401425
X171300Y406325
X177425Y411225
X183550Y406325
X159050Y407550
X159050Y398975
X159050Y418575
X159050Y429600
X159050Y436950
X146800Y436950
X146800Y424700
X135775Y405100
X135775Y397750
X128425Y391625
X118625Y387950
X111275Y387950
X111275Y378150
X132100Y367125
X135775Y329150
X146800Y318125
X155375Y318125
X163425Y295775
X169550Y295775
X177375Y291850
X181800Y295775
X180375Y307575
X180425Y314250
X187225Y319350
X192125Y319350
X198250Y319350
X204375Y319350
X206825Y310775
X215000Y296075
X215400Y277700
X222750Y254425
X242350Y277700
X249700Y305875
X258275Y305875
X270525Y305875
X281550Y302200
X276650Y285050
X299925Y254425
X337000Y294650
X342000Y293400
X349500Y290900
X358725Y291175
X358725Y304650
X365625Y303400
X365625Y318275
X375875Y309550
X378325Y325475
X389350Y327925
X390575Y340175
X384450Y341400
X397925Y365900
X397925Y374475
X377100Y375700
X370975Y373250
X362400Y343850
X363625Y337725
X350150Y335275
X345250Y330375
X334225Y326700
X324425Y338950
X314625Y354875
X304825Y357325
X299925Y349975
X301150Y338950
X286450Y357325
X279100Y345075
X277875Y330375
X266850Y330375
X239900Y341400
X223975Y353650
X210500Y373250
X215400Y379375
X242350Y372025
X247250Y376925
X239900Y401425
X239900Y413675
X239900Y419800
X238675Y440625
X263175Y438175
X276650Y428375
X282775Y427150
X287675Y427150
X292575Y427150
X297475Y427150
X302375Y427150
X307275Y418575
X307275Y410000
X295025Y400200
X284000Y389175
X269300Y407550
X309725Y433275
X309725Y438175
X315850Y440625
X309725Y460225
X292575Y470025
X284000Y489625
X277875Y482275
X272975Y492075
X266850Y488400
X254600Y501875
X247250Y490850
X237450Y498200
X227650Y490850
X220300Y494525
X214175Y485950
X219075Y506775
X217850Y525150
X233775Y526375
X250925Y526375
X270525Y506775
X290125Y506775
X293800Y493300
X275425Y470025
X317075Y493300
X328100Y506775
X339125Y493300
X340350Y525150
X355050Y525150
X362400Y525150
X370975Y531275
X379550Y554550
X396700Y575375
X377100Y598650
X377100Y619475
X359950Y613350
X348925Y619475
X339125Y624375
X323200Y592525
X313400Y598650
X307275Y613350
X302375Y619475
X291350Y619475
X290125Y613350
X280325Y619475
X269300Y624375
X246025Y610900
X237450Y613350
X232550Y619475
X221525Y619475
X221525Y613350
X210500Y619475
X200700Y624375
X189675Y592525
X177425Y598650
X177425Y610900
X170075Y613350
X165175Y619475
X152925Y619475
X152925Y613350
X141900Y619475
X132100Y624375
X121075Y592525
X107600Y598650
X107600Y609675
X99025Y613350
X94125Y619475
X84325Y613350
X70850Y624375
X68400Y612125
X52475Y592525
X42675Y588850
X32875Y575375
X18175Y590075
X48800Y555775
X63500Y563125
X80650Y525150
X97800Y525150
X110662Y525273
X122300Y525150
X139450Y523925
X162725Y527600
X181100Y526375
X145575Y581500
X133325Y566800
X59825Y632950
X24300Y441850
X24300Y435725
X18175Y435725
X18175Y441850
X30425Y436950
X18175Y427150
X18175Y413675
X53700Y349975
X62275Y347525
X62275Y353650
X69625Y362225
X76975Y381825
X65950Y384275
X80650Y394075
X65950Y433225
X129650Y418575
X181100Y353650
X181100Y345075
X181100Y336500
X192125Y302200
X193595Y284193
X171417Y284025
X165175Y264225
X145575Y258100
X138225Y258100
X125975Y282600
X123525Y299750
X109425Y294050
X105050Y290300
X100740Y282725
X100050Y294050
X93800Y294050
X85550Y303425
X80650Y302200
X91675Y312000
X100250Y320575
X110050Y314675
X110050Y307800
X112500Y324250
X114950Y264225
X114950Y258100
X94125Y264225
X211725Y326700
X220300Y330375
X236225Y307100
X325650Y307100
X345250Y356100
X341575Y384275
X337900Y390400
X329325Y400200
X347700Y403875
X350150Y427150
X356275Y427150
X342800Y433275
X340350Y428375
X348925Y447975
X341575Y454100
X367300Y456550
X383225Y474925
X373425Y481050
X373425Y494525
X362400Y492075
X362400Y499425
X374650Y510450
X404050Y501875
X397925Y460225
X396700Y454100
X385675Y461450
X394250Y433275
X384450Y416125
X378325Y411225
X394250Y299750
X293800Y525150
X307275Y534950
X339125Y564350
X257050Y592525
X246025Y598650
T03
X311925Y380550
X321925Y380550
T04
X256150Y385200
X256150Y395200
X256150Y405200
X256150Y415200
X223500Y415200
X223500Y405200
X223500Y395200
X223500Y385200
X172000Y348400
X172000Y338400
X162000Y338400
X162000Y348400
X152000Y348400
X152000Y338400
X142000Y338400
X142000Y348400
X132000Y348400
X132000Y338400
X122000Y338400
X122000Y348400
X125400Y378675
X135400Y378675
X196350Y475683
X206350Y475683
X216350Y475683
X226350Y475683
X334691Y265017
X356738Y265017
X396950Y516625
X396950Y534425
T05
X359146Y541550
X359146Y551550
X349146Y551550
X349146Y541550
X339146Y541550
X339146Y551550
X339146Y592731
X339146Y602731
X349146Y602731
X359146Y602731
X359146Y592731
X349146Y592731
X290248Y592731
X290248Y602731
X280248Y602731
X270248Y602731
X270248Y592731
X280248Y592731
X280248Y551550
X270248Y551550
X270248Y541550
X280248Y541550
X290248Y541550
X290248Y551550
X221350Y551550
X211350Y551550
X201350Y551550
X201350Y541550
X211350Y541550
X221350Y541550
X221350Y592731
X211350Y592731
X201350Y592731
X201350Y602731
X211350Y602731
X221350Y602731
X152453Y602731
X152453Y592731
X142453Y592731
X142453Y602731
X132453Y602731
X132453Y592731
X132453Y551550
X142453Y551550
X142453Y541550
X132453Y541550
X152453Y541550
X152453Y551550
X83555Y551550
X83555Y541550
X73555Y541550
X73555Y551550
X63555Y551550
X63555Y541550
X63555Y592731
X63555Y602731
X73555Y602731
X73555Y592731
X83555Y592731
X83555Y602731
X223000Y301900
T06
X61044Y336500
X51202Y325870
X41359Y336500
T07
X32000Y400607
X32000Y420293
T08
X345715Y256552
T09
X387150Y511725
X387150Y539325
T10
X306000Y301900
T11
X202079Y345408
X91843Y345408
T12
X38122Y267022
X34185Y613479
X384579Y267022
X388516Y613479
M30
