  0
SECTION
  2
HEADER
  9
$ACADVER
  1
AC1009
  9
$FILLMODE
 70
0
  9
$EXTMIN
 10
-1.7540
 20
-19.9283
 30
0.0000
  9
$EXTMAX
 10
42.2896
 20
35.5452
 30
0.0000
  0
ENDSEC
  0
SECTION
  2
TABLES
  0
TABLE
  2
LTYPE
 70
1
  0
LTYPE
  2
CONTINUOUS
 70
64
  3
Solid line
 72
65
 73
0
 40
0
  0
ENDTAB
  0
TABLE
  2
LAYER
 70
255
  0
LAYER
  2
17
 70
64
 62
82
  6
CONTINUOUS
  0
LAYER
  2
18
 70
64
 62
82
  6
CONTINUOUS
  0
LAYER
  2
19
 70
64
 62
53
  6
CONTINUOUS
  0
LAYER
  2
20
 70
64
 62
7
  6
CONTINUOUS
  0
LAYER
  2
21
 70
64
 62
253
  6
CONTINUOUS
  0
LAYER
  2
22
 70
64
 62
253
  6
CONTINUOUS
  0
LAYER
  2
25
 70
64
 62
253
  6
CONTINUOUS
  0
LAYER
  2
37
 70
64
 62
253
  6
CONTINUOUS
  0
LAYER
  2
47
 70
64
 62
253
  6
CONTINUOUS
  0
LAYER
  2
51
 70
64
 62
253
  6
CONTINUOUS
  0
ENDTAB
  0
ENDSEC
  0
SECTION
  2
BLOCKS
  0
BLOCK
  8
0
  2
RECT
 70
64
 10
0.0000
 20
0.0000
 30
0.0000
  3
RECT
  0
SOLID
  8
0
 10
-0.5000
 20
-0.5000
 30
0.0000
 11
0.5000
 21
-0.5000
 31
0.0000
 12
-0.5000
 22
0.5000
 32
0.0000
 13
0.5000
 23
0.5000
 33
0.0000
  0
ENDBLK
  8
0
  0
BLOCK
  8
0
  2
PIE
 70
64
 10
0.0000
 20
0.0000
 30
0.0000
  3
PIE
  0
CIRCLE
  8
0
 10
0.0000
 20
0.0000
 30
0.0000
 40
0.5000
  0
ENDBLK
  8
0
  0
BLOCK
  8
0
  2
OCTAGONP
 70
64
 10
0.0000
 20
0.0000
 30
0.0000
  3
OCTAGONP
  0
POLYLINE
  8
0
 66
1
 10
0.0000
 20
0.0000
 30
0.0000
 40
0.0000
 41
0.0000
 70
1
  0
VERTEX
  8
0
 10
-0.5000
 20
-0.2071
 30
0.0000
  0
VERTEX
  8
0
 10
-0.5000
 20
0.2071
 30
0.0000
  0
VERTEX
  8
0
 10
-0.2071
 20
0.5000
 30
0.0000
  0
VERTEX
  8
0
 10
0.2071
 20
0.5000
 30
0.0000
  0
VERTEX
  8
0
 10
0.5000
 20
0.2071
 30
0.0000
  0
VERTEX
  8
0
 10
0.5000
 20
-0.2071
 30
0.0000
  0
VERTEX
  8
0
 10
0.2071
 20
-0.5000
 30
0.0000
  0
VERTEX
  8
0
 10
-0.2071
 20
-0.5000
 30
0.0000
  0
SEQEND
  8
0
  0
ENDBLK
  8
0
  0
BLOCK
  8
0
  2
SQUAREP
 70
64
 10
0.0000
 20
0.0000
 30
0.0000
  3
SQUAREP
  0
SOLID
  8
0
 10
-0.5000
 20
-0.5000
 30
0.0000
 11
0.5000
 21
-0.5000
 31
0.0000
 12
-0.5000
 22
0.5000
 32
0.0000
 13
0.5000
 23
0.5000
 33
0.0000
  0
ENDBLK
  8
0
  0
BLOCK
  8
0
  2
ROUNDP
 70
64
 10
0.0000
 20
0.0000
 30
0.0000
  3
ROUNDP
  0
CIRCLE
  8
0
 10
0.0000
 20
0.0000
 30
0.0000
 40
0.5000
  0
ENDBLK
  8
0
  0
BLOCK
  8
0
  2
ANNULUSP
 70
64
 10
0.0000
 20
0.0000
 30
0.0000
  3
ANNULUSP
  0
CIRCLE
  8
0
 10
0.0000
 20
0.0000
 30
0.0000
 40
0.5000
  0
ENDBLK
  8
0
  0
BLOCK
  8
0
  2
THERMALP
 70
64
 10
0.0000
 20
0.0000
 30
0.0000
  3
THERMALP
  0
POLYLINE
  8
0
 66
1
 10
0.0000
 20
0.0000
 30
0.0000
 40
0.0000
 41
0.0000
 70
1
  0
VERTEX
  8
0
 10
-0.2379
 20
0.4000
 30
0.0000
  0
VERTEX
  8
0
 10
0.2379
 20
0.4000
 30
0.0000
 42
1.0000
  0
VERTEX
  8
0
 10
0.2379
 20
0.5000
 30
0.0000
  0
VERTEX
  8
0
 10
-0.2379
 20
0.5000
 30
0.0000
 42
1.0000
  0
SEQEND
  8
0
  0
POLYLINE
  8
0
 66
1
 10
0.0000
 20
0.0000
 30
0.0000
 40
0.0000
 41
0.0000
 70
1
  0
VERTEX
  8
0
 10
0.4000
 20
0.2379
 30
0.0000
  0
VERTEX
  8
0
 10
0.4000
 20
-0.2379
 30
0.0000
 42
1.0000
  0
VERTEX
  8
0
 10
0.5000
 20
-0.2379
 30
0.0000
  0
VERTEX
  8
0
 10
0.5000
 20
0.2379
 30
0.0000
 42
1.0000
  0
SEQEND
  8
0
  0
POLYLINE
  8
0
 66
1
 10
0.0000
 20
0.0000
 30
0.0000
 40
0.0000
 41
0.0000
 70
1
  0
VERTEX
  8
0
 10
0.2379
 20
-0.4000
 30
0.0000
  0
VERTEX
  8
0
 10
-0.2379
 20
-0.4000
 30
0.0000
 42
1.0000
  0
VERTEX
  8
0
 10
-0.2379
 20
-0.5000
 30
0.0000
  0
VERTEX
  8
0
 10
0.2379
 20
-0.5000
 30
0.0000
 42
1.0000
  0
SEQEND
  8
0
  0
POLYLINE
  8
0
 66
1
 10
0.0000
 20
0.0000
 30
0.0000
 40
0.0000
 41
0.0000
 70
1
  0
VERTEX
  8
0
 10
-0.4000
 20
-0.2379
 30
0.0000
  0
VERTEX
  8
0
 10
-0.4000
 20
0.2379
 30
0.0000
 42
1.0000
  0
VERTEX
  8
0
 10
-0.5000
 20
0.2379
 30
0.0000
  0
VERTEX
  8
0
 10
-0.5000
 20
-0.2379
 30
0.0000
 42
1.0000
  0
SEQEND
  8
0
  0
ENDBLK
  8
0
  0
BLOCK
  8
0
  2
OCTAGONV
 70
64
 10
0.0000
 20
0.0000
 30
0.0000
  3
OCTAGONV
  0
POLYLINE
  8
0
 66
1
 10
0.0000
 20
0.0000
 30
0.0000
 40
0.0000
 41
0.0000
 70
1
  0
VERTEX
  8
0
 10
-0.5000
 20
-0.2071
 30
0.0000
  0
VERTEX
  8
0
 10
-0.5000
 20
0.2071
 30
0.0000
  0
VERTEX
  8
0
 10
-0.2071
 20
0.5000
 30
0.0000
  0
VERTEX
  8
0
 10
0.2071
 20
0.5000
 30
0.0000
  0
VERTEX
  8
0
 10
0.5000
 20
0.2071
 30
0.0000
  0
VERTEX
  8
0
 10
0.5000
 20
-0.2071
 30
0.0000
  0
VERTEX
  8
0
 10
0.2071
 20
-0.5000
 30
0.0000
  0
VERTEX
  8
0
 10
-0.2071
 20
-0.5000
 30
0.0000
  0
SEQEND
  8
0
  0
ENDBLK
  8
0
  0
BLOCK
  8
0
  2
SQUAREV
 70
64
 10
0.0000
 20
0.0000
 30
0.0000
  3
SQUAREV
  0
SOLID
  8
0
 10
-0.5000
 20
-0.5000
 30
0.0000
 11
0.5000
 21
-0.5000
 31
0.0000
 12
-0.5000
 22
0.5000
 32
0.0000
 13
0.5000
 23
0.5000
 33
0.0000
  0
ENDBLK
  8
0
  0
BLOCK
  8
0
  2
ROUNDV
 70
64
 10
0.0000
 20
0.0000
 30
0.0000
  3
ROUNDV
  0
CIRCLE
  8
0
 10
0.0000
 20
0.0000
 30
0.0000
 40
0.5000
  0
ENDBLK
  8
0
  0
BLOCK
  8
0
  2
ANNULUSV
 70
64
 10
0.0000
 20
0.0000
 30
0.0000
  3
ANNULUSV
  0
CIRCLE
  8
0
 10
0.0000
 20
0.0000
 30
0.0000
 40
0.5000
  0
ENDBLK
  8
0
  0
BLOCK
  8
0
  2
THERMALV
 70
64
 10
0.0000
 20
0.0000
 30
0.0000
  3
THERMALV
  0
POLYLINE
  8
0
 66
1
 10
0.0000
 20
0.0000
 30
0.0000
 40
0.0000
 41
0.0000
 70
1
  0
VERTEX
  8
0
 10
-0.2379
 20
0.4000
 30
0.0000
  0
VERTEX
  8
0
 10
0.2379
 20
0.4000
 30
0.0000
 42
1.0000
  0
VERTEX
  8
0
 10
0.2379
 20
0.5000
 30
0.0000
  0
VERTEX
  8
0
 10
-0.2379
 20
0.5000
 30
0.0000
 42
1.0000
  0
SEQEND
  8
0
  0
POLYLINE
  8
0
 66
1
 10
0.0000
 20
0.0000
 30
0.0000
 40
0.0000
 41
0.0000
 70
1
  0
VERTEX
  8
0
 10
0.4000
 20
0.2379
 30
0.0000
  0
VERTEX
  8
0
 10
0.4000
 20
-0.2379
 30
0.0000
 42
1.0000
  0
VERTEX
  8
0
 10
0.5000
 20
-0.2379
 30
0.0000
  0
VERTEX
  8
0
 10
0.5000
 20
0.2379
 30
0.0000
 42
1.0000
  0
SEQEND
  8
0
  0
POLYLINE
  8
0
 66
1
 10
0.0000
 20
0.0000
 30
0.0000
 40
0.0000
 41
0.0000
 70
1
  0
VERTEX
  8
0
 10
0.2379
 20
-0.4000
 30
0.0000
  0
VERTEX
  8
0
 10
-0.2379
 20
-0.4000
 30
0.0000
 42
1.0000
  0
VERTEX
  8
0
 10
-0.2379
 20
-0.5000
 30
0.0000
  0
VERTEX
  8
0
 10
0.2379
 20
-0.5000
 30
0.0000
 42
1.0000
  0
SEQEND
  8
0
  0
POLYLINE
  8
0
 66
1
 10
0.0000
 20
0.0000
 30
0.0000
 40
0.0000
 41
0.0000
 70
1
  0
VERTEX
  8
0
 10
-0.4000
 20
-0.2379
 30
0.0000
  0
VERTEX
  8
0
 10
-0.4000
 20
0.2379
 30
0.0000
 42
1.0000
  0
VERTEX
  8
0
 10
-0.5000
 20
0.2379
 30
0.0000
  0
VERTEX
  8
0
 10
-0.5000
 20
-0.2379
 30
0.0000
 42
1.0000
  0
SEQEND
  8
0
  0
ENDBLK
  8
0
  0
ENDSEC
  0
SECTION
  2
ENTITIES
  0
LINE
  8
20
 10
0.0000
 20
0.0000
 30
0.0000
 11
20.0000
 21
0.0000
 31
0.0000
  0
LINE
  8
20
 10
20.0000
 20
0.0000
 30
0.0000
 11
20.0000
 21
30.0000
 31
0.0000
  0
LINE
  8
20
 10
20.0000
 20
30.0000
 30
0.0000
 11
0.0000
 21
30.0000
 31
0.0000
  0
LINE
  8
20
 10
0.0000
 20
30.0000
 30
0.0000
 11
0.0000
 21
0.0000
 31
0.0000
  0
POLYLINE
  8
47
 66
1
 10
0.0000
 20
0.0000
 30
0.0000
 40
0.0000
 41
0.0000
 70
1
  0
VERTEX
  8
47
 10
20.0000
 20
29.9350
 30
0.0000
  0
VERTEX
  8
47
 10
26.7500
 20
29.9350
 30
0.0000
 42
1.0000
  0
VERTEX
  8
47
 10
26.7500
 20
30.0650
 30
0.0000
  0
VERTEX
  8
47
 10
20.0000
 20
30.0650
 30
0.0000
 42
1.0000
  0
SEQEND
  8
0
  0
POLYLINE
  8
47
 66
1
 10
0.0000
 20
0.0000
 30
0.0000
 40
0.0000
 41
0.0000
 70
1
  0
VERTEX
  8
47
 10
20.0000
 20
-0.0650
 30
0.0000
  0
VERTEX
  8
47
 10
26.7500
 20
-0.0650
 30
0.0000
 42
1.0000
  0
VERTEX
  8
47
 10
26.7500
 20
0.0650
 30
0.0000
  0
VERTEX
  8
47
 10
20.0000
 20
0.0650
 30
0.0000
 42
1.0000
  0
SEQEND
  8
0
  0
POLYLINE
  8
47
 66
1
 10
0.0000
 20
0.0000
 30
0.0000
 40
0.0000
 41
0.0000
 70
1
  0
VERTEX
  8
47
 10
24.7350
 20
29.9350
 30
0.0000
  0
VERTEX
  8
47
 10
24.7350
 20
0.0650
 30
0.0000
 42
1.0000
  0
VERTEX
  8
47
 10
24.8650
 20
0.0650
 30
0.0000
  0
VERTEX
  8
47
 10
24.8650
 20
29.9350
 30
0.0000
 42
1.0000
  0
SEQEND
  8
0
  0
POLYLINE
  8
47
 66
1
 10
0.0000
 20
0.0000
 30
0.0000
 40
0.0000
 41
0.0000
 70
1
  0
VERTEX
  8
47
 10
24.7355
 20
29.9431
 30
0.0000
  0
VERTEX
  8
47
 10
24.4163
 20
27.4081
 30
0.0000
 42
1.0000
  0
VERTEX
  8
47
 10
24.5453
 20
27.3919
 30
0.0000
  0
VERTEX
  8
47
 10
24.8645
 20
29.9269
 30
0.0000
 42
1.0000
  0
SEQEND
  8
0
  0
POLYLINE
  8
47
 66
1
 10
0.0000
 20
0.0000
 30
0.0000
 40
0.0000
 41
0.0000
 70
1
  0
VERTEX
  8
47
 10
24.4808
 20
27.3350
 30
0.0000
  0
VERTEX
  8
47
 10
25.1192
 20
27.3350
 30
0.0000
 42
1.0000
  0
VERTEX
  8
47
 10
25.1192
 20
27.4650
 30
0.0000
  0
VERTEX
  8
47
 10
24.4808
 20
27.4650
 30
0.0000
 42
1.0000
  0
SEQEND
  8
0
  0
POLYLINE
  8
47
 66
1
 10
0.0000
 20
0.0000
 30
0.0000
 40
0.0000
 41
0.0000
 70
1
  0
VERTEX
  8
47
 10
25.1837
 20
27.4081
 30
0.0000
  0
VERTEX
  8
47
 10
24.8645
 20
29.9431
 30
0.0000
 42
1.0000
  0
VERTEX
  8
47
 10
24.7355
 20
29.9269
 30
0.0000
  0
VERTEX
  8
47
 10
25.0547
 20
27.3919
 30
0.0000
 42
1.0000
  0
SEQEND
  8
0
  0
POLYLINE
  8
47
 66
1
 10
0.0000
 20
0.0000
 30
0.0000
 40
0.0000
 41
0.0000
 70
1
  0
VERTEX
  8
47
 10
24.7351
 20
29.9383
 30
0.0000
  0
VERTEX
  8
47
 10
24.6051
 20
27.4033
 30
0.0000
 42
1.0000
  0
VERTEX
  8
47
 10
24.7349
 20
27.3967
 30
0.0000
  0
VERTEX
  8
47
 10
24.8649
 20
29.9317
 30
0.0000
 42
1.0000
  0
SEQEND
  8
0
  0
POLYLINE
  8
47
 66
1
 10
0.0000
 20
0.0000
 30
0.0000
 40
0.0000
 41
0.0000
 70
1
  0
VERTEX
  8
47
 10
24.9949
 20
27.4033
 30
0.0000
  0
VERTEX
  8
47
 10
24.8649
 20
29.9383
 30
0.0000
 42
1.0000
  0
VERTEX
  8
47
 10
24.7351
 20
29.9317
 30
0.0000
  0
VERTEX
  8
47
 10
24.8651
 20
27.3967
 30
0.0000
 42
1.0000
  0
SEQEND
  8
0
  0
POLYLINE
  8
47
 66
1
 10
0.0000
 20
0.0000
 30
0.0000
 40
0.0000
 41
0.0000
 70
1
  0
VERTEX
  8
47
 10
24.7353
 20
29.9416
 30
0.0000
  0
VERTEX
  8
47
 10
24.4753
 20
27.4066
 30
0.0000
 42
1.0000
  0
VERTEX
  8
47
 10
24.6047
 20
27.3934
 30
0.0000
  0
VERTEX
  8
47
 10
24.8647
 20
29.9284
 30
0.0000
 42
1.0000
  0
SEQEND
  8
0
  0
POLYLINE
  8
47
 66
1
 10
0.0000
 20
0.0000
 30
0.0000
 40
0.0000
 41
0.0000
 70
1
  0
VERTEX
  8
47
 10
25.1247
 20
27.4066
 30
0.0000
  0
VERTEX
  8
47
 10
24.8647
 20
29.9416
 30
0.0000
 42
1.0000
  0
VERTEX
  8
47
 10
24.7353
 20
29.9284
 30
0.0000
  0
VERTEX
  8
47
 10
24.9953
 20
27.3934
 30
0.0000
 42
1.0000
  0
SEQEND
  8
0
  0
POLYLINE
  8
47
 66
1
 10
0.0000
 20
0.0000
 30
0.0000
 40
0.0000
 41
0.0000
 70
1
  0
VERTEX
  8
47
 10
24.8645
 20
0.0731
 30
0.0000
  0
VERTEX
  8
47
 10
24.5453
 20
2.6081
 30
0.0000
 42
1.0000
  0
VERTEX
  8
47
 10
24.4163
 20
2.5919
 30
0.0000
  0
VERTEX
  8
47
 10
24.7355
 20
0.0569
 30
0.0000
 42
1.0000
  0
SEQEND
  8
0
  0
POLYLINE
  8
47
 66
1
 10
0.0000
 20
0.0000
 30
0.0000
 40
0.0000
 41
0.0000
 70
1
  0
VERTEX
  8
47
 10
24.4808
 20
2.5350
 30
0.0000
  0
VERTEX
  8
47
 10
25.1192
 20
2.5350
 30
0.0000
 42
1.0000
  0
VERTEX
  8
47
 10
25.1192
 20
2.6650
 30
0.0000
  0
VERTEX
  8
47
 10
24.4808
 20
2.6650
 30
0.0000
 42
1.0000
  0
SEQEND
  8
0
  0
POLYLINE
  8
47
 66
1
 10
0.0000
 20
0.0000
 30
0.0000
 40
0.0000
 41
0.0000
 70
1
  0
VERTEX
  8
47
 10
25.0547
 20
2.6081
 30
0.0000
  0
VERTEX
  8
47
 10
24.7355
 20
0.0731
 30
0.0000
 42
1.0000
  0
VERTEX
  8
47
 10
24.8645
 20
0.0569
 30
0.0000
  0
VERTEX
  8
47
 10
25.1837
 20
2.5919
 30
0.0000
 42
1.0000
  0
SEQEND
  8
0
  0
POLYLINE
  8
47
 66
1
 10
0.0000
 20
0.0000
 30
0.0000
 40
0.0000
 41
0.0000
 70
1
  0
VERTEX
  8
47
 10
24.8649
 20
0.0683
 30
0.0000
  0
VERTEX
  8
47
 10
24.7349
 20
2.6033
 30
0.0000
 42
1.0000
  0
VERTEX
  8
47
 10
24.6051
 20
2.5967
 30
0.0000
  0
VERTEX
  8
47
 10
24.7351
 20
0.0617
 30
0.0000
 42
1.0000
  0
SEQEND
  8
0
  0
POLYLINE
  8
47
 66
1
 10
0.0000
 20
0.0000
 30
0.0000
 40
0.0000
 41
0.0000
 70
1
  0
VERTEX
  8
47
 10
24.8651
 20
2.6033
 30
0.0000
  0
VERTEX
  8
47
 10
24.7351
 20
0.0683
 30
0.0000
 42
1.0000
  0
VERTEX
  8
47
 10
24.8649
 20
0.0617
 30
0.0000
  0
VERTEX
  8
47
 10
24.9949
 20
2.5967
 30
0.0000
 42
1.0000
  0
SEQEND
  8
0
  0
POLYLINE
  8
47
 66
1
 10
0.0000
 20
0.0000
 30
0.0000
 40
0.0000
 41
0.0000
 70
1
  0
VERTEX
  8
47
 10
24.8647
 20
0.0716
 30
0.0000
  0
VERTEX
  8
47
 10
24.6047
 20
2.6066
 30
0.0000
 42
1.0000
  0
VERTEX
  8
47
 10
24.4753
 20
2.5934
 30
0.0000
  0
VERTEX
  8
47
 10
24.7353
 20
0.0584
 30
0.0000
 42
1.0000
  0
SEQEND
  8
0
  0
POLYLINE
  8
47
 66
1
 10
0.0000
 20
0.0000
 30
0.0000
 40
0.0000
 41
0.0000
 70
1
  0
VERTEX
  8
47
 10
24.9953
 20
2.6066
 30
0.0000
  0
VERTEX
  8
47
 10
24.7353
 20
0.0716
 30
0.0000
 42
1.0000
  0
VERTEX
  8
47
 10
24.8647
 20
0.0584
 30
0.0000
  0
VERTEX
  8
47
 10
25.1247
 20
2.5934
 30
0.0000
 42
1.0000
  0
SEQEND
  8
0
  0
POLYLINE
  8
47
 66
1
 10
0.0000
 20
0.0000
 30
0.0000
 40
0.0000
 41
0.0000
 70
1
  0
VERTEX
  8
47
 10
22.8474
 20
11.9614
 30
0.0000
  0
VERTEX
  8
47
 10
22.5762
 20
12.2326
 30
0.0000
 42
1.0000
  0
VERTEX
  8
47
 10
22.4684
 20
12.1248
 30
0.0000
  0
VERTEX
  8
47
 10
22.7396
 20
11.8536
 30
0.0000
 42
1.0000
  0
SEQEND
  8
0
  0
POLYLINE
  8
47
 66
1
 10
0.0000
 20
0.0000
 30
0.0000
 40
0.0000
 41
0.0000
 70
1
  0
VERTEX
  8
47
 10
22.5985
 20
12.1787
 30
0.0000
  0
VERTEX
  8
47
 10
22.5985
 20
12.7210
 30
0.0000
 42
1.0000
  0
VERTEX
  8
47
 10
22.4461
 20
12.7210
 30
0.0000
  0
VERTEX
  8
47
 10
22.4461
 20
12.1787
 30
0.0000
 42
1.0000
  0
SEQEND
  8
0
  0
POLYLINE
  8
47
 66
1
 10
0.0000
 20
0.0000
 30
0.0000
 40
0.0000
 41
0.0000
 70
1
  0
VERTEX
  8
47
 10
22.5762
 20
12.6671
 30
0.0000
  0
VERTEX
  8
47
 10
22.8474
 20
12.9383
 30
0.0000
 42
1.0000
  0
VERTEX
  8
47
 10
22.7396
 20
13.0461
 30
0.0000
  0
VERTEX
  8
47
 10
22.4684
 20
12.7749
 30
0.0000
 42
1.0000
  0
SEQEND
  8
0
  0
POLYLINE
  8
47
 66
1
 10
0.0000
 20
0.0000
 30
0.0000
 40
0.0000
 41
0.0000
 70
1
  0
VERTEX
  8
47
 10
22.7935
 20
12.9160
 30
0.0000
  0
VERTEX
  8
47
 10
23.0646
 20
12.9160
 30
0.0000
 42
1.0000
  0
VERTEX
  8
47
 10
23.0646
 20
13.0684
 30
0.0000
  0
VERTEX
  8
47
 10
22.7935
 20
13.0684
 30
0.0000
 42
1.0000
  0
SEQEND
  8
0
  0
POLYLINE
  8
47
 66
1
 10
0.0000
 20
0.0000
 30
0.0000
 40
0.0000
 41
0.0000
 70
1
  0
VERTEX
  8
47
 10
23.0108
 20
12.9383
 30
0.0000
  0
VERTEX
  8
47
 10
23.2819
 20
12.6671
 30
0.0000
 42
1.0000
  0
VERTEX
  8
47
 10
23.3897
 20
12.7749
 30
0.0000
  0
VERTEX
  8
47
 10
23.1185
 20
13.0461
 30
0.0000
 42
1.0000
  0
SEQEND
  8
0
  0
POLYLINE
  8
47
 66
1
 10
0.0000
 20
0.0000
 30
0.0000
 40
0.0000
 41
0.0000
 70
1
  0
VERTEX
  8
47
 10
23.2596
 20
12.7210
 30
0.0000
  0
VERTEX
  8
47
 10
23.2596
 20
12.4498
 30
0.0000
 42
1.0000
  0
VERTEX
  8
47
 10
23.4120
 20
12.4498
 30
0.0000
  0
VERTEX
  8
47
 10
23.4120
 20
12.7210
 30
0.0000
 42
1.0000
  0
SEQEND
  8
0
  0
POLYLINE
  8
47
 66
1
 10
0.0000
 20
0.0000
 30
0.0000
 40
0.0000
 41
0.0000
 70
1
  0
VERTEX
  8
47
 10
23.3897
 20
12.6671
 30
0.0000
  0
VERTEX
  8
47
 10
23.6609
 20
12.9383
 30
0.0000
 42
1.0000
  0
VERTEX
  8
47
 10
23.5531
 20
13.0461
 30
0.0000
  0
VERTEX
  8
47
 10
23.2819
 20
12.7749
 30
0.0000
 42
1.0000
  0
SEQEND
  8
0
  0
POLYLINE
  8
47
 66
1
 10
0.0000
 20
0.0000
 30
0.0000
 40
0.0000
 41
0.0000
 70
1
  0
VERTEX
  8
47
 10
23.6070
 20
12.9160
 30
0.0000
  0
VERTEX
  8
47
 10
23.8781
 20
12.9160
 30
0.0000
 42
1.0000
  0
VERTEX
  8
47
 10
23.8781
 20
13.0684
 30
0.0000
  0
VERTEX
  8
47
 10
23.6070
 20
13.0684
 30
0.0000
 42
1.0000
  0
SEQEND
  8
0
  0
POLYLINE
  8
47
 66
1
 10
0.0000
 20
0.0000
 30
0.0000
 40
0.0000
 41
0.0000
 70
1
  0
VERTEX
  8
47
 10
23.8243
 20
12.9383
 30
0.0000
  0
VERTEX
  8
47
 10
24.0954
 20
12.6671
 30
0.0000
 42
1.0000
  0
VERTEX
  8
47
 10
24.2032
 20
12.7749
 30
0.0000
  0
VERTEX
  8
47
 10
23.9320
 20
13.0461
 30
0.0000
 42
1.0000
  0
SEQEND
  8
0
  0
POLYLINE
  8
47
 66
1
 10
0.0000
 20
0.0000
 30
0.0000
 40
0.0000
 41
0.0000
 70
1
  0
VERTEX
  8
47
 10
24.0731
 20
12.7210
 30
0.0000
  0
VERTEX
  8
47
 10
24.0731
 20
12.1787
 30
0.0000
 42
1.0000
  0
VERTEX
  8
47
 10
24.2255
 20
12.1787
 30
0.0000
  0
VERTEX
  8
47
 10
24.2255
 20
12.7210
 30
0.0000
 42
1.0000
  0
SEQEND
  8
0
  0
POLYLINE
  8
47
 66
1
 10
0.0000
 20
0.0000
 30
0.0000
 40
0.0000
 41
0.0000
 70
1
  0
VERTEX
  8
47
 10
24.0954
 20
12.2326
 30
0.0000
  0
VERTEX
  8
47
 10
23.8243
 20
11.9614
 30
0.0000
 42
1.0000
  0
VERTEX
  8
47
 10
23.9320
 20
11.8536
 30
0.0000
  0
VERTEX
  8
47
 10
24.2032
 20
12.1248
 30
0.0000
 42
1.0000
  0
SEQEND
  8
0
  0
POLYLINE
  8
47
 66
1
 10
0.0000
 20
0.0000
 30
0.0000
 40
0.0000
 41
0.0000
 70
1
  0
VERTEX
  8
47
 10
23.8781
 20
13.6209
 30
0.0000
  0
VERTEX
  8
47
 10
22.7935
 20
13.6209
 30
0.0000
 42
1.0000
  0
VERTEX
  8
47
 10
22.7935
 20
13.4685
 30
0.0000
  0
VERTEX
  8
47
 10
23.8781
 20
13.4685
 30
0.0000
 42
1.0000
  0
SEQEND
  8
0
  0
POLYLINE
  8
47
 66
1
 10
0.0000
 20
0.0000
 30
0.0000
 40
0.0000
 41
0.0000
 70
1
  0
VERTEX
  8
47
 10
22.8474
 20
13.5986
 30
0.0000
  0
VERTEX
  8
47
 10
22.5762
 20
13.8697
 30
0.0000
 42
1.0000
  0
VERTEX
  8
47
 10
22.4684
 20
13.7620
 30
0.0000
  0
VERTEX
  8
47
 10
22.7396
 20
13.4908
 30
0.0000
 42
1.0000
  0
SEQEND
  8
0
  0
POLYLINE
  8
47
 66
1
 10
0.0000
 20
0.0000
 30
0.0000
 40
0.0000
 41
0.0000
 70
1
  0
VERTEX
  8
47
 10
22.5985
 20
13.8158
 30
0.0000
  0
VERTEX
  8
47
 10
22.5985
 20
14.3582
 30
0.0000
 42
1.0000
  0
VERTEX
  8
47
 10
22.4461
 20
14.3582
 30
0.0000
  0
VERTEX
  8
47
 10
22.4461
 20
13.8158
 30
0.0000
 42
1.0000
  0
SEQEND
  8
0
  0
POLYLINE
  8
47
 66
1
 10
0.0000
 20
0.0000
 30
0.0000
 40
0.0000
 41
0.0000
 70
1
  0
VERTEX
  8
47
 10
22.5762
 20
14.3043
 30
0.0000
  0
VERTEX
  8
47
 10
22.8474
 20
14.5755
 30
0.0000
 42
1.0000
  0
VERTEX
  8
47
 10
22.7396
 20
14.6832
 30
0.0000
  0
VERTEX
  8
47
 10
22.4684
 20
14.4120
 30
0.0000
 42
1.0000
  0
SEQEND
  8
0
  0
POLYLINE
  8
47
 66
1
 10
0.0000
 20
0.0000
 30
0.0000
 40
0.0000
 41
0.0000
 70
1
  0
VERTEX
  8
47
 10
22.7935
 20
14.5531
 30
0.0000
  0
VERTEX
  8
47
 10
23.8781
 20
14.5531
 30
0.0000
 42
1.0000
  0
VERTEX
  8
47
 10
23.8781
 20
14.7055
 30
0.0000
  0
VERTEX
  8
47
 10
22.7935
 20
14.7055
 30
0.0000
 42
1.0000
  0
SEQEND
  8
0
  0
POLYLINE
  8
47
 66
1
 10
0.0000
 20
0.0000
 30
0.0000
 40
0.0000
 41
0.0000
 70
1
  0
VERTEX
  8
47
 10
23.8243
 20
14.5755
 30
0.0000
  0
VERTEX
  8
47
 10
24.0954
 20
14.3043
 30
0.0000
 42
1.0000
  0
VERTEX
  8
47
 10
24.2032
 20
14.4120
 30
0.0000
  0
VERTEX
  8
47
 10
23.9320
 20
14.6832
 30
0.0000
 42
1.0000
  0
SEQEND
  8
0
  0
POLYLINE
  8
47
 66
1
 10
0.0000
 20
0.0000
 30
0.0000
 40
0.0000
 41
0.0000
 70
1
  0
VERTEX
  8
47
 10
24.0731
 20
14.3582
 30
0.0000
  0
VERTEX
  8
47
 10
24.0731
 20
13.8158
 30
0.0000
 42
1.0000
  0
VERTEX
  8
47
 10
24.2255
 20
13.8158
 30
0.0000
  0
VERTEX
  8
47
 10
24.2255
 20
14.3582
 30
0.0000
 42
1.0000
  0
SEQEND
  8
0
  0
POLYLINE
  8
47
 66
1
 10
0.0000
 20
0.0000
 30
0.0000
 40
0.0000
 41
0.0000
 70
1
  0
VERTEX
  8
47
 10
24.0954
 20
13.8697
 30
0.0000
  0
VERTEX
  8
47
 10
23.8243
 20
13.5986
 30
0.0000
 42
1.0000
  0
VERTEX
  8
47
 10
23.9320
 20
13.4908
 30
0.0000
  0
VERTEX
  8
47
 10
24.2032
 20
13.7620
 30
0.0000
 42
1.0000
  0
SEQEND
  8
0
  0
POLYLINE
  8
47
 66
1
 10
0.0000
 20
0.0000
 30
0.0000
 40
0.0000
 41
0.0000
 70
1
  0
VERTEX
  8
47
 10
23.9320
 20
13.5986
 30
0.0000
  0
VERTEX
  8
47
 10
22.8474
 20
14.6832
 30
0.0000
 42
1.0000
  0
VERTEX
  8
47
 10
22.7396
 20
14.5754
 30
0.0000
  0
VERTEX
  8
47
 10
23.8243
 20
13.4908
 30
0.0000
 42
1.0000
  0
SEQEND
  8
0
  0
POLYLINE
  8
47
 66
1
 10
0.0000
 20
0.0000
 30
0.0000
 40
0.0000
 41
0.0000
 70
1
  0
VERTEX
  8
47
 10
24.1493
 20
15.2580
 30
0.0000
  0
VERTEX
  8
47
 10
23.8781
 20
15.2580
 30
0.0000
 42
1.0000
  0
VERTEX
  8
47
 10
23.8781
 20
15.1056
 30
0.0000
  0
VERTEX
  8
47
 10
24.1493
 20
15.1056
 30
0.0000
 42
1.0000
  0
SEQEND
  8
0
  0
POLYLINE
  8
47
 66
1
 10
0.0000
 20
0.0000
 30
0.0000
 40
0.0000
 41
0.0000
 70
1
  0
VERTEX
  8
47
 10
23.9543
 20
15.1818
 30
0.0000
  0
VERTEX
  8
47
 10
23.9543
 20
15.4530
 30
0.0000
 42
1.0000
  0
VERTEX
  8
47
 10
23.8019
 20
15.4530
 30
0.0000
  0
VERTEX
  8
47
 10
23.8019
 20
15.1818
 30
0.0000
 42
1.0000
  0
SEQEND
  8
0
  0
POLYLINE
  8
47
 66
1
 10
0.0000
 20
0.0000
 30
0.0000
 40
0.0000
 41
0.0000
 70
1
  0
VERTEX
  8
47
 10
23.8781
 20
15.3768
 30
0.0000
  0
VERTEX
  8
47
 10
24.1493
 20
15.3768
 30
0.0000
 42
1.0000
  0
VERTEX
  8
47
 10
24.1493
 20
15.5292
 30
0.0000
  0
VERTEX
  8
47
 10
23.8781
 20
15.5292
 30
0.0000
 42
1.0000
  0
SEQEND
  8
0
  0
POLYLINE
  8
47
 66
1
 10
0.0000
 20
0.0000
 30
0.0000
 40
0.0000
 41
0.0000
 70
1
  0
VERTEX
  8
47
 10
24.0731
 20
15.4530
 30
0.0000
  0
VERTEX
  8
47
 10
24.0731
 20
15.1818
 30
0.0000
 42
1.0000
  0
VERTEX
  8
47
 10
24.2255
 20
15.1818
 30
0.0000
  0
VERTEX
  8
47
 10
24.2255
 20
15.4530
 30
0.0000
 42
1.0000
  0
SEQEND
  8
0
  0
POLYLINE
  8
47
 66
1
 10
0.0000
 20
0.0000
 30
0.0000
 40
0.0000
 41
0.0000
 70
1
  0
VERTEX
  8
47
 10
23.8781
 20
16.0766
 30
0.0000
  0
VERTEX
  8
47
 10
22.7935
 20
16.0766
 30
0.0000
 42
1.0000
  0
VERTEX
  8
47
 10
22.7935
 20
15.9242
 30
0.0000
  0
VERTEX
  8
47
 10
23.8781
 20
15.9242
 30
0.0000
 42
1.0000
  0
SEQEND
  8
0
  0
POLYLINE
  8
47
 66
1
 10
0.0000
 20
0.0000
 30
0.0000
 40
0.0000
 41
0.0000
 70
1
  0
VERTEX
  8
47
 10
22.8474
 20
16.0543
 30
0.0000
  0
VERTEX
  8
47
 10
22.5762
 20
16.3255
 30
0.0000
 42
1.0000
  0
VERTEX
  8
47
 10
22.4684
 20
16.2177
 30
0.0000
  0
VERTEX
  8
47
 10
22.7396
 20
15.9465
 30
0.0000
 42
1.0000
  0
SEQEND
  8
0
  0
POLYLINE
  8
47
 66
1
 10
0.0000
 20
0.0000
 30
0.0000
 40
0.0000
 41
0.0000
 70
1
  0
VERTEX
  8
47
 10
22.5985
 20
16.2716
 30
0.0000
  0
VERTEX
  8
47
 10
22.5985
 20
16.8139
 30
0.0000
 42
1.0000
  0
VERTEX
  8
47
 10
22.4461
 20
16.8139
 30
0.0000
  0
VERTEX
  8
47
 10
22.4461
 20
16.2716
 30
0.0000
 42
1.0000
  0
SEQEND
  8
0
  0
POLYLINE
  8
47
 66
1
 10
0.0000
 20
0.0000
 30
0.0000
 40
0.0000
 41
0.0000
 70
1
  0
VERTEX
  8
47
 10
22.5762
 20
16.7600
 30
0.0000
  0
VERTEX
  8
47
 10
22.8474
 20
17.0312
 30
0.0000
 42
1.0000
  0
VERTEX
  8
47
 10
22.7396
 20
17.1389
 30
0.0000
  0
VERTEX
  8
47
 10
22.4684
 20
16.8678
 30
0.0000
 42
1.0000
  0
SEQEND
  8
0
  0
POLYLINE
  8
47
 66
1
 10
0.0000
 20
0.0000
 30
0.0000
 40
0.0000
 41
0.0000
 70
1
  0
VERTEX
  8
47
 10
22.7935
 20
17.0089
 30
0.0000
  0
VERTEX
  8
47
 10
23.8781
 20
17.0089
 30
0.0000
 42
1.0000
  0
VERTEX
  8
47
 10
23.8781
 20
17.1613
 30
0.0000
  0
VERTEX
  8
47
 10
22.7935
 20
17.1613
 30
0.0000
 42
1.0000
  0
SEQEND
  8
0
  0
POLYLINE
  8
47
 66
1
 10
0.0000
 20
0.0000
 30
0.0000
 40
0.0000
 41
0.0000
 70
1
  0
VERTEX
  8
47
 10
23.8243
 20
17.0312
 30
0.0000
  0
VERTEX
  8
47
 10
24.0954
 20
16.7600
 30
0.0000
 42
1.0000
  0
VERTEX
  8
47
 10
24.2032
 20
16.8678
 30
0.0000
  0
VERTEX
  8
47
 10
23.9320
 20
17.1389
 30
0.0000
 42
1.0000
  0
SEQEND
  8
0
  0
POLYLINE
  8
47
 66
1
 10
0.0000
 20
0.0000
 30
0.0000
 40
0.0000
 41
0.0000
 70
1
  0
VERTEX
  8
47
 10
24.0731
 20
16.8139
 30
0.0000
  0
VERTEX
  8
47
 10
24.0731
 20
16.2716
 30
0.0000
 42
1.0000
  0
VERTEX
  8
47
 10
24.2255
 20
16.2716
 30
0.0000
  0
VERTEX
  8
47
 10
24.2255
 20
16.8139
 30
0.0000
 42
1.0000
  0
SEQEND
  8
0
  0
POLYLINE
  8
47
 66
1
 10
0.0000
 20
0.0000
 30
0.0000
 40
0.0000
 41
0.0000
 70
1
  0
VERTEX
  8
47
 10
24.0954
 20
16.3255
 30
0.0000
  0
VERTEX
  8
47
 10
23.8243
 20
16.0543
 30
0.0000
 42
1.0000
  0
VERTEX
  8
47
 10
23.9320
 20
15.9465
 30
0.0000
  0
VERTEX
  8
47
 10
24.2032
 20
16.2177
 30
0.0000
 42
1.0000
  0
SEQEND
  8
0
  0
POLYLINE
  8
47
 66
1
 10
0.0000
 20
0.0000
 30
0.0000
 40
0.0000
 41
0.0000
 70
1
  0
VERTEX
  8
47
 10
23.9320
 20
16.0543
 30
0.0000
  0
VERTEX
  8
47
 10
22.8474
 20
17.1389
 30
0.0000
 42
1.0000
  0
VERTEX
  8
47
 10
22.7396
 20
17.0312
 30
0.0000
  0
VERTEX
  8
47
 10
23.8243
 20
15.9465
 30
0.0000
 42
1.0000
  0
SEQEND
  8
0
  0
POLYLINE
  8
47
 66
1
 10
0.0000
 20
0.0000
 30
0.0000
 40
0.0000
 41
0.0000
 70
1
  0
VERTEX
  8
47
 10
23.8781
 20
17.7138
 30
0.0000
  0
VERTEX
  8
47
 10
22.7935
 20
17.7138
 30
0.0000
 42
1.0000
  0
VERTEX
  8
47
 10
22.7935
 20
17.5614
 30
0.0000
  0
VERTEX
  8
47
 10
23.8781
 20
17.5614
 30
0.0000
 42
1.0000
  0
SEQEND
  8
0
  0
POLYLINE
  8
47
 66
1
 10
0.0000
 20
0.0000
 30
0.0000
 40
0.0000
 41
0.0000
 70
1
  0
VERTEX
  8
47
 10
22.8474
 20
17.6914
 30
0.0000
  0
VERTEX
  8
47
 10
22.5762
 20
17.9626
 30
0.0000
 42
1.0000
  0
VERTEX
  8
47
 10
22.4684
 20
17.8548
 30
0.0000
  0
VERTEX
  8
47
 10
22.7396
 20
17.5837
 30
0.0000
 42
1.0000
  0
SEQEND
  8
0
  0
POLYLINE
  8
47
 66
1
 10
0.0000
 20
0.0000
 30
0.0000
 40
0.0000
 41
0.0000
 70
1
  0
VERTEX
  8
47
 10
22.5985
 20
17.9087
 30
0.0000
  0
VERTEX
  8
47
 10
22.5985
 20
18.4511
 30
0.0000
 42
1.0000
  0
VERTEX
  8
47
 10
22.4461
 20
18.4511
 30
0.0000
  0
VERTEX
  8
47
 10
22.4461
 20
17.9087
 30
0.0000
 42
1.0000
  0
SEQEND
  8
0
  0
POLYLINE
  8
47
 66
1
 10
0.0000
 20
0.0000
 30
0.0000
 40
0.0000
 41
0.0000
 70
1
  0
VERTEX
  8
47
 10
22.5762
 20
18.3972
 30
0.0000
  0
VERTEX
  8
47
 10
22.8474
 20
18.6683
 30
0.0000
 42
1.0000
  0
VERTEX
  8
47
 10
22.7396
 20
18.7761
 30
0.0000
  0
VERTEX
  8
47
 10
22.4684
 20
18.5049
 30
0.0000
 42
1.0000
  0
SEQEND
  8
0
  0
POLYLINE
  8
47
 66
1
 10
0.0000
 20
0.0000
 30
0.0000
 40
0.0000
 41
0.0000
 70
1
  0
VERTEX
  8
47
 10
22.7935
 20
18.6460
 30
0.0000
  0
VERTEX
  8
47
 10
23.8781
 20
18.6460
 30
0.0000
 42
1.0000
  0
VERTEX
  8
47
 10
23.8781
 20
18.7984
 30
0.0000
  0
VERTEX
  8
47
 10
22.7935
 20
18.7984
 30
0.0000
 42
1.0000
  0
SEQEND
  8
0
  0
POLYLINE
  8
47
 66
1
 10
0.0000
 20
0.0000
 30
0.0000
 40
0.0000
 41
0.0000
 70
1
  0
VERTEX
  8
47
 10
23.8243
 20
18.6683
 30
0.0000
  0
VERTEX
  8
47
 10
24.0954
 20
18.3972
 30
0.0000
 42
1.0000
  0
VERTEX
  8
47
 10
24.2032
 20
18.5049
 30
0.0000
  0
VERTEX
  8
47
 10
23.9320
 20
18.7761
 30
0.0000
 42
1.0000
  0
SEQEND
  8
0
  0
POLYLINE
  8
47
 66
1
 10
0.0000
 20
0.0000
 30
0.0000
 40
0.0000
 41
0.0000
 70
1
  0
VERTEX
  8
47
 10
24.0731
 20
18.4511
 30
0.0000
  0
VERTEX
  8
47
 10
24.0731
 20
17.9087
 30
0.0000
 42
1.0000
  0
VERTEX
  8
47
 10
24.2255
 20
17.9087
 30
0.0000
  0
VERTEX
  8
47
 10
24.2255
 20
18.4511
 30
0.0000
 42
1.0000
  0
SEQEND
  8
0
  0
POLYLINE
  8
47
 66
1
 10
0.0000
 20
0.0000
 30
0.0000
 40
0.0000
 41
0.0000
 70
1
  0
VERTEX
  8
47
 10
24.0954
 20
17.9626
 30
0.0000
  0
VERTEX
  8
47
 10
23.8243
 20
17.6914
 30
0.0000
 42
1.0000
  0
VERTEX
  8
47
 10
23.9320
 20
17.5837
 30
0.0000
  0
VERTEX
  8
47
 10
24.2032
 20
17.8548
 30
0.0000
 42
1.0000
  0
SEQEND
  8
0
  0
POLYLINE
  8
47
 66
1
 10
0.0000
 20
0.0000
 30
0.0000
 40
0.0000
 41
0.0000
 70
1
  0
VERTEX
  8
47
 10
23.9320
 20
17.6914
 30
0.0000
  0
VERTEX
  8
47
 10
22.8474
 20
18.7761
 30
0.0000
 42
1.0000
  0
VERTEX
  8
47
 10
22.7396
 20
18.6683
 30
0.0000
  0
VERTEX
  8
47
 10
23.8243
 20
17.5837
 30
0.0000
 42
1.0000
  0
SEQEND
  8
0
  0
POLYLINE
  8
47
 66
1
 10
0.0000
 20
0.0000
 30
0.0000
 40
0.0000
 41
0.0000
 70
1
  0
VERTEX
  8
47
 10
0.0650
 20
30.0000
 30
0.0000
  0
VERTEX
  8
47
 10
0.0650
 20
34.5500
 30
0.0000
 42
1.0000
  0
VERTEX
  8
47
 10
-0.0650
 20
34.5500
 30
0.0000
  0
VERTEX
  8
47
 10
-0.0650
 20
30.0000
 30
0.0000
 42
1.0000
  0
SEQEND
  8
0
  0
POLYLINE
  8
47
 66
1
 10
0.0000
 20
0.0000
 30
0.0000
 40
0.0000
 41
0.0000
 70
1
  0
VERTEX
  8
47
 10
20.0650
 20
30.0000
 30
0.0000
  0
VERTEX
  8
47
 10
20.0650
 20
34.5500
 30
0.0000
 42
1.0000
  0
VERTEX
  8
47
 10
19.9350
 20
34.5500
 30
0.0000
  0
VERTEX
  8
47
 10
19.9350
 20
30.0000
 30
0.0000
 42
1.0000
  0
SEQEND
  8
0
  0
POLYLINE
  8
47
 66
1
 10
0.0000
 20
0.0000
 30
0.0000
 40
0.0000
 41
0.0000
 70
1
  0
VERTEX
  8
47
 10
0.0650
 20
32.5350
 30
0.0000
  0
VERTEX
  8
47
 10
19.9350
 20
32.5350
 30
0.0000
 42
1.0000
  0
VERTEX
  8
47
 10
19.9350
 20
32.6650
 30
0.0000
  0
VERTEX
  8
47
 10
0.0650
 20
32.6650
 30
0.0000
 42
1.0000
  0
SEQEND
  8
0
  0
POLYLINE
  8
47
 66
1
 10
0.0000
 20
0.0000
 30
0.0000
 40
0.0000
 41
0.0000
 70
1
  0
VERTEX
  8
47
 10
0.0731
 20
32.5355
 30
0.0000
  0
VERTEX
  8
47
 10
2.6081
 20
32.8547
 30
0.0000
 42
1.0000
  0
VERTEX
  8
47
 10
2.5919
 20
32.9837
 30
0.0000
  0
VERTEX
  8
47
 10
0.0569
 20
32.6645
 30
0.0000
 42
1.0000
  0
SEQEND
  8
0
  0
POLYLINE
  8
47
 66
1
 10
0.0000
 20
0.0000
 30
0.0000
 40
0.0000
 41
0.0000
 70
1
  0
VERTEX
  8
47
 10
2.5350
 20
32.9192
 30
0.0000
  0
VERTEX
  8
47
 10
2.5350
 20
32.2808
 30
0.0000
 42
1.0000
  0
VERTEX
  8
47
 10
2.6650
 20
32.2808
 30
0.0000
  0
VERTEX
  8
47
 10
2.6650
 20
32.9192
 30
0.0000
 42
1.0000
  0
SEQEND
  8
0
  0
POLYLINE
  8
47
 66
1
 10
0.0000
 20
0.0000
 30
0.0000
 40
0.0000
 41
0.0000
 70
1
  0
VERTEX
  8
47
 10
2.6081
 20
32.3453
 30
0.0000
  0
VERTEX
  8
47
 10
0.0731
 20
32.6645
 30
0.0000
 42
1.0000
  0
VERTEX
  8
47
 10
0.0569
 20
32.5355
 30
0.0000
  0
VERTEX
  8
47
 10
2.5919
 20
32.2163
 30
0.0000
 42
1.0000
  0
SEQEND
  8
0
  0
POLYLINE
  8
47
 66
1
 10
0.0000
 20
0.0000
 30
0.0000
 40
0.0000
 41
0.0000
 70
1
  0
VERTEX
  8
47
 10
0.0683
 20
32.5351
 30
0.0000
  0
VERTEX
  8
47
 10
2.6033
 20
32.6651
 30
0.0000
 42
1.0000
  0
VERTEX
  8
47
 10
2.5967
 20
32.7949
 30
0.0000
  0
VERTEX
  8
47
 10
0.0617
 20
32.6649
 30
0.0000
 42
1.0000
  0
SEQEND
  8
0
  0
POLYLINE
  8
47
 66
1
 10
0.0000
 20
0.0000
 30
0.0000
 40
0.0000
 41
0.0000
 70
1
  0
VERTEX
  8
47
 10
2.6033
 20
32.5349
 30
0.0000
  0
VERTEX
  8
47
 10
0.0683
 20
32.6649
 30
0.0000
 42
1.0000
  0
VERTEX
  8
47
 10
0.0617
 20
32.5351
 30
0.0000
  0
VERTEX
  8
47
 10
2.5967
 20
32.4051
 30
0.0000
 42
1.0000
  0
SEQEND
  8
0
  0
POLYLINE
  8
47
 66
1
 10
0.0000
 20
0.0000
 30
0.0000
 40
0.0000
 41
0.0000
 70
1
  0
VERTEX
  8
47
 10
0.0716
 20
32.5353
 30
0.0000
  0
VERTEX
  8
47
 10
2.6066
 20
32.7953
 30
0.0000
 42
1.0000
  0
VERTEX
  8
47
 10
2.5934
 20
32.9247
 30
0.0000
  0
VERTEX
  8
47
 10
0.0584
 20
32.6647
 30
0.0000
 42
1.0000
  0
SEQEND
  8
0
  0
POLYLINE
  8
47
 66
1
 10
0.0000
 20
0.0000
 30
0.0000
 40
0.0000
 41
0.0000
 70
1
  0
VERTEX
  8
47
 10
2.6066
 20
32.4047
 30
0.0000
  0
VERTEX
  8
47
 10
0.0716
 20
32.6647
 30
0.0000
 42
1.0000
  0
VERTEX
  8
47
 10
0.0584
 20
32.5353
 30
0.0000
  0
VERTEX
  8
47
 10
2.5934
 20
32.2753
 30
0.0000
 42
1.0000
  0
SEQEND
  8
0
  0
POLYLINE
  8
47
 66
1
 10
0.0000
 20
0.0000
 30
0.0000
 40
0.0000
 41
0.0000
 70
1
  0
VERTEX
  8
47
 10
19.9431
 20
32.6645
 30
0.0000
  0
VERTEX
  8
47
 10
17.4081
 20
32.9837
 30
0.0000
 42
1.0000
  0
VERTEX
  8
47
 10
17.3919
 20
32.8547
 30
0.0000
  0
VERTEX
  8
47
 10
19.9269
 20
32.5355
 30
0.0000
 42
1.0000
  0
SEQEND
  8
0
  0
POLYLINE
  8
47
 66
1
 10
0.0000
 20
0.0000
 30
0.0000
 40
0.0000
 41
0.0000
 70
1
  0
VERTEX
  8
47
 10
17.3350
 20
32.9192
 30
0.0000
  0
VERTEX
  8
47
 10
17.3350
 20
32.2808
 30
0.0000
 42
1.0000
  0
VERTEX
  8
47
 10
17.4650
 20
32.2808
 30
0.0000
  0
VERTEX
  8
47
 10
17.4650
 20
32.9192
 30
0.0000
 42
1.0000
  0
SEQEND
  8
0
  0
POLYLINE
  8
47
 66
1
 10
0.0000
 20
0.0000
 30
0.0000
 40
0.0000
 41
0.0000
 70
1
  0
VERTEX
  8
47
 10
17.4081
 20
32.2163
 30
0.0000
  0
VERTEX
  8
47
 10
19.9431
 20
32.5355
 30
0.0000
 42
1.0000
  0
VERTEX
  8
47
 10
19.9269
 20
32.6645
 30
0.0000
  0
VERTEX
  8
47
 10
17.3919
 20
32.3453
 30
0.0000
 42
1.0000
  0
SEQEND
  8
0
  0
POLYLINE
  8
47
 66
1
 10
0.0000
 20
0.0000
 30
0.0000
 40
0.0000
 41
0.0000
 70
1
  0
VERTEX
  8
47
 10
19.9383
 20
32.6649
 30
0.0000
  0
VERTEX
  8
47
 10
17.4033
 20
32.7949
 30
0.0000
 42
1.0000
  0
VERTEX
  8
47
 10
17.3967
 20
32.6651
 30
0.0000
  0
VERTEX
  8
47
 10
19.9317
 20
32.5351
 30
0.0000
 42
1.0000
  0
SEQEND
  8
0
  0
POLYLINE
  8
47
 66
1
 10
0.0000
 20
0.0000
 30
0.0000
 40
0.0000
 41
0.0000
 70
1
  0
VERTEX
  8
47
 10
17.4033
 20
32.4051
 30
0.0000
  0
VERTEX
  8
47
 10
19.9383
 20
32.5351
 30
0.0000
 42
1.0000
  0
VERTEX
  8
47
 10
19.9317
 20
32.6649
 30
0.0000
  0
VERTEX
  8
47
 10
17.3967
 20
32.5349
 30
0.0000
 42
1.0000
  0
SEQEND
  8
0
  0
POLYLINE
  8
47
 66
1
 10
0.0000
 20
0.0000
 30
0.0000
 40
0.0000
 41
0.0000
 70
1
  0
VERTEX
  8
47
 10
19.9416
 20
32.6647
 30
0.0000
  0
VERTEX
  8
47
 10
17.4066
 20
32.9247
 30
0.0000
 42
1.0000
  0
VERTEX
  8
47
 10
17.3934
 20
32.7953
 30
0.0000
  0
VERTEX
  8
47
 10
19.9284
 20
32.5353
 30
0.0000
 42
1.0000
  0
SEQEND
  8
0
  0
POLYLINE
  8
47
 66
1
 10
0.0000
 20
0.0000
 30
0.0000
 40
0.0000
 41
0.0000
 70
1
  0
VERTEX
  8
47
 10
17.4066
 20
32.2753
 30
0.0000
  0
VERTEX
  8
47
 10
19.9416
 20
32.5353
 30
0.0000
 42
1.0000
  0
VERTEX
  8
47
 10
19.9284
 20
32.6647
 30
0.0000
  0
VERTEX
  8
47
 10
17.3934
 20
32.4047
 30
0.0000
 42
1.0000
  0
SEQEND
  8
0
  0
POLYLINE
  8
47
 66
1
 10
0.0000
 20
0.0000
 30
0.0000
 40
0.0000
 41
0.0000
 70
1
  0
VERTEX
  8
47
 10
7.9922
 20
33.3269
 30
0.0000
  0
VERTEX
  8
47
 10
6.9075
 20
33.3269
 30
0.0000
 42
1.0000
  0
VERTEX
  8
47
 10
6.9075
 20
33.1745
 30
0.0000
  0
VERTEX
  8
47
 10
7.9922
 20
33.1745
 30
0.0000
 42
1.0000
  0
SEQEND
  8
0
  0
POLYLINE
  8
47
 66
1
 10
0.0000
 20
0.0000
 30
0.0000
 40
0.0000
 41
0.0000
 70
1
  0
VERTEX
  8
47
 10
6.9614
 20
33.1968
 30
0.0000
  0
VERTEX
  8
47
 10
8.0461
 20
34.2815
 30
0.0000
 42
1.0000
  0
VERTEX
  8
47
 10
7.9383
 20
34.3892
 30
0.0000
  0
VERTEX
  8
47
 10
6.8536
 20
33.3046
 30
0.0000
 42
1.0000
  0
SEQEND
  8
0
  0
POLYLINE
  8
47
 66
1
 10
0.0000
 20
0.0000
 30
0.0000
 40
0.0000
 41
0.0000
 70
1
  0
VERTEX
  8
47
 10
8.0684
 20
34.3354
 30
0.0000
  0
VERTEX
  8
47
 10
8.0684
 20
34.6065
 30
0.0000
 42
1.0000
  0
VERTEX
  8
47
 10
7.9160
 20
34.6065
 30
0.0000
  0
VERTEX
  8
47
 10
7.9160
 20
34.3354
 30
0.0000
 42
1.0000
  0
SEQEND
  8
0
  0
POLYLINE
  8
47
 66
1
 10
0.0000
 20
0.0000
 30
0.0000
 40
0.0000
 41
0.0000
 70
1
  0
VERTEX
  8
47
 10
8.0461
 20
34.6604
 30
0.0000
  0
VERTEX
  8
47
 10
7.7749
 20
34.9316
 30
0.0000
 42
1.0000
  0
VERTEX
  8
47
 10
7.6671
 20
34.8238
 30
0.0000
  0
VERTEX
  8
47
 10
7.9383
 20
34.5526
 30
0.0000
 42
1.0000
  0
SEQEND
  8
0
  0
POLYLINE
  8
47
 66
1
 10
0.0000
 20
0.0000
 30
0.0000
 40
0.0000
 41
0.0000
 70
1
  0
VERTEX
  8
47
 10
7.7210
 20
34.9539
 30
0.0000
  0
VERTEX
  8
47
 10
7.1787
 20
34.9539
 30
0.0000
 42
1.0000
  0
VERTEX
  8
47
 10
7.1787
 20
34.8015
 30
0.0000
  0
VERTEX
  8
47
 10
7.7210
 20
34.8015
 30
0.0000
 42
1.0000
  0
SEQEND
  8
0
  0
POLYLINE
  8
47
 66
1
 10
0.0000
 20
0.0000
 30
0.0000
 40
0.0000
 41
0.0000
 70
1
  0
VERTEX
  8
47
 10
7.1248
 20
34.9316
 30
0.0000
  0
VERTEX
  8
47
 10
6.8536
 20
34.6604
 30
0.0000
 42
1.0000
  0
VERTEX
  8
47
 10
6.9614
 20
34.5526
 30
0.0000
  0
VERTEX
  8
47
 10
7.2326
 20
34.8238
 30
0.0000
 42
1.0000
  0
SEQEND
  8
0
  0
POLYLINE
  8
47
 66
1
 10
0.0000
 20
0.0000
 30
0.0000
 40
0.0000
 41
0.0000
 70
1
  0
VERTEX
  8
47
 10
8.6209
 20
33.5219
 30
0.0000
  0
VERTEX
  8
47
 10
8.6209
 20
34.6065
 30
0.0000
 42
1.0000
  0
VERTEX
  8
47
 10
8.4685
 20
34.6065
 30
0.0000
  0
VERTEX
  8
47
 10
8.4685
 20
33.5219
 30
0.0000
 42
1.0000
  0
SEQEND
  8
0
  0
POLYLINE
  8
47
 66
1
 10
0.0000
 20
0.0000
 30
0.0000
 40
0.0000
 41
0.0000
 70
1
  0
VERTEX
  8
47
 10
8.5986
 20
34.5526
 30
0.0000
  0
VERTEX
  8
47
 10
8.8697
 20
34.8238
 30
0.0000
 42
1.0000
  0
VERTEX
  8
47
 10
8.7620
 20
34.9316
 30
0.0000
  0
VERTEX
  8
47
 10
8.4908
 20
34.6604
 30
0.0000
 42
1.0000
  0
SEQEND
  8
0
  0
POLYLINE
  8
47
 66
1
 10
0.0000
 20
0.0000
 30
0.0000
 40
0.0000
 41
0.0000
 70
1
  0
VERTEX
  8
47
 10
8.8158
 20
34.8015
 30
0.0000
  0
VERTEX
  8
47
 10
9.3582
 20
34.8015
 30
0.0000
 42
1.0000
  0
VERTEX
  8
47
 10
9.3582
 20
34.9539
 30
0.0000
  0
VERTEX
  8
47
 10
8.8158
 20
34.9539
 30
0.0000
 42
1.0000
  0
SEQEND
  8
0
  0
POLYLINE
  8
47
 66
1
 10
0.0000
 20
0.0000
 30
0.0000
 40
0.0000
 41
0.0000
 70
1
  0
VERTEX
  8
47
 10
9.3043
 20
34.8238
 30
0.0000
  0
VERTEX
  8
47
 10
9.5755
 20
34.5526
 30
0.0000
 42
1.0000
  0
VERTEX
  8
47
 10
9.6832
 20
34.6604
 30
0.0000
  0
VERTEX
  8
47
 10
9.4120
 20
34.9316
 30
0.0000
 42
1.0000
  0
SEQEND
  8
0
  0
POLYLINE
  8
47
 66
1
 10
0.0000
 20
0.0000
 30
0.0000
 40
0.0000
 41
0.0000
 70
1
  0
VERTEX
  8
47
 10
9.5531
 20
34.6065
 30
0.0000
  0
VERTEX
  8
47
 10
9.5531
 20
33.5219
 30
0.0000
 42
1.0000
  0
VERTEX
  8
47
 10
9.7055
 20
33.5219
 30
0.0000
  0
VERTEX
  8
47
 10
9.7055
 20
34.6065
 30
0.0000
 42
1.0000
  0
SEQEND
  8
0
  0
POLYLINE
  8
47
 66
1
 10
0.0000
 20
0.0000
 30
0.0000
 40
0.0000
 41
0.0000
 70
1
  0
VERTEX
  8
47
 10
9.5755
 20
33.5757
 30
0.0000
  0
VERTEX
  8
47
 10
9.3043
 20
33.3046
 30
0.0000
 42
1.0000
  0
VERTEX
  8
47
 10
9.4120
 20
33.1968
 30
0.0000
  0
VERTEX
  8
47
 10
9.6832
 20
33.4680
 30
0.0000
 42
1.0000
  0
SEQEND
  8
0
  0
POLYLINE
  8
47
 66
1
 10
0.0000
 20
0.0000
 30
0.0000
 40
0.0000
 41
0.0000
 70
1
  0
VERTEX
  8
47
 10
9.3582
 20
33.3269
 30
0.0000
  0
VERTEX
  8
47
 10
8.8158
 20
33.3269
 30
0.0000
 42
1.0000
  0
VERTEX
  8
47
 10
8.8158
 20
33.1745
 30
0.0000
  0
VERTEX
  8
47
 10
9.3582
 20
33.1745
 30
0.0000
 42
1.0000
  0
SEQEND
  8
0
  0
POLYLINE
  8
47
 66
1
 10
0.0000
 20
0.0000
 30
0.0000
 40
0.0000
 41
0.0000
 70
1
  0
VERTEX
  8
47
 10
8.8697
 20
33.3046
 30
0.0000
  0
VERTEX
  8
47
 10
8.5986
 20
33.5757
 30
0.0000
 42
1.0000
  0
VERTEX
  8
47
 10
8.4908
 20
33.4680
 30
0.0000
  0
VERTEX
  8
47
 10
8.7620
 20
33.1968
 30
0.0000
 42
1.0000
  0
SEQEND
  8
0
  0
POLYLINE
  8
47
 66
1
 10
0.0000
 20
0.0000
 30
0.0000
 40
0.0000
 41
0.0000
 70
1
  0
VERTEX
  8
47
 10
8.5986
 20
33.4680
 30
0.0000
  0
VERTEX
  8
47
 10
9.6832
 20
34.5526
 30
0.0000
 42
1.0000
  0
VERTEX
  8
47
 10
9.5754
 20
34.6604
 30
0.0000
  0
VERTEX
  8
47
 10
8.4908
 20
33.5757
 30
0.0000
 42
1.0000
  0
SEQEND
  8
0
  0
POLYLINE
  8
47
 66
1
 10
0.0000
 20
0.0000
 30
0.0000
 40
0.0000
 41
0.0000
 70
1
  0
VERTEX
  8
47
 10
10.2580
 20
33.2507
 30
0.0000
  0
VERTEX
  8
47
 10
10.2580
 20
33.5219
 30
0.0000
 42
1.0000
  0
VERTEX
  8
47
 10
10.1056
 20
33.5219
 30
0.0000
  0
VERTEX
  8
47
 10
10.1056
 20
33.2507
 30
0.0000
 42
1.0000
  0
SEQEND
  8
0
  0
POLYLINE
  8
47
 66
1
 10
0.0000
 20
0.0000
 30
0.0000
 40
0.0000
 41
0.0000
 70
1
  0
VERTEX
  8
47
 10
10.1818
 20
33.4457
 30
0.0000
  0
VERTEX
  8
47
 10
10.4530
 20
33.4457
 30
0.0000
 42
1.0000
  0
VERTEX
  8
47
 10
10.4530
 20
33.5981
 30
0.0000
  0
VERTEX
  8
47
 10
10.1818
 20
33.5981
 30
0.0000
 42
1.0000
  0
SEQEND
  8
0
  0
POLYLINE
  8
47
 66
1
 10
0.0000
 20
0.0000
 30
0.0000
 40
0.0000
 41
0.0000
 70
1
  0
VERTEX
  8
47
 10
10.3768
 20
33.5219
 30
0.0000
  0
VERTEX
  8
47
 10
10.3768
 20
33.2507
 30
0.0000
 42
1.0000
  0
VERTEX
  8
47
 10
10.5292
 20
33.2507
 30
0.0000
  0
VERTEX
  8
47
 10
10.5292
 20
33.5219
 30
0.0000
 42
1.0000
  0
SEQEND
  8
0
  0
POLYLINE
  8
47
 66
1
 10
0.0000
 20
0.0000
 30
0.0000
 40
0.0000
 41
0.0000
 70
1
  0
VERTEX
  8
47
 10
10.4530
 20
33.3269
 30
0.0000
  0
VERTEX
  8
47
 10
10.1818
 20
33.3269
 30
0.0000
 42
1.0000
  0
VERTEX
  8
47
 10
10.1818
 20
33.1745
 30
0.0000
  0
VERTEX
  8
47
 10
10.4530
 20
33.1745
 30
0.0000
 42
1.0000
  0
SEQEND
  8
0
  0
POLYLINE
  8
47
 66
1
 10
0.0000
 20
0.0000
 30
0.0000
 40
0.0000
 41
0.0000
 70
1
  0
VERTEX
  8
47
 10
11.0766
 20
33.5219
 30
0.0000
  0
VERTEX
  8
47
 10
11.0766
 20
34.6065
 30
0.0000
 42
1.0000
  0
VERTEX
  8
47
 10
10.9242
 20
34.6065
 30
0.0000
  0
VERTEX
  8
47
 10
10.9242
 20
33.5219
 30
0.0000
 42
1.0000
  0
SEQEND
  8
0
  0
POLYLINE
  8
47
 66
1
 10
0.0000
 20
0.0000
 30
0.0000
 40
0.0000
 41
0.0000
 70
1
  0
VERTEX
  8
47
 10
11.0543
 20
34.5526
 30
0.0000
  0
VERTEX
  8
47
 10
11.3255
 20
34.8238
 30
0.0000
 42
1.0000
  0
VERTEX
  8
47
 10
11.2177
 20
34.9316
 30
0.0000
  0
VERTEX
  8
47
 10
10.9465
 20
34.6604
 30
0.0000
 42
1.0000
  0
SEQEND
  8
0
  0
POLYLINE
  8
47
 66
1
 10
0.0000
 20
0.0000
 30
0.0000
 40
0.0000
 41
0.0000
 70
1
  0
VERTEX
  8
47
 10
11.2716
 20
34.8015
 30
0.0000
  0
VERTEX
  8
47
 10
11.8139
 20
34.8015
 30
0.0000
 42
1.0000
  0
VERTEX
  8
47
 10
11.8139
 20
34.9539
 30
0.0000
  0
VERTEX
  8
47
 10
11.2716
 20
34.9539
 30
0.0000
 42
1.0000
  0
SEQEND
  8
0
  0
POLYLINE
  8
47
 66
1
 10
0.0000
 20
0.0000
 30
0.0000
 40
0.0000
 41
0.0000
 70
1
  0
VERTEX
  8
47
 10
11.7600
 20
34.8238
 30
0.0000
  0
VERTEX
  8
47
 10
12.0312
 20
34.5526
 30
0.0000
 42
1.0000
  0
VERTEX
  8
47
 10
12.1389
 20
34.6604
 30
0.0000
  0
VERTEX
  8
47
 10
11.8678
 20
34.9316
 30
0.0000
 42
1.0000
  0
SEQEND
  8
0
  0
POLYLINE
  8
47
 66
1
 10
0.0000
 20
0.0000
 30
0.0000
 40
0.0000
 41
0.0000
 70
1
  0
VERTEX
  8
47
 10
12.0089
 20
34.6065
 30
0.0000
  0
VERTEX
  8
47
 10
12.0089
 20
33.5219
 30
0.0000
 42
1.0000
  0
VERTEX
  8
47
 10
12.1613
 20
33.5219
 30
0.0000
  0
VERTEX
  8
47
 10
12.1613
 20
34.6065
 30
0.0000
 42
1.0000
  0
SEQEND
  8
0
  0
POLYLINE
  8
47
 66
1
 10
0.0000
 20
0.0000
 30
0.0000
 40
0.0000
 41
0.0000
 70
1
  0
VERTEX
  8
47
 10
12.0312
 20
33.5757
 30
0.0000
  0
VERTEX
  8
47
 10
11.7600
 20
33.3046
 30
0.0000
 42
1.0000
  0
VERTEX
  8
47
 10
11.8678
 20
33.1968
 30
0.0000
  0
VERTEX
  8
47
 10
12.1389
 20
33.4680
 30
0.0000
 42
1.0000
  0
SEQEND
  8
0
  0
POLYLINE
  8
47
 66
1
 10
0.0000
 20
0.0000
 30
0.0000
 40
0.0000
 41
0.0000
 70
1
  0
VERTEX
  8
47
 10
11.8139
 20
33.3269
 30
0.0000
  0
VERTEX
  8
47
 10
11.2716
 20
33.3269
 30
0.0000
 42
1.0000
  0
VERTEX
  8
47
 10
11.2716
 20
33.1745
 30
0.0000
  0
VERTEX
  8
47
 10
11.8139
 20
33.1745
 30
0.0000
 42
1.0000
  0
SEQEND
  8
0
  0
POLYLINE
  8
47
 66
1
 10
0.0000
 20
0.0000
 30
0.0000
 40
0.0000
 41
0.0000
 70
1
  0
VERTEX
  8
47
 10
11.3255
 20
33.3046
 30
0.0000
  0
VERTEX
  8
47
 10
11.0543
 20
33.5757
 30
0.0000
 42
1.0000
  0
VERTEX
  8
47
 10
10.9465
 20
33.4680
 30
0.0000
  0
VERTEX
  8
47
 10
11.2177
 20
33.1968
 30
0.0000
 42
1.0000
  0
SEQEND
  8
0
  0
POLYLINE
  8
47
 66
1
 10
0.0000
 20
0.0000
 30
0.0000
 40
0.0000
 41
0.0000
 70
1
  0
VERTEX
  8
47
 10
11.0543
 20
33.4680
 30
0.0000
  0
VERTEX
  8
47
 10
12.1389
 20
34.5526
 30
0.0000
 42
1.0000
  0
VERTEX
  8
47
 10
12.0312
 20
34.6604
 30
0.0000
  0
VERTEX
  8
47
 10
10.9465
 20
33.5757
 30
0.0000
 42
1.0000
  0
SEQEND
  8
0
  0
POLYLINE
  8
47
 66
1
 10
0.0000
 20
0.0000
 30
0.0000
 40
0.0000
 41
0.0000
 70
1
  0
VERTEX
  8
47
 10
12.7138
 20
33.5219
 30
0.0000
  0
VERTEX
  8
47
 10
12.7138
 20
34.6065
 30
0.0000
 42
1.0000
  0
VERTEX
  8
47
 10
12.5614
 20
34.6065
 30
0.0000
  0
VERTEX
  8
47
 10
12.5614
 20
33.5219
 30
0.0000
 42
1.0000
  0
SEQEND
  8
0
  0
POLYLINE
  8
47
 66
1
 10
0.0000
 20
0.0000
 30
0.0000
 40
0.0000
 41
0.0000
 70
1
  0
VERTEX
  8
47
 10
12.6914
 20
34.5526
 30
0.0000
  0
VERTEX
  8
47
 10
12.9626
 20
34.8238
 30
0.0000
 42
1.0000
  0
VERTEX
  8
47
 10
12.8548
 20
34.9316
 30
0.0000
  0
VERTEX
  8
47
 10
12.5837
 20
34.6604
 30
0.0000
 42
1.0000
  0
SEQEND
  8
0
  0
POLYLINE
  8
47
 66
1
 10
0.0000
 20
0.0000
 30
0.0000
 40
0.0000
 41
0.0000
 70
1
  0
VERTEX
  8
47
 10
12.9087
 20
34.8015
 30
0.0000
  0
VERTEX
  8
47
 10
13.4511
 20
34.8015
 30
0.0000
 42
1.0000
  0
VERTEX
  8
47
 10
13.4511
 20
34.9539
 30
0.0000
  0
VERTEX
  8
47
 10
12.9087
 20
34.9539
 30
0.0000
 42
1.0000
  0
SEQEND
  8
0
  0
POLYLINE
  8
47
 66
1
 10
0.0000
 20
0.0000
 30
0.0000
 40
0.0000
 41
0.0000
 70
1
  0
VERTEX
  8
47
 10
13.3972
 20
34.8238
 30
0.0000
  0
VERTEX
  8
47
 10
13.6683
 20
34.5526
 30
0.0000
 42
1.0000
  0
VERTEX
  8
47
 10
13.7761
 20
34.6604
 30
0.0000
  0
VERTEX
  8
47
 10
13.5049
 20
34.9316
 30
0.0000
 42
1.0000
  0
SEQEND
  8
0
  0
POLYLINE
  8
47
 66
1
 10
0.0000
 20
0.0000
 30
0.0000
 40
0.0000
 41
0.0000
 70
1
  0
VERTEX
  8
47
 10
13.6460
 20
34.6065
 30
0.0000
  0
VERTEX
  8
47
 10
13.6460
 20
33.5219
 30
0.0000
 42
1.0000
  0
VERTEX
  8
47
 10
13.7984
 20
33.5219
 30
0.0000
  0
VERTEX
  8
47
 10
13.7984
 20
34.6065
 30
0.0000
 42
1.0000
  0
SEQEND
  8
0
  0
POLYLINE
  8
47
 66
1
 10
0.0000
 20
0.0000
 30
0.0000
 40
0.0000
 41
0.0000
 70
1
  0
VERTEX
  8
47
 10
13.6683
 20
33.5757
 30
0.0000
  0
VERTEX
  8
47
 10
13.3972
 20
33.3046
 30
0.0000
 42
1.0000
  0
VERTEX
  8
47
 10
13.5049
 20
33.1968
 30
0.0000
  0
VERTEX
  8
47
 10
13.7761
 20
33.4680
 30
0.0000
 42
1.0000
  0
SEQEND
  8
0
  0
POLYLINE
  8
47
 66
1
 10
0.0000
 20
0.0000
 30
0.0000
 40
0.0000
 41
0.0000
 70
1
  0
VERTEX
  8
47
 10
13.4511
 20
33.3269
 30
0.0000
  0
VERTEX
  8
47
 10
12.9087
 20
33.3269
 30
0.0000
 42
1.0000
  0
VERTEX
  8
47
 10
12.9087
 20
33.1745
 30
0.0000
  0
VERTEX
  8
47
 10
13.4511
 20
33.1745
 30
0.0000
 42
1.0000
  0
SEQEND
  8
0
  0
POLYLINE
  8
47
 66
1
 10
0.0000
 20
0.0000
 30
0.0000
 40
0.0000
 41
0.0000
 70
1
  0
VERTEX
  8
47
 10
12.9626
 20
33.3046
 30
0.0000
  0
VERTEX
  8
47
 10
12.6914
 20
33.5757
 30
0.0000
 42
1.0000
  0
VERTEX
  8
47
 10
12.5837
 20
33.4680
 30
0.0000
  0
VERTEX
  8
47
 10
12.8548
 20
33.1968
 30
0.0000
 42
1.0000
  0
SEQEND
  8
0
  0
POLYLINE
  8
47
 66
1
 10
0.0000
 20
0.0000
 30
0.0000
 40
0.0000
 41
0.0000
 70
1
  0
VERTEX
  8
47
 10
12.6914
 20
33.4680
 30
0.0000
  0
VERTEX
  8
47
 10
13.7761
 20
34.5526
 30
0.0000
 42
1.0000
  0
VERTEX
  8
47
 10
13.6683
 20
34.6604
 30
0.0000
  0
VERTEX
  8
47
 10
12.5837
 20
33.5757
 30
0.0000
 42
1.0000
  0
SEQEND
  8
0
  0
CIRCLE
  8
20
 10
2.5000
 20
27.5000
 30
0.0000
 40
1.6000
  0
CIRCLE
  8
20
 10
17.5000
 20
2.5000
 30
0.0000
 40
1.6000
  0
POLYLINE
  8
51
 66
1
 10
0.0000
 20
0.0000
 30
0.0000
 40
0.0000
 41
0.0000
 70
1
  0
VERTEX
  8
51
 10
7.6600
 20
11.3212
 30
0.0000
  0
VERTEX
  8
51
 10
9.1100
 20
11.3212
 30
0.0000
 42
1.0000
  0
VERTEX
  8
51
 10
9.1100
 20
11.4228
 30
0.0000
  0
VERTEX
  8
51
 10
7.6600
 20
11.4228
 30
0.0000
 42
1.0000
  0
SEQEND
  8
0
  0
POLYLINE
  8
51
 66
1
 10
0.0000
 20
0.0000
 30
0.0000
 40
0.0000
 41
0.0000
 70
1
  0
VERTEX
  8
51
 10
9.1100
 20
10.7228
 30
0.0000
  0
VERTEX
  8
51
 10
7.6600
 20
10.7228
 30
0.0000
 42
1.0000
  0
VERTEX
  8
51
 10
7.6600
 20
10.6212
 30
0.0000
  0
VERTEX
  8
51
 10
9.1100
 20
10.6212
 30
0.0000
 42
1.0000
  0
SEQEND
  8
0
  0
INSERT
  8
51
  2
RECT
 10
7.7600
 20
11.0220
 30
0.0000
 41
0.3500
 42
0.8000
 43
1.0000
 50
0.0000
  0
INSERT
  8
51
  2
RECT
 10
9.0100
 20
11.0220
 30
0.0000
 41
0.3500
 42
0.8000
 43
1.0000
 50
0.0000
  0
POLYLINE
  8
25
 66
1
 10
0.0000
 20
0.0000
 30
0.0000
 40
0.0000
 41
0.0000
 70
1
  0
VERTEX
  8
25
 10
7.8415
 20
12.4514
 30
0.0000
  0
VERTEX
  8
25
 10
7.7187
 20
12.5743
 30
0.0000
 42
1.0000
  0
VERTEX
  8
25
 10
7.6648
 20
12.5204
 30
0.0000
  0
VERTEX
  8
25
 10
7.7876
 20
12.3975
 30
0.0000
 42
1.0000
  0
SEQEND
  8
0
  0
POLYLINE
  8
25
 66
1
 10
0.0000
 20
0.0000
 30
0.0000
 40
0.0000
 41
0.0000
 70
1
  0
VERTEX
  8
25
 10
7.6917
 20
12.5854
 30
0.0000
  0
VERTEX
  8
25
 10
7.4460
 20
12.5854
 30
0.0000
 42
1.0000
  0
VERTEX
  8
25
 10
7.4460
 20
12.5092
 30
0.0000
  0
VERTEX
  8
25
 10
7.6917
 20
12.5092
 30
0.0000
 42
1.0000
  0
SEQEND
  8
0
  0
POLYLINE
  8
25
 66
1
 10
0.0000
 20
0.0000
 30
0.0000
 40
0.0000
 41
0.0000
 70
1
  0
VERTEX
  8
25
 10
7.4190
 20
12.5743
 30
0.0000
  0
VERTEX
  8
25
 10
7.2962
 20
12.4514
 30
0.0000
 42
1.0000
  0
VERTEX
  8
25
 10
7.3500
 20
12.3975
 30
0.0000
  0
VERTEX
  8
25
 10
7.4729
 20
12.5204
 30
0.0000
 42
1.0000
  0
SEQEND
  8
0
  0
POLYLINE
  8
25
 66
1
 10
0.0000
 20
0.0000
 30
0.0000
 40
0.0000
 41
0.0000
 70
1
  0
VERTEX
  8
25
 10
7.2850
 20
12.4245
 30
0.0000
  0
VERTEX
  8
25
 10
7.2850
 20
11.9330
 30
0.0000
 42
1.0000
  0
VERTEX
  8
25
 10
7.3612
 20
11.9330
 30
0.0000
  0
VERTEX
  8
25
 10
7.3612
 20
12.4245
 30
0.0000
 42
1.0000
  0
SEQEND
  8
0
  0
POLYLINE
  8
25
 66
1
 10
0.0000
 20
0.0000
 30
0.0000
 40
0.0000
 41
0.0000
 70
1
  0
VERTEX
  8
25
 10
7.2962
 20
11.9060
 30
0.0000
  0
VERTEX
  8
25
 10
7.4190
 20
11.7832
 30
0.0000
 42
1.0000
  0
VERTEX
  8
25
 10
7.4729
 20
11.8370
 30
0.0000
  0
VERTEX
  8
25
 10
7.3500
 20
11.9599
 30
0.0000
 42
1.0000
  0
SEQEND
  8
0
  0
POLYLINE
  8
25
 66
1
 10
0.0000
 20
0.0000
 30
0.0000
 40
0.0000
 41
0.0000
 70
1
  0
VERTEX
  8
25
 10
7.4460
 20
11.7720
 30
0.0000
  0
VERTEX
  8
25
 10
7.6917
 20
11.7720
 30
0.0000
 42
1.0000
  0
VERTEX
  8
25
 10
7.6917
 20
11.8482
 30
0.0000
  0
VERTEX
  8
25
 10
7.4460
 20
11.8482
 30
0.0000
 42
1.0000
  0
SEQEND
  8
0
  0
POLYLINE
  8
25
 66
1
 10
0.0000
 20
0.0000
 30
0.0000
 40
0.0000
 41
0.0000
 70
1
  0
VERTEX
  8
25
 10
7.7187
 20
11.7832
 30
0.0000
  0
VERTEX
  8
25
 10
7.8415
 20
11.9060
 30
0.0000
 42
1.0000
  0
VERTEX
  8
25
 10
7.7876
 20
11.9599
 30
0.0000
  0
VERTEX
  8
25
 10
7.6648
 20
11.8370
 30
0.0000
 42
1.0000
  0
SEQEND
  8
0
  0
POLYLINE
  8
25
 66
1
 10
0.0000
 20
0.0000
 30
0.0000
 40
0.0000
 41
0.0000
 70
1
  0
VERTEX
  8
25
 10
8.5630
 20
11.8482
 30
0.0000
  0
VERTEX
  8
25
 10
8.0715
 20
11.8482
 30
0.0000
 42
1.0000
  0
VERTEX
  8
25
 10
8.0715
 20
11.7720
 30
0.0000
  0
VERTEX
  8
25
 10
8.5630
 20
11.7720
 30
0.0000
 42
1.0000
  0
SEQEND
  8
0
  0
POLYLINE
  8
25
 66
1
 10
0.0000
 20
0.0000
 30
0.0000
 40
0.0000
 41
0.0000
 70
1
  0
VERTEX
  8
25
 10
8.0985
 20
11.7832
 30
0.0000
  0
VERTEX
  8
25
 10
8.5899
 20
12.2746
 30
0.0000
 42
1.0000
  0
VERTEX
  8
25
 10
8.5361
 20
12.3285
 30
0.0000
  0
VERTEX
  8
25
 10
8.0446
 20
11.8370
 30
0.0000
 42
1.0000
  0
SEQEND
  8
0
  0
POLYLINE
  8
25
 66
1
 10
0.0000
 20
0.0000
 30
0.0000
 40
0.0000
 41
0.0000
 70
1
  0
VERTEX
  8
25
 10
8.6011
 20
12.3016
 30
0.0000
  0
VERTEX
  8
25
 10
8.6011
 20
12.4245
 30
0.0000
 42
1.0000
  0
VERTEX
  8
25
 10
8.5249
 20
12.4245
 30
0.0000
  0
VERTEX
  8
25
 10
8.5249
 20
12.3016
 30
0.0000
 42
1.0000
  0
SEQEND
  8
0
  0
POLYLINE
  8
25
 66
1
 10
0.0000
 20
0.0000
 30
0.0000
 40
0.0000
 41
0.0000
 70
1
  0
VERTEX
  8
25
 10
8.5899
 20
12.4514
 30
0.0000
  0
VERTEX
  8
25
 10
8.4671
 20
12.5743
 30
0.0000
 42
1.0000
  0
VERTEX
  8
25
 10
8.4132
 20
12.5204
 30
0.0000
  0
VERTEX
  8
25
 10
8.5361
 20
12.3975
 30
0.0000
 42
1.0000
  0
SEQEND
  8
0
  0
POLYLINE
  8
25
 66
1
 10
0.0000
 20
0.0000
 30
0.0000
 40
0.0000
 41
0.0000
 70
1
  0
VERTEX
  8
25
 10
8.4401
 20
12.5854
 30
0.0000
  0
VERTEX
  8
25
 10
8.1944
 20
12.5854
 30
0.0000
 42
1.0000
  0
VERTEX
  8
25
 10
8.1944
 20
12.5092
 30
0.0000
  0
VERTEX
  8
25
 10
8.4401
 20
12.5092
 30
0.0000
 42
1.0000
  0
SEQEND
  8
0
  0
POLYLINE
  8
25
 66
1
 10
0.0000
 20
0.0000
 30
0.0000
 40
0.0000
 41
0.0000
 70
1
  0
VERTEX
  8
25
 10
8.1674
 20
12.5743
 30
0.0000
  0
VERTEX
  8
25
 10
8.0446
 20
12.4514
 30
0.0000
 42
1.0000
  0
VERTEX
  8
25
 10
8.0985
 20
12.3975
 30
0.0000
  0
VERTEX
  8
25
 10
8.2213
 20
12.5204
 30
0.0000
 42
1.0000
  0
SEQEND
  8
0
  0
POLYLINE
  8
51
 66
1
 10
0.0000
 20
0.0000
 30
0.0000
 40
0.0000
 41
0.0000
 70
1
  0
VERTEX
  8
51
 10
1.3900
 20
23.5642
 30
0.0000
  0
VERTEX
  8
51
 10
2.8400
 20
23.5642
 30
0.0000
 42
1.0000
  0
VERTEX
  8
51
 10
2.8400
 20
23.6658
 30
0.0000
  0
VERTEX
  8
51
 10
1.3900
 20
23.6658
 30
0.0000
 42
1.0000
  0
SEQEND
  8
0
  0
POLYLINE
  8
51
 66
1
 10
0.0000
 20
0.0000
 30
0.0000
 40
0.0000
 41
0.0000
 70
1
  0
VERTEX
  8
51
 10
2.8400
 20
22.9658
 30
0.0000
  0
VERTEX
  8
51
 10
1.3900
 20
22.9658
 30
0.0000
 42
1.0000
  0
VERTEX
  8
51
 10
1.3900
 20
22.8642
 30
0.0000
  0
VERTEX
  8
51
 10
2.8400
 20
22.8642
 30
0.0000
 42
1.0000
  0
SEQEND
  8
0
  0
INSERT
  8
51
  2
RECT
 10
1.4900
 20
23.2650
 30
0.0000
 41
0.3500
 42
0.8000
 43
1.0000
 50
0.0000
  0
INSERT
  8
51
  2
RECT
 10
2.7400
 20
23.2650
 30
0.0000
 41
0.3500
 42
0.8000
 43
1.0000
 50
0.0000
  0
POLYLINE
  8
25
 66
1
 10
0.0000
 20
0.0000
 30
0.0000
 40
0.0000
 41
0.0000
 70
1
  0
VERTEX
  8
25
 10
4.2715
 20
23.4944
 30
0.0000
  0
VERTEX
  8
25
 10
4.1487
 20
23.6173
 30
0.0000
 42
1.0000
  0
VERTEX
  8
25
 10
4.0948
 20
23.5634
 30
0.0000
  0
VERTEX
  8
25
 10
4.2176
 20
23.4405
 30
0.0000
 42
1.0000
  0
SEQEND
  8
0
  0
POLYLINE
  8
25
 66
1
 10
0.0000
 20
0.0000
 30
0.0000
 40
0.0000
 41
0.0000
 70
1
  0
VERTEX
  8
25
 10
4.1217
 20
23.6284
 30
0.0000
  0
VERTEX
  8
25
 10
3.8760
 20
23.6284
 30
0.0000
 42
1.0000
  0
VERTEX
  8
25
 10
3.8760
 20
23.5522
 30
0.0000
  0
VERTEX
  8
25
 10
4.1217
 20
23.5522
 30
0.0000
 42
1.0000
  0
SEQEND
  8
0
  0
POLYLINE
  8
25
 66
1
 10
0.0000
 20
0.0000
 30
0.0000
 40
0.0000
 41
0.0000
 70
1
  0
VERTEX
  8
25
 10
3.8490
 20
23.6173
 30
0.0000
  0
VERTEX
  8
25
 10
3.7262
 20
23.4944
 30
0.0000
 42
1.0000
  0
VERTEX
  8
25
 10
3.7800
 20
23.4405
 30
0.0000
  0
VERTEX
  8
25
 10
3.9029
 20
23.5634
 30
0.0000
 42
1.0000
  0
SEQEND
  8
0
  0
POLYLINE
  8
25
 66
1
 10
0.0000
 20
0.0000
 30
0.0000
 40
0.0000
 41
0.0000
 70
1
  0
VERTEX
  8
25
 10
3.7150
 20
23.4675
 30
0.0000
  0
VERTEX
  8
25
 10
3.7150
 20
22.9760
 30
0.0000
 42
1.0000
  0
VERTEX
  8
25
 10
3.7912
 20
22.9760
 30
0.0000
  0
VERTEX
  8
25
 10
3.7912
 20
23.4675
 30
0.0000
 42
1.0000
  0
SEQEND
  8
0
  0
POLYLINE
  8
25
 66
1
 10
0.0000
 20
0.0000
 30
0.0000
 40
0.0000
 41
0.0000
 70
1
  0
VERTEX
  8
25
 10
3.7262
 20
22.9490
 30
0.0000
  0
VERTEX
  8
25
 10
3.8490
 20
22.8262
 30
0.0000
 42
1.0000
  0
VERTEX
  8
25
 10
3.9029
 20
22.8800
 30
0.0000
  0
VERTEX
  8
25
 10
3.7800
 20
23.0029
 30
0.0000
 42
1.0000
  0
SEQEND
  8
0
  0
POLYLINE
  8
25
 66
1
 10
0.0000
 20
0.0000
 30
0.0000
 40
0.0000
 41
0.0000
 70
1
  0
VERTEX
  8
25
 10
3.8760
 20
22.8150
 30
0.0000
  0
VERTEX
  8
25
 10
4.1217
 20
22.8150
 30
0.0000
 42
1.0000
  0
VERTEX
  8
25
 10
4.1217
 20
22.8912
 30
0.0000
  0
VERTEX
  8
25
 10
3.8760
 20
22.8912
 30
0.0000
 42
1.0000
  0
SEQEND
  8
0
  0
POLYLINE
  8
25
 66
1
 10
0.0000
 20
0.0000
 30
0.0000
 40
0.0000
 41
0.0000
 70
1
  0
VERTEX
  8
25
 10
4.1487
 20
22.8262
 30
0.0000
  0
VERTEX
  8
25
 10
4.2715
 20
22.9490
 30
0.0000
 42
1.0000
  0
VERTEX
  8
25
 10
4.2176
 20
23.0029
 30
0.0000
  0
VERTEX
  8
25
 10
4.0948
 20
22.8800
 30
0.0000
 42
1.0000
  0
SEQEND
  8
0
  0
POLYLINE
  8
25
 66
1
 10
0.0000
 20
0.0000
 30
0.0000
 40
0.0000
 41
0.0000
 70
1
  0
VERTEX
  8
25
 10
4.5285
 20
23.4405
 30
0.0000
  0
VERTEX
  8
25
 10
4.6513
 20
23.5634
 30
0.0000
 42
1.0000
  0
VERTEX
  8
25
 10
4.5974
 20
23.6173
 30
0.0000
  0
VERTEX
  8
25
 10
4.4746
 20
23.4944
 30
0.0000
 42
1.0000
  0
SEQEND
  8
0
  0
POLYLINE
  8
25
 66
1
 10
0.0000
 20
0.0000
 30
0.0000
 40
0.0000
 41
0.0000
 70
1
  0
VERTEX
  8
25
 10
4.6244
 20
23.5522
 30
0.0000
  0
VERTEX
  8
25
 10
4.8701
 20
23.5522
 30
0.0000
 42
1.0000
  0
VERTEX
  8
25
 10
4.8701
 20
23.6284
 30
0.0000
  0
VERTEX
  8
25
 10
4.6244
 20
23.6284
 30
0.0000
 42
1.0000
  0
SEQEND
  8
0
  0
POLYLINE
  8
25
 66
1
 10
0.0000
 20
0.0000
 30
0.0000
 40
0.0000
 41
0.0000
 70
1
  0
VERTEX
  8
25
 10
4.8432
 20
23.5634
 30
0.0000
  0
VERTEX
  8
25
 10
4.9661
 20
23.4405
 30
0.0000
 42
1.0000
  0
VERTEX
  8
25
 10
5.0199
 20
23.4944
 30
0.0000
  0
VERTEX
  8
25
 10
4.8971
 20
23.6173
 30
0.0000
 42
1.0000
  0
SEQEND
  8
0
  0
POLYLINE
  8
25
 66
1
 10
0.0000
 20
0.0000
 30
0.0000
 40
0.0000
 41
0.0000
 70
1
  0
VERTEX
  8
25
 10
4.9549
 20
23.4675
 30
0.0000
  0
VERTEX
  8
25
 10
4.9549
 20
23.3446
 30
0.0000
 42
1.0000
  0
VERTEX
  8
25
 10
5.0311
 20
23.3446
 30
0.0000
  0
VERTEX
  8
25
 10
5.0311
 20
23.4675
 30
0.0000
 42
1.0000
  0
SEQEND
  8
0
  0
POLYLINE
  8
25
 66
1
 10
0.0000
 20
0.0000
 30
0.0000
 40
0.0000
 41
0.0000
 70
1
  0
VERTEX
  8
25
 10
4.9661
 20
23.3715
 30
0.0000
  0
VERTEX
  8
25
 10
4.8432
 20
23.2487
 30
0.0000
 42
1.0000
  0
VERTEX
  8
25
 10
4.8971
 20
23.1948
 30
0.0000
  0
VERTEX
  8
25
 10
5.0199
 20
23.3176
 30
0.0000
 42
1.0000
  0
SEQEND
  8
0
  0
POLYLINE
  8
25
 66
1
 10
0.0000
 20
0.0000
 30
0.0000
 40
0.0000
 41
0.0000
 70
1
  0
VERTEX
  8
25
 10
4.8701
 20
23.2598
 30
0.0000
  0
VERTEX
  8
25
 10
4.7473
 20
23.2598
 30
0.0000
 42
1.0000
  0
VERTEX
  8
25
 10
4.7473
 20
23.1836
 30
0.0000
  0
VERTEX
  8
25
 10
4.8701
 20
23.1836
 30
0.0000
 42
1.0000
  0
SEQEND
  8
0
  0
POLYLINE
  8
25
 66
1
 10
0.0000
 20
0.0000
 30
0.0000
 40
0.0000
 41
0.0000
 70
1
  0
VERTEX
  8
25
 10
4.8432
 20
23.1948
 30
0.0000
  0
VERTEX
  8
25
 10
4.9661
 20
23.0719
 30
0.0000
 42
1.0000
  0
VERTEX
  8
25
 10
5.0199
 20
23.1258
 30
0.0000
  0
VERTEX
  8
25
 10
4.8971
 20
23.2487
 30
0.0000
 42
1.0000
  0
SEQEND
  8
0
  0
POLYLINE
  8
25
 66
1
 10
0.0000
 20
0.0000
 30
0.0000
 40
0.0000
 41
0.0000
 70
1
  0
VERTEX
  8
25
 10
4.9549
 20
23.0988
 30
0.0000
  0
VERTEX
  8
25
 10
4.9549
 20
22.9760
 30
0.0000
 42
1.0000
  0
VERTEX
  8
25
 10
5.0311
 20
22.9760
 30
0.0000
  0
VERTEX
  8
25
 10
5.0311
 20
23.0988
 30
0.0000
 42
1.0000
  0
SEQEND
  8
0
  0
POLYLINE
  8
25
 66
1
 10
0.0000
 20
0.0000
 30
0.0000
 40
0.0000
 41
0.0000
 70
1
  0
VERTEX
  8
25
 10
4.9661
 20
23.0029
 30
0.0000
  0
VERTEX
  8
25
 10
4.8432
 20
22.8800
 30
0.0000
 42
1.0000
  0
VERTEX
  8
25
 10
4.8971
 20
22.8262
 30
0.0000
  0
VERTEX
  8
25
 10
5.0199
 20
22.9490
 30
0.0000
 42
1.0000
  0
SEQEND
  8
0
  0
POLYLINE
  8
25
 66
1
 10
0.0000
 20
0.0000
 30
0.0000
 40
0.0000
 41
0.0000
 70
1
  0
VERTEX
  8
25
 10
4.8701
 20
22.8912
 30
0.0000
  0
VERTEX
  8
25
 10
4.6244
 20
22.8912
 30
0.0000
 42
1.0000
  0
VERTEX
  8
25
 10
4.6244
 20
22.8150
 30
0.0000
  0
VERTEX
  8
25
 10
4.8701
 20
22.8150
 30
0.0000
 42
1.0000
  0
SEQEND
  8
0
  0
POLYLINE
  8
25
 66
1
 10
0.0000
 20
0.0000
 30
0.0000
 40
0.0000
 41
0.0000
 70
1
  0
VERTEX
  8
25
 10
4.6513
 20
22.8800
 30
0.0000
  0
VERTEX
  8
25
 10
4.5285
 20
23.0029
 30
0.0000
 42
1.0000
  0
VERTEX
  8
25
 10
4.4746
 20
22.9490
 30
0.0000
  0
VERTEX
  8
25
 10
4.5974
 20
22.8262
 30
0.0000
 42
1.0000
  0
SEQEND
  8
0
  0
POLYLINE
  8
51
 66
1
 10
0.0000
 20
0.0000
 30
0.0000
 40
0.0000
 41
0.0000
 70
1
  0
VERTEX
  8
51
 10
13.1420
 20
10.7338
 30
0.0000
  0
VERTEX
  8
51
 10
11.6920
 20
10.7338
 30
0.0000
 42
1.0000
  0
VERTEX
  8
51
 10
11.6920
 20
10.6322
 30
0.0000
  0
VERTEX
  8
51
 10
13.1420
 20
10.6322
 30
0.0000
 42
1.0000
  0
SEQEND
  8
0
  0
POLYLINE
  8
51
 66
1
 10
0.0000
 20
0.0000
 30
0.0000
 40
0.0000
 41
0.0000
 70
1
  0
VERTEX
  8
51
 10
11.6920
 20
11.3322
 30
0.0000
  0
VERTEX
  8
51
 10
13.1420
 20
11.3322
 30
0.0000
 42
1.0000
  0
VERTEX
  8
51
 10
13.1420
 20
11.4338
 30
0.0000
  0
VERTEX
  8
51
 10
11.6920
 20
11.4338
 30
0.0000
 42
1.0000
  0
SEQEND
  8
0
  0
INSERT
  8
51
  2
RECT
 10
13.0420
 20
11.0330
 30
0.0000
 41
0.3500
 42
0.8000
 43
1.0000
 50
180.0000
  0
INSERT
  8
51
  2
RECT
 10
11.7920
 20
11.0330
 30
0.0000
 41
0.3500
 42
0.8000
 43
1.0000
 50
180.0000
  0
POLYLINE
  8
25
 66
1
 10
0.0000
 20
0.0000
 30
0.0000
 40
0.0000
 41
0.0000
 70
1
  0
VERTEX
  8
25
 10
11.7827
 20
12.3656
 30
0.0000
  0
VERTEX
  8
25
 10
11.6598
 20
12.4885
 30
0.0000
 42
1.0000
  0
VERTEX
  8
25
 10
11.6059
 20
12.4346
 30
0.0000
  0
VERTEX
  8
25
 10
11.7288
 20
12.3117
 30
0.0000
 42
1.0000
  0
SEQEND
  8
0
  0
POLYLINE
  8
25
 66
1
 10
0.0000
 20
0.0000
 30
0.0000
 40
0.0000
 41
0.0000
 70
1
  0
VERTEX
  8
25
 10
11.6329
 20
12.4996
 30
0.0000
  0
VERTEX
  8
25
 10
11.3871
 20
12.4996
 30
0.0000
 42
1.0000
  0
VERTEX
  8
25
 10
11.3871
 20
12.4234
 30
0.0000
  0
VERTEX
  8
25
 10
11.6329
 20
12.4234
 30
0.0000
 42
1.0000
  0
SEQEND
  8
0
  0
POLYLINE
  8
25
 66
1
 10
0.0000
 20
0.0000
 30
0.0000
 40
0.0000
 41
0.0000
 70
1
  0
VERTEX
  8
25
 10
11.3602
 20
12.4885
 30
0.0000
  0
VERTEX
  8
25
 10
11.2373
 20
12.3656
 30
0.0000
 42
1.0000
  0
VERTEX
  8
25
 10
11.2912
 20
12.3117
 30
0.0000
  0
VERTEX
  8
25
 10
11.4141
 20
12.4346
 30
0.0000
 42
1.0000
  0
SEQEND
  8
0
  0
POLYLINE
  8
25
 66
1
 10
0.0000
 20
0.0000
 30
0.0000
 40
0.0000
 41
0.0000
 70
1
  0
VERTEX
  8
25
 10
11.2262
 20
12.3387
 30
0.0000
  0
VERTEX
  8
25
 10
11.2262
 20
11.8472
 30
0.0000
 42
1.0000
  0
VERTEX
  8
25
 10
11.3024
 20
11.8472
 30
0.0000
  0
VERTEX
  8
25
 10
11.3024
 20
12.3387
 30
0.0000
 42
1.0000
  0
SEQEND
  8
0
  0
POLYLINE
  8
25
 66
1
 10
0.0000
 20
0.0000
 30
0.0000
 40
0.0000
 41
0.0000
 70
1
  0
VERTEX
  8
25
 10
11.2373
 20
11.8202
 30
0.0000
  0
VERTEX
  8
25
 10
11.3602
 20
11.6974
 30
0.0000
 42
1.0000
  0
VERTEX
  8
25
 10
11.4141
 20
11.7512
 30
0.0000
  0
VERTEX
  8
25
 10
11.2912
 20
11.8741
 30
0.0000
 42
1.0000
  0
SEQEND
  8
0
  0
POLYLINE
  8
25
 66
1
 10
0.0000
 20
0.0000
 30
0.0000
 40
0.0000
 41
0.0000
 70
1
  0
VERTEX
  8
25
 10
11.3871
 20
11.6862
 30
0.0000
  0
VERTEX
  8
25
 10
11.6329
 20
11.6862
 30
0.0000
 42
1.0000
  0
VERTEX
  8
25
 10
11.6329
 20
11.7624
 30
0.0000
  0
VERTEX
  8
25
 10
11.3871
 20
11.7624
 30
0.0000
 42
1.0000
  0
SEQEND
  8
0
  0
POLYLINE
  8
25
 66
1
 10
0.0000
 20
0.0000
 30
0.0000
 40
0.0000
 41
0.0000
 70
1
  0
VERTEX
  8
25
 10
11.6598
 20
11.6974
 30
0.0000
  0
VERTEX
  8
25
 10
11.7827
 20
11.8202
 30
0.0000
 42
1.0000
  0
VERTEX
  8
25
 10
11.7288
 20
11.8741
 30
0.0000
  0
VERTEX
  8
25
 10
11.6059
 20
11.7512
 30
0.0000
 42
1.0000
  0
SEQEND
  8
0
  0
POLYLINE
  8
25
 66
1
 10
0.0000
 20
0.0000
 30
0.0000
 40
0.0000
 41
0.0000
 70
1
  0
VERTEX
  8
25
 10
11.9857
 20
11.8202
 30
0.0000
  0
VERTEX
  8
25
 10
12.1086
 20
11.6974
 30
0.0000
 42
1.0000
  0
VERTEX
  8
25
 10
12.1625
 20
11.7512
 30
0.0000
  0
VERTEX
  8
25
 10
12.0396
 20
11.8741
 30
0.0000
 42
1.0000
  0
SEQEND
  8
0
  0
POLYLINE
  8
25
 66
1
 10
0.0000
 20
0.0000
 30
0.0000
 40
0.0000
 41
0.0000
 70
1
  0
VERTEX
  8
25
 10
12.1356
 20
11.6862
 30
0.0000
  0
VERTEX
  8
25
 10
12.3813
 20
11.6862
 30
0.0000
 42
1.0000
  0
VERTEX
  8
25
 10
12.3813
 20
11.7624
 30
0.0000
  0
VERTEX
  8
25
 10
12.1356
 20
11.7624
 30
0.0000
 42
1.0000
  0
SEQEND
  8
0
  0
POLYLINE
  8
25
 66
1
 10
0.0000
 20
0.0000
 30
0.0000
 40
0.0000
 41
0.0000
 70
1
  0
VERTEX
  8
25
 10
12.4082
 20
11.6974
 30
0.0000
  0
VERTEX
  8
25
 10
12.5311
 20
11.8202
 30
0.0000
 42
1.0000
  0
VERTEX
  8
25
 10
12.4772
 20
11.8741
 30
0.0000
  0
VERTEX
  8
25
 10
12.3544
 20
11.7512
 30
0.0000
 42
1.0000
  0
SEQEND
  8
0
  0
POLYLINE
  8
25
 66
1
 10
0.0000
 20
0.0000
 30
0.0000
 40
0.0000
 41
0.0000
 70
1
  0
VERTEX
  8
25
 10
12.5423
 20
11.8472
 30
0.0000
  0
VERTEX
  8
25
 10
12.5423
 20
12.3387
 30
0.0000
 42
1.0000
  0
VERTEX
  8
25
 10
12.4661
 20
12.3387
 30
0.0000
  0
VERTEX
  8
25
 10
12.4661
 20
11.8472
 30
0.0000
 42
1.0000
  0
SEQEND
  8
0
  0
POLYLINE
  8
25
 66
1
 10
0.0000
 20
0.0000
 30
0.0000
 40
0.0000
 41
0.0000
 70
1
  0
VERTEX
  8
25
 10
12.5311
 20
12.3656
 30
0.0000
  0
VERTEX
  8
25
 10
12.4082
 20
12.4885
 30
0.0000
 42
1.0000
  0
VERTEX
  8
25
 10
12.3544
 20
12.4346
 30
0.0000
  0
VERTEX
  8
25
 10
12.4772
 20
12.3117
 30
0.0000
 42
1.0000
  0
SEQEND
  8
0
  0
POLYLINE
  8
25
 66
1
 10
0.0000
 20
0.0000
 30
0.0000
 40
0.0000
 41
0.0000
 70
1
  0
VERTEX
  8
25
 10
12.3813
 20
12.4996
 30
0.0000
  0
VERTEX
  8
25
 10
12.1356
 20
12.4996
 30
0.0000
 42
1.0000
  0
VERTEX
  8
25
 10
12.1356
 20
12.4234
 30
0.0000
  0
VERTEX
  8
25
 10
12.3813
 20
12.4234
 30
0.0000
 42
1.0000
  0
SEQEND
  8
0
  0
POLYLINE
  8
25
 66
1
 10
0.0000
 20
0.0000
 30
0.0000
 40
0.0000
 41
0.0000
 70
1
  0
VERTEX
  8
25
 10
12.1086
 20
12.4885
 30
0.0000
  0
VERTEX
  8
25
 10
11.9857
 20
12.3656
 30
0.0000
 42
1.0000
  0
VERTEX
  8
25
 10
12.0396
 20
12.3117
 30
0.0000
  0
VERTEX
  8
25
 10
12.1625
 20
12.4346
 30
0.0000
 42
1.0000
  0
SEQEND
  8
0
  0
POLYLINE
  8
25
 66
1
 10
0.0000
 20
0.0000
 30
0.0000
 40
0.0000
 41
0.0000
 70
1
  0
VERTEX
  8
25
 10
11.9746
 20
12.3387
 30
0.0000
  0
VERTEX
  8
25
 10
11.9746
 20
12.2158
 30
0.0000
 42
1.0000
  0
VERTEX
  8
25
 10
12.0508
 20
12.2158
 30
0.0000
  0
VERTEX
  8
25
 10
12.0508
 20
12.3387
 30
0.0000
 42
1.0000
  0
SEQEND
  8
0
  0
POLYLINE
  8
25
 66
1
 10
0.0000
 20
0.0000
 30
0.0000
 40
0.0000
 41
0.0000
 70
1
  0
VERTEX
  8
25
 10
11.9857
 20
12.1888
 30
0.0000
  0
VERTEX
  8
25
 10
12.1086
 20
12.0660
 30
0.0000
 42
1.0000
  0
VERTEX
  8
25
 10
12.1625
 20
12.1199
 30
0.0000
  0
VERTEX
  8
25
 10
12.0396
 20
12.2427
 30
0.0000
 42
1.0000
  0
SEQEND
  8
0
  0
POLYLINE
  8
25
 66
1
 10
0.0000
 20
0.0000
 30
0.0000
 40
0.0000
 41
0.0000
 70
1
  0
VERTEX
  8
25
 10
12.1356
 20
12.0548
 30
0.0000
  0
VERTEX
  8
25
 10
12.5042
 20
12.0548
 30
0.0000
 42
1.0000
  0
VERTEX
  8
25
 10
12.5042
 20
12.1310
 30
0.0000
  0
VERTEX
  8
25
 10
12.1356
 20
12.1310
 30
0.0000
 42
1.0000
  0
SEQEND
  8
0
  0
POLYLINE
  8
51
 66
1
 10
0.0000
 20
0.0000
 30
0.0000
 40
0.0000
 41
0.0000
 70
1
  0
VERTEX
  8
51
 10
4.2822
 20
13.0170
 30
0.0000
  0
VERTEX
  8
51
 10
4.2822
 20
11.5670
 30
0.0000
 42
1.0000
  0
VERTEX
  8
51
 10
4.3838
 20
11.5670
 30
0.0000
  0
VERTEX
  8
51
 10
4.3838
 20
13.0170
 30
0.0000
 42
1.0000
  0
SEQEND
  8
0
  0
POLYLINE
  8
51
 66
1
 10
0.0000
 20
0.0000
 30
0.0000
 40
0.0000
 41
0.0000
 70
1
  0
VERTEX
  8
51
 10
3.6838
 20
11.5670
 30
0.0000
  0
VERTEX
  8
51
 10
3.6838
 20
13.0170
 30
0.0000
 42
1.0000
  0
VERTEX
  8
51
 10
3.5822
 20
13.0170
 30
0.0000
  0
VERTEX
  8
51
 10
3.5822
 20
11.5670
 30
0.0000
 42
1.0000
  0
SEQEND
  8
0
  0
INSERT
  8
51
  2
RECT
 10
3.9830
 20
12.9170
 30
0.0000
 41
0.3500
 42
0.8000
 43
1.0000
 50
270.0000
  0
INSERT
  8
51
  2
RECT
 10
3.9830
 20
11.6670
 30
0.0000
 41
0.3500
 42
0.8000
 43
1.0000
 50
270.0000
  0
POLYLINE
  8
25
 66
1
 10
0.0000
 20
0.0000
 30
0.0000
 40
0.0000
 41
0.0000
 70
1
  0
VERTEX
  8
25
 10
4.8534
 20
11.1113
 30
0.0000
  0
VERTEX
  8
25
 10
4.7305
 20
10.9884
 30
0.0000
 42
1.0000
  0
VERTEX
  8
25
 10
4.7844
 20
10.9345
 30
0.0000
  0
VERTEX
  8
25
 10
4.9073
 20
11.0574
 30
0.0000
 42
1.0000
  0
SEQEND
  8
0
  0
POLYLINE
  8
25
 66
1
 10
0.0000
 20
0.0000
 30
0.0000
 40
0.0000
 41
0.0000
 70
1
  0
VERTEX
  8
25
 10
4.7194
 20
10.9615
 30
0.0000
  0
VERTEX
  8
25
 10
4.7194
 20
10.7157
 30
0.0000
 42
1.0000
  0
VERTEX
  8
25
 10
4.7956
 20
10.7157
 30
0.0000
  0
VERTEX
  8
25
 10
4.7956
 20
10.9615
 30
0.0000
 42
1.0000
  0
SEQEND
  8
0
  0
POLYLINE
  8
25
 66
1
 10
0.0000
 20
0.0000
 30
0.0000
 40
0.0000
 41
0.0000
 70
1
  0
VERTEX
  8
25
 10
4.7305
 20
10.6888
 30
0.0000
  0
VERTEX
  8
25
 10
4.8534
 20
10.5659
 30
0.0000
 42
1.0000
  0
VERTEX
  8
25
 10
4.9073
 20
10.6198
 30
0.0000
  0
VERTEX
  8
25
 10
4.7844
 20
10.7427
 30
0.0000
 42
1.0000
  0
SEQEND
  8
0
  0
POLYLINE
  8
25
 66
1
 10
0.0000
 20
0.0000
 30
0.0000
 40
0.0000
 41
0.0000
 70
1
  0
VERTEX
  8
25
 10
4.8803
 20
10.5548
 30
0.0000
  0
VERTEX
  8
25
 10
5.3718
 20
10.5548
 30
0.0000
 42
1.0000
  0
VERTEX
  8
25
 10
5.3718
 20
10.6310
 30
0.0000
  0
VERTEX
  8
25
 10
4.8803
 20
10.6310
 30
0.0000
 42
1.0000
  0
SEQEND
  8
0
  0
POLYLINE
  8
25
 66
1
 10
0.0000
 20
0.0000
 30
0.0000
 40
0.0000
 41
0.0000
 70
1
  0
VERTEX
  8
25
 10
5.3988
 20
10.5659
 30
0.0000
  0
VERTEX
  8
25
 10
5.5216
 20
10.6888
 30
0.0000
 42
1.0000
  0
VERTEX
  8
25
 10
5.4678
 20
10.7427
 30
0.0000
  0
VERTEX
  8
25
 10
5.3449
 20
10.6198
 30
0.0000
 42
1.0000
  0
SEQEND
  8
0
  0
POLYLINE
  8
25
 66
1
 10
0.0000
 20
0.0000
 30
0.0000
 40
0.0000
 41
0.0000
 70
1
  0
VERTEX
  8
25
 10
5.5328
 20
10.7157
 30
0.0000
  0
VERTEX
  8
25
 10
5.5328
 20
10.9615
 30
0.0000
 42
1.0000
  0
VERTEX
  8
25
 10
5.4566
 20
10.9615
 30
0.0000
  0
VERTEX
  8
25
 10
5.4566
 20
10.7157
 30
0.0000
 42
1.0000
  0
SEQEND
  8
0
  0
POLYLINE
  8
25
 66
1
 10
0.0000
 20
0.0000
 30
0.0000
 40
0.0000
 41
0.0000
 70
1
  0
VERTEX
  8
25
 10
5.5216
 20
10.9884
 30
0.0000
  0
VERTEX
  8
25
 10
5.3988
 20
11.1113
 30
0.0000
 42
1.0000
  0
VERTEX
  8
25
 10
5.3449
 20
11.0574
 30
0.0000
  0
VERTEX
  8
25
 10
5.4678
 20
10.9345
 30
0.0000
 42
1.0000
  0
SEQEND
  8
0
  0
POLYLINE
  8
25
 66
1
 10
0.0000
 20
0.0000
 30
0.0000
 40
0.0000
 41
0.0000
 70
1
  0
VERTEX
  8
25
 10
5.0302
 20
11.3682
 30
0.0000
  0
VERTEX
  8
25
 10
4.7844
 20
11.6140
 30
0.0000
 42
1.0000
  0
VERTEX
  8
25
 10
4.7305
 20
11.5601
 30
0.0000
  0
VERTEX
  8
25
 10
4.9763
 20
11.3143
 30
0.0000
 42
1.0000
  0
SEQEND
  8
0
  0
POLYLINE
  8
25
 66
1
 10
0.0000
 20
0.0000
 30
0.0000
 40
0.0000
 41
0.0000
 70
1
  0
VERTEX
  8
25
 10
4.7575
 20
11.5489
 30
0.0000
  0
VERTEX
  8
25
 10
5.4947
 20
11.5489
 30
0.0000
 42
1.0000
  0
VERTEX
  8
25
 10
5.4947
 20
11.6251
 30
0.0000
  0
VERTEX
  8
25
 10
4.7575
 20
11.6251
 30
0.0000
 42
1.0000
  0
SEQEND
  8
0
  0
POLYLINE
  8
25
 66
1
 10
0.0000
 20
0.0000
 30
0.0000
 40
0.0000
 41
0.0000
 70
1
  0
VERTEX
  8
25
 10
5.5328
 20
11.3413
 30
0.0000
  0
VERTEX
  8
25
 10
5.5328
 20
11.8328
 30
0.0000
 42
1.0000
  0
VERTEX
  8
25
 10
5.4566
 20
11.8328
 30
0.0000
  0
VERTEX
  8
25
 10
5.4566
 20
11.3413
 30
0.0000
 42
1.0000
  0
SEQEND
  8
0
  0
POLYLINE
  8
25
 66
1
 10
0.0000
 20
0.0000
 30
0.0000
 40
0.0000
 41
0.0000
 70
1
  0
VERTEX
  8
25
 10
5.3718
 20
12.1278
 30
0.0000
  0
VERTEX
  8
25
 10
4.8803
 20
12.1278
 30
0.0000
 42
1.0000
  0
VERTEX
  8
25
 10
4.8803
 20
12.0516
 30
0.0000
  0
VERTEX
  8
25
 10
5.3718
 20
12.0516
 30
0.0000
 42
1.0000
  0
SEQEND
  8
0
  0
POLYLINE
  8
25
 66
1
 10
0.0000
 20
0.0000
 30
0.0000
 40
0.0000
 41
0.0000
 70
1
  0
VERTEX
  8
25
 10
4.9073
 20
12.1166
 30
0.0000
  0
VERTEX
  8
25
 10
4.7844
 20
12.2395
 30
0.0000
 42
1.0000
  0
VERTEX
  8
25
 10
4.7305
 20
12.1856
 30
0.0000
  0
VERTEX
  8
25
 10
4.8534
 20
12.0627
 30
0.0000
 42
1.0000
  0
SEQEND
  8
0
  0
POLYLINE
  8
25
 66
1
 10
0.0000
 20
0.0000
 30
0.0000
 40
0.0000
 41
0.0000
 70
1
  0
VERTEX
  8
25
 10
4.7956
 20
12.2126
 30
0.0000
  0
VERTEX
  8
25
 10
4.7956
 20
12.4583
 30
0.0000
 42
1.0000
  0
VERTEX
  8
25
 10
4.7194
 20
12.4583
 30
0.0000
  0
VERTEX
  8
25
 10
4.7194
 20
12.2126
 30
0.0000
 42
1.0000
  0
SEQEND
  8
0
  0
POLYLINE
  8
25
 66
1
 10
0.0000
 20
0.0000
 30
0.0000
 40
0.0000
 41
0.0000
 70
1
  0
VERTEX
  8
25
 10
4.7844
 20
12.4314
 30
0.0000
  0
VERTEX
  8
25
 10
4.9073
 20
12.5542
 30
0.0000
 42
1.0000
  0
VERTEX
  8
25
 10
4.8534
 20
12.6081
 30
0.0000
  0
VERTEX
  8
25
 10
4.7305
 20
12.4852
 30
0.0000
 42
1.0000
  0
SEQEND
  8
0
  0
POLYLINE
  8
25
 66
1
 10
0.0000
 20
0.0000
 30
0.0000
 40
0.0000
 41
0.0000
 70
1
  0
VERTEX
  8
25
 10
4.8803
 20
12.5431
 30
0.0000
  0
VERTEX
  8
25
 10
5.3718
 20
12.5431
 30
0.0000
 42
1.0000
  0
VERTEX
  8
25
 10
5.3718
 20
12.6193
 30
0.0000
  0
VERTEX
  8
25
 10
4.8803
 20
12.6193
 30
0.0000
 42
1.0000
  0
SEQEND
  8
0
  0
POLYLINE
  8
25
 66
1
 10
0.0000
 20
0.0000
 30
0.0000
 40
0.0000
 41
0.0000
 70
1
  0
VERTEX
  8
25
 10
5.3449
 20
12.5542
 30
0.0000
  0
VERTEX
  8
25
 10
5.4678
 20
12.4314
 30
0.0000
 42
1.0000
  0
VERTEX
  8
25
 10
5.5216
 20
12.4852
 30
0.0000
  0
VERTEX
  8
25
 10
5.3988
 20
12.6081
 30
0.0000
 42
1.0000
  0
SEQEND
  8
0
  0
POLYLINE
  8
25
 66
1
 10
0.0000
 20
0.0000
 30
0.0000
 40
0.0000
 41
0.0000
 70
1
  0
VERTEX
  8
25
 10
5.4566
 20
12.4583
 30
0.0000
  0
VERTEX
  8
25
 10
5.4566
 20
12.2126
 30
0.0000
 42
1.0000
  0
VERTEX
  8
25
 10
5.5328
 20
12.2126
 30
0.0000
  0
VERTEX
  8
25
 10
5.5328
 20
12.4583
 30
0.0000
 42
1.0000
  0
SEQEND
  8
0
  0
POLYLINE
  8
25
 66
1
 10
0.0000
 20
0.0000
 30
0.0000
 40
0.0000
 41
0.0000
 70
1
  0
VERTEX
  8
25
 10
5.4678
 20
12.2395
 30
0.0000
  0
VERTEX
  8
25
 10
5.3449
 20
12.1166
 30
0.0000
 42
1.0000
  0
VERTEX
  8
25
 10
5.3988
 20
12.0627
 30
0.0000
  0
VERTEX
  8
25
 10
5.5216
 20
12.1856
 30
0.0000
 42
1.0000
  0
SEQEND
  8
0
  0
POLYLINE
  8
25
 66
1
 10
0.0000
 20
0.0000
 30
0.0000
 40
0.0000
 41
0.0000
 70
1
  0
VERTEX
  8
25
 10
5.3988
 20
12.1166
 30
0.0000
  0
VERTEX
  8
25
 10
4.9073
 20
12.6081
 30
0.0000
 42
1.0000
  0
VERTEX
  8
25
 10
4.8534
 20
12.5542
 30
0.0000
  0
VERTEX
  8
25
 10
5.3449
 20
12.0627
 30
0.0000
 42
1.0000
  0
SEQEND
  8
0
  0
POLYLINE
  8
51
 66
1
 10
0.0000
 20
0.0000
 30
0.0000
 40
0.0000
 41
0.0000
 70
1
  0
VERTEX
  8
51
 10
15.0250
 20
12.8542
 30
0.0000
  0
VERTEX
  8
51
 10
16.4750
 20
12.8542
 30
0.0000
 42
1.0000
  0
VERTEX
  8
51
 10
16.4750
 20
12.9558
 30
0.0000
  0
VERTEX
  8
51
 10
15.0250
 20
12.9558
 30
0.0000
 42
1.0000
  0
SEQEND
  8
0
  0
POLYLINE
  8
51
 66
1
 10
0.0000
 20
0.0000
 30
0.0000
 40
0.0000
 41
0.0000
 70
1
  0
VERTEX
  8
51
 10
16.4750
 20
12.2558
 30
0.0000
  0
VERTEX
  8
51
 10
15.0250
 20
12.2558
 30
0.0000
 42
1.0000
  0
VERTEX
  8
51
 10
15.0250
 20
12.1542
 30
0.0000
  0
VERTEX
  8
51
 10
16.4750
 20
12.1542
 30
0.0000
 42
1.0000
  0
SEQEND
  8
0
  0
INSERT
  8
51
  2
RECT
 10
15.1250
 20
12.5550
 30
0.0000
 41
0.3500
 42
0.8000
 43
1.0000
 50
0.0000
  0
INSERT
  8
51
  2
RECT
 10
16.3750
 20
12.5550
 30
0.0000
 41
0.3500
 42
0.8000
 43
1.0000
 50
0.0000
  0
POLYLINE
  8
25
 66
1
 10
0.0000
 20
0.0000
 30
0.0000
 40
0.0000
 41
0.0000
 70
1
  0
VERTEX
  8
25
 10
15.5065
 20
13.8844
 30
0.0000
  0
VERTEX
  8
25
 10
15.3837
 20
14.0073
 30
0.0000
 42
1.0000
  0
VERTEX
  8
25
 10
15.3298
 20
13.9534
 30
0.0000
  0
VERTEX
  8
25
 10
15.4526
 20
13.8305
 30
0.0000
 42
1.0000
  0
SEQEND
  8
0
  0
POLYLINE
  8
25
 66
1
 10
0.0000
 20
0.0000
 30
0.0000
 40
0.0000
 41
0.0000
 70
1
  0
VERTEX
  8
25
 10
15.3567
 20
14.0184
 30
0.0000
  0
VERTEX
  8
25
 10
15.1110
 20
14.0184
 30
0.0000
 42
1.0000
  0
VERTEX
  8
25
 10
15.1110
 20
13.9422
 30
0.0000
  0
VERTEX
  8
25
 10
15.3567
 20
13.9422
 30
0.0000
 42
1.0000
  0
SEQEND
  8
0
  0
POLYLINE
  8
25
 66
1
 10
0.0000
 20
0.0000
 30
0.0000
 40
0.0000
 41
0.0000
 70
1
  0
VERTEX
  8
25
 10
15.0840
 20
14.0073
 30
0.0000
  0
VERTEX
  8
25
 10
14.9612
 20
13.8844
 30
0.0000
 42
1.0000
  0
VERTEX
  8
25
 10
15.0150
 20
13.8305
 30
0.0000
  0
VERTEX
  8
25
 10
15.1379
 20
13.9534
 30
0.0000
 42
1.0000
  0
SEQEND
  8
0
  0
POLYLINE
  8
25
 66
1
 10
0.0000
 20
0.0000
 30
0.0000
 40
0.0000
 41
0.0000
 70
1
  0
VERTEX
  8
25
 10
14.9500
 20
13.8575
 30
0.0000
  0
VERTEX
  8
25
 10
14.9500
 20
13.3660
 30
0.0000
 42
1.0000
  0
VERTEX
  8
25
 10
15.0262
 20
13.3660
 30
0.0000
  0
VERTEX
  8
25
 10
15.0262
 20
13.8575
 30
0.0000
 42
1.0000
  0
SEQEND
  8
0
  0
POLYLINE
  8
25
 66
1
 10
0.0000
 20
0.0000
 30
0.0000
 40
0.0000
 41
0.0000
 70
1
  0
VERTEX
  8
25
 10
14.9612
 20
13.3390
 30
0.0000
  0
VERTEX
  8
25
 10
15.0840
 20
13.2162
 30
0.0000
 42
1.0000
  0
VERTEX
  8
25
 10
15.1379
 20
13.2700
 30
0.0000
  0
VERTEX
  8
25
 10
15.0150
 20
13.3929
 30
0.0000
 42
1.0000
  0
SEQEND
  8
0
  0
POLYLINE
  8
25
 66
1
 10
0.0000
 20
0.0000
 30
0.0000
 40
0.0000
 41
0.0000
 70
1
  0
VERTEX
  8
25
 10
15.1110
 20
13.2050
 30
0.0000
  0
VERTEX
  8
25
 10
15.3567
 20
13.2050
 30
0.0000
 42
1.0000
  0
VERTEX
  8
25
 10
15.3567
 20
13.2812
 30
0.0000
  0
VERTEX
  8
25
 10
15.1110
 20
13.2812
 30
0.0000
 42
1.0000
  0
SEQEND
  8
0
  0
POLYLINE
  8
25
 66
1
 10
0.0000
 20
0.0000
 30
0.0000
 40
0.0000
 41
0.0000
 70
1
  0
VERTEX
  8
25
 10
15.3837
 20
13.2162
 30
0.0000
  0
VERTEX
  8
25
 10
15.5065
 20
13.3390
 30
0.0000
 42
1.0000
  0
VERTEX
  8
25
 10
15.4526
 20
13.3929
 30
0.0000
  0
VERTEX
  8
25
 10
15.3298
 20
13.2700
 30
0.0000
 42
1.0000
  0
SEQEND
  8
0
  0
POLYLINE
  8
25
 66
1
 10
0.0000
 20
0.0000
 30
0.0000
 40
0.0000
 41
0.0000
 70
1
  0
VERTEX
  8
25
 10
15.7635
 20
13.7076
 30
0.0000
  0
VERTEX
  8
25
 10
16.0092
 20
13.9534
 30
0.0000
 42
1.0000
  0
VERTEX
  8
25
 10
15.9553
 20
14.0073
 30
0.0000
  0
VERTEX
  8
25
 10
15.7096
 20
13.7615
 30
0.0000
 42
1.0000
  0
SEQEND
  8
0
  0
POLYLINE
  8
25
 66
1
 10
0.0000
 20
0.0000
 30
0.0000
 40
0.0000
 41
0.0000
 70
1
  0
VERTEX
  8
25
 10
15.9442
 20
13.9803
 30
0.0000
  0
VERTEX
  8
25
 10
15.9442
 20
13.2431
 30
0.0000
 42
1.0000
  0
VERTEX
  8
25
 10
16.0204
 20
13.2431
 30
0.0000
  0
VERTEX
  8
25
 10
16.0204
 20
13.9803
 30
0.0000
 42
1.0000
  0
SEQEND
  8
0
  0
POLYLINE
  8
25
 66
1
 10
0.0000
 20
0.0000
 30
0.0000
 40
0.0000
 41
0.0000
 70
1
  0
VERTEX
  8
25
 10
15.7365
 20
13.2050
 30
0.0000
  0
VERTEX
  8
25
 10
16.2280
 20
13.2050
 30
0.0000
 42
1.0000
  0
VERTEX
  8
25
 10
16.2280
 20
13.2812
 30
0.0000
  0
VERTEX
  8
25
 10
15.7365
 20
13.2812
 30
0.0000
 42
1.0000
  0
SEQEND
  8
0
  0
POLYLINE
  8
25
 66
1
 10
0.0000
 20
0.0000
 30
0.0000
 40
0.0000
 41
0.0000
 70
1
  0
VERTEX
  8
25
 10
16.5119
 20
13.8305
 30
0.0000
  0
VERTEX
  8
25
 10
16.6347
 20
13.9534
 30
0.0000
 42
1.0000
  0
VERTEX
  8
25
 10
16.5809
 20
14.0073
 30
0.0000
  0
VERTEX
  8
25
 10
16.4580
 20
13.8844
 30
0.0000
 42
1.0000
  0
SEQEND
  8
0
  0
POLYLINE
  8
25
 66
1
 10
0.0000
 20
0.0000
 30
0.0000
 40
0.0000
 41
0.0000
 70
1
  0
VERTEX
  8
25
 10
16.6078
 20
13.9422
 30
0.0000
  0
VERTEX
  8
25
 10
16.8535
 20
13.9422
 30
0.0000
 42
1.0000
  0
VERTEX
  8
25
 10
16.8535
 20
14.0184
 30
0.0000
  0
VERTEX
  8
25
 10
16.6078
 20
14.0184
 30
0.0000
 42
1.0000
  0
SEQEND
  8
0
  0
POLYLINE
  8
25
 66
1
 10
0.0000
 20
0.0000
 30
0.0000
 40
0.0000
 41
0.0000
 70
1
  0
VERTEX
  8
25
 10
16.8266
 20
13.9534
 30
0.0000
  0
VERTEX
  8
25
 10
16.9495
 20
13.8305
 30
0.0000
 42
1.0000
  0
VERTEX
  8
25
 10
17.0034
 20
13.8844
 30
0.0000
  0
VERTEX
  8
25
 10
16.8805
 20
14.0073
 30
0.0000
 42
1.0000
  0
SEQEND
  8
0
  0
POLYLINE
  8
25
 66
1
 10
0.0000
 20
0.0000
 30
0.0000
 40
0.0000
 41
0.0000
 70
1
  0
VERTEX
  8
25
 10
16.9383
 20
13.8575
 30
0.0000
  0
VERTEX
  8
25
 10
16.9383
 20
13.7346
 30
0.0000
 42
1.0000
  0
VERTEX
  8
25
 10
17.0145
 20
13.7346
 30
0.0000
  0
VERTEX
  8
25
 10
17.0145
 20
13.8575
 30
0.0000
 42
1.0000
  0
SEQEND
  8
0
  0
POLYLINE
  8
25
 66
1
 10
0.0000
 20
0.0000
 30
0.0000
 40
0.0000
 41
0.0000
 70
1
  0
VERTEX
  8
25
 10
16.9495
 20
13.7615
 30
0.0000
  0
VERTEX
  8
25
 10
16.8266
 20
13.6387
 30
0.0000
 42
1.0000
  0
VERTEX
  8
25
 10
16.8805
 20
13.5848
 30
0.0000
  0
VERTEX
  8
25
 10
17.0034
 20
13.7076
 30
0.0000
 42
1.0000
  0
SEQEND
  8
0
  0
POLYLINE
  8
25
 66
1
 10
0.0000
 20
0.0000
 30
0.0000
 40
0.0000
 41
0.0000
 70
1
  0
VERTEX
  8
25
 10
16.8535
 20
13.6498
 30
0.0000
  0
VERTEX
  8
25
 10
16.7307
 20
13.6498
 30
0.0000
 42
1.0000
  0
VERTEX
  8
25
 10
16.7307
 20
13.5736
 30
0.0000
  0
VERTEX
  8
25
 10
16.8535
 20
13.5736
 30
0.0000
 42
1.0000
  0
SEQEND
  8
0
  0
POLYLINE
  8
25
 66
1
 10
0.0000
 20
0.0000
 30
0.0000
 40
0.0000
 41
0.0000
 70
1
  0
VERTEX
  8
25
 10
16.8266
 20
13.5848
 30
0.0000
  0
VERTEX
  8
25
 10
16.9495
 20
13.4619
 30
0.0000
 42
1.0000
  0
VERTEX
  8
25
 10
17.0034
 20
13.5158
 30
0.0000
  0
VERTEX
  8
25
 10
16.8805
 20
13.6387
 30
0.0000
 42
1.0000
  0
SEQEND
  8
0
  0
POLYLINE
  8
25
 66
1
 10
0.0000
 20
0.0000
 30
0.0000
 40
0.0000
 41
0.0000
 70
1
  0
VERTEX
  8
25
 10
16.9383
 20
13.4888
 30
0.0000
  0
VERTEX
  8
25
 10
16.9383
 20
13.3660
 30
0.0000
 42
1.0000
  0
VERTEX
  8
25
 10
17.0145
 20
13.3660
 30
0.0000
  0
VERTEX
  8
25
 10
17.0145
 20
13.4888
 30
0.0000
 42
1.0000
  0
SEQEND
  8
0
  0
POLYLINE
  8
25
 66
1
 10
0.0000
 20
0.0000
 30
0.0000
 40
0.0000
 41
0.0000
 70
1
  0
VERTEX
  8
25
 10
16.9495
 20
13.3929
 30
0.0000
  0
VERTEX
  8
25
 10
16.8266
 20
13.2700
 30
0.0000
 42
1.0000
  0
VERTEX
  8
25
 10
16.8805
 20
13.2162
 30
0.0000
  0
VERTEX
  8
25
 10
17.0034
 20
13.3390
 30
0.0000
 42
1.0000
  0
SEQEND
  8
0
  0
POLYLINE
  8
25
 66
1
 10
0.0000
 20
0.0000
 30
0.0000
 40
0.0000
 41
0.0000
 70
1
  0
VERTEX
  8
25
 10
16.8535
 20
13.2812
 30
0.0000
  0
VERTEX
  8
25
 10
16.6078
 20
13.2812
 30
0.0000
 42
1.0000
  0
VERTEX
  8
25
 10
16.6078
 20
13.2050
 30
0.0000
  0
VERTEX
  8
25
 10
16.8535
 20
13.2050
 30
0.0000
 42
1.0000
  0
SEQEND
  8
0
  0
POLYLINE
  8
25
 66
1
 10
0.0000
 20
0.0000
 30
0.0000
 40
0.0000
 41
0.0000
 70
1
  0
VERTEX
  8
25
 10
16.6347
 20
13.2700
 30
0.0000
  0
VERTEX
  8
25
 10
16.5119
 20
13.3929
 30
0.0000
 42
1.0000
  0
VERTEX
  8
25
 10
16.4580
 20
13.3390
 30
0.0000
  0
VERTEX
  8
25
 10
16.5809
 20
13.2162
 30
0.0000
 42
1.0000
  0
SEQEND
  8
0
  0
POLYLINE
  8
51
 66
1
 10
0.0000
 20
0.0000
 30
0.0000
 40
0.0000
 41
0.0000
 70
1
  0
VERTEX
  8
51
 10
11.5760
 20
17.0708
 30
0.0000
  0
VERTEX
  8
51
 10
10.8640
 20
17.0708
 30
0.0000
 42
1.0000
  0
VERTEX
  8
51
 10
10.8640
 20
16.9692
 30
0.0000
  0
VERTEX
  8
51
 10
11.5760
 20
16.9692
 30
0.0000
 42
1.0000
  0
SEQEND
  8
0
  0
POLYLINE
  8
51
 66
1
 10
0.0000
 20
0.0000
 30
0.0000
 40
0.0000
 41
0.0000
 70
1
  0
VERTEX
  8
51
 10
11.5760
 20
17.9218
 30
0.0000
  0
VERTEX
  8
51
 10
10.8640
 20
17.9218
 30
0.0000
 42
1.0000
  0
VERTEX
  8
51
 10
10.8640
 20
17.8202
 30
0.0000
  0
VERTEX
  8
51
 10
11.5760
 20
17.8202
 30
0.0000
 42
1.0000
  0
SEQEND
  8
0
  0
POLYLINE
  8
21
 66
1
 10
0.0000
 20
0.0000
 30
0.0000
 40
0.0000
 41
0.0000
 70
1
  0
VERTEX
  8
21
 10
12.8200
 20
16.8536
 30
0.0000
  0
VERTEX
  8
21
 10
9.6200
 20
16.8536
 30
0.0000
 42
1.0000
  0
VERTEX
  8
21
 10
9.6200
 20
16.6504
 30
0.0000
  0
VERTEX
  8
21
 10
12.8200
 20
16.6504
 30
0.0000
 42
1.0000
  0
SEQEND
  8
0
  0
POLYLINE
  8
21
 66
1
 10
0.0000
 20
0.0000
 30
0.0000
 40
0.0000
 41
0.0000
 70
1
  0
VERTEX
  8
21
 10
9.7216
 20
16.7520
 30
0.0000
  0
VERTEX
  8
21
 10
9.7216
 20
18.1520
 30
0.0000
 42
1.0000
  0
VERTEX
  8
21
 10
9.5184
 20
18.1520
 30
0.0000
  0
VERTEX
  8
21
 10
9.5184
 20
16.7520
 30
0.0000
 42
1.0000
  0
SEQEND
  8
0
  0
POLYLINE
  8
21
 66
1
 10
0.0000
 20
0.0000
 30
0.0000
 40
0.0000
 41
0.0000
 70
1
  0
VERTEX
  8
21
 10
9.6200
 20
18.0504
 30
0.0000
  0
VERTEX
  8
21
 10
12.8200
 20
18.0504
 30
0.0000
 42
1.0000
  0
VERTEX
  8
21
 10
12.8200
 20
18.2536
 30
0.0000
  0
VERTEX
  8
21
 10
9.6200
 20
18.2536
 30
0.0000
 42
1.0000
  0
SEQEND
  8
0
  0
POLYLINE
  8
21
 66
1
 10
0.0000
 20
0.0000
 30
0.0000
 40
0.0000
 41
0.0000
 70
1
  0
VERTEX
  8
21
 10
12.7184
 20
18.1520
 30
0.0000
  0
VERTEX
  8
21
 10
12.7184
 20
16.7520
 30
0.0000
 42
1.0000
  0
VERTEX
  8
21
 10
12.9216
 20
16.7520
 30
0.0000
  0
VERTEX
  8
21
 10
12.9216
 20
18.1520
 30
0.0000
 42
1.0000
  0
SEQEND
  8
0
  0
INSERT
  8
51
  2
RECT
 10
11.8082
 20
17.4469
 30
0.0000
 41
0.5001
 42
0.9500
 43
1.0000
 50
180.0000
  0
INSERT
  8
51
  2
RECT
 10
10.6398
 20
17.4469
 30
0.0000
 41
0.5001
 42
0.9500
 43
1.0000
 50
180.0000
  0
POLYLINE
  8
25
 66
1
 10
0.0000
 20
0.0000
 30
0.0000
 40
0.0000
 41
0.0000
 70
1
  0
VERTEX
  8
25
 10
9.7402
 20
18.5994
 30
0.0000
  0
VERTEX
  8
25
 10
9.7402
 20
19.2604
 30
0.0000
 42
1.0000
  0
VERTEX
  8
25
 10
9.5878
 20
19.2604
 30
0.0000
  0
VERTEX
  8
25
 10
9.5878
 20
18.5994
 30
0.0000
 42
1.0000
  0
SEQEND
  8
0
  0
POLYLINE
  8
25
 66
1
 10
0.0000
 20
0.0000
 30
0.0000
 40
0.0000
 41
0.0000
 70
1
  0
VERTEX
  8
25
 10
9.6640
 20
19.1842
 30
0.0000
  0
VERTEX
  8
25
 10
10.1046
 20
19.1842
 30
0.0000
 42
1.0000
  0
VERTEX
  8
25
 10
10.1046
 20
19.3366
 30
0.0000
  0
VERTEX
  8
25
 10
9.6640
 20
19.3366
 30
0.0000
 42
1.0000
  0
SEQEND
  8
0
  0
POLYLINE
  8
25
 66
1
 10
0.0000
 20
0.0000
 30
0.0000
 40
0.0000
 41
0.0000
 70
1
  0
VERTEX
  8
25
 10
9.6640
 20
18.8537
 30
0.0000
  0
VERTEX
  8
25
 10
9.8843
 20
18.8537
 30
0.0000
 42
1.0000
  0
VERTEX
  8
25
 10
9.8843
 20
19.0061
 30
0.0000
  0
VERTEX
  8
25
 10
9.6640
 20
19.0061
 30
0.0000
 42
1.0000
  0
SEQEND
  8
0
  0
POLYLINE
  8
25
 66
1
 10
0.0000
 20
0.0000
 30
0.0000
 40
0.0000
 41
0.0000
 70
1
  0
VERTEX
  8
25
 10
10.4886
 20
18.5994
 30
0.0000
  0
VERTEX
  8
25
 10
10.4886
 20
19.2604
 30
0.0000
 42
1.0000
  0
VERTEX
  8
25
 10
10.3362
 20
19.2604
 30
0.0000
  0
VERTEX
  8
25
 10
10.3362
 20
18.5994
 30
0.0000
 42
1.0000
  0
SEQEND
  8
0
  0
POLYLINE
  8
25
 66
1
 10
0.0000
 20
0.0000
 30
0.0000
 40
0.0000
 41
0.0000
 70
1
  0
VERTEX
  8
25
 10
10.4124
 20
19.1842
 30
0.0000
  0
VERTEX
  8
25
 10
10.7429
 20
19.1842
 30
0.0000
 42
1.0000
  0
VERTEX
  8
25
 10
10.7429
 20
19.3366
 30
0.0000
  0
VERTEX
  8
25
 10
10.4124
 20
19.3366
 30
0.0000
 42
1.0000
  0
SEQEND
  8
0
  0
POLYLINE
  8
25
 66
1
 10
0.0000
 20
0.0000
 30
0.0000
 40
0.0000
 41
0.0000
 70
1
  0
VERTEX
  8
25
 10
10.6890
 20
19.2065
 30
0.0000
  0
VERTEX
  8
25
 10
10.7991
 20
19.0963
 30
0.0000
 42
1.0000
  0
VERTEX
  8
25
 10
10.9069
 20
19.2041
 30
0.0000
  0
VERTEX
  8
25
 10
10.7967
 20
19.3142
 30
0.0000
 42
1.0000
  0
SEQEND
  8
0
  0
POLYLINE
  8
25
 66
1
 10
0.0000
 20
0.0000
 30
0.0000
 40
0.0000
 41
0.0000
 70
1
  0
VERTEX
  8
25
 10
10.7768
 20
19.1502
 30
0.0000
  0
VERTEX
  8
25
 10
10.7768
 20
19.0400
 30
0.0000
 42
1.0000
  0
VERTEX
  8
25
 10
10.9292
 20
19.0400
 30
0.0000
  0
VERTEX
  8
25
 10
10.9292
 20
19.1502
 30
0.0000
 42
1.0000
  0
SEQEND
  8
0
  0
POLYLINE
  8
25
 66
1
 10
0.0000
 20
0.0000
 30
0.0000
 40
0.0000
 41
0.0000
 70
1
  0
VERTEX
  8
25
 10
10.7991
 20
19.0939
 30
0.0000
  0
VERTEX
  8
25
 10
10.6890
 20
18.9838
 30
0.0000
 42
1.0000
  0
VERTEX
  8
25
 10
10.7967
 20
18.8760
 30
0.0000
  0
VERTEX
  8
25
 10
10.9069
 20
18.9862
 30
0.0000
 42
1.0000
  0
SEQEND
  8
0
  0
POLYLINE
  8
25
 66
1
 10
0.0000
 20
0.0000
 30
0.0000
 40
0.0000
 41
0.0000
 70
1
  0
VERTEX
  8
25
 10
10.6890
 20
18.8760
 30
0.0000
  0
VERTEX
  8
25
 10
10.7991
 20
18.7658
 30
0.0000
 42
1.0000
  0
VERTEX
  8
25
 10
10.9069
 20
18.8736
 30
0.0000
  0
VERTEX
  8
25
 10
10.7967
 20
18.9838
 30
0.0000
 42
1.0000
  0
SEQEND
  8
0
  0
POLYLINE
  8
25
 66
1
 10
0.0000
 20
0.0000
 30
0.0000
 40
0.0000
 41
0.0000
 70
1
  0
VERTEX
  8
25
 10
10.7768
 20
18.8197
 30
0.0000
  0
VERTEX
  8
25
 10
10.7768
 20
18.7096
 30
0.0000
 42
1.0000
  0
VERTEX
  8
25
 10
10.9292
 20
18.7096
 30
0.0000
  0
VERTEX
  8
25
 10
10.9292
 20
18.8197
 30
0.0000
 42
1.0000
  0
SEQEND
  8
0
  0
POLYLINE
  8
25
 66
1
 10
0.0000
 20
0.0000
 30
0.0000
 40
0.0000
 41
0.0000
 70
1
  0
VERTEX
  8
25
 10
10.7991
 20
18.7634
 30
0.0000
  0
VERTEX
  8
25
 10
10.6890
 20
18.6533
 30
0.0000
 42
1.0000
  0
VERTEX
  8
25
 10
10.7967
 20
18.5455
 30
0.0000
  0
VERTEX
  8
25
 10
10.9069
 20
18.6557
 30
0.0000
 42
1.0000
  0
SEQEND
  8
0
  0
POLYLINE
  8
25
 66
1
 10
0.0000
 20
0.0000
 30
0.0000
 40
0.0000
 41
0.0000
 70
1
  0
VERTEX
  8
25
 10
10.7429
 20
18.6756
 30
0.0000
  0
VERTEX
  8
25
 10
10.4124
 20
18.6756
 30
0.0000
 42
1.0000
  0
VERTEX
  8
25
 10
10.4124
 20
18.5232
 30
0.0000
  0
VERTEX
  8
25
 10
10.7429
 20
18.5232
 30
0.0000
 42
1.0000
  0
SEQEND
  8
0
  0
POLYLINE
  8
25
 66
1
 10
0.0000
 20
0.0000
 30
0.0000
 40
0.0000
 41
0.0000
 70
1
  0
VERTEX
  8
25
 10
10.4124
 20
18.8537
 30
0.0000
  0
VERTEX
  8
25
 10
10.7429
 20
18.8537
 30
0.0000
 42
1.0000
  0
VERTEX
  8
25
 10
10.7429
 20
19.0061
 30
0.0000
  0
VERTEX
  8
25
 10
10.4124
 20
19.0061
 30
0.0000
 42
1.0000
  0
SEQEND
  8
0
  0
POLYLINE
  8
25
 66
1
 10
0.0000
 20
0.0000
 30
0.0000
 40
0.0000
 41
0.0000
 70
1
  0
VERTEX
  8
25
 10
11.2147
 20
18.9862
 30
0.0000
  0
VERTEX
  8
25
 10
11.4350
 20
19.2065
 30
0.0000
 42
1.0000
  0
VERTEX
  8
25
 10
11.3272
 20
19.3142
 30
0.0000
  0
VERTEX
  8
25
 10
11.1069
 20
19.0939
 30
0.0000
 42
1.0000
  0
SEQEND
  8
0
  0
POLYLINE
  8
25
 66
1
 10
0.0000
 20
0.0000
 30
0.0000
 40
0.0000
 41
0.0000
 70
1
  0
VERTEX
  8
25
 10
11.3049
 20
19.2604
 30
0.0000
  0
VERTEX
  8
25
 10
11.3049
 20
18.5994
 30
0.0000
 42
1.0000
  0
VERTEX
  8
25
 10
11.4573
 20
18.5994
 30
0.0000
  0
VERTEX
  8
25
 10
11.4573
 20
19.2604
 30
0.0000
 42
1.0000
  0
SEQEND
  8
0
  0
POLYLINE
  8
25
 66
1
 10
0.0000
 20
0.0000
 30
0.0000
 40
0.0000
 41
0.0000
 70
1
  0
VERTEX
  8
25
 10
11.1608
 20
18.5232
 30
0.0000
  0
VERTEX
  8
25
 10
11.6014
 20
18.5232
 30
0.0000
 42
1.0000
  0
VERTEX
  8
25
 10
11.6014
 20
18.6756
 30
0.0000
  0
VERTEX
  8
25
 10
11.1608
 20
18.6756
 30
0.0000
 42
1.0000
  0
SEQEND
  8
0
  0
POLYLINE
  8
51
 66
1
 10
0.0000
 20
0.0000
 30
0.0000
 40
0.0000
 41
0.0000
 70
1
  0
VERTEX
  8
51
 10
10.0530
 20
13.6802
 30
0.0000
  0
VERTEX
  8
51
 10
10.7650
 20
13.6802
 30
0.0000
 42
1.0000
  0
VERTEX
  8
51
 10
10.7650
 20
13.7818
 30
0.0000
  0
VERTEX
  8
51
 10
10.0530
 20
13.7818
 30
0.0000
 42
1.0000
  0
SEQEND
  8
0
  0
POLYLINE
  8
51
 66
1
 10
0.0000
 20
0.0000
 30
0.0000
 40
0.0000
 41
0.0000
 70
1
  0
VERTEX
  8
51
 10
10.0530
 20
12.8292
 30
0.0000
  0
VERTEX
  8
51
 10
10.7650
 20
12.8292
 30
0.0000
 42
1.0000
  0
VERTEX
  8
51
 10
10.7650
 20
12.9308
 30
0.0000
  0
VERTEX
  8
51
 10
10.0530
 20
12.9308
 30
0.0000
 42
1.0000
  0
SEQEND
  8
0
  0
POLYLINE
  8
21
 66
1
 10
0.0000
 20
0.0000
 30
0.0000
 40
0.0000
 41
0.0000
 70
1
  0
VERTEX
  8
21
 10
8.8090
 20
13.8974
 30
0.0000
  0
VERTEX
  8
21
 10
12.0090
 20
13.8974
 30
0.0000
 42
1.0000
  0
VERTEX
  8
21
 10
12.0090
 20
14.1006
 30
0.0000
  0
VERTEX
  8
21
 10
8.8090
 20
14.1006
 30
0.0000
 42
1.0000
  0
SEQEND
  8
0
  0
POLYLINE
  8
21
 66
1
 10
0.0000
 20
0.0000
 30
0.0000
 40
0.0000
 41
0.0000
 70
1
  0
VERTEX
  8
21
 10
11.9074
 20
13.9990
 30
0.0000
  0
VERTEX
  8
21
 10
11.9074
 20
12.5990
 30
0.0000
 42
1.0000
  0
VERTEX
  8
21
 10
12.1106
 20
12.5990
 30
0.0000
  0
VERTEX
  8
21
 10
12.1106
 20
13.9990
 30
0.0000
 42
1.0000
  0
SEQEND
  8
0
  0
POLYLINE
  8
21
 66
1
 10
0.0000
 20
0.0000
 30
0.0000
 40
0.0000
 41
0.0000
 70
1
  0
VERTEX
  8
21
 10
12.0090
 20
12.7006
 30
0.0000
  0
VERTEX
  8
21
 10
8.8090
 20
12.7006
 30
0.0000
 42
1.0000
  0
VERTEX
  8
21
 10
8.8090
 20
12.4974
 30
0.0000
  0
VERTEX
  8
21
 10
12.0090
 20
12.4974
 30
0.0000
 42
1.0000
  0
SEQEND
  8
0
  0
POLYLINE
  8
21
 66
1
 10
0.0000
 20
0.0000
 30
0.0000
 40
0.0000
 41
0.0000
 70
1
  0
VERTEX
  8
21
 10
8.9106
 20
12.5990
 30
0.0000
  0
VERTEX
  8
21
 10
8.9106
 20
13.9990
 30
0.0000
 42
1.0000
  0
VERTEX
  8
21
 10
8.7074
 20
13.9990
 30
0.0000
  0
VERTEX
  8
21
 10
8.7074
 20
12.5990
 30
0.0000
 42
1.0000
  0
SEQEND
  8
0
  0
INSERT
  8
51
  2
RECT
 10
9.8209
 20
13.3041
 30
0.0000
 41
0.5001
 42
0.9500
 43
1.0000
 50
0.0000
  0
INSERT
  8
51
  2
RECT
 10
10.9893
 20
13.3041
 30
0.0000
 41
0.5001
 42
0.9500
 43
1.0000
 50
0.0000
  0
POLYLINE
  8
25
 66
1
 10
0.0000
 20
0.0000
 30
0.0000
 40
0.0000
 41
0.0000
 70
1
  0
VERTEX
  8
25
 10
9.3934
 20
14.4862
 30
0.0000
  0
VERTEX
  8
25
 10
9.3934
 20
15.1472
 30
0.0000
 42
1.0000
  0
VERTEX
  8
25
 10
9.2410
 20
15.1472
 30
0.0000
  0
VERTEX
  8
25
 10
9.2410
 20
14.4862
 30
0.0000
 42
1.0000
  0
SEQEND
  8
0
  0
POLYLINE
  8
25
 66
1
 10
0.0000
 20
0.0000
 30
0.0000
 40
0.0000
 41
0.0000
 70
1
  0
VERTEX
  8
25
 10
9.3172
 20
15.0710
 30
0.0000
  0
VERTEX
  8
25
 10
9.7578
 20
15.0710
 30
0.0000
 42
1.0000
  0
VERTEX
  8
25
 10
9.7578
 20
15.2234
 30
0.0000
  0
VERTEX
  8
25
 10
9.3172
 20
15.2234
 30
0.0000
 42
1.0000
  0
SEQEND
  8
0
  0
POLYLINE
  8
25
 66
1
 10
0.0000
 20
0.0000
 30
0.0000
 40
0.0000
 41
0.0000
 70
1
  0
VERTEX
  8
25
 10
9.3172
 20
14.7405
 30
0.0000
  0
VERTEX
  8
25
 10
9.5375
 20
14.7405
 30
0.0000
 42
1.0000
  0
VERTEX
  8
25
 10
9.5375
 20
14.8929
 30
0.0000
  0
VERTEX
  8
25
 10
9.3172
 20
14.8929
 30
0.0000
 42
1.0000
  0
SEQEND
  8
0
  0
POLYLINE
  8
25
 66
1
 10
0.0000
 20
0.0000
 30
0.0000
 40
0.0000
 41
0.0000
 70
1
  0
VERTEX
  8
25
 10
10.1418
 20
14.4862
 30
0.0000
  0
VERTEX
  8
25
 10
10.1418
 20
15.1472
 30
0.0000
 42
1.0000
  0
VERTEX
  8
25
 10
9.9894
 20
15.1472
 30
0.0000
  0
VERTEX
  8
25
 10
9.9894
 20
14.4862
 30
0.0000
 42
1.0000
  0
SEQEND
  8
0
  0
POLYLINE
  8
25
 66
1
 10
0.0000
 20
0.0000
 30
0.0000
 40
0.0000
 41
0.0000
 70
1
  0
VERTEX
  8
25
 10
10.0656
 20
15.0710
 30
0.0000
  0
VERTEX
  8
25
 10
10.3961
 20
15.0710
 30
0.0000
 42
1.0000
  0
VERTEX
  8
25
 10
10.3961
 20
15.2234
 30
0.0000
  0
VERTEX
  8
25
 10
10.0656
 20
15.2234
 30
0.0000
 42
1.0000
  0
SEQEND
  8
0
  0
POLYLINE
  8
25
 66
1
 10
0.0000
 20
0.0000
 30
0.0000
 40
0.0000
 41
0.0000
 70
1
  0
VERTEX
  8
25
 10
10.3422
 20
15.0933
 30
0.0000
  0
VERTEX
  8
25
 10
10.4524
 20
14.9831
 30
0.0000
 42
1.0000
  0
VERTEX
  8
25
 10
10.5601
 20
15.0909
 30
0.0000
  0
VERTEX
  8
25
 10
10.4500
 20
15.2010
 30
0.0000
 42
1.0000
  0
SEQEND
  8
0
  0
POLYLINE
  8
25
 66
1
 10
0.0000
 20
0.0000
 30
0.0000
 40
0.0000
 41
0.0000
 70
1
  0
VERTEX
  8
25
 10
10.4301
 20
15.0370
 30
0.0000
  0
VERTEX
  8
25
 10
10.4301
 20
14.9268
 30
0.0000
 42
1.0000
  0
VERTEX
  8
25
 10
10.5825
 20
14.9268
 30
0.0000
  0
VERTEX
  8
25
 10
10.5825
 20
15.0370
 30
0.0000
 42
1.0000
  0
SEQEND
  8
0
  0
POLYLINE
  8
25
 66
1
 10
0.0000
 20
0.0000
 30
0.0000
 40
0.0000
 41
0.0000
 70
1
  0
VERTEX
  8
25
 10
10.4524
 20
14.9807
 30
0.0000
  0
VERTEX
  8
25
 10
10.3422
 20
14.8706
 30
0.0000
 42
1.0000
  0
VERTEX
  8
25
 10
10.4500
 20
14.7628
 30
0.0000
  0
VERTEX
  8
25
 10
10.5601
 20
14.8730
 30
0.0000
 42
1.0000
  0
SEQEND
  8
0
  0
POLYLINE
  8
25
 66
1
 10
0.0000
 20
0.0000
 30
0.0000
 40
0.0000
 41
0.0000
 70
1
  0
VERTEX
  8
25
 10
10.3422
 20
14.7628
 30
0.0000
  0
VERTEX
  8
25
 10
10.4524
 20
14.6526
 30
0.0000
 42
1.0000
  0
VERTEX
  8
25
 10
10.5601
 20
14.7604
 30
0.0000
  0
VERTEX
  8
25
 10
10.4500
 20
14.8706
 30
0.0000
 42
1.0000
  0
SEQEND
  8
0
  0
POLYLINE
  8
25
 66
1
 10
0.0000
 20
0.0000
 30
0.0000
 40
0.0000
 41
0.0000
 70
1
  0
VERTEX
  8
25
 10
10.4301
 20
14.7065
 30
0.0000
  0
VERTEX
  8
25
 10
10.4301
 20
14.5964
 30
0.0000
 42
1.0000
  0
VERTEX
  8
25
 10
10.5825
 20
14.5964
 30
0.0000
  0
VERTEX
  8
25
 10
10.5825
 20
14.7065
 30
0.0000
 42
1.0000
  0
SEQEND
  8
0
  0
POLYLINE
  8
25
 66
1
 10
0.0000
 20
0.0000
 30
0.0000
 40
0.0000
 41
0.0000
 70
1
  0
VERTEX
  8
25
 10
10.4524
 20
14.6502
 30
0.0000
  0
VERTEX
  8
25
 10
10.3422
 20
14.5401
 30
0.0000
 42
1.0000
  0
VERTEX
  8
25
 10
10.4500
 20
14.4323
 30
0.0000
  0
VERTEX
  8
25
 10
10.5601
 20
14.5425
 30
0.0000
 42
1.0000
  0
SEQEND
  8
0
  0
POLYLINE
  8
25
 66
1
 10
0.0000
 20
0.0000
 30
0.0000
 40
0.0000
 41
0.0000
 70
1
  0
VERTEX
  8
25
 10
10.3961
 20
14.5624
 30
0.0000
  0
VERTEX
  8
25
 10
10.0656
 20
14.5624
 30
0.0000
 42
1.0000
  0
VERTEX
  8
25
 10
10.0656
 20
14.4100
 30
0.0000
  0
VERTEX
  8
25
 10
10.3961
 20
14.4100
 30
0.0000
 42
1.0000
  0
SEQEND
  8
0
  0
POLYLINE
  8
25
 66
1
 10
0.0000
 20
0.0000
 30
0.0000
 40
0.0000
 41
0.0000
 70
1
  0
VERTEX
  8
25
 10
10.0656
 20
14.7405
 30
0.0000
  0
VERTEX
  8
25
 10
10.3961
 20
14.7405
 30
0.0000
 42
1.0000
  0
VERTEX
  8
25
 10
10.3961
 20
14.8929
 30
0.0000
  0
VERTEX
  8
25
 10
10.0656
 20
14.8929
 30
0.0000
 42
1.0000
  0
SEQEND
  8
0
  0
POLYLINE
  8
25
 66
1
 10
0.0000
 20
0.0000
 30
0.0000
 40
0.0000
 41
0.0000
 70
1
  0
VERTEX
  8
25
 10
10.7601
 20
14.5425
 30
0.0000
  0
VERTEX
  8
25
 10
10.8703
 20
14.4323
 30
0.0000
 42
1.0000
  0
VERTEX
  8
25
 10
10.9781
 20
14.5401
 30
0.0000
  0
VERTEX
  8
25
 10
10.8679
 20
14.6502
 30
0.0000
 42
1.0000
  0
SEQEND
  8
0
  0
POLYLINE
  8
25
 66
1
 10
0.0000
 20
0.0000
 30
0.0000
 40
0.0000
 41
0.0000
 70
1
  0
VERTEX
  8
25
 10
10.9242
 20
14.4100
 30
0.0000
  0
VERTEX
  8
25
 10
11.1445
 20
14.4100
 30
0.0000
 42
1.0000
  0
VERTEX
  8
25
 10
11.1445
 20
14.5624
 30
0.0000
  0
VERTEX
  8
25
 10
10.9242
 20
14.5624
 30
0.0000
 42
1.0000
  0
SEQEND
  8
0
  0
POLYLINE
  8
25
 66
1
 10
0.0000
 20
0.0000
 30
0.0000
 40
0.0000
 41
0.0000
 70
1
  0
VERTEX
  8
25
 10
11.1984
 20
14.4323
 30
0.0000
  0
VERTEX
  8
25
 10
11.3086
 20
14.5425
 30
0.0000
 42
1.0000
  0
VERTEX
  8
25
 10
11.2008
 20
14.6502
 30
0.0000
  0
VERTEX
  8
25
 10
11.0906
 20
14.5401
 30
0.0000
 42
1.0000
  0
SEQEND
  8
0
  0
POLYLINE
  8
25
 66
1
 10
0.0000
 20
0.0000
 30
0.0000
 40
0.0000
 41
0.0000
 70
1
  0
VERTEX
  8
25
 10
11.3309
 20
14.5964
 30
0.0000
  0
VERTEX
  8
25
 10
11.3309
 20
15.0370
 30
0.0000
 42
1.0000
  0
VERTEX
  8
25
 10
11.1785
 20
15.0370
 30
0.0000
  0
VERTEX
  8
25
 10
11.1785
 20
14.5964
 30
0.0000
 42
1.0000
  0
SEQEND
  8
0
  0
POLYLINE
  8
25
 66
1
 10
0.0000
 20
0.0000
 30
0.0000
 40
0.0000
 41
0.0000
 70
1
  0
VERTEX
  8
25
 10
11.3086
 20
15.0909
 30
0.0000
  0
VERTEX
  8
25
 10
11.1984
 20
15.2010
 30
0.0000
 42
1.0000
  0
VERTEX
  8
25
 10
11.0906
 20
15.0933
 30
0.0000
  0
VERTEX
  8
25
 10
11.2008
 20
14.9831
 30
0.0000
 42
1.0000
  0
SEQEND
  8
0
  0
POLYLINE
  8
25
 66
1
 10
0.0000
 20
0.0000
 30
0.0000
 40
0.0000
 41
0.0000
 70
1
  0
VERTEX
  8
25
 10
11.1445
 20
15.2234
 30
0.0000
  0
VERTEX
  8
25
 10
10.9242
 20
15.2234
 30
0.0000
 42
1.0000
  0
VERTEX
  8
25
 10
10.9242
 20
15.0710
 30
0.0000
  0
VERTEX
  8
25
 10
11.1445
 20
15.0710
 30
0.0000
 42
1.0000
  0
SEQEND
  8
0
  0
POLYLINE
  8
25
 66
1
 10
0.0000
 20
0.0000
 30
0.0000
 40
0.0000
 41
0.0000
 70
1
  0
VERTEX
  8
25
 10
10.8703
 20
15.2010
 30
0.0000
  0
VERTEX
  8
25
 10
10.7601
 20
15.0909
 30
0.0000
 42
1.0000
  0
VERTEX
  8
25
 10
10.8679
 20
14.9831
 30
0.0000
  0
VERTEX
  8
25
 10
10.9781
 20
15.0933
 30
0.0000
 42
1.0000
  0
SEQEND
  8
0
  0
POLYLINE
  8
25
 66
1
 10
0.0000
 20
0.0000
 30
0.0000
 40
0.0000
 41
0.0000
 70
1
  0
VERTEX
  8
25
 10
10.7378
 20
15.0370
 30
0.0000
  0
VERTEX
  8
25
 10
10.7378
 20
14.9268
 30
0.0000
 42
1.0000
  0
VERTEX
  8
25
 10
10.8902
 20
14.9268
 30
0.0000
  0
VERTEX
  8
25
 10
10.8902
 20
15.0370
 30
0.0000
 42
1.0000
  0
SEQEND
  8
0
  0
POLYLINE
  8
25
 66
1
 10
0.0000
 20
0.0000
 30
0.0000
 40
0.0000
 41
0.0000
 70
1
  0
VERTEX
  8
25
 10
10.7601
 20
14.8730
 30
0.0000
  0
VERTEX
  8
25
 10
10.8703
 20
14.7628
 30
0.0000
 42
1.0000
  0
VERTEX
  8
25
 10
10.9781
 20
14.8706
 30
0.0000
  0
VERTEX
  8
25
 10
10.8679
 20
14.9807
 30
0.0000
 42
1.0000
  0
SEQEND
  8
0
  0
POLYLINE
  8
25
 66
1
 10
0.0000
 20
0.0000
 30
0.0000
 40
0.0000
 41
0.0000
 70
1
  0
VERTEX
  8
25
 10
10.9242
 20
14.7405
 30
0.0000
  0
VERTEX
  8
25
 10
11.2547
 20
14.7405
 30
0.0000
 42
1.0000
  0
VERTEX
  8
25
 10
11.2547
 20
14.8929
 30
0.0000
  0
VERTEX
  8
25
 10
10.9242
 20
14.8929
 30
0.0000
 42
1.0000
  0
SEQEND
  8
0
  0
POLYLINE
  8
51
 66
1
 10
0.0000
 20
0.0000
 30
0.0000
 40
0.0000
 41
0.0000
 70
1
  0
VERTEX
  8
51
 10
6.0520
 20
19.5170
 30
0.0000
  0
VERTEX
  8
51
 10
6.0520
 20
15.1170
 30
0.0000
 42
1.0000
  0
VERTEX
  8
51
 10
6.1020
 20
15.1170
 30
0.0000
  0
VERTEX
  8
51
 10
6.1020
 20
19.5170
 30
0.0000
 42
1.0000
  0
SEQEND
  8
0
  0
POLYLINE
  8
51
 66
1
 10
0.0000
 20
0.0000
 30
0.0000
 40
0.0000
 41
0.0000
 70
1
  0
VERTEX
  8
51
 10
6.0770
 20
15.1420
 30
0.0000
  0
VERTEX
  8
51
 10
2.4770
 20
15.1420
 30
0.0000
 42
1.0000
  0
VERTEX
  8
51
 10
2.4770
 20
15.0920
 30
0.0000
  0
VERTEX
  8
51
 10
6.0770
 20
15.0920
 30
0.0000
 42
1.0000
  0
SEQEND
  8
0
  0
POLYLINE
  8
51
 66
1
 10
0.0000
 20
0.0000
 30
0.0000
 40
0.0000
 41
0.0000
 70
1
  0
VERTEX
  8
51
 10
2.5020
 20
15.1170
 30
0.0000
  0
VERTEX
  8
51
 10
2.5020
 20
19.5170
 30
0.0000
 42
1.0000
  0
VERTEX
  8
51
 10
2.4520
 20
19.5170
 30
0.0000
  0
VERTEX
  8
51
 10
2.4520
 20
15.1170
 30
0.0000
 42
1.0000
  0
SEQEND
  8
0
  0
POLYLINE
  8
51
 66
1
 10
0.0000
 20
0.0000
 30
0.0000
 40
0.0000
 41
0.0000
 70
1
  0
VERTEX
  8
51
 10
2.4770
 20
19.4920
 30
0.0000
  0
VERTEX
  8
51
 10
6.0770
 20
19.4920
 30
0.0000
 42
1.0000
  0
VERTEX
  8
51
 10
6.0770
 20
19.5420
 30
0.0000
  0
VERTEX
  8
51
 10
2.4770
 20
19.5420
 30
0.0000
 42
1.0000
  0
SEQEND
  8
0
  0
POLYLINE
  8
51
 66
1
 10
0.0000
 20
0.0000
 30
0.0000
 40
0.0000
 41
0.0000
 70
1
  0
VERTEX
  8
51
 10
5.6770
 20
18.0920
 30
0.0000
  0
VERTEX
  8
51
 10
5.6770
 20
16.5420
 30
0.0000
 42
1.0000
  0
VERTEX
  8
51
 10
5.7770
 20
16.5420
 30
0.0000
  0
VERTEX
  8
51
 10
5.7770
 20
18.0920
 30
0.0000
 42
1.0000
  0
SEQEND
  8
0
  0
POLYLINE
  8
51
 66
1
 10
0.0000
 20
0.0000
 30
0.0000
 40
0.0000
 41
0.0000
 70
1
  0
VERTEX
  8
51
 10
5.7270
 20
16.5920
 30
0.0000
  0
VERTEX
  8
51
 10
2.8270
 20
16.5920
 30
0.0000
 42
1.0000
  0
VERTEX
  8
51
 10
2.8270
 20
16.4920
 30
0.0000
  0
VERTEX
  8
51
 10
5.7270
 20
16.4920
 30
0.0000
 42
1.0000
  0
SEQEND
  8
0
  0
POLYLINE
  8
51
 66
1
 10
0.0000
 20
0.0000
 30
0.0000
 40
0.0000
 41
0.0000
 70
1
  0
VERTEX
  8
51
 10
2.8770
 20
16.5420
 30
0.0000
  0
VERTEX
  8
51
 10
2.8770
 20
18.0920
 30
0.0000
 42
1.0000
  0
VERTEX
  8
51
 10
2.7770
 20
18.0920
 30
0.0000
  0
VERTEX
  8
51
 10
2.7770
 20
16.5420
 30
0.0000
 42
1.0000
  0
SEQEND
  8
0
  0
POLYLINE
  8
51
 66
1
 10
0.0000
 20
0.0000
 30
0.0000
 40
0.0000
 41
0.0000
 70
1
  0
VERTEX
  8
51
 10
2.8270
 20
18.0420
 30
0.0000
  0
VERTEX
  8
51
 10
5.7270
 20
18.0420
 30
0.0000
 42
1.0000
  0
VERTEX
  8
51
 10
5.7270
 20
18.1420
 30
0.0000
  0
VERTEX
  8
51
 10
2.8270
 20
18.1420
 30
0.0000
 42
1.0000
  0
SEQEND
  8
0
  0
POLYLINE
  8
51
 66
1
 10
0.0000
 20
0.0000
 30
0.0000
 40
0.0000
 41
0.0000
 70
1
  0
VERTEX
  8
51
 10
4.7416
 20
18.0566
 30
0.0000
  0
VERTEX
  8
51
 10
5.6916
 20
17.1066
 30
0.0000
 42
1.0000
  0
VERTEX
  8
51
 10
5.7624
 20
17.1774
 30
0.0000
  0
VERTEX
  8
51
 10
4.8124
 20
18.1274
 30
0.0000
 42
1.0000
  0
SEQEND
  8
0
  0
POLYLINE
  8
21
 66
1
 10
0.0000
 20
0.0000
 30
0.0000
 40
0.0000
 41
0.0000
 70
1
  0
VERTEX
  8
21
 10
5.6270
 20
17.5170
 30
0.0000
  0
VERTEX
  8
21
 10
5.6270
 20
17.1170
 30
0.0000
 42
1.0000
  0
VERTEX
  8
21
 10
5.8270
 20
17.1170
 30
0.0000
  0
VERTEX
  8
21
 10
5.8270
 20
17.5170
 30
0.0000
 42
1.0000
  0
SEQEND
  8
0
  0
POLYLINE
  8
21
 66
1
 10
0.0000
 20
0.0000
 30
0.0000
 40
0.0000
 41
0.0000
 70
1
  0
VERTEX
  8
21
 10
5.7270
 20
17.2170
 30
0.0000
  0
VERTEX
  8
21
 10
2.8270
 20
17.2170
 30
0.0000
 42
1.0000
  0
VERTEX
  8
21
 10
2.8270
 20
17.0170
 30
0.0000
  0
VERTEX
  8
21
 10
5.7270
 20
17.0170
 30
0.0000
 42
1.0000
  0
SEQEND
  8
0
  0
POLYLINE
  8
21
 66
1
 10
0.0000
 20
0.0000
 30
0.0000
 40
0.0000
 41
0.0000
 70
1
  0
VERTEX
  8
21
 10
2.9270
 20
17.1170
 30
0.0000
  0
VERTEX
  8
21
 10
2.9270
 20
17.5170
 30
0.0000
 42
1.0000
  0
VERTEX
  8
21
 10
2.7270
 20
17.5170
 30
0.0000
  0
VERTEX
  8
21
 10
2.7270
 20
17.1170
 30
0.0000
 42
1.0000
  0
SEQEND
  8
0
  0
POLYLINE
  8
21
 66
1
 10
0.0000
 20
0.0000
 30
0.0000
 40
0.0000
 41
0.0000
 70
1
  0
VERTEX
  8
21
 10
2.8270
 20
17.4170
 30
0.0000
  0
VERTEX
  8
21
 10
5.7270
 20
17.4170
 30
0.0000
 42
1.0000
  0
VERTEX
  8
21
 10
5.7270
 20
17.6170
 30
0.0000
  0
VERTEX
  8
21
 10
2.8270
 20
17.6170
 30
0.0000
 42
1.0000
  0
SEQEND
  8
0
  0
POLYLINE
  8
21
 66
1
 10
0.0000
 20
0.0000
 30
0.0000
 40
0.0000
 41
0.0000
 70
1
  0
VERTEX
  8
21
 10
5.6770
 20
19.2670
 30
0.0000
  0
VERTEX
  8
21
 10
5.6770
 20
17.8670
 30
0.0000
 42
1.0000
  0
VERTEX
  8
21
 10
5.8770
 20
17.8670
 30
0.0000
  0
VERTEX
  8
21
 10
5.8770
 20
19.2670
 30
0.0000
 42
1.0000
  0
SEQEND
  8
0
  0
POLYLINE
  8
25
 66
1
 10
0.0000
 20
0.0000
 30
0.0000
 40
0.0000
 41
0.0000
 70
1
  0
VERTEX
  8
25
 10
3.7332
 20
19.6436
 30
0.0000
  0
VERTEX
  8
25
 10
3.9790
 20
19.6436
 30
0.0000
 42
1.0000
  0
VERTEX
  8
25
 10
3.9790
 20
19.7198
 30
0.0000
  0
VERTEX
  8
25
 10
3.7332
 20
19.7198
 30
0.0000
 42
1.0000
  0
SEQEND
  8
0
  0
POLYLINE
  8
25
 66
1
 10
0.0000
 20
0.0000
 30
0.0000
 40
0.0000
 41
0.0000
 70
1
  0
VERTEX
  8
25
 10
3.8942
 20
19.6817
 30
0.0000
  0
VERTEX
  8
25
 10
3.8942
 20
20.4189
 30
0.0000
 42
1.0000
  0
VERTEX
  8
25
 10
3.8180
 20
20.4189
 30
0.0000
  0
VERTEX
  8
25
 10
3.8180
 20
19.6817
 30
0.0000
 42
1.0000
  0
SEQEND
  8
0
  0
POLYLINE
  8
25
 66
1
 10
0.0000
 20
0.0000
 30
0.0000
 40
0.0000
 41
0.0000
 70
1
  0
VERTEX
  8
25
 10
3.7332
 20
20.3808
 30
0.0000
  0
VERTEX
  8
25
 10
3.9790
 20
20.3808
 30
0.0000
 42
1.0000
  0
VERTEX
  8
25
 10
3.9790
 20
20.4570
 30
0.0000
  0
VERTEX
  8
25
 10
3.7332
 20
20.4570
 30
0.0000
 42
1.0000
  0
SEQEND
  8
0
  0
POLYLINE
  8
25
 66
1
 10
0.0000
 20
0.0000
 30
0.0000
 40
0.0000
 41
0.0000
 70
1
  0
VERTEX
  8
25
 10
4.7506
 20
20.3230
 30
0.0000
  0
VERTEX
  8
25
 10
4.6277
 20
20.4459
 30
0.0000
 42
1.0000
  0
VERTEX
  8
25
 10
4.5738
 20
20.3920
 30
0.0000
  0
VERTEX
  8
25
 10
4.6967
 20
20.2691
 30
0.0000
 42
1.0000
  0
SEQEND
  8
0
  0
POLYLINE
  8
25
 66
1
 10
0.0000
 20
0.0000
 30
0.0000
 40
0.0000
 41
0.0000
 70
1
  0
VERTEX
  8
25
 10
4.6008
 20
20.4570
 30
0.0000
  0
VERTEX
  8
25
 10
4.3550
 20
20.4570
 30
0.0000
 42
1.0000
  0
VERTEX
  8
25
 10
4.3550
 20
20.3808
 30
0.0000
  0
VERTEX
  8
25
 10
4.6008
 20
20.3808
 30
0.0000
 42
1.0000
  0
SEQEND
  8
0
  0
POLYLINE
  8
25
 66
1
 10
0.0000
 20
0.0000
 30
0.0000
 40
0.0000
 41
0.0000
 70
1
  0
VERTEX
  8
25
 10
4.3281
 20
20.4459
 30
0.0000
  0
VERTEX
  8
25
 10
4.2052
 20
20.3230
 30
0.0000
 42
1.0000
  0
VERTEX
  8
25
 10
4.2591
 20
20.2691
 30
0.0000
  0
VERTEX
  8
25
 10
4.3820
 20
20.3920
 30
0.0000
 42
1.0000
  0
SEQEND
  8
0
  0
POLYLINE
  8
25
 66
1
 10
0.0000
 20
0.0000
 30
0.0000
 40
0.0000
 41
0.0000
 70
1
  0
VERTEX
  8
25
 10
4.1941
 20
20.2961
 30
0.0000
  0
VERTEX
  8
25
 10
4.1941
 20
19.8046
 30
0.0000
 42
1.0000
  0
VERTEX
  8
25
 10
4.2703
 20
19.8046
 30
0.0000
  0
VERTEX
  8
25
 10
4.2703
 20
20.2961
 30
0.0000
 42
1.0000
  0
SEQEND
  8
0
  0
POLYLINE
  8
25
 66
1
 10
0.0000
 20
0.0000
 30
0.0000
 40
0.0000
 41
0.0000
 70
1
  0
VERTEX
  8
25
 10
4.2052
 20
19.7776
 30
0.0000
  0
VERTEX
  8
25
 10
4.3281
 20
19.6548
 30
0.0000
 42
1.0000
  0
VERTEX
  8
25
 10
4.3820
 20
19.7086
 30
0.0000
  0
VERTEX
  8
25
 10
4.2591
 20
19.8315
 30
0.0000
 42
1.0000
  0
SEQEND
  8
0
  0
POLYLINE
  8
25
 66
1
 10
0.0000
 20
0.0000
 30
0.0000
 40
0.0000
 41
0.0000
 70
1
  0
VERTEX
  8
25
 10
4.3550
 20
19.6436
 30
0.0000
  0
VERTEX
  8
25
 10
4.6008
 20
19.6436
 30
0.0000
 42
1.0000
  0
VERTEX
  8
25
 10
4.6008
 20
19.7198
 30
0.0000
  0
VERTEX
  8
25
 10
4.3550
 20
19.7198
 30
0.0000
 42
1.0000
  0
SEQEND
  8
0
  0
POLYLINE
  8
25
 66
1
 10
0.0000
 20
0.0000
 30
0.0000
 40
0.0000
 41
0.0000
 70
1
  0
VERTEX
  8
25
 10
4.6277
 20
19.6548
 30
0.0000
  0
VERTEX
  8
25
 10
4.7506
 20
19.7776
 30
0.0000
 42
1.0000
  0
VERTEX
  8
25
 10
4.6967
 20
19.8315
 30
0.0000
  0
VERTEX
  8
25
 10
4.5738
 20
19.7086
 30
0.0000
 42
1.0000
  0
SEQEND
  8
0
  0
POLYLINE
  8
25
 66
1
 10
0.0000
 20
0.0000
 30
0.0000
 40
0.0000
 41
0.0000
 70
1
  0
VERTEX
  8
25
 10
5.4550
 20
20.4530
 30
0.0000
  0
VERTEX
  8
25
 10
5.2093
 20
20.3301
 30
0.0000
 42
1.0000
  0
VERTEX
  8
25
 10
5.2434
 20
20.2620
 30
0.0000
  0
VERTEX
  8
25
 10
5.4891
 20
20.3849
 30
0.0000
 42
1.0000
  0
SEQEND
  8
0
  0
POLYLINE
  8
25
 66
1
 10
0.0000
 20
0.0000
 30
0.0000
 40
0.0000
 41
0.0000
 70
1
  0
VERTEX
  8
25
 10
5.1994
 20
20.3230
 30
0.0000
  0
VERTEX
  8
25
 10
4.9536
 20
20.0773
 30
0.0000
 42
1.0000
  0
VERTEX
  8
25
 10
5.0075
 20
20.0234
 30
0.0000
  0
VERTEX
  8
25
 10
5.2533
 20
20.2691
 30
0.0000
 42
1.0000
  0
SEQEND
  8
0
  0
POLYLINE
  8
25
 66
1
 10
0.0000
 20
0.0000
 30
0.0000
 40
0.0000
 41
0.0000
 70
1
  0
VERTEX
  8
25
 10
4.9425
 20
20.0503
 30
0.0000
  0
VERTEX
  8
25
 10
4.9425
 20
19.8046
 30
0.0000
 42
1.0000
  0
VERTEX
  8
25
 10
5.0187
 20
19.8046
 30
0.0000
  0
VERTEX
  8
25
 10
5.0187
 20
20.0503
 30
0.0000
 42
1.0000
  0
SEQEND
  8
0
  0
POLYLINE
  8
25
 66
1
 10
0.0000
 20
0.0000
 30
0.0000
 40
0.0000
 41
0.0000
 70
1
  0
VERTEX
  8
25
 10
4.9536
 20
19.7776
 30
0.0000
  0
VERTEX
  8
25
 10
5.0765
 20
19.6548
 30
0.0000
 42
1.0000
  0
VERTEX
  8
25
 10
5.1304
 20
19.7086
 30
0.0000
  0
VERTEX
  8
25
 10
5.0075
 20
19.8315
 30
0.0000
 42
1.0000
  0
SEQEND
  8
0
  0
POLYLINE
  8
25
 66
1
 10
0.0000
 20
0.0000
 30
0.0000
 40
0.0000
 41
0.0000
 70
1
  0
VERTEX
  8
25
 10
5.1034
 20
19.6436
 30
0.0000
  0
VERTEX
  8
25
 10
5.3492
 20
19.6436
 30
0.0000
 42
1.0000
  0
VERTEX
  8
25
 10
5.3492
 20
19.7198
 30
0.0000
  0
VERTEX
  8
25
 10
5.1034
 20
19.7198
 30
0.0000
 42
1.0000
  0
SEQEND
  8
0
  0
POLYLINE
  8
25
 66
1
 10
0.0000
 20
0.0000
 30
0.0000
 40
0.0000
 41
0.0000
 70
1
  0
VERTEX
  8
25
 10
5.3761
 20
19.6548
 30
0.0000
  0
VERTEX
  8
25
 10
5.4990
 20
19.7776
 30
0.0000
 42
1.0000
  0
VERTEX
  8
25
 10
5.4451
 20
19.8315
 30
0.0000
  0
VERTEX
  8
25
 10
5.3222
 20
19.7086
 30
0.0000
 42
1.0000
  0
SEQEND
  8
0
  0
POLYLINE
  8
25
 66
1
 10
0.0000
 20
0.0000
 30
0.0000
 40
0.0000
 41
0.0000
 70
1
  0
VERTEX
  8
25
 10
5.5102
 20
19.8046
 30
0.0000
  0
VERTEX
  8
25
 10
5.5102
 20
19.9274
 30
0.0000
 42
1.0000
  0
VERTEX
  8
25
 10
5.4340
 20
19.9274
 30
0.0000
  0
VERTEX
  8
25
 10
5.4340
 20
19.8046
 30
0.0000
 42
1.0000
  0
SEQEND
  8
0
  0
POLYLINE
  8
25
 66
1
 10
0.0000
 20
0.0000
 30
0.0000
 40
0.0000
 41
0.0000
 70
1
  0
VERTEX
  8
25
 10
5.4990
 20
19.9544
 30
0.0000
  0
VERTEX
  8
25
 10
5.3761
 20
20.0773
 30
0.0000
 42
1.0000
  0
VERTEX
  8
25
 10
5.3222
 20
20.0234
 30
0.0000
  0
VERTEX
  8
25
 10
5.4451
 20
19.9005
 30
0.0000
 42
1.0000
  0
SEQEND
  8
0
  0
POLYLINE
  8
25
 66
1
 10
0.0000
 20
0.0000
 30
0.0000
 40
0.0000
 41
0.0000
 70
1
  0
VERTEX
  8
25
 10
5.3492
 20
20.0884
 30
0.0000
  0
VERTEX
  8
25
 10
4.9806
 20
20.0884
 30
0.0000
 42
1.0000
  0
VERTEX
  8
25
 10
4.9806
 20
20.0122
 30
0.0000
  0
VERTEX
  8
25
 10
5.3492
 20
20.0122
 30
0.0000
 42
1.0000
  0
SEQEND
  8
0
  0
POLYLINE
  8
21
 66
1
 10
0.0000
 20
0.0000
 30
0.0000
 40
0.0000
 41
0.0000
 70
1
  0
VERTEX
  8
21
 10
13.6800
 20
0.8796
 30
0.0000
  0
VERTEX
  8
21
 10
0.7190
 20
0.8796
 30
0.0000
 42
1.0000
  0
VERTEX
  8
21
 10
0.7190
 20
0.6764
 30
0.0000
  0
VERTEX
  8
21
 10
13.6800
 20
0.6764
 30
0.0000
 42
1.0000
  0
SEQEND
  8
0
  0
POLYLINE
  8
21
 66
1
 10
0.0000
 20
0.0000
 30
0.0000
 40
0.0000
 41
0.0000
 70
1
  0
VERTEX
  8
21
 10
0.7190
 20
9.6764
 30
0.0000
  0
VERTEX
  8
21
 10
4.9360
 20
9.6764
 30
0.0000
 42
1.0000
  0
VERTEX
  8
21
 10
4.9360
 20
9.8796
 30
0.0000
  0
VERTEX
  8
21
 10
0.7190
 20
9.8796
 30
0.0000
 42
1.0000
  0
SEQEND
  8
0
  0
POLYLINE
  8
21
 66
1
 10
0.0000
 20
0.0000
 30
0.0000
 40
0.0000
 41
0.0000
 70
1
  0
VERTEX
  8
21
 10
4.9360
 20
9.6764
 30
0.0000
  0
VERTEX
  8
21
 10
9.3360
 20
9.6764
 30
0.0000
 42
1.0000
  0
VERTEX
  8
21
 10
9.3360
 20
9.8796
 30
0.0000
  0
VERTEX
  8
21
 10
4.9360
 20
9.8796
 30
0.0000
 42
1.0000
  0
SEQEND
  8
0
  0
POLYLINE
  8
21
 66
1
 10
0.0000
 20
0.0000
 30
0.0000
 40
0.0000
 41
0.0000
 70
1
  0
VERTEX
  8
21
 10
9.3360
 20
9.6764
 30
0.0000
  0
VERTEX
  8
21
 10
13.6800
 20
9.6764
 30
0.0000
 42
1.0000
  0
VERTEX
  8
21
 10
13.6800
 20
9.8796
 30
0.0000
  0
VERTEX
  8
21
 10
9.3360
 20
9.8796
 30
0.0000
 42
1.0000
  0
SEQEND
  8
0
  0
POLYLINE
  8
21
 66
1
 10
0.0000
 20
0.0000
 30
0.0000
 40
0.0000
 41
0.0000
 70
1
  0
VERTEX
  8
21
 10
13.5784
 20
9.7780
 30
0.0000
  0
VERTEX
  8
21
 10
13.5784
 20
0.8780
 30
0.0000
 42
1.0000
  0
VERTEX
  8
21
 10
13.7816
 20
0.8780
 30
0.0000
  0
VERTEX
  8
21
 10
13.7816
 20
9.7780
 30
0.0000
 42
1.0000
  0
SEQEND
  8
0
  0
POLYLINE
  8
21
 66
1
 10
0.0000
 20
0.0000
 30
0.0000
 40
0.0000
 41
0.0000
 70
1
  0
VERTEX
  8
21
 10
0.8206
 20
0.7780
 30
0.0000
  0
VERTEX
  8
21
 10
0.8206
 20
9.7780
 30
0.0000
 42
1.0000
  0
VERTEX
  8
21
 10
0.6174
 20
9.7780
 30
0.0000
  0
VERTEX
  8
21
 10
0.6174
 20
0.7780
 30
0.0000
 42
1.0000
  0
SEQEND
  8
0
  0
POLYLINE
  8
51
 66
1
 10
0.0000
 20
0.0000
 30
0.0000
 40
0.0000
 41
0.0000
 70
1
  0
VERTEX
  8
51
 10
12.6054
 20
8.6780
 30
0.0000
  0
VERTEX
  8
51
 10
12.6054
 20
1.8780
 30
0.0000
 42
1.0000
  0
VERTEX
  8
51
 10
12.8086
 20
1.8780
 30
0.0000
  0
VERTEX
  8
51
 10
12.8086
 20
8.6780
 30
0.0000
 42
1.0000
  0
SEQEND
  8
0
  0
POLYLINE
  8
51
 66
1
 10
0.0000
 20
0.0000
 30
0.0000
 40
0.0000
 41
0.0000
 70
1
  0
VERTEX
  8
51
 10
12.7070
 20
1.9796
 30
0.0000
  0
VERTEX
  8
51
 10
2.0730
 20
1.9796
 30
0.0000
 42
1.0000
  0
VERTEX
  8
51
 10
2.0730
 20
1.7764
 30
0.0000
  0
VERTEX
  8
51
 10
12.7070
 20
1.7764
 30
0.0000
 42
1.0000
  0
SEQEND
  8
0
  0
POLYLINE
  8
51
 66
1
 10
0.0000
 20
0.0000
 30
0.0000
 40
0.0000
 41
0.0000
 70
1
  0
VERTEX
  8
51
 10
1.9714
 20
8.6780
 30
0.0000
  0
VERTEX
  8
51
 10
1.9714
 20
1.8780
 30
0.0000
 42
1.0000
  0
VERTEX
  8
51
 10
2.1746
 20
1.8780
 30
0.0000
  0
VERTEX
  8
51
 10
2.1746
 20
8.6780
 30
0.0000
 42
1.0000
  0
SEQEND
  8
0
  0
POLYLINE
  8
21
 66
1
 10
0.0000
 20
0.0000
 30
0.0000
 40
0.0000
 41
0.0000
 70
1
  0
VERTEX
  8
21
 10
9.2344
 20
9.7780
 30
0.0000
  0
VERTEX
  8
21
 10
9.2344
 20
8.2780
 30
0.0000
 42
1.0000
  0
VERTEX
  8
21
 10
9.4376
 20
8.2780
 30
0.0000
  0
VERTEX
  8
21
 10
9.4376
 20
9.7780
 30
0.0000
 42
1.0000
  0
SEQEND
  8
0
  0
POLYLINE
  8
21
 66
1
 10
0.0000
 20
0.0000
 30
0.0000
 40
0.0000
 41
0.0000
 70
1
  0
VERTEX
  8
21
 10
9.3360
 20
8.3796
 30
0.0000
  0
VERTEX
  8
21
 10
4.9360
 20
8.3796
 30
0.0000
 42
1.0000
  0
VERTEX
  8
21
 10
4.9360
 20
8.1764
 30
0.0000
  0
VERTEX
  8
21
 10
9.3360
 20
8.1764
 30
0.0000
 42
1.0000
  0
SEQEND
  8
0
  0
POLYLINE
  8
21
 66
1
 10
0.0000
 20
0.0000
 30
0.0000
 40
0.0000
 41
0.0000
 70
1
  0
VERTEX
  8
21
 10
5.0376
 20
8.2780
 30
0.0000
  0
VERTEX
  8
21
 10
5.0376
 20
9.7780
 30
0.0000
 42
1.0000
  0
VERTEX
  8
21
 10
4.8344
 20
9.7780
 30
0.0000
  0
VERTEX
  8
21
 10
4.8344
 20
8.2780
 30
0.0000
 42
1.0000
  0
SEQEND
  8
0
  0
POLYLINE
  8
51
 66
1
 10
0.0000
 20
0.0000
 30
0.0000
 40
0.0000
 41
0.0000
 70
1
  0
VERTEX
  8
51
 10
12.7070
 20
8.7796
 30
0.0000
  0
VERTEX
  8
51
 10
9.3360
 20
8.7796
 30
0.0000
 42
1.0000
  0
VERTEX
  8
51
 10
9.3360
 20
8.5764
 30
0.0000
  0
VERTEX
  8
51
 10
12.7070
 20
8.5764
 30
0.0000
 42
1.0000
  0
SEQEND
  8
0
  0
POLYLINE
  8
51
 66
1
 10
0.0000
 20
0.0000
 30
0.0000
 40
0.0000
 41
0.0000
 70
1
  0
VERTEX
  8
51
 10
2.0730
 20
8.5764
 30
0.0000
  0
VERTEX
  8
51
 10
4.9360
 20
8.5764
 30
0.0000
 42
1.0000
  0
VERTEX
  8
51
 10
4.9360
 20
8.7796
 30
0.0000
  0
VERTEX
  8
51
 10
2.0730
 20
8.7796
 30
0.0000
 42
1.0000
  0
SEQEND
  8
0
  0
POLYLINE
  8
21
 66
1
 10
0.0000
 20
0.0000
 30
0.0000
 40
0.0000
 41
0.0000
 70
1
  0
VERTEX
  8
21
 10
10.3110
 20
8.0276
 30
0.0000
  0
VERTEX
  8
21
 10
9.0410
 20
8.0276
 30
0.0000
 42
1.0000
  0
VERTEX
  8
21
 10
9.0410
 20
7.8244
 30
0.0000
  0
VERTEX
  8
21
 10
10.3110
 20
7.8244
 30
0.0000
 42
1.0000
  0
SEQEND
  8
0
  0
POLYLINE
  8
22
 66
1
 10
0.0000
 20
0.0000
 30
0.0000
 40
0.0000
 41
0.0000
 70
1
  0
VERTEX
  8
22
 10
10.3110
 20
8.0656
 30
0.0000
  0
VERTEX
  8
22
 10
9.0410
 20
8.0656
 30
0.0000
 42
1.0000
  0
VERTEX
  8
22
 10
9.0410
 20
7.8624
 30
0.0000
  0
VERTEX
  8
22
 10
10.3110
 20
7.8624
 30
0.0000
 42
1.0000
  0
SEQEND
  8
0
  0
INSERT
  8
51
  2
RECT
 10
9.6760
 20
4.0080
 30
0.0000
 41
0.5080
 42
0.5080
 43
1.0000
 50
270.0000
  0
INSERT
  8
51
  2
RECT
 10
9.6760
 20
6.5480
 30
0.0000
 41
0.5080
 42
0.5080
 43
1.0000
 50
270.0000
  0
INSERT
  8
51
  2
RECT
 10
7.1360
 20
4.0080
 30
0.0000
 41
0.5080
 42
0.5080
 43
1.0000
 50
270.0000
  0
INSERT
  8
51
  2
RECT
 10
7.1360
 20
6.5480
 30
0.0000
 41
0.5080
 42
0.5080
 43
1.0000
 50
270.0000
  0
INSERT
  8
51
  2
RECT
 10
4.5960
 20
4.0080
 30
0.0000
 41
0.5080
 42
0.5080
 43
1.0000
 50
270.0000
  0
INSERT
  8
51
  2
RECT
 10
4.5960
 20
6.5480
 30
0.0000
 41
0.5080
 42
0.5080
 43
1.0000
 50
270.0000
  0
INSERT
  8
51
  2
RECT
 10
4.5960
 20
6.5480
 30
0.0000
 41
0.5080
 42
0.5080
 43
1.0000
 50
270.0000
  0
INSERT
  8
51
  2
RECT
 10
4.5960
 20
4.0080
 30
0.0000
 41
0.5080
 42
0.5080
 43
1.0000
 50
270.0000
  0
INSERT
  8
17
  2
SQUAREP
 10
9.6760
 20
6.5480
 30
0.0000
 41
1.8796
 42
1.8796
 43
1.0000
 50
180.0000
  0
INSERT
  8
17
  2
SQUAREP
 10
9.6760
 20
6.5480
 30
0.0000
 41
1.8796
 42
1.8796
 43
1.0000
 50
180.0000
  0
INSERT
  8
17
  2
ROUNDP
 10
9.6760
 20
4.0080
 30
0.0000
 41
1.8796
 42
1.8796
 43
1.0000
 50
180.0000
  0
INSERT
  8
17
  2
ROUNDP
 10
9.6760
 20
4.0080
 30
0.0000
 41
1.8796
 42
1.8796
 43
1.0000
 50
180.0000
  0
INSERT
  8
17
  2
ROUNDP
 10
7.1360
 20
6.5480
 30
0.0000
 41
1.8796
 42
1.8796
 43
1.0000
 50
180.0000
  0
INSERT
  8
17
  2
ROUNDP
 10
7.1360
 20
6.5480
 30
0.0000
 41
1.8796
 42
1.8796
 43
1.0000
 50
180.0000
  0
INSERT
  8
17
  2
ROUNDP
 10
7.1360
 20
4.0080
 30
0.0000
 41
1.8796
 42
1.8796
 43
1.0000
 50
180.0000
  0
INSERT
  8
17
  2
ROUNDP
 10
7.1360
 20
4.0080
 30
0.0000
 41
1.8796
 42
1.8796
 43
1.0000
 50
180.0000
  0
INSERT
  8
17
  2
ROUNDP
 10
4.5960
 20
6.5480
 30
0.0000
 41
1.8796
 42
1.8796
 43
1.0000
 50
180.0000
  0
INSERT
  8
17
  2
ROUNDP
 10
4.5960
 20
6.5480
 30
0.0000
 41
1.8796
 42
1.8796
 43
1.0000
 50
180.0000
  0
INSERT
  8
17
  2
ROUNDP
 10
4.5960
 20
4.0080
 30
0.0000
 41
1.8796
 42
1.8796
 43
1.0000
 50
180.0000
  0
INSERT
  8
17
  2
ROUNDP
 10
4.5960
 20
4.0080
 30
0.0000
 41
1.8796
 42
1.8796
 43
1.0000
 50
180.0000
  0
POLYLINE
  8
25
 66
1
 10
0.0000
 20
0.0000
 30
0.0000
 40
0.0000
 41
0.0000
 70
1
  0
VERTEX
  8
25
 10
2.2803
 20
2.2535
 30
0.0000
  0
VERTEX
  8
25
 10
2.3905
 20
2.1433
 30
0.0000
 42
1.0000
  0
VERTEX
  8
25
 10
2.4982
 20
2.2511
 30
0.0000
  0
VERTEX
  8
25
 10
2.3881
 20
2.3612
 30
0.0000
 42
1.0000
  0
SEQEND
  8
0
  0
POLYLINE
  8
25
 66
1
 10
0.0000
 20
0.0000
 30
0.0000
 40
0.0000
 41
0.0000
 70
1
  0
VERTEX
  8
25
 10
2.4444
 20
2.1210
 30
0.0000
  0
VERTEX
  8
25
 10
2.5545
 20
2.1210
 30
0.0000
 42
1.0000
  0
VERTEX
  8
25
 10
2.5545
 20
2.2734
 30
0.0000
  0
VERTEX
  8
25
 10
2.4444
 20
2.2734
 30
0.0000
 42
1.0000
  0
SEQEND
  8
0
  0
POLYLINE
  8
25
 66
1
 10
0.0000
 20
0.0000
 30
0.0000
 40
0.0000
 41
0.0000
 70
1
  0
VERTEX
  8
25
 10
2.6084
 20
2.1433
 30
0.0000
  0
VERTEX
  8
25
 10
2.7186
 20
2.2535
 30
0.0000
 42
1.0000
  0
VERTEX
  8
25
 10
2.6108
 20
2.3612
 30
0.0000
  0
VERTEX
  8
25
 10
2.5006
 20
2.2511
 30
0.0000
 42
1.0000
  0
SEQEND
  8
0
  0
POLYLINE
  8
25
 66
1
 10
0.0000
 20
0.0000
 30
0.0000
 40
0.0000
 41
0.0000
 70
1
  0
VERTEX
  8
25
 10
2.7409
 20
2.3074
 30
0.0000
  0
VERTEX
  8
25
 10
2.7409
 20
2.8582
 30
0.0000
 42
1.0000
  0
VERTEX
  8
25
 10
2.5885
 20
2.8582
 30
0.0000
  0
VERTEX
  8
25
 10
2.5885
 20
2.3074
 30
0.0000
 42
1.0000
  0
SEQEND
  8
0
  0
POLYLINE
  8
25
 66
1
 10
0.0000
 20
0.0000
 30
0.0000
 40
0.0000
 41
0.0000
 70
1
  0
VERTEX
  8
25
 10
2.5545
 20
2.7820
 30
0.0000
  0
VERTEX
  8
25
 10
2.7748
 20
2.7820
 30
0.0000
 42
1.0000
  0
VERTEX
  8
25
 10
2.7748
 20
2.9344
 30
0.0000
  0
VERTEX
  8
25
 10
2.5545
 20
2.9344
 30
0.0000
 42
1.0000
  0
SEQEND
  8
0
  0
POLYLINE
  8
25
 66
1
 10
0.0000
 20
0.0000
 30
0.0000
 40
0.0000
 41
0.0000
 70
1
  0
VERTEX
  8
25
 10
3.1365
 20
2.5840
 30
0.0000
  0
VERTEX
  8
25
 10
3.3568
 20
2.8043
 30
0.0000
 42
1.0000
  0
VERTEX
  8
25
 10
3.2491
 20
2.9120
 30
0.0000
  0
VERTEX
  8
25
 10
3.0287
 20
2.6917
 30
0.0000
 42
1.0000
  0
SEQEND
  8
0
  0
POLYLINE
  8
25
 66
1
 10
0.0000
 20
0.0000
 30
0.0000
 40
0.0000
 41
0.0000
 70
1
  0
VERTEX
  8
25
 10
3.2267
 20
2.8582
 30
0.0000
  0
VERTEX
  8
25
 10
3.2267
 20
2.1972
 30
0.0000
 42
1.0000
  0
VERTEX
  8
25
 10
3.3791
 20
2.1972
 30
0.0000
  0
VERTEX
  8
25
 10
3.3791
 20
2.8582
 30
0.0000
 42
1.0000
  0
SEQEND
  8
0
  0
POLYLINE
  8
25
 66
1
 10
0.0000
 20
0.0000
 30
0.0000
 40
0.0000
 41
0.0000
 70
1
  0
VERTEX
  8
25
 10
3.0826
 20
2.1210
 30
0.0000
  0
VERTEX
  8
25
 10
3.5233
 20
2.1210
 30
0.0000
 42
1.0000
  0
VERTEX
  8
25
 10
3.5233
 20
2.2734
 30
0.0000
  0
VERTEX
  8
25
 10
3.0826
 20
2.2734
 30
0.0000
 42
1.0000
  0
SEQEND
  8
0
  0
POLYLINE
  8
51
 66
1
 10
0.0000
 20
0.0000
 30
0.0000
 40
0.0000
 41
0.0000
 70
1
  0
VERTEX
  8
51
 10
17.1002
 20
16.5554
 30
0.0000
  0
VERTEX
  8
51
 10
17.1002
 20
15.2346
 30
0.0000
 42
1.0000
  0
VERTEX
  8
51
 10
17.2526
 20
15.2346
 30
0.0000
  0
VERTEX
  8
51
 10
17.2526
 20
16.5554
 30
0.0000
 42
1.0000
  0
SEQEND
  8
0
  0
POLYLINE
  8
51
 66
1
 10
0.0000
 20
0.0000
 30
0.0000
 40
0.0000
 41
0.0000
 70
1
  0
VERTEX
  8
51
 10
17.1764
 20
15.3108
 30
0.0000
  0
VERTEX
  8
51
 10
14.3316
 20
15.3108
 30
0.0000
 42
1.0000
  0
VERTEX
  8
51
 10
14.3316
 20
15.1584
 30
0.0000
  0
VERTEX
  8
51
 10
17.1764
 20
15.1584
 30
0.0000
 42
1.0000
  0
SEQEND
  8
0
  0
POLYLINE
  8
51
 66
1
 10
0.0000
 20
0.0000
 30
0.0000
 40
0.0000
 41
0.0000
 70
1
  0
VERTEX
  8
51
 10
14.4078
 20
15.2346
 30
0.0000
  0
VERTEX
  8
51
 10
14.4078
 20
16.5554
 30
0.0000
 42
1.0000
  0
VERTEX
  8
51
 10
14.2554
 20
16.5554
 30
0.0000
  0
VERTEX
  8
51
 10
14.2554
 20
15.2346
 30
0.0000
 42
1.0000
  0
SEQEND
  8
0
  0
POLYLINE
  8
51
 66
1
 10
0.0000
 20
0.0000
 30
0.0000
 40
0.0000
 41
0.0000
 70
1
  0
VERTEX
  8
51
 10
14.3316
 20
16.4792
 30
0.0000
  0
VERTEX
  8
51
 10
17.1764
 20
16.4792
 30
0.0000
 42
1.0000
  0
VERTEX
  8
51
 10
17.1764
 20
16.6316
 30
0.0000
  0
VERTEX
  8
51
 10
14.3316
 20
16.6316
 30
0.0000
 42
1.0000
  0
SEQEND
  8
0
  0
INSERT
  8
51
  2
RECT
 10
15.7540
 20
16.8983
 30
0.0000
 41
0.4572
 42
0.5842
 43
1.0000
 50
0.0000
  0
INSERT
  8
51
  2
RECT
 10
16.6938
 20
14.8917
 30
0.0000
 41
0.4572
 42
0.5842
 43
1.0000
 50
0.0000
  0
INSERT
  8
51
  2
RECT
 10
14.8142
 20
14.8917
 30
0.0000
 41
0.4572
 42
0.5842
 43
1.0000
 50
0.0000
  0
POLYLINE
  8
25
 66
1
 10
0.0000
 20
0.0000
 30
0.0000
 40
0.0000
 41
0.0000
 70
1
  0
VERTEX
  8
25
 10
13.7332
 20
17.0690
 30
0.0000
  0
VERTEX
  8
25
 10
13.7332
 20
17.5605
 30
0.0000
 42
1.0000
  0
VERTEX
  8
25
 10
13.6570
 20
17.5605
 30
0.0000
  0
VERTEX
  8
25
 10
13.6570
 20
17.0690
 30
0.0000
 42
1.0000
  0
SEQEND
  8
0
  0
POLYLINE
  8
25
 66
1
 10
0.0000
 20
0.0000
 30
0.0000
 40
0.0000
 41
0.0000
 70
1
  0
VERTEX
  8
25
 10
13.7220
 20
17.5335
 30
0.0000
  0
VERTEX
  8
25
 10
13.8449
 20
17.6564
 30
0.0000
 42
1.0000
  0
VERTEX
  8
25
 10
13.7910
 20
17.7103
 30
0.0000
  0
VERTEX
  8
25
 10
13.6682
 20
17.5874
 30
0.0000
 42
1.0000
  0
SEQEND
  8
0
  0
POLYLINE
  8
25
 66
1
 10
0.0000
 20
0.0000
 30
0.0000
 40
0.0000
 41
0.0000
 70
1
  0
VERTEX
  8
25
 10
13.8180
 20
17.6452
 30
0.0000
  0
VERTEX
  8
25
 10
14.0637
 20
17.6452
 30
0.0000
 42
1.0000
  0
VERTEX
  8
25
 10
14.0637
 20
17.7214
 30
0.0000
  0
VERTEX
  8
25
 10
13.8180
 20
17.7214
 30
0.0000
 42
1.0000
  0
SEQEND
  8
0
  0
POLYLINE
  8
25
 66
1
 10
0.0000
 20
0.0000
 30
0.0000
 40
0.0000
 41
0.0000
 70
1
  0
VERTEX
  8
25
 10
14.0368
 20
17.6564
 30
0.0000
  0
VERTEX
  8
25
 10
14.1596
 20
17.5335
 30
0.0000
 42
1.0000
  0
VERTEX
  8
25
 10
14.2135
 20
17.5874
 30
0.0000
  0
VERTEX
  8
25
 10
14.0907
 20
17.7103
 30
0.0000
 42
1.0000
  0
SEQEND
  8
0
  0
POLYLINE
  8
25
 66
1
 10
0.0000
 20
0.0000
 30
0.0000
 40
0.0000
 41
0.0000
 70
1
  0
VERTEX
  8
25
 10
14.1485
 20
17.5605
 30
0.0000
  0
VERTEX
  8
25
 10
14.1485
 20
17.0690
 30
0.0000
 42
1.0000
  0
VERTEX
  8
25
 10
14.2247
 20
17.0690
 30
0.0000
  0
VERTEX
  8
25
 10
14.2247
 20
17.5605
 30
0.0000
 42
1.0000
  0
SEQEND
  8
0
  0
POLYLINE
  8
25
 66
1
 10
0.0000
 20
0.0000
 30
0.0000
 40
0.0000
 41
0.0000
 70
1
  0
VERTEX
  8
25
 10
14.1596
 20
17.0959
 30
0.0000
  0
VERTEX
  8
25
 10
14.0368
 20
16.9730
 30
0.0000
 42
1.0000
  0
VERTEX
  8
25
 10
14.0907
 20
16.9192
 30
0.0000
  0
VERTEX
  8
25
 10
14.2135
 20
17.0420
 30
0.0000
 42
1.0000
  0
SEQEND
  8
0
  0
POLYLINE
  8
25
 66
1
 10
0.0000
 20
0.0000
 30
0.0000
 40
0.0000
 41
0.0000
 70
1
  0
VERTEX
  8
25
 10
14.0637
 20
16.9842
 30
0.0000
  0
VERTEX
  8
25
 10
13.8180
 20
16.9842
 30
0.0000
 42
1.0000
  0
VERTEX
  8
25
 10
13.8180
 20
16.9080
 30
0.0000
  0
VERTEX
  8
25
 10
14.0637
 20
16.9080
 30
0.0000
 42
1.0000
  0
SEQEND
  8
0
  0
POLYLINE
  8
25
 66
1
 10
0.0000
 20
0.0000
 30
0.0000
 40
0.0000
 41
0.0000
 70
1
  0
VERTEX
  8
25
 10
13.8449
 20
16.9730
 30
0.0000
  0
VERTEX
  8
25
 10
13.7220
 20
17.0959
 30
0.0000
 42
1.0000
  0
VERTEX
  8
25
 10
13.6682
 20
17.0420
 30
0.0000
  0
VERTEX
  8
25
 10
13.7910
 20
16.9192
 30
0.0000
 42
1.0000
  0
SEQEND
  8
0
  0
POLYLINE
  8
25
 66
1
 10
0.0000
 20
0.0000
 30
0.0000
 40
0.0000
 41
0.0000
 70
1
  0
VERTEX
  8
25
 10
13.9139
 20
17.1649
 30
0.0000
  0
VERTEX
  8
25
 10
14.1596
 20
16.9192
 30
0.0000
 42
1.0000
  0
VERTEX
  8
25
 10
14.2135
 20
16.9730
 30
0.0000
  0
VERTEX
  8
25
 10
13.9678
 20
17.2188
 30
0.0000
 42
1.0000
  0
SEQEND
  8
0
  0
POLYLINE
  8
25
 66
1
 10
0.0000
 20
0.0000
 30
0.0000
 40
0.0000
 41
0.0000
 70
1
  0
VERTEX
  8
25
 10
14.4705
 20
17.5335
 30
0.0000
  0
VERTEX
  8
25
 10
14.5933
 20
17.6564
 30
0.0000
 42
1.0000
  0
VERTEX
  8
25
 10
14.5394
 20
17.7103
 30
0.0000
  0
VERTEX
  8
25
 10
14.4166
 20
17.5874
 30
0.0000
 42
1.0000
  0
SEQEND
  8
0
  0
POLYLINE
  8
25
 66
1
 10
0.0000
 20
0.0000
 30
0.0000
 40
0.0000
 41
0.0000
 70
1
  0
VERTEX
  8
25
 10
14.5664
 20
17.6452
 30
0.0000
  0
VERTEX
  8
25
 10
14.8121
 20
17.6452
 30
0.0000
 42
1.0000
  0
VERTEX
  8
25
 10
14.8121
 20
17.7214
 30
0.0000
  0
VERTEX
  8
25
 10
14.5664
 20
17.7214
 30
0.0000
 42
1.0000
  0
SEQEND
  8
0
  0
POLYLINE
  8
25
 66
1
 10
0.0000
 20
0.0000
 30
0.0000
 40
0.0000
 41
0.0000
 70
1
  0
VERTEX
  8
25
 10
14.7852
 20
17.6564
 30
0.0000
  0
VERTEX
  8
25
 10
14.9081
 20
17.5335
 30
0.0000
 42
1.0000
  0
VERTEX
  8
25
 10
14.9619
 20
17.5874
 30
0.0000
  0
VERTEX
  8
25
 10
14.8391
 20
17.7103
 30
0.0000
 42
1.0000
  0
SEQEND
  8
0
  0
POLYLINE
  8
25
 66
1
 10
0.0000
 20
0.0000
 30
0.0000
 40
0.0000
 41
0.0000
 70
1
  0
VERTEX
  8
25
 10
14.8969
 20
17.5605
 30
0.0000
  0
VERTEX
  8
25
 10
14.8969
 20
17.4376
 30
0.0000
 42
1.0000
  0
VERTEX
  8
25
 10
14.9731
 20
17.4376
 30
0.0000
  0
VERTEX
  8
25
 10
14.9731
 20
17.5605
 30
0.0000
 42
1.0000
  0
SEQEND
  8
0
  0
POLYLINE
  8
25
 66
1
 10
0.0000
 20
0.0000
 30
0.0000
 40
0.0000
 41
0.0000
 70
1
  0
VERTEX
  8
25
 10
14.9081
 20
17.4645
 30
0.0000
  0
VERTEX
  8
25
 10
14.7852
 20
17.3417
 30
0.0000
 42
1.0000
  0
VERTEX
  8
25
 10
14.8391
 20
17.2878
 30
0.0000
  0
VERTEX
  8
25
 10
14.9619
 20
17.4106
 30
0.0000
 42
1.0000
  0
SEQEND
  8
0
  0
POLYLINE
  8
25
 66
1
 10
0.0000
 20
0.0000
 30
0.0000
 40
0.0000
 41
0.0000
 70
1
  0
VERTEX
  8
25
 10
14.8121
 20
17.3528
 30
0.0000
  0
VERTEX
  8
25
 10
14.6893
 20
17.3528
 30
0.0000
 42
1.0000
  0
VERTEX
  8
25
 10
14.6893
 20
17.2766
 30
0.0000
  0
VERTEX
  8
25
 10
14.8121
 20
17.2766
 30
0.0000
 42
1.0000
  0
SEQEND
  8
0
  0
POLYLINE
  8
25
 66
1
 10
0.0000
 20
0.0000
 30
0.0000
 40
0.0000
 41
0.0000
 70
1
  0
VERTEX
  8
25
 10
14.7852
 20
17.2878
 30
0.0000
  0
VERTEX
  8
25
 10
14.9081
 20
17.1649
 30
0.0000
 42
1.0000
  0
VERTEX
  8
25
 10
14.9619
 20
17.2188
 30
0.0000
  0
VERTEX
  8
25
 10
14.8391
 20
17.3417
 30
0.0000
 42
1.0000
  0
SEQEND
  8
0
  0
POLYLINE
  8
25
 66
1
 10
0.0000
 20
0.0000
 30
0.0000
 40
0.0000
 41
0.0000
 70
1
  0
VERTEX
  8
25
 10
14.8969
 20
17.1918
 30
0.0000
  0
VERTEX
  8
25
 10
14.8969
 20
17.0690
 30
0.0000
 42
1.0000
  0
VERTEX
  8
25
 10
14.9731
 20
17.0690
 30
0.0000
  0
VERTEX
  8
25
 10
14.9731
 20
17.1918
 30
0.0000
 42
1.0000
  0
SEQEND
  8
0
  0
POLYLINE
  8
25
 66
1
 10
0.0000
 20
0.0000
 30
0.0000
 40
0.0000
 41
0.0000
 70
1
  0
VERTEX
  8
25
 10
14.9081
 20
17.0959
 30
0.0000
  0
VERTEX
  8
25
 10
14.7852
 20
16.9730
 30
0.0000
 42
1.0000
  0
VERTEX
  8
25
 10
14.8391
 20
16.9192
 30
0.0000
  0
VERTEX
  8
25
 10
14.9619
 20
17.0420
 30
0.0000
 42
1.0000
  0
SEQEND
  8
0
  0
POLYLINE
  8
25
 66
1
 10
0.0000
 20
0.0000
 30
0.0000
 40
0.0000
 41
0.0000
 70
1
  0
VERTEX
  8
25
 10
14.8121
 20
16.9842
 30
0.0000
  0
VERTEX
  8
25
 10
14.5664
 20
16.9842
 30
0.0000
 42
1.0000
  0
VERTEX
  8
25
 10
14.5664
 20
16.9080
 30
0.0000
  0
VERTEX
  8
25
 10
14.8121
 20
16.9080
 30
0.0000
 42
1.0000
  0
SEQEND
  8
0
  0
POLYLINE
  8
25
 66
1
 10
0.0000
 20
0.0000
 30
0.0000
 40
0.0000
 41
0.0000
 70
1
  0
VERTEX
  8
25
 10
14.5933
 20
16.9730
 30
0.0000
  0
VERTEX
  8
25
 10
14.4705
 20
17.0959
 30
0.0000
 42
1.0000
  0
VERTEX
  8
25
 10
14.4166
 20
17.0420
 30
0.0000
  0
VERTEX
  8
25
 10
14.5394
 20
16.9192
 30
0.0000
 42
1.0000
  0
SEQEND
  8
0
  0
POLYLINE
  8
51
 66
1
 10
0.0000
 20
0.0000
 30
0.0000
 40
0.0000
 41
0.0000
 70
1
  0
VERTEX
  8
51
 10
7.1700
 20
21.7452
 30
0.0000
  0
VERTEX
  8
51
 10
6.3060
 20
21.7452
 30
0.0000
 42
1.0000
  0
VERTEX
  8
51
 10
6.3060
 20
21.5928
 30
0.0000
  0
VERTEX
  8
51
 10
7.1700
 20
21.5928
 30
0.0000
 42
1.0000
  0
SEQEND
  8
0
  0
POLYLINE
  8
51
 66
1
 10
0.0000
 20
0.0000
 30
0.0000
 40
0.0000
 41
0.0000
 70
1
  0
VERTEX
  8
51
 10
6.3060
 20
20.8808
 30
0.0000
  0
VERTEX
  8
51
 10
7.1700
 20
20.8808
 30
0.0000
 42
1.0000
  0
VERTEX
  8
51
 10
7.1700
 20
21.0332
 30
0.0000
  0
VERTEX
  8
51
 10
6.3060
 20
21.0332
 30
0.0000
 42
1.0000
  0
SEQEND
  8
0
  0
INSERT
  8
51
  2
RECT
 10
6.1030
 20
21.3130
 30
0.0000
 41
0.4064
 42
0.8636
 43
1.0000
 50
180.0000
  0
INSERT
  8
51
  2
RECT
 10
7.3730
 20
21.3130
 30
0.0000
 41
0.4064
 42
0.8636
 43
1.0000
 50
180.0000
  0
POLYLINE
  8
25
 66
1
 10
0.0000
 20
0.0000
 30
0.0000
 40
0.0000
 41
0.0000
 70
1
  0
VERTEX
  8
25
 10
5.9524
 20
19.9033
 30
0.0000
  0
VERTEX
  8
25
 10
5.9524
 20
20.6405
 30
0.0000
 42
1.0000
  0
VERTEX
  8
25
 10
5.8762
 20
20.6405
 30
0.0000
  0
VERTEX
  8
25
 10
5.8762
 20
19.9033
 30
0.0000
 42
1.0000
  0
SEQEND
  8
0
  0
POLYLINE
  8
25
 66
1
 10
0.0000
 20
0.0000
 30
0.0000
 40
0.0000
 41
0.0000
 70
1
  0
VERTEX
  8
25
 10
5.9143
 20
20.6024
 30
0.0000
  0
VERTEX
  8
25
 10
6.2829
 20
20.6024
 30
0.0000
 42
1.0000
  0
VERTEX
  8
25
 10
6.2829
 20
20.6786
 30
0.0000
  0
VERTEX
  8
25
 10
5.9143
 20
20.6786
 30
0.0000
 42
1.0000
  0
SEQEND
  8
0
  0
POLYLINE
  8
25
 66
1
 10
0.0000
 20
0.0000
 30
0.0000
 40
0.0000
 41
0.0000
 70
1
  0
VERTEX
  8
25
 10
6.2559
 20
20.6136
 30
0.0000
  0
VERTEX
  8
25
 10
6.3788
 20
20.4907
 30
0.0000
 42
1.0000
  0
VERTEX
  8
25
 10
6.4327
 20
20.5446
 30
0.0000
  0
VERTEX
  8
25
 10
6.3098
 20
20.6675
 30
0.0000
 42
1.0000
  0
SEQEND
  8
0
  0
POLYLINE
  8
25
 66
1
 10
0.0000
 20
0.0000
 30
0.0000
 40
0.0000
 41
0.0000
 70
1
  0
VERTEX
  8
25
 10
6.3677
 20
20.5177
 30
0.0000
  0
VERTEX
  8
25
 10
6.3677
 20
20.2719
 30
0.0000
 42
1.0000
  0
VERTEX
  8
25
 10
6.4439
 20
20.2719
 30
0.0000
  0
VERTEX
  8
25
 10
6.4439
 20
20.5177
 30
0.0000
 42
1.0000
  0
SEQEND
  8
0
  0
POLYLINE
  8
25
 66
1
 10
0.0000
 20
0.0000
 30
0.0000
 40
0.0000
 41
0.0000
 70
1
  0
VERTEX
  8
25
 10
6.3788
 20
20.2989
 30
0.0000
  0
VERTEX
  8
25
 10
6.2559
 20
20.1760
 30
0.0000
 42
1.0000
  0
VERTEX
  8
25
 10
6.3098
 20
20.1221
 30
0.0000
  0
VERTEX
  8
25
 10
6.4327
 20
20.2450
 30
0.0000
 42
1.0000
  0
SEQEND
  8
0
  0
POLYLINE
  8
25
 66
1
 10
0.0000
 20
0.0000
 30
0.0000
 40
0.0000
 41
0.0000
 70
1
  0
VERTEX
  8
25
 10
6.2829
 20
20.1871
 30
0.0000
  0
VERTEX
  8
25
 10
5.9143
 20
20.1871
 30
0.0000
 42
1.0000
  0
VERTEX
  8
25
 10
5.9143
 20
20.1109
 30
0.0000
  0
VERTEX
  8
25
 10
6.2829
 20
20.1109
 30
0.0000
 42
1.0000
  0
SEQEND
  8
0
  0
POLYLINE
  8
25
 66
1
 10
0.0000
 20
0.0000
 30
0.0000
 40
0.0000
 41
0.0000
 70
1
  0
VERTEX
  8
25
 10
6.1331
 20
20.1221
 30
0.0000
  0
VERTEX
  8
25
 10
6.3788
 20
19.8764
 30
0.0000
 42
1.0000
  0
VERTEX
  8
25
 10
6.4327
 20
19.9302
 30
0.0000
  0
VERTEX
  8
25
 10
6.1869
 20
20.1760
 30
0.0000
 42
1.0000
  0
SEQEND
  8
0
  0
POLYLINE
  8
25
 66
1
 10
0.0000
 20
0.0000
 30
0.0000
 40
0.0000
 41
0.0000
 70
1
  0
VERTEX
  8
25
 10
6.6896
 20
20.3678
 30
0.0000
  0
VERTEX
  8
25
 10
6.9354
 20
20.6136
 30
0.0000
 42
1.0000
  0
VERTEX
  8
25
 10
6.8815
 20
20.6675
 30
0.0000
  0
VERTEX
  8
25
 10
6.6357
 20
20.4217
 30
0.0000
 42
1.0000
  0
SEQEND
  8
0
  0
POLYLINE
  8
25
 66
1
 10
0.0000
 20
0.0000
 30
0.0000
 40
0.0000
 41
0.0000
 70
1
  0
VERTEX
  8
25
 10
6.8703
 20
20.6405
 30
0.0000
  0
VERTEX
  8
25
 10
6.8703
 20
19.9033
 30
0.0000
 42
1.0000
  0
VERTEX
  8
25
 10
6.9465
 20
19.9033
 30
0.0000
  0
VERTEX
  8
25
 10
6.9465
 20
20.6405
 30
0.0000
 42
1.0000
  0
SEQEND
  8
0
  0
POLYLINE
  8
25
 66
1
 10
0.0000
 20
0.0000
 30
0.0000
 40
0.0000
 41
0.0000
 70
1
  0
VERTEX
  8
25
 10
6.6627
 20
19.8652
 30
0.0000
  0
VERTEX
  8
25
 10
7.1542
 20
19.8652
 30
0.0000
 42
1.0000
  0
VERTEX
  8
25
 10
7.1542
 20
19.9414
 30
0.0000
  0
VERTEX
  8
25
 10
6.6627
 20
19.9414
 30
0.0000
 42
1.0000
  0
SEQEND
  8
0
  0
POLYLINE
  8
51
 66
1
 10
0.0000
 20
0.0000
 30
0.0000
 40
0.0000
 41
0.0000
 70
1
  0
VERTEX
  8
51
 10
10.4672
 20
24.4530
 30
0.0000
  0
VERTEX
  8
51
 10
10.4672
 20
25.3170
 30
0.0000
 42
1.0000
  0
VERTEX
  8
51
 10
10.3148
 20
25.3170
 30
0.0000
  0
VERTEX
  8
51
 10
10.3148
 20
24.4530
 30
0.0000
 42
1.0000
  0
SEQEND
  8
0
  0
POLYLINE
  8
51
 66
1
 10
0.0000
 20
0.0000
 30
0.0000
 40
0.0000
 41
0.0000
 70
1
  0
VERTEX
  8
51
 10
9.6028
 20
25.3170
 30
0.0000
  0
VERTEX
  8
51
 10
9.6028
 20
24.4530
 30
0.0000
 42
1.0000
  0
VERTEX
  8
51
 10
9.7552
 20
24.4530
 30
0.0000
  0
VERTEX
  8
51
 10
9.7552
 20
25.3170
 30
0.0000
 42
1.0000
  0
SEQEND
  8
0
  0
INSERT
  8
51
  2
RECT
 10
10.0350
 20
25.5200
 30
0.0000
 41
0.4064
 42
0.8636
 43
1.0000
 50
90.0000
  0
INSERT
  8
51
  2
RECT
 10
10.0350
 20
24.2500
 30
0.0000
 41
0.4064
 42
0.8636
 43
1.0000
 50
90.0000
  0
POLYLINE
  8
25
 66
1
 10
0.0000
 20
0.0000
 30
0.0000
 40
0.0000
 41
0.0000
 70
1
  0
VERTEX
  8
25
 10
11.5619
 20
23.6262
 30
0.0000
  0
VERTEX
  8
25
 10
10.8247
 20
23.6262
 30
0.0000
 42
1.0000
  0
VERTEX
  8
25
 10
10.8247
 20
23.5500
 30
0.0000
  0
VERTEX
  8
25
 10
11.5619
 20
23.5500
 30
0.0000
 42
1.0000
  0
SEQEND
  8
0
  0
POLYLINE
  8
25
 66
1
 10
0.0000
 20
0.0000
 30
0.0000
 40
0.0000
 41
0.0000
 70
1
  0
VERTEX
  8
25
 10
10.8628
 20
23.5881
 30
0.0000
  0
VERTEX
  8
25
 10
10.8628
 20
23.9567
 30
0.0000
 42
1.0000
  0
VERTEX
  8
25
 10
10.7866
 20
23.9567
 30
0.0000
  0
VERTEX
  8
25
 10
10.7866
 20
23.5881
 30
0.0000
 42
1.0000
  0
SEQEND
  8
0
  0
POLYLINE
  8
25
 66
1
 10
0.0000
 20
0.0000
 30
0.0000
 40
0.0000
 41
0.0000
 70
1
  0
VERTEX
  8
25
 10
10.8516
 20
23.9298
 30
0.0000
  0
VERTEX
  8
25
 10
10.9745
 20
24.0526
 30
0.0000
 42
1.0000
  0
VERTEX
  8
25
 10
10.9206
 20
24.1065
 30
0.0000
  0
VERTEX
  8
25
 10
10.7977
 20
23.9837
 30
0.0000
 42
1.0000
  0
SEQEND
  8
0
  0
POLYLINE
  8
25
 66
1
 10
0.0000
 20
0.0000
 30
0.0000
 40
0.0000
 41
0.0000
 70
1
  0
VERTEX
  8
25
 10
10.9475
 20
24.0415
 30
0.0000
  0
VERTEX
  8
25
 10
11.1933
 20
24.0415
 30
0.0000
 42
1.0000
  0
VERTEX
  8
25
 10
11.1933
 20
24.1177
 30
0.0000
  0
VERTEX
  8
25
 10
10.9475
 20
24.1177
 30
0.0000
 42
1.0000
  0
SEQEND
  8
0
  0
POLYLINE
  8
25
 66
1
 10
0.0000
 20
0.0000
 30
0.0000
 40
0.0000
 41
0.0000
 70
1
  0
VERTEX
  8
25
 10
11.1663
 20
24.0526
 30
0.0000
  0
VERTEX
  8
25
 10
11.2892
 20
23.9298
 30
0.0000
 42
1.0000
  0
VERTEX
  8
25
 10
11.3431
 20
23.9837
 30
0.0000
  0
VERTEX
  8
25
 10
11.2202
 20
24.1065
 30
0.0000
 42
1.0000
  0
SEQEND
  8
0
  0
POLYLINE
  8
25
 66
1
 10
0.0000
 20
0.0000
 30
0.0000
 40
0.0000
 41
0.0000
 70
1
  0
VERTEX
  8
25
 10
11.2781
 20
23.9567
 30
0.0000
  0
VERTEX
  8
25
 10
11.2781
 20
23.5881
 30
0.0000
 42
1.0000
  0
VERTEX
  8
25
 10
11.3543
 20
23.5881
 30
0.0000
  0
VERTEX
  8
25
 10
11.3543
 20
23.9567
 30
0.0000
 42
1.0000
  0
SEQEND
  8
0
  0
POLYLINE
  8
25
 66
1
 10
0.0000
 20
0.0000
 30
0.0000
 40
0.0000
 41
0.0000
 70
1
  0
VERTEX
  8
25
 10
11.3431
 20
23.8069
 30
0.0000
  0
VERTEX
  8
25
 10
11.5888
 20
24.0526
 30
0.0000
 42
1.0000
  0
VERTEX
  8
25
 10
11.5350
 20
24.1065
 30
0.0000
  0
VERTEX
  8
25
 10
11.2892
 20
23.8608
 30
0.0000
 42
1.0000
  0
SEQEND
  8
0
  0
POLYLINE
  8
25
 66
1
 10
0.0000
 20
0.0000
 30
0.0000
 40
0.0000
 41
0.0000
 70
1
  0
VERTEX
  8
25
 10
11.5238
 20
24.8280
 30
0.0000
  0
VERTEX
  8
25
 10
11.5238
 20
24.3365
 30
0.0000
 42
1.0000
  0
VERTEX
  8
25
 10
11.6000
 20
24.3365
 30
0.0000
  0
VERTEX
  8
25
 10
11.6000
 20
24.8280
 30
0.0000
 42
1.0000
  0
SEQEND
  8
0
  0
POLYLINE
  8
25
 66
1
 10
0.0000
 20
0.0000
 30
0.0000
 40
0.0000
 41
0.0000
 70
1
  0
VERTEX
  8
25
 10
11.5888
 20
24.3635
 30
0.0000
  0
VERTEX
  8
25
 10
11.0974
 20
24.8549
 30
0.0000
 42
1.0000
  0
VERTEX
  8
25
 10
11.0435
 20
24.8011
 30
0.0000
  0
VERTEX
  8
25
 10
11.5350
 20
24.3096
 30
0.0000
 42
1.0000
  0
SEQEND
  8
0
  0
POLYLINE
  8
25
 66
1
 10
0.0000
 20
0.0000
 30
0.0000
 40
0.0000
 41
0.0000
 70
1
  0
VERTEX
  8
25
 10
11.0704
 20
24.8661
 30
0.0000
  0
VERTEX
  8
25
 10
10.9475
 20
24.8661
 30
0.0000
 42
1.0000
  0
VERTEX
  8
25
 10
10.9475
 20
24.7899
 30
0.0000
  0
VERTEX
  8
25
 10
11.0704
 20
24.7899
 30
0.0000
 42
1.0000
  0
SEQEND
  8
0
  0
POLYLINE
  8
25
 66
1
 10
0.0000
 20
0.0000
 30
0.0000
 40
0.0000
 41
0.0000
 70
1
  0
VERTEX
  8
25
 10
10.9206
 20
24.8549
 30
0.0000
  0
VERTEX
  8
25
 10
10.7977
 20
24.7321
 30
0.0000
 42
1.0000
  0
VERTEX
  8
25
 10
10.8516
 20
24.6782
 30
0.0000
  0
VERTEX
  8
25
 10
10.9745
 20
24.8011
 30
0.0000
 42
1.0000
  0
SEQEND
  8
0
  0
POLYLINE
  8
25
 66
1
 10
0.0000
 20
0.0000
 30
0.0000
 40
0.0000
 41
0.0000
 70
1
  0
VERTEX
  8
25
 10
10.7866
 20
24.7051
 30
0.0000
  0
VERTEX
  8
25
 10
10.7866
 20
24.4594
 30
0.0000
 42
1.0000
  0
VERTEX
  8
25
 10
10.8628
 20
24.4594
 30
0.0000
  0
VERTEX
  8
25
 10
10.8628
 20
24.7051
 30
0.0000
 42
1.0000
  0
SEQEND
  8
0
  0
POLYLINE
  8
25
 66
1
 10
0.0000
 20
0.0000
 30
0.0000
 40
0.0000
 41
0.0000
 70
1
  0
VERTEX
  8
25
 10
10.7977
 20
24.4324
 30
0.0000
  0
VERTEX
  8
25
 10
10.9206
 20
24.3096
 30
0.0000
 42
1.0000
  0
VERTEX
  8
25
 10
10.9745
 20
24.3635
 30
0.0000
  0
VERTEX
  8
25
 10
10.8516
 20
24.4863
 30
0.0000
 42
1.0000
  0
SEQEND
  8
0
  0
POLYLINE
  8
51
 66
1
 10
0.0000
 20
0.0000
 30
0.0000
 40
0.0000
 41
0.0000
 70
1
  0
VERTEX
  8
51
 10
18.1028
 20
19.1660
 30
0.0000
  0
VERTEX
  8
51
 10
18.1028
 20
18.3020
 30
0.0000
 42
1.0000
  0
VERTEX
  8
51
 10
18.2552
 20
18.3020
 30
0.0000
  0
VERTEX
  8
51
 10
18.2552
 20
19.1660
 30
0.0000
 42
1.0000
  0
SEQEND
  8
0
  0
POLYLINE
  8
51
 66
1
 10
0.0000
 20
0.0000
 30
0.0000
 40
0.0000
 41
0.0000
 70
1
  0
VERTEX
  8
51
 10
18.9672
 20
18.3020
 30
0.0000
  0
VERTEX
  8
51
 10
18.9672
 20
19.1660
 30
0.0000
 42
1.0000
  0
VERTEX
  8
51
 10
18.8148
 20
19.1660
 30
0.0000
  0
VERTEX
  8
51
 10
18.8148
 20
18.3020
 30
0.0000
 42
1.0000
  0
SEQEND
  8
0
  0
INSERT
  8
51
  2
RECT
 10
18.5350
 20
18.0990
 30
0.0000
 41
0.4064
 42
0.8636
 43
1.0000
 50
270.0000
  0
INSERT
  8
51
  2
RECT
 10
18.5350
 20
19.3690
 30
0.0000
 41
0.4064
 42
0.8636
 43
1.0000
 50
270.0000
  0
POLYLINE
  8
25
 66
1
 10
0.0000
 20
0.0000
 30
0.0000
 40
0.0000
 41
0.0000
 70
1
  0
VERTEX
  8
25
 10
17.7557
 20
18.1164
 30
0.0000
  0
VERTEX
  8
25
 10
17.0185
 20
18.1164
 30
0.0000
 42
1.0000
  0
VERTEX
  8
25
 10
17.0185
 20
18.0402
 30
0.0000
  0
VERTEX
  8
25
 10
17.7557
 20
18.0402
 30
0.0000
 42
1.0000
  0
SEQEND
  8
0
  0
POLYLINE
  8
25
 66
1
 10
0.0000
 20
0.0000
 30
0.0000
 40
0.0000
 41
0.0000
 70
1
  0
VERTEX
  8
25
 10
17.0566
 20
18.0783
 30
0.0000
  0
VERTEX
  8
25
 10
17.0566
 20
18.4469
 30
0.0000
 42
1.0000
  0
VERTEX
  8
25
 10
16.9804
 20
18.4469
 30
0.0000
  0
VERTEX
  8
25
 10
16.9804
 20
18.0783
 30
0.0000
 42
1.0000
  0
SEQEND
  8
0
  0
POLYLINE
  8
25
 66
1
 10
0.0000
 20
0.0000
 30
0.0000
 40
0.0000
 41
0.0000
 70
1
  0
VERTEX
  8
25
 10
17.0454
 20
18.4199
 30
0.0000
  0
VERTEX
  8
25
 10
17.1683
 20
18.5428
 30
0.0000
 42
1.0000
  0
VERTEX
  8
25
 10
17.1144
 20
18.5967
 30
0.0000
  0
VERTEX
  8
25
 10
16.9915
 20
18.4738
 30
0.0000
 42
1.0000
  0
SEQEND
  8
0
  0
POLYLINE
  8
25
 66
1
 10
0.0000
 20
0.0000
 30
0.0000
 40
0.0000
 41
0.0000
 70
1
  0
VERTEX
  8
25
 10
17.1413
 20
18.5317
 30
0.0000
  0
VERTEX
  8
25
 10
17.3871
 20
18.5317
 30
0.0000
 42
1.0000
  0
VERTEX
  8
25
 10
17.3871
 20
18.6079
 30
0.0000
  0
VERTEX
  8
25
 10
17.1413
 20
18.6079
 30
0.0000
 42
1.0000
  0
SEQEND
  8
0
  0
POLYLINE
  8
25
 66
1
 10
0.0000
 20
0.0000
 30
0.0000
 40
0.0000
 41
0.0000
 70
1
  0
VERTEX
  8
25
 10
17.3601
 20
18.5428
 30
0.0000
  0
VERTEX
  8
25
 10
17.4830
 20
18.4199
 30
0.0000
 42
1.0000
  0
VERTEX
  8
25
 10
17.5369
 20
18.4738
 30
0.0000
  0
VERTEX
  8
25
 10
17.4140
 20
18.5967
 30
0.0000
 42
1.0000
  0
SEQEND
  8
0
  0
POLYLINE
  8
25
 66
1
 10
0.0000
 20
0.0000
 30
0.0000
 40
0.0000
 41
0.0000
 70
1
  0
VERTEX
  8
25
 10
17.4719
 20
18.4469
 30
0.0000
  0
VERTEX
  8
25
 10
17.4719
 20
18.0783
 30
0.0000
 42
1.0000
  0
VERTEX
  8
25
 10
17.5481
 20
18.0783
 30
0.0000
  0
VERTEX
  8
25
 10
17.5481
 20
18.4469
 30
0.0000
 42
1.0000
  0
SEQEND
  8
0
  0
POLYLINE
  8
25
 66
1
 10
0.0000
 20
0.0000
 30
0.0000
 40
0.0000
 41
0.0000
 70
1
  0
VERTEX
  8
25
 10
17.5369
 20
18.2971
 30
0.0000
  0
VERTEX
  8
25
 10
17.7826
 20
18.5428
 30
0.0000
 42
1.0000
  0
VERTEX
  8
25
 10
17.7288
 20
18.5967
 30
0.0000
  0
VERTEX
  8
25
 10
17.4830
 20
18.3509
 30
0.0000
 42
1.0000
  0
SEQEND
  8
0
  0
POLYLINE
  8
25
 66
1
 10
0.0000
 20
0.0000
 30
0.0000
 40
0.0000
 41
0.0000
 70
1
  0
VERTEX
  8
25
 10
17.7557
 20
19.2334
 30
0.0000
  0
VERTEX
  8
25
 10
17.0185
 20
19.2334
 30
0.0000
 42
1.0000
  0
VERTEX
  8
25
 10
17.0185
 20
19.1572
 30
0.0000
  0
VERTEX
  8
25
 10
17.7557
 20
19.1572
 30
0.0000
 42
1.0000
  0
SEQEND
  8
0
  0
POLYLINE
  8
25
 66
1
 10
0.0000
 20
0.0000
 30
0.0000
 40
0.0000
 41
0.0000
 70
1
  0
VERTEX
  8
25
 10
16.9915
 20
19.1684
 30
0.0000
  0
VERTEX
  8
25
 10
17.3601
 20
18.7997
 30
0.0000
 42
1.0000
  0
VERTEX
  8
25
 10
17.4140
 20
18.8536
 30
0.0000
  0
VERTEX
  8
25
 10
17.0454
 20
19.2222
 30
0.0000
 42
1.0000
  0
SEQEND
  8
0
  0
POLYLINE
  8
25
 66
1
 10
0.0000
 20
0.0000
 30
0.0000
 40
0.0000
 41
0.0000
 70
1
  0
VERTEX
  8
25
 10
17.4252
 20
18.8267
 30
0.0000
  0
VERTEX
  8
25
 10
17.4252
 20
19.3182
 30
0.0000
 42
1.0000
  0
VERTEX
  8
25
 10
17.3490
 20
19.3182
 30
0.0000
  0
VERTEX
  8
25
 10
17.3490
 20
18.8267
 30
0.0000
 42
1.0000
  0
SEQEND
  8
0
  0
POLYLINE
  8
51
 66
1
 10
0.0000
 20
0.0000
 30
0.0000
 40
0.0000
 41
0.0000
 70
1
  0
VERTEX
  8
51
 10
17.6058
 20
6.9190
 30
0.0000
  0
VERTEX
  8
51
 10
17.6058
 20
6.0550
 30
0.0000
 42
1.0000
  0
VERTEX
  8
51
 10
17.7582
 20
6.0550
 30
0.0000
  0
VERTEX
  8
51
 10
17.7582
 20
6.9190
 30
0.0000
 42
1.0000
  0
SEQEND
  8
0
  0
POLYLINE
  8
51
 66
1
 10
0.0000
 20
0.0000
 30
0.0000
 40
0.0000
 41
0.0000
 70
1
  0
VERTEX
  8
51
 10
18.4702
 20
6.0550
 30
0.0000
  0
VERTEX
  8
51
 10
18.4702
 20
6.9190
 30
0.0000
 42
1.0000
  0
VERTEX
  8
51
 10
18.3178
 20
6.9190
 30
0.0000
  0
VERTEX
  8
51
 10
18.3178
 20
6.0550
 30
0.0000
 42
1.0000
  0
SEQEND
  8
0
  0
INSERT
  8
51
  2
RECT
 10
18.0380
 20
5.8520
 30
0.0000
 41
0.4064
 42
0.8636
 43
1.0000
 50
270.0000
  0
INSERT
  8
51
  2
RECT
 10
18.0380
 20
7.1220
 30
0.0000
 41
0.4064
 42
0.8636
 43
1.0000
 50
270.0000
  0
POLYLINE
  8
25
 66
1
 10
0.0000
 20
0.0000
 30
0.0000
 40
0.0000
 41
0.0000
 70
1
  0
VERTEX
  8
25
 10
17.3239
 20
5.1742
 30
0.0000
  0
VERTEX
  8
25
 10
16.5867
 20
5.1742
 30
0.0000
 42
1.0000
  0
VERTEX
  8
25
 10
16.5867
 20
5.0980
 30
0.0000
  0
VERTEX
  8
25
 10
17.3239
 20
5.0980
 30
0.0000
 42
1.0000
  0
SEQEND
  8
0
  0
POLYLINE
  8
25
 66
1
 10
0.0000
 20
0.0000
 30
0.0000
 40
0.0000
 41
0.0000
 70
1
  0
VERTEX
  8
25
 10
16.6248
 20
5.1361
 30
0.0000
  0
VERTEX
  8
25
 10
16.6248
 20
5.5047
 30
0.0000
 42
1.0000
  0
VERTEX
  8
25
 10
16.5486
 20
5.5047
 30
0.0000
  0
VERTEX
  8
25
 10
16.5486
 20
5.1361
 30
0.0000
 42
1.0000
  0
SEQEND
  8
0
  0
POLYLINE
  8
25
 66
1
 10
0.0000
 20
0.0000
 30
0.0000
 40
0.0000
 41
0.0000
 70
1
  0
VERTEX
  8
25
 10
16.6136
 20
5.4778
 30
0.0000
  0
VERTEX
  8
25
 10
16.7365
 20
5.6006
 30
0.0000
 42
1.0000
  0
VERTEX
  8
25
 10
16.6826
 20
5.6545
 30
0.0000
  0
VERTEX
  8
25
 10
16.5597
 20
5.5317
 30
0.0000
 42
1.0000
  0
SEQEND
  8
0
  0
POLYLINE
  8
25
 66
1
 10
0.0000
 20
0.0000
 30
0.0000
 40
0.0000
 41
0.0000
 70
1
  0
VERTEX
  8
25
 10
16.7095
 20
5.5895
 30
0.0000
  0
VERTEX
  8
25
 10
16.9553
 20
5.5895
 30
0.0000
 42
1.0000
  0
VERTEX
  8
25
 10
16.9553
 20
5.6657
 30
0.0000
  0
VERTEX
  8
25
 10
16.7095
 20
5.6657
 30
0.0000
 42
1.0000
  0
SEQEND
  8
0
  0
POLYLINE
  8
25
 66
1
 10
0.0000
 20
0.0000
 30
0.0000
 40
0.0000
 41
0.0000
 70
1
  0
VERTEX
  8
25
 10
16.9283
 20
5.6006
 30
0.0000
  0
VERTEX
  8
25
 10
17.0512
 20
5.4778
 30
0.0000
 42
1.0000
  0
VERTEX
  8
25
 10
17.1051
 20
5.5317
 30
0.0000
  0
VERTEX
  8
25
 10
16.9822
 20
5.6545
 30
0.0000
 42
1.0000
  0
SEQEND
  8
0
  0
POLYLINE
  8
25
 66
1
 10
0.0000
 20
0.0000
 30
0.0000
 40
0.0000
 41
0.0000
 70
1
  0
VERTEX
  8
25
 10
17.0401
 20
5.5047
 30
0.0000
  0
VERTEX
  8
25
 10
17.0401
 20
5.1361
 30
0.0000
 42
1.0000
  0
VERTEX
  8
25
 10
17.1163
 20
5.1361
 30
0.0000
  0
VERTEX
  8
25
 10
17.1163
 20
5.5047
 30
0.0000
 42
1.0000
  0
SEQEND
  8
0
  0
POLYLINE
  8
25
 66
1
 10
0.0000
 20
0.0000
 30
0.0000
 40
0.0000
 41
0.0000
 70
1
  0
VERTEX
  8
25
 10
17.1051
 20
5.3549
 30
0.0000
  0
VERTEX
  8
25
 10
17.3508
 20
5.6006
 30
0.0000
 42
1.0000
  0
VERTEX
  8
25
 10
17.2970
 20
5.6545
 30
0.0000
  0
VERTEX
  8
25
 10
17.0512
 20
5.4088
 30
0.0000
 42
1.0000
  0
SEQEND
  8
0
  0
POLYLINE
  8
25
 66
1
 10
0.0000
 20
0.0000
 30
0.0000
 40
0.0000
 41
0.0000
 70
1
  0
VERTEX
  8
25
 10
16.8594
 20
5.9115
 30
0.0000
  0
VERTEX
  8
25
 10
16.6136
 20
6.1572
 30
0.0000
 42
1.0000
  0
VERTEX
  8
25
 10
16.5597
 20
6.1033
 30
0.0000
  0
VERTEX
  8
25
 10
16.8055
 20
5.8576
 30
0.0000
 42
1.0000
  0
SEQEND
  8
0
  0
POLYLINE
  8
25
 66
1
 10
0.0000
 20
0.0000
 30
0.0000
 40
0.0000
 41
0.0000
 70
1
  0
VERTEX
  8
25
 10
16.5867
 20
6.0922
 30
0.0000
  0
VERTEX
  8
25
 10
17.3239
 20
6.0922
 30
0.0000
 42
1.0000
  0
VERTEX
  8
25
 10
17.3239
 20
6.1684
 30
0.0000
  0
VERTEX
  8
25
 10
16.5867
 20
6.1684
 30
0.0000
 42
1.0000
  0
SEQEND
  8
0
  0
POLYLINE
  8
25
 66
1
 10
0.0000
 20
0.0000
 30
0.0000
 40
0.0000
 41
0.0000
 70
1
  0
VERTEX
  8
25
 10
17.3620
 20
5.8845
 30
0.0000
  0
VERTEX
  8
25
 10
17.3620
 20
6.3760
 30
0.0000
 42
1.0000
  0
VERTEX
  8
25
 10
17.2858
 20
6.3760
 30
0.0000
  0
VERTEX
  8
25
 10
17.2858
 20
5.8845
 30
0.0000
 42
1.0000
  0
SEQEND
  8
0
  0
POLYLINE
  8
25
 66
1
 10
0.0000
 20
0.0000
 30
0.0000
 40
0.0000
 41
0.0000
 70
1
  0
VERTEX
  8
25
 10
17.2010
 20
6.6710
 30
0.0000
  0
VERTEX
  8
25
 10
16.7095
 20
6.6710
 30
0.0000
 42
1.0000
  0
VERTEX
  8
25
 10
16.7095
 20
6.5948
 30
0.0000
  0
VERTEX
  8
25
 10
17.2010
 20
6.5948
 30
0.0000
 42
1.0000
  0
SEQEND
  8
0
  0
POLYLINE
  8
25
 66
1
 10
0.0000
 20
0.0000
 30
0.0000
 40
0.0000
 41
0.0000
 70
1
  0
VERTEX
  8
25
 10
16.7365
 20
6.6599
 30
0.0000
  0
VERTEX
  8
25
 10
16.6136
 20
6.7827
 30
0.0000
 42
1.0000
  0
VERTEX
  8
25
 10
16.5597
 20
6.7289
 30
0.0000
  0
VERTEX
  8
25
 10
16.6826
 20
6.6060
 30
0.0000
 42
1.0000
  0
SEQEND
  8
0
  0
POLYLINE
  8
25
 66
1
 10
0.0000
 20
0.0000
 30
0.0000
 40
0.0000
 41
0.0000
 70
1
  0
VERTEX
  8
25
 10
16.6248
 20
6.7558
 30
0.0000
  0
VERTEX
  8
25
 10
16.6248
 20
7.0015
 30
0.0000
 42
1.0000
  0
VERTEX
  8
25
 10
16.5486
 20
7.0015
 30
0.0000
  0
VERTEX
  8
25
 10
16.5486
 20
6.7558
 30
0.0000
 42
1.0000
  0
SEQEND
  8
0
  0
POLYLINE
  8
25
 66
1
 10
0.0000
 20
0.0000
 30
0.0000
 40
0.0000
 41
0.0000
 70
1
  0
VERTEX
  8
25
 10
16.6136
 20
6.9746
 30
0.0000
  0
VERTEX
  8
25
 10
16.7365
 20
7.0975
 30
0.0000
 42
1.0000
  0
VERTEX
  8
25
 10
16.6826
 20
7.1514
 30
0.0000
  0
VERTEX
  8
25
 10
16.5597
 20
7.0285
 30
0.0000
 42
1.0000
  0
SEQEND
  8
0
  0
POLYLINE
  8
25
 66
1
 10
0.0000
 20
0.0000
 30
0.0000
 40
0.0000
 41
0.0000
 70
1
  0
VERTEX
  8
25
 10
16.7095
 20
7.0863
 30
0.0000
  0
VERTEX
  8
25
 10
17.2010
 20
7.0863
 30
0.0000
 42
1.0000
  0
VERTEX
  8
25
 10
17.2010
 20
7.1625
 30
0.0000
  0
VERTEX
  8
25
 10
16.7095
 20
7.1625
 30
0.0000
 42
1.0000
  0
SEQEND
  8
0
  0
POLYLINE
  8
25
 66
1
 10
0.0000
 20
0.0000
 30
0.0000
 40
0.0000
 41
0.0000
 70
1
  0
VERTEX
  8
25
 10
17.1741
 20
7.0975
 30
0.0000
  0
VERTEX
  8
25
 10
17.2970
 20
6.9746
 30
0.0000
 42
1.0000
  0
VERTEX
  8
25
 10
17.3508
 20
7.0285
 30
0.0000
  0
VERTEX
  8
25
 10
17.2280
 20
7.1514
 30
0.0000
 42
1.0000
  0
SEQEND
  8
0
  0
POLYLINE
  8
25
 66
1
 10
0.0000
 20
0.0000
 30
0.0000
 40
0.0000
 41
0.0000
 70
1
  0
VERTEX
  8
25
 10
17.2858
 20
7.0015
 30
0.0000
  0
VERTEX
  8
25
 10
17.2858
 20
6.7558
 30
0.0000
 42
1.0000
  0
VERTEX
  8
25
 10
17.3620
 20
6.7558
 30
0.0000
  0
VERTEX
  8
25
 10
17.3620
 20
7.0015
 30
0.0000
 42
1.0000
  0
SEQEND
  8
0
  0
POLYLINE
  8
25
 66
1
 10
0.0000
 20
0.0000
 30
0.0000
 40
0.0000
 41
0.0000
 70
1
  0
VERTEX
  8
25
 10
17.2970
 20
6.7827
 30
0.0000
  0
VERTEX
  8
25
 10
17.1741
 20
6.6599
 30
0.0000
 42
1.0000
  0
VERTEX
  8
25
 10
17.2280
 20
6.6060
 30
0.0000
  0
VERTEX
  8
25
 10
17.3508
 20
6.7289
 30
0.0000
 42
1.0000
  0
SEQEND
  8
0
  0
POLYLINE
  8
25
 66
1
 10
0.0000
 20
0.0000
 30
0.0000
 40
0.0000
 41
0.0000
 70
1
  0
VERTEX
  8
25
 10
17.2280
 20
6.6599
 30
0.0000
  0
VERTEX
  8
25
 10
16.7365
 20
7.1514
 30
0.0000
 42
1.0000
  0
VERTEX
  8
25
 10
16.6826
 20
7.0975
 30
0.0000
  0
VERTEX
  8
25
 10
17.1741
 20
6.6060
 30
0.0000
 42
1.0000
  0
SEQEND
  8
0
  0
POLYLINE
  8
51
 66
1
 10
0.0000
 20
0.0000
 30
0.0000
 40
0.0000
 41
0.0000
 70
1
  0
VERTEX
  8
51
 10
8.1272
 20
17.9730
 30
0.0000
  0
VERTEX
  8
51
 10
8.1272
 20
18.8370
 30
0.0000
 42
1.0000
  0
VERTEX
  8
51
 10
7.9748
 20
18.8370
 30
0.0000
  0
VERTEX
  8
51
 10
7.9748
 20
17.9730
 30
0.0000
 42
1.0000
  0
SEQEND
  8
0
  0
POLYLINE
  8
51
 66
1
 10
0.0000
 20
0.0000
 30
0.0000
 40
0.0000
 41
0.0000
 70
1
  0
VERTEX
  8
51
 10
7.2628
 20
18.8370
 30
0.0000
  0
VERTEX
  8
51
 10
7.2628
 20
17.9730
 30
0.0000
 42
1.0000
  0
VERTEX
  8
51
 10
7.4152
 20
17.9730
 30
0.0000
  0
VERTEX
  8
51
 10
7.4152
 20
18.8370
 30
0.0000
 42
1.0000
  0
SEQEND
  8
0
  0
INSERT
  8
51
  2
RECT
 10
7.6950
 20
19.0400
 30
0.0000
 41
0.4064
 42
0.8636
 43
1.0000
 50
90.0000
  0
INSERT
  8
51
  2
RECT
 10
7.6950
 20
17.7700
 30
0.0000
 41
0.4064
 42
0.8636
 43
1.0000
 50
90.0000
  0
POLYLINE
  8
25
 66
1
 10
0.0000
 20
0.0000
 30
0.0000
 40
0.0000
 41
0.0000
 70
1
  0
VERTEX
  8
25
 10
6.9219
 20
16.7462
 30
0.0000
  0
VERTEX
  8
25
 10
6.1847
 20
16.7462
 30
0.0000
 42
1.0000
  0
VERTEX
  8
25
 10
6.1847
 20
16.6700
 30
0.0000
  0
VERTEX
  8
25
 10
6.9219
 20
16.6700
 30
0.0000
 42
1.0000
  0
SEQEND
  8
0
  0
POLYLINE
  8
25
 66
1
 10
0.0000
 20
0.0000
 30
0.0000
 40
0.0000
 41
0.0000
 70
1
  0
VERTEX
  8
25
 10
6.2228
 20
16.7081
 30
0.0000
  0
VERTEX
  8
25
 10
6.2228
 20
17.0767
 30
0.0000
 42
1.0000
  0
VERTEX
  8
25
 10
6.1466
 20
17.0767
 30
0.0000
  0
VERTEX
  8
25
 10
6.1466
 20
16.7081
 30
0.0000
 42
1.0000
  0
SEQEND
  8
0
  0
POLYLINE
  8
25
 66
1
 10
0.0000
 20
0.0000
 30
0.0000
 40
0.0000
 41
0.0000
 70
1
  0
VERTEX
  8
25
 10
6.2116
 20
17.0498
 30
0.0000
  0
VERTEX
  8
25
 10
6.3345
 20
17.1726
 30
0.0000
 42
1.0000
  0
VERTEX
  8
25
 10
6.2806
 20
17.2265
 30
0.0000
  0
VERTEX
  8
25
 10
6.1577
 20
17.1037
 30
0.0000
 42
1.0000
  0
SEQEND
  8
0
  0
POLYLINE
  8
25
 66
1
 10
0.0000
 20
0.0000
 30
0.0000
 40
0.0000
 41
0.0000
 70
1
  0
VERTEX
  8
25
 10
6.3075
 20
17.1615
 30
0.0000
  0
VERTEX
  8
25
 10
6.5533
 20
17.1615
 30
0.0000
 42
1.0000
  0
VERTEX
  8
25
 10
6.5533
 20
17.2377
 30
0.0000
  0
VERTEX
  8
25
 10
6.3075
 20
17.2377
 30
0.0000
 42
1.0000
  0
SEQEND
  8
0
  0
POLYLINE
  8
25
 66
1
 10
0.0000
 20
0.0000
 30
0.0000
 40
0.0000
 41
0.0000
 70
1
  0
VERTEX
  8
25
 10
6.5263
 20
17.1726
 30
0.0000
  0
VERTEX
  8
25
 10
6.6492
 20
17.0498
 30
0.0000
 42
1.0000
  0
VERTEX
  8
25
 10
6.7031
 20
17.1037
 30
0.0000
  0
VERTEX
  8
25
 10
6.5802
 20
17.2265
 30
0.0000
 42
1.0000
  0
SEQEND
  8
0
  0
POLYLINE
  8
25
 66
1
 10
0.0000
 20
0.0000
 30
0.0000
 40
0.0000
 41
0.0000
 70
1
  0
VERTEX
  8
25
 10
6.6381
 20
17.0767
 30
0.0000
  0
VERTEX
  8
25
 10
6.6381
 20
16.7081
 30
0.0000
 42
1.0000
  0
VERTEX
  8
25
 10
6.7143
 20
16.7081
 30
0.0000
  0
VERTEX
  8
25
 10
6.7143
 20
17.0767
 30
0.0000
 42
1.0000
  0
SEQEND
  8
0
  0
POLYLINE
  8
25
 66
1
 10
0.0000
 20
0.0000
 30
0.0000
 40
0.0000
 41
0.0000
 70
1
  0
VERTEX
  8
25
 10
6.7031
 20
16.9269
 30
0.0000
  0
VERTEX
  8
25
 10
6.9488
 20
17.1726
 30
0.0000
 42
1.0000
  0
VERTEX
  8
25
 10
6.8950
 20
17.2265
 30
0.0000
  0
VERTEX
  8
25
 10
6.6492
 20
16.9808
 30
0.0000
 42
1.0000
  0
SEQEND
  8
0
  0
POLYLINE
  8
25
 66
1
 10
0.0000
 20
0.0000
 30
0.0000
 40
0.0000
 41
0.0000
 70
1
  0
VERTEX
  8
25
 10
6.4574
 20
17.4835
 30
0.0000
  0
VERTEX
  8
25
 10
6.2116
 20
17.7292
 30
0.0000
 42
1.0000
  0
VERTEX
  8
25
 10
6.1577
 20
17.6753
 30
0.0000
  0
VERTEX
  8
25
 10
6.4035
 20
17.4296
 30
0.0000
 42
1.0000
  0
SEQEND
  8
0
  0
POLYLINE
  8
25
 66
1
 10
0.0000
 20
0.0000
 30
0.0000
 40
0.0000
 41
0.0000
 70
1
  0
VERTEX
  8
25
 10
6.1847
 20
17.6642
 30
0.0000
  0
VERTEX
  8
25
 10
6.9219
 20
17.6642
 30
0.0000
 42
1.0000
  0
VERTEX
  8
25
 10
6.9219
 20
17.7404
 30
0.0000
  0
VERTEX
  8
25
 10
6.1847
 20
17.7404
 30
0.0000
 42
1.0000
  0
SEQEND
  8
0
  0
POLYLINE
  8
25
 66
1
 10
0.0000
 20
0.0000
 30
0.0000
 40
0.0000
 41
0.0000
 70
1
  0
VERTEX
  8
25
 10
6.9600
 20
17.4565
 30
0.0000
  0
VERTEX
  8
25
 10
6.9600
 20
17.9480
 30
0.0000
 42
1.0000
  0
VERTEX
  8
25
 10
6.8838
 20
17.9480
 30
0.0000
  0
VERTEX
  8
25
 10
6.8838
 20
17.4565
 30
0.0000
 42
1.0000
  0
SEQEND
  8
0
  0
POLYLINE
  8
25
 66
1
 10
0.0000
 20
0.0000
 30
0.0000
 40
0.0000
 41
0.0000
 70
1
  0
VERTEX
  8
25
 10
6.8260
 20
18.1780
 30
0.0000
  0
VERTEX
  8
25
 10
6.9488
 20
18.3009
 30
0.0000
 42
1.0000
  0
VERTEX
  8
25
 10
6.8950
 20
18.3547
 30
0.0000
  0
VERTEX
  8
25
 10
6.7721
 20
18.2319
 30
0.0000
 42
1.0000
  0
SEQEND
  8
0
  0
POLYLINE
  8
25
 66
1
 10
0.0000
 20
0.0000
 30
0.0000
 40
0.0000
 41
0.0000
 70
1
  0
VERTEX
  8
25
 10
6.9600
 20
18.3278
 30
0.0000
  0
VERTEX
  8
25
 10
6.9600
 20
18.5735
 30
0.0000
 42
1.0000
  0
VERTEX
  8
25
 10
6.8838
 20
18.5735
 30
0.0000
  0
VERTEX
  8
25
 10
6.8838
 20
18.3278
 30
0.0000
 42
1.0000
  0
SEQEND
  8
0
  0
POLYLINE
  8
25
 66
1
 10
0.0000
 20
0.0000
 30
0.0000
 40
0.0000
 41
0.0000
 70
1
  0
VERTEX
  8
25
 10
6.9488
 20
18.6005
 30
0.0000
  0
VERTEX
  8
25
 10
6.8260
 20
18.7234
 30
0.0000
 42
1.0000
  0
VERTEX
  8
25
 10
6.7721
 20
18.6695
 30
0.0000
  0
VERTEX
  8
25
 10
6.8950
 20
18.5466
 30
0.0000
 42
1.0000
  0
SEQEND
  8
0
  0
POLYLINE
  8
25
 66
1
 10
0.0000
 20
0.0000
 30
0.0000
 40
0.0000
 41
0.0000
 70
1
  0
VERTEX
  8
25
 10
6.7990
 20
18.7345
 30
0.0000
  0
VERTEX
  8
25
 10
6.3075
 20
18.7345
 30
0.0000
 42
1.0000
  0
VERTEX
  8
25
 10
6.3075
 20
18.6583
 30
0.0000
  0
VERTEX
  8
25
 10
6.7990
 20
18.6583
 30
0.0000
 42
1.0000
  0
SEQEND
  8
0
  0
POLYLINE
  8
25
 66
1
 10
0.0000
 20
0.0000
 30
0.0000
 40
0.0000
 41
0.0000
 70
1
  0
VERTEX
  8
25
 10
6.2806
 20
18.7234
 30
0.0000
  0
VERTEX
  8
25
 10
6.1577
 20
18.6005
 30
0.0000
 42
1.0000
  0
VERTEX
  8
25
 10
6.2116
 20
18.5466
 30
0.0000
  0
VERTEX
  8
25
 10
6.3345
 20
18.6695
 30
0.0000
 42
1.0000
  0
SEQEND
  8
0
  0
POLYLINE
  8
25
 66
1
 10
0.0000
 20
0.0000
 30
0.0000
 40
0.0000
 41
0.0000
 70
1
  0
VERTEX
  8
25
 10
6.1466
 20
18.5735
 30
0.0000
  0
VERTEX
  8
25
 10
6.1466
 20
18.3278
 30
0.0000
 42
1.0000
  0
VERTEX
  8
25
 10
6.2228
 20
18.3278
 30
0.0000
  0
VERTEX
  8
25
 10
6.2228
 20
18.5735
 30
0.0000
 42
1.0000
  0
SEQEND
  8
0
  0
POLYLINE
  8
25
 66
1
 10
0.0000
 20
0.0000
 30
0.0000
 40
0.0000
 41
0.0000
 70
1
  0
VERTEX
  8
25
 10
6.1577
 20
18.3009
 30
0.0000
  0
VERTEX
  8
25
 10
6.2806
 20
18.1780
 30
0.0000
 42
1.0000
  0
VERTEX
  8
25
 10
6.3345
 20
18.2319
 30
0.0000
  0
VERTEX
  8
25
 10
6.2116
 20
18.3547
 30
0.0000
 42
1.0000
  0
SEQEND
  8
0
  0
POLYLINE
  8
25
 66
1
 10
0.0000
 20
0.0000
 30
0.0000
 40
0.0000
 41
0.0000
 70
1
  0
VERTEX
  8
25
 10
6.3075
 20
18.1668
 30
0.0000
  0
VERTEX
  8
25
 10
6.4304
 20
18.1668
 30
0.0000
 42
1.0000
  0
VERTEX
  8
25
 10
6.4304
 20
18.2430
 30
0.0000
  0
VERTEX
  8
25
 10
6.3075
 20
18.2430
 30
0.0000
 42
1.0000
  0
SEQEND
  8
0
  0
POLYLINE
  8
25
 66
1
 10
0.0000
 20
0.0000
 30
0.0000
 40
0.0000
 41
0.0000
 70
1
  0
VERTEX
  8
25
 10
6.4574
 20
18.1780
 30
0.0000
  0
VERTEX
  8
25
 10
6.5802
 20
18.3009
 30
0.0000
 42
1.0000
  0
VERTEX
  8
25
 10
6.5263
 20
18.3547
 30
0.0000
  0
VERTEX
  8
25
 10
6.4035
 20
18.2319
 30
0.0000
 42
1.0000
  0
SEQEND
  8
0
  0
POLYLINE
  8
25
 66
1
 10
0.0000
 20
0.0000
 30
0.0000
 40
0.0000
 41
0.0000
 70
1
  0
VERTEX
  8
25
 10
6.5914
 20
18.3278
 30
0.0000
  0
VERTEX
  8
25
 10
6.5914
 20
18.6964
 30
0.0000
 42
1.0000
  0
VERTEX
  8
25
 10
6.5152
 20
18.6964
 30
0.0000
  0
VERTEX
  8
25
 10
6.5152
 20
18.3278
 30
0.0000
 42
1.0000
  0
SEQEND
  8
0
  0
POLYLINE
  8
51
 66
1
 10
0.0000
 20
0.0000
 30
0.0000
 40
0.0000
 41
0.0000
 70
1
  0
VERTEX
  8
51
 10
2.1562
 20
11.8970
 30
0.0000
  0
VERTEX
  8
51
 10
2.1562
 20
12.7610
 30
0.0000
 42
1.0000
  0
VERTEX
  8
51
 10
2.0038
 20
12.7610
 30
0.0000
  0
VERTEX
  8
51
 10
2.0038
 20
11.8970
 30
0.0000
 42
1.0000
  0
SEQEND
  8
0
  0
POLYLINE
  8
51
 66
1
 10
0.0000
 20
0.0000
 30
0.0000
 40
0.0000
 41
0.0000
 70
1
  0
VERTEX
  8
51
 10
1.2918
 20
12.7610
 30
0.0000
  0
VERTEX
  8
51
 10
1.2918
 20
11.8970
 30
0.0000
 42
1.0000
  0
VERTEX
  8
51
 10
1.4442
 20
11.8970
 30
0.0000
  0
VERTEX
  8
51
 10
1.4442
 20
12.7610
 30
0.0000
 42
1.0000
  0
SEQEND
  8
0
  0
INSERT
  8
51
  2
RECT
 10
1.7240
 20
12.9640
 30
0.0000
 41
0.4064
 42
0.8636
 43
1.0000
 50
90.0000
  0
INSERT
  8
51
  2
RECT
 10
1.7240
 20
11.6940
 30
0.0000
 41
0.4064
 42
0.8636
 43
1.0000
 50
90.0000
  0
POLYLINE
  8
25
 66
1
 10
0.0000
 20
0.0000
 30
0.0000
 40
0.0000
 41
0.0000
 70
1
  0
VERTEX
  8
25
 10
3.2449
 20
10.9652
 30
0.0000
  0
VERTEX
  8
25
 10
2.5077
 20
10.9652
 30
0.0000
 42
1.0000
  0
VERTEX
  8
25
 10
2.5077
 20
10.8890
 30
0.0000
  0
VERTEX
  8
25
 10
3.2449
 20
10.8890
 30
0.0000
 42
1.0000
  0
SEQEND
  8
0
  0
POLYLINE
  8
25
 66
1
 10
0.0000
 20
0.0000
 30
0.0000
 40
0.0000
 41
0.0000
 70
1
  0
VERTEX
  8
25
 10
2.5458
 20
10.9271
 30
0.0000
  0
VERTEX
  8
25
 10
2.5458
 20
11.2957
 30
0.0000
 42
1.0000
  0
VERTEX
  8
25
 10
2.4696
 20
11.2957
 30
0.0000
  0
VERTEX
  8
25
 10
2.4696
 20
10.9271
 30
0.0000
 42
1.0000
  0
SEQEND
  8
0
  0
POLYLINE
  8
25
 66
1
 10
0.0000
 20
0.0000
 30
0.0000
 40
0.0000
 41
0.0000
 70
1
  0
VERTEX
  8
25
 10
2.5346
 20
11.2688
 30
0.0000
  0
VERTEX
  8
25
 10
2.6575
 20
11.3916
 30
0.0000
 42
1.0000
  0
VERTEX
  8
25
 10
2.6036
 20
11.4455
 30
0.0000
  0
VERTEX
  8
25
 10
2.4807
 20
11.3227
 30
0.0000
 42
1.0000
  0
SEQEND
  8
0
  0
POLYLINE
  8
25
 66
1
 10
0.0000
 20
0.0000
 30
0.0000
 40
0.0000
 41
0.0000
 70
1
  0
VERTEX
  8
25
 10
2.6305
 20
11.3805
 30
0.0000
  0
VERTEX
  8
25
 10
2.8763
 20
11.3805
 30
0.0000
 42
1.0000
  0
VERTEX
  8
25
 10
2.8763
 20
11.4567
 30
0.0000
  0
VERTEX
  8
25
 10
2.6305
 20
11.4567
 30
0.0000
 42
1.0000
  0
SEQEND
  8
0
  0
POLYLINE
  8
25
 66
1
 10
0.0000
 20
0.0000
 30
0.0000
 40
0.0000
 41
0.0000
 70
1
  0
VERTEX
  8
25
 10
2.8493
 20
11.3916
 30
0.0000
  0
VERTEX
  8
25
 10
2.9722
 20
11.2688
 30
0.0000
 42
1.0000
  0
VERTEX
  8
25
 10
3.0261
 20
11.3227
 30
0.0000
  0
VERTEX
  8
25
 10
2.9032
 20
11.4455
 30
0.0000
 42
1.0000
  0
SEQEND
  8
0
  0
POLYLINE
  8
25
 66
1
 10
0.0000
 20
0.0000
 30
0.0000
 40
0.0000
 41
0.0000
 70
1
  0
VERTEX
  8
25
 10
2.9611
 20
11.2957
 30
0.0000
  0
VERTEX
  8
25
 10
2.9611
 20
10.9271
 30
0.0000
 42
1.0000
  0
VERTEX
  8
25
 10
3.0373
 20
10.9271
 30
0.0000
  0
VERTEX
  8
25
 10
3.0373
 20
11.2957
 30
0.0000
 42
1.0000
  0
SEQEND
  8
0
  0
POLYLINE
  8
25
 66
1
 10
0.0000
 20
0.0000
 30
0.0000
 40
0.0000
 41
0.0000
 70
1
  0
VERTEX
  8
25
 10
3.0261
 20
11.1459
 30
0.0000
  0
VERTEX
  8
25
 10
3.2718
 20
11.3916
 30
0.0000
 42
1.0000
  0
VERTEX
  8
25
 10
3.2180
 20
11.4455
 30
0.0000
  0
VERTEX
  8
25
 10
2.9722
 20
11.1998
 30
0.0000
 42
1.0000
  0
SEQEND
  8
0
  0
POLYLINE
  8
25
 66
1
 10
0.0000
 20
0.0000
 30
0.0000
 40
0.0000
 41
0.0000
 70
1
  0
VERTEX
  8
25
 10
3.2068
 20
12.1670
 30
0.0000
  0
VERTEX
  8
25
 10
3.2068
 20
11.6755
 30
0.0000
 42
1.0000
  0
VERTEX
  8
25
 10
3.2830
 20
11.6755
 30
0.0000
  0
VERTEX
  8
25
 10
3.2830
 20
12.1670
 30
0.0000
 42
1.0000
  0
SEQEND
  8
0
  0
POLYLINE
  8
25
 66
1
 10
0.0000
 20
0.0000
 30
0.0000
 40
0.0000
 41
0.0000
 70
1
  0
VERTEX
  8
25
 10
3.2718
 20
11.7025
 30
0.0000
  0
VERTEX
  8
25
 10
2.7804
 20
12.1939
 30
0.0000
 42
1.0000
  0
VERTEX
  8
25
 10
2.7265
 20
12.1401
 30
0.0000
  0
VERTEX
  8
25
 10
3.2180
 20
11.6486
 30
0.0000
 42
1.0000
  0
SEQEND
  8
0
  0
POLYLINE
  8
25
 66
1
 10
0.0000
 20
0.0000
 30
0.0000
 40
0.0000
 41
0.0000
 70
1
  0
VERTEX
  8
25
 10
2.7534
 20
12.2051
 30
0.0000
  0
VERTEX
  8
25
 10
2.6305
 20
12.2051
 30
0.0000
 42
1.0000
  0
VERTEX
  8
25
 10
2.6305
 20
12.1289
 30
0.0000
  0
VERTEX
  8
25
 10
2.7534
 20
12.1289
 30
0.0000
 42
1.0000
  0
SEQEND
  8
0
  0
POLYLINE
  8
25
 66
1
 10
0.0000
 20
0.0000
 30
0.0000
 40
0.0000
 41
0.0000
 70
1
  0
VERTEX
  8
25
 10
2.6036
 20
12.1939
 30
0.0000
  0
VERTEX
  8
25
 10
2.4807
 20
12.0711
 30
0.0000
 42
1.0000
  0
VERTEX
  8
25
 10
2.5346
 20
12.0172
 30
0.0000
  0
VERTEX
  8
25
 10
2.6575
 20
12.1401
 30
0.0000
 42
1.0000
  0
SEQEND
  8
0
  0
POLYLINE
  8
25
 66
1
 10
0.0000
 20
0.0000
 30
0.0000
 40
0.0000
 41
0.0000
 70
1
  0
VERTEX
  8
25
 10
2.4696
 20
12.0441
 30
0.0000
  0
VERTEX
  8
25
 10
2.4696
 20
11.7984
 30
0.0000
 42
1.0000
  0
VERTEX
  8
25
 10
2.5458
 20
11.7984
 30
0.0000
  0
VERTEX
  8
25
 10
2.5458
 20
12.0441
 30
0.0000
 42
1.0000
  0
SEQEND
  8
0
  0
POLYLINE
  8
25
 66
1
 10
0.0000
 20
0.0000
 30
0.0000
 40
0.0000
 41
0.0000
 70
1
  0
VERTEX
  8
25
 10
2.4807
 20
11.7714
 30
0.0000
  0
VERTEX
  8
25
 10
2.6036
 20
11.6486
 30
0.0000
 42
1.0000
  0
VERTEX
  8
25
 10
2.6575
 20
11.7025
 30
0.0000
  0
VERTEX
  8
25
 10
2.5346
 20
11.8253
 30
0.0000
 42
1.0000
  0
SEQEND
  8
0
  0
POLYLINE
  8
25
 66
1
 10
0.0000
 20
0.0000
 30
0.0000
 40
0.0000
 41
0.0000
 70
1
  0
VERTEX
  8
25
 10
2.4696
 20
12.9154
 30
0.0000
  0
VERTEX
  8
25
 10
2.4696
 20
12.4239
 30
0.0000
 42
1.0000
  0
VERTEX
  8
25
 10
2.5458
 20
12.4239
 30
0.0000
  0
VERTEX
  8
25
 10
2.5458
 20
12.9154
 30
0.0000
 42
1.0000
  0
SEQEND
  8
0
  0
POLYLINE
  8
25
 66
1
 10
0.0000
 20
0.0000
 30
0.0000
 40
0.0000
 41
0.0000
 70
1
  0
VERTEX
  8
25
 10
2.5077
 20
12.3858
 30
0.0000
  0
VERTEX
  8
25
 10
2.8763
 20
12.3858
 30
0.0000
 42
1.0000
  0
VERTEX
  8
25
 10
2.8763
 20
12.4620
 30
0.0000
  0
VERTEX
  8
25
 10
2.5077
 20
12.4620
 30
0.0000
 42
1.0000
  0
SEQEND
  8
0
  0
POLYLINE
  8
25
 66
1
 10
0.0000
 20
0.0000
 30
0.0000
 40
0.0000
 41
0.0000
 70
1
  0
VERTEX
  8
25
 10
2.9104
 20
12.4410
 30
0.0000
  0
VERTEX
  8
25
 10
2.7875
 20
12.6867
 30
0.0000
 42
1.0000
  0
VERTEX
  8
25
 10
2.7193
 20
12.6526
 30
0.0000
  0
VERTEX
  8
25
 10
2.8422
 20
12.4069
 30
0.0000
 42
1.0000
  0
SEQEND
  8
0
  0
POLYLINE
  8
25
 66
1
 10
0.0000
 20
0.0000
 30
0.0000
 40
0.0000
 41
0.0000
 70
1
  0
VERTEX
  8
25
 10
2.7915
 20
12.6697
 30
0.0000
  0
VERTEX
  8
25
 10
2.7915
 20
12.7925
 30
0.0000
 42
1.0000
  0
VERTEX
  8
25
 10
2.7153
 20
12.7925
 30
0.0000
  0
VERTEX
  8
25
 10
2.7153
 20
12.6697
 30
0.0000
 42
1.0000
  0
SEQEND
  8
0
  0
POLYLINE
  8
25
 66
1
 10
0.0000
 20
0.0000
 30
0.0000
 40
0.0000
 41
0.0000
 70
1
  0
VERTEX
  8
25
 10
2.7804
 20
12.7656
 30
0.0000
  0
VERTEX
  8
25
 10
2.9032
 20
12.8885
 30
0.0000
 42
1.0000
  0
VERTEX
  8
25
 10
2.8493
 20
12.9424
 30
0.0000
  0
VERTEX
  8
25
 10
2.7265
 20
12.8195
 30
0.0000
 42
1.0000
  0
SEQEND
  8
0
  0
POLYLINE
  8
25
 66
1
 10
0.0000
 20
0.0000
 30
0.0000
 40
0.0000
 41
0.0000
 70
1
  0
VERTEX
  8
25
 10
2.8763
 20
12.8773
 30
0.0000
  0
VERTEX
  8
25
 10
3.1220
 20
12.8773
 30
0.0000
 42
1.0000
  0
VERTEX
  8
25
 10
3.1220
 20
12.9535
 30
0.0000
  0
VERTEX
  8
25
 10
2.8763
 20
12.9535
 30
0.0000
 42
1.0000
  0
SEQEND
  8
0
  0
POLYLINE
  8
25
 66
1
 10
0.0000
 20
0.0000
 30
0.0000
 40
0.0000
 41
0.0000
 70
1
  0
VERTEX
  8
25
 10
3.0951
 20
12.8885
 30
0.0000
  0
VERTEX
  8
25
 10
3.2180
 20
12.7656
 30
0.0000
 42
1.0000
  0
VERTEX
  8
25
 10
3.2718
 20
12.8195
 30
0.0000
  0
VERTEX
  8
25
 10
3.1490
 20
12.9424
 30
0.0000
 42
1.0000
  0
SEQEND
  8
0
  0
POLYLINE
  8
25
 66
1
 10
0.0000
 20
0.0000
 30
0.0000
 40
0.0000
 41
0.0000
 70
1
  0
VERTEX
  8
25
 10
3.2068
 20
12.7925
 30
0.0000
  0
VERTEX
  8
25
 10
3.2068
 20
12.5468
 30
0.0000
 42
1.0000
  0
VERTEX
  8
25
 10
3.2830
 20
12.5468
 30
0.0000
  0
VERTEX
  8
25
 10
3.2830
 20
12.7925
 30
0.0000
 42
1.0000
  0
SEQEND
  8
0
  0
POLYLINE
  8
25
 66
1
 10
0.0000
 20
0.0000
 30
0.0000
 40
0.0000
 41
0.0000
 70
1
  0
VERTEX
  8
25
 10
3.2180
 20
12.5737
 30
0.0000
  0
VERTEX
  8
25
 10
3.0951
 20
12.4509
 30
0.0000
 42
1.0000
  0
VERTEX
  8
25
 10
3.1490
 20
12.3970
 30
0.0000
  0
VERTEX
  8
25
 10
3.2718
 20
12.5199
 30
0.0000
 42
1.0000
  0
SEQEND
  8
0
  0
POLYLINE
  8
51
 66
1
 10
0.0000
 20
0.0000
 30
0.0000
 40
0.0000
 41
0.0000
 70
1
  0
VERTEX
  8
51
 10
1.6162
 20
16.8530
 30
0.0000
  0
VERTEX
  8
51
 10
1.6162
 20
17.7170
 30
0.0000
 42
1.0000
  0
VERTEX
  8
51
 10
1.4638
 20
17.7170
 30
0.0000
  0
VERTEX
  8
51
 10
1.4638
 20
16.8530
 30
0.0000
 42
1.0000
  0
SEQEND
  8
0
  0
POLYLINE
  8
51
 66
1
 10
0.0000
 20
0.0000
 30
0.0000
 40
0.0000
 41
0.0000
 70
1
  0
VERTEX
  8
51
 10
0.7518
 20
17.7170
 30
0.0000
  0
VERTEX
  8
51
 10
0.7518
 20
16.8530
 30
0.0000
 42
1.0000
  0
VERTEX
  8
51
 10
0.9042
 20
16.8530
 30
0.0000
  0
VERTEX
  8
51
 10
0.9042
 20
17.7170
 30
0.0000
 42
1.0000
  0
SEQEND
  8
0
  0
INSERT
  8
51
  2
RECT
 10
1.1840
 20
17.9200
 30
0.0000
 41
0.4064
 42
0.8636
 43
1.0000
 50
90.0000
  0
INSERT
  8
51
  2
RECT
 10
1.1840
 20
16.6500
 30
0.0000
 41
0.4064
 42
0.8636
 43
1.0000
 50
90.0000
  0
POLYLINE
  8
25
 66
1
 10
0.0000
 20
0.0000
 30
0.0000
 40
0.0000
 41
0.0000
 70
1
  0
VERTEX
  8
25
 10
2.6299
 20
16.2642
 30
0.0000
  0
VERTEX
  8
25
 10
1.8927
 20
16.2642
 30
0.0000
 42
1.0000
  0
VERTEX
  8
25
 10
1.8927
 20
16.1880
 30
0.0000
  0
VERTEX
  8
25
 10
2.6299
 20
16.1880
 30
0.0000
 42
1.0000
  0
SEQEND
  8
0
  0
POLYLINE
  8
25
 66
1
 10
0.0000
 20
0.0000
 30
0.0000
 40
0.0000
 41
0.0000
 70
1
  0
VERTEX
  8
25
 10
1.9308
 20
16.2261
 30
0.0000
  0
VERTEX
  8
25
 10
1.9308
 20
16.5947
 30
0.0000
 42
1.0000
  0
VERTEX
  8
25
 10
1.8546
 20
16.5947
 30
0.0000
  0
VERTEX
  8
25
 10
1.8546
 20
16.2261
 30
0.0000
 42
1.0000
  0
SEQEND
  8
0
  0
POLYLINE
  8
25
 66
1
 10
0.0000
 20
0.0000
 30
0.0000
 40
0.0000
 41
0.0000
 70
1
  0
VERTEX
  8
25
 10
1.9196
 20
16.5678
 30
0.0000
  0
VERTEX
  8
25
 10
2.0425
 20
16.6906
 30
0.0000
 42
1.0000
  0
VERTEX
  8
25
 10
1.9886
 20
16.7445
 30
0.0000
  0
VERTEX
  8
25
 10
1.8657
 20
16.6217
 30
0.0000
 42
1.0000
  0
SEQEND
  8
0
  0
POLYLINE
  8
25
 66
1
 10
0.0000
 20
0.0000
 30
0.0000
 40
0.0000
 41
0.0000
 70
1
  0
VERTEX
  8
25
 10
2.0155
 20
16.6795
 30
0.0000
  0
VERTEX
  8
25
 10
2.2613
 20
16.6795
 30
0.0000
 42
1.0000
  0
VERTEX
  8
25
 10
2.2613
 20
16.7557
 30
0.0000
  0
VERTEX
  8
25
 10
2.0155
 20
16.7557
 30
0.0000
 42
1.0000
  0
SEQEND
  8
0
  0
POLYLINE
  8
25
 66
1
 10
0.0000
 20
0.0000
 30
0.0000
 40
0.0000
 41
0.0000
 70
1
  0
VERTEX
  8
25
 10
2.2343
 20
16.6906
 30
0.0000
  0
VERTEX
  8
25
 10
2.3572
 20
16.5678
 30
0.0000
 42
1.0000
  0
VERTEX
  8
25
 10
2.4111
 20
16.6217
 30
0.0000
  0
VERTEX
  8
25
 10
2.2882
 20
16.7445
 30
0.0000
 42
1.0000
  0
SEQEND
  8
0
  0
POLYLINE
  8
25
 66
1
 10
0.0000
 20
0.0000
 30
0.0000
 40
0.0000
 41
0.0000
 70
1
  0
VERTEX
  8
25
 10
2.3461
 20
16.5947
 30
0.0000
  0
VERTEX
  8
25
 10
2.3461
 20
16.2261
 30
0.0000
 42
1.0000
  0
VERTEX
  8
25
 10
2.4223
 20
16.2261
 30
0.0000
  0
VERTEX
  8
25
 10
2.4223
 20
16.5947
 30
0.0000
 42
1.0000
  0
SEQEND
  8
0
  0
POLYLINE
  8
25
 66
1
 10
0.0000
 20
0.0000
 30
0.0000
 40
0.0000
 41
0.0000
 70
1
  0
VERTEX
  8
25
 10
2.4111
 20
16.4449
 30
0.0000
  0
VERTEX
  8
25
 10
2.6568
 20
16.6906
 30
0.0000
 42
1.0000
  0
VERTEX
  8
25
 10
2.6030
 20
16.7445
 30
0.0000
  0
VERTEX
  8
25
 10
2.3572
 20
16.4988
 30
0.0000
 42
1.0000
  0
SEQEND
  8
0
  0
POLYLINE
  8
25
 66
1
 10
0.0000
 20
0.0000
 30
0.0000
 40
0.0000
 41
0.0000
 70
1
  0
VERTEX
  8
25
 10
2.5918
 20
17.4660
 30
0.0000
  0
VERTEX
  8
25
 10
2.5918
 20
16.9745
 30
0.0000
 42
1.0000
  0
VERTEX
  8
25
 10
2.6680
 20
16.9745
 30
0.0000
  0
VERTEX
  8
25
 10
2.6680
 20
17.4660
 30
0.0000
 42
1.0000
  0
SEQEND
  8
0
  0
POLYLINE
  8
25
 66
1
 10
0.0000
 20
0.0000
 30
0.0000
 40
0.0000
 41
0.0000
 70
1
  0
VERTEX
  8
25
 10
2.6568
 20
17.0015
 30
0.0000
  0
VERTEX
  8
25
 10
2.1654
 20
17.4929
 30
0.0000
 42
1.0000
  0
VERTEX
  8
25
 10
2.1115
 20
17.4391
 30
0.0000
  0
VERTEX
  8
25
 10
2.6030
 20
16.9476
 30
0.0000
 42
1.0000
  0
SEQEND
  8
0
  0
POLYLINE
  8
25
 66
1
 10
0.0000
 20
0.0000
 30
0.0000
 40
0.0000
 41
0.0000
 70
1
  0
VERTEX
  8
25
 10
2.1384
 20
17.5041
 30
0.0000
  0
VERTEX
  8
25
 10
2.0155
 20
17.5041
 30
0.0000
 42
1.0000
  0
VERTEX
  8
25
 10
2.0155
 20
17.4279
 30
0.0000
  0
VERTEX
  8
25
 10
2.1384
 20
17.4279
 30
0.0000
 42
1.0000
  0
SEQEND
  8
0
  0
POLYLINE
  8
25
 66
1
 10
0.0000
 20
0.0000
 30
0.0000
 40
0.0000
 41
0.0000
 70
1
  0
VERTEX
  8
25
 10
1.9886
 20
17.4929
 30
0.0000
  0
VERTEX
  8
25
 10
1.8657
 20
17.3701
 30
0.0000
 42
1.0000
  0
VERTEX
  8
25
 10
1.9196
 20
17.3162
 30
0.0000
  0
VERTEX
  8
25
 10
2.0425
 20
17.4391
 30
0.0000
 42
1.0000
  0
SEQEND
  8
0
  0
POLYLINE
  8
25
 66
1
 10
0.0000
 20
0.0000
 30
0.0000
 40
0.0000
 41
0.0000
 70
1
  0
VERTEX
  8
25
 10
1.8546
 20
17.3431
 30
0.0000
  0
VERTEX
  8
25
 10
1.8546
 20
17.0974
 30
0.0000
 42
1.0000
  0
VERTEX
  8
25
 10
1.9308
 20
17.0974
 30
0.0000
  0
VERTEX
  8
25
 10
1.9308
 20
17.3431
 30
0.0000
 42
1.0000
  0
SEQEND
  8
0
  0
POLYLINE
  8
25
 66
1
 10
0.0000
 20
0.0000
 30
0.0000
 40
0.0000
 41
0.0000
 70
1
  0
VERTEX
  8
25
 10
1.8657
 20
17.0704
 30
0.0000
  0
VERTEX
  8
25
 10
1.9886
 20
16.9476
 30
0.0000
 42
1.0000
  0
VERTEX
  8
25
 10
2.0425
 20
17.0015
 30
0.0000
  0
VERTEX
  8
25
 10
1.9196
 20
17.1243
 30
0.0000
 42
1.0000
  0
SEQEND
  8
0
  0
POLYLINE
  8
25
 66
1
 10
0.0000
 20
0.0000
 30
0.0000
 40
0.0000
 41
0.0000
 70
1
  0
VERTEX
  8
25
 10
1.8586
 20
18.1974
 30
0.0000
  0
VERTEX
  8
25
 10
1.9815
 20
17.9516
 30
0.0000
 42
1.0000
  0
VERTEX
  8
25
 10
2.0496
 20
17.9857
 30
0.0000
  0
VERTEX
  8
25
 10
1.9267
 20
18.2315
 30
0.0000
 42
1.0000
  0
SEQEND
  8
0
  0
POLYLINE
  8
25
 66
1
 10
0.0000
 20
0.0000
 30
0.0000
 40
0.0000
 41
0.0000
 70
1
  0
VERTEX
  8
25
 10
1.9886
 20
17.9417
 30
0.0000
  0
VERTEX
  8
25
 10
2.2343
 20
17.6960
 30
0.0000
 42
1.0000
  0
VERTEX
  8
25
 10
2.2882
 20
17.7499
 30
0.0000
  0
VERTEX
  8
25
 10
2.0425
 20
17.9956
 30
0.0000
 42
1.0000
  0
SEQEND
  8
0
  0
POLYLINE
  8
25
 66
1
 10
0.0000
 20
0.0000
 30
0.0000
 40
0.0000
 41
0.0000
 70
1
  0
VERTEX
  8
25
 10
2.2613
 20
17.6848
 30
0.0000
  0
VERTEX
  8
25
 10
2.5070
 20
17.6848
 30
0.0000
 42
1.0000
  0
VERTEX
  8
25
 10
2.5070
 20
17.7610
 30
0.0000
  0
VERTEX
  8
25
 10
2.2613
 20
17.7610
 30
0.0000
 42
1.0000
  0
SEQEND
  8
0
  0
POLYLINE
  8
25
 66
1
 10
0.0000
 20
0.0000
 30
0.0000
 40
0.0000
 41
0.0000
 70
1
  0
VERTEX
  8
25
 10
2.5340
 20
17.6960
 30
0.0000
  0
VERTEX
  8
25
 10
2.6568
 20
17.8189
 30
0.0000
 42
1.0000
  0
VERTEX
  8
25
 10
2.6030
 20
17.8727
 30
0.0000
  0
VERTEX
  8
25
 10
2.4801
 20
17.7499
 30
0.0000
 42
1.0000
  0
SEQEND
  8
0
  0
POLYLINE
  8
25
 66
1
 10
0.0000
 20
0.0000
 30
0.0000
 40
0.0000
 41
0.0000
 70
1
  0
VERTEX
  8
25
 10
2.6680
 20
17.8458
 30
0.0000
  0
VERTEX
  8
25
 10
2.6680
 20
18.0915
 30
0.0000
 42
1.0000
  0
VERTEX
  8
25
 10
2.5918
 20
18.0915
 30
0.0000
  0
VERTEX
  8
25
 10
2.5918
 20
17.8458
 30
0.0000
 42
1.0000
  0
SEQEND
  8
0
  0
POLYLINE
  8
25
 66
1
 10
0.0000
 20
0.0000
 30
0.0000
 40
0.0000
 41
0.0000
 70
1
  0
VERTEX
  8
25
 10
2.6568
 20
18.1185
 30
0.0000
  0
VERTEX
  8
25
 10
2.5340
 20
18.2414
 30
0.0000
 42
1.0000
  0
VERTEX
  8
25
 10
2.4801
 20
18.1875
 30
0.0000
  0
VERTEX
  8
25
 10
2.6030
 20
18.0646
 30
0.0000
 42
1.0000
  0
SEQEND
  8
0
  0
POLYLINE
  8
25
 66
1
 10
0.0000
 20
0.0000
 30
0.0000
 40
0.0000
 41
0.0000
 70
1
  0
VERTEX
  8
25
 10
2.5070
 20
18.2525
 30
0.0000
  0
VERTEX
  8
25
 10
2.3842
 20
18.2525
 30
0.0000
 42
1.0000
  0
VERTEX
  8
25
 10
2.3842
 20
18.1763
 30
0.0000
  0
VERTEX
  8
25
 10
2.5070
 20
18.1763
 30
0.0000
 42
1.0000
  0
SEQEND
  8
0
  0
POLYLINE
  8
25
 66
1
 10
0.0000
 20
0.0000
 30
0.0000
 40
0.0000
 41
0.0000
 70
1
  0
VERTEX
  8
25
 10
2.3572
 20
18.2414
 30
0.0000
  0
VERTEX
  8
25
 10
2.2343
 20
18.1185
 30
0.0000
 42
1.0000
  0
VERTEX
  8
25
 10
2.2882
 20
18.0646
 30
0.0000
  0
VERTEX
  8
25
 10
2.4111
 20
18.1875
 30
0.0000
 42
1.0000
  0
SEQEND
  8
0
  0
POLYLINE
  8
25
 66
1
 10
0.0000
 20
0.0000
 30
0.0000
 40
0.0000
 41
0.0000
 70
1
  0
VERTEX
  8
25
 10
2.2232
 20
18.0915
 30
0.0000
  0
VERTEX
  8
25
 10
2.2232
 20
17.7229
 30
0.0000
 42
1.0000
  0
VERTEX
  8
25
 10
2.2994
 20
17.7229
 30
0.0000
  0
VERTEX
  8
25
 10
2.2994
 20
18.0915
 30
0.0000
 42
1.0000
  0
SEQEND
  8
0
  0
POLYLINE
  8
51
 66
1
 10
0.0000
 20
0.0000
 30
0.0000
 40
0.0000
 41
0.0000
 70
1
  0
VERTEX
  8
51
 10
1.6440
 20
20.2988
 30
0.0000
  0
VERTEX
  8
51
 10
2.5080
 20
20.2988
 30
0.0000
 42
1.0000
  0
VERTEX
  8
51
 10
2.5080
 20
20.4512
 30
0.0000
  0
VERTEX
  8
51
 10
1.6440
 20
20.4512
 30
0.0000
 42
1.0000
  0
SEQEND
  8
0
  0
POLYLINE
  8
51
 66
1
 10
0.0000
 20
0.0000
 30
0.0000
 40
0.0000
 41
0.0000
 70
1
  0
VERTEX
  8
51
 10
2.5080
 20
21.1632
 30
0.0000
  0
VERTEX
  8
51
 10
1.6440
 20
21.1632
 30
0.0000
 42
1.0000
  0
VERTEX
  8
51
 10
1.6440
 20
21.0108
 30
0.0000
  0
VERTEX
  8
51
 10
2.5080
 20
21.0108
 30
0.0000
 42
1.0000
  0
SEQEND
  8
0
  0
INSERT
  8
51
  2
RECT
 10
2.7110
 20
20.7310
 30
0.0000
 41
0.4064
 42
0.8636
 43
1.0000
 50
0.0000
  0
INSERT
  8
51
  2
RECT
 10
1.4410
 20
20.7310
 30
0.0000
 41
0.4064
 42
0.8636
 43
1.0000
 50
0.0000
  0
POLYLINE
  8
25
 66
1
 10
0.0000
 20
0.0000
 30
0.0000
 40
0.0000
 41
0.0000
 70
1
  0
VERTEX
  8
25
 10
0.7552
 20
21.6581
 30
0.0000
  0
VERTEX
  8
25
 10
0.7552
 20
22.3953
 30
0.0000
 42
1.0000
  0
VERTEX
  8
25
 10
0.6790
 20
22.3953
 30
0.0000
  0
VERTEX
  8
25
 10
0.6790
 20
21.6581
 30
0.0000
 42
1.0000
  0
SEQEND
  8
0
  0
POLYLINE
  8
25
 66
1
 10
0.0000
 20
0.0000
 30
0.0000
 40
0.0000
 41
0.0000
 70
1
  0
VERTEX
  8
25
 10
0.7171
 20
22.3572
 30
0.0000
  0
VERTEX
  8
25
 10
1.0857
 20
22.3572
 30
0.0000
 42
1.0000
  0
VERTEX
  8
25
 10
1.0857
 20
22.4334
 30
0.0000
  0
VERTEX
  8
25
 10
0.7171
 20
22.4334
 30
0.0000
 42
1.0000
  0
SEQEND
  8
0
  0
POLYLINE
  8
25
 66
1
 10
0.0000
 20
0.0000
 30
0.0000
 40
0.0000
 41
0.0000
 70
1
  0
VERTEX
  8
25
 10
1.0588
 20
22.3684
 30
0.0000
  0
VERTEX
  8
25
 10
1.1816
 20
22.2455
 30
0.0000
 42
1.0000
  0
VERTEX
  8
25
 10
1.2355
 20
22.2994
 30
0.0000
  0
VERTEX
  8
25
 10
1.1127
 20
22.4223
 30
0.0000
 42
1.0000
  0
SEQEND
  8
0
  0
POLYLINE
  8
25
 66
1
 10
0.0000
 20
0.0000
 30
0.0000
 40
0.0000
 41
0.0000
 70
1
  0
VERTEX
  8
25
 10
1.1705
 20
22.2725
 30
0.0000
  0
VERTEX
  8
25
 10
1.1705
 20
22.0267
 30
0.0000
 42
1.0000
  0
VERTEX
  8
25
 10
1.2467
 20
22.0267
 30
0.0000
  0
VERTEX
  8
25
 10
1.2467
 20
22.2725
 30
0.0000
 42
1.0000
  0
SEQEND
  8
0
  0
POLYLINE
  8
25
 66
1
 10
0.0000
 20
0.0000
 30
0.0000
 40
0.0000
 41
0.0000
 70
1
  0
VERTEX
  8
25
 10
1.1816
 20
22.0537
 30
0.0000
  0
VERTEX
  8
25
 10
1.0588
 20
21.9308
 30
0.0000
 42
1.0000
  0
VERTEX
  8
25
 10
1.1127
 20
21.8769
 30
0.0000
  0
VERTEX
  8
25
 10
1.2355
 20
21.9998
 30
0.0000
 42
1.0000
  0
SEQEND
  8
0
  0
POLYLINE
  8
25
 66
1
 10
0.0000
 20
0.0000
 30
0.0000
 40
0.0000
 41
0.0000
 70
1
  0
VERTEX
  8
25
 10
1.0857
 20
21.9419
 30
0.0000
  0
VERTEX
  8
25
 10
0.7171
 20
21.9419
 30
0.0000
 42
1.0000
  0
VERTEX
  8
25
 10
0.7171
 20
21.8657
 30
0.0000
  0
VERTEX
  8
25
 10
1.0857
 20
21.8657
 30
0.0000
 42
1.0000
  0
SEQEND
  8
0
  0
POLYLINE
  8
25
 66
1
 10
0.0000
 20
0.0000
 30
0.0000
 40
0.0000
 41
0.0000
 70
1
  0
VERTEX
  8
25
 10
0.9359
 20
21.8769
 30
0.0000
  0
VERTEX
  8
25
 10
1.1816
 20
21.6312
 30
0.0000
 42
1.0000
  0
VERTEX
  8
25
 10
1.2355
 20
21.6850
 30
0.0000
  0
VERTEX
  8
25
 10
0.9898
 20
21.9308
 30
0.0000
 42
1.0000
  0
SEQEND
  8
0
  0
POLYLINE
  8
25
 66
1
 10
0.0000
 20
0.0000
 30
0.0000
 40
0.0000
 41
0.0000
 70
1
  0
VERTEX
  8
25
 10
1.9570
 20
21.6962
 30
0.0000
  0
VERTEX
  8
25
 10
1.4655
 20
21.6962
 30
0.0000
 42
1.0000
  0
VERTEX
  8
25
 10
1.4655
 20
21.6200
 30
0.0000
  0
VERTEX
  8
25
 10
1.9570
 20
21.6200
 30
0.0000
 42
1.0000
  0
SEQEND
  8
0
  0
POLYLINE
  8
25
 66
1
 10
0.0000
 20
0.0000
 30
0.0000
 40
0.0000
 41
0.0000
 70
1
  0
VERTEX
  8
25
 10
1.4925
 20
21.6312
 30
0.0000
  0
VERTEX
  8
25
 10
1.9839
 20
22.1226
 30
0.0000
 42
1.0000
  0
VERTEX
  8
25
 10
1.9301
 20
22.1765
 30
0.0000
  0
VERTEX
  8
25
 10
1.4386
 20
21.6850
 30
0.0000
 42
1.0000
  0
SEQEND
  8
0
  0
POLYLINE
  8
25
 66
1
 10
0.0000
 20
0.0000
 30
0.0000
 40
0.0000
 41
0.0000
 70
1
  0
VERTEX
  8
25
 10
1.9951
 20
22.1496
 30
0.0000
  0
VERTEX
  8
25
 10
1.9951
 20
22.2725
 30
0.0000
 42
1.0000
  0
VERTEX
  8
25
 10
1.9189
 20
22.2725
 30
0.0000
  0
VERTEX
  8
25
 10
1.9189
 20
22.1496
 30
0.0000
 42
1.0000
  0
SEQEND
  8
0
  0
POLYLINE
  8
25
 66
1
 10
0.0000
 20
0.0000
 30
0.0000
 40
0.0000
 41
0.0000
 70
1
  0
VERTEX
  8
25
 10
1.9839
 20
22.2994
 30
0.0000
  0
VERTEX
  8
25
 10
1.8611
 20
22.4223
 30
0.0000
 42
1.0000
  0
VERTEX
  8
25
 10
1.8072
 20
22.3684
 30
0.0000
  0
VERTEX
  8
25
 10
1.9301
 20
22.2455
 30
0.0000
 42
1.0000
  0
SEQEND
  8
0
  0
POLYLINE
  8
25
 66
1
 10
0.0000
 20
0.0000
 30
0.0000
 40
0.0000
 41
0.0000
 70
1
  0
VERTEX
  8
25
 10
1.8341
 20
22.4334
 30
0.0000
  0
VERTEX
  8
25
 10
1.5884
 20
22.4334
 30
0.0000
 42
1.0000
  0
VERTEX
  8
25
 10
1.5884
 20
22.3572
 30
0.0000
  0
VERTEX
  8
25
 10
1.8341
 20
22.3572
 30
0.0000
 42
1.0000
  0
SEQEND
  8
0
  0
POLYLINE
  8
25
 66
1
 10
0.0000
 20
0.0000
 30
0.0000
 40
0.0000
 41
0.0000
 70
1
  0
VERTEX
  8
25
 10
1.5614
 20
22.4223
 30
0.0000
  0
VERTEX
  8
25
 10
1.4386
 20
22.2994
 30
0.0000
 42
1.0000
  0
VERTEX
  8
25
 10
1.4925
 20
22.2455
 30
0.0000
  0
VERTEX
  8
25
 10
1.6153
 20
22.3684
 30
0.0000
 42
1.0000
  0
SEQEND
  8
0
  0
POLYLINE
  8
25
 66
1
 10
0.0000
 20
0.0000
 30
0.0000
 40
0.0000
 41
0.0000
 70
1
  0
VERTEX
  8
25
 10
2.2139
 20
22.3572
 30
0.0000
  0
VERTEX
  8
25
 10
2.7054
 20
22.3572
 30
0.0000
 42
1.0000
  0
VERTEX
  8
25
 10
2.7054
 20
22.4334
 30
0.0000
  0
VERTEX
  8
25
 10
2.2139
 20
22.4334
 30
0.0000
 42
1.0000
  0
SEQEND
  8
0
  0
POLYLINE
  8
25
 66
1
 10
0.0000
 20
0.0000
 30
0.0000
 40
0.0000
 41
0.0000
 70
1
  0
VERTEX
  8
25
 10
2.6673
 20
22.3953
 30
0.0000
  0
VERTEX
  8
25
 10
2.6673
 20
22.2725
 30
0.0000
 42
1.0000
  0
VERTEX
  8
25
 10
2.7435
 20
22.2725
 30
0.0000
  0
VERTEX
  8
25
 10
2.7435
 20
22.3953
 30
0.0000
 42
1.0000
  0
SEQEND
  8
0
  0
POLYLINE
  8
25
 66
1
 10
0.0000
 20
0.0000
 30
0.0000
 40
0.0000
 41
0.0000
 70
1
  0
VERTEX
  8
25
 10
2.6785
 20
22.2994
 30
0.0000
  0
VERTEX
  8
25
 10
2.1870
 20
21.8079
 30
0.0000
 42
1.0000
  0
VERTEX
  8
25
 10
2.2409
 20
21.7540
 30
0.0000
  0
VERTEX
  8
25
 10
2.7324
 20
22.2455
 30
0.0000
 42
1.0000
  0
SEQEND
  8
0
  0
POLYLINE
  8
25
 66
1
 10
0.0000
 20
0.0000
 30
0.0000
 40
0.0000
 41
0.0000
 70
1
  0
VERTEX
  8
25
 10
2.1758
 20
21.7810
 30
0.0000
  0
VERTEX
  8
25
 10
2.1758
 20
21.6581
 30
0.0000
 42
1.0000
  0
VERTEX
  8
25
 10
2.2520
 20
21.6581
 30
0.0000
  0
VERTEX
  8
25
 10
2.2520
 20
21.7810
 30
0.0000
 42
1.0000
  0
SEQEND
  8
0
  0
POLYLINE
  8
22
 66
1
 10
0.0000
 20
0.0000
 30
0.0000
 40
0.0000
 41
0.0000
 70
1
  0
VERTEX
  8
22
 10
15.8685
 20
28.2550
 30
0.0000
  0
VERTEX
  8
22
 10
15.8685
 20
29.5250
 30
0.0000
 42
1.0000
  0
VERTEX
  8
22
 10
15.7415
 20
29.5250
 30
0.0000
  0
VERTEX
  8
22
 10
15.7415
 20
28.2550
 30
0.0000
 42
1.0000
  0
SEQEND
  8
0
  0
CIRCLE
  8
22
 10
14.5350
 20
23.1750
 30
0.0000
 40
4.9365
  0
CIRCLE
  8
22
 10
14.5350
 20
23.1750
 30
0.0000
 40
5.0635
  0
CIRCLE
  8
22
 10
18.3450
 20
28.2550
 30
0.0000
 40
1.0205
  0
INSERT
  8
17
  2
ROUNDP
 10
16.3350
 20
24.9750
 30
0.0000
 41
1.7780
 42
1.7780
 43
1.0000
 50
180.0000
  0
INSERT
  8
17
  2
ROUNDP
 10
16.3350
 20
24.9750
 30
0.0000
 41
1.7780
 42
1.7780
 43
1.0000
 50
180.0000
  0
INSERT
  8
17
  2
ROUNDP
 10
16.3350
 20
21.3750
 30
0.0000
 41
1.7780
 42
1.7780
 43
1.0000
 50
180.0000
  0
INSERT
  8
17
  2
ROUNDP
 10
16.3350
 20
21.3750
 30
0.0000
 41
1.7780
 42
1.7780
 43
1.0000
 50
180.0000
  0
INSERT
  8
17
  2
ROUNDP
 10
12.7350
 20
21.3750
 30
0.0000
 41
1.7780
 42
1.7780
 43
1.0000
 50
180.0000
  0
INSERT
  8
17
  2
ROUNDP
 10
12.7350
 20
21.3750
 30
0.0000
 41
1.7780
 42
1.7780
 43
1.0000
 50
180.0000
  0
INSERT
  8
17
  2
ROUNDP
 10
12.7350
 20
24.9750
 30
0.0000
 41
1.7780
 42
1.7780
 43
1.0000
 50
180.0000
  0
INSERT
  8
17
  2
ROUNDP
 10
12.7350
 20
24.9750
 30
0.0000
 41
1.7780
 42
1.7780
 43
1.0000
 50
180.0000
  0
INSERT
  8
18
  2
ROUNDV
 10
1.8000
 20
14.8500
 30
0.0000
 41
0.8128
 42
0.8128
 43
1.0000
 50
0.0000
  0
INSERT
  8
18
  2
ROUNDV
 10
5.2650
 20
13.9950
 30
0.0000
 41
0.8128
 42
0.8128
 43
1.0000
 50
0.0000
  0
INSERT
  8
18
  2
ROUNDV
 10
1.2150
 20
24.8850
 30
0.0000
 41
0.8128
 42
0.8128
 43
1.0000
 50
0.0000
  0
INSERT
  8
18
  2
ROUNDV
 10
8.7000
 20
23.6000
 30
0.0000
 41
0.8128
 42
0.8128
 43
1.0000
 50
0.0000
  0
LINE
  8
19
 10
12.6900
 20
7.7850
 30
0.0000
 11
12.7000
 21
7.8000
 31
0.0000
  0
INSERT
  8
18
  2
ROUNDV
 10
17.3700
 20
11.0250
 30
0.0000
 41
0.8128
 42
0.8128
 43
1.0000
 50
0.0000
  0
INSERT
  8
18
  2
ROUNDV
 10
4.5450
 20
21.6900
 30
0.0000
 41
0.8128
 42
0.8128
 43
1.0000
 50
0.0000
  0
INSERT
  8
18
  2
ROUNDV
 10
14.4000
 20
27.1350
 30
0.0000
 41
0.8128
 42
0.8128
 43
1.0000
 50
0.0000
  0
INSERT
  8
18
  2
ROUNDV
 10
9.3150
 20
27.3150
 30
0.0000
 41
0.8128
 42
0.8128
 43
1.0000
 50
0.0000
  0
INSERT
  8
18
  2
ROUNDV
 10
11.6000
 20
8.9000
 30
0.0000
 41
0.8128
 42
0.8128
 43
1.0000
 50
0.0000
  0
INSERT
  8
18
  2
ROUNDV
 10
18.4050
 20
22.0050
 30
0.0000
 41
0.8128
 42
0.8128
 43
1.0000
 50
0.0000
  0
INSERT
  8
18
  2
ROUNDV
 10
18.9450
 20
9.2700
 30
0.0000
 41
0.8128
 42
0.8128
 43
1.0000
 50
0.0000
  0
INSERT
  8
18
  2
ROUNDV
 10
4.6000
 20
9.5000
 30
0.0000
 41
0.8128
 42
0.8128
 43
1.0000
 50
0.0000
  0
INSERT
  8
18
  2
ROUNDV
 10
13.2000
 20
13.1000
 30
0.0000
 41
0.8128
 42
0.8128
 43
1.0000
 50
0.0000
  0
INSERT
  8
18
  2
ROUNDV
 10
12.0000
 20
2.1000
 30
0.0000
 41
0.8128
 42
0.8128
 43
1.0000
 50
0.0000
  0
INSERT
  8
18
  2
ROUNDV
 10
5.7150
 20
23.1750
 30
0.0000
 41
0.8128
 42
0.8128
 43
1.0000
 50
0.0000
  0
INSERT
  8
18
  2
ROUNDV
 10
15.7050
 20
9.4500
 30
0.0000
 41
0.8128
 42
0.8128
 43
1.0000
 50
0.0000
  0
INSERT
  8
18
  2
ROUNDV
 10
7.6950
 20
16.0200
 30
0.0000
 41
0.8128
 42
0.8128
 43
1.0000
 50
0.0000
  0
INSERT
  8
18
  2
ROUNDV
 10
12.7350
 20
15.3000
 30
0.0000
 41
0.8128
 42
0.8128
 43
1.0000
 50
0.0000
  0
ENDSEC
  0
EOF
