M48
;GenerationSoftware,Autodesk,EAGLE,9.6.2*%
;CreationDate,2020-12-04T08:21:54Z*%
FMAT,2
ICI,OFF
METRIC,TZ,000.000
T3C1.000
T2C1.400
T1C3.100
%
G90
M71
T1
X6000Y6000
X5000Y49000
X95000Y49000
X94000Y6000
T2
X30000Y15980
X35000Y40020
X30000Y40020
X25000Y40020
X20000Y40020
X15000Y40020
X85000Y40020
X80000Y40020
X75000Y40020
X70000Y40020
X65000Y40020
X60000Y40020
X55000Y40020
X50000Y40020
X45000Y40020
X40000Y40020
X15000Y15980
X20000Y15980
X25000Y15980
X35000Y15980
X40000Y15980
X45000Y15980
X50000Y15980
X55000Y15980
X60000Y15980
X65000Y15980
X70000Y15980
X75000Y15980
X80000Y15980
X85000Y15980
T3
X70040Y23270
X70040Y20730
X67500Y23270
X67500Y20730
X64960Y23270
X64960Y20730
X87540Y36270
X87540Y33730
X85000Y36270
X85000Y33730
X82460Y36270
X82460Y33730
X87540Y23270
X17540Y20730
X85000Y23270
X85000Y20730
X82460Y23270
X82460Y20730
X52540Y36270
X52540Y33730
X50000Y36270
X50000Y33730
X47460Y36270
X47460Y33730
X52540Y23270
X52540Y20730
X50000Y23270
X50000Y20730
X47460Y23270
X47460Y20730
X17540Y36270
X17540Y33730
X15000Y36270
X15000Y33730
X12460Y36270
X12460Y33730
X17540Y23270
X15000Y23270
X15000Y20730
X12460Y23270
X12460Y20730
X35040Y36270
X35040Y33730
X32500Y36270
X32500Y33730
X29960Y36270
X29960Y33730
X35040Y23270
X87540Y20730
X35040Y20730
X32500Y23270
X32500Y20730
X29960Y23270
X29960Y20730
X70040Y36270
X70040Y33730
X67500Y36270
X67500Y33730
X64960Y36270
X64960Y33730
M30