G04 EAGLE Gerber RS-274X export*
G75*
%MOMM*%
%FSLAX34Y34*%
%LPD*%
%INSilk BOTTOM*%
%IPPOS*%
%AMOC8*
5,1,8,0,0,1.08239X$1,22.5*%
G01*
%ADD10C,0.000000*%
%ADD11C,0.152400*%
%ADD12C,0.050000*%
%ADD13C,0.100000*%
%ADD14C,0.200000*%
%ADD15C,0.127000*%


D10*
X0Y0D02*
X1000000Y0D01*
X1000000Y550000D01*
X0Y550000D01*
X0Y0D01*
X44500Y60000D02*
X44505Y60380D01*
X44519Y60761D01*
X44542Y61140D01*
X44575Y61519D01*
X44617Y61897D01*
X44668Y62274D01*
X44728Y62650D01*
X44798Y63024D01*
X44877Y63396D01*
X44965Y63766D01*
X45061Y64134D01*
X45167Y64499D01*
X45282Y64862D01*
X45406Y65222D01*
X45539Y65578D01*
X45680Y65932D01*
X45830Y66281D01*
X45988Y66627D01*
X46155Y66969D01*
X46330Y67307D01*
X46514Y67640D01*
X46705Y67969D01*
X46905Y68292D01*
X47112Y68611D01*
X47327Y68925D01*
X47550Y69233D01*
X47781Y69536D01*
X48018Y69833D01*
X48263Y70124D01*
X48515Y70409D01*
X48774Y70688D01*
X49040Y70960D01*
X49312Y71226D01*
X49591Y71485D01*
X49876Y71737D01*
X50167Y71982D01*
X50464Y72219D01*
X50767Y72450D01*
X51075Y72673D01*
X51389Y72888D01*
X51708Y73095D01*
X52031Y73295D01*
X52360Y73486D01*
X52693Y73670D01*
X53031Y73845D01*
X53373Y74012D01*
X53719Y74170D01*
X54068Y74320D01*
X54422Y74461D01*
X54778Y74594D01*
X55138Y74718D01*
X55501Y74833D01*
X55866Y74939D01*
X56234Y75035D01*
X56604Y75123D01*
X56976Y75202D01*
X57350Y75272D01*
X57726Y75332D01*
X58103Y75383D01*
X58481Y75425D01*
X58860Y75458D01*
X59239Y75481D01*
X59620Y75495D01*
X60000Y75500D01*
X60380Y75495D01*
X60761Y75481D01*
X61140Y75458D01*
X61519Y75425D01*
X61897Y75383D01*
X62274Y75332D01*
X62650Y75272D01*
X63024Y75202D01*
X63396Y75123D01*
X63766Y75035D01*
X64134Y74939D01*
X64499Y74833D01*
X64862Y74718D01*
X65222Y74594D01*
X65578Y74461D01*
X65932Y74320D01*
X66281Y74170D01*
X66627Y74012D01*
X66969Y73845D01*
X67307Y73670D01*
X67640Y73486D01*
X67969Y73295D01*
X68292Y73095D01*
X68611Y72888D01*
X68925Y72673D01*
X69233Y72450D01*
X69536Y72219D01*
X69833Y71982D01*
X70124Y71737D01*
X70409Y71485D01*
X70688Y71226D01*
X70960Y70960D01*
X71226Y70688D01*
X71485Y70409D01*
X71737Y70124D01*
X71982Y69833D01*
X72219Y69536D01*
X72450Y69233D01*
X72673Y68925D01*
X72888Y68611D01*
X73095Y68292D01*
X73295Y67969D01*
X73486Y67640D01*
X73670Y67307D01*
X73845Y66969D01*
X74012Y66627D01*
X74170Y66281D01*
X74320Y65932D01*
X74461Y65578D01*
X74594Y65222D01*
X74718Y64862D01*
X74833Y64499D01*
X74939Y64134D01*
X75035Y63766D01*
X75123Y63396D01*
X75202Y63024D01*
X75272Y62650D01*
X75332Y62274D01*
X75383Y61897D01*
X75425Y61519D01*
X75458Y61140D01*
X75481Y60761D01*
X75495Y60380D01*
X75500Y60000D01*
X75495Y59620D01*
X75481Y59239D01*
X75458Y58860D01*
X75425Y58481D01*
X75383Y58103D01*
X75332Y57726D01*
X75272Y57350D01*
X75202Y56976D01*
X75123Y56604D01*
X75035Y56234D01*
X74939Y55866D01*
X74833Y55501D01*
X74718Y55138D01*
X74594Y54778D01*
X74461Y54422D01*
X74320Y54068D01*
X74170Y53719D01*
X74012Y53373D01*
X73845Y53031D01*
X73670Y52693D01*
X73486Y52360D01*
X73295Y52031D01*
X73095Y51708D01*
X72888Y51389D01*
X72673Y51075D01*
X72450Y50767D01*
X72219Y50464D01*
X71982Y50167D01*
X71737Y49876D01*
X71485Y49591D01*
X71226Y49312D01*
X70960Y49040D01*
X70688Y48774D01*
X70409Y48515D01*
X70124Y48263D01*
X69833Y48018D01*
X69536Y47781D01*
X69233Y47550D01*
X68925Y47327D01*
X68611Y47112D01*
X68292Y46905D01*
X67969Y46705D01*
X67640Y46514D01*
X67307Y46330D01*
X66969Y46155D01*
X66627Y45988D01*
X66281Y45830D01*
X65932Y45680D01*
X65578Y45539D01*
X65222Y45406D01*
X64862Y45282D01*
X64499Y45167D01*
X64134Y45061D01*
X63766Y44965D01*
X63396Y44877D01*
X63024Y44798D01*
X62650Y44728D01*
X62274Y44668D01*
X61897Y44617D01*
X61519Y44575D01*
X61140Y44542D01*
X60761Y44519D01*
X60380Y44505D01*
X60000Y44500D01*
X59620Y44505D01*
X59239Y44519D01*
X58860Y44542D01*
X58481Y44575D01*
X58103Y44617D01*
X57726Y44668D01*
X57350Y44728D01*
X56976Y44798D01*
X56604Y44877D01*
X56234Y44965D01*
X55866Y45061D01*
X55501Y45167D01*
X55138Y45282D01*
X54778Y45406D01*
X54422Y45539D01*
X54068Y45680D01*
X53719Y45830D01*
X53373Y45988D01*
X53031Y46155D01*
X52693Y46330D01*
X52360Y46514D01*
X52031Y46705D01*
X51708Y46905D01*
X51389Y47112D01*
X51075Y47327D01*
X50767Y47550D01*
X50464Y47781D01*
X50167Y48018D01*
X49876Y48263D01*
X49591Y48515D01*
X49312Y48774D01*
X49040Y49040D01*
X48774Y49312D01*
X48515Y49591D01*
X48263Y49876D01*
X48018Y50167D01*
X47781Y50464D01*
X47550Y50767D01*
X47327Y51075D01*
X47112Y51389D01*
X46905Y51708D01*
X46705Y52031D01*
X46514Y52360D01*
X46330Y52693D01*
X46155Y53031D01*
X45988Y53373D01*
X45830Y53719D01*
X45680Y54068D01*
X45539Y54422D01*
X45406Y54778D01*
X45282Y55138D01*
X45167Y55501D01*
X45061Y55866D01*
X44965Y56234D01*
X44877Y56604D01*
X44798Y56976D01*
X44728Y57350D01*
X44668Y57726D01*
X44617Y58103D01*
X44575Y58481D01*
X44542Y58860D01*
X44519Y59239D01*
X44505Y59620D01*
X44500Y60000D01*
X34500Y490000D02*
X34505Y490380D01*
X34519Y490761D01*
X34542Y491140D01*
X34575Y491519D01*
X34617Y491897D01*
X34668Y492274D01*
X34728Y492650D01*
X34798Y493024D01*
X34877Y493396D01*
X34965Y493766D01*
X35061Y494134D01*
X35167Y494499D01*
X35282Y494862D01*
X35406Y495222D01*
X35539Y495578D01*
X35680Y495932D01*
X35830Y496281D01*
X35988Y496627D01*
X36155Y496969D01*
X36330Y497307D01*
X36514Y497640D01*
X36705Y497969D01*
X36905Y498292D01*
X37112Y498611D01*
X37327Y498925D01*
X37550Y499233D01*
X37781Y499536D01*
X38018Y499833D01*
X38263Y500124D01*
X38515Y500409D01*
X38774Y500688D01*
X39040Y500960D01*
X39312Y501226D01*
X39591Y501485D01*
X39876Y501737D01*
X40167Y501982D01*
X40464Y502219D01*
X40767Y502450D01*
X41075Y502673D01*
X41389Y502888D01*
X41708Y503095D01*
X42031Y503295D01*
X42360Y503486D01*
X42693Y503670D01*
X43031Y503845D01*
X43373Y504012D01*
X43719Y504170D01*
X44068Y504320D01*
X44422Y504461D01*
X44778Y504594D01*
X45138Y504718D01*
X45501Y504833D01*
X45866Y504939D01*
X46234Y505035D01*
X46604Y505123D01*
X46976Y505202D01*
X47350Y505272D01*
X47726Y505332D01*
X48103Y505383D01*
X48481Y505425D01*
X48860Y505458D01*
X49239Y505481D01*
X49620Y505495D01*
X50000Y505500D01*
X50380Y505495D01*
X50761Y505481D01*
X51140Y505458D01*
X51519Y505425D01*
X51897Y505383D01*
X52274Y505332D01*
X52650Y505272D01*
X53024Y505202D01*
X53396Y505123D01*
X53766Y505035D01*
X54134Y504939D01*
X54499Y504833D01*
X54862Y504718D01*
X55222Y504594D01*
X55578Y504461D01*
X55932Y504320D01*
X56281Y504170D01*
X56627Y504012D01*
X56969Y503845D01*
X57307Y503670D01*
X57640Y503486D01*
X57969Y503295D01*
X58292Y503095D01*
X58611Y502888D01*
X58925Y502673D01*
X59233Y502450D01*
X59536Y502219D01*
X59833Y501982D01*
X60124Y501737D01*
X60409Y501485D01*
X60688Y501226D01*
X60960Y500960D01*
X61226Y500688D01*
X61485Y500409D01*
X61737Y500124D01*
X61982Y499833D01*
X62219Y499536D01*
X62450Y499233D01*
X62673Y498925D01*
X62888Y498611D01*
X63095Y498292D01*
X63295Y497969D01*
X63486Y497640D01*
X63670Y497307D01*
X63845Y496969D01*
X64012Y496627D01*
X64170Y496281D01*
X64320Y495932D01*
X64461Y495578D01*
X64594Y495222D01*
X64718Y494862D01*
X64833Y494499D01*
X64939Y494134D01*
X65035Y493766D01*
X65123Y493396D01*
X65202Y493024D01*
X65272Y492650D01*
X65332Y492274D01*
X65383Y491897D01*
X65425Y491519D01*
X65458Y491140D01*
X65481Y490761D01*
X65495Y490380D01*
X65500Y490000D01*
X65495Y489620D01*
X65481Y489239D01*
X65458Y488860D01*
X65425Y488481D01*
X65383Y488103D01*
X65332Y487726D01*
X65272Y487350D01*
X65202Y486976D01*
X65123Y486604D01*
X65035Y486234D01*
X64939Y485866D01*
X64833Y485501D01*
X64718Y485138D01*
X64594Y484778D01*
X64461Y484422D01*
X64320Y484068D01*
X64170Y483719D01*
X64012Y483373D01*
X63845Y483031D01*
X63670Y482693D01*
X63486Y482360D01*
X63295Y482031D01*
X63095Y481708D01*
X62888Y481389D01*
X62673Y481075D01*
X62450Y480767D01*
X62219Y480464D01*
X61982Y480167D01*
X61737Y479876D01*
X61485Y479591D01*
X61226Y479312D01*
X60960Y479040D01*
X60688Y478774D01*
X60409Y478515D01*
X60124Y478263D01*
X59833Y478018D01*
X59536Y477781D01*
X59233Y477550D01*
X58925Y477327D01*
X58611Y477112D01*
X58292Y476905D01*
X57969Y476705D01*
X57640Y476514D01*
X57307Y476330D01*
X56969Y476155D01*
X56627Y475988D01*
X56281Y475830D01*
X55932Y475680D01*
X55578Y475539D01*
X55222Y475406D01*
X54862Y475282D01*
X54499Y475167D01*
X54134Y475061D01*
X53766Y474965D01*
X53396Y474877D01*
X53024Y474798D01*
X52650Y474728D01*
X52274Y474668D01*
X51897Y474617D01*
X51519Y474575D01*
X51140Y474542D01*
X50761Y474519D01*
X50380Y474505D01*
X50000Y474500D01*
X49620Y474505D01*
X49239Y474519D01*
X48860Y474542D01*
X48481Y474575D01*
X48103Y474617D01*
X47726Y474668D01*
X47350Y474728D01*
X46976Y474798D01*
X46604Y474877D01*
X46234Y474965D01*
X45866Y475061D01*
X45501Y475167D01*
X45138Y475282D01*
X44778Y475406D01*
X44422Y475539D01*
X44068Y475680D01*
X43719Y475830D01*
X43373Y475988D01*
X43031Y476155D01*
X42693Y476330D01*
X42360Y476514D01*
X42031Y476705D01*
X41708Y476905D01*
X41389Y477112D01*
X41075Y477327D01*
X40767Y477550D01*
X40464Y477781D01*
X40167Y478018D01*
X39876Y478263D01*
X39591Y478515D01*
X39312Y478774D01*
X39040Y479040D01*
X38774Y479312D01*
X38515Y479591D01*
X38263Y479876D01*
X38018Y480167D01*
X37781Y480464D01*
X37550Y480767D01*
X37327Y481075D01*
X37112Y481389D01*
X36905Y481708D01*
X36705Y482031D01*
X36514Y482360D01*
X36330Y482693D01*
X36155Y483031D01*
X35988Y483373D01*
X35830Y483719D01*
X35680Y484068D01*
X35539Y484422D01*
X35406Y484778D01*
X35282Y485138D01*
X35167Y485501D01*
X35061Y485866D01*
X34965Y486234D01*
X34877Y486604D01*
X34798Y486976D01*
X34728Y487350D01*
X34668Y487726D01*
X34617Y488103D01*
X34575Y488481D01*
X34542Y488860D01*
X34519Y489239D01*
X34505Y489620D01*
X34500Y490000D01*
X934500Y490000D02*
X934505Y490380D01*
X934519Y490761D01*
X934542Y491140D01*
X934575Y491519D01*
X934617Y491897D01*
X934668Y492274D01*
X934728Y492650D01*
X934798Y493024D01*
X934877Y493396D01*
X934965Y493766D01*
X935061Y494134D01*
X935167Y494499D01*
X935282Y494862D01*
X935406Y495222D01*
X935539Y495578D01*
X935680Y495932D01*
X935830Y496281D01*
X935988Y496627D01*
X936155Y496969D01*
X936330Y497307D01*
X936514Y497640D01*
X936705Y497969D01*
X936905Y498292D01*
X937112Y498611D01*
X937327Y498925D01*
X937550Y499233D01*
X937781Y499536D01*
X938018Y499833D01*
X938263Y500124D01*
X938515Y500409D01*
X938774Y500688D01*
X939040Y500960D01*
X939312Y501226D01*
X939591Y501485D01*
X939876Y501737D01*
X940167Y501982D01*
X940464Y502219D01*
X940767Y502450D01*
X941075Y502673D01*
X941389Y502888D01*
X941708Y503095D01*
X942031Y503295D01*
X942360Y503486D01*
X942693Y503670D01*
X943031Y503845D01*
X943373Y504012D01*
X943719Y504170D01*
X944068Y504320D01*
X944422Y504461D01*
X944778Y504594D01*
X945138Y504718D01*
X945501Y504833D01*
X945866Y504939D01*
X946234Y505035D01*
X946604Y505123D01*
X946976Y505202D01*
X947350Y505272D01*
X947726Y505332D01*
X948103Y505383D01*
X948481Y505425D01*
X948860Y505458D01*
X949239Y505481D01*
X949620Y505495D01*
X950000Y505500D01*
X950380Y505495D01*
X950761Y505481D01*
X951140Y505458D01*
X951519Y505425D01*
X951897Y505383D01*
X952274Y505332D01*
X952650Y505272D01*
X953024Y505202D01*
X953396Y505123D01*
X953766Y505035D01*
X954134Y504939D01*
X954499Y504833D01*
X954862Y504718D01*
X955222Y504594D01*
X955578Y504461D01*
X955932Y504320D01*
X956281Y504170D01*
X956627Y504012D01*
X956969Y503845D01*
X957307Y503670D01*
X957640Y503486D01*
X957969Y503295D01*
X958292Y503095D01*
X958611Y502888D01*
X958925Y502673D01*
X959233Y502450D01*
X959536Y502219D01*
X959833Y501982D01*
X960124Y501737D01*
X960409Y501485D01*
X960688Y501226D01*
X960960Y500960D01*
X961226Y500688D01*
X961485Y500409D01*
X961737Y500124D01*
X961982Y499833D01*
X962219Y499536D01*
X962450Y499233D01*
X962673Y498925D01*
X962888Y498611D01*
X963095Y498292D01*
X963295Y497969D01*
X963486Y497640D01*
X963670Y497307D01*
X963845Y496969D01*
X964012Y496627D01*
X964170Y496281D01*
X964320Y495932D01*
X964461Y495578D01*
X964594Y495222D01*
X964718Y494862D01*
X964833Y494499D01*
X964939Y494134D01*
X965035Y493766D01*
X965123Y493396D01*
X965202Y493024D01*
X965272Y492650D01*
X965332Y492274D01*
X965383Y491897D01*
X965425Y491519D01*
X965458Y491140D01*
X965481Y490761D01*
X965495Y490380D01*
X965500Y490000D01*
X965495Y489620D01*
X965481Y489239D01*
X965458Y488860D01*
X965425Y488481D01*
X965383Y488103D01*
X965332Y487726D01*
X965272Y487350D01*
X965202Y486976D01*
X965123Y486604D01*
X965035Y486234D01*
X964939Y485866D01*
X964833Y485501D01*
X964718Y485138D01*
X964594Y484778D01*
X964461Y484422D01*
X964320Y484068D01*
X964170Y483719D01*
X964012Y483373D01*
X963845Y483031D01*
X963670Y482693D01*
X963486Y482360D01*
X963295Y482031D01*
X963095Y481708D01*
X962888Y481389D01*
X962673Y481075D01*
X962450Y480767D01*
X962219Y480464D01*
X961982Y480167D01*
X961737Y479876D01*
X961485Y479591D01*
X961226Y479312D01*
X960960Y479040D01*
X960688Y478774D01*
X960409Y478515D01*
X960124Y478263D01*
X959833Y478018D01*
X959536Y477781D01*
X959233Y477550D01*
X958925Y477327D01*
X958611Y477112D01*
X958292Y476905D01*
X957969Y476705D01*
X957640Y476514D01*
X957307Y476330D01*
X956969Y476155D01*
X956627Y475988D01*
X956281Y475830D01*
X955932Y475680D01*
X955578Y475539D01*
X955222Y475406D01*
X954862Y475282D01*
X954499Y475167D01*
X954134Y475061D01*
X953766Y474965D01*
X953396Y474877D01*
X953024Y474798D01*
X952650Y474728D01*
X952274Y474668D01*
X951897Y474617D01*
X951519Y474575D01*
X951140Y474542D01*
X950761Y474519D01*
X950380Y474505D01*
X950000Y474500D01*
X949620Y474505D01*
X949239Y474519D01*
X948860Y474542D01*
X948481Y474575D01*
X948103Y474617D01*
X947726Y474668D01*
X947350Y474728D01*
X946976Y474798D01*
X946604Y474877D01*
X946234Y474965D01*
X945866Y475061D01*
X945501Y475167D01*
X945138Y475282D01*
X944778Y475406D01*
X944422Y475539D01*
X944068Y475680D01*
X943719Y475830D01*
X943373Y475988D01*
X943031Y476155D01*
X942693Y476330D01*
X942360Y476514D01*
X942031Y476705D01*
X941708Y476905D01*
X941389Y477112D01*
X941075Y477327D01*
X940767Y477550D01*
X940464Y477781D01*
X940167Y478018D01*
X939876Y478263D01*
X939591Y478515D01*
X939312Y478774D01*
X939040Y479040D01*
X938774Y479312D01*
X938515Y479591D01*
X938263Y479876D01*
X938018Y480167D01*
X937781Y480464D01*
X937550Y480767D01*
X937327Y481075D01*
X937112Y481389D01*
X936905Y481708D01*
X936705Y482031D01*
X936514Y482360D01*
X936330Y482693D01*
X936155Y483031D01*
X935988Y483373D01*
X935830Y483719D01*
X935680Y484068D01*
X935539Y484422D01*
X935406Y484778D01*
X935282Y485138D01*
X935167Y485501D01*
X935061Y485866D01*
X934965Y486234D01*
X934877Y486604D01*
X934798Y486976D01*
X934728Y487350D01*
X934668Y487726D01*
X934617Y488103D01*
X934575Y488481D01*
X934542Y488860D01*
X934519Y489239D01*
X934505Y489620D01*
X934500Y490000D01*
X924500Y60000D02*
X924505Y60380D01*
X924519Y60761D01*
X924542Y61140D01*
X924575Y61519D01*
X924617Y61897D01*
X924668Y62274D01*
X924728Y62650D01*
X924798Y63024D01*
X924877Y63396D01*
X924965Y63766D01*
X925061Y64134D01*
X925167Y64499D01*
X925282Y64862D01*
X925406Y65222D01*
X925539Y65578D01*
X925680Y65932D01*
X925830Y66281D01*
X925988Y66627D01*
X926155Y66969D01*
X926330Y67307D01*
X926514Y67640D01*
X926705Y67969D01*
X926905Y68292D01*
X927112Y68611D01*
X927327Y68925D01*
X927550Y69233D01*
X927781Y69536D01*
X928018Y69833D01*
X928263Y70124D01*
X928515Y70409D01*
X928774Y70688D01*
X929040Y70960D01*
X929312Y71226D01*
X929591Y71485D01*
X929876Y71737D01*
X930167Y71982D01*
X930464Y72219D01*
X930767Y72450D01*
X931075Y72673D01*
X931389Y72888D01*
X931708Y73095D01*
X932031Y73295D01*
X932360Y73486D01*
X932693Y73670D01*
X933031Y73845D01*
X933373Y74012D01*
X933719Y74170D01*
X934068Y74320D01*
X934422Y74461D01*
X934778Y74594D01*
X935138Y74718D01*
X935501Y74833D01*
X935866Y74939D01*
X936234Y75035D01*
X936604Y75123D01*
X936976Y75202D01*
X937350Y75272D01*
X937726Y75332D01*
X938103Y75383D01*
X938481Y75425D01*
X938860Y75458D01*
X939239Y75481D01*
X939620Y75495D01*
X940000Y75500D01*
X940380Y75495D01*
X940761Y75481D01*
X941140Y75458D01*
X941519Y75425D01*
X941897Y75383D01*
X942274Y75332D01*
X942650Y75272D01*
X943024Y75202D01*
X943396Y75123D01*
X943766Y75035D01*
X944134Y74939D01*
X944499Y74833D01*
X944862Y74718D01*
X945222Y74594D01*
X945578Y74461D01*
X945932Y74320D01*
X946281Y74170D01*
X946627Y74012D01*
X946969Y73845D01*
X947307Y73670D01*
X947640Y73486D01*
X947969Y73295D01*
X948292Y73095D01*
X948611Y72888D01*
X948925Y72673D01*
X949233Y72450D01*
X949536Y72219D01*
X949833Y71982D01*
X950124Y71737D01*
X950409Y71485D01*
X950688Y71226D01*
X950960Y70960D01*
X951226Y70688D01*
X951485Y70409D01*
X951737Y70124D01*
X951982Y69833D01*
X952219Y69536D01*
X952450Y69233D01*
X952673Y68925D01*
X952888Y68611D01*
X953095Y68292D01*
X953295Y67969D01*
X953486Y67640D01*
X953670Y67307D01*
X953845Y66969D01*
X954012Y66627D01*
X954170Y66281D01*
X954320Y65932D01*
X954461Y65578D01*
X954594Y65222D01*
X954718Y64862D01*
X954833Y64499D01*
X954939Y64134D01*
X955035Y63766D01*
X955123Y63396D01*
X955202Y63024D01*
X955272Y62650D01*
X955332Y62274D01*
X955383Y61897D01*
X955425Y61519D01*
X955458Y61140D01*
X955481Y60761D01*
X955495Y60380D01*
X955500Y60000D01*
X955495Y59620D01*
X955481Y59239D01*
X955458Y58860D01*
X955425Y58481D01*
X955383Y58103D01*
X955332Y57726D01*
X955272Y57350D01*
X955202Y56976D01*
X955123Y56604D01*
X955035Y56234D01*
X954939Y55866D01*
X954833Y55501D01*
X954718Y55138D01*
X954594Y54778D01*
X954461Y54422D01*
X954320Y54068D01*
X954170Y53719D01*
X954012Y53373D01*
X953845Y53031D01*
X953670Y52693D01*
X953486Y52360D01*
X953295Y52031D01*
X953095Y51708D01*
X952888Y51389D01*
X952673Y51075D01*
X952450Y50767D01*
X952219Y50464D01*
X951982Y50167D01*
X951737Y49876D01*
X951485Y49591D01*
X951226Y49312D01*
X950960Y49040D01*
X950688Y48774D01*
X950409Y48515D01*
X950124Y48263D01*
X949833Y48018D01*
X949536Y47781D01*
X949233Y47550D01*
X948925Y47327D01*
X948611Y47112D01*
X948292Y46905D01*
X947969Y46705D01*
X947640Y46514D01*
X947307Y46330D01*
X946969Y46155D01*
X946627Y45988D01*
X946281Y45830D01*
X945932Y45680D01*
X945578Y45539D01*
X945222Y45406D01*
X944862Y45282D01*
X944499Y45167D01*
X944134Y45061D01*
X943766Y44965D01*
X943396Y44877D01*
X943024Y44798D01*
X942650Y44728D01*
X942274Y44668D01*
X941897Y44617D01*
X941519Y44575D01*
X941140Y44542D01*
X940761Y44519D01*
X940380Y44505D01*
X940000Y44500D01*
X939620Y44505D01*
X939239Y44519D01*
X938860Y44542D01*
X938481Y44575D01*
X938103Y44617D01*
X937726Y44668D01*
X937350Y44728D01*
X936976Y44798D01*
X936604Y44877D01*
X936234Y44965D01*
X935866Y45061D01*
X935501Y45167D01*
X935138Y45282D01*
X934778Y45406D01*
X934422Y45539D01*
X934068Y45680D01*
X933719Y45830D01*
X933373Y45988D01*
X933031Y46155D01*
X932693Y46330D01*
X932360Y46514D01*
X932031Y46705D01*
X931708Y46905D01*
X931389Y47112D01*
X931075Y47327D01*
X930767Y47550D01*
X930464Y47781D01*
X930167Y48018D01*
X929876Y48263D01*
X929591Y48515D01*
X929312Y48774D01*
X929040Y49040D01*
X928774Y49312D01*
X928515Y49591D01*
X928263Y49876D01*
X928018Y50167D01*
X927781Y50464D01*
X927550Y50767D01*
X927327Y51075D01*
X927112Y51389D01*
X926905Y51708D01*
X926705Y52031D01*
X926514Y52360D01*
X926330Y52693D01*
X926155Y53031D01*
X925988Y53373D01*
X925830Y53719D01*
X925680Y54068D01*
X925539Y54422D01*
X925406Y54778D01*
X925282Y55138D01*
X925167Y55501D01*
X925061Y55866D01*
X924965Y56234D01*
X924877Y56604D01*
X924798Y56976D01*
X924728Y57350D01*
X924668Y57726D01*
X924617Y58103D01*
X924575Y58481D01*
X924542Y58860D01*
X924519Y59239D01*
X924505Y59620D01*
X924500Y60000D01*
D11*
X174625Y295947D02*
X174625Y306794D01*
X169202Y312217D01*
X163778Y306794D01*
X163778Y295947D01*
X163778Y304082D02*
X174625Y304082D01*
X158253Y306794D02*
X152830Y312217D01*
X152830Y295947D01*
X158253Y295947D02*
X147407Y295947D01*
X141882Y295947D02*
X141882Y298659D01*
X139170Y298659D01*
X139170Y295947D01*
X141882Y295947D01*
X133696Y295947D02*
X122850Y295947D01*
X133696Y295947D02*
X122850Y306794D01*
X122850Y309505D01*
X125561Y312217D01*
X130984Y312217D01*
X133696Y309505D01*
X172085Y267551D02*
X172085Y256704D01*
X172085Y267551D02*
X166662Y272974D01*
X161238Y267551D01*
X161238Y256704D01*
X161238Y264839D02*
X172085Y264839D01*
X155713Y267551D02*
X150290Y272974D01*
X150290Y256704D01*
X155713Y256704D02*
X144867Y256704D01*
X139342Y256704D02*
X139342Y259416D01*
X136630Y259416D01*
X136630Y256704D01*
X139342Y256704D01*
X131156Y270262D02*
X128444Y272974D01*
X123021Y272974D01*
X120310Y270262D01*
X120310Y267551D01*
X123021Y264839D01*
X125733Y264839D01*
X123021Y264839D02*
X120310Y262127D01*
X120310Y259416D01*
X123021Y256704D01*
X128444Y256704D01*
X131156Y259416D01*
X348298Y295376D02*
X348298Y306222D01*
X342874Y311645D01*
X337451Y306222D01*
X337451Y295376D01*
X337451Y303510D02*
X348298Y303510D01*
X331926Y306222D02*
X326503Y311645D01*
X326503Y295376D01*
X331926Y295376D02*
X321079Y295376D01*
X315554Y295376D02*
X315554Y298087D01*
X312843Y298087D01*
X312843Y295376D01*
X315554Y295376D01*
X307369Y306222D02*
X301945Y311645D01*
X301945Y295376D01*
X296522Y295376D02*
X307369Y295376D01*
X349695Y265011D02*
X349695Y254164D01*
X349695Y265011D02*
X344271Y270434D01*
X338848Y265011D01*
X338848Y254164D01*
X338848Y262299D02*
X349695Y262299D01*
X333323Y265011D02*
X327900Y270434D01*
X327900Y254164D01*
X333323Y254164D02*
X322476Y254164D01*
X316951Y254164D02*
X316951Y256876D01*
X314240Y256876D01*
X314240Y254164D01*
X316951Y254164D01*
X308766Y256876D02*
X308766Y267722D01*
X306054Y270434D01*
X300631Y270434D01*
X297919Y267722D01*
X297919Y256876D01*
X300631Y254164D01*
X306054Y254164D01*
X308766Y256876D01*
X297919Y267722D01*
X522542Y294804D02*
X522542Y305651D01*
X517118Y311074D01*
X511695Y305651D01*
X511695Y294804D01*
X511695Y302939D02*
X522542Y302939D01*
X506170Y308362D02*
X503458Y311074D01*
X498035Y311074D01*
X495323Y308362D01*
X495323Y305651D01*
X498035Y302939D01*
X500747Y302939D01*
X498035Y302939D02*
X495323Y300227D01*
X495323Y297516D01*
X498035Y294804D01*
X503458Y294804D01*
X506170Y297516D01*
X489798Y297516D02*
X489798Y294804D01*
X489798Y297516D02*
X487087Y297516D01*
X487087Y294804D01*
X489798Y294804D01*
X481613Y305651D02*
X476189Y311074D01*
X476189Y294804D01*
X470766Y294804D02*
X481613Y294804D01*
X523113Y275171D02*
X523113Y264324D01*
X523113Y275171D02*
X517690Y280594D01*
X512266Y275171D01*
X512266Y264324D01*
X512266Y272459D02*
X523113Y272459D01*
X506741Y277882D02*
X504030Y280594D01*
X498607Y280594D01*
X495895Y277882D01*
X495895Y275171D01*
X498607Y272459D01*
X501318Y272459D01*
X498607Y272459D02*
X495895Y269747D01*
X495895Y267036D01*
X498607Y264324D01*
X504030Y264324D01*
X506741Y267036D01*
X490370Y267036D02*
X490370Y264324D01*
X490370Y267036D02*
X487658Y267036D01*
X487658Y264324D01*
X490370Y264324D01*
X482184Y264324D02*
X471338Y264324D01*
X482184Y264324D02*
X471338Y275171D01*
X471338Y277882D01*
X474049Y280594D01*
X479472Y280594D01*
X482184Y277882D01*
X698754Y294804D02*
X698754Y305651D01*
X693331Y311074D01*
X687907Y305651D01*
X687907Y294804D01*
X687907Y302939D02*
X698754Y302939D01*
X682382Y294804D02*
X671536Y294804D01*
X682382Y294804D02*
X671536Y305651D01*
X671536Y308362D01*
X674248Y311074D01*
X679671Y311074D01*
X682382Y308362D01*
X666011Y297516D02*
X666011Y294804D01*
X666011Y297516D02*
X663299Y297516D01*
X663299Y294804D01*
X666011Y294804D01*
X657825Y294804D02*
X646979Y294804D01*
X657825Y294804D02*
X646979Y305651D01*
X646979Y308362D01*
X649690Y311074D01*
X655113Y311074D01*
X657825Y308362D01*
X699897Y266979D02*
X699897Y256133D01*
X699897Y266979D02*
X694474Y272402D01*
X689050Y266979D01*
X689050Y256133D01*
X689050Y264267D02*
X699897Y264267D01*
X683525Y256133D02*
X672679Y256133D01*
X683525Y256133D02*
X672679Y266979D01*
X672679Y269691D01*
X675391Y272402D01*
X680814Y272402D01*
X683525Y269691D01*
X667154Y258844D02*
X667154Y256133D01*
X667154Y258844D02*
X664442Y258844D01*
X664442Y256133D01*
X667154Y256133D01*
X658968Y269691D02*
X656256Y272402D01*
X650833Y272402D01*
X648122Y269691D01*
X648122Y266979D01*
X650833Y264267D01*
X653545Y264267D01*
X650833Y264267D02*
X648122Y261556D01*
X648122Y258844D01*
X650833Y256133D01*
X656256Y256133D01*
X658968Y258844D01*
X875538Y295376D02*
X875538Y306222D01*
X870115Y311645D01*
X864691Y306222D01*
X864691Y295376D01*
X864691Y303510D02*
X875538Y303510D01*
X859166Y295376D02*
X848320Y295376D01*
X859166Y295376D02*
X848320Y306222D01*
X848320Y308934D01*
X851032Y311645D01*
X856455Y311645D01*
X859166Y308934D01*
X842795Y298087D02*
X842795Y295376D01*
X842795Y298087D02*
X840083Y298087D01*
X840083Y295376D01*
X842795Y295376D01*
X834609Y306222D02*
X829186Y311645D01*
X829186Y295376D01*
X834609Y295376D02*
X823763Y295376D01*
X872427Y264439D02*
X872427Y253593D01*
X872427Y264439D02*
X867003Y269862D01*
X861580Y264439D01*
X861580Y253593D01*
X861580Y261727D02*
X872427Y261727D01*
X856055Y253593D02*
X845208Y253593D01*
X845208Y264439D02*
X856055Y253593D01*
X845208Y264439D02*
X845208Y267151D01*
X847920Y269862D01*
X853343Y269862D01*
X856055Y267151D01*
X839683Y256304D02*
X839683Y253593D01*
X839683Y256304D02*
X836972Y256304D01*
X836972Y253593D01*
X839683Y253593D01*
X831498Y256304D02*
X831498Y267151D01*
X828786Y269862D01*
X823363Y269862D01*
X820651Y267151D01*
X820651Y256304D01*
X823363Y253593D01*
X828786Y253593D01*
X831498Y256304D01*
X820651Y267151D01*
X572676Y237165D02*
X571263Y235751D01*
X572676Y237165D02*
X575504Y237165D01*
X576918Y235751D01*
X576918Y230096D01*
X575504Y228682D01*
X572676Y228682D01*
X571263Y230096D01*
X571263Y232924D01*
X574090Y232924D01*
X567710Y237165D02*
X567710Y228682D01*
X562055Y228682D02*
X567710Y237165D01*
X562055Y237165D02*
X562055Y228682D01*
X558502Y228682D02*
X558502Y237165D01*
X558502Y228682D02*
X554261Y228682D01*
X552847Y230096D01*
X552847Y235751D01*
X554261Y237165D01*
X558502Y237165D01*
X616598Y208418D02*
X616598Y202762D01*
X616598Y208418D02*
X613770Y211245D01*
X610943Y208418D01*
X610943Y202762D01*
X610943Y207004D02*
X616598Y207004D01*
X607390Y208418D02*
X607390Y202762D01*
X607390Y208418D02*
X603149Y208418D01*
X601735Y207004D01*
X601735Y202762D01*
X596768Y208418D02*
X593941Y208418D01*
X592527Y207004D01*
X592527Y202762D01*
X596768Y202762D01*
X598182Y204176D01*
X596768Y205590D01*
X592527Y205590D01*
X588974Y211245D02*
X587561Y211245D01*
X587561Y202762D01*
X588974Y202762D02*
X586147Y202762D01*
X581422Y202762D02*
X578594Y202762D01*
X577180Y204176D01*
X577180Y207004D01*
X578594Y208418D01*
X581422Y208418D01*
X582836Y207004D01*
X582836Y204176D01*
X581422Y202762D01*
X570800Y199934D02*
X569386Y199934D01*
X567973Y201348D01*
X567973Y208418D01*
X572214Y208418D01*
X573628Y207004D01*
X573628Y204176D01*
X572214Y202762D01*
X567973Y202762D01*
X564420Y202762D02*
X561592Y202762D01*
X563006Y202762D02*
X563006Y211245D01*
X564420Y211245D02*
X561592Y211245D01*
X558282Y211245D02*
X558282Y202762D01*
X552626Y202762D02*
X558282Y211245D01*
X552626Y211245D02*
X552626Y202762D01*
X444836Y238445D02*
X443423Y237031D01*
X444836Y238445D02*
X447664Y238445D01*
X449078Y237031D01*
X449078Y235618D01*
X447664Y234204D01*
X444836Y234204D01*
X443423Y232790D01*
X443423Y231376D01*
X444836Y229962D01*
X447664Y229962D01*
X449078Y231376D01*
X439870Y229962D02*
X439870Y238445D01*
X439870Y229962D02*
X435629Y229962D01*
X434215Y231376D01*
X434215Y237031D01*
X435629Y238445D01*
X439870Y238445D01*
X430662Y235618D02*
X430662Y229962D01*
X430662Y235618D02*
X427835Y238445D01*
X425007Y235618D01*
X425007Y229962D01*
X425007Y234204D02*
X430662Y234204D01*
X421454Y228548D02*
X415799Y228548D01*
X412247Y238445D02*
X406591Y238445D01*
X412247Y238445D02*
X412247Y234204D01*
X409419Y235618D01*
X408005Y235618D01*
X406591Y234204D01*
X406591Y231376D01*
X408005Y229962D01*
X410833Y229962D01*
X412247Y231376D01*
X403039Y232790D02*
X403039Y238445D01*
X403039Y232790D02*
X400211Y229962D01*
X397383Y232790D01*
X397383Y238445D01*
X444063Y209511D02*
X445476Y210925D01*
X448304Y210925D01*
X449718Y209511D01*
X449718Y208098D01*
X448304Y206684D01*
X445476Y206684D01*
X444063Y205270D01*
X444063Y203856D01*
X445476Y202442D01*
X448304Y202442D01*
X449718Y203856D01*
X436269Y210925D02*
X434855Y209511D01*
X436269Y210925D02*
X439096Y210925D01*
X440510Y209511D01*
X440510Y203856D01*
X439096Y202442D01*
X436269Y202442D01*
X434855Y203856D01*
X431302Y202442D02*
X431302Y210925D01*
X431302Y202442D02*
X425647Y202442D01*
X422094Y201028D02*
X416439Y201028D01*
X412887Y210925D02*
X407231Y210925D01*
X412887Y210925D02*
X412887Y206684D01*
X410059Y208098D01*
X408645Y208098D01*
X407231Y206684D01*
X407231Y203856D01*
X408645Y202442D01*
X411473Y202442D01*
X412887Y203856D01*
X403679Y205270D02*
X403679Y210925D01*
X403679Y205270D02*
X400851Y202442D01*
X398023Y205270D01*
X398023Y210925D01*
X500783Y258925D02*
X506438Y258925D01*
X506438Y254684D01*
X503610Y256098D01*
X502196Y256098D01*
X500783Y254684D01*
X500783Y251856D01*
X502196Y250442D01*
X505024Y250442D01*
X506438Y251856D01*
X497230Y253270D02*
X497230Y258925D01*
X497230Y253270D02*
X494402Y250442D01*
X491575Y253270D01*
X491575Y258925D01*
X517743Y190125D02*
X523398Y190125D01*
X523398Y185884D01*
X520570Y187298D01*
X519156Y187298D01*
X517743Y185884D01*
X517743Y183056D01*
X519156Y181642D01*
X521984Y181642D01*
X523398Y183056D01*
X514190Y184470D02*
X514190Y190125D01*
X514190Y184470D02*
X511362Y181642D01*
X508535Y184470D01*
X508535Y190125D01*
X504982Y181642D02*
X499327Y190125D01*
X495774Y190125D02*
X495774Y181642D01*
X495774Y185884D02*
X490119Y185884D01*
X490119Y190125D02*
X490119Y181642D01*
X486567Y187298D02*
X485153Y187298D01*
X485153Y181642D01*
X486567Y181642D02*
X483739Y181642D01*
X485153Y190125D02*
X485153Y191539D01*
X480428Y190125D02*
X474773Y190125D01*
X474773Y188711D01*
X480428Y183056D01*
X480428Y181642D01*
X474773Y181642D01*
D12*
X193150Y377250D02*
X106850Y377250D01*
X106850Y320350D01*
X193150Y320350D01*
X193150Y377250D01*
D13*
X190650Y374750D02*
X109350Y374750D01*
X109350Y325250D01*
X190650Y325250D01*
X190650Y374750D01*
D14*
X175400Y375950D02*
X109350Y375950D01*
X109350Y322850D01*
X190650Y322850D01*
X190650Y362700D01*
D15*
X103519Y343629D02*
X99494Y343629D01*
X98689Y344434D01*
X98689Y346044D01*
X99494Y346849D01*
X103519Y346849D01*
X101909Y349242D02*
X103519Y350852D01*
X98689Y350852D01*
X98689Y349242D02*
X98689Y352462D01*
D12*
X106850Y247250D02*
X193150Y247250D01*
X106850Y247250D02*
X106850Y190350D01*
X193150Y190350D01*
X193150Y247250D01*
D13*
X190650Y244750D02*
X109350Y244750D01*
X109350Y195250D01*
X190650Y195250D01*
X190650Y244750D01*
D14*
X175400Y245950D02*
X109350Y245950D01*
X109350Y192850D01*
X190650Y192850D01*
X190650Y232700D01*
D15*
X102379Y214489D02*
X98354Y214489D01*
X97549Y215294D01*
X97549Y216904D01*
X98354Y217709D01*
X102379Y217709D01*
X97549Y220102D02*
X97549Y223322D01*
X97549Y220102D02*
X100769Y223322D01*
X101574Y223322D01*
X102379Y222517D01*
X102379Y220907D01*
X101574Y220102D01*
D12*
X281850Y377250D02*
X368150Y377250D01*
X281850Y377250D02*
X281850Y320350D01*
X368150Y320350D01*
X368150Y377250D01*
D13*
X365650Y374750D02*
X284350Y374750D01*
X284350Y325250D01*
X365650Y325250D01*
X365650Y374750D01*
D14*
X350400Y375950D02*
X284350Y375950D01*
X284350Y322850D01*
X365650Y322850D01*
X365650Y362700D01*
D15*
X277379Y347029D02*
X273354Y347029D01*
X272549Y347834D01*
X272549Y349444D01*
X273354Y350249D01*
X277379Y350249D01*
X276574Y352642D02*
X277379Y353447D01*
X277379Y355057D01*
X276574Y355862D01*
X275769Y355862D01*
X274964Y355057D01*
X274964Y354252D01*
X274964Y355057D02*
X274159Y355862D01*
X273354Y355862D01*
X272549Y355057D01*
X272549Y353447D01*
X273354Y352642D01*
D12*
X281850Y247250D02*
X368150Y247250D01*
X281850Y247250D02*
X281850Y190350D01*
X368150Y190350D01*
X368150Y247250D01*
D13*
X365650Y244750D02*
X284350Y244750D01*
X284350Y195250D01*
X365650Y195250D01*
X365650Y244750D01*
D14*
X350400Y245950D02*
X284350Y245950D01*
X284350Y192850D01*
X365650Y192850D01*
X365650Y232700D01*
D15*
X277379Y214489D02*
X273354Y214489D01*
X272549Y215294D01*
X272549Y216904D01*
X273354Y217709D01*
X277379Y217709D01*
X277379Y222517D02*
X272549Y222517D01*
X274964Y220102D02*
X277379Y222517D01*
X274964Y223322D02*
X274964Y220102D01*
D12*
X631850Y377250D02*
X718150Y377250D01*
X631850Y377250D02*
X631850Y320350D01*
X718150Y320350D01*
X718150Y377250D01*
D13*
X715650Y374750D02*
X634350Y374750D01*
X634350Y325250D01*
X715650Y325250D01*
X715650Y374750D01*
D14*
X700400Y375950D02*
X634350Y375950D01*
X634350Y322850D01*
X715650Y322850D01*
X715650Y362700D01*
D15*
X627379Y347029D02*
X623354Y347029D01*
X622549Y347834D01*
X622549Y349444D01*
X623354Y350249D01*
X627379Y350249D01*
X627379Y352642D02*
X627379Y355862D01*
X627379Y352642D02*
X624964Y352642D01*
X625769Y354252D01*
X625769Y355057D01*
X624964Y355862D01*
X623354Y355862D01*
X622549Y355057D01*
X622549Y353447D01*
X623354Y352642D01*
D12*
X631850Y247250D02*
X718150Y247250D01*
X631850Y247250D02*
X631850Y190350D01*
X718150Y190350D01*
X718150Y247250D01*
D13*
X715650Y244750D02*
X634350Y244750D01*
X634350Y195250D01*
X715650Y195250D01*
X715650Y244750D01*
D14*
X700400Y245950D02*
X634350Y245950D01*
X634350Y192850D01*
X715650Y192850D01*
X715650Y232700D01*
D15*
X627379Y214489D02*
X623354Y214489D01*
X622549Y215294D01*
X622549Y216904D01*
X623354Y217709D01*
X627379Y217709D01*
X626574Y221712D02*
X627379Y223322D01*
X626574Y221712D02*
X624964Y220102D01*
X623354Y220102D01*
X622549Y220907D01*
X622549Y222517D01*
X623354Y223322D01*
X624159Y223322D01*
X624964Y222517D01*
X624964Y220102D01*
D12*
X806850Y377250D02*
X893150Y377250D01*
X806850Y377250D02*
X806850Y320350D01*
X893150Y320350D01*
X893150Y377250D01*
D13*
X890650Y374750D02*
X809350Y374750D01*
X809350Y325250D01*
X890650Y325250D01*
X890650Y374750D01*
D14*
X875400Y375950D02*
X809350Y375950D01*
X809350Y322850D01*
X890650Y322850D01*
X890650Y362700D01*
D15*
X802379Y347029D02*
X798354Y347029D01*
X797549Y347834D01*
X797549Y349444D01*
X798354Y350249D01*
X802379Y350249D01*
X802379Y352642D02*
X802379Y355862D01*
X801574Y355862D01*
X798354Y352642D01*
X797549Y352642D01*
D12*
X806850Y247250D02*
X893150Y247250D01*
X806850Y247250D02*
X806850Y190350D01*
X893150Y190350D01*
X893150Y247250D01*
D13*
X890650Y244750D02*
X809350Y244750D01*
X809350Y195250D01*
X890650Y195250D01*
X890650Y244750D01*
D14*
X875400Y245950D02*
X809350Y245950D01*
X809350Y192850D01*
X890650Y192850D01*
X890650Y232700D01*
D15*
X802379Y214489D02*
X798354Y214489D01*
X797549Y215294D01*
X797549Y216904D01*
X798354Y217709D01*
X802379Y217709D01*
X801574Y220102D02*
X802379Y220907D01*
X802379Y222517D01*
X801574Y223322D01*
X800769Y223322D01*
X799964Y222517D01*
X799159Y223322D01*
X798354Y223322D01*
X797549Y222517D01*
X797549Y220907D01*
X798354Y220102D01*
X799159Y220102D01*
X799964Y220907D01*
X800769Y220102D01*
X801574Y220102D01*
X799964Y220907D02*
X799964Y222517D01*
D12*
X543150Y377250D02*
X456850Y377250D01*
X456850Y320350D01*
X543150Y320350D01*
X543150Y377250D01*
D13*
X540650Y374750D02*
X459350Y374750D01*
X459350Y325250D01*
X540650Y325250D01*
X540650Y374750D01*
D14*
X525400Y375950D02*
X459350Y375950D01*
X459350Y322850D01*
X540650Y322850D01*
X540650Y362700D01*
D15*
X452379Y347029D02*
X448354Y347029D01*
X447549Y347834D01*
X447549Y349444D01*
X448354Y350249D01*
X452379Y350249D01*
X448354Y352642D02*
X447549Y353447D01*
X447549Y355057D01*
X448354Y355862D01*
X451574Y355862D01*
X452379Y355057D01*
X452379Y353447D01*
X451574Y352642D01*
X450769Y352642D01*
X449964Y353447D01*
X449964Y355862D01*
D12*
X456850Y247250D02*
X543150Y247250D01*
X456850Y247250D02*
X456850Y190350D01*
X543150Y190350D01*
X543150Y247250D01*
D13*
X540650Y244750D02*
X459350Y244750D01*
X459350Y195250D01*
X540650Y195250D01*
X540650Y244750D01*
D14*
X525400Y245950D02*
X459350Y245950D01*
X459350Y192850D01*
X540650Y192850D01*
X540650Y232700D01*
D15*
X452379Y246976D02*
X448354Y246976D01*
X447549Y247781D01*
X447549Y249391D01*
X448354Y250196D01*
X452379Y250196D01*
X450769Y252589D02*
X452379Y254199D01*
X447549Y254199D01*
X447549Y252589D02*
X447549Y255809D01*
X448354Y258202D02*
X451574Y258202D01*
X452379Y259007D01*
X452379Y260617D01*
X451574Y261422D01*
X448354Y261422D01*
X447549Y260617D01*
X447549Y259007D01*
X448354Y258202D01*
X451574Y261422D01*
M02*
