G04 EAGLE Gerber RS-274X export*
G75*
%MOMM*%
%FSLAX34Y34*%
%LPD*%
%INTOP*%
%IPPOS*%
%AMOC8*
5,1,8,0,0,1.08239X$1,22.5*%
G01*
%ADD10R,1.750000X1.750000*%
%ADD11C,1.750000*%
%ADD12C,2.100000*%
%ADD13R,1.270000X0.635000*%
%ADD14C,0.609600*%

G36*
X992964Y4071D02*
X992964Y4071D01*
X993040Y4069D01*
X993209Y4091D01*
X993380Y4105D01*
X993454Y4123D01*
X993529Y4133D01*
X993693Y4182D01*
X993859Y4223D01*
X993928Y4253D01*
X994002Y4275D01*
X994155Y4351D01*
X994312Y4418D01*
X994376Y4459D01*
X994445Y4492D01*
X994584Y4591D01*
X994728Y4683D01*
X994785Y4734D01*
X994847Y4778D01*
X994968Y4898D01*
X995096Y5012D01*
X995144Y5071D01*
X995198Y5125D01*
X995299Y5263D01*
X995406Y5396D01*
X995443Y5462D01*
X995488Y5523D01*
X995565Y5676D01*
X995650Y5824D01*
X995676Y5896D01*
X995711Y5964D01*
X995762Y6127D01*
X995821Y6287D01*
X995836Y6362D01*
X995859Y6434D01*
X995871Y6539D01*
X995916Y6771D01*
X995923Y7007D01*
X995935Y7112D01*
X995935Y542888D01*
X995929Y542964D01*
X995931Y543040D01*
X995909Y543209D01*
X995895Y543380D01*
X995877Y543454D01*
X995867Y543529D01*
X995818Y543693D01*
X995777Y543859D01*
X995747Y543928D01*
X995725Y544002D01*
X995649Y544155D01*
X995582Y544312D01*
X995541Y544376D01*
X995508Y544445D01*
X995409Y544584D01*
X995317Y544728D01*
X995266Y544785D01*
X995222Y544847D01*
X995102Y544968D01*
X994988Y545096D01*
X994929Y545144D01*
X994875Y545198D01*
X994737Y545299D01*
X994604Y545406D01*
X994538Y545443D01*
X994477Y545488D01*
X994324Y545565D01*
X994176Y545650D01*
X994104Y545676D01*
X994036Y545711D01*
X993873Y545762D01*
X993713Y545821D01*
X993638Y545836D01*
X993566Y545859D01*
X993461Y545871D01*
X993229Y545916D01*
X992993Y545923D01*
X992888Y545935D01*
X7112Y545935D01*
X7036Y545929D01*
X6960Y545931D01*
X6791Y545909D01*
X6620Y545895D01*
X6546Y545877D01*
X6471Y545867D01*
X6307Y545818D01*
X6141Y545777D01*
X6072Y545747D01*
X5998Y545725D01*
X5845Y545649D01*
X5688Y545582D01*
X5624Y545541D01*
X5555Y545508D01*
X5416Y545409D01*
X5272Y545317D01*
X5215Y545266D01*
X5153Y545222D01*
X5032Y545102D01*
X4904Y544988D01*
X4856Y544929D01*
X4802Y544875D01*
X4701Y544737D01*
X4594Y544604D01*
X4557Y544538D01*
X4512Y544477D01*
X4435Y544324D01*
X4350Y544176D01*
X4324Y544104D01*
X4289Y544036D01*
X4238Y543873D01*
X4179Y543713D01*
X4164Y543638D01*
X4141Y543566D01*
X4129Y543461D01*
X4084Y543229D01*
X4077Y542993D01*
X4065Y542888D01*
X4065Y7112D01*
X4071Y7036D01*
X4069Y6960D01*
X4091Y6791D01*
X4105Y6620D01*
X4123Y6546D01*
X4133Y6471D01*
X4182Y6307D01*
X4223Y6141D01*
X4253Y6072D01*
X4275Y5998D01*
X4351Y5845D01*
X4418Y5688D01*
X4459Y5624D01*
X4492Y5555D01*
X4591Y5416D01*
X4683Y5272D01*
X4734Y5215D01*
X4778Y5153D01*
X4898Y5032D01*
X5012Y4904D01*
X5071Y4856D01*
X5125Y4802D01*
X5263Y4701D01*
X5396Y4594D01*
X5462Y4557D01*
X5523Y4512D01*
X5676Y4435D01*
X5824Y4350D01*
X5896Y4324D01*
X5964Y4289D01*
X6127Y4238D01*
X6287Y4179D01*
X6362Y4164D01*
X6434Y4141D01*
X6539Y4129D01*
X6771Y4084D01*
X7007Y4077D01*
X7112Y4065D01*
X992888Y4065D01*
X992964Y4071D01*
G37*
%LPC*%
G36*
X801225Y305307D02*
X801225Y305307D01*
X798611Y306390D01*
X783910Y321091D01*
X782827Y323705D01*
X782827Y326726D01*
X782880Y327077D01*
X782878Y327208D01*
X782887Y327286D01*
X782887Y330545D01*
X782870Y330762D01*
X782856Y330981D01*
X782850Y331009D01*
X782847Y331037D01*
X782795Y331249D01*
X782746Y331462D01*
X782735Y331488D01*
X782729Y331516D01*
X782642Y331717D01*
X782560Y331919D01*
X782545Y331943D01*
X782534Y331969D01*
X782417Y332153D01*
X782303Y332340D01*
X782284Y332362D01*
X782269Y332385D01*
X782124Y332548D01*
X781981Y332714D01*
X781959Y332732D01*
X781940Y332753D01*
X781770Y332890D01*
X781603Y333031D01*
X781582Y333042D01*
X781556Y333063D01*
X781434Y333133D01*
X780204Y334362D01*
X779585Y335856D01*
X779585Y339840D01*
X779579Y339916D01*
X779581Y339992D01*
X779559Y340161D01*
X779545Y340332D01*
X779527Y340406D01*
X779517Y340481D01*
X779468Y340645D01*
X779427Y340811D01*
X779397Y340880D01*
X779375Y340954D01*
X779299Y341107D01*
X779232Y341264D01*
X779191Y341328D01*
X779158Y341397D01*
X779059Y341536D01*
X778967Y341680D01*
X778916Y341737D01*
X778872Y341799D01*
X778752Y341920D01*
X778638Y342048D01*
X778579Y342096D01*
X778525Y342150D01*
X778387Y342251D01*
X778254Y342358D01*
X778188Y342395D01*
X778127Y342440D01*
X777974Y342517D01*
X777826Y342602D01*
X777754Y342628D01*
X777686Y342663D01*
X777523Y342714D01*
X777363Y342773D01*
X777288Y342788D01*
X777216Y342811D01*
X777111Y342823D01*
X776879Y342868D01*
X776643Y342875D01*
X776538Y342887D01*
X769995Y342887D01*
X767381Y343970D01*
X743270Y368081D01*
X742187Y370695D01*
X742187Y375653D01*
X742178Y375767D01*
X742179Y375881D01*
X742158Y376012D01*
X742147Y376145D01*
X742120Y376255D01*
X742102Y376368D01*
X742061Y376495D01*
X742029Y376623D01*
X741984Y376728D01*
X741948Y376837D01*
X741886Y376955D01*
X741834Y377077D01*
X741773Y377173D01*
X741720Y377274D01*
X741661Y377348D01*
X741569Y377493D01*
X741353Y377735D01*
X741295Y377808D01*
X737653Y381450D01*
X735435Y386803D01*
X735435Y413597D01*
X737653Y418950D01*
X741750Y423047D01*
X747103Y425265D01*
X752897Y425265D01*
X758250Y423047D01*
X762347Y418950D01*
X764565Y413597D01*
X764565Y386803D01*
X762347Y381450D01*
X758338Y377440D01*
X758289Y377382D01*
X758233Y377330D01*
X758129Y377195D01*
X758019Y377064D01*
X757979Y376999D01*
X757933Y376939D01*
X757852Y376788D01*
X757764Y376642D01*
X757736Y376571D01*
X757700Y376504D01*
X757644Y376342D01*
X757581Y376184D01*
X757564Y376110D01*
X757540Y376037D01*
X757511Y375869D01*
X757474Y375702D01*
X757470Y375626D01*
X757457Y375551D01*
X757456Y375380D01*
X757446Y375210D01*
X757454Y375134D01*
X757454Y375058D01*
X757481Y374889D01*
X757499Y374719D01*
X757519Y374646D01*
X757531Y374570D01*
X757584Y374408D01*
X757629Y374243D01*
X757661Y374174D01*
X757685Y374102D01*
X757764Y373950D01*
X757835Y373795D01*
X757878Y373732D01*
X757913Y373664D01*
X757978Y373582D01*
X758110Y373386D01*
X758272Y373213D01*
X758338Y373131D01*
X773464Y358005D01*
X773551Y357931D01*
X773631Y357850D01*
X773738Y357772D01*
X773840Y357686D01*
X773937Y357627D01*
X774030Y357560D01*
X774148Y357500D01*
X774262Y357431D01*
X774368Y357389D01*
X774470Y357337D01*
X774597Y357297D01*
X774720Y357248D01*
X774832Y357223D01*
X774941Y357189D01*
X775034Y357179D01*
X775202Y357141D01*
X775526Y357123D01*
X775618Y357113D01*
X776538Y357113D01*
X776614Y357119D01*
X776690Y357117D01*
X776859Y357139D01*
X777030Y357153D01*
X777104Y357171D01*
X777179Y357181D01*
X777343Y357230D01*
X777509Y357271D01*
X777578Y357301D01*
X777652Y357323D01*
X777805Y357399D01*
X777962Y357466D01*
X778026Y357507D01*
X778095Y357540D01*
X778234Y357639D01*
X778378Y357731D01*
X778435Y357782D01*
X778497Y357826D01*
X778618Y357946D01*
X778746Y358060D01*
X778794Y358119D01*
X778848Y358173D01*
X778949Y358311D01*
X779056Y358444D01*
X779093Y358510D01*
X779138Y358571D01*
X779215Y358724D01*
X779300Y358872D01*
X779326Y358944D01*
X779361Y359012D01*
X779412Y359175D01*
X779471Y359335D01*
X779486Y359410D01*
X779509Y359482D01*
X779521Y359587D01*
X779566Y359819D01*
X779573Y360055D01*
X779585Y360160D01*
X779585Y364144D01*
X780204Y365638D01*
X781347Y366781D01*
X782841Y367400D01*
X785919Y367400D01*
X786032Y367409D01*
X786147Y367408D01*
X786278Y367429D01*
X786410Y367440D01*
X786521Y367467D01*
X786634Y367485D01*
X786760Y367526D01*
X786889Y367558D01*
X786994Y367603D01*
X787103Y367639D01*
X787220Y367700D01*
X787343Y367753D01*
X787439Y367814D01*
X787540Y367867D01*
X787614Y367926D01*
X787759Y368018D01*
X788000Y368234D01*
X788073Y368292D01*
X792332Y372551D01*
X792449Y372689D01*
X792572Y372821D01*
X792608Y372876D01*
X792651Y372927D01*
X792745Y373082D01*
X792845Y373232D01*
X792872Y373293D01*
X792906Y373349D01*
X792973Y373517D01*
X793047Y373682D01*
X793064Y373746D01*
X793089Y373807D01*
X793128Y373984D01*
X793175Y374158D01*
X793182Y374224D01*
X793196Y374289D01*
X793206Y374470D01*
X793224Y374649D01*
X793220Y374715D01*
X793224Y374782D01*
X793204Y374961D01*
X793193Y375142D01*
X793178Y375206D01*
X793171Y375272D01*
X793124Y375446D01*
X793083Y375623D01*
X793058Y375684D01*
X793041Y375748D01*
X792965Y375912D01*
X792897Y376079D01*
X792863Y376136D01*
X792835Y376196D01*
X792734Y376346D01*
X792640Y376500D01*
X792597Y376551D01*
X792560Y376606D01*
X792436Y376738D01*
X792318Y376874D01*
X792267Y376917D01*
X792222Y376965D01*
X792078Y377075D01*
X791940Y377191D01*
X791894Y377217D01*
X791858Y377244D01*
X787653Y381450D01*
X785435Y386803D01*
X785435Y413597D01*
X787653Y418950D01*
X791750Y423047D01*
X797179Y425296D01*
X797188Y425301D01*
X797197Y425304D01*
X797408Y425414D01*
X797618Y425522D01*
X797626Y425527D01*
X797635Y425532D01*
X797667Y425557D01*
X798015Y425814D01*
X798107Y425908D01*
X798168Y425957D01*
X815121Y442910D01*
X817735Y443993D01*
X863745Y443993D01*
X866359Y442910D01*
X907730Y401539D01*
X908813Y398925D01*
X908813Y347835D01*
X907730Y345221D01*
X893779Y331270D01*
X891165Y330187D01*
X887672Y330187D01*
X887559Y330178D01*
X887444Y330179D01*
X887313Y330158D01*
X887181Y330147D01*
X887070Y330120D01*
X886957Y330102D01*
X886831Y330061D01*
X886702Y330029D01*
X886597Y329984D01*
X886488Y329948D01*
X886370Y329886D01*
X886248Y329834D01*
X886152Y329773D01*
X886051Y329720D01*
X885977Y329661D01*
X885832Y329569D01*
X885590Y329353D01*
X885517Y329295D01*
X882659Y326436D01*
X877949Y324485D01*
X872851Y324485D01*
X868141Y326436D01*
X864855Y329722D01*
X864797Y329772D01*
X864745Y329827D01*
X864609Y329931D01*
X864479Y330042D01*
X864414Y330081D01*
X864353Y330128D01*
X864202Y330209D01*
X864056Y330297D01*
X863986Y330325D01*
X863918Y330361D01*
X863756Y330416D01*
X863598Y330480D01*
X863524Y330496D01*
X863452Y330521D01*
X863283Y330550D01*
X863117Y330586D01*
X863041Y330591D01*
X862965Y330603D01*
X862794Y330605D01*
X862624Y330614D01*
X862548Y330606D01*
X862472Y330606D01*
X862303Y330580D01*
X862133Y330562D01*
X862060Y330542D01*
X861985Y330530D01*
X861822Y330476D01*
X861658Y330431D01*
X861588Y330399D01*
X861516Y330376D01*
X861365Y330297D01*
X861209Y330225D01*
X861146Y330183D01*
X861079Y330148D01*
X860996Y330082D01*
X860800Y329950D01*
X860628Y329788D01*
X860545Y329723D01*
X858005Y327183D01*
X857931Y327095D01*
X857850Y327015D01*
X857772Y326908D01*
X857686Y326807D01*
X857627Y326709D01*
X857560Y326616D01*
X857500Y326498D01*
X857431Y326384D01*
X857389Y326278D01*
X857337Y326176D01*
X857297Y326049D01*
X857248Y325926D01*
X857223Y325815D01*
X857189Y325706D01*
X857179Y325612D01*
X857141Y325444D01*
X857123Y325120D01*
X857113Y325028D01*
X857113Y320265D01*
X856030Y317651D01*
X853601Y315222D01*
X853600Y315221D01*
X847199Y308820D01*
X847198Y308819D01*
X844769Y306390D01*
X842155Y305307D01*
X801225Y305307D01*
G37*
%LPD*%
%LPC*%
G36*
X806305Y112267D02*
X806305Y112267D01*
X803691Y113350D01*
X793970Y123071D01*
X792887Y125685D01*
X792887Y134553D01*
X792878Y134667D01*
X792879Y134781D01*
X792858Y134912D01*
X792847Y135045D01*
X792820Y135155D01*
X792802Y135268D01*
X792761Y135395D01*
X792729Y135523D01*
X792684Y135628D01*
X792648Y135737D01*
X792586Y135855D01*
X792534Y135977D01*
X792473Y136073D01*
X792420Y136174D01*
X792361Y136248D01*
X792269Y136393D01*
X792053Y136635D01*
X791995Y136708D01*
X787653Y141050D01*
X785435Y146403D01*
X785435Y173197D01*
X787653Y178550D01*
X791750Y182647D01*
X797103Y184865D01*
X799750Y184865D01*
X799788Y184868D01*
X799826Y184866D01*
X800033Y184888D01*
X800241Y184905D01*
X800278Y184914D01*
X800316Y184918D01*
X800517Y184973D01*
X800720Y185023D01*
X800755Y185038D01*
X800792Y185049D01*
X800982Y185136D01*
X801174Y185218D01*
X801206Y185238D01*
X801240Y185254D01*
X801414Y185371D01*
X801590Y185483D01*
X801618Y185508D01*
X801650Y185530D01*
X801802Y185673D01*
X801957Y185812D01*
X801981Y185841D01*
X802009Y185867D01*
X802136Y186033D01*
X802267Y186196D01*
X802286Y186229D01*
X802310Y186259D01*
X802408Y186443D01*
X802511Y186624D01*
X802525Y186660D01*
X802543Y186694D01*
X802610Y186891D01*
X802683Y187087D01*
X802690Y187124D01*
X802703Y187160D01*
X802738Y187367D01*
X802778Y187571D01*
X802779Y187609D01*
X802785Y187647D01*
X802787Y187856D01*
X802793Y188064D01*
X802788Y188102D01*
X802788Y188140D01*
X802756Y188347D01*
X802729Y188553D01*
X802718Y188590D01*
X802712Y188627D01*
X802646Y188826D01*
X802586Y189025D01*
X802569Y189060D01*
X802557Y189096D01*
X802461Y189281D01*
X802369Y189469D01*
X802347Y189500D01*
X802330Y189534D01*
X802272Y189606D01*
X802084Y189871D01*
X801963Y189993D01*
X801904Y190067D01*
X790263Y201708D01*
X790176Y201782D01*
X790096Y201863D01*
X789989Y201941D01*
X789887Y202027D01*
X789790Y202086D01*
X789697Y202153D01*
X789579Y202213D01*
X789465Y202282D01*
X789359Y202324D01*
X789257Y202376D01*
X789130Y202416D01*
X789007Y202465D01*
X788895Y202490D01*
X788786Y202524D01*
X788693Y202534D01*
X788525Y202572D01*
X788201Y202590D01*
X788109Y202600D01*
X782841Y202600D01*
X781347Y203219D01*
X780204Y204362D01*
X779585Y205856D01*
X779585Y209840D01*
X779579Y209916D01*
X779581Y209992D01*
X779559Y210161D01*
X779545Y210332D01*
X779527Y210406D01*
X779517Y210481D01*
X779468Y210645D01*
X779427Y210811D01*
X779397Y210880D01*
X779375Y210954D01*
X779299Y211107D01*
X779232Y211264D01*
X779191Y211328D01*
X779158Y211397D01*
X779059Y211536D01*
X778967Y211680D01*
X778916Y211737D01*
X778872Y211799D01*
X778752Y211920D01*
X778638Y212048D01*
X778579Y212096D01*
X778525Y212150D01*
X778387Y212251D01*
X778254Y212358D01*
X778188Y212395D01*
X778127Y212440D01*
X777974Y212517D01*
X777826Y212602D01*
X777754Y212628D01*
X777686Y212663D01*
X777523Y212714D01*
X777363Y212773D01*
X777288Y212788D01*
X777216Y212811D01*
X777111Y212823D01*
X776879Y212868D01*
X776643Y212875D01*
X776538Y212887D01*
X767768Y212887D01*
X767655Y212878D01*
X767540Y212879D01*
X767409Y212858D01*
X767277Y212847D01*
X767166Y212820D01*
X767053Y212802D01*
X766927Y212761D01*
X766798Y212729D01*
X766693Y212684D01*
X766584Y212648D01*
X766467Y212586D01*
X766344Y212534D01*
X766248Y212473D01*
X766147Y212420D01*
X766073Y212361D01*
X765928Y212269D01*
X765686Y212053D01*
X765614Y211995D01*
X758005Y204386D01*
X757931Y204299D01*
X757850Y204219D01*
X757772Y204112D01*
X757686Y204010D01*
X757627Y203912D01*
X757560Y203820D01*
X757500Y203702D01*
X757431Y203588D01*
X757389Y203482D01*
X757337Y203380D01*
X757297Y203253D01*
X757248Y203130D01*
X757223Y203018D01*
X757189Y202909D01*
X757179Y202816D01*
X757141Y202648D01*
X757123Y202324D01*
X757113Y202232D01*
X757113Y185047D01*
X757122Y184933D01*
X757121Y184819D01*
X757142Y184688D01*
X757153Y184555D01*
X757180Y184445D01*
X757198Y184332D01*
X757239Y184205D01*
X757271Y184077D01*
X757316Y183972D01*
X757352Y183863D01*
X757414Y183745D01*
X757466Y183623D01*
X757527Y183527D01*
X757580Y183426D01*
X757639Y183352D01*
X757731Y183207D01*
X757947Y182965D01*
X758005Y182892D01*
X762347Y178550D01*
X764565Y173197D01*
X764565Y146403D01*
X762347Y141050D01*
X758250Y136953D01*
X752897Y134735D01*
X747103Y134735D01*
X741750Y136953D01*
X737653Y141050D01*
X735435Y146403D01*
X735435Y173197D01*
X737653Y178550D01*
X741995Y182892D01*
X742069Y182979D01*
X742150Y183060D01*
X742228Y183167D01*
X742314Y183268D01*
X742373Y183366D01*
X742440Y183458D01*
X742500Y183577D01*
X742569Y183691D01*
X742611Y183797D01*
X742663Y183899D01*
X742703Y184026D01*
X742752Y184149D01*
X742777Y184260D01*
X742811Y184369D01*
X742821Y184463D01*
X742859Y184631D01*
X742877Y184955D01*
X742887Y185047D01*
X742887Y207855D01*
X743970Y210469D01*
X759531Y226030D01*
X762145Y227113D01*
X776538Y227113D01*
X776614Y227119D01*
X776690Y227117D01*
X776859Y227139D01*
X777030Y227153D01*
X777104Y227171D01*
X777179Y227181D01*
X777343Y227230D01*
X777509Y227271D01*
X777578Y227301D01*
X777652Y227323D01*
X777805Y227399D01*
X777962Y227466D01*
X778026Y227507D01*
X778095Y227540D01*
X778234Y227639D01*
X778378Y227731D01*
X778435Y227782D01*
X778497Y227826D01*
X778618Y227946D01*
X778746Y228060D01*
X778794Y228119D01*
X778848Y228173D01*
X778949Y228311D01*
X779056Y228444D01*
X779093Y228510D01*
X779138Y228571D01*
X779215Y228724D01*
X779300Y228872D01*
X779326Y228944D01*
X779361Y229012D01*
X779412Y229175D01*
X779471Y229335D01*
X779486Y229410D01*
X779509Y229482D01*
X779521Y229587D01*
X779566Y229819D01*
X779573Y230055D01*
X779585Y230160D01*
X779585Y234144D01*
X780204Y235638D01*
X781347Y236781D01*
X782841Y237400D01*
X785919Y237400D01*
X786032Y237409D01*
X786147Y237408D01*
X786278Y237429D01*
X786410Y237440D01*
X786521Y237467D01*
X786634Y237485D01*
X786760Y237526D01*
X786889Y237558D01*
X786994Y237603D01*
X787103Y237639D01*
X787220Y237701D01*
X787343Y237753D01*
X787439Y237814D01*
X787540Y237867D01*
X787614Y237926D01*
X787759Y238018D01*
X788001Y238234D01*
X788073Y238292D01*
X808541Y258760D01*
X811155Y259843D01*
X837075Y259843D01*
X839689Y258760D01*
X852778Y245671D01*
X852785Y245665D01*
X852792Y245657D01*
X852871Y245591D01*
X852926Y245535D01*
X853010Y245474D01*
X853154Y245352D01*
X853162Y245347D01*
X853170Y245340D01*
X853205Y245321D01*
X853293Y245268D01*
X853325Y245244D01*
X853366Y245224D01*
X853576Y245097D01*
X853698Y245048D01*
X853767Y245010D01*
X857259Y243564D01*
X859318Y241504D01*
X859492Y241357D01*
X859664Y241207D01*
X859680Y241197D01*
X859694Y241185D01*
X859889Y241067D01*
X860083Y240947D01*
X860101Y240940D01*
X860117Y240930D01*
X860328Y240846D01*
X860539Y240759D01*
X860557Y240754D01*
X860575Y240747D01*
X860798Y240698D01*
X861019Y240646D01*
X861038Y240645D01*
X861057Y240641D01*
X861286Y240628D01*
X861511Y240612D01*
X861530Y240614D01*
X861549Y240613D01*
X861775Y240637D01*
X862003Y240658D01*
X862021Y240663D01*
X862040Y240665D01*
X862258Y240725D01*
X862480Y240783D01*
X862497Y240791D01*
X862515Y240796D01*
X862722Y240891D01*
X862931Y240983D01*
X862947Y240994D01*
X862964Y241001D01*
X863153Y241129D01*
X863343Y241253D01*
X863357Y241266D01*
X863373Y241277D01*
X863539Y241433D01*
X863707Y241587D01*
X863716Y241599D01*
X863733Y241615D01*
X864033Y242006D01*
X864077Y242088D01*
X864112Y242136D01*
X864617Y243010D01*
X865090Y243483D01*
X865669Y243818D01*
X866315Y243991D01*
X872353Y243991D01*
X872353Y232700D01*
X872359Y232624D01*
X872356Y232548D01*
X872379Y232379D01*
X872393Y232209D01*
X872411Y232135D01*
X872421Y232059D01*
X872470Y231895D01*
X872511Y231730D01*
X872541Y231660D01*
X872563Y231587D01*
X872638Y231433D01*
X872706Y231276D01*
X872747Y231212D01*
X872780Y231144D01*
X872879Y231004D01*
X872971Y230860D01*
X873022Y230804D01*
X873066Y230741D01*
X873186Y230620D01*
X873300Y230492D01*
X873359Y230444D01*
X873412Y230390D01*
X873413Y230390D01*
X873551Y230289D01*
X873684Y230182D01*
X873750Y230144D01*
X873812Y230099D01*
X873964Y230023D01*
X874113Y229938D01*
X874184Y229911D01*
X874252Y229877D01*
X874415Y229826D01*
X874575Y229766D01*
X874650Y229752D01*
X874723Y229729D01*
X874827Y229717D01*
X875059Y229672D01*
X875295Y229664D01*
X875400Y229653D01*
X886691Y229653D01*
X886691Y223615D01*
X886518Y222969D01*
X886183Y222390D01*
X885710Y221917D01*
X884836Y221412D01*
X884648Y221282D01*
X884459Y221155D01*
X884445Y221142D01*
X884430Y221132D01*
X884265Y220973D01*
X884100Y220818D01*
X884088Y220803D01*
X884074Y220789D01*
X883938Y220607D01*
X883799Y220426D01*
X883790Y220409D01*
X883779Y220394D01*
X883674Y220193D01*
X883566Y219991D01*
X883560Y219973D01*
X883551Y219957D01*
X883480Y219741D01*
X883406Y219525D01*
X883403Y219506D01*
X883397Y219488D01*
X883362Y219264D01*
X883323Y219038D01*
X883323Y219019D01*
X883320Y219001D01*
X883322Y218774D01*
X883320Y218545D01*
X883323Y218526D01*
X883324Y218507D01*
X883362Y218283D01*
X883397Y218058D01*
X883403Y218040D01*
X883406Y218021D01*
X883480Y217805D01*
X883551Y217589D01*
X883560Y217572D01*
X883566Y217554D01*
X883674Y217353D01*
X883779Y217151D01*
X883789Y217139D01*
X883799Y217120D01*
X884100Y216728D01*
X884167Y216665D01*
X884204Y216618D01*
X886264Y214559D01*
X888215Y209849D01*
X888215Y204751D01*
X886264Y200041D01*
X884305Y198083D01*
X884231Y197995D01*
X884150Y197915D01*
X884072Y197808D01*
X883986Y197707D01*
X883927Y197609D01*
X883860Y197516D01*
X883800Y197398D01*
X883731Y197284D01*
X883689Y197178D01*
X883637Y197076D01*
X883597Y196949D01*
X883548Y196826D01*
X883523Y196715D01*
X883489Y196606D01*
X883479Y196512D01*
X883441Y196344D01*
X883423Y196020D01*
X883413Y195928D01*
X883413Y131935D01*
X882330Y129321D01*
X866359Y113350D01*
X863745Y112267D01*
X806305Y112267D01*
G37*
%LPD*%
%LPC*%
G36*
X279255Y310387D02*
X279255Y310387D01*
X276641Y311470D01*
X263970Y324141D01*
X262887Y326755D01*
X262887Y330545D01*
X262870Y330762D01*
X262856Y330981D01*
X262850Y331009D01*
X262847Y331037D01*
X262795Y331248D01*
X262746Y331462D01*
X262735Y331488D01*
X262729Y331516D01*
X262642Y331717D01*
X262560Y331919D01*
X262545Y331943D01*
X262534Y331969D01*
X262417Y332153D01*
X262303Y332340D01*
X262284Y332361D01*
X262269Y332385D01*
X262124Y332548D01*
X261981Y332713D01*
X261959Y332732D01*
X261940Y332753D01*
X261770Y332890D01*
X261603Y333031D01*
X261583Y333042D01*
X261556Y333063D01*
X261434Y333133D01*
X260204Y334362D01*
X259585Y335856D01*
X259585Y343843D01*
X259591Y343862D01*
X259636Y343968D01*
X259667Y344097D01*
X259708Y344223D01*
X259725Y344336D01*
X259752Y344448D01*
X259761Y344580D01*
X259781Y344711D01*
X259780Y344826D01*
X259788Y344940D01*
X259777Y345072D01*
X259775Y345204D01*
X259755Y345317D01*
X259745Y345431D01*
X259719Y345521D01*
X259689Y345690D01*
X259585Y345988D01*
X259585Y354003D01*
X259591Y354022D01*
X259636Y354128D01*
X259667Y354257D01*
X259708Y354383D01*
X259725Y354496D01*
X259752Y354608D01*
X259761Y354740D01*
X259781Y354871D01*
X259780Y354986D01*
X259788Y355100D01*
X259777Y355232D01*
X259775Y355364D01*
X259755Y355477D01*
X259745Y355591D01*
X259719Y355681D01*
X259689Y355850D01*
X259585Y356148D01*
X259585Y364144D01*
X260204Y365638D01*
X261414Y366848D01*
X261420Y366852D01*
X261445Y366864D01*
X261621Y366994D01*
X261799Y367121D01*
X261819Y367141D01*
X261842Y367157D01*
X261995Y367314D01*
X262150Y367467D01*
X262167Y367490D01*
X262186Y367510D01*
X262312Y367690D01*
X262440Y367866D01*
X262453Y367891D01*
X262469Y367915D01*
X262564Y368112D01*
X262663Y368307D01*
X262671Y368334D01*
X262683Y368359D01*
X262745Y368568D01*
X262811Y368777D01*
X262814Y368800D01*
X262823Y368832D01*
X262884Y369322D01*
X262881Y369402D01*
X262887Y369455D01*
X262887Y375555D01*
X263131Y376143D01*
X263177Y376285D01*
X263232Y376425D01*
X263252Y376520D01*
X263282Y376612D01*
X263304Y376761D01*
X263336Y376907D01*
X263341Y377004D01*
X263356Y377100D01*
X263354Y377250D01*
X263361Y377400D01*
X263351Y377496D01*
X263349Y377593D01*
X263323Y377741D01*
X263307Y377890D01*
X263281Y377984D01*
X263264Y378079D01*
X263214Y378221D01*
X263174Y378365D01*
X263133Y378453D01*
X263101Y378545D01*
X263029Y378677D01*
X262966Y378813D01*
X262911Y378893D01*
X262865Y378978D01*
X262773Y379097D01*
X262688Y379221D01*
X262622Y379291D01*
X262562Y379368D01*
X262452Y379470D01*
X262349Y379579D01*
X262272Y379637D01*
X262200Y379703D01*
X262075Y379786D01*
X261956Y379877D01*
X261870Y379922D01*
X261789Y379976D01*
X261653Y380038D01*
X261520Y380108D01*
X261428Y380139D01*
X261340Y380179D01*
X261195Y380218D01*
X261052Y380266D01*
X260957Y380281D01*
X260863Y380306D01*
X260714Y380321D01*
X260566Y380346D01*
X260469Y380346D01*
X260372Y380356D01*
X260223Y380346D01*
X260072Y380346D01*
X259976Y380331D01*
X259880Y380325D01*
X259734Y380291D01*
X259585Y380267D01*
X259493Y380237D01*
X259399Y380215D01*
X259260Y380158D01*
X259117Y380111D01*
X259053Y380074D01*
X258942Y380029D01*
X258533Y379779D01*
X258524Y379774D01*
X256835Y378547D01*
X255006Y377615D01*
X253499Y377125D01*
X253499Y399748D01*
X253493Y399824D01*
X253495Y399900D01*
X253473Y400069D01*
X253461Y400215D01*
X253480Y400311D01*
X253487Y400547D01*
X253499Y400652D01*
X253499Y423275D01*
X255006Y422785D01*
X256835Y421853D01*
X258496Y420647D01*
X259947Y419196D01*
X260425Y418538D01*
X260445Y418515D01*
X260461Y418489D01*
X260605Y418328D01*
X260746Y418163D01*
X260769Y418144D01*
X260790Y418121D01*
X260958Y417985D01*
X261124Y417846D01*
X261150Y417830D01*
X261174Y417811D01*
X261361Y417704D01*
X261547Y417593D01*
X261576Y417582D01*
X261602Y417567D01*
X261806Y417492D01*
X262006Y417413D01*
X262036Y417406D01*
X262065Y417395D01*
X262277Y417354D01*
X262489Y417308D01*
X262519Y417307D01*
X262549Y417301D01*
X262765Y417294D01*
X262981Y417283D01*
X263012Y417286D01*
X263042Y417285D01*
X263256Y417314D01*
X263472Y417338D01*
X263501Y417346D01*
X263531Y417350D01*
X263739Y417412D01*
X263947Y417471D01*
X263974Y417484D01*
X264004Y417492D01*
X264198Y417588D01*
X264394Y417679D01*
X264419Y417696D01*
X264447Y417709D01*
X264623Y417835D01*
X264802Y417956D01*
X264824Y417977D01*
X264849Y417995D01*
X265003Y418147D01*
X265160Y418296D01*
X265178Y418320D01*
X265200Y418341D01*
X265327Y418516D01*
X265458Y418689D01*
X265472Y418715D01*
X265490Y418740D01*
X265588Y418933D01*
X265689Y419124D01*
X265699Y419154D01*
X265713Y419181D01*
X265778Y419387D01*
X265847Y419592D01*
X265852Y419622D01*
X265861Y419651D01*
X265870Y419735D01*
X265927Y420079D01*
X265927Y420239D01*
X265937Y420329D01*
X265937Y420515D01*
X267020Y423129D01*
X281831Y437940D01*
X281832Y437941D01*
X284261Y440370D01*
X286875Y441453D01*
X310025Y441453D01*
X312639Y440370D01*
X331030Y421979D01*
X332153Y419267D01*
X332171Y419233D01*
X332183Y419197D01*
X332283Y419014D01*
X332378Y418828D01*
X332401Y418797D01*
X332419Y418764D01*
X332547Y418599D01*
X332671Y418431D01*
X332699Y418404D01*
X332722Y418374D01*
X332875Y418232D01*
X333024Y418087D01*
X333056Y418065D01*
X333084Y418039D01*
X333258Y417923D01*
X333429Y417804D01*
X333463Y417787D01*
X333495Y417766D01*
X333685Y417680D01*
X333873Y417590D01*
X333910Y417579D01*
X333944Y417563D01*
X334146Y417509D01*
X334346Y417450D01*
X334384Y417445D01*
X334421Y417435D01*
X334629Y417415D01*
X334836Y417389D01*
X334874Y417390D01*
X334912Y417386D01*
X335121Y417399D01*
X335329Y417407D01*
X335366Y417415D01*
X335404Y417417D01*
X335607Y417464D01*
X335812Y417505D01*
X335848Y417519D01*
X335885Y417527D01*
X336078Y417606D01*
X336274Y417680D01*
X336307Y417699D01*
X336342Y417713D01*
X336520Y417822D01*
X336701Y417926D01*
X336730Y417950D01*
X336763Y417970D01*
X336921Y418107D01*
X337083Y418239D01*
X337108Y418267D01*
X337137Y418292D01*
X337271Y418452D01*
X337409Y418609D01*
X337429Y418641D01*
X337454Y418670D01*
X337499Y418751D01*
X337575Y418873D01*
X341750Y423047D01*
X347103Y425265D01*
X352897Y425265D01*
X358250Y423047D01*
X362347Y418950D01*
X364565Y413597D01*
X364565Y396956D01*
X364574Y396843D01*
X364573Y396728D01*
X364594Y396597D01*
X364605Y396465D01*
X364632Y396354D01*
X364650Y396241D01*
X364691Y396115D01*
X364723Y395986D01*
X364768Y395881D01*
X364804Y395772D01*
X364866Y395654D01*
X364918Y395532D01*
X364979Y395436D01*
X365032Y395335D01*
X365091Y395261D01*
X365183Y395116D01*
X365399Y394874D01*
X365457Y394802D01*
X374440Y385818D01*
X374441Y385818D01*
X376870Y383389D01*
X377953Y380775D01*
X377953Y341485D01*
X376870Y338871D01*
X369269Y331270D01*
X366655Y330187D01*
X362672Y330187D01*
X362559Y330178D01*
X362444Y330179D01*
X362313Y330158D01*
X362181Y330147D01*
X362070Y330120D01*
X361957Y330102D01*
X361831Y330061D01*
X361702Y330029D01*
X361597Y329984D01*
X361488Y329948D01*
X361370Y329886D01*
X361248Y329834D01*
X361152Y329773D01*
X361051Y329720D01*
X360977Y329661D01*
X360832Y329569D01*
X360590Y329353D01*
X360518Y329295D01*
X357659Y326436D01*
X352949Y324485D01*
X347851Y324485D01*
X343141Y326436D01*
X339855Y329722D01*
X339797Y329772D01*
X339745Y329827D01*
X339609Y329931D01*
X339479Y330042D01*
X339413Y330081D01*
X339353Y330128D01*
X339203Y330208D01*
X339056Y330297D01*
X338986Y330325D01*
X338918Y330361D01*
X338757Y330416D01*
X338598Y330480D01*
X338524Y330496D01*
X338452Y330521D01*
X338283Y330549D01*
X338117Y330586D01*
X338040Y330591D01*
X337965Y330603D01*
X337794Y330605D01*
X337624Y330614D01*
X337548Y330606D01*
X337472Y330606D01*
X337303Y330580D01*
X337133Y330562D01*
X337060Y330542D01*
X336985Y330530D01*
X336822Y330476D01*
X336658Y330431D01*
X336588Y330399D01*
X336516Y330376D01*
X336364Y330297D01*
X336209Y330225D01*
X336146Y330183D01*
X336078Y330148D01*
X335996Y330082D01*
X335800Y329950D01*
X335627Y329788D01*
X335545Y329722D01*
X332259Y326436D01*
X327549Y324485D01*
X323506Y324485D01*
X323393Y324476D01*
X323278Y324477D01*
X323147Y324456D01*
X323015Y324445D01*
X322904Y324418D01*
X322791Y324400D01*
X322665Y324359D01*
X322536Y324327D01*
X322431Y324282D01*
X322322Y324246D01*
X322204Y324184D01*
X322082Y324132D01*
X321986Y324071D01*
X321885Y324018D01*
X321811Y323959D01*
X321666Y323867D01*
X321424Y323651D01*
X321352Y323593D01*
X311658Y313900D01*
X311658Y313899D01*
X309229Y311470D01*
X306615Y310387D01*
X279255Y310387D01*
G37*
%LPD*%
%LPC*%
G36*
X627235Y311657D02*
X627235Y311657D01*
X624621Y312740D01*
X622192Y315169D01*
X622191Y315170D01*
X613970Y323391D01*
X612887Y326005D01*
X612887Y330545D01*
X612870Y330762D01*
X612856Y330981D01*
X612850Y331009D01*
X612847Y331037D01*
X612795Y331248D01*
X612746Y331462D01*
X612735Y331488D01*
X612729Y331516D01*
X612642Y331717D01*
X612560Y331919D01*
X612545Y331943D01*
X612534Y331969D01*
X612417Y332153D01*
X612303Y332340D01*
X612284Y332361D01*
X612269Y332385D01*
X612124Y332548D01*
X611981Y332713D01*
X611959Y332732D01*
X611940Y332753D01*
X611770Y332890D01*
X611603Y333031D01*
X611583Y333042D01*
X611556Y333063D01*
X611434Y333133D01*
X610204Y334362D01*
X609585Y335856D01*
X609585Y339840D01*
X609579Y339916D01*
X609581Y339992D01*
X609559Y340161D01*
X609545Y340332D01*
X609527Y340406D01*
X609517Y340481D01*
X609468Y340645D01*
X609427Y340811D01*
X609397Y340880D01*
X609375Y340954D01*
X609299Y341107D01*
X609232Y341264D01*
X609191Y341328D01*
X609158Y341397D01*
X609059Y341536D01*
X608967Y341680D01*
X608916Y341737D01*
X608872Y341799D01*
X608752Y341920D01*
X608638Y342048D01*
X608579Y342096D01*
X608525Y342150D01*
X608387Y342251D01*
X608254Y342358D01*
X608188Y342395D01*
X608127Y342440D01*
X607974Y342517D01*
X607826Y342602D01*
X607754Y342628D01*
X607686Y342663D01*
X607523Y342714D01*
X607363Y342773D01*
X607288Y342788D01*
X607216Y342811D01*
X607111Y342823D01*
X606879Y342868D01*
X606643Y342875D01*
X606538Y342887D01*
X603625Y342887D01*
X601011Y343970D01*
X592140Y352841D01*
X591057Y355455D01*
X591057Y376783D01*
X591048Y376897D01*
X591049Y377011D01*
X591028Y377142D01*
X591017Y377275D01*
X590990Y377385D01*
X590972Y377498D01*
X590931Y377625D01*
X590899Y377753D01*
X590854Y377858D01*
X590818Y377967D01*
X590756Y378085D01*
X590704Y378207D01*
X590643Y378303D01*
X590590Y378404D01*
X590531Y378478D01*
X590439Y378623D01*
X590223Y378865D01*
X590165Y378938D01*
X587653Y381450D01*
X585435Y386803D01*
X585435Y413597D01*
X587653Y418950D01*
X591750Y423047D01*
X597103Y425265D01*
X602897Y425265D01*
X608250Y423047D01*
X612347Y418950D01*
X614405Y413983D01*
X614470Y413857D01*
X614526Y413726D01*
X614582Y413637D01*
X614630Y413544D01*
X614714Y413430D01*
X614791Y413310D01*
X614861Y413232D01*
X614923Y413147D01*
X615025Y413048D01*
X615120Y412942D01*
X615201Y412876D01*
X615276Y412803D01*
X615393Y412721D01*
X615504Y412632D01*
X615594Y412580D01*
X615680Y412520D01*
X615808Y412458D01*
X615932Y412388D01*
X616030Y412351D01*
X616125Y412306D01*
X616261Y412266D01*
X616395Y412216D01*
X616497Y412196D01*
X616598Y412166D01*
X616739Y412149D01*
X616879Y412121D01*
X616983Y412118D01*
X617087Y412105D01*
X617230Y412111D01*
X617372Y412106D01*
X617476Y412120D01*
X617580Y412124D01*
X617720Y412152D01*
X617861Y412170D01*
X617961Y412201D01*
X618064Y412221D01*
X618197Y412272D01*
X618334Y412313D01*
X618427Y412359D01*
X618525Y412396D01*
X618649Y412467D01*
X618777Y412530D01*
X618862Y412590D01*
X618952Y412643D01*
X619063Y412733D01*
X619179Y412815D01*
X619253Y412889D01*
X619334Y412955D01*
X619429Y413062D01*
X619530Y413162D01*
X619591Y413247D01*
X619661Y413325D01*
X619736Y413446D01*
X619820Y413561D01*
X619867Y413654D01*
X619923Y413743D01*
X619978Y413874D01*
X620043Y414001D01*
X620074Y414101D01*
X620115Y414197D01*
X620148Y414336D01*
X620191Y414472D01*
X620200Y414550D01*
X620230Y414677D01*
X620263Y415110D01*
X620267Y415150D01*
X620267Y421785D01*
X621350Y424399D01*
X637321Y440370D01*
X639935Y441453D01*
X665625Y441453D01*
X668239Y440370D01*
X681030Y427579D01*
X682113Y424965D01*
X682113Y417012D01*
X682115Y416989D01*
X682113Y416966D01*
X682135Y416743D01*
X682153Y416520D01*
X682158Y416498D01*
X682160Y416475D01*
X682217Y416259D01*
X682271Y416041D01*
X682280Y416020D01*
X682286Y415998D01*
X682377Y415794D01*
X682466Y415588D01*
X682478Y415568D01*
X682488Y415547D01*
X682611Y415360D01*
X682731Y415172D01*
X682746Y415155D01*
X682759Y415135D01*
X682911Y414970D01*
X683060Y414804D01*
X683078Y414789D01*
X683093Y414773D01*
X683270Y414634D01*
X683444Y414494D01*
X683463Y414483D01*
X683481Y414468D01*
X683678Y414360D01*
X683872Y414250D01*
X683894Y414242D01*
X683914Y414231D01*
X684124Y414156D01*
X684335Y414078D01*
X684357Y414074D01*
X684379Y414066D01*
X684600Y414026D01*
X684819Y413984D01*
X684842Y413983D01*
X684864Y413979D01*
X685090Y413975D01*
X685312Y413968D01*
X685335Y413971D01*
X685358Y413971D01*
X685580Y414003D01*
X685801Y414033D01*
X685823Y414039D01*
X685846Y414043D01*
X686059Y414110D01*
X686273Y414175D01*
X686294Y414185D01*
X686316Y414192D01*
X686515Y414293D01*
X686717Y414392D01*
X686735Y414405D01*
X686756Y414416D01*
X686937Y414548D01*
X687119Y414677D01*
X687135Y414694D01*
X687154Y414707D01*
X687311Y414867D01*
X687470Y415024D01*
X687483Y415043D01*
X687499Y415059D01*
X687540Y415120D01*
X687760Y415423D01*
X687828Y415556D01*
X687875Y415628D01*
X688847Y417535D01*
X690053Y419196D01*
X691504Y420647D01*
X693165Y421853D01*
X694994Y422785D01*
X696501Y423275D01*
X696501Y400652D01*
X696507Y400576D01*
X696505Y400500D01*
X696527Y400331D01*
X696539Y400185D01*
X696520Y400089D01*
X696513Y399853D01*
X696501Y399748D01*
X696501Y377038D01*
X696507Y376962D01*
X696505Y376886D01*
X696527Y376717D01*
X696541Y376546D01*
X696559Y376472D01*
X696569Y376397D01*
X696618Y376233D01*
X696659Y376067D01*
X696689Y375998D01*
X696711Y375924D01*
X696787Y375771D01*
X696854Y375614D01*
X696895Y375550D01*
X696928Y375481D01*
X697027Y375342D01*
X697119Y375198D01*
X697170Y375141D01*
X697214Y375079D01*
X697334Y374958D01*
X697353Y374937D01*
X697353Y362700D01*
X697359Y362624D01*
X697356Y362548D01*
X697379Y362379D01*
X697393Y362209D01*
X697411Y362135D01*
X697421Y362059D01*
X697470Y361895D01*
X697511Y361730D01*
X697541Y361660D01*
X697563Y361587D01*
X697638Y361433D01*
X697706Y361276D01*
X697747Y361212D01*
X697780Y361144D01*
X697879Y361004D01*
X697971Y360860D01*
X698022Y360804D01*
X698066Y360741D01*
X698186Y360620D01*
X698300Y360492D01*
X698359Y360444D01*
X698412Y360390D01*
X698413Y360390D01*
X698551Y360289D01*
X698684Y360182D01*
X698750Y360144D01*
X698812Y360099D01*
X698964Y360023D01*
X699113Y359938D01*
X699184Y359911D01*
X699252Y359877D01*
X699415Y359826D01*
X699575Y359766D01*
X699650Y359752D01*
X699723Y359729D01*
X699827Y359717D01*
X700059Y359672D01*
X700295Y359664D01*
X700400Y359653D01*
X711691Y359653D01*
X711691Y353615D01*
X711518Y352969D01*
X711183Y352390D01*
X710710Y351917D01*
X709836Y351412D01*
X709648Y351282D01*
X709459Y351155D01*
X709445Y351142D01*
X709430Y351132D01*
X709265Y350973D01*
X709100Y350818D01*
X709088Y350803D01*
X709074Y350789D01*
X708938Y350607D01*
X708799Y350426D01*
X708790Y350409D01*
X708779Y350394D01*
X708674Y350193D01*
X708566Y349991D01*
X708560Y349973D01*
X708551Y349957D01*
X708480Y349741D01*
X708406Y349525D01*
X708403Y349506D01*
X708397Y349488D01*
X708362Y349264D01*
X708323Y349038D01*
X708323Y349019D01*
X708320Y349001D01*
X708322Y348774D01*
X708320Y348545D01*
X708323Y348526D01*
X708324Y348507D01*
X708362Y348283D01*
X708397Y348058D01*
X708403Y348040D01*
X708406Y348021D01*
X708480Y347806D01*
X708551Y347589D01*
X708560Y347572D01*
X708566Y347554D01*
X708674Y347353D01*
X708779Y347151D01*
X708789Y347139D01*
X708799Y347120D01*
X709100Y346728D01*
X709167Y346665D01*
X709204Y346618D01*
X711264Y344559D01*
X713215Y339849D01*
X713215Y334751D01*
X711264Y330041D01*
X707659Y326436D01*
X702949Y324485D01*
X697851Y324485D01*
X693141Y326436D01*
X689855Y329722D01*
X689797Y329772D01*
X689745Y329827D01*
X689609Y329931D01*
X689479Y330042D01*
X689413Y330081D01*
X689353Y330128D01*
X689203Y330208D01*
X689056Y330297D01*
X688986Y330325D01*
X688918Y330361D01*
X688757Y330416D01*
X688598Y330480D01*
X688524Y330496D01*
X688452Y330521D01*
X688283Y330549D01*
X688117Y330586D01*
X688040Y330591D01*
X687965Y330603D01*
X687794Y330605D01*
X687624Y330614D01*
X687548Y330606D01*
X687472Y330606D01*
X687303Y330580D01*
X687133Y330562D01*
X687060Y330542D01*
X686985Y330530D01*
X686822Y330476D01*
X686658Y330431D01*
X686588Y330399D01*
X686516Y330376D01*
X686364Y330297D01*
X686209Y330225D01*
X686146Y330183D01*
X686078Y330148D01*
X685996Y330082D01*
X685800Y329950D01*
X685627Y329788D01*
X685545Y329722D01*
X683005Y327182D01*
X682931Y327096D01*
X682850Y327015D01*
X682772Y326908D01*
X682686Y326807D01*
X682627Y326709D01*
X682560Y326616D01*
X682500Y326498D01*
X682431Y326384D01*
X682389Y326278D01*
X682337Y326176D01*
X682300Y326057D01*
X681030Y322991D01*
X670779Y312740D01*
X668165Y311657D01*
X627235Y311657D01*
G37*
%LPD*%
%LPC*%
G36*
X446895Y311657D02*
X446895Y311657D01*
X444281Y312740D01*
X433970Y323051D01*
X432887Y325665D01*
X432887Y330545D01*
X432870Y330762D01*
X432856Y330981D01*
X432850Y331009D01*
X432847Y331037D01*
X432795Y331249D01*
X432746Y331462D01*
X432735Y331488D01*
X432729Y331516D01*
X432642Y331717D01*
X432560Y331919D01*
X432545Y331943D01*
X432534Y331969D01*
X432417Y332153D01*
X432303Y332340D01*
X432284Y332362D01*
X432269Y332385D01*
X432124Y332548D01*
X431981Y332714D01*
X431959Y332732D01*
X431940Y332753D01*
X431770Y332890D01*
X431603Y333031D01*
X431582Y333042D01*
X431556Y333063D01*
X431434Y333133D01*
X430204Y334362D01*
X429585Y335856D01*
X429585Y339840D01*
X429579Y339916D01*
X429581Y339992D01*
X429559Y340161D01*
X429545Y340332D01*
X429527Y340406D01*
X429517Y340481D01*
X429468Y340645D01*
X429427Y340811D01*
X429397Y340880D01*
X429375Y340954D01*
X429299Y341107D01*
X429232Y341264D01*
X429191Y341328D01*
X429158Y341397D01*
X429059Y341536D01*
X428967Y341680D01*
X428916Y341737D01*
X428872Y341799D01*
X428752Y341920D01*
X428638Y342048D01*
X428579Y342096D01*
X428525Y342150D01*
X428387Y342251D01*
X428254Y342358D01*
X428188Y342395D01*
X428127Y342440D01*
X427974Y342517D01*
X427826Y342602D01*
X427754Y342628D01*
X427686Y342663D01*
X427523Y342714D01*
X427429Y342749D01*
X424481Y343970D01*
X415610Y352841D01*
X414527Y355455D01*
X414527Y378428D01*
X414524Y378466D01*
X414526Y378504D01*
X414504Y378712D01*
X414487Y378920D01*
X414478Y378957D01*
X414474Y378995D01*
X414419Y379196D01*
X414369Y379399D01*
X414354Y379434D01*
X414343Y379471D01*
X414256Y379660D01*
X414174Y379852D01*
X414154Y379884D01*
X414138Y379919D01*
X414021Y380093D01*
X413909Y380268D01*
X413884Y380297D01*
X413862Y380328D01*
X413719Y380481D01*
X413580Y380636D01*
X413551Y380660D01*
X413524Y380688D01*
X413359Y380815D01*
X413196Y380946D01*
X413163Y380965D01*
X413133Y380988D01*
X412949Y381087D01*
X412768Y381190D01*
X412732Y381203D01*
X412698Y381221D01*
X412501Y381289D01*
X412305Y381362D01*
X412268Y381369D01*
X412232Y381381D01*
X412026Y381416D01*
X411821Y381456D01*
X411783Y381457D01*
X411745Y381464D01*
X411536Y381465D01*
X411328Y381472D01*
X411290Y381467D01*
X411252Y381467D01*
X411045Y381434D01*
X410839Y381407D01*
X410802Y381396D01*
X410765Y381390D01*
X410567Y381325D01*
X410367Y381265D01*
X410332Y381248D01*
X410296Y381236D01*
X410111Y381140D01*
X409923Y381048D01*
X409892Y381026D01*
X409858Y381008D01*
X409786Y380950D01*
X409521Y380762D01*
X409399Y380641D01*
X409325Y380583D01*
X408496Y379753D01*
X406835Y378547D01*
X405006Y377615D01*
X403499Y377125D01*
X403499Y396701D01*
X413041Y396701D01*
X413041Y388674D01*
X412860Y387535D01*
X412858Y387505D01*
X412852Y387475D01*
X412839Y387259D01*
X412823Y387043D01*
X412826Y387013D01*
X412824Y386982D01*
X412847Y386767D01*
X412865Y386552D01*
X412873Y386522D01*
X412876Y386492D01*
X412933Y386283D01*
X412987Y386074D01*
X412999Y386046D01*
X413007Y386016D01*
X413097Y385819D01*
X413183Y385621D01*
X413200Y385596D01*
X413212Y385568D01*
X413333Y385388D01*
X413450Y385206D01*
X413471Y385184D01*
X413488Y385158D01*
X413636Y385001D01*
X413781Y384840D01*
X413805Y384821D01*
X413826Y384799D01*
X413997Y384667D01*
X414166Y384532D01*
X414193Y384517D01*
X414217Y384499D01*
X414407Y384397D01*
X414596Y384290D01*
X414625Y384280D01*
X414652Y384265D01*
X414856Y384195D01*
X415060Y384121D01*
X415090Y384115D01*
X415118Y384105D01*
X415332Y384069D01*
X415544Y384029D01*
X415575Y384028D01*
X415605Y384023D01*
X415822Y384022D01*
X416037Y384016D01*
X416068Y384020D01*
X416098Y384020D01*
X416312Y384053D01*
X416526Y384083D01*
X416555Y384092D01*
X416586Y384096D01*
X416791Y384164D01*
X416998Y384228D01*
X417025Y384241D01*
X417054Y384251D01*
X417247Y384351D01*
X417440Y384447D01*
X417465Y384464D01*
X417492Y384479D01*
X417558Y384531D01*
X417841Y384734D01*
X417955Y384848D01*
X418025Y384904D01*
X434543Y401422D01*
X434617Y401509D01*
X434698Y401589D01*
X434776Y401696D01*
X434862Y401798D01*
X434921Y401896D01*
X434988Y401988D01*
X435048Y402106D01*
X435117Y402220D01*
X435159Y402326D01*
X435211Y402428D01*
X435251Y402555D01*
X435300Y402678D01*
X435325Y402790D01*
X435359Y402899D01*
X435369Y402992D01*
X435407Y403160D01*
X435425Y403484D01*
X435435Y403576D01*
X435435Y413597D01*
X437653Y418950D01*
X441750Y423047D01*
X447103Y425265D01*
X452897Y425265D01*
X458250Y423047D01*
X462347Y418950D01*
X464565Y413597D01*
X464565Y389890D01*
X464571Y389814D01*
X464569Y389738D01*
X464591Y389569D01*
X464605Y389398D01*
X464623Y389324D01*
X464633Y389249D01*
X464682Y389085D01*
X464723Y388919D01*
X464753Y388850D01*
X464775Y388776D01*
X464851Y388623D01*
X464918Y388466D01*
X464959Y388402D01*
X464992Y388333D01*
X465091Y388194D01*
X465183Y388050D01*
X465234Y387993D01*
X465278Y387931D01*
X465398Y387810D01*
X465512Y387682D01*
X465571Y387634D01*
X465625Y387580D01*
X465763Y387479D01*
X465896Y387372D01*
X465962Y387335D01*
X466023Y387290D01*
X466176Y387213D01*
X466324Y387128D01*
X466396Y387102D01*
X466464Y387067D01*
X466627Y387016D01*
X466787Y386957D01*
X466862Y386942D01*
X466934Y386919D01*
X467039Y386907D01*
X467271Y386862D01*
X467507Y386855D01*
X467612Y386843D01*
X482388Y386843D01*
X482464Y386849D01*
X482540Y386847D01*
X482709Y386869D01*
X482880Y386883D01*
X482954Y386901D01*
X483029Y386911D01*
X483193Y386960D01*
X483359Y387001D01*
X483428Y387031D01*
X483502Y387053D01*
X483655Y387129D01*
X483812Y387196D01*
X483876Y387237D01*
X483945Y387270D01*
X484084Y387369D01*
X484228Y387461D01*
X484285Y387512D01*
X484347Y387556D01*
X484468Y387676D01*
X484596Y387790D01*
X484644Y387849D01*
X484698Y387903D01*
X484799Y388041D01*
X484906Y388174D01*
X484943Y388240D01*
X484988Y388301D01*
X485065Y388454D01*
X485150Y388602D01*
X485176Y388674D01*
X485211Y388742D01*
X485262Y388905D01*
X485321Y389065D01*
X485336Y389140D01*
X485359Y389212D01*
X485371Y389317D01*
X485416Y389549D01*
X485423Y389785D01*
X485435Y389890D01*
X485435Y413597D01*
X487653Y418950D01*
X491750Y423047D01*
X497103Y425265D01*
X502897Y425265D01*
X508250Y423047D01*
X512347Y418950D01*
X514565Y413597D01*
X514565Y410310D01*
X514582Y410092D01*
X514596Y409874D01*
X514602Y409846D01*
X514605Y409818D01*
X514657Y409606D01*
X514706Y409393D01*
X514717Y409367D01*
X514723Y409339D01*
X514810Y409138D01*
X514892Y408936D01*
X514907Y408912D01*
X514918Y408886D01*
X515035Y408702D01*
X515149Y408515D01*
X515168Y408494D01*
X515183Y408470D01*
X515328Y408307D01*
X515471Y408141D01*
X515493Y408123D01*
X515512Y408102D01*
X515681Y407965D01*
X515849Y407824D01*
X515870Y407813D01*
X515896Y407792D01*
X516324Y407548D01*
X516400Y407520D01*
X516446Y407495D01*
X519499Y406230D01*
X531757Y393972D01*
X531786Y393947D01*
X531812Y393919D01*
X531974Y393787D01*
X532133Y393652D01*
X532166Y393632D01*
X532196Y393609D01*
X532376Y393506D01*
X532556Y393398D01*
X532591Y393383D01*
X532624Y393365D01*
X532820Y393292D01*
X533014Y393214D01*
X533051Y393206D01*
X533087Y393193D01*
X533292Y393153D01*
X533496Y393108D01*
X533534Y393106D01*
X533571Y393098D01*
X533779Y393092D01*
X533988Y393080D01*
X534026Y393084D01*
X534064Y393083D01*
X534271Y393110D01*
X534479Y393132D01*
X534515Y393142D01*
X534553Y393147D01*
X534753Y393208D01*
X534954Y393263D01*
X534989Y393279D01*
X535026Y393290D01*
X535213Y393381D01*
X535403Y393469D01*
X535435Y393490D01*
X535469Y393507D01*
X535638Y393627D01*
X535812Y393744D01*
X535840Y393770D01*
X535871Y393792D01*
X536019Y393939D01*
X536172Y394082D01*
X536195Y394112D01*
X536222Y394139D01*
X536345Y394308D01*
X536472Y394473D01*
X536490Y394507D01*
X536512Y394538D01*
X536606Y394724D01*
X536705Y394908D01*
X536718Y394944D01*
X536735Y394978D01*
X536797Y395177D01*
X536865Y395375D01*
X536871Y395412D01*
X536883Y395449D01*
X536893Y395541D01*
X536948Y395861D01*
X536949Y396033D01*
X536959Y396126D01*
X536959Y396701D01*
X549548Y396701D01*
X549624Y396707D01*
X549700Y396705D01*
X549869Y396727D01*
X550015Y396739D01*
X550111Y396720D01*
X550347Y396713D01*
X550452Y396701D01*
X563041Y396701D01*
X563041Y388674D01*
X562720Y386646D01*
X562085Y384694D01*
X561153Y382865D01*
X559947Y381204D01*
X558496Y379753D01*
X556835Y378547D01*
X555006Y377615D01*
X553484Y377120D01*
X553304Y377045D01*
X553121Y376976D01*
X553076Y376950D01*
X553029Y376930D01*
X552863Y376827D01*
X552694Y376729D01*
X552654Y376697D01*
X552610Y376669D01*
X552463Y376541D01*
X552312Y376417D01*
X552278Y376378D01*
X552239Y376344D01*
X552115Y376193D01*
X551985Y376047D01*
X551958Y376003D01*
X551926Y375964D01*
X551827Y375794D01*
X551723Y375629D01*
X551703Y375582D01*
X551677Y375537D01*
X551607Y375355D01*
X551531Y375174D01*
X551519Y375125D01*
X551501Y375077D01*
X551462Y374885D01*
X551416Y374695D01*
X551412Y374644D01*
X551402Y374593D01*
X551394Y374398D01*
X551379Y374203D01*
X551383Y374152D01*
X551381Y374100D01*
X551405Y373906D01*
X551422Y373711D01*
X551433Y373672D01*
X551441Y373611D01*
X551579Y373137D01*
X551601Y373090D01*
X551611Y373056D01*
X551943Y372255D01*
X551943Y338945D01*
X550860Y336331D01*
X548431Y333902D01*
X548430Y333901D01*
X545799Y331270D01*
X543185Y330187D01*
X537672Y330187D01*
X537559Y330178D01*
X537444Y330179D01*
X537313Y330158D01*
X537181Y330147D01*
X537070Y330120D01*
X536957Y330102D01*
X536831Y330061D01*
X536702Y330029D01*
X536597Y329984D01*
X536488Y329948D01*
X536370Y329886D01*
X536248Y329834D01*
X536152Y329773D01*
X536051Y329720D01*
X535977Y329661D01*
X535832Y329569D01*
X535590Y329353D01*
X535518Y329295D01*
X532659Y326436D01*
X527949Y324485D01*
X522851Y324485D01*
X518141Y326436D01*
X514855Y329722D01*
X514797Y329772D01*
X514745Y329827D01*
X514609Y329931D01*
X514479Y330042D01*
X514413Y330081D01*
X514353Y330128D01*
X514203Y330208D01*
X514056Y330297D01*
X513986Y330325D01*
X513918Y330361D01*
X513757Y330416D01*
X513598Y330480D01*
X513524Y330496D01*
X513452Y330521D01*
X513283Y330549D01*
X513117Y330586D01*
X513040Y330591D01*
X512965Y330603D01*
X512794Y330605D01*
X512624Y330614D01*
X512548Y330606D01*
X512472Y330606D01*
X512303Y330580D01*
X512133Y330562D01*
X512060Y330542D01*
X511985Y330530D01*
X511822Y330476D01*
X511658Y330431D01*
X511588Y330399D01*
X511516Y330376D01*
X511364Y330297D01*
X511209Y330225D01*
X511146Y330183D01*
X511078Y330148D01*
X510996Y330082D01*
X510800Y329950D01*
X510627Y329788D01*
X510545Y329722D01*
X507259Y326436D01*
X502549Y324485D01*
X498506Y324485D01*
X498393Y324476D01*
X498278Y324477D01*
X498147Y324456D01*
X498015Y324445D01*
X497904Y324418D01*
X497791Y324400D01*
X497665Y324359D01*
X497536Y324327D01*
X497431Y324282D01*
X497322Y324246D01*
X497205Y324184D01*
X497082Y324132D01*
X496986Y324071D01*
X496885Y324018D01*
X496811Y323959D01*
X496666Y323867D01*
X496424Y323651D01*
X496352Y323593D01*
X485499Y312740D01*
X482885Y311657D01*
X446895Y311657D01*
G37*
%LPD*%
%LPC*%
G36*
X447103Y134735D02*
X447103Y134735D01*
X441750Y136953D01*
X437653Y141050D01*
X435435Y146403D01*
X435435Y163044D01*
X435426Y163157D01*
X435427Y163272D01*
X435406Y163403D01*
X435395Y163535D01*
X435368Y163646D01*
X435350Y163759D01*
X435309Y163885D01*
X435277Y164014D01*
X435232Y164119D01*
X435196Y164228D01*
X435134Y164345D01*
X435082Y164468D01*
X435021Y164564D01*
X434968Y164665D01*
X434909Y164739D01*
X434817Y164884D01*
X434601Y165126D01*
X434543Y165198D01*
X418150Y181591D01*
X417067Y184205D01*
X417067Y216045D01*
X418150Y218659D01*
X425521Y226030D01*
X427704Y226934D01*
X427899Y227034D01*
X428095Y227130D01*
X428118Y227146D01*
X428143Y227159D01*
X428319Y227289D01*
X428497Y227415D01*
X428517Y227435D01*
X428540Y227452D01*
X428693Y227609D01*
X428848Y227762D01*
X428865Y227785D01*
X428885Y227805D01*
X429010Y227985D01*
X429138Y228161D01*
X429151Y228186D01*
X429167Y228209D01*
X429262Y228407D01*
X429361Y228601D01*
X429369Y228628D01*
X429382Y228654D01*
X429443Y228864D01*
X429509Y229072D01*
X429512Y229095D01*
X429521Y229127D01*
X429582Y229617D01*
X429579Y229697D01*
X429585Y229749D01*
X429585Y234144D01*
X430204Y235638D01*
X431414Y236848D01*
X431420Y236852D01*
X431445Y236864D01*
X431621Y236994D01*
X431799Y237121D01*
X431819Y237141D01*
X431842Y237157D01*
X431995Y237314D01*
X432150Y237467D01*
X432167Y237490D01*
X432186Y237510D01*
X432312Y237690D01*
X432440Y237866D01*
X432453Y237891D01*
X432469Y237915D01*
X432564Y238112D01*
X432663Y238307D01*
X432671Y238334D01*
X432683Y238359D01*
X432745Y238568D01*
X432811Y238777D01*
X432814Y238800D01*
X432823Y238832D01*
X432884Y239322D01*
X432881Y239402D01*
X432887Y239455D01*
X432887Y242025D01*
X433970Y244639D01*
X449361Y260030D01*
X451975Y261113D01*
X480115Y261113D01*
X482729Y260030D01*
X496352Y246407D01*
X496439Y246333D01*
X496519Y246252D01*
X496626Y246174D01*
X496728Y246088D01*
X496826Y246029D01*
X496918Y245962D01*
X497036Y245902D01*
X497150Y245833D01*
X497256Y245791D01*
X497358Y245739D01*
X497485Y245699D01*
X497608Y245650D01*
X497720Y245625D01*
X497829Y245591D01*
X497922Y245581D01*
X498090Y245543D01*
X498414Y245525D01*
X498506Y245515D01*
X502549Y245515D01*
X507259Y243564D01*
X509318Y241504D01*
X509492Y241357D01*
X509664Y241207D01*
X509680Y241197D01*
X509694Y241185D01*
X509890Y241067D01*
X510083Y240947D01*
X510101Y240940D01*
X510117Y240930D01*
X510328Y240846D01*
X510539Y240759D01*
X510557Y240754D01*
X510575Y240747D01*
X510797Y240698D01*
X511019Y240646D01*
X511038Y240645D01*
X511057Y240641D01*
X511285Y240628D01*
X511511Y240612D01*
X511530Y240614D01*
X511549Y240613D01*
X511776Y240637D01*
X512003Y240658D01*
X512021Y240663D01*
X512040Y240665D01*
X512259Y240725D01*
X512480Y240783D01*
X512497Y240791D01*
X512515Y240796D01*
X512723Y240891D01*
X512931Y240983D01*
X512947Y240994D01*
X512964Y241001D01*
X513153Y241129D01*
X513343Y241254D01*
X513357Y241266D01*
X513373Y241277D01*
X513540Y241433D01*
X513707Y241587D01*
X513716Y241599D01*
X513733Y241615D01*
X514033Y242006D01*
X514077Y242088D01*
X514112Y242136D01*
X514617Y243010D01*
X515090Y243483D01*
X515669Y243818D01*
X516315Y243991D01*
X522353Y243991D01*
X522353Y232700D01*
X522359Y232624D01*
X522356Y232548D01*
X522379Y232379D01*
X522393Y232209D01*
X522411Y232135D01*
X522421Y232059D01*
X522470Y231895D01*
X522511Y231730D01*
X522541Y231660D01*
X522563Y231587D01*
X522638Y231433D01*
X522706Y231276D01*
X522747Y231212D01*
X522780Y231144D01*
X522879Y231004D01*
X522971Y230860D01*
X523022Y230804D01*
X523066Y230741D01*
X523186Y230620D01*
X523300Y230492D01*
X523359Y230444D01*
X523412Y230390D01*
X523413Y230390D01*
X523551Y230289D01*
X523684Y230182D01*
X523750Y230144D01*
X523812Y230099D01*
X523964Y230023D01*
X524113Y229938D01*
X524184Y229911D01*
X524252Y229877D01*
X524415Y229826D01*
X524575Y229766D01*
X524650Y229752D01*
X524723Y229729D01*
X524827Y229717D01*
X525059Y229672D01*
X525295Y229664D01*
X525400Y229653D01*
X536691Y229653D01*
X536691Y223615D01*
X536518Y222969D01*
X536183Y222390D01*
X535710Y221917D01*
X534836Y221412D01*
X534648Y221283D01*
X534459Y221155D01*
X534445Y221142D01*
X534430Y221132D01*
X534266Y220974D01*
X534100Y220818D01*
X534088Y220803D01*
X534074Y220789D01*
X533938Y220607D01*
X533799Y220426D01*
X533790Y220409D01*
X533779Y220394D01*
X533674Y220192D01*
X533566Y219991D01*
X533560Y219973D01*
X533551Y219957D01*
X533480Y219741D01*
X533406Y219525D01*
X533403Y219506D01*
X533397Y219488D01*
X533362Y219264D01*
X533324Y219038D01*
X533323Y219019D01*
X533320Y219001D01*
X533322Y218774D01*
X533320Y218545D01*
X533323Y218526D01*
X533324Y218507D01*
X533362Y218283D01*
X533397Y218058D01*
X533403Y218040D01*
X533406Y218021D01*
X533480Y217805D01*
X533551Y217589D01*
X533560Y217572D01*
X533566Y217554D01*
X533673Y217355D01*
X533779Y217152D01*
X533789Y217139D01*
X533800Y217120D01*
X534100Y216728D01*
X534167Y216665D01*
X534204Y216618D01*
X536264Y214559D01*
X538215Y209849D01*
X538215Y204751D01*
X536264Y200041D01*
X535055Y198832D01*
X534981Y198746D01*
X534900Y198665D01*
X534822Y198558D01*
X534736Y198457D01*
X534677Y198359D01*
X534610Y198266D01*
X534550Y198148D01*
X534481Y198034D01*
X534439Y197928D01*
X534387Y197826D01*
X534347Y197699D01*
X534298Y197576D01*
X534273Y197465D01*
X534239Y197355D01*
X534229Y197262D01*
X534191Y197094D01*
X534173Y196770D01*
X534163Y196678D01*
X534163Y180067D01*
X534165Y180036D01*
X534163Y180006D01*
X534185Y179791D01*
X534203Y179575D01*
X534210Y179545D01*
X534213Y179515D01*
X534269Y179306D01*
X534321Y179096D01*
X534333Y179068D01*
X534341Y179038D01*
X534431Y178841D01*
X534516Y178643D01*
X534532Y178617D01*
X534545Y178589D01*
X534665Y178409D01*
X534781Y178227D01*
X534801Y178204D01*
X534818Y178178D01*
X534966Y178020D01*
X535110Y177859D01*
X535133Y177840D01*
X535154Y177817D01*
X535326Y177684D01*
X535494Y177549D01*
X535520Y177534D01*
X535544Y177515D01*
X535734Y177412D01*
X535922Y177305D01*
X535951Y177294D01*
X535978Y177280D01*
X536181Y177209D01*
X536385Y177133D01*
X536415Y177127D01*
X536444Y177117D01*
X536657Y177080D01*
X536869Y177038D01*
X536899Y177037D01*
X536930Y177032D01*
X537147Y177030D01*
X537362Y177023D01*
X537392Y177027D01*
X537423Y177027D01*
X537637Y177059D01*
X537851Y177087D01*
X537881Y177096D01*
X537911Y177101D01*
X538116Y177167D01*
X538323Y177230D01*
X538351Y177243D01*
X538380Y177253D01*
X538573Y177352D01*
X538767Y177447D01*
X538791Y177465D01*
X538819Y177479D01*
X538993Y177607D01*
X539169Y177732D01*
X539191Y177754D01*
X539215Y177772D01*
X539272Y177835D01*
X539520Y178079D01*
X539614Y178209D01*
X539675Y178275D01*
X540053Y178796D01*
X541504Y180247D01*
X543165Y181453D01*
X544994Y182385D01*
X546501Y182875D01*
X546501Y163299D01*
X536890Y163299D01*
X536851Y163441D01*
X536801Y163644D01*
X536786Y163679D01*
X536775Y163716D01*
X536689Y163905D01*
X536606Y164098D01*
X536586Y164130D01*
X536570Y164164D01*
X536453Y164338D01*
X536341Y164514D01*
X536316Y164542D01*
X536294Y164574D01*
X536151Y164726D01*
X536012Y164881D01*
X535983Y164905D01*
X535956Y164933D01*
X535791Y165061D01*
X535628Y165191D01*
X535595Y165210D01*
X535565Y165234D01*
X535381Y165332D01*
X535200Y165435D01*
X535164Y165449D01*
X535130Y165467D01*
X534933Y165534D01*
X534737Y165607D01*
X534700Y165614D01*
X534664Y165627D01*
X534457Y165662D01*
X534253Y165702D01*
X534215Y165703D01*
X534177Y165709D01*
X533968Y165711D01*
X533760Y165717D01*
X533722Y165712D01*
X533684Y165712D01*
X533477Y165680D01*
X533271Y165653D01*
X533234Y165642D01*
X533197Y165636D01*
X532999Y165571D01*
X532799Y165510D01*
X532764Y165493D01*
X532728Y165481D01*
X532543Y165385D01*
X532355Y165293D01*
X532324Y165271D01*
X532290Y165254D01*
X532218Y165196D01*
X531953Y165008D01*
X531831Y164887D01*
X531757Y164828D01*
X530650Y163721D01*
X520699Y153770D01*
X518085Y152687D01*
X517612Y152687D01*
X517536Y152681D01*
X517460Y152683D01*
X517291Y152661D01*
X517120Y152647D01*
X517046Y152629D01*
X516971Y152619D01*
X516807Y152570D01*
X516641Y152529D01*
X516572Y152499D01*
X516498Y152477D01*
X516345Y152401D01*
X516188Y152334D01*
X516124Y152293D01*
X516055Y152260D01*
X515916Y152161D01*
X515772Y152069D01*
X515715Y152018D01*
X515653Y151974D01*
X515532Y151854D01*
X515404Y151740D01*
X515356Y151681D01*
X515302Y151627D01*
X515201Y151489D01*
X515094Y151356D01*
X515057Y151290D01*
X515012Y151229D01*
X514935Y151076D01*
X514850Y150928D01*
X514824Y150856D01*
X514789Y150788D01*
X514738Y150625D01*
X514679Y150465D01*
X514664Y150390D01*
X514641Y150318D01*
X514629Y150213D01*
X514584Y149981D01*
X514577Y149745D01*
X514565Y149640D01*
X514565Y146403D01*
X512347Y141050D01*
X508250Y136953D01*
X502897Y134735D01*
X497103Y134735D01*
X491750Y136953D01*
X487653Y141050D01*
X485435Y146403D01*
X485435Y173197D01*
X486333Y175364D01*
X486388Y175535D01*
X486451Y175705D01*
X486464Y175770D01*
X486484Y175833D01*
X486511Y176012D01*
X486546Y176189D01*
X486548Y176255D01*
X486558Y176321D01*
X486555Y176502D01*
X486561Y176682D01*
X486552Y176748D01*
X486551Y176815D01*
X486520Y176992D01*
X486497Y177171D01*
X486477Y177235D01*
X486466Y177300D01*
X486406Y177470D01*
X486354Y177644D01*
X486325Y177703D01*
X486303Y177766D01*
X486216Y177924D01*
X486137Y178087D01*
X486099Y178141D01*
X486067Y178199D01*
X485956Y178342D01*
X485852Y178489D01*
X485805Y178536D01*
X485764Y178589D01*
X485632Y178712D01*
X485505Y178840D01*
X485451Y178879D01*
X485402Y178924D01*
X485252Y179024D01*
X485106Y179130D01*
X485047Y179160D01*
X484991Y179197D01*
X484827Y179271D01*
X484666Y179353D01*
X484602Y179373D01*
X484542Y179400D01*
X484368Y179447D01*
X484195Y179501D01*
X484143Y179507D01*
X484065Y179528D01*
X483574Y179577D01*
X483541Y179575D01*
X483517Y179577D01*
X466483Y179577D01*
X466302Y179563D01*
X466122Y179556D01*
X466057Y179543D01*
X465991Y179537D01*
X465816Y179494D01*
X465639Y179458D01*
X465577Y179435D01*
X465512Y179419D01*
X465346Y179347D01*
X465177Y179284D01*
X465120Y179250D01*
X465059Y179224D01*
X464906Y179127D01*
X464750Y179037D01*
X464698Y178995D01*
X464643Y178959D01*
X464508Y178839D01*
X464368Y178724D01*
X464324Y178675D01*
X464275Y178630D01*
X464161Y178490D01*
X464042Y178355D01*
X464006Y178298D01*
X463965Y178246D01*
X463876Y178090D01*
X463779Y177937D01*
X463754Y177876D01*
X463721Y177818D01*
X463658Y177648D01*
X463588Y177482D01*
X463572Y177418D01*
X463549Y177355D01*
X463514Y177178D01*
X463472Y177003D01*
X463467Y176936D01*
X463454Y176871D01*
X463449Y176691D01*
X463435Y176511D01*
X463441Y176444D01*
X463439Y176378D01*
X463463Y176199D01*
X463478Y176019D01*
X463493Y175969D01*
X463503Y175889D01*
X463646Y175417D01*
X463661Y175386D01*
X463667Y175364D01*
X464565Y173197D01*
X464565Y146403D01*
X462347Y141050D01*
X458250Y136953D01*
X452897Y134735D01*
X447103Y134735D01*
G37*
%LPD*%
%LPC*%
G36*
X147103Y134735D02*
X147103Y134735D01*
X141750Y136953D01*
X137653Y141050D01*
X135435Y146403D01*
X135435Y149640D01*
X135429Y149716D01*
X135431Y149792D01*
X135409Y149961D01*
X135395Y150132D01*
X135377Y150206D01*
X135367Y150281D01*
X135318Y150445D01*
X135277Y150611D01*
X135247Y150680D01*
X135225Y150754D01*
X135149Y150907D01*
X135082Y151064D01*
X135041Y151128D01*
X135008Y151197D01*
X134909Y151336D01*
X134817Y151480D01*
X134766Y151537D01*
X134722Y151599D01*
X134602Y151720D01*
X134488Y151848D01*
X134429Y151896D01*
X134375Y151950D01*
X134237Y152051D01*
X134104Y152158D01*
X134038Y152195D01*
X133977Y152240D01*
X133824Y152317D01*
X133676Y152402D01*
X133604Y152428D01*
X133536Y152463D01*
X133373Y152514D01*
X133213Y152573D01*
X133138Y152588D01*
X133066Y152611D01*
X132961Y152623D01*
X132729Y152668D01*
X132493Y152675D01*
X132388Y152687D01*
X110375Y152687D01*
X107761Y153770D01*
X63970Y197561D01*
X62887Y200175D01*
X62887Y221415D01*
X63970Y224029D01*
X65971Y226030D01*
X68585Y227113D01*
X76538Y227113D01*
X76614Y227119D01*
X76690Y227117D01*
X76859Y227139D01*
X77030Y227153D01*
X77104Y227171D01*
X77179Y227181D01*
X77343Y227230D01*
X77509Y227271D01*
X77578Y227301D01*
X77652Y227323D01*
X77805Y227399D01*
X77962Y227466D01*
X78026Y227507D01*
X78095Y227540D01*
X78234Y227639D01*
X78378Y227731D01*
X78435Y227782D01*
X78497Y227826D01*
X78618Y227946D01*
X78746Y228060D01*
X78794Y228119D01*
X78848Y228173D01*
X78949Y228311D01*
X79056Y228444D01*
X79093Y228510D01*
X79138Y228571D01*
X79215Y228724D01*
X79300Y228872D01*
X79326Y228944D01*
X79361Y229012D01*
X79412Y229175D01*
X79471Y229335D01*
X79486Y229410D01*
X79509Y229482D01*
X79521Y229587D01*
X79566Y229819D01*
X79573Y230055D01*
X79585Y230160D01*
X79585Y234144D01*
X80204Y235638D01*
X81347Y236781D01*
X82841Y237400D01*
X86079Y237400D01*
X86192Y237409D01*
X86307Y237408D01*
X86438Y237429D01*
X86570Y237440D01*
X86681Y237467D01*
X86794Y237485D01*
X86920Y237526D01*
X87049Y237558D01*
X87154Y237603D01*
X87263Y237639D01*
X87380Y237701D01*
X87503Y237753D01*
X87599Y237814D01*
X87700Y237867D01*
X87774Y237926D01*
X87919Y238018D01*
X88161Y238234D01*
X88233Y238292D01*
X105971Y256030D01*
X108585Y257113D01*
X134115Y257113D01*
X136729Y256030D01*
X146352Y246407D01*
X146439Y246333D01*
X146519Y246252D01*
X146626Y246174D01*
X146728Y246088D01*
X146826Y246029D01*
X146918Y245962D01*
X147036Y245902D01*
X147150Y245833D01*
X147256Y245791D01*
X147358Y245739D01*
X147485Y245699D01*
X147608Y245650D01*
X147720Y245625D01*
X147829Y245591D01*
X147922Y245581D01*
X148090Y245543D01*
X148414Y245525D01*
X148506Y245515D01*
X152549Y245515D01*
X157259Y243564D01*
X159318Y241504D01*
X159492Y241357D01*
X159664Y241207D01*
X159680Y241197D01*
X159694Y241185D01*
X159890Y241067D01*
X160083Y240947D01*
X160101Y240940D01*
X160117Y240930D01*
X160328Y240846D01*
X160539Y240759D01*
X160557Y240754D01*
X160575Y240747D01*
X160797Y240698D01*
X161019Y240646D01*
X161038Y240645D01*
X161057Y240641D01*
X161285Y240628D01*
X161511Y240612D01*
X161530Y240614D01*
X161549Y240613D01*
X161776Y240637D01*
X162003Y240658D01*
X162021Y240663D01*
X162040Y240665D01*
X162259Y240725D01*
X162480Y240783D01*
X162497Y240791D01*
X162515Y240796D01*
X162723Y240891D01*
X162931Y240983D01*
X162947Y240994D01*
X162964Y241001D01*
X163153Y241129D01*
X163343Y241254D01*
X163357Y241266D01*
X163373Y241277D01*
X163540Y241433D01*
X163707Y241587D01*
X163716Y241599D01*
X163733Y241615D01*
X164033Y242006D01*
X164077Y242088D01*
X164112Y242136D01*
X164617Y243010D01*
X165090Y243483D01*
X165669Y243818D01*
X166315Y243991D01*
X172353Y243991D01*
X172353Y232700D01*
X172359Y232624D01*
X172356Y232548D01*
X172379Y232379D01*
X172393Y232209D01*
X172411Y232135D01*
X172421Y232059D01*
X172470Y231895D01*
X172511Y231730D01*
X172541Y231660D01*
X172563Y231587D01*
X172638Y231433D01*
X172706Y231276D01*
X172747Y231212D01*
X172780Y231144D01*
X172879Y231004D01*
X172971Y230860D01*
X173022Y230804D01*
X173066Y230741D01*
X173186Y230620D01*
X173300Y230492D01*
X173359Y230444D01*
X173412Y230390D01*
X173413Y230390D01*
X173551Y230289D01*
X173684Y230182D01*
X173750Y230144D01*
X173812Y230099D01*
X173964Y230023D01*
X174113Y229938D01*
X174184Y229911D01*
X174252Y229877D01*
X174415Y229826D01*
X174575Y229766D01*
X174650Y229752D01*
X174723Y229729D01*
X174827Y229717D01*
X175059Y229672D01*
X175295Y229664D01*
X175400Y229653D01*
X186691Y229653D01*
X186691Y223615D01*
X186518Y222969D01*
X186183Y222390D01*
X185710Y221917D01*
X184836Y221412D01*
X184648Y221283D01*
X184459Y221155D01*
X184445Y221142D01*
X184430Y221132D01*
X184266Y220974D01*
X184100Y220818D01*
X184088Y220803D01*
X184074Y220789D01*
X183938Y220607D01*
X183799Y220426D01*
X183790Y220409D01*
X183779Y220394D01*
X183674Y220192D01*
X183566Y219991D01*
X183560Y219973D01*
X183551Y219957D01*
X183480Y219741D01*
X183406Y219525D01*
X183403Y219506D01*
X183397Y219488D01*
X183362Y219264D01*
X183324Y219038D01*
X183323Y219019D01*
X183320Y219001D01*
X183322Y218774D01*
X183320Y218545D01*
X183323Y218526D01*
X183324Y218507D01*
X183362Y218283D01*
X183397Y218058D01*
X183403Y218040D01*
X183406Y218021D01*
X183480Y217805D01*
X183551Y217589D01*
X183560Y217572D01*
X183566Y217554D01*
X183673Y217355D01*
X183779Y217152D01*
X183789Y217139D01*
X183800Y217120D01*
X184100Y216728D01*
X184167Y216665D01*
X184204Y216618D01*
X186264Y214559D01*
X188215Y209849D01*
X188215Y205806D01*
X188224Y205693D01*
X188223Y205578D01*
X188244Y205447D01*
X188255Y205315D01*
X188282Y205204D01*
X188300Y205091D01*
X188341Y204965D01*
X188373Y204836D01*
X188418Y204731D01*
X188454Y204622D01*
X188516Y204504D01*
X188568Y204382D01*
X188629Y204286D01*
X188682Y204185D01*
X188741Y204111D01*
X188833Y203966D01*
X189049Y203724D01*
X189107Y203652D01*
X203600Y189159D01*
X206030Y186729D01*
X207128Y184078D01*
X207180Y183976D01*
X207223Y183871D01*
X207292Y183758D01*
X207353Y183639D01*
X207421Y183547D01*
X207480Y183450D01*
X207567Y183349D01*
X207646Y183242D01*
X207728Y183163D01*
X207802Y183076D01*
X207904Y182991D01*
X207999Y182898D01*
X208001Y182896D01*
X212347Y178550D01*
X214565Y173197D01*
X214565Y146403D01*
X212347Y141050D01*
X208250Y136953D01*
X202897Y134735D01*
X197103Y134735D01*
X191750Y136953D01*
X187653Y141050D01*
X185435Y146403D01*
X185435Y173197D01*
X187653Y178550D01*
X188717Y179615D01*
X188766Y179673D01*
X188822Y179725D01*
X188926Y179861D01*
X189036Y179991D01*
X189076Y180056D01*
X189122Y180116D01*
X189203Y180267D01*
X189291Y180413D01*
X189319Y180484D01*
X189355Y180551D01*
X189411Y180713D01*
X189474Y180871D01*
X189491Y180945D01*
X189515Y181018D01*
X189544Y181186D01*
X189581Y181353D01*
X189585Y181429D01*
X189598Y181504D01*
X189599Y181675D01*
X189609Y181845D01*
X189601Y181921D01*
X189601Y181997D01*
X189574Y182166D01*
X189556Y182336D01*
X189536Y182409D01*
X189524Y182485D01*
X189471Y182647D01*
X189426Y182812D01*
X189394Y182881D01*
X189370Y182953D01*
X189291Y183105D01*
X189220Y183260D01*
X189177Y183323D01*
X189142Y183391D01*
X189077Y183473D01*
X188945Y183669D01*
X188783Y183842D01*
X188717Y183924D01*
X179048Y193593D01*
X178961Y193667D01*
X178881Y193748D01*
X178774Y193826D01*
X178672Y193912D01*
X178574Y193971D01*
X178482Y194038D01*
X178364Y194098D01*
X178250Y194167D01*
X178144Y194209D01*
X178042Y194261D01*
X177915Y194301D01*
X177792Y194350D01*
X177680Y194375D01*
X177571Y194409D01*
X177478Y194419D01*
X177310Y194457D01*
X176986Y194475D01*
X176894Y194485D01*
X172851Y194485D01*
X168141Y196436D01*
X164855Y199722D01*
X164797Y199772D01*
X164745Y199827D01*
X164609Y199931D01*
X164479Y200042D01*
X164413Y200081D01*
X164353Y200128D01*
X164203Y200208D01*
X164056Y200297D01*
X163986Y200325D01*
X163918Y200361D01*
X163757Y200416D01*
X163598Y200480D01*
X163524Y200496D01*
X163452Y200521D01*
X163283Y200549D01*
X163117Y200586D01*
X163040Y200591D01*
X162965Y200603D01*
X162794Y200605D01*
X162624Y200614D01*
X162548Y200606D01*
X162472Y200606D01*
X162303Y200580D01*
X162133Y200562D01*
X162060Y200542D01*
X161985Y200530D01*
X161822Y200476D01*
X161658Y200431D01*
X161588Y200399D01*
X161516Y200376D01*
X161364Y200297D01*
X161209Y200225D01*
X161146Y200183D01*
X161078Y200148D01*
X160996Y200082D01*
X160800Y199950D01*
X160627Y199788D01*
X160545Y199722D01*
X157259Y196436D01*
X156515Y196128D01*
X156506Y196124D01*
X156497Y196121D01*
X156285Y196010D01*
X156076Y195903D01*
X156068Y195897D01*
X156060Y195893D01*
X156028Y195868D01*
X155679Y195610D01*
X155588Y195516D01*
X155526Y195467D01*
X153601Y193542D01*
X153600Y193542D01*
X150126Y190067D01*
X150101Y190038D01*
X150073Y190012D01*
X149942Y189850D01*
X149806Y189691D01*
X149786Y189658D01*
X149763Y189628D01*
X149659Y189447D01*
X149552Y189268D01*
X149537Y189233D01*
X149519Y189200D01*
X149446Y189004D01*
X149368Y188810D01*
X149360Y188773D01*
X149347Y188737D01*
X149307Y188532D01*
X149262Y188328D01*
X149260Y188290D01*
X149252Y188253D01*
X149246Y188045D01*
X149234Y187836D01*
X149238Y187798D01*
X149237Y187760D01*
X149264Y187553D01*
X149286Y187345D01*
X149296Y187309D01*
X149301Y187271D01*
X149362Y187071D01*
X149417Y186870D01*
X149433Y186835D01*
X149444Y186798D01*
X149536Y186611D01*
X149623Y186421D01*
X149644Y186390D01*
X149661Y186355D01*
X149781Y186185D01*
X149898Y186012D01*
X149924Y185984D01*
X149946Y185953D01*
X150093Y185805D01*
X150236Y185652D01*
X150266Y185629D01*
X150293Y185602D01*
X150462Y185479D01*
X150627Y185352D01*
X150661Y185334D01*
X150692Y185312D01*
X150878Y185218D01*
X151062Y185119D01*
X151098Y185106D01*
X151132Y185089D01*
X151331Y185027D01*
X151529Y184959D01*
X151566Y184953D01*
X151603Y184941D01*
X151695Y184931D01*
X152015Y184876D01*
X152187Y184875D01*
X152280Y184865D01*
X152897Y184865D01*
X158250Y182647D01*
X162347Y178550D01*
X164565Y173197D01*
X164565Y146403D01*
X162347Y141050D01*
X158250Y136953D01*
X152897Y134735D01*
X147103Y134735D01*
G37*
%LPD*%
%LPC*%
G36*
X108585Y312887D02*
X108585Y312887D01*
X105971Y313970D01*
X93970Y325971D01*
X92887Y328585D01*
X92887Y330545D01*
X92870Y330762D01*
X92856Y330981D01*
X92850Y331009D01*
X92847Y331037D01*
X92795Y331248D01*
X92746Y331462D01*
X92735Y331488D01*
X92729Y331516D01*
X92642Y331717D01*
X92560Y331919D01*
X92545Y331943D01*
X92534Y331969D01*
X92417Y332153D01*
X92303Y332340D01*
X92284Y332361D01*
X92269Y332385D01*
X92124Y332548D01*
X91981Y332713D01*
X91959Y332732D01*
X91940Y332753D01*
X91770Y332890D01*
X91603Y333031D01*
X91583Y333042D01*
X91556Y333063D01*
X91434Y333133D01*
X90204Y334362D01*
X89585Y335856D01*
X89585Y339977D01*
X89568Y340195D01*
X89554Y340413D01*
X89548Y340440D01*
X89545Y340469D01*
X89493Y340681D01*
X89444Y340894D01*
X89433Y340920D01*
X89427Y340948D01*
X89340Y341149D01*
X89258Y341351D01*
X89243Y341375D01*
X89232Y341401D01*
X89115Y341585D01*
X89001Y341772D01*
X88982Y341793D01*
X88967Y341817D01*
X88822Y341980D01*
X88679Y342146D01*
X88657Y342164D01*
X88638Y342185D01*
X88469Y342322D01*
X88301Y342463D01*
X88280Y342474D01*
X88254Y342495D01*
X87826Y342739D01*
X87750Y342767D01*
X87704Y342792D01*
X84861Y343970D01*
X75560Y353271D01*
X74477Y355885D01*
X74477Y371255D01*
X75560Y373869D01*
X107921Y406230D01*
X110535Y407313D01*
X132388Y407313D01*
X132464Y407319D01*
X132540Y407317D01*
X132709Y407339D01*
X132880Y407353D01*
X132954Y407371D01*
X133029Y407381D01*
X133193Y407430D01*
X133359Y407471D01*
X133428Y407501D01*
X133502Y407523D01*
X133655Y407599D01*
X133812Y407666D01*
X133876Y407707D01*
X133945Y407740D01*
X134084Y407839D01*
X134228Y407931D01*
X134285Y407982D01*
X134347Y408026D01*
X134468Y408146D01*
X134596Y408260D01*
X134644Y408319D01*
X134698Y408373D01*
X134799Y408511D01*
X134906Y408644D01*
X134943Y408710D01*
X134988Y408771D01*
X135065Y408924D01*
X135150Y409072D01*
X135176Y409144D01*
X135211Y409212D01*
X135262Y409375D01*
X135321Y409535D01*
X135336Y409610D01*
X135359Y409682D01*
X135371Y409787D01*
X135416Y410019D01*
X135423Y410255D01*
X135435Y410360D01*
X135435Y413597D01*
X137653Y418950D01*
X141750Y423047D01*
X147103Y425265D01*
X152897Y425265D01*
X158250Y423047D01*
X162347Y418950D01*
X164565Y413597D01*
X164565Y386803D01*
X162347Y381450D01*
X158015Y377117D01*
X157966Y377059D01*
X157910Y377007D01*
X157806Y376872D01*
X157695Y376741D01*
X157656Y376676D01*
X157610Y376616D01*
X157529Y376465D01*
X157441Y376319D01*
X157413Y376248D01*
X157377Y376181D01*
X157321Y376019D01*
X157258Y375861D01*
X157241Y375786D01*
X157217Y375714D01*
X157188Y375546D01*
X157151Y375379D01*
X157147Y375303D01*
X157134Y375228D01*
X157133Y375057D01*
X157123Y374887D01*
X157131Y374811D01*
X157131Y374735D01*
X157158Y374566D01*
X157176Y374396D01*
X157196Y374323D01*
X157208Y374247D01*
X157261Y374085D01*
X157306Y373920D01*
X157338Y373851D01*
X157362Y373779D01*
X157441Y373627D01*
X157512Y373472D01*
X157555Y373408D01*
X157590Y373341D01*
X157655Y373259D01*
X157787Y373063D01*
X157949Y372890D01*
X158015Y372808D01*
X159318Y371504D01*
X159492Y371357D01*
X159664Y371207D01*
X159680Y371197D01*
X159694Y371185D01*
X159889Y371068D01*
X160083Y370947D01*
X160101Y370940D01*
X160117Y370930D01*
X160329Y370846D01*
X160539Y370759D01*
X160557Y370754D01*
X160575Y370747D01*
X160798Y370698D01*
X161019Y370646D01*
X161038Y370645D01*
X161057Y370641D01*
X161286Y370628D01*
X161511Y370612D01*
X161530Y370614D01*
X161549Y370613D01*
X161776Y370637D01*
X162003Y370658D01*
X162021Y370663D01*
X162040Y370665D01*
X162259Y370725D01*
X162480Y370783D01*
X162497Y370791D01*
X162515Y370796D01*
X162722Y370890D01*
X162931Y370983D01*
X162947Y370994D01*
X162964Y371001D01*
X163152Y371128D01*
X163343Y371253D01*
X163357Y371266D01*
X163373Y371277D01*
X163539Y371432D01*
X163707Y371587D01*
X163716Y371599D01*
X163733Y371615D01*
X164033Y372006D01*
X164077Y372088D01*
X164112Y372136D01*
X164617Y373010D01*
X165090Y373483D01*
X165669Y373818D01*
X166315Y373991D01*
X172353Y373991D01*
X172353Y362700D01*
X172359Y362624D01*
X172356Y362548D01*
X172379Y362379D01*
X172393Y362209D01*
X172411Y362135D01*
X172421Y362059D01*
X172470Y361895D01*
X172511Y361730D01*
X172541Y361660D01*
X172563Y361587D01*
X172638Y361433D01*
X172706Y361276D01*
X172747Y361212D01*
X172780Y361144D01*
X172879Y361004D01*
X172971Y360860D01*
X173022Y360804D01*
X173066Y360741D01*
X173186Y360620D01*
X173300Y360492D01*
X173359Y360444D01*
X173412Y360390D01*
X173413Y360390D01*
X173551Y360289D01*
X173684Y360182D01*
X173750Y360144D01*
X173812Y360099D01*
X173964Y360023D01*
X174113Y359938D01*
X174184Y359911D01*
X174252Y359877D01*
X174415Y359826D01*
X174575Y359766D01*
X174650Y359752D01*
X174723Y359729D01*
X174827Y359717D01*
X175059Y359672D01*
X175295Y359664D01*
X175400Y359653D01*
X186691Y359653D01*
X186691Y354106D01*
X186694Y354068D01*
X186692Y354030D01*
X186714Y353822D01*
X186731Y353615D01*
X186740Y353578D01*
X186744Y353539D01*
X186799Y353338D01*
X186849Y353136D01*
X186865Y353101D01*
X186875Y353064D01*
X186962Y352874D01*
X187044Y352682D01*
X187065Y352650D01*
X187081Y352615D01*
X187197Y352442D01*
X187309Y352266D01*
X187334Y352238D01*
X187356Y352206D01*
X187499Y352053D01*
X187638Y351899D01*
X187667Y351875D01*
X187694Y351846D01*
X187860Y351719D01*
X188022Y351589D01*
X188055Y351570D01*
X188085Y351546D01*
X188269Y351448D01*
X188450Y351345D01*
X188486Y351331D01*
X188520Y351313D01*
X188717Y351246D01*
X188913Y351173D01*
X188951Y351166D01*
X188987Y351153D01*
X189192Y351118D01*
X189397Y351078D01*
X189435Y351077D01*
X189473Y351071D01*
X189682Y351069D01*
X189890Y351063D01*
X189928Y351068D01*
X189966Y351068D01*
X190173Y351100D01*
X190379Y351127D01*
X190416Y351138D01*
X190454Y351144D01*
X190651Y351209D01*
X190851Y351270D01*
X190886Y351287D01*
X190922Y351299D01*
X191108Y351395D01*
X191295Y351487D01*
X191326Y351509D01*
X191360Y351527D01*
X191433Y351585D01*
X191697Y351772D01*
X191819Y351893D01*
X191893Y351952D01*
X191995Y352054D01*
X192069Y352141D01*
X192150Y352221D01*
X192228Y352329D01*
X192314Y352430D01*
X192373Y352528D01*
X192440Y352620D01*
X192500Y352739D01*
X192569Y352853D01*
X192611Y352958D01*
X192663Y353060D01*
X192703Y353187D01*
X192752Y353311D01*
X192777Y353422D01*
X192811Y353531D01*
X192821Y353624D01*
X192859Y353792D01*
X192877Y354116D01*
X192887Y354208D01*
X192887Y374953D01*
X192878Y375067D01*
X192879Y375181D01*
X192858Y375312D01*
X192847Y375445D01*
X192820Y375555D01*
X192802Y375668D01*
X192761Y375795D01*
X192729Y375923D01*
X192684Y376028D01*
X192648Y376137D01*
X192586Y376255D01*
X192534Y376377D01*
X192473Y376473D01*
X192420Y376574D01*
X192361Y376648D01*
X192269Y376793D01*
X192053Y377035D01*
X191995Y377108D01*
X187653Y381450D01*
X185435Y386803D01*
X185435Y413597D01*
X187653Y418950D01*
X191750Y423047D01*
X197103Y425265D01*
X202897Y425265D01*
X208250Y423047D01*
X212347Y418950D01*
X214565Y413597D01*
X214565Y386803D01*
X212347Y381450D01*
X208005Y377108D01*
X207931Y377021D01*
X207850Y376940D01*
X207772Y376833D01*
X207686Y376732D01*
X207627Y376634D01*
X207560Y376542D01*
X207500Y376423D01*
X207431Y376309D01*
X207389Y376203D01*
X207337Y376101D01*
X207297Y375974D01*
X207248Y375851D01*
X207223Y375740D01*
X207189Y375631D01*
X207179Y375537D01*
X207141Y375369D01*
X207123Y375045D01*
X207113Y374953D01*
X207113Y348585D01*
X206030Y345971D01*
X191329Y331270D01*
X188715Y330187D01*
X187672Y330187D01*
X187559Y330178D01*
X187444Y330179D01*
X187313Y330158D01*
X187181Y330147D01*
X187070Y330120D01*
X186957Y330102D01*
X186831Y330061D01*
X186702Y330029D01*
X186597Y329984D01*
X186488Y329948D01*
X186370Y329886D01*
X186248Y329834D01*
X186152Y329773D01*
X186051Y329720D01*
X185977Y329661D01*
X185832Y329569D01*
X185590Y329353D01*
X185518Y329295D01*
X182659Y326436D01*
X177949Y324485D01*
X172851Y324485D01*
X168141Y326436D01*
X164855Y329722D01*
X164797Y329772D01*
X164745Y329827D01*
X164609Y329931D01*
X164479Y330042D01*
X164413Y330081D01*
X164353Y330128D01*
X164203Y330208D01*
X164056Y330297D01*
X163986Y330325D01*
X163918Y330361D01*
X163757Y330416D01*
X163598Y330480D01*
X163524Y330496D01*
X163452Y330521D01*
X163283Y330549D01*
X163117Y330586D01*
X163040Y330591D01*
X162965Y330603D01*
X162794Y330605D01*
X162624Y330614D01*
X162548Y330606D01*
X162472Y330606D01*
X162303Y330580D01*
X162133Y330562D01*
X162060Y330542D01*
X161985Y330530D01*
X161822Y330476D01*
X161658Y330431D01*
X161588Y330399D01*
X161516Y330376D01*
X161364Y330297D01*
X161209Y330225D01*
X161146Y330183D01*
X161078Y330148D01*
X160996Y330082D01*
X160800Y329950D01*
X160627Y329788D01*
X160545Y329722D01*
X157259Y326436D01*
X156515Y326128D01*
X156506Y326124D01*
X156497Y326121D01*
X156286Y326011D01*
X156076Y325903D01*
X156068Y325897D01*
X156060Y325893D01*
X156028Y325868D01*
X155679Y325610D01*
X155588Y325516D01*
X155526Y325467D01*
X153600Y323541D01*
X144029Y313970D01*
X141415Y312887D01*
X108585Y312887D01*
G37*
%LPD*%
%LPC*%
G36*
X597103Y134735D02*
X597103Y134735D01*
X591750Y136953D01*
X587653Y141050D01*
X585435Y146403D01*
X585435Y173197D01*
X587653Y178550D01*
X591995Y182892D01*
X592069Y182979D01*
X592150Y183060D01*
X592228Y183167D01*
X592314Y183268D01*
X592373Y183366D01*
X592440Y183458D01*
X592500Y183577D01*
X592569Y183691D01*
X592611Y183797D01*
X592663Y183899D01*
X592703Y184026D01*
X592752Y184149D01*
X592777Y184260D01*
X592811Y184369D01*
X592821Y184463D01*
X592859Y184631D01*
X592877Y184955D01*
X592887Y185047D01*
X592887Y212795D01*
X593970Y215409D01*
X604591Y226030D01*
X607704Y227319D01*
X607898Y227419D01*
X608095Y227515D01*
X608118Y227532D01*
X608143Y227544D01*
X608319Y227674D01*
X608497Y227801D01*
X608517Y227821D01*
X608540Y227837D01*
X608693Y227994D01*
X608848Y228147D01*
X608865Y228170D01*
X608885Y228191D01*
X609010Y228370D01*
X609138Y228546D01*
X609151Y228571D01*
X609167Y228595D01*
X609262Y228792D01*
X609361Y228986D01*
X609369Y229013D01*
X609382Y229039D01*
X609443Y229249D01*
X609509Y229457D01*
X609512Y229480D01*
X609521Y229512D01*
X609582Y230002D01*
X609579Y230082D01*
X609585Y230135D01*
X609585Y234144D01*
X610204Y235638D01*
X611414Y236848D01*
X611420Y236852D01*
X611445Y236864D01*
X611621Y236994D01*
X611799Y237121D01*
X611819Y237141D01*
X611842Y237157D01*
X611995Y237314D01*
X612150Y237467D01*
X612167Y237490D01*
X612186Y237510D01*
X612312Y237690D01*
X612440Y237866D01*
X612453Y237891D01*
X612469Y237915D01*
X612564Y238112D01*
X612663Y238307D01*
X612671Y238334D01*
X612683Y238359D01*
X612745Y238568D01*
X612811Y238777D01*
X612814Y238800D01*
X612823Y238832D01*
X612884Y239322D01*
X612881Y239402D01*
X612887Y239455D01*
X612887Y242955D01*
X613970Y245569D01*
X629701Y261300D01*
X632315Y262383D01*
X661815Y262383D01*
X664429Y261300D01*
X679240Y246489D01*
X681670Y244059D01*
X681678Y244052D01*
X681684Y244045D01*
X681865Y243893D01*
X682046Y243739D01*
X682055Y243734D01*
X682062Y243728D01*
X682098Y243708D01*
X682140Y243683D01*
X684318Y241504D01*
X684492Y241357D01*
X684664Y241207D01*
X684680Y241197D01*
X684694Y241185D01*
X684890Y241067D01*
X685083Y240947D01*
X685101Y240940D01*
X685117Y240930D01*
X685328Y240846D01*
X685539Y240759D01*
X685557Y240754D01*
X685575Y240747D01*
X685797Y240698D01*
X686019Y240646D01*
X686038Y240645D01*
X686057Y240641D01*
X686285Y240628D01*
X686511Y240612D01*
X686530Y240614D01*
X686549Y240613D01*
X686776Y240637D01*
X687003Y240658D01*
X687021Y240663D01*
X687040Y240665D01*
X687259Y240725D01*
X687480Y240783D01*
X687497Y240791D01*
X687515Y240796D01*
X687723Y240891D01*
X687931Y240983D01*
X687947Y240994D01*
X687964Y241001D01*
X688153Y241129D01*
X688343Y241254D01*
X688357Y241266D01*
X688373Y241277D01*
X688540Y241433D01*
X688707Y241587D01*
X688716Y241599D01*
X688733Y241615D01*
X689033Y242006D01*
X689077Y242088D01*
X689112Y242136D01*
X689617Y243010D01*
X690090Y243483D01*
X690669Y243818D01*
X691315Y243991D01*
X697353Y243991D01*
X697353Y232700D01*
X697359Y232624D01*
X697356Y232548D01*
X697379Y232379D01*
X697393Y232209D01*
X697411Y232135D01*
X697421Y232059D01*
X697470Y231895D01*
X697511Y231730D01*
X697541Y231660D01*
X697563Y231587D01*
X697638Y231433D01*
X697706Y231276D01*
X697747Y231212D01*
X697780Y231144D01*
X697879Y231004D01*
X697971Y230860D01*
X698022Y230804D01*
X698066Y230741D01*
X698186Y230620D01*
X698300Y230492D01*
X698359Y230444D01*
X698412Y230390D01*
X698413Y230390D01*
X698551Y230289D01*
X698684Y230182D01*
X698750Y230144D01*
X698812Y230099D01*
X698964Y230023D01*
X699113Y229938D01*
X699184Y229911D01*
X699252Y229877D01*
X699415Y229826D01*
X699575Y229766D01*
X699650Y229752D01*
X699723Y229729D01*
X699827Y229717D01*
X700059Y229672D01*
X700295Y229664D01*
X700400Y229653D01*
X711691Y229653D01*
X711691Y223615D01*
X711518Y222969D01*
X711183Y222390D01*
X710710Y221917D01*
X709836Y221412D01*
X709648Y221283D01*
X709459Y221155D01*
X709445Y221142D01*
X709430Y221132D01*
X709266Y220974D01*
X709100Y220818D01*
X709088Y220803D01*
X709074Y220789D01*
X708938Y220607D01*
X708799Y220426D01*
X708790Y220409D01*
X708779Y220394D01*
X708674Y220192D01*
X708566Y219991D01*
X708560Y219973D01*
X708551Y219957D01*
X708480Y219741D01*
X708406Y219525D01*
X708403Y219506D01*
X708397Y219488D01*
X708362Y219264D01*
X708324Y219038D01*
X708323Y219019D01*
X708320Y219001D01*
X708322Y218774D01*
X708320Y218545D01*
X708323Y218526D01*
X708324Y218507D01*
X708362Y218283D01*
X708397Y218058D01*
X708403Y218040D01*
X708406Y218021D01*
X708480Y217805D01*
X708551Y217589D01*
X708560Y217572D01*
X708566Y217554D01*
X708673Y217355D01*
X708779Y217152D01*
X708789Y217139D01*
X708800Y217120D01*
X709100Y216728D01*
X709167Y216665D01*
X709204Y216618D01*
X711264Y214559D01*
X713215Y209849D01*
X713215Y204751D01*
X711264Y200041D01*
X707659Y196436D01*
X702545Y194318D01*
X702536Y194313D01*
X702527Y194310D01*
X702314Y194200D01*
X702106Y194093D01*
X702098Y194087D01*
X702089Y194083D01*
X702058Y194057D01*
X701709Y193800D01*
X701618Y193706D01*
X701556Y193657D01*
X696416Y188517D01*
X696396Y188494D01*
X696373Y188473D01*
X696237Y188306D01*
X696096Y188141D01*
X696080Y188115D01*
X696061Y188091D01*
X695954Y187904D01*
X695842Y187718D01*
X695830Y187690D01*
X695815Y187664D01*
X695739Y187461D01*
X695659Y187260D01*
X695652Y187230D01*
X695641Y187202D01*
X695599Y186990D01*
X695552Y186779D01*
X695550Y186748D01*
X695544Y186718D01*
X695536Y186503D01*
X695524Y186286D01*
X695527Y186256D01*
X695526Y186225D01*
X695553Y186011D01*
X695576Y185795D01*
X695584Y185766D01*
X695588Y185736D01*
X695650Y185528D01*
X695707Y185320D01*
X695720Y185292D01*
X695728Y185263D01*
X695823Y185068D01*
X695913Y184871D01*
X695930Y184846D01*
X695943Y184819D01*
X696068Y184641D01*
X696188Y184462D01*
X696209Y184440D01*
X696227Y184415D01*
X696378Y184260D01*
X696501Y184129D01*
X696501Y163299D01*
X686959Y163299D01*
X686959Y171326D01*
X687280Y173354D01*
X687915Y175306D01*
X688847Y177135D01*
X688951Y177279D01*
X688975Y177318D01*
X689004Y177354D01*
X689103Y177528D01*
X689208Y177700D01*
X689225Y177743D01*
X689248Y177782D01*
X689318Y177971D01*
X689393Y178157D01*
X689403Y178202D01*
X689419Y178245D01*
X689458Y178442D01*
X689502Y178638D01*
X689505Y178684D01*
X689514Y178729D01*
X689520Y178929D01*
X689533Y179131D01*
X689528Y179177D01*
X689529Y179222D01*
X689503Y179421D01*
X689483Y179622D01*
X689471Y179666D01*
X689465Y179711D01*
X689407Y179904D01*
X689355Y180098D01*
X689336Y180140D01*
X689322Y180184D01*
X689234Y180364D01*
X689151Y180547D01*
X689126Y180586D01*
X689106Y180627D01*
X688989Y180790D01*
X688878Y180958D01*
X688847Y180992D01*
X688820Y181029D01*
X688679Y181172D01*
X688542Y181319D01*
X688506Y181347D01*
X688473Y181380D01*
X688311Y181498D01*
X688152Y181622D01*
X688112Y181643D01*
X688075Y181670D01*
X687895Y181761D01*
X687718Y181857D01*
X687675Y181872D01*
X687634Y181893D01*
X687442Y181953D01*
X687252Y182019D01*
X687207Y182027D01*
X687164Y182041D01*
X687065Y182052D01*
X686766Y182104D01*
X686583Y182106D01*
X686486Y182117D01*
X683638Y182117D01*
X683525Y182108D01*
X683410Y182109D01*
X683279Y182088D01*
X683147Y182077D01*
X683036Y182050D01*
X682923Y182032D01*
X682797Y181991D01*
X682668Y181959D01*
X682563Y181914D01*
X682454Y181878D01*
X682337Y181816D01*
X682214Y181764D01*
X682118Y181703D01*
X682017Y181650D01*
X681943Y181591D01*
X681798Y181499D01*
X681556Y181283D01*
X681484Y181225D01*
X665457Y165198D01*
X665383Y165111D01*
X665302Y165031D01*
X665224Y164924D01*
X665138Y164822D01*
X665079Y164724D01*
X665012Y164632D01*
X664952Y164514D01*
X664883Y164400D01*
X664841Y164294D01*
X664789Y164192D01*
X664749Y164065D01*
X664700Y163942D01*
X664675Y163830D01*
X664641Y163721D01*
X664631Y163628D01*
X664593Y163460D01*
X664575Y163136D01*
X664565Y163044D01*
X664565Y146403D01*
X662347Y141050D01*
X658250Y136953D01*
X652897Y134735D01*
X647103Y134735D01*
X641750Y136953D01*
X637653Y141050D01*
X635435Y146403D01*
X635435Y173197D01*
X637688Y178637D01*
X637721Y178675D01*
X637814Y178830D01*
X637914Y178980D01*
X637942Y179041D01*
X637976Y179098D01*
X638043Y179265D01*
X638117Y179430D01*
X638134Y179494D01*
X638159Y179556D01*
X638198Y179732D01*
X638245Y179907D01*
X638251Y179973D01*
X638266Y180038D01*
X638276Y180218D01*
X638294Y180398D01*
X638290Y180464D01*
X638293Y180530D01*
X638274Y180710D01*
X638263Y180890D01*
X638248Y180955D01*
X638241Y181021D01*
X638193Y181195D01*
X638153Y181371D01*
X638128Y181432D01*
X638111Y181496D01*
X638035Y181661D01*
X637967Y181828D01*
X637933Y181884D01*
X637905Y181945D01*
X637804Y182095D01*
X637710Y182249D01*
X637667Y182299D01*
X637630Y182354D01*
X637506Y182486D01*
X637388Y182623D01*
X637337Y182665D01*
X637292Y182714D01*
X637149Y182824D01*
X637010Y182940D01*
X636964Y182965D01*
X636900Y183014D01*
X636613Y183168D01*
X618073Y201708D01*
X617986Y201782D01*
X617906Y201863D01*
X617799Y201941D01*
X617697Y202027D01*
X617599Y202086D01*
X617507Y202153D01*
X617389Y202213D01*
X617275Y202282D01*
X617169Y202324D01*
X617067Y202376D01*
X616940Y202416D01*
X616817Y202465D01*
X616705Y202490D01*
X616596Y202524D01*
X616503Y202534D01*
X616335Y202572D01*
X616011Y202590D01*
X615919Y202600D01*
X612841Y202600D01*
X611326Y203228D01*
X611154Y203283D01*
X610985Y203346D01*
X610920Y203359D01*
X610857Y203379D01*
X610678Y203406D01*
X610501Y203441D01*
X610435Y203443D01*
X610369Y203453D01*
X610188Y203451D01*
X610008Y203456D01*
X609942Y203447D01*
X609875Y203447D01*
X609698Y203415D01*
X609519Y203392D01*
X609455Y203372D01*
X609390Y203361D01*
X609220Y203301D01*
X609046Y203249D01*
X608987Y203220D01*
X608924Y203198D01*
X608765Y203112D01*
X608603Y203032D01*
X608549Y202994D01*
X608491Y202962D01*
X608348Y202851D01*
X608201Y202747D01*
X608154Y202700D01*
X608101Y202659D01*
X607978Y202527D01*
X607850Y202400D01*
X607811Y202346D01*
X607766Y202298D01*
X607666Y202147D01*
X607560Y202001D01*
X607530Y201942D01*
X607493Y201887D01*
X607419Y201722D01*
X607337Y201561D01*
X607317Y201497D01*
X607290Y201437D01*
X607243Y201263D01*
X607189Y201090D01*
X607183Y201038D01*
X607162Y200960D01*
X607113Y200469D01*
X607115Y200436D01*
X607113Y200413D01*
X607113Y185047D01*
X607122Y184933D01*
X607121Y184819D01*
X607142Y184688D01*
X607153Y184555D01*
X607180Y184445D01*
X607198Y184332D01*
X607239Y184205D01*
X607271Y184077D01*
X607316Y183972D01*
X607352Y183863D01*
X607414Y183745D01*
X607466Y183623D01*
X607527Y183527D01*
X607580Y183426D01*
X607639Y183352D01*
X607731Y183207D01*
X607947Y182965D01*
X608005Y182892D01*
X612347Y178550D01*
X614565Y173197D01*
X614565Y146403D01*
X612347Y141050D01*
X608250Y136953D01*
X602897Y134735D01*
X597103Y134735D01*
G37*
%LPD*%
%LPC*%
G36*
X297103Y134735D02*
X297103Y134735D01*
X291750Y136953D01*
X287653Y141050D01*
X285435Y146403D01*
X285435Y163044D01*
X285426Y163157D01*
X285427Y163272D01*
X285406Y163403D01*
X285395Y163535D01*
X285368Y163646D01*
X285350Y163759D01*
X285309Y163885D01*
X285277Y164014D01*
X285232Y164119D01*
X285196Y164228D01*
X285134Y164345D01*
X285082Y164468D01*
X285021Y164564D01*
X284968Y164665D01*
X284909Y164739D01*
X284817Y164884D01*
X284601Y165126D01*
X284543Y165198D01*
X264706Y185035D01*
X264619Y185109D01*
X264539Y185190D01*
X264432Y185268D01*
X264330Y185354D01*
X264232Y185413D01*
X264140Y185480D01*
X264022Y185540D01*
X263908Y185609D01*
X263802Y185651D01*
X263700Y185703D01*
X263573Y185743D01*
X263450Y185792D01*
X263338Y185817D01*
X263229Y185851D01*
X263136Y185861D01*
X262968Y185899D01*
X262790Y185909D01*
X260131Y187010D01*
X246700Y200441D01*
X245617Y203055D01*
X245617Y216045D01*
X246700Y218659D01*
X254071Y226030D01*
X256696Y227117D01*
X256859Y227139D01*
X257030Y227153D01*
X257104Y227171D01*
X257179Y227181D01*
X257343Y227230D01*
X257509Y227271D01*
X257578Y227301D01*
X257652Y227323D01*
X257805Y227399D01*
X257962Y227466D01*
X258026Y227507D01*
X258095Y227540D01*
X258234Y227639D01*
X258378Y227731D01*
X258435Y227782D01*
X258497Y227826D01*
X258618Y227946D01*
X258746Y228060D01*
X258794Y228119D01*
X258848Y228173D01*
X258949Y228311D01*
X259056Y228444D01*
X259093Y228510D01*
X259138Y228571D01*
X259215Y228724D01*
X259300Y228872D01*
X259326Y228944D01*
X259361Y229012D01*
X259412Y229175D01*
X259471Y229335D01*
X259486Y229410D01*
X259509Y229482D01*
X259521Y229587D01*
X259566Y229819D01*
X259573Y230055D01*
X259585Y230160D01*
X259585Y234144D01*
X260204Y235638D01*
X261414Y236848D01*
X261420Y236852D01*
X261445Y236864D01*
X261621Y236994D01*
X261799Y237121D01*
X261819Y237141D01*
X261842Y237157D01*
X261995Y237314D01*
X262150Y237467D01*
X262167Y237490D01*
X262186Y237510D01*
X262312Y237690D01*
X262440Y237866D01*
X262453Y237891D01*
X262469Y237915D01*
X262564Y238112D01*
X262663Y238307D01*
X262671Y238334D01*
X262683Y238359D01*
X262745Y238568D01*
X262811Y238777D01*
X262814Y238800D01*
X262823Y238832D01*
X262884Y239322D01*
X262881Y239402D01*
X262887Y239455D01*
X262887Y240935D01*
X263970Y243549D01*
X282991Y262570D01*
X285605Y263653D01*
X315105Y263653D01*
X317719Y262570D01*
X331150Y249139D01*
X332233Y246525D01*
X332233Y244852D01*
X332242Y244739D01*
X332241Y244624D01*
X332262Y244493D01*
X332273Y244361D01*
X332300Y244250D01*
X332318Y244137D01*
X332359Y244011D01*
X332391Y243882D01*
X332436Y243777D01*
X332472Y243668D01*
X332534Y243550D01*
X332586Y243428D01*
X332647Y243332D01*
X332700Y243231D01*
X332759Y243157D01*
X332851Y243012D01*
X332979Y242869D01*
X333001Y242839D01*
X333060Y242779D01*
X333067Y242770D01*
X333125Y242698D01*
X334318Y241504D01*
X334492Y241357D01*
X334664Y241207D01*
X334680Y241197D01*
X334694Y241185D01*
X334890Y241067D01*
X335083Y240947D01*
X335100Y240940D01*
X335117Y240930D01*
X335329Y240845D01*
X335539Y240759D01*
X335557Y240754D01*
X335575Y240747D01*
X335798Y240698D01*
X336019Y240646D01*
X336038Y240645D01*
X336057Y240641D01*
X336286Y240628D01*
X336511Y240612D01*
X336530Y240614D01*
X336549Y240613D01*
X336775Y240637D01*
X337003Y240658D01*
X337021Y240663D01*
X337040Y240665D01*
X337258Y240725D01*
X337480Y240783D01*
X337497Y240791D01*
X337515Y240796D01*
X337723Y240891D01*
X337931Y240983D01*
X337947Y240994D01*
X337964Y241001D01*
X338153Y241128D01*
X338343Y241253D01*
X338357Y241266D01*
X338373Y241277D01*
X338538Y241432D01*
X338707Y241587D01*
X338716Y241599D01*
X338733Y241615D01*
X339033Y242006D01*
X339077Y242088D01*
X339112Y242136D01*
X339617Y243010D01*
X340090Y243483D01*
X340669Y243818D01*
X341315Y243991D01*
X347353Y243991D01*
X347353Y232700D01*
X347359Y232624D01*
X347356Y232548D01*
X347379Y232379D01*
X347393Y232209D01*
X347411Y232135D01*
X347421Y232059D01*
X347470Y231895D01*
X347511Y231730D01*
X347541Y231660D01*
X347563Y231587D01*
X347638Y231433D01*
X347706Y231276D01*
X347747Y231212D01*
X347780Y231144D01*
X347879Y231004D01*
X347971Y230860D01*
X348022Y230804D01*
X348066Y230741D01*
X348186Y230620D01*
X348300Y230492D01*
X348359Y230444D01*
X348412Y230390D01*
X348413Y230390D01*
X348551Y230289D01*
X348684Y230182D01*
X348750Y230144D01*
X348812Y230099D01*
X348964Y230023D01*
X349113Y229938D01*
X349184Y229911D01*
X349252Y229877D01*
X349415Y229826D01*
X349575Y229766D01*
X349650Y229752D01*
X349723Y229729D01*
X349827Y229717D01*
X350059Y229672D01*
X350295Y229664D01*
X350400Y229653D01*
X361691Y229653D01*
X361691Y223615D01*
X361518Y222969D01*
X361183Y222390D01*
X360710Y221917D01*
X359836Y221412D01*
X359648Y221282D01*
X359459Y221155D01*
X359445Y221142D01*
X359430Y221132D01*
X359265Y220973D01*
X359100Y220818D01*
X359088Y220803D01*
X359074Y220789D01*
X358938Y220607D01*
X358799Y220426D01*
X358790Y220409D01*
X358779Y220394D01*
X358674Y220193D01*
X358566Y219991D01*
X358560Y219973D01*
X358551Y219957D01*
X358480Y219741D01*
X358406Y219525D01*
X358403Y219506D01*
X358397Y219488D01*
X358362Y219264D01*
X358323Y219038D01*
X358323Y219019D01*
X358320Y219001D01*
X358322Y218774D01*
X358320Y218545D01*
X358323Y218526D01*
X358324Y218507D01*
X358362Y218283D01*
X358397Y218058D01*
X358403Y218040D01*
X358406Y218021D01*
X358480Y217805D01*
X358551Y217589D01*
X358560Y217572D01*
X358566Y217554D01*
X358674Y217353D01*
X358779Y217151D01*
X358789Y217139D01*
X358799Y217120D01*
X359100Y216728D01*
X359167Y216665D01*
X359204Y216618D01*
X361264Y214559D01*
X363215Y209849D01*
X363215Y204751D01*
X361264Y200041D01*
X358405Y197183D01*
X358331Y197095D01*
X358250Y197015D01*
X358172Y196908D01*
X358086Y196807D01*
X358027Y196709D01*
X357960Y196616D01*
X357900Y196498D01*
X357831Y196384D01*
X357789Y196278D01*
X357737Y196176D01*
X357697Y196049D01*
X357648Y195926D01*
X357623Y195815D01*
X357589Y195706D01*
X357579Y195612D01*
X357541Y195444D01*
X357523Y195120D01*
X357513Y195028D01*
X357513Y184647D01*
X357522Y184533D01*
X357521Y184419D01*
X357542Y184288D01*
X357553Y184155D01*
X357580Y184045D01*
X357598Y183932D01*
X357639Y183805D01*
X357671Y183677D01*
X357716Y183572D01*
X357752Y183463D01*
X357814Y183345D01*
X357866Y183223D01*
X357927Y183127D01*
X357980Y183026D01*
X358039Y182952D01*
X358131Y182807D01*
X358347Y182565D01*
X358405Y182492D01*
X362347Y178550D01*
X364565Y173197D01*
X364565Y146403D01*
X362347Y141050D01*
X358250Y136953D01*
X352897Y134735D01*
X347103Y134735D01*
X341750Y136953D01*
X337653Y141050D01*
X335435Y146403D01*
X335435Y173197D01*
X337653Y178550D01*
X341819Y182716D01*
X341820Y182717D01*
X341845Y182730D01*
X342021Y182860D01*
X342199Y182986D01*
X342219Y183006D01*
X342242Y183023D01*
X342395Y183179D01*
X342550Y183333D01*
X342567Y183356D01*
X342586Y183376D01*
X342712Y183555D01*
X342840Y183732D01*
X342853Y183757D01*
X342869Y183780D01*
X342964Y183978D01*
X343063Y184172D01*
X343071Y184199D01*
X343083Y184225D01*
X343145Y184434D01*
X343211Y184643D01*
X343214Y184666D01*
X343223Y184698D01*
X343284Y185187D01*
X343281Y185268D01*
X343287Y185320D01*
X343287Y195028D01*
X343278Y195141D01*
X343279Y195256D01*
X343258Y195387D01*
X343247Y195519D01*
X343220Y195630D01*
X343202Y195743D01*
X343161Y195869D01*
X343129Y195998D01*
X343084Y196103D01*
X343048Y196212D01*
X342986Y196330D01*
X342934Y196452D01*
X342873Y196548D01*
X342820Y196649D01*
X342761Y196723D01*
X342669Y196868D01*
X342453Y197110D01*
X342395Y197182D01*
X339855Y199722D01*
X339797Y199772D01*
X339745Y199827D01*
X339609Y199931D01*
X339479Y200042D01*
X339413Y200081D01*
X339353Y200128D01*
X339203Y200208D01*
X339056Y200297D01*
X338985Y200325D01*
X338918Y200361D01*
X338757Y200416D01*
X338598Y200480D01*
X338524Y200496D01*
X338452Y200521D01*
X338283Y200549D01*
X338117Y200586D01*
X338040Y200591D01*
X337965Y200603D01*
X337794Y200605D01*
X337624Y200614D01*
X337548Y200606D01*
X337472Y200606D01*
X337303Y200580D01*
X337133Y200562D01*
X337060Y200542D01*
X336985Y200530D01*
X336822Y200476D01*
X336658Y200431D01*
X336588Y200399D01*
X336516Y200376D01*
X336365Y200297D01*
X336209Y200225D01*
X336146Y200183D01*
X336078Y200148D01*
X335996Y200082D01*
X335800Y199950D01*
X335628Y199788D01*
X335545Y199722D01*
X332203Y196380D01*
X332100Y196327D01*
X332008Y196259D01*
X331911Y196200D01*
X331810Y196113D01*
X331703Y196034D01*
X331624Y195953D01*
X331537Y195878D01*
X331452Y195776D01*
X331359Y195681D01*
X331293Y195588D01*
X331220Y195500D01*
X331174Y195418D01*
X331099Y195310D01*
X320259Y184470D01*
X317645Y183387D01*
X314867Y183387D01*
X314829Y183384D01*
X314790Y183386D01*
X314583Y183364D01*
X314375Y183347D01*
X314338Y183338D01*
X314300Y183334D01*
X314098Y183279D01*
X313897Y183229D01*
X313861Y183213D01*
X313824Y183203D01*
X313634Y183116D01*
X313443Y183034D01*
X313411Y183013D01*
X313376Y182997D01*
X313202Y182881D01*
X313027Y182769D01*
X312999Y182743D01*
X312966Y182722D01*
X312814Y182579D01*
X312659Y182440D01*
X312635Y182410D01*
X312607Y182384D01*
X312480Y182219D01*
X312349Y182056D01*
X312330Y182023D01*
X312307Y181992D01*
X312208Y181809D01*
X312105Y181628D01*
X312092Y181591D01*
X312074Y181558D01*
X312006Y181361D01*
X311934Y181165D01*
X311926Y181127D01*
X311914Y181091D01*
X311879Y180885D01*
X311839Y180681D01*
X311838Y180643D01*
X311831Y180605D01*
X311830Y180395D01*
X311824Y180188D01*
X311829Y180150D01*
X311828Y180111D01*
X311861Y179905D01*
X311888Y179699D01*
X311899Y179662D01*
X311905Y179624D01*
X311970Y179426D01*
X312031Y179227D01*
X312047Y179192D01*
X312060Y179155D01*
X312156Y178970D01*
X312247Y178783D01*
X312256Y178772D01*
X314565Y173197D01*
X314565Y146403D01*
X312347Y141050D01*
X308250Y136953D01*
X302897Y134735D01*
X297103Y134735D01*
G37*
%LPD*%
G36*
X888783Y347530D02*
X888783Y347530D01*
X888878Y347530D01*
X889029Y347553D01*
X889180Y347568D01*
X889272Y347592D01*
X889366Y347606D01*
X889510Y347654D01*
X889657Y347692D01*
X889744Y347731D01*
X889834Y347761D01*
X889969Y347831D01*
X890108Y347893D01*
X890187Y347945D01*
X890272Y347989D01*
X890351Y348052D01*
X890521Y348163D01*
X890724Y348349D01*
X890805Y348414D01*
X893695Y351304D01*
X893769Y351391D01*
X893850Y351471D01*
X893928Y351578D01*
X894014Y351680D01*
X894073Y351777D01*
X894140Y351870D01*
X894200Y351988D01*
X894269Y352102D01*
X894311Y352208D01*
X894363Y352310D01*
X894403Y352437D01*
X894452Y352560D01*
X894477Y352672D01*
X894511Y352781D01*
X894521Y352874D01*
X894559Y353042D01*
X894577Y353366D01*
X894587Y353458D01*
X894587Y393302D01*
X894578Y393415D01*
X894579Y393530D01*
X894558Y393661D01*
X894547Y393793D01*
X894520Y393904D01*
X894502Y394017D01*
X894461Y394143D01*
X894429Y394272D01*
X894384Y394377D01*
X894348Y394486D01*
X894286Y394603D01*
X894234Y394726D01*
X894173Y394822D01*
X894120Y394923D01*
X894061Y394997D01*
X893969Y395142D01*
X893753Y395384D01*
X893695Y395456D01*
X860276Y428875D01*
X860189Y428949D01*
X860109Y429030D01*
X860002Y429108D01*
X859900Y429194D01*
X859802Y429253D01*
X859710Y429320D01*
X859592Y429380D01*
X859478Y429449D01*
X859372Y429491D01*
X859270Y429543D01*
X859143Y429583D01*
X859020Y429632D01*
X858908Y429657D01*
X858799Y429691D01*
X858706Y429701D01*
X858538Y429739D01*
X858214Y429757D01*
X858122Y429767D01*
X851695Y429767D01*
X851688Y429767D01*
X851680Y429767D01*
X851441Y429747D01*
X851203Y429727D01*
X851196Y429725D01*
X851188Y429725D01*
X850957Y429666D01*
X850725Y429609D01*
X850718Y429606D01*
X850710Y429604D01*
X850491Y429508D01*
X850271Y429414D01*
X850265Y429410D01*
X850258Y429407D01*
X850054Y429276D01*
X850002Y429242D01*
X849906Y429312D01*
X849900Y429316D01*
X849893Y429320D01*
X849683Y429427D01*
X849467Y429537D01*
X849460Y429539D01*
X849453Y429543D01*
X849224Y429615D01*
X848997Y429688D01*
X848990Y429689D01*
X848983Y429691D01*
X848949Y429695D01*
X848509Y429760D01*
X848407Y429756D01*
X848305Y429767D01*
X823358Y429767D01*
X823245Y429758D01*
X823130Y429759D01*
X822999Y429738D01*
X822867Y429727D01*
X822756Y429700D01*
X822643Y429682D01*
X822517Y429641D01*
X822388Y429609D01*
X822283Y429564D01*
X822174Y429528D01*
X822057Y429466D01*
X821934Y429414D01*
X821838Y429353D01*
X821737Y429300D01*
X821663Y429241D01*
X821518Y429149D01*
X821277Y428933D01*
X821204Y428875D01*
X813474Y421145D01*
X813333Y420979D01*
X813188Y420815D01*
X813173Y420791D01*
X813155Y420769D01*
X813042Y420582D01*
X812926Y420397D01*
X812915Y420371D01*
X812900Y420347D01*
X812819Y420144D01*
X812734Y419943D01*
X812728Y419915D01*
X812717Y419889D01*
X812670Y419676D01*
X812619Y419463D01*
X812616Y419435D01*
X812610Y419407D01*
X812598Y419189D01*
X812582Y418971D01*
X812584Y418943D01*
X812583Y418915D01*
X812606Y418697D01*
X812625Y418480D01*
X812631Y418457D01*
X812635Y418424D01*
X812766Y417948D01*
X812799Y417875D01*
X812814Y417824D01*
X814565Y413597D01*
X814565Y388620D01*
X814571Y388544D01*
X814569Y388468D01*
X814591Y388299D01*
X814605Y388128D01*
X814623Y388054D01*
X814633Y387979D01*
X814682Y387815D01*
X814723Y387649D01*
X814753Y387580D01*
X814775Y387506D01*
X814851Y387353D01*
X814918Y387196D01*
X814959Y387132D01*
X814992Y387063D01*
X815091Y386924D01*
X815183Y386780D01*
X815234Y386723D01*
X815278Y386661D01*
X815398Y386540D01*
X815512Y386412D01*
X815571Y386364D01*
X815625Y386310D01*
X815763Y386209D01*
X815896Y386102D01*
X815962Y386065D01*
X816023Y386020D01*
X816176Y385943D01*
X816324Y385858D01*
X816396Y385832D01*
X816464Y385797D01*
X816627Y385746D01*
X816787Y385687D01*
X816862Y385672D01*
X816934Y385649D01*
X817039Y385637D01*
X817271Y385592D01*
X817507Y385585D01*
X817612Y385573D01*
X833912Y385573D01*
X833988Y385579D01*
X834064Y385577D01*
X834233Y385599D01*
X834404Y385613D01*
X834478Y385631D01*
X834553Y385641D01*
X834717Y385690D01*
X834883Y385731D01*
X834952Y385761D01*
X835026Y385783D01*
X835179Y385859D01*
X835336Y385926D01*
X835400Y385967D01*
X835469Y386000D01*
X835608Y386099D01*
X835752Y386191D01*
X835809Y386242D01*
X835871Y386286D01*
X835992Y386406D01*
X836120Y386520D01*
X836168Y386579D01*
X836222Y386633D01*
X836323Y386771D01*
X836430Y386904D01*
X836467Y386970D01*
X836512Y387031D01*
X836589Y387184D01*
X836674Y387332D01*
X836700Y387404D01*
X836735Y387472D01*
X836786Y387635D01*
X836845Y387795D01*
X836860Y387870D01*
X836883Y387942D01*
X836895Y388047D01*
X836940Y388279D01*
X836947Y388515D01*
X836959Y388620D01*
X836959Y396701D01*
X849548Y396701D01*
X849624Y396707D01*
X849700Y396705D01*
X849869Y396727D01*
X850015Y396739D01*
X850111Y396720D01*
X850347Y396713D01*
X850452Y396701D01*
X863041Y396701D01*
X863041Y388674D01*
X862720Y386646D01*
X862085Y384694D01*
X861153Y382865D01*
X859947Y381204D01*
X858496Y379753D01*
X857023Y378683D01*
X856891Y378570D01*
X856755Y378464D01*
X856705Y378410D01*
X856649Y378362D01*
X856537Y378229D01*
X856420Y378103D01*
X856379Y378041D01*
X856331Y377984D01*
X856242Y377836D01*
X856147Y377692D01*
X856116Y377624D01*
X856079Y377561D01*
X856015Y377400D01*
X855944Y377242D01*
X855925Y377170D01*
X855898Y377102D01*
X855861Y376932D01*
X855816Y376765D01*
X855809Y376692D01*
X855793Y376619D01*
X855785Y376447D01*
X855767Y376275D01*
X855772Y376201D01*
X855768Y376127D01*
X855787Y375955D01*
X855798Y375782D01*
X855815Y375710D01*
X855823Y375636D01*
X855869Y375470D01*
X855908Y375301D01*
X855936Y375233D01*
X855956Y375161D01*
X856029Y375004D01*
X856094Y374844D01*
X856133Y374781D01*
X856164Y374714D01*
X856261Y374571D01*
X856351Y374423D01*
X856400Y374367D01*
X856441Y374306D01*
X856560Y374180D01*
X856673Y374049D01*
X856730Y374002D01*
X856781Y373948D01*
X856919Y373844D01*
X857051Y373732D01*
X857102Y373704D01*
X857170Y373653D01*
X859318Y371504D01*
X859492Y371357D01*
X859664Y371207D01*
X859680Y371197D01*
X859694Y371185D01*
X859889Y371067D01*
X860083Y370947D01*
X860101Y370940D01*
X860117Y370930D01*
X860328Y370846D01*
X860539Y370759D01*
X860557Y370754D01*
X860575Y370747D01*
X860798Y370698D01*
X861019Y370646D01*
X861038Y370645D01*
X861057Y370641D01*
X861286Y370628D01*
X861511Y370612D01*
X861530Y370614D01*
X861549Y370613D01*
X861775Y370637D01*
X862003Y370658D01*
X862021Y370663D01*
X862040Y370665D01*
X862258Y370725D01*
X862480Y370783D01*
X862497Y370791D01*
X862515Y370796D01*
X862722Y370891D01*
X862931Y370983D01*
X862947Y370994D01*
X862964Y371001D01*
X863153Y371129D01*
X863343Y371253D01*
X863357Y371266D01*
X863373Y371277D01*
X863539Y371433D01*
X863707Y371587D01*
X863716Y371599D01*
X863733Y371615D01*
X864033Y372006D01*
X864077Y372088D01*
X864112Y372136D01*
X864617Y373010D01*
X865090Y373483D01*
X865669Y373818D01*
X866315Y373991D01*
X872353Y373991D01*
X872353Y362700D01*
X872359Y362624D01*
X872356Y362548D01*
X872379Y362379D01*
X872393Y362209D01*
X872411Y362135D01*
X872421Y362059D01*
X872470Y361895D01*
X872511Y361730D01*
X872541Y361660D01*
X872563Y361587D01*
X872638Y361433D01*
X872706Y361276D01*
X872747Y361212D01*
X872780Y361144D01*
X872879Y361004D01*
X872971Y360860D01*
X873022Y360804D01*
X873066Y360741D01*
X873186Y360620D01*
X873300Y360492D01*
X873359Y360444D01*
X873412Y360390D01*
X873413Y360390D01*
X873551Y360289D01*
X873684Y360182D01*
X873750Y360144D01*
X873812Y360099D01*
X873964Y360023D01*
X874113Y359938D01*
X874184Y359911D01*
X874252Y359877D01*
X874415Y359826D01*
X874575Y359766D01*
X874650Y359752D01*
X874723Y359729D01*
X874827Y359717D01*
X875059Y359672D01*
X875295Y359664D01*
X875400Y359653D01*
X886691Y359653D01*
X886691Y353615D01*
X886518Y352969D01*
X886011Y352092D01*
X885971Y352006D01*
X885921Y351925D01*
X885865Y351784D01*
X885800Y351646D01*
X885774Y351555D01*
X885738Y351467D01*
X885705Y351318D01*
X885663Y351172D01*
X885652Y351078D01*
X885632Y350985D01*
X885623Y350833D01*
X885605Y350682D01*
X885609Y350587D01*
X885604Y350492D01*
X885620Y350341D01*
X885627Y350190D01*
X885646Y350096D01*
X885656Y350002D01*
X885696Y349855D01*
X885727Y349707D01*
X885762Y349618D01*
X885787Y349526D01*
X885850Y349388D01*
X885905Y349246D01*
X885953Y349164D01*
X885993Y349078D01*
X886077Y348952D01*
X886154Y348821D01*
X886215Y348747D01*
X886268Y348668D01*
X886372Y348558D01*
X886469Y348441D01*
X886541Y348378D01*
X886606Y348309D01*
X886726Y348216D01*
X886841Y348117D01*
X886922Y348067D01*
X886997Y348009D01*
X887131Y347937D01*
X887260Y347857D01*
X887348Y347820D01*
X887432Y347775D01*
X887576Y347726D01*
X887716Y347668D01*
X887809Y347646D01*
X887899Y347615D01*
X888048Y347590D01*
X888196Y347555D01*
X888291Y347549D01*
X888385Y347533D01*
X888537Y347532D01*
X888688Y347522D01*
X888783Y347530D01*
G37*
G36*
X858235Y126502D02*
X858235Y126502D01*
X858350Y126501D01*
X858481Y126522D01*
X858613Y126533D01*
X858724Y126560D01*
X858837Y126578D01*
X858963Y126619D01*
X859092Y126651D01*
X859197Y126696D01*
X859306Y126732D01*
X859423Y126794D01*
X859546Y126846D01*
X859642Y126907D01*
X859743Y126960D01*
X859817Y127019D01*
X859962Y127111D01*
X860204Y127327D01*
X860276Y127385D01*
X868295Y135404D01*
X868369Y135491D01*
X868450Y135571D01*
X868528Y135678D01*
X868614Y135780D01*
X868673Y135878D01*
X868740Y135970D01*
X868800Y136088D01*
X868869Y136202D01*
X868911Y136308D01*
X868963Y136410D01*
X869003Y136537D01*
X869052Y136660D01*
X869077Y136772D01*
X869111Y136881D01*
X869121Y136974D01*
X869159Y137142D01*
X869177Y137466D01*
X869187Y137558D01*
X869187Y194128D01*
X869178Y194241D01*
X869179Y194356D01*
X869158Y194487D01*
X869147Y194619D01*
X869120Y194730D01*
X869102Y194843D01*
X869061Y194969D01*
X869029Y195098D01*
X868984Y195203D01*
X868948Y195312D01*
X868886Y195430D01*
X868834Y195552D01*
X868773Y195648D01*
X868720Y195749D01*
X868661Y195823D01*
X868569Y195968D01*
X868353Y196210D01*
X868295Y196282D01*
X864855Y199722D01*
X864797Y199772D01*
X864745Y199827D01*
X864609Y199931D01*
X864479Y200042D01*
X864413Y200081D01*
X864353Y200128D01*
X864203Y200208D01*
X864056Y200297D01*
X863986Y200325D01*
X863918Y200361D01*
X863756Y200416D01*
X863598Y200480D01*
X863524Y200496D01*
X863452Y200521D01*
X863283Y200549D01*
X863117Y200586D01*
X863040Y200591D01*
X862965Y200603D01*
X862794Y200605D01*
X862624Y200614D01*
X862548Y200606D01*
X862472Y200606D01*
X862303Y200580D01*
X862133Y200562D01*
X862060Y200542D01*
X861985Y200530D01*
X861822Y200476D01*
X861658Y200431D01*
X861588Y200399D01*
X861516Y200376D01*
X861365Y200297D01*
X861209Y200225D01*
X861146Y200183D01*
X861078Y200148D01*
X860996Y200082D01*
X860800Y199950D01*
X860628Y199788D01*
X860545Y199723D01*
X856986Y196163D01*
X856980Y196156D01*
X856972Y196150D01*
X856821Y195969D01*
X856667Y195787D01*
X856662Y195779D01*
X856655Y195772D01*
X856636Y195737D01*
X856412Y195365D01*
X856364Y195244D01*
X856326Y195175D01*
X856030Y194461D01*
X853601Y192032D01*
X853600Y192032D01*
X849975Y188406D01*
X849945Y188371D01*
X849911Y188340D01*
X849786Y188183D01*
X849655Y188030D01*
X849632Y187991D01*
X849603Y187955D01*
X849504Y187779D01*
X849401Y187607D01*
X849384Y187565D01*
X849361Y187525D01*
X849292Y187336D01*
X849218Y187149D01*
X849208Y187105D01*
X849192Y187062D01*
X849154Y186864D01*
X849111Y186668D01*
X849108Y186622D01*
X849100Y186577D01*
X849095Y186376D01*
X849083Y186175D01*
X849088Y186130D01*
X849087Y186084D01*
X849114Y185885D01*
X849136Y185685D01*
X849148Y185641D01*
X849154Y185595D01*
X849213Y185403D01*
X849266Y185209D01*
X849285Y185167D01*
X849299Y185124D01*
X849388Y184944D01*
X849472Y184761D01*
X849498Y184722D01*
X849518Y184682D01*
X849635Y184518D01*
X849747Y184351D01*
X849779Y184318D01*
X849805Y184281D01*
X849947Y184138D01*
X850085Y183992D01*
X850121Y183964D01*
X850154Y183931D01*
X850317Y183814D01*
X850477Y183691D01*
X850517Y183670D01*
X850554Y183643D01*
X850734Y183553D01*
X850911Y183458D01*
X850955Y183443D01*
X850995Y183423D01*
X851091Y183397D01*
X851378Y183298D01*
X851559Y183267D01*
X851653Y183241D01*
X853054Y183020D01*
X855006Y182385D01*
X856835Y181453D01*
X858496Y180247D01*
X859947Y178796D01*
X861153Y177135D01*
X862085Y175306D01*
X862720Y173354D01*
X863041Y171326D01*
X863041Y163299D01*
X850452Y163299D01*
X850376Y163293D01*
X850300Y163295D01*
X850131Y163273D01*
X849985Y163261D01*
X849889Y163280D01*
X849653Y163287D01*
X849548Y163299D01*
X836959Y163299D01*
X836959Y171326D01*
X837280Y173354D01*
X837915Y175306D01*
X838847Y177135D01*
X838951Y177279D01*
X838975Y177318D01*
X839004Y177354D01*
X839103Y177528D01*
X839208Y177700D01*
X839225Y177742D01*
X839248Y177782D01*
X839318Y177971D01*
X839393Y178157D01*
X839403Y178202D01*
X839419Y178245D01*
X839458Y178442D01*
X839502Y178638D01*
X839505Y178684D01*
X839514Y178729D01*
X839520Y178929D01*
X839533Y179131D01*
X839528Y179176D01*
X839529Y179222D01*
X839503Y179421D01*
X839483Y179621D01*
X839471Y179666D01*
X839465Y179711D01*
X839407Y179904D01*
X839355Y180098D01*
X839336Y180140D01*
X839323Y180184D01*
X839234Y180364D01*
X839151Y180547D01*
X839126Y180585D01*
X839106Y180627D01*
X838989Y180790D01*
X838878Y180958D01*
X838847Y180992D01*
X838820Y181029D01*
X838679Y181172D01*
X838542Y181319D01*
X838506Y181347D01*
X838473Y181380D01*
X838311Y181498D01*
X838152Y181621D01*
X838112Y181643D01*
X838075Y181670D01*
X837895Y181761D01*
X837718Y181857D01*
X837675Y181872D01*
X837634Y181893D01*
X837443Y181953D01*
X837253Y182019D01*
X837207Y182027D01*
X837164Y182041D01*
X837065Y182052D01*
X836767Y182104D01*
X836583Y182106D01*
X836486Y182117D01*
X815430Y182117D01*
X815250Y182103D01*
X815070Y182096D01*
X815005Y182083D01*
X814939Y182077D01*
X814763Y182034D01*
X814587Y181998D01*
X814525Y181975D01*
X814460Y181959D01*
X814294Y181887D01*
X814125Y181824D01*
X814068Y181790D01*
X814006Y181764D01*
X813854Y181667D01*
X813698Y181577D01*
X813647Y181535D01*
X813590Y181499D01*
X813456Y181379D01*
X813316Y181264D01*
X813272Y181215D01*
X813223Y181170D01*
X813109Y181030D01*
X812990Y180895D01*
X812954Y180838D01*
X812913Y180786D01*
X812823Y180630D01*
X812727Y180477D01*
X812702Y180416D01*
X812669Y180358D01*
X812606Y180188D01*
X812536Y180022D01*
X812520Y179958D01*
X812497Y179895D01*
X812462Y179718D01*
X812420Y179543D01*
X812415Y179476D01*
X812402Y179411D01*
X812397Y179231D01*
X812383Y179051D01*
X812389Y178984D01*
X812387Y178918D01*
X812411Y178739D01*
X812426Y178559D01*
X812441Y178509D01*
X812451Y178429D01*
X812594Y177957D01*
X812609Y177926D01*
X812615Y177904D01*
X814565Y173197D01*
X814565Y146403D01*
X812347Y141050D01*
X808005Y136708D01*
X807931Y136621D01*
X807850Y136540D01*
X807772Y136433D01*
X807686Y136332D01*
X807627Y136234D01*
X807560Y136142D01*
X807500Y136023D01*
X807431Y135909D01*
X807389Y135803D01*
X807337Y135701D01*
X807297Y135574D01*
X807248Y135451D01*
X807223Y135340D01*
X807189Y135231D01*
X807179Y135137D01*
X807141Y134969D01*
X807123Y134645D01*
X807113Y134553D01*
X807113Y131308D01*
X807122Y131195D01*
X807121Y131080D01*
X807142Y130949D01*
X807153Y130817D01*
X807180Y130706D01*
X807198Y130593D01*
X807239Y130467D01*
X807271Y130338D01*
X807316Y130233D01*
X807352Y130124D01*
X807414Y130007D01*
X807466Y129884D01*
X807527Y129788D01*
X807580Y129687D01*
X807639Y129613D01*
X807731Y129468D01*
X807947Y129226D01*
X808005Y129154D01*
X809774Y127385D01*
X809861Y127311D01*
X809941Y127230D01*
X810048Y127152D01*
X810150Y127066D01*
X810248Y127007D01*
X810340Y126940D01*
X810458Y126880D01*
X810572Y126811D01*
X810678Y126769D01*
X810780Y126717D01*
X810907Y126677D01*
X811030Y126628D01*
X811142Y126603D01*
X811251Y126569D01*
X811344Y126559D01*
X811512Y126521D01*
X811836Y126503D01*
X811928Y126493D01*
X858122Y126493D01*
X858235Y126502D01*
G37*
%LPC*%
G36*
X946108Y470435D02*
X946108Y470435D01*
X938917Y473414D01*
X933414Y478917D01*
X930435Y486108D01*
X930435Y493892D01*
X933414Y501083D01*
X938917Y506586D01*
X946108Y509565D01*
X953892Y509565D01*
X961083Y506586D01*
X966586Y501083D01*
X969565Y493892D01*
X969565Y486108D01*
X966586Y478917D01*
X961083Y473414D01*
X953892Y470435D01*
X946108Y470435D01*
G37*
%LPD*%
%LPC*%
G36*
X46108Y470435D02*
X46108Y470435D01*
X38917Y473414D01*
X33414Y478917D01*
X30435Y486108D01*
X30435Y493892D01*
X33414Y501083D01*
X38917Y506586D01*
X46108Y509565D01*
X53892Y509565D01*
X61083Y506586D01*
X66586Y501083D01*
X69565Y493892D01*
X69565Y486108D01*
X66586Y478917D01*
X61083Y473414D01*
X53892Y470435D01*
X46108Y470435D01*
G37*
%LPD*%
%LPC*%
G36*
X56108Y40435D02*
X56108Y40435D01*
X48917Y43414D01*
X43414Y48917D01*
X40435Y56108D01*
X40435Y63892D01*
X43414Y71083D01*
X48917Y76586D01*
X56108Y79565D01*
X63892Y79565D01*
X71083Y76586D01*
X76586Y71083D01*
X79565Y63892D01*
X79565Y56108D01*
X76586Y48917D01*
X71083Y43414D01*
X63892Y40435D01*
X56108Y40435D01*
G37*
%LPD*%
%LPC*%
G36*
X936108Y40435D02*
X936108Y40435D01*
X928917Y43414D01*
X923414Y48917D01*
X920435Y56108D01*
X920435Y63892D01*
X923414Y71083D01*
X928917Y76586D01*
X936108Y79565D01*
X943892Y79565D01*
X951083Y76586D01*
X956586Y71083D01*
X959565Y63892D01*
X959565Y56108D01*
X956586Y48917D01*
X951083Y43414D01*
X943892Y40435D01*
X936108Y40435D01*
G37*
%LPD*%
%LPC*%
G36*
X849889Y403680D02*
X849889Y403680D01*
X849653Y403687D01*
X849548Y403699D01*
X836959Y403699D01*
X836959Y411726D01*
X837280Y413754D01*
X837915Y415706D01*
X838847Y417535D01*
X840053Y419196D01*
X841504Y420647D01*
X843165Y421853D01*
X844994Y422785D01*
X846946Y423420D01*
X848781Y423710D01*
X848789Y423712D01*
X848797Y423713D01*
X849028Y423770D01*
X849261Y423827D01*
X849268Y423830D01*
X849275Y423831D01*
X849496Y423926D01*
X849715Y424019D01*
X849722Y424023D01*
X849729Y424026D01*
X849930Y424154D01*
X849999Y424198D01*
X850107Y424120D01*
X850113Y424116D01*
X850120Y424112D01*
X850334Y424005D01*
X850547Y423897D01*
X850554Y423895D01*
X850561Y423892D01*
X850593Y423883D01*
X851017Y423749D01*
X851120Y423738D01*
X851219Y423710D01*
X853054Y423420D01*
X855006Y422785D01*
X856835Y421853D01*
X858496Y420647D01*
X859947Y419196D01*
X861153Y417535D01*
X862085Y415706D01*
X862720Y413754D01*
X863041Y411726D01*
X863041Y403699D01*
X850452Y403699D01*
X850376Y403693D01*
X850300Y403695D01*
X850131Y403673D01*
X849985Y403661D01*
X849889Y403680D01*
G37*
%LPD*%
%LPC*%
G36*
X703447Y365747D02*
X703447Y365747D01*
X703447Y376530D01*
X703480Y376697D01*
X703487Y376933D01*
X703499Y377038D01*
X703499Y396701D01*
X713041Y396701D01*
X713041Y388674D01*
X712720Y386646D01*
X712085Y384694D01*
X711153Y382865D01*
X709947Y381204D01*
X708496Y379753D01*
X708136Y379492D01*
X708041Y379410D01*
X707940Y379336D01*
X707854Y379250D01*
X707762Y379171D01*
X707681Y379075D01*
X707593Y378985D01*
X707523Y378886D01*
X707444Y378793D01*
X707380Y378685D01*
X707307Y378583D01*
X707254Y378474D01*
X707192Y378369D01*
X707146Y378253D01*
X707091Y378140D01*
X707056Y378023D01*
X707011Y377910D01*
X706984Y377788D01*
X706948Y377668D01*
X706932Y377547D01*
X706907Y377428D01*
X706900Y377303D01*
X706884Y377178D01*
X706888Y377057D01*
X706881Y376936D01*
X706895Y376811D01*
X706899Y376685D01*
X706923Y376566D01*
X706936Y376445D01*
X706970Y376324D01*
X706994Y376201D01*
X707036Y376087D01*
X707069Y375970D01*
X707122Y375856D01*
X707166Y375739D01*
X707226Y375633D01*
X707277Y375523D01*
X707348Y375419D01*
X707410Y375310D01*
X707486Y375215D01*
X707554Y375115D01*
X707641Y375024D01*
X707720Y374926D01*
X707810Y374845D01*
X707894Y374757D01*
X707994Y374681D01*
X708088Y374598D01*
X708190Y374532D01*
X708287Y374459D01*
X708398Y374400D01*
X708504Y374332D01*
X708586Y374300D01*
X708723Y374228D01*
X709065Y374112D01*
X709139Y374083D01*
X710131Y373818D01*
X710710Y373483D01*
X711183Y373010D01*
X711518Y372431D01*
X711691Y371785D01*
X711691Y365747D01*
X703447Y365747D01*
G37*
%LPD*%
%LPC*%
G36*
X403499Y403699D02*
X403499Y403699D01*
X403499Y423275D01*
X405006Y422785D01*
X406835Y421853D01*
X408496Y420647D01*
X409947Y419196D01*
X411153Y417535D01*
X412085Y415706D01*
X412720Y413754D01*
X413041Y411726D01*
X413041Y403699D01*
X403499Y403699D01*
G37*
%LPD*%
%LPC*%
G36*
X553499Y403699D02*
X553499Y403699D01*
X553499Y423275D01*
X555006Y422785D01*
X556835Y421853D01*
X558496Y420647D01*
X559947Y419196D01*
X561153Y417535D01*
X562085Y415706D01*
X562720Y413754D01*
X563041Y411726D01*
X563041Y403699D01*
X553499Y403699D01*
G37*
%LPD*%
%LPC*%
G36*
X703499Y403699D02*
X703499Y403699D01*
X703499Y423275D01*
X705006Y422785D01*
X706835Y421853D01*
X708496Y420647D01*
X709947Y419196D01*
X711153Y417535D01*
X712085Y415706D01*
X712720Y413754D01*
X713041Y411726D01*
X713041Y403699D01*
X703499Y403699D01*
G37*
%LPD*%
%LPC*%
G36*
X253499Y163299D02*
X253499Y163299D01*
X253499Y182875D01*
X255006Y182385D01*
X256835Y181453D01*
X258496Y180247D01*
X259947Y178796D01*
X261153Y177135D01*
X262085Y175306D01*
X262720Y173354D01*
X263041Y171326D01*
X263041Y163299D01*
X253499Y163299D01*
G37*
%LPD*%
%LPC*%
G36*
X553499Y163299D02*
X553499Y163299D01*
X553499Y182875D01*
X555006Y182385D01*
X556835Y181453D01*
X558496Y180247D01*
X559947Y178796D01*
X561153Y177135D01*
X562085Y175306D01*
X562720Y173354D01*
X563041Y171326D01*
X563041Y163299D01*
X553499Y163299D01*
G37*
%LPD*%
%LPC*%
G36*
X403499Y163299D02*
X403499Y163299D01*
X403499Y182875D01*
X405006Y182385D01*
X406835Y181453D01*
X408496Y180247D01*
X409947Y178796D01*
X411153Y177135D01*
X412085Y175306D01*
X412720Y173354D01*
X413041Y171326D01*
X413041Y163299D01*
X403499Y163299D01*
G37*
%LPD*%
%LPC*%
G36*
X703499Y163299D02*
X703499Y163299D01*
X703499Y182875D01*
X705006Y182385D01*
X706835Y181453D01*
X708496Y180247D01*
X709947Y178796D01*
X711153Y177135D01*
X712085Y175306D01*
X712720Y173354D01*
X713041Y171326D01*
X713041Y163299D01*
X703499Y163299D01*
G37*
%LPD*%
%LPC*%
G36*
X853499Y156301D02*
X853499Y156301D01*
X863041Y156301D01*
X863041Y148274D01*
X862720Y146246D01*
X862085Y144294D01*
X861153Y142465D01*
X859947Y140804D01*
X858496Y139353D01*
X856835Y138147D01*
X855006Y137215D01*
X853499Y136725D01*
X853499Y156301D01*
G37*
%LPD*%
%LPC*%
G36*
X703499Y156301D02*
X703499Y156301D01*
X713041Y156301D01*
X713041Y148274D01*
X712720Y146246D01*
X712085Y144294D01*
X711153Y142465D01*
X709947Y140804D01*
X708496Y139353D01*
X706835Y138147D01*
X705006Y137215D01*
X703499Y136725D01*
X703499Y156301D01*
G37*
%LPD*%
%LPC*%
G36*
X553499Y156301D02*
X553499Y156301D01*
X563041Y156301D01*
X563041Y148274D01*
X562720Y146246D01*
X562085Y144294D01*
X561153Y142465D01*
X559947Y140804D01*
X558496Y139353D01*
X556835Y138147D01*
X555006Y137215D01*
X553499Y136725D01*
X553499Y156301D01*
G37*
%LPD*%
%LPC*%
G36*
X403499Y156301D02*
X403499Y156301D01*
X413041Y156301D01*
X413041Y148274D01*
X412720Y146246D01*
X412085Y144294D01*
X411153Y142465D01*
X409947Y140804D01*
X408496Y139353D01*
X406835Y138147D01*
X405006Y137215D01*
X403499Y136725D01*
X403499Y156301D01*
G37*
%LPD*%
%LPC*%
G36*
X253499Y156301D02*
X253499Y156301D01*
X263041Y156301D01*
X263041Y148274D01*
X262720Y146246D01*
X262085Y144294D01*
X261153Y142465D01*
X259947Y140804D01*
X258496Y139353D01*
X256835Y138147D01*
X255006Y137215D01*
X253499Y136725D01*
X253499Y156301D01*
G37*
%LPD*%
%LPC*%
G36*
X536959Y403699D02*
X536959Y403699D01*
X536959Y411726D01*
X537280Y413754D01*
X537915Y415706D01*
X538847Y417535D01*
X540053Y419196D01*
X541504Y420647D01*
X543165Y421853D01*
X544994Y422785D01*
X546501Y423275D01*
X546501Y403699D01*
X536959Y403699D01*
G37*
%LPD*%
%LPC*%
G36*
X236959Y403699D02*
X236959Y403699D01*
X236959Y411726D01*
X237280Y413754D01*
X237915Y415706D01*
X238847Y417535D01*
X240053Y419196D01*
X241504Y420647D01*
X243165Y421853D01*
X244994Y422785D01*
X246501Y423275D01*
X246501Y403699D01*
X236959Y403699D01*
G37*
%LPD*%
%LPC*%
G36*
X386959Y403699D02*
X386959Y403699D01*
X386959Y411726D01*
X387280Y413754D01*
X387915Y415706D01*
X388847Y417535D01*
X390053Y419196D01*
X391504Y420647D01*
X393165Y421853D01*
X394994Y422785D01*
X396501Y423275D01*
X396501Y403699D01*
X386959Y403699D01*
G37*
%LPD*%
%LPC*%
G36*
X236959Y163299D02*
X236959Y163299D01*
X236959Y171326D01*
X237280Y173354D01*
X237915Y175306D01*
X238847Y177135D01*
X240053Y178796D01*
X241504Y180247D01*
X243165Y181453D01*
X244994Y182385D01*
X246501Y182875D01*
X246501Y163299D01*
X236959Y163299D01*
G37*
%LPD*%
%LPC*%
G36*
X386959Y163299D02*
X386959Y163299D01*
X386959Y171326D01*
X387280Y173354D01*
X387915Y175306D01*
X388847Y177135D01*
X390053Y178796D01*
X391504Y180247D01*
X393165Y181453D01*
X394994Y182385D01*
X396501Y182875D01*
X396501Y163299D01*
X386959Y163299D01*
G37*
%LPD*%
%LPC*%
G36*
X544994Y137215D02*
X544994Y137215D01*
X543165Y138147D01*
X541504Y139353D01*
X540053Y140804D01*
X538847Y142465D01*
X537915Y144294D01*
X537280Y146246D01*
X536959Y148274D01*
X536959Y156301D01*
X546501Y156301D01*
X546501Y136725D01*
X544994Y137215D01*
G37*
%LPD*%
%LPC*%
G36*
X244994Y377615D02*
X244994Y377615D01*
X243165Y378547D01*
X241504Y379753D01*
X240053Y381204D01*
X238847Y382865D01*
X237915Y384694D01*
X237280Y386646D01*
X236959Y388674D01*
X236959Y396701D01*
X246501Y396701D01*
X246501Y377125D01*
X244994Y377615D01*
G37*
%LPD*%
%LPC*%
G36*
X844994Y137215D02*
X844994Y137215D01*
X843165Y138147D01*
X841504Y139353D01*
X840053Y140804D01*
X838847Y142465D01*
X837915Y144294D01*
X837280Y146246D01*
X836959Y148274D01*
X836959Y156301D01*
X846501Y156301D01*
X846501Y136725D01*
X844994Y137215D01*
G37*
%LPD*%
%LPC*%
G36*
X394994Y137215D02*
X394994Y137215D01*
X393165Y138147D01*
X391504Y139353D01*
X390053Y140804D01*
X388847Y142465D01*
X387915Y144294D01*
X387280Y146246D01*
X386959Y148274D01*
X386959Y156301D01*
X396501Y156301D01*
X396501Y136725D01*
X394994Y137215D01*
G37*
%LPD*%
%LPC*%
G36*
X394994Y377615D02*
X394994Y377615D01*
X393165Y378547D01*
X391504Y379753D01*
X390053Y381204D01*
X388847Y382865D01*
X387915Y384694D01*
X387280Y386646D01*
X386959Y388674D01*
X386959Y396701D01*
X396501Y396701D01*
X396501Y377125D01*
X394994Y377615D01*
G37*
%LPD*%
%LPC*%
G36*
X244994Y137215D02*
X244994Y137215D01*
X243165Y138147D01*
X241504Y139353D01*
X240053Y140804D01*
X238847Y142465D01*
X237915Y144294D01*
X237280Y146246D01*
X236959Y148274D01*
X236959Y156301D01*
X246501Y156301D01*
X246501Y136725D01*
X244994Y137215D01*
G37*
%LPD*%
%LPC*%
G36*
X694994Y137215D02*
X694994Y137215D01*
X693165Y138147D01*
X691504Y139353D01*
X690053Y140804D01*
X688847Y142465D01*
X687915Y144294D01*
X687280Y146246D01*
X686959Y148274D01*
X686959Y156301D01*
X696501Y156301D01*
X696501Y136725D01*
X694994Y137215D01*
G37*
%LPD*%
%LPC*%
G36*
X178447Y365747D02*
X178447Y365747D01*
X178447Y373991D01*
X184485Y373991D01*
X185131Y373818D01*
X185710Y373483D01*
X186183Y373010D01*
X186518Y372431D01*
X186691Y371785D01*
X186691Y365747D01*
X178447Y365747D01*
G37*
%LPD*%
%LPC*%
G36*
X528447Y235747D02*
X528447Y235747D01*
X528447Y243991D01*
X534485Y243991D01*
X535131Y243818D01*
X535710Y243483D01*
X536183Y243010D01*
X536518Y242431D01*
X536691Y241785D01*
X536691Y235747D01*
X528447Y235747D01*
G37*
%LPD*%
%LPC*%
G36*
X878447Y235747D02*
X878447Y235747D01*
X878447Y243991D01*
X884485Y243991D01*
X885131Y243818D01*
X885710Y243483D01*
X886183Y243010D01*
X886518Y242431D01*
X886691Y241785D01*
X886691Y235747D01*
X878447Y235747D01*
G37*
%LPD*%
%LPC*%
G36*
X703447Y235747D02*
X703447Y235747D01*
X703447Y243991D01*
X709485Y243991D01*
X710131Y243818D01*
X710710Y243483D01*
X711183Y243010D01*
X711518Y242431D01*
X711691Y241785D01*
X711691Y235747D01*
X703447Y235747D01*
G37*
%LPD*%
%LPC*%
G36*
X353447Y235747D02*
X353447Y235747D01*
X353447Y243991D01*
X359485Y243991D01*
X360131Y243818D01*
X360710Y243483D01*
X361183Y243010D01*
X361518Y242431D01*
X361691Y241785D01*
X361691Y235747D01*
X353447Y235747D01*
G37*
%LPD*%
%LPC*%
G36*
X178447Y235747D02*
X178447Y235747D01*
X178447Y243991D01*
X184485Y243991D01*
X185131Y243818D01*
X185710Y243483D01*
X186183Y243010D01*
X186518Y242431D01*
X186691Y241785D01*
X186691Y235747D01*
X178447Y235747D01*
G37*
%LPD*%
%LPC*%
G36*
X878447Y365747D02*
X878447Y365747D01*
X878447Y373991D01*
X884485Y373991D01*
X885131Y373818D01*
X885710Y373483D01*
X886183Y373010D01*
X886518Y372431D01*
X886691Y371785D01*
X886691Y365747D01*
X878447Y365747D01*
G37*
%LPD*%
D10*
X175400Y362700D03*
D11*
X175400Y337300D03*
X150000Y362700D03*
X150000Y337300D03*
X124600Y362700D03*
X124600Y337300D03*
D10*
X175400Y232700D03*
D11*
X175400Y207300D03*
X150000Y232700D03*
X150000Y207300D03*
X124600Y232700D03*
X124600Y207300D03*
D10*
X350400Y362700D03*
D11*
X350400Y337300D03*
X325000Y362700D03*
X325000Y337300D03*
X299600Y362700D03*
X299600Y337300D03*
D10*
X350400Y232700D03*
D11*
X350400Y207300D03*
X325000Y232700D03*
X325000Y207300D03*
X299600Y232700D03*
X299600Y207300D03*
D10*
X700400Y362700D03*
D11*
X700400Y337300D03*
X675000Y362700D03*
X675000Y337300D03*
X649600Y362700D03*
X649600Y337300D03*
D10*
X700400Y232700D03*
D11*
X700400Y207300D03*
X675000Y232700D03*
X675000Y207300D03*
X649600Y232700D03*
X649600Y207300D03*
D10*
X875400Y362700D03*
D11*
X875400Y337300D03*
X850000Y362700D03*
X850000Y337300D03*
X824600Y362700D03*
X824600Y337300D03*
D10*
X875400Y232700D03*
D11*
X875400Y207300D03*
X850000Y232700D03*
X850000Y207300D03*
X824600Y232700D03*
X824600Y207300D03*
D10*
X525400Y362700D03*
D11*
X525400Y337300D03*
X500000Y362700D03*
X500000Y337300D03*
X474600Y362700D03*
X474600Y337300D03*
D10*
X525400Y232700D03*
D11*
X525400Y207300D03*
X500000Y232700D03*
X500000Y207300D03*
X474600Y232700D03*
X474600Y207300D03*
D12*
X350000Y389700D02*
X350000Y410700D01*
X300000Y410700D02*
X300000Y389700D01*
X250000Y389700D02*
X250000Y410700D01*
X200000Y410700D02*
X200000Y389700D01*
X150000Y389700D02*
X150000Y410700D01*
X850000Y410700D02*
X850000Y389700D01*
X800000Y389700D02*
X800000Y410700D01*
X750000Y410700D02*
X750000Y389700D01*
X700000Y389700D02*
X700000Y410700D01*
X650000Y410700D02*
X650000Y389700D01*
X600000Y389700D02*
X600000Y410700D01*
X550000Y410700D02*
X550000Y389700D01*
X500000Y389700D02*
X500000Y410700D01*
X450000Y410700D02*
X450000Y389700D01*
X400000Y389700D02*
X400000Y410700D01*
X150000Y170300D02*
X150000Y149300D01*
X200000Y149300D02*
X200000Y170300D01*
X250000Y170300D02*
X250000Y149300D01*
X300000Y149300D02*
X300000Y170300D01*
X350000Y170300D02*
X350000Y149300D01*
X400000Y149300D02*
X400000Y170300D01*
X450000Y170300D02*
X450000Y149300D01*
X500000Y149300D02*
X500000Y170300D01*
X550000Y170300D02*
X550000Y149300D01*
X600000Y149300D02*
X600000Y170300D01*
X650000Y170300D02*
X650000Y149300D01*
X700000Y149300D02*
X700000Y170300D01*
X750000Y170300D02*
X750000Y149300D01*
X800000Y149300D02*
X800000Y170300D01*
X850000Y170300D02*
X850000Y149300D01*
D13*
X90000Y230160D03*
X90000Y220000D03*
X90000Y209840D03*
X270000Y230160D03*
X270000Y220000D03*
X270000Y209840D03*
X790000Y360160D03*
X790000Y350000D03*
X790000Y339840D03*
X790000Y230160D03*
X790000Y220000D03*
X790000Y209840D03*
X440000Y360160D03*
X440000Y350000D03*
X440000Y339840D03*
X440000Y230160D03*
X440000Y220000D03*
X440000Y209840D03*
X620000Y230160D03*
X620000Y220000D03*
X620000Y209840D03*
X620000Y360160D03*
X620000Y350000D03*
X620000Y339840D03*
X100000Y360160D03*
X100000Y350000D03*
X100000Y339840D03*
X270000Y360160D03*
X270000Y350000D03*
X270000Y339840D03*
D14*
X90160Y230160D02*
X90000Y230160D01*
X90160Y230160D02*
X110000Y250000D01*
X132700Y250000D01*
X150000Y232700D01*
X100000Y360160D02*
X100000Y370000D01*
X110000Y380000D01*
X132700Y380000D02*
X150000Y362700D01*
X132700Y380000D02*
X110000Y380000D01*
X270000Y374140D02*
X270000Y360160D01*
X270000Y374140D02*
X273050Y377190D01*
X273050Y419100D01*
X288290Y434340D01*
X308610Y434340D01*
X325000Y417950D01*
X325000Y362700D01*
X440000Y360160D02*
X448140Y368300D01*
X457200Y368300D02*
X468630Y379730D01*
X483870Y379730D01*
X500000Y363600D01*
X500000Y362700D01*
X457200Y368300D02*
X448140Y368300D01*
X620000Y373620D02*
X620000Y360160D01*
X627380Y381000D02*
X627380Y420370D01*
X641350Y434340D01*
X664210Y434340D01*
X675000Y423550D01*
X675000Y362700D01*
X627380Y381000D02*
X620000Y373620D01*
X790000Y360160D02*
X799410Y369570D01*
X806450Y369570D02*
X815340Y378460D01*
X834240Y378460D01*
X850000Y362700D01*
X806450Y369570D02*
X799410Y369570D01*
X270000Y239520D02*
X270000Y230160D01*
X270000Y239520D02*
X287020Y256540D01*
X313690Y256540D01*
X325120Y245110D01*
X325120Y232820D01*
X325000Y232700D01*
X440000Y230160D02*
X440000Y240610D01*
X453390Y254000D01*
X478700Y254000D01*
X500000Y232700D01*
X620000Y230160D02*
X620000Y241540D01*
X633730Y255270D01*
X660400Y255270D01*
X675640Y240030D01*
X675640Y233340D01*
X675000Y232700D01*
X790000Y230160D02*
X812570Y252730D01*
X835660Y252730D01*
X850000Y238390D01*
X850000Y232700D01*
X187300Y337300D02*
X175400Y337300D01*
X187300Y337300D02*
X200000Y350000D01*
X200000Y400200D01*
X175400Y207300D02*
X200000Y182700D01*
X200000Y159800D01*
X370840Y379360D02*
X350000Y400200D01*
X370840Y379360D02*
X370840Y342900D01*
X365240Y337300D01*
X350400Y337300D01*
X350400Y207300D02*
X350400Y160200D01*
X350000Y159800D01*
X650000Y159800D02*
X679430Y189230D01*
X687070Y189230D01*
X700400Y202560D01*
X700400Y207300D01*
X875400Y337300D02*
X889750Y337300D01*
X901700Y349250D01*
X901700Y397510D01*
X862330Y436880D01*
X819150Y436880D01*
X800000Y417730D02*
X800000Y400200D01*
X800000Y417730D02*
X819150Y436880D01*
X800000Y159800D02*
X800000Y127100D01*
X807720Y119380D01*
X862330Y119380D01*
X876300Y133350D01*
X876300Y206400D01*
X875400Y207300D01*
X541770Y337300D02*
X525400Y337300D01*
X541770Y337300D02*
X544830Y340360D01*
X544830Y370840D01*
X515470Y400200D02*
X500000Y400200D01*
X515470Y400200D02*
X544830Y370840D01*
X516670Y159800D02*
X500000Y159800D01*
X516670Y159800D02*
X527050Y170180D01*
X527050Y205650D01*
X525400Y207300D01*
X150000Y159800D02*
X111790Y159800D01*
X70000Y201590D01*
X70000Y220000D01*
X90000Y220000D01*
X90000Y209840D02*
X109840Y190000D01*
X140000Y190000D01*
X150000Y200000D01*
X150000Y207300D01*
X266760Y193040D02*
X300000Y159800D01*
X266760Y193040D02*
X264160Y193040D01*
X252730Y204470D01*
X252730Y214630D01*
X258100Y220000D01*
X270000Y220000D01*
X270000Y209840D02*
X289340Y190500D01*
X316230Y190500D01*
X325000Y199270D01*
X325000Y207300D01*
X771410Y350000D02*
X790000Y350000D01*
X771410Y350000D02*
X749300Y372110D01*
X749300Y399500D01*
X750000Y400200D01*
X790000Y339840D02*
X790000Y325180D01*
X789940Y325120D01*
X802640Y312420D01*
X840740Y312420D01*
X850000Y321680D02*
X850000Y337300D01*
X850000Y321680D02*
X840740Y312420D01*
X750000Y206440D02*
X750000Y159800D01*
X763560Y220000D02*
X790000Y220000D01*
X763560Y220000D02*
X750000Y206440D01*
X790000Y209840D02*
X792190Y209840D01*
X812800Y189230D02*
X840740Y189230D01*
X850000Y198490D01*
X850000Y207300D01*
X812800Y189230D02*
X792190Y209840D01*
X440000Y350000D02*
X428510Y350000D01*
X421640Y356870D01*
X421640Y378460D01*
X443380Y400200D02*
X450000Y400200D01*
X443380Y400200D02*
X421640Y378460D01*
X440000Y339840D02*
X440000Y327080D01*
X448310Y318770D01*
X481470Y318770D01*
X500000Y337300D01*
X424180Y185620D02*
X450000Y159800D01*
X424180Y185620D02*
X424180Y214630D01*
X429550Y220000D01*
X440000Y220000D01*
X440000Y209840D02*
X463150Y186690D01*
X483870Y186690D01*
X500000Y202820D01*
X500000Y207300D01*
X600000Y211380D02*
X600000Y159800D01*
X608620Y220000D02*
X620000Y220000D01*
X608620Y220000D02*
X600000Y211380D01*
X620000Y209840D02*
X640610Y189230D01*
X660400Y189230D01*
X675000Y203830D01*
X675000Y207300D01*
X620000Y350000D02*
X605040Y350000D01*
X598170Y356870D01*
X598170Y398370D01*
X600000Y400200D01*
X620000Y339840D02*
X620000Y327420D01*
X628650Y318770D01*
X666750Y318770D01*
X675000Y327020D02*
X675000Y337300D01*
X675000Y327020D02*
X666750Y318770D01*
X150000Y400200D02*
X111950Y400200D01*
X81590Y369840D01*
X81590Y357300D01*
X88890Y350000D01*
X100000Y350000D01*
X100000Y339840D02*
X100000Y330000D01*
X110000Y320000D01*
X140000Y320000D01*
X150000Y330000D01*
X150000Y337300D01*
X270000Y350000D02*
X270520Y350520D01*
X280670Y350520D01*
X283210Y353060D01*
X300000Y391440D02*
X300000Y400200D01*
X283210Y374650D02*
X283210Y353060D01*
X283210Y374650D02*
X300000Y391440D01*
X325000Y337300D02*
X305200Y317500D01*
X270000Y328170D02*
X270000Y339840D01*
X280670Y317500D02*
X305200Y317500D01*
X280670Y317500D02*
X270000Y328170D01*
M02*
