G75*
%MOIN*%
%OFA0B0*%
%FSLAX25Y25*%
%IPPOS*%
%LPD*%
%AMOC8*
5,1,8,0,0,1.08239X$1,22.5*
%
%ADD10C,0.13398*%
%ADD11R,0.08200X0.08200*%
%ADD12C,0.08200*%
%ADD13R,0.04934X0.05052*%
%ADD14R,0.05131X0.04737*%
%ADD15C,0.06737*%
%ADD16R,0.04146X0.01981*%
%ADD17R,0.11036X0.12611*%
%ADD18C,0.15800*%
%ADD19R,0.03162X0.05721*%
%ADD20R,0.05052X0.04934*%
%ADD21R,0.04737X0.05131*%
%ADD22R,0.04934X0.03162*%
%ADD23R,0.03950X0.03950*%
%ADD24C,0.03937*%
%ADD25R,0.05800X0.03300*%
%ADD26C,0.04000*%
D10*
X0015343Y0076694D03*
X0015343Y0143623D03*
X0206287Y0143623D03*
X0206287Y0076694D03*
D11*
X0035933Y0120159D03*
D12*
X0045933Y0120159D03*
X0045933Y0110159D03*
X0035933Y0110159D03*
X0035933Y0100159D03*
X0045933Y0100159D03*
D13*
X0065315Y0119970D03*
X0072205Y0119970D03*
X0072961Y0144793D03*
X0066071Y0144793D03*
X0149102Y0095907D03*
X0155992Y0095907D03*
D14*
X0160283Y0136639D03*
X0160283Y0143332D03*
X0072504Y0133029D03*
X0065811Y0133029D03*
D15*
X0014949Y0127891D02*
X0014949Y0121954D01*
X0014949Y0098363D02*
X0014949Y0092426D01*
X0183063Y0132584D02*
X0189000Y0132584D01*
X0189000Y0142584D02*
X0183063Y0142584D01*
X0212587Y0113127D02*
X0212587Y0107190D01*
D16*
X0151020Y0108155D03*
X0151020Y0110123D03*
X0151020Y0112092D03*
X0151020Y0114060D03*
X0151020Y0116029D03*
X0151020Y0106186D03*
X0151020Y0104218D03*
X0135665Y0104218D03*
X0135665Y0106186D03*
X0135665Y0108155D03*
X0135665Y0110123D03*
X0135665Y0112092D03*
X0135665Y0114060D03*
X0135665Y0116029D03*
D17*
X0143343Y0110123D03*
D18*
X0169791Y0110159D03*
X0143295Y0136655D03*
X0143295Y0083663D03*
D19*
X0191106Y0100021D03*
X0198587Y0100021D03*
X0194846Y0091753D03*
D20*
X0183024Y0093151D03*
X0183024Y0100041D03*
X0127933Y0097808D03*
X0127933Y0104698D03*
D21*
X0128598Y0124033D03*
X0135291Y0124033D03*
X0104252Y0136733D03*
X0097559Y0136733D03*
X0072236Y0109505D03*
X0065543Y0109505D03*
X0165291Y0078993D03*
X0171984Y0078993D03*
D22*
X0163579Y0085970D03*
X0172240Y0089710D03*
X0163579Y0093450D03*
D23*
X0103437Y0144974D03*
X0097531Y0144974D03*
D24*
X0031091Y0143623D02*
X0031089Y0143537D01*
X0031084Y0143451D01*
X0031074Y0143366D01*
X0031061Y0143281D01*
X0031044Y0143197D01*
X0031024Y0143113D01*
X0031000Y0143031D01*
X0030972Y0142950D01*
X0030941Y0142869D01*
X0030907Y0142791D01*
X0030869Y0142714D01*
X0030827Y0142639D01*
X0030783Y0142565D01*
X0030735Y0142494D01*
X0030684Y0142424D01*
X0030630Y0142357D01*
X0030574Y0142293D01*
X0030514Y0142231D01*
X0030452Y0142171D01*
X0030388Y0142115D01*
X0030321Y0142061D01*
X0030251Y0142010D01*
X0030180Y0141962D01*
X0030107Y0141918D01*
X0030031Y0141876D01*
X0029954Y0141838D01*
X0029876Y0141804D01*
X0029795Y0141773D01*
X0029714Y0141745D01*
X0029632Y0141721D01*
X0029548Y0141701D01*
X0029464Y0141684D01*
X0029379Y0141671D01*
X0029294Y0141661D01*
X0029208Y0141656D01*
X0029122Y0141654D01*
X0029036Y0141656D01*
X0028950Y0141661D01*
X0028865Y0141671D01*
X0028780Y0141684D01*
X0028696Y0141701D01*
X0028612Y0141721D01*
X0028530Y0141745D01*
X0028449Y0141773D01*
X0028368Y0141804D01*
X0028290Y0141838D01*
X0028213Y0141876D01*
X0028137Y0141918D01*
X0028064Y0141962D01*
X0027993Y0142010D01*
X0027923Y0142061D01*
X0027856Y0142115D01*
X0027792Y0142171D01*
X0027730Y0142231D01*
X0027670Y0142293D01*
X0027614Y0142357D01*
X0027560Y0142424D01*
X0027509Y0142494D01*
X0027461Y0142565D01*
X0027417Y0142639D01*
X0027375Y0142714D01*
X0027337Y0142791D01*
X0027303Y0142869D01*
X0027272Y0142950D01*
X0027244Y0143031D01*
X0027220Y0143113D01*
X0027200Y0143197D01*
X0027183Y0143281D01*
X0027170Y0143366D01*
X0027160Y0143451D01*
X0027155Y0143537D01*
X0027153Y0143623D01*
X0027155Y0143709D01*
X0027160Y0143795D01*
X0027170Y0143880D01*
X0027183Y0143965D01*
X0027200Y0144049D01*
X0027220Y0144133D01*
X0027244Y0144215D01*
X0027272Y0144296D01*
X0027303Y0144377D01*
X0027337Y0144455D01*
X0027375Y0144532D01*
X0027417Y0144608D01*
X0027461Y0144681D01*
X0027509Y0144752D01*
X0027560Y0144822D01*
X0027614Y0144889D01*
X0027670Y0144953D01*
X0027730Y0145015D01*
X0027792Y0145075D01*
X0027856Y0145131D01*
X0027923Y0145185D01*
X0027993Y0145236D01*
X0028064Y0145284D01*
X0028138Y0145328D01*
X0028213Y0145370D01*
X0028290Y0145408D01*
X0028368Y0145442D01*
X0028449Y0145473D01*
X0028530Y0145501D01*
X0028612Y0145525D01*
X0028696Y0145545D01*
X0028780Y0145562D01*
X0028865Y0145575D01*
X0028950Y0145585D01*
X0029036Y0145590D01*
X0029122Y0145592D01*
X0029208Y0145590D01*
X0029294Y0145585D01*
X0029379Y0145575D01*
X0029464Y0145562D01*
X0029548Y0145545D01*
X0029632Y0145525D01*
X0029714Y0145501D01*
X0029795Y0145473D01*
X0029876Y0145442D01*
X0029954Y0145408D01*
X0030031Y0145370D01*
X0030107Y0145328D01*
X0030180Y0145284D01*
X0030251Y0145236D01*
X0030321Y0145185D01*
X0030388Y0145131D01*
X0030452Y0145075D01*
X0030514Y0145015D01*
X0030574Y0144953D01*
X0030630Y0144889D01*
X0030684Y0144822D01*
X0030735Y0144752D01*
X0030783Y0144681D01*
X0030827Y0144608D01*
X0030869Y0144532D01*
X0030907Y0144455D01*
X0030941Y0144377D01*
X0030972Y0144296D01*
X0031000Y0144215D01*
X0031024Y0144133D01*
X0031044Y0144049D01*
X0031061Y0143965D01*
X0031074Y0143880D01*
X0031084Y0143795D01*
X0031089Y0143709D01*
X0031091Y0143623D01*
X0038965Y0076694D02*
X0038963Y0076608D01*
X0038958Y0076522D01*
X0038948Y0076437D01*
X0038935Y0076352D01*
X0038918Y0076268D01*
X0038898Y0076184D01*
X0038874Y0076102D01*
X0038846Y0076021D01*
X0038815Y0075940D01*
X0038781Y0075862D01*
X0038743Y0075785D01*
X0038701Y0075710D01*
X0038657Y0075636D01*
X0038609Y0075565D01*
X0038558Y0075495D01*
X0038504Y0075428D01*
X0038448Y0075364D01*
X0038388Y0075302D01*
X0038326Y0075242D01*
X0038262Y0075186D01*
X0038195Y0075132D01*
X0038125Y0075081D01*
X0038054Y0075033D01*
X0037981Y0074989D01*
X0037905Y0074947D01*
X0037828Y0074909D01*
X0037750Y0074875D01*
X0037669Y0074844D01*
X0037588Y0074816D01*
X0037506Y0074792D01*
X0037422Y0074772D01*
X0037338Y0074755D01*
X0037253Y0074742D01*
X0037168Y0074732D01*
X0037082Y0074727D01*
X0036996Y0074725D01*
X0036910Y0074727D01*
X0036824Y0074732D01*
X0036739Y0074742D01*
X0036654Y0074755D01*
X0036570Y0074772D01*
X0036486Y0074792D01*
X0036404Y0074816D01*
X0036323Y0074844D01*
X0036242Y0074875D01*
X0036164Y0074909D01*
X0036087Y0074947D01*
X0036012Y0074989D01*
X0035938Y0075033D01*
X0035867Y0075081D01*
X0035797Y0075132D01*
X0035730Y0075186D01*
X0035666Y0075242D01*
X0035604Y0075302D01*
X0035544Y0075364D01*
X0035488Y0075428D01*
X0035434Y0075495D01*
X0035383Y0075565D01*
X0035335Y0075636D01*
X0035291Y0075710D01*
X0035249Y0075785D01*
X0035211Y0075862D01*
X0035177Y0075940D01*
X0035146Y0076021D01*
X0035118Y0076102D01*
X0035094Y0076184D01*
X0035074Y0076268D01*
X0035057Y0076352D01*
X0035044Y0076437D01*
X0035034Y0076522D01*
X0035029Y0076608D01*
X0035027Y0076694D01*
X0035029Y0076780D01*
X0035034Y0076866D01*
X0035044Y0076951D01*
X0035057Y0077036D01*
X0035074Y0077120D01*
X0035094Y0077204D01*
X0035118Y0077286D01*
X0035146Y0077367D01*
X0035177Y0077448D01*
X0035211Y0077526D01*
X0035249Y0077603D01*
X0035291Y0077679D01*
X0035335Y0077752D01*
X0035383Y0077823D01*
X0035434Y0077893D01*
X0035488Y0077960D01*
X0035544Y0078024D01*
X0035604Y0078086D01*
X0035666Y0078146D01*
X0035730Y0078202D01*
X0035797Y0078256D01*
X0035867Y0078307D01*
X0035938Y0078355D01*
X0036012Y0078399D01*
X0036087Y0078441D01*
X0036164Y0078479D01*
X0036242Y0078513D01*
X0036323Y0078544D01*
X0036404Y0078572D01*
X0036486Y0078596D01*
X0036570Y0078616D01*
X0036654Y0078633D01*
X0036739Y0078646D01*
X0036824Y0078656D01*
X0036910Y0078661D01*
X0036996Y0078663D01*
X0037082Y0078661D01*
X0037168Y0078656D01*
X0037253Y0078646D01*
X0037338Y0078633D01*
X0037422Y0078616D01*
X0037506Y0078596D01*
X0037588Y0078572D01*
X0037669Y0078544D01*
X0037750Y0078513D01*
X0037828Y0078479D01*
X0037905Y0078441D01*
X0037981Y0078399D01*
X0038054Y0078355D01*
X0038125Y0078307D01*
X0038195Y0078256D01*
X0038262Y0078202D01*
X0038326Y0078146D01*
X0038388Y0078086D01*
X0038448Y0078024D01*
X0038504Y0077960D01*
X0038558Y0077893D01*
X0038609Y0077823D01*
X0038657Y0077752D01*
X0038701Y0077679D01*
X0038743Y0077603D01*
X0038781Y0077526D01*
X0038815Y0077448D01*
X0038846Y0077367D01*
X0038874Y0077286D01*
X0038898Y0077204D01*
X0038918Y0077120D01*
X0038935Y0077036D01*
X0038948Y0076951D01*
X0038958Y0076866D01*
X0038963Y0076780D01*
X0038965Y0076694D01*
X0206287Y0123938D02*
X0206373Y0123940D01*
X0206459Y0123945D01*
X0206544Y0123955D01*
X0206629Y0123968D01*
X0206713Y0123985D01*
X0206797Y0124005D01*
X0206879Y0124029D01*
X0206960Y0124057D01*
X0207041Y0124088D01*
X0207119Y0124122D01*
X0207196Y0124160D01*
X0207272Y0124202D01*
X0207345Y0124246D01*
X0207416Y0124294D01*
X0207486Y0124345D01*
X0207553Y0124399D01*
X0207617Y0124455D01*
X0207679Y0124515D01*
X0207739Y0124577D01*
X0207795Y0124641D01*
X0207849Y0124708D01*
X0207900Y0124778D01*
X0207948Y0124849D01*
X0207992Y0124923D01*
X0208034Y0124998D01*
X0208072Y0125075D01*
X0208106Y0125153D01*
X0208137Y0125234D01*
X0208165Y0125315D01*
X0208189Y0125397D01*
X0208209Y0125481D01*
X0208226Y0125565D01*
X0208239Y0125650D01*
X0208249Y0125735D01*
X0208254Y0125821D01*
X0208256Y0125907D01*
X0206287Y0123938D02*
X0206201Y0123940D01*
X0206115Y0123945D01*
X0206030Y0123955D01*
X0205945Y0123968D01*
X0205861Y0123985D01*
X0205777Y0124005D01*
X0205695Y0124029D01*
X0205614Y0124057D01*
X0205533Y0124088D01*
X0205455Y0124122D01*
X0205378Y0124160D01*
X0205303Y0124202D01*
X0205229Y0124246D01*
X0205158Y0124294D01*
X0205088Y0124345D01*
X0205021Y0124399D01*
X0204957Y0124455D01*
X0204895Y0124515D01*
X0204835Y0124577D01*
X0204779Y0124641D01*
X0204725Y0124708D01*
X0204674Y0124778D01*
X0204626Y0124849D01*
X0204582Y0124923D01*
X0204540Y0124998D01*
X0204502Y0125075D01*
X0204468Y0125153D01*
X0204437Y0125234D01*
X0204409Y0125315D01*
X0204385Y0125397D01*
X0204365Y0125481D01*
X0204348Y0125565D01*
X0204335Y0125650D01*
X0204325Y0125735D01*
X0204320Y0125821D01*
X0204318Y0125907D01*
X0204320Y0125993D01*
X0204325Y0126079D01*
X0204335Y0126164D01*
X0204348Y0126249D01*
X0204365Y0126333D01*
X0204385Y0126417D01*
X0204409Y0126499D01*
X0204437Y0126580D01*
X0204468Y0126661D01*
X0204502Y0126739D01*
X0204540Y0126816D01*
X0204582Y0126892D01*
X0204626Y0126965D01*
X0204674Y0127036D01*
X0204725Y0127106D01*
X0204779Y0127173D01*
X0204835Y0127237D01*
X0204895Y0127299D01*
X0204957Y0127359D01*
X0205021Y0127415D01*
X0205088Y0127469D01*
X0205158Y0127520D01*
X0205229Y0127568D01*
X0205303Y0127612D01*
X0205378Y0127654D01*
X0205455Y0127692D01*
X0205533Y0127726D01*
X0205614Y0127757D01*
X0205695Y0127785D01*
X0205777Y0127809D01*
X0205861Y0127829D01*
X0205945Y0127846D01*
X0206030Y0127859D01*
X0206115Y0127869D01*
X0206201Y0127874D01*
X0206287Y0127876D01*
X0206373Y0127874D01*
X0206459Y0127869D01*
X0206544Y0127859D01*
X0206629Y0127846D01*
X0206713Y0127829D01*
X0206797Y0127809D01*
X0206879Y0127785D01*
X0206960Y0127757D01*
X0207041Y0127726D01*
X0207119Y0127692D01*
X0207196Y0127654D01*
X0207272Y0127612D01*
X0207345Y0127568D01*
X0207416Y0127520D01*
X0207486Y0127469D01*
X0207553Y0127415D01*
X0207617Y0127359D01*
X0207679Y0127299D01*
X0207739Y0127237D01*
X0207795Y0127173D01*
X0207849Y0127106D01*
X0207900Y0127036D01*
X0207948Y0126965D01*
X0207992Y0126892D01*
X0208034Y0126816D01*
X0208072Y0126739D01*
X0208106Y0126661D01*
X0208137Y0126580D01*
X0208165Y0126499D01*
X0208189Y0126417D01*
X0208209Y0126333D01*
X0208226Y0126249D01*
X0208239Y0126164D01*
X0208249Y0126079D01*
X0208254Y0125993D01*
X0208256Y0125907D01*
D25*
X0170618Y0132655D03*
X0170618Y0136655D03*
X0170618Y0140655D03*
D26*
X0169024Y0148170D03*
X0157862Y0127619D03*
X0155374Y0118461D03*
X0159604Y0116407D03*
X0146346Y0110080D03*
X0143335Y0106359D03*
X0140323Y0110080D03*
X0143335Y0113978D03*
X0161937Y0101930D03*
X0157550Y0088849D03*
X0132350Y0093426D03*
X0118354Y0103525D03*
X0123138Y0079253D03*
X0082921Y0089352D03*
X0079378Y0109017D03*
X0079555Y0116281D03*
X0077075Y0125848D03*
X0058472Y0144804D03*
X0041642Y0137895D03*
X0057055Y0076241D03*
X0184791Y0106891D03*
M02*
