G75*
%MOIN*%
%OFA0B0*%
%FSLAX25Y25*%
%IPPOS*%
%LPD*%
%AMOC8*
5,1,8,0,0,1.08239X$1,22.5*
%
%ADD10C,0.00700*%
%ADD11R,0.07400X0.07400*%
%ADD12C,0.07400*%
%ADD13C,0.07677*%
%ADD14C,0.07000*%
%ADD15C,0.05200*%
%ADD16C,0.01000*%
%ADD17C,0.03200*%
%ADD18C,0.03200*%
%ADD19C,0.02400*%
D10*
X0065682Y0154744D02*
X0065682Y0157246D01*
X0064848Y0157246D02*
X0066517Y0157246D01*
X0067795Y0156829D02*
X0068212Y0157246D01*
X0069046Y0157246D01*
X0069463Y0156829D01*
X0069463Y0155161D01*
X0069046Y0154744D01*
X0068212Y0154744D01*
X0067795Y0155161D01*
X0067795Y0156829D01*
X0070741Y0156829D02*
X0070741Y0156412D01*
X0071158Y0155995D01*
X0072410Y0155995D01*
X0072410Y0157246D02*
X0071158Y0157246D01*
X0070741Y0156829D01*
X0071158Y0155995D02*
X0070741Y0155578D01*
X0070741Y0155161D01*
X0071158Y0154744D01*
X0072410Y0154744D01*
X0072410Y0157246D01*
D11*
X0115366Y0100362D03*
D12*
X0115366Y0090362D03*
X0115366Y0080362D03*
X0125366Y0080362D03*
X0125366Y0090362D03*
X0125366Y0100362D03*
D13*
X0127149Y0034020D02*
X0127149Y0026343D01*
X0107464Y0026343D02*
X0107464Y0034020D01*
X0087779Y0034020D02*
X0087779Y0026343D01*
X0068094Y0026343D02*
X0068094Y0034020D01*
X0048409Y0034020D02*
X0048409Y0026343D01*
X0028724Y0026343D02*
X0028724Y0034020D01*
D14*
X0054689Y0133665D03*
X0068862Y0133665D03*
X0068862Y0147839D03*
X0054689Y0147839D03*
D15*
X0048035Y0104002D02*
X0048035Y0098802D01*
X0038035Y0098802D02*
X0038035Y0104002D01*
X0028035Y0104002D02*
X0028035Y0098802D01*
D16*
X0015795Y0164390D02*
X0015795Y0009909D01*
X0142716Y0009909D01*
X0142716Y0164390D01*
X0076650Y0164390D01*
X0076661Y0164321D01*
X0076626Y0164272D01*
X0076626Y0151456D01*
X0076229Y0151059D01*
X0072133Y0151059D01*
X0072753Y0150439D01*
X0073452Y0148752D01*
X0073452Y0146926D01*
X0072753Y0145239D01*
X0071462Y0143947D01*
X0069775Y0143249D01*
X0067949Y0143249D01*
X0066262Y0143947D01*
X0064971Y0145239D01*
X0064272Y0146926D01*
X0064272Y0148752D01*
X0064971Y0150439D01*
X0065591Y0151059D01*
X0057959Y0151059D01*
X0058580Y0150439D01*
X0059279Y0148752D01*
X0059279Y0146926D01*
X0058580Y0145239D01*
X0057289Y0143947D01*
X0055602Y0143249D01*
X0053776Y0143249D01*
X0052089Y0143947D01*
X0050797Y0145239D01*
X0050099Y0146926D01*
X0050099Y0148752D01*
X0050797Y0150439D01*
X0051418Y0151059D01*
X0050480Y0151059D01*
X0050431Y0151024D01*
X0050206Y0151059D01*
X0050204Y0151059D01*
X0050093Y0151023D01*
X0050022Y0151059D01*
X0049979Y0151059D01*
X0049936Y0151102D01*
X0049779Y0151127D01*
X0049771Y0151127D01*
X0049769Y0151128D01*
X0049767Y0151129D01*
X0049762Y0151135D01*
X0049648Y0151249D01*
X0049505Y0151322D01*
X0049497Y0151325D01*
X0049496Y0151327D01*
X0049494Y0151328D01*
X0049491Y0151336D01*
X0049418Y0151479D01*
X0049304Y0151593D01*
X0049298Y0151598D01*
X0049297Y0151600D01*
X0049296Y0151602D01*
X0049296Y0151610D01*
X0049271Y0151767D01*
X0049228Y0151810D01*
X0049228Y0151853D01*
X0049192Y0151924D01*
X0049228Y0152035D01*
X0049228Y0152037D01*
X0049193Y0152262D01*
X0049228Y0152311D01*
X0049228Y0164390D01*
X0015795Y0164390D01*
X0015795Y0164177D02*
X0049228Y0164177D01*
X0049228Y0163179D02*
X0015795Y0163179D01*
X0015795Y0162180D02*
X0049228Y0162180D01*
X0049228Y0161182D02*
X0029338Y0161182D01*
X0030524Y0160691D02*
X0027657Y0161878D01*
X0024555Y0161878D01*
X0021688Y0160691D01*
X0019494Y0158497D01*
X0018307Y0155630D01*
X0018307Y0152527D01*
X0019494Y0149661D01*
X0021688Y0147467D01*
X0024555Y0146280D01*
X0027657Y0146280D01*
X0030524Y0147467D01*
X0032718Y0149661D01*
X0033905Y0152527D01*
X0033905Y0155630D01*
X0032718Y0158497D01*
X0030524Y0160691D01*
X0031031Y0160183D02*
X0049228Y0160183D01*
X0049228Y0159185D02*
X0032030Y0159185D01*
X0032846Y0158186D02*
X0049228Y0158186D01*
X0049228Y0157188D02*
X0033260Y0157188D01*
X0033674Y0156189D02*
X0049228Y0156189D01*
X0049228Y0155191D02*
X0033905Y0155191D01*
X0033905Y0154192D02*
X0049228Y0154192D01*
X0049228Y0153194D02*
X0033905Y0153194D01*
X0033768Y0152195D02*
X0049203Y0152195D01*
X0049701Y0151197D02*
X0033354Y0151197D01*
X0032940Y0150198D02*
X0050698Y0150198D01*
X0050284Y0149200D02*
X0032257Y0149200D01*
X0031258Y0148201D02*
X0050099Y0148201D01*
X0050099Y0147203D02*
X0029886Y0147203D01*
X0022326Y0147203D02*
X0015795Y0147203D01*
X0015795Y0148201D02*
X0020954Y0148201D01*
X0019955Y0149200D02*
X0015795Y0149200D01*
X0015795Y0150198D02*
X0019272Y0150198D01*
X0018858Y0151197D02*
X0015795Y0151197D01*
X0015795Y0152195D02*
X0018444Y0152195D01*
X0018307Y0153194D02*
X0015795Y0153194D01*
X0015795Y0154192D02*
X0018307Y0154192D01*
X0018307Y0155191D02*
X0015795Y0155191D01*
X0015795Y0156189D02*
X0018538Y0156189D01*
X0018952Y0157188D02*
X0015795Y0157188D01*
X0015795Y0158186D02*
X0019366Y0158186D01*
X0020182Y0159185D02*
X0015795Y0159185D01*
X0015795Y0160183D02*
X0021181Y0160183D01*
X0022874Y0161182D02*
X0015795Y0161182D01*
X0015795Y0146204D02*
X0050398Y0146204D01*
X0050831Y0145205D02*
X0015795Y0145205D01*
X0015795Y0144207D02*
X0051829Y0144207D01*
X0057548Y0144207D02*
X0066002Y0144207D01*
X0065004Y0145205D02*
X0058547Y0145205D01*
X0058980Y0146204D02*
X0064571Y0146204D01*
X0064272Y0147203D02*
X0059279Y0147203D01*
X0059279Y0148201D02*
X0064272Y0148201D01*
X0064457Y0149200D02*
X0059093Y0149200D01*
X0058680Y0150198D02*
X0064871Y0150198D01*
X0072853Y0150198D02*
X0125571Y0150198D01*
X0125793Y0149661D02*
X0127987Y0147467D01*
X0130854Y0146280D01*
X0133957Y0146280D01*
X0136823Y0147467D01*
X0139017Y0149661D01*
X0140204Y0152527D01*
X0140204Y0155630D01*
X0139017Y0158497D01*
X0136823Y0160691D01*
X0133957Y0161878D01*
X0130854Y0161878D01*
X0127987Y0160691D01*
X0125793Y0158497D01*
X0124606Y0155630D01*
X0124606Y0152527D01*
X0125793Y0149661D01*
X0126255Y0149200D02*
X0073266Y0149200D01*
X0073452Y0148201D02*
X0127253Y0148201D01*
X0128626Y0147203D02*
X0073452Y0147203D01*
X0073153Y0146204D02*
X0142716Y0146204D01*
X0142716Y0145205D02*
X0072720Y0145205D01*
X0071722Y0144207D02*
X0142716Y0144207D01*
X0142716Y0143208D02*
X0015795Y0143208D01*
X0015795Y0142210D02*
X0142716Y0142210D01*
X0142716Y0141211D02*
X0015795Y0141211D01*
X0015795Y0140213D02*
X0142716Y0140213D01*
X0142716Y0139214D02*
X0015795Y0139214D01*
X0015795Y0138216D02*
X0053680Y0138216D01*
X0053776Y0138255D02*
X0052089Y0137557D01*
X0050797Y0136265D01*
X0050099Y0134578D01*
X0050099Y0132752D01*
X0050797Y0131065D01*
X0052089Y0129774D01*
X0053776Y0129075D01*
X0055602Y0129075D01*
X0057289Y0129774D01*
X0058580Y0131065D01*
X0059279Y0132752D01*
X0059279Y0134578D01*
X0058580Y0136265D01*
X0057289Y0137557D01*
X0055602Y0138255D01*
X0053776Y0138255D01*
X0055697Y0138216D02*
X0067854Y0138216D01*
X0067949Y0138255D02*
X0066262Y0137557D01*
X0064971Y0136265D01*
X0064272Y0134578D01*
X0064272Y0132752D01*
X0064971Y0131065D01*
X0066262Y0129774D01*
X0067949Y0129075D01*
X0069775Y0129075D01*
X0071462Y0129774D01*
X0072753Y0131065D01*
X0073452Y0132752D01*
X0073452Y0134578D01*
X0072753Y0136265D01*
X0071462Y0137557D01*
X0069775Y0138255D01*
X0067949Y0138255D01*
X0069870Y0138216D02*
X0142716Y0138216D01*
X0142716Y0137217D02*
X0071801Y0137217D01*
X0072772Y0136219D02*
X0142716Y0136219D01*
X0142716Y0135220D02*
X0073186Y0135220D01*
X0073452Y0134222D02*
X0142716Y0134222D01*
X0142716Y0133223D02*
X0073452Y0133223D01*
X0073233Y0132225D02*
X0142716Y0132225D01*
X0142716Y0131226D02*
X0072820Y0131226D01*
X0071916Y0130228D02*
X0142716Y0130228D01*
X0142716Y0129229D02*
X0070147Y0129229D01*
X0067577Y0129229D02*
X0055973Y0129229D01*
X0057742Y0130228D02*
X0065808Y0130228D01*
X0064904Y0131226D02*
X0058647Y0131226D01*
X0059060Y0132225D02*
X0064490Y0132225D01*
X0064272Y0133223D02*
X0059279Y0133223D01*
X0059279Y0134222D02*
X0064272Y0134222D01*
X0064538Y0135220D02*
X0059013Y0135220D01*
X0058599Y0136219D02*
X0064951Y0136219D01*
X0065923Y0137217D02*
X0057628Y0137217D01*
X0051750Y0137217D02*
X0015795Y0137217D01*
X0015795Y0136219D02*
X0050778Y0136219D01*
X0050365Y0135220D02*
X0015795Y0135220D01*
X0015795Y0134222D02*
X0050099Y0134222D01*
X0050099Y0133223D02*
X0015795Y0133223D01*
X0015795Y0132225D02*
X0050317Y0132225D01*
X0050731Y0131226D02*
X0015795Y0131226D01*
X0015795Y0130228D02*
X0051635Y0130228D01*
X0053404Y0129229D02*
X0015795Y0129229D01*
X0015795Y0128231D02*
X0142716Y0128231D01*
X0142716Y0127232D02*
X0015795Y0127232D01*
X0015795Y0126234D02*
X0142716Y0126234D01*
X0142716Y0125235D02*
X0015795Y0125235D01*
X0015795Y0124237D02*
X0142716Y0124237D01*
X0142716Y0123238D02*
X0015795Y0123238D01*
X0015795Y0122240D02*
X0142716Y0122240D01*
X0142716Y0121241D02*
X0015795Y0121241D01*
X0015795Y0120243D02*
X0142716Y0120243D01*
X0142716Y0119244D02*
X0015795Y0119244D01*
X0015795Y0118246D02*
X0056951Y0118246D01*
X0057124Y0118317D02*
X0056058Y0117876D01*
X0055242Y0117060D01*
X0054800Y0115994D01*
X0054800Y0114840D01*
X0055242Y0113775D01*
X0056058Y0112959D01*
X0057124Y0112517D01*
X0058277Y0112517D01*
X0059343Y0112959D01*
X0059512Y0113127D01*
X0113799Y0113127D01*
X0114328Y0112598D01*
X0114328Y0112360D01*
X0114770Y0111294D01*
X0115585Y0110479D01*
X0116651Y0110037D01*
X0117805Y0110037D01*
X0118871Y0110479D01*
X0119687Y0111294D01*
X0120128Y0112360D01*
X0120128Y0113514D01*
X0119687Y0114580D01*
X0118871Y0115395D01*
X0117805Y0115837D01*
X0117567Y0115837D01*
X0117038Y0116366D01*
X0115696Y0117707D01*
X0059512Y0117707D01*
X0059343Y0117876D01*
X0058277Y0118317D01*
X0057124Y0118317D01*
X0058450Y0118246D02*
X0142716Y0118246D01*
X0142716Y0117247D02*
X0116156Y0117247D01*
X0117038Y0116366D02*
X0117038Y0116366D01*
X0117155Y0116249D02*
X0142716Y0116249D01*
X0142716Y0115250D02*
X0119016Y0115250D01*
X0119822Y0114252D02*
X0142716Y0114252D01*
X0142716Y0113253D02*
X0120128Y0113253D01*
X0120084Y0112255D02*
X0142716Y0112255D01*
X0142716Y0111256D02*
X0119648Y0111256D01*
X0118337Y0110258D02*
X0142716Y0110258D01*
X0142716Y0109259D02*
X0015795Y0109259D01*
X0015795Y0108261D02*
X0142716Y0108261D01*
X0142716Y0107262D02*
X0049806Y0107262D01*
X0050125Y0107130D02*
X0048769Y0107692D01*
X0047301Y0107692D01*
X0045945Y0107130D01*
X0044907Y0106092D01*
X0044345Y0104736D01*
X0044345Y0098068D01*
X0044907Y0096711D01*
X0045945Y0095673D01*
X0047301Y0095112D01*
X0048769Y0095112D01*
X0050125Y0095673D01*
X0051163Y0096711D01*
X0051725Y0098068D01*
X0051725Y0099112D01*
X0076791Y0099112D01*
X0084741Y0091161D01*
X0084741Y0090923D01*
X0085183Y0089857D01*
X0085999Y0089041D01*
X0087065Y0088600D01*
X0087303Y0088600D01*
X0089702Y0086201D01*
X0089702Y0085963D01*
X0090144Y0084897D01*
X0090959Y0084081D01*
X0092025Y0083639D01*
X0093179Y0083639D01*
X0094245Y0084081D01*
X0095061Y0084897D01*
X0095502Y0085963D01*
X0095502Y0087116D01*
X0095061Y0088182D01*
X0094245Y0088998D01*
X0093179Y0089439D01*
X0092941Y0089439D01*
X0090541Y0091839D01*
X0090541Y0092077D01*
X0090100Y0093143D01*
X0089284Y0093958D01*
X0088218Y0094400D01*
X0087980Y0094400D01*
X0080030Y0102350D01*
X0078688Y0103692D01*
X0051725Y0103692D01*
X0051725Y0104736D01*
X0051163Y0106092D01*
X0050125Y0107130D01*
X0050992Y0106264D02*
X0142716Y0106264D01*
X0142716Y0105265D02*
X0119982Y0105265D01*
X0119987Y0105262D02*
X0119645Y0105460D01*
X0119263Y0105562D01*
X0115866Y0105562D01*
X0115866Y0100862D01*
X0120566Y0100862D01*
X0120566Y0104260D01*
X0120464Y0104641D01*
X0120266Y0104983D01*
X0119987Y0105262D01*
X0120564Y0104267D02*
X0122496Y0104267D01*
X0122653Y0104423D02*
X0121305Y0103076D01*
X0120576Y0101315D01*
X0120576Y0099409D01*
X0121305Y0097649D01*
X0122653Y0096301D01*
X0124413Y0095572D01*
X0126319Y0095572D01*
X0128079Y0096301D01*
X0129427Y0097649D01*
X0130156Y0099409D01*
X0130156Y0101315D01*
X0129427Y0103076D01*
X0128079Y0104423D01*
X0126319Y0105152D01*
X0124413Y0105152D01*
X0122653Y0104423D01*
X0121498Y0103268D02*
X0120566Y0103268D01*
X0120566Y0102270D02*
X0120971Y0102270D01*
X0120576Y0101271D02*
X0120566Y0101271D01*
X0120576Y0100272D02*
X0115866Y0100272D01*
X0115866Y0099862D02*
X0115866Y0100862D01*
X0114866Y0100862D01*
X0114866Y0099862D01*
X0115866Y0099862D01*
X0115866Y0095162D01*
X0119263Y0095162D01*
X0119645Y0095264D01*
X0119987Y0095462D01*
X0120266Y0095741D01*
X0120464Y0096083D01*
X0120566Y0096465D01*
X0120566Y0099862D01*
X0115866Y0099862D01*
X0115866Y0099274D02*
X0114866Y0099274D01*
X0114866Y0099862D02*
X0114866Y0095162D01*
X0111468Y0095162D01*
X0111087Y0095264D01*
X0110745Y0095462D01*
X0110466Y0095741D01*
X0110268Y0096083D01*
X0110166Y0096465D01*
X0110166Y0099862D01*
X0114866Y0099862D01*
X0114866Y0100272D02*
X0082107Y0100272D01*
X0083106Y0099274D02*
X0110166Y0099274D01*
X0110166Y0098275D02*
X0084105Y0098275D01*
X0085103Y0097277D02*
X0110166Y0097277D01*
X0110216Y0096278D02*
X0086102Y0096278D01*
X0087100Y0095280D02*
X0111060Y0095280D01*
X0112511Y0094281D02*
X0088505Y0094281D01*
X0089960Y0093283D02*
X0111512Y0093283D01*
X0111305Y0093076D02*
X0110576Y0091315D01*
X0110576Y0089409D01*
X0111305Y0087649D01*
X0112653Y0086301D01*
X0114413Y0085572D01*
X0116319Y0085572D01*
X0118079Y0086301D01*
X0119427Y0087649D01*
X0120156Y0089409D01*
X0120156Y0091315D01*
X0119427Y0093076D01*
X0118079Y0094423D01*
X0116319Y0095152D01*
X0114413Y0095152D01*
X0112653Y0094423D01*
X0111305Y0093076D01*
X0110977Y0092284D02*
X0090455Y0092284D01*
X0091094Y0091286D02*
X0110576Y0091286D01*
X0110576Y0090287D02*
X0092093Y0090287D01*
X0093542Y0089289D02*
X0110626Y0089289D01*
X0111039Y0088290D02*
X0094952Y0088290D01*
X0095429Y0087292D02*
X0111662Y0087292D01*
X0112672Y0086293D02*
X0095502Y0086293D01*
X0095225Y0085295D02*
X0129774Y0085295D01*
X0129774Y0086293D02*
X0128060Y0086293D01*
X0128079Y0086301D02*
X0128993Y0087216D01*
X0129774Y0087216D01*
X0129774Y0082236D01*
X0129427Y0083076D01*
X0128079Y0084423D01*
X0126319Y0085152D01*
X0124413Y0085152D01*
X0122653Y0084423D01*
X0121305Y0083076D01*
X0120576Y0081315D01*
X0120576Y0079409D01*
X0121305Y0077649D01*
X0122653Y0076301D01*
X0124413Y0075572D01*
X0126319Y0075572D01*
X0128079Y0076301D01*
X0129427Y0077649D01*
X0129774Y0078488D01*
X0129774Y0057535D01*
X0110346Y0038108D01*
X0110256Y0038198D01*
X0108445Y0038948D01*
X0106484Y0038948D01*
X0104672Y0038198D01*
X0103286Y0036811D01*
X0102536Y0035000D01*
X0102536Y0025362D01*
X0103286Y0023551D01*
X0104672Y0022164D01*
X0106484Y0021414D01*
X0108445Y0021414D01*
X0110256Y0022164D01*
X0111643Y0023551D01*
X0112393Y0025362D01*
X0112393Y0032546D01*
X0134745Y0054897D01*
X0135154Y0055886D01*
X0135154Y0090086D01*
X0134745Y0091075D01*
X0133988Y0091832D01*
X0133634Y0092186D01*
X0132645Y0092595D01*
X0129625Y0092595D01*
X0129427Y0093076D01*
X0128079Y0094423D01*
X0126319Y0095152D01*
X0124413Y0095152D01*
X0122653Y0094423D01*
X0121305Y0093076D01*
X0120576Y0091315D01*
X0120576Y0089409D01*
X0121305Y0087649D01*
X0122653Y0086301D01*
X0124413Y0085572D01*
X0126319Y0085572D01*
X0128079Y0086301D01*
X0128206Y0084296D02*
X0129774Y0084296D01*
X0129774Y0083298D02*
X0129204Y0083298D01*
X0129748Y0082299D02*
X0129774Y0082299D01*
X0129698Y0078305D02*
X0129774Y0078305D01*
X0129774Y0077307D02*
X0129084Y0077307D01*
X0129774Y0076308D02*
X0128086Y0076308D01*
X0129774Y0075310D02*
X0015795Y0075310D01*
X0015795Y0076308D02*
X0112646Y0076308D01*
X0112653Y0076301D02*
X0114413Y0075572D01*
X0116319Y0075572D01*
X0118079Y0076301D01*
X0119427Y0077649D01*
X0120156Y0079409D01*
X0120156Y0081315D01*
X0119427Y0083076D01*
X0118079Y0084423D01*
X0116319Y0085152D01*
X0114413Y0085152D01*
X0112653Y0084423D01*
X0111305Y0083076D01*
X0110576Y0081315D01*
X0110576Y0079409D01*
X0111305Y0077649D01*
X0112653Y0076301D01*
X0111647Y0077307D02*
X0015795Y0077307D01*
X0015795Y0078305D02*
X0111033Y0078305D01*
X0110620Y0079304D02*
X0015795Y0079304D01*
X0015795Y0080302D02*
X0110576Y0080302D01*
X0110576Y0081301D02*
X0015795Y0081301D01*
X0015795Y0082299D02*
X0110984Y0082299D01*
X0111527Y0083298D02*
X0015795Y0083298D01*
X0015795Y0084296D02*
X0090744Y0084296D01*
X0089979Y0085295D02*
X0015795Y0085295D01*
X0015795Y0086293D02*
X0089610Y0086293D01*
X0088611Y0087292D02*
X0015795Y0087292D01*
X0015795Y0088290D02*
X0087613Y0088290D01*
X0085751Y0089289D02*
X0015795Y0089289D01*
X0015795Y0090287D02*
X0085005Y0090287D01*
X0084617Y0091286D02*
X0015795Y0091286D01*
X0015795Y0092284D02*
X0083618Y0092284D01*
X0082620Y0093283D02*
X0015795Y0093283D01*
X0015795Y0094281D02*
X0081621Y0094281D01*
X0080623Y0095280D02*
X0049176Y0095280D01*
X0050730Y0096278D02*
X0079624Y0096278D01*
X0078626Y0097277D02*
X0051398Y0097277D01*
X0051725Y0098275D02*
X0077627Y0098275D01*
X0081109Y0101271D02*
X0110166Y0101271D01*
X0110166Y0100862D02*
X0114866Y0100862D01*
X0114866Y0105562D01*
X0111468Y0105562D01*
X0111087Y0105460D01*
X0110745Y0105262D01*
X0110466Y0104983D01*
X0110268Y0104641D01*
X0110166Y0104260D01*
X0110166Y0100862D01*
X0110166Y0102270D02*
X0080110Y0102270D01*
X0079112Y0103268D02*
X0110166Y0103268D01*
X0110168Y0104267D02*
X0051725Y0104267D01*
X0051506Y0105265D02*
X0110749Y0105265D01*
X0114866Y0105265D02*
X0115866Y0105265D01*
X0115866Y0104267D02*
X0114866Y0104267D01*
X0114866Y0103268D02*
X0115866Y0103268D01*
X0115866Y0102270D02*
X0114866Y0102270D01*
X0114866Y0101271D02*
X0115866Y0101271D01*
X0115866Y0098275D02*
X0114866Y0098275D01*
X0114866Y0097277D02*
X0115866Y0097277D01*
X0115866Y0096278D02*
X0114866Y0096278D01*
X0114866Y0095280D02*
X0115866Y0095280D01*
X0118221Y0094281D02*
X0122511Y0094281D01*
X0121512Y0093283D02*
X0119219Y0093283D01*
X0119754Y0092284D02*
X0120977Y0092284D01*
X0120576Y0091286D02*
X0120156Y0091286D01*
X0120156Y0090287D02*
X0120576Y0090287D01*
X0120626Y0089289D02*
X0120106Y0089289D01*
X0119692Y0088290D02*
X0121039Y0088290D01*
X0121662Y0087292D02*
X0119070Y0087292D01*
X0118060Y0086293D02*
X0122672Y0086293D01*
X0122526Y0084296D02*
X0118206Y0084296D01*
X0119204Y0083298D02*
X0121527Y0083298D01*
X0120984Y0082299D02*
X0119748Y0082299D01*
X0120156Y0081301D02*
X0120576Y0081301D01*
X0120576Y0080302D02*
X0120156Y0080302D01*
X0120112Y0079304D02*
X0120620Y0079304D01*
X0121033Y0078305D02*
X0119698Y0078305D01*
X0119084Y0077307D02*
X0121647Y0077307D01*
X0122646Y0076308D02*
X0118086Y0076308D01*
X0112526Y0084296D02*
X0094460Y0084296D01*
X0119672Y0095280D02*
X0142716Y0095280D01*
X0142716Y0096278D02*
X0128024Y0096278D01*
X0129055Y0097277D02*
X0142716Y0097277D01*
X0142716Y0098275D02*
X0129686Y0098275D01*
X0130100Y0099274D02*
X0142716Y0099274D01*
X0142716Y0100272D02*
X0130156Y0100272D01*
X0130156Y0101271D02*
X0142716Y0101271D01*
X0142716Y0102270D02*
X0129760Y0102270D01*
X0129234Y0103268D02*
X0142716Y0103268D01*
X0142716Y0104267D02*
X0128236Y0104267D01*
X0120632Y0099274D02*
X0120566Y0099274D01*
X0120566Y0098275D02*
X0121046Y0098275D01*
X0120566Y0097277D02*
X0121677Y0097277D01*
X0122708Y0096278D02*
X0120516Y0096278D01*
X0128221Y0094281D02*
X0142716Y0094281D01*
X0142716Y0093283D02*
X0129219Y0093283D01*
X0133396Y0092284D02*
X0142716Y0092284D01*
X0142716Y0091286D02*
X0134534Y0091286D01*
X0135071Y0090287D02*
X0142716Y0090287D01*
X0142716Y0089289D02*
X0135154Y0089289D01*
X0135154Y0088290D02*
X0142716Y0088290D01*
X0142716Y0087292D02*
X0135154Y0087292D01*
X0135154Y0086293D02*
X0142716Y0086293D01*
X0142716Y0085295D02*
X0135154Y0085295D01*
X0135154Y0084296D02*
X0142716Y0084296D01*
X0142716Y0083298D02*
X0135154Y0083298D01*
X0135154Y0082299D02*
X0142716Y0082299D01*
X0142716Y0081301D02*
X0135154Y0081301D01*
X0135154Y0080302D02*
X0142716Y0080302D01*
X0142716Y0079304D02*
X0135154Y0079304D01*
X0135154Y0078305D02*
X0142716Y0078305D01*
X0142716Y0077307D02*
X0135154Y0077307D01*
X0135154Y0076308D02*
X0142716Y0076308D01*
X0142716Y0075310D02*
X0135154Y0075310D01*
X0135154Y0074311D02*
X0142716Y0074311D01*
X0142716Y0073313D02*
X0135154Y0073313D01*
X0135154Y0072314D02*
X0142716Y0072314D01*
X0142716Y0071316D02*
X0135154Y0071316D01*
X0135154Y0070317D02*
X0142716Y0070317D01*
X0142716Y0069319D02*
X0135154Y0069319D01*
X0135154Y0068320D02*
X0142716Y0068320D01*
X0142716Y0067322D02*
X0135154Y0067322D01*
X0135154Y0066323D02*
X0142716Y0066323D01*
X0142716Y0065325D02*
X0135154Y0065325D01*
X0135154Y0064326D02*
X0142716Y0064326D01*
X0142716Y0063328D02*
X0135154Y0063328D01*
X0135154Y0062329D02*
X0142716Y0062329D01*
X0142716Y0061331D02*
X0135154Y0061331D01*
X0135154Y0060332D02*
X0142716Y0060332D01*
X0142716Y0059334D02*
X0135154Y0059334D01*
X0135154Y0058335D02*
X0142716Y0058335D01*
X0142716Y0057337D02*
X0135154Y0057337D01*
X0135154Y0056338D02*
X0142716Y0056338D01*
X0142716Y0055339D02*
X0134928Y0055339D01*
X0134188Y0054341D02*
X0142716Y0054341D01*
X0142716Y0053342D02*
X0133190Y0053342D01*
X0132191Y0052344D02*
X0142716Y0052344D01*
X0142716Y0051345D02*
X0131193Y0051345D01*
X0130194Y0050347D02*
X0142716Y0050347D01*
X0142716Y0049348D02*
X0129196Y0049348D01*
X0128197Y0048350D02*
X0142716Y0048350D01*
X0142716Y0047351D02*
X0127199Y0047351D01*
X0126200Y0046353D02*
X0142716Y0046353D01*
X0142716Y0045354D02*
X0125202Y0045354D01*
X0124203Y0044356D02*
X0142716Y0044356D01*
X0142716Y0043357D02*
X0123205Y0043357D01*
X0122206Y0042359D02*
X0142716Y0042359D01*
X0142716Y0041360D02*
X0121208Y0041360D01*
X0120209Y0040362D02*
X0142716Y0040362D01*
X0142716Y0039363D02*
X0119211Y0039363D01*
X0118212Y0038365D02*
X0124760Y0038365D01*
X0124357Y0038198D02*
X0122971Y0036811D01*
X0122221Y0035000D01*
X0122221Y0025362D01*
X0122971Y0023551D01*
X0124357Y0022164D01*
X0126169Y0021414D01*
X0128130Y0021414D01*
X0129941Y0022164D01*
X0131328Y0023551D01*
X0132078Y0025362D01*
X0132078Y0035000D01*
X0131328Y0036811D01*
X0129941Y0038198D01*
X0128130Y0038948D01*
X0126169Y0038948D01*
X0124357Y0038198D01*
X0123526Y0037366D02*
X0117214Y0037366D01*
X0116215Y0036368D02*
X0122787Y0036368D01*
X0122374Y0035369D02*
X0115216Y0035369D01*
X0114218Y0034371D02*
X0122221Y0034371D01*
X0122221Y0033372D02*
X0113219Y0033372D01*
X0112393Y0032374D02*
X0122221Y0032374D01*
X0122221Y0031375D02*
X0112393Y0031375D01*
X0112393Y0030377D02*
X0122221Y0030377D01*
X0122221Y0029378D02*
X0112393Y0029378D01*
X0112393Y0028380D02*
X0122221Y0028380D01*
X0122221Y0027381D02*
X0112393Y0027381D01*
X0112393Y0026383D02*
X0122221Y0026383D01*
X0122221Y0025384D02*
X0112393Y0025384D01*
X0111988Y0024386D02*
X0122625Y0024386D01*
X0123135Y0023387D02*
X0111479Y0023387D01*
X0110480Y0022389D02*
X0124133Y0022389D01*
X0130165Y0022389D02*
X0142716Y0022389D01*
X0142716Y0023387D02*
X0131164Y0023387D01*
X0131673Y0024386D02*
X0142716Y0024386D01*
X0142716Y0025384D02*
X0132078Y0025384D01*
X0132078Y0026383D02*
X0142716Y0026383D01*
X0142716Y0027381D02*
X0132078Y0027381D01*
X0132078Y0028380D02*
X0142716Y0028380D01*
X0142716Y0029378D02*
X0132078Y0029378D01*
X0132078Y0030377D02*
X0142716Y0030377D01*
X0142716Y0031375D02*
X0132078Y0031375D01*
X0132078Y0032374D02*
X0142716Y0032374D01*
X0142716Y0033372D02*
X0132078Y0033372D01*
X0132078Y0034371D02*
X0142716Y0034371D01*
X0142716Y0035369D02*
X0131925Y0035369D01*
X0131511Y0036368D02*
X0142716Y0036368D01*
X0142716Y0037366D02*
X0130773Y0037366D01*
X0129538Y0038365D02*
X0142716Y0038365D01*
X0126580Y0054341D02*
X0015795Y0054341D01*
X0015795Y0055339D02*
X0127578Y0055339D01*
X0128577Y0056338D02*
X0015795Y0056338D01*
X0015795Y0057337D02*
X0129575Y0057337D01*
X0129774Y0058335D02*
X0015795Y0058335D01*
X0015795Y0059334D02*
X0129774Y0059334D01*
X0129774Y0060332D02*
X0015795Y0060332D01*
X0015795Y0061331D02*
X0129774Y0061331D01*
X0129774Y0062329D02*
X0015795Y0062329D01*
X0015795Y0063328D02*
X0129774Y0063328D01*
X0129774Y0064326D02*
X0015795Y0064326D01*
X0015795Y0065325D02*
X0129774Y0065325D01*
X0129774Y0066323D02*
X0015795Y0066323D01*
X0015795Y0067322D02*
X0129774Y0067322D01*
X0129774Y0068320D02*
X0015795Y0068320D01*
X0015795Y0069319D02*
X0129774Y0069319D01*
X0129774Y0070317D02*
X0015795Y0070317D01*
X0015795Y0071316D02*
X0129774Y0071316D01*
X0129774Y0072314D02*
X0015795Y0072314D01*
X0015795Y0073313D02*
X0129774Y0073313D01*
X0129774Y0074311D02*
X0015795Y0074311D01*
X0015795Y0053342D02*
X0125581Y0053342D01*
X0124583Y0052344D02*
X0015795Y0052344D01*
X0015795Y0051345D02*
X0123584Y0051345D01*
X0122586Y0050347D02*
X0015795Y0050347D01*
X0015795Y0049348D02*
X0121587Y0049348D01*
X0120589Y0048350D02*
X0015795Y0048350D01*
X0015795Y0047351D02*
X0119590Y0047351D01*
X0118592Y0046353D02*
X0015795Y0046353D01*
X0015795Y0045354D02*
X0117593Y0045354D01*
X0116595Y0044356D02*
X0015795Y0044356D01*
X0015795Y0043357D02*
X0115596Y0043357D01*
X0114598Y0042359D02*
X0015795Y0042359D01*
X0015795Y0041360D02*
X0113599Y0041360D01*
X0112601Y0040362D02*
X0015795Y0040362D01*
X0015795Y0039363D02*
X0111602Y0039363D01*
X0110604Y0038365D02*
X0109853Y0038365D01*
X0105075Y0038365D02*
X0090881Y0038365D01*
X0090577Y0038586D02*
X0089829Y0038967D01*
X0089029Y0039227D01*
X0088279Y0039346D01*
X0088279Y0030681D01*
X0087279Y0030681D01*
X0087279Y0029681D01*
X0082441Y0029681D01*
X0082441Y0025922D01*
X0082572Y0025092D01*
X0082832Y0024293D01*
X0083213Y0023544D01*
X0083707Y0022865D01*
X0084301Y0022270D01*
X0084981Y0021777D01*
X0085730Y0021395D01*
X0086529Y0021135D01*
X0087279Y0021017D01*
X0087279Y0029681D01*
X0088279Y0029681D01*
X0088279Y0021017D01*
X0089029Y0021135D01*
X0089829Y0021395D01*
X0090577Y0021777D01*
X0091257Y0022270D01*
X0091851Y0022865D01*
X0092345Y0023544D01*
X0092727Y0024293D01*
X0092986Y0025092D01*
X0093118Y0025922D01*
X0093118Y0029681D01*
X0088279Y0029681D01*
X0088279Y0030681D01*
X0093118Y0030681D01*
X0093118Y0034440D01*
X0092986Y0035270D01*
X0092727Y0036069D01*
X0092345Y0036818D01*
X0091851Y0037498D01*
X0091257Y0038092D01*
X0090577Y0038586D01*
X0091947Y0037366D02*
X0103841Y0037366D01*
X0103102Y0036368D02*
X0092574Y0036368D01*
X0092954Y0035369D02*
X0102689Y0035369D01*
X0102536Y0034371D02*
X0093118Y0034371D01*
X0093118Y0033372D02*
X0102536Y0033372D01*
X0102536Y0032374D02*
X0093118Y0032374D01*
X0093118Y0031375D02*
X0102536Y0031375D01*
X0102536Y0030377D02*
X0088279Y0030377D01*
X0088279Y0031375D02*
X0087279Y0031375D01*
X0087279Y0030681D02*
X0087279Y0039346D01*
X0086529Y0039227D01*
X0085730Y0038967D01*
X0084981Y0038586D01*
X0084301Y0038092D01*
X0083707Y0037498D01*
X0083213Y0036818D01*
X0082832Y0036069D01*
X0082572Y0035270D01*
X0082441Y0034440D01*
X0082441Y0030681D01*
X0087279Y0030681D01*
X0087279Y0030377D02*
X0073023Y0030377D01*
X0073023Y0031375D02*
X0082441Y0031375D01*
X0082441Y0032374D02*
X0073023Y0032374D01*
X0073023Y0033372D02*
X0082441Y0033372D01*
X0082441Y0034371D02*
X0073023Y0034371D01*
X0073023Y0035000D02*
X0072272Y0036811D01*
X0070886Y0038198D01*
X0069075Y0038948D01*
X0067114Y0038948D01*
X0065302Y0038198D01*
X0063916Y0036811D01*
X0063166Y0035000D01*
X0063166Y0025362D01*
X0063916Y0023551D01*
X0065302Y0022164D01*
X0067114Y0021414D01*
X0069075Y0021414D01*
X0070886Y0022164D01*
X0072272Y0023551D01*
X0073023Y0025362D01*
X0073023Y0035000D01*
X0072870Y0035369D02*
X0082604Y0035369D01*
X0082984Y0036368D02*
X0072456Y0036368D01*
X0071718Y0037366D02*
X0083612Y0037366D01*
X0084677Y0038365D02*
X0070483Y0038365D01*
X0065705Y0038365D02*
X0050798Y0038365D01*
X0051201Y0038198D02*
X0049390Y0038948D01*
X0047429Y0038948D01*
X0045617Y0038198D01*
X0044231Y0036811D01*
X0043481Y0035000D01*
X0043481Y0025362D01*
X0044231Y0023551D01*
X0045617Y0022164D01*
X0047429Y0021414D01*
X0049390Y0021414D01*
X0051201Y0022164D01*
X0052587Y0023551D01*
X0053338Y0025362D01*
X0053338Y0035000D01*
X0052587Y0036811D01*
X0051201Y0038198D01*
X0052033Y0037366D02*
X0064471Y0037366D01*
X0063732Y0036368D02*
X0052771Y0036368D01*
X0053185Y0035369D02*
X0063319Y0035369D01*
X0063166Y0034371D02*
X0053338Y0034371D01*
X0053338Y0033372D02*
X0063166Y0033372D01*
X0063166Y0032374D02*
X0053338Y0032374D01*
X0053338Y0031375D02*
X0063166Y0031375D01*
X0063166Y0030377D02*
X0053338Y0030377D01*
X0053338Y0029378D02*
X0063166Y0029378D01*
X0063166Y0028380D02*
X0053338Y0028380D01*
X0053338Y0027381D02*
X0063166Y0027381D01*
X0063166Y0026383D02*
X0053338Y0026383D01*
X0053338Y0025384D02*
X0063166Y0025384D01*
X0063570Y0024386D02*
X0052933Y0024386D01*
X0052424Y0023387D02*
X0064080Y0023387D01*
X0065078Y0022389D02*
X0051425Y0022389D01*
X0045393Y0022389D02*
X0031740Y0022389D01*
X0031516Y0022164D02*
X0032902Y0023551D01*
X0033653Y0025362D01*
X0033653Y0035000D01*
X0032902Y0036811D01*
X0031516Y0038198D01*
X0029704Y0038948D01*
X0027744Y0038948D01*
X0025932Y0038198D01*
X0024546Y0036811D01*
X0023796Y0035000D01*
X0023796Y0025362D01*
X0024546Y0023551D01*
X0025932Y0022164D01*
X0027744Y0021414D01*
X0029704Y0021414D01*
X0031516Y0022164D01*
X0032739Y0023387D02*
X0044394Y0023387D01*
X0043885Y0024386D02*
X0033248Y0024386D01*
X0033653Y0025384D02*
X0043481Y0025384D01*
X0043481Y0026383D02*
X0033653Y0026383D01*
X0033653Y0027381D02*
X0043481Y0027381D01*
X0043481Y0028380D02*
X0033653Y0028380D01*
X0033653Y0029378D02*
X0043481Y0029378D01*
X0043481Y0030377D02*
X0033653Y0030377D01*
X0033653Y0031375D02*
X0043481Y0031375D01*
X0043481Y0032374D02*
X0033653Y0032374D01*
X0033653Y0033372D02*
X0043481Y0033372D01*
X0043481Y0034371D02*
X0033653Y0034371D01*
X0033500Y0035369D02*
X0043634Y0035369D01*
X0044047Y0036368D02*
X0033086Y0036368D01*
X0032348Y0037366D02*
X0044786Y0037366D01*
X0046020Y0038365D02*
X0031113Y0038365D01*
X0026335Y0038365D02*
X0015795Y0038365D01*
X0015795Y0037366D02*
X0025101Y0037366D01*
X0024362Y0036368D02*
X0015795Y0036368D01*
X0015795Y0035369D02*
X0023948Y0035369D01*
X0023796Y0034371D02*
X0015795Y0034371D01*
X0015795Y0033372D02*
X0023796Y0033372D01*
X0023796Y0032374D02*
X0015795Y0032374D01*
X0015795Y0031375D02*
X0023796Y0031375D01*
X0023796Y0030377D02*
X0015795Y0030377D01*
X0015795Y0029378D02*
X0023796Y0029378D01*
X0023796Y0028380D02*
X0015795Y0028380D01*
X0015795Y0027381D02*
X0023796Y0027381D01*
X0023796Y0026383D02*
X0015795Y0026383D01*
X0015795Y0025384D02*
X0023796Y0025384D01*
X0024200Y0024386D02*
X0015795Y0024386D01*
X0015795Y0023387D02*
X0024709Y0023387D01*
X0025708Y0022389D02*
X0015795Y0022389D01*
X0015795Y0021390D02*
X0085745Y0021390D01*
X0087279Y0021390D02*
X0088279Y0021390D01*
X0088279Y0022389D02*
X0087279Y0022389D01*
X0087279Y0023387D02*
X0088279Y0023387D01*
X0088279Y0024386D02*
X0087279Y0024386D01*
X0087279Y0025384D02*
X0088279Y0025384D01*
X0088279Y0026383D02*
X0087279Y0026383D01*
X0087279Y0027381D02*
X0088279Y0027381D01*
X0088279Y0028380D02*
X0087279Y0028380D01*
X0087279Y0029378D02*
X0088279Y0029378D01*
X0088279Y0032374D02*
X0087279Y0032374D01*
X0087279Y0033372D02*
X0088279Y0033372D01*
X0088279Y0034371D02*
X0087279Y0034371D01*
X0087279Y0035369D02*
X0088279Y0035369D01*
X0088279Y0036368D02*
X0087279Y0036368D01*
X0087279Y0037366D02*
X0088279Y0037366D01*
X0088279Y0038365D02*
X0087279Y0038365D01*
X0082441Y0029378D02*
X0073023Y0029378D01*
X0073023Y0028380D02*
X0082441Y0028380D01*
X0082441Y0027381D02*
X0073023Y0027381D01*
X0073023Y0026383D02*
X0082441Y0026383D01*
X0082526Y0025384D02*
X0073023Y0025384D01*
X0072618Y0024386D02*
X0082802Y0024386D01*
X0083328Y0023387D02*
X0072109Y0023387D01*
X0071110Y0022389D02*
X0084183Y0022389D01*
X0089813Y0021390D02*
X0142716Y0021390D01*
X0142716Y0020392D02*
X0015795Y0020392D01*
X0015795Y0019393D02*
X0142716Y0019393D01*
X0142716Y0018395D02*
X0015795Y0018395D01*
X0015795Y0017396D02*
X0142716Y0017396D01*
X0142716Y0016398D02*
X0015795Y0016398D01*
X0015795Y0015399D02*
X0142716Y0015399D01*
X0142716Y0014401D02*
X0015795Y0014401D01*
X0015795Y0013402D02*
X0142716Y0013402D01*
X0142716Y0012403D02*
X0015795Y0012403D01*
X0015795Y0011405D02*
X0142716Y0011405D01*
X0142716Y0010406D02*
X0015795Y0010406D01*
X0091375Y0022389D02*
X0104448Y0022389D01*
X0103450Y0023387D02*
X0092231Y0023387D01*
X0092757Y0024386D02*
X0102940Y0024386D01*
X0102536Y0025384D02*
X0093033Y0025384D01*
X0093118Y0026383D02*
X0102536Y0026383D01*
X0102536Y0027381D02*
X0093118Y0027381D01*
X0093118Y0028380D02*
X0102536Y0028380D01*
X0102536Y0029378D02*
X0093118Y0029378D01*
X0046895Y0095280D02*
X0039176Y0095280D01*
X0038769Y0095112D02*
X0040125Y0095673D01*
X0041163Y0096711D01*
X0041725Y0098068D01*
X0041725Y0104736D01*
X0041163Y0106092D01*
X0040125Y0107130D01*
X0038769Y0107692D01*
X0037301Y0107692D01*
X0035945Y0107130D01*
X0034907Y0106092D01*
X0034345Y0104736D01*
X0034345Y0098068D01*
X0034907Y0096711D01*
X0035945Y0095673D01*
X0037301Y0095112D01*
X0038769Y0095112D01*
X0036895Y0095280D02*
X0029176Y0095280D01*
X0028769Y0095112D02*
X0030125Y0095673D01*
X0031163Y0096711D01*
X0031725Y0098068D01*
X0031725Y0104736D01*
X0031163Y0106092D01*
X0030125Y0107130D01*
X0028769Y0107692D01*
X0027301Y0107692D01*
X0025945Y0107130D01*
X0024907Y0106092D01*
X0024345Y0104736D01*
X0024345Y0098068D01*
X0024907Y0096711D01*
X0025945Y0095673D01*
X0027301Y0095112D01*
X0028769Y0095112D01*
X0026895Y0095280D02*
X0015795Y0095280D01*
X0015795Y0096278D02*
X0025340Y0096278D01*
X0024673Y0097277D02*
X0015795Y0097277D01*
X0015795Y0098275D02*
X0024345Y0098275D01*
X0024345Y0099274D02*
X0015795Y0099274D01*
X0015795Y0100272D02*
X0024345Y0100272D01*
X0024345Y0101271D02*
X0015795Y0101271D01*
X0015795Y0102270D02*
X0024345Y0102270D01*
X0024345Y0103268D02*
X0015795Y0103268D01*
X0015795Y0104267D02*
X0024345Y0104267D01*
X0024564Y0105265D02*
X0015795Y0105265D01*
X0015795Y0106264D02*
X0025079Y0106264D01*
X0026264Y0107262D02*
X0015795Y0107262D01*
X0015795Y0110258D02*
X0116119Y0110258D01*
X0114808Y0111256D02*
X0015795Y0111256D01*
X0015795Y0112255D02*
X0114372Y0112255D01*
X0136185Y0147203D02*
X0142716Y0147203D01*
X0142716Y0148201D02*
X0137557Y0148201D01*
X0138556Y0149200D02*
X0142716Y0149200D01*
X0142716Y0150198D02*
X0139240Y0150198D01*
X0139653Y0151197D02*
X0142716Y0151197D01*
X0142716Y0152195D02*
X0140067Y0152195D01*
X0140204Y0153194D02*
X0142716Y0153194D01*
X0142716Y0154192D02*
X0140204Y0154192D01*
X0140204Y0155191D02*
X0142716Y0155191D01*
X0142716Y0156189D02*
X0139973Y0156189D01*
X0139559Y0157188D02*
X0142716Y0157188D01*
X0142716Y0158186D02*
X0139146Y0158186D01*
X0138329Y0159185D02*
X0142716Y0159185D01*
X0142716Y0160183D02*
X0137331Y0160183D01*
X0135638Y0161182D02*
X0142716Y0161182D01*
X0142716Y0162180D02*
X0076626Y0162180D01*
X0076626Y0161182D02*
X0129173Y0161182D01*
X0127480Y0160183D02*
X0076626Y0160183D01*
X0076626Y0159185D02*
X0126481Y0159185D01*
X0125665Y0158186D02*
X0076626Y0158186D01*
X0076626Y0157188D02*
X0125251Y0157188D01*
X0124838Y0156189D02*
X0076626Y0156189D01*
X0076626Y0155191D02*
X0124606Y0155191D01*
X0124606Y0154192D02*
X0076626Y0154192D01*
X0076626Y0153194D02*
X0124606Y0153194D01*
X0124744Y0152195D02*
X0076626Y0152195D01*
X0076367Y0151197D02*
X0125157Y0151197D01*
X0142716Y0163179D02*
X0076626Y0163179D01*
X0076626Y0164177D02*
X0142716Y0164177D01*
X0055429Y0117247D02*
X0015795Y0117247D01*
X0015795Y0116249D02*
X0054906Y0116249D01*
X0054800Y0115250D02*
X0015795Y0115250D01*
X0015795Y0114252D02*
X0055044Y0114252D01*
X0055763Y0113253D02*
X0015795Y0113253D01*
X0029806Y0107262D02*
X0036264Y0107262D01*
X0035079Y0106264D02*
X0030992Y0106264D01*
X0031506Y0105265D02*
X0034564Y0105265D01*
X0034345Y0104267D02*
X0031725Y0104267D01*
X0031725Y0103268D02*
X0034345Y0103268D01*
X0034345Y0102270D02*
X0031725Y0102270D01*
X0031725Y0101271D02*
X0034345Y0101271D01*
X0034345Y0100272D02*
X0031725Y0100272D01*
X0031725Y0099274D02*
X0034345Y0099274D01*
X0034345Y0098275D02*
X0031725Y0098275D01*
X0031398Y0097277D02*
X0034673Y0097277D01*
X0035340Y0096278D02*
X0030730Y0096278D01*
X0040730Y0096278D02*
X0045340Y0096278D01*
X0044673Y0097277D02*
X0041398Y0097277D01*
X0041725Y0098275D02*
X0044345Y0098275D01*
X0044345Y0099274D02*
X0041725Y0099274D01*
X0041725Y0100272D02*
X0044345Y0100272D01*
X0044345Y0101271D02*
X0041725Y0101271D01*
X0041725Y0102270D02*
X0044345Y0102270D01*
X0044345Y0103268D02*
X0041725Y0103268D01*
X0041725Y0104267D02*
X0044345Y0104267D01*
X0044564Y0105265D02*
X0041506Y0105265D01*
X0040992Y0106264D02*
X0045079Y0106264D01*
X0046264Y0107262D02*
X0039806Y0107262D01*
D17*
X0107464Y0031421D02*
X0107464Y0030181D01*
X0107464Y0031421D02*
X0132464Y0056421D01*
X0132464Y0089551D01*
X0132110Y0089906D01*
X0125823Y0089906D01*
X0125366Y0090362D01*
D18*
X0117228Y0112937D03*
X0092602Y0086539D03*
X0087641Y0091500D03*
X0057700Y0115417D03*
D19*
X0114748Y0115417D01*
X0117228Y0112937D01*
X0092602Y0086539D02*
X0087641Y0091500D01*
X0077740Y0101402D01*
X0048035Y0101402D01*
M02*
