  0
SECTION
  2
HEADER
  9
$ACADVER
  1
AC1009
  9
$FILLMODE
 70
0
  9
$EXTMIN
 10
-0.135000
 20
-2.309000
 30
0.000000
  9
$EXTMAX
 10
4.200000
 20
3.938250
 30
0.000000
  0
ENDSEC
  0
SECTION
  2
TABLES
  0
TABLE
  2
LTYPE
 70
1
  0
LTYPE
  2
CONTINUOUS
 70
64
  3
Solid line
 72
65
 73
0
 40
0
  0
ENDTAB
  0
TABLE
  2
LAYER
 70
255
  0
LAYER
  2
20
 70
64
 62
7
  6
CONTINUOUS
  0
LAYER
  2
21
 70
64
 62
253
  6
CONTINUOUS
  0
LAYER
  2
51
 70
64
 62
253
  6
CONTINUOUS
  0
ENDTAB
  0
ENDSEC
  0
SECTION
  2
BLOCKS
  0
BLOCK
  8
0
  2
RECT
 70
64
 10
0.000000
 20
0.000000
 30
0.000000
  3
RECT
  0
SOLID
  8
0
 10
-0.500000
 20
-0.500000
 30
0.000000
 11
0.500000
 21
-0.500000
 31
0.000000
 12
-0.500000
 22
0.500000
 32
0.000000
 13
0.500000
 23
0.500000
 33
0.000000
  0
ENDBLK
  8
0
  0
BLOCK
  8
0
  2
PIE
 70
64
 10
0.000000
 20
0.000000
 30
0.000000
  3
PIE
  0
CIRCLE
  8
0
 10
0.000000
 20
0.000000
 30
0.000000
 40
0.500000
  0
ENDBLK
  8
0
  0
BLOCK
  8
0
  2
OCTAGONP
 70
64
 10
0.000000
 20
0.000000
 30
0.000000
  3
OCTAGONP
  0
POLYLINE
  8
0
 66
1
 10
0.000000
 20
0.000000
 30
0.000000
 40
0.000000
 41
0.000000
 70
1
  0
VERTEX
  8
0
 10
-0.500000
 20
-0.207107
 30
0.000000
  0
VERTEX
  8
0
 10
-0.500000
 20
0.207107
 30
0.000000
  0
VERTEX
  8
0
 10
-0.207107
 20
0.500000
 30
0.000000
  0
VERTEX
  8
0
 10
0.207107
 20
0.500000
 30
0.000000
  0
VERTEX
  8
0
 10
0.500000
 20
0.207107
 30
0.000000
  0
VERTEX
  8
0
 10
0.500000
 20
-0.207107
 30
0.000000
  0
VERTEX
  8
0
 10
0.207107
 20
-0.500000
 30
0.000000
  0
VERTEX
  8
0
 10
-0.207107
 20
-0.500000
 30
0.000000
  0
SEQEND
  8
0
  0
ENDBLK
  8
0
  0
BLOCK
  8
0
  2
SQUAREP
 70
64
 10
0.000000
 20
0.000000
 30
0.000000
  3
SQUAREP
  0
SOLID
  8
0
 10
-0.500000
 20
-0.500000
 30
0.000000
 11
0.500000
 21
-0.500000
 31
0.000000
 12
-0.500000
 22
0.500000
 32
0.000000
 13
0.500000
 23
0.500000
 33
0.000000
  0
ENDBLK
  8
0
  0
BLOCK
  8
0
  2
ROUNDP
 70
64
 10
0.000000
 20
0.000000
 30
0.000000
  3
ROUNDP
  0
CIRCLE
  8
0
 10
0.000000
 20
0.000000
 30
0.000000
 40
0.500000
  0
ENDBLK
  8
0
  0
BLOCK
  8
0
  2
ANNULUSP
 70
64
 10
0.000000
 20
0.000000
 30
0.000000
  3
ANNULUSP
  0
CIRCLE
  8
0
 10
0.000000
 20
0.000000
 30
0.000000
 40
0.500000
  0
ENDBLK
  8
0
  0
BLOCK
  8
0
  2
THERMALP
 70
64
 10
0.000000
 20
0.000000
 30
0.000000
  3
THERMALP
  0
LINE
  8
0
 10
-0.237868
 20
0.450000
 30
0.000000
 11
0.237868
 21
0.450000
 31
0.000000
  0
LINE
  8
0
 10
0.450000
 20
0.237868
 30
0.000000
 11
0.450000
 21
-0.237868
 31
0.000000
  0
LINE
  8
0
 10
0.237868
 20
-0.450000
 30
0.000000
 11
-0.237868
 21
-0.450000
 31
0.000000
  0
LINE
  8
0
 10
-0.450000
 20
-0.237868
 30
0.000000
 11
-0.450000
 21
0.237868
 31
0.000000
  0
ENDBLK
  8
0
  0
BLOCK
  8
0
  2
OCTAGONV
 70
64
 10
0.000000
 20
0.000000
 30
0.000000
  3
OCTAGONV
  0
POLYLINE
  8
0
 66
1
 10
0.000000
 20
0.000000
 30
0.000000
 40
0.000000
 41
0.000000
 70
1
  0
VERTEX
  8
0
 10
-0.500000
 20
-0.207107
 30
0.000000
  0
VERTEX
  8
0
 10
-0.500000
 20
0.207107
 30
0.000000
  0
VERTEX
  8
0
 10
-0.207107
 20
0.500000
 30
0.000000
  0
VERTEX
  8
0
 10
0.207107
 20
0.500000
 30
0.000000
  0
VERTEX
  8
0
 10
0.500000
 20
0.207107
 30
0.000000
  0
VERTEX
  8
0
 10
0.500000
 20
-0.207107
 30
0.000000
  0
VERTEX
  8
0
 10
0.207107
 20
-0.500000
 30
0.000000
  0
VERTEX
  8
0
 10
-0.207107
 20
-0.500000
 30
0.000000
  0
SEQEND
  8
0
  0
ENDBLK
  8
0
  0
BLOCK
  8
0
  2
SQUAREV
 70
64
 10
0.000000
 20
0.000000
 30
0.000000
  3
SQUAREV
  0
SOLID
  8
0
 10
-0.500000
 20
-0.500000
 30
0.000000
 11
0.500000
 21
-0.500000
 31
0.000000
 12
-0.500000
 22
0.500000
 32
0.000000
 13
0.500000
 23
0.500000
 33
0.000000
  0
ENDBLK
  8
0
  0
BLOCK
  8
0
  2
ROUNDV
 70
64
 10
0.000000
 20
0.000000
 30
0.000000
  3
ROUNDV
  0
CIRCLE
  8
0
 10
0.000000
 20
0.000000
 30
0.000000
 40
0.500000
  0
ENDBLK
  8
0
  0
BLOCK
  8
0
  2
ANNULUSV
 70
64
 10
0.000000
 20
0.000000
 30
0.000000
  3
ANNULUSV
  0
CIRCLE
  8
0
 10
0.000000
 20
0.000000
 30
0.000000
 40
0.500000
  0
ENDBLK
  8
0
  0
BLOCK
  8
0
  2
THERMALV
 70
64
 10
0.000000
 20
0.000000
 30
0.000000
  3
THERMALV
  0
LINE
  8
0
 10
-0.237868
 20
0.450000
 30
0.000000
 11
0.237868
 21
0.450000
 31
0.000000
  0
LINE
  8
0
 10
0.450000
 20
0.237868
 30
0.000000
 11
0.450000
 21
-0.237868
 31
0.000000
  0
LINE
  8
0
 10
0.237868
 20
-0.450000
 30
0.000000
 11
-0.237868
 21
-0.450000
 31
0.000000
  0
LINE
  8
0
 10
-0.450000
 20
-0.237868
 30
0.000000
 11
-0.450000
 21
0.237868
 31
0.000000
  0
ENDBLK
  8
0
  0
BLOCK
  8
0
  2
LONGP100
 70
64
 10
0.000000
 20
0.000000
 30
0.000000
  3
LONGP100
  0
POLYLINE
  8
0
 66
1
 10
0.000000
 20
0.000000
 30
0.000000
 40
0.000000
 41
0.000000
 70
1
  0
VERTEX
  8
0
 10
-0.500000
 20
-0.500000
 30
0.000000
  0
VERTEX
  8
0
 10
0.500000
 20
-0.500000
 30
0.000000
 42
1.000000
  0
VERTEX
  8
0
 10
0.500000
 20
0.500000
 30
0.000000
  0
VERTEX
  8
0
 10
-0.500000
 20
0.500000
 30
0.000000
 42
1.000000
  0
SEQEND
  8
0
  0
ENDBLK
  8
0
  0
ENDSEC
  0
SECTION
  2
ENTITIES
  0
LINE
  8
20
 10
0.012250
 20
-0.012250
 30
0.000000
 11
3.949258
 21
-0.012250
 31
0.000000
  0
LINE
  8
20
 10
3.949258
 20
-0.012250
 30
0.000000
 11
3.937008
 21
3.937008
 31
0.000000
  0
LINE
  8
20
 10
3.937008
 20
3.937008
 30
0.000000
 11
0.000000
 21
3.937008
 31
0.000000
  0
LINE
  8
20
 10
0.000000
 20
3.937008
 30
0.000000
 11
0.012250
 21
-0.012250
 31
0.000000
  0
ARC
  8
21
 10
0.245000
 20
0.453250
 30
0.000000
 40
0.071429
 50
30.963757
 51
329.036243
  0
LINE
  8
21
 10
0.172725
 20
0.454475
 30
0.000000
 11
0.086975
 21
0.454475
 31
0.000000
  0
LINE
  8
21
 10
0.269500
 20
0.453250
 30
0.000000
 11
0.441000
 21
0.453250
 31
0.000000
  0
LINE
  8
51
 10
0.682703
 20
0.777555
 30
0.000000
 11
0.640000
 21
0.777555
 31
0.000000
  0
LINE
  8
51
 10
0.640000
 20
0.777555
 30
0.000000
 11
0.640000
 21
0.745527
 31
0.000000
  0
LINE
  8
51
 10
0.640000
 20
0.745527
 30
0.000000
 11
0.661352
 21
0.756203
 31
0.000000
  0
LINE
  8
51
 10
0.661352
 20
0.756203
 30
0.000000
 11
0.672027
 21
0.756203
 31
0.000000
  0
LINE
  8
51
 10
0.672027
 20
0.756203
 30
0.000000
 11
0.682703
 21
0.745527
 31
0.000000
  0
LINE
  8
51
 10
0.682703
 20
0.745527
 30
0.000000
 11
0.682703
 21
0.724176
 31
0.000000
  0
LINE
  8
51
 10
0.682703
 20
0.724176
 30
0.000000
 11
0.672027
 21
0.713500
 31
0.000000
  0
LINE
  8
51
 10
0.672027
 20
0.713500
 30
0.000000
 11
0.650676
 21
0.713500
 31
0.000000
  0
LINE
  8
51
 10
0.650676
 20
0.713500
 30
0.000000
 11
0.640000
 21
0.724176
 31
0.000000
  0
LINE
  8
51
 10
0.704455
 20
0.777555
 30
0.000000
 11
0.704455
 21
0.734852
 31
0.000000
  0
LINE
  8
51
 10
0.704455
 20
0.734852
 30
0.000000
 11
0.725806
 21
0.713500
 31
0.000000
  0
LINE
  8
51
 10
0.725806
 20
0.713500
 30
0.000000
 11
0.747158
 21
0.734852
 31
0.000000
  0
LINE
  8
51
 10
0.747158
 20
0.734852
 30
0.000000
 11
0.747158
 21
0.777555
 31
0.000000
  0
LINE
  8
51
 10
1.252500
 20
0.693379
 30
0.000000
 11
1.263176
 21
0.704055
 31
0.000000
  0
LINE
  8
51
 10
1.263176
 20
0.704055
 30
0.000000
 11
1.284527
 21
0.704055
 31
0.000000
  0
LINE
  8
51
 10
1.284527
 20
0.704055
 30
0.000000
 11
1.295203
 21
0.693379
 31
0.000000
  0
LINE
  8
51
 10
1.295203
 20
0.693379
 30
0.000000
 11
1.295203
 21
0.682703
 31
0.000000
  0
LINE
  8
51
 10
1.295203
 20
0.682703
 30
0.000000
 11
1.284527
 21
0.672027
 31
0.000000
  0
LINE
  8
51
 10
1.284527
 20
0.672027
 30
0.000000
 11
1.273852
 21
0.672027
 31
0.000000
  0
LINE
  8
51
 10
1.284527
 20
0.672027
 30
0.000000
 11
1.295203
 21
0.661352
 31
0.000000
  0
LINE
  8
51
 10
1.295203
 20
0.661352
 30
0.000000
 11
1.295203
 21
0.650676
 31
0.000000
  0
LINE
  8
51
 10
1.295203
 20
0.650676
 30
0.000000
 11
1.284527
 21
0.640000
 31
0.000000
  0
LINE
  8
51
 10
1.284527
 20
0.640000
 30
0.000000
 11
1.263176
 21
0.640000
 31
0.000000
  0
LINE
  8
51
 10
1.263176
 20
0.640000
 30
0.000000
 11
1.252500
 21
0.650676
 31
0.000000
  0
LINE
  8
51
 10
1.316955
 20
0.704055
 30
0.000000
 11
1.316955
 21
0.661352
 31
0.000000
  0
LINE
  8
51
 10
1.316955
 20
0.661352
 30
0.000000
 11
1.338306
 21
0.640000
 31
0.000000
  0
LINE
  8
51
 10
1.338306
 20
0.640000
 30
0.000000
 11
1.359658
 21
0.661352
 31
0.000000
  0
LINE
  8
51
 10
1.359658
 20
0.661352
 30
0.000000
 11
1.359658
 21
0.704055
 31
0.000000
  0
LINE
  8
51
 10
1.381410
 20
0.693379
 30
0.000000
 11
1.392086
 21
0.704055
 31
0.000000
  0
LINE
  8
51
 10
1.392086
 20
0.704055
 30
0.000000
 11
1.413437
 21
0.704055
 31
0.000000
  0
LINE
  8
51
 10
1.413437
 20
0.704055
 30
0.000000
 11
1.424113
 21
0.693379
 31
0.000000
  0
LINE
  8
51
 10
1.424113
 20
0.693379
 30
0.000000
 11
1.424113
 21
0.682703
 31
0.000000
  0
LINE
  8
51
 10
1.424113
 20
0.682703
 30
0.000000
 11
1.413437
 21
0.672027
 31
0.000000
  0
LINE
  8
51
 10
1.413437
 20
0.672027
 30
0.000000
 11
1.402761
 21
0.672027
 31
0.000000
  0
LINE
  8
51
 10
1.413437
 20
0.672027
 30
0.000000
 11
1.424113
 21
0.661352
 31
0.000000
  0
LINE
  8
51
 10
1.424113
 20
0.661352
 30
0.000000
 11
1.424113
 21
0.650676
 31
0.000000
  0
LINE
  8
51
 10
1.424113
 20
0.650676
 30
0.000000
 11
1.413437
 21
0.640000
 31
0.000000
  0
LINE
  8
51
 10
1.413437
 20
0.640000
 30
0.000000
 11
1.392086
 21
0.640000
 31
0.000000
  0
LINE
  8
51
 10
1.392086
 20
0.640000
 30
0.000000
 11
1.381410
 21
0.650676
 31
0.000000
  0
LINE
  8
21
 10
3.884250
 20
2.306429
 30
0.000000
 11
3.891590
 21
2.313769
 31
0.000000
  0
LINE
  8
21
 10
3.891590
 20
2.313769
 30
0.000000
 11
3.891590
 21
2.291750
 31
0.000000
  0
LINE
  8
21
 10
3.884250
 20
2.291750
 30
0.000000
 11
3.898929
 21
2.291750
 31
0.000000
  0
LINE
  8
21
 10
3.222750
 20
2.306429
 30
0.000000
 11
3.230090
 21
2.313769
 31
0.000000
  0
LINE
  8
21
 10
3.230090
 20
2.313769
 30
0.000000
 11
3.230090
 21
2.291750
 31
0.000000
  0
LINE
  8
21
 10
3.222750
 20
2.291750
 30
0.000000
 11
3.237429
 21
2.291750
 31
0.000000
  0
LINE
  8
21
 10
3.255858
 20
2.291750
 30
0.000000
 11
3.255858
 21
2.313769
 31
0.000000
  0
LINE
  8
21
 10
3.255858
 20
2.313769
 30
0.000000
 11
3.244849
 21
2.302759
 31
0.000000
  0
LINE
  8
21
 10
3.244849
 20
2.302759
 30
0.000000
 11
3.259528
 21
2.302759
 31
0.000000
  0
LINE
  8
21
 10
3.163929
 20
1.471000
 30
0.000000
 11
3.149250
 21
1.471000
 31
0.000000
  0
LINE
  8
21
 10
3.149250
 20
1.471000
 30
0.000000
 11
3.163929
 21
1.485679
 31
0.000000
  0
LINE
  8
21
 10
3.163929
 20
1.485679
 30
0.000000
 11
3.163929
 21
1.489349
 31
0.000000
  0
LINE
  8
21
 10
3.163929
 20
1.489349
 30
0.000000
 11
3.160259
 21
1.493019
 31
0.000000
  0
LINE
  8
21
 10
3.160259
 20
1.493019
 30
0.000000
 11
3.152920
 21
1.493019
 31
0.000000
  0
LINE
  8
21
 10
3.152920
 20
1.493019
 30
0.000000
 11
3.149250
 21
1.489349
 31
0.000000
  0
LINE
  8
21
 10
3.186028
 20
1.493019
 30
0.000000
 11
3.171349
 21
1.493019
 31
0.000000
  0
LINE
  8
21
 10
3.171349
 20
1.493019
 30
0.000000
 11
3.171349
 21
1.482009
 31
0.000000
  0
LINE
  8
21
 10
3.171349
 20
1.482009
 30
0.000000
 11
3.178688
 21
1.485679
 31
0.000000
  0
LINE
  8
21
 10
3.178688
 20
1.485679
 30
0.000000
 11
3.182358
 21
1.485679
 31
0.000000
  0
LINE
  8
21
 10
3.182358
 20
1.485679
 30
0.000000
 11
3.186028
 21
1.482009
 31
0.000000
  0
LINE
  8
21
 10
3.186028
 20
1.482009
 30
0.000000
 11
3.186028
 21
1.474670
 31
0.000000
  0
LINE
  8
21
 10
3.186028
 20
1.474670
 30
0.000000
 11
3.182358
 21
1.471000
 31
0.000000
  0
LINE
  8
21
 10
3.182358
 20
1.471000
 30
0.000000
 11
3.175019
 21
1.471000
 31
0.000000
  0
LINE
  8
21
 10
3.175019
 20
1.471000
 30
0.000000
 11
3.171349
 21
1.474670
 31
0.000000
  0
LINE
  8
21
 10
3.884250
 20
1.489349
 30
0.000000
 11
3.887920
 21
1.493019
 31
0.000000
  0
LINE
  8
21
 10
3.887920
 20
1.493019
 30
0.000000
 11
3.895259
 21
1.493019
 31
0.000000
  0
LINE
  8
21
 10
3.895259
 20
1.493019
 30
0.000000
 11
3.898929
 21
1.489349
 31
0.000000
  0
LINE
  8
21
 10
3.898929
 20
1.489349
 30
0.000000
 11
3.898929
 21
1.485679
 31
0.000000
  0
LINE
  8
21
 10
3.898929
 20
1.485679
 30
0.000000
 11
3.895259
 21
1.482009
 31
0.000000
  0
LINE
  8
21
 10
3.895259
 20
1.482009
 30
0.000000
 11
3.891590
 21
1.482009
 31
0.000000
  0
LINE
  8
21
 10
3.895259
 20
1.482009
 30
0.000000
 11
3.898929
 21
1.478340
 31
0.000000
  0
LINE
  8
21
 10
3.898929
 20
1.478340
 30
0.000000
 11
3.898929
 21
1.474670
 31
0.000000
  0
LINE
  8
21
 10
3.898929
 20
1.474670
 30
0.000000
 11
3.895259
 21
1.471000
 31
0.000000
  0
LINE
  8
21
 10
3.895259
 20
1.471000
 30
0.000000
 11
3.887920
 21
1.471000
 31
0.000000
  0
LINE
  8
21
 10
3.887920
 20
1.471000
 30
0.000000
 11
3.884250
 21
1.474670
 31
0.000000
  0
LINE
  8
21
 10
3.906349
 20
1.489349
 30
0.000000
 11
3.910019
 21
1.493019
 31
0.000000
  0
LINE
  8
21
 10
3.910019
 20
1.493019
 30
0.000000
 11
3.917358
 21
1.493019
 31
0.000000
  0
LINE
  8
21
 10
3.917358
 20
1.493019
 30
0.000000
 11
3.921028
 21
1.489349
 31
0.000000
  0
LINE
  8
21
 10
3.921028
 20
1.489349
 30
0.000000
 11
3.921028
 21
1.485679
 31
0.000000
  0
LINE
  8
21
 10
3.921028
 20
1.485679
 30
0.000000
 11
3.917358
 21
1.482009
 31
0.000000
  0
LINE
  8
21
 10
3.917358
 20
1.482009
 30
0.000000
 11
3.921028
 21
1.478340
 31
0.000000
  0
LINE
  8
21
 10
3.921028
 20
1.478340
 30
0.000000
 11
3.921028
 21
1.474670
 31
0.000000
  0
LINE
  8
21
 10
3.921028
 20
1.474670
 30
0.000000
 11
3.917358
 21
1.471000
 31
0.000000
  0
LINE
  8
21
 10
3.917358
 20
1.471000
 30
0.000000
 11
3.910019
 21
1.471000
 31
0.000000
  0
LINE
  8
21
 10
3.910019
 20
1.471000
 30
0.000000
 11
3.906349
 21
1.474670
 31
0.000000
  0
LINE
  8
21
 10
3.906349
 20
1.474670
 30
0.000000
 11
3.906349
 21
1.478340
 31
0.000000
  0
LINE
  8
21
 10
3.906349
 20
1.478340
 30
0.000000
 11
3.910019
 21
1.482009
 31
0.000000
  0
LINE
  8
21
 10
3.910019
 20
1.482009
 30
0.000000
 11
3.906349
 21
1.485679
 31
0.000000
  0
LINE
  8
21
 10
3.906349
 20
1.485679
 30
0.000000
 11
3.906349
 21
1.489349
 31
0.000000
  0
LINE
  8
21
 10
3.910019
 20
1.482009
 30
0.000000
 11
3.917358
 21
1.482009
 31
0.000000
  0
LINE
  8
21
 10
0.087231
 20
2.208429
 30
0.000000
 11
0.087231
 21
2.193750
 31
0.000000
  0
LINE
  8
21
 10
0.087231
 20
2.193750
 30
0.000000
 11
0.098241
 21
2.193750
 31
0.000000
  0
LINE
  8
21
 10
0.098241
 20
2.193750
 30
0.000000
 11
0.094571
 21
2.201090
 31
0.000000
  0
LINE
  8
21
 10
0.094571
 20
2.201090
 30
0.000000
 11
0.094571
 21
2.204759
 31
0.000000
  0
LINE
  8
21
 10
0.094571
 20
2.204759
 30
0.000000
 11
0.098241
 21
2.208429
 31
0.000000
  0
LINE
  8
21
 10
0.098241
 20
2.208429
 30
0.000000
 11
0.105580
 21
2.208429
 31
0.000000
  0
LINE
  8
21
 10
0.105580
 20
2.208429
 30
0.000000
 11
0.109250
 21
2.204759
 31
0.000000
  0
LINE
  8
21
 10
0.109250
 20
2.204759
 30
0.000000
 11
0.109250
 21
2.197420
 31
0.000000
  0
LINE
  8
21
 10
0.109250
 20
2.197420
 30
0.000000
 11
0.105580
 21
2.193750
 31
0.000000
  0
LINE
  8
21
 10
0.087231
 20
2.215849
 30
0.000000
 11
0.101910
 21
2.215849
 31
0.000000
  0
LINE
  8
21
 10
0.101910
 20
2.215849
 30
0.000000
 11
0.109250
 21
2.223188
 31
0.000000
  0
LINE
  8
21
 10
0.109250
 20
2.223188
 30
0.000000
 11
0.101910
 21
2.230528
 31
0.000000
  0
LINE
  8
21
 10
0.101910
 20
2.230528
 30
0.000000
 11
0.087231
 21
2.230528
 31
0.000000
  0
LINE
  8
21
 10
0.112920
 20
2.237948
 30
0.000000
 11
0.112920
 21
2.252627
 31
0.000000
  0
LINE
  8
21
 10
0.094571
 20
2.274726
 30
0.000000
 11
0.094571
 21
2.263716
 31
0.000000
  0
LINE
  8
21
 10
0.094571
 20
2.263716
 30
0.000000
 11
0.098241
 21
2.260046
 31
0.000000
  0
LINE
  8
21
 10
0.098241
 20
2.260046
 30
0.000000
 11
0.105580
 21
2.260046
 31
0.000000
  0
LINE
  8
21
 10
0.105580
 20
2.260046
 30
0.000000
 11
0.109250
 21
2.263716
 31
0.000000
  0
LINE
  8
21
 10
0.109250
 20
2.263716
 30
0.000000
 11
0.109250
 21
2.274726
 31
0.000000
  0
LINE
  8
21
 10
0.094571
 20
2.285815
 30
0.000000
 11
0.094571
 21
2.293155
 31
0.000000
  0
LINE
  8
21
 10
0.094571
 20
2.293155
 30
0.000000
 11
0.098241
 21
2.296824
 31
0.000000
  0
LINE
  8
21
 10
0.098241
 20
2.296824
 30
0.000000
 11
0.109250
 21
2.296824
 31
0.000000
  0
LINE
  8
21
 10
0.109250
 20
2.296824
 30
0.000000
 11
0.109250
 21
2.285815
 31
0.000000
  0
LINE
  8
21
 10
0.109250
 20
2.285815
 30
0.000000
 11
0.105580
 21
2.282145
 31
0.000000
  0
LINE
  8
21
 10
0.105580
 20
2.282145
 30
0.000000
 11
0.101910
 21
2.285815
 31
0.000000
  0
LINE
  8
21
 10
0.101910
 20
2.285815
 30
0.000000
 11
0.101910
 21
2.296824
 31
0.000000
  0
LINE
  8
21
 10
0.087231
 20
2.304244
 30
0.000000
 11
0.087231
 21
2.307914
 31
0.000000
  0
LINE
  8
21
 10
0.087231
 20
2.307914
 30
0.000000
 11
0.109250
 21
2.307914
 31
0.000000
  0
LINE
  8
21
 10
0.109250
 20
2.304244
 30
0.000000
 11
0.109250
 21
2.311584
 31
0.000000
  0
LINE
  8
21
 10
0.109250
 20
2.318977
 30
0.000000
 11
0.094571
 21
2.318977
 31
0.000000
  0
LINE
  8
21
 10
0.094571
 20
2.318977
 30
0.000000
 11
0.094571
 21
2.322646
 31
0.000000
  0
LINE
  8
21
 10
0.094571
 20
2.322646
 30
0.000000
 11
0.098241
 21
2.326316
 31
0.000000
  0
LINE
  8
21
 10
0.098241
 20
2.326316
 30
0.000000
 11
0.109250
 21
2.326316
 31
0.000000
  0
LINE
  8
21
 10
0.098241
 20
2.326316
 30
0.000000
 11
0.094571
 21
2.329986
 31
0.000000
  0
LINE
  8
21
 10
0.094571
 20
2.329986
 30
0.000000
 11
0.098241
 21
2.333656
 31
0.000000
  0
LINE
  8
21
 10
0.098241
 20
2.333656
 30
0.000000
 11
0.109250
 21
2.333656
 31
0.000000
  0
LINE
  8
21
 10
3.139000
 20
1.394777
 30
0.000000
 11
3.181703
 21
1.394777
 31
0.000000
  0
LINE
  8
21
 10
3.160352
 20
1.416129
 30
0.000000
 11
3.160352
 21
1.373426
 31
0.000000
  0
LINE
  8
21
 10
1.742500
 20
2.396129
 30
0.000000
 11
1.785203
 21
2.353426
 31
0.000000
  0
LINE
  8
21
 10
1.742500
 20
2.353426
 30
0.000000
 11
1.785203
 21
2.396129
 31
0.000000
  0
LINE
  8
21
 10
1.742500
 20
2.374777
 30
0.000000
 11
1.785203
 21
2.374777
 31
0.000000
  0
LINE
  8
21
 10
1.763852
 20
2.353426
 30
0.000000
 11
1.763852
 21
2.396129
 31
0.000000
  0
CIRCLE
  8
21
 10
0.245000
 20
0.453250
 30
0.000000
 40
0.027392
  0
INSERT
  8
51
  2
RECT
 10
4.075000
 20
1.896500
 30
0.000000
 41
0.250000
 42
0.750000
 43
1.000000
 50
0.000000
  0
CIRCLE
  8
20
 10
0.236220
 20
0.236220
 30
0.000000
 40
0.061024
  0
CIRCLE
  8
20
 10
0.196850
 20
3.700787
 30
0.000000
 40
0.061024
  0
CIRCLE
  8
20
 10
3.740157
 20
3.700787
 30
0.000000
 40
0.061024
  0
CIRCLE
  8
20
 10
3.700787
 20
0.236220
 30
0.000000
 40
0.061024
  0
LINE
  8
51
 10
1.844543
 20
0.523220
 30
0.000000
 11
1.787457
 21
0.523220
 31
0.000000
  0
LINE
  8
51
 10
1.787457
 20
0.550780
 30
0.000000
 11
1.844543
 21
0.550780
 31
0.000000
  0
INSERT
  8
51
  2
RECT
 10
1.840606
 20
0.537000
 30
0.000000
 41
0.013780
 42
0.031496
 43
1.000000
 50
180.000000
  0
INSERT
  8
51
  2
RECT
 10
1.791394
 20
0.537000
 30
0.000000
 41
0.013780
 42
0.031496
 43
1.000000
 50
180.000000
  0
LINE
  8
51
 10
2.982530
 20
0.965543
 30
0.000000
 11
2.982530
 21
0.908457
 31
0.000000
  0
LINE
  8
51
 10
2.954970
 20
0.908457
 30
0.000000
 11
2.954970
 21
0.965543
 31
0.000000
  0
INSERT
  8
51
  2
RECT
 10
2.968750
 20
0.961606
 30
0.000000
 41
0.013780
 42
0.031496
 43
1.000000
 50
270.000000
  0
INSERT
  8
51
  2
RECT
 10
2.968750
 20
0.912394
 30
0.000000
 41
0.013780
 42
0.031496
 43
1.000000
 50
270.000000
  0
LINE
  8
51
 10
3.045530
 20
0.965543
 30
0.000000
 11
3.045530
 21
0.908457
 31
0.000000
  0
LINE
  8
51
 10
3.017970
 20
0.908457
 30
0.000000
 11
3.017970
 21
0.965543
 31
0.000000
  0
INSERT
  8
51
  2
RECT
 10
3.031750
 20
0.961606
 30
0.000000
 41
0.013780
 42
0.031496
 43
1.000000
 50
270.000000
  0
INSERT
  8
51
  2
RECT
 10
3.031750
 20
0.912394
 30
0.000000
 41
0.013780
 42
0.031496
 43
1.000000
 50
270.000000
  0
LINE
  8
51
 10
2.200957
 20
2.463780
 30
0.000000
 11
2.258043
 21
2.463780
 31
0.000000
  0
LINE
  8
51
 10
2.258043
 20
2.436220
 30
0.000000
 11
2.200957
 21
2.436220
 31
0.000000
  0
INSERT
  8
51
  2
RECT
 10
2.204894
 20
2.450000
 30
0.000000
 41
0.013780
 42
0.031496
 43
1.000000
 50
0.000000
  0
INSERT
  8
51
  2
RECT
 10
2.254106
 20
2.450000
 30
0.000000
 41
0.013780
 42
0.031496
 43
1.000000
 50
0.000000
  0
LINE
  8
51
 10
3.158293
 20
0.454220
 30
0.000000
 11
3.101207
 21
0.454220
 31
0.000000
  0
LINE
  8
51
 10
3.101207
 20
0.481780
 30
0.000000
 11
3.158293
 21
0.481780
 31
0.000000
  0
INSERT
  8
51
  2
RECT
 10
3.154356
 20
0.468000
 30
0.000000
 41
0.013780
 42
0.031496
 43
1.000000
 50
180.000000
  0
INSERT
  8
51
  2
RECT
 10
3.105144
 20
0.468000
 30
0.000000
 41
0.013780
 42
0.031496
 43
1.000000
 50
180.000000
  0
LINE
  8
51
 10
1.585457
 20
0.154780
 30
0.000000
 11
1.642543
 21
0.154780
 31
0.000000
  0
LINE
  8
51
 10
1.642543
 20
0.127220
 30
0.000000
 11
1.585457
 21
0.127220
 31
0.000000
  0
INSERT
  8
51
  2
RECT
 10
1.589394
 20
0.141000
 30
0.000000
 41
0.013780
 42
0.031496
 43
1.000000
 50
0.000000
  0
INSERT
  8
51
  2
RECT
 10
1.638606
 20
0.141000
 30
0.000000
 41
0.013780
 42
0.031496
 43
1.000000
 50
0.000000
  0
LINE
  8
21
 10
0.790738
 20
1.176079
 30
0.000000
 11
0.566329
 21
1.176079
 31
0.000000
  0
LINE
  8
21
 10
0.566329
 20
1.176079
 30
0.000000
 11
0.566329
 21
1.262693
 31
0.000000
  0
LINE
  8
51
 10
0.566329
 20
1.262693
 30
0.000000
 11
0.566329
 21
1.349307
 31
0.000000
  0
LINE
  8
21
 10
0.566329
 20
1.349307
 30
0.000000
 11
0.566329
 21
1.435921
 31
0.000000
  0
LINE
  8
21
 10
0.566329
 20
1.435921
 30
0.000000
 11
0.790738
 21
1.435921
 31
0.000000
  0
LINE
  8
21
 10
0.826171
 20
1.400488
 30
0.000000
 11
0.826171
 21
1.349307
 31
0.000000
  0
LINE
  8
51
 10
0.826171
 20
1.349307
 30
0.000000
 11
0.826171
 21
1.262693
 31
0.000000
  0
LINE
  8
21
 10
0.826171
 20
1.262693
 30
0.000000
 11
0.826171
 21
1.211512
 31
0.000000
  0
LINE
  8
21
 10
0.826171
 20
1.211512
 30
0.000000
 11
0.790738
 21
1.176079
 31
0.000000
  0
LINE
  8
21
 10
0.790738
 20
1.435921
 30
0.000000
 11
0.826171
 21
1.400488
 31
0.000000
  0
ARC
  8
21
 10
0.696559
 20
1.306000
 30
0.000000
 40
0.121722
 50
196.923757
 51
342.105152
  0
ARC
  8
51
 10
0.696250
 20
1.306984
 30
0.000000
 40
0.121717
 50
162.590697
 51
197.409303
  0
ARC
  8
21
 10
0.695941
 20
1.306000
 30
0.000000
 40
0.121722
 50
16.923757
 51
162.105152
  0
ARC
  8
51
 10
0.696250
 20
1.305016
 30
0.000000
 40
0.121717
 50
342.590697
 51
17.409303
  0
LINE
  8
51
 10
1.234707
 20
1.467780
 30
0.000000
 11
1.291793
 21
1.467780
 31
0.000000
  0
LINE
  8
51
 10
1.291793
 20
1.440220
 30
0.000000
 11
1.234707
 21
1.440220
 31
0.000000
  0
INSERT
  8
51
  2
RECT
 10
1.238644
 20
1.454000
 30
0.000000
 41
0.013780
 42
0.031496
 43
1.000000
 50
0.000000
  0
INSERT
  8
51
  2
RECT
 10
1.287856
 20
1.454000
 30
0.000000
 41
0.013780
 42
0.031496
 43
1.000000
 50
0.000000
  0
LINE
  8
51
 10
1.585457
 20
0.224280
 30
0.000000
 11
1.642543
 21
0.224280
 31
0.000000
  0
LINE
  8
51
 10
1.642543
 20
0.196720
 30
0.000000
 11
1.585457
 21
0.196720
 31
0.000000
  0
INSERT
  8
51
  2
RECT
 10
1.589394
 20
0.210500
 30
0.000000
 41
0.013780
 42
0.031496
 43
1.000000
 50
0.000000
  0
INSERT
  8
51
  2
RECT
 10
1.638606
 20
0.210500
 30
0.000000
 41
0.013780
 42
0.031496
 43
1.000000
 50
0.000000
  0
LINE
  8
51
 10
1.536457
 20
0.593780
 30
0.000000
 11
1.593543
 21
0.593780
 31
0.000000
  0
LINE
  8
51
 10
1.593543
 20
0.566220
 30
0.000000
 11
1.536457
 21
0.566220
 31
0.000000
  0
INSERT
  8
51
  2
RECT
 10
1.540394
 20
0.580000
 30
0.000000
 41
0.013780
 42
0.031496
 43
1.000000
 50
0.000000
  0
INSERT
  8
51
  2
RECT
 10
1.589606
 20
0.580000
 30
0.000000
 41
0.013780
 42
0.031496
 43
1.000000
 50
0.000000
  0
LINE
  8
51
 10
1.536457
 20
0.657030
 30
0.000000
 11
1.593543
 21
0.657030
 31
0.000000
  0
LINE
  8
51
 10
1.593543
 20
0.629470
 30
0.000000
 11
1.536457
 21
0.629470
 31
0.000000
  0
INSERT
  8
51
  2
RECT
 10
1.540394
 20
0.643250
 30
0.000000
 41
0.013780
 42
0.031496
 43
1.000000
 50
0.000000
  0
INSERT
  8
51
  2
RECT
 10
1.589606
 20
0.643250
 30
0.000000
 41
0.013780
 42
0.031496
 43
1.000000
 50
0.000000
  0
LINE
  8
51
 10
1.536457
 20
0.720280
 30
0.000000
 11
1.593543
 21
0.720280
 31
0.000000
  0
LINE
  8
51
 10
1.593543
 20
0.692720
 30
0.000000
 11
1.536457
 21
0.692720
 31
0.000000
  0
INSERT
  8
51
  2
RECT
 10
1.540394
 20
0.706500
 30
0.000000
 41
0.013780
 42
0.031496
 43
1.000000
 50
0.000000
  0
INSERT
  8
51
  2
RECT
 10
1.589606
 20
0.706500
 30
0.000000
 41
0.013780
 42
0.031496
 43
1.000000
 50
0.000000
  0
LINE
  8
51
 10
1.154043
 20
0.498720
 30
0.000000
 11
1.096957
 21
0.498720
 31
0.000000
  0
LINE
  8
51
 10
1.096957
 20
0.526280
 30
0.000000
 11
1.154043
 21
0.526280
 31
0.000000
  0
INSERT
  8
51
  2
RECT
 10
1.150106
 20
0.512500
 30
0.000000
 41
0.013780
 42
0.031496
 43
1.000000
 50
180.000000
  0
INSERT
  8
51
  2
RECT
 10
1.100894
 20
0.512500
 30
0.000000
 41
0.013780
 42
0.031496
 43
1.000000
 50
180.000000
  0
LINE
  8
51
 10
0.874707
 20
0.227280
 30
0.000000
 11
0.931793
 21
0.227280
 31
0.000000
  0
LINE
  8
51
 10
0.931793
 20
0.199720
 30
0.000000
 11
0.874707
 21
0.199720
 31
0.000000
  0
INSERT
  8
51
  2
RECT
 10
0.878644
 20
0.213500
 30
0.000000
 41
0.013780
 42
0.031496
 43
1.000000
 50
0.000000
  0
INSERT
  8
51
  2
RECT
 10
0.927856
 20
0.213500
 30
0.000000
 41
0.013780
 42
0.031496
 43
1.000000
 50
0.000000
  0
LINE
  8
51
 10
0.872957
 20
0.150530
 30
0.000000
 11
0.930043
 21
0.150530
 31
0.000000
  0
LINE
  8
51
 10
0.930043
 20
0.122970
 30
0.000000
 11
0.872957
 21
0.122970
 31
0.000000
  0
INSERT
  8
51
  2
RECT
 10
0.876894
 20
0.136750
 30
0.000000
 41
0.013780
 42
0.031496
 43
1.000000
 50
0.000000
  0
INSERT
  8
51
  2
RECT
 10
0.926106
 20
0.136750
 30
0.000000
 41
0.013780
 42
0.031496
 43
1.000000
 50
0.000000
  0
LINE
  8
51
 10
2.566457
 20
1.775030
 30
0.000000
 11
2.623543
 21
1.775030
 31
0.000000
  0
LINE
  8
51
 10
2.623543
 20
1.747470
 30
0.000000
 11
2.566457
 21
1.747470
 31
0.000000
  0
INSERT
  8
51
  2
RECT
 10
2.570394
 20
1.761250
 30
0.000000
 41
0.013780
 42
0.031496
 43
1.000000
 50
0.000000
  0
INSERT
  8
51
  2
RECT
 10
2.619606
 20
1.761250
 30
0.000000
 41
0.013780
 42
0.031496
 43
1.000000
 50
0.000000
  0
LINE
  8
51
 10
0.834707
 20
0.727530
 30
0.000000
 11
0.891793
 21
0.727530
 31
0.000000
  0
LINE
  8
51
 10
0.891793
 20
0.699970
 30
0.000000
 11
0.834707
 21
0.699970
 31
0.000000
  0
INSERT
  8
51
  2
RECT
 10
0.838644
 20
0.713750
 30
0.000000
 41
0.013780
 42
0.031496
 43
1.000000
 50
0.000000
  0
INSERT
  8
51
  2
RECT
 10
0.887856
 20
0.713750
 30
0.000000
 41
0.013780
 42
0.031496
 43
1.000000
 50
0.000000
  0
LINE
  8
51
 10
2.350470
 20
2.703207
 30
0.000000
 11
2.350470
 21
2.760293
 31
0.000000
  0
LINE
  8
51
 10
2.378030
 20
2.760293
 30
0.000000
 11
2.378030
 21
2.703207
 31
0.000000
  0
INSERT
  8
51
  2
RECT
 10
2.364250
 20
2.707144
 30
0.000000
 41
0.013780
 42
0.031496
 43
1.000000
 50
90.000000
  0
INSERT
  8
51
  2
RECT
 10
2.364250
 20
2.756356
 30
0.000000
 41
0.013780
 42
0.031496
 43
1.000000
 50
90.000000
  0
LINE
  8
51
 10
2.178970
 20
2.703207
 30
0.000000
 11
2.178970
 21
2.760293
 31
0.000000
  0
LINE
  8
51
 10
2.206530
 20
2.760293
 30
0.000000
 11
2.206530
 21
2.703207
 31
0.000000
  0
INSERT
  8
51
  2
RECT
 10
2.192750
 20
2.707144
 30
0.000000
 41
0.013780
 42
0.031496
 43
1.000000
 50
90.000000
  0
INSERT
  8
51
  2
RECT
 10
2.192750
 20
2.756356
 30
0.000000
 41
0.013780
 42
0.031496
 43
1.000000
 50
90.000000
  0
LINE
  8
51
 10
0.145470
 20
2.580707
 30
0.000000
 11
0.145470
 21
2.637793
 31
0.000000
  0
LINE
  8
51
 10
0.173030
 20
2.637793
 30
0.000000
 11
0.173030
 21
2.580707
 31
0.000000
  0
INSERT
  8
51
  2
RECT
 10
0.159250
 20
2.584644
 30
0.000000
 41
0.013780
 42
0.031496
 43
1.000000
 50
90.000000
  0
INSERT
  8
51
  2
RECT
 10
0.159250
 20
2.633856
 30
0.000000
 41
0.013780
 42
0.031496
 43
1.000000
 50
90.000000
  0
LINE
  8
51
 10
0.819220
 20
2.678707
 30
0.000000
 11
0.819220
 21
2.735793
 31
0.000000
  0
LINE
  8
51
 10
0.846780
 20
2.735793
 30
0.000000
 11
0.846780
 21
2.678707
 31
0.000000
  0
INSERT
  8
51
  2
RECT
 10
0.833000
 20
2.682644
 30
0.000000
 41
0.013780
 42
0.031496
 43
1.000000
 50
90.000000
  0
INSERT
  8
51
  2
RECT
 10
0.833000
 20
2.731856
 30
0.000000
 41
0.013780
 42
0.031496
 43
1.000000
 50
90.000000
  0
LINE
  8
51
 10
0.506293
 20
2.215720
 30
0.000000
 11
0.449207
 21
2.215720
 31
0.000000
  0
LINE
  8
51
 10
0.449207
 20
2.243280
 30
0.000000
 11
0.506293
 21
2.243280
 31
0.000000
  0
INSERT
  8
51
  2
RECT
 10
0.502356
 20
2.229500
 30
0.000000
 41
0.013780
 42
0.031496
 43
1.000000
 50
180.000000
  0
INSERT
  8
51
  2
RECT
 10
0.453144
 20
2.229500
 30
0.000000
 41
0.013780
 42
0.031496
 43
1.000000
 50
180.000000
  0
LINE
  8
51
 10
2.330280
 20
1.696543
 30
0.000000
 11
2.330280
 21
1.639457
 31
0.000000
  0
LINE
  8
51
 10
2.302720
 20
1.639457
 30
0.000000
 11
2.302720
 21
1.696543
 31
0.000000
  0
INSERT
  8
51
  2
RECT
 10
2.316500
 20
1.692606
 30
0.000000
 41
0.013780
 42
0.031496
 43
1.000000
 50
270.000000
  0
INSERT
  8
51
  2
RECT
 10
2.316500
 20
1.643394
 30
0.000000
 41
0.013780
 42
0.031496
 43
1.000000
 50
270.000000
  0
LINE
  8
51
 10
3.799470
 20
2.352957
 30
0.000000
 11
3.799470
 21
2.410043
 31
0.000000
  0
LINE
  8
51
 10
3.827030
 20
2.410043
 30
0.000000
 11
3.827030
 21
2.352957
 31
0.000000
  0
INSERT
  8
51
  2
RECT
 10
3.813250
 20
2.356894
 30
0.000000
 41
0.013780
 42
0.031496
 43
1.000000
 50
90.000000
  0
INSERT
  8
51
  2
RECT
 10
3.813250
 20
2.406106
 30
0.000000
 41
0.013780
 42
0.031496
 43
1.000000
 50
90.000000
  0
LINE
  8
51
 10
3.735970
 20
2.352957
 30
0.000000
 11
3.735970
 21
2.410043
 31
0.000000
  0
LINE
  8
51
 10
3.763530
 20
2.410043
 30
0.000000
 11
3.763530
 21
2.352957
 31
0.000000
  0
INSERT
  8
51
  2
RECT
 10
3.749750
 20
2.356894
 30
0.000000
 41
0.013780
 42
0.031496
 43
1.000000
 50
90.000000
  0
INSERT
  8
51
  2
RECT
 10
3.749750
 20
2.406106
 30
0.000000
 41
0.013780
 42
0.031496
 43
1.000000
 50
90.000000
  0
LINE
  8
51
 10
0.837957
 20
0.577280
 30
0.000000
 11
0.895043
 21
0.577280
 31
0.000000
  0
LINE
  8
51
 10
0.895043
 20
0.549720
 30
0.000000
 11
0.837957
 21
0.549720
 31
0.000000
  0
INSERT
  8
51
  2
RECT
 10
0.841894
 20
0.563500
 30
0.000000
 41
0.013780
 42
0.031496
 43
1.000000
 50
0.000000
  0
INSERT
  8
51
  2
RECT
 10
0.891106
 20
0.563500
 30
0.000000
 41
0.013780
 42
0.031496
 43
1.000000
 50
0.000000
  0
LINE
  8
51
 10
0.835707
 20
0.657030
 30
0.000000
 11
0.892793
 21
0.657030
 31
0.000000
  0
LINE
  8
51
 10
0.892793
 20
0.629470
 30
0.000000
 11
0.835707
 21
0.629470
 31
0.000000
  0
INSERT
  8
51
  2
RECT
 10
0.839644
 20
0.643250
 30
0.000000
 41
0.013780
 42
0.031496
 43
1.000000
 50
0.000000
  0
INSERT
  8
51
  2
RECT
 10
0.888856
 20
0.643250
 30
0.000000
 41
0.013780
 42
0.031496
 43
1.000000
 50
0.000000
  0
LINE
  8
51
 10
0.521780
 20
1.636043
 30
0.000000
 11
0.521780
 21
1.578957
 31
0.000000
  0
LINE
  8
51
 10
0.494220
 20
1.578957
 30
0.000000
 11
0.494220
 21
1.636043
 31
0.000000
  0
INSERT
  8
51
  2
RECT
 10
0.508000
 20
1.632106
 30
0.000000
 41
0.013780
 42
0.031496
 43
1.000000
 50
270.000000
  0
INSERT
  8
51
  2
RECT
 10
0.508000
 20
1.582894
 30
0.000000
 41
0.013780
 42
0.031496
 43
1.000000
 50
270.000000
  0
LINE
  8
51
 10
3.418431
 20
2.452854
 30
0.000000
 11
3.418431
 21
2.472146
 31
0.000000
  0
LINE
  8
51
 10
3.436069
 20
2.472146
 30
0.000000
 11
3.436069
 21
2.452854
 31
0.000000
  0
INSERT
  8
51
  2
RECT
 10
3.427441
 20
2.446594
 30
0.000000
 41
0.011811
 42
0.023618
 43
1.000000
 50
90.000000
  0
INSERT
  8
51
  2
RECT
 10
3.427441
 20
2.478594
 30
0.000000
 41
0.011811
 42
0.023618
 43
1.000000
 50
90.000000
  0
LINE
  8
51
 10
3.518431
 20
2.452854
 30
0.000000
 11
3.518431
 21
2.472146
 31
0.000000
  0
LINE
  8
51
 10
3.536069
 20
2.472146
 30
0.000000
 11
3.536069
 21
2.452854
 31
0.000000
  0
INSERT
  8
51
  2
RECT
 10
3.527441
 20
2.446594
 30
0.000000
 41
0.011811
 42
0.023618
 43
1.000000
 50
90.000000
  0
INSERT
  8
51
  2
RECT
 10
3.527441
 20
2.478594
 30
0.000000
 41
0.011811
 42
0.023618
 43
1.000000
 50
90.000000
  0
LINE
  8
51
 10
2.203780
 20
1.696543
 30
0.000000
 11
2.203780
 21
1.639457
 31
0.000000
  0
LINE
  8
51
 10
2.176220
 20
1.639457
 30
0.000000
 11
2.176220
 21
1.696543
 31
0.000000
  0
INSERT
  8
51
  2
RECT
 10
2.190000
 20
1.692606
 30
0.000000
 41
0.013780
 42
0.031496
 43
1.000000
 50
270.000000
  0
INSERT
  8
51
  2
RECT
 10
2.190000
 20
1.643394
 30
0.000000
 41
0.013780
 42
0.031496
 43
1.000000
 50
270.000000
  0
LINE
  8
51
 10
1.743543
 20
2.019720
 30
0.000000
 11
1.686457
 21
2.019720
 31
0.000000
  0
LINE
  8
51
 10
1.686457
 20
2.047280
 30
0.000000
 11
1.743543
 21
2.047280
 31
0.000000
  0
INSERT
  8
51
  2
RECT
 10
1.739606
 20
2.033500
 30
0.000000
 41
0.013780
 42
0.031496
 43
1.000000
 50
180.000000
  0
INSERT
  8
51
  2
RECT
 10
1.690394
 20
2.033500
 30
0.000000
 41
0.013780
 42
0.031496
 43
1.000000
 50
180.000000
  0
LINE
  8
51
 10
0.456280
 20
1.993793
 30
0.000000
 11
0.456280
 21
1.936707
 31
0.000000
  0
LINE
  8
51
 10
0.428720
 20
1.936707
 30
0.000000
 11
0.428720
 21
1.993793
 31
0.000000
  0
INSERT
  8
51
  2
RECT
 10
0.442500
 20
1.989856
 30
0.000000
 41
0.013780
 42
0.031496
 43
1.000000
 50
270.000000
  0
INSERT
  8
51
  2
RECT
 10
0.442500
 20
1.940644
 30
0.000000
 41
0.013780
 42
0.031496
 43
1.000000
 50
270.000000
  0
LINE
  8
51
 10
2.383043
 20
0.788970
 30
0.000000
 11
2.325957
 21
0.788970
 31
0.000000
  0
LINE
  8
51
 10
2.325957
 20
0.816530
 30
0.000000
 11
2.383043
 21
0.816530
 31
0.000000
  0
INSERT
  8
51
  2
RECT
 10
2.379106
 20
0.802750
 30
0.000000
 41
0.013780
 42
0.031496
 43
1.000000
 50
180.000000
  0
INSERT
  8
51
  2
RECT
 10
2.329894
 20
0.802750
 30
0.000000
 41
0.013780
 42
0.031496
 43
1.000000
 50
180.000000
  0
LINE
  8
51
 10
1.023096
 20
0.842523
 30
0.000000
 11
0.966009
 21
0.842523
 31
0.000000
  0
LINE
  8
51
 10
0.966009
 20
0.870082
 30
0.000000
 11
1.023096
 21
0.870082
 31
0.000000
  0
INSERT
  8
51
  2
RECT
 10
1.019159
 20
0.856303
 30
0.000000
 41
0.013780
 42
0.031496
 43
1.000000
 50
180.000000
  0
INSERT
  8
51
  2
RECT
 10
0.969946
 20
0.856303
 30
0.000000
 41
0.013780
 42
0.031496
 43
1.000000
 50
180.000000
  0
LINE
  8
51
 10
0.959220
 20
0.982207
 30
0.000000
 11
0.959220
 21
1.039293
 31
0.000000
  0
LINE
  8
51
 10
0.986780
 20
1.039293
 30
0.000000
 11
0.986780
 21
0.982207
 31
0.000000
  0
INSERT
  8
51
  2
RECT
 10
0.973000
 20
0.986144
 30
0.000000
 41
0.013780
 42
0.031496
 43
1.000000
 50
90.000000
  0
INSERT
  8
51
  2
RECT
 10
0.973000
 20
1.035356
 30
0.000000
 41
0.013780
 42
0.031496
 43
1.000000
 50
90.000000
  0
LINE
  8
51
 10
0.374207
 20
2.078780
 30
0.000000
 11
0.431293
 21
2.078780
 31
0.000000
  0
LINE
  8
51
 10
0.431293
 20
2.051220
 30
0.000000
 11
0.374207
 21
2.051220
 31
0.000000
  0
INSERT
  8
51
  2
RECT
 10
0.378144
 20
2.065000
 30
0.000000
 41
0.013780
 42
0.031496
 43
1.000000
 50
0.000000
  0
INSERT
  8
51
  2
RECT
 10
0.427356
 20
2.065000
 30
0.000000
 41
0.013780
 42
0.031496
 43
1.000000
 50
0.000000
  0
LINE
  8
51
 10
1.790030
 20
1.890543
 30
0.000000
 11
1.790030
 21
1.833457
 31
0.000000
  0
LINE
  8
51
 10
1.762470
 20
1.833457
 30
0.000000
 11
1.762470
 21
1.890543
 31
0.000000
  0
INSERT
  8
51
  2
RECT
 10
1.776250
 20
1.886606
 30
0.000000
 41
0.013780
 42
0.031496
 43
1.000000
 50
270.000000
  0
INSERT
  8
51
  2
RECT
 10
1.776250
 20
1.837394
 30
0.000000
 41
0.013780
 42
0.031496
 43
1.000000
 50
270.000000
  0
LINE
  8
51
 10
1.762470
 20
1.686457
 30
0.000000
 11
1.762470
 21
1.743543
 31
0.000000
  0
LINE
  8
51
 10
1.790030
 20
1.743543
 30
0.000000
 11
1.790030
 21
1.686457
 31
0.000000
  0
INSERT
  8
51
  2
RECT
 10
1.776250
 20
1.690394
 30
0.000000
 41
0.013780
 42
0.031496
 43
1.000000
 50
90.000000
  0
INSERT
  8
51
  2
RECT
 10
1.776250
 20
1.739606
 30
0.000000
 41
0.013780
 42
0.031496
 43
1.000000
 50
90.000000
  0
LINE
  8
51
 10
3.107457
 20
2.476030
 30
0.000000
 11
3.164543
 21
2.476030
 31
0.000000
  0
LINE
  8
51
 10
3.164543
 20
2.448470
 30
0.000000
 11
3.107457
 21
2.448470
 31
0.000000
  0
INSERT
  8
51
  2
RECT
 10
3.111394
 20
2.462250
 30
0.000000
 41
0.013780
 42
0.031496
 43
1.000000
 50
0.000000
  0
INSERT
  8
51
  2
RECT
 10
3.160606
 20
2.462250
 30
0.000000
 41
0.013780
 42
0.031496
 43
1.000000
 50
0.000000
  0
LINE
  8
51
 10
0.939207
 20
2.463780
 30
0.000000
 11
0.996293
 21
2.463780
 31
0.000000
  0
LINE
  8
51
 10
0.996293
 20
2.436220
 30
0.000000
 11
0.939207
 21
2.436220
 31
0.000000
  0
INSERT
  8
51
  2
RECT
 10
0.943144
 20
2.450000
 30
0.000000
 41
0.013780
 42
0.031496
 43
1.000000
 50
0.000000
  0
INSERT
  8
51
  2
RECT
 10
0.992356
 20
2.450000
 30
0.000000
 41
0.013780
 42
0.031496
 43
1.000000
 50
0.000000
  0
LINE
  8
51
 10
0.647720
 20
2.678707
 30
0.000000
 11
0.647720
 21
2.735793
 31
0.000000
  0
LINE
  8
51
 10
0.675280
 20
2.735793
 30
0.000000
 11
0.675280
 21
2.678707
 31
0.000000
  0
INSERT
  8
51
  2
RECT
 10
0.661500
 20
2.682644
 30
0.000000
 41
0.013780
 42
0.031496
 43
1.000000
 50
90.000000
  0
INSERT
  8
51
  2
RECT
 10
0.661500
 20
2.731856
 30
0.000000
 41
0.013780
 42
0.031496
 43
1.000000
 50
90.000000
  0
LINE
  8
51
 10
1.064220
 20
2.678707
 30
0.000000
 11
1.064220
 21
2.735793
 31
0.000000
  0
LINE
  8
51
 10
1.091780
 20
2.735793
 30
0.000000
 11
1.091780
 21
2.678707
 31
0.000000
  0
INSERT
  8
51
  2
RECT
 10
1.078000
 20
2.682644
 30
0.000000
 41
0.013780
 42
0.031496
 43
1.000000
 50
90.000000
  0
INSERT
  8
51
  2
RECT
 10
1.078000
 20
2.731856
 30
0.000000
 41
0.013780
 42
0.031496
 43
1.000000
 50
90.000000
  0
LINE
  8
51
 10
1.235720
 20
2.678707
 30
0.000000
 11
1.235720
 21
2.735793
 31
0.000000
  0
LINE
  8
51
 10
1.263280
 20
2.735793
 30
0.000000
 11
1.263280
 21
2.678707
 31
0.000000
  0
INSERT
  8
51
  2
RECT
 10
1.249500
 20
2.682644
 30
0.000000
 41
0.013780
 42
0.031496
 43
1.000000
 50
90.000000
  0
INSERT
  8
51
  2
RECT
 10
1.249500
 20
2.731856
 30
0.000000
 41
0.013780
 42
0.031496
 43
1.000000
 50
90.000000
  0
LINE
  8
51
 10
2.987470
 20
2.690957
 30
0.000000
 11
2.987470
 21
2.748043
 31
0.000000
  0
LINE
  8
51
 10
3.015030
 20
2.748043
 30
0.000000
 11
3.015030
 21
2.690957
 31
0.000000
  0
INSERT
  8
51
  2
RECT
 10
3.001250
 20
2.694894
 30
0.000000
 41
0.013780
 42
0.031496
 43
1.000000
 50
90.000000
  0
INSERT
  8
51
  2
RECT
 10
3.001250
 20
2.744106
 30
0.000000
 41
0.013780
 42
0.031496
 43
1.000000
 50
90.000000
  0
LINE
  8
51
 10
2.815970
 20
2.690957
 30
0.000000
 11
2.815970
 21
2.748043
 31
0.000000
  0
LINE
  8
51
 10
2.843530
 20
2.748043
 30
0.000000
 11
2.843530
 21
2.690957
 31
0.000000
  0
INSERT
  8
51
  2
RECT
 10
2.829750
 20
2.694894
 30
0.000000
 41
0.013780
 42
0.031496
 43
1.000000
 50
90.000000
  0
INSERT
  8
51
  2
RECT
 10
2.829750
 20
2.744106
 30
0.000000
 41
0.013780
 42
0.031496
 43
1.000000
 50
90.000000
  0
LINE
  8
51
 10
3.244720
 20
2.690957
 30
0.000000
 11
3.244720
 21
2.748043
 31
0.000000
  0
LINE
  8
51
 10
3.272280
 20
2.748043
 30
0.000000
 11
3.272280
 21
2.690957
 31
0.000000
  0
INSERT
  8
51
  2
RECT
 10
3.258500
 20
2.694894
 30
0.000000
 41
0.013780
 42
0.031496
 43
1.000000
 50
90.000000
  0
INSERT
  8
51
  2
RECT
 10
3.258500
 20
2.744106
 30
0.000000
 41
0.013780
 42
0.031496
 43
1.000000
 50
90.000000
  0
LINE
  8
51
 10
3.416220
 20
2.690957
 30
0.000000
 11
3.416220
 21
2.748043
 31
0.000000
  0
LINE
  8
51
 10
3.443780
 20
2.748043
 30
0.000000
 11
3.443780
 21
2.690957
 31
0.000000
  0
INSERT
  8
51
  2
RECT
 10
3.430000
 20
2.694894
 30
0.000000
 41
0.013780
 42
0.031496
 43
1.000000
 50
90.000000
  0
INSERT
  8
51
  2
RECT
 10
3.430000
 20
2.744106
 30
0.000000
 41
0.013780
 42
0.031496
 43
1.000000
 50
90.000000
  0
LINE
  8
51
 10
3.196689
 20
0.290333
 30
0.000000
 11
3.144689
 21
0.290333
 31
0.000000
  0
LINE
  8
51
 10
3.144689
 20
0.290333
 30
0.000000
 11
3.144689
 21
0.402333
 31
0.000000
  0
LINE
  8
51
 10
3.144689
 20
0.402333
 30
0.000000
 11
3.196689
 21
0.402333
 31
0.000000
  0
LINE
  8
51
 10
3.196689
 20
0.402333
 30
0.000000
 11
3.196689
 21
0.290333
 31
0.000000
  0
LINE
  8
21
 10
3.164689
 20
0.402333
 30
0.000000
 11
3.196689
 21
0.402333
 31
0.000000
  0
LINE
  8
21
 10
3.196689
 20
0.402333
 30
0.000000
 11
3.196689
 21
0.380333
 31
0.000000
  0
LINE
  8
21
 10
3.196689
 20
0.290333
 30
0.000000
 11
3.164689
 21
0.290333
 31
0.000000
  0
LINE
  8
21
 10
3.196689
 20
0.312333
 30
0.000000
 11
3.196689
 21
0.290333
 31
0.000000
  0
INSERT
  8
51
  2
RECT
 10
3.210189
 20
0.346333
 30
0.000000
 41
0.018000
 42
0.023000
 43
1.000000
 50
270.000000
  0
INSERT
  8
51
  2
RECT
 10
3.131189
 20
0.309333
 30
0.000000
 41
0.018000
 42
0.023000
 43
1.000000
 50
270.000000
  0
INSERT
  8
51
  2
RECT
 10
3.131189
 20
0.383333
 30
0.000000
 41
0.018000
 42
0.023000
 43
1.000000
 50
270.000000
  0
LINE
  8
51
 10
3.439978
 20
0.459667
 30
0.000000
 11
3.491978
 21
0.459667
 31
0.000000
  0
LINE
  8
51
 10
3.491978
 20
0.459667
 30
0.000000
 11
3.491978
 21
0.347667
 31
0.000000
  0
LINE
  8
51
 10
3.491978
 20
0.347667
 30
0.000000
 11
3.439978
 21
0.347667
 31
0.000000
  0
LINE
  8
51
 10
3.439978
 20
0.347667
 30
0.000000
 11
3.439978
 21
0.459667
 31
0.000000
  0
LINE
  8
21
 10
3.471978
 20
0.347667
 30
0.000000
 11
3.439978
 21
0.347667
 31
0.000000
  0
LINE
  8
21
 10
3.439978
 20
0.347667
 30
0.000000
 11
3.439978
 21
0.369667
 31
0.000000
  0
LINE
  8
21
 10
3.439978
 20
0.459667
 30
0.000000
 11
3.471978
 21
0.459667
 31
0.000000
  0
LINE
  8
21
 10
3.439978
 20
0.437667
 30
0.000000
 11
3.439978
 21
0.459667
 31
0.000000
  0
INSERT
  8
51
  2
RECT
 10
3.426478
 20
0.403667
 30
0.000000
 41
0.018000
 42
0.023000
 43
1.000000
 50
90.000000
  0
INSERT
  8
51
  2
RECT
 10
3.505478
 20
0.440667
 30
0.000000
 41
0.018000
 42
0.023000
 43
1.000000
 50
90.000000
  0
INSERT
  8
51
  2
RECT
 10
3.505478
 20
0.366667
 30
0.000000
 41
0.018000
 42
0.023000
 43
1.000000
 50
90.000000
  0
LINE
  8
51
 10
0.571750
 20
1.860750
 30
0.000000
 11
0.571750
 21
1.912750
 31
0.000000
  0
LINE
  8
51
 10
0.571750
 20
1.912750
 30
0.000000
 11
0.683750
 21
1.912750
 31
0.000000
  0
LINE
  8
51
 10
0.683750
 20
1.912750
 30
0.000000
 11
0.683750
 21
1.860750
 31
0.000000
  0
LINE
  8
51
 10
0.683750
 20
1.860750
 30
0.000000
 11
0.571750
 21
1.860750
 31
0.000000
  0
LINE
  8
21
 10
0.683750
 20
1.892750
 30
0.000000
 11
0.683750
 21
1.860750
 31
0.000000
  0
LINE
  8
21
 10
0.683750
 20
1.860750
 30
0.000000
 11
0.661750
 21
1.860750
 31
0.000000
  0
LINE
  8
21
 10
0.571750
 20
1.860750
 30
0.000000
 11
0.571750
 21
1.892750
 31
0.000000
  0
LINE
  8
21
 10
0.593750
 20
1.860750
 30
0.000000
 11
0.571750
 21
1.860750
 31
0.000000
  0
INSERT
  8
51
  2
RECT
 10
0.627750
 20
1.847250
 30
0.000000
 41
0.018000
 42
0.023000
 43
1.000000
 50
180.000000
  0
INSERT
  8
51
  2
RECT
 10
0.590750
 20
1.926250
 30
0.000000
 41
0.018000
 42
0.023000
 43
1.000000
 50
180.000000
  0
INSERT
  8
51
  2
RECT
 10
0.664750
 20
1.926250
 30
0.000000
 41
0.018000
 42
0.023000
 43
1.000000
 50
180.000000
  0
LINE
  8
51
 10
2.562500
 20
2.088250
 30
0.000000
 11
2.562500
 21
2.036250
 31
0.000000
  0
LINE
  8
51
 10
2.562500
 20
2.036250
 30
0.000000
 11
2.450500
 21
2.036250
 31
0.000000
  0
LINE
  8
51
 10
2.450500
 20
2.036250
 30
0.000000
 11
2.450500
 21
2.088250
 31
0.000000
  0
LINE
  8
51
 10
2.450500
 20
2.088250
 30
0.000000
 11
2.562500
 21
2.088250
 31
0.000000
  0
LINE
  8
21
 10
2.450500
 20
2.056250
 30
0.000000
 11
2.450500
 21
2.088250
 31
0.000000
  0
LINE
  8
21
 10
2.450500
 20
2.088250
 30
0.000000
 11
2.472500
 21
2.088250
 31
0.000000
  0
LINE
  8
21
 10
2.562500
 20
2.088250
 30
0.000000
 11
2.562500
 21
2.056250
 31
0.000000
  0
LINE
  8
21
 10
2.540500
 20
2.088250
 30
0.000000
 11
2.562500
 21
2.088250
 31
0.000000
  0
INSERT
  8
51
  2
RECT
 10
2.506500
 20
2.101750
 30
0.000000
 41
0.018000
 42
0.023000
 43
1.000000
 50
0.000000
  0
INSERT
  8
51
  2
RECT
 10
2.543500
 20
2.022750
 30
0.000000
 41
0.018000
 42
0.023000
 43
1.000000
 50
0.000000
  0
INSERT
  8
51
  2
RECT
 10
2.469500
 20
2.022750
 30
0.000000
 41
0.018000
 42
0.023000
 43
1.000000
 50
0.000000
  0
LINE
  8
21
 10
1.234000
 20
1.302750
 30
0.000000
 11
1.184000
 21
1.302750
 31
0.000000
  0
LINE
  8
21
 10
1.184000
 20
1.302750
 30
0.000000
 11
1.159000
 21
1.327750
 31
0.000000
  0
LINE
  8
21
 10
1.159000
 20
1.327750
 30
0.000000
 11
1.159000
 21
1.377750
 31
0.000000
  0
LINE
  8
21
 10
1.159000
 20
1.377750
 30
0.000000
 11
1.184000
 21
1.402750
 31
0.000000
  0
LINE
  8
21
 10
1.259000
 20
1.327750
 30
0.000000
 11
1.259000
 21
1.377750
 31
0.000000
  0
LINE
  8
21
 10
1.234000
 20
1.302750
 30
0.000000
 11
1.259000
 21
1.327750
 31
0.000000
  0
LINE
  8
21
 10
1.259000
 20
1.377750
 30
0.000000
 11
1.234000
 21
1.402750
 31
0.000000
  0
LINE
  8
21
 10
1.184000
 20
1.402750
 30
0.000000
 11
1.234000
 21
1.402750
 31
0.000000
  0
LINE
  8
21
 10
1.159000
 20
1.327750
 30
0.000000
 11
1.134000
 21
1.302750
 31
0.000000
  0
LINE
  8
21
 10
1.134000
 20
1.302750
 30
0.000000
 11
1.084000
 21
1.302750
 31
0.000000
  0
LINE
  8
21
 10
1.084000
 20
1.302750
 30
0.000000
 11
1.059000
 21
1.327750
 31
0.000000
  0
LINE
  8
21
 10
1.059000
 20
1.327750
 30
0.000000
 11
1.059000
 21
1.377750
 31
0.000000
  0
LINE
  8
21
 10
1.059000
 20
1.377750
 30
0.000000
 11
1.084000
 21
1.402750
 31
0.000000
  0
LINE
  8
21
 10
1.084000
 20
1.402750
 30
0.000000
 11
1.134000
 21
1.402750
 31
0.000000
  0
LINE
  8
21
 10
1.134000
 20
1.402750
 30
0.000000
 11
1.159000
 21
1.377750
 31
0.000000
  0
INSERT
  8
51
  2
RECT
 10
1.209000
 20
1.352750
 30
0.000000
 41
0.020000
 42
0.020000
 43
1.000000
 50
180.000000
  0
INSERT
  8
51
  2
RECT
 10
1.109000
 20
1.352750
 30
0.000000
 41
0.020000
 42
0.020000
 43
1.000000
 50
180.000000
  0
LINE
  8
51
 10
1.322652
 20
1.651777
 30
0.000000
 11
1.350683
 21
1.651777
 31
0.000000
  0
LINE
  8
51
 10
1.322652
 20
1.618273
 30
0.000000
 11
1.350683
 21
1.618273
 31
0.000000
  0
LINE
  8
21
 10
1.273676
 20
1.662328
 30
0.000000
 11
1.399660
 21
1.662328
 31
0.000000
  0
LINE
  8
21
 10
1.399660
 20
1.662328
 30
0.000000
 11
1.399660
 21
1.607210
 31
0.000000
  0
LINE
  8
21
 10
1.399660
 20
1.607210
 30
0.000000
 11
1.273676
 21
1.607210
 31
0.000000
  0
LINE
  8
21
 10
1.273676
 20
1.607210
 30
0.000000
 11
1.273676
 21
1.662328
 31
0.000000
  0
INSERT
  8
51
  2
RECT
 10
1.313512
 20
1.634970
 30
0.000000
 41
0.019689
 42
0.037402
 43
1.000000
 50
0.000000
  0
INSERT
  8
51
  2
RECT
 10
1.359512
 20
1.634970
 30
0.000000
 41
0.019689
 42
0.037402
 43
1.000000
 50
0.000000
  0
LINE
  8
51
 10
1.662743
 20
1.763652
 30
0.000000
 11
1.662743
 21
1.791683
 31
0.000000
  0
LINE
  8
51
 10
1.696247
 20
1.763652
 30
0.000000
 11
1.696247
 21
1.791683
 31
0.000000
  0
LINE
  8
21
 10
1.652191
 20
1.714676
 30
0.000000
 11
1.652191
 21
1.840660
 31
0.000000
  0
LINE
  8
21
 10
1.652191
 20
1.840660
 30
0.000000
 11
1.707310
 21
1.840660
 31
0.000000
  0
LINE
  8
21
 10
1.707310
 20
1.840660
 30
0.000000
 11
1.707310
 21
1.714676
 31
0.000000
  0
LINE
  8
21
 10
1.707310
 20
1.714676
 30
0.000000
 11
1.652191
 21
1.714676
 31
0.000000
  0
INSERT
  8
51
  2
RECT
 10
1.679550
 20
1.754512
 30
0.000000
 41
0.019689
 42
0.037402
 43
1.000000
 50
90.000000
  0
INSERT
  8
51
  2
RECT
 10
1.679550
 20
1.800512
 30
0.000000
 41
0.019689
 42
0.037402
 43
1.000000
 50
90.000000
  0
LINE
  8
51
 10
0.451484
 20
1.744258
 30
0.000000
 11
0.479516
 21
1.744258
 31
0.000000
  0
LINE
  8
51
 10
0.451484
 20
1.710754
 30
0.000000
 11
0.479516
 21
1.710754
 31
0.000000
  0
LINE
  8
21
 10
0.402508
 20
1.754809
 30
0.000000
 11
0.528492
 21
1.754809
 31
0.000000
  0
LINE
  8
21
 10
0.528492
 20
1.754809
 30
0.000000
 11
0.528492
 21
1.699691
 31
0.000000
  0
LINE
  8
21
 10
0.528492
 20
1.699691
 30
0.000000
 11
0.402508
 21
1.699691
 31
0.000000
  0
LINE
  8
21
 10
0.402508
 20
1.699691
 30
0.000000
 11
0.402508
 21
1.754809
 31
0.000000
  0
INSERT
  8
51
  2
RECT
 10
0.442344
 20
1.727451
 30
0.000000
 41
0.019689
 42
0.037402
 43
1.000000
 50
0.000000
  0
INSERT
  8
51
  2
RECT
 10
0.488344
 20
1.727451
 30
0.000000
 41
0.019689
 42
0.037402
 43
1.000000
 50
0.000000
  0
LINE
  8
51
 10
0.451484
 20
1.854508
 30
0.000000
 11
0.479516
 21
1.854508
 31
0.000000
  0
LINE
  8
51
 10
0.451484
 20
1.821004
 30
0.000000
 11
0.479516
 21
1.821004
 31
0.000000
  0
LINE
  8
21
 10
0.402508
 20
1.865059
 30
0.000000
 11
0.528492
 21
1.865059
 31
0.000000
  0
LINE
  8
21
 10
0.528492
 20
1.865059
 30
0.000000
 11
0.528492
 21
1.809941
 31
0.000000
  0
LINE
  8
21
 10
0.528492
 20
1.809941
 30
0.000000
 11
0.402508
 21
1.809941
 31
0.000000
  0
LINE
  8
21
 10
0.402508
 20
1.809941
 30
0.000000
 11
0.402508
 21
1.865059
 31
0.000000
  0
INSERT
  8
51
  2
RECT
 10
0.442344
 20
1.837701
 30
0.000000
 41
0.019689
 42
0.037402
 43
1.000000
 50
0.000000
  0
INSERT
  8
51
  2
RECT
 10
0.488344
 20
1.837701
 30
0.000000
 41
0.019689
 42
0.037402
 43
1.000000
 50
0.000000
  0
LINE
  8
51
 10
0.206484
 20
1.401258
 30
0.000000
 11
0.234516
 21
1.401258
 31
0.000000
  0
LINE
  8
51
 10
0.206484
 20
1.367754
 30
0.000000
 11
0.234516
 21
1.367754
 31
0.000000
  0
LINE
  8
21
 10
0.157508
 20
1.411809
 30
0.000000
 11
0.283492
 21
1.411809
 31
0.000000
  0
LINE
  8
21
 10
0.283492
 20
1.411809
 30
0.000000
 11
0.283492
 21
1.356691
 31
0.000000
  0
LINE
  8
21
 10
0.283492
 20
1.356691
 30
0.000000
 11
0.157508
 21
1.356691
 31
0.000000
  0
LINE
  8
21
 10
0.157508
 20
1.356691
 30
0.000000
 11
0.157508
 21
1.411809
 31
0.000000
  0
INSERT
  8
51
  2
RECT
 10
0.197344
 20
1.384451
 30
0.000000
 41
0.019689
 42
0.037402
 43
1.000000
 50
0.000000
  0
INSERT
  8
51
  2
RECT
 10
0.243344
 20
1.384451
 30
0.000000
 41
0.019689
 42
0.037402
 43
1.000000
 50
0.000000
  0
LINE
  8
51
 10
0.206484
 20
1.205258
 30
0.000000
 11
0.234516
 21
1.205258
 31
0.000000
  0
LINE
  8
51
 10
0.206484
 20
1.171754
 30
0.000000
 11
0.234516
 21
1.171754
 31
0.000000
  0
LINE
  8
21
 10
0.157508
 20
1.215809
 30
0.000000
 11
0.283492
 21
1.215809
 31
0.000000
  0
LINE
  8
21
 10
0.283492
 20
1.215809
 30
0.000000
 11
0.283492
 21
1.160691
 31
0.000000
  0
LINE
  8
21
 10
0.283492
 20
1.160691
 30
0.000000
 11
0.157508
 21
1.160691
 31
0.000000
  0
LINE
  8
21
 10
0.157508
 20
1.160691
 30
0.000000
 11
0.157508
 21
1.215809
 31
0.000000
  0
INSERT
  8
51
  2
RECT
 10
0.197344
 20
1.188451
 30
0.000000
 41
0.019689
 42
0.037402
 43
1.000000
 50
0.000000
  0
INSERT
  8
51
  2
RECT
 10
0.243344
 20
1.188451
 30
0.000000
 41
0.019689
 42
0.037402
 43
1.000000
 50
0.000000
  0
LINE
  8
51
 10
0.063492
 20
2.094484
 30
0.000000
 11
0.063492
 21
2.122516
 31
0.000000
  0
LINE
  8
51
 10
0.096996
 20
2.094484
 30
0.000000
 11
0.096996
 21
2.122516
 31
0.000000
  0
LINE
  8
21
 10
0.052941
 20
2.045508
 30
0.000000
 11
0.052941
 21
2.171492
 31
0.000000
  0
LINE
  8
21
 10
0.052941
 20
2.171492
 30
0.000000
 11
0.108059
 21
2.171492
 31
0.000000
  0
LINE
  8
21
 10
0.108059
 20
2.171492
 30
0.000000
 11
0.108059
 21
2.045508
 31
0.000000
  0
LINE
  8
21
 10
0.108059
 20
2.045508
 30
0.000000
 11
0.052941
 21
2.045508
 31
0.000000
  0
INSERT
  8
51
  2
RECT
 10
0.080299
 20
2.085344
 30
0.000000
 41
0.019689
 42
0.037402
 43
1.000000
 50
90.000000
  0
INSERT
  8
51
  2
RECT
 10
0.080299
 20
2.131344
 30
0.000000
 41
0.019689
 42
0.037402
 43
1.000000
 50
90.000000
  0
LINE
  8
51
 10
1.563242
 20
1.762234
 30
0.000000
 11
1.563242
 21
1.790266
 31
0.000000
  0
LINE
  8
51
 10
1.596746
 20
1.762234
 30
0.000000
 11
1.596746
 21
1.790266
 31
0.000000
  0
LINE
  8
21
 10
1.552691
 20
1.713258
 30
0.000000
 11
1.552691
 21
1.839242
 31
0.000000
  0
LINE
  8
21
 10
1.552691
 20
1.839242
 30
0.000000
 11
1.607809
 21
1.839242
 31
0.000000
  0
LINE
  8
21
 10
1.607809
 20
1.839242
 30
0.000000
 11
1.607809
 21
1.713258
 31
0.000000
  0
LINE
  8
21
 10
1.607809
 20
1.713258
 30
0.000000
 11
1.552691
 21
1.713258
 31
0.000000
  0
INSERT
  8
51
  2
RECT
 10
1.580049
 20
1.753094
 30
0.000000
 41
0.019689
 42
0.037402
 43
1.000000
 50
90.000000
  0
INSERT
  8
51
  2
RECT
 10
1.580049
 20
1.799094
 30
0.000000
 41
0.019689
 42
0.037402
 43
1.000000
 50
90.000000
  0
LINE
  8
51
 10
1.321234
 20
1.560508
 30
0.000000
 11
1.349266
 21
1.560508
 31
0.000000
  0
LINE
  8
51
 10
1.321234
 20
1.527004
 30
0.000000
 11
1.349266
 21
1.527004
 31
0.000000
  0
LINE
  8
21
 10
1.272258
 20
1.571059
 30
0.000000
 11
1.398242
 21
1.571059
 31
0.000000
  0
LINE
  8
21
 10
1.398242
 20
1.571059
 30
0.000000
 11
1.398242
 21
1.515941
 31
0.000000
  0
LINE
  8
21
 10
1.398242
 20
1.515941
 30
0.000000
 11
1.272258
 21
1.515941
 31
0.000000
  0
LINE
  8
21
 10
1.272258
 20
1.515941
 30
0.000000
 11
1.272258
 21
1.571059
 31
0.000000
  0
INSERT
  8
51
  2
RECT
 10
1.312094
 20
1.543701
 30
0.000000
 41
0.019689
 42
0.037402
 43
1.000000
 50
0.000000
  0
INSERT
  8
51
  2
RECT
 10
1.358094
 20
1.543701
 30
0.000000
 41
0.019689
 42
0.037402
 43
1.000000
 50
0.000000
  0
LINE
  8
51
 10
0.602016
 20
1.984642
 30
0.000000
 11
0.573984
 21
1.984642
 31
0.000000
  0
LINE
  8
51
 10
0.602016
 20
2.018146
 30
0.000000
 11
0.573984
 21
2.018146
 31
0.000000
  0
LINE
  8
21
 10
0.650992
 20
1.974091
 30
0.000000
 11
0.525008
 21
1.974091
 31
0.000000
  0
LINE
  8
21
 10
0.525008
 20
1.974091
 30
0.000000
 11
0.525008
 21
2.029209
 31
0.000000
  0
LINE
  8
21
 10
0.525008
 20
2.029209
 30
0.000000
 11
0.650992
 21
2.029209
 31
0.000000
  0
LINE
  8
21
 10
0.650992
 20
2.029209
 30
0.000000
 11
0.650992
 21
1.974091
 31
0.000000
  0
INSERT
  8
51
  2
RECT
 10
0.611156
 20
2.001449
 30
0.000000
 41
0.019689
 42
0.037402
 43
1.000000
 50
180.000000
  0
INSERT
  8
51
  2
RECT
 10
0.565156
 20
2.001449
 30
0.000000
 41
0.019689
 42
0.037402
 43
1.000000
 50
180.000000
  0
LINE
  8
21
 10
3.205512
 20
0.787303
 30
0.000000
 11
3.205512
 21
0.806988
 31
0.000000
  0
LINE
  8
21
 10
3.205512
 20
0.806988
 30
0.000000
 11
3.225197
 21
0.806988
 31
0.000000
  0
LINE
  8
21
 10
3.394488
 20
0.783366
 30
0.000000
 11
3.394488
 21
0.806988
 31
0.000000
  0
LINE
  8
21
 10
3.394488
 20
0.806988
 30
0.000000
 11
3.374803
 21
0.806988
 31
0.000000
  0
LINE
  8
21
 10
3.394488
 20
0.637697
 30
0.000000
 11
3.394488
 21
0.618012
 31
0.000000
  0
LINE
  8
21
 10
3.394488
 20
0.618012
 30
0.000000
 11
3.374803
 21
0.618012
 31
0.000000
  0
CIRCLE
  8
21
 10
3.193750
 20
0.606250
 30
0.000000
 40
0.010000
  0
LINE
  8
51
 10
2.353516
 20
2.489384
 30
0.000000
 11
2.105484
 21
2.489384
 31
0.000000
  0
LINE
  8
51
 10
2.105484
 20
2.489384
 30
0.000000
 11
2.105484
 21
2.631116
 31
0.000000
  0
LINE
  8
51
 10
2.105484
 20
2.631116
 30
0.000000
 11
2.353516
 21
2.631116
 31
0.000000
  0
LINE
  8
51
 10
2.353516
 20
2.631116
 30
0.000000
 11
2.353516
 21
2.489384
 31
0.000000
  0
LINE
  8
51
 10
2.288555
 20
2.501195
 30
0.000000
 11
2.170445
 21
2.501195
 31
0.000000
  0
LINE
  8
51
 10
2.170445
 20
2.501195
 30
0.000000
 11
2.170445
 21
2.619305
 31
0.000000
  0
LINE
  8
51
 10
2.170445
 20
2.619305
 30
0.000000
 11
2.288555
 21
2.619305
 31
0.000000
  0
LINE
  8
51
 10
2.288555
 20
2.619305
 30
0.000000
 11
2.288555
 21
2.501195
 31
0.000000
  0
LINE
  8
51
 10
2.288555
 20
2.520880
 30
0.000000
 11
2.268870
 21
2.501195
 31
0.000000
  0
LINE
  8
21
 10
2.274776
 20
2.501195
 30
0.000000
 11
2.184224
 21
2.501195
 31
0.000000
  0
LINE
  8
21
 10
2.184224
 20
2.501195
 30
0.000000
 11
2.184224
 21
2.619305
 31
0.000000
  0
LINE
  8
21
 10
2.184224
 20
2.619305
 30
0.000000
 11
2.274776
 21
2.619305
 31
0.000000
  0
LINE
  8
21
 10
2.274776
 20
2.619305
 30
0.000000
 11
2.274776
 21
2.501195
 31
0.000000
  0
LINE
  8
21
 10
2.343673
 20
2.501195
 30
0.000000
 11
2.288555
 21
2.501195
 31
0.000000
  0
LINE
  8
51
 10
0.197982
 20
2.193096
 30
0.000000
 11
0.197982
 21
2.486404
 31
0.000000
  0
LINE
  8
51
 10
0.197982
 20
2.486404
 30
0.000000
 11
0.414518
 21
2.486404
 31
0.000000
  0
LINE
  8
51
 10
0.414518
 20
2.486404
 30
0.000000
 11
0.414518
 21
2.193096
 31
0.000000
  0
LINE
  8
51
 10
0.414518
 20
2.193096
 30
0.000000
 11
0.197982
 21
2.193096
 31
0.000000
  0
LINE
  8
51
 10
0.209715
 20
2.263057
 30
0.000000
 11
0.209715
 21
2.416443
 31
0.000000
  0
LINE
  8
51
 10
0.209715
 20
2.416443
 30
0.000000
 11
0.402785
 21
2.416443
 31
0.000000
  0
LINE
  8
51
 10
0.402785
 20
2.416443
 30
0.000000
 11
0.402785
 21
2.263057
 31
0.000000
  0
LINE
  8
51
 10
0.402785
 20
2.263057
 30
0.000000
 11
0.209715
 21
2.263057
 31
0.000000
  0
LINE
  8
51
 10
0.259715
 20
2.263057
 30
0.000000
 11
0.209715
 21
2.313057
 31
0.000000
  0
LINE
  8
21
 10
0.209715
 20
2.276837
 30
0.000000
 11
0.209715
 21
2.402663
 31
0.000000
  0
LINE
  8
21
 10
0.209715
 20
2.402663
 30
0.000000
 11
0.402785
 21
2.402663
 31
0.000000
  0
LINE
  8
21
 10
0.402785
 20
2.402663
 30
0.000000
 11
0.402785
 21
2.276837
 31
0.000000
  0
LINE
  8
21
 10
0.402785
 20
2.276837
 30
0.000000
 11
0.209715
 21
2.276837
 31
0.000000
  0
LINE
  8
21
 10
0.204675
 20
2.202939
 30
0.000000
 11
0.204675
 21
2.263057
 31
0.000000
  0
LINE
  8
51
 10
3.261766
 20
2.497634
 30
0.000000
 11
3.013734
 21
2.497634
 31
0.000000
  0
LINE
  8
51
 10
3.013734
 20
2.497634
 30
0.000000
 11
3.013734
 21
2.639366
 31
0.000000
  0
LINE
  8
51
 10
3.013734
 20
2.639366
 30
0.000000
 11
3.261766
 21
2.639366
 31
0.000000
  0
LINE
  8
51
 10
3.261766
 20
2.639366
 30
0.000000
 11
3.261766
 21
2.497634
 31
0.000000
  0
LINE
  8
51
 10
3.196805
 20
2.509445
 30
0.000000
 11
3.078695
 21
2.509445
 31
0.000000
  0
LINE
  8
51
 10
3.078695
 20
2.509445
 30
0.000000
 11
3.078695
 21
2.627555
 31
0.000000
  0
LINE
  8
51
 10
3.078695
 20
2.627555
 30
0.000000
 11
3.196805
 21
2.627555
 31
0.000000
  0
LINE
  8
51
 10
3.196805
 20
2.627555
 30
0.000000
 11
3.196805
 21
2.509445
 31
0.000000
  0
LINE
  8
51
 10
3.196805
 20
2.529130
 30
0.000000
 11
3.177120
 21
2.509445
 31
0.000000
  0
LINE
  8
21
 10
3.183026
 20
2.509445
 30
0.000000
 11
3.092474
 21
2.509445
 31
0.000000
  0
LINE
  8
21
 10
3.092474
 20
2.509445
 30
0.000000
 11
3.092474
 21
2.627555
 31
0.000000
  0
LINE
  8
21
 10
3.092474
 20
2.627555
 30
0.000000
 11
3.183026
 21
2.627555
 31
0.000000
  0
LINE
  8
21
 10
3.183026
 20
2.627555
 30
0.000000
 11
3.183026
 21
2.509445
 31
0.000000
  0
LINE
  8
21
 10
3.251923
 20
2.509445
 30
0.000000
 11
3.196805
 21
2.509445
 31
0.000000
  0
LINE
  8
51
 10
1.090016
 20
2.491634
 30
0.000000
 11
0.841984
 21
2.491634
 31
0.000000
  0
LINE
  8
51
 10
0.841984
 20
2.491634
 30
0.000000
 11
0.841984
 21
2.633366
 31
0.000000
  0
LINE
  8
51
 10
0.841984
 20
2.633366
 30
0.000000
 11
1.090016
 21
2.633366
 31
0.000000
  0
LINE
  8
51
 10
1.090016
 20
2.633366
 30
0.000000
 11
1.090016
 21
2.491634
 31
0.000000
  0
LINE
  8
51
 10
1.025055
 20
2.503445
 30
0.000000
 11
0.906945
 21
2.503445
 31
0.000000
  0
LINE
  8
51
 10
0.906945
 20
2.503445
 30
0.000000
 11
0.906945
 21
2.621555
 31
0.000000
  0
LINE
  8
51
 10
0.906945
 20
2.621555
 30
0.000000
 11
1.025055
 21
2.621555
 31
0.000000
  0
LINE
  8
51
 10
1.025055
 20
2.621555
 30
0.000000
 11
1.025055
 21
2.503445
 31
0.000000
  0
LINE
  8
51
 10
1.025055
 20
2.523130
 30
0.000000
 11
1.005370
 21
2.503445
 31
0.000000
  0
LINE
  8
21
 10
1.011276
 20
2.503445
 30
0.000000
 11
0.920724
 21
2.503445
 31
0.000000
  0
LINE
  8
21
 10
0.920724
 20
2.503445
 30
0.000000
 11
0.920724
 21
2.621555
 31
0.000000
  0
LINE
  8
21
 10
0.920724
 20
2.621555
 30
0.000000
 11
1.011276
 21
2.621555
 31
0.000000
  0
LINE
  8
21
 10
1.011276
 20
2.621555
 30
0.000000
 11
1.011276
 21
2.503445
 31
0.000000
  0
LINE
  8
21
 10
1.080173
 20
2.503445
 30
0.000000
 11
1.025055
 21
2.503445
 31
0.000000
  0
LINE
  8
21
 10
1.656931
 20
2.307124
 30
0.000000
 11
1.356569
 21
2.307124
 31
0.000000
  0
LINE
  8
21
 10
1.356569
 20
2.127376
 30
0.000000
 11
1.356569
 21
2.307124
 31
0.000000
  0
LINE
  8
21
 10
1.356569
 20
2.127376
 30
0.000000
 11
1.656931
 21
2.127376
 31
0.000000
  0
LINE
  8
21
 10
1.656931
 20
2.307124
 30
0.000000
 11
1.656931
 21
2.127376
 31
0.000000
  0
LINE
  8
21
 10
1.647931
 20
2.298124
 30
0.000000
 11
1.365569
 21
2.298124
 31
0.000000
  0
LINE
  8
21
 10
1.365569
 20
2.136376
 30
0.000000
 11
1.365569
 21
2.298124
 31
0.000000
  0
LINE
  8
21
 10
1.365569
 20
2.136376
 30
0.000000
 11
1.647931
 21
2.136376
 31
0.000000
  0
LINE
  8
21
 10
1.647931
 20
2.298124
 30
0.000000
 11
1.647931
 21
2.136376
 31
0.000000
  0
CIRCLE
  8
21
 10
1.621931
 20
2.265250
 30
0.000000
 40
0.018000
  0
INSERT
  8
51
  2
RECT
 10
1.647498
 20
2.323624
 30
0.000000
 41
0.008000
 42
0.033000
 43
1.000000
 50
180.000000
  0
INSERT
  8
51
  2
RECT
 10
1.621907
 20
2.323624
 30
0.000000
 41
0.008000
 42
0.033000
 43
1.000000
 50
180.000000
  0
INSERT
  8
51
  2
RECT
 10
1.596317
 20
2.323624
 30
0.000000
 41
0.008000
 42
0.033000
 43
1.000000
 50
180.000000
  0
INSERT
  8
51
  2
RECT
 10
1.570726
 20
2.323624
 30
0.000000
 41
0.008000
 42
0.033000
 43
1.000000
 50
180.000000
  0
INSERT
  8
51
  2
RECT
 10
1.545136
 20
2.323624
 30
0.000000
 41
0.008000
 42
0.033000
 43
1.000000
 50
180.000000
  0
INSERT
  8
51
  2
RECT
 10
1.519545
 20
2.323624
 30
0.000000
 41
0.008000
 42
0.033000
 43
1.000000
 50
180.000000
  0
INSERT
  8
51
  2
RECT
 10
1.493955
 20
2.323624
 30
0.000000
 41
0.008000
 42
0.033000
 43
1.000000
 50
180.000000
  0
INSERT
  8
51
  2
RECT
 10
1.468364
 20
2.323624
 30
0.000000
 41
0.008000
 42
0.033000
 43
1.000000
 50
180.000000
  0
INSERT
  8
51
  2
RECT
 10
1.442774
 20
2.323624
 30
0.000000
 41
0.008000
 42
0.033000
 43
1.000000
 50
180.000000
  0
INSERT
  8
51
  2
RECT
 10
1.417183
 20
2.323624
 30
0.000000
 41
0.008000
 42
0.033000
 43
1.000000
 50
180.000000
  0
INSERT
  8
51
  2
RECT
 10
1.391593
 20
2.323624
 30
0.000000
 41
0.008000
 42
0.033000
 43
1.000000
 50
180.000000
  0
INSERT
  8
51
  2
RECT
 10
1.366002
 20
2.323624
 30
0.000000
 41
0.008000
 42
0.033000
 43
1.000000
 50
180.000000
  0
INSERT
  8
51
  2
RECT
 10
1.366002
 20
2.110876
 30
0.000000
 41
0.008000
 42
0.033000
 43
1.000000
 50
180.000000
  0
INSERT
  8
51
  2
RECT
 10
1.391593
 20
2.110876
 30
0.000000
 41
0.008000
 42
0.033000
 43
1.000000
 50
180.000000
  0
INSERT
  8
51
  2
RECT
 10
1.417183
 20
2.110876
 30
0.000000
 41
0.008000
 42
0.033000
 43
1.000000
 50
180.000000
  0
INSERT
  8
51
  2
RECT
 10
1.442774
 20
2.110876
 30
0.000000
 41
0.008000
 42
0.033000
 43
1.000000
 50
180.000000
  0
INSERT
  8
51
  2
RECT
 10
1.468364
 20
2.110876
 30
0.000000
 41
0.008000
 42
0.033000
 43
1.000000
 50
180.000000
  0
INSERT
  8
51
  2
RECT
 10
1.493955
 20
2.110876
 30
0.000000
 41
0.008000
 42
0.033000
 43
1.000000
 50
180.000000
  0
INSERT
  8
51
  2
RECT
 10
1.519545
 20
2.110876
 30
0.000000
 41
0.008000
 42
0.033000
 43
1.000000
 50
180.000000
  0
INSERT
  8
51
  2
RECT
 10
1.545136
 20
2.110876
 30
0.000000
 41
0.008000
 42
0.033000
 43
1.000000
 50
180.000000
  0
INSERT
  8
51
  2
RECT
 10
1.570726
 20
2.110876
 30
0.000000
 41
0.008000
 42
0.033000
 43
1.000000
 50
180.000000
  0
INSERT
  8
51
  2
RECT
 10
1.596317
 20
2.110876
 30
0.000000
 41
0.008000
 42
0.033000
 43
1.000000
 50
180.000000
  0
INSERT
  8
51
  2
RECT
 10
1.621907
 20
2.110876
 30
0.000000
 41
0.008000
 42
0.033000
 43
1.000000
 50
180.000000
  0
INSERT
  8
51
  2
RECT
 10
1.647498
 20
2.110876
 30
0.000000
 41
0.008000
 42
0.033000
 43
1.000000
 50
180.000000
  0
LINE
  8
51
 10
0.194756
 20
1.914917
 30
0.000000
 11
0.194756
 21
2.092083
 31
0.000000
  0
LINE
  8
51
 10
0.194756
 20
2.092083
 30
0.000000
 11
0.289244
 21
2.092083
 31
0.000000
  0
LINE
  8
51
 10
0.289244
 20
2.092083
 30
0.000000
 11
0.289244
 21
1.914917
 31
0.000000
  0
LINE
  8
51
 10
0.289244
 20
1.914917
 30
0.000000
 11
0.194756
 21
1.914917
 31
0.000000
  0
LINE
  8
21
 10
0.289244
 20
1.914917
 30
0.000000
 11
0.194756
 21
1.914917
 31
0.000000
  0
LINE
  8
21
 10
0.194756
 20
2.092083
 30
0.000000
 11
0.289244
 21
2.092083
 31
0.000000
  0
LINE
  8
21
 10
0.194756
 20
1.914917
 30
0.000000
 11
0.194756
 21
1.949445
 31
0.000000
  0
LINE
  8
21
 10
0.194756
 20
2.092083
 30
0.000000
 11
0.194756
 21
2.057555
 31
0.000000
  0
LINE
  8
21
 10
0.159323
 20
1.952319
 30
0.000000
 11
0.159323
 21
1.897201
 31
0.000000
  0
LINE
  8
21
 10
1.100000
 20
1.115000
 30
0.000000
 11
1.050000
 21
1.115000
 31
0.000000
  0
LINE
  8
21
 10
-0.036256
 20
0.753835
 30
0.000000
 11
-0.036256
 21
0.822732
 31
0.000000
  0
LINE
  8
21
 10
-0.036256
 20
0.822732
 30
0.000000
 11
-0.036256
 21
1.039268
 31
0.000000
  0
LINE
  8
21
 10
-0.036256
 20
1.039268
 30
0.000000
 11
-0.036256
 21
1.108165
 31
0.000000
  0
LINE
  8
51
 10
0.562169
 20
0.753835
 30
0.000000
 11
0.562169
 21
1.108165
 31
0.000000
  0
LINE
  8
21
 10
-0.036256
 20
1.108165
 30
0.000000
 11
0.562169
 21
1.108165
 31
0.000000
  0
LINE
  8
51
 10
-0.036256
 20
0.753835
 30
0.000000
 11
0.562169
 21
0.753835
 31
0.000000
  0
LINE
  8
21
 10
-0.036256
 20
1.039268
 30
0.000000
 11
0.011776
 21
1.039282
 31
0.000000
  0
LINE
  8
21
 10
0.051146
 20
1.039294
 30
0.000000
 11
0.099177
 21
1.039308
 31
0.000000
  0
LINE
  8
21
 10
0.138547
 20
1.039320
 30
0.000000
 11
0.186579
 21
1.039334
 31
0.000000
  0
LINE
  8
21
 10
0.225949
 20
1.039346
 30
0.000000
 11
0.273980
 21
1.039360
 31
0.000000
  0
LINE
  8
21
 10
0.313350
 20
1.039372
 30
0.000000
 11
0.361382
 21
1.039386
 31
0.000000
  0
LINE
  8
21
 10
-0.036256
 20
0.822732
 30
0.000000
 11
0.011776
 21
0.822732
 31
0.000000
  0
LINE
  8
21
 10
0.051146
 20
0.822732
 30
0.000000
 11
0.099177
 21
0.822732
 31
0.000000
  0
LINE
  8
21
 10
0.138547
 20
0.822732
 30
0.000000
 11
0.186579
 21
0.822732
 31
0.000000
  0
LINE
  8
21
 10
0.225949
 20
0.822732
 30
0.000000
 11
0.273980
 21
0.822732
 31
0.000000
  0
LINE
  8
21
 10
0.313350
 20
0.822732
 30
0.000000
 11
0.361382
 21
0.822732
 31
0.000000
  0
LINE
  8
21
 10
0.361382
 20
0.822732
 30
0.000000
 11
0.361382
 21
0.868703
 31
0.000000
  0
LINE
  8
21
 10
0.361382
 20
0.908073
 30
0.000000
 11
0.361382
 21
0.954045
 31
0.000000
  0
LINE
  8
21
 10
0.361382
 20
0.993415
 30
0.000000
 11
0.361382
 21
1.039386
 31
0.000000
  0
LINE
  8
51
 10
0.010988
 20
0.970370
 30
0.000000
 11
0.069059
 21
0.970370
 31
0.000000
  0
LINE
  8
51
 10
0.108429
 20
0.970370
 30
0.000000
 11
0.166500
 21
0.970370
 31
0.000000
  0
LINE
  8
51
 10
0.205870
 20
0.970370
 30
0.000000
 11
0.263941
 21
0.970370
 31
0.000000
  0
LINE
  8
51
 10
0.303311
 20
0.970370
 30
0.000000
 11
0.361382
 21
0.970370
 31
0.000000
  0
LINE
  8
51
 10
0.014925
 20
0.891630
 30
0.000000
 11
0.072012
 21
0.891630
 31
0.000000
  0
LINE
  8
51
 10
0.111382
 20
0.891630
 30
0.000000
 11
0.168469
 21
0.891630
 31
0.000000
  0
LINE
  8
51
 10
0.207839
 20
0.891630
 30
0.000000
 11
0.264925
 21
0.891630
 31
0.000000
  0
LINE
  8
51
 10
0.304295
 20
0.891630
 30
0.000000
 11
0.361382
 21
0.891630
 31
0.000000
  0
ARC
  8
21
 10
0.016894
 20
0.931000
 30
0.000000
 40
0.039419
 50
92.862405
 51
272.862405
  0
LINE
  8
21
 10
-0.036256
 20
0.753835
 30
0.000000
 11
0.561776
 21
0.753835
 31
0.000000
  0
LINE
  8
21
 10
0.562169
 20
0.756591
 30
0.000000
 11
0.562169
 21
1.108165
 31
0.000000
  0
CIRCLE
  8
20
 10
0.121224
 20
0.931000
 30
0.000000
 40
0.045276
  0
LINE
  8
21
 10
2.025000
 20
0.675000
 30
0.000000
 11
2.985000
 21
0.675000
 31
0.000000
  0
LINE
  8
21
 10
2.025000
 20
0.675000
 30
0.000000
 11
2.025000
 21
0.035000
 31
0.000000
  0
LINE
  8
21
 10
2.025000
 20
0.035000
 30
0.000000
 11
2.075000
 21
0.035000
 31
0.000000
  0
LINE
  8
21
 10
3.005000
 20
0.035000
 30
0.000000
 11
3.055000
 21
0.035000
 31
0.000000
  0
LINE
  8
21
 10
3.055000
 20
0.035000
 30
0.000000
 11
3.055000
 21
0.385000
 31
0.000000
  0
LINE
  8
21
 10
2.985000
 20
0.675000
 30
0.000000
 11
2.985000
 21
0.475000
 31
0.000000
  0
LINE
  8
21
 10
2.985000
 20
0.475000
 30
0.000000
 11
3.055000
 21
0.385000
 31
0.000000
  0
LINE
  8
21
 10
2.075000
 20
-0.305000
 30
0.000000
 11
2.075000
 21
-0.285000
 31
0.000000
  0
LINE
  8
21
 10
2.075000
 20
0.035000
 30
0.000000
 11
2.075000
 21
-0.745000
 31
0.000000
  0
LINE
  8
21
 10
2.075000
 20
-0.745000
 30
0.000000
 11
3.005000
 21
-0.745000
 31
0.000000
  0
LINE
  8
21
 10
3.005000
 20
-0.745000
 30
0.000000
 11
3.005000
 21
0.035000
 31
0.000000
  0
LINE
  8
21
 10
2.338933
 20
-0.494634
 30
0.000000
 11
2.331260
 21
-0.486961
 31
0.000000
  0
LINE
  8
21
 10
2.331260
 20
-0.486961
 30
0.000000
 11
2.315914
 21
-0.486961
 31
0.000000
  0
LINE
  8
21
 10
2.315914
 20
-0.486961
 30
0.000000
 11
2.308240
 21
-0.494634
 31
0.000000
  0
LINE
  8
21
 10
2.308240
 20
-0.494634
 30
0.000000
 11
2.308240
 21
-0.502307
 31
0.000000
  0
LINE
  8
21
 10
2.308240
 20
-0.502307
 30
0.000000
 11
2.315914
 21
-0.509980
 31
0.000000
  0
LINE
  8
21
 10
2.315914
 20
-0.509980
 30
0.000000
 11
2.331260
 21
-0.509980
 31
0.000000
  0
LINE
  8
21
 10
2.331260
 20
-0.509980
 30
0.000000
 11
2.338933
 21
-0.517654
 31
0.000000
  0
LINE
  8
21
 10
2.338933
 20
-0.517654
 30
0.000000
 11
2.338933
 21
-0.525327
 31
0.000000
  0
LINE
  8
21
 10
2.338933
 20
-0.525327
 30
0.000000
 11
2.331260
 21
-0.533000
 31
0.000000
  0
LINE
  8
21
 10
2.331260
 20
-0.533000
 30
0.000000
 11
2.315914
 21
-0.533000
 31
0.000000
  0
LINE
  8
21
 10
2.315914
 20
-0.533000
 30
0.000000
 11
2.308240
 21
-0.525327
 31
0.000000
  0
LINE
  8
21
 10
2.354280
 20
-0.486961
 30
0.000000
 11
2.354280
 21
-0.533000
 31
0.000000
  0
LINE
  8
21
 10
2.354280
 20
-0.533000
 30
0.000000
 11
2.377299
 21
-0.533000
 31
0.000000
  0
LINE
  8
21
 10
2.377299
 20
-0.533000
 30
0.000000
 11
2.384972
 21
-0.525327
 31
0.000000
  0
LINE
  8
21
 10
2.384972
 20
-0.525327
 30
0.000000
 11
2.384972
 21
-0.494634
 31
0.000000
  0
LINE
  8
21
 10
2.384972
 20
-0.494634
 30
0.000000
 11
2.377299
 21
-0.486961
 31
0.000000
  0
LINE
  8
21
 10
2.377299
 20
-0.486961
 30
0.000000
 11
2.354280
 21
-0.486961
 31
0.000000
  0
LINE
  8
21
 10
2.400319
 20
-0.533000
 30
0.000000
 11
2.431012
 21
-0.486961
 31
0.000000
  0
LINE
  8
21
 10
2.446358
 20
-0.533000
 30
0.000000
 11
2.446358
 21
-0.486961
 31
0.000000
  0
LINE
  8
21
 10
2.446358
 20
-0.486961
 30
0.000000
 11
2.461704
 21
-0.502307
 31
0.000000
  0
LINE
  8
21
 10
2.461704
 20
-0.502307
 30
0.000000
 11
2.477051
 21
-0.486961
 31
0.000000
  0
LINE
  8
21
 10
2.477051
 20
-0.486961
 30
0.000000
 11
2.477051
 21
-0.533000
 31
0.000000
  0
LINE
  8
21
 10
2.492397
 20
-0.533000
 30
0.000000
 11
2.492397
 21
-0.486961
 31
0.000000
  0
LINE
  8
21
 10
2.492397
 20
-0.486961
 30
0.000000
 11
2.507744
 21
-0.502307
 31
0.000000
  0
LINE
  8
21
 10
2.507744
 20
-0.502307
 30
0.000000
 11
2.523090
 21
-0.486961
 31
0.000000
  0
LINE
  8
21
 10
2.523090
 20
-0.486961
 30
0.000000
 11
2.523090
 21
-0.533000
 31
0.000000
  0
LINE
  8
21
 10
2.569129
 20
-0.494634
 30
0.000000
 11
2.561456
 21
-0.486961
 31
0.000000
  0
LINE
  8
21
 10
2.561456
 20
-0.486961
 30
0.000000
 11
2.546110
 21
-0.486961
 31
0.000000
  0
LINE
  8
21
 10
2.546110
 20
-0.486961
 30
0.000000
 11
2.538437
 21
-0.494634
 31
0.000000
  0
LINE
  8
21
 10
2.538437
 20
-0.494634
 30
0.000000
 11
2.538437
 21
-0.525327
 31
0.000000
  0
LINE
  8
21
 10
2.538437
 20
-0.525327
 30
0.000000
 11
2.546110
 21
-0.533000
 31
0.000000
  0
LINE
  8
21
 10
2.546110
 20
-0.533000
 30
0.000000
 11
2.561456
 21
-0.533000
 31
0.000000
  0
LINE
  8
21
 10
2.561456
 20
-0.533000
 30
0.000000
 11
2.569129
 21
-0.525327
 31
0.000000
  0
LINE
  8
21
 10
2.661208
 20
-0.494634
 30
0.000000
 11
2.653535
 21
-0.486961
 31
0.000000
  0
LINE
  8
21
 10
2.653535
 20
-0.486961
 30
0.000000
 11
2.638188
 21
-0.486961
 31
0.000000
  0
LINE
  8
21
 10
2.638188
 20
-0.486961
 30
0.000000
 11
2.630515
 21
-0.494634
 31
0.000000
  0
LINE
  8
21
 10
2.630515
 20
-0.494634
 30
0.000000
 11
2.630515
 21
-0.525327
 31
0.000000
  0
LINE
  8
21
 10
2.630515
 20
-0.525327
 30
0.000000
 11
2.638188
 21
-0.533000
 31
0.000000
  0
LINE
  8
21
 10
2.638188
 20
-0.533000
 30
0.000000
 11
2.653535
 21
-0.533000
 31
0.000000
  0
LINE
  8
21
 10
2.653535
 20
-0.533000
 30
0.000000
 11
2.661208
 21
-0.525327
 31
0.000000
  0
LINE
  8
21
 10
2.684227
 20
-0.502307
 30
0.000000
 11
2.699574
 21
-0.502307
 31
0.000000
  0
LINE
  8
21
 10
2.699574
 20
-0.502307
 30
0.000000
 11
2.707247
 21
-0.509980
 31
0.000000
  0
LINE
  8
21
 10
2.707247
 20
-0.509980
 30
0.000000
 11
2.707247
 21
-0.533000
 31
0.000000
  0
LINE
  8
21
 10
2.707247
 20
-0.533000
 30
0.000000
 11
2.684227
 21
-0.533000
 31
0.000000
  0
LINE
  8
21
 10
2.684227
 20
-0.533000
 30
0.000000
 11
2.676554
 21
-0.525327
 31
0.000000
  0
LINE
  8
21
 10
2.676554
 20
-0.525327
 30
0.000000
 11
2.684227
 21
-0.517654
 31
0.000000
  0
LINE
  8
21
 10
2.684227
 20
-0.517654
 30
0.000000
 11
2.707247
 21
-0.517654
 31
0.000000
  0
LINE
  8
21
 10
2.722594
 20
-0.533000
 30
0.000000
 11
2.722594
 21
-0.502307
 31
0.000000
  0
LINE
  8
21
 10
2.722594
 20
-0.517654
 30
0.000000
 11
2.737940
 21
-0.502307
 31
0.000000
  0
LINE
  8
21
 10
2.737940
 20
-0.502307
 30
0.000000
 11
2.745613
 21
-0.502307
 31
0.000000
  0
LINE
  8
21
 10
2.791652
 20
-0.486961
 30
0.000000
 11
2.791652
 21
-0.533000
 31
0.000000
  0
LINE
  8
21
 10
2.791652
 20
-0.533000
 30
0.000000
 11
2.768633
 21
-0.533000
 31
0.000000
  0
LINE
  8
21
 10
2.768633
 20
-0.533000
 30
0.000000
 11
2.760960
 21
-0.525327
 31
0.000000
  0
LINE
  8
21
 10
2.760960
 20
-0.525327
 30
0.000000
 11
2.760960
 21
-0.509980
 31
0.000000
  0
LINE
  8
21
 10
2.760960
 20
-0.509980
 30
0.000000
 11
2.768633
 21
-0.502307
 31
0.000000
  0
LINE
  8
21
 10
2.768633
 20
-0.502307
 30
0.000000
 11
2.791652
 21
-0.502307
 31
0.000000
  0
LINE
  8
21
 10
2.926000
 20
0.654002
 30
0.000000
 11
2.929002
 21
0.651000
 31
0.000000
  0
LINE
  8
21
 10
2.929002
 20
0.651000
 30
0.000000
 11
2.935008
 21
0.651000
 31
0.000000
  0
LINE
  8
21
 10
2.935008
 20
0.651000
 30
0.000000
 11
2.938010
 21
0.654002
 31
0.000000
  0
LINE
  8
21
 10
2.938010
 20
0.654002
 30
0.000000
 11
2.938010
 21
0.666013
 31
0.000000
  0
LINE
  8
21
 10
2.938010
 20
0.666013
 30
0.000000
 11
2.935008
 21
0.669015
 31
0.000000
  0
LINE
  8
21
 10
2.935008
 20
0.669015
 30
0.000000
 11
2.929002
 21
0.669015
 31
0.000000
  0
LINE
  8
21
 10
2.929002
 20
0.669015
 30
0.000000
 11
2.926000
 21
0.666013
 31
0.000000
  0
LINE
  8
21
 10
2.926000
 20
0.666013
 30
0.000000
 11
2.926000
 21
0.663010
 31
0.000000
  0
LINE
  8
21
 10
2.926000
 20
0.663010
 30
0.000000
 11
2.929002
 21
0.660008
 31
0.000000
  0
LINE
  8
21
 10
2.929002
 20
0.660008
 30
0.000000
 11
2.938010
 21
0.660008
 31
0.000000
  0
LINE
  8
21
 10
2.826000
 20
0.663010
 30
0.000000
 11
2.832005
 21
0.669015
 31
0.000000
  0
LINE
  8
21
 10
2.832005
 20
0.669015
 30
0.000000
 11
2.832005
 21
0.651000
 31
0.000000
  0
LINE
  8
21
 10
2.826000
 20
0.651000
 30
0.000000
 11
2.838010
 21
0.651000
 31
0.000000
  0
LINE
  8
21
 10
2.151000
 20
0.666013
 30
0.000000
 11
2.154002
 21
0.669015
 31
0.000000
  0
LINE
  8
21
 10
2.154002
 20
0.669015
 30
0.000000
 11
2.160008
 21
0.669015
 31
0.000000
  0
LINE
  8
21
 10
2.160008
 20
0.669015
 30
0.000000
 11
2.163010
 21
0.666013
 31
0.000000
  0
LINE
  8
21
 10
2.163010
 20
0.666013
 30
0.000000
 11
2.163010
 21
0.663010
 31
0.000000
  0
LINE
  8
21
 10
2.163010
 20
0.663010
 30
0.000000
 11
2.160008
 21
0.660008
 31
0.000000
  0
LINE
  8
21
 10
2.160008
 20
0.660008
 30
0.000000
 11
2.163010
 21
0.657005
 31
0.000000
  0
LINE
  8
21
 10
2.163010
 20
0.657005
 30
0.000000
 11
2.163010
 21
0.654002
 31
0.000000
  0
LINE
  8
21
 10
2.163010
 20
0.654002
 30
0.000000
 11
2.160008
 21
0.651000
 31
0.000000
  0
LINE
  8
21
 10
2.160008
 20
0.651000
 30
0.000000
 11
2.154002
 21
0.651000
 31
0.000000
  0
LINE
  8
21
 10
2.154002
 20
0.651000
 30
0.000000
 11
2.151000
 21
0.654002
 31
0.000000
  0
LINE
  8
21
 10
2.151000
 20
0.654002
 30
0.000000
 11
2.151000
 21
0.657005
 31
0.000000
  0
LINE
  8
21
 10
2.151000
 20
0.657005
 30
0.000000
 11
2.154002
 21
0.660008
 31
0.000000
  0
LINE
  8
21
 10
2.154002
 20
0.660008
 30
0.000000
 11
2.151000
 21
0.663010
 31
0.000000
  0
LINE
  8
21
 10
2.151000
 20
0.663010
 30
0.000000
 11
2.151000
 21
0.666013
 31
0.000000
  0
LINE
  8
21
 10
2.154002
 20
0.660008
 30
0.000000
 11
2.160008
 21
0.660008
 31
0.000000
  0
LINE
  8
21
 10
2.101000
 20
0.663010
 30
0.000000
 11
2.107005
 21
0.669015
 31
0.000000
  0
LINE
  8
21
 10
2.107005
 20
0.669015
 30
0.000000
 11
2.107005
 21
0.651000
 31
0.000000
  0
LINE
  8
21
 10
2.101000
 20
0.651000
 30
0.000000
 11
2.113010
 21
0.651000
 31
0.000000
  0
LINE
  8
21
 10
2.119416
 20
0.654002
 30
0.000000
 11
2.119416
 21
0.666013
 31
0.000000
  0
LINE
  8
21
 10
2.119416
 20
0.666013
 30
0.000000
 11
2.122418
 21
0.669015
 31
0.000000
  0
LINE
  8
21
 10
2.122418
 20
0.669015
 30
0.000000
 11
2.128423
 21
0.669015
 31
0.000000
  0
LINE
  8
21
 10
2.128423
 20
0.669015
 30
0.000000
 11
2.131426
 21
0.666013
 31
0.000000
  0
LINE
  8
21
 10
2.131426
 20
0.666013
 30
0.000000
 11
2.131426
 21
0.654002
 31
0.000000
  0
LINE
  8
21
 10
2.131426
 20
0.654002
 30
0.000000
 11
2.128423
 21
0.651000
 31
0.000000
  0
LINE
  8
21
 10
2.128423
 20
0.651000
 30
0.000000
 11
2.122418
 21
0.651000
 31
0.000000
  0
LINE
  8
21
 10
2.122418
 20
0.651000
 30
0.000000
 11
2.119416
 21
0.654002
 31
0.000000
  0
LINE
  8
21
 10
2.119416
 20
0.654002
 30
0.000000
 11
2.131426
 21
0.666013
 31
0.000000
  0
LINE
  8
21
 10
2.051000
 20
0.663010
 30
0.000000
 11
2.057005
 21
0.669015
 31
0.000000
  0
LINE
  8
21
 10
2.057005
 20
0.669015
 30
0.000000
 11
2.057005
 21
0.651000
 31
0.000000
  0
LINE
  8
21
 10
2.051000
 20
0.651000
 30
0.000000
 11
2.063010
 21
0.651000
 31
0.000000
  0
LINE
  8
21
 10
2.069416
 20
0.663010
 30
0.000000
 11
2.075421
 21
0.669015
 31
0.000000
  0
LINE
  8
21
 10
2.075421
 20
0.669015
 30
0.000000
 11
2.075421
 21
0.651000
 31
0.000000
  0
LINE
  8
21
 10
2.069416
 20
0.651000
 30
0.000000
 11
2.081426
 21
0.651000
 31
0.000000
  0
CIRCLE
  8
20
 10
2.915000
 20
0.585000
 30
0.000000
 40
0.031496
  0
CIRCLE
  8
20
 10
2.085000
 20
0.585000
 30
0.000000
 40
0.021654
  0
LINE
  8
21
 10
3.460830
 20
0.164389
 30
0.000000
 11
3.437049
 21
0.138824
 31
0.000000
  0
ARC
  8
21
 10
3.420287
 20
0.154417
 30
0.000000
 40
0.022893
 50
270.000122
 51
317.070095
  0
LINE
  8
21
 10
3.420287
 20
0.131523
 30
0.000000
 11
3.204008
 21
0.131523
 31
0.000000
  0
ARC
  8
21
 10
3.204008
 20
0.154417
 30
0.000000
 40
0.022893
 50
222.929793
 51
269.999991
  0
LINE
  8
21
 10
3.187246
 20
0.138824
 30
0.000000
 11
3.163465
 21
0.164389
 31
0.000000
  0
ARC
  8
21
 10
3.187518
 20
0.186764
 30
0.000000
 40
0.032851
 50
179.999974
 51
222.930118
  0
LINE
  8
21
 10
3.154667
 20
0.186764
 30
0.000000
 11
3.154667
 21
0.186905
 31
0.000000
  0
ARC
  8
21
 10
3.183931
 20
0.186905
 30
0.000000
 40
0.029264
 50
90.000000
 51
180.000000
  0
LINE
  8
21
 10
3.183931
 20
0.216169
 30
0.000000
 11
3.440364
 21
0.216169
 31
0.000000
  0
ARC
  8
21
 10
3.440364
 20
0.186905
 30
0.000000
 40
0.029264
 50
0.000000
 51
90.000000
  0
LINE
  8
21
 10
3.469628
 20
0.186905
 30
0.000000
 11
3.469628
 21
0.186764
 31
0.000000
  0
ARC
  8
21
 10
3.436777
 20
0.186764
 30
0.000000
 40
0.032851
 50
317.069911
 51
359.999997
  0
LINE
  8
51
 10
2.290436
 20
0.506246
 30
0.000000
 11
2.760908
 21
0.506246
 31
0.000000
  0
LINE
  8
51
 10
2.760908
 20
0.506246
 30
0.000000
 11
2.760908
 21
0.055458
 31
0.000000
  0
LINE
  8
51
 10
2.760908
 20
0.055458
 30
0.000000
 11
2.290436
 21
0.055458
 31
0.000000
  0
LINE
  8
51
 10
2.290436
 20
0.055458
 30
0.000000
 11
2.290436
 21
0.506246
 31
0.000000
  0
LINE
  8
51
 10
2.228428
 20
0.565301
 30
0.000000
 11
2.817011
 21
0.565301
 31
0.000000
  0
LINE
  8
51
 10
2.817011
 20
0.565301
 30
0.000000
 11
2.817011
 21
-0.003597
 31
0.000000
  0
LINE
  8
51
 10
2.817011
 20
-0.003597
 30
0.000000
 11
2.228428
 21
-0.003597
 31
0.000000
  0
LINE
  8
51
 10
2.228428
 20
-0.003597
 30
0.000000
 11
2.228428
 21
0.565301
 31
0.000000
  0
LINE
  8
21
 10
2.290436
 20
0.321206
 30
0.000000
 11
2.290436
 21
0.124356
 31
0.000000
  0
LINE
  8
21
 10
2.290436
 20
0.478687
 30
0.000000
 11
2.290436
 21
0.506246
 31
0.000000
  0
LINE
  8
21
 10
2.290436
 20
0.506246
 30
0.000000
 11
2.687090
 21
0.506246
 31
0.000000
  0
LINE
  8
21
 10
2.760908
 20
0.360576
 30
0.000000
 11
2.760908
 21
0.124356
 31
0.000000
  0
ARC
  8
21
 10
2.650672
 20
0.021009
 30
0.000000
 40
0.001969
 50
180.000000
 51
0.000000
  0
ARC
  8
21
 10
2.650672
 20
0.021009
 30
0.000000
 40
0.001969
 50
0.000000
 51
180.000000
  0
LINE
  8
21
 10
1.968504
 20
2.347835
 30
0.000000
 11
1.993504
 21
2.372835
 31
0.000000
  0
LINE
  8
21
 10
1.993504
 20
2.372835
 30
0.000000
 11
2.043504
 21
2.372835
 31
0.000000
  0
LINE
  8
21
 10
2.043504
 20
2.372835
 30
0.000000
 11
2.068504
 21
2.347835
 31
0.000000
  0
LINE
  8
21
 10
2.068504
 20
2.347835
 30
0.000000
 11
2.068504
 21
2.297835
 31
0.000000
  0
LINE
  8
21
 10
2.068504
 20
2.297835
 30
0.000000
 11
2.043504
 21
2.272835
 31
0.000000
  0
LINE
  8
21
 10
2.043504
 20
2.272835
 30
0.000000
 11
1.993504
 21
2.272835
 31
0.000000
  0
LINE
  8
21
 10
1.993504
 20
2.272835
 30
0.000000
 11
1.968504
 21
2.297835
 31
0.000000
  0
LINE
  8
21
 10
1.793504
 20
2.372835
 30
0.000000
 11
1.843504
 21
2.372835
 31
0.000000
  0
LINE
  8
21
 10
1.843504
 20
2.372835
 30
0.000000
 11
1.868504
 21
2.347835
 31
0.000000
  0
LINE
  8
21
 10
1.868504
 20
2.347835
 30
0.000000
 11
1.868504
 21
2.297835
 31
0.000000
  0
LINE
  8
21
 10
1.868504
 20
2.297835
 30
0.000000
 11
1.843504
 21
2.272835
 31
0.000000
  0
LINE
  8
21
 10
1.868504
 20
2.347835
 30
0.000000
 11
1.893504
 21
2.372835
 31
0.000000
  0
LINE
  8
21
 10
1.893504
 20
2.372835
 30
0.000000
 11
1.943504
 21
2.372835
 31
0.000000
  0
LINE
  8
21
 10
1.943504
 20
2.372835
 30
0.000000
 11
1.968504
 21
2.347835
 31
0.000000
  0
LINE
  8
21
 10
1.968504
 20
2.347835
 30
0.000000
 11
1.968504
 21
2.297835
 31
0.000000
  0
LINE
  8
21
 10
1.968504
 20
2.297835
 30
0.000000
 11
1.943504
 21
2.272835
 31
0.000000
  0
LINE
  8
21
 10
1.943504
 20
2.272835
 30
0.000000
 11
1.893504
 21
2.272835
 31
0.000000
  0
LINE
  8
21
 10
1.893504
 20
2.272835
 30
0.000000
 11
1.868504
 21
2.297835
 31
0.000000
  0
LINE
  8
21
 10
1.768504
 20
2.347835
 30
0.000000
 11
1.768504
 21
2.297835
 31
0.000000
  0
LINE
  8
21
 10
1.793504
 20
2.372835
 30
0.000000
 11
1.768504
 21
2.347835
 31
0.000000
  0
LINE
  8
21
 10
1.768504
 20
2.297835
 30
0.000000
 11
1.793504
 21
2.272835
 31
0.000000
  0
LINE
  8
21
 10
1.843504
 20
2.272835
 30
0.000000
 11
1.793504
 21
2.272835
 31
0.000000
  0
LINE
  8
21
 10
2.093504
 20
2.372835
 30
0.000000
 11
2.143504
 21
2.372835
 31
0.000000
  0
LINE
  8
21
 10
2.143504
 20
2.372835
 30
0.000000
 11
2.168504
 21
2.347835
 31
0.000000
  0
LINE
  8
21
 10
2.168504
 20
2.347835
 30
0.000000
 11
2.168504
 21
2.297835
 31
0.000000
  0
LINE
  8
21
 10
2.168504
 20
2.297835
 30
0.000000
 11
2.143504
 21
2.272835
 31
0.000000
  0
LINE
  8
21
 10
2.093504
 20
2.372835
 30
0.000000
 11
2.068504
 21
2.347835
 31
0.000000
  0
LINE
  8
21
 10
2.068504
 20
2.297835
 30
0.000000
 11
2.093504
 21
2.272835
 31
0.000000
  0
LINE
  8
21
 10
2.143504
 20
2.272835
 30
0.000000
 11
2.093504
 21
2.272835
 31
0.000000
  0
INSERT
  8
51
  2
RECT
 10
2.018504
 20
2.322835
 30
0.000000
 41
0.020000
 42
0.020000
 43
1.000000
 50
0.000000
  0
INSERT
  8
51
  2
RECT
 10
1.918504
 20
2.322835
 30
0.000000
 41
0.020000
 42
0.020000
 43
1.000000
 50
0.000000
  0
INSERT
  8
51
  2
RECT
 10
1.818504
 20
2.322835
 30
0.000000
 41
0.020000
 42
0.020000
 43
1.000000
 50
0.000000
  0
INSERT
  8
51
  2
RECT
 10
2.118504
 20
2.322835
 30
0.000000
 41
0.020000
 42
0.020000
 43
1.000000
 50
0.000000
  0
LINE
  8
21
 10
2.627410
 20
1.985648
 30
0.000000
 11
2.612410
 21
1.985648
 31
0.000000
  0
LINE
  8
21
 10
2.612410
 20
1.985648
 30
0.000000
 11
2.612410
 21
2.065648
 31
0.000000
  0
LINE
  8
21
 10
2.612410
 20
2.065648
 30
0.000000
 11
2.627410
 21
2.065648
 31
0.000000
  0
LINE
  8
21
 10
2.627410
 20
2.065648
 30
0.000000
 11
2.627410
 21
1.985648
 31
0.000000
  0
LINE
  8
21
 10
2.612410
 20
2.065648
 30
0.000000
 11
2.612410
 21
1.985648
 31
0.000000
  0
LINE
  8
21
 10
2.617410
 20
2.065648
 30
0.000000
 11
2.617410
 21
1.985648
 31
0.000000
  0
LINE
  8
21
 10
2.622410
 20
2.065648
 30
0.000000
 11
2.622410
 21
1.985648
 31
0.000000
  0
LINE
  8
21
 10
2.905205
 20
2.233129
 30
0.000000
 11
2.905205
 21
1.818168
 31
0.000000
  0
LINE
  8
21
 10
2.905205
 20
1.818168
 30
0.000000
 11
2.629615
 21
1.818168
 31
0.000000
  0
LINE
  8
21
 10
2.629615
 20
1.818168
 30
0.000000
 11
2.629615
 21
1.986278
 31
0.000000
  0
LINE
  8
21
 10
2.629615
 20
1.986278
 30
0.000000
 11
2.629615
 21
2.065018
 31
0.000000
  0
LINE
  8
21
 10
2.629615
 20
2.065018
 30
0.000000
 11
2.629615
 21
2.233129
 31
0.000000
  0
LINE
  8
21
 10
2.629615
 20
2.233129
 30
0.000000
 11
2.905205
 21
2.233129
 31
0.000000
  0
LINE
  8
21
 10
2.629615
 20
2.065018
 30
0.000000
 11
2.609930
 21
2.065018
 31
0.000000
  0
LINE
  8
21
 10
2.609930
 20
2.065018
 30
0.000000
 11
2.609930
 21
1.986278
 31
0.000000
  0
LINE
  8
21
 10
2.609930
 20
1.986278
 30
0.000000
 11
2.629615
 21
1.986278
 31
0.000000
  0
LINE
  8
51
 10
1.529118
 20
0.252445
 30
0.000000
 11
1.318882
 21
0.252445
 31
0.000000
  0
LINE
  8
51
 10
1.318882
 20
0.252445
 30
0.000000
 11
1.318882
 21
0.468429
 31
0.000000
  0
LINE
  8
51
 10
1.318882
 20
0.468429
 30
0.000000
 11
1.529118
 21
0.468429
 31
0.000000
  0
LINE
  8
51
 10
1.529118
 20
0.468429
 30
0.000000
 11
1.529118
 21
0.252445
 31
0.000000
  0
LINE
  8
21
 10
1.528331
 20
0.253232
 30
0.000000
 11
1.319669
 21
0.253232
 31
0.000000
  0
LINE
  8
21
 10
1.319669
 20
0.253232
 30
0.000000
 11
1.319669
 21
0.469768
 31
0.000000
  0
LINE
  8
21
 10
1.319669
 20
0.469768
 30
0.000000
 11
1.528331
 21
0.469768
 31
0.000000
  0
LINE
  8
21
 10
1.528331
 20
0.469768
 30
0.000000
 11
1.528331
 21
0.253232
 31
0.000000
  0
LINE
  8
51
 10
0.814118
 20
0.244195
 30
0.000000
 11
0.603882
 21
0.244195
 31
0.000000
  0
LINE
  8
51
 10
0.603882
 20
0.244195
 30
0.000000
 11
0.603882
 21
0.460179
 31
0.000000
  0
LINE
  8
51
 10
0.603882
 20
0.460179
 30
0.000000
 11
0.814118
 21
0.460179
 31
0.000000
  0
LINE
  8
51
 10
0.814118
 20
0.460179
 30
0.000000
 11
0.814118
 21
0.244195
 31
0.000000
  0
LINE
  8
21
 10
0.813331
 20
0.244982
 30
0.000000
 11
0.604669
 21
0.244982
 31
0.000000
  0
LINE
  8
21
 10
0.604669
 20
0.244982
 30
0.000000
 11
0.604669
 21
0.461518
 31
0.000000
  0
LINE
  8
21
 10
0.604669
 20
0.461518
 30
0.000000
 11
0.813331
 21
0.461518
 31
0.000000
  0
LINE
  8
21
 10
0.813331
 20
0.461518
 30
0.000000
 11
0.813331
 21
0.244982
 31
0.000000
  0
LINE
  8
21
 10
2.963000
 20
1.434250
 30
0.000000
 11
3.013000
 21
1.434250
 31
0.000000
  0
LINE
  8
21
 10
3.013000
 20
1.434250
 30
0.000000
 11
3.038000
 21
1.409250
 31
0.000000
  0
LINE
  8
21
 10
3.038000
 20
1.409250
 30
0.000000
 11
3.038000
 21
1.359250
 31
0.000000
  0
LINE
  8
21
 10
3.038000
 20
1.359250
 30
0.000000
 11
3.013000
 21
1.334250
 31
0.000000
  0
LINE
  8
21
 10
2.938000
 20
1.409250
 30
0.000000
 11
2.938000
 21
1.359250
 31
0.000000
  0
LINE
  8
21
 10
2.963000
 20
1.434250
 30
0.000000
 11
2.938000
 21
1.409250
 31
0.000000
  0
LINE
  8
21
 10
2.938000
 20
1.359250
 30
0.000000
 11
2.963000
 21
1.334250
 31
0.000000
  0
LINE
  8
21
 10
3.013000
 20
1.334250
 30
0.000000
 11
2.963000
 21
1.334250
 31
0.000000
  0
LINE
  8
21
 10
3.038000
 20
1.409250
 30
0.000000
 11
3.063000
 21
1.434250
 31
0.000000
  0
LINE
  8
21
 10
3.063000
 20
1.434250
 30
0.000000
 11
3.113000
 21
1.434250
 31
0.000000
  0
LINE
  8
21
 10
3.113000
 20
1.434250
 30
0.000000
 11
3.138000
 21
1.409250
 31
0.000000
  0
LINE
  8
21
 10
3.138000
 20
1.409250
 30
0.000000
 11
3.138000
 21
1.359250
 31
0.000000
  0
LINE
  8
21
 10
3.138000
 20
1.359250
 30
0.000000
 11
3.113000
 21
1.334250
 31
0.000000
  0
LINE
  8
21
 10
3.113000
 20
1.334250
 30
0.000000
 11
3.063000
 21
1.334250
 31
0.000000
  0
LINE
  8
21
 10
3.063000
 20
1.334250
 30
0.000000
 11
3.038000
 21
1.359250
 31
0.000000
  0
INSERT
  8
51
  2
RECT
 10
2.988000
 20
1.384250
 30
0.000000
 41
0.020000
 42
0.020000
 43
1.000000
 50
0.000000
  0
INSERT
  8
51
  2
RECT
 10
3.088000
 20
1.384250
 30
0.000000
 41
0.020000
 42
0.020000
 43
1.000000
 50
0.000000
  0
LINE
  8
51
 10
0.781656
 20
1.631750
 30
0.000000
 11
0.781656
 21
1.579750
 31
0.000000
  0
LINE
  8
51
 10
0.781656
 20
1.579750
 30
0.000000
 11
0.657844
 21
1.579750
 31
0.000000
  0
LINE
  8
51
 10
0.657844
 20
1.579750
 30
0.000000
 11
0.657844
 21
1.631750
 31
0.000000
  0
LINE
  8
51
 10
0.657844
 20
1.631750
 30
0.000000
 11
0.781656
 21
1.631750
 31
0.000000
  0
LINE
  8
21
 10
0.653907
 20
1.580065
 30
0.000000
 11
0.653907
 21
1.631750
 31
0.000000
  0
LINE
  8
21
 10
0.653907
 20
1.631750
 30
0.000000
 11
0.691656
 21
1.631750
 31
0.000000
  0
LINE
  8
21
 10
0.785593
 20
1.631750
 30
0.000000
 11
0.785593
 21
1.580065
 31
0.000000
  0
LINE
  8
21
 10
0.747844
 20
1.631750
 30
0.000000
 11
0.785593
 21
1.631750
 31
0.000000
  0
LINE
  8
21
 10
0.728506
 20
1.579750
 30
0.000000
 11
0.710443
 21
1.579750
 31
0.000000
  0
INSERT
  8
51
  2
RECT
 10
0.719750
 20
1.645250
 30
0.000000
 41
0.018000
 42
0.023000
 43
1.000000
 50
0.000000
  0
INSERT
  8
51
  2
RECT
 10
0.756750
 20
1.566250
 30
0.000000
 41
0.018000
 42
0.023000
 43
1.000000
 50
0.000000
  0
INSERT
  8
51
  2
RECT
 10
0.682750
 20
1.566250
 30
0.000000
 41
0.018000
 42
0.023000
 43
1.000000
 50
0.000000
  0
LINE
  8
51
 10
1.353500
 20
1.407750
 30
0.000000
 11
1.405500
 21
1.407750
 31
0.000000
  0
LINE
  8
51
 10
1.405500
 20
1.407750
 30
0.000000
 11
1.405500
 21
1.295750
 31
0.000000
  0
LINE
  8
51
 10
1.405500
 20
1.295750
 30
0.000000
 11
1.353500
 21
1.295750
 31
0.000000
  0
LINE
  8
51
 10
1.353500
 20
1.295750
 30
0.000000
 11
1.353500
 21
1.407750
 31
0.000000
  0
INSERT
  8
51
  2
RECT
 10
1.340000
 20
1.351750
 30
0.000000
 41
0.018000
 42
0.023000
 43
1.000000
 50
90.000000
  0
INSERT
  8
51
  2
RECT
 10
1.419000
 20
1.388750
 30
0.000000
 41
0.018000
 42
0.023000
 43
1.000000
 50
90.000000
  0
INSERT
  8
51
  2
RECT
 10
1.419000
 20
1.314750
 30
0.000000
 41
0.018000
 42
0.023000
 43
1.000000
 50
90.000000
  0
LINE
  8
51
 10
0.343656
 20
2.749890
 30
0.000000
 11
0.343656
 21
2.697890
 31
0.000000
  0
LINE
  8
51
 10
0.343656
 20
2.697890
 30
0.000000
 11
0.219844
 21
2.697890
 31
0.000000
  0
LINE
  8
51
 10
0.219844
 20
2.697890
 30
0.000000
 11
0.219844
 21
2.749890
 31
0.000000
  0
LINE
  8
51
 10
0.219844
 20
2.749890
 30
0.000000
 11
0.343656
 21
2.749890
 31
0.000000
  0
LINE
  8
21
 10
0.215907
 20
2.698205
 30
0.000000
 11
0.215907
 21
2.749890
 31
0.000000
  0
LINE
  8
21
 10
0.215907
 20
2.749890
 30
0.000000
 11
0.253656
 21
2.749890
 31
0.000000
  0
LINE
  8
21
 10
0.347593
 20
2.749890
 30
0.000000
 11
0.347593
 21
2.698205
 31
0.000000
  0
LINE
  8
21
 10
0.309844
 20
2.749890
 30
0.000000
 11
0.347593
 21
2.749890
 31
0.000000
  0
LINE
  8
21
 10
0.290506
 20
2.697890
 30
0.000000
 11
0.272443
 21
2.697890
 31
0.000000
  0
INSERT
  8
51
  2
RECT
 10
0.281750
 20
2.763390
 30
0.000000
 41
0.018000
 42
0.023000
 43
1.000000
 50
0.000000
  0
INSERT
  8
51
  2
RECT
 10
0.318750
 20
2.684390
 30
0.000000
 41
0.018000
 42
0.023000
 43
1.000000
 50
0.000000
  0
INSERT
  8
51
  2
RECT
 10
0.244750
 20
2.684390
 30
0.000000
 41
0.018000
 42
0.023000
 43
1.000000
 50
0.000000
  0
LINE
  8
51
 10
0.539656
 20
2.749890
 30
0.000000
 11
0.539656
 21
2.697890
 31
0.000000
  0
LINE
  8
51
 10
0.539656
 20
2.697890
 30
0.000000
 11
0.415844
 21
2.697890
 31
0.000000
  0
LINE
  8
51
 10
0.415844
 20
2.697890
 30
0.000000
 11
0.415844
 21
2.749890
 31
0.000000
  0
LINE
  8
51
 10
0.415844
 20
2.749890
 30
0.000000
 11
0.539656
 21
2.749890
 31
0.000000
  0
LINE
  8
21
 10
0.411907
 20
2.698205
 30
0.000000
 11
0.411907
 21
2.749890
 31
0.000000
  0
LINE
  8
21
 10
0.411907
 20
2.749890
 30
0.000000
 11
0.449656
 21
2.749890
 31
0.000000
  0
LINE
  8
21
 10
0.543593
 20
2.749890
 30
0.000000
 11
0.543593
 21
2.698205
 31
0.000000
  0
LINE
  8
21
 10
0.505844
 20
2.749890
 30
0.000000
 11
0.543593
 21
2.749890
 31
0.000000
  0
LINE
  8
21
 10
0.486506
 20
2.697890
 30
0.000000
 11
0.468443
 21
2.697890
 31
0.000000
  0
INSERT
  8
51
  2
RECT
 10
0.477750
 20
2.763390
 30
0.000000
 41
0.018000
 42
0.023000
 43
1.000000
 50
0.000000
  0
INSERT
  8
51
  2
RECT
 10
0.514750
 20
2.684390
 30
0.000000
 41
0.018000
 42
0.023000
 43
1.000000
 50
0.000000
  0
INSERT
  8
51
  2
RECT
 10
0.440750
 20
2.684390
 30
0.000000
 41
0.018000
 42
0.023000
 43
1.000000
 50
0.000000
  0
LINE
  8
51
 10
0.825000
 20
1.675250
 30
0.000000
 11
0.797000
 21
1.675250
 31
0.000000
  0
LINE
  8
51
 10
0.797000
 20
1.675250
 30
0.000000
 11
0.779000
 21
1.693250
 31
0.000000
  0
LINE
  8
51
 10
0.779000
 20
1.693250
 30
0.000000
 11
0.779000
 21
1.859250
 31
0.000000
  0
LINE
  8
51
 10
0.779000
 20
1.859250
 30
0.000000
 11
0.797000
 21
1.877250
 31
0.000000
  0
LINE
  8
51
 10
0.797000
 20
1.877250
 30
0.000000
 11
0.825000
 21
1.877250
 31
0.000000
  0
LINE
  8
51
 10
0.825000
 20
1.877250
 30
0.000000
 11
0.825000
 21
1.675250
 31
0.000000
  0
LINE
  8
51
 10
0.820000
 20
1.675250
 30
0.000000
 11
0.820000
 21
1.877250
 31
0.000000
  0
LINE
  8
51
 10
0.812000
 20
1.675250
 30
0.000000
 11
0.812000
 21
1.877250
 31
0.000000
  0
LINE
  8
51
 10
0.804000
 20
1.675250
 30
0.000000
 11
0.804000
 21
1.877250
 31
0.000000
  0
LINE
  8
51
 10
0.796000
 20
1.676250
 30
0.000000
 11
0.796000
 21
1.876250
 31
0.000000
  0
LINE
  8
51
 10
0.788000
 20
1.684250
 30
0.000000
 11
0.788000
 21
1.868250
 31
0.000000
  0
LINE
  8
51
 10
0.780000
 20
1.692250
 30
0.000000
 11
0.780000
 21
1.860250
 31
0.000000
  0
LINE
  8
21
 10
0.829000
 20
1.905250
 30
0.000000
 11
1.065000
 21
1.905266
 31
0.000000
  0
LINE
  8
21
 10
1.065000
 20
1.905266
 30
0.000000
 11
1.065000
 21
1.647234
 31
0.000000
  0
LINE
  8
21
 10
1.065000
 20
1.647234
 30
0.000000
 11
0.829000
 21
1.647250
 31
0.000000
  0
LINE
  8
51
 10
0.829016
 20
1.647234
 30
0.000000
 11
0.829031
 21
1.905281
 31
0.000000
  0
LINE
  8
51
 10
0.825000
 20
1.675250
 30
0.000000
 11
0.797000
 21
1.675250
 31
0.000000
  0
LINE
  8
51
 10
0.797000
 20
1.675250
 30
0.000000
 11
0.779000
 21
1.693250
 31
0.000000
  0
LINE
  8
51
 10
0.779000
 20
1.693250
 30
0.000000
 11
0.779000
 21
1.859250
 31
0.000000
  0
LINE
  8
51
 10
0.779000
 20
1.859250
 30
0.000000
 11
0.797000
 21
1.877250
 31
0.000000
  0
LINE
  8
51
 10
0.797000
 20
1.877250
 30
0.000000
 11
0.825000
 21
1.877250
 31
0.000000
  0
LINE
  8
51
 10
0.825000
 20
1.877250
 30
0.000000
 11
0.825000
 21
1.675250
 31
0.000000
  0
INSERT
  8
51
  2
RECT
 10
1.126000
 20
1.686250
 30
0.000000
 41
0.034000
 42
0.114000
 43
1.000000
 50
90.000000
  0
INSERT
  8
51
  2
RECT
 10
1.126000
 20
1.866250
 30
0.000000
 41
0.034000
 42
0.114000
 43
1.000000
 50
90.000000
  0
INSERT
  8
21
  2
RECT
 10
1.084000
 20
1.776250
 30
0.000000
 41
0.034000
 42
0.030000
 43
1.000000
 50
90.000000
  0
LINE
  8
51
 10
1.655631
 20
2.757240
 30
0.000000
 11
1.655631
 21
2.705240
 31
0.000000
  0
LINE
  8
51
 10
1.655631
 20
2.705240
 30
0.000000
 11
1.531820
 21
2.705240
 31
0.000000
  0
LINE
  8
51
 10
1.531820
 20
2.705240
 30
0.000000
 11
1.531820
 21
2.757240
 31
0.000000
  0
LINE
  8
51
 10
1.531820
 20
2.757240
 30
0.000000
 11
1.655631
 21
2.757240
 31
0.000000
  0
LINE
  8
21
 10
1.527883
 20
2.705555
 30
0.000000
 11
1.527883
 21
2.757240
 31
0.000000
  0
LINE
  8
21
 10
1.527883
 20
2.757240
 30
0.000000
 11
1.565631
 21
2.757240
 31
0.000000
  0
LINE
  8
21
 10
1.659568
 20
2.757240
 30
0.000000
 11
1.659568
 21
2.705555
 31
0.000000
  0
LINE
  8
21
 10
1.621820
 20
2.757240
 30
0.000000
 11
1.659568
 21
2.757240
 31
0.000000
  0
LINE
  8
21
 10
1.602481
 20
2.705240
 30
0.000000
 11
1.584418
 21
2.705240
 31
0.000000
  0
INSERT
  8
51
  2
RECT
 10
1.593725
 20
2.770740
 30
0.000000
 41
0.018000
 42
0.023000
 43
1.000000
 50
0.000000
  0
INSERT
  8
51
  2
RECT
 10
1.630725
 20
2.691740
 30
0.000000
 41
0.018000
 42
0.023000
 43
1.000000
 50
0.000000
  0
INSERT
  8
51
  2
RECT
 10
1.556725
 20
2.691740
 30
0.000000
 41
0.018000
 42
0.023000
 43
1.000000
 50
0.000000
  0
LINE
  8
51
 10
1.470656
 20
2.757750
 30
0.000000
 11
1.470656
 21
2.705750
 31
0.000000
  0
LINE
  8
51
 10
1.470656
 20
2.705750
 30
0.000000
 11
1.346844
 21
2.705750
 31
0.000000
  0
LINE
  8
51
 10
1.346844
 20
2.705750
 30
0.000000
 11
1.346844
 21
2.757750
 31
0.000000
  0
LINE
  8
51
 10
1.346844
 20
2.757750
 30
0.000000
 11
1.470656
 21
2.757750
 31
0.000000
  0
LINE
  8
21
 10
1.342907
 20
2.706065
 30
0.000000
 11
1.342907
 21
2.757750
 31
0.000000
  0
LINE
  8
21
 10
1.342907
 20
2.757750
 30
0.000000
 11
1.380656
 21
2.757750
 31
0.000000
  0
LINE
  8
21
 10
1.474593
 20
2.757750
 30
0.000000
 11
1.474593
 21
2.706065
 31
0.000000
  0
LINE
  8
21
 10
1.436844
 20
2.757750
 30
0.000000
 11
1.474593
 21
2.757750
 31
0.000000
  0
LINE
  8
21
 10
1.417506
 20
2.705750
 30
0.000000
 11
1.399443
 21
2.705750
 31
0.000000
  0
INSERT
  8
51
  2
RECT
 10
1.408750
 20
2.771250
 30
0.000000
 41
0.018000
 42
0.023000
 43
1.000000
 50
0.000000
  0
INSERT
  8
51
  2
RECT
 10
1.445750
 20
2.692250
 30
0.000000
 41
0.018000
 42
0.023000
 43
1.000000
 50
0.000000
  0
INSERT
  8
51
  2
RECT
 10
1.371750
 20
2.692250
 30
0.000000
 41
0.018000
 42
0.023000
 43
1.000000
 50
0.000000
  0
LINE
  8
51
 10
2.548656
 20
2.749890
 30
0.000000
 11
2.548656
 21
2.697890
 31
0.000000
  0
LINE
  8
51
 10
2.548656
 20
2.697890
 30
0.000000
 11
2.424844
 21
2.697890
 31
0.000000
  0
LINE
  8
51
 10
2.424844
 20
2.697890
 30
0.000000
 11
2.424844
 21
2.749890
 31
0.000000
  0
LINE
  8
51
 10
2.424844
 20
2.749890
 30
0.000000
 11
2.548656
 21
2.749890
 31
0.000000
  0
LINE
  8
21
 10
2.420907
 20
2.698205
 30
0.000000
 11
2.420907
 21
2.749890
 31
0.000000
  0
LINE
  8
21
 10
2.420907
 20
2.749890
 30
0.000000
 11
2.458656
 21
2.749890
 31
0.000000
  0
LINE
  8
21
 10
2.552593
 20
2.749890
 30
0.000000
 11
2.552593
 21
2.698205
 31
0.000000
  0
LINE
  8
21
 10
2.514844
 20
2.749890
 30
0.000000
 11
2.552593
 21
2.749890
 31
0.000000
  0
LINE
  8
21
 10
2.495506
 20
2.697890
 30
0.000000
 11
2.477443
 21
2.697890
 31
0.000000
  0
INSERT
  8
51
  2
RECT
 10
2.486750
 20
2.763390
 30
0.000000
 41
0.018000
 42
0.023000
 43
1.000000
 50
0.000000
  0
INSERT
  8
51
  2
RECT
 10
2.523750
 20
2.684390
 30
0.000000
 41
0.018000
 42
0.023000
 43
1.000000
 50
0.000000
  0
INSERT
  8
51
  2
RECT
 10
2.449750
 20
2.684390
 30
0.000000
 41
0.018000
 42
0.023000
 43
1.000000
 50
0.000000
  0
LINE
  8
51
 10
2.727506
 20
2.749175
 30
0.000000
 11
2.727506
 21
2.697175
 31
0.000000
  0
LINE
  8
51
 10
2.727506
 20
2.697175
 30
0.000000
 11
2.603695
 21
2.697175
 31
0.000000
  0
LINE
  8
51
 10
2.603695
 20
2.697175
 30
0.000000
 11
2.603695
 21
2.749175
 31
0.000000
  0
LINE
  8
51
 10
2.603695
 20
2.749175
 30
0.000000
 11
2.727506
 21
2.749175
 31
0.000000
  0
LINE
  8
21
 10
2.599758
 20
2.697490
 30
0.000000
 11
2.599758
 21
2.749175
 31
0.000000
  0
LINE
  8
21
 10
2.599758
 20
2.749175
 30
0.000000
 11
2.637506
 21
2.749175
 31
0.000000
  0
LINE
  8
21
 10
2.731443
 20
2.749175
 30
0.000000
 11
2.731443
 21
2.697490
 31
0.000000
  0
LINE
  8
21
 10
2.693695
 20
2.749175
 30
0.000000
 11
2.731443
 21
2.749175
 31
0.000000
  0
LINE
  8
21
 10
2.674356
 20
2.697175
 30
0.000000
 11
2.656293
 21
2.697175
 31
0.000000
  0
INSERT
  8
51
  2
RECT
 10
2.665600
 20
2.762675
 30
0.000000
 41
0.018000
 42
0.023000
 43
1.000000
 50
0.000000
  0
INSERT
  8
51
  2
RECT
 10
2.702600
 20
2.683675
 30
0.000000
 41
0.018000
 42
0.023000
 43
1.000000
 50
0.000000
  0
INSERT
  8
51
  2
RECT
 10
2.628600
 20
2.683675
 30
0.000000
 41
0.018000
 42
0.023000
 43
1.000000
 50
0.000000
  0
LINE
  8
51
 10
3.710250
 20
3.491906
 30
0.000000
 11
3.762250
 21
3.491906
 31
0.000000
  0
LINE
  8
51
 10
3.762250
 20
3.491906
 30
0.000000
 11
3.762250
 21
3.368094
 31
0.000000
  0
LINE
  8
51
 10
3.762250
 20
3.368094
 30
0.000000
 11
3.710250
 21
3.368094
 31
0.000000
  0
LINE
  8
51
 10
3.710250
 20
3.368094
 30
0.000000
 11
3.710250
 21
3.491906
 31
0.000000
  0
LINE
  8
21
 10
3.761935
 20
3.364157
 30
0.000000
 11
3.710250
 21
3.364157
 31
0.000000
  0
LINE
  8
21
 10
3.710250
 20
3.364157
 30
0.000000
 11
3.710250
 21
3.401906
 31
0.000000
  0
LINE
  8
21
 10
3.710250
 20
3.495843
 30
0.000000
 11
3.761935
 21
3.495843
 31
0.000000
  0
LINE
  8
21
 10
3.710250
 20
3.458094
 30
0.000000
 11
3.710250
 21
3.495843
 31
0.000000
  0
LINE
  8
21
 10
3.762250
 20
3.438756
 30
0.000000
 11
3.762250
 21
3.420693
 31
0.000000
  0
INSERT
  8
51
  2
RECT
 10
3.696750
 20
3.430000
 30
0.000000
 41
0.018000
 42
0.023000
 43
1.000000
 50
90.000000
  0
INSERT
  8
51
  2
RECT
 10
3.775750
 20
3.467000
 30
0.000000
 41
0.018000
 42
0.023000
 43
1.000000
 50
90.000000
  0
INSERT
  8
51
  2
RECT
 10
3.775750
 20
3.393000
 30
0.000000
 41
0.018000
 42
0.023000
 43
1.000000
 50
90.000000
  0
LINE
  8
51
 10
3.710250
 20
3.259156
 30
0.000000
 11
3.762250
 21
3.259156
 31
0.000000
  0
LINE
  8
51
 10
3.762250
 20
3.259156
 30
0.000000
 11
3.762250
 21
3.135344
 31
0.000000
  0
LINE
  8
51
 10
3.762250
 20
3.135344
 30
0.000000
 11
3.710250
 21
3.135344
 31
0.000000
  0
LINE
  8
51
 10
3.710250
 20
3.135344
 30
0.000000
 11
3.710250
 21
3.259156
 31
0.000000
  0
LINE
  8
21
 10
3.761935
 20
3.131407
 30
0.000000
 11
3.710250
 21
3.131407
 31
0.000000
  0
LINE
  8
21
 10
3.710250
 20
3.131407
 30
0.000000
 11
3.710250
 21
3.169156
 31
0.000000
  0
LINE
  8
21
 10
3.710250
 20
3.263093
 30
0.000000
 11
3.761935
 21
3.263093
 31
0.000000
  0
LINE
  8
21
 10
3.710250
 20
3.225344
 30
0.000000
 11
3.710250
 21
3.263093
 31
0.000000
  0
LINE
  8
21
 10
3.762250
 20
3.206006
 30
0.000000
 11
3.762250
 21
3.187943
 31
0.000000
  0
INSERT
  8
51
  2
RECT
 10
3.696750
 20
3.197250
 30
0.000000
 41
0.018000
 42
0.023000
 43
1.000000
 50
90.000000
  0
INSERT
  8
51
  2
RECT
 10
3.775750
 20
3.234250
 30
0.000000
 41
0.018000
 42
0.023000
 43
1.000000
 50
90.000000
  0
INSERT
  8
51
  2
RECT
 10
3.775750
 20
3.160250
 30
0.000000
 41
0.018000
 42
0.023000
 43
1.000000
 50
90.000000
  0
LINE
  8
51
 10
1.838156
 20
2.757750
 30
0.000000
 11
1.838156
 21
2.705750
 31
0.000000
  0
LINE
  8
51
 10
1.838156
 20
2.705750
 30
0.000000
 11
1.714344
 21
2.705750
 31
0.000000
  0
LINE
  8
51
 10
1.714344
 20
2.705750
 30
0.000000
 11
1.714344
 21
2.757750
 31
0.000000
  0
LINE
  8
51
 10
1.714344
 20
2.757750
 30
0.000000
 11
1.838156
 21
2.757750
 31
0.000000
  0
LINE
  8
21
 10
1.710407
 20
2.706065
 30
0.000000
 11
1.710407
 21
2.757750
 31
0.000000
  0
LINE
  8
21
 10
1.710407
 20
2.757750
 30
0.000000
 11
1.748156
 21
2.757750
 31
0.000000
  0
LINE
  8
21
 10
1.842093
 20
2.757750
 30
0.000000
 11
1.842093
 21
2.706065
 31
0.000000
  0
LINE
  8
21
 10
1.804344
 20
2.757750
 30
0.000000
 11
1.842093
 21
2.757750
 31
0.000000
  0
LINE
  8
21
 10
1.785006
 20
2.705750
 30
0.000000
 11
1.766943
 21
2.705750
 31
0.000000
  0
INSERT
  8
51
  2
RECT
 10
1.776250
 20
2.771250
 30
0.000000
 41
0.018000
 42
0.023000
 43
1.000000
 50
0.000000
  0
INSERT
  8
51
  2
RECT
 10
1.813250
 20
2.692250
 30
0.000000
 41
0.018000
 42
0.023000
 43
1.000000
 50
0.000000
  0
INSERT
  8
51
  2
RECT
 10
1.739250
 20
2.692250
 30
0.000000
 41
0.018000
 42
0.023000
 43
1.000000
 50
0.000000
  0
LINE
  8
51
 10
2.021906
 20
2.757750
 30
0.000000
 11
2.021906
 21
2.705750
 31
0.000000
  0
LINE
  8
51
 10
2.021906
 20
2.705750
 30
0.000000
 11
1.898094
 21
2.705750
 31
0.000000
  0
LINE
  8
51
 10
1.898094
 20
2.705750
 30
0.000000
 11
1.898094
 21
2.757750
 31
0.000000
  0
LINE
  8
51
 10
1.898094
 20
2.757750
 30
0.000000
 11
2.021906
 21
2.757750
 31
0.000000
  0
LINE
  8
21
 10
1.894157
 20
2.706065
 30
0.000000
 11
1.894157
 21
2.757750
 31
0.000000
  0
LINE
  8
21
 10
1.894157
 20
2.757750
 30
0.000000
 11
1.931906
 21
2.757750
 31
0.000000
  0
LINE
  8
21
 10
2.025843
 20
2.757750
 30
0.000000
 11
2.025843
 21
2.706065
 31
0.000000
  0
LINE
  8
21
 10
1.988094
 20
2.757750
 30
0.000000
 11
2.025843
 21
2.757750
 31
0.000000
  0
LINE
  8
21
 10
1.968756
 20
2.705750
 30
0.000000
 11
1.950693
 21
2.705750
 31
0.000000
  0
INSERT
  8
51
  2
RECT
 10
1.960000
 20
2.771250
 30
0.000000
 41
0.018000
 42
0.023000
 43
1.000000
 50
0.000000
  0
INSERT
  8
51
  2
RECT
 10
1.997000
 20
2.692250
 30
0.000000
 41
0.018000
 42
0.023000
 43
1.000000
 50
0.000000
  0
INSERT
  8
51
  2
RECT
 10
1.923000
 20
2.692250
 30
0.000000
 41
0.018000
 42
0.023000
 43
1.000000
 50
0.000000
  0
LINE
  8
51
 10
3.843008
 20
0.809766
 30
0.000000
 11
3.808992
 21
0.809766
 31
0.000000
  0
LINE
  8
51
 10
3.808992
 20
0.781734
 30
0.000000
 11
3.843008
 21
0.781734
 31
0.000000
  0
INSERT
  8
51
  2
RECT
 10
3.801000
 20
0.795750
 30
0.000000
 41
0.016000
 42
0.034000
 43
1.000000
 50
180.000000
  0
INSERT
  8
51
  2
RECT
 10
3.851000
 20
0.795750
 30
0.000000
 41
0.016000
 42
0.034000
 43
1.000000
 50
180.000000
  0
LINE
  8
51
 10
3.786984
 20
0.687758
 30
0.000000
 11
3.786984
 21
0.653742
 31
0.000000
  0
LINE
  8
51
 10
3.815016
 20
0.653742
 30
0.000000
 11
3.815016
 21
0.687758
 31
0.000000
  0
INSERT
  8
51
  2
RECT
 10
3.801000
 20
0.645750
 30
0.000000
 41
0.016000
 42
0.034000
 43
1.000000
 50
270.000000
  0
INSERT
  8
51
  2
RECT
 10
3.801000
 20
0.695750
 30
0.000000
 41
0.016000
 42
0.034000
 43
1.000000
 50
270.000000
  0
LINE
  8
51
 10
3.011484
 20
0.779508
 30
0.000000
 11
3.011484
 21
0.745492
 31
0.000000
  0
LINE
  8
51
 10
3.039516
 20
0.745492
 30
0.000000
 11
3.039516
 21
0.779508
 31
0.000000
  0
INSERT
  8
51
  2
RECT
 10
3.025500
 20
0.737500
 30
0.000000
 41
0.016000
 42
0.034000
 43
1.000000
 50
270.000000
  0
INSERT
  8
51
  2
RECT
 10
3.025500
 20
0.787500
 30
0.000000
 41
0.016000
 42
0.034000
 43
1.000000
 50
270.000000
  0
LINE
  8
51
 10
3.098734
 20
0.779508
 30
0.000000
 11
3.098734
 21
0.745492
 31
0.000000
  0
LINE
  8
51
 10
3.126766
 20
0.745492
 30
0.000000
 11
3.126766
 21
0.779508
 31
0.000000
  0
INSERT
  8
51
  2
RECT
 10
3.112750
 20
0.737500
 30
0.000000
 41
0.016000
 42
0.034000
 43
1.000000
 50
270.000000
  0
INSERT
  8
51
  2
RECT
 10
3.112750
 20
0.787500
 30
0.000000
 41
0.016000
 42
0.034000
 43
1.000000
 50
270.000000
  0
LINE
  8
51
 10
3.363663
 20
0.376819
 30
0.000000
 11
3.363663
 21
0.410835
 31
0.000000
  0
LINE
  8
51
 10
3.335632
 20
0.410835
 30
0.000000
 11
3.335632
 21
0.376819
 31
0.000000
  0
INSERT
  8
51
  2
RECT
 10
3.349647
 20
0.418827
 30
0.000000
 41
0.016000
 42
0.034000
 43
1.000000
 50
90.000000
  0
INSERT
  8
51
  2
RECT
 10
3.349647
 20
0.368827
 30
0.000000
 41
0.016000
 42
0.034000
 43
1.000000
 50
90.000000
  0
LINE
  8
51
 10
3.301163
 20
0.376819
 30
0.000000
 11
3.301163
 21
0.410835
 31
0.000000
  0
LINE
  8
51
 10
3.273132
 20
0.410835
 30
0.000000
 11
3.273132
 21
0.376819
 31
0.000000
  0
INSERT
  8
51
  2
RECT
 10
3.287147
 20
0.418827
 30
0.000000
 41
0.016000
 42
0.034000
 43
1.000000
 50
90.000000
  0
INSERT
  8
51
  2
RECT
 10
3.287147
 20
0.368827
 30
0.000000
 41
0.016000
 42
0.034000
 43
1.000000
 50
90.000000
  0
LINE
  8
51
 10
3.418016
 20
0.939467
 30
0.000000
 11
3.418016
 21
0.973483
 31
0.000000
  0
LINE
  8
51
 10
3.389984
 20
0.973483
 30
0.000000
 11
3.389984
 21
0.939467
 31
0.000000
  0
INSERT
  8
51
  2
RECT
 10
3.404000
 20
0.981475
 30
0.000000
 41
0.016000
 42
0.034000
 43
1.000000
 50
90.000000
  0
INSERT
  8
51
  2
RECT
 10
3.404000
 20
0.931475
 30
0.000000
 41
0.016000
 42
0.034000
 43
1.000000
 50
90.000000
  0
LINE
  8
51
 10
2.559008
 20
2.196266
 30
0.000000
 11
2.524992
 21
2.196266
 31
0.000000
  0
LINE
  8
51
 10
2.524992
 20
2.168234
 30
0.000000
 11
2.559008
 21
2.168234
 31
0.000000
  0
INSERT
  8
51
  2
RECT
 10
2.517000
 20
2.182250
 30
0.000000
 41
0.016000
 42
0.034000
 43
1.000000
 50
180.000000
  0
INSERT
  8
51
  2
RECT
 10
2.567000
 20
2.182250
 30
0.000000
 41
0.016000
 42
0.034000
 43
1.000000
 50
180.000000
  0
LINE
  8
51
 10
3.308992
 20
2.390234
 30
0.000000
 11
3.343008
 21
2.390234
 31
0.000000
  0
LINE
  8
51
 10
3.343008
 20
2.418266
 30
0.000000
 11
3.308992
 21
2.418266
 31
0.000000
  0
INSERT
  8
51
  2
RECT
 10
3.351000
 20
2.404250
 30
0.000000
 41
0.016000
 42
0.034000
 43
1.000000
 50
0.000000
  0
INSERT
  8
51
  2
RECT
 10
3.301000
 20
2.404250
 30
0.000000
 41
0.016000
 42
0.034000
 43
1.000000
 50
0.000000
  0
LINE
  8
51
 10
3.020992
 20
2.236484
 30
0.000000
 11
3.055008
 21
2.236484
 31
0.000000
  0
LINE
  8
51
 10
3.055008
 20
2.264516
 30
0.000000
 11
3.020992
 21
2.264516
 31
0.000000
  0
INSERT
  8
51
  2
RECT
 10
3.063000
 20
2.250500
 30
0.000000
 41
0.016000
 42
0.034000
 43
1.000000
 50
0.000000
  0
INSERT
  8
51
  2
RECT
 10
3.013000
 20
2.250500
 30
0.000000
 41
0.016000
 42
0.034000
 43
1.000000
 50
0.000000
  0
LINE
  8
51
 10
1.140258
 20
0.452016
 30
0.000000
 11
1.106242
 21
0.452016
 31
0.000000
  0
LINE
  8
51
 10
1.106242
 20
0.423984
 30
0.000000
 11
1.140258
 21
0.423984
 31
0.000000
  0
INSERT
  8
51
  2
RECT
 10
1.098250
 20
0.438000
 30
0.000000
 41
0.016000
 42
0.034000
 43
1.000000
 50
180.000000
  0
INSERT
  8
51
  2
RECT
 10
1.148250
 20
0.438000
 30
0.000000
 41
0.016000
 42
0.034000
 43
1.000000
 50
180.000000
  0
LINE
  8
51
 10
3.023992
 20
1.705984
 30
0.000000
 11
3.058008
 21
1.705984
 31
0.000000
  0
LINE
  8
51
 10
3.058008
 20
1.734016
 30
0.000000
 11
3.023992
 21
1.734016
 31
0.000000
  0
INSERT
  8
51
  2
RECT
 10
3.066000
 20
1.720000
 30
0.000000
 41
0.016000
 42
0.034000
 43
1.000000
 50
0.000000
  0
INSERT
  8
51
  2
RECT
 10
3.016000
 20
1.720000
 30
0.000000
 41
0.016000
 42
0.034000
 43
1.000000
 50
0.000000
  0
LINE
  8
51
 10
3.022992
 20
2.056984
 30
0.000000
 11
3.057008
 21
2.056984
 31
0.000000
  0
LINE
  8
51
 10
3.057008
 20
2.085016
 30
0.000000
 11
3.022992
 21
2.085016
 31
0.000000
  0
INSERT
  8
51
  2
RECT
 10
3.065000
 20
2.071000
 30
0.000000
 41
0.016000
 42
0.034000
 43
1.000000
 50
0.000000
  0
INSERT
  8
51
  2
RECT
 10
3.015000
 20
2.071000
 30
0.000000
 41
0.016000
 42
0.034000
 43
1.000000
 50
0.000000
  0
LINE
  8
51
 10
3.584492
 20
2.570734
 30
0.000000
 11
3.618508
 21
2.570734
 31
0.000000
  0
LINE
  8
51
 10
3.618508
 20
2.598766
 30
0.000000
 11
3.584492
 21
2.598766
 31
0.000000
  0
INSERT
  8
51
  2
RECT
 10
3.626500
 20
2.584750
 30
0.000000
 41
0.016000
 42
0.034000
 43
1.000000
 50
0.000000
  0
INSERT
  8
51
  2
RECT
 10
3.576500
 20
2.584750
 30
0.000000
 41
0.016000
 42
0.034000
 43
1.000000
 50
0.000000
  0
LINE
  8
51
 10
2.292516
 20
2.714742
 30
0.000000
 11
2.292516
 21
2.748758
 31
0.000000
  0
LINE
  8
51
 10
2.264484
 20
2.748758
 30
0.000000
 11
2.264484
 21
2.714742
 31
0.000000
  0
INSERT
  8
51
  2
RECT
 10
2.278500
 20
2.756750
 30
0.000000
 41
0.016000
 42
0.034000
 43
1.000000
 50
90.000000
  0
INSERT
  8
51
  2
RECT
 10
2.278500
 20
2.706750
 30
0.000000
 41
0.016000
 42
0.034000
 43
1.000000
 50
90.000000
  0
LINE
  8
51
 10
1.833008
 20
0.481516
 30
0.000000
 11
1.798992
 21
0.481516
 31
0.000000
  0
LINE
  8
51
 10
1.798992
 20
0.453484
 30
0.000000
 11
1.833008
 21
0.453484
 31
0.000000
  0
INSERT
  8
51
  2
RECT
 10
1.791000
 20
0.467500
 30
0.000000
 41
0.016000
 42
0.034000
 43
1.000000
 50
180.000000
  0
INSERT
  8
51
  2
RECT
 10
1.841000
 20
0.467500
 30
0.000000
 41
0.016000
 42
0.034000
 43
1.000000
 50
180.000000
  0
LINE
  8
51
 10
3.486984
 20
1.443508
 30
0.000000
 11
3.486984
 21
1.409492
 31
0.000000
  0
LINE
  8
51
 10
3.515016
 20
1.409492
 30
0.000000
 11
3.515016
 21
1.443508
 31
0.000000
  0
INSERT
  8
51
  2
RECT
 10
3.501000
 20
1.401500
 30
0.000000
 41
0.016000
 42
0.034000
 43
1.000000
 50
270.000000
  0
INSERT
  8
51
  2
RECT
 10
3.501000
 20
1.451500
 30
0.000000
 41
0.016000
 42
0.034000
 43
1.000000
 50
270.000000
  0
LINE
  8
51
 10
2.121016
 20
2.714742
 30
0.000000
 11
2.121016
 21
2.748758
 31
0.000000
  0
LINE
  8
51
 10
2.092984
 20
2.748758
 30
0.000000
 11
2.092984
 21
2.714742
 31
0.000000
  0
INSERT
  8
51
  2
RECT
 10
2.107000
 20
2.756750
 30
0.000000
 41
0.016000
 42
0.034000
 43
1.000000
 50
90.000000
  0
INSERT
  8
51
  2
RECT
 10
2.107000
 20
2.706750
 30
0.000000
 41
0.016000
 42
0.034000
 43
1.000000
 50
90.000000
  0
LINE
  8
51
 10
3.073242
 20
1.096234
 30
0.000000
 11
3.107258
 21
1.096234
 31
0.000000
  0
LINE
  8
51
 10
3.107258
 20
1.124266
 30
0.000000
 11
3.073242
 21
1.124266
 31
0.000000
  0
INSERT
  8
51
  2
RECT
 10
3.115250
 20
1.110250
 30
0.000000
 41
0.016000
 42
0.034000
 43
1.000000
 50
0.000000
  0
INSERT
  8
51
  2
RECT
 10
3.065250
 20
1.110250
 30
0.000000
 41
0.016000
 42
0.034000
 43
1.000000
 50
0.000000
  0
LINE
  8
51
 10
1.704258
 20
1.462016
 30
0.000000
 11
1.670242
 21
1.462016
 31
0.000000
  0
LINE
  8
51
 10
1.670242
 20
1.433984
 30
0.000000
 11
1.704258
 21
1.433984
 31
0.000000
  0
INSERT
  8
51
  2
RECT
 10
1.662250
 20
1.448000
 30
0.000000
 41
0.016000
 42
0.034000
 43
1.000000
 50
180.000000
  0
INSERT
  8
51
  2
RECT
 10
1.712250
 20
1.448000
 30
0.000000
 41
0.016000
 42
0.034000
 43
1.000000
 50
180.000000
  0
LINE
  8
51
 10
1.533266
 20
1.333742
 30
0.000000
 11
1.533266
 21
1.367758
 31
0.000000
  0
LINE
  8
51
 10
1.505234
 20
1.367758
 30
0.000000
 11
1.505234
 21
1.333742
 31
0.000000
  0
INSERT
  8
51
  2
RECT
 10
1.519250
 20
1.375750
 30
0.000000
 41
0.016000
 42
0.034000
 43
1.000000
 50
90.000000
  0
INSERT
  8
51
  2
RECT
 10
1.519250
 20
1.325750
 30
0.000000
 41
0.016000
 42
0.034000
 43
1.000000
 50
90.000000
  0
LINE
  8
51
 10
1.469717
 20
0.126959
 30
0.000000
 11
1.503733
 21
0.126959
 31
0.000000
  0
LINE
  8
51
 10
1.503733
 20
0.154991
 30
0.000000
 11
1.469717
 21
0.154991
 31
0.000000
  0
INSERT
  8
51
  2
RECT
 10
1.511725
 20
0.140975
 30
0.000000
 41
0.016000
 42
0.034000
 43
1.000000
 50
0.000000
  0
INSERT
  8
51
  2
RECT
 10
1.461725
 20
0.140975
 30
0.000000
 41
0.016000
 42
0.034000
 43
1.000000
 50
0.000000
  0
LINE
  8
51
 10
3.204151
 20
1.098840
 30
0.000000
 11
3.238167
 21
1.098840
 31
0.000000
  0
LINE
  8
51
 10
3.238167
 20
1.126871
 30
0.000000
 11
3.204151
 21
1.126871
 31
0.000000
  0
INSERT
  8
51
  2
RECT
 10
3.246159
 20
1.112855
 30
0.000000
 41
0.016000
 42
0.034000
 43
1.000000
 50
0.000000
  0
INSERT
  8
51
  2
RECT
 10
3.196159
 20
1.112855
 30
0.000000
 41
0.016000
 42
0.034000
 43
1.000000
 50
0.000000
  0
LINE
  8
51
 10
3.023492
 20
2.146234
 30
0.000000
 11
3.057508
 21
2.146234
 31
0.000000
  0
LINE
  8
51
 10
3.057508
 20
2.174266
 30
0.000000
 11
3.023492
 21
2.174266
 31
0.000000
  0
INSERT
  8
51
  2
RECT
 10
3.065500
 20
2.160250
 30
0.000000
 41
0.016000
 42
0.034000
 43
1.000000
 50
0.000000
  0
INSERT
  8
51
  2
RECT
 10
3.015500
 20
2.160250
 30
0.000000
 41
0.016000
 42
0.034000
 43
1.000000
 50
0.000000
  0
LINE
  8
51
 10
2.566766
 20
1.879242
 30
0.000000
 11
2.566766
 21
1.913258
 31
0.000000
  0
LINE
  8
51
 10
2.538734
 20
1.913258
 30
0.000000
 11
2.538734
 21
1.879242
 31
0.000000
  0
INSERT
  8
51
  2
RECT
 10
2.552750
 20
1.921250
 30
0.000000
 41
0.016000
 42
0.034000
 43
1.000000
 50
90.000000
  0
INSERT
  8
51
  2
RECT
 10
2.552750
 20
1.871250
 30
0.000000
 41
0.016000
 42
0.034000
 43
1.000000
 50
90.000000
  0
LINE
  8
51
 10
2.215258
 20
1.831766
 30
0.000000
 11
2.181242
 21
1.831766
 31
0.000000
  0
LINE
  8
51
 10
2.181242
 20
1.803734
 30
0.000000
 11
2.215258
 21
1.803734
 31
0.000000
  0
INSERT
  8
51
  2
RECT
 10
2.173250
 20
1.817750
 30
0.000000
 41
0.016000
 42
0.034000
 43
1.000000
 50
180.000000
  0
INSERT
  8
51
  2
RECT
 10
2.223250
 20
1.817750
 30
0.000000
 41
0.016000
 42
0.034000
 43
1.000000
 50
180.000000
  0
LINE
  8
51
 10
2.317242
 20
1.802234
 30
0.000000
 11
2.351258
 21
1.802234
 31
0.000000
  0
LINE
  8
51
 10
2.351258
 20
1.830266
 30
0.000000
 11
2.317242
 21
1.830266
 31
0.000000
  0
INSERT
  8
51
  2
RECT
 10
2.359250
 20
1.816250
 30
0.000000
 41
0.016000
 42
0.034000
 43
1.000000
 50
0.000000
  0
INSERT
  8
51
  2
RECT
 10
2.309250
 20
1.816250
 30
0.000000
 41
0.016000
 42
0.034000
 43
1.000000
 50
0.000000
  0
LINE
  8
51
 10
1.817492
 20
0.335734
 30
0.000000
 11
1.851508
 21
0.335734
 31
0.000000
  0
LINE
  8
51
 10
1.851508
 20
0.363766
 30
0.000000
 11
1.817492
 21
0.363766
 31
0.000000
  0
INSERT
  8
51
  2
RECT
 10
1.859500
 20
0.349750
 30
0.000000
 41
0.016000
 42
0.034000
 43
1.000000
 50
0.000000
  0
INSERT
  8
51
  2
RECT
 10
1.809500
 20
0.349750
 30
0.000000
 41
0.016000
 42
0.034000
 43
1.000000
 50
0.000000
  0
LINE
  8
51
 10
1.817492
 20
0.252234
 30
0.000000
 11
1.851508
 21
0.252234
 31
0.000000
  0
LINE
  8
51
 10
1.851508
 20
0.280266
 30
0.000000
 11
1.817492
 21
0.280266
 31
0.000000
  0
INSERT
  8
51
  2
RECT
 10
1.859500
 20
0.266250
 30
0.000000
 41
0.016000
 42
0.034000
 43
1.000000
 50
0.000000
  0
INSERT
  8
51
  2
RECT
 10
1.809500
 20
0.266250
 30
0.000000
 41
0.016000
 42
0.034000
 43
1.000000
 50
0.000000
  0
LINE
  8
51
 10
1.817492
 20
0.168609
 30
0.000000
 11
1.851508
 21
0.168609
 31
0.000000
  0
LINE
  8
51
 10
1.851508
 20
0.196641
 30
0.000000
 11
1.817492
 21
0.196641
 31
0.000000
  0
INSERT
  8
51
  2
RECT
 10
1.859500
 20
0.182625
 30
0.000000
 41
0.016000
 42
0.034000
 43
1.000000
 50
0.000000
  0
INSERT
  8
51
  2
RECT
 10
1.809500
 20
0.182625
 30
0.000000
 41
0.016000
 42
0.034000
 43
1.000000
 50
0.000000
  0
LINE
  8
51
 10
3.568234
 20
1.444508
 30
0.000000
 11
3.568234
 21
1.410492
 31
0.000000
  0
LINE
  8
51
 10
3.596266
 20
1.410492
 30
0.000000
 11
3.596266
 21
1.444508
 31
0.000000
  0
INSERT
  8
51
  2
RECT
 10
3.582250
 20
1.402500
 30
0.000000
 41
0.016000
 42
0.034000
 43
1.000000
 50
270.000000
  0
INSERT
  8
51
  2
RECT
 10
3.582250
 20
1.452500
 30
0.000000
 41
0.016000
 42
0.034000
 43
1.000000
 50
270.000000
  0
LINE
  8
51
 10
2.856008
 20
1.675016
 30
0.000000
 11
2.821992
 21
1.675016
 31
0.000000
  0
LINE
  8
51
 10
2.821992
 20
1.646984
 30
0.000000
 11
2.856008
 21
1.646984
 31
0.000000
  0
INSERT
  8
51
  2
RECT
 10
2.814000
 20
1.661000
 30
0.000000
 41
0.016000
 42
0.034000
 43
1.000000
 50
180.000000
  0
INSERT
  8
51
  2
RECT
 10
2.864000
 20
1.661000
 30
0.000000
 41
0.016000
 42
0.034000
 43
1.000000
 50
180.000000
  0
LINE
  8
51
 10
0.173266
 20
2.212492
 30
0.000000
 11
0.173266
 21
2.246508
 31
0.000000
  0
LINE
  8
51
 10
0.145234
 20
2.246508
 30
0.000000
 11
0.145234
 21
2.212492
 31
0.000000
  0
INSERT
  8
51
  2
RECT
 10
0.159250
 20
2.254500
 30
0.000000
 41
0.016000
 42
0.034000
 43
1.000000
 50
90.000000
  0
INSERT
  8
51
  2
RECT
 10
0.159250
 20
2.204500
 30
0.000000
 41
0.016000
 42
0.034000
 43
1.000000
 50
90.000000
  0
LINE
  8
51
 10
0.145234
 20
2.491508
 30
0.000000
 11
0.145234
 21
2.457492
 31
0.000000
  0
LINE
  8
51
 10
0.173266
 20
2.457492
 30
0.000000
 11
0.173266
 21
2.491508
 31
0.000000
  0
INSERT
  8
51
  2
RECT
 10
0.159250
 20
2.449500
 30
0.000000
 41
0.016000
 42
0.034000
 43
1.000000
 50
270.000000
  0
INSERT
  8
51
  2
RECT
 10
0.159250
 20
2.499500
 30
0.000000
 41
0.016000
 42
0.034000
 43
1.000000
 50
270.000000
  0
LINE
  8
51
 10
1.275766
 20
2.432992
 30
0.000000
 11
1.275766
 21
2.467008
 31
0.000000
  0
LINE
  8
51
 10
1.247734
 20
2.467008
 30
0.000000
 11
1.247734
 21
2.432992
 31
0.000000
  0
INSERT
  8
51
  2
RECT
 10
1.261750
 20
2.475000
 30
0.000000
 41
0.016000
 42
0.034000
 43
1.000000
 50
90.000000
  0
INSERT
  8
51
  2
RECT
 10
1.261750
 20
2.425000
 30
0.000000
 41
0.016000
 42
0.034000
 43
1.000000
 50
90.000000
  0
LINE
  8
51
 10
1.109992
 20
2.350234
 30
0.000000
 11
1.144008
 21
2.350234
 31
0.000000
  0
LINE
  8
51
 10
1.144008
 20
2.378266
 30
0.000000
 11
1.109992
 21
2.378266
 31
0.000000
  0
INSERT
  8
51
  2
RECT
 10
1.152000
 20
2.364250
 30
0.000000
 41
0.016000
 42
0.034000
 43
1.000000
 50
0.000000
  0
INSERT
  8
51
  2
RECT
 10
1.102000
 20
2.364250
 30
0.000000
 41
0.016000
 42
0.034000
 43
1.000000
 50
0.000000
  0
LINE
  8
51
 10
1.704516
 20
0.950742
 30
0.000000
 11
1.704516
 21
0.984758
 31
0.000000
  0
LINE
  8
51
 10
1.676484
 20
0.984758
 30
0.000000
 11
1.676484
 21
0.950742
 31
0.000000
  0
INSERT
  8
51
  2
RECT
 10
1.690500
 20
0.992750
 30
0.000000
 41
0.016000
 42
0.034000
 43
1.000000
 50
90.000000
  0
INSERT
  8
51
  2
RECT
 10
1.690500
 20
0.942750
 30
0.000000
 41
0.016000
 42
0.034000
 43
1.000000
 50
90.000000
  0
LINE
  8
51
 10
3.460984
 20
0.854508
 30
0.000000
 11
3.460984
 21
0.820492
 31
0.000000
  0
LINE
  8
51
 10
3.489016
 20
0.820492
 30
0.000000
 11
3.489016
 21
0.854508
 31
0.000000
  0
INSERT
  8
51
  2
RECT
 10
3.475000
 20
0.812500
 30
0.000000
 41
0.016000
 42
0.034000
 43
1.000000
 50
270.000000
  0
INSERT
  8
51
  2
RECT
 10
3.475000
 20
0.862500
 30
0.000000
 41
0.016000
 42
0.034000
 43
1.000000
 50
270.000000
  0
LINE
  8
51
 10
3.382992
 20
0.523484
 30
0.000000
 11
3.417008
 21
0.523484
 31
0.000000
  0
LINE
  8
51
 10
3.417008
 20
0.551516
 30
0.000000
 11
3.382992
 21
0.551516
 31
0.000000
  0
INSERT
  8
51
  2
RECT
 10
3.425000
 20
0.537500
 30
0.000000
 41
0.016000
 42
0.034000
 43
1.000000
 50
0.000000
  0
INSERT
  8
51
  2
RECT
 10
3.375000
 20
0.537500
 30
0.000000
 41
0.016000
 42
0.034000
 43
1.000000
 50
0.000000
  0
LINE
  8
51
 10
3.629258
 20
0.464266
 30
0.000000
 11
3.595242
 21
0.464266
 31
0.000000
  0
LINE
  8
51
 10
3.595242
 20
0.436234
 30
0.000000
 11
3.629258
 21
0.436234
 31
0.000000
  0
INSERT
  8
51
  2
RECT
 10
3.587250
 20
0.450250
 30
0.000000
 41
0.016000
 42
0.034000
 43
1.000000
 50
180.000000
  0
INSERT
  8
51
  2
RECT
 10
3.637250
 20
0.450250
 30
0.000000
 41
0.016000
 42
0.034000
 43
1.000000
 50
180.000000
  0
LINE
  8
51
 10
3.542109
 20
0.855008
 30
0.000000
 11
3.542109
 21
0.820992
 31
0.000000
  0
LINE
  8
51
 10
3.570141
 20
0.820992
 30
0.000000
 11
3.570141
 21
0.855008
 31
0.000000
  0
INSERT
  8
51
  2
RECT
 10
3.556125
 20
0.813000
 30
0.000000
 41
0.016000
 42
0.034000
 43
1.000000
 50
270.000000
  0
INSERT
  8
51
  2
RECT
 10
3.556125
 20
0.863000
 30
0.000000
 41
0.016000
 42
0.034000
 43
1.000000
 50
270.000000
  0
LINE
  8
51
 10
2.856008
 20
1.764766
 30
0.000000
 11
2.821992
 21
1.764766
 31
0.000000
  0
LINE
  8
51
 10
2.821992
 20
1.736734
 30
0.000000
 11
2.856008
 21
1.736734
 31
0.000000
  0
INSERT
  8
51
  2
RECT
 10
2.814000
 20
1.750750
 30
0.000000
 41
0.016000
 42
0.034000
 43
1.000000
 50
180.000000
  0
INSERT
  8
51
  2
RECT
 10
2.864000
 20
1.750750
 30
0.000000
 41
0.016000
 42
0.034000
 43
1.000000
 50
180.000000
  0
LINE
  8
51
 10
3.821234
 20
1.432258
 30
0.000000
 11
3.821234
 21
1.398242
 31
0.000000
  0
LINE
  8
51
 10
3.849266
 20
1.398242
 30
0.000000
 11
3.849266
 21
1.432258
 31
0.000000
  0
INSERT
  8
51
  2
RECT
 10
3.835250
 20
1.390250
 30
0.000000
 41
0.016000
 42
0.034000
 43
1.000000
 50
270.000000
  0
INSERT
  8
51
  2
RECT
 10
3.835250
 20
1.440250
 30
0.000000
 41
0.016000
 42
0.034000
 43
1.000000
 50
270.000000
  0
LINE
  8
51
 10
0.745492
 20
0.123484
 30
0.000000
 11
0.779508
 21
0.123484
 31
0.000000
  0
LINE
  8
51
 10
0.779508
 20
0.151516
 30
0.000000
 11
0.745492
 21
0.151516
 31
0.000000
  0
INSERT
  8
51
  2
RECT
 10
0.787500
 20
0.137500
 30
0.000000
 41
0.016000
 42
0.034000
 43
1.000000
 50
0.000000
  0
INSERT
  8
51
  2
RECT
 10
0.737500
 20
0.137500
 30
0.000000
 41
0.016000
 42
0.034000
 43
1.000000
 50
0.000000
  0
LINE
  8
51
 10
1.098992
 20
0.310734
 30
0.000000
 11
1.133008
 21
0.310734
 31
0.000000
  0
LINE
  8
51
 10
1.133008
 20
0.338766
 30
0.000000
 11
1.098992
 21
0.338766
 31
0.000000
  0
INSERT
  8
51
  2
RECT
 10
1.141000
 20
0.324750
 30
0.000000
 41
0.016000
 42
0.034000
 43
1.000000
 50
0.000000
  0
INSERT
  8
51
  2
RECT
 10
1.091000
 20
0.324750
 30
0.000000
 41
0.016000
 42
0.034000
 43
1.000000
 50
0.000000
  0
LINE
  8
51
 10
1.098767
 20
0.145384
 30
0.000000
 11
1.132783
 21
0.145384
 31
0.000000
  0
LINE
  8
51
 10
1.132783
 20
0.173416
 30
0.000000
 11
1.098767
 21
0.173416
 31
0.000000
  0
INSERT
  8
51
  2
RECT
 10
1.140775
 20
0.159400
 30
0.000000
 41
0.016000
 42
0.034000
 43
1.000000
 50
0.000000
  0
INSERT
  8
51
  2
RECT
 10
1.090775
 20
0.159400
 30
0.000000
 41
0.016000
 42
0.034000
 43
1.000000
 50
0.000000
  0
LINE
  8
51
 10
1.099042
 20
0.228709
 30
0.000000
 11
1.133058
 21
0.228709
 31
0.000000
  0
LINE
  8
51
 10
1.133058
 20
0.256741
 30
0.000000
 11
1.099042
 21
0.256741
 31
0.000000
  0
INSERT
  8
51
  2
RECT
 10
1.141050
 20
0.242725
 30
0.000000
 41
0.016000
 42
0.034000
 43
1.000000
 50
0.000000
  0
INSERT
  8
51
  2
RECT
 10
1.091050
 20
0.242725
 30
0.000000
 41
0.016000
 42
0.034000
 43
1.000000
 50
0.000000
  0
LINE
  8
51
 10
0.566008
 20
1.504766
 30
0.000000
 11
0.531992
 21
1.504766
 31
0.000000
  0
LINE
  8
51
 10
0.531992
 20
1.476734
 30
0.000000
 11
0.566008
 21
1.476734
 31
0.000000
  0
INSERT
  8
51
  2
RECT
 10
0.524000
 20
1.490750
 30
0.000000
 41
0.016000
 42
0.034000
 43
1.000000
 50
180.000000
  0
INSERT
  8
51
  2
RECT
 10
0.574000
 20
1.490750
 30
0.000000
 41
0.016000
 42
0.034000
 43
1.000000
 50
180.000000
  0
LINE
  8
51
 10
0.588984
 20
1.624508
 30
0.000000
 11
0.588984
 21
1.590492
 31
0.000000
  0
LINE
  8
51
 10
0.617016
 20
1.590492
 30
0.000000
 11
0.617016
 21
1.624508
 31
0.000000
  0
INSERT
  8
51
  2
RECT
 10
0.603000
 20
1.582500
 30
0.000000
 41
0.016000
 42
0.034000
 43
1.000000
 50
270.000000
  0
INSERT
  8
51
  2
RECT
 10
0.603000
 20
1.632500
 30
0.000000
 41
0.016000
 42
0.034000
 43
1.000000
 50
270.000000
  0
LINE
  8
51
 10
3.405234
 20
1.443508
 30
0.000000
 11
3.405234
 21
1.409492
 31
0.000000
  0
LINE
  8
51
 10
3.433266
 20
1.409492
 30
0.000000
 11
3.433266
 21
1.443508
 31
0.000000
  0
INSERT
  8
51
  2
RECT
 10
3.419250
 20
1.401500
 30
0.000000
 41
0.016000
 42
0.034000
 43
1.000000
 50
270.000000
  0
INSERT
  8
51
  2
RECT
 10
3.419250
 20
1.451500
 30
0.000000
 41
0.016000
 42
0.034000
 43
1.000000
 50
270.000000
  0
LINE
  8
51
 10
3.323734
 20
1.443508
 30
0.000000
 11
3.323734
 21
1.409492
 31
0.000000
  0
LINE
  8
51
 10
3.351766
 20
1.409492
 30
0.000000
 11
3.351766
 21
1.443508
 31
0.000000
  0
INSERT
  8
51
  2
RECT
 10
3.337750
 20
1.401500
 30
0.000000
 41
0.016000
 42
0.034000
 43
1.000000
 50
270.000000
  0
INSERT
  8
51
  2
RECT
 10
3.337750
 20
1.451500
 30
0.000000
 41
0.016000
 42
0.034000
 43
1.000000
 50
270.000000
  0
LINE
  8
51
 10
2.186266
 20
0.866992
 30
0.000000
 11
2.186266
 21
0.901008
 31
0.000000
  0
LINE
  8
51
 10
2.158234
 20
0.901008
 30
0.000000
 11
2.158234
 21
0.866992
 31
0.000000
  0
INSERT
  8
51
  2
RECT
 10
2.172250
 20
0.909000
 30
0.000000
 41
0.016000
 42
0.034000
 43
1.000000
 50
90.000000
  0
INSERT
  8
51
  2
RECT
 10
2.172250
 20
0.859000
 30
0.000000
 41
0.016000
 42
0.034000
 43
1.000000
 50
90.000000
  0
LINE
  8
51
 10
2.372008
 20
0.913266
 30
0.000000
 11
2.337992
 21
0.913266
 31
0.000000
  0
LINE
  8
51
 10
2.337992
 20
0.885234
 30
0.000000
 11
2.372008
 21
0.885234
 31
0.000000
  0
INSERT
  8
51
  2
RECT
 10
2.330000
 20
0.899250
 30
0.000000
 41
0.016000
 42
0.034000
 43
1.000000
 50
180.000000
  0
INSERT
  8
51
  2
RECT
 10
2.380000
 20
0.899250
 30
0.000000
 41
0.016000
 42
0.034000
 43
1.000000
 50
180.000000
  0
LINE
  8
51
 10
0.298758
 20
2.586516
 30
0.000000
 11
0.264742
 21
2.586516
 31
0.000000
  0
LINE
  8
51
 10
0.264742
 20
2.558484
 30
0.000000
 11
0.298758
 21
2.558484
 31
0.000000
  0
INSERT
  8
51
  2
RECT
 10
0.256750
 20
2.572500
 30
0.000000
 41
0.016000
 42
0.034000
 43
1.000000
 50
180.000000
  0
INSERT
  8
51
  2
RECT
 10
0.306750
 20
2.572500
 30
0.000000
 41
0.016000
 42
0.034000
 43
1.000000
 50
180.000000
  0
LINE
  8
51
 10
3.799258
 20
2.512266
 30
0.000000
 11
3.765242
 21
2.512266
 31
0.000000
  0
LINE
  8
51
 10
3.765242
 20
2.484234
 30
0.000000
 11
3.799258
 21
2.484234
 31
0.000000
  0
INSERT
  8
51
  2
RECT
 10
3.757250
 20
2.498250
 30
0.000000
 41
0.016000
 42
0.034000
 43
1.000000
 50
180.000000
  0
INSERT
  8
51
  2
RECT
 10
3.807250
 20
2.498250
 30
0.000000
 41
0.016000
 42
0.034000
 43
1.000000
 50
180.000000
  0
LINE
  8
51
 10
0.494758
 20
2.586516
 30
0.000000
 11
0.460742
 21
2.586516
 31
0.000000
  0
LINE
  8
51
 10
0.460742
 20
2.558484
 30
0.000000
 11
0.494758
 21
2.558484
 31
0.000000
  0
INSERT
  8
51
  2
RECT
 10
0.452750
 20
2.572500
 30
0.000000
 41
0.016000
 42
0.034000
 43
1.000000
 50
180.000000
  0
INSERT
  8
51
  2
RECT
 10
0.502750
 20
2.572500
 30
0.000000
 41
0.016000
 42
0.034000
 43
1.000000
 50
180.000000
  0
LINE
  8
51
 10
1.609508
 20
2.594376
 30
0.000000
 11
1.575492
 21
2.594376
 31
0.000000
  0
LINE
  8
51
 10
1.575492
 20
2.566344
 30
0.000000
 11
1.609508
 21
2.566344
 31
0.000000
  0
INSERT
  8
51
  2
RECT
 10
1.567500
 20
2.580360
 30
0.000000
 41
0.016000
 42
0.034000
 43
1.000000
 50
180.000000
  0
INSERT
  8
51
  2
RECT
 10
1.617500
 20
2.580360
 30
0.000000
 41
0.016000
 42
0.034000
 43
1.000000
 50
180.000000
  0
LINE
  8
51
 10
1.425758
 20
2.598766
 30
0.000000
 11
1.391742
 21
2.598766
 31
0.000000
  0
LINE
  8
51
 10
1.391742
 20
2.570734
 30
0.000000
 11
1.425758
 21
2.570734
 31
0.000000
  0
INSERT
  8
51
  2
RECT
 10
1.383750
 20
2.584750
 30
0.000000
 41
0.016000
 42
0.034000
 43
1.000000
 50
180.000000
  0
INSERT
  8
51
  2
RECT
 10
1.433750
 20
2.584750
 30
0.000000
 41
0.016000
 42
0.034000
 43
1.000000
 50
180.000000
  0
LINE
  8
51
 10
2.503758
 20
2.598766
 30
0.000000
 11
2.469742
 21
2.598766
 31
0.000000
  0
LINE
  8
51
 10
2.469742
 20
2.570734
 30
0.000000
 11
2.503758
 21
2.570734
 31
0.000000
  0
INSERT
  8
51
  2
RECT
 10
2.461750
 20
2.584750
 30
0.000000
 41
0.016000
 42
0.034000
 43
1.000000
 50
180.000000
  0
INSERT
  8
51
  2
RECT
 10
2.511750
 20
2.584750
 30
0.000000
 41
0.016000
 42
0.034000
 43
1.000000
 50
180.000000
  0
LINE
  8
51
 10
2.687508
 20
2.598766
 30
0.000000
 11
2.653492
 21
2.598766
 31
0.000000
  0
LINE
  8
51
 10
2.653492
 20
2.570734
 30
0.000000
 11
2.687508
 21
2.570734
 31
0.000000
  0
INSERT
  8
51
  2
RECT
 10
2.645500
 20
2.584750
 30
0.000000
 41
0.016000
 42
0.034000
 43
1.000000
 50
180.000000
  0
INSERT
  8
51
  2
RECT
 10
2.695500
 20
2.584750
 30
0.000000
 41
0.016000
 42
0.034000
 43
1.000000
 50
180.000000
  0
LINE
  8
51
 10
3.844734
 20
3.447008
 30
0.000000
 11
3.844734
 21
3.412992
 31
0.000000
  0
LINE
  8
51
 10
3.872766
 20
3.412992
 30
0.000000
 11
3.872766
 21
3.447008
 31
0.000000
  0
INSERT
  8
51
  2
RECT
 10
3.858750
 20
3.405000
 30
0.000000
 41
0.016000
 42
0.034000
 43
1.000000
 50
270.000000
  0
INSERT
  8
51
  2
RECT
 10
3.858750
 20
3.455000
 30
0.000000
 41
0.016000
 42
0.034000
 43
1.000000
 50
270.000000
  0
LINE
  8
51
 10
3.849124
 20
3.214258
 30
0.000000
 11
3.849124
 21
3.180242
 31
0.000000
  0
LINE
  8
51
 10
3.877156
 20
3.180242
 30
0.000000
 11
3.877156
 21
3.214258
 31
0.000000
  0
INSERT
  8
51
  2
RECT
 10
3.863140
 20
3.172250
 30
0.000000
 41
0.016000
 42
0.034000
 43
1.000000
 50
270.000000
  0
INSERT
  8
51
  2
RECT
 10
3.863140
 20
3.222250
 30
0.000000
 41
0.016000
 42
0.034000
 43
1.000000
 50
270.000000
  0
LINE
  8
51
 10
1.793258
 20
2.598766
 30
0.000000
 11
1.759242
 21
2.598766
 31
0.000000
  0
LINE
  8
51
 10
1.759242
 20
2.570734
 30
0.000000
 11
1.793258
 21
2.570734
 31
0.000000
  0
INSERT
  8
51
  2
RECT
 10
1.751250
 20
2.584750
 30
0.000000
 41
0.016000
 42
0.034000
 43
1.000000
 50
180.000000
  0
INSERT
  8
51
  2
RECT
 10
1.801250
 20
2.584750
 30
0.000000
 41
0.016000
 42
0.034000
 43
1.000000
 50
180.000000
  0
LINE
  8
51
 10
1.977008
 20
2.598766
 30
0.000000
 11
1.942992
 21
2.598766
 31
0.000000
  0
LINE
  8
51
 10
1.942992
 20
2.570734
 30
0.000000
 11
1.977008
 21
2.570734
 31
0.000000
  0
INSERT
  8
51
  2
RECT
 10
1.935000
 20
2.584750
 30
0.000000
 41
0.016000
 42
0.034000
 43
1.000000
 50
180.000000
  0
INSERT
  8
51
  2
RECT
 10
1.985000
 20
2.584750
 30
0.000000
 41
0.016000
 42
0.034000
 43
1.000000
 50
180.000000
  0
LINE
  8
51
 10
1.808242
 20
1.945984
 30
0.000000
 11
1.842258
 21
1.945984
 31
0.000000
  0
LINE
  8
51
 10
1.842258
 20
1.974016
 30
0.000000
 11
1.808242
 21
1.974016
 31
0.000000
  0
INSERT
  8
51
  2
RECT
 10
1.850250
 20
1.960000
 30
0.000000
 41
0.016000
 42
0.034000
 43
1.000000
 50
0.000000
  0
INSERT
  8
51
  2
RECT
 10
1.800250
 20
1.960000
 30
0.000000
 41
0.016000
 42
0.034000
 43
1.000000
 50
0.000000
  0
LINE
  8
51
 10
1.977008
 20
1.974016
 30
0.000000
 11
1.942992
 21
1.974016
 31
0.000000
  0
LINE
  8
51
 10
1.942992
 20
1.945984
 30
0.000000
 11
1.977008
 21
1.945984
 31
0.000000
  0
INSERT
  8
51
  2
RECT
 10
1.935000
 20
1.960000
 30
0.000000
 41
0.016000
 42
0.034000
 43
1.000000
 50
180.000000
  0
INSERT
  8
51
  2
RECT
 10
1.985000
 20
1.960000
 30
0.000000
 41
0.016000
 42
0.034000
 43
1.000000
 50
180.000000
  0
LINE
  8
51
 10
0.932766
 20
2.690242
 30
0.000000
 11
0.932766
 21
2.724258
 31
0.000000
  0
LINE
  8
51
 10
0.904734
 20
2.724258
 30
0.000000
 11
0.904734
 21
2.690242
 31
0.000000
  0
INSERT
  8
51
  2
RECT
 10
0.918750
 20
2.732250
 30
0.000000
 41
0.016000
 42
0.034000
 43
1.000000
 50
90.000000
  0
INSERT
  8
51
  2
RECT
 10
0.918750
 20
2.682250
 30
0.000000
 41
0.016000
 42
0.034000
 43
1.000000
 50
90.000000
  0
LINE
  8
51
 10
0.761266
 20
2.690242
 30
0.000000
 11
0.761266
 21
2.724258
 31
0.000000
  0
LINE
  8
51
 10
0.733234
 20
2.724258
 30
0.000000
 11
0.733234
 21
2.690242
 31
0.000000
  0
INSERT
  8
51
  2
RECT
 10
0.747250
 20
2.732250
 30
0.000000
 41
0.016000
 42
0.034000
 43
1.000000
 50
90.000000
  0
INSERT
  8
51
  2
RECT
 10
0.747250
 20
2.682250
 30
0.000000
 41
0.016000
 42
0.034000
 43
1.000000
 50
90.000000
  0
LINE
  8
51
 10
1.018516
 20
2.690242
 30
0.000000
 11
1.018516
 21
2.724258
 31
0.000000
  0
LINE
  8
51
 10
0.990484
 20
2.724258
 30
0.000000
 11
0.990484
 21
2.690242
 31
0.000000
  0
INSERT
  8
51
  2
RECT
 10
1.004500
 20
2.732250
 30
0.000000
 41
0.016000
 42
0.034000
 43
1.000000
 50
90.000000
  0
INSERT
  8
51
  2
RECT
 10
1.004500
 20
2.682250
 30
0.000000
 41
0.016000
 42
0.034000
 43
1.000000
 50
90.000000
  0
LINE
  8
51
 10
1.177766
 20
2.690242
 30
0.000000
 11
1.177766
 21
2.724258
 31
0.000000
  0
LINE
  8
51
 10
1.149734
 20
2.724258
 30
0.000000
 11
1.149734
 21
2.690242
 31
0.000000
  0
INSERT
  8
51
  2
RECT
 10
1.163750
 20
2.732250
 30
0.000000
 41
0.016000
 42
0.034000
 43
1.000000
 50
90.000000
  0
INSERT
  8
51
  2
RECT
 10
1.163750
 20
2.682250
 30
0.000000
 41
0.016000
 42
0.034000
 43
1.000000
 50
90.000000
  0
LINE
  8
51
 10
3.101016
 20
2.702492
 30
0.000000
 11
3.101016
 21
2.736508
 31
0.000000
  0
LINE
  8
51
 10
3.072984
 20
2.736508
 30
0.000000
 11
3.072984
 21
2.702492
 31
0.000000
  0
INSERT
  8
51
  2
RECT
 10
3.087000
 20
2.744500
 30
0.000000
 41
0.016000
 42
0.034000
 43
1.000000
 50
90.000000
  0
INSERT
  8
51
  2
RECT
 10
3.087000
 20
2.694500
 30
0.000000
 41
0.016000
 42
0.034000
 43
1.000000
 50
90.000000
  0
LINE
  8
51
 10
2.929516
 20
2.702492
 30
0.000000
 11
2.929516
 21
2.736508
 31
0.000000
  0
LINE
  8
51
 10
2.901484
 20
2.736508
 30
0.000000
 11
2.901484
 21
2.702492
 31
0.000000
  0
INSERT
  8
51
  2
RECT
 10
2.915500
 20
2.744500
 30
0.000000
 41
0.016000
 42
0.034000
 43
1.000000
 50
90.000000
  0
INSERT
  8
51
  2
RECT
 10
2.915500
 20
2.694500
 30
0.000000
 41
0.016000
 42
0.034000
 43
1.000000
 50
90.000000
  0
LINE
  8
51
 10
3.186766
 20
2.702492
 30
0.000000
 11
3.186766
 21
2.736508
 31
0.000000
  0
LINE
  8
51
 10
3.158734
 20
2.736508
 30
0.000000
 11
3.158734
 21
2.702492
 31
0.000000
  0
INSERT
  8
51
  2
RECT
 10
3.172750
 20
2.744500
 30
0.000000
 41
0.016000
 42
0.034000
 43
1.000000
 50
90.000000
  0
INSERT
  8
51
  2
RECT
 10
3.172750
 20
2.694500
 30
0.000000
 41
0.016000
 42
0.034000
 43
1.000000
 50
90.000000
  0
LINE
  8
51
 10
3.358266
 20
2.702492
 30
0.000000
 11
3.358266
 21
2.736508
 31
0.000000
  0
LINE
  8
51
 10
3.330234
 20
2.736508
 30
0.000000
 11
3.330234
 21
2.702492
 31
0.000000
  0
INSERT
  8
51
  2
RECT
 10
3.344250
 20
2.744500
 30
0.000000
 41
0.016000
 42
0.034000
 43
1.000000
 50
90.000000
  0
INSERT
  8
51
  2
RECT
 10
3.344250
 20
2.694500
 30
0.000000
 41
0.016000
 42
0.034000
 43
1.000000
 50
90.000000
  0
LINE
  8
51
 10
3.670500
 20
2.966250
 30
0.000000
 11
3.775500
 21
2.966250
 31
0.000000
  0
LINE
  8
21
 10
3.775500
 20
2.966250
 30
0.000000
 11
3.915500
 21
2.966250
 31
0.000000
  0
LINE
  8
21
 10
3.915500
 20
2.966250
 30
0.000000
 11
3.915500
 21
2.921250
 31
0.000000
  0
LINE
  8
21
 10
3.775500
 20
2.676250
 30
0.000000
 11
3.915500
 21
2.676250
 31
0.000000
  0
LINE
  8
51
 10
3.775500
 20
2.676250
 30
0.000000
 11
3.670500
 21
2.676250
 31
0.000000
  0
LINE
  8
51
 10
3.670500
 20
2.676250
 30
0.000000
 11
3.670500
 21
2.686250
 31
0.000000
  0
LINE
  8
51
 10
3.670500
 20
2.686250
 30
0.000000
 11
3.775500
 21
2.686250
 31
0.000000
  0
LINE
  8
21
 10
3.905500
 20
2.686250
 30
0.000000
 11
3.905500
 21
2.796250
 31
0.000000
  0
LINE
  8
51
 10
3.775500
 20
2.956250
 30
0.000000
 11
3.670500
 21
2.956250
 31
0.000000
  0
LINE
  8
51
 10
3.670500
 20
2.956250
 30
0.000000
 11
3.670500
 21
2.966250
 31
0.000000
  0
LINE
  8
21
 10
3.915500
 20
2.721250
 30
0.000000
 11
3.925500
 21
2.721250
 31
0.000000
  0
LINE
  8
21
 10
3.925500
 20
2.721250
 30
0.000000
 11
3.925500
 21
2.771250
 31
0.000000
  0
LINE
  8
21
 10
3.915500
 20
2.921250
 30
0.000000
 11
3.925500
 21
2.921250
 31
0.000000
  0
LINE
  8
21
 10
3.915500
 20
2.921250
 30
0.000000
 11
3.915500
 21
2.676250
 31
0.000000
  0
LINE
  8
21
 10
3.925500
 20
2.771250
 30
0.000000
 11
3.940500
 21
2.771250
 31
0.000000
  0
LINE
  8
21
 10
3.925500
 20
2.771250
 30
0.000000
 11
3.925500
 21
2.871250
 31
0.000000
  0
LINE
  8
21
 10
3.940500
 20
2.771250
 30
0.000000
 11
3.940500
 21
2.871250
 31
0.000000
  0
LINE
  8
21
 10
3.925500
 20
2.871250
 30
0.000000
 11
3.940500
 21
2.871250
 31
0.000000
  0
LINE
  8
21
 10
3.925500
 20
2.871250
 30
0.000000
 11
3.925500
 21
2.921250
 31
0.000000
  0
LINE
  8
21
 10
3.905500
 20
2.796250
 30
0.000000
 11
3.865500
 21
2.796250
 31
0.000000
  0
LINE
  8
21
 10
3.905500
 20
2.796250
 30
0.000000
 11
3.905500
 21
2.846250
 31
0.000000
  0
LINE
  8
21
 10
3.865500
 20
2.796250
 30
0.000000
 11
3.865500
 21
2.846250
 31
0.000000
  0
LINE
  8
21
 10
3.905500
 20
2.846250
 30
0.000000
 11
3.865500
 21
2.846250
 31
0.000000
  0
LINE
  8
21
 10
3.905500
 20
2.846250
 30
0.000000
 11
3.905500
 21
2.956250
 31
0.000000
  0
LINE
  8
21
 10
3.775500
 20
2.686250
 30
0.000000
 11
3.775500
 21
2.716250
 31
0.000000
  0
LINE
  8
21
 10
3.765500
 20
2.716250
 30
0.000000
 11
3.775500
 21
2.716250
 31
0.000000
  0
LINE
  8
21
 10
3.765500
 20
2.716250
 30
0.000000
 11
3.765500
 21
2.746250
 31
0.000000
  0
LINE
  8
21
 10
3.775500
 20
2.746250
 30
0.000000
 11
3.765500
 21
2.746250
 31
0.000000
  0
LINE
  8
21
 10
3.775500
 20
2.746250
 30
0.000000
 11
3.775500
 21
2.791250
 31
0.000000
  0
LINE
  8
21
 10
3.785500
 20
2.791250
 30
0.000000
 11
3.775500
 21
2.791250
 31
0.000000
  0
LINE
  8
21
 10
3.785500
 20
2.791250
 30
0.000000
 11
3.785500
 21
2.851250
 31
0.000000
  0
LINE
  8
21
 10
3.775500
 20
2.851250
 30
0.000000
 11
3.785500
 21
2.851250
 31
0.000000
  0
LINE
  8
21
 10
3.775500
 20
2.851250
 30
0.000000
 11
3.775500
 21
2.891250
 31
0.000000
  0
LINE
  8
21
 10
3.775500
 20
2.891250
 30
0.000000
 11
3.765500
 21
2.891250
 31
0.000000
  0
LINE
  8
21
 10
3.765500
 20
2.891250
 30
0.000000
 11
3.765500
 21
2.926250
 31
0.000000
  0
LINE
  8
21
 10
3.775500
 20
2.926250
 30
0.000000
 11
3.765500
 21
2.926250
 31
0.000000
  0
LINE
  8
21
 10
3.775500
 20
2.926250
 30
0.000000
 11
3.775500
 21
2.956250
 31
0.000000
  0
LINE
  8
51
 10
3.810500
 20
2.756250
 30
0.000000
 11
3.810500
 21
2.791250
 31
0.000000
  0
LINE
  8
51
 10
3.810500
 20
2.791250
 30
0.000000
 11
3.825500
 21
2.841250
 31
0.000000
  0
LINE
  8
51
 10
3.810500
 20
2.841250
 30
0.000000
 11
3.810500
 21
2.886250
 31
0.000000
  0
LINE
  8
51
 10
3.825500
 20
2.821250
 30
0.000000
 11
3.840500
 21
2.821250
 31
0.000000
  0
LINE
  8
51
 10
3.840500
 20
2.811250
 30
0.000000
 11
3.840500
 21
2.821250
 31
0.000000
  0
LINE
  8
51
 10
3.840500
 20
2.821250
 30
0.000000
 11
3.840500
 21
2.831250
 31
0.000000
  0
LINE
  8
51
 10
3.795500
 20
2.686250
 30
0.000000
 11
3.855500
 21
2.686250
 31
0.000000
  0
LINE
  8
21
 10
3.795500
 20
2.686250
 30
0.000000
 11
3.775500
 21
2.686250
 31
0.000000
  0
LINE
  8
21
 10
3.855500
 20
2.686250
 30
0.000000
 11
3.905500
 21
2.686250
 31
0.000000
  0
LINE
  8
21
 10
3.855500
 20
2.956250
 30
0.000000
 11
3.905500
 21
2.956250
 31
0.000000
  0
LINE
  8
51
 10
3.795500
 20
2.956250
 30
0.000000
 11
3.855500
 21
2.956250
 31
0.000000
  0
LINE
  8
21
 10
3.795500
 20
2.956250
 30
0.000000
 11
3.775500
 21
2.956250
 31
0.000000
  0
LINE
  8
21
 10
2.441500
 20
1.568000
 30
0.000000
 11
2.466500
 21
1.543000
 31
0.000000
  0
LINE
  8
21
 10
2.466500
 20
1.543000
 30
0.000000
 11
2.466500
 21
1.493000
 31
0.000000
  0
LINE
  8
21
 10
2.466500
 20
1.493000
 30
0.000000
 11
2.441500
 21
1.468000
 31
0.000000
  0
LINE
  8
21
 10
2.441500
 20
1.468000
 30
0.000000
 11
2.391500
 21
1.468000
 31
0.000000
  0
LINE
  8
21
 10
2.391500
 20
1.468000
 30
0.000000
 11
2.366500
 21
1.493000
 31
0.000000
  0
LINE
  8
21
 10
2.366500
 20
1.493000
 30
0.000000
 11
2.366500
 21
1.543000
 31
0.000000
  0
LINE
  8
21
 10
2.366500
 20
1.543000
 30
0.000000
 11
2.391500
 21
1.568000
 31
0.000000
  0
LINE
  8
21
 10
2.466500
 20
1.743000
 30
0.000000
 11
2.466500
 21
1.693000
 31
0.000000
  0
LINE
  8
21
 10
2.466500
 20
1.693000
 30
0.000000
 11
2.441500
 21
1.668000
 31
0.000000
  0
LINE
  8
21
 10
2.441500
 20
1.668000
 30
0.000000
 11
2.391500
 21
1.668000
 31
0.000000
  0
LINE
  8
21
 10
2.391500
 20
1.668000
 30
0.000000
 11
2.366500
 21
1.693000
 31
0.000000
  0
LINE
  8
21
 10
2.441500
 20
1.668000
 30
0.000000
 11
2.466500
 21
1.643000
 31
0.000000
  0
LINE
  8
21
 10
2.466500
 20
1.643000
 30
0.000000
 11
2.466500
 21
1.593000
 31
0.000000
  0
LINE
  8
21
 10
2.466500
 20
1.593000
 30
0.000000
 11
2.441500
 21
1.568000
 31
0.000000
  0
LINE
  8
21
 10
2.441500
 20
1.568000
 30
0.000000
 11
2.391500
 21
1.568000
 31
0.000000
  0
LINE
  8
21
 10
2.391500
 20
1.568000
 30
0.000000
 11
2.366500
 21
1.593000
 31
0.000000
  0
LINE
  8
21
 10
2.366500
 20
1.593000
 30
0.000000
 11
2.366500
 21
1.643000
 31
0.000000
  0
LINE
  8
21
 10
2.366500
 20
1.643000
 30
0.000000
 11
2.391500
 21
1.668000
 31
0.000000
  0
LINE
  8
21
 10
2.441500
 20
1.768000
 30
0.000000
 11
2.391500
 21
1.768000
 31
0.000000
  0
LINE
  8
21
 10
2.466500
 20
1.743000
 30
0.000000
 11
2.441500
 21
1.768000
 31
0.000000
  0
LINE
  8
21
 10
2.391500
 20
1.768000
 30
0.000000
 11
2.366500
 21
1.743000
 31
0.000000
  0
LINE
  8
21
 10
2.366500
 20
1.693000
 30
0.000000
 11
2.366500
 21
1.743000
 31
0.000000
  0
LINE
  8
21
 10
2.466500
 20
1.443000
 30
0.000000
 11
2.466500
 21
1.393000
 31
0.000000
  0
LINE
  8
21
 10
2.466500
 20
1.393000
 30
0.000000
 11
2.441500
 21
1.368000
 31
0.000000
  0
LINE
  8
21
 10
2.441500
 20
1.368000
 30
0.000000
 11
2.391500
 21
1.368000
 31
0.000000
  0
LINE
  8
21
 10
2.391500
 20
1.368000
 30
0.000000
 11
2.366500
 21
1.393000
 31
0.000000
  0
LINE
  8
21
 10
2.466500
 20
1.443000
 30
0.000000
 11
2.441500
 21
1.468000
 31
0.000000
  0
LINE
  8
21
 10
2.391500
 20
1.468000
 30
0.000000
 11
2.366500
 21
1.443000
 31
0.000000
  0
LINE
  8
21
 10
2.366500
 20
1.393000
 30
0.000000
 11
2.366500
 21
1.443000
 31
0.000000
  0
INSERT
  8
51
  2
RECT
 10
2.416500
 20
1.518000
 30
0.000000
 41
0.020000
 42
0.020000
 43
1.000000
 50
270.000000
  0
INSERT
  8
51
  2
RECT
 10
2.416500
 20
1.618000
 30
0.000000
 41
0.020000
 42
0.020000
 43
1.000000
 50
270.000000
  0
INSERT
  8
51
  2
RECT
 10
2.416500
 20
1.718000
 30
0.000000
 41
0.020000
 42
0.020000
 43
1.000000
 50
270.000000
  0
INSERT
  8
51
  2
RECT
 10
2.416500
 20
1.418000
 30
0.000000
 41
0.020000
 42
0.020000
 43
1.000000
 50
270.000000
  0
LINE
  8
21
 10
2.115000
 20
1.568000
 30
0.000000
 11
2.140000
 21
1.543000
 31
0.000000
  0
LINE
  8
21
 10
2.140000
 20
1.543000
 30
0.000000
 11
2.140000
 21
1.493000
 31
0.000000
  0
LINE
  8
21
 10
2.140000
 20
1.493000
 30
0.000000
 11
2.115000
 21
1.468000
 31
0.000000
  0
LINE
  8
21
 10
2.115000
 20
1.468000
 30
0.000000
 11
2.065000
 21
1.468000
 31
0.000000
  0
LINE
  8
21
 10
2.065000
 20
1.468000
 30
0.000000
 11
2.040000
 21
1.493000
 31
0.000000
  0
LINE
  8
21
 10
2.040000
 20
1.493000
 30
0.000000
 11
2.040000
 21
1.543000
 31
0.000000
  0
LINE
  8
21
 10
2.040000
 20
1.543000
 30
0.000000
 11
2.065000
 21
1.568000
 31
0.000000
  0
LINE
  8
21
 10
2.140000
 20
1.743000
 30
0.000000
 11
2.140000
 21
1.693000
 31
0.000000
  0
LINE
  8
21
 10
2.140000
 20
1.693000
 30
0.000000
 11
2.115000
 21
1.668000
 31
0.000000
  0
LINE
  8
21
 10
2.115000
 20
1.668000
 30
0.000000
 11
2.065000
 21
1.668000
 31
0.000000
  0
LINE
  8
21
 10
2.065000
 20
1.668000
 30
0.000000
 11
2.040000
 21
1.693000
 31
0.000000
  0
LINE
  8
21
 10
2.115000
 20
1.668000
 30
0.000000
 11
2.140000
 21
1.643000
 31
0.000000
  0
LINE
  8
21
 10
2.140000
 20
1.643000
 30
0.000000
 11
2.140000
 21
1.593000
 31
0.000000
  0
LINE
  8
21
 10
2.140000
 20
1.593000
 30
0.000000
 11
2.115000
 21
1.568000
 31
0.000000
  0
LINE
  8
21
 10
2.115000
 20
1.568000
 30
0.000000
 11
2.065000
 21
1.568000
 31
0.000000
  0
LINE
  8
21
 10
2.065000
 20
1.568000
 30
0.000000
 11
2.040000
 21
1.593000
 31
0.000000
  0
LINE
  8
21
 10
2.040000
 20
1.593000
 30
0.000000
 11
2.040000
 21
1.643000
 31
0.000000
  0
LINE
  8
21
 10
2.040000
 20
1.643000
 30
0.000000
 11
2.065000
 21
1.668000
 31
0.000000
  0
LINE
  8
21
 10
2.115000
 20
1.768000
 30
0.000000
 11
2.065000
 21
1.768000
 31
0.000000
  0
LINE
  8
21
 10
2.140000
 20
1.743000
 30
0.000000
 11
2.115000
 21
1.768000
 31
0.000000
  0
LINE
  8
21
 10
2.065000
 20
1.768000
 30
0.000000
 11
2.040000
 21
1.743000
 31
0.000000
  0
LINE
  8
21
 10
2.040000
 20
1.693000
 30
0.000000
 11
2.040000
 21
1.743000
 31
0.000000
  0
LINE
  8
21
 10
2.140000
 20
1.443000
 30
0.000000
 11
2.140000
 21
1.393000
 31
0.000000
  0
LINE
  8
21
 10
2.140000
 20
1.393000
 30
0.000000
 11
2.115000
 21
1.368000
 31
0.000000
  0
LINE
  8
21
 10
2.115000
 20
1.368000
 30
0.000000
 11
2.065000
 21
1.368000
 31
0.000000
  0
LINE
  8
21
 10
2.065000
 20
1.368000
 30
0.000000
 11
2.040000
 21
1.393000
 31
0.000000
  0
LINE
  8
21
 10
2.140000
 20
1.443000
 30
0.000000
 11
2.115000
 21
1.468000
 31
0.000000
  0
LINE
  8
21
 10
2.065000
 20
1.468000
 30
0.000000
 11
2.040000
 21
1.443000
 31
0.000000
  0
LINE
  8
21
 10
2.040000
 20
1.393000
 30
0.000000
 11
2.040000
 21
1.443000
 31
0.000000
  0
INSERT
  8
51
  2
RECT
 10
2.090000
 20
1.518000
 30
0.000000
 41
0.020000
 42
0.020000
 43
1.000000
 50
270.000000
  0
INSERT
  8
51
  2
RECT
 10
2.090000
 20
1.618000
 30
0.000000
 41
0.020000
 42
0.020000
 43
1.000000
 50
270.000000
  0
INSERT
  8
51
  2
RECT
 10
2.090000
 20
1.718000
 30
0.000000
 41
0.020000
 42
0.020000
 43
1.000000
 50
270.000000
  0
INSERT
  8
51
  2
RECT
 10
2.090000
 20
1.418000
 30
0.000000
 41
0.020000
 42
0.020000
 43
1.000000
 50
270.000000
  0
LINE
  8
51
 10
3.637500
 20
0.801750
 30
0.000000
 11
3.689500
 21
0.801750
 31
0.000000
  0
LINE
  8
51
 10
3.689500
 20
0.801750
 30
0.000000
 11
3.689500
 21
0.689750
 31
0.000000
  0
LINE
  8
51
 10
3.689500
 20
0.689750
 30
0.000000
 11
3.637500
 21
0.689750
 31
0.000000
  0
LINE
  8
51
 10
3.637500
 20
0.689750
 30
0.000000
 11
3.637500
 21
0.801750
 31
0.000000
  0
INSERT
  8
51
  2
RECT
 10
3.624000
 20
0.745750
 30
0.000000
 41
0.018000
 42
0.023000
 43
1.000000
 50
90.000000
  0
INSERT
  8
51
  2
RECT
 10
3.703000
 20
0.782750
 30
0.000000
 41
0.018000
 42
0.023000
 43
1.000000
 50
90.000000
  0
INSERT
  8
51
  2
RECT
 10
3.703000
 20
0.708750
 30
0.000000
 41
0.018000
 42
0.023000
 43
1.000000
 50
90.000000
  0
LINE
  8
51
 10
3.637500
 20
0.651750
 30
0.000000
 11
3.689500
 21
0.651750
 31
0.000000
  0
LINE
  8
51
 10
3.689500
 20
0.651750
 30
0.000000
 11
3.689500
 21
0.539750
 31
0.000000
  0
LINE
  8
51
 10
3.689500
 20
0.539750
 30
0.000000
 11
3.637500
 21
0.539750
 31
0.000000
  0
LINE
  8
51
 10
3.637500
 20
0.539750
 30
0.000000
 11
3.637500
 21
0.651750
 31
0.000000
  0
INSERT
  8
51
  2
RECT
 10
3.624000
 20
0.595750
 30
0.000000
 41
0.018000
 42
0.023000
 43
1.000000
 50
90.000000
  0
INSERT
  8
51
  2
RECT
 10
3.703000
 20
0.632750
 30
0.000000
 41
0.018000
 42
0.023000
 43
1.000000
 50
90.000000
  0
INSERT
  8
51
  2
RECT
 10
3.703000
 20
0.558750
 30
0.000000
 41
0.018000
 42
0.023000
 43
1.000000
 50
90.000000
  0
LINE
  8
51
 10
0.990890
 20
0.337266
 30
0.000000
 11
0.927110
 21
0.337266
 31
0.000000
  0
LINE
  8
51
 10
0.927110
 20
0.337266
 30
0.000000
 11
0.927110
 21
0.449234
 31
0.000000
  0
LINE
  8
51
 10
0.927110
 20
0.449234
 30
0.000000
 11
0.990890
 21
0.449234
 31
0.000000
  0
LINE
  8
51
 10
0.990890
 20
0.449234
 30
0.000000
 11
0.990890
 21
0.337266
 31
0.000000
  0
LINE
  8
21
 10
0.990496
 20
0.450337
 30
0.000000
 11
0.927504
 21
0.450337
 31
0.000000
  0
LINE
  8
21
 10
0.927504
 20
0.336163
 30
0.000000
 11
0.990496
 21
0.336163
 31
0.000000
  0
CIRCLE
  8
21
 10
0.945220
 20
0.430652
 30
0.000000
 40
0.003937
  0
INSERT
  8
51
  2
RECT
 10
0.912740
 20
0.430652
 30
0.000000
 41
0.019685
 42
0.025591
 43
1.000000
 50
270.000000
  0
INSERT
  8
51
  2
RECT
 10
0.912740
 20
0.393250
 30
0.000000
 41
0.019685
 42
0.025591
 43
1.000000
 50
270.000000
  0
INSERT
  8
51
  2
RECT
 10
0.912740
 20
0.355848
 30
0.000000
 41
0.019685
 42
0.025591
 43
1.000000
 50
270.000000
  0
INSERT
  8
51
  2
RECT
 10
1.005260
 20
0.355848
 30
0.000000
 41
0.019685
 42
0.025591
 43
1.000000
 50
270.000000
  0
INSERT
  8
51
  2
RECT
 10
1.005260
 20
0.393250
 30
0.000000
 41
0.019685
 42
0.025591
 43
1.000000
 50
270.000000
  0
INSERT
  8
51
  2
RECT
 10
1.005260
 20
0.430652
 30
0.000000
 41
0.019685
 42
0.025591
 43
1.000000
 50
270.000000
  0
LINE
  8
21
 10
3.556250
 20
1.195750
 30
0.000000
 11
3.556250
 21
1.210750
 31
0.000000
  0
LINE
  8
21
 10
3.556250
 20
1.210750
 30
0.000000
 11
3.636250
 21
1.210750
 31
0.000000
  0
LINE
  8
21
 10
3.636250
 20
1.210750
 30
0.000000
 11
3.636250
 21
1.195750
 31
0.000000
  0
LINE
  8
21
 10
3.636250
 20
1.195750
 30
0.000000
 11
3.556250
 21
1.195750
 31
0.000000
  0
LINE
  8
21
 10
3.636250
 20
1.210750
 30
0.000000
 11
3.556250
 21
1.210750
 31
0.000000
  0
LINE
  8
21
 10
3.636250
 20
1.205750
 30
0.000000
 11
3.556250
 21
1.205750
 31
0.000000
  0
LINE
  8
21
 10
3.636250
 20
1.200750
 30
0.000000
 11
3.556250
 21
1.200750
 31
0.000000
  0
LINE
  8
21
 10
3.753730
 20
0.917955
 30
0.000000
 11
3.438770
 21
0.917955
 31
0.000000
  0
LINE
  8
21
 10
3.438770
 20
0.917955
 30
0.000000
 11
3.438770
 21
1.193545
 31
0.000000
  0
LINE
  8
21
 10
3.438770
 20
1.193545
 30
0.000000
 11
3.556880
 21
1.193545
 31
0.000000
  0
LINE
  8
21
 10
3.556880
 20
1.193545
 30
0.000000
 11
3.635620
 21
1.193545
 31
0.000000
  0
LINE
  8
21
 10
3.635620
 20
1.193545
 30
0.000000
 11
3.753730
 21
1.193545
 31
0.000000
  0
LINE
  8
21
 10
3.753730
 20
1.193545
 30
0.000000
 11
3.753730
 21
0.917955
 31
0.000000
  0
LINE
  8
21
 10
3.635620
 20
1.193545
 30
0.000000
 11
3.635620
 21
1.213230
 31
0.000000
  0
LINE
  8
21
 10
3.635620
 20
1.213230
 30
0.000000
 11
3.556880
 21
1.213230
 31
0.000000
  0
LINE
  8
21
 10
3.556880
 20
1.213230
 30
0.000000
 11
3.556880
 21
1.193545
 31
0.000000
  0
LINE
  8
21
 10
0.848189
 20
3.366142
 30
0.000000
 11
0.337913
 21
3.366142
 31
0.000000
  0
LINE
  8
21
 10
0.337913
 20
3.720472
 30
0.000000
 11
0.503937
 21
3.720472
 31
0.000000
  0
LINE
  8
21
 10
0.503937
 20
3.720472
 30
0.000000
 11
0.677165
 21
3.720472
 31
0.000000
  0
LINE
  8
21
 10
0.677165
 20
3.720472
 30
0.000000
 11
0.848189
 21
3.720472
 31
0.000000
  0
LINE
  8
21
 10
0.848189
 20
3.720472
 30
0.000000
 11
0.848189
 21
3.370079
 31
0.000000
  0
LINE
  8
21
 10
0.337913
 20
3.366142
 30
0.000000
 11
0.337913
 21
3.720472
 31
0.000000
  0
LINE
  8
51
 10
0.809882
 20
3.677165
 30
0.000000
 11
0.809882
 21
3.409449
 31
0.000000
  0
LINE
  8
51
 10
0.809882
 20
3.409449
 30
0.000000
 11
0.391220
 21
3.409449
 31
0.000000
  0
LINE
  8
51
 10
0.391220
 20
3.677165
 30
0.000000
 11
0.391220
 21
3.409449
 31
0.000000
  0
LINE
  8
21
 10
0.677165
 20
3.720472
 30
0.000000
 11
0.677165
 21
3.661417
 31
0.000000
  0
LINE
  8
21
 10
0.677165
 20
3.661417
 30
0.000000
 11
0.503937
 21
3.661417
 31
0.000000
  0
LINE
  8
21
 10
0.503937
 20
3.661417
 30
0.000000
 11
0.503937
 21
3.720472
 31
0.000000
  0
LINE
  8
51
 10
0.809882
 20
3.677165
 30
0.000000
 11
0.677165
 21
3.677165
 31
0.000000
  0
LINE
  8
51
 10
0.391220
 20
3.677165
 30
0.000000
 11
0.503937
 21
3.677165
 31
0.000000
  0
LINE
  8
21
 10
0.715551
 20
3.647559
 30
0.000000
 11
0.665551
 21
3.647559
 31
0.000000
  0
INSERT
  8
51
  2
RECT
 10
0.690551
 20
3.493307
 30
0.000000
 41
0.020000
 42
0.020000
 43
1.000000
 50
270.000000
  0
INSERT
  8
51
  2
RECT
 10
0.690551
 20
3.593307
 30
0.000000
 41
0.020000
 42
0.020000
 43
1.000000
 50
270.000000
  0
INSERT
  8
51
  2
RECT
 10
0.590551
 20
3.493307
 30
0.000000
 41
0.020000
 42
0.020000
 43
1.000000
 50
270.000000
  0
INSERT
  8
51
  2
RECT
 10
0.590551
 20
3.593307
 30
0.000000
 41
0.020000
 42
0.020000
 43
1.000000
 50
270.000000
  0
INSERT
  8
51
  2
RECT
 10
0.490551
 20
3.493307
 30
0.000000
 41
0.020000
 42
0.020000
 43
1.000000
 50
270.000000
  0
INSERT
  8
51
  2
RECT
 10
0.490551
 20
3.593307
 30
0.000000
 41
0.020000
 42
0.020000
 43
1.000000
 50
270.000000
  0
INSERT
  8
51
  2
RECT
 10
0.490551
 20
3.593307
 30
0.000000
 41
0.020000
 42
0.020000
 43
1.000000
 50
270.000000
  0
INSERT
  8
51
  2
RECT
 10
0.490551
 20
3.493307
 30
0.000000
 41
0.020000
 42
0.020000
 43
1.000000
 50
270.000000
  0
LINE
  8
51
 10
1.695640
 20
0.351266
 30
0.000000
 11
1.631860
 21
0.351266
 31
0.000000
  0
LINE
  8
51
 10
1.631860
 20
0.351266
 30
0.000000
 11
1.631860
 21
0.463234
 31
0.000000
  0
LINE
  8
51
 10
1.631860
 20
0.463234
 30
0.000000
 11
1.695640
 21
0.463234
 31
0.000000
  0
LINE
  8
51
 10
1.695640
 20
0.463234
 30
0.000000
 11
1.695640
 21
0.351266
 31
0.000000
  0
LINE
  8
21
 10
1.695246
 20
0.464337
 30
0.000000
 11
1.632254
 21
0.464337
 31
0.000000
  0
LINE
  8
21
 10
1.632254
 20
0.350163
 30
0.000000
 11
1.695246
 21
0.350163
 31
0.000000
  0
CIRCLE
  8
21
 10
1.649970
 20
0.444652
 30
0.000000
 40
0.003937
  0
INSERT
  8
51
  2
RECT
 10
1.617490
 20
0.444652
 30
0.000000
 41
0.019685
 42
0.025591
 43
1.000000
 50
270.000000
  0
INSERT
  8
51
  2
RECT
 10
1.617490
 20
0.407250
 30
0.000000
 41
0.019685
 42
0.025591
 43
1.000000
 50
270.000000
  0
INSERT
  8
51
  2
RECT
 10
1.617490
 20
0.369848
 30
0.000000
 41
0.019685
 42
0.025591
 43
1.000000
 50
270.000000
  0
INSERT
  8
51
  2
RECT
 10
1.710010
 20
0.369848
 30
0.000000
 41
0.019685
 42
0.025591
 43
1.000000
 50
270.000000
  0
INSERT
  8
51
  2
RECT
 10
1.710010
 20
0.407250
 30
0.000000
 41
0.019685
 42
0.025591
 43
1.000000
 50
270.000000
  0
INSERT
  8
51
  2
RECT
 10
1.710010
 20
0.444652
 30
0.000000
 41
0.019685
 42
0.025591
 43
1.000000
 50
270.000000
  0
LINE
  8
21
 10
1.958465
 20
0.150000
 30
0.000000
 11
1.958465
 21
1.138189
 31
0.000000
  0
LINE
  8
21
 10
1.958465
 20
1.138189
 30
0.000000
 11
0.675000
 21
1.138189
 31
0.000000
  0
LINE
  8
21
 10
0.675000
 20
1.138189
 30
0.000000
 11
0.675000
 21
0.150000
 31
0.000000
  0
LINE
  8
21
 10
1.029331
 20
1.106693
 30
0.000000
 11
1.029331
 21
0.909843
 31
0.000000
  0
LINE
  8
21
 10
1.029331
 20
0.909843
 30
0.000000
 11
1.619882
 21
0.909843
 31
0.000000
  0
LINE
  8
21
 10
1.619882
 20
0.909843
 30
0.000000
 11
1.619882
 21
1.106693
 31
0.000000
  0
LINE
  8
21
 10
1.029331
 20
1.106693
 30
0.000000
 11
1.619882
 21
1.106693
 31
0.000000
  0
LINE
  8
21
 10
0.988024
 20
1.064583
 30
0.000000
 11
1.003370
 21
1.079929
 31
0.000000
  0
LINE
  8
21
 10
1.003370
 20
1.079929
 30
0.000000
 11
1.003370
 21
1.033890
 31
0.000000
  0
LINE
  8
21
 10
0.988024
 20
1.033890
 30
0.000000
 11
1.018716
 21
1.033890
 31
0.000000
  0
CIRCLE
  8
21
 10
1.092323
 20
1.051575
 30
0.000000
 40
0.017607
  0
CIRCLE
  8
20
 10
0.773425
 20
1.020079
 30
0.000000
 40
0.045276
  0
CIRCLE
  8
20
 10
1.875787
 20
1.020079
 30
0.000000
 40
0.045276
  0
LINE
  8
21
 10
0.848189
 20
2.854331
 30
0.000000
 11
0.337913
 21
2.854331
 31
0.000000
  0
LINE
  8
21
 10
0.337913
 20
3.208661
 30
0.000000
 11
0.503937
 21
3.208661
 31
0.000000
  0
LINE
  8
21
 10
0.503937
 20
3.208661
 30
0.000000
 11
0.677165
 21
3.208661
 31
0.000000
  0
LINE
  8
21
 10
0.677165
 20
3.208661
 30
0.000000
 11
0.848189
 21
3.208661
 31
0.000000
  0
LINE
  8
21
 10
0.848189
 20
3.208661
 30
0.000000
 11
0.848189
 21
2.858268
 31
0.000000
  0
LINE
  8
21
 10
0.337913
 20
2.854331
 30
0.000000
 11
0.337913
 21
3.208661
 31
0.000000
  0
LINE
  8
51
 10
0.809882
 20
3.165354
 30
0.000000
 11
0.809882
 21
2.897638
 31
0.000000
  0
LINE
  8
51
 10
0.809882
 20
2.897638
 30
0.000000
 11
0.391220
 21
2.897638
 31
0.000000
  0
LINE
  8
51
 10
0.391220
 20
3.165354
 30
0.000000
 11
0.391220
 21
2.897638
 31
0.000000
  0
LINE
  8
21
 10
0.677165
 20
3.208661
 30
0.000000
 11
0.677165
 21
3.149606
 31
0.000000
  0
LINE
  8
21
 10
0.677165
 20
3.149606
 30
0.000000
 11
0.503937
 21
3.149606
 31
0.000000
  0
LINE
  8
21
 10
0.503937
 20
3.149606
 30
0.000000
 11
0.503937
 21
3.208661
 31
0.000000
  0
LINE
  8
51
 10
0.809882
 20
3.165354
 30
0.000000
 11
0.677165
 21
3.165354
 31
0.000000
  0
LINE
  8
51
 10
0.391220
 20
3.165354
 30
0.000000
 11
0.503937
 21
3.165354
 31
0.000000
  0
LINE
  8
21
 10
0.715551
 20
3.135748
 30
0.000000
 11
0.665551
 21
3.135748
 31
0.000000
  0
INSERT
  8
51
  2
RECT
 10
0.690551
 20
2.981496
 30
0.000000
 41
0.020000
 42
0.020000
 43
1.000000
 50
270.000000
  0
INSERT
  8
51
  2
RECT
 10
0.690551
 20
3.081496
 30
0.000000
 41
0.020000
 42
0.020000
 43
1.000000
 50
270.000000
  0
INSERT
  8
51
  2
RECT
 10
0.590551
 20
2.981496
 30
0.000000
 41
0.020000
 42
0.020000
 43
1.000000
 50
270.000000
  0
INSERT
  8
51
  2
RECT
 10
0.590551
 20
3.081496
 30
0.000000
 41
0.020000
 42
0.020000
 43
1.000000
 50
270.000000
  0
INSERT
  8
51
  2
RECT
 10
0.490551
 20
2.981496
 30
0.000000
 41
0.020000
 42
0.020000
 43
1.000000
 50
270.000000
  0
INSERT
  8
51
  2
RECT
 10
0.490551
 20
3.081496
 30
0.000000
 41
0.020000
 42
0.020000
 43
1.000000
 50
270.000000
  0
INSERT
  8
51
  2
RECT
 10
0.490551
 20
3.081496
 30
0.000000
 41
0.020000
 42
0.020000
 43
1.000000
 50
270.000000
  0
INSERT
  8
51
  2
RECT
 10
0.490551
 20
2.981496
 30
0.000000
 41
0.020000
 42
0.020000
 43
1.000000
 50
270.000000
  0
LINE
  8
21
 10
1.537165
 20
3.366142
 30
0.000000
 11
1.026890
 21
3.366142
 31
0.000000
  0
LINE
  8
21
 10
1.026890
 20
3.720472
 30
0.000000
 11
1.192913
 21
3.720472
 31
0.000000
  0
LINE
  8
21
 10
1.192913
 20
3.720472
 30
0.000000
 11
1.366142
 21
3.720472
 31
0.000000
  0
LINE
  8
21
 10
1.366142
 20
3.720472
 30
0.000000
 11
1.537165
 21
3.720472
 31
0.000000
  0
LINE
  8
21
 10
1.537165
 20
3.720472
 30
0.000000
 11
1.537165
 21
3.370079
 31
0.000000
  0
LINE
  8
21
 10
1.026890
 20
3.366142
 30
0.000000
 11
1.026890
 21
3.720472
 31
0.000000
  0
LINE
  8
51
 10
1.498858
 20
3.677165
 30
0.000000
 11
1.498858
 21
3.409449
 31
0.000000
  0
LINE
  8
51
 10
1.498858
 20
3.409449
 30
0.000000
 11
1.080197
 21
3.409449
 31
0.000000
  0
LINE
  8
51
 10
1.080197
 20
3.677165
 30
0.000000
 11
1.080197
 21
3.409449
 31
0.000000
  0
LINE
  8
21
 10
1.366142
 20
3.720472
 30
0.000000
 11
1.366142
 21
3.661417
 31
0.000000
  0
LINE
  8
21
 10
1.366142
 20
3.661417
 30
0.000000
 11
1.192913
 21
3.661417
 31
0.000000
  0
LINE
  8
21
 10
1.192913
 20
3.661417
 30
0.000000
 11
1.192913
 21
3.720472
 31
0.000000
  0
LINE
  8
51
 10
1.498858
 20
3.677165
 30
0.000000
 11
1.366142
 21
3.677165
 31
0.000000
  0
LINE
  8
51
 10
1.080197
 20
3.677165
 30
0.000000
 11
1.192913
 21
3.677165
 31
0.000000
  0
LINE
  8
21
 10
1.404528
 20
3.647559
 30
0.000000
 11
1.354528
 21
3.647559
 31
0.000000
  0
INSERT
  8
51
  2
RECT
 10
1.379528
 20
3.493307
 30
0.000000
 41
0.020000
 42
0.020000
 43
1.000000
 50
270.000000
  0
INSERT
  8
51
  2
RECT
 10
1.379528
 20
3.593307
 30
0.000000
 41
0.020000
 42
0.020000
 43
1.000000
 50
270.000000
  0
INSERT
  8
51
  2
RECT
 10
1.279528
 20
3.493307
 30
0.000000
 41
0.020000
 42
0.020000
 43
1.000000
 50
270.000000
  0
INSERT
  8
51
  2
RECT
 10
1.279528
 20
3.593307
 30
0.000000
 41
0.020000
 42
0.020000
 43
1.000000
 50
270.000000
  0
INSERT
  8
51
  2
RECT
 10
1.179528
 20
3.493307
 30
0.000000
 41
0.020000
 42
0.020000
 43
1.000000
 50
270.000000
  0
INSERT
  8
51
  2
RECT
 10
1.179528
 20
3.593307
 30
0.000000
 41
0.020000
 42
0.020000
 43
1.000000
 50
270.000000
  0
INSERT
  8
51
  2
RECT
 10
1.179528
 20
3.593307
 30
0.000000
 41
0.020000
 42
0.020000
 43
1.000000
 50
270.000000
  0
INSERT
  8
51
  2
RECT
 10
1.179528
 20
3.493307
 30
0.000000
 41
0.020000
 42
0.020000
 43
1.000000
 50
270.000000
  0
LINE
  8
21
 10
1.537165
 20
2.854331
 30
0.000000
 11
1.026890
 21
2.854331
 31
0.000000
  0
LINE
  8
21
 10
1.026890
 20
3.208661
 30
0.000000
 11
1.192913
 21
3.208661
 31
0.000000
  0
LINE
  8
21
 10
1.192913
 20
3.208661
 30
0.000000
 11
1.366142
 21
3.208661
 31
0.000000
  0
LINE
  8
21
 10
1.366142
 20
3.208661
 30
0.000000
 11
1.537165
 21
3.208661
 31
0.000000
  0
LINE
  8
21
 10
1.537165
 20
3.208661
 30
0.000000
 11
1.537165
 21
2.858268
 31
0.000000
  0
LINE
  8
21
 10
1.026890
 20
2.854331
 30
0.000000
 11
1.026890
 21
3.208661
 31
0.000000
  0
LINE
  8
51
 10
1.498858
 20
3.165354
 30
0.000000
 11
1.498858
 21
2.897638
 31
0.000000
  0
LINE
  8
51
 10
1.498858
 20
2.897638
 30
0.000000
 11
1.080197
 21
2.897638
 31
0.000000
  0
LINE
  8
51
 10
1.080197
 20
3.165354
 30
0.000000
 11
1.080197
 21
2.897638
 31
0.000000
  0
LINE
  8
21
 10
1.366142
 20
3.208661
 30
0.000000
 11
1.366142
 21
3.149606
 31
0.000000
  0
LINE
  8
21
 10
1.366142
 20
3.149606
 30
0.000000
 11
1.192913
 21
3.149606
 31
0.000000
  0
LINE
  8
21
 10
1.192913
 20
3.149606
 30
0.000000
 11
1.192913
 21
3.208661
 31
0.000000
  0
LINE
  8
51
 10
1.498858
 20
3.165354
 30
0.000000
 11
1.366142
 21
3.165354
 31
0.000000
  0
LINE
  8
51
 10
1.080197
 20
3.165354
 30
0.000000
 11
1.192913
 21
3.165354
 31
0.000000
  0
LINE
  8
21
 10
1.404528
 20
3.135748
 30
0.000000
 11
1.354528
 21
3.135748
 31
0.000000
  0
INSERT
  8
51
  2
RECT
 10
1.379528
 20
2.981496
 30
0.000000
 41
0.020000
 42
0.020000
 43
1.000000
 50
270.000000
  0
INSERT
  8
51
  2
RECT
 10
1.379528
 20
3.081496
 30
0.000000
 41
0.020000
 42
0.020000
 43
1.000000
 50
270.000000
  0
INSERT
  8
51
  2
RECT
 10
1.279528
 20
2.981496
 30
0.000000
 41
0.020000
 42
0.020000
 43
1.000000
 50
270.000000
  0
INSERT
  8
51
  2
RECT
 10
1.279528
 20
3.081496
 30
0.000000
 41
0.020000
 42
0.020000
 43
1.000000
 50
270.000000
  0
INSERT
  8
51
  2
RECT
 10
1.179528
 20
2.981496
 30
0.000000
 41
0.020000
 42
0.020000
 43
1.000000
 50
270.000000
  0
INSERT
  8
51
  2
RECT
 10
1.179528
 20
3.081496
 30
0.000000
 41
0.020000
 42
0.020000
 43
1.000000
 50
270.000000
  0
INSERT
  8
51
  2
RECT
 10
1.179528
 20
3.081496
 30
0.000000
 41
0.020000
 42
0.020000
 43
1.000000
 50
270.000000
  0
INSERT
  8
51
  2
RECT
 10
1.179528
 20
2.981496
 30
0.000000
 41
0.020000
 42
0.020000
 43
1.000000
 50
270.000000
  0
LINE
  8
21
 10
2.915118
 20
3.366142
 30
0.000000
 11
2.404843
 21
3.366142
 31
0.000000
  0
LINE
  8
21
 10
2.404843
 20
3.720472
 30
0.000000
 11
2.570866
 21
3.720472
 31
0.000000
  0
LINE
  8
21
 10
2.570866
 20
3.720472
 30
0.000000
 11
2.744094
 21
3.720472
 31
0.000000
  0
LINE
  8
21
 10
2.744094
 20
3.720472
 30
0.000000
 11
2.915118
 21
3.720472
 31
0.000000
  0
LINE
  8
21
 10
2.915118
 20
3.720472
 30
0.000000
 11
2.915118
 21
3.370079
 31
0.000000
  0
LINE
  8
21
 10
2.404843
 20
3.366142
 30
0.000000
 11
2.404843
 21
3.720472
 31
0.000000
  0
LINE
  8
51
 10
2.876811
 20
3.677165
 30
0.000000
 11
2.876811
 21
3.409449
 31
0.000000
  0
LINE
  8
51
 10
2.876811
 20
3.409449
 30
0.000000
 11
2.458150
 21
3.409449
 31
0.000000
  0
LINE
  8
51
 10
2.458150
 20
3.677165
 30
0.000000
 11
2.458150
 21
3.409449
 31
0.000000
  0
LINE
  8
21
 10
2.744094
 20
3.720472
 30
0.000000
 11
2.744094
 21
3.661417
 31
0.000000
  0
LINE
  8
21
 10
2.744094
 20
3.661417
 30
0.000000
 11
2.570866
 21
3.661417
 31
0.000000
  0
LINE
  8
21
 10
2.570866
 20
3.661417
 30
0.000000
 11
2.570866
 21
3.720472
 31
0.000000
  0
LINE
  8
51
 10
2.876811
 20
3.677165
 30
0.000000
 11
2.744094
 21
3.677165
 31
0.000000
  0
LINE
  8
51
 10
2.458150
 20
3.677165
 30
0.000000
 11
2.570866
 21
3.677165
 31
0.000000
  0
LINE
  8
21
 10
2.782480
 20
3.647559
 30
0.000000
 11
2.732480
 21
3.647559
 31
0.000000
  0
INSERT
  8
51
  2
RECT
 10
2.757480
 20
3.493307
 30
0.000000
 41
0.020000
 42
0.020000
 43
1.000000
 50
270.000000
  0
INSERT
  8
51
  2
RECT
 10
2.757480
 20
3.593307
 30
0.000000
 41
0.020000
 42
0.020000
 43
1.000000
 50
270.000000
  0
INSERT
  8
51
  2
RECT
 10
2.657480
 20
3.493307
 30
0.000000
 41
0.020000
 42
0.020000
 43
1.000000
 50
270.000000
  0
INSERT
  8
51
  2
RECT
 10
2.657480
 20
3.593307
 30
0.000000
 41
0.020000
 42
0.020000
 43
1.000000
 50
270.000000
  0
INSERT
  8
51
  2
RECT
 10
2.557480
 20
3.493307
 30
0.000000
 41
0.020000
 42
0.020000
 43
1.000000
 50
270.000000
  0
INSERT
  8
51
  2
RECT
 10
2.557480
 20
3.593307
 30
0.000000
 41
0.020000
 42
0.020000
 43
1.000000
 50
270.000000
  0
INSERT
  8
51
  2
RECT
 10
2.557480
 20
3.593307
 30
0.000000
 41
0.020000
 42
0.020000
 43
1.000000
 50
270.000000
  0
INSERT
  8
51
  2
RECT
 10
2.557480
 20
3.493307
 30
0.000000
 41
0.020000
 42
0.020000
 43
1.000000
 50
270.000000
  0
LINE
  8
21
 10
2.915118
 20
2.854331
 30
0.000000
 11
2.404843
 21
2.854331
 31
0.000000
  0
LINE
  8
21
 10
2.404843
 20
3.208661
 30
0.000000
 11
2.570866
 21
3.208661
 31
0.000000
  0
LINE
  8
21
 10
2.570866
 20
3.208661
 30
0.000000
 11
2.744094
 21
3.208661
 31
0.000000
  0
LINE
  8
21
 10
2.744094
 20
3.208661
 30
0.000000
 11
2.915118
 21
3.208661
 31
0.000000
  0
LINE
  8
21
 10
2.915118
 20
3.208661
 30
0.000000
 11
2.915118
 21
2.858268
 31
0.000000
  0
LINE
  8
21
 10
2.404843
 20
2.854331
 30
0.000000
 11
2.404843
 21
3.208661
 31
0.000000
  0
LINE
  8
51
 10
2.876811
 20
3.165354
 30
0.000000
 11
2.876811
 21
2.897638
 31
0.000000
  0
LINE
  8
51
 10
2.876811
 20
2.897638
 30
0.000000
 11
2.458150
 21
2.897638
 31
0.000000
  0
LINE
  8
51
 10
2.458150
 20
3.165354
 30
0.000000
 11
2.458150
 21
2.897638
 31
0.000000
  0
LINE
  8
21
 10
2.744094
 20
3.208661
 30
0.000000
 11
2.744094
 21
3.149606
 31
0.000000
  0
LINE
  8
21
 10
2.744094
 20
3.149606
 30
0.000000
 11
2.570866
 21
3.149606
 31
0.000000
  0
LINE
  8
21
 10
2.570866
 20
3.149606
 30
0.000000
 11
2.570866
 21
3.208661
 31
0.000000
  0
LINE
  8
51
 10
2.876811
 20
3.165354
 30
0.000000
 11
2.744094
 21
3.165354
 31
0.000000
  0
LINE
  8
51
 10
2.458150
 20
3.165354
 30
0.000000
 11
2.570866
 21
3.165354
 31
0.000000
  0
LINE
  8
21
 10
2.782480
 20
3.135748
 30
0.000000
 11
2.732480
 21
3.135748
 31
0.000000
  0
INSERT
  8
51
  2
RECT
 10
2.757480
 20
2.981496
 30
0.000000
 41
0.020000
 42
0.020000
 43
1.000000
 50
270.000000
  0
INSERT
  8
51
  2
RECT
 10
2.757480
 20
3.081496
 30
0.000000
 41
0.020000
 42
0.020000
 43
1.000000
 50
270.000000
  0
INSERT
  8
51
  2
RECT
 10
2.657480
 20
2.981496
 30
0.000000
 41
0.020000
 42
0.020000
 43
1.000000
 50
270.000000
  0
INSERT
  8
51
  2
RECT
 10
2.657480
 20
3.081496
 30
0.000000
 41
0.020000
 42
0.020000
 43
1.000000
 50
270.000000
  0
INSERT
  8
51
  2
RECT
 10
2.557480
 20
2.981496
 30
0.000000
 41
0.020000
 42
0.020000
 43
1.000000
 50
270.000000
  0
INSERT
  8
51
  2
RECT
 10
2.557480
 20
3.081496
 30
0.000000
 41
0.020000
 42
0.020000
 43
1.000000
 50
270.000000
  0
INSERT
  8
51
  2
RECT
 10
2.557480
 20
3.081496
 30
0.000000
 41
0.020000
 42
0.020000
 43
1.000000
 50
270.000000
  0
INSERT
  8
51
  2
RECT
 10
2.557480
 20
2.981496
 30
0.000000
 41
0.020000
 42
0.020000
 43
1.000000
 50
270.000000
  0
LINE
  8
21
 10
3.604094
 20
3.366142
 30
0.000000
 11
3.093819
 21
3.366142
 31
0.000000
  0
LINE
  8
21
 10
3.093819
 20
3.720472
 30
0.000000
 11
3.259843
 21
3.720472
 31
0.000000
  0
LINE
  8
21
 10
3.259843
 20
3.720472
 30
0.000000
 11
3.433071
 21
3.720472
 31
0.000000
  0
LINE
  8
21
 10
3.433071
 20
3.720472
 30
0.000000
 11
3.604094
 21
3.720472
 31
0.000000
  0
LINE
  8
21
 10
3.604094
 20
3.720472
 30
0.000000
 11
3.604094
 21
3.370079
 31
0.000000
  0
LINE
  8
21
 10
3.093819
 20
3.366142
 30
0.000000
 11
3.093819
 21
3.720472
 31
0.000000
  0
LINE
  8
51
 10
3.565787
 20
3.677165
 30
0.000000
 11
3.565787
 21
3.409449
 31
0.000000
  0
LINE
  8
51
 10
3.565787
 20
3.409449
 30
0.000000
 11
3.147126
 21
3.409449
 31
0.000000
  0
LINE
  8
51
 10
3.147126
 20
3.677165
 30
0.000000
 11
3.147126
 21
3.409449
 31
0.000000
  0
LINE
  8
21
 10
3.433071
 20
3.720472
 30
0.000000
 11
3.433071
 21
3.661417
 31
0.000000
  0
LINE
  8
21
 10
3.433071
 20
3.661417
 30
0.000000
 11
3.259843
 21
3.661417
 31
0.000000
  0
LINE
  8
21
 10
3.259843
 20
3.661417
 30
0.000000
 11
3.259843
 21
3.720472
 31
0.000000
  0
LINE
  8
51
 10
3.565787
 20
3.677165
 30
0.000000
 11
3.433071
 21
3.677165
 31
0.000000
  0
LINE
  8
51
 10
3.147126
 20
3.677165
 30
0.000000
 11
3.259843
 21
3.677165
 31
0.000000
  0
LINE
  8
21
 10
3.471457
 20
3.647559
 30
0.000000
 11
3.421457
 21
3.647559
 31
0.000000
  0
INSERT
  8
51
  2
RECT
 10
3.446457
 20
3.493307
 30
0.000000
 41
0.020000
 42
0.020000
 43
1.000000
 50
270.000000
  0
INSERT
  8
51
  2
RECT
 10
3.446457
 20
3.593307
 30
0.000000
 41
0.020000
 42
0.020000
 43
1.000000
 50
270.000000
  0
INSERT
  8
51
  2
RECT
 10
3.346457
 20
3.493307
 30
0.000000
 41
0.020000
 42
0.020000
 43
1.000000
 50
270.000000
  0
INSERT
  8
51
  2
RECT
 10
3.346457
 20
3.593307
 30
0.000000
 41
0.020000
 42
0.020000
 43
1.000000
 50
270.000000
  0
INSERT
  8
51
  2
RECT
 10
3.246457
 20
3.493307
 30
0.000000
 41
0.020000
 42
0.020000
 43
1.000000
 50
270.000000
  0
INSERT
  8
51
  2
RECT
 10
3.246457
 20
3.593307
 30
0.000000
 41
0.020000
 42
0.020000
 43
1.000000
 50
270.000000
  0
INSERT
  8
51
  2
RECT
 10
3.246457
 20
3.593307
 30
0.000000
 41
0.020000
 42
0.020000
 43
1.000000
 50
270.000000
  0
INSERT
  8
51
  2
RECT
 10
3.246457
 20
3.493307
 30
0.000000
 41
0.020000
 42
0.020000
 43
1.000000
 50
270.000000
  0
LINE
  8
21
 10
3.604094
 20
2.854331
 30
0.000000
 11
3.093819
 21
2.854331
 31
0.000000
  0
LINE
  8
21
 10
3.093819
 20
3.208661
 30
0.000000
 11
3.259843
 21
3.208661
 31
0.000000
  0
LINE
  8
21
 10
3.259843
 20
3.208661
 30
0.000000
 11
3.433071
 21
3.208661
 31
0.000000
  0
LINE
  8
21
 10
3.433071
 20
3.208661
 30
0.000000
 11
3.604094
 21
3.208661
 31
0.000000
  0
LINE
  8
21
 10
3.604094
 20
3.208661
 30
0.000000
 11
3.604094
 21
2.858268
 31
0.000000
  0
LINE
  8
21
 10
3.093819
 20
2.854331
 30
0.000000
 11
3.093819
 21
3.208661
 31
0.000000
  0
LINE
  8
51
 10
3.565787
 20
3.165354
 30
0.000000
 11
3.565787
 21
2.897638
 31
0.000000
  0
LINE
  8
51
 10
3.565787
 20
2.897638
 30
0.000000
 11
3.147126
 21
2.897638
 31
0.000000
  0
LINE
  8
51
 10
3.147126
 20
3.165354
 30
0.000000
 11
3.147126
 21
2.897638
 31
0.000000
  0
LINE
  8
21
 10
3.433071
 20
3.208661
 30
0.000000
 11
3.433071
 21
3.149606
 31
0.000000
  0
LINE
  8
21
 10
3.433071
 20
3.149606
 30
0.000000
 11
3.259843
 21
3.149606
 31
0.000000
  0
LINE
  8
21
 10
3.259843
 20
3.149606
 30
0.000000
 11
3.259843
 21
3.208661
 31
0.000000
  0
LINE
  8
51
 10
3.565787
 20
3.165354
 30
0.000000
 11
3.433071
 21
3.165354
 31
0.000000
  0
LINE
  8
51
 10
3.147126
 20
3.165354
 30
0.000000
 11
3.259843
 21
3.165354
 31
0.000000
  0
LINE
  8
21
 10
3.471457
 20
3.135748
 30
0.000000
 11
3.421457
 21
3.135748
 31
0.000000
  0
INSERT
  8
51
  2
RECT
 10
3.446457
 20
2.981496
 30
0.000000
 41
0.020000
 42
0.020000
 43
1.000000
 50
270.000000
  0
INSERT
  8
51
  2
RECT
 10
3.446457
 20
3.081496
 30
0.000000
 41
0.020000
 42
0.020000
 43
1.000000
 50
270.000000
  0
INSERT
  8
51
  2
RECT
 10
3.346457
 20
2.981496
 30
0.000000
 41
0.020000
 42
0.020000
 43
1.000000
 50
270.000000
  0
INSERT
  8
51
  2
RECT
 10
3.346457
 20
3.081496
 30
0.000000
 41
0.020000
 42
0.020000
 43
1.000000
 50
270.000000
  0
INSERT
  8
51
  2
RECT
 10
3.246457
 20
2.981496
 30
0.000000
 41
0.020000
 42
0.020000
 43
1.000000
 50
270.000000
  0
INSERT
  8
51
  2
RECT
 10
3.246457
 20
3.081496
 30
0.000000
 41
0.020000
 42
0.020000
 43
1.000000
 50
270.000000
  0
INSERT
  8
51
  2
RECT
 10
3.246457
 20
3.081496
 30
0.000000
 41
0.020000
 42
0.020000
 43
1.000000
 50
270.000000
  0
INSERT
  8
51
  2
RECT
 10
3.246457
 20
2.981496
 30
0.000000
 41
0.020000
 42
0.020000
 43
1.000000
 50
270.000000
  0
LINE
  8
21
 10
2.226142
 20
3.366142
 30
0.000000
 11
1.715866
 21
3.366142
 31
0.000000
  0
LINE
  8
21
 10
1.715866
 20
3.720472
 30
0.000000
 11
1.881890
 21
3.720472
 31
0.000000
  0
LINE
  8
21
 10
1.881890
 20
3.720472
 30
0.000000
 11
2.055118
 21
3.720472
 31
0.000000
  0
LINE
  8
21
 10
2.055118
 20
3.720472
 30
0.000000
 11
2.226142
 21
3.720472
 31
0.000000
  0
LINE
  8
21
 10
2.226142
 20
3.720472
 30
0.000000
 11
2.226142
 21
3.370079
 31
0.000000
  0
LINE
  8
21
 10
1.715866
 20
3.366142
 30
0.000000
 11
1.715866
 21
3.720472
 31
0.000000
  0
LINE
  8
51
 10
2.187835
 20
3.677165
 30
0.000000
 11
2.187835
 21
3.409449
 31
0.000000
  0
LINE
  8
51
 10
2.187835
 20
3.409449
 30
0.000000
 11
1.769173
 21
3.409449
 31
0.000000
  0
LINE
  8
51
 10
1.769173
 20
3.677165
 30
0.000000
 11
1.769173
 21
3.409449
 31
0.000000
  0
LINE
  8
21
 10
2.055118
 20
3.720472
 30
0.000000
 11
2.055118
 21
3.661417
 31
0.000000
  0
LINE
  8
21
 10
2.055118
 20
3.661417
 30
0.000000
 11
1.881890
 21
3.661417
 31
0.000000
  0
LINE
  8
21
 10
1.881890
 20
3.661417
 30
0.000000
 11
1.881890
 21
3.720472
 31
0.000000
  0
LINE
  8
51
 10
2.187835
 20
3.677165
 30
0.000000
 11
2.055118
 21
3.677165
 31
0.000000
  0
LINE
  8
51
 10
1.769173
 20
3.677165
 30
0.000000
 11
1.881890
 21
3.677165
 31
0.000000
  0
LINE
  8
21
 10
2.093504
 20
3.647559
 30
0.000000
 11
2.043504
 21
3.647559
 31
0.000000
  0
INSERT
  8
51
  2
RECT
 10
2.068504
 20
3.493307
 30
0.000000
 41
0.020000
 42
0.020000
 43
1.000000
 50
270.000000
  0
INSERT
  8
51
  2
RECT
 10
2.068504
 20
3.593307
 30
0.000000
 41
0.020000
 42
0.020000
 43
1.000000
 50
270.000000
  0
INSERT
  8
51
  2
RECT
 10
1.968504
 20
3.493307
 30
0.000000
 41
0.020000
 42
0.020000
 43
1.000000
 50
270.000000
  0
INSERT
  8
51
  2
RECT
 10
1.968504
 20
3.593307
 30
0.000000
 41
0.020000
 42
0.020000
 43
1.000000
 50
270.000000
  0
INSERT
  8
51
  2
RECT
 10
1.868504
 20
3.493307
 30
0.000000
 41
0.020000
 42
0.020000
 43
1.000000
 50
270.000000
  0
INSERT
  8
51
  2
RECT
 10
1.868504
 20
3.593307
 30
0.000000
 41
0.020000
 42
0.020000
 43
1.000000
 50
270.000000
  0
INSERT
  8
51
  2
RECT
 10
1.868504
 20
3.593307
 30
0.000000
 41
0.020000
 42
0.020000
 43
1.000000
 50
270.000000
  0
INSERT
  8
51
  2
RECT
 10
1.868504
 20
3.493307
 30
0.000000
 41
0.020000
 42
0.020000
 43
1.000000
 50
270.000000
  0
LINE
  8
21
 10
2.226142
 20
2.854331
 30
0.000000
 11
1.715866
 21
2.854331
 31
0.000000
  0
LINE
  8
21
 10
1.715866
 20
3.208661
 30
0.000000
 11
1.881890
 21
3.208661
 31
0.000000
  0
LINE
  8
21
 10
1.881890
 20
3.208661
 30
0.000000
 11
2.055118
 21
3.208661
 31
0.000000
  0
LINE
  8
21
 10
2.055118
 20
3.208661
 30
0.000000
 11
2.226142
 21
3.208661
 31
0.000000
  0
LINE
  8
21
 10
2.226142
 20
3.208661
 30
0.000000
 11
2.226142
 21
2.858268
 31
0.000000
  0
LINE
  8
21
 10
1.715866
 20
2.854331
 30
0.000000
 11
1.715866
 21
3.208661
 31
0.000000
  0
LINE
  8
51
 10
2.187835
 20
3.165354
 30
0.000000
 11
2.187835
 21
2.897638
 31
0.000000
  0
LINE
  8
51
 10
2.187835
 20
2.897638
 30
0.000000
 11
1.769173
 21
2.897638
 31
0.000000
  0
LINE
  8
51
 10
1.769173
 20
3.165354
 30
0.000000
 11
1.769173
 21
2.897638
 31
0.000000
  0
LINE
  8
21
 10
2.055118
 20
3.208661
 30
0.000000
 11
2.055118
 21
3.149606
 31
0.000000
  0
LINE
  8
21
 10
2.055118
 20
3.149606
 30
0.000000
 11
1.881890
 21
3.149606
 31
0.000000
  0
LINE
  8
21
 10
1.881890
 20
3.149606
 30
0.000000
 11
1.881890
 21
3.208661
 31
0.000000
  0
LINE
  8
51
 10
2.187835
 20
3.165354
 30
0.000000
 11
2.055118
 21
3.165354
 31
0.000000
  0
LINE
  8
51
 10
1.769173
 20
3.165354
 30
0.000000
 11
1.881890
 21
3.165354
 31
0.000000
  0
LINE
  8
21
 10
2.093504
 20
3.135748
 30
0.000000
 11
2.043504
 21
3.135748
 31
0.000000
  0
INSERT
  8
51
  2
RECT
 10
2.068504
 20
2.981496
 30
0.000000
 41
0.020000
 42
0.020000
 43
1.000000
 50
270.000000
  0
INSERT
  8
51
  2
RECT
 10
2.068504
 20
3.081496
 30
0.000000
 41
0.020000
 42
0.020000
 43
1.000000
 50
270.000000
  0
INSERT
  8
51
  2
RECT
 10
1.968504
 20
2.981496
 30
0.000000
 41
0.020000
 42
0.020000
 43
1.000000
 50
270.000000
  0
INSERT
  8
51
  2
RECT
 10
1.968504
 20
3.081496
 30
0.000000
 41
0.020000
 42
0.020000
 43
1.000000
 50
270.000000
  0
INSERT
  8
51
  2
RECT
 10
1.868504
 20
2.981496
 30
0.000000
 41
0.020000
 42
0.020000
 43
1.000000
 50
270.000000
  0
INSERT
  8
51
  2
RECT
 10
1.868504
 20
3.081496
 30
0.000000
 41
0.020000
 42
0.020000
 43
1.000000
 50
270.000000
  0
INSERT
  8
51
  2
RECT
 10
1.868504
 20
3.081496
 30
0.000000
 41
0.020000
 42
0.020000
 43
1.000000
 50
270.000000
  0
INSERT
  8
51
  2
RECT
 10
1.868504
 20
2.981496
 30
0.000000
 41
0.020000
 42
0.020000
 43
1.000000
 50
270.000000
  0
LINE
  8
51
 10
1.827445
 20
1.847555
 30
0.000000
 11
1.945555
 21
1.847555
 31
0.000000
  0
LINE
  8
51
 10
1.827445
 20
1.729445
 30
0.000000
 11
1.945555
 21
1.729445
 31
0.000000
  0
LINE
  8
51
 10
1.827445
 20
1.847555
 30
0.000000
 11
1.827445
 21
1.729445
 31
0.000000
  0
LINE
  8
51
 10
1.945555
 20
1.847555
 30
0.000000
 11
1.945555
 21
1.729445
 31
0.000000
  0
LINE
  8
21
 10
1.945555
 20
1.842634
 30
0.000000
 11
1.945555
 21
1.734366
 31
0.000000
  0
LINE
  8
21
 10
1.827445
 20
1.842634
 30
0.000000
 11
1.827445
 21
1.734366
 31
0.000000
  0
CIRCLE
  8
21
 10
1.847130
 20
1.749130
 30
0.000000
 40
0.008803
  0
INSERT
  8
51
  2
RECT
 10
1.848114
 20
1.865272
 30
0.000000
 41
0.013780
 42
0.035433
 43
1.000000
 50
0.000000
  0
INSERT
  8
51
  2
RECT
 10
1.873705
 20
1.865272
 30
0.000000
 41
0.013780
 42
0.035433
 43
1.000000
 50
0.000000
  0
INSERT
  8
51
  2
RECT
 10
1.899295
 20
1.865272
 30
0.000000
 41
0.013780
 42
0.035433
 43
1.000000
 50
0.000000
  0
INSERT
  8
51
  2
RECT
 10
1.924886
 20
1.865272
 30
0.000000
 41
0.013780
 42
0.035433
 43
1.000000
 50
0.000000
  0
INSERT
  8
51
  2
RECT
 10
1.848114
 20
1.711728
 30
0.000000
 41
0.013780
 42
0.035433
 43
1.000000
 50
0.000000
  0
INSERT
  8
51
  2
RECT
 10
1.873705
 20
1.711728
 30
0.000000
 41
0.013780
 42
0.035433
 43
1.000000
 50
0.000000
  0
INSERT
  8
51
  2
RECT
 10
1.899295
 20
1.711728
 30
0.000000
 41
0.013780
 42
0.035433
 43
1.000000
 50
0.000000
  0
INSERT
  8
51
  2
RECT
 10
1.924886
 20
1.711728
 30
0.000000
 41
0.013780
 42
0.035433
 43
1.000000
 50
0.000000
  0
LINE
  8
21
 10
3.175709
 20
2.146500
 30
0.000000
 11
3.175709
 21
2.255831
 31
0.000000
  0
LINE
  8
21
 10
3.175709
 20
2.255831
 30
0.000000
 11
3.216142
 21
2.255831
 31
0.000000
  0
LINE
  8
21
 10
3.175709
 20
1.646500
 30
0.000000
 11
3.175709
 21
1.537169
 31
0.000000
  0
LINE
  8
21
 10
3.175709
 20
1.537169
 30
0.000000
 11
3.216142
 21
1.537169
 31
0.000000
  0
LINE
  8
21
 10
3.913425
 20
2.255831
 30
0.000000
 11
3.939646
 21
2.255831
 31
0.000000
  0
LINE
  8
21
 10
3.913425
 20
1.537169
 30
0.000000
 11
3.939646
 21
1.537169
 31
0.000000
  0
LINE
  8
21
 10
3.939646
 20
2.255831
 30
0.000000
 11
3.939646
 21
1.537169
 31
0.000000
  0
LINE
  8
51
 10
0.135000
 20
1.807941
 30
0.000000
 11
0.214016
 21
1.728925
 31
0.000000
  0
LINE
  8
51
 10
0.135984
 20
1.611917
 30
0.000000
 11
0.215000
 21
1.533925
 31
0.000000
  0
LINE
  8
21
 10
0.010000
 20
1.866917
 30
0.000000
 11
0.010000
 21
1.473925
 31
0.000000
  0
LINE
  8
21
 10
0.372008
 20
1.473925
 30
0.000000
 11
0.364016
 21
1.473925
 31
0.000000
  0
LINE
  8
21
 10
0.372008
 20
1.473925
 30
0.000000
 11
0.372008
 21
1.866917
 31
0.000000
  0
LINE
  8
21
 10
0.010000
 20
1.866917
 30
0.000000
 11
0.104016
 21
1.866917
 31
0.000000
  0
LINE
  8
21
 10
0.104016
 20
1.866917
 30
0.000000
 11
0.104016
 21
1.803925
 31
0.000000
  0
LINE
  8
51
 10
0.104016
 20
1.803925
 30
0.000000
 11
0.104016
 21
1.733925
 31
0.000000
  0
LINE
  8
21
 10
0.104016
 20
1.733925
 30
0.000000
 11
0.104016
 21
1.606917
 31
0.000000
  0
LINE
  8
21
 10
0.104016
 20
1.536917
 30
0.000000
 11
0.104016
 21
1.473925
 31
0.000000
  0
LINE
  8
21
 10
0.104016
 20
1.866917
 30
0.000000
 11
0.364016
 21
1.866917
 31
0.000000
  0
LINE
  8
21
 10
0.104016
 20
1.473925
 30
0.000000
 11
0.010000
 21
1.473925
 31
0.000000
  0
LINE
  8
21
 10
0.364016
 20
1.866917
 30
0.000000
 11
0.364016
 21
1.473925
 31
0.000000
  0
LINE
  8
21
 10
0.364016
 20
1.866917
 30
0.000000
 11
0.372008
 21
1.866917
 31
0.000000
  0
LINE
  8
21
 10
0.364016
 20
1.473925
 30
0.000000
 11
0.104016
 21
1.473925
 31
0.000000
  0
LINE
  8
51
 10
0.104016
 20
1.606917
 30
0.000000
 11
0.104016
 21
1.536917
 31
0.000000
  0
LINE
  8
21
 10
0.267474
 20
1.805386
 30
0.000000
 11
0.252462
 21
1.820399
 31
0.000000
  0
LINE
  8
21
 10
0.252462
 20
1.820399
 30
0.000000
 11
0.297500
 21
1.820399
 31
0.000000
  0
LINE
  8
21
 10
0.297500
 20
1.805386
 30
0.000000
 11
0.297500
 21
1.835412
 31
0.000000
  0
LINE
  8
21
 10
0.297500
 20
1.640412
 30
0.000000
 11
0.297500
 21
1.610386
 31
0.000000
  0
LINE
  8
21
 10
0.297500
 20
1.610386
 30
0.000000
 11
0.267474
 21
1.640412
 31
0.000000
  0
LINE
  8
21
 10
0.267474
 20
1.640412
 30
0.000000
 11
0.259968
 21
1.640412
 31
0.000000
  0
LINE
  8
21
 10
0.259968
 20
1.640412
 30
0.000000
 11
0.252462
 21
1.632905
 31
0.000000
  0
LINE
  8
21
 10
0.252462
 20
1.632905
 30
0.000000
 11
0.252462
 21
1.617892
 31
0.000000
  0
LINE
  8
21
 10
0.252462
 20
1.617892
 30
0.000000
 11
0.259968
 21
1.610386
 31
0.000000
  0
CIRCLE
  8
51
 10
0.175000
 20
1.768925
 30
0.000000
 40
0.059000
  0
CIRCLE
  8
21
 10
0.312000
 20
1.768925
 30
0.000000
 40
0.020000
  0
CIRCLE
  8
51
 10
0.175000
 20
1.571925
 30
0.000000
 40
0.059000
  0
CIRCLE
  8
21
 10
0.312000
 20
1.571925
 30
0.000000
 40
0.020000
  0
LINE
  8
51
 10
3.414258
 20
2.379528
 30
0.000000
 11
3.540242
 21
2.379528
 31
0.000000
  0
LINE
  8
51
 10
3.540242
 20
2.379528
 30
0.000000
 11
3.540242
 21
2.320472
 31
0.000000
  0
LINE
  8
51
 10
3.540242
 20
2.320472
 30
0.000000
 11
3.414258
 21
2.320472
 31
0.000000
  0
LINE
  8
51
 10
3.414258
 20
2.320472
 30
0.000000
 11
3.414258
 21
2.379528
 31
0.000000
  0
LINE
  8
21
 10
3.457565
 20
2.383465
 30
0.000000
 11
3.496935
 21
2.383465
 31
0.000000
  0
LINE
  8
21
 10
3.496935
 20
2.316535
 30
0.000000
 11
3.457565
 21
2.316535
 31
0.000000
  0
ENDSEC
  0
EOF
