G75*
%MOIN*%
%OFA0B0*%
%FSLAX25Y25*%
%IPPOS*%
%LPD*%
%AMOC8*
5,1,8,0,0,1.08239X$1,22.5*
%
%ADD10C,0.00000*%
D10*
X0015725Y0230675D02*
X0014500Y0625601D01*
X0408201Y0625601D01*
X0409426Y0230675D01*
X0015725Y0230675D01*
X0032020Y0255522D02*
X0032022Y0255678D01*
X0032028Y0255834D01*
X0032038Y0255989D01*
X0032052Y0256144D01*
X0032070Y0256299D01*
X0032092Y0256453D01*
X0032117Y0256607D01*
X0032147Y0256760D01*
X0032181Y0256912D01*
X0032218Y0257064D01*
X0032259Y0257214D01*
X0032304Y0257363D01*
X0032353Y0257511D01*
X0032406Y0257658D01*
X0032462Y0257803D01*
X0032522Y0257947D01*
X0032586Y0258089D01*
X0032654Y0258230D01*
X0032725Y0258368D01*
X0032799Y0258505D01*
X0032877Y0258640D01*
X0032958Y0258773D01*
X0033043Y0258904D01*
X0033131Y0259033D01*
X0033222Y0259159D01*
X0033317Y0259283D01*
X0033414Y0259404D01*
X0033515Y0259523D01*
X0033619Y0259640D01*
X0033725Y0259753D01*
X0033835Y0259864D01*
X0033947Y0259972D01*
X0034062Y0260077D01*
X0034180Y0260180D01*
X0034300Y0260279D01*
X0034423Y0260375D01*
X0034548Y0260468D01*
X0034675Y0260557D01*
X0034805Y0260644D01*
X0034937Y0260727D01*
X0035071Y0260806D01*
X0035207Y0260883D01*
X0035345Y0260955D01*
X0035484Y0261025D01*
X0035626Y0261090D01*
X0035769Y0261152D01*
X0035913Y0261210D01*
X0036059Y0261265D01*
X0036207Y0261316D01*
X0036355Y0261363D01*
X0036505Y0261406D01*
X0036656Y0261445D01*
X0036808Y0261481D01*
X0036960Y0261512D01*
X0037114Y0261540D01*
X0037268Y0261564D01*
X0037422Y0261584D01*
X0037577Y0261600D01*
X0037733Y0261612D01*
X0037888Y0261620D01*
X0038044Y0261624D01*
X0038200Y0261624D01*
X0038356Y0261620D01*
X0038511Y0261612D01*
X0038667Y0261600D01*
X0038822Y0261584D01*
X0038976Y0261564D01*
X0039130Y0261540D01*
X0039284Y0261512D01*
X0039436Y0261481D01*
X0039588Y0261445D01*
X0039739Y0261406D01*
X0039889Y0261363D01*
X0040037Y0261316D01*
X0040185Y0261265D01*
X0040331Y0261210D01*
X0040475Y0261152D01*
X0040618Y0261090D01*
X0040760Y0261025D01*
X0040899Y0260955D01*
X0041037Y0260883D01*
X0041173Y0260806D01*
X0041307Y0260727D01*
X0041439Y0260644D01*
X0041569Y0260557D01*
X0041696Y0260468D01*
X0041821Y0260375D01*
X0041944Y0260279D01*
X0042064Y0260180D01*
X0042182Y0260077D01*
X0042297Y0259972D01*
X0042409Y0259864D01*
X0042519Y0259753D01*
X0042625Y0259640D01*
X0042729Y0259523D01*
X0042830Y0259404D01*
X0042927Y0259283D01*
X0043022Y0259159D01*
X0043113Y0259033D01*
X0043201Y0258904D01*
X0043286Y0258773D01*
X0043367Y0258640D01*
X0043445Y0258505D01*
X0043519Y0258368D01*
X0043590Y0258230D01*
X0043658Y0258089D01*
X0043722Y0257947D01*
X0043782Y0257803D01*
X0043838Y0257658D01*
X0043891Y0257511D01*
X0043940Y0257363D01*
X0043985Y0257214D01*
X0044026Y0257064D01*
X0044063Y0256912D01*
X0044097Y0256760D01*
X0044127Y0256607D01*
X0044152Y0256453D01*
X0044174Y0256299D01*
X0044192Y0256144D01*
X0044206Y0255989D01*
X0044216Y0255834D01*
X0044222Y0255678D01*
X0044224Y0255522D01*
X0044222Y0255366D01*
X0044216Y0255210D01*
X0044206Y0255055D01*
X0044192Y0254900D01*
X0044174Y0254745D01*
X0044152Y0254591D01*
X0044127Y0254437D01*
X0044097Y0254284D01*
X0044063Y0254132D01*
X0044026Y0253980D01*
X0043985Y0253830D01*
X0043940Y0253681D01*
X0043891Y0253533D01*
X0043838Y0253386D01*
X0043782Y0253241D01*
X0043722Y0253097D01*
X0043658Y0252955D01*
X0043590Y0252814D01*
X0043519Y0252676D01*
X0043445Y0252539D01*
X0043367Y0252404D01*
X0043286Y0252271D01*
X0043201Y0252140D01*
X0043113Y0252011D01*
X0043022Y0251885D01*
X0042927Y0251761D01*
X0042830Y0251640D01*
X0042729Y0251521D01*
X0042625Y0251404D01*
X0042519Y0251291D01*
X0042409Y0251180D01*
X0042297Y0251072D01*
X0042182Y0250967D01*
X0042064Y0250864D01*
X0041944Y0250765D01*
X0041821Y0250669D01*
X0041696Y0250576D01*
X0041569Y0250487D01*
X0041439Y0250400D01*
X0041307Y0250317D01*
X0041173Y0250238D01*
X0041037Y0250161D01*
X0040899Y0250089D01*
X0040760Y0250019D01*
X0040618Y0249954D01*
X0040475Y0249892D01*
X0040331Y0249834D01*
X0040185Y0249779D01*
X0040037Y0249728D01*
X0039889Y0249681D01*
X0039739Y0249638D01*
X0039588Y0249599D01*
X0039436Y0249563D01*
X0039284Y0249532D01*
X0039130Y0249504D01*
X0038976Y0249480D01*
X0038822Y0249460D01*
X0038667Y0249444D01*
X0038511Y0249432D01*
X0038356Y0249424D01*
X0038200Y0249420D01*
X0038044Y0249420D01*
X0037888Y0249424D01*
X0037733Y0249432D01*
X0037577Y0249444D01*
X0037422Y0249460D01*
X0037268Y0249480D01*
X0037114Y0249504D01*
X0036960Y0249532D01*
X0036808Y0249563D01*
X0036656Y0249599D01*
X0036505Y0249638D01*
X0036355Y0249681D01*
X0036207Y0249728D01*
X0036059Y0249779D01*
X0035913Y0249834D01*
X0035769Y0249892D01*
X0035626Y0249954D01*
X0035484Y0250019D01*
X0035345Y0250089D01*
X0035207Y0250161D01*
X0035071Y0250238D01*
X0034937Y0250317D01*
X0034805Y0250400D01*
X0034675Y0250487D01*
X0034548Y0250576D01*
X0034423Y0250669D01*
X0034300Y0250765D01*
X0034180Y0250864D01*
X0034062Y0250967D01*
X0033947Y0251072D01*
X0033835Y0251180D01*
X0033725Y0251291D01*
X0033619Y0251404D01*
X0033515Y0251521D01*
X0033414Y0251640D01*
X0033317Y0251761D01*
X0033222Y0251885D01*
X0033131Y0252011D01*
X0033043Y0252140D01*
X0032958Y0252271D01*
X0032877Y0252404D01*
X0032799Y0252539D01*
X0032725Y0252676D01*
X0032654Y0252814D01*
X0032586Y0252955D01*
X0032522Y0253097D01*
X0032462Y0253241D01*
X0032406Y0253386D01*
X0032353Y0253533D01*
X0032304Y0253681D01*
X0032259Y0253830D01*
X0032218Y0253980D01*
X0032181Y0254132D01*
X0032147Y0254284D01*
X0032117Y0254437D01*
X0032092Y0254591D01*
X0032070Y0254745D01*
X0032052Y0254900D01*
X0032038Y0255055D01*
X0032028Y0255210D01*
X0032022Y0255366D01*
X0032020Y0255522D01*
X0022094Y0325000D02*
X0022096Y0325134D01*
X0022102Y0325268D01*
X0022112Y0325402D01*
X0022126Y0325536D01*
X0022144Y0325669D01*
X0022165Y0325801D01*
X0022191Y0325933D01*
X0022221Y0326064D01*
X0022254Y0326194D01*
X0022291Y0326322D01*
X0022333Y0326450D01*
X0022377Y0326577D01*
X0022426Y0326702D01*
X0022478Y0326825D01*
X0022534Y0326947D01*
X0022594Y0327068D01*
X0022657Y0327186D01*
X0022723Y0327303D01*
X0022793Y0327417D01*
X0022866Y0327530D01*
X0022943Y0327640D01*
X0023023Y0327748D01*
X0023106Y0327853D01*
X0023192Y0327956D01*
X0023281Y0328056D01*
X0023373Y0328154D01*
X0023468Y0328249D01*
X0023566Y0328341D01*
X0023666Y0328430D01*
X0023769Y0328516D01*
X0023874Y0328599D01*
X0023982Y0328679D01*
X0024092Y0328756D01*
X0024205Y0328829D01*
X0024319Y0328899D01*
X0024436Y0328965D01*
X0024554Y0329028D01*
X0024675Y0329088D01*
X0024797Y0329144D01*
X0024920Y0329196D01*
X0025045Y0329245D01*
X0025172Y0329289D01*
X0025300Y0329331D01*
X0025428Y0329368D01*
X0025558Y0329401D01*
X0025689Y0329431D01*
X0025821Y0329457D01*
X0025953Y0329478D01*
X0026086Y0329496D01*
X0026220Y0329510D01*
X0026354Y0329520D01*
X0026488Y0329526D01*
X0026622Y0329528D01*
X0026756Y0329526D01*
X0026890Y0329520D01*
X0027024Y0329510D01*
X0027158Y0329496D01*
X0027291Y0329478D01*
X0027423Y0329457D01*
X0027555Y0329431D01*
X0027686Y0329401D01*
X0027816Y0329368D01*
X0027944Y0329331D01*
X0028072Y0329289D01*
X0028199Y0329245D01*
X0028324Y0329196D01*
X0028447Y0329144D01*
X0028569Y0329088D01*
X0028690Y0329028D01*
X0028808Y0328965D01*
X0028925Y0328899D01*
X0029039Y0328829D01*
X0029152Y0328756D01*
X0029262Y0328679D01*
X0029370Y0328599D01*
X0029475Y0328516D01*
X0029578Y0328430D01*
X0029678Y0328341D01*
X0029776Y0328249D01*
X0029871Y0328154D01*
X0029963Y0328056D01*
X0030052Y0327956D01*
X0030138Y0327853D01*
X0030221Y0327748D01*
X0030301Y0327640D01*
X0030378Y0327530D01*
X0030451Y0327417D01*
X0030521Y0327303D01*
X0030587Y0327186D01*
X0030650Y0327068D01*
X0030710Y0326947D01*
X0030766Y0326825D01*
X0030818Y0326702D01*
X0030867Y0326577D01*
X0030911Y0326450D01*
X0030953Y0326322D01*
X0030990Y0326194D01*
X0031023Y0326064D01*
X0031053Y0325933D01*
X0031079Y0325801D01*
X0031100Y0325669D01*
X0031118Y0325536D01*
X0031132Y0325402D01*
X0031142Y0325268D01*
X0031148Y0325134D01*
X0031150Y0325000D01*
X0031148Y0324866D01*
X0031142Y0324732D01*
X0031132Y0324598D01*
X0031118Y0324464D01*
X0031100Y0324331D01*
X0031079Y0324199D01*
X0031053Y0324067D01*
X0031023Y0323936D01*
X0030990Y0323806D01*
X0030953Y0323678D01*
X0030911Y0323550D01*
X0030867Y0323423D01*
X0030818Y0323298D01*
X0030766Y0323175D01*
X0030710Y0323053D01*
X0030650Y0322932D01*
X0030587Y0322814D01*
X0030521Y0322697D01*
X0030451Y0322583D01*
X0030378Y0322470D01*
X0030301Y0322360D01*
X0030221Y0322252D01*
X0030138Y0322147D01*
X0030052Y0322044D01*
X0029963Y0321944D01*
X0029871Y0321846D01*
X0029776Y0321751D01*
X0029678Y0321659D01*
X0029578Y0321570D01*
X0029475Y0321484D01*
X0029370Y0321401D01*
X0029262Y0321321D01*
X0029152Y0321244D01*
X0029039Y0321171D01*
X0028925Y0321101D01*
X0028808Y0321035D01*
X0028690Y0320972D01*
X0028569Y0320912D01*
X0028447Y0320856D01*
X0028324Y0320804D01*
X0028199Y0320755D01*
X0028072Y0320711D01*
X0027944Y0320669D01*
X0027816Y0320632D01*
X0027686Y0320599D01*
X0027555Y0320569D01*
X0027423Y0320543D01*
X0027291Y0320522D01*
X0027158Y0320504D01*
X0027024Y0320490D01*
X0026890Y0320480D01*
X0026756Y0320474D01*
X0026622Y0320472D01*
X0026488Y0320474D01*
X0026354Y0320480D01*
X0026220Y0320490D01*
X0026086Y0320504D01*
X0025953Y0320522D01*
X0025821Y0320543D01*
X0025689Y0320569D01*
X0025558Y0320599D01*
X0025428Y0320632D01*
X0025300Y0320669D01*
X0025172Y0320711D01*
X0025045Y0320755D01*
X0024920Y0320804D01*
X0024797Y0320856D01*
X0024675Y0320912D01*
X0024554Y0320972D01*
X0024436Y0321035D01*
X0024319Y0321101D01*
X0024205Y0321171D01*
X0024092Y0321244D01*
X0023982Y0321321D01*
X0023874Y0321401D01*
X0023769Y0321484D01*
X0023666Y0321570D01*
X0023566Y0321659D01*
X0023468Y0321751D01*
X0023373Y0321846D01*
X0023281Y0321944D01*
X0023192Y0322044D01*
X0023106Y0322147D01*
X0023023Y0322252D01*
X0022943Y0322360D01*
X0022866Y0322470D01*
X0022793Y0322583D01*
X0022723Y0322697D01*
X0022657Y0322814D01*
X0022594Y0322932D01*
X0022534Y0323053D01*
X0022478Y0323175D01*
X0022426Y0323298D01*
X0022377Y0323423D01*
X0022333Y0323550D01*
X0022291Y0323678D01*
X0022254Y0323806D01*
X0022221Y0323936D01*
X0022191Y0324067D01*
X0022165Y0324199D01*
X0022144Y0324331D01*
X0022126Y0324464D01*
X0022112Y0324598D01*
X0022102Y0324732D01*
X0022096Y0324866D01*
X0022094Y0325000D01*
X0087315Y0333908D02*
X0087317Y0334042D01*
X0087323Y0334176D01*
X0087333Y0334310D01*
X0087347Y0334444D01*
X0087365Y0334577D01*
X0087386Y0334709D01*
X0087412Y0334841D01*
X0087442Y0334972D01*
X0087475Y0335102D01*
X0087512Y0335230D01*
X0087554Y0335358D01*
X0087598Y0335485D01*
X0087647Y0335610D01*
X0087699Y0335733D01*
X0087755Y0335855D01*
X0087815Y0335976D01*
X0087878Y0336094D01*
X0087944Y0336211D01*
X0088014Y0336325D01*
X0088087Y0336438D01*
X0088164Y0336548D01*
X0088244Y0336656D01*
X0088327Y0336761D01*
X0088413Y0336864D01*
X0088502Y0336964D01*
X0088594Y0337062D01*
X0088689Y0337157D01*
X0088787Y0337249D01*
X0088887Y0337338D01*
X0088990Y0337424D01*
X0089095Y0337507D01*
X0089203Y0337587D01*
X0089313Y0337664D01*
X0089426Y0337737D01*
X0089540Y0337807D01*
X0089657Y0337873D01*
X0089775Y0337936D01*
X0089896Y0337996D01*
X0090018Y0338052D01*
X0090141Y0338104D01*
X0090266Y0338153D01*
X0090393Y0338197D01*
X0090521Y0338239D01*
X0090649Y0338276D01*
X0090779Y0338309D01*
X0090910Y0338339D01*
X0091042Y0338365D01*
X0091174Y0338386D01*
X0091307Y0338404D01*
X0091441Y0338418D01*
X0091575Y0338428D01*
X0091709Y0338434D01*
X0091843Y0338436D01*
X0091977Y0338434D01*
X0092111Y0338428D01*
X0092245Y0338418D01*
X0092379Y0338404D01*
X0092512Y0338386D01*
X0092644Y0338365D01*
X0092776Y0338339D01*
X0092907Y0338309D01*
X0093037Y0338276D01*
X0093165Y0338239D01*
X0093293Y0338197D01*
X0093420Y0338153D01*
X0093545Y0338104D01*
X0093668Y0338052D01*
X0093790Y0337996D01*
X0093911Y0337936D01*
X0094029Y0337873D01*
X0094146Y0337807D01*
X0094260Y0337737D01*
X0094373Y0337664D01*
X0094483Y0337587D01*
X0094591Y0337507D01*
X0094696Y0337424D01*
X0094799Y0337338D01*
X0094899Y0337249D01*
X0094997Y0337157D01*
X0095092Y0337062D01*
X0095184Y0336964D01*
X0095273Y0336864D01*
X0095359Y0336761D01*
X0095442Y0336656D01*
X0095522Y0336548D01*
X0095599Y0336438D01*
X0095672Y0336325D01*
X0095742Y0336211D01*
X0095808Y0336094D01*
X0095871Y0335976D01*
X0095931Y0335855D01*
X0095987Y0335733D01*
X0096039Y0335610D01*
X0096088Y0335485D01*
X0096132Y0335358D01*
X0096174Y0335230D01*
X0096211Y0335102D01*
X0096244Y0334972D01*
X0096274Y0334841D01*
X0096300Y0334709D01*
X0096321Y0334577D01*
X0096339Y0334444D01*
X0096353Y0334310D01*
X0096363Y0334176D01*
X0096369Y0334042D01*
X0096371Y0333908D01*
X0096369Y0333774D01*
X0096363Y0333640D01*
X0096353Y0333506D01*
X0096339Y0333372D01*
X0096321Y0333239D01*
X0096300Y0333107D01*
X0096274Y0332975D01*
X0096244Y0332844D01*
X0096211Y0332714D01*
X0096174Y0332586D01*
X0096132Y0332458D01*
X0096088Y0332331D01*
X0096039Y0332206D01*
X0095987Y0332083D01*
X0095931Y0331961D01*
X0095871Y0331840D01*
X0095808Y0331722D01*
X0095742Y0331605D01*
X0095672Y0331491D01*
X0095599Y0331378D01*
X0095522Y0331268D01*
X0095442Y0331160D01*
X0095359Y0331055D01*
X0095273Y0330952D01*
X0095184Y0330852D01*
X0095092Y0330754D01*
X0094997Y0330659D01*
X0094899Y0330567D01*
X0094799Y0330478D01*
X0094696Y0330392D01*
X0094591Y0330309D01*
X0094483Y0330229D01*
X0094373Y0330152D01*
X0094260Y0330079D01*
X0094146Y0330009D01*
X0094029Y0329943D01*
X0093911Y0329880D01*
X0093790Y0329820D01*
X0093668Y0329764D01*
X0093545Y0329712D01*
X0093420Y0329663D01*
X0093293Y0329619D01*
X0093165Y0329577D01*
X0093037Y0329540D01*
X0092907Y0329507D01*
X0092776Y0329477D01*
X0092644Y0329451D01*
X0092512Y0329430D01*
X0092379Y0329412D01*
X0092245Y0329398D01*
X0092111Y0329388D01*
X0091977Y0329382D01*
X0091843Y0329380D01*
X0091709Y0329382D01*
X0091575Y0329388D01*
X0091441Y0329398D01*
X0091307Y0329412D01*
X0091174Y0329430D01*
X0091042Y0329451D01*
X0090910Y0329477D01*
X0090779Y0329507D01*
X0090649Y0329540D01*
X0090521Y0329577D01*
X0090393Y0329619D01*
X0090266Y0329663D01*
X0090141Y0329712D01*
X0090018Y0329764D01*
X0089896Y0329820D01*
X0089775Y0329880D01*
X0089657Y0329943D01*
X0089540Y0330009D01*
X0089426Y0330079D01*
X0089313Y0330152D01*
X0089203Y0330229D01*
X0089095Y0330309D01*
X0088990Y0330392D01*
X0088887Y0330478D01*
X0088787Y0330567D01*
X0088689Y0330659D01*
X0088594Y0330754D01*
X0088502Y0330852D01*
X0088413Y0330952D01*
X0088327Y0331055D01*
X0088244Y0331160D01*
X0088164Y0331268D01*
X0088087Y0331378D01*
X0088014Y0331491D01*
X0087944Y0331605D01*
X0087878Y0331722D01*
X0087815Y0331840D01*
X0087755Y0331961D01*
X0087699Y0332083D01*
X0087647Y0332206D01*
X0087598Y0332331D01*
X0087554Y0332458D01*
X0087512Y0332586D01*
X0087475Y0332714D01*
X0087442Y0332844D01*
X0087412Y0332975D01*
X0087386Y0333107D01*
X0087365Y0333239D01*
X0087347Y0333372D01*
X0087333Y0333506D01*
X0087323Y0333640D01*
X0087317Y0333774D01*
X0087315Y0333908D01*
X0197551Y0333908D02*
X0197553Y0334042D01*
X0197559Y0334176D01*
X0197569Y0334310D01*
X0197583Y0334444D01*
X0197601Y0334577D01*
X0197622Y0334709D01*
X0197648Y0334841D01*
X0197678Y0334972D01*
X0197711Y0335102D01*
X0197748Y0335230D01*
X0197790Y0335358D01*
X0197834Y0335485D01*
X0197883Y0335610D01*
X0197935Y0335733D01*
X0197991Y0335855D01*
X0198051Y0335976D01*
X0198114Y0336094D01*
X0198180Y0336211D01*
X0198250Y0336325D01*
X0198323Y0336438D01*
X0198400Y0336548D01*
X0198480Y0336656D01*
X0198563Y0336761D01*
X0198649Y0336864D01*
X0198738Y0336964D01*
X0198830Y0337062D01*
X0198925Y0337157D01*
X0199023Y0337249D01*
X0199123Y0337338D01*
X0199226Y0337424D01*
X0199331Y0337507D01*
X0199439Y0337587D01*
X0199549Y0337664D01*
X0199662Y0337737D01*
X0199776Y0337807D01*
X0199893Y0337873D01*
X0200011Y0337936D01*
X0200132Y0337996D01*
X0200254Y0338052D01*
X0200377Y0338104D01*
X0200502Y0338153D01*
X0200629Y0338197D01*
X0200757Y0338239D01*
X0200885Y0338276D01*
X0201015Y0338309D01*
X0201146Y0338339D01*
X0201278Y0338365D01*
X0201410Y0338386D01*
X0201543Y0338404D01*
X0201677Y0338418D01*
X0201811Y0338428D01*
X0201945Y0338434D01*
X0202079Y0338436D01*
X0202213Y0338434D01*
X0202347Y0338428D01*
X0202481Y0338418D01*
X0202615Y0338404D01*
X0202748Y0338386D01*
X0202880Y0338365D01*
X0203012Y0338339D01*
X0203143Y0338309D01*
X0203273Y0338276D01*
X0203401Y0338239D01*
X0203529Y0338197D01*
X0203656Y0338153D01*
X0203781Y0338104D01*
X0203904Y0338052D01*
X0204026Y0337996D01*
X0204147Y0337936D01*
X0204265Y0337873D01*
X0204382Y0337807D01*
X0204496Y0337737D01*
X0204609Y0337664D01*
X0204719Y0337587D01*
X0204827Y0337507D01*
X0204932Y0337424D01*
X0205035Y0337338D01*
X0205135Y0337249D01*
X0205233Y0337157D01*
X0205328Y0337062D01*
X0205420Y0336964D01*
X0205509Y0336864D01*
X0205595Y0336761D01*
X0205678Y0336656D01*
X0205758Y0336548D01*
X0205835Y0336438D01*
X0205908Y0336325D01*
X0205978Y0336211D01*
X0206044Y0336094D01*
X0206107Y0335976D01*
X0206167Y0335855D01*
X0206223Y0335733D01*
X0206275Y0335610D01*
X0206324Y0335485D01*
X0206368Y0335358D01*
X0206410Y0335230D01*
X0206447Y0335102D01*
X0206480Y0334972D01*
X0206510Y0334841D01*
X0206536Y0334709D01*
X0206557Y0334577D01*
X0206575Y0334444D01*
X0206589Y0334310D01*
X0206599Y0334176D01*
X0206605Y0334042D01*
X0206607Y0333908D01*
X0206605Y0333774D01*
X0206599Y0333640D01*
X0206589Y0333506D01*
X0206575Y0333372D01*
X0206557Y0333239D01*
X0206536Y0333107D01*
X0206510Y0332975D01*
X0206480Y0332844D01*
X0206447Y0332714D01*
X0206410Y0332586D01*
X0206368Y0332458D01*
X0206324Y0332331D01*
X0206275Y0332206D01*
X0206223Y0332083D01*
X0206167Y0331961D01*
X0206107Y0331840D01*
X0206044Y0331722D01*
X0205978Y0331605D01*
X0205908Y0331491D01*
X0205835Y0331378D01*
X0205758Y0331268D01*
X0205678Y0331160D01*
X0205595Y0331055D01*
X0205509Y0330952D01*
X0205420Y0330852D01*
X0205328Y0330754D01*
X0205233Y0330659D01*
X0205135Y0330567D01*
X0205035Y0330478D01*
X0204932Y0330392D01*
X0204827Y0330309D01*
X0204719Y0330229D01*
X0204609Y0330152D01*
X0204496Y0330079D01*
X0204382Y0330009D01*
X0204265Y0329943D01*
X0204147Y0329880D01*
X0204026Y0329820D01*
X0203904Y0329764D01*
X0203781Y0329712D01*
X0203656Y0329663D01*
X0203529Y0329619D01*
X0203401Y0329577D01*
X0203273Y0329540D01*
X0203143Y0329507D01*
X0203012Y0329477D01*
X0202880Y0329451D01*
X0202748Y0329430D01*
X0202615Y0329412D01*
X0202481Y0329398D01*
X0202347Y0329388D01*
X0202213Y0329382D01*
X0202079Y0329380D01*
X0201945Y0329382D01*
X0201811Y0329388D01*
X0201677Y0329398D01*
X0201543Y0329412D01*
X0201410Y0329430D01*
X0201278Y0329451D01*
X0201146Y0329477D01*
X0201015Y0329507D01*
X0200885Y0329540D01*
X0200757Y0329577D01*
X0200629Y0329619D01*
X0200502Y0329663D01*
X0200377Y0329712D01*
X0200254Y0329764D01*
X0200132Y0329820D01*
X0200011Y0329880D01*
X0199893Y0329943D01*
X0199776Y0330009D01*
X0199662Y0330079D01*
X0199549Y0330152D01*
X0199439Y0330229D01*
X0199331Y0330309D01*
X0199226Y0330392D01*
X0199123Y0330478D01*
X0199023Y0330567D01*
X0198925Y0330659D01*
X0198830Y0330754D01*
X0198738Y0330852D01*
X0198649Y0330952D01*
X0198563Y0331055D01*
X0198480Y0331160D01*
X0198400Y0331268D01*
X0198323Y0331378D01*
X0198250Y0331491D01*
X0198180Y0331605D01*
X0198114Y0331722D01*
X0198051Y0331840D01*
X0197991Y0331961D01*
X0197935Y0332083D01*
X0197883Y0332206D01*
X0197834Y0332331D01*
X0197790Y0332458D01*
X0197748Y0332586D01*
X0197711Y0332714D01*
X0197678Y0332844D01*
X0197648Y0332975D01*
X0197622Y0333107D01*
X0197601Y0333239D01*
X0197583Y0333372D01*
X0197569Y0333506D01*
X0197559Y0333640D01*
X0197553Y0333774D01*
X0197551Y0333908D01*
X0220835Y0290400D02*
X0220837Y0290493D01*
X0220843Y0290585D01*
X0220853Y0290677D01*
X0220867Y0290768D01*
X0220884Y0290859D01*
X0220906Y0290949D01*
X0220931Y0291038D01*
X0220960Y0291126D01*
X0220993Y0291212D01*
X0221030Y0291297D01*
X0221070Y0291381D01*
X0221114Y0291462D01*
X0221161Y0291542D01*
X0221211Y0291620D01*
X0221265Y0291695D01*
X0221322Y0291768D01*
X0221382Y0291838D01*
X0221445Y0291906D01*
X0221511Y0291971D01*
X0221579Y0292033D01*
X0221650Y0292093D01*
X0221724Y0292149D01*
X0221800Y0292202D01*
X0221878Y0292251D01*
X0221958Y0292298D01*
X0222040Y0292340D01*
X0222124Y0292380D01*
X0222209Y0292415D01*
X0222296Y0292447D01*
X0222384Y0292476D01*
X0222473Y0292500D01*
X0222563Y0292521D01*
X0222654Y0292537D01*
X0222746Y0292550D01*
X0222838Y0292559D01*
X0222931Y0292564D01*
X0223023Y0292565D01*
X0223116Y0292562D01*
X0223208Y0292555D01*
X0223300Y0292544D01*
X0223391Y0292529D01*
X0223482Y0292511D01*
X0223572Y0292488D01*
X0223660Y0292462D01*
X0223748Y0292432D01*
X0223834Y0292398D01*
X0223918Y0292361D01*
X0224001Y0292319D01*
X0224082Y0292275D01*
X0224162Y0292227D01*
X0224239Y0292176D01*
X0224313Y0292121D01*
X0224386Y0292063D01*
X0224456Y0292003D01*
X0224523Y0291939D01*
X0224587Y0291873D01*
X0224649Y0291803D01*
X0224707Y0291732D01*
X0224762Y0291658D01*
X0224814Y0291581D01*
X0224863Y0291502D01*
X0224909Y0291422D01*
X0224951Y0291339D01*
X0224989Y0291255D01*
X0225024Y0291169D01*
X0225055Y0291082D01*
X0225082Y0290994D01*
X0225105Y0290904D01*
X0225125Y0290814D01*
X0225141Y0290723D01*
X0225153Y0290631D01*
X0225161Y0290539D01*
X0225165Y0290446D01*
X0225165Y0290354D01*
X0225161Y0290261D01*
X0225153Y0290169D01*
X0225141Y0290077D01*
X0225125Y0289986D01*
X0225105Y0289896D01*
X0225082Y0289806D01*
X0225055Y0289718D01*
X0225024Y0289631D01*
X0224989Y0289545D01*
X0224951Y0289461D01*
X0224909Y0289378D01*
X0224863Y0289298D01*
X0224814Y0289219D01*
X0224762Y0289142D01*
X0224707Y0289068D01*
X0224649Y0288997D01*
X0224587Y0288927D01*
X0224523Y0288861D01*
X0224456Y0288797D01*
X0224386Y0288737D01*
X0224313Y0288679D01*
X0224239Y0288624D01*
X0224162Y0288573D01*
X0224083Y0288525D01*
X0224001Y0288481D01*
X0223918Y0288439D01*
X0223834Y0288402D01*
X0223748Y0288368D01*
X0223660Y0288338D01*
X0223572Y0288312D01*
X0223482Y0288289D01*
X0223391Y0288271D01*
X0223300Y0288256D01*
X0223208Y0288245D01*
X0223116Y0288238D01*
X0223023Y0288235D01*
X0222931Y0288236D01*
X0222838Y0288241D01*
X0222746Y0288250D01*
X0222654Y0288263D01*
X0222563Y0288279D01*
X0222473Y0288300D01*
X0222384Y0288324D01*
X0222296Y0288353D01*
X0222209Y0288385D01*
X0222124Y0288420D01*
X0222040Y0288460D01*
X0221958Y0288502D01*
X0221878Y0288549D01*
X0221800Y0288598D01*
X0221724Y0288651D01*
X0221650Y0288707D01*
X0221579Y0288767D01*
X0221511Y0288829D01*
X0221445Y0288894D01*
X0221382Y0288962D01*
X0221322Y0289032D01*
X0221265Y0289105D01*
X0221211Y0289180D01*
X0221161Y0289258D01*
X0221114Y0289338D01*
X0221070Y0289419D01*
X0221030Y0289503D01*
X0220993Y0289588D01*
X0220960Y0289674D01*
X0220931Y0289762D01*
X0220906Y0289851D01*
X0220884Y0289941D01*
X0220867Y0290032D01*
X0220853Y0290123D01*
X0220843Y0290215D01*
X0220837Y0290307D01*
X0220835Y0290400D01*
X0302850Y0290400D02*
X0302852Y0290512D01*
X0302858Y0290623D01*
X0302868Y0290735D01*
X0302882Y0290846D01*
X0302899Y0290956D01*
X0302921Y0291066D01*
X0302947Y0291175D01*
X0302976Y0291283D01*
X0303009Y0291389D01*
X0303046Y0291495D01*
X0303087Y0291599D01*
X0303132Y0291702D01*
X0303180Y0291803D01*
X0303231Y0291902D01*
X0303286Y0291999D01*
X0303345Y0292094D01*
X0303406Y0292188D01*
X0303471Y0292279D01*
X0303540Y0292367D01*
X0303611Y0292453D01*
X0303685Y0292537D01*
X0303763Y0292617D01*
X0303843Y0292695D01*
X0303926Y0292771D01*
X0304011Y0292843D01*
X0304099Y0292912D01*
X0304189Y0292978D01*
X0304282Y0293040D01*
X0304377Y0293100D01*
X0304474Y0293156D01*
X0304572Y0293208D01*
X0304673Y0293257D01*
X0304775Y0293302D01*
X0304879Y0293344D01*
X0304984Y0293382D01*
X0305091Y0293416D01*
X0305198Y0293446D01*
X0305307Y0293473D01*
X0305416Y0293495D01*
X0305527Y0293514D01*
X0305637Y0293529D01*
X0305749Y0293540D01*
X0305860Y0293547D01*
X0305972Y0293550D01*
X0306084Y0293549D01*
X0306196Y0293544D01*
X0306307Y0293535D01*
X0306418Y0293522D01*
X0306529Y0293505D01*
X0306639Y0293485D01*
X0306748Y0293460D01*
X0306856Y0293432D01*
X0306963Y0293399D01*
X0307069Y0293363D01*
X0307173Y0293323D01*
X0307276Y0293280D01*
X0307378Y0293233D01*
X0307477Y0293182D01*
X0307575Y0293128D01*
X0307671Y0293070D01*
X0307765Y0293009D01*
X0307856Y0292945D01*
X0307945Y0292878D01*
X0308032Y0292807D01*
X0308116Y0292733D01*
X0308198Y0292657D01*
X0308276Y0292577D01*
X0308352Y0292495D01*
X0308425Y0292410D01*
X0308495Y0292323D01*
X0308561Y0292233D01*
X0308625Y0292141D01*
X0308685Y0292047D01*
X0308742Y0291951D01*
X0308795Y0291852D01*
X0308845Y0291752D01*
X0308891Y0291651D01*
X0308934Y0291547D01*
X0308973Y0291442D01*
X0309008Y0291336D01*
X0309039Y0291229D01*
X0309067Y0291120D01*
X0309090Y0291011D01*
X0309110Y0290901D01*
X0309126Y0290790D01*
X0309138Y0290679D01*
X0309146Y0290568D01*
X0309150Y0290456D01*
X0309150Y0290344D01*
X0309146Y0290232D01*
X0309138Y0290121D01*
X0309126Y0290010D01*
X0309110Y0289899D01*
X0309090Y0289789D01*
X0309067Y0289680D01*
X0309039Y0289571D01*
X0309008Y0289464D01*
X0308973Y0289358D01*
X0308934Y0289253D01*
X0308891Y0289149D01*
X0308845Y0289048D01*
X0308795Y0288948D01*
X0308742Y0288849D01*
X0308685Y0288753D01*
X0308625Y0288659D01*
X0308561Y0288567D01*
X0308495Y0288477D01*
X0308425Y0288390D01*
X0308352Y0288305D01*
X0308276Y0288223D01*
X0308198Y0288143D01*
X0308116Y0288067D01*
X0308032Y0287993D01*
X0307945Y0287922D01*
X0307856Y0287855D01*
X0307765Y0287791D01*
X0307671Y0287730D01*
X0307575Y0287672D01*
X0307477Y0287618D01*
X0307378Y0287567D01*
X0307276Y0287520D01*
X0307173Y0287477D01*
X0307069Y0287437D01*
X0306963Y0287401D01*
X0306856Y0287368D01*
X0306748Y0287340D01*
X0306639Y0287315D01*
X0306529Y0287295D01*
X0306418Y0287278D01*
X0306307Y0287265D01*
X0306196Y0287256D01*
X0306084Y0287251D01*
X0305972Y0287250D01*
X0305860Y0287253D01*
X0305749Y0287260D01*
X0305637Y0287271D01*
X0305527Y0287286D01*
X0305416Y0287305D01*
X0305307Y0287327D01*
X0305198Y0287354D01*
X0305091Y0287384D01*
X0304984Y0287418D01*
X0304879Y0287456D01*
X0304775Y0287498D01*
X0304673Y0287543D01*
X0304572Y0287592D01*
X0304474Y0287644D01*
X0304377Y0287700D01*
X0304282Y0287760D01*
X0304189Y0287822D01*
X0304099Y0287888D01*
X0304011Y0287957D01*
X0303926Y0288029D01*
X0303843Y0288105D01*
X0303763Y0288183D01*
X0303685Y0288263D01*
X0303611Y0288347D01*
X0303540Y0288433D01*
X0303471Y0288521D01*
X0303406Y0288612D01*
X0303345Y0288706D01*
X0303286Y0288801D01*
X0303231Y0288898D01*
X0303180Y0288997D01*
X0303132Y0289098D01*
X0303087Y0289201D01*
X0303046Y0289305D01*
X0303009Y0289411D01*
X0302976Y0289517D01*
X0302947Y0289625D01*
X0302921Y0289734D01*
X0302899Y0289844D01*
X0302882Y0289954D01*
X0302868Y0290065D01*
X0302858Y0290177D01*
X0302852Y0290288D01*
X0302850Y0290400D01*
X0378477Y0255522D02*
X0378479Y0255678D01*
X0378485Y0255834D01*
X0378495Y0255989D01*
X0378509Y0256144D01*
X0378527Y0256299D01*
X0378549Y0256453D01*
X0378574Y0256607D01*
X0378604Y0256760D01*
X0378638Y0256912D01*
X0378675Y0257064D01*
X0378716Y0257214D01*
X0378761Y0257363D01*
X0378810Y0257511D01*
X0378863Y0257658D01*
X0378919Y0257803D01*
X0378979Y0257947D01*
X0379043Y0258089D01*
X0379111Y0258230D01*
X0379182Y0258368D01*
X0379256Y0258505D01*
X0379334Y0258640D01*
X0379415Y0258773D01*
X0379500Y0258904D01*
X0379588Y0259033D01*
X0379679Y0259159D01*
X0379774Y0259283D01*
X0379871Y0259404D01*
X0379972Y0259523D01*
X0380076Y0259640D01*
X0380182Y0259753D01*
X0380292Y0259864D01*
X0380404Y0259972D01*
X0380519Y0260077D01*
X0380637Y0260180D01*
X0380757Y0260279D01*
X0380880Y0260375D01*
X0381005Y0260468D01*
X0381132Y0260557D01*
X0381262Y0260644D01*
X0381394Y0260727D01*
X0381528Y0260806D01*
X0381664Y0260883D01*
X0381802Y0260955D01*
X0381941Y0261025D01*
X0382083Y0261090D01*
X0382226Y0261152D01*
X0382370Y0261210D01*
X0382516Y0261265D01*
X0382664Y0261316D01*
X0382812Y0261363D01*
X0382962Y0261406D01*
X0383113Y0261445D01*
X0383265Y0261481D01*
X0383417Y0261512D01*
X0383571Y0261540D01*
X0383725Y0261564D01*
X0383879Y0261584D01*
X0384034Y0261600D01*
X0384190Y0261612D01*
X0384345Y0261620D01*
X0384501Y0261624D01*
X0384657Y0261624D01*
X0384813Y0261620D01*
X0384968Y0261612D01*
X0385124Y0261600D01*
X0385279Y0261584D01*
X0385433Y0261564D01*
X0385587Y0261540D01*
X0385741Y0261512D01*
X0385893Y0261481D01*
X0386045Y0261445D01*
X0386196Y0261406D01*
X0386346Y0261363D01*
X0386494Y0261316D01*
X0386642Y0261265D01*
X0386788Y0261210D01*
X0386932Y0261152D01*
X0387075Y0261090D01*
X0387217Y0261025D01*
X0387356Y0260955D01*
X0387494Y0260883D01*
X0387630Y0260806D01*
X0387764Y0260727D01*
X0387896Y0260644D01*
X0388026Y0260557D01*
X0388153Y0260468D01*
X0388278Y0260375D01*
X0388401Y0260279D01*
X0388521Y0260180D01*
X0388639Y0260077D01*
X0388754Y0259972D01*
X0388866Y0259864D01*
X0388976Y0259753D01*
X0389082Y0259640D01*
X0389186Y0259523D01*
X0389287Y0259404D01*
X0389384Y0259283D01*
X0389479Y0259159D01*
X0389570Y0259033D01*
X0389658Y0258904D01*
X0389743Y0258773D01*
X0389824Y0258640D01*
X0389902Y0258505D01*
X0389976Y0258368D01*
X0390047Y0258230D01*
X0390115Y0258089D01*
X0390179Y0257947D01*
X0390239Y0257803D01*
X0390295Y0257658D01*
X0390348Y0257511D01*
X0390397Y0257363D01*
X0390442Y0257214D01*
X0390483Y0257064D01*
X0390520Y0256912D01*
X0390554Y0256760D01*
X0390584Y0256607D01*
X0390609Y0256453D01*
X0390631Y0256299D01*
X0390649Y0256144D01*
X0390663Y0255989D01*
X0390673Y0255834D01*
X0390679Y0255678D01*
X0390681Y0255522D01*
X0390679Y0255366D01*
X0390673Y0255210D01*
X0390663Y0255055D01*
X0390649Y0254900D01*
X0390631Y0254745D01*
X0390609Y0254591D01*
X0390584Y0254437D01*
X0390554Y0254284D01*
X0390520Y0254132D01*
X0390483Y0253980D01*
X0390442Y0253830D01*
X0390397Y0253681D01*
X0390348Y0253533D01*
X0390295Y0253386D01*
X0390239Y0253241D01*
X0390179Y0253097D01*
X0390115Y0252955D01*
X0390047Y0252814D01*
X0389976Y0252676D01*
X0389902Y0252539D01*
X0389824Y0252404D01*
X0389743Y0252271D01*
X0389658Y0252140D01*
X0389570Y0252011D01*
X0389479Y0251885D01*
X0389384Y0251761D01*
X0389287Y0251640D01*
X0389186Y0251521D01*
X0389082Y0251404D01*
X0388976Y0251291D01*
X0388866Y0251180D01*
X0388754Y0251072D01*
X0388639Y0250967D01*
X0388521Y0250864D01*
X0388401Y0250765D01*
X0388278Y0250669D01*
X0388153Y0250576D01*
X0388026Y0250487D01*
X0387896Y0250400D01*
X0387764Y0250317D01*
X0387630Y0250238D01*
X0387494Y0250161D01*
X0387356Y0250089D01*
X0387217Y0250019D01*
X0387075Y0249954D01*
X0386932Y0249892D01*
X0386788Y0249834D01*
X0386642Y0249779D01*
X0386494Y0249728D01*
X0386346Y0249681D01*
X0386196Y0249638D01*
X0386045Y0249599D01*
X0385893Y0249563D01*
X0385741Y0249532D01*
X0385587Y0249504D01*
X0385433Y0249480D01*
X0385279Y0249460D01*
X0385124Y0249444D01*
X0384968Y0249432D01*
X0384813Y0249424D01*
X0384657Y0249420D01*
X0384501Y0249420D01*
X0384345Y0249424D01*
X0384190Y0249432D01*
X0384034Y0249444D01*
X0383879Y0249460D01*
X0383725Y0249480D01*
X0383571Y0249504D01*
X0383417Y0249532D01*
X0383265Y0249563D01*
X0383113Y0249599D01*
X0382962Y0249638D01*
X0382812Y0249681D01*
X0382664Y0249728D01*
X0382516Y0249779D01*
X0382370Y0249834D01*
X0382226Y0249892D01*
X0382083Y0249954D01*
X0381941Y0250019D01*
X0381802Y0250089D01*
X0381664Y0250161D01*
X0381528Y0250238D01*
X0381394Y0250317D01*
X0381262Y0250400D01*
X0381132Y0250487D01*
X0381005Y0250576D01*
X0380880Y0250669D01*
X0380757Y0250765D01*
X0380637Y0250864D01*
X0380519Y0250967D01*
X0380404Y0251072D01*
X0380292Y0251180D01*
X0380182Y0251291D01*
X0380076Y0251404D01*
X0379972Y0251521D01*
X0379871Y0251640D01*
X0379774Y0251761D01*
X0379679Y0251885D01*
X0379588Y0252011D01*
X0379500Y0252140D01*
X0379415Y0252271D01*
X0379334Y0252404D01*
X0379256Y0252539D01*
X0379182Y0252676D01*
X0379111Y0252814D01*
X0379043Y0252955D01*
X0378979Y0253097D01*
X0378919Y0253241D01*
X0378863Y0253386D01*
X0378810Y0253533D01*
X0378761Y0253681D01*
X0378716Y0253830D01*
X0378675Y0253980D01*
X0378638Y0254132D01*
X0378604Y0254284D01*
X0378574Y0254437D01*
X0378549Y0254591D01*
X0378527Y0254745D01*
X0378509Y0254900D01*
X0378495Y0255055D01*
X0378485Y0255210D01*
X0378479Y0255366D01*
X0378477Y0255522D01*
X0382414Y0601979D02*
X0382416Y0602135D01*
X0382422Y0602291D01*
X0382432Y0602446D01*
X0382446Y0602601D01*
X0382464Y0602756D01*
X0382486Y0602910D01*
X0382511Y0603064D01*
X0382541Y0603217D01*
X0382575Y0603369D01*
X0382612Y0603521D01*
X0382653Y0603671D01*
X0382698Y0603820D01*
X0382747Y0603968D01*
X0382800Y0604115D01*
X0382856Y0604260D01*
X0382916Y0604404D01*
X0382980Y0604546D01*
X0383048Y0604687D01*
X0383119Y0604825D01*
X0383193Y0604962D01*
X0383271Y0605097D01*
X0383352Y0605230D01*
X0383437Y0605361D01*
X0383525Y0605490D01*
X0383616Y0605616D01*
X0383711Y0605740D01*
X0383808Y0605861D01*
X0383909Y0605980D01*
X0384013Y0606097D01*
X0384119Y0606210D01*
X0384229Y0606321D01*
X0384341Y0606429D01*
X0384456Y0606534D01*
X0384574Y0606637D01*
X0384694Y0606736D01*
X0384817Y0606832D01*
X0384942Y0606925D01*
X0385069Y0607014D01*
X0385199Y0607101D01*
X0385331Y0607184D01*
X0385465Y0607263D01*
X0385601Y0607340D01*
X0385739Y0607412D01*
X0385878Y0607482D01*
X0386020Y0607547D01*
X0386163Y0607609D01*
X0386307Y0607667D01*
X0386453Y0607722D01*
X0386601Y0607773D01*
X0386749Y0607820D01*
X0386899Y0607863D01*
X0387050Y0607902D01*
X0387202Y0607938D01*
X0387354Y0607969D01*
X0387508Y0607997D01*
X0387662Y0608021D01*
X0387816Y0608041D01*
X0387971Y0608057D01*
X0388127Y0608069D01*
X0388282Y0608077D01*
X0388438Y0608081D01*
X0388594Y0608081D01*
X0388750Y0608077D01*
X0388905Y0608069D01*
X0389061Y0608057D01*
X0389216Y0608041D01*
X0389370Y0608021D01*
X0389524Y0607997D01*
X0389678Y0607969D01*
X0389830Y0607938D01*
X0389982Y0607902D01*
X0390133Y0607863D01*
X0390283Y0607820D01*
X0390431Y0607773D01*
X0390579Y0607722D01*
X0390725Y0607667D01*
X0390869Y0607609D01*
X0391012Y0607547D01*
X0391154Y0607482D01*
X0391293Y0607412D01*
X0391431Y0607340D01*
X0391567Y0607263D01*
X0391701Y0607184D01*
X0391833Y0607101D01*
X0391963Y0607014D01*
X0392090Y0606925D01*
X0392215Y0606832D01*
X0392338Y0606736D01*
X0392458Y0606637D01*
X0392576Y0606534D01*
X0392691Y0606429D01*
X0392803Y0606321D01*
X0392913Y0606210D01*
X0393019Y0606097D01*
X0393123Y0605980D01*
X0393224Y0605861D01*
X0393321Y0605740D01*
X0393416Y0605616D01*
X0393507Y0605490D01*
X0393595Y0605361D01*
X0393680Y0605230D01*
X0393761Y0605097D01*
X0393839Y0604962D01*
X0393913Y0604825D01*
X0393984Y0604687D01*
X0394052Y0604546D01*
X0394116Y0604404D01*
X0394176Y0604260D01*
X0394232Y0604115D01*
X0394285Y0603968D01*
X0394334Y0603820D01*
X0394379Y0603671D01*
X0394420Y0603521D01*
X0394457Y0603369D01*
X0394491Y0603217D01*
X0394521Y0603064D01*
X0394546Y0602910D01*
X0394568Y0602756D01*
X0394586Y0602601D01*
X0394600Y0602446D01*
X0394610Y0602291D01*
X0394616Y0602135D01*
X0394618Y0601979D01*
X0394616Y0601823D01*
X0394610Y0601667D01*
X0394600Y0601512D01*
X0394586Y0601357D01*
X0394568Y0601202D01*
X0394546Y0601048D01*
X0394521Y0600894D01*
X0394491Y0600741D01*
X0394457Y0600589D01*
X0394420Y0600437D01*
X0394379Y0600287D01*
X0394334Y0600138D01*
X0394285Y0599990D01*
X0394232Y0599843D01*
X0394176Y0599698D01*
X0394116Y0599554D01*
X0394052Y0599412D01*
X0393984Y0599271D01*
X0393913Y0599133D01*
X0393839Y0598996D01*
X0393761Y0598861D01*
X0393680Y0598728D01*
X0393595Y0598597D01*
X0393507Y0598468D01*
X0393416Y0598342D01*
X0393321Y0598218D01*
X0393224Y0598097D01*
X0393123Y0597978D01*
X0393019Y0597861D01*
X0392913Y0597748D01*
X0392803Y0597637D01*
X0392691Y0597529D01*
X0392576Y0597424D01*
X0392458Y0597321D01*
X0392338Y0597222D01*
X0392215Y0597126D01*
X0392090Y0597033D01*
X0391963Y0596944D01*
X0391833Y0596857D01*
X0391701Y0596774D01*
X0391567Y0596695D01*
X0391431Y0596618D01*
X0391293Y0596546D01*
X0391154Y0596476D01*
X0391012Y0596411D01*
X0390869Y0596349D01*
X0390725Y0596291D01*
X0390579Y0596236D01*
X0390431Y0596185D01*
X0390283Y0596138D01*
X0390133Y0596095D01*
X0389982Y0596056D01*
X0389830Y0596020D01*
X0389678Y0595989D01*
X0389524Y0595961D01*
X0389370Y0595937D01*
X0389216Y0595917D01*
X0389061Y0595901D01*
X0388905Y0595889D01*
X0388750Y0595881D01*
X0388594Y0595877D01*
X0388438Y0595877D01*
X0388282Y0595881D01*
X0388127Y0595889D01*
X0387971Y0595901D01*
X0387816Y0595917D01*
X0387662Y0595937D01*
X0387508Y0595961D01*
X0387354Y0595989D01*
X0387202Y0596020D01*
X0387050Y0596056D01*
X0386899Y0596095D01*
X0386749Y0596138D01*
X0386601Y0596185D01*
X0386453Y0596236D01*
X0386307Y0596291D01*
X0386163Y0596349D01*
X0386020Y0596411D01*
X0385878Y0596476D01*
X0385739Y0596546D01*
X0385601Y0596618D01*
X0385465Y0596695D01*
X0385331Y0596774D01*
X0385199Y0596857D01*
X0385069Y0596944D01*
X0384942Y0597033D01*
X0384817Y0597126D01*
X0384694Y0597222D01*
X0384574Y0597321D01*
X0384456Y0597424D01*
X0384341Y0597529D01*
X0384229Y0597637D01*
X0384119Y0597748D01*
X0384013Y0597861D01*
X0383909Y0597978D01*
X0383808Y0598097D01*
X0383711Y0598218D01*
X0383616Y0598342D01*
X0383525Y0598468D01*
X0383437Y0598597D01*
X0383352Y0598728D01*
X0383271Y0598861D01*
X0383193Y0598996D01*
X0383119Y0599133D01*
X0383048Y0599271D01*
X0382980Y0599412D01*
X0382916Y0599554D01*
X0382856Y0599698D01*
X0382800Y0599843D01*
X0382747Y0599990D01*
X0382698Y0600138D01*
X0382653Y0600287D01*
X0382612Y0600437D01*
X0382575Y0600589D01*
X0382541Y0600741D01*
X0382511Y0600894D01*
X0382486Y0601048D01*
X0382464Y0601202D01*
X0382446Y0601357D01*
X0382432Y0601512D01*
X0382422Y0601667D01*
X0382416Y0601823D01*
X0382414Y0601979D01*
X0028083Y0601979D02*
X0028085Y0602135D01*
X0028091Y0602291D01*
X0028101Y0602446D01*
X0028115Y0602601D01*
X0028133Y0602756D01*
X0028155Y0602910D01*
X0028180Y0603064D01*
X0028210Y0603217D01*
X0028244Y0603369D01*
X0028281Y0603521D01*
X0028322Y0603671D01*
X0028367Y0603820D01*
X0028416Y0603968D01*
X0028469Y0604115D01*
X0028525Y0604260D01*
X0028585Y0604404D01*
X0028649Y0604546D01*
X0028717Y0604687D01*
X0028788Y0604825D01*
X0028862Y0604962D01*
X0028940Y0605097D01*
X0029021Y0605230D01*
X0029106Y0605361D01*
X0029194Y0605490D01*
X0029285Y0605616D01*
X0029380Y0605740D01*
X0029477Y0605861D01*
X0029578Y0605980D01*
X0029682Y0606097D01*
X0029788Y0606210D01*
X0029898Y0606321D01*
X0030010Y0606429D01*
X0030125Y0606534D01*
X0030243Y0606637D01*
X0030363Y0606736D01*
X0030486Y0606832D01*
X0030611Y0606925D01*
X0030738Y0607014D01*
X0030868Y0607101D01*
X0031000Y0607184D01*
X0031134Y0607263D01*
X0031270Y0607340D01*
X0031408Y0607412D01*
X0031547Y0607482D01*
X0031689Y0607547D01*
X0031832Y0607609D01*
X0031976Y0607667D01*
X0032122Y0607722D01*
X0032270Y0607773D01*
X0032418Y0607820D01*
X0032568Y0607863D01*
X0032719Y0607902D01*
X0032871Y0607938D01*
X0033023Y0607969D01*
X0033177Y0607997D01*
X0033331Y0608021D01*
X0033485Y0608041D01*
X0033640Y0608057D01*
X0033796Y0608069D01*
X0033951Y0608077D01*
X0034107Y0608081D01*
X0034263Y0608081D01*
X0034419Y0608077D01*
X0034574Y0608069D01*
X0034730Y0608057D01*
X0034885Y0608041D01*
X0035039Y0608021D01*
X0035193Y0607997D01*
X0035347Y0607969D01*
X0035499Y0607938D01*
X0035651Y0607902D01*
X0035802Y0607863D01*
X0035952Y0607820D01*
X0036100Y0607773D01*
X0036248Y0607722D01*
X0036394Y0607667D01*
X0036538Y0607609D01*
X0036681Y0607547D01*
X0036823Y0607482D01*
X0036962Y0607412D01*
X0037100Y0607340D01*
X0037236Y0607263D01*
X0037370Y0607184D01*
X0037502Y0607101D01*
X0037632Y0607014D01*
X0037759Y0606925D01*
X0037884Y0606832D01*
X0038007Y0606736D01*
X0038127Y0606637D01*
X0038245Y0606534D01*
X0038360Y0606429D01*
X0038472Y0606321D01*
X0038582Y0606210D01*
X0038688Y0606097D01*
X0038792Y0605980D01*
X0038893Y0605861D01*
X0038990Y0605740D01*
X0039085Y0605616D01*
X0039176Y0605490D01*
X0039264Y0605361D01*
X0039349Y0605230D01*
X0039430Y0605097D01*
X0039508Y0604962D01*
X0039582Y0604825D01*
X0039653Y0604687D01*
X0039721Y0604546D01*
X0039785Y0604404D01*
X0039845Y0604260D01*
X0039901Y0604115D01*
X0039954Y0603968D01*
X0040003Y0603820D01*
X0040048Y0603671D01*
X0040089Y0603521D01*
X0040126Y0603369D01*
X0040160Y0603217D01*
X0040190Y0603064D01*
X0040215Y0602910D01*
X0040237Y0602756D01*
X0040255Y0602601D01*
X0040269Y0602446D01*
X0040279Y0602291D01*
X0040285Y0602135D01*
X0040287Y0601979D01*
X0040285Y0601823D01*
X0040279Y0601667D01*
X0040269Y0601512D01*
X0040255Y0601357D01*
X0040237Y0601202D01*
X0040215Y0601048D01*
X0040190Y0600894D01*
X0040160Y0600741D01*
X0040126Y0600589D01*
X0040089Y0600437D01*
X0040048Y0600287D01*
X0040003Y0600138D01*
X0039954Y0599990D01*
X0039901Y0599843D01*
X0039845Y0599698D01*
X0039785Y0599554D01*
X0039721Y0599412D01*
X0039653Y0599271D01*
X0039582Y0599133D01*
X0039508Y0598996D01*
X0039430Y0598861D01*
X0039349Y0598728D01*
X0039264Y0598597D01*
X0039176Y0598468D01*
X0039085Y0598342D01*
X0038990Y0598218D01*
X0038893Y0598097D01*
X0038792Y0597978D01*
X0038688Y0597861D01*
X0038582Y0597748D01*
X0038472Y0597637D01*
X0038360Y0597529D01*
X0038245Y0597424D01*
X0038127Y0597321D01*
X0038007Y0597222D01*
X0037884Y0597126D01*
X0037759Y0597033D01*
X0037632Y0596944D01*
X0037502Y0596857D01*
X0037370Y0596774D01*
X0037236Y0596695D01*
X0037100Y0596618D01*
X0036962Y0596546D01*
X0036823Y0596476D01*
X0036681Y0596411D01*
X0036538Y0596349D01*
X0036394Y0596291D01*
X0036248Y0596236D01*
X0036100Y0596185D01*
X0035952Y0596138D01*
X0035802Y0596095D01*
X0035651Y0596056D01*
X0035499Y0596020D01*
X0035347Y0595989D01*
X0035193Y0595961D01*
X0035039Y0595937D01*
X0034885Y0595917D01*
X0034730Y0595901D01*
X0034574Y0595889D01*
X0034419Y0595881D01*
X0034263Y0595877D01*
X0034107Y0595877D01*
X0033951Y0595881D01*
X0033796Y0595889D01*
X0033640Y0595901D01*
X0033485Y0595917D01*
X0033331Y0595937D01*
X0033177Y0595961D01*
X0033023Y0595989D01*
X0032871Y0596020D01*
X0032719Y0596056D01*
X0032568Y0596095D01*
X0032418Y0596138D01*
X0032270Y0596185D01*
X0032122Y0596236D01*
X0031976Y0596291D01*
X0031832Y0596349D01*
X0031689Y0596411D01*
X0031547Y0596476D01*
X0031408Y0596546D01*
X0031270Y0596618D01*
X0031134Y0596695D01*
X0031000Y0596774D01*
X0030868Y0596857D01*
X0030738Y0596944D01*
X0030611Y0597033D01*
X0030486Y0597126D01*
X0030363Y0597222D01*
X0030243Y0597321D01*
X0030125Y0597424D01*
X0030010Y0597529D01*
X0029898Y0597637D01*
X0029788Y0597748D01*
X0029682Y0597861D01*
X0029578Y0597978D01*
X0029477Y0598097D01*
X0029380Y0598218D01*
X0029285Y0598342D01*
X0029194Y0598468D01*
X0029106Y0598597D01*
X0029021Y0598728D01*
X0028940Y0598861D01*
X0028862Y0598996D01*
X0028788Y0599133D01*
X0028717Y0599271D01*
X0028649Y0599412D01*
X0028585Y0599554D01*
X0028525Y0599698D01*
X0028469Y0599843D01*
X0028416Y0599990D01*
X0028367Y0600138D01*
X0028322Y0600287D01*
X0028281Y0600437D01*
X0028244Y0600589D01*
X0028210Y0600741D01*
X0028180Y0600894D01*
X0028155Y0601048D01*
X0028133Y0601202D01*
X0028115Y0601357D01*
X0028101Y0601512D01*
X0028091Y0601667D01*
X0028085Y0601823D01*
X0028083Y0601979D01*
M02*
