G75*
%MOIN*%
%OFA0B0*%
%FSLAX25Y25*%
%IPPOS*%
%LPD*%
%AMOC8*
5,1,8,0,0,1.08239X$1,22.5*
%
%ADD10C,0.13005*%
%ADD11R,0.05052X0.04934*%
%ADD12R,0.04934X0.05052*%
%ADD13R,0.01575X0.04134*%
%ADD14R,0.11811X0.11811*%
%ADD15R,0.04134X0.01575*%
%ADD16R,0.04737X0.05131*%
%ADD17R,0.05131X0.04737*%
%ADD18R,0.06312X0.04737*%
%ADD19R,0.04343X0.06706*%
%ADD20R,0.06706X0.04343*%
%ADD21R,0.24422X0.24422*%
%ADD22C,0.04737*%
%ADD23R,0.04737X0.07887*%
%ADD24R,0.04343X0.03556*%
%ADD25R,0.11036X0.03359*%
%ADD26R,0.03359X0.11036*%
%ADD27C,0.08200*%
%ADD28R,0.05800X0.10800*%
%ADD29R,0.03600X0.06400*%
%ADD30C,0.07099*%
%ADD31C,0.05131*%
%ADD32R,0.05524X0.02965*%
%ADD33R,0.05721X0.19304*%
%ADD34R,0.04737X0.05800*%
%ADD35OC8,0.07800*%
%ADD36C,0.10800*%
%ADD37C,0.07850*%
%ADD38R,0.14580X0.07099*%
%ADD39R,0.04737X0.06312*%
%ADD40C,0.09855*%
%ADD41C,0.06800*%
%ADD42R,0.02572X0.06706*%
%ADD43C,0.06800*%
%ADD44C,0.08300*%
%ADD45R,0.06312X0.01981*%
%ADD46R,0.03556X0.07690*%
%ADD47R,0.06706X0.05918*%
%ADD48R,0.03950X0.06706*%
%ADD49R,0.03950X0.06312*%
%ADD50R,0.06902X0.04737*%
%ADD51R,0.04737X0.06902*%
%ADD52R,0.25209X0.22060*%
%ADD53R,0.07099X0.04737*%
%ADD54R,0.02000X0.04700*%
%ADD55R,0.03162X0.05328*%
%ADD56R,0.02572X0.05328*%
%ADD57C,0.01969*%
%ADD58R,0.08200X0.08200*%
%ADD59R,0.06312X0.03044*%
%ADD60R,0.05524X0.03359*%
%ADD61C,0.00500*%
%ADD62R,0.05800X0.04737*%
%ADD63R,0.03359X0.06816*%
%ADD64C,0.07887*%
%ADD65C,0.04000*%
%ADD66C,0.03975*%
D10*
X0038122Y0255522D03*
X0034185Y0601979D03*
X0384579Y0255522D03*
X0388516Y0601979D03*
D11*
X0357500Y0507295D03*
X0357500Y0500405D03*
X0340350Y0500405D03*
X0340350Y0507295D03*
X0314625Y0507295D03*
X0314625Y0500405D03*
X0297475Y0500405D03*
X0297475Y0507295D03*
X0250925Y0508520D03*
X0250925Y0501630D03*
X0233775Y0501630D03*
X0233775Y0508520D03*
X0192125Y0421545D03*
X0192125Y0414655D03*
X0192125Y0406845D03*
X0192125Y0399955D03*
X0233500Y0402145D03*
X0233500Y0395255D03*
X0246150Y0395255D03*
X0246150Y0402145D03*
X0311375Y0329045D03*
X0317675Y0329045D03*
X0317675Y0322155D03*
X0311375Y0322155D03*
X0389475Y0466605D03*
X0395825Y0466605D03*
X0395825Y0473495D03*
X0389475Y0473495D03*
X0139450Y0499180D03*
X0139450Y0506070D03*
X0122300Y0506070D03*
X0122300Y0499180D03*
X0097800Y0499180D03*
X0097800Y0506070D03*
X0080650Y0506070D03*
X0080650Y0499180D03*
X0058750Y0431870D03*
X0058750Y0424980D03*
X0065300Y0396095D03*
X0065300Y0389205D03*
X0111800Y0336420D03*
X0111800Y0329530D03*
X0030425Y0489380D03*
X0030425Y0496270D03*
D12*
X0058830Y0454850D03*
X0065720Y0454850D03*
X0058220Y0438400D03*
X0051330Y0438400D03*
X0107830Y0476900D03*
X0114720Y0476900D03*
X0182555Y0435250D03*
X0189445Y0435250D03*
X0234005Y0476900D03*
X0240895Y0476900D03*
X0270555Y0408025D03*
X0277445Y0408025D03*
X0324655Y0478125D03*
X0331545Y0478125D03*
X0253395Y0312175D03*
X0246505Y0312175D03*
X0199545Y0285600D03*
X0192655Y0285600D03*
X0174445Y0289900D03*
X0174445Y0296225D03*
X0174445Y0302550D03*
X0167555Y0302550D03*
X0167555Y0296225D03*
X0167555Y0289900D03*
X0172455Y0252950D03*
X0172455Y0246000D03*
X0179345Y0246000D03*
X0179345Y0252950D03*
X0130495Y0283150D03*
X0123605Y0283150D03*
X0104595Y0288250D03*
X0097705Y0288250D03*
X0097480Y0296225D03*
X0104370Y0296225D03*
X0104270Y0303275D03*
X0097380Y0303275D03*
X0110510Y0317530D03*
X0117400Y0317530D03*
X0137380Y0377300D03*
X0144270Y0377300D03*
X0108270Y0253250D03*
X0101380Y0253250D03*
X0101205Y0245575D03*
X0108095Y0245575D03*
X0324030Y0278700D03*
X0330920Y0278700D03*
D13*
X0338594Y0293209D03*
X0340563Y0293209D03*
X0342531Y0293209D03*
X0344500Y0293209D03*
X0346469Y0293209D03*
X0348437Y0293209D03*
X0350406Y0293209D03*
X0350406Y0313091D03*
X0348437Y0313091D03*
X0346469Y0313091D03*
X0344500Y0313091D03*
X0342531Y0313091D03*
X0340563Y0313091D03*
X0338594Y0313091D03*
D14*
X0344500Y0303150D03*
D15*
X0354441Y0303150D03*
X0354441Y0305119D03*
X0354441Y0307087D03*
X0354441Y0309056D03*
X0354441Y0301181D03*
X0354441Y0299213D03*
X0354441Y0297244D03*
X0334559Y0297244D03*
X0334559Y0299213D03*
X0334559Y0301181D03*
X0334559Y0303150D03*
X0334559Y0305119D03*
X0334559Y0307087D03*
X0334559Y0309056D03*
D16*
X0351154Y0285650D03*
X0357846Y0285650D03*
X0372379Y0276925D03*
X0379071Y0276925D03*
X0393754Y0311475D03*
X0400446Y0311475D03*
X0339962Y0343186D03*
X0333269Y0343186D03*
X0326871Y0342925D03*
X0320179Y0342925D03*
X0301746Y0398000D03*
X0301746Y0406975D03*
X0295054Y0406975D03*
X0295054Y0398000D03*
X0315254Y0403900D03*
X0321946Y0403900D03*
X0321846Y0439000D03*
X0315154Y0439000D03*
X0315204Y0447925D03*
X0321896Y0447925D03*
X0321646Y0456950D03*
X0314954Y0456950D03*
X0343754Y0472325D03*
X0350446Y0472325D03*
X0371304Y0490375D03*
X0377996Y0490375D03*
X0389379Y0481725D03*
X0396071Y0481725D03*
X0284896Y0490375D03*
X0278204Y0490375D03*
X0266521Y0490375D03*
X0259829Y0490375D03*
X0265354Y0450125D03*
X0272046Y0450125D03*
X0251271Y0413525D03*
X0244579Y0413525D03*
X0237671Y0413675D03*
X0230979Y0413675D03*
X0213846Y0427900D03*
X0207154Y0427900D03*
X0200371Y0427900D03*
X0193679Y0427900D03*
X0182475Y0413013D03*
X0182475Y0406320D03*
X0172525Y0406179D03*
X0172525Y0412871D03*
X0179879Y0376700D03*
X0186571Y0376700D03*
X0246654Y0321825D03*
X0253346Y0321825D03*
X0201296Y0266875D03*
X0201296Y0258525D03*
X0194604Y0258525D03*
X0194604Y0266875D03*
X0192754Y0278650D03*
X0199446Y0278650D03*
X0201296Y0250162D03*
X0194604Y0250162D03*
X0166519Y0245998D03*
X0159826Y0245998D03*
X0129424Y0247840D03*
X0122731Y0247840D03*
X0122759Y0256173D03*
X0129451Y0256173D03*
X0129446Y0264375D03*
X0122754Y0264375D03*
X0123479Y0275700D03*
X0130171Y0275700D03*
X0094096Y0245650D03*
X0087404Y0245650D03*
X0072746Y0380975D03*
X0066054Y0380975D03*
X0022550Y0439404D03*
X0022550Y0446096D03*
X0039329Y0489150D03*
X0046021Y0489150D03*
X0058929Y0489150D03*
X0065621Y0489150D03*
X0123854Y0468325D03*
X0130546Y0468325D03*
X0152029Y0490375D03*
X0158721Y0490375D03*
X0170404Y0489936D03*
X0177096Y0489936D03*
X0188779Y0490375D03*
X0195471Y0490375D03*
X0207154Y0490375D03*
X0213846Y0490375D03*
D17*
X0225200Y0501729D03*
X0225200Y0508421D03*
X0242350Y0508421D03*
X0242350Y0501729D03*
X0269775Y0424871D03*
X0269775Y0418179D03*
X0306050Y0500504D03*
X0306050Y0507196D03*
X0323200Y0507196D03*
X0323200Y0500504D03*
X0331775Y0500504D03*
X0331775Y0507196D03*
X0348925Y0507196D03*
X0348925Y0500504D03*
X0400814Y0548279D03*
X0400814Y0554971D03*
X0400375Y0571554D03*
X0400375Y0578246D03*
X0398025Y0376771D03*
X0398025Y0370079D03*
X0372725Y0371304D03*
X0372725Y0377996D03*
X0364600Y0377896D03*
X0364600Y0371204D03*
X0356425Y0371204D03*
X0356425Y0377896D03*
X0348275Y0377896D03*
X0348275Y0371204D03*
X0354900Y0330894D03*
X0354900Y0324201D03*
X0362000Y0318996D03*
X0362000Y0312304D03*
X0370112Y0312354D03*
X0370112Y0319046D03*
X0394600Y0302321D03*
X0394600Y0295629D03*
X0349465Y0274629D03*
X0349465Y0267936D03*
X0343215Y0267936D03*
X0343215Y0274629D03*
X0325775Y0304804D03*
X0325775Y0311496D03*
X0317050Y0311496D03*
X0317050Y0304804D03*
X0231725Y0316954D03*
X0231725Y0323646D03*
X0183550Y0325329D03*
X0183550Y0332021D03*
X0166425Y0363629D03*
X0166425Y0370321D03*
X0151371Y0386250D03*
X0144679Y0386250D03*
X0144820Y0395377D03*
X0151513Y0395377D03*
X0140675Y0473554D03*
X0140675Y0480246D03*
X0130875Y0499279D03*
X0130875Y0505971D03*
X0114950Y0505971D03*
X0114950Y0499279D03*
X0106375Y0499279D03*
X0106375Y0505971D03*
X0089225Y0505971D03*
X0089225Y0499279D03*
X0076646Y0432065D03*
X0069954Y0432065D03*
X0064396Y0415650D03*
X0057704Y0415650D03*
X0057704Y0404625D03*
X0064396Y0404625D03*
X0074800Y0395996D03*
X0074800Y0389304D03*
X0039896Y0370325D03*
X0033204Y0370325D03*
X0033204Y0350725D03*
X0039896Y0350725D03*
X0030425Y0451504D03*
X0030425Y0458196D03*
X0030425Y0476004D03*
X0030425Y0482696D03*
D18*
X0148119Y0367075D03*
X0156781Y0363335D03*
X0156781Y0370815D03*
X0327238Y0270273D03*
X0327238Y0262793D03*
X0335900Y0266533D03*
X0356767Y0272267D03*
X0365428Y0276007D03*
X0365428Y0268527D03*
X0376519Y0291475D03*
X0385181Y0287735D03*
X0385181Y0295215D03*
X0385181Y0302735D03*
X0385181Y0310215D03*
X0376519Y0306475D03*
D19*
X0378437Y0386117D03*
X0373437Y0386117D03*
X0368437Y0386117D03*
X0363437Y0386117D03*
X0358437Y0386117D03*
X0353437Y0386117D03*
X0348437Y0386117D03*
X0343437Y0386117D03*
X0338437Y0386117D03*
X0383437Y0386117D03*
X0388437Y0386117D03*
X0393437Y0386117D03*
X0398437Y0386117D03*
X0403437Y0386117D03*
X0403437Y0456983D03*
X0398437Y0456983D03*
X0393437Y0456983D03*
X0388437Y0456983D03*
X0383437Y0456983D03*
X0378437Y0456983D03*
X0373437Y0456983D03*
X0368437Y0456983D03*
X0363437Y0456983D03*
X0358437Y0456983D03*
X0353437Y0456983D03*
X0348437Y0456983D03*
X0343437Y0456983D03*
X0338437Y0456983D03*
D20*
X0332571Y0444050D03*
X0332571Y0439050D03*
X0332571Y0434050D03*
X0332571Y0429050D03*
X0332571Y0424050D03*
X0332571Y0419050D03*
X0332571Y0414050D03*
X0332571Y0409050D03*
X0332571Y0404050D03*
X0332571Y0399050D03*
D21*
X0373122Y0421550D03*
D22*
X0373425Y0464650D03*
X0373425Y0475675D03*
X0351375Y0464650D03*
X0345250Y0464650D03*
X0345250Y0489150D03*
X0247250Y0473225D03*
X0184425Y0464450D03*
X0149250Y0451175D03*
X0143125Y0451175D03*
X0137000Y0451175D03*
X0130875Y0451175D03*
X0132100Y0484250D03*
X0100725Y0371900D03*
X0087175Y0297375D03*
X0082700Y0245750D03*
X0153775Y0246075D03*
X0158650Y0296575D03*
X0176525Y0363175D03*
X0396700Y0336025D03*
X0404050Y0336025D03*
D23*
X0367146Y0466900D03*
X0357304Y0466900D03*
D24*
X0357225Y0475591D03*
X0357225Y0480709D03*
X0367225Y0480709D03*
X0367225Y0475591D03*
D25*
X0298524Y0444465D03*
X0298524Y0439465D03*
X0298524Y0434465D03*
X0298524Y0429465D03*
X0298524Y0424465D03*
X0283958Y0424465D03*
X0283958Y0429465D03*
X0283958Y0434465D03*
X0283958Y0439465D03*
X0283958Y0444465D03*
D26*
X0369125Y0344758D03*
X0374125Y0344758D03*
X0379125Y0344758D03*
X0379125Y0330192D03*
X0374125Y0330192D03*
X0369125Y0330192D03*
D27*
X0359146Y0530050D03*
X0349146Y0530050D03*
X0349146Y0540050D03*
X0339146Y0540050D03*
X0339146Y0530050D03*
X0339146Y0581231D03*
X0339146Y0591231D03*
X0349146Y0591231D03*
X0349146Y0581231D03*
X0359146Y0581231D03*
X0290248Y0581231D03*
X0280248Y0581231D03*
X0280248Y0591231D03*
X0270248Y0591231D03*
X0270248Y0581231D03*
X0270248Y0540050D03*
X0280248Y0540050D03*
X0280248Y0530050D03*
X0270248Y0530050D03*
X0290248Y0530050D03*
X0221350Y0530050D03*
X0211350Y0530050D03*
X0211350Y0540050D03*
X0201350Y0540050D03*
X0201350Y0530050D03*
X0201350Y0581231D03*
X0201350Y0591231D03*
X0211350Y0591231D03*
X0211350Y0581231D03*
X0221350Y0581231D03*
X0152453Y0581231D03*
X0142453Y0581231D03*
X0142453Y0591231D03*
X0132453Y0591231D03*
X0132453Y0581231D03*
X0132453Y0540050D03*
X0142453Y0540050D03*
X0142453Y0530050D03*
X0132453Y0530050D03*
X0152453Y0530050D03*
X0083555Y0530050D03*
X0073555Y0530050D03*
X0073555Y0540050D03*
X0063555Y0540050D03*
X0063555Y0530050D03*
X0063555Y0581231D03*
X0063555Y0591231D03*
X0073555Y0591231D03*
X0073555Y0581231D03*
X0083555Y0581231D03*
X0122000Y0336900D03*
X0122000Y0326900D03*
X0132000Y0326900D03*
X0132000Y0336900D03*
X0142000Y0336900D03*
X0142000Y0326900D03*
X0152000Y0326900D03*
X0152000Y0336900D03*
X0162000Y0336900D03*
X0162000Y0326900D03*
X0172000Y0326900D03*
X0172000Y0336900D03*
D28*
X0215000Y0294400D03*
X0215000Y0239400D03*
X0315000Y0294400D03*
X0322000Y0239400D03*
D29*
X0306000Y0302400D03*
X0296000Y0302400D03*
X0286000Y0302400D03*
X0276000Y0302400D03*
X0266000Y0302400D03*
X0256000Y0302400D03*
X0246000Y0302400D03*
X0236000Y0302400D03*
X0230000Y0302400D03*
X0225000Y0302400D03*
X0220000Y0302400D03*
D30*
X0306000Y0290400D03*
D31*
X0223000Y0290400D03*
D32*
X0185993Y0276365D03*
X0185993Y0272625D03*
X0185993Y0268885D03*
X0175757Y0268885D03*
X0175757Y0272625D03*
X0175757Y0276365D03*
X0115518Y0274965D03*
X0115518Y0271225D03*
X0115518Y0267485D03*
X0105282Y0267485D03*
X0105282Y0271225D03*
X0105282Y0274965D03*
D33*
X0091798Y0267225D03*
X0079002Y0267225D03*
X0150502Y0268050D03*
X0163298Y0268050D03*
D34*
X0090215Y0388538D03*
X0082735Y0388538D03*
X0086475Y0396412D03*
X0066015Y0500352D03*
X0058535Y0500352D03*
X0062275Y0508226D03*
X0046415Y0500352D03*
X0038935Y0500352D03*
X0042675Y0508226D03*
X0151635Y0501138D03*
X0159115Y0501138D03*
X0155375Y0509012D03*
X0170132Y0501087D03*
X0177613Y0501087D03*
X0173873Y0508961D03*
X0188385Y0501138D03*
X0195865Y0501138D03*
X0192125Y0509012D03*
X0206760Y0501138D03*
X0214240Y0501138D03*
X0210500Y0509012D03*
X0259435Y0500352D03*
X0266915Y0500352D03*
X0263175Y0508226D03*
X0277320Y0500280D03*
X0284800Y0500280D03*
X0281060Y0508155D03*
D35*
X0396950Y0505125D03*
X0396950Y0522925D03*
D36*
X0387150Y0527825D03*
X0387150Y0500225D03*
D37*
X0035525Y0408793D02*
X0028475Y0408793D01*
X0028475Y0389107D02*
X0035525Y0389107D01*
D38*
X0073495Y0362500D03*
X0094755Y0362500D03*
D39*
X0077275Y0416244D03*
X0073535Y0424906D03*
X0081015Y0424906D03*
X0261410Y0433794D03*
X0268890Y0433794D03*
X0265150Y0442456D03*
D40*
X0202079Y0333908D03*
X0091843Y0333908D03*
X0026622Y0325000D03*
D41*
X0125400Y0364175D02*
X0125400Y0370175D01*
X0135400Y0370175D02*
X0135400Y0364175D01*
X0196350Y0461183D02*
X0196350Y0467183D01*
X0206350Y0467183D02*
X0206350Y0461183D01*
X0216350Y0461183D02*
X0216350Y0467183D01*
X0226350Y0467183D02*
X0226350Y0461183D01*
X0226500Y0403700D02*
X0220500Y0403700D01*
X0220500Y0393700D02*
X0226500Y0393700D01*
X0226500Y0383700D02*
X0220500Y0383700D01*
X0220500Y0373700D02*
X0226500Y0373700D01*
X0253150Y0373700D02*
X0259150Y0373700D01*
X0259150Y0383700D02*
X0253150Y0383700D01*
X0253150Y0393700D02*
X0259150Y0393700D01*
X0259150Y0403700D02*
X0253150Y0403700D01*
X0313300Y0373325D02*
X0313300Y0367325D01*
X0323300Y0367325D02*
X0323300Y0373325D01*
D42*
X0340597Y0252533D03*
X0343156Y0252533D03*
X0345715Y0252533D03*
X0348274Y0252533D03*
X0350833Y0252533D03*
D43*
X0356738Y0253517D03*
X0334691Y0253517D03*
D44*
X0345715Y0245052D03*
D45*
X0336936Y0484813D03*
X0336936Y0486781D03*
X0336936Y0488750D03*
X0336936Y0490719D03*
X0336936Y0492687D03*
X0319614Y0492687D03*
X0319614Y0490719D03*
X0319614Y0488750D03*
X0319614Y0486781D03*
X0319614Y0484813D03*
X0246111Y0483988D03*
X0246111Y0485956D03*
X0246111Y0487925D03*
X0246111Y0489894D03*
X0246111Y0491862D03*
X0228789Y0491862D03*
X0228789Y0489894D03*
X0228789Y0487925D03*
X0228789Y0485956D03*
X0228789Y0483988D03*
X0119761Y0484213D03*
X0119761Y0486181D03*
X0119761Y0488150D03*
X0119761Y0490119D03*
X0119761Y0492087D03*
X0102439Y0492087D03*
X0102439Y0490119D03*
X0102439Y0488150D03*
X0102439Y0486181D03*
X0102439Y0484213D03*
D46*
X0249351Y0238922D03*
X0253681Y0238922D03*
X0258012Y0238922D03*
X0262343Y0238922D03*
X0266674Y0238922D03*
X0271004Y0238922D03*
X0275335Y0238922D03*
X0279666Y0238922D03*
D47*
X0289311Y0239808D03*
X0244233Y0239808D03*
D48*
X0243544Y0269336D03*
D49*
X0290591Y0271895D03*
D50*
X0244725Y0275241D03*
D51*
X0289016Y0281442D03*
D52*
X0102657Y0409525D03*
D53*
X0131398Y0400549D03*
X0131398Y0418501D03*
D54*
X0151100Y0442138D03*
X0153659Y0442138D03*
X0156218Y0442138D03*
X0158777Y0442138D03*
X0161336Y0442138D03*
X0163895Y0442138D03*
X0166455Y0442138D03*
X0169014Y0442138D03*
X0171573Y0442138D03*
X0174132Y0442138D03*
X0176691Y0442138D03*
X0179250Y0442138D03*
X0179250Y0465112D03*
X0176691Y0465112D03*
X0174132Y0465112D03*
X0171573Y0465112D03*
X0169014Y0465112D03*
X0166455Y0465112D03*
X0163895Y0465112D03*
X0161336Y0465112D03*
X0158777Y0465112D03*
X0156218Y0465112D03*
X0153659Y0465112D03*
X0151100Y0465112D03*
D55*
X0199016Y0419313D03*
X0207284Y0419313D03*
X0207284Y0402187D03*
X0199016Y0402187D03*
D56*
X0201870Y0402187D03*
X0204430Y0402187D03*
X0204430Y0419313D03*
X0201870Y0419313D03*
D57*
X0019421Y0239774D02*
X0019423Y0239666D01*
X0019429Y0239558D01*
X0019439Y0239451D01*
X0019452Y0239344D01*
X0019470Y0239238D01*
X0019492Y0239132D01*
X0019517Y0239027D01*
X0019546Y0238923D01*
X0019579Y0238821D01*
X0019616Y0238719D01*
X0019656Y0238619D01*
X0019700Y0238521D01*
X0019748Y0238424D01*
X0019799Y0238329D01*
X0019853Y0238236D01*
X0019911Y0238145D01*
X0019972Y0238056D01*
X0020037Y0237969D01*
X0020104Y0237885D01*
X0020175Y0237803D01*
X0020248Y0237724D01*
X0020324Y0237648D01*
X0020403Y0237575D01*
X0020485Y0237504D01*
X0020569Y0237437D01*
X0020656Y0237372D01*
X0020745Y0237311D01*
X0020836Y0237253D01*
X0020929Y0237199D01*
X0021024Y0237148D01*
X0021121Y0237100D01*
X0021219Y0237056D01*
X0021319Y0237016D01*
X0021421Y0236979D01*
X0021523Y0236946D01*
X0021627Y0236917D01*
X0021732Y0236892D01*
X0021838Y0236870D01*
X0021944Y0236852D01*
X0022051Y0236839D01*
X0022158Y0236829D01*
X0022266Y0236823D01*
X0022374Y0236821D01*
X0022482Y0236823D01*
X0022590Y0236829D01*
X0022697Y0236839D01*
X0022804Y0236852D01*
X0022910Y0236870D01*
X0023016Y0236892D01*
X0023121Y0236917D01*
X0023225Y0236946D01*
X0023327Y0236979D01*
X0023429Y0237016D01*
X0023529Y0237056D01*
X0023627Y0237100D01*
X0023724Y0237148D01*
X0023819Y0237199D01*
X0023912Y0237253D01*
X0024003Y0237311D01*
X0024092Y0237372D01*
X0024179Y0237437D01*
X0024263Y0237504D01*
X0024345Y0237575D01*
X0024424Y0237648D01*
X0024500Y0237724D01*
X0024573Y0237803D01*
X0024644Y0237885D01*
X0024711Y0237969D01*
X0024776Y0238056D01*
X0024837Y0238145D01*
X0024895Y0238236D01*
X0024949Y0238329D01*
X0025000Y0238424D01*
X0025048Y0238521D01*
X0025092Y0238619D01*
X0025132Y0238719D01*
X0025169Y0238821D01*
X0025202Y0238923D01*
X0025231Y0239027D01*
X0025256Y0239132D01*
X0025278Y0239238D01*
X0025296Y0239344D01*
X0025309Y0239451D01*
X0025319Y0239558D01*
X0025325Y0239666D01*
X0025327Y0239774D01*
X0025325Y0239882D01*
X0025319Y0239990D01*
X0025309Y0240097D01*
X0025296Y0240204D01*
X0025278Y0240310D01*
X0025256Y0240416D01*
X0025231Y0240521D01*
X0025202Y0240625D01*
X0025169Y0240727D01*
X0025132Y0240829D01*
X0025092Y0240929D01*
X0025048Y0241027D01*
X0025000Y0241124D01*
X0024949Y0241219D01*
X0024895Y0241312D01*
X0024837Y0241403D01*
X0024776Y0241492D01*
X0024711Y0241579D01*
X0024644Y0241663D01*
X0024573Y0241745D01*
X0024500Y0241824D01*
X0024424Y0241900D01*
X0024345Y0241973D01*
X0024263Y0242044D01*
X0024179Y0242111D01*
X0024092Y0242176D01*
X0024003Y0242237D01*
X0023912Y0242295D01*
X0023819Y0242349D01*
X0023724Y0242400D01*
X0023627Y0242448D01*
X0023529Y0242492D01*
X0023429Y0242532D01*
X0023327Y0242569D01*
X0023225Y0242602D01*
X0023121Y0242631D01*
X0023016Y0242656D01*
X0022910Y0242678D01*
X0022804Y0242696D01*
X0022697Y0242709D01*
X0022590Y0242719D01*
X0022482Y0242725D01*
X0022374Y0242727D01*
X0022266Y0242725D01*
X0022158Y0242719D01*
X0022051Y0242709D01*
X0021944Y0242696D01*
X0021838Y0242678D01*
X0021732Y0242656D01*
X0021627Y0242631D01*
X0021523Y0242602D01*
X0021421Y0242569D01*
X0021319Y0242532D01*
X0021219Y0242492D01*
X0021121Y0242448D01*
X0021024Y0242400D01*
X0020929Y0242349D01*
X0020836Y0242295D01*
X0020745Y0242237D01*
X0020656Y0242176D01*
X0020569Y0242111D01*
X0020485Y0242044D01*
X0020403Y0241973D01*
X0020324Y0241900D01*
X0020248Y0241824D01*
X0020175Y0241745D01*
X0020104Y0241663D01*
X0020037Y0241579D01*
X0019972Y0241492D01*
X0019911Y0241403D01*
X0019853Y0241312D01*
X0019799Y0241219D01*
X0019748Y0241124D01*
X0019700Y0241027D01*
X0019656Y0240929D01*
X0019616Y0240829D01*
X0019579Y0240727D01*
X0019546Y0240625D01*
X0019517Y0240521D01*
X0019492Y0240416D01*
X0019470Y0240310D01*
X0019452Y0240204D01*
X0019439Y0240097D01*
X0019429Y0239990D01*
X0019423Y0239882D01*
X0019421Y0239774D01*
X0022374Y0614774D02*
X0022266Y0614776D01*
X0022158Y0614782D01*
X0022051Y0614792D01*
X0021944Y0614805D01*
X0021838Y0614823D01*
X0021732Y0614845D01*
X0021627Y0614870D01*
X0021523Y0614899D01*
X0021421Y0614932D01*
X0021319Y0614969D01*
X0021219Y0615009D01*
X0021121Y0615053D01*
X0021024Y0615101D01*
X0020929Y0615152D01*
X0020836Y0615206D01*
X0020745Y0615264D01*
X0020656Y0615325D01*
X0020569Y0615390D01*
X0020485Y0615457D01*
X0020403Y0615528D01*
X0020324Y0615601D01*
X0020248Y0615677D01*
X0020175Y0615756D01*
X0020104Y0615838D01*
X0020037Y0615922D01*
X0019972Y0616009D01*
X0019911Y0616098D01*
X0019853Y0616189D01*
X0019799Y0616282D01*
X0019748Y0616377D01*
X0019700Y0616474D01*
X0019656Y0616572D01*
X0019616Y0616672D01*
X0019579Y0616774D01*
X0019546Y0616876D01*
X0019517Y0616980D01*
X0019492Y0617085D01*
X0019470Y0617191D01*
X0019452Y0617297D01*
X0019439Y0617404D01*
X0019429Y0617511D01*
X0019423Y0617619D01*
X0019421Y0617727D01*
X0022374Y0614774D02*
X0022482Y0614776D01*
X0022590Y0614782D01*
X0022697Y0614792D01*
X0022804Y0614805D01*
X0022910Y0614823D01*
X0023016Y0614845D01*
X0023121Y0614870D01*
X0023225Y0614899D01*
X0023327Y0614932D01*
X0023429Y0614969D01*
X0023529Y0615009D01*
X0023627Y0615053D01*
X0023724Y0615101D01*
X0023819Y0615152D01*
X0023912Y0615206D01*
X0024003Y0615264D01*
X0024092Y0615325D01*
X0024179Y0615390D01*
X0024263Y0615457D01*
X0024345Y0615528D01*
X0024424Y0615601D01*
X0024500Y0615677D01*
X0024573Y0615756D01*
X0024644Y0615838D01*
X0024711Y0615922D01*
X0024776Y0616009D01*
X0024837Y0616098D01*
X0024895Y0616189D01*
X0024949Y0616282D01*
X0025000Y0616377D01*
X0025048Y0616474D01*
X0025092Y0616572D01*
X0025132Y0616672D01*
X0025169Y0616774D01*
X0025202Y0616876D01*
X0025231Y0616980D01*
X0025256Y0617085D01*
X0025278Y0617191D01*
X0025296Y0617297D01*
X0025309Y0617404D01*
X0025319Y0617511D01*
X0025325Y0617619D01*
X0025327Y0617727D01*
X0025325Y0617835D01*
X0025319Y0617943D01*
X0025309Y0618050D01*
X0025296Y0618157D01*
X0025278Y0618263D01*
X0025256Y0618369D01*
X0025231Y0618474D01*
X0025202Y0618578D01*
X0025169Y0618680D01*
X0025132Y0618782D01*
X0025092Y0618882D01*
X0025048Y0618980D01*
X0025000Y0619077D01*
X0024949Y0619172D01*
X0024895Y0619265D01*
X0024837Y0619356D01*
X0024776Y0619445D01*
X0024711Y0619532D01*
X0024644Y0619616D01*
X0024573Y0619698D01*
X0024500Y0619777D01*
X0024424Y0619853D01*
X0024345Y0619926D01*
X0024263Y0619997D01*
X0024179Y0620064D01*
X0024092Y0620129D01*
X0024003Y0620190D01*
X0023912Y0620248D01*
X0023819Y0620302D01*
X0023724Y0620353D01*
X0023627Y0620401D01*
X0023529Y0620445D01*
X0023429Y0620485D01*
X0023327Y0620522D01*
X0023225Y0620555D01*
X0023121Y0620584D01*
X0023016Y0620609D01*
X0022910Y0620631D01*
X0022804Y0620649D01*
X0022697Y0620662D01*
X0022590Y0620672D01*
X0022482Y0620678D01*
X0022374Y0620680D01*
X0022266Y0620678D01*
X0022158Y0620672D01*
X0022051Y0620662D01*
X0021944Y0620649D01*
X0021838Y0620631D01*
X0021732Y0620609D01*
X0021627Y0620584D01*
X0021523Y0620555D01*
X0021421Y0620522D01*
X0021319Y0620485D01*
X0021219Y0620445D01*
X0021121Y0620401D01*
X0021024Y0620353D01*
X0020929Y0620302D01*
X0020836Y0620248D01*
X0020745Y0620190D01*
X0020656Y0620129D01*
X0020569Y0620064D01*
X0020485Y0619997D01*
X0020403Y0619926D01*
X0020324Y0619853D01*
X0020248Y0619777D01*
X0020175Y0619698D01*
X0020104Y0619616D01*
X0020037Y0619532D01*
X0019972Y0619445D01*
X0019911Y0619356D01*
X0019853Y0619265D01*
X0019799Y0619172D01*
X0019748Y0619077D01*
X0019700Y0618980D01*
X0019656Y0618882D01*
X0019616Y0618782D01*
X0019579Y0618680D01*
X0019546Y0618578D01*
X0019517Y0618474D01*
X0019492Y0618369D01*
X0019470Y0618263D01*
X0019452Y0618157D01*
X0019439Y0618050D01*
X0019429Y0617943D01*
X0019423Y0617835D01*
X0019421Y0617727D01*
X0397374Y0617727D02*
X0397376Y0617619D01*
X0397382Y0617511D01*
X0397392Y0617404D01*
X0397405Y0617297D01*
X0397423Y0617191D01*
X0397445Y0617085D01*
X0397470Y0616980D01*
X0397499Y0616876D01*
X0397532Y0616774D01*
X0397569Y0616672D01*
X0397609Y0616572D01*
X0397653Y0616474D01*
X0397701Y0616377D01*
X0397752Y0616282D01*
X0397806Y0616189D01*
X0397864Y0616098D01*
X0397925Y0616009D01*
X0397990Y0615922D01*
X0398057Y0615838D01*
X0398128Y0615756D01*
X0398201Y0615677D01*
X0398277Y0615601D01*
X0398356Y0615528D01*
X0398438Y0615457D01*
X0398522Y0615390D01*
X0398609Y0615325D01*
X0398698Y0615264D01*
X0398789Y0615206D01*
X0398882Y0615152D01*
X0398977Y0615101D01*
X0399074Y0615053D01*
X0399172Y0615009D01*
X0399272Y0614969D01*
X0399374Y0614932D01*
X0399476Y0614899D01*
X0399580Y0614870D01*
X0399685Y0614845D01*
X0399791Y0614823D01*
X0399897Y0614805D01*
X0400004Y0614792D01*
X0400111Y0614782D01*
X0400219Y0614776D01*
X0400327Y0614774D01*
X0400435Y0614776D01*
X0400543Y0614782D01*
X0400650Y0614792D01*
X0400757Y0614805D01*
X0400863Y0614823D01*
X0400969Y0614845D01*
X0401074Y0614870D01*
X0401178Y0614899D01*
X0401280Y0614932D01*
X0401382Y0614969D01*
X0401482Y0615009D01*
X0401580Y0615053D01*
X0401677Y0615101D01*
X0401772Y0615152D01*
X0401865Y0615206D01*
X0401956Y0615264D01*
X0402045Y0615325D01*
X0402132Y0615390D01*
X0402216Y0615457D01*
X0402298Y0615528D01*
X0402377Y0615601D01*
X0402453Y0615677D01*
X0402526Y0615756D01*
X0402597Y0615838D01*
X0402664Y0615922D01*
X0402729Y0616009D01*
X0402790Y0616098D01*
X0402848Y0616189D01*
X0402902Y0616282D01*
X0402953Y0616377D01*
X0403001Y0616474D01*
X0403045Y0616572D01*
X0403085Y0616672D01*
X0403122Y0616774D01*
X0403155Y0616876D01*
X0403184Y0616980D01*
X0403209Y0617085D01*
X0403231Y0617191D01*
X0403249Y0617297D01*
X0403262Y0617404D01*
X0403272Y0617511D01*
X0403278Y0617619D01*
X0403280Y0617727D01*
X0403278Y0617835D01*
X0403272Y0617943D01*
X0403262Y0618050D01*
X0403249Y0618157D01*
X0403231Y0618263D01*
X0403209Y0618369D01*
X0403184Y0618474D01*
X0403155Y0618578D01*
X0403122Y0618680D01*
X0403085Y0618782D01*
X0403045Y0618882D01*
X0403001Y0618980D01*
X0402953Y0619077D01*
X0402902Y0619172D01*
X0402848Y0619265D01*
X0402790Y0619356D01*
X0402729Y0619445D01*
X0402664Y0619532D01*
X0402597Y0619616D01*
X0402526Y0619698D01*
X0402453Y0619777D01*
X0402377Y0619853D01*
X0402298Y0619926D01*
X0402216Y0619997D01*
X0402132Y0620064D01*
X0402045Y0620129D01*
X0401956Y0620190D01*
X0401865Y0620248D01*
X0401772Y0620302D01*
X0401677Y0620353D01*
X0401580Y0620401D01*
X0401482Y0620445D01*
X0401382Y0620485D01*
X0401280Y0620522D01*
X0401178Y0620555D01*
X0401074Y0620584D01*
X0400969Y0620609D01*
X0400863Y0620631D01*
X0400757Y0620649D01*
X0400650Y0620662D01*
X0400543Y0620672D01*
X0400435Y0620678D01*
X0400327Y0620680D01*
X0400219Y0620678D01*
X0400111Y0620672D01*
X0400004Y0620662D01*
X0399897Y0620649D01*
X0399791Y0620631D01*
X0399685Y0620609D01*
X0399580Y0620584D01*
X0399476Y0620555D01*
X0399374Y0620522D01*
X0399272Y0620485D01*
X0399172Y0620445D01*
X0399074Y0620401D01*
X0398977Y0620353D01*
X0398882Y0620302D01*
X0398789Y0620248D01*
X0398698Y0620190D01*
X0398609Y0620129D01*
X0398522Y0620064D01*
X0398438Y0619997D01*
X0398356Y0619926D01*
X0398277Y0619853D01*
X0398201Y0619777D01*
X0398128Y0619698D01*
X0398057Y0619616D01*
X0397990Y0619532D01*
X0397925Y0619445D01*
X0397864Y0619356D01*
X0397806Y0619265D01*
X0397752Y0619172D01*
X0397701Y0619077D01*
X0397653Y0618980D01*
X0397609Y0618882D01*
X0397569Y0618782D01*
X0397532Y0618680D01*
X0397499Y0618578D01*
X0397470Y0618474D01*
X0397445Y0618369D01*
X0397423Y0618263D01*
X0397405Y0618157D01*
X0397392Y0618050D01*
X0397382Y0617943D01*
X0397376Y0617835D01*
X0397374Y0617727D01*
D58*
X0359146Y0591231D03*
X0359146Y0540050D03*
X0290248Y0540050D03*
X0290248Y0591231D03*
X0221350Y0591231D03*
X0221350Y0540050D03*
X0152453Y0540050D03*
X0152453Y0591231D03*
X0083555Y0591231D03*
X0083555Y0540050D03*
D59*
X0044507Y0438156D03*
X0044507Y0426344D03*
D60*
X0044901Y0432250D03*
D61*
X0047200Y0432302D02*
X0029200Y0432302D01*
X0029200Y0432800D02*
X0047200Y0432800D01*
X0047200Y0433299D02*
X0029200Y0433299D01*
X0029200Y0433797D02*
X0042661Y0433797D01*
X0042700Y0433750D02*
X0047200Y0433750D01*
X0047200Y0430750D01*
X0042700Y0430750D01*
X0040200Y0427750D01*
X0029200Y0427750D01*
X0029200Y0436750D01*
X0040200Y0436750D01*
X0042700Y0433750D01*
X0042245Y0434296D02*
X0029200Y0434296D01*
X0029200Y0434794D02*
X0041830Y0434794D01*
X0041414Y0435293D02*
X0029200Y0435293D01*
X0029200Y0435791D02*
X0040999Y0435791D01*
X0040584Y0436290D02*
X0029200Y0436290D01*
X0029200Y0431803D02*
X0047200Y0431803D01*
X0047200Y0431305D02*
X0029200Y0431305D01*
X0029200Y0430806D02*
X0047200Y0430806D01*
X0042331Y0430308D02*
X0029200Y0430308D01*
X0029200Y0429809D02*
X0041916Y0429809D01*
X0041500Y0429310D02*
X0029200Y0429310D01*
X0029200Y0428812D02*
X0041085Y0428812D01*
X0040670Y0428313D02*
X0029200Y0428313D01*
X0029200Y0427815D02*
X0040254Y0427815D01*
D62*
X0384188Y0551625D03*
X0392062Y0547885D03*
X0392062Y0555365D03*
X0392062Y0571160D03*
X0392062Y0578640D03*
X0384188Y0574900D03*
D63*
X0052625Y0476548D03*
X0047625Y0476548D03*
X0042625Y0476548D03*
X0037625Y0476548D03*
X0037625Y0455202D03*
X0042625Y0455202D03*
X0047625Y0455202D03*
X0052625Y0455202D03*
D64*
X0044339Y0328543D02*
X0044339Y0321457D01*
X0052607Y0306496D02*
X0059693Y0306496D01*
X0067961Y0321457D02*
X0067961Y0328543D01*
D65*
X0062275Y0336025D03*
X0062275Y0342150D03*
X0069625Y0350725D03*
X0053700Y0338475D03*
X0047575Y0349725D03*
X0040225Y0338475D03*
X0041450Y0358300D03*
X0041450Y0364425D03*
X0047575Y0364200D03*
X0047575Y0358300D03*
X0047575Y0371550D03*
X0041450Y0382575D03*
X0041450Y0394825D03*
X0046350Y0403400D03*
X0046350Y0415650D03*
X0065950Y0421725D03*
X0080650Y0382575D03*
X0076975Y0370325D03*
X0065950Y0372775D03*
X0100250Y0309075D03*
X0110050Y0303175D03*
X0110050Y0296300D03*
X0109425Y0282550D03*
X0105050Y0278800D03*
X0100050Y0282550D03*
X0093800Y0282550D03*
X0085550Y0291925D03*
X0080650Y0290700D03*
X0091675Y0300500D03*
X0112500Y0312750D03*
X0123525Y0288250D03*
X0125975Y0271100D03*
X0133325Y0301725D03*
X0135775Y0317650D03*
X0125975Y0348275D03*
X0132100Y0355625D03*
X0129650Y0407075D03*
X0187225Y0307850D03*
X0180425Y0302750D03*
X0180425Y0296625D03*
X0181800Y0284275D03*
X0177375Y0280350D03*
X0171050Y0272525D03*
X0169550Y0284275D03*
X0163425Y0284275D03*
X0165175Y0252725D03*
X0193595Y0272693D03*
X0192125Y0290700D03*
X0206825Y0299275D03*
X0204375Y0307850D03*
X0198250Y0307850D03*
X0192125Y0307850D03*
X0215400Y0322550D03*
X0220300Y0318875D03*
X0223975Y0342150D03*
X0239900Y0329900D03*
X0242350Y0360525D03*
X0279100Y0333575D03*
X0286450Y0345825D03*
X0299925Y0338475D03*
X0304825Y0345825D03*
X0301150Y0327450D03*
X0324425Y0327450D03*
X0334225Y0315200D03*
X0345250Y0318875D03*
X0350150Y0323775D03*
X0363625Y0326225D03*
X0362400Y0332350D03*
X0378325Y0313975D03*
X0384450Y0329900D03*
X0390575Y0328675D03*
X0389350Y0316425D03*
X0375875Y0298050D03*
X0365625Y0291900D03*
X0358725Y0293150D03*
X0358725Y0279675D03*
X0355050Y0260075D03*
X0337900Y0260075D03*
X0335450Y0276000D03*
X0337000Y0283150D03*
X0325650Y0295600D03*
X0365625Y0306775D03*
X0394250Y0288250D03*
X0397925Y0354400D03*
X0397925Y0362975D03*
X0377100Y0364200D03*
X0370975Y0361750D03*
X0378325Y0399725D03*
X0388125Y0400950D03*
X0394250Y0421775D03*
X0341575Y0372775D03*
X0337900Y0378900D03*
X0329325Y0388700D03*
X0307275Y0398500D03*
X0307275Y0407075D03*
X0309725Y0421775D03*
X0309725Y0426675D03*
X0309725Y0448725D03*
X0276650Y0416875D03*
X0236225Y0295600D03*
X0249700Y0294375D03*
X0258275Y0294375D03*
X0281550Y0290700D03*
X0215000Y0284575D03*
X0215400Y0266200D03*
X0099883Y0271225D03*
X0094125Y0252725D03*
X0040225Y0305400D03*
X0018175Y0402175D03*
X0018175Y0415650D03*
D66*
X0036550Y0236800D03*
X0021850Y0264975D03*
X0021850Y0277225D03*
X0021850Y0289475D03*
X0111275Y0366650D03*
X0111275Y0376450D03*
X0118625Y0376450D03*
X0128425Y0380125D03*
X0135775Y0386250D03*
X0135775Y0393600D03*
X0146800Y0413200D03*
X0146800Y0425450D03*
X0159050Y0425450D03*
X0159050Y0418100D03*
X0159050Y0407075D03*
X0159050Y0396050D03*
X0159050Y0387475D03*
X0171300Y0394825D03*
X0177425Y0399725D03*
X0177425Y0389925D03*
X0183550Y0394825D03*
X0195800Y0386250D03*
X0197025Y0396050D03*
X0211725Y0419325D03*
X0206825Y0434025D03*
X0187225Y0443825D03*
X0176200Y0449950D03*
X0168850Y0448725D03*
X0164685Y0460240D03*
X0154150Y0473225D03*
X0146800Y0472000D03*
X0145575Y0465875D03*
X0165175Y0480575D03*
X0165175Y0490375D03*
X0182325Y0490375D03*
X0195800Y0495275D03*
X0194575Y0480575D03*
X0183550Y0472000D03*
X0168850Y0436475D03*
X0176200Y0431575D03*
X0172525Y0424225D03*
X0172525Y0419325D03*
X0182325Y0419325D03*
X0182325Y0424225D03*
X0172525Y0376450D03*
X0171300Y0362975D03*
X0184775Y0361750D03*
X0189675Y0366650D03*
X0195800Y0372775D03*
X0210500Y0361750D03*
X0215400Y0367875D03*
X0223975Y0360525D03*
X0215400Y0342150D03*
X0199475Y0325000D03*
X0183550Y0337250D03*
X0181100Y0342150D03*
X0155375Y0306625D03*
X0146800Y0306625D03*
X0114950Y0252725D03*
X0114950Y0246600D03*
X0138225Y0246600D03*
X0145575Y0246600D03*
X0222750Y0242925D03*
X0226425Y0282125D03*
X0244800Y0285800D03*
X0266000Y0293525D03*
X0266850Y0318875D03*
X0277875Y0318875D03*
X0247250Y0365425D03*
X0239900Y0389925D03*
X0239900Y0402175D03*
X0239900Y0408300D03*
X0238675Y0429125D03*
X0237450Y0457300D03*
X0227650Y0479350D03*
X0220300Y0483025D03*
X0214175Y0474450D03*
X0219075Y0495275D03*
X0217850Y0513650D03*
X0233775Y0514875D03*
X0250925Y0514875D03*
X0254600Y0490375D03*
X0247250Y0479350D03*
X0237450Y0486700D03*
X0266850Y0476900D03*
X0272975Y0480575D03*
X0277875Y0470775D03*
X0284000Y0478125D03*
X0293800Y0481800D03*
X0290125Y0495275D03*
X0293800Y0513650D03*
X0307275Y0523450D03*
X0328100Y0495275D03*
X0317075Y0481800D03*
X0339125Y0481800D03*
X0340350Y0513650D03*
X0355050Y0513650D03*
X0362400Y0513650D03*
X0370975Y0519775D03*
X0374650Y0498950D03*
X0373425Y0483025D03*
X0362400Y0480575D03*
X0362400Y0487925D03*
X0373425Y0469550D03*
X0383225Y0463425D03*
X0385675Y0449950D03*
X0390575Y0445050D03*
X0396700Y0442600D03*
X0397925Y0448725D03*
X0402825Y0436475D03*
X0396700Y0413200D03*
X0356275Y0415650D03*
X0350150Y0415650D03*
X0342800Y0421775D03*
X0340350Y0416875D03*
X0348925Y0436475D03*
X0341575Y0442600D03*
X0315850Y0429125D03*
X0302375Y0415650D03*
X0297475Y0415650D03*
X0292575Y0415650D03*
X0287675Y0415650D03*
X0282775Y0415650D03*
X0269300Y0396050D03*
X0284000Y0377675D03*
X0295025Y0388700D03*
X0263175Y0426675D03*
X0275425Y0458525D03*
X0292575Y0458525D03*
X0270525Y0495275D03*
X0257050Y0581025D03*
X0246025Y0587150D03*
X0246025Y0599400D03*
X0237450Y0601850D03*
X0232550Y0607975D03*
X0221525Y0607975D03*
X0221525Y0601850D03*
X0210500Y0607975D03*
X0200700Y0612875D03*
X0189675Y0581025D03*
X0177425Y0587150D03*
X0177425Y0599400D03*
X0170075Y0601850D03*
X0165175Y0607975D03*
X0152925Y0607975D03*
X0152925Y0601850D03*
X0141900Y0607975D03*
X0132100Y0612875D03*
X0121075Y0581025D03*
X0107600Y0587150D03*
X0107600Y0598175D03*
X0099025Y0601850D03*
X0094125Y0607975D03*
X0084325Y0601850D03*
X0070850Y0612875D03*
X0068400Y0600625D03*
X0052475Y0581025D03*
X0042675Y0577350D03*
X0032875Y0563875D03*
X0018175Y0578575D03*
X0048800Y0544275D03*
X0063500Y0551625D03*
X0080650Y0513650D03*
X0070850Y0492825D03*
X0085550Y0484617D03*
X0086775Y0470775D03*
X0078200Y0472000D03*
X0073300Y0474450D03*
X0063500Y0464650D03*
X0058600Y0460975D03*
X0072075Y0448725D03*
X0075750Y0456075D03*
X0063500Y0438925D03*
X0051617Y0432310D03*
X0052475Y0421775D03*
X0040225Y0448725D03*
X0030425Y0463425D03*
X0030425Y0470775D03*
X0036550Y0483025D03*
X0052475Y0492825D03*
X0097800Y0513650D03*
X0110662Y0513773D03*
X0122300Y0513650D03*
X0134550Y0492825D03*
X0141900Y0492825D03*
X0139450Y0512425D03*
X0162725Y0516100D03*
X0181100Y0514875D03*
X0145575Y0570000D03*
X0133325Y0555300D03*
X0107600Y0472000D03*
X0110050Y0465875D03*
X0117400Y0465875D03*
X0030425Y0425450D03*
X0024300Y0424225D03*
X0024300Y0430350D03*
X0018175Y0430350D03*
X0018175Y0424225D03*
X0059825Y0621450D03*
X0269300Y0612875D03*
X0280325Y0607975D03*
X0291350Y0607975D03*
X0290125Y0601850D03*
X0302375Y0607975D03*
X0307275Y0601850D03*
X0313400Y0587150D03*
X0323200Y0581025D03*
X0339125Y0552850D03*
X0359950Y0601850D03*
X0348925Y0607975D03*
X0339125Y0612875D03*
X0377100Y0607975D03*
X0377100Y0587150D03*
X0396700Y0563875D03*
X0379550Y0543050D03*
X0404050Y0490375D03*
X0347700Y0392375D03*
X0345250Y0344600D03*
X0314625Y0343375D03*
X0342000Y0281900D03*
X0349500Y0279400D03*
X0299925Y0242925D03*
X0269300Y0250275D03*
X0261950Y0247825D03*
M02*
