G04 EAGLE Gerber RS-274X export*
G75*
%MOMM*%
%FSLAX34Y34*%
%LPD*%
%INBoard ouline*%
%IPPOS*%
%AMOC8*
5,1,8,0,0,1.08239X$1,22.5*%
G01*
%ADD10C,0.000000*%


D10*
X230000Y450000D02*
X1350000Y450000D01*
X1350000Y1280000D01*
X230000Y1280000D01*
X230000Y450000D01*
X274500Y510000D02*
X274505Y510380D01*
X274519Y510761D01*
X274542Y511140D01*
X274575Y511519D01*
X274617Y511897D01*
X274668Y512274D01*
X274728Y512650D01*
X274798Y513024D01*
X274877Y513396D01*
X274965Y513766D01*
X275061Y514134D01*
X275167Y514499D01*
X275282Y514862D01*
X275406Y515222D01*
X275539Y515578D01*
X275680Y515932D01*
X275830Y516281D01*
X275988Y516627D01*
X276155Y516969D01*
X276330Y517307D01*
X276514Y517640D01*
X276705Y517969D01*
X276905Y518292D01*
X277112Y518611D01*
X277327Y518925D01*
X277550Y519233D01*
X277781Y519536D01*
X278018Y519833D01*
X278263Y520124D01*
X278515Y520409D01*
X278774Y520688D01*
X279040Y520960D01*
X279312Y521226D01*
X279591Y521485D01*
X279876Y521737D01*
X280167Y521982D01*
X280464Y522219D01*
X280767Y522450D01*
X281075Y522673D01*
X281389Y522888D01*
X281708Y523095D01*
X282031Y523295D01*
X282360Y523486D01*
X282693Y523670D01*
X283031Y523845D01*
X283373Y524012D01*
X283719Y524170D01*
X284068Y524320D01*
X284422Y524461D01*
X284778Y524594D01*
X285138Y524718D01*
X285501Y524833D01*
X285866Y524939D01*
X286234Y525035D01*
X286604Y525123D01*
X286976Y525202D01*
X287350Y525272D01*
X287726Y525332D01*
X288103Y525383D01*
X288481Y525425D01*
X288860Y525458D01*
X289239Y525481D01*
X289620Y525495D01*
X290000Y525500D01*
X290380Y525495D01*
X290761Y525481D01*
X291140Y525458D01*
X291519Y525425D01*
X291897Y525383D01*
X292274Y525332D01*
X292650Y525272D01*
X293024Y525202D01*
X293396Y525123D01*
X293766Y525035D01*
X294134Y524939D01*
X294499Y524833D01*
X294862Y524718D01*
X295222Y524594D01*
X295578Y524461D01*
X295932Y524320D01*
X296281Y524170D01*
X296627Y524012D01*
X296969Y523845D01*
X297307Y523670D01*
X297640Y523486D01*
X297969Y523295D01*
X298292Y523095D01*
X298611Y522888D01*
X298925Y522673D01*
X299233Y522450D01*
X299536Y522219D01*
X299833Y521982D01*
X300124Y521737D01*
X300409Y521485D01*
X300688Y521226D01*
X300960Y520960D01*
X301226Y520688D01*
X301485Y520409D01*
X301737Y520124D01*
X301982Y519833D01*
X302219Y519536D01*
X302450Y519233D01*
X302673Y518925D01*
X302888Y518611D01*
X303095Y518292D01*
X303295Y517969D01*
X303486Y517640D01*
X303670Y517307D01*
X303845Y516969D01*
X304012Y516627D01*
X304170Y516281D01*
X304320Y515932D01*
X304461Y515578D01*
X304594Y515222D01*
X304718Y514862D01*
X304833Y514499D01*
X304939Y514134D01*
X305035Y513766D01*
X305123Y513396D01*
X305202Y513024D01*
X305272Y512650D01*
X305332Y512274D01*
X305383Y511897D01*
X305425Y511519D01*
X305458Y511140D01*
X305481Y510761D01*
X305495Y510380D01*
X305500Y510000D01*
X305495Y509620D01*
X305481Y509239D01*
X305458Y508860D01*
X305425Y508481D01*
X305383Y508103D01*
X305332Y507726D01*
X305272Y507350D01*
X305202Y506976D01*
X305123Y506604D01*
X305035Y506234D01*
X304939Y505866D01*
X304833Y505501D01*
X304718Y505138D01*
X304594Y504778D01*
X304461Y504422D01*
X304320Y504068D01*
X304170Y503719D01*
X304012Y503373D01*
X303845Y503031D01*
X303670Y502693D01*
X303486Y502360D01*
X303295Y502031D01*
X303095Y501708D01*
X302888Y501389D01*
X302673Y501075D01*
X302450Y500767D01*
X302219Y500464D01*
X301982Y500167D01*
X301737Y499876D01*
X301485Y499591D01*
X301226Y499312D01*
X300960Y499040D01*
X300688Y498774D01*
X300409Y498515D01*
X300124Y498263D01*
X299833Y498018D01*
X299536Y497781D01*
X299233Y497550D01*
X298925Y497327D01*
X298611Y497112D01*
X298292Y496905D01*
X297969Y496705D01*
X297640Y496514D01*
X297307Y496330D01*
X296969Y496155D01*
X296627Y495988D01*
X296281Y495830D01*
X295932Y495680D01*
X295578Y495539D01*
X295222Y495406D01*
X294862Y495282D01*
X294499Y495167D01*
X294134Y495061D01*
X293766Y494965D01*
X293396Y494877D01*
X293024Y494798D01*
X292650Y494728D01*
X292274Y494668D01*
X291897Y494617D01*
X291519Y494575D01*
X291140Y494542D01*
X290761Y494519D01*
X290380Y494505D01*
X290000Y494500D01*
X289620Y494505D01*
X289239Y494519D01*
X288860Y494542D01*
X288481Y494575D01*
X288103Y494617D01*
X287726Y494668D01*
X287350Y494728D01*
X286976Y494798D01*
X286604Y494877D01*
X286234Y494965D01*
X285866Y495061D01*
X285501Y495167D01*
X285138Y495282D01*
X284778Y495406D01*
X284422Y495539D01*
X284068Y495680D01*
X283719Y495830D01*
X283373Y495988D01*
X283031Y496155D01*
X282693Y496330D01*
X282360Y496514D01*
X282031Y496705D01*
X281708Y496905D01*
X281389Y497112D01*
X281075Y497327D01*
X280767Y497550D01*
X280464Y497781D01*
X280167Y498018D01*
X279876Y498263D01*
X279591Y498515D01*
X279312Y498774D01*
X279040Y499040D01*
X278774Y499312D01*
X278515Y499591D01*
X278263Y499876D01*
X278018Y500167D01*
X277781Y500464D01*
X277550Y500767D01*
X277327Y501075D01*
X277112Y501389D01*
X276905Y501708D01*
X276705Y502031D01*
X276514Y502360D01*
X276330Y502693D01*
X276155Y503031D01*
X275988Y503373D01*
X275830Y503719D01*
X275680Y504068D01*
X275539Y504422D01*
X275406Y504778D01*
X275282Y505138D01*
X275167Y505501D01*
X275061Y505866D01*
X274965Y506234D01*
X274877Y506604D01*
X274798Y506976D01*
X274728Y507350D01*
X274668Y507726D01*
X274617Y508103D01*
X274575Y508481D01*
X274542Y508860D01*
X274519Y509239D01*
X274505Y509620D01*
X274500Y510000D01*
X264500Y1230000D02*
X264505Y1230380D01*
X264519Y1230761D01*
X264542Y1231140D01*
X264575Y1231519D01*
X264617Y1231897D01*
X264668Y1232274D01*
X264728Y1232650D01*
X264798Y1233024D01*
X264877Y1233396D01*
X264965Y1233766D01*
X265061Y1234134D01*
X265167Y1234499D01*
X265282Y1234862D01*
X265406Y1235222D01*
X265539Y1235578D01*
X265680Y1235932D01*
X265830Y1236281D01*
X265988Y1236627D01*
X266155Y1236969D01*
X266330Y1237307D01*
X266514Y1237640D01*
X266705Y1237969D01*
X266905Y1238292D01*
X267112Y1238611D01*
X267327Y1238925D01*
X267550Y1239233D01*
X267781Y1239536D01*
X268018Y1239833D01*
X268263Y1240124D01*
X268515Y1240409D01*
X268774Y1240688D01*
X269040Y1240960D01*
X269312Y1241226D01*
X269591Y1241485D01*
X269876Y1241737D01*
X270167Y1241982D01*
X270464Y1242219D01*
X270767Y1242450D01*
X271075Y1242673D01*
X271389Y1242888D01*
X271708Y1243095D01*
X272031Y1243295D01*
X272360Y1243486D01*
X272693Y1243670D01*
X273031Y1243845D01*
X273373Y1244012D01*
X273719Y1244170D01*
X274068Y1244320D01*
X274422Y1244461D01*
X274778Y1244594D01*
X275138Y1244718D01*
X275501Y1244833D01*
X275866Y1244939D01*
X276234Y1245035D01*
X276604Y1245123D01*
X276976Y1245202D01*
X277350Y1245272D01*
X277726Y1245332D01*
X278103Y1245383D01*
X278481Y1245425D01*
X278860Y1245458D01*
X279239Y1245481D01*
X279620Y1245495D01*
X280000Y1245500D01*
X280380Y1245495D01*
X280761Y1245481D01*
X281140Y1245458D01*
X281519Y1245425D01*
X281897Y1245383D01*
X282274Y1245332D01*
X282650Y1245272D01*
X283024Y1245202D01*
X283396Y1245123D01*
X283766Y1245035D01*
X284134Y1244939D01*
X284499Y1244833D01*
X284862Y1244718D01*
X285222Y1244594D01*
X285578Y1244461D01*
X285932Y1244320D01*
X286281Y1244170D01*
X286627Y1244012D01*
X286969Y1243845D01*
X287307Y1243670D01*
X287640Y1243486D01*
X287969Y1243295D01*
X288292Y1243095D01*
X288611Y1242888D01*
X288925Y1242673D01*
X289233Y1242450D01*
X289536Y1242219D01*
X289833Y1241982D01*
X290124Y1241737D01*
X290409Y1241485D01*
X290688Y1241226D01*
X290960Y1240960D01*
X291226Y1240688D01*
X291485Y1240409D01*
X291737Y1240124D01*
X291982Y1239833D01*
X292219Y1239536D01*
X292450Y1239233D01*
X292673Y1238925D01*
X292888Y1238611D01*
X293095Y1238292D01*
X293295Y1237969D01*
X293486Y1237640D01*
X293670Y1237307D01*
X293845Y1236969D01*
X294012Y1236627D01*
X294170Y1236281D01*
X294320Y1235932D01*
X294461Y1235578D01*
X294594Y1235222D01*
X294718Y1234862D01*
X294833Y1234499D01*
X294939Y1234134D01*
X295035Y1233766D01*
X295123Y1233396D01*
X295202Y1233024D01*
X295272Y1232650D01*
X295332Y1232274D01*
X295383Y1231897D01*
X295425Y1231519D01*
X295458Y1231140D01*
X295481Y1230761D01*
X295495Y1230380D01*
X295500Y1230000D01*
X295495Y1229620D01*
X295481Y1229239D01*
X295458Y1228860D01*
X295425Y1228481D01*
X295383Y1228103D01*
X295332Y1227726D01*
X295272Y1227350D01*
X295202Y1226976D01*
X295123Y1226604D01*
X295035Y1226234D01*
X294939Y1225866D01*
X294833Y1225501D01*
X294718Y1225138D01*
X294594Y1224778D01*
X294461Y1224422D01*
X294320Y1224068D01*
X294170Y1223719D01*
X294012Y1223373D01*
X293845Y1223031D01*
X293670Y1222693D01*
X293486Y1222360D01*
X293295Y1222031D01*
X293095Y1221708D01*
X292888Y1221389D01*
X292673Y1221075D01*
X292450Y1220767D01*
X292219Y1220464D01*
X291982Y1220167D01*
X291737Y1219876D01*
X291485Y1219591D01*
X291226Y1219312D01*
X290960Y1219040D01*
X290688Y1218774D01*
X290409Y1218515D01*
X290124Y1218263D01*
X289833Y1218018D01*
X289536Y1217781D01*
X289233Y1217550D01*
X288925Y1217327D01*
X288611Y1217112D01*
X288292Y1216905D01*
X287969Y1216705D01*
X287640Y1216514D01*
X287307Y1216330D01*
X286969Y1216155D01*
X286627Y1215988D01*
X286281Y1215830D01*
X285932Y1215680D01*
X285578Y1215539D01*
X285222Y1215406D01*
X284862Y1215282D01*
X284499Y1215167D01*
X284134Y1215061D01*
X283766Y1214965D01*
X283396Y1214877D01*
X283024Y1214798D01*
X282650Y1214728D01*
X282274Y1214668D01*
X281897Y1214617D01*
X281519Y1214575D01*
X281140Y1214542D01*
X280761Y1214519D01*
X280380Y1214505D01*
X280000Y1214500D01*
X279620Y1214505D01*
X279239Y1214519D01*
X278860Y1214542D01*
X278481Y1214575D01*
X278103Y1214617D01*
X277726Y1214668D01*
X277350Y1214728D01*
X276976Y1214798D01*
X276604Y1214877D01*
X276234Y1214965D01*
X275866Y1215061D01*
X275501Y1215167D01*
X275138Y1215282D01*
X274778Y1215406D01*
X274422Y1215539D01*
X274068Y1215680D01*
X273719Y1215830D01*
X273373Y1215988D01*
X273031Y1216155D01*
X272693Y1216330D01*
X272360Y1216514D01*
X272031Y1216705D01*
X271708Y1216905D01*
X271389Y1217112D01*
X271075Y1217327D01*
X270767Y1217550D01*
X270464Y1217781D01*
X270167Y1218018D01*
X269876Y1218263D01*
X269591Y1218515D01*
X269312Y1218774D01*
X269040Y1219040D01*
X268774Y1219312D01*
X268515Y1219591D01*
X268263Y1219876D01*
X268018Y1220167D01*
X267781Y1220464D01*
X267550Y1220767D01*
X267327Y1221075D01*
X267112Y1221389D01*
X266905Y1221708D01*
X266705Y1222031D01*
X266514Y1222360D01*
X266330Y1222693D01*
X266155Y1223031D01*
X265988Y1223373D01*
X265830Y1223719D01*
X265680Y1224068D01*
X265539Y1224422D01*
X265406Y1224778D01*
X265282Y1225138D01*
X265167Y1225501D01*
X265061Y1225866D01*
X264965Y1226234D01*
X264877Y1226604D01*
X264798Y1226976D01*
X264728Y1227350D01*
X264668Y1227726D01*
X264617Y1228103D01*
X264575Y1228481D01*
X264542Y1228860D01*
X264519Y1229239D01*
X264505Y1229620D01*
X264500Y1230000D01*
X1284500Y1230000D02*
X1284505Y1230380D01*
X1284519Y1230761D01*
X1284542Y1231140D01*
X1284575Y1231519D01*
X1284617Y1231897D01*
X1284668Y1232274D01*
X1284728Y1232650D01*
X1284798Y1233024D01*
X1284877Y1233396D01*
X1284965Y1233766D01*
X1285061Y1234134D01*
X1285167Y1234499D01*
X1285282Y1234862D01*
X1285406Y1235222D01*
X1285539Y1235578D01*
X1285680Y1235932D01*
X1285830Y1236281D01*
X1285988Y1236627D01*
X1286155Y1236969D01*
X1286330Y1237307D01*
X1286514Y1237640D01*
X1286705Y1237969D01*
X1286905Y1238292D01*
X1287112Y1238611D01*
X1287327Y1238925D01*
X1287550Y1239233D01*
X1287781Y1239536D01*
X1288018Y1239833D01*
X1288263Y1240124D01*
X1288515Y1240409D01*
X1288774Y1240688D01*
X1289040Y1240960D01*
X1289312Y1241226D01*
X1289591Y1241485D01*
X1289876Y1241737D01*
X1290167Y1241982D01*
X1290464Y1242219D01*
X1290767Y1242450D01*
X1291075Y1242673D01*
X1291389Y1242888D01*
X1291708Y1243095D01*
X1292031Y1243295D01*
X1292360Y1243486D01*
X1292693Y1243670D01*
X1293031Y1243845D01*
X1293373Y1244012D01*
X1293719Y1244170D01*
X1294068Y1244320D01*
X1294422Y1244461D01*
X1294778Y1244594D01*
X1295138Y1244718D01*
X1295501Y1244833D01*
X1295866Y1244939D01*
X1296234Y1245035D01*
X1296604Y1245123D01*
X1296976Y1245202D01*
X1297350Y1245272D01*
X1297726Y1245332D01*
X1298103Y1245383D01*
X1298481Y1245425D01*
X1298860Y1245458D01*
X1299239Y1245481D01*
X1299620Y1245495D01*
X1300000Y1245500D01*
X1300380Y1245495D01*
X1300761Y1245481D01*
X1301140Y1245458D01*
X1301519Y1245425D01*
X1301897Y1245383D01*
X1302274Y1245332D01*
X1302650Y1245272D01*
X1303024Y1245202D01*
X1303396Y1245123D01*
X1303766Y1245035D01*
X1304134Y1244939D01*
X1304499Y1244833D01*
X1304862Y1244718D01*
X1305222Y1244594D01*
X1305578Y1244461D01*
X1305932Y1244320D01*
X1306281Y1244170D01*
X1306627Y1244012D01*
X1306969Y1243845D01*
X1307307Y1243670D01*
X1307640Y1243486D01*
X1307969Y1243295D01*
X1308292Y1243095D01*
X1308611Y1242888D01*
X1308925Y1242673D01*
X1309233Y1242450D01*
X1309536Y1242219D01*
X1309833Y1241982D01*
X1310124Y1241737D01*
X1310409Y1241485D01*
X1310688Y1241226D01*
X1310960Y1240960D01*
X1311226Y1240688D01*
X1311485Y1240409D01*
X1311737Y1240124D01*
X1311982Y1239833D01*
X1312219Y1239536D01*
X1312450Y1239233D01*
X1312673Y1238925D01*
X1312888Y1238611D01*
X1313095Y1238292D01*
X1313295Y1237969D01*
X1313486Y1237640D01*
X1313670Y1237307D01*
X1313845Y1236969D01*
X1314012Y1236627D01*
X1314170Y1236281D01*
X1314320Y1235932D01*
X1314461Y1235578D01*
X1314594Y1235222D01*
X1314718Y1234862D01*
X1314833Y1234499D01*
X1314939Y1234134D01*
X1315035Y1233766D01*
X1315123Y1233396D01*
X1315202Y1233024D01*
X1315272Y1232650D01*
X1315332Y1232274D01*
X1315383Y1231897D01*
X1315425Y1231519D01*
X1315458Y1231140D01*
X1315481Y1230761D01*
X1315495Y1230380D01*
X1315500Y1230000D01*
X1315495Y1229620D01*
X1315481Y1229239D01*
X1315458Y1228860D01*
X1315425Y1228481D01*
X1315383Y1228103D01*
X1315332Y1227726D01*
X1315272Y1227350D01*
X1315202Y1226976D01*
X1315123Y1226604D01*
X1315035Y1226234D01*
X1314939Y1225866D01*
X1314833Y1225501D01*
X1314718Y1225138D01*
X1314594Y1224778D01*
X1314461Y1224422D01*
X1314320Y1224068D01*
X1314170Y1223719D01*
X1314012Y1223373D01*
X1313845Y1223031D01*
X1313670Y1222693D01*
X1313486Y1222360D01*
X1313295Y1222031D01*
X1313095Y1221708D01*
X1312888Y1221389D01*
X1312673Y1221075D01*
X1312450Y1220767D01*
X1312219Y1220464D01*
X1311982Y1220167D01*
X1311737Y1219876D01*
X1311485Y1219591D01*
X1311226Y1219312D01*
X1310960Y1219040D01*
X1310688Y1218774D01*
X1310409Y1218515D01*
X1310124Y1218263D01*
X1309833Y1218018D01*
X1309536Y1217781D01*
X1309233Y1217550D01*
X1308925Y1217327D01*
X1308611Y1217112D01*
X1308292Y1216905D01*
X1307969Y1216705D01*
X1307640Y1216514D01*
X1307307Y1216330D01*
X1306969Y1216155D01*
X1306627Y1215988D01*
X1306281Y1215830D01*
X1305932Y1215680D01*
X1305578Y1215539D01*
X1305222Y1215406D01*
X1304862Y1215282D01*
X1304499Y1215167D01*
X1304134Y1215061D01*
X1303766Y1214965D01*
X1303396Y1214877D01*
X1303024Y1214798D01*
X1302650Y1214728D01*
X1302274Y1214668D01*
X1301897Y1214617D01*
X1301519Y1214575D01*
X1301140Y1214542D01*
X1300761Y1214519D01*
X1300380Y1214505D01*
X1300000Y1214500D01*
X1299620Y1214505D01*
X1299239Y1214519D01*
X1298860Y1214542D01*
X1298481Y1214575D01*
X1298103Y1214617D01*
X1297726Y1214668D01*
X1297350Y1214728D01*
X1296976Y1214798D01*
X1296604Y1214877D01*
X1296234Y1214965D01*
X1295866Y1215061D01*
X1295501Y1215167D01*
X1295138Y1215282D01*
X1294778Y1215406D01*
X1294422Y1215539D01*
X1294068Y1215680D01*
X1293719Y1215830D01*
X1293373Y1215988D01*
X1293031Y1216155D01*
X1292693Y1216330D01*
X1292360Y1216514D01*
X1292031Y1216705D01*
X1291708Y1216905D01*
X1291389Y1217112D01*
X1291075Y1217327D01*
X1290767Y1217550D01*
X1290464Y1217781D01*
X1290167Y1218018D01*
X1289876Y1218263D01*
X1289591Y1218515D01*
X1289312Y1218774D01*
X1289040Y1219040D01*
X1288774Y1219312D01*
X1288515Y1219591D01*
X1288263Y1219876D01*
X1288018Y1220167D01*
X1287781Y1220464D01*
X1287550Y1220767D01*
X1287327Y1221075D01*
X1287112Y1221389D01*
X1286905Y1221708D01*
X1286705Y1222031D01*
X1286514Y1222360D01*
X1286330Y1222693D01*
X1286155Y1223031D01*
X1285988Y1223373D01*
X1285830Y1223719D01*
X1285680Y1224068D01*
X1285539Y1224422D01*
X1285406Y1224778D01*
X1285282Y1225138D01*
X1285167Y1225501D01*
X1285061Y1225866D01*
X1284965Y1226234D01*
X1284877Y1226604D01*
X1284798Y1226976D01*
X1284728Y1227350D01*
X1284668Y1227726D01*
X1284617Y1228103D01*
X1284575Y1228481D01*
X1284542Y1228860D01*
X1284519Y1229239D01*
X1284505Y1229620D01*
X1284500Y1230000D01*
X1274500Y510000D02*
X1274505Y510380D01*
X1274519Y510761D01*
X1274542Y511140D01*
X1274575Y511519D01*
X1274617Y511897D01*
X1274668Y512274D01*
X1274728Y512650D01*
X1274798Y513024D01*
X1274877Y513396D01*
X1274965Y513766D01*
X1275061Y514134D01*
X1275167Y514499D01*
X1275282Y514862D01*
X1275406Y515222D01*
X1275539Y515578D01*
X1275680Y515932D01*
X1275830Y516281D01*
X1275988Y516627D01*
X1276155Y516969D01*
X1276330Y517307D01*
X1276514Y517640D01*
X1276705Y517969D01*
X1276905Y518292D01*
X1277112Y518611D01*
X1277327Y518925D01*
X1277550Y519233D01*
X1277781Y519536D01*
X1278018Y519833D01*
X1278263Y520124D01*
X1278515Y520409D01*
X1278774Y520688D01*
X1279040Y520960D01*
X1279312Y521226D01*
X1279591Y521485D01*
X1279876Y521737D01*
X1280167Y521982D01*
X1280464Y522219D01*
X1280767Y522450D01*
X1281075Y522673D01*
X1281389Y522888D01*
X1281708Y523095D01*
X1282031Y523295D01*
X1282360Y523486D01*
X1282693Y523670D01*
X1283031Y523845D01*
X1283373Y524012D01*
X1283719Y524170D01*
X1284068Y524320D01*
X1284422Y524461D01*
X1284778Y524594D01*
X1285138Y524718D01*
X1285501Y524833D01*
X1285866Y524939D01*
X1286234Y525035D01*
X1286604Y525123D01*
X1286976Y525202D01*
X1287350Y525272D01*
X1287726Y525332D01*
X1288103Y525383D01*
X1288481Y525425D01*
X1288860Y525458D01*
X1289239Y525481D01*
X1289620Y525495D01*
X1290000Y525500D01*
X1290380Y525495D01*
X1290761Y525481D01*
X1291140Y525458D01*
X1291519Y525425D01*
X1291897Y525383D01*
X1292274Y525332D01*
X1292650Y525272D01*
X1293024Y525202D01*
X1293396Y525123D01*
X1293766Y525035D01*
X1294134Y524939D01*
X1294499Y524833D01*
X1294862Y524718D01*
X1295222Y524594D01*
X1295578Y524461D01*
X1295932Y524320D01*
X1296281Y524170D01*
X1296627Y524012D01*
X1296969Y523845D01*
X1297307Y523670D01*
X1297640Y523486D01*
X1297969Y523295D01*
X1298292Y523095D01*
X1298611Y522888D01*
X1298925Y522673D01*
X1299233Y522450D01*
X1299536Y522219D01*
X1299833Y521982D01*
X1300124Y521737D01*
X1300409Y521485D01*
X1300688Y521226D01*
X1300960Y520960D01*
X1301226Y520688D01*
X1301485Y520409D01*
X1301737Y520124D01*
X1301982Y519833D01*
X1302219Y519536D01*
X1302450Y519233D01*
X1302673Y518925D01*
X1302888Y518611D01*
X1303095Y518292D01*
X1303295Y517969D01*
X1303486Y517640D01*
X1303670Y517307D01*
X1303845Y516969D01*
X1304012Y516627D01*
X1304170Y516281D01*
X1304320Y515932D01*
X1304461Y515578D01*
X1304594Y515222D01*
X1304718Y514862D01*
X1304833Y514499D01*
X1304939Y514134D01*
X1305035Y513766D01*
X1305123Y513396D01*
X1305202Y513024D01*
X1305272Y512650D01*
X1305332Y512274D01*
X1305383Y511897D01*
X1305425Y511519D01*
X1305458Y511140D01*
X1305481Y510761D01*
X1305495Y510380D01*
X1305500Y510000D01*
X1305495Y509620D01*
X1305481Y509239D01*
X1305458Y508860D01*
X1305425Y508481D01*
X1305383Y508103D01*
X1305332Y507726D01*
X1305272Y507350D01*
X1305202Y506976D01*
X1305123Y506604D01*
X1305035Y506234D01*
X1304939Y505866D01*
X1304833Y505501D01*
X1304718Y505138D01*
X1304594Y504778D01*
X1304461Y504422D01*
X1304320Y504068D01*
X1304170Y503719D01*
X1304012Y503373D01*
X1303845Y503031D01*
X1303670Y502693D01*
X1303486Y502360D01*
X1303295Y502031D01*
X1303095Y501708D01*
X1302888Y501389D01*
X1302673Y501075D01*
X1302450Y500767D01*
X1302219Y500464D01*
X1301982Y500167D01*
X1301737Y499876D01*
X1301485Y499591D01*
X1301226Y499312D01*
X1300960Y499040D01*
X1300688Y498774D01*
X1300409Y498515D01*
X1300124Y498263D01*
X1299833Y498018D01*
X1299536Y497781D01*
X1299233Y497550D01*
X1298925Y497327D01*
X1298611Y497112D01*
X1298292Y496905D01*
X1297969Y496705D01*
X1297640Y496514D01*
X1297307Y496330D01*
X1296969Y496155D01*
X1296627Y495988D01*
X1296281Y495830D01*
X1295932Y495680D01*
X1295578Y495539D01*
X1295222Y495406D01*
X1294862Y495282D01*
X1294499Y495167D01*
X1294134Y495061D01*
X1293766Y494965D01*
X1293396Y494877D01*
X1293024Y494798D01*
X1292650Y494728D01*
X1292274Y494668D01*
X1291897Y494617D01*
X1291519Y494575D01*
X1291140Y494542D01*
X1290761Y494519D01*
X1290380Y494505D01*
X1290000Y494500D01*
X1289620Y494505D01*
X1289239Y494519D01*
X1288860Y494542D01*
X1288481Y494575D01*
X1288103Y494617D01*
X1287726Y494668D01*
X1287350Y494728D01*
X1286976Y494798D01*
X1286604Y494877D01*
X1286234Y494965D01*
X1285866Y495061D01*
X1285501Y495167D01*
X1285138Y495282D01*
X1284778Y495406D01*
X1284422Y495539D01*
X1284068Y495680D01*
X1283719Y495830D01*
X1283373Y495988D01*
X1283031Y496155D01*
X1282693Y496330D01*
X1282360Y496514D01*
X1282031Y496705D01*
X1281708Y496905D01*
X1281389Y497112D01*
X1281075Y497327D01*
X1280767Y497550D01*
X1280464Y497781D01*
X1280167Y498018D01*
X1279876Y498263D01*
X1279591Y498515D01*
X1279312Y498774D01*
X1279040Y499040D01*
X1278774Y499312D01*
X1278515Y499591D01*
X1278263Y499876D01*
X1278018Y500167D01*
X1277781Y500464D01*
X1277550Y500767D01*
X1277327Y501075D01*
X1277112Y501389D01*
X1276905Y501708D01*
X1276705Y502031D01*
X1276514Y502360D01*
X1276330Y502693D01*
X1276155Y503031D01*
X1275988Y503373D01*
X1275830Y503719D01*
X1275680Y504068D01*
X1275539Y504422D01*
X1275406Y504778D01*
X1275282Y505138D01*
X1275167Y505501D01*
X1275061Y505866D01*
X1274965Y506234D01*
X1274877Y506604D01*
X1274798Y506976D01*
X1274728Y507350D01*
X1274668Y507726D01*
X1274617Y508103D01*
X1274575Y508481D01*
X1274542Y508860D01*
X1274519Y509239D01*
X1274505Y509620D01*
X1274500Y510000D01*
M02*
