G75*
%MOIN*%
%OFA0B0*%
%FSLAX25Y25*%
%IPPOS*%
%LPD*%
%AMOC8*
5,1,8,0,0,1.08239X$1,22.5*
%
%ADD10C,0.00000*%
D10*
X0014295Y0008409D02*
X0014295Y0165890D01*
X0144216Y0165890D01*
X0144216Y0008409D01*
X0014295Y0008409D01*
X0019807Y0154079D02*
X0019809Y0154237D01*
X0019815Y0154395D01*
X0019825Y0154553D01*
X0019839Y0154711D01*
X0019857Y0154868D01*
X0019878Y0155025D01*
X0019904Y0155181D01*
X0019934Y0155337D01*
X0019967Y0155492D01*
X0020005Y0155645D01*
X0020046Y0155798D01*
X0020091Y0155950D01*
X0020140Y0156101D01*
X0020193Y0156250D01*
X0020249Y0156398D01*
X0020309Y0156544D01*
X0020373Y0156689D01*
X0020441Y0156832D01*
X0020512Y0156974D01*
X0020586Y0157114D01*
X0020664Y0157251D01*
X0020746Y0157387D01*
X0020830Y0157521D01*
X0020919Y0157652D01*
X0021010Y0157781D01*
X0021105Y0157908D01*
X0021202Y0158033D01*
X0021303Y0158155D01*
X0021407Y0158274D01*
X0021514Y0158391D01*
X0021624Y0158505D01*
X0021737Y0158616D01*
X0021852Y0158725D01*
X0021970Y0158830D01*
X0022091Y0158932D01*
X0022214Y0159032D01*
X0022340Y0159128D01*
X0022468Y0159221D01*
X0022598Y0159311D01*
X0022731Y0159397D01*
X0022866Y0159481D01*
X0023002Y0159560D01*
X0023141Y0159637D01*
X0023282Y0159709D01*
X0023424Y0159779D01*
X0023568Y0159844D01*
X0023714Y0159906D01*
X0023861Y0159964D01*
X0024010Y0160019D01*
X0024160Y0160070D01*
X0024311Y0160117D01*
X0024463Y0160160D01*
X0024616Y0160199D01*
X0024771Y0160235D01*
X0024926Y0160266D01*
X0025082Y0160294D01*
X0025238Y0160318D01*
X0025395Y0160338D01*
X0025553Y0160354D01*
X0025710Y0160366D01*
X0025869Y0160374D01*
X0026027Y0160378D01*
X0026185Y0160378D01*
X0026343Y0160374D01*
X0026502Y0160366D01*
X0026659Y0160354D01*
X0026817Y0160338D01*
X0026974Y0160318D01*
X0027130Y0160294D01*
X0027286Y0160266D01*
X0027441Y0160235D01*
X0027596Y0160199D01*
X0027749Y0160160D01*
X0027901Y0160117D01*
X0028052Y0160070D01*
X0028202Y0160019D01*
X0028351Y0159964D01*
X0028498Y0159906D01*
X0028644Y0159844D01*
X0028788Y0159779D01*
X0028930Y0159709D01*
X0029071Y0159637D01*
X0029210Y0159560D01*
X0029346Y0159481D01*
X0029481Y0159397D01*
X0029614Y0159311D01*
X0029744Y0159221D01*
X0029872Y0159128D01*
X0029998Y0159032D01*
X0030121Y0158932D01*
X0030242Y0158830D01*
X0030360Y0158725D01*
X0030475Y0158616D01*
X0030588Y0158505D01*
X0030698Y0158391D01*
X0030805Y0158274D01*
X0030909Y0158155D01*
X0031010Y0158033D01*
X0031107Y0157908D01*
X0031202Y0157781D01*
X0031293Y0157652D01*
X0031382Y0157521D01*
X0031466Y0157387D01*
X0031548Y0157251D01*
X0031626Y0157114D01*
X0031700Y0156974D01*
X0031771Y0156832D01*
X0031839Y0156689D01*
X0031903Y0156544D01*
X0031963Y0156398D01*
X0032019Y0156250D01*
X0032072Y0156101D01*
X0032121Y0155950D01*
X0032166Y0155798D01*
X0032207Y0155645D01*
X0032245Y0155492D01*
X0032278Y0155337D01*
X0032308Y0155181D01*
X0032334Y0155025D01*
X0032355Y0154868D01*
X0032373Y0154711D01*
X0032387Y0154553D01*
X0032397Y0154395D01*
X0032403Y0154237D01*
X0032405Y0154079D01*
X0032403Y0153921D01*
X0032397Y0153763D01*
X0032387Y0153605D01*
X0032373Y0153447D01*
X0032355Y0153290D01*
X0032334Y0153133D01*
X0032308Y0152977D01*
X0032278Y0152821D01*
X0032245Y0152666D01*
X0032207Y0152513D01*
X0032166Y0152360D01*
X0032121Y0152208D01*
X0032072Y0152057D01*
X0032019Y0151908D01*
X0031963Y0151760D01*
X0031903Y0151614D01*
X0031839Y0151469D01*
X0031771Y0151326D01*
X0031700Y0151184D01*
X0031626Y0151044D01*
X0031548Y0150907D01*
X0031466Y0150771D01*
X0031382Y0150637D01*
X0031293Y0150506D01*
X0031202Y0150377D01*
X0031107Y0150250D01*
X0031010Y0150125D01*
X0030909Y0150003D01*
X0030805Y0149884D01*
X0030698Y0149767D01*
X0030588Y0149653D01*
X0030475Y0149542D01*
X0030360Y0149433D01*
X0030242Y0149328D01*
X0030121Y0149226D01*
X0029998Y0149126D01*
X0029872Y0149030D01*
X0029744Y0148937D01*
X0029614Y0148847D01*
X0029481Y0148761D01*
X0029346Y0148677D01*
X0029210Y0148598D01*
X0029071Y0148521D01*
X0028930Y0148449D01*
X0028788Y0148379D01*
X0028644Y0148314D01*
X0028498Y0148252D01*
X0028351Y0148194D01*
X0028202Y0148139D01*
X0028052Y0148088D01*
X0027901Y0148041D01*
X0027749Y0147998D01*
X0027596Y0147959D01*
X0027441Y0147923D01*
X0027286Y0147892D01*
X0027130Y0147864D01*
X0026974Y0147840D01*
X0026817Y0147820D01*
X0026659Y0147804D01*
X0026502Y0147792D01*
X0026343Y0147784D01*
X0026185Y0147780D01*
X0026027Y0147780D01*
X0025869Y0147784D01*
X0025710Y0147792D01*
X0025553Y0147804D01*
X0025395Y0147820D01*
X0025238Y0147840D01*
X0025082Y0147864D01*
X0024926Y0147892D01*
X0024771Y0147923D01*
X0024616Y0147959D01*
X0024463Y0147998D01*
X0024311Y0148041D01*
X0024160Y0148088D01*
X0024010Y0148139D01*
X0023861Y0148194D01*
X0023714Y0148252D01*
X0023568Y0148314D01*
X0023424Y0148379D01*
X0023282Y0148449D01*
X0023141Y0148521D01*
X0023002Y0148598D01*
X0022866Y0148677D01*
X0022731Y0148761D01*
X0022598Y0148847D01*
X0022468Y0148937D01*
X0022340Y0149030D01*
X0022214Y0149126D01*
X0022091Y0149226D01*
X0021970Y0149328D01*
X0021852Y0149433D01*
X0021737Y0149542D01*
X0021624Y0149653D01*
X0021514Y0149767D01*
X0021407Y0149884D01*
X0021303Y0150003D01*
X0021202Y0150125D01*
X0021105Y0150250D01*
X0021010Y0150377D01*
X0020919Y0150506D01*
X0020830Y0150637D01*
X0020746Y0150771D01*
X0020664Y0150907D01*
X0020586Y0151044D01*
X0020512Y0151184D01*
X0020441Y0151326D01*
X0020373Y0151469D01*
X0020309Y0151614D01*
X0020249Y0151760D01*
X0020193Y0151908D01*
X0020140Y0152057D01*
X0020091Y0152208D01*
X0020046Y0152360D01*
X0020005Y0152513D01*
X0019967Y0152666D01*
X0019934Y0152821D01*
X0019904Y0152977D01*
X0019878Y0153133D01*
X0019857Y0153290D01*
X0019839Y0153447D01*
X0019825Y0153605D01*
X0019815Y0153763D01*
X0019809Y0153921D01*
X0019807Y0154079D01*
X0126106Y0154079D02*
X0126108Y0154237D01*
X0126114Y0154395D01*
X0126124Y0154553D01*
X0126138Y0154711D01*
X0126156Y0154868D01*
X0126177Y0155025D01*
X0126203Y0155181D01*
X0126233Y0155337D01*
X0126266Y0155492D01*
X0126304Y0155645D01*
X0126345Y0155798D01*
X0126390Y0155950D01*
X0126439Y0156101D01*
X0126492Y0156250D01*
X0126548Y0156398D01*
X0126608Y0156544D01*
X0126672Y0156689D01*
X0126740Y0156832D01*
X0126811Y0156974D01*
X0126885Y0157114D01*
X0126963Y0157251D01*
X0127045Y0157387D01*
X0127129Y0157521D01*
X0127218Y0157652D01*
X0127309Y0157781D01*
X0127404Y0157908D01*
X0127501Y0158033D01*
X0127602Y0158155D01*
X0127706Y0158274D01*
X0127813Y0158391D01*
X0127923Y0158505D01*
X0128036Y0158616D01*
X0128151Y0158725D01*
X0128269Y0158830D01*
X0128390Y0158932D01*
X0128513Y0159032D01*
X0128639Y0159128D01*
X0128767Y0159221D01*
X0128897Y0159311D01*
X0129030Y0159397D01*
X0129165Y0159481D01*
X0129301Y0159560D01*
X0129440Y0159637D01*
X0129581Y0159709D01*
X0129723Y0159779D01*
X0129867Y0159844D01*
X0130013Y0159906D01*
X0130160Y0159964D01*
X0130309Y0160019D01*
X0130459Y0160070D01*
X0130610Y0160117D01*
X0130762Y0160160D01*
X0130915Y0160199D01*
X0131070Y0160235D01*
X0131225Y0160266D01*
X0131381Y0160294D01*
X0131537Y0160318D01*
X0131694Y0160338D01*
X0131852Y0160354D01*
X0132009Y0160366D01*
X0132168Y0160374D01*
X0132326Y0160378D01*
X0132484Y0160378D01*
X0132642Y0160374D01*
X0132801Y0160366D01*
X0132958Y0160354D01*
X0133116Y0160338D01*
X0133273Y0160318D01*
X0133429Y0160294D01*
X0133585Y0160266D01*
X0133740Y0160235D01*
X0133895Y0160199D01*
X0134048Y0160160D01*
X0134200Y0160117D01*
X0134351Y0160070D01*
X0134501Y0160019D01*
X0134650Y0159964D01*
X0134797Y0159906D01*
X0134943Y0159844D01*
X0135087Y0159779D01*
X0135229Y0159709D01*
X0135370Y0159637D01*
X0135509Y0159560D01*
X0135645Y0159481D01*
X0135780Y0159397D01*
X0135913Y0159311D01*
X0136043Y0159221D01*
X0136171Y0159128D01*
X0136297Y0159032D01*
X0136420Y0158932D01*
X0136541Y0158830D01*
X0136659Y0158725D01*
X0136774Y0158616D01*
X0136887Y0158505D01*
X0136997Y0158391D01*
X0137104Y0158274D01*
X0137208Y0158155D01*
X0137309Y0158033D01*
X0137406Y0157908D01*
X0137501Y0157781D01*
X0137592Y0157652D01*
X0137681Y0157521D01*
X0137765Y0157387D01*
X0137847Y0157251D01*
X0137925Y0157114D01*
X0137999Y0156974D01*
X0138070Y0156832D01*
X0138138Y0156689D01*
X0138202Y0156544D01*
X0138262Y0156398D01*
X0138318Y0156250D01*
X0138371Y0156101D01*
X0138420Y0155950D01*
X0138465Y0155798D01*
X0138506Y0155645D01*
X0138544Y0155492D01*
X0138577Y0155337D01*
X0138607Y0155181D01*
X0138633Y0155025D01*
X0138654Y0154868D01*
X0138672Y0154711D01*
X0138686Y0154553D01*
X0138696Y0154395D01*
X0138702Y0154237D01*
X0138704Y0154079D01*
X0138702Y0153921D01*
X0138696Y0153763D01*
X0138686Y0153605D01*
X0138672Y0153447D01*
X0138654Y0153290D01*
X0138633Y0153133D01*
X0138607Y0152977D01*
X0138577Y0152821D01*
X0138544Y0152666D01*
X0138506Y0152513D01*
X0138465Y0152360D01*
X0138420Y0152208D01*
X0138371Y0152057D01*
X0138318Y0151908D01*
X0138262Y0151760D01*
X0138202Y0151614D01*
X0138138Y0151469D01*
X0138070Y0151326D01*
X0137999Y0151184D01*
X0137925Y0151044D01*
X0137847Y0150907D01*
X0137765Y0150771D01*
X0137681Y0150637D01*
X0137592Y0150506D01*
X0137501Y0150377D01*
X0137406Y0150250D01*
X0137309Y0150125D01*
X0137208Y0150003D01*
X0137104Y0149884D01*
X0136997Y0149767D01*
X0136887Y0149653D01*
X0136774Y0149542D01*
X0136659Y0149433D01*
X0136541Y0149328D01*
X0136420Y0149226D01*
X0136297Y0149126D01*
X0136171Y0149030D01*
X0136043Y0148937D01*
X0135913Y0148847D01*
X0135780Y0148761D01*
X0135645Y0148677D01*
X0135509Y0148598D01*
X0135370Y0148521D01*
X0135229Y0148449D01*
X0135087Y0148379D01*
X0134943Y0148314D01*
X0134797Y0148252D01*
X0134650Y0148194D01*
X0134501Y0148139D01*
X0134351Y0148088D01*
X0134200Y0148041D01*
X0134048Y0147998D01*
X0133895Y0147959D01*
X0133740Y0147923D01*
X0133585Y0147892D01*
X0133429Y0147864D01*
X0133273Y0147840D01*
X0133116Y0147820D01*
X0132958Y0147804D01*
X0132801Y0147792D01*
X0132642Y0147784D01*
X0132484Y0147780D01*
X0132326Y0147780D01*
X0132168Y0147784D01*
X0132009Y0147792D01*
X0131852Y0147804D01*
X0131694Y0147820D01*
X0131537Y0147840D01*
X0131381Y0147864D01*
X0131225Y0147892D01*
X0131070Y0147923D01*
X0130915Y0147959D01*
X0130762Y0147998D01*
X0130610Y0148041D01*
X0130459Y0148088D01*
X0130309Y0148139D01*
X0130160Y0148194D01*
X0130013Y0148252D01*
X0129867Y0148314D01*
X0129723Y0148379D01*
X0129581Y0148449D01*
X0129440Y0148521D01*
X0129301Y0148598D01*
X0129165Y0148677D01*
X0129030Y0148761D01*
X0128897Y0148847D01*
X0128767Y0148937D01*
X0128639Y0149030D01*
X0128513Y0149126D01*
X0128390Y0149226D01*
X0128269Y0149328D01*
X0128151Y0149433D01*
X0128036Y0149542D01*
X0127923Y0149653D01*
X0127813Y0149767D01*
X0127706Y0149884D01*
X0127602Y0150003D01*
X0127501Y0150125D01*
X0127404Y0150250D01*
X0127309Y0150377D01*
X0127218Y0150506D01*
X0127129Y0150637D01*
X0127045Y0150771D01*
X0126963Y0150907D01*
X0126885Y0151044D01*
X0126811Y0151184D01*
X0126740Y0151326D01*
X0126672Y0151469D01*
X0126608Y0151614D01*
X0126548Y0151760D01*
X0126492Y0151908D01*
X0126439Y0152057D01*
X0126390Y0152208D01*
X0126345Y0152360D01*
X0126304Y0152513D01*
X0126266Y0152666D01*
X0126233Y0152821D01*
X0126203Y0152977D01*
X0126177Y0153133D01*
X0126156Y0153290D01*
X0126138Y0153447D01*
X0126124Y0153605D01*
X0126114Y0153763D01*
X0126108Y0153921D01*
X0126106Y0154079D01*
M02*
