G75*
%MOIN*%
%OFA0B0*%
%FSLAX25Y25*%
%IPPOS*%
%LPD*%
%AMOC8*
5,1,8,0,0,1.08239X$1,22.5*
%
%ADD10C,0.13398*%
%ADD11R,0.05524X0.02965*%
%ADD12R,0.04737X0.05131*%
%ADD13R,0.05131X0.04737*%
%ADD14R,0.05052X0.04934*%
%ADD15R,0.04934X0.05052*%
%ADD16R,0.08200X0.08200*%
%ADD17C,0.08200*%
%ADD18C,0.01969*%
%ADD19C,0.08477*%
%ADD20C,0.04737*%
%ADD21C,0.07800*%
%ADD22R,0.06706X0.06706*%
%ADD23C,0.06000*%
%ADD24R,0.07099X0.07898*%
%ADD25R,0.07898X0.07099*%
%ADD26R,0.04737X0.06312*%
%ADD27R,0.07099X0.07887*%
%ADD28C,0.04000*%
D10*
X0026106Y0154079D03*
X0132405Y0154079D03*
D11*
X0124189Y0138378D03*
X0124189Y0134638D03*
X0124189Y0130898D03*
X0114346Y0130898D03*
X0114346Y0138378D03*
D12*
X0113882Y0146598D03*
X0120575Y0146598D03*
X0120582Y0156173D03*
X0113889Y0156173D03*
D13*
X0103236Y0155555D03*
X0103236Y0148862D03*
X0103232Y0137898D03*
X0103232Y0131205D03*
X0125929Y0122150D03*
X0132622Y0122150D03*
D14*
X0134767Y0131193D03*
X0134767Y0138083D03*
X0093945Y0138114D03*
X0093945Y0131224D03*
D15*
X0094244Y0123075D03*
X0101134Y0123075D03*
D16*
X0115366Y0100362D03*
D17*
X0115366Y0090362D03*
X0115366Y0080362D03*
X0125366Y0080362D03*
X0125366Y0090362D03*
X0125366Y0100362D03*
D18*
X0133389Y0057622D02*
X0133391Y0057514D01*
X0133397Y0057406D01*
X0133407Y0057299D01*
X0133420Y0057192D01*
X0133438Y0057086D01*
X0133460Y0056980D01*
X0133485Y0056875D01*
X0133514Y0056771D01*
X0133547Y0056669D01*
X0133584Y0056567D01*
X0133624Y0056467D01*
X0133668Y0056369D01*
X0133716Y0056272D01*
X0133767Y0056177D01*
X0133821Y0056084D01*
X0133879Y0055993D01*
X0133940Y0055904D01*
X0134005Y0055817D01*
X0134072Y0055733D01*
X0134143Y0055651D01*
X0134216Y0055572D01*
X0134292Y0055496D01*
X0134371Y0055423D01*
X0134453Y0055352D01*
X0134537Y0055285D01*
X0134624Y0055220D01*
X0134713Y0055159D01*
X0134804Y0055101D01*
X0134897Y0055047D01*
X0134992Y0054996D01*
X0135089Y0054948D01*
X0135187Y0054904D01*
X0135287Y0054864D01*
X0135389Y0054827D01*
X0135491Y0054794D01*
X0135595Y0054765D01*
X0135700Y0054740D01*
X0135806Y0054718D01*
X0135912Y0054700D01*
X0136019Y0054687D01*
X0136126Y0054677D01*
X0136234Y0054671D01*
X0136342Y0054669D01*
X0136450Y0054671D01*
X0136558Y0054677D01*
X0136665Y0054687D01*
X0136772Y0054700D01*
X0136878Y0054718D01*
X0136984Y0054740D01*
X0137089Y0054765D01*
X0137193Y0054794D01*
X0137295Y0054827D01*
X0137397Y0054864D01*
X0137497Y0054904D01*
X0137595Y0054948D01*
X0137692Y0054996D01*
X0137787Y0055047D01*
X0137880Y0055101D01*
X0137971Y0055159D01*
X0138060Y0055220D01*
X0138147Y0055285D01*
X0138231Y0055352D01*
X0138313Y0055423D01*
X0138392Y0055496D01*
X0138468Y0055572D01*
X0138541Y0055651D01*
X0138612Y0055733D01*
X0138679Y0055817D01*
X0138744Y0055904D01*
X0138805Y0055993D01*
X0138863Y0056084D01*
X0138917Y0056177D01*
X0138968Y0056272D01*
X0139016Y0056369D01*
X0139060Y0056467D01*
X0139100Y0056567D01*
X0139137Y0056669D01*
X0139170Y0056771D01*
X0139199Y0056875D01*
X0139224Y0056980D01*
X0139246Y0057086D01*
X0139264Y0057192D01*
X0139277Y0057299D01*
X0139287Y0057406D01*
X0139293Y0057514D01*
X0139295Y0057622D01*
X0139293Y0057730D01*
X0139287Y0057838D01*
X0139277Y0057945D01*
X0139264Y0058052D01*
X0139246Y0058158D01*
X0139224Y0058264D01*
X0139199Y0058369D01*
X0139170Y0058473D01*
X0139137Y0058575D01*
X0139100Y0058677D01*
X0139060Y0058777D01*
X0139016Y0058875D01*
X0138968Y0058972D01*
X0138917Y0059067D01*
X0138863Y0059160D01*
X0138805Y0059251D01*
X0138744Y0059340D01*
X0138679Y0059427D01*
X0138612Y0059511D01*
X0138541Y0059593D01*
X0138468Y0059672D01*
X0138392Y0059748D01*
X0138313Y0059821D01*
X0138231Y0059892D01*
X0138147Y0059959D01*
X0138060Y0060024D01*
X0137971Y0060085D01*
X0137880Y0060143D01*
X0137787Y0060197D01*
X0137692Y0060248D01*
X0137595Y0060296D01*
X0137497Y0060340D01*
X0137397Y0060380D01*
X0137295Y0060417D01*
X0137193Y0060450D01*
X0137089Y0060479D01*
X0136984Y0060504D01*
X0136878Y0060526D01*
X0136772Y0060544D01*
X0136665Y0060557D01*
X0136558Y0060567D01*
X0136450Y0060573D01*
X0136342Y0060575D01*
X0136234Y0060573D01*
X0136126Y0060567D01*
X0136019Y0060557D01*
X0135912Y0060544D01*
X0135806Y0060526D01*
X0135700Y0060504D01*
X0135595Y0060479D01*
X0135491Y0060450D01*
X0135389Y0060417D01*
X0135287Y0060380D01*
X0135187Y0060340D01*
X0135089Y0060296D01*
X0134992Y0060248D01*
X0134897Y0060197D01*
X0134804Y0060143D01*
X0134713Y0060085D01*
X0134624Y0060024D01*
X0134537Y0059959D01*
X0134453Y0059892D01*
X0134371Y0059821D01*
X0134292Y0059748D01*
X0134216Y0059672D01*
X0134143Y0059593D01*
X0134072Y0059511D01*
X0134005Y0059427D01*
X0133940Y0059340D01*
X0133879Y0059251D01*
X0133821Y0059160D01*
X0133767Y0059067D01*
X0133716Y0058972D01*
X0133668Y0058875D01*
X0133624Y0058777D01*
X0133584Y0058677D01*
X0133547Y0058575D01*
X0133514Y0058473D01*
X0133485Y0058369D01*
X0133460Y0058264D01*
X0133438Y0058158D01*
X0133420Y0058052D01*
X0133407Y0057945D01*
X0133397Y0057838D01*
X0133391Y0057730D01*
X0133389Y0057622D01*
X0025496Y0133390D02*
X0025388Y0133392D01*
X0025280Y0133398D01*
X0025173Y0133408D01*
X0025066Y0133421D01*
X0024960Y0133439D01*
X0024854Y0133461D01*
X0024749Y0133486D01*
X0024645Y0133515D01*
X0024543Y0133548D01*
X0024441Y0133585D01*
X0024341Y0133625D01*
X0024243Y0133669D01*
X0024146Y0133717D01*
X0024051Y0133768D01*
X0023958Y0133822D01*
X0023867Y0133880D01*
X0023778Y0133941D01*
X0023691Y0134006D01*
X0023607Y0134073D01*
X0023525Y0134144D01*
X0023446Y0134217D01*
X0023370Y0134293D01*
X0023297Y0134372D01*
X0023226Y0134454D01*
X0023159Y0134538D01*
X0023094Y0134625D01*
X0023033Y0134714D01*
X0022975Y0134805D01*
X0022921Y0134898D01*
X0022870Y0134993D01*
X0022822Y0135090D01*
X0022778Y0135188D01*
X0022738Y0135288D01*
X0022701Y0135390D01*
X0022668Y0135492D01*
X0022639Y0135596D01*
X0022614Y0135701D01*
X0022592Y0135807D01*
X0022574Y0135913D01*
X0022561Y0136020D01*
X0022551Y0136127D01*
X0022545Y0136235D01*
X0022543Y0136343D01*
X0025496Y0133390D02*
X0025604Y0133392D01*
X0025712Y0133398D01*
X0025819Y0133408D01*
X0025926Y0133421D01*
X0026032Y0133439D01*
X0026138Y0133461D01*
X0026243Y0133486D01*
X0026347Y0133515D01*
X0026449Y0133548D01*
X0026551Y0133585D01*
X0026651Y0133625D01*
X0026749Y0133669D01*
X0026846Y0133717D01*
X0026941Y0133768D01*
X0027034Y0133822D01*
X0027125Y0133880D01*
X0027214Y0133941D01*
X0027301Y0134006D01*
X0027385Y0134073D01*
X0027467Y0134144D01*
X0027546Y0134217D01*
X0027622Y0134293D01*
X0027695Y0134372D01*
X0027766Y0134454D01*
X0027833Y0134538D01*
X0027898Y0134625D01*
X0027959Y0134714D01*
X0028017Y0134805D01*
X0028071Y0134898D01*
X0028122Y0134993D01*
X0028170Y0135090D01*
X0028214Y0135188D01*
X0028254Y0135288D01*
X0028291Y0135390D01*
X0028324Y0135492D01*
X0028353Y0135596D01*
X0028378Y0135701D01*
X0028400Y0135807D01*
X0028418Y0135913D01*
X0028431Y0136020D01*
X0028441Y0136127D01*
X0028447Y0136235D01*
X0028449Y0136343D01*
X0028447Y0136451D01*
X0028441Y0136559D01*
X0028431Y0136666D01*
X0028418Y0136773D01*
X0028400Y0136879D01*
X0028378Y0136985D01*
X0028353Y0137090D01*
X0028324Y0137194D01*
X0028291Y0137296D01*
X0028254Y0137398D01*
X0028214Y0137498D01*
X0028170Y0137596D01*
X0028122Y0137693D01*
X0028071Y0137788D01*
X0028017Y0137881D01*
X0027959Y0137972D01*
X0027898Y0138061D01*
X0027833Y0138148D01*
X0027766Y0138232D01*
X0027695Y0138314D01*
X0027622Y0138393D01*
X0027546Y0138469D01*
X0027467Y0138542D01*
X0027385Y0138613D01*
X0027301Y0138680D01*
X0027214Y0138745D01*
X0027125Y0138806D01*
X0027034Y0138864D01*
X0026941Y0138918D01*
X0026846Y0138969D01*
X0026749Y0139017D01*
X0026651Y0139061D01*
X0026551Y0139101D01*
X0026449Y0139138D01*
X0026347Y0139171D01*
X0026243Y0139200D01*
X0026138Y0139225D01*
X0026032Y0139247D01*
X0025926Y0139265D01*
X0025819Y0139278D01*
X0025712Y0139288D01*
X0025604Y0139294D01*
X0025496Y0139296D01*
X0025388Y0139294D01*
X0025280Y0139288D01*
X0025173Y0139278D01*
X0025066Y0139265D01*
X0024960Y0139247D01*
X0024854Y0139225D01*
X0024749Y0139200D01*
X0024645Y0139171D01*
X0024543Y0139138D01*
X0024441Y0139101D01*
X0024341Y0139061D01*
X0024243Y0139017D01*
X0024146Y0138969D01*
X0024051Y0138918D01*
X0023958Y0138864D01*
X0023867Y0138806D01*
X0023778Y0138745D01*
X0023691Y0138680D01*
X0023607Y0138613D01*
X0023525Y0138542D01*
X0023446Y0138469D01*
X0023370Y0138393D01*
X0023297Y0138314D01*
X0023226Y0138232D01*
X0023159Y0138148D01*
X0023094Y0138061D01*
X0023033Y0137972D01*
X0022975Y0137881D01*
X0022921Y0137788D01*
X0022870Y0137693D01*
X0022822Y0137596D01*
X0022778Y0137498D01*
X0022738Y0137398D01*
X0022701Y0137296D01*
X0022668Y0137194D01*
X0022639Y0137090D01*
X0022614Y0136985D01*
X0022592Y0136879D01*
X0022574Y0136773D01*
X0022561Y0136666D01*
X0022551Y0136559D01*
X0022545Y0136451D01*
X0022543Y0136343D01*
X0016854Y0054787D02*
X0016856Y0054679D01*
X0016862Y0054571D01*
X0016872Y0054464D01*
X0016885Y0054357D01*
X0016903Y0054251D01*
X0016925Y0054145D01*
X0016950Y0054040D01*
X0016979Y0053936D01*
X0017012Y0053834D01*
X0017049Y0053732D01*
X0017089Y0053632D01*
X0017133Y0053534D01*
X0017181Y0053437D01*
X0017232Y0053342D01*
X0017286Y0053249D01*
X0017344Y0053158D01*
X0017405Y0053069D01*
X0017470Y0052982D01*
X0017537Y0052898D01*
X0017608Y0052816D01*
X0017681Y0052737D01*
X0017757Y0052661D01*
X0017836Y0052588D01*
X0017918Y0052517D01*
X0018002Y0052450D01*
X0018089Y0052385D01*
X0018178Y0052324D01*
X0018269Y0052266D01*
X0018362Y0052212D01*
X0018457Y0052161D01*
X0018554Y0052113D01*
X0018652Y0052069D01*
X0018752Y0052029D01*
X0018854Y0051992D01*
X0018956Y0051959D01*
X0019060Y0051930D01*
X0019165Y0051905D01*
X0019271Y0051883D01*
X0019377Y0051865D01*
X0019484Y0051852D01*
X0019591Y0051842D01*
X0019699Y0051836D01*
X0019807Y0051834D01*
X0019915Y0051836D01*
X0020023Y0051842D01*
X0020130Y0051852D01*
X0020237Y0051865D01*
X0020343Y0051883D01*
X0020449Y0051905D01*
X0020554Y0051930D01*
X0020658Y0051959D01*
X0020760Y0051992D01*
X0020862Y0052029D01*
X0020962Y0052069D01*
X0021060Y0052113D01*
X0021157Y0052161D01*
X0021252Y0052212D01*
X0021345Y0052266D01*
X0021436Y0052324D01*
X0021525Y0052385D01*
X0021612Y0052450D01*
X0021696Y0052517D01*
X0021778Y0052588D01*
X0021857Y0052661D01*
X0021933Y0052737D01*
X0022006Y0052816D01*
X0022077Y0052898D01*
X0022144Y0052982D01*
X0022209Y0053069D01*
X0022270Y0053158D01*
X0022328Y0053249D01*
X0022382Y0053342D01*
X0022433Y0053437D01*
X0022481Y0053534D01*
X0022525Y0053632D01*
X0022565Y0053732D01*
X0022602Y0053834D01*
X0022635Y0053936D01*
X0022664Y0054040D01*
X0022689Y0054145D01*
X0022711Y0054251D01*
X0022729Y0054357D01*
X0022742Y0054464D01*
X0022752Y0054571D01*
X0022758Y0054679D01*
X0022760Y0054787D01*
X0022758Y0054895D01*
X0022752Y0055003D01*
X0022742Y0055110D01*
X0022729Y0055217D01*
X0022711Y0055323D01*
X0022689Y0055429D01*
X0022664Y0055534D01*
X0022635Y0055638D01*
X0022602Y0055740D01*
X0022565Y0055842D01*
X0022525Y0055942D01*
X0022481Y0056040D01*
X0022433Y0056137D01*
X0022382Y0056232D01*
X0022328Y0056325D01*
X0022270Y0056416D01*
X0022209Y0056505D01*
X0022144Y0056592D01*
X0022077Y0056676D01*
X0022006Y0056758D01*
X0021933Y0056837D01*
X0021857Y0056913D01*
X0021778Y0056986D01*
X0021696Y0057057D01*
X0021612Y0057124D01*
X0021525Y0057189D01*
X0021436Y0057250D01*
X0021345Y0057308D01*
X0021252Y0057362D01*
X0021157Y0057413D01*
X0021060Y0057461D01*
X0020962Y0057505D01*
X0020862Y0057545D01*
X0020760Y0057582D01*
X0020658Y0057615D01*
X0020554Y0057644D01*
X0020449Y0057669D01*
X0020343Y0057691D01*
X0020237Y0057709D01*
X0020130Y0057722D01*
X0020023Y0057732D01*
X0019915Y0057738D01*
X0019807Y0057740D01*
X0019699Y0057738D01*
X0019591Y0057732D01*
X0019484Y0057722D01*
X0019377Y0057709D01*
X0019271Y0057691D01*
X0019165Y0057669D01*
X0019060Y0057644D01*
X0018956Y0057615D01*
X0018854Y0057582D01*
X0018752Y0057545D01*
X0018652Y0057505D01*
X0018554Y0057461D01*
X0018457Y0057413D01*
X0018362Y0057362D01*
X0018269Y0057308D01*
X0018178Y0057250D01*
X0018089Y0057189D01*
X0018002Y0057124D01*
X0017918Y0057057D01*
X0017836Y0056986D01*
X0017757Y0056913D01*
X0017681Y0056837D01*
X0017608Y0056758D01*
X0017537Y0056676D01*
X0017470Y0056592D01*
X0017405Y0056505D01*
X0017344Y0056416D01*
X0017286Y0056325D01*
X0017232Y0056232D01*
X0017181Y0056137D01*
X0017133Y0056040D01*
X0017089Y0055942D01*
X0017049Y0055842D01*
X0017012Y0055740D01*
X0016979Y0055638D01*
X0016950Y0055534D01*
X0016925Y0055429D01*
X0016903Y0055323D01*
X0016885Y0055217D01*
X0016872Y0055110D01*
X0016862Y0055003D01*
X0016856Y0054895D01*
X0016854Y0054787D01*
D19*
X0028724Y0034020D02*
X0028724Y0026343D01*
X0048409Y0026343D02*
X0048409Y0034020D01*
X0068094Y0034020D02*
X0068094Y0026343D01*
X0087779Y0026343D02*
X0087779Y0034020D01*
X0107464Y0034020D02*
X0107464Y0026343D01*
X0127149Y0026343D02*
X0127149Y0034020D01*
D20*
X0127681Y0058193D03*
X0061067Y0087780D03*
X0038567Y0054650D03*
X0031303Y0054650D03*
D21*
X0054689Y0133665D03*
X0068862Y0133665D03*
X0068862Y0147839D03*
X0054689Y0147839D03*
D22*
X0094728Y0114157D03*
X0094728Y0100378D03*
D23*
X0048035Y0098802D02*
X0048035Y0104002D01*
X0038035Y0104002D02*
X0038035Y0098802D01*
X0028035Y0098802D02*
X0028035Y0104002D01*
D24*
X0026767Y0119315D03*
X0037964Y0119315D03*
X0083638Y0159000D03*
X0094834Y0159000D03*
D25*
X0083921Y0112157D03*
X0083921Y0100961D03*
X0070634Y0073181D03*
X0070634Y0061984D03*
X0058409Y0061807D03*
X0058409Y0073004D03*
X0042641Y0073358D03*
X0042641Y0062161D03*
X0026874Y0061630D03*
X0026874Y0072827D03*
D26*
X0069551Y0087878D03*
X0077031Y0087878D03*
X0073291Y0096539D03*
D27*
X0082130Y0073961D03*
X0093153Y0073961D03*
X0092976Y0060142D03*
X0081952Y0060142D03*
D28*
X0092602Y0086539D03*
X0087641Y0091500D03*
X0117228Y0112937D03*
X0057700Y0115417D03*
M02*
