G75*
%MOIN*%
%OFA0B0*%
%FSLAX25Y25*%
%IPPOS*%
%LPD*%
%AMOC8*
5,1,8,0,0,1.08239X$1,22.5*
%
%ADD10C,0.00700*%
%ADD11R,0.04724X0.02165*%
%ADD12R,0.03937X0.04331*%
%ADD13R,0.04331X0.03937*%
%ADD14R,0.04252X0.04134*%
%ADD15R,0.04134X0.04252*%
%ADD16R,0.07400X0.07400*%
%ADD17C,0.07400*%
%ADD18C,0.03937*%
%ADD19C,0.07677*%
%ADD20C,0.07000*%
%ADD21R,0.05906X0.05906*%
%ADD22C,0.05200*%
%ADD23R,0.06299X0.07098*%
%ADD24R,0.07098X0.06299*%
%ADD25R,0.03937X0.05512*%
%ADD26R,0.06299X0.07087*%
%ADD27C,0.01600*%
%ADD28C,0.03200*%
%ADD29C,0.01000*%
%ADD30C,0.02400*%
%ADD31C,0.03200*%
D10*
X0053570Y0154744D02*
X0053570Y0157246D01*
X0052736Y0157246D02*
X0054404Y0157246D01*
X0055682Y0156829D02*
X0055682Y0155161D01*
X0056099Y0154744D01*
X0056933Y0154744D01*
X0057350Y0155161D01*
X0057350Y0156829D01*
X0056933Y0157246D01*
X0056099Y0157246D01*
X0055682Y0156829D01*
X0058629Y0157246D02*
X0059880Y0157246D01*
X0060297Y0156829D01*
X0060297Y0155995D01*
X0059880Y0155578D01*
X0058629Y0155578D01*
X0058629Y0154744D02*
X0058629Y0157246D01*
D11*
X0114346Y0138378D03*
X0114346Y0130898D03*
X0124189Y0130898D03*
X0124189Y0134638D03*
X0124189Y0138378D03*
D12*
X0120575Y0146598D03*
X0113882Y0146598D03*
X0113889Y0156173D03*
X0120582Y0156173D03*
D13*
X0103236Y0155555D03*
X0103236Y0148862D03*
X0103232Y0137898D03*
X0103232Y0131205D03*
X0125929Y0122150D03*
X0132622Y0122150D03*
D14*
X0134767Y0131193D03*
X0134767Y0138083D03*
X0093945Y0138114D03*
X0093945Y0131224D03*
D15*
X0094244Y0123075D03*
X0101134Y0123075D03*
D16*
X0115366Y0100362D03*
D17*
X0115366Y0090362D03*
X0115366Y0080362D03*
X0125366Y0080362D03*
X0125366Y0090362D03*
X0125366Y0100362D03*
D18*
X0127681Y0058193D03*
X0136342Y0057622D03*
X0061067Y0087780D03*
X0038567Y0054650D03*
X0031303Y0054650D03*
X0019807Y0054787D03*
X0025496Y0136343D03*
D19*
X0028724Y0034020D02*
X0028724Y0026343D01*
X0048409Y0026343D02*
X0048409Y0034020D01*
X0068094Y0034020D02*
X0068094Y0026343D01*
X0087779Y0026343D02*
X0087779Y0034020D01*
X0107464Y0034020D02*
X0107464Y0026343D01*
X0127149Y0026343D02*
X0127149Y0034020D01*
D20*
X0068862Y0133665D03*
X0054689Y0133665D03*
X0054689Y0147839D03*
X0068862Y0147839D03*
D21*
X0094728Y0114157D03*
X0094728Y0100378D03*
D22*
X0048035Y0098802D02*
X0048035Y0104002D01*
X0038035Y0104002D02*
X0038035Y0098802D01*
X0028035Y0098802D02*
X0028035Y0104002D01*
D23*
X0026767Y0119315D03*
X0037964Y0119315D03*
X0083638Y0159000D03*
X0094834Y0159000D03*
D24*
X0083921Y0112157D03*
X0083921Y0100961D03*
X0070634Y0073181D03*
X0070634Y0061984D03*
X0058409Y0061807D03*
X0058409Y0073004D03*
X0042641Y0073358D03*
X0042641Y0062161D03*
X0026874Y0061630D03*
X0026874Y0072827D03*
D25*
X0069551Y0087878D03*
X0077031Y0087878D03*
X0073291Y0096539D03*
D26*
X0082130Y0073961D03*
X0093153Y0073961D03*
X0092976Y0060142D03*
X0081952Y0060142D03*
D27*
X0125366Y0090362D02*
X0125468Y0090260D01*
X0132110Y0090260D01*
X0134059Y0092209D01*
X0134059Y0109039D01*
X0125929Y0117169D01*
X0125929Y0122150D01*
X0132622Y0122150D02*
X0134767Y0124295D01*
X0134767Y0131193D01*
X0137964Y0131193D01*
X0140082Y0133311D01*
X0140082Y0142524D01*
X0138134Y0144472D01*
X0130283Y0144472D01*
X0124189Y0138378D01*
X0124189Y0134638D02*
X0127590Y0134638D01*
X0130161Y0137209D01*
X0133893Y0137209D01*
X0134767Y0138083D01*
X0134767Y0131193D02*
X0124484Y0131193D01*
X0124189Y0130898D01*
X0114346Y0130898D02*
X0114039Y0131205D01*
X0103232Y0131205D01*
X0103212Y0131224D01*
X0093945Y0131224D01*
X0094244Y0130925D01*
X0094244Y0123075D01*
X0103232Y0137898D02*
X0103236Y0137902D01*
X0103236Y0148862D01*
X0103236Y0155555D02*
X0113271Y0155555D01*
X0113889Y0156173D01*
X0113882Y0156165D01*
X0113882Y0146598D01*
X0113882Y0138843D01*
X0114346Y0138378D01*
X0114421Y0138453D01*
D28*
X0103586Y0073961D02*
X0093153Y0073961D01*
X0103586Y0073961D02*
X0123872Y0053675D01*
X0123872Y0054384D01*
X0127681Y0058193D01*
X0123872Y0053675D02*
X0127149Y0050398D01*
X0127149Y0030181D01*
X0107464Y0030181D02*
X0107464Y0053783D01*
X0101106Y0060142D01*
X0092976Y0060142D01*
X0082130Y0060319D02*
X0081952Y0060142D01*
D29*
X0015795Y0052862D02*
X0015795Y0009909D01*
X0142716Y0009909D01*
X0142716Y0164390D01*
X0076650Y0164390D01*
X0076661Y0164321D01*
X0076626Y0164272D01*
X0076626Y0151456D01*
X0076229Y0151059D01*
X0072133Y0151059D01*
X0072753Y0150439D01*
X0073452Y0148752D01*
X0073452Y0146926D01*
X0072753Y0145239D01*
X0071462Y0143947D01*
X0069775Y0143249D01*
X0067949Y0143249D01*
X0066262Y0143947D01*
X0064971Y0145239D01*
X0064272Y0146926D01*
X0064272Y0148752D01*
X0064971Y0150439D01*
X0065591Y0151059D01*
X0057959Y0151059D01*
X0058580Y0150439D01*
X0059279Y0148752D01*
X0059279Y0146926D01*
X0058580Y0145239D01*
X0057289Y0143947D01*
X0055602Y0143249D01*
X0053776Y0143249D01*
X0052089Y0143947D01*
X0050797Y0145239D01*
X0050099Y0146926D01*
X0050099Y0148752D01*
X0050797Y0150439D01*
X0051418Y0151059D01*
X0050480Y0151059D01*
X0050431Y0151024D01*
X0050206Y0151059D01*
X0050204Y0151059D01*
X0050093Y0151023D01*
X0050022Y0151059D01*
X0049979Y0151059D01*
X0049936Y0151102D01*
X0049779Y0151127D01*
X0049771Y0151127D01*
X0049769Y0151128D01*
X0049767Y0151129D01*
X0049762Y0151135D01*
X0049648Y0151249D01*
X0049505Y0151322D01*
X0049497Y0151325D01*
X0049496Y0151327D01*
X0049494Y0151328D01*
X0049491Y0151335D01*
X0049418Y0151479D01*
X0049304Y0151593D01*
X0049298Y0151598D01*
X0049297Y0151600D01*
X0049296Y0151602D01*
X0049296Y0151610D01*
X0049271Y0151767D01*
X0049228Y0151810D01*
X0049228Y0151853D01*
X0049192Y0151924D01*
X0049228Y0152035D01*
X0049228Y0152037D01*
X0049193Y0152262D01*
X0049228Y0152311D01*
X0049228Y0164390D01*
X0015795Y0164390D01*
X0015795Y0056713D01*
X0016559Y0058035D01*
X0016559Y0058036D01*
X0016559Y0058036D01*
X0018618Y0059224D01*
X0020996Y0059224D01*
X0022235Y0058509D01*
X0022235Y0059340D01*
X0021425Y0059340D01*
X0017776Y0062990D01*
X0016434Y0064331D01*
X0016434Y0093039D01*
X0024345Y0100950D01*
X0024345Y0104736D01*
X0024477Y0105055D01*
X0024477Y0114676D01*
X0023166Y0114676D01*
X0022528Y0115314D01*
X0022528Y0123316D01*
X0023166Y0123954D01*
X0030369Y0123954D01*
X0031007Y0123316D01*
X0031007Y0115314D01*
X0030369Y0114676D01*
X0029057Y0114676D01*
X0029057Y0107572D01*
X0030125Y0107130D01*
X0031163Y0106092D01*
X0031725Y0104736D01*
X0031725Y0098068D01*
X0031163Y0096711D01*
X0030125Y0095673D01*
X0028769Y0095112D01*
X0027301Y0095112D01*
X0025945Y0095673D01*
X0025745Y0095873D01*
X0021014Y0091142D01*
X0021014Y0066228D01*
X0022235Y0065008D01*
X0022235Y0065231D01*
X0022873Y0065870D01*
X0030874Y0065870D01*
X0031513Y0065231D01*
X0031513Y0058029D01*
X0031192Y0057708D01*
X0031911Y0057708D01*
X0033035Y0057242D01*
X0033896Y0056382D01*
X0034361Y0055258D01*
X0034361Y0054041D01*
X0033896Y0052917D01*
X0033035Y0052057D01*
X0031911Y0051591D01*
X0030694Y0051591D01*
X0029570Y0052057D01*
X0029267Y0052360D01*
X0029164Y0052360D01*
X0029164Y0038948D01*
X0029704Y0038948D01*
X0031516Y0038198D01*
X0032902Y0036811D01*
X0033653Y0035000D01*
X0033653Y0025362D01*
X0032902Y0023551D01*
X0031516Y0022164D01*
X0029704Y0021414D01*
X0027744Y0021414D01*
X0025932Y0022164D01*
X0024546Y0023551D01*
X0023796Y0025362D01*
X0023796Y0035000D01*
X0024546Y0036811D01*
X0024584Y0036849D01*
X0024584Y0057390D01*
X0023427Y0057390D01*
X0024244Y0055976D01*
X0024244Y0053598D01*
X0023055Y0051539D01*
X0023055Y0051539D01*
X0023055Y0051539D01*
X0020996Y0050350D01*
X0018618Y0050350D01*
X0016559Y0051539D01*
X0016559Y0051539D01*
X0016559Y0051539D01*
X0015795Y0052862D01*
X0015795Y0052344D02*
X0016094Y0052344D01*
X0015795Y0051345D02*
X0016894Y0051345D01*
X0015795Y0050347D02*
X0024584Y0050347D01*
X0024584Y0051345D02*
X0022719Y0051345D01*
X0023519Y0052344D02*
X0024584Y0052344D01*
X0024584Y0053342D02*
X0024096Y0053342D01*
X0024244Y0054341D02*
X0024584Y0054341D01*
X0024584Y0055339D02*
X0024244Y0055339D01*
X0024035Y0056338D02*
X0024584Y0056338D01*
X0024584Y0057337D02*
X0023458Y0057337D01*
X0022235Y0059334D02*
X0015795Y0059334D01*
X0015795Y0060332D02*
X0020433Y0060332D01*
X0019435Y0061331D02*
X0015795Y0061331D01*
X0015795Y0062329D02*
X0018436Y0062329D01*
X0017438Y0063328D02*
X0015795Y0063328D01*
X0015795Y0064326D02*
X0016439Y0064326D01*
X0016434Y0065325D02*
X0015795Y0065325D01*
X0015795Y0066323D02*
X0016434Y0066323D01*
X0016434Y0067322D02*
X0015795Y0067322D01*
X0015795Y0068320D02*
X0016434Y0068320D01*
X0016434Y0069319D02*
X0015795Y0069319D01*
X0015795Y0070317D02*
X0016434Y0070317D01*
X0016434Y0071316D02*
X0015795Y0071316D01*
X0015795Y0072314D02*
X0016434Y0072314D01*
X0016434Y0073313D02*
X0015795Y0073313D01*
X0015795Y0074311D02*
X0016434Y0074311D01*
X0016434Y0075310D02*
X0015795Y0075310D01*
X0015795Y0076308D02*
X0016434Y0076308D01*
X0016434Y0077307D02*
X0015795Y0077307D01*
X0015795Y0078305D02*
X0016434Y0078305D01*
X0016434Y0079304D02*
X0015795Y0079304D01*
X0015795Y0080302D02*
X0016434Y0080302D01*
X0016434Y0081301D02*
X0015795Y0081301D01*
X0015795Y0082299D02*
X0016434Y0082299D01*
X0016434Y0083298D02*
X0015795Y0083298D01*
X0015795Y0084296D02*
X0016434Y0084296D01*
X0016434Y0085295D02*
X0015795Y0085295D01*
X0015795Y0086293D02*
X0016434Y0086293D01*
X0016434Y0087292D02*
X0015795Y0087292D01*
X0015795Y0088290D02*
X0016434Y0088290D01*
X0016434Y0089289D02*
X0015795Y0089289D01*
X0015795Y0090287D02*
X0016434Y0090287D01*
X0016434Y0091286D02*
X0015795Y0091286D01*
X0015795Y0092284D02*
X0016434Y0092284D01*
X0016678Y0093283D02*
X0015795Y0093283D01*
X0015795Y0094281D02*
X0017676Y0094281D01*
X0018675Y0095280D02*
X0015795Y0095280D01*
X0015795Y0096278D02*
X0019673Y0096278D01*
X0020672Y0097277D02*
X0015795Y0097277D01*
X0015795Y0098275D02*
X0021670Y0098275D01*
X0022669Y0099274D02*
X0015795Y0099274D01*
X0015795Y0100272D02*
X0023668Y0100272D01*
X0024345Y0101271D02*
X0015795Y0101271D01*
X0015795Y0102270D02*
X0024345Y0102270D01*
X0024345Y0103268D02*
X0015795Y0103268D01*
X0015795Y0104267D02*
X0024345Y0104267D01*
X0024477Y0105265D02*
X0015795Y0105265D01*
X0015795Y0106264D02*
X0024477Y0106264D01*
X0024477Y0107262D02*
X0015795Y0107262D01*
X0015795Y0108261D02*
X0024477Y0108261D01*
X0024477Y0109259D02*
X0015795Y0109259D01*
X0015795Y0110258D02*
X0024477Y0110258D01*
X0024477Y0111256D02*
X0015795Y0111256D01*
X0015795Y0112255D02*
X0024477Y0112255D01*
X0024477Y0113253D02*
X0015795Y0113253D01*
X0015795Y0114252D02*
X0024477Y0114252D01*
X0022592Y0115250D02*
X0015795Y0115250D01*
X0015795Y0116249D02*
X0022528Y0116249D01*
X0022528Y0117247D02*
X0015795Y0117247D01*
X0015795Y0118246D02*
X0022528Y0118246D01*
X0022528Y0119244D02*
X0015795Y0119244D01*
X0015795Y0120243D02*
X0022528Y0120243D01*
X0022528Y0121241D02*
X0015795Y0121241D01*
X0015795Y0122240D02*
X0022528Y0122240D01*
X0022528Y0123238D02*
X0015795Y0123238D01*
X0015795Y0124237D02*
X0055410Y0124237D01*
X0055410Y0125235D02*
X0015795Y0125235D01*
X0015795Y0126234D02*
X0055410Y0126234D01*
X0055410Y0127232D02*
X0015795Y0127232D01*
X0015795Y0128231D02*
X0055410Y0128231D01*
X0055410Y0129075D02*
X0053776Y0129075D01*
X0052089Y0129774D01*
X0050797Y0131065D01*
X0050099Y0132752D01*
X0050099Y0134578D01*
X0050797Y0136265D01*
X0052089Y0137557D01*
X0053776Y0138255D01*
X0055602Y0138255D01*
X0057289Y0137557D01*
X0058580Y0136265D01*
X0059279Y0134578D01*
X0059279Y0132752D01*
X0059150Y0132442D01*
X0059990Y0131602D01*
X0059990Y0117229D01*
X0060159Y0117060D01*
X0060600Y0115994D01*
X0060600Y0114840D01*
X0060159Y0113775D01*
X0059990Y0113606D01*
X0059990Y0095866D01*
X0058649Y0094525D01*
X0052195Y0088071D01*
X0052195Y0062736D01*
X0050854Y0061395D01*
X0049330Y0059871D01*
X0047281Y0059871D01*
X0047281Y0058560D01*
X0046642Y0057922D01*
X0044931Y0057922D01*
X0044931Y0037512D01*
X0045617Y0038198D01*
X0047429Y0038948D01*
X0049390Y0038948D01*
X0051201Y0038198D01*
X0052587Y0036811D01*
X0053338Y0035000D01*
X0053338Y0025362D01*
X0052587Y0023551D01*
X0051201Y0022164D01*
X0049390Y0021414D01*
X0047429Y0021414D01*
X0045617Y0022164D01*
X0044231Y0023551D01*
X0043481Y0025362D01*
X0043481Y0031961D01*
X0041012Y0034498D01*
X0040351Y0035158D01*
X0040351Y0035176D01*
X0040339Y0035189D01*
X0040351Y0036122D01*
X0040351Y0052109D01*
X0040299Y0052057D01*
X0039175Y0051591D01*
X0037958Y0051591D01*
X0036834Y0052057D01*
X0035974Y0052917D01*
X0035508Y0054041D01*
X0035508Y0055258D01*
X0035974Y0056382D01*
X0036834Y0057242D01*
X0037958Y0057708D01*
X0039175Y0057708D01*
X0040299Y0057242D01*
X0040351Y0057190D01*
X0040351Y0057922D01*
X0038641Y0057922D01*
X0038002Y0058560D01*
X0038002Y0065763D01*
X0038641Y0066401D01*
X0046642Y0066401D01*
X0047281Y0065763D01*
X0047281Y0064451D01*
X0047433Y0064451D01*
X0047615Y0064634D01*
X0047615Y0089968D01*
X0055410Y0097764D01*
X0055410Y0113606D01*
X0055242Y0113775D01*
X0054800Y0114840D01*
X0054800Y0115994D01*
X0055242Y0117060D01*
X0055410Y0117229D01*
X0055410Y0129075D01*
X0053404Y0129229D02*
X0015795Y0129229D01*
X0015795Y0130228D02*
X0051635Y0130228D01*
X0050731Y0131226D02*
X0015795Y0131226D01*
X0015795Y0132225D02*
X0023754Y0132225D01*
X0024307Y0131906D02*
X0022248Y0133094D01*
X0022248Y0133094D01*
X0021059Y0135154D01*
X0021059Y0137531D01*
X0022248Y0139591D01*
X0022248Y0139591D01*
X0024307Y0140780D01*
X0024881Y0140780D01*
X0026685Y0140780D01*
X0028744Y0139591D01*
X0028744Y0139591D01*
X0028744Y0139591D01*
X0029933Y0137531D01*
X0029933Y0135154D01*
X0028744Y0133094D01*
X0028744Y0133094D01*
X0028744Y0133094D01*
X0026685Y0131906D01*
X0024307Y0131906D01*
X0022173Y0133223D02*
X0015795Y0133223D01*
X0015795Y0134222D02*
X0021597Y0134222D01*
X0021059Y0135220D02*
X0015795Y0135220D01*
X0015795Y0136219D02*
X0021059Y0136219D01*
X0021059Y0137217D02*
X0015795Y0137217D01*
X0015795Y0138216D02*
X0021454Y0138216D01*
X0022030Y0139214D02*
X0015795Y0139214D01*
X0015795Y0140213D02*
X0023326Y0140213D01*
X0024307Y0140780D02*
X0024307Y0140780D01*
X0022248Y0139591D02*
X0022248Y0139591D01*
X0027666Y0140213D02*
X0072171Y0140213D01*
X0073169Y0141211D02*
X0015795Y0141211D01*
X0015795Y0142210D02*
X0074168Y0142210D01*
X0075166Y0143208D02*
X0015795Y0143208D01*
X0015795Y0144207D02*
X0051829Y0144207D01*
X0050831Y0145205D02*
X0015795Y0145205D01*
X0015795Y0146204D02*
X0050398Y0146204D01*
X0050099Y0147203D02*
X0029886Y0147203D01*
X0030524Y0147467D02*
X0032718Y0149661D01*
X0033905Y0152527D01*
X0033905Y0155630D01*
X0032718Y0158497D01*
X0030524Y0160691D01*
X0027657Y0161878D01*
X0024555Y0161878D01*
X0021688Y0160691D01*
X0019494Y0158497D01*
X0018307Y0155630D01*
X0018307Y0152527D01*
X0019494Y0149661D01*
X0021688Y0147467D01*
X0024555Y0146280D01*
X0027657Y0146280D01*
X0030524Y0147467D01*
X0031258Y0148201D02*
X0050099Y0148201D01*
X0050284Y0149200D02*
X0032257Y0149200D01*
X0032940Y0150198D02*
X0050698Y0150198D01*
X0049701Y0151197D02*
X0033354Y0151197D01*
X0033768Y0152195D02*
X0049203Y0152195D01*
X0049228Y0153194D02*
X0033905Y0153194D01*
X0033905Y0154192D02*
X0049228Y0154192D01*
X0049228Y0155191D02*
X0033905Y0155191D01*
X0033674Y0156189D02*
X0049228Y0156189D01*
X0049228Y0157188D02*
X0033260Y0157188D01*
X0032846Y0158186D02*
X0049228Y0158186D01*
X0049228Y0159185D02*
X0032030Y0159185D01*
X0031031Y0160183D02*
X0049228Y0160183D01*
X0049228Y0161182D02*
X0029338Y0161182D01*
X0022874Y0161182D02*
X0015795Y0161182D01*
X0015795Y0162180D02*
X0049228Y0162180D01*
X0049228Y0163179D02*
X0015795Y0163179D01*
X0015795Y0164177D02*
X0049228Y0164177D01*
X0058680Y0150198D02*
X0064871Y0150198D01*
X0064457Y0149200D02*
X0059093Y0149200D01*
X0059279Y0148201D02*
X0064272Y0148201D01*
X0064272Y0147203D02*
X0059279Y0147203D01*
X0058980Y0146204D02*
X0064571Y0146204D01*
X0065004Y0145205D02*
X0058547Y0145205D01*
X0057548Y0144207D02*
X0066002Y0144207D01*
X0071722Y0144207D02*
X0076165Y0144207D01*
X0077164Y0145205D02*
X0072720Y0145205D01*
X0073153Y0146204D02*
X0078162Y0146204D01*
X0079161Y0147203D02*
X0073452Y0147203D01*
X0073452Y0148201D02*
X0080159Y0148201D01*
X0081158Y0149200D02*
X0073266Y0149200D01*
X0072853Y0150198D02*
X0081348Y0150198D01*
X0081348Y0149389D02*
X0070085Y0138127D01*
X0069775Y0138255D01*
X0067949Y0138255D01*
X0066262Y0137557D01*
X0064971Y0136265D01*
X0064272Y0134578D01*
X0064272Y0132752D01*
X0064712Y0131691D01*
X0063383Y0130362D01*
X0063383Y0103209D01*
X0064724Y0101867D01*
X0070233Y0096359D01*
X0070233Y0093332D01*
X0070871Y0092693D01*
X0075711Y0092693D01*
X0076350Y0093332D01*
X0076350Y0099747D01*
X0075711Y0100385D01*
X0072684Y0100385D01*
X0067963Y0105106D01*
X0067963Y0128465D01*
X0068573Y0129075D01*
X0069775Y0129075D01*
X0071462Y0129774D01*
X0072753Y0131065D01*
X0073452Y0132752D01*
X0073452Y0134578D01*
X0073323Y0134888D01*
X0084586Y0146151D01*
X0085927Y0147492D01*
X0085927Y0154361D01*
X0087239Y0154361D01*
X0087877Y0154999D01*
X0087877Y0163001D01*
X0087239Y0163639D01*
X0080036Y0163639D01*
X0079398Y0163001D01*
X0079398Y0154999D01*
X0080036Y0154361D01*
X0081348Y0154361D01*
X0081348Y0149389D01*
X0081348Y0151197D02*
X0076367Y0151197D01*
X0076626Y0152195D02*
X0081348Y0152195D01*
X0081348Y0153194D02*
X0076626Y0153194D01*
X0076626Y0154192D02*
X0081348Y0154192D01*
X0079398Y0155191D02*
X0076626Y0155191D01*
X0076626Y0156189D02*
X0079398Y0156189D01*
X0079398Y0157188D02*
X0076626Y0157188D01*
X0076626Y0158186D02*
X0079398Y0158186D01*
X0079398Y0159185D02*
X0076626Y0159185D01*
X0076626Y0160183D02*
X0079398Y0160183D01*
X0079398Y0161182D02*
X0076626Y0161182D01*
X0076626Y0162180D02*
X0079398Y0162180D01*
X0079576Y0163179D02*
X0076626Y0163179D01*
X0076626Y0164177D02*
X0142716Y0164177D01*
X0142716Y0163179D02*
X0099353Y0163179D01*
X0099382Y0163128D02*
X0099184Y0163470D01*
X0098905Y0163749D01*
X0098563Y0163947D01*
X0098181Y0164049D01*
X0095334Y0164049D01*
X0095334Y0159500D01*
X0094334Y0159500D01*
X0094334Y0158500D01*
X0090185Y0158500D01*
X0090185Y0155253D01*
X0090287Y0154872D01*
X0090484Y0154530D01*
X0090764Y0154250D01*
X0091106Y0154053D01*
X0091487Y0153951D01*
X0094334Y0153951D01*
X0094334Y0158500D01*
X0095334Y0158500D01*
X0095334Y0153951D01*
X0098181Y0153951D01*
X0098563Y0154053D01*
X0098905Y0154250D01*
X0099184Y0154530D01*
X0099382Y0154872D01*
X0099484Y0155253D01*
X0099484Y0158500D01*
X0095334Y0158500D01*
X0095334Y0159500D01*
X0099484Y0159500D01*
X0099484Y0162747D01*
X0099382Y0163128D01*
X0099484Y0162180D02*
X0142716Y0162180D01*
X0142716Y0161182D02*
X0135638Y0161182D01*
X0136823Y0160691D02*
X0133957Y0161878D01*
X0130854Y0161878D01*
X0127987Y0160691D01*
X0125793Y0158497D01*
X0124606Y0155630D01*
X0124606Y0152527D01*
X0125793Y0149661D01*
X0127987Y0147467D01*
X0130654Y0146362D01*
X0129500Y0146362D01*
X0123688Y0140551D01*
X0121375Y0140551D01*
X0120736Y0139912D01*
X0120736Y0136844D01*
X0120782Y0136798D01*
X0120626Y0136641D01*
X0120429Y0136299D01*
X0120326Y0135918D01*
X0120326Y0134679D01*
X0124147Y0134679D01*
X0124147Y0134596D01*
X0120326Y0134596D01*
X0120326Y0133358D01*
X0120429Y0132976D01*
X0120626Y0132634D01*
X0120782Y0132478D01*
X0120736Y0132432D01*
X0120736Y0129363D01*
X0121375Y0128725D01*
X0127002Y0128725D01*
X0127580Y0129303D01*
X0131551Y0129303D01*
X0131551Y0128674D01*
X0132190Y0128036D01*
X0132877Y0128036D01*
X0132877Y0125208D01*
X0130005Y0125208D01*
X0129366Y0124570D01*
X0129366Y0119730D01*
X0130005Y0119091D01*
X0135239Y0119091D01*
X0135877Y0119730D01*
X0135877Y0122732D01*
X0136657Y0123512D01*
X0136657Y0128036D01*
X0137345Y0128036D01*
X0137983Y0128674D01*
X0137983Y0129303D01*
X0138747Y0129303D01*
X0140865Y0131421D01*
X0141972Y0132528D01*
X0141972Y0143306D01*
X0140024Y0145255D01*
X0138916Y0146362D01*
X0134157Y0146362D01*
X0136823Y0147467D01*
X0139017Y0149661D01*
X0140204Y0152527D01*
X0140204Y0155630D01*
X0139017Y0158497D01*
X0136823Y0160691D01*
X0137331Y0160183D02*
X0142716Y0160183D01*
X0142716Y0159185D02*
X0138329Y0159185D01*
X0139146Y0158186D02*
X0142716Y0158186D01*
X0142716Y0157188D02*
X0139559Y0157188D01*
X0139973Y0156189D02*
X0142716Y0156189D01*
X0142716Y0155191D02*
X0140204Y0155191D01*
X0140204Y0154192D02*
X0142716Y0154192D01*
X0142716Y0153194D02*
X0140204Y0153194D01*
X0140067Y0152195D02*
X0142716Y0152195D01*
X0142716Y0151197D02*
X0139653Y0151197D01*
X0139240Y0150198D02*
X0142716Y0150198D01*
X0142716Y0149200D02*
X0138556Y0149200D01*
X0137557Y0148201D02*
X0142716Y0148201D01*
X0142716Y0147203D02*
X0136185Y0147203D01*
X0139075Y0146204D02*
X0142716Y0146204D01*
X0142716Y0145205D02*
X0140073Y0145205D01*
X0141072Y0144207D02*
X0142716Y0144207D01*
X0142716Y0143208D02*
X0141972Y0143208D01*
X0141972Y0142210D02*
X0142716Y0142210D01*
X0142716Y0141211D02*
X0141972Y0141211D01*
X0141972Y0140213D02*
X0142716Y0140213D01*
X0142716Y0139214D02*
X0141972Y0139214D01*
X0141972Y0138216D02*
X0142716Y0138216D01*
X0142716Y0137217D02*
X0141972Y0137217D01*
X0141972Y0136219D02*
X0142716Y0136219D01*
X0142716Y0135220D02*
X0141972Y0135220D01*
X0141972Y0134222D02*
X0142716Y0134222D01*
X0142716Y0133223D02*
X0141972Y0133223D01*
X0141669Y0132225D02*
X0142716Y0132225D01*
X0142716Y0131226D02*
X0140671Y0131226D01*
X0139672Y0130228D02*
X0142716Y0130228D01*
X0142716Y0129229D02*
X0137983Y0129229D01*
X0137540Y0128231D02*
X0142716Y0128231D01*
X0142716Y0127232D02*
X0136657Y0127232D01*
X0136657Y0126234D02*
X0142716Y0126234D01*
X0142716Y0125235D02*
X0136657Y0125235D01*
X0136657Y0124237D02*
X0142716Y0124237D01*
X0142716Y0123238D02*
X0136383Y0123238D01*
X0135877Y0122240D02*
X0142716Y0122240D01*
X0142716Y0121241D02*
X0135877Y0121241D01*
X0135877Y0120243D02*
X0142716Y0120243D01*
X0142716Y0119244D02*
X0135392Y0119244D01*
X0129852Y0119244D02*
X0128699Y0119244D01*
X0128546Y0119091D02*
X0129184Y0119730D01*
X0129184Y0124570D01*
X0128546Y0125208D01*
X0123312Y0125208D01*
X0122673Y0124570D01*
X0122673Y0119730D01*
X0123312Y0119091D01*
X0124039Y0119091D01*
X0124039Y0116386D01*
X0132169Y0108256D01*
X0132169Y0092992D01*
X0131327Y0092150D01*
X0129810Y0092150D01*
X0129427Y0093076D01*
X0128079Y0094423D01*
X0126319Y0095152D01*
X0124413Y0095152D01*
X0122653Y0094423D01*
X0121305Y0093076D01*
X0120576Y0091315D01*
X0120576Y0089409D01*
X0121305Y0087649D01*
X0122653Y0086301D01*
X0124413Y0085572D01*
X0126319Y0085572D01*
X0128079Y0086301D01*
X0129427Y0087649D01*
X0129725Y0088370D01*
X0132893Y0088370D01*
X0134000Y0089477D01*
X0135949Y0091426D01*
X0135949Y0109822D01*
X0134842Y0110929D01*
X0127819Y0117952D01*
X0127819Y0119091D01*
X0128546Y0119091D01*
X0127819Y0118246D02*
X0142716Y0118246D01*
X0142716Y0117247D02*
X0128524Y0117247D01*
X0129522Y0116249D02*
X0142716Y0116249D01*
X0142716Y0115250D02*
X0130521Y0115250D01*
X0131519Y0114252D02*
X0142716Y0114252D01*
X0142716Y0113253D02*
X0132518Y0113253D01*
X0133516Y0112255D02*
X0142716Y0112255D01*
X0142716Y0111256D02*
X0134515Y0111256D01*
X0135513Y0110258D02*
X0142716Y0110258D01*
X0142716Y0109259D02*
X0135949Y0109259D01*
X0135949Y0108261D02*
X0142716Y0108261D01*
X0142716Y0107262D02*
X0135949Y0107262D01*
X0135949Y0106264D02*
X0142716Y0106264D01*
X0142716Y0105265D02*
X0135949Y0105265D01*
X0135949Y0104267D02*
X0142716Y0104267D01*
X0142716Y0103268D02*
X0135949Y0103268D01*
X0135949Y0102270D02*
X0142716Y0102270D01*
X0142716Y0101271D02*
X0135949Y0101271D01*
X0135949Y0100272D02*
X0142716Y0100272D01*
X0142716Y0099274D02*
X0135949Y0099274D01*
X0135949Y0098275D02*
X0142716Y0098275D01*
X0142716Y0097277D02*
X0135949Y0097277D01*
X0135949Y0096278D02*
X0142716Y0096278D01*
X0142716Y0095280D02*
X0135949Y0095280D01*
X0135949Y0094281D02*
X0142716Y0094281D01*
X0142716Y0093283D02*
X0135949Y0093283D01*
X0135949Y0092284D02*
X0142716Y0092284D01*
X0142716Y0091286D02*
X0135809Y0091286D01*
X0134810Y0090287D02*
X0142716Y0090287D01*
X0142716Y0089289D02*
X0133812Y0089289D01*
X0131462Y0092284D02*
X0129754Y0092284D01*
X0129219Y0093283D02*
X0132169Y0093283D01*
X0132169Y0094281D02*
X0128221Y0094281D01*
X0128024Y0096278D02*
X0132169Y0096278D01*
X0132169Y0095280D02*
X0119672Y0095280D01*
X0119645Y0095264D02*
X0119987Y0095462D01*
X0120266Y0095741D01*
X0120464Y0096083D01*
X0120566Y0096465D01*
X0120566Y0099862D01*
X0115866Y0099862D01*
X0115866Y0095162D01*
X0119263Y0095162D01*
X0119645Y0095264D01*
X0120516Y0096278D02*
X0122708Y0096278D01*
X0122653Y0096301D02*
X0124413Y0095572D01*
X0126319Y0095572D01*
X0128079Y0096301D01*
X0129427Y0097649D01*
X0130156Y0099409D01*
X0130156Y0101315D01*
X0129427Y0103076D01*
X0128079Y0104423D01*
X0127845Y0104520D01*
X0127845Y0105913D01*
X0120046Y0113712D01*
X0119687Y0114580D01*
X0118871Y0115395D01*
X0117805Y0115837D01*
X0116651Y0115837D01*
X0115585Y0115395D01*
X0114770Y0114580D01*
X0114328Y0113514D01*
X0114328Y0112360D01*
X0114770Y0111294D01*
X0115585Y0110479D01*
X0116651Y0110037D01*
X0117244Y0110037D01*
X0122798Y0104483D01*
X0122653Y0104423D01*
X0121305Y0103076D01*
X0120576Y0101315D01*
X0120576Y0099409D01*
X0121305Y0097649D01*
X0122653Y0096301D01*
X0121677Y0097277D02*
X0120566Y0097277D01*
X0120566Y0098275D02*
X0121046Y0098275D01*
X0120632Y0099274D02*
X0120566Y0099274D01*
X0120576Y0100272D02*
X0115866Y0100272D01*
X0115866Y0099862D02*
X0115866Y0100862D01*
X0120566Y0100862D01*
X0120566Y0104260D01*
X0120464Y0104641D01*
X0120266Y0104983D01*
X0119987Y0105262D01*
X0119645Y0105460D01*
X0119263Y0105562D01*
X0115866Y0105562D01*
X0115866Y0100862D01*
X0114866Y0100862D01*
X0114866Y0099862D01*
X0115866Y0099862D01*
X0115866Y0099274D02*
X0114866Y0099274D01*
X0114866Y0099862D02*
X0114866Y0095162D01*
X0111468Y0095162D01*
X0111087Y0095264D01*
X0110745Y0095462D01*
X0110466Y0095741D01*
X0110268Y0096083D01*
X0110166Y0096465D01*
X0110166Y0099862D01*
X0114866Y0099862D01*
X0114866Y0100272D02*
X0095228Y0100272D01*
X0095228Y0099878D02*
X0095228Y0100878D01*
X0094228Y0100878D01*
X0094228Y0104831D01*
X0091578Y0104831D01*
X0091196Y0104728D01*
X0090854Y0104531D01*
X0090575Y0104252D01*
X0090378Y0103910D01*
X0090275Y0103528D01*
X0090275Y0100878D01*
X0094228Y0100878D01*
X0094228Y0099878D01*
X0090275Y0099878D01*
X0090275Y0097228D01*
X0090378Y0096846D01*
X0090575Y0096504D01*
X0090854Y0096225D01*
X0091196Y0096027D01*
X0091578Y0095925D01*
X0094228Y0095925D01*
X0094228Y0099878D01*
X0095228Y0099878D01*
X0099181Y0099878D01*
X0099181Y0097228D01*
X0099079Y0096846D01*
X0098881Y0096504D01*
X0098602Y0096225D01*
X0098260Y0096027D01*
X0097878Y0095925D01*
X0095228Y0095925D01*
X0095228Y0099878D01*
X0095228Y0099274D02*
X0094228Y0099274D01*
X0094228Y0100272D02*
X0088560Y0100272D01*
X0088560Y0099274D02*
X0090275Y0099274D01*
X0090275Y0098275D02*
X0088560Y0098275D01*
X0088560Y0097360D02*
X0087922Y0096721D01*
X0086211Y0096721D01*
X0086211Y0096169D01*
X0087980Y0094400D01*
X0088218Y0094400D01*
X0089284Y0093958D01*
X0090100Y0093143D01*
X0090541Y0092077D01*
X0090541Y0091839D01*
X0092941Y0089439D01*
X0093179Y0089439D01*
X0094245Y0088998D01*
X0095061Y0088182D01*
X0095502Y0087116D01*
X0095502Y0085963D01*
X0095061Y0084897D01*
X0094892Y0084728D01*
X0094892Y0078594D01*
X0096754Y0078594D01*
X0097393Y0077955D01*
X0097393Y0076651D01*
X0104121Y0076651D01*
X0105110Y0076241D01*
X0105867Y0075484D01*
X0105867Y0075484D01*
X0123517Y0057834D01*
X0124719Y0059036D01*
X0125088Y0059925D01*
X0125948Y0060786D01*
X0127072Y0061251D01*
X0128289Y0061251D01*
X0129413Y0060786D01*
X0130274Y0059925D01*
X0130739Y0058801D01*
X0130739Y0057585D01*
X0130274Y0056460D01*
X0129413Y0055600D01*
X0128524Y0055232D01*
X0127322Y0054030D01*
X0128673Y0052678D01*
X0128673Y0052678D01*
X0129430Y0051921D01*
X0129839Y0050933D01*
X0129839Y0038240D01*
X0129941Y0038198D01*
X0131328Y0036811D01*
X0132078Y0035000D01*
X0132078Y0025362D01*
X0131328Y0023551D01*
X0129941Y0022164D01*
X0128130Y0021414D01*
X0126169Y0021414D01*
X0124357Y0022164D01*
X0122971Y0023551D01*
X0122221Y0025362D01*
X0122221Y0035000D01*
X0122971Y0036811D01*
X0124357Y0038198D01*
X0124459Y0038240D01*
X0124459Y0049283D01*
X0122348Y0051395D01*
X0122348Y0051395D01*
X0121591Y0052151D01*
X0121591Y0052151D01*
X0102472Y0071271D01*
X0097393Y0071271D01*
X0097393Y0069966D01*
X0096754Y0069327D01*
X0089552Y0069327D01*
X0088914Y0069966D01*
X0088914Y0077955D01*
X0089552Y0078594D01*
X0090312Y0078594D01*
X0090312Y0084728D01*
X0090144Y0084897D01*
X0089702Y0085963D01*
X0089702Y0086201D01*
X0087303Y0088600D01*
X0087065Y0088600D01*
X0085999Y0089041D01*
X0085183Y0089857D01*
X0084741Y0090923D01*
X0084741Y0091161D01*
X0081631Y0094272D01*
X0081631Y0096721D01*
X0079920Y0096721D01*
X0079282Y0097360D01*
X0079282Y0100164D01*
X0071988Y0107458D01*
X0070647Y0108799D01*
X0070647Y0117783D01*
X0076848Y0123984D01*
X0078189Y0125325D01*
X0091087Y0125325D01*
X0091087Y0125652D01*
X0091725Y0126291D01*
X0092354Y0126291D01*
X0092354Y0128067D01*
X0091367Y0128067D01*
X0090729Y0128706D01*
X0090729Y0133743D01*
X0091367Y0134381D01*
X0096522Y0134381D01*
X0097161Y0133743D01*
X0097161Y0133114D01*
X0099977Y0133114D01*
X0099977Y0133625D01*
X0100615Y0134263D01*
X0105849Y0134263D01*
X0106487Y0133625D01*
X0106487Y0133095D01*
X0114822Y0133095D01*
X0114846Y0133070D01*
X0117160Y0133070D01*
X0117798Y0132432D01*
X0117798Y0129363D01*
X0117160Y0128725D01*
X0111532Y0128725D01*
X0110943Y0129315D01*
X0106487Y0129315D01*
X0106487Y0128785D01*
X0105849Y0128146D01*
X0100615Y0128146D01*
X0099977Y0128785D01*
X0099977Y0129334D01*
X0097161Y0129334D01*
X0097161Y0128706D01*
X0096522Y0128067D01*
X0096134Y0128067D01*
X0096134Y0126291D01*
X0096762Y0126291D01*
X0097401Y0125652D01*
X0097401Y0120497D01*
X0096762Y0119859D01*
X0091725Y0119859D01*
X0091087Y0120497D01*
X0091087Y0120745D01*
X0080086Y0120745D01*
X0075227Y0115886D01*
X0075227Y0110697D01*
X0080723Y0105200D01*
X0087922Y0105200D01*
X0088560Y0104562D01*
X0088560Y0097360D01*
X0088478Y0097277D02*
X0090275Y0097277D01*
X0090801Y0096278D02*
X0086211Y0096278D01*
X0087100Y0095280D02*
X0111060Y0095280D01*
X0110216Y0096278D02*
X0098655Y0096278D01*
X0099181Y0097277D02*
X0110166Y0097277D01*
X0110166Y0098275D02*
X0099181Y0098275D01*
X0099181Y0099274D02*
X0110166Y0099274D01*
X0110166Y0100862D02*
X0114866Y0100862D01*
X0114866Y0105562D01*
X0111468Y0105562D01*
X0111087Y0105460D01*
X0110745Y0105262D01*
X0110466Y0104983D01*
X0110268Y0104641D01*
X0110166Y0104260D01*
X0110166Y0100862D01*
X0110166Y0101271D02*
X0099181Y0101271D01*
X0099181Y0100878D02*
X0099181Y0103528D01*
X0099079Y0103910D01*
X0098881Y0104252D01*
X0098602Y0104531D01*
X0098260Y0104728D01*
X0097878Y0104831D01*
X0095228Y0104831D01*
X0095228Y0100878D01*
X0099181Y0100878D01*
X0099181Y0102270D02*
X0110166Y0102270D01*
X0110166Y0103268D02*
X0099181Y0103268D01*
X0098866Y0104267D02*
X0110168Y0104267D01*
X0110749Y0105265D02*
X0080658Y0105265D01*
X0079660Y0106264D02*
X0121017Y0106264D01*
X0120019Y0107262D02*
X0078661Y0107262D01*
X0079578Y0108261D02*
X0077663Y0108261D01*
X0076664Y0109259D02*
X0079282Y0109259D01*
X0079282Y0108556D02*
X0079920Y0107918D01*
X0087922Y0107918D01*
X0088560Y0108556D01*
X0088560Y0109938D01*
X0090716Y0109938D01*
X0091108Y0110330D01*
X0091324Y0110115D01*
X0098132Y0110115D01*
X0098771Y0110753D01*
X0098771Y0117562D01*
X0098132Y0118200D01*
X0091324Y0118200D01*
X0090685Y0117562D01*
X0090685Y0116385D01*
X0088819Y0114518D01*
X0088560Y0114518D01*
X0088560Y0115759D01*
X0087922Y0116397D01*
X0079920Y0116397D01*
X0079282Y0115759D01*
X0079282Y0108556D01*
X0079282Y0110258D02*
X0075666Y0110258D01*
X0075227Y0111256D02*
X0079282Y0111256D01*
X0079282Y0112255D02*
X0075227Y0112255D01*
X0075227Y0113253D02*
X0079282Y0113253D01*
X0079282Y0114252D02*
X0075227Y0114252D01*
X0075227Y0115250D02*
X0079282Y0115250D01*
X0079772Y0116249D02*
X0075589Y0116249D01*
X0076588Y0117247D02*
X0090685Y0117247D01*
X0090549Y0116249D02*
X0088070Y0116249D01*
X0088560Y0115250D02*
X0089551Y0115250D01*
X0091341Y0120243D02*
X0079583Y0120243D01*
X0078585Y0119244D02*
X0123159Y0119244D01*
X0122673Y0120243D02*
X0104525Y0120243D01*
X0104598Y0120370D02*
X0104700Y0120751D01*
X0104700Y0122575D01*
X0101634Y0122575D01*
X0101634Y0123575D01*
X0104700Y0123575D01*
X0104700Y0125398D01*
X0104598Y0125780D01*
X0104401Y0126122D01*
X0104122Y0126401D01*
X0103779Y0126599D01*
X0103398Y0126701D01*
X0101634Y0126701D01*
X0101634Y0123575D01*
X0100634Y0123575D01*
X0100634Y0126701D01*
X0098869Y0126701D01*
X0098488Y0126599D01*
X0098146Y0126401D01*
X0097866Y0126122D01*
X0097669Y0125780D01*
X0097567Y0125398D01*
X0097567Y0123575D01*
X0100634Y0123575D01*
X0100634Y0122575D01*
X0101634Y0122575D01*
X0101634Y0119449D01*
X0103398Y0119449D01*
X0103779Y0119551D01*
X0104122Y0119749D01*
X0104401Y0120028D01*
X0104598Y0120370D01*
X0104700Y0121241D02*
X0122673Y0121241D01*
X0122673Y0122240D02*
X0104700Y0122240D01*
X0104700Y0124237D02*
X0122673Y0124237D01*
X0122673Y0123238D02*
X0101634Y0123238D01*
X0101634Y0122240D02*
X0100634Y0122240D01*
X0100634Y0122575D02*
X0100634Y0119449D01*
X0098869Y0119449D01*
X0098488Y0119551D01*
X0098146Y0119749D01*
X0097866Y0120028D01*
X0097669Y0120370D01*
X0097567Y0120751D01*
X0097567Y0122575D01*
X0100634Y0122575D01*
X0100634Y0123238D02*
X0097401Y0123238D01*
X0097401Y0122240D02*
X0097567Y0122240D01*
X0097567Y0121241D02*
X0097401Y0121241D01*
X0097146Y0120243D02*
X0097742Y0120243D01*
X0100634Y0120243D02*
X0101634Y0120243D01*
X0101634Y0121241D02*
X0100634Y0121241D01*
X0100634Y0124237D02*
X0101634Y0124237D01*
X0101634Y0125235D02*
X0100634Y0125235D01*
X0100634Y0126234D02*
X0101634Y0126234D01*
X0100531Y0128231D02*
X0096685Y0128231D01*
X0097161Y0129229D02*
X0099977Y0129229D01*
X0097978Y0126234D02*
X0096819Y0126234D01*
X0097401Y0125235D02*
X0097567Y0125235D01*
X0097567Y0124237D02*
X0097401Y0124237D01*
X0096134Y0127232D02*
X0132877Y0127232D01*
X0132877Y0126234D02*
X0104289Y0126234D01*
X0104700Y0125235D02*
X0132877Y0125235D01*
X0131995Y0128231D02*
X0105933Y0128231D01*
X0106487Y0129229D02*
X0111028Y0129229D01*
X0106487Y0133223D02*
X0120362Y0133223D01*
X0120326Y0134222D02*
X0105890Y0134222D01*
X0105849Y0134839D02*
X0106487Y0135478D01*
X0106487Y0140318D01*
X0105849Y0140956D01*
X0105126Y0140956D01*
X0105126Y0145804D01*
X0105853Y0145804D01*
X0106491Y0146442D01*
X0106491Y0151282D01*
X0105853Y0151921D01*
X0100619Y0151921D01*
X0099981Y0151282D01*
X0099981Y0146442D01*
X0100619Y0145804D01*
X0101346Y0145804D01*
X0101346Y0140956D01*
X0100615Y0140956D01*
X0099977Y0140318D01*
X0099977Y0135478D01*
X0100615Y0134839D01*
X0105849Y0134839D01*
X0106230Y0135220D02*
X0120326Y0135220D01*
X0120407Y0136219D02*
X0117173Y0136219D01*
X0117160Y0136205D02*
X0117798Y0136844D01*
X0117798Y0139912D01*
X0117160Y0140551D01*
X0115772Y0140551D01*
X0115772Y0143343D01*
X0116302Y0143343D01*
X0116940Y0143982D01*
X0116940Y0149215D01*
X0116302Y0149854D01*
X0115772Y0149854D01*
X0115772Y0152918D01*
X0116309Y0152918D01*
X0116948Y0153556D01*
X0116948Y0158790D01*
X0116309Y0159429D01*
X0111469Y0159429D01*
X0110831Y0158790D01*
X0110831Y0157445D01*
X0106491Y0157445D01*
X0106491Y0157975D01*
X0105853Y0158614D01*
X0100619Y0158614D01*
X0099981Y0157975D01*
X0099981Y0153135D01*
X0100619Y0152497D01*
X0105853Y0152497D01*
X0106491Y0153135D01*
X0106491Y0153665D01*
X0110831Y0153665D01*
X0110831Y0153556D01*
X0111469Y0152918D01*
X0111992Y0152918D01*
X0111992Y0149854D01*
X0111462Y0149854D01*
X0110823Y0149215D01*
X0110823Y0143982D01*
X0111462Y0143343D01*
X0111992Y0143343D01*
X0111992Y0140551D01*
X0111532Y0140551D01*
X0110894Y0139912D01*
X0110894Y0136844D01*
X0111532Y0136205D01*
X0117160Y0136205D01*
X0117798Y0137217D02*
X0120736Y0137217D01*
X0120736Y0138216D02*
X0117798Y0138216D01*
X0117798Y0139214D02*
X0120736Y0139214D01*
X0121037Y0140213D02*
X0117498Y0140213D01*
X0115772Y0141211D02*
X0124349Y0141211D01*
X0125348Y0142210D02*
X0115772Y0142210D01*
X0115772Y0143208D02*
X0117727Y0143208D01*
X0117685Y0143233D02*
X0118027Y0143035D01*
X0118409Y0142933D01*
X0120090Y0142933D01*
X0120090Y0146114D01*
X0117106Y0146114D01*
X0117106Y0144236D01*
X0117208Y0143854D01*
X0117406Y0143512D01*
X0117685Y0143233D01*
X0117114Y0144207D02*
X0116940Y0144207D01*
X0116940Y0145205D02*
X0117106Y0145205D01*
X0116940Y0146204D02*
X0120090Y0146204D01*
X0120090Y0146114D02*
X0120090Y0147083D01*
X0120090Y0150264D01*
X0118409Y0150264D01*
X0118027Y0150162D01*
X0117685Y0149964D01*
X0117406Y0149685D01*
X0117208Y0149343D01*
X0117106Y0148961D01*
X0117106Y0147083D01*
X0120090Y0147083D01*
X0121059Y0147083D01*
X0121059Y0150264D01*
X0122740Y0150264D01*
X0123122Y0150162D01*
X0123464Y0149964D01*
X0123743Y0149685D01*
X0123941Y0149343D01*
X0124043Y0148961D01*
X0124043Y0147083D01*
X0121059Y0147083D01*
X0121059Y0146114D01*
X0124043Y0146114D01*
X0124043Y0144236D01*
X0123941Y0143854D01*
X0123743Y0143512D01*
X0123464Y0143233D01*
X0123122Y0143035D01*
X0122740Y0142933D01*
X0121059Y0142933D01*
X0121059Y0146114D01*
X0120090Y0146114D01*
X0120090Y0145205D02*
X0121059Y0145205D01*
X0121059Y0144207D02*
X0120090Y0144207D01*
X0120090Y0143208D02*
X0121059Y0143208D01*
X0123422Y0143208D02*
X0126346Y0143208D01*
X0127345Y0144207D02*
X0124035Y0144207D01*
X0124043Y0145205D02*
X0128343Y0145205D01*
X0129342Y0146204D02*
X0121059Y0146204D01*
X0121059Y0147203D02*
X0120090Y0147203D01*
X0120090Y0148201D02*
X0121059Y0148201D01*
X0121059Y0149200D02*
X0120090Y0149200D01*
X0120090Y0150198D02*
X0121059Y0150198D01*
X0122986Y0150198D02*
X0125571Y0150198D01*
X0125157Y0151197D02*
X0115772Y0151197D01*
X0115772Y0152195D02*
X0124744Y0152195D01*
X0124606Y0153194D02*
X0123813Y0153194D01*
X0123751Y0153087D02*
X0123949Y0153429D01*
X0124051Y0153810D01*
X0124051Y0155689D01*
X0121067Y0155689D01*
X0121067Y0156657D01*
X0124051Y0156657D01*
X0124051Y0158536D01*
X0123949Y0158918D01*
X0123751Y0159260D01*
X0123472Y0159539D01*
X0123130Y0159736D01*
X0122748Y0159839D01*
X0121067Y0159839D01*
X0121067Y0156658D01*
X0120098Y0156658D01*
X0120098Y0159839D01*
X0118416Y0159839D01*
X0118035Y0159736D01*
X0117693Y0159539D01*
X0117414Y0159260D01*
X0117216Y0158918D01*
X0117114Y0158536D01*
X0117114Y0156657D01*
X0120098Y0156657D01*
X0120098Y0155689D01*
X0117114Y0155689D01*
X0117114Y0153810D01*
X0117216Y0153429D01*
X0117414Y0153087D01*
X0117693Y0152808D01*
X0118035Y0152610D01*
X0118416Y0152508D01*
X0120098Y0152508D01*
X0120098Y0155689D01*
X0121067Y0155689D01*
X0121067Y0152508D01*
X0122748Y0152508D01*
X0123130Y0152610D01*
X0123472Y0152808D01*
X0123751Y0153087D01*
X0124051Y0154192D02*
X0124606Y0154192D01*
X0124606Y0155191D02*
X0124051Y0155191D01*
X0124838Y0156189D02*
X0121067Y0156189D01*
X0120098Y0156189D02*
X0116948Y0156189D01*
X0116948Y0155191D02*
X0117114Y0155191D01*
X0117114Y0154192D02*
X0116948Y0154192D01*
X0116585Y0153194D02*
X0117352Y0153194D01*
X0120098Y0153194D02*
X0121067Y0153194D01*
X0121067Y0154192D02*
X0120098Y0154192D01*
X0120098Y0155191D02*
X0121067Y0155191D01*
X0121067Y0157188D02*
X0120098Y0157188D01*
X0120098Y0158186D02*
X0121067Y0158186D01*
X0121067Y0159185D02*
X0120098Y0159185D01*
X0117370Y0159185D02*
X0116553Y0159185D01*
X0116948Y0158186D02*
X0117114Y0158186D01*
X0117114Y0157188D02*
X0116948Y0157188D01*
X0111226Y0159185D02*
X0095334Y0159185D01*
X0095334Y0160183D02*
X0094334Y0160183D01*
X0094334Y0159500D02*
X0094334Y0164049D01*
X0091487Y0164049D01*
X0091106Y0163947D01*
X0090764Y0163749D01*
X0090484Y0163470D01*
X0090287Y0163128D01*
X0090185Y0162747D01*
X0090185Y0159500D01*
X0094334Y0159500D01*
X0094334Y0159185D02*
X0087877Y0159185D01*
X0087877Y0160183D02*
X0090185Y0160183D01*
X0090185Y0161182D02*
X0087877Y0161182D01*
X0087877Y0162180D02*
X0090185Y0162180D01*
X0090316Y0163179D02*
X0087699Y0163179D01*
X0087877Y0158186D02*
X0090185Y0158186D01*
X0090185Y0157188D02*
X0087877Y0157188D01*
X0087877Y0156189D02*
X0090185Y0156189D01*
X0090202Y0155191D02*
X0087877Y0155191D01*
X0085927Y0154192D02*
X0090865Y0154192D01*
X0094334Y0154192D02*
X0095334Y0154192D01*
X0095334Y0155191D02*
X0094334Y0155191D01*
X0094334Y0156189D02*
X0095334Y0156189D01*
X0095334Y0157188D02*
X0094334Y0157188D01*
X0094334Y0158186D02*
X0095334Y0158186D01*
X0095334Y0161182D02*
X0094334Y0161182D01*
X0094334Y0162180D02*
X0095334Y0162180D01*
X0095334Y0163179D02*
X0094334Y0163179D01*
X0099484Y0161182D02*
X0129173Y0161182D01*
X0127480Y0160183D02*
X0099484Y0160183D01*
X0099484Y0158186D02*
X0100192Y0158186D01*
X0099981Y0157188D02*
X0099484Y0157188D01*
X0099484Y0156189D02*
X0099981Y0156189D01*
X0099981Y0155191D02*
X0099467Y0155191D01*
X0099981Y0154192D02*
X0098804Y0154192D01*
X0099981Y0153194D02*
X0085927Y0153194D01*
X0085927Y0152195D02*
X0111992Y0152195D01*
X0111992Y0151197D02*
X0106491Y0151197D01*
X0106491Y0150198D02*
X0111992Y0150198D01*
X0110823Y0149200D02*
X0106491Y0149200D01*
X0106491Y0148201D02*
X0110823Y0148201D01*
X0110823Y0147203D02*
X0106491Y0147203D01*
X0106253Y0146204D02*
X0110823Y0146204D01*
X0110823Y0145205D02*
X0105126Y0145205D01*
X0105126Y0144207D02*
X0110823Y0144207D01*
X0111992Y0143208D02*
X0105126Y0143208D01*
X0105126Y0142210D02*
X0111992Y0142210D01*
X0111992Y0141211D02*
X0105126Y0141211D01*
X0106487Y0140213D02*
X0111195Y0140213D01*
X0110894Y0139214D02*
X0106487Y0139214D01*
X0106487Y0138216D02*
X0110894Y0138216D01*
X0110894Y0137217D02*
X0106487Y0137217D01*
X0106487Y0136219D02*
X0111519Y0136219D01*
X0117798Y0132225D02*
X0120736Y0132225D01*
X0120736Y0131226D02*
X0117798Y0131226D01*
X0117798Y0130228D02*
X0120736Y0130228D01*
X0120871Y0129229D02*
X0117664Y0129229D01*
X0124230Y0134596D02*
X0124230Y0134679D01*
X0128051Y0134679D01*
X0128051Y0135918D01*
X0127949Y0136299D01*
X0127751Y0136641D01*
X0127595Y0136798D01*
X0127641Y0136844D01*
X0127641Y0139157D01*
X0131066Y0142582D01*
X0137351Y0142582D01*
X0138192Y0141741D01*
X0138192Y0140900D01*
X0138094Y0141071D01*
X0137814Y0141350D01*
X0137472Y0141547D01*
X0137091Y0141650D01*
X0135267Y0141650D01*
X0135267Y0138583D01*
X0134267Y0138583D01*
X0134267Y0141650D01*
X0132444Y0141650D01*
X0132062Y0141547D01*
X0131720Y0141350D01*
X0131441Y0141071D01*
X0131244Y0140729D01*
X0131141Y0140347D01*
X0131141Y0138583D01*
X0134267Y0138583D01*
X0134267Y0137583D01*
X0131141Y0137583D01*
X0131141Y0135818D01*
X0131244Y0135437D01*
X0131441Y0135095D01*
X0131720Y0134815D01*
X0132062Y0134618D01*
X0132444Y0134516D01*
X0134267Y0134516D01*
X0134267Y0137583D01*
X0135267Y0137583D01*
X0135267Y0134516D01*
X0137091Y0134516D01*
X0137472Y0134618D01*
X0137814Y0134815D01*
X0138094Y0135095D01*
X0138192Y0135266D01*
X0138192Y0134094D01*
X0137897Y0133798D01*
X0137345Y0134350D01*
X0132190Y0134350D01*
X0131551Y0133711D01*
X0131551Y0133083D01*
X0127977Y0133083D01*
X0128051Y0133358D01*
X0128051Y0134596D01*
X0124230Y0134596D01*
X0128051Y0134222D02*
X0132062Y0134222D01*
X0131551Y0133223D02*
X0128015Y0133223D01*
X0128051Y0135220D02*
X0131369Y0135220D01*
X0131141Y0136219D02*
X0127970Y0136219D01*
X0127641Y0137217D02*
X0131141Y0137217D01*
X0131141Y0139214D02*
X0127698Y0139214D01*
X0127641Y0138216D02*
X0134267Y0138216D01*
X0134267Y0139214D02*
X0135267Y0139214D01*
X0135267Y0140213D02*
X0134267Y0140213D01*
X0134267Y0141211D02*
X0135267Y0141211D01*
X0137723Y0142210D02*
X0130694Y0142210D01*
X0131582Y0141211D02*
X0129695Y0141211D01*
X0128697Y0140213D02*
X0131141Y0140213D01*
X0134267Y0137217D02*
X0135267Y0137217D01*
X0135267Y0136219D02*
X0134267Y0136219D01*
X0134267Y0135220D02*
X0135267Y0135220D01*
X0137473Y0134222D02*
X0138192Y0134222D01*
X0138166Y0135220D02*
X0138192Y0135220D01*
X0131551Y0129229D02*
X0127507Y0129229D01*
X0129184Y0124237D02*
X0129366Y0124237D01*
X0129366Y0123238D02*
X0129184Y0123238D01*
X0129184Y0122240D02*
X0129366Y0122240D01*
X0129366Y0121241D02*
X0129184Y0121241D01*
X0129184Y0120243D02*
X0129366Y0120243D01*
X0124039Y0118246D02*
X0077586Y0118246D01*
X0074105Y0121241D02*
X0067963Y0121241D01*
X0067963Y0120243D02*
X0073106Y0120243D01*
X0072108Y0119244D02*
X0067963Y0119244D01*
X0067963Y0118246D02*
X0071109Y0118246D01*
X0070647Y0117247D02*
X0067963Y0117247D01*
X0067963Y0116249D02*
X0070647Y0116249D01*
X0070647Y0115250D02*
X0067963Y0115250D01*
X0067963Y0114252D02*
X0070647Y0114252D01*
X0070647Y0113253D02*
X0067963Y0113253D01*
X0067963Y0112255D02*
X0070647Y0112255D01*
X0070647Y0111256D02*
X0067963Y0111256D01*
X0067963Y0110258D02*
X0070647Y0110258D01*
X0070647Y0109259D02*
X0067963Y0109259D01*
X0067963Y0108261D02*
X0071186Y0108261D01*
X0072184Y0107262D02*
X0067963Y0107262D01*
X0067963Y0106264D02*
X0073183Y0106264D01*
X0074181Y0105265D02*
X0067963Y0105265D01*
X0068802Y0104267D02*
X0075180Y0104267D01*
X0076178Y0103268D02*
X0069801Y0103268D01*
X0070799Y0102270D02*
X0077177Y0102270D01*
X0078175Y0101271D02*
X0071798Y0101271D01*
X0068316Y0098275D02*
X0059990Y0098275D01*
X0059990Y0097277D02*
X0069315Y0097277D01*
X0070233Y0096278D02*
X0059990Y0096278D01*
X0059404Y0095280D02*
X0070233Y0095280D01*
X0070233Y0094281D02*
X0058405Y0094281D01*
X0057407Y0093283D02*
X0070282Y0093283D01*
X0071971Y0091724D02*
X0067131Y0091724D01*
X0066492Y0091085D01*
X0066492Y0090168D01*
X0063004Y0090168D01*
X0062799Y0090372D01*
X0061675Y0090838D01*
X0060458Y0090838D01*
X0059334Y0090372D01*
X0058474Y0089512D01*
X0058008Y0088388D01*
X0058008Y0087171D01*
X0058474Y0086047D01*
X0059334Y0085187D01*
X0060458Y0084721D01*
X0061675Y0084721D01*
X0062799Y0085187D01*
X0063200Y0085588D01*
X0064022Y0085588D01*
X0056119Y0077685D01*
X0056119Y0077244D01*
X0054408Y0077244D01*
X0053770Y0076605D01*
X0053770Y0069403D01*
X0054408Y0068764D01*
X0062410Y0068764D01*
X0063048Y0069403D01*
X0063048Y0076605D01*
X0062410Y0077244D01*
X0062155Y0077244D01*
X0068944Y0084032D01*
X0071971Y0084032D01*
X0072609Y0084671D01*
X0072609Y0091085D01*
X0071971Y0091724D01*
X0072409Y0091286D02*
X0073707Y0091286D01*
X0073665Y0091213D02*
X0073563Y0090831D01*
X0073563Y0088362D01*
X0076547Y0088362D01*
X0076547Y0087394D01*
X0073563Y0087394D01*
X0073563Y0084925D01*
X0073665Y0084543D01*
X0073862Y0084201D01*
X0074142Y0083922D01*
X0074484Y0083724D01*
X0074865Y0083622D01*
X0076547Y0083622D01*
X0076547Y0087394D01*
X0077515Y0087394D01*
X0077515Y0083622D01*
X0079197Y0083622D01*
X0079579Y0083724D01*
X0079921Y0083922D01*
X0080200Y0084201D01*
X0080397Y0084543D01*
X0080500Y0084925D01*
X0080500Y0087394D01*
X0077516Y0087394D01*
X0077516Y0088362D01*
X0080500Y0088362D01*
X0080500Y0090831D01*
X0080397Y0091213D01*
X0080200Y0091555D01*
X0079921Y0091834D01*
X0079579Y0092032D01*
X0079197Y0092134D01*
X0077515Y0092134D01*
X0077515Y0088362D01*
X0076547Y0088362D01*
X0076547Y0092134D01*
X0074865Y0092134D01*
X0074484Y0092032D01*
X0074142Y0091834D01*
X0073862Y0091555D01*
X0073665Y0091213D01*
X0073563Y0090287D02*
X0072609Y0090287D01*
X0072609Y0089289D02*
X0073563Y0089289D01*
X0072609Y0088290D02*
X0076547Y0088290D01*
X0077516Y0088290D02*
X0087613Y0088290D01*
X0088611Y0087292D02*
X0080500Y0087292D01*
X0080500Y0086293D02*
X0089610Y0086293D01*
X0089979Y0085295D02*
X0080500Y0085295D01*
X0080255Y0084296D02*
X0090312Y0084296D01*
X0090312Y0083298D02*
X0068209Y0083298D01*
X0067211Y0082299D02*
X0090312Y0082299D01*
X0090312Y0081301D02*
X0066212Y0081301D01*
X0065214Y0080302D02*
X0090312Y0080302D01*
X0090312Y0079304D02*
X0064215Y0079304D01*
X0063217Y0078305D02*
X0077711Y0078305D01*
X0077780Y0078425D02*
X0077582Y0078083D01*
X0077480Y0077701D01*
X0077480Y0074461D01*
X0081630Y0074461D01*
X0081630Y0079004D01*
X0078783Y0079004D01*
X0078401Y0078902D01*
X0078059Y0078704D01*
X0077780Y0078425D01*
X0077480Y0077307D02*
X0075328Y0077307D01*
X0075383Y0077252D02*
X0075104Y0077531D01*
X0074762Y0077728D01*
X0074380Y0077831D01*
X0071134Y0077831D01*
X0071134Y0073681D01*
X0075683Y0073681D01*
X0075683Y0076528D01*
X0075581Y0076910D01*
X0075383Y0077252D01*
X0075683Y0076308D02*
X0077480Y0076308D01*
X0077480Y0075310D02*
X0075683Y0075310D01*
X0075683Y0074311D02*
X0081630Y0074311D01*
X0081630Y0074461D02*
X0081630Y0073461D01*
X0077480Y0073461D01*
X0077480Y0070220D01*
X0077582Y0069838D01*
X0077780Y0069496D01*
X0078059Y0069217D01*
X0078401Y0069020D01*
X0078783Y0068917D01*
X0081630Y0068917D01*
X0081630Y0073461D01*
X0082630Y0073461D01*
X0082630Y0074461D01*
X0081630Y0074461D01*
X0081630Y0075310D02*
X0082630Y0075310D01*
X0082630Y0074461D02*
X0082630Y0079004D01*
X0085477Y0079004D01*
X0085858Y0078902D01*
X0086200Y0078704D01*
X0086480Y0078425D01*
X0086677Y0078083D01*
X0086779Y0077701D01*
X0086779Y0074461D01*
X0082630Y0074461D01*
X0082630Y0074311D02*
X0088914Y0074311D01*
X0088914Y0073313D02*
X0086779Y0073313D01*
X0086779Y0073461D02*
X0082630Y0073461D01*
X0082630Y0068917D01*
X0085477Y0068917D01*
X0085858Y0069020D01*
X0086200Y0069217D01*
X0086480Y0069496D01*
X0086677Y0069838D01*
X0086779Y0070220D01*
X0086779Y0073461D01*
X0086779Y0072314D02*
X0088914Y0072314D01*
X0088914Y0071316D02*
X0086779Y0071316D01*
X0086779Y0070317D02*
X0088914Y0070317D01*
X0086302Y0069319D02*
X0104424Y0069319D01*
X0103426Y0070317D02*
X0097393Y0070317D01*
X0096577Y0064775D02*
X0089375Y0064775D01*
X0088736Y0064137D01*
X0088736Y0056147D01*
X0089375Y0055508D01*
X0096577Y0055508D01*
X0097216Y0056147D01*
X0097216Y0057452D01*
X0099992Y0057452D01*
X0104774Y0052669D01*
X0104774Y0038240D01*
X0104672Y0038198D01*
X0103286Y0036811D01*
X0102536Y0035000D01*
X0102536Y0025362D01*
X0103286Y0023551D01*
X0104672Y0022164D01*
X0106484Y0021414D01*
X0108445Y0021414D01*
X0110256Y0022164D01*
X0111643Y0023551D01*
X0112393Y0025362D01*
X0112393Y0035000D01*
X0111643Y0036811D01*
X0110256Y0038198D01*
X0110154Y0038240D01*
X0110154Y0054319D01*
X0109745Y0055307D01*
X0108988Y0056064D01*
X0102630Y0062422D01*
X0101641Y0062832D01*
X0097216Y0062832D01*
X0097216Y0064137D01*
X0096577Y0064775D01*
X0097026Y0064326D02*
X0109417Y0064326D01*
X0110415Y0063328D02*
X0097216Y0063328D01*
X0102723Y0062329D02*
X0111414Y0062329D01*
X0112412Y0061331D02*
X0103721Y0061331D01*
X0104720Y0060332D02*
X0113411Y0060332D01*
X0114409Y0059334D02*
X0105718Y0059334D01*
X0106717Y0058335D02*
X0115408Y0058335D01*
X0116406Y0057337D02*
X0107715Y0057337D01*
X0108714Y0056338D02*
X0117405Y0056338D01*
X0118403Y0055339D02*
X0109712Y0055339D01*
X0108988Y0056064D02*
X0108988Y0056064D01*
X0110145Y0054341D02*
X0119402Y0054341D01*
X0120400Y0053342D02*
X0110154Y0053342D01*
X0110154Y0052344D02*
X0121399Y0052344D01*
X0122397Y0051345D02*
X0110154Y0051345D01*
X0110154Y0050347D02*
X0123396Y0050347D01*
X0124394Y0049348D02*
X0110154Y0049348D01*
X0110154Y0048350D02*
X0124459Y0048350D01*
X0124459Y0047351D02*
X0110154Y0047351D01*
X0110154Y0046353D02*
X0124459Y0046353D01*
X0124459Y0045354D02*
X0110154Y0045354D01*
X0110154Y0044356D02*
X0124459Y0044356D01*
X0124459Y0043357D02*
X0110154Y0043357D01*
X0110154Y0042359D02*
X0124459Y0042359D01*
X0124459Y0041360D02*
X0110154Y0041360D01*
X0110154Y0040362D02*
X0124459Y0040362D01*
X0124459Y0039363D02*
X0110154Y0039363D01*
X0110154Y0038365D02*
X0124459Y0038365D01*
X0123526Y0037366D02*
X0111088Y0037366D01*
X0111826Y0036368D02*
X0122787Y0036368D01*
X0122374Y0035369D02*
X0112240Y0035369D01*
X0112393Y0034371D02*
X0122221Y0034371D01*
X0122221Y0033372D02*
X0112393Y0033372D01*
X0112393Y0032374D02*
X0122221Y0032374D01*
X0122221Y0031375D02*
X0112393Y0031375D01*
X0112393Y0030377D02*
X0122221Y0030377D01*
X0122221Y0029378D02*
X0112393Y0029378D01*
X0112393Y0028380D02*
X0122221Y0028380D01*
X0122221Y0027381D02*
X0112393Y0027381D01*
X0112393Y0026383D02*
X0122221Y0026383D01*
X0122221Y0025384D02*
X0112393Y0025384D01*
X0111988Y0024386D02*
X0122625Y0024386D01*
X0123135Y0023387D02*
X0111479Y0023387D01*
X0110480Y0022389D02*
X0124133Y0022389D01*
X0130165Y0022389D02*
X0142716Y0022389D01*
X0142716Y0023387D02*
X0131164Y0023387D01*
X0131673Y0024386D02*
X0142716Y0024386D01*
X0142716Y0025384D02*
X0132078Y0025384D01*
X0132078Y0026383D02*
X0142716Y0026383D01*
X0142716Y0027381D02*
X0132078Y0027381D01*
X0132078Y0028380D02*
X0142716Y0028380D01*
X0142716Y0029378D02*
X0132078Y0029378D01*
X0132078Y0030377D02*
X0142716Y0030377D01*
X0142716Y0031375D02*
X0132078Y0031375D01*
X0132078Y0032374D02*
X0142716Y0032374D01*
X0142716Y0033372D02*
X0132078Y0033372D01*
X0132078Y0034371D02*
X0142716Y0034371D01*
X0142716Y0035369D02*
X0131925Y0035369D01*
X0131511Y0036368D02*
X0142716Y0036368D01*
X0142716Y0037366D02*
X0130773Y0037366D01*
X0129839Y0038365D02*
X0142716Y0038365D01*
X0142716Y0039363D02*
X0129839Y0039363D01*
X0129839Y0040362D02*
X0142716Y0040362D01*
X0142716Y0041360D02*
X0129839Y0041360D01*
X0129839Y0042359D02*
X0142716Y0042359D01*
X0142716Y0043357D02*
X0129839Y0043357D01*
X0129839Y0044356D02*
X0142716Y0044356D01*
X0142716Y0045354D02*
X0129839Y0045354D01*
X0129839Y0046353D02*
X0142716Y0046353D01*
X0142716Y0047351D02*
X0129839Y0047351D01*
X0129839Y0048350D02*
X0142716Y0048350D01*
X0142716Y0049348D02*
X0129839Y0049348D01*
X0129839Y0050347D02*
X0142716Y0050347D01*
X0142716Y0051345D02*
X0129668Y0051345D01*
X0129007Y0052344D02*
X0142716Y0052344D01*
X0142716Y0053342D02*
X0137804Y0053342D01*
X0137531Y0053185D02*
X0135153Y0053185D01*
X0133094Y0054374D01*
X0133094Y0054374D01*
X0133094Y0054374D01*
X0131905Y0056433D01*
X0131905Y0058811D01*
X0133094Y0060870D01*
X0133094Y0060870D01*
X0133094Y0060870D01*
X0135153Y0062059D01*
X0136957Y0062059D01*
X0137531Y0062059D01*
X0139590Y0060870D01*
X0139590Y0060870D01*
X0139590Y0060870D01*
X0140779Y0058811D01*
X0140779Y0056433D01*
X0139590Y0054374D01*
X0139590Y0054374D01*
X0137531Y0053185D01*
X0139533Y0054341D02*
X0142716Y0054341D01*
X0142716Y0055339D02*
X0140148Y0055339D01*
X0139590Y0054374D02*
X0139590Y0054374D01*
X0140724Y0056338D02*
X0142716Y0056338D01*
X0142716Y0057337D02*
X0140779Y0057337D01*
X0140779Y0058335D02*
X0142716Y0058335D01*
X0142716Y0059334D02*
X0140478Y0059334D01*
X0139901Y0060332D02*
X0142716Y0060332D01*
X0142716Y0061331D02*
X0138793Y0061331D01*
X0142716Y0062329D02*
X0119022Y0062329D01*
X0118024Y0063328D02*
X0142716Y0063328D01*
X0142716Y0064326D02*
X0117025Y0064326D01*
X0116027Y0065325D02*
X0142716Y0065325D01*
X0142716Y0066323D02*
X0115028Y0066323D01*
X0114030Y0067322D02*
X0142716Y0067322D01*
X0142716Y0068320D02*
X0113031Y0068320D01*
X0112033Y0069319D02*
X0142716Y0069319D01*
X0142716Y0070317D02*
X0111034Y0070317D01*
X0110035Y0071316D02*
X0142716Y0071316D01*
X0142716Y0072314D02*
X0109037Y0072314D01*
X0108038Y0073313D02*
X0142716Y0073313D01*
X0142716Y0074311D02*
X0107040Y0074311D01*
X0106041Y0075310D02*
X0142716Y0075310D01*
X0142716Y0076308D02*
X0128086Y0076308D01*
X0128079Y0076301D02*
X0129427Y0077649D01*
X0130156Y0079409D01*
X0130156Y0081315D01*
X0129427Y0083076D01*
X0128079Y0084423D01*
X0126319Y0085152D01*
X0124413Y0085152D01*
X0122653Y0084423D01*
X0121305Y0083076D01*
X0120576Y0081315D01*
X0120576Y0079409D01*
X0121305Y0077649D01*
X0122653Y0076301D01*
X0124413Y0075572D01*
X0126319Y0075572D01*
X0128079Y0076301D01*
X0129084Y0077307D02*
X0142716Y0077307D01*
X0142716Y0078305D02*
X0129698Y0078305D01*
X0130112Y0079304D02*
X0142716Y0079304D01*
X0142716Y0080302D02*
X0130156Y0080302D01*
X0130156Y0081301D02*
X0142716Y0081301D01*
X0142716Y0082299D02*
X0129748Y0082299D01*
X0129204Y0083298D02*
X0142716Y0083298D01*
X0142716Y0084296D02*
X0128206Y0084296D01*
X0128060Y0086293D02*
X0142716Y0086293D01*
X0142716Y0085295D02*
X0095225Y0085295D01*
X0095502Y0086293D02*
X0112672Y0086293D01*
X0112653Y0086301D02*
X0114413Y0085572D01*
X0116319Y0085572D01*
X0118079Y0086301D01*
X0119427Y0087649D01*
X0120156Y0089409D01*
X0120156Y0091315D01*
X0119427Y0093076D01*
X0118079Y0094423D01*
X0116319Y0095152D01*
X0114413Y0095152D01*
X0112653Y0094423D01*
X0111305Y0093076D01*
X0110576Y0091315D01*
X0110576Y0089409D01*
X0111305Y0087649D01*
X0112653Y0086301D01*
X0111662Y0087292D02*
X0095429Y0087292D01*
X0094952Y0088290D02*
X0111039Y0088290D01*
X0110626Y0089289D02*
X0093542Y0089289D01*
X0092093Y0090287D02*
X0110576Y0090287D01*
X0110576Y0091286D02*
X0091094Y0091286D01*
X0090455Y0092284D02*
X0110977Y0092284D01*
X0111512Y0093283D02*
X0089960Y0093283D01*
X0088505Y0094281D02*
X0112511Y0094281D01*
X0114866Y0095280D02*
X0115866Y0095280D01*
X0115866Y0096278D02*
X0114866Y0096278D01*
X0114866Y0097277D02*
X0115866Y0097277D01*
X0115866Y0098275D02*
X0114866Y0098275D01*
X0114866Y0101271D02*
X0115866Y0101271D01*
X0115866Y0102270D02*
X0114866Y0102270D01*
X0114866Y0103268D02*
X0115866Y0103268D01*
X0115866Y0104267D02*
X0114866Y0104267D01*
X0114866Y0105265D02*
X0115866Y0105265D01*
X0119020Y0108261D02*
X0088264Y0108261D01*
X0088560Y0109259D02*
X0118022Y0109259D01*
X0116119Y0110258D02*
X0098275Y0110258D01*
X0098771Y0111256D02*
X0114808Y0111256D01*
X0114372Y0112255D02*
X0098771Y0112255D01*
X0098771Y0113253D02*
X0114328Y0113253D01*
X0114634Y0114252D02*
X0098771Y0114252D01*
X0098771Y0115250D02*
X0115440Y0115250D01*
X0119016Y0115250D02*
X0125175Y0115250D01*
X0126174Y0114252D02*
X0119822Y0114252D01*
X0120505Y0113253D02*
X0127172Y0113253D01*
X0128171Y0112255D02*
X0121503Y0112255D01*
X0122502Y0111256D02*
X0129169Y0111256D01*
X0130168Y0110258D02*
X0123500Y0110258D01*
X0124499Y0109259D02*
X0131166Y0109259D01*
X0132165Y0108261D02*
X0125497Y0108261D01*
X0126496Y0107262D02*
X0132169Y0107262D01*
X0132169Y0106264D02*
X0127494Y0106264D01*
X0127845Y0105265D02*
X0132169Y0105265D01*
X0132169Y0104267D02*
X0128236Y0104267D01*
X0129234Y0103268D02*
X0132169Y0103268D01*
X0132169Y0102270D02*
X0129760Y0102270D01*
X0130156Y0101271D02*
X0132169Y0101271D01*
X0132169Y0100272D02*
X0130156Y0100272D01*
X0130100Y0099274D02*
X0132169Y0099274D01*
X0132169Y0098275D02*
X0129686Y0098275D01*
X0129055Y0097277D02*
X0132169Y0097277D01*
X0129692Y0088290D02*
X0142716Y0088290D01*
X0142716Y0087292D02*
X0129070Y0087292D01*
X0122672Y0086293D02*
X0118060Y0086293D01*
X0119070Y0087292D02*
X0121662Y0087292D01*
X0121039Y0088290D02*
X0119692Y0088290D01*
X0120106Y0089289D02*
X0120626Y0089289D01*
X0120576Y0090287D02*
X0120156Y0090287D01*
X0120156Y0091286D02*
X0120576Y0091286D01*
X0120977Y0092284D02*
X0119754Y0092284D01*
X0119219Y0093283D02*
X0121512Y0093283D01*
X0122511Y0094281D02*
X0118221Y0094281D01*
X0120566Y0101271D02*
X0120576Y0101271D01*
X0120566Y0102270D02*
X0120971Y0102270D01*
X0120566Y0103268D02*
X0121498Y0103268D01*
X0120564Y0104267D02*
X0122496Y0104267D01*
X0122016Y0105265D02*
X0119982Y0105265D01*
X0124177Y0116249D02*
X0098771Y0116249D01*
X0098771Y0117247D02*
X0124039Y0117247D01*
X0099977Y0133223D02*
X0097161Y0133223D01*
X0096682Y0134222D02*
X0100574Y0134222D01*
X0100234Y0135220D02*
X0097325Y0135220D01*
X0097271Y0135126D02*
X0097468Y0135468D01*
X0097571Y0135850D01*
X0097571Y0137614D01*
X0094445Y0137614D01*
X0094445Y0138614D01*
X0097571Y0138614D01*
X0097571Y0140379D01*
X0097468Y0140760D01*
X0097271Y0141102D01*
X0096992Y0141381D01*
X0096650Y0141579D01*
X0096268Y0141681D01*
X0094445Y0141681D01*
X0094445Y0138614D01*
X0093445Y0138614D01*
X0093445Y0141681D01*
X0091621Y0141681D01*
X0091240Y0141579D01*
X0090898Y0141381D01*
X0090618Y0141102D01*
X0090421Y0140760D01*
X0090319Y0140379D01*
X0090319Y0138614D01*
X0093445Y0138614D01*
X0093445Y0137614D01*
X0094445Y0137614D01*
X0094445Y0134547D01*
X0096268Y0134547D01*
X0096650Y0134649D01*
X0096992Y0134847D01*
X0097271Y0135126D01*
X0097571Y0136219D02*
X0099977Y0136219D01*
X0099977Y0137217D02*
X0097571Y0137217D01*
X0097571Y0139214D02*
X0099977Y0139214D01*
X0099977Y0138216D02*
X0094445Y0138216D01*
X0094445Y0139214D02*
X0093445Y0139214D01*
X0093445Y0138216D02*
X0076651Y0138216D01*
X0077650Y0139214D02*
X0090319Y0139214D01*
X0090319Y0140213D02*
X0078648Y0140213D01*
X0079647Y0141211D02*
X0090728Y0141211D01*
X0093445Y0141211D02*
X0094445Y0141211D01*
X0094445Y0140213D02*
X0093445Y0140213D01*
X0093445Y0137614D02*
X0090319Y0137614D01*
X0090319Y0135850D01*
X0090421Y0135468D01*
X0090618Y0135126D01*
X0090898Y0134847D01*
X0091240Y0134649D01*
X0091621Y0134547D01*
X0093445Y0134547D01*
X0093445Y0137614D01*
X0093445Y0137217D02*
X0094445Y0137217D01*
X0094445Y0136219D02*
X0093445Y0136219D01*
X0093445Y0135220D02*
X0094445Y0135220D01*
X0091208Y0134222D02*
X0073452Y0134222D01*
X0073452Y0133223D02*
X0090729Y0133223D01*
X0090729Y0132225D02*
X0073233Y0132225D01*
X0072820Y0131226D02*
X0090729Y0131226D01*
X0090729Y0130228D02*
X0071916Y0130228D01*
X0070147Y0129229D02*
X0090729Y0129229D01*
X0091204Y0128231D02*
X0067963Y0128231D01*
X0067963Y0127232D02*
X0092354Y0127232D01*
X0091668Y0126234D02*
X0067963Y0126234D01*
X0067963Y0125235D02*
X0078099Y0125235D01*
X0077100Y0124237D02*
X0067963Y0124237D01*
X0067963Y0123238D02*
X0076102Y0123238D01*
X0075103Y0122240D02*
X0067963Y0122240D01*
X0063383Y0122240D02*
X0059990Y0122240D01*
X0059990Y0123238D02*
X0063383Y0123238D01*
X0063383Y0124237D02*
X0059990Y0124237D01*
X0059990Y0125235D02*
X0063383Y0125235D01*
X0063383Y0126234D02*
X0059990Y0126234D01*
X0059990Y0127232D02*
X0063383Y0127232D01*
X0063383Y0128231D02*
X0059990Y0128231D01*
X0059990Y0129229D02*
X0063383Y0129229D01*
X0063383Y0130228D02*
X0059990Y0130228D01*
X0059990Y0131226D02*
X0064247Y0131226D01*
X0064490Y0132225D02*
X0059368Y0132225D01*
X0059279Y0133223D02*
X0064272Y0133223D01*
X0064272Y0134222D02*
X0059279Y0134222D01*
X0059013Y0135220D02*
X0064538Y0135220D01*
X0064951Y0136219D02*
X0058599Y0136219D01*
X0057628Y0137217D02*
X0065923Y0137217D01*
X0067854Y0138216D02*
X0055697Y0138216D01*
X0053680Y0138216D02*
X0029538Y0138216D01*
X0029933Y0137217D02*
X0051750Y0137217D01*
X0050778Y0136219D02*
X0029933Y0136219D01*
X0029933Y0135220D02*
X0050365Y0135220D01*
X0050099Y0134222D02*
X0029395Y0134222D01*
X0028818Y0133223D02*
X0050099Y0133223D01*
X0050317Y0132225D02*
X0027238Y0132225D01*
X0028961Y0139214D02*
X0071172Y0139214D01*
X0070174Y0138216D02*
X0069870Y0138216D01*
X0073655Y0135220D02*
X0090564Y0135220D01*
X0090319Y0136219D02*
X0074654Y0136219D01*
X0075652Y0137217D02*
X0090319Y0137217D01*
X0097571Y0140213D02*
X0099977Y0140213D01*
X0101346Y0141211D02*
X0097162Y0141211D01*
X0101346Y0142210D02*
X0080645Y0142210D01*
X0081644Y0143208D02*
X0101346Y0143208D01*
X0101346Y0144207D02*
X0082642Y0144207D01*
X0083641Y0145205D02*
X0101346Y0145205D01*
X0100219Y0146204D02*
X0084639Y0146204D01*
X0085638Y0147203D02*
X0099981Y0147203D01*
X0099981Y0148201D02*
X0085927Y0148201D01*
X0085927Y0149200D02*
X0099981Y0149200D01*
X0099981Y0150198D02*
X0085927Y0150198D01*
X0085927Y0151197D02*
X0099981Y0151197D01*
X0106491Y0153194D02*
X0111194Y0153194D01*
X0110831Y0158186D02*
X0106280Y0158186D01*
X0115772Y0150198D02*
X0118163Y0150198D01*
X0117170Y0149200D02*
X0116940Y0149200D01*
X0116940Y0148201D02*
X0117106Y0148201D01*
X0117106Y0147203D02*
X0116940Y0147203D01*
X0124043Y0147203D02*
X0128626Y0147203D01*
X0127253Y0148201D02*
X0124043Y0148201D01*
X0123979Y0149200D02*
X0126255Y0149200D01*
X0125251Y0157188D02*
X0124051Y0157188D01*
X0124051Y0158186D02*
X0125665Y0158186D01*
X0126481Y0159185D02*
X0123794Y0159185D01*
X0137953Y0141211D02*
X0138192Y0141211D01*
X0095228Y0104267D02*
X0094228Y0104267D01*
X0094228Y0103268D02*
X0095228Y0103268D01*
X0095228Y0102270D02*
X0094228Y0102270D01*
X0094228Y0101271D02*
X0095228Y0101271D01*
X0095228Y0098275D02*
X0094228Y0098275D01*
X0094228Y0097277D02*
X0095228Y0097277D01*
X0095228Y0096278D02*
X0094228Y0096278D01*
X0090275Y0101271D02*
X0088560Y0101271D01*
X0088560Y0102270D02*
X0090275Y0102270D01*
X0090275Y0103268D02*
X0088560Y0103268D01*
X0088560Y0104267D02*
X0090590Y0104267D01*
X0091035Y0110258D02*
X0091181Y0110258D01*
X0079174Y0100272D02*
X0075824Y0100272D01*
X0076350Y0099274D02*
X0079282Y0099274D01*
X0079282Y0098275D02*
X0076350Y0098275D01*
X0076350Y0097277D02*
X0079364Y0097277D01*
X0081631Y0096278D02*
X0076350Y0096278D01*
X0076350Y0095280D02*
X0081631Y0095280D01*
X0081631Y0094281D02*
X0076350Y0094281D01*
X0076300Y0093283D02*
X0082620Y0093283D01*
X0083618Y0092284D02*
X0056408Y0092284D01*
X0055410Y0091286D02*
X0066693Y0091286D01*
X0066492Y0090287D02*
X0062884Y0090287D01*
X0059249Y0090287D02*
X0054411Y0090287D01*
X0053413Y0089289D02*
X0058381Y0089289D01*
X0058008Y0088290D02*
X0052414Y0088290D01*
X0052195Y0087292D02*
X0058008Y0087292D01*
X0058372Y0086293D02*
X0052195Y0086293D01*
X0052195Y0085295D02*
X0059226Y0085295D01*
X0061732Y0083298D02*
X0052195Y0083298D01*
X0052195Y0084296D02*
X0062731Y0084296D01*
X0062907Y0085295D02*
X0063729Y0085295D01*
X0060734Y0082299D02*
X0052195Y0082299D01*
X0052195Y0081301D02*
X0059735Y0081301D01*
X0058737Y0080302D02*
X0052195Y0080302D01*
X0052195Y0079304D02*
X0057738Y0079304D01*
X0056740Y0078305D02*
X0052195Y0078305D01*
X0052195Y0077307D02*
X0056119Y0077307D01*
X0053770Y0076308D02*
X0052195Y0076308D01*
X0052195Y0075310D02*
X0053770Y0075310D01*
X0053770Y0074311D02*
X0052195Y0074311D01*
X0052195Y0073313D02*
X0053770Y0073313D01*
X0053770Y0072314D02*
X0052195Y0072314D01*
X0052195Y0071316D02*
X0053770Y0071316D01*
X0053770Y0070317D02*
X0052195Y0070317D01*
X0052195Y0069319D02*
X0053854Y0069319D01*
X0052195Y0068320D02*
X0105423Y0068320D01*
X0106421Y0067322D02*
X0052195Y0067322D01*
X0052195Y0066323D02*
X0107420Y0066323D01*
X0108418Y0065325D02*
X0075273Y0065325D01*
X0075273Y0065585D02*
X0074634Y0066224D01*
X0066633Y0066224D01*
X0065994Y0065585D01*
X0065994Y0064274D01*
X0063048Y0064274D01*
X0063048Y0065408D01*
X0062410Y0066047D01*
X0054408Y0066047D01*
X0053770Y0065408D01*
X0053770Y0058206D01*
X0054408Y0057567D01*
X0062410Y0057567D01*
X0063048Y0058206D01*
X0063048Y0059694D01*
X0065994Y0059694D01*
X0065994Y0058383D01*
X0066633Y0057745D01*
X0068344Y0057745D01*
X0068344Y0038948D01*
X0067114Y0038948D01*
X0065302Y0038198D01*
X0063916Y0036811D01*
X0063166Y0035000D01*
X0063166Y0025362D01*
X0063916Y0023551D01*
X0065302Y0022164D01*
X0067114Y0021414D01*
X0069075Y0021414D01*
X0070886Y0022164D01*
X0072272Y0023551D01*
X0073023Y0025362D01*
X0073023Y0035000D01*
X0072924Y0035240D01*
X0072924Y0057745D01*
X0074634Y0057745D01*
X0075273Y0058383D01*
X0075273Y0065585D01*
X0075273Y0064326D02*
X0077441Y0064326D01*
X0077405Y0064264D02*
X0077603Y0064606D01*
X0077882Y0064885D01*
X0078224Y0065083D01*
X0078605Y0065185D01*
X0081452Y0065185D01*
X0081452Y0060642D01*
X0081452Y0059642D01*
X0077303Y0059642D01*
X0077303Y0056401D01*
X0077405Y0056019D01*
X0077603Y0055677D01*
X0077882Y0055398D01*
X0078224Y0055201D01*
X0078605Y0055098D01*
X0081452Y0055098D01*
X0081452Y0059642D01*
X0082452Y0059642D01*
X0082452Y0055098D01*
X0085300Y0055098D01*
X0085681Y0055201D01*
X0086023Y0055398D01*
X0086302Y0055677D01*
X0086500Y0056019D01*
X0086602Y0056401D01*
X0086602Y0059642D01*
X0082452Y0059642D01*
X0082452Y0060642D01*
X0081452Y0060642D01*
X0077303Y0060642D01*
X0077303Y0063883D01*
X0077405Y0064264D01*
X0077303Y0063328D02*
X0075273Y0063328D01*
X0075273Y0062329D02*
X0077303Y0062329D01*
X0077303Y0061331D02*
X0075273Y0061331D01*
X0075273Y0060332D02*
X0081452Y0060332D01*
X0081452Y0059334D02*
X0082452Y0059334D01*
X0082452Y0060332D02*
X0088736Y0060332D01*
X0088736Y0059334D02*
X0086602Y0059334D01*
X0086602Y0058335D02*
X0088736Y0058335D01*
X0088736Y0057337D02*
X0086602Y0057337D01*
X0086585Y0056338D02*
X0088736Y0056338D01*
X0085921Y0055339D02*
X0102104Y0055339D01*
X0103103Y0054341D02*
X0072924Y0054341D01*
X0072924Y0055339D02*
X0077983Y0055339D01*
X0077320Y0056338D02*
X0072924Y0056338D01*
X0072924Y0057337D02*
X0077303Y0057337D01*
X0077303Y0058335D02*
X0075225Y0058335D01*
X0075273Y0059334D02*
X0077303Y0059334D01*
X0081452Y0058335D02*
X0082452Y0058335D01*
X0082452Y0057337D02*
X0081452Y0057337D01*
X0081452Y0056338D02*
X0082452Y0056338D01*
X0082452Y0055339D02*
X0081452Y0055339D01*
X0082452Y0060642D02*
X0086602Y0060642D01*
X0086602Y0063883D01*
X0086500Y0064264D01*
X0086302Y0064606D01*
X0086023Y0064885D01*
X0085681Y0065083D01*
X0085300Y0065185D01*
X0082452Y0065185D01*
X0082452Y0060642D01*
X0082452Y0061331D02*
X0081452Y0061331D01*
X0081452Y0062329D02*
X0082452Y0062329D01*
X0082452Y0063328D02*
X0081452Y0063328D01*
X0081452Y0064326D02*
X0082452Y0064326D01*
X0086464Y0064326D02*
X0088926Y0064326D01*
X0088736Y0063328D02*
X0086602Y0063328D01*
X0086602Y0062329D02*
X0088736Y0062329D01*
X0088736Y0061331D02*
X0086602Y0061331D01*
X0082630Y0069319D02*
X0081630Y0069319D01*
X0081630Y0070317D02*
X0082630Y0070317D01*
X0082630Y0071316D02*
X0081630Y0071316D01*
X0081630Y0072314D02*
X0082630Y0072314D01*
X0082630Y0073313D02*
X0081630Y0073313D01*
X0081630Y0076308D02*
X0082630Y0076308D01*
X0082630Y0077307D02*
X0081630Y0077307D01*
X0081630Y0078305D02*
X0082630Y0078305D01*
X0086549Y0078305D02*
X0089263Y0078305D01*
X0088914Y0077307D02*
X0086779Y0077307D01*
X0086779Y0076308D02*
X0088914Y0076308D01*
X0088914Y0075310D02*
X0086779Y0075310D01*
X0094892Y0079304D02*
X0110620Y0079304D01*
X0110576Y0079409D02*
X0110576Y0081315D01*
X0111305Y0083076D01*
X0112653Y0084423D01*
X0114413Y0085152D01*
X0116319Y0085152D01*
X0118079Y0084423D01*
X0119427Y0083076D01*
X0120156Y0081315D01*
X0120156Y0079409D01*
X0119427Y0077649D01*
X0118079Y0076301D01*
X0116319Y0075572D01*
X0114413Y0075572D01*
X0112653Y0076301D01*
X0111305Y0077649D01*
X0110576Y0079409D01*
X0110576Y0080302D02*
X0094892Y0080302D01*
X0094892Y0081301D02*
X0110576Y0081301D01*
X0110984Y0082299D02*
X0094892Y0082299D01*
X0094892Y0083298D02*
X0111527Y0083298D01*
X0112526Y0084296D02*
X0094892Y0084296D01*
X0097043Y0078305D02*
X0111033Y0078305D01*
X0111647Y0077307D02*
X0097393Y0077307D01*
X0104948Y0076308D02*
X0112646Y0076308D01*
X0118086Y0076308D02*
X0122646Y0076308D01*
X0121647Y0077307D02*
X0119084Y0077307D01*
X0119698Y0078305D02*
X0121033Y0078305D01*
X0120620Y0079304D02*
X0120112Y0079304D01*
X0120156Y0080302D02*
X0120576Y0080302D01*
X0120576Y0081301D02*
X0120156Y0081301D01*
X0119748Y0082299D02*
X0120984Y0082299D01*
X0121527Y0083298D02*
X0119204Y0083298D01*
X0118206Y0084296D02*
X0122526Y0084296D01*
X0120021Y0061331D02*
X0133892Y0061331D01*
X0132783Y0060332D02*
X0129867Y0060332D01*
X0130519Y0059334D02*
X0132207Y0059334D01*
X0131905Y0058335D02*
X0130739Y0058335D01*
X0130637Y0057337D02*
X0131905Y0057337D01*
X0131960Y0056338D02*
X0130151Y0056338D01*
X0128784Y0055339D02*
X0132537Y0055339D01*
X0133151Y0054341D02*
X0127633Y0054341D01*
X0128009Y0053342D02*
X0134881Y0053342D01*
X0125495Y0060332D02*
X0121019Y0060332D01*
X0122018Y0059334D02*
X0124843Y0059334D01*
X0124019Y0058335D02*
X0123016Y0058335D01*
X0104774Y0052344D02*
X0072924Y0052344D01*
X0072924Y0053342D02*
X0104101Y0053342D01*
X0104774Y0051345D02*
X0072924Y0051345D01*
X0072924Y0050347D02*
X0104774Y0050347D01*
X0104774Y0049348D02*
X0072924Y0049348D01*
X0072924Y0048350D02*
X0104774Y0048350D01*
X0104774Y0047351D02*
X0072924Y0047351D01*
X0072924Y0046353D02*
X0104774Y0046353D01*
X0104774Y0045354D02*
X0072924Y0045354D01*
X0072924Y0044356D02*
X0104774Y0044356D01*
X0104774Y0043357D02*
X0072924Y0043357D01*
X0072924Y0042359D02*
X0104774Y0042359D01*
X0104774Y0041360D02*
X0072924Y0041360D01*
X0072924Y0040362D02*
X0104774Y0040362D01*
X0104774Y0039363D02*
X0072924Y0039363D01*
X0072924Y0038365D02*
X0084677Y0038365D01*
X0084981Y0038586D02*
X0084301Y0038092D01*
X0083707Y0037498D01*
X0083213Y0036818D01*
X0082832Y0036069D01*
X0082572Y0035270D01*
X0082441Y0034440D01*
X0082441Y0030681D01*
X0087279Y0030681D01*
X0087279Y0029681D01*
X0082441Y0029681D01*
X0082441Y0025922D01*
X0082572Y0025092D01*
X0082832Y0024293D01*
X0083213Y0023544D01*
X0083707Y0022865D01*
X0084301Y0022270D01*
X0084981Y0021777D01*
X0085730Y0021395D01*
X0086529Y0021135D01*
X0087279Y0021017D01*
X0087279Y0029681D01*
X0088279Y0029681D01*
X0088279Y0021017D01*
X0089029Y0021135D01*
X0089829Y0021395D01*
X0090577Y0021777D01*
X0091257Y0022270D01*
X0091851Y0022865D01*
X0092345Y0023544D01*
X0092727Y0024293D01*
X0092986Y0025092D01*
X0093118Y0025922D01*
X0093118Y0029681D01*
X0088279Y0029681D01*
X0088279Y0030681D01*
X0087279Y0030681D01*
X0087279Y0039346D01*
X0086529Y0039227D01*
X0085730Y0038967D01*
X0084981Y0038586D01*
X0083612Y0037366D02*
X0072924Y0037366D01*
X0072924Y0036368D02*
X0082984Y0036368D01*
X0082604Y0035369D02*
X0072924Y0035369D01*
X0073023Y0034371D02*
X0082441Y0034371D01*
X0082441Y0033372D02*
X0073023Y0033372D01*
X0073023Y0032374D02*
X0082441Y0032374D01*
X0082441Y0031375D02*
X0073023Y0031375D01*
X0073023Y0030377D02*
X0087279Y0030377D01*
X0087279Y0031375D02*
X0088279Y0031375D01*
X0088279Y0030681D02*
X0088279Y0039346D01*
X0089029Y0039227D01*
X0089829Y0038967D01*
X0090577Y0038586D01*
X0091257Y0038092D01*
X0091851Y0037498D01*
X0092345Y0036818D01*
X0092727Y0036069D01*
X0092986Y0035270D01*
X0093118Y0034440D01*
X0093118Y0030681D01*
X0088279Y0030681D01*
X0088279Y0030377D02*
X0102536Y0030377D01*
X0102536Y0031375D02*
X0093118Y0031375D01*
X0093118Y0032374D02*
X0102536Y0032374D01*
X0102536Y0033372D02*
X0093118Y0033372D01*
X0093118Y0034371D02*
X0102536Y0034371D01*
X0102689Y0035369D02*
X0092954Y0035369D01*
X0092574Y0036368D02*
X0103102Y0036368D01*
X0103841Y0037366D02*
X0091947Y0037366D01*
X0090881Y0038365D02*
X0104774Y0038365D01*
X0102536Y0029378D02*
X0093118Y0029378D01*
X0093118Y0028380D02*
X0102536Y0028380D01*
X0102536Y0027381D02*
X0093118Y0027381D01*
X0093118Y0026383D02*
X0102536Y0026383D01*
X0102536Y0025384D02*
X0093033Y0025384D01*
X0092757Y0024386D02*
X0102940Y0024386D01*
X0103450Y0023387D02*
X0092231Y0023387D01*
X0091375Y0022389D02*
X0104448Y0022389D01*
X0089813Y0021390D02*
X0142716Y0021390D01*
X0142716Y0020392D02*
X0015795Y0020392D01*
X0015795Y0021390D02*
X0085745Y0021390D01*
X0087279Y0021390D02*
X0088279Y0021390D01*
X0088279Y0022389D02*
X0087279Y0022389D01*
X0087279Y0023387D02*
X0088279Y0023387D01*
X0088279Y0024386D02*
X0087279Y0024386D01*
X0087279Y0025384D02*
X0088279Y0025384D01*
X0088279Y0026383D02*
X0087279Y0026383D01*
X0087279Y0027381D02*
X0088279Y0027381D01*
X0088279Y0028380D02*
X0087279Y0028380D01*
X0087279Y0029378D02*
X0088279Y0029378D01*
X0088279Y0032374D02*
X0087279Y0032374D01*
X0087279Y0033372D02*
X0088279Y0033372D01*
X0088279Y0034371D02*
X0087279Y0034371D01*
X0087279Y0035369D02*
X0088279Y0035369D01*
X0088279Y0036368D02*
X0087279Y0036368D01*
X0087279Y0037366D02*
X0088279Y0037366D01*
X0088279Y0038365D02*
X0087279Y0038365D01*
X0082441Y0029378D02*
X0073023Y0029378D01*
X0073023Y0028380D02*
X0082441Y0028380D01*
X0082441Y0027381D02*
X0073023Y0027381D01*
X0073023Y0026383D02*
X0082441Y0026383D01*
X0082526Y0025384D02*
X0073023Y0025384D01*
X0072618Y0024386D02*
X0082802Y0024386D01*
X0083328Y0023387D02*
X0072109Y0023387D01*
X0071110Y0022389D02*
X0084183Y0022389D01*
X0068344Y0039363D02*
X0044931Y0039363D01*
X0044931Y0038365D02*
X0046020Y0038365D01*
X0044931Y0040362D02*
X0068344Y0040362D01*
X0068344Y0041360D02*
X0044931Y0041360D01*
X0044931Y0042359D02*
X0068344Y0042359D01*
X0068344Y0043357D02*
X0044931Y0043357D01*
X0044931Y0044356D02*
X0068344Y0044356D01*
X0068344Y0045354D02*
X0044931Y0045354D01*
X0044931Y0046353D02*
X0068344Y0046353D01*
X0068344Y0047351D02*
X0044931Y0047351D01*
X0044931Y0048350D02*
X0068344Y0048350D01*
X0068344Y0049348D02*
X0044931Y0049348D01*
X0044931Y0050347D02*
X0068344Y0050347D01*
X0068344Y0051345D02*
X0044931Y0051345D01*
X0044931Y0052344D02*
X0068344Y0052344D01*
X0068344Y0053342D02*
X0044931Y0053342D01*
X0044931Y0054341D02*
X0068344Y0054341D01*
X0068344Y0055339D02*
X0044931Y0055339D01*
X0044931Y0056338D02*
X0068344Y0056338D01*
X0068344Y0057337D02*
X0044931Y0057337D01*
X0047055Y0058335D02*
X0053770Y0058335D01*
X0053770Y0059334D02*
X0047281Y0059334D01*
X0049791Y0060332D02*
X0053770Y0060332D01*
X0053770Y0061331D02*
X0050789Y0061331D01*
X0051788Y0062329D02*
X0053770Y0062329D01*
X0053770Y0063328D02*
X0052195Y0063328D01*
X0052195Y0064326D02*
X0053770Y0064326D01*
X0053770Y0065325D02*
X0052195Y0065325D01*
X0047615Y0065325D02*
X0047281Y0065325D01*
X0047615Y0066323D02*
X0046720Y0066323D01*
X0047615Y0067322D02*
X0021014Y0067322D01*
X0021014Y0068320D02*
X0022675Y0068320D01*
X0022746Y0068279D02*
X0023127Y0068177D01*
X0026374Y0068177D01*
X0026374Y0072327D01*
X0027374Y0072327D01*
X0027374Y0073327D01*
X0031923Y0073327D01*
X0031923Y0076174D01*
X0031821Y0076555D01*
X0031623Y0076897D01*
X0031344Y0077177D01*
X0031002Y0077374D01*
X0030620Y0077476D01*
X0027374Y0077476D01*
X0027374Y0073327D01*
X0026374Y0073327D01*
X0026374Y0077476D01*
X0023127Y0077476D01*
X0022746Y0077374D01*
X0022403Y0077177D01*
X0022124Y0076897D01*
X0021927Y0076555D01*
X0021825Y0076174D01*
X0021825Y0073327D01*
X0026374Y0073327D01*
X0026374Y0072327D01*
X0021825Y0072327D01*
X0021825Y0069480D01*
X0021927Y0069098D01*
X0022124Y0068756D01*
X0022403Y0068477D01*
X0022746Y0068279D01*
X0021868Y0069319D02*
X0021014Y0069319D01*
X0021014Y0070317D02*
X0021825Y0070317D01*
X0021825Y0071316D02*
X0021014Y0071316D01*
X0021014Y0072314D02*
X0021825Y0072314D01*
X0021014Y0073313D02*
X0026374Y0073313D01*
X0026374Y0074311D02*
X0027374Y0074311D01*
X0027374Y0073313D02*
X0038002Y0073313D01*
X0038002Y0074311D02*
X0031923Y0074311D01*
X0031923Y0075310D02*
X0038002Y0075310D01*
X0038002Y0076308D02*
X0031887Y0076308D01*
X0031119Y0077307D02*
X0038350Y0077307D01*
X0038641Y0077598D02*
X0038002Y0076959D01*
X0038002Y0069757D01*
X0038641Y0069119D01*
X0046642Y0069119D01*
X0047281Y0069757D01*
X0047281Y0076959D01*
X0046642Y0077598D01*
X0044931Y0077598D01*
X0044931Y0096687D01*
X0045945Y0095673D01*
X0047301Y0095112D01*
X0048769Y0095112D01*
X0050125Y0095673D01*
X0051163Y0096711D01*
X0051725Y0098068D01*
X0051725Y0104736D01*
X0051163Y0106092D01*
X0050125Y0107130D01*
X0048769Y0107692D01*
X0047301Y0107692D01*
X0045945Y0107130D01*
X0044907Y0106092D01*
X0044345Y0104736D01*
X0044345Y0103762D01*
X0041725Y0103762D01*
X0041725Y0104736D01*
X0041163Y0106092D01*
X0040254Y0107001D01*
X0040254Y0114676D01*
X0041565Y0114676D01*
X0042204Y0115314D01*
X0042204Y0123316D01*
X0041565Y0123954D01*
X0034363Y0123954D01*
X0033725Y0123316D01*
X0033725Y0115314D01*
X0034363Y0114676D01*
X0035674Y0114676D01*
X0035674Y0106859D01*
X0034907Y0106092D01*
X0034345Y0104736D01*
X0034345Y0098068D01*
X0034907Y0096711D01*
X0035945Y0095673D01*
X0037301Y0095112D01*
X0038769Y0095112D01*
X0040125Y0095673D01*
X0040351Y0095899D01*
X0040351Y0077598D01*
X0038641Y0077598D01*
X0040351Y0078305D02*
X0021014Y0078305D01*
X0021014Y0077307D02*
X0022629Y0077307D01*
X0021861Y0076308D02*
X0021014Y0076308D01*
X0021014Y0075310D02*
X0021825Y0075310D01*
X0021825Y0074311D02*
X0021014Y0074311D01*
X0021014Y0079304D02*
X0040351Y0079304D01*
X0040351Y0080302D02*
X0021014Y0080302D01*
X0021014Y0081301D02*
X0040351Y0081301D01*
X0040351Y0082299D02*
X0021014Y0082299D01*
X0021014Y0083298D02*
X0040351Y0083298D01*
X0040351Y0084296D02*
X0021014Y0084296D01*
X0021014Y0085295D02*
X0040351Y0085295D01*
X0040351Y0086293D02*
X0021014Y0086293D01*
X0021014Y0087292D02*
X0040351Y0087292D01*
X0040351Y0088290D02*
X0021014Y0088290D01*
X0021014Y0089289D02*
X0040351Y0089289D01*
X0040351Y0090287D02*
X0021014Y0090287D01*
X0021158Y0091286D02*
X0040351Y0091286D01*
X0040351Y0092284D02*
X0022157Y0092284D01*
X0023155Y0093283D02*
X0040351Y0093283D01*
X0040351Y0094281D02*
X0024154Y0094281D01*
X0025152Y0095280D02*
X0026895Y0095280D01*
X0029176Y0095280D02*
X0036895Y0095280D01*
X0035340Y0096278D02*
X0030730Y0096278D01*
X0031398Y0097277D02*
X0034673Y0097277D01*
X0034345Y0098275D02*
X0031725Y0098275D01*
X0031725Y0099274D02*
X0034345Y0099274D01*
X0034345Y0100272D02*
X0031725Y0100272D01*
X0031725Y0101271D02*
X0034345Y0101271D01*
X0034345Y0102270D02*
X0031725Y0102270D01*
X0031725Y0103268D02*
X0034345Y0103268D01*
X0034345Y0104267D02*
X0031725Y0104267D01*
X0031506Y0105265D02*
X0034564Y0105265D01*
X0035079Y0106264D02*
X0030992Y0106264D01*
X0029806Y0107262D02*
X0035674Y0107262D01*
X0035674Y0108261D02*
X0029057Y0108261D01*
X0029057Y0109259D02*
X0035674Y0109259D01*
X0035674Y0110258D02*
X0029057Y0110258D01*
X0029057Y0111256D02*
X0035674Y0111256D01*
X0035674Y0112255D02*
X0029057Y0112255D01*
X0029057Y0113253D02*
X0035674Y0113253D01*
X0035674Y0114252D02*
X0029057Y0114252D01*
X0030943Y0115250D02*
X0033789Y0115250D01*
X0033725Y0116249D02*
X0031007Y0116249D01*
X0031007Y0117247D02*
X0033725Y0117247D01*
X0033725Y0118246D02*
X0031007Y0118246D01*
X0031007Y0119244D02*
X0033725Y0119244D01*
X0033725Y0120243D02*
X0031007Y0120243D01*
X0031007Y0121241D02*
X0033725Y0121241D01*
X0033725Y0122240D02*
X0031007Y0122240D01*
X0031007Y0123238D02*
X0033725Y0123238D01*
X0042204Y0123238D02*
X0055410Y0123238D01*
X0055410Y0122240D02*
X0042204Y0122240D01*
X0042204Y0121241D02*
X0055410Y0121241D01*
X0055410Y0120243D02*
X0042204Y0120243D01*
X0042204Y0119244D02*
X0055410Y0119244D01*
X0055410Y0118246D02*
X0042204Y0118246D01*
X0042204Y0117247D02*
X0055410Y0117247D01*
X0054906Y0116249D02*
X0042204Y0116249D01*
X0042140Y0115250D02*
X0054800Y0115250D01*
X0055044Y0114252D02*
X0040254Y0114252D01*
X0040254Y0113253D02*
X0055410Y0113253D01*
X0055410Y0112255D02*
X0040254Y0112255D01*
X0040254Y0111256D02*
X0055410Y0111256D01*
X0055410Y0110258D02*
X0040254Y0110258D01*
X0040254Y0109259D02*
X0055410Y0109259D01*
X0055410Y0108261D02*
X0040254Y0108261D01*
X0040254Y0107262D02*
X0046264Y0107262D01*
X0045079Y0106264D02*
X0040992Y0106264D01*
X0041506Y0105265D02*
X0044564Y0105265D01*
X0044345Y0104267D02*
X0041725Y0104267D01*
X0044931Y0096278D02*
X0045340Y0096278D01*
X0044931Y0095280D02*
X0046895Y0095280D01*
X0044931Y0094281D02*
X0051928Y0094281D01*
X0050930Y0093283D02*
X0044931Y0093283D01*
X0044931Y0092284D02*
X0049931Y0092284D01*
X0048933Y0091286D02*
X0044931Y0091286D01*
X0044931Y0090287D02*
X0047934Y0090287D01*
X0047615Y0089289D02*
X0044931Y0089289D01*
X0044931Y0088290D02*
X0047615Y0088290D01*
X0047615Y0087292D02*
X0044931Y0087292D01*
X0044931Y0086293D02*
X0047615Y0086293D01*
X0047615Y0085295D02*
X0044931Y0085295D01*
X0044931Y0084296D02*
X0047615Y0084296D01*
X0047615Y0083298D02*
X0044931Y0083298D01*
X0044931Y0082299D02*
X0047615Y0082299D01*
X0047615Y0081301D02*
X0044931Y0081301D01*
X0044931Y0080302D02*
X0047615Y0080302D01*
X0047615Y0079304D02*
X0044931Y0079304D01*
X0044931Y0078305D02*
X0047615Y0078305D01*
X0047615Y0077307D02*
X0046933Y0077307D01*
X0047281Y0076308D02*
X0047615Y0076308D01*
X0047615Y0075310D02*
X0047281Y0075310D01*
X0047281Y0074311D02*
X0047615Y0074311D01*
X0047615Y0073313D02*
X0047281Y0073313D01*
X0047281Y0072314D02*
X0047615Y0072314D01*
X0047615Y0071316D02*
X0047281Y0071316D01*
X0047281Y0070317D02*
X0047615Y0070317D01*
X0047615Y0069319D02*
X0046842Y0069319D01*
X0047615Y0068320D02*
X0031072Y0068320D01*
X0031002Y0068279D02*
X0031344Y0068477D01*
X0031623Y0068756D01*
X0031821Y0069098D01*
X0031923Y0069480D01*
X0031923Y0072327D01*
X0027374Y0072327D01*
X0027374Y0068177D01*
X0030620Y0068177D01*
X0031002Y0068279D01*
X0031880Y0069319D02*
X0038441Y0069319D01*
X0038002Y0070317D02*
X0031923Y0070317D01*
X0031923Y0071316D02*
X0038002Y0071316D01*
X0038002Y0072314D02*
X0031923Y0072314D01*
X0027374Y0072314D02*
X0026374Y0072314D01*
X0026374Y0071316D02*
X0027374Y0071316D01*
X0027374Y0070317D02*
X0026374Y0070317D01*
X0026374Y0069319D02*
X0027374Y0069319D01*
X0027374Y0068320D02*
X0026374Y0068320D01*
X0022328Y0065325D02*
X0021918Y0065325D01*
X0021014Y0066323D02*
X0038563Y0066323D01*
X0038002Y0065325D02*
X0031419Y0065325D01*
X0031513Y0064326D02*
X0038002Y0064326D01*
X0038002Y0063328D02*
X0031513Y0063328D01*
X0031513Y0062329D02*
X0038002Y0062329D01*
X0038002Y0061331D02*
X0031513Y0061331D01*
X0031513Y0060332D02*
X0038002Y0060332D01*
X0038002Y0059334D02*
X0031513Y0059334D01*
X0031513Y0058335D02*
X0038228Y0058335D01*
X0037061Y0057337D02*
X0032808Y0057337D01*
X0033914Y0056338D02*
X0035955Y0056338D01*
X0035542Y0055339D02*
X0034328Y0055339D01*
X0034361Y0054341D02*
X0035508Y0054341D01*
X0035798Y0053342D02*
X0034072Y0053342D01*
X0033323Y0052344D02*
X0036547Y0052344D01*
X0040351Y0051345D02*
X0029164Y0051345D01*
X0029164Y0050347D02*
X0040351Y0050347D01*
X0040351Y0049348D02*
X0029164Y0049348D01*
X0029164Y0048350D02*
X0040351Y0048350D01*
X0040351Y0047351D02*
X0029164Y0047351D01*
X0029164Y0046353D02*
X0040351Y0046353D01*
X0040351Y0045354D02*
X0029164Y0045354D01*
X0029164Y0044356D02*
X0040351Y0044356D01*
X0040351Y0043357D02*
X0029164Y0043357D01*
X0029164Y0042359D02*
X0040351Y0042359D01*
X0040351Y0041360D02*
X0029164Y0041360D01*
X0029164Y0040362D02*
X0040351Y0040362D01*
X0040351Y0039363D02*
X0029164Y0039363D01*
X0031113Y0038365D02*
X0040351Y0038365D01*
X0040351Y0037366D02*
X0032348Y0037366D01*
X0033086Y0036368D02*
X0040351Y0036368D01*
X0040341Y0035369D02*
X0033500Y0035369D01*
X0033653Y0034371D02*
X0041135Y0034371D01*
X0042107Y0033372D02*
X0033653Y0033372D01*
X0033653Y0032374D02*
X0043079Y0032374D01*
X0043481Y0031375D02*
X0033653Y0031375D01*
X0033653Y0030377D02*
X0043481Y0030377D01*
X0043481Y0029378D02*
X0033653Y0029378D01*
X0033653Y0028380D02*
X0043481Y0028380D01*
X0043481Y0027381D02*
X0033653Y0027381D01*
X0033653Y0026383D02*
X0043481Y0026383D01*
X0043481Y0025384D02*
X0033653Y0025384D01*
X0033248Y0024386D02*
X0043885Y0024386D01*
X0044394Y0023387D02*
X0032739Y0023387D01*
X0031740Y0022389D02*
X0045393Y0022389D01*
X0051425Y0022389D02*
X0065078Y0022389D01*
X0064080Y0023387D02*
X0052424Y0023387D01*
X0052933Y0024386D02*
X0063570Y0024386D01*
X0063166Y0025384D02*
X0053338Y0025384D01*
X0053338Y0026383D02*
X0063166Y0026383D01*
X0063166Y0027381D02*
X0053338Y0027381D01*
X0053338Y0028380D02*
X0063166Y0028380D01*
X0063166Y0029378D02*
X0053338Y0029378D01*
X0053338Y0030377D02*
X0063166Y0030377D01*
X0063166Y0031375D02*
X0053338Y0031375D01*
X0053338Y0032374D02*
X0063166Y0032374D01*
X0063166Y0033372D02*
X0053338Y0033372D01*
X0053338Y0034371D02*
X0063166Y0034371D01*
X0063319Y0035369D02*
X0053185Y0035369D01*
X0052771Y0036368D02*
X0063732Y0036368D01*
X0064471Y0037366D02*
X0052033Y0037366D01*
X0050798Y0038365D02*
X0065705Y0038365D01*
X0066042Y0058335D02*
X0063048Y0058335D01*
X0063048Y0059334D02*
X0065994Y0059334D01*
X0065994Y0064326D02*
X0063048Y0064326D01*
X0063048Y0065325D02*
X0065994Y0065325D01*
X0066887Y0068531D02*
X0070134Y0068531D01*
X0070134Y0072681D01*
X0071134Y0072681D01*
X0071134Y0073681D01*
X0070134Y0073681D01*
X0070134Y0077831D01*
X0066887Y0077831D01*
X0066505Y0077728D01*
X0066163Y0077531D01*
X0065884Y0077252D01*
X0065687Y0076910D01*
X0065584Y0076528D01*
X0065584Y0073681D01*
X0070134Y0073681D01*
X0070134Y0072681D01*
X0065584Y0072681D01*
X0065584Y0069834D01*
X0065687Y0069453D01*
X0065884Y0069110D01*
X0066163Y0068831D01*
X0066505Y0068634D01*
X0066887Y0068531D01*
X0065764Y0069319D02*
X0062964Y0069319D01*
X0063048Y0070317D02*
X0065584Y0070317D01*
X0065584Y0071316D02*
X0063048Y0071316D01*
X0063048Y0072314D02*
X0065584Y0072314D01*
X0065584Y0074311D02*
X0063048Y0074311D01*
X0063048Y0073313D02*
X0070134Y0073313D01*
X0070134Y0074311D02*
X0071134Y0074311D01*
X0071134Y0073313D02*
X0077480Y0073313D01*
X0077480Y0072314D02*
X0075683Y0072314D01*
X0075683Y0072681D02*
X0071134Y0072681D01*
X0071134Y0068531D01*
X0074380Y0068531D01*
X0074762Y0068634D01*
X0075104Y0068831D01*
X0075383Y0069110D01*
X0075581Y0069453D01*
X0075683Y0069834D01*
X0075683Y0072681D01*
X0075683Y0071316D02*
X0077480Y0071316D01*
X0077480Y0070317D02*
X0075683Y0070317D01*
X0075503Y0069319D02*
X0077957Y0069319D01*
X0071134Y0069319D02*
X0070134Y0069319D01*
X0070134Y0070317D02*
X0071134Y0070317D01*
X0071134Y0071316D02*
X0070134Y0071316D01*
X0070134Y0072314D02*
X0071134Y0072314D01*
X0071134Y0075310D02*
X0070134Y0075310D01*
X0070134Y0076308D02*
X0071134Y0076308D01*
X0071134Y0077307D02*
X0070134Y0077307D01*
X0065939Y0077307D02*
X0062218Y0077307D01*
X0063048Y0076308D02*
X0065584Y0076308D01*
X0065584Y0075310D02*
X0063048Y0075310D01*
X0072235Y0084296D02*
X0073807Y0084296D01*
X0073563Y0085295D02*
X0072609Y0085295D01*
X0072609Y0086293D02*
X0073563Y0086293D01*
X0073563Y0087292D02*
X0072609Y0087292D01*
X0076547Y0087292D02*
X0077515Y0087292D01*
X0077515Y0086293D02*
X0076547Y0086293D01*
X0076547Y0085295D02*
X0077515Y0085295D01*
X0077515Y0084296D02*
X0076547Y0084296D01*
X0076547Y0089289D02*
X0077515Y0089289D01*
X0077515Y0090287D02*
X0076547Y0090287D01*
X0076547Y0091286D02*
X0077515Y0091286D01*
X0080355Y0091286D02*
X0084617Y0091286D01*
X0085005Y0090287D02*
X0080500Y0090287D01*
X0080500Y0089289D02*
X0085751Y0089289D01*
X0067318Y0099274D02*
X0059990Y0099274D01*
X0059990Y0100272D02*
X0066319Y0100272D01*
X0065321Y0101271D02*
X0059990Y0101271D01*
X0059990Y0102270D02*
X0064322Y0102270D01*
X0063383Y0103268D02*
X0059990Y0103268D01*
X0059990Y0104267D02*
X0063383Y0104267D01*
X0063383Y0105265D02*
X0059990Y0105265D01*
X0059990Y0106264D02*
X0063383Y0106264D01*
X0063383Y0107262D02*
X0059990Y0107262D01*
X0059990Y0108261D02*
X0063383Y0108261D01*
X0063383Y0109259D02*
X0059990Y0109259D01*
X0059990Y0110258D02*
X0063383Y0110258D01*
X0063383Y0111256D02*
X0059990Y0111256D01*
X0059990Y0112255D02*
X0063383Y0112255D01*
X0063383Y0113253D02*
X0059990Y0113253D01*
X0060357Y0114252D02*
X0063383Y0114252D01*
X0063383Y0115250D02*
X0060600Y0115250D01*
X0060495Y0116249D02*
X0063383Y0116249D01*
X0063383Y0117247D02*
X0059990Y0117247D01*
X0059990Y0118246D02*
X0063383Y0118246D01*
X0063383Y0119244D02*
X0059990Y0119244D01*
X0059990Y0120243D02*
X0063383Y0120243D01*
X0063383Y0121241D02*
X0059990Y0121241D01*
X0055410Y0107262D02*
X0049806Y0107262D01*
X0050992Y0106264D02*
X0055410Y0106264D01*
X0055410Y0105265D02*
X0051506Y0105265D01*
X0051725Y0104267D02*
X0055410Y0104267D01*
X0055410Y0103268D02*
X0051725Y0103268D01*
X0051725Y0102270D02*
X0055410Y0102270D01*
X0055410Y0101271D02*
X0051725Y0101271D01*
X0051725Y0100272D02*
X0055410Y0100272D01*
X0055410Y0099274D02*
X0051725Y0099274D01*
X0051725Y0098275D02*
X0055410Y0098275D01*
X0054924Y0097277D02*
X0051398Y0097277D01*
X0050730Y0096278D02*
X0053925Y0096278D01*
X0052927Y0095280D02*
X0049176Y0095280D01*
X0040351Y0095280D02*
X0039176Y0095280D01*
X0027374Y0077307D02*
X0026374Y0077307D01*
X0026374Y0076308D02*
X0027374Y0076308D01*
X0027374Y0075310D02*
X0026374Y0075310D01*
X0017077Y0058335D02*
X0015795Y0058335D01*
X0015795Y0057337D02*
X0016155Y0057337D01*
X0015795Y0049348D02*
X0024584Y0049348D01*
X0024584Y0048350D02*
X0015795Y0048350D01*
X0015795Y0047351D02*
X0024584Y0047351D01*
X0024584Y0046353D02*
X0015795Y0046353D01*
X0015795Y0045354D02*
X0024584Y0045354D01*
X0024584Y0044356D02*
X0015795Y0044356D01*
X0015795Y0043357D02*
X0024584Y0043357D01*
X0024584Y0042359D02*
X0015795Y0042359D01*
X0015795Y0041360D02*
X0024584Y0041360D01*
X0024584Y0040362D02*
X0015795Y0040362D01*
X0015795Y0039363D02*
X0024584Y0039363D01*
X0024584Y0038365D02*
X0015795Y0038365D01*
X0015795Y0037366D02*
X0024584Y0037366D01*
X0024362Y0036368D02*
X0015795Y0036368D01*
X0015795Y0035369D02*
X0023948Y0035369D01*
X0023796Y0034371D02*
X0015795Y0034371D01*
X0015795Y0033372D02*
X0023796Y0033372D01*
X0023796Y0032374D02*
X0015795Y0032374D01*
X0015795Y0031375D02*
X0023796Y0031375D01*
X0023796Y0030377D02*
X0015795Y0030377D01*
X0015795Y0029378D02*
X0023796Y0029378D01*
X0023796Y0028380D02*
X0015795Y0028380D01*
X0015795Y0027381D02*
X0023796Y0027381D01*
X0023796Y0026383D02*
X0015795Y0026383D01*
X0015795Y0025384D02*
X0023796Y0025384D01*
X0024200Y0024386D02*
X0015795Y0024386D01*
X0015795Y0023387D02*
X0024709Y0023387D01*
X0025708Y0022389D02*
X0015795Y0022389D01*
X0015795Y0019393D02*
X0142716Y0019393D01*
X0142716Y0018395D02*
X0015795Y0018395D01*
X0015795Y0017396D02*
X0142716Y0017396D01*
X0142716Y0016398D02*
X0015795Y0016398D01*
X0015795Y0015399D02*
X0142716Y0015399D01*
X0142716Y0014401D02*
X0015795Y0014401D01*
X0015795Y0013402D02*
X0142716Y0013402D01*
X0142716Y0012403D02*
X0015795Y0012403D01*
X0015795Y0011405D02*
X0142716Y0011405D01*
X0142716Y0010406D02*
X0015795Y0010406D01*
X0029164Y0052344D02*
X0029283Y0052344D01*
X0040072Y0057337D02*
X0040351Y0057337D01*
X0097216Y0057337D02*
X0100107Y0057337D01*
X0101105Y0056338D02*
X0097216Y0056338D01*
X0022326Y0147203D02*
X0015795Y0147203D01*
X0015795Y0148201D02*
X0020954Y0148201D01*
X0019955Y0149200D02*
X0015795Y0149200D01*
X0015795Y0150198D02*
X0019272Y0150198D01*
X0018858Y0151197D02*
X0015795Y0151197D01*
X0015795Y0152195D02*
X0018444Y0152195D01*
X0018307Y0153194D02*
X0015795Y0153194D01*
X0015795Y0154192D02*
X0018307Y0154192D01*
X0018307Y0155191D02*
X0015795Y0155191D01*
X0015795Y0156189D02*
X0018538Y0156189D01*
X0018952Y0157188D02*
X0015795Y0157188D01*
X0015795Y0158186D02*
X0019366Y0158186D01*
X0020182Y0159185D02*
X0015795Y0159185D01*
X0015795Y0160183D02*
X0021181Y0160183D01*
D30*
X0054689Y0133665D02*
X0057700Y0130654D01*
X0057700Y0115417D01*
X0057700Y0096815D01*
X0049905Y0089020D01*
X0049905Y0063685D01*
X0048382Y0062161D01*
X0042641Y0062161D01*
X0042641Y0054827D01*
X0042464Y0054650D01*
X0038567Y0054650D01*
X0042641Y0054827D02*
X0042641Y0036106D01*
X0048409Y0030181D01*
X0068094Y0030181D02*
X0070634Y0032720D01*
X0070634Y0061984D01*
X0058586Y0061984D01*
X0058409Y0061807D01*
X0058409Y0073004D02*
X0058409Y0076736D01*
X0069551Y0087878D01*
X0061165Y0087878D01*
X0061067Y0087780D01*
X0073291Y0096539D02*
X0065673Y0104157D01*
X0065673Y0129413D01*
X0068862Y0132602D01*
X0068862Y0133665D01*
X0083638Y0148441D01*
X0083638Y0159000D01*
X0079138Y0123035D02*
X0094204Y0123035D01*
X0094244Y0123075D01*
X0094728Y0114157D02*
X0091697Y0114157D01*
X0089767Y0112228D01*
X0083992Y0112228D01*
X0083921Y0112157D01*
X0072937Y0109748D02*
X0072937Y0116835D01*
X0079138Y0123035D01*
X0072937Y0109748D02*
X0081724Y0100961D01*
X0083921Y0100961D01*
X0083921Y0095220D01*
X0092602Y0086539D01*
X0092602Y0074512D01*
X0093153Y0073961D01*
X0125366Y0100362D02*
X0125555Y0100551D01*
X0125555Y0104965D01*
X0117582Y0112937D01*
X0117228Y0112937D01*
X0048035Y0101402D02*
X0047964Y0101472D01*
X0042287Y0101472D01*
X0042641Y0101118D01*
X0042641Y0073358D01*
X0026874Y0061630D02*
X0026874Y0053941D01*
X0027582Y0054650D01*
X0031303Y0054650D01*
X0026874Y0053941D02*
X0026874Y0032189D01*
X0028724Y0030181D01*
X0026874Y0061630D02*
X0022374Y0061630D01*
X0018724Y0065280D01*
X0018724Y0092091D01*
X0028035Y0101402D01*
X0026767Y0102669D01*
X0026767Y0119315D01*
X0037964Y0119315D02*
X0037964Y0101472D01*
X0042287Y0101472D01*
X0038035Y0101402D02*
X0037964Y0101472D01*
D31*
X0057700Y0115417D03*
X0087641Y0091500D03*
X0092602Y0086539D03*
X0117228Y0112937D03*
M02*
