%
M48
M72
T01C0.01575
T02C0.03150
T03C0.03200
T04C0.04331
T05C0.05118
T06C0.12598
%
T01
X92602Y86539
X87641Y91500
X117228Y112937
X57700Y115417
T02
X54689Y133665
X68862Y133665
X68862Y147839
X54689Y147839
T03
X48035Y101402
X38035Y101402
X28035Y101402
T04
X115366Y100362
X115366Y90362
X115366Y80362
X125366Y80362
X125366Y90362
X125366Y100362
T05
X28724Y30181
X48409Y30181
X68094Y30181
X87779Y30181
X107464Y30181
X127149Y30181
T06
X132405Y154079
X26106Y154079
M30
