%
M48
M72
T01C0.01575
T02C0.03937
T03C0.07874
T04C0.12598
%
T01
X57055Y76241
X82921Y89352
X79378Y109017
X79555Y116281
X77075Y125848
X58472Y144804
X41642Y137895
X118354Y103525
X132350Y93426
X143335Y106359
X146346Y110080
X143335Y113978
X140323Y110080
X157508Y116989
X157862Y127619
X169024Y148170
X184791Y106891
X161937Y101930
X123138Y79253
T02
X186031Y132584
X186031Y142584
X212587Y110159
X45933Y110159
X35933Y110159
X35933Y120159
X45933Y120159
X45933Y100159
X35933Y100159
X14949Y95395
X14949Y124922
T03
X143295Y136655
X169791Y110159
X143295Y83663
T04
X15343Y76694
X15343Y143623
X206287Y143623
X206287Y76694
M30
