G75*
%MOIN*%
%OFA0B0*%
%FSLAX25Y25*%
%IPPOS*%
%LPD*%
%AMOC8*
5,1,8,0,0,1.08239X$1,22.5*
%
%ADD10C,0.00800*%
%ADD11R,0.07400X0.07400*%
%ADD12C,0.07400*%
%ADD13C,0.07000*%
%ADD14C,0.01000*%
%ADD15C,0.03200*%
%ADD16C,0.02400*%
%ADD17C,0.01600*%
%ADD18C,0.01200*%
D10*
X0042171Y0081905D02*
X0042171Y0085045D01*
X0043217Y0085045D02*
X0041124Y0085045D01*
X0044749Y0084521D02*
X0044749Y0082428D01*
X0045273Y0081905D01*
X0046319Y0081905D01*
X0046842Y0082428D01*
X0046842Y0084521D01*
X0046319Y0085045D01*
X0045273Y0085045D01*
X0044749Y0084521D01*
X0048374Y0084521D02*
X0048374Y0083998D01*
X0048898Y0083475D01*
X0050468Y0083475D01*
X0050468Y0085045D02*
X0048898Y0085045D01*
X0048374Y0084521D01*
X0048898Y0083475D02*
X0048374Y0082952D01*
X0048374Y0082428D01*
X0048898Y0081905D01*
X0050468Y0081905D01*
X0050468Y0085045D01*
D11*
X0046000Y0105237D03*
D12*
X0046000Y0095237D03*
X0036000Y0095237D03*
X0036000Y0105237D03*
X0026000Y0105237D03*
X0026000Y0095237D03*
D13*
X0058043Y0163611D03*
X0058043Y0177785D03*
X0072217Y0177785D03*
X0072217Y0163611D03*
D14*
X0009605Y0176251D02*
X0009605Y0081158D01*
X0040071Y0081158D01*
X0040071Y0083128D01*
X0039024Y0084175D01*
X0039024Y0085915D01*
X0040254Y0087145D01*
X0044087Y0087145D01*
X0044245Y0086987D01*
X0044403Y0087145D01*
X0044403Y0087145D01*
X0044403Y0087145D01*
X0045449Y0087145D01*
X0045449Y0087145D01*
X0045769Y0087145D01*
X0046142Y0087145D01*
X0046142Y0087145D01*
X0047189Y0087145D01*
X0047189Y0087145D01*
X0047189Y0087145D01*
X0047608Y0086725D01*
X0048028Y0087145D01*
X0048028Y0087145D01*
X0048889Y0087145D01*
X0049768Y0087145D01*
X0049768Y0087145D01*
X0051337Y0087145D01*
X0052568Y0085915D01*
X0052568Y0081158D01*
X0084946Y0081158D01*
X0084946Y0113741D01*
X0084361Y0113156D01*
X0083149Y0112654D01*
X0081836Y0112654D01*
X0080623Y0113156D01*
X0079695Y0114085D01*
X0079192Y0115297D01*
X0079192Y0116610D01*
X0079695Y0117823D01*
X0079992Y0118121D01*
X0079992Y0162792D01*
X0079710Y0162792D01*
X0078497Y0163294D01*
X0077569Y0164222D01*
X0077417Y0164589D01*
X0077417Y0162577D01*
X0076625Y0160666D01*
X0075162Y0159203D01*
X0073251Y0158411D01*
X0071182Y0158411D01*
X0069271Y0159203D01*
X0067892Y0160582D01*
X0067892Y0160580D01*
X0076084Y0152389D01*
X0076084Y0152389D01*
X0076899Y0151573D01*
X0077341Y0150507D01*
X0077341Y0126000D01*
X0078161Y0125661D01*
X0079089Y0124733D01*
X0079591Y0123520D01*
X0079591Y0122207D01*
X0079191Y0121241D01*
X0079191Y0113428D01*
X0078750Y0112362D01*
X0074852Y0108465D01*
X0074036Y0107649D01*
X0072971Y0107207D01*
X0057289Y0107207D01*
X0056223Y0107649D01*
X0055408Y0108465D01*
X0055408Y0108465D01*
X0052503Y0111369D01*
X0051705Y0111700D01*
X0050777Y0112628D01*
X0050275Y0113841D01*
X0050275Y0115154D01*
X0050777Y0116366D01*
X0051075Y0116664D01*
X0051075Y0119367D01*
X0023680Y0146762D01*
X0023299Y0147681D01*
X0023299Y0162685D01*
X0023002Y0162982D01*
X0022499Y0164195D01*
X0022499Y0165508D01*
X0023002Y0166721D01*
X0023930Y0167649D01*
X0025143Y0168151D01*
X0026456Y0168151D01*
X0027668Y0167649D01*
X0028597Y0166721D01*
X0029099Y0165508D01*
X0029099Y0164195D01*
X0028597Y0162982D01*
X0028299Y0162685D01*
X0028299Y0149214D01*
X0034901Y0142612D01*
X0034901Y0143185D01*
X0035403Y0144398D01*
X0036331Y0145326D01*
X0037544Y0145829D01*
X0038857Y0145829D01*
X0040070Y0145326D01*
X0040998Y0144398D01*
X0041501Y0143185D01*
X0041501Y0142265D01*
X0041887Y0141828D01*
X0055652Y0141969D01*
X0056174Y0142492D01*
X0057387Y0142994D01*
X0058700Y0142994D01*
X0059913Y0142492D01*
X0060841Y0141563D01*
X0061343Y0140350D01*
X0061343Y0139038D01*
X0060841Y0137825D01*
X0059913Y0136896D01*
X0058700Y0136394D01*
X0057387Y0136394D01*
X0056174Y0136896D01*
X0055701Y0137370D01*
X0041738Y0137226D01*
X0041666Y0137162D01*
X0040798Y0137216D01*
X0040302Y0137211D01*
X0054991Y0122522D01*
X0054991Y0122522D01*
X0055694Y0121819D01*
X0056075Y0120900D01*
X0056075Y0116664D01*
X0056372Y0116366D01*
X0056842Y0115233D01*
X0059067Y0113007D01*
X0071192Y0113007D01*
X0073391Y0115206D01*
X0073391Y0121241D01*
X0073080Y0121993D01*
X0072798Y0122275D01*
X0072236Y0122837D01*
X0072236Y0118829D01*
X0072534Y0118532D01*
X0073036Y0117319D01*
X0073036Y0116006D01*
X0072534Y0114793D01*
X0071605Y0113865D01*
X0070393Y0113363D01*
X0069080Y0113363D01*
X0067867Y0113865D01*
X0066939Y0114793D01*
X0066436Y0116006D01*
X0066436Y0117319D01*
X0066939Y0118532D01*
X0067236Y0118829D01*
X0067236Y0138481D01*
X0058681Y0147037D01*
X0049928Y0147037D01*
X0049009Y0147417D01*
X0048306Y0148120D01*
X0028286Y0168140D01*
X0028279Y0168158D01*
X0027608Y0168829D01*
X0027105Y0170042D01*
X0027105Y0171354D01*
X0027608Y0172567D01*
X0028536Y0173496D01*
X0029749Y0173998D01*
X0031062Y0173998D01*
X0032275Y0173496D01*
X0033203Y0172567D01*
X0033705Y0171354D01*
X0033705Y0170042D01*
X0033632Y0169865D01*
X0051461Y0152037D01*
X0060214Y0152037D01*
X0061133Y0151656D01*
X0071541Y0141248D01*
X0071541Y0148729D01*
X0063349Y0156921D01*
X0063349Y0156921D01*
X0062534Y0157736D01*
X0062092Y0158802D01*
X0062092Y0160306D01*
X0060989Y0159203D01*
X0059078Y0158411D01*
X0057009Y0158411D01*
X0055098Y0159203D01*
X0053635Y0160666D01*
X0052843Y0162577D01*
X0052843Y0164646D01*
X0053635Y0166557D01*
X0055098Y0168020D01*
X0057009Y0168811D01*
X0059078Y0168811D01*
X0060989Y0168020D01*
X0062092Y0166916D01*
X0062092Y0174479D01*
X0060989Y0173376D01*
X0059078Y0172585D01*
X0057009Y0172585D01*
X0055098Y0173376D01*
X0053635Y0174839D01*
X0052843Y0176750D01*
X0052843Y0178819D01*
X0053635Y0180730D01*
X0055098Y0182193D01*
X0057009Y0182985D01*
X0059078Y0182985D01*
X0060989Y0182193D01*
X0062092Y0181090D01*
X0062092Y0183389D01*
X0044711Y0183389D01*
X0043965Y0183697D01*
X0043922Y0183697D01*
X0042709Y0184200D01*
X0041781Y0185128D01*
X0041279Y0186341D01*
X0041279Y0187654D01*
X0041781Y0188866D01*
X0042709Y0189795D01*
X0043922Y0190297D01*
X0045235Y0190297D01*
X0046448Y0189795D01*
X0047054Y0189188D01*
X0062976Y0189188D01*
X0063942Y0189588D01*
X0065255Y0189588D01*
X0066468Y0189086D01*
X0067396Y0188158D01*
X0067898Y0186945D01*
X0067898Y0185632D01*
X0067892Y0185617D01*
X0067892Y0180311D01*
X0067940Y0180405D01*
X0068403Y0181042D01*
X0068959Y0181598D01*
X0069596Y0182061D01*
X0070297Y0182418D01*
X0071046Y0182661D01*
X0071823Y0182785D01*
X0071929Y0182785D01*
X0071929Y0178072D01*
X0072504Y0178072D01*
X0077217Y0178072D01*
X0077217Y0178178D01*
X0077093Y0178955D01*
X0076850Y0179704D01*
X0076493Y0180405D01*
X0076030Y0181042D01*
X0075474Y0181598D01*
X0074837Y0182061D01*
X0074136Y0182418D01*
X0073387Y0182661D01*
X0072610Y0182785D01*
X0072504Y0182785D01*
X0072504Y0178072D01*
X0072504Y0177497D01*
X0072504Y0172785D01*
X0072610Y0172785D01*
X0073387Y0172908D01*
X0074136Y0173151D01*
X0074837Y0173508D01*
X0075474Y0173971D01*
X0076030Y0174527D01*
X0076493Y0175164D01*
X0076850Y0175865D01*
X0077093Y0176614D01*
X0077217Y0177391D01*
X0077216Y0177497D01*
X0072504Y0177497D01*
X0071929Y0177497D01*
X0071929Y0172785D01*
X0071823Y0172785D01*
X0071046Y0172908D01*
X0070297Y0173151D01*
X0069596Y0173508D01*
X0068959Y0173971D01*
X0068403Y0174527D01*
X0067940Y0175164D01*
X0067892Y0175258D01*
X0067892Y0166641D01*
X0069271Y0168020D01*
X0071182Y0168811D01*
X0073251Y0168811D01*
X0075162Y0168020D01*
X0076625Y0166557D01*
X0077066Y0165492D01*
X0077066Y0166748D01*
X0077569Y0167961D01*
X0078497Y0168889D01*
X0079710Y0169392D01*
X0081023Y0169392D01*
X0082235Y0168889D01*
X0083164Y0167961D01*
X0083666Y0166748D01*
X0083666Y0166327D01*
X0083908Y0166085D01*
X0084612Y0165382D01*
X0084946Y0164575D01*
X0084946Y0195868D01*
X0009605Y0195868D01*
X0009605Y0178609D01*
X0009891Y0179300D01*
X0010820Y0180228D01*
X0012033Y0180730D01*
X0013345Y0180730D01*
X0014311Y0180330D01*
X0014699Y0180330D01*
X0013217Y0180944D01*
X0010967Y0183194D01*
X0009749Y0186134D01*
X0009749Y0189317D01*
X0010967Y0192257D01*
X0013217Y0194507D01*
X0016157Y0195725D01*
X0019339Y0195725D01*
X0022279Y0194507D01*
X0024529Y0192257D01*
X0025747Y0189317D01*
X0025747Y0186134D01*
X0024529Y0183194D01*
X0022279Y0180944D01*
X0020797Y0180330D01*
X0037675Y0180330D01*
X0038741Y0179889D01*
X0039557Y0179073D01*
X0043061Y0175569D01*
X0044027Y0175169D01*
X0044955Y0174240D01*
X0045457Y0173028D01*
X0045457Y0171715D01*
X0044955Y0170502D01*
X0044027Y0169574D01*
X0042814Y0169071D01*
X0041501Y0169071D01*
X0040288Y0169574D01*
X0039360Y0170502D01*
X0038960Y0171468D01*
X0035897Y0174530D01*
X0017892Y0174530D01*
X0017892Y0139544D01*
X0018190Y0138826D01*
X0019559Y0137456D01*
X0027012Y0137456D01*
X0027977Y0137856D01*
X0029290Y0137856D01*
X0030503Y0137354D01*
X0031431Y0136426D01*
X0031934Y0135213D01*
X0031934Y0133900D01*
X0031431Y0132687D01*
X0030503Y0131759D01*
X0029290Y0131256D01*
X0027977Y0131256D01*
X0027012Y0131656D01*
X0017892Y0131656D01*
X0017892Y0088381D01*
X0030976Y0088381D01*
X0032998Y0090403D01*
X0032998Y0090636D01*
X0032941Y0090659D01*
X0031422Y0092178D01*
X0031000Y0093198D01*
X0030578Y0092178D01*
X0029059Y0090659D01*
X0027074Y0089837D01*
X0024926Y0089837D01*
X0022941Y0090659D01*
X0021422Y0092178D01*
X0020600Y0094163D01*
X0020600Y0096311D01*
X0021422Y0098296D01*
X0022941Y0099815D01*
X0023960Y0100237D01*
X0022941Y0100659D01*
X0021422Y0102178D01*
X0020600Y0104163D01*
X0020600Y0106311D01*
X0021422Y0108296D01*
X0022941Y0109815D01*
X0024926Y0110637D01*
X0027074Y0110637D01*
X0029059Y0109815D01*
X0030578Y0108296D01*
X0031000Y0107277D01*
X0031422Y0108296D01*
X0032941Y0109815D01*
X0034926Y0110637D01*
X0037074Y0110637D01*
X0039059Y0109815D01*
X0040578Y0108296D01*
X0040800Y0107760D01*
X0040800Y0109135D01*
X0040902Y0109516D01*
X0041100Y0109858D01*
X0041379Y0110138D01*
X0041721Y0110335D01*
X0042102Y0110437D01*
X0045500Y0110437D01*
X0045500Y0105737D01*
X0046500Y0105737D01*
X0051200Y0105737D01*
X0051200Y0109135D01*
X0051098Y0109516D01*
X0050900Y0109858D01*
X0050621Y0110138D01*
X0050279Y0110335D01*
X0049897Y0110437D01*
X0046500Y0110437D01*
X0046500Y0105737D01*
X0046500Y0104737D01*
X0051200Y0104737D01*
X0051200Y0101340D01*
X0051098Y0100958D01*
X0050900Y0100616D01*
X0050621Y0100337D01*
X0050279Y0100140D01*
X0049897Y0100037D01*
X0048523Y0100037D01*
X0049059Y0099815D01*
X0050578Y0098296D01*
X0051400Y0096311D01*
X0051400Y0094163D01*
X0050578Y0092178D01*
X0049059Y0090659D01*
X0047074Y0089837D01*
X0044926Y0089837D01*
X0042941Y0090659D01*
X0041422Y0092178D01*
X0041000Y0093198D01*
X0040578Y0092178D01*
X0039059Y0090659D01*
X0038798Y0090551D01*
X0038798Y0088625D01*
X0038356Y0087559D01*
X0034636Y0083839D01*
X0033820Y0083023D01*
X0032754Y0082581D01*
X0014947Y0082581D01*
X0013881Y0083023D01*
X0013349Y0083554D01*
X0012534Y0084370D01*
X0012092Y0085436D01*
X0012092Y0136300D01*
X0011692Y0137266D01*
X0011692Y0138579D01*
X0012092Y0139544D01*
X0012092Y0173926D01*
X0011785Y0174233D01*
X0010820Y0174633D01*
X0009891Y0175561D01*
X0009605Y0176251D01*
X0009605Y0175315D02*
X0010137Y0175315D01*
X0009605Y0174316D02*
X0011583Y0174316D01*
X0012092Y0173318D02*
X0009605Y0173318D01*
X0009605Y0172319D02*
X0012092Y0172319D01*
X0012092Y0171321D02*
X0009605Y0171321D01*
X0009605Y0170322D02*
X0012092Y0170322D01*
X0012092Y0169324D02*
X0009605Y0169324D01*
X0009605Y0168325D02*
X0012092Y0168325D01*
X0012092Y0167327D02*
X0009605Y0167327D01*
X0009605Y0166328D02*
X0012092Y0166328D01*
X0012092Y0165330D02*
X0009605Y0165330D01*
X0009605Y0164331D02*
X0012092Y0164331D01*
X0012092Y0163333D02*
X0009605Y0163333D01*
X0009605Y0162334D02*
X0012092Y0162334D01*
X0012092Y0161336D02*
X0009605Y0161336D01*
X0009605Y0160337D02*
X0012092Y0160337D01*
X0012092Y0159339D02*
X0009605Y0159339D01*
X0009605Y0158340D02*
X0012092Y0158340D01*
X0012092Y0157342D02*
X0009605Y0157342D01*
X0009605Y0156343D02*
X0012092Y0156343D01*
X0012092Y0155345D02*
X0009605Y0155345D01*
X0009605Y0154346D02*
X0012092Y0154346D01*
X0012092Y0153348D02*
X0009605Y0153348D01*
X0009605Y0152349D02*
X0012092Y0152349D01*
X0012092Y0151351D02*
X0009605Y0151351D01*
X0009605Y0150352D02*
X0012092Y0150352D01*
X0012092Y0149354D02*
X0009605Y0149354D01*
X0009605Y0148355D02*
X0012092Y0148355D01*
X0012092Y0147357D02*
X0009605Y0147357D01*
X0009605Y0146358D02*
X0012092Y0146358D01*
X0012092Y0145360D02*
X0009605Y0145360D01*
X0009605Y0144361D02*
X0012092Y0144361D01*
X0012092Y0143363D02*
X0009605Y0143363D01*
X0009605Y0142364D02*
X0012092Y0142364D01*
X0012092Y0141366D02*
X0009605Y0141366D01*
X0009605Y0140367D02*
X0012092Y0140367D01*
X0012019Y0139368D02*
X0009605Y0139368D01*
X0009605Y0138370D02*
X0011692Y0138370D01*
X0011692Y0137371D02*
X0009605Y0137371D01*
X0009605Y0136373D02*
X0012062Y0136373D01*
X0012092Y0135374D02*
X0009605Y0135374D01*
X0009605Y0134376D02*
X0012092Y0134376D01*
X0012092Y0133377D02*
X0009605Y0133377D01*
X0009605Y0132379D02*
X0012092Y0132379D01*
X0012092Y0131380D02*
X0009605Y0131380D01*
X0009605Y0130382D02*
X0012092Y0130382D01*
X0012092Y0129383D02*
X0009605Y0129383D01*
X0009605Y0128385D02*
X0012092Y0128385D01*
X0012092Y0127386D02*
X0009605Y0127386D01*
X0009605Y0126388D02*
X0012092Y0126388D01*
X0012092Y0125389D02*
X0009605Y0125389D01*
X0009605Y0124391D02*
X0012092Y0124391D01*
X0012092Y0123392D02*
X0009605Y0123392D01*
X0009605Y0122394D02*
X0012092Y0122394D01*
X0012092Y0121395D02*
X0009605Y0121395D01*
X0009605Y0120397D02*
X0012092Y0120397D01*
X0012092Y0119398D02*
X0009605Y0119398D01*
X0009605Y0118400D02*
X0012092Y0118400D01*
X0012092Y0117401D02*
X0009605Y0117401D01*
X0009605Y0116403D02*
X0012092Y0116403D01*
X0012092Y0115404D02*
X0009605Y0115404D01*
X0009605Y0114406D02*
X0012092Y0114406D01*
X0012092Y0113407D02*
X0009605Y0113407D01*
X0009605Y0112409D02*
X0012092Y0112409D01*
X0012092Y0111410D02*
X0009605Y0111410D01*
X0009605Y0110412D02*
X0012092Y0110412D01*
X0012092Y0109413D02*
X0009605Y0109413D01*
X0009605Y0108415D02*
X0012092Y0108415D01*
X0012092Y0107416D02*
X0009605Y0107416D01*
X0009605Y0106418D02*
X0012092Y0106418D01*
X0012092Y0105419D02*
X0009605Y0105419D01*
X0009605Y0104421D02*
X0012092Y0104421D01*
X0012092Y0103422D02*
X0009605Y0103422D01*
X0009605Y0102424D02*
X0012092Y0102424D01*
X0012092Y0101425D02*
X0009605Y0101425D01*
X0009605Y0100427D02*
X0012092Y0100427D01*
X0012092Y0099428D02*
X0009605Y0099428D01*
X0009605Y0098430D02*
X0012092Y0098430D01*
X0012092Y0097431D02*
X0009605Y0097431D01*
X0009605Y0096432D02*
X0012092Y0096432D01*
X0012092Y0095434D02*
X0009605Y0095434D01*
X0009605Y0094435D02*
X0012092Y0094435D01*
X0012092Y0093437D02*
X0009605Y0093437D01*
X0009605Y0092438D02*
X0012092Y0092438D01*
X0012092Y0091440D02*
X0009605Y0091440D01*
X0009605Y0090441D02*
X0012092Y0090441D01*
X0012092Y0089443D02*
X0009605Y0089443D01*
X0009605Y0088444D02*
X0012092Y0088444D01*
X0012092Y0087446D02*
X0009605Y0087446D01*
X0009605Y0086447D02*
X0012092Y0086447D01*
X0012092Y0085449D02*
X0009605Y0085449D01*
X0009605Y0084450D02*
X0012500Y0084450D01*
X0013452Y0083452D02*
X0009605Y0083452D01*
X0009605Y0082453D02*
X0040071Y0082453D01*
X0040071Y0081455D02*
X0009605Y0081455D01*
X0017892Y0088444D02*
X0031039Y0088444D01*
X0032037Y0089443D02*
X0017892Y0089443D01*
X0017892Y0090441D02*
X0023467Y0090441D01*
X0022161Y0091440D02*
X0017892Y0091440D01*
X0017892Y0092438D02*
X0021314Y0092438D01*
X0020901Y0093437D02*
X0017892Y0093437D01*
X0017892Y0094435D02*
X0020600Y0094435D01*
X0020600Y0095434D02*
X0017892Y0095434D01*
X0017892Y0096432D02*
X0020650Y0096432D01*
X0021064Y0097431D02*
X0017892Y0097431D01*
X0017892Y0098430D02*
X0021555Y0098430D01*
X0022554Y0099428D02*
X0017892Y0099428D01*
X0017892Y0100427D02*
X0023503Y0100427D01*
X0022176Y0101425D02*
X0017892Y0101425D01*
X0017892Y0102424D02*
X0021321Y0102424D01*
X0020907Y0103422D02*
X0017892Y0103422D01*
X0017892Y0104421D02*
X0020600Y0104421D01*
X0020600Y0105419D02*
X0017892Y0105419D01*
X0017892Y0106418D02*
X0020644Y0106418D01*
X0021058Y0107416D02*
X0017892Y0107416D01*
X0017892Y0108415D02*
X0021541Y0108415D01*
X0022539Y0109413D02*
X0017892Y0109413D01*
X0017892Y0110412D02*
X0024381Y0110412D01*
X0027619Y0110412D02*
X0034381Y0110412D01*
X0032539Y0109413D02*
X0029461Y0109413D01*
X0030459Y0108415D02*
X0031541Y0108415D01*
X0031058Y0107416D02*
X0030942Y0107416D01*
X0037619Y0110412D02*
X0042007Y0110412D01*
X0040875Y0109413D02*
X0039461Y0109413D01*
X0040459Y0108415D02*
X0040800Y0108415D01*
X0045500Y0108415D02*
X0046500Y0108415D01*
X0046500Y0109413D02*
X0045500Y0109413D01*
X0045500Y0110412D02*
X0046500Y0110412D01*
X0046500Y0107416D02*
X0045500Y0107416D01*
X0045500Y0106418D02*
X0046500Y0106418D01*
X0046500Y0105419D02*
X0084946Y0105419D01*
X0084946Y0104421D02*
X0051200Y0104421D01*
X0051200Y0103422D02*
X0084946Y0103422D01*
X0084946Y0102424D02*
X0051200Y0102424D01*
X0051200Y0101425D02*
X0084946Y0101425D01*
X0084946Y0100427D02*
X0050711Y0100427D01*
X0049446Y0099428D02*
X0084946Y0099428D01*
X0084946Y0098430D02*
X0050445Y0098430D01*
X0050936Y0097431D02*
X0084946Y0097431D01*
X0084946Y0096432D02*
X0080487Y0096432D01*
X0081334Y0096082D02*
X0078394Y0097300D01*
X0075212Y0097300D01*
X0072272Y0096082D01*
X0070022Y0093832D01*
X0068804Y0090891D01*
X0068804Y0087709D01*
X0070022Y0084769D01*
X0072272Y0082519D01*
X0075212Y0081301D01*
X0078394Y0081301D01*
X0081334Y0082519D01*
X0083585Y0084769D01*
X0084802Y0087709D01*
X0084802Y0090891D01*
X0083585Y0093832D01*
X0081334Y0096082D01*
X0081982Y0095434D02*
X0084946Y0095434D01*
X0084946Y0094435D02*
X0082981Y0094435D01*
X0083748Y0093437D02*
X0084946Y0093437D01*
X0084946Y0092438D02*
X0084162Y0092438D01*
X0084575Y0091440D02*
X0084946Y0091440D01*
X0084946Y0090441D02*
X0084802Y0090441D01*
X0084802Y0089443D02*
X0084946Y0089443D01*
X0084946Y0088444D02*
X0084802Y0088444D01*
X0084693Y0087446D02*
X0084946Y0087446D01*
X0084946Y0086447D02*
X0084280Y0086447D01*
X0083866Y0085449D02*
X0084946Y0085449D01*
X0084946Y0084450D02*
X0083266Y0084450D01*
X0082267Y0083452D02*
X0084946Y0083452D01*
X0084946Y0082453D02*
X0081176Y0082453D01*
X0078765Y0081455D02*
X0084946Y0081455D01*
X0074841Y0081455D02*
X0052568Y0081455D01*
X0052568Y0082453D02*
X0072430Y0082453D01*
X0071339Y0083452D02*
X0052568Y0083452D01*
X0052568Y0084450D02*
X0070340Y0084450D01*
X0069740Y0085449D02*
X0052568Y0085449D01*
X0052035Y0086447D02*
X0069327Y0086447D01*
X0068913Y0087446D02*
X0038243Y0087446D01*
X0038723Y0088444D02*
X0068804Y0088444D01*
X0068804Y0089443D02*
X0038798Y0089443D01*
X0038798Y0090441D02*
X0043467Y0090441D01*
X0042161Y0091440D02*
X0039839Y0091440D01*
X0040686Y0092438D02*
X0041314Y0092438D01*
X0039557Y0086447D02*
X0037244Y0086447D01*
X0036246Y0085449D02*
X0039024Y0085449D01*
X0039024Y0084450D02*
X0035247Y0084450D01*
X0034249Y0083452D02*
X0039747Y0083452D01*
X0032998Y0090441D02*
X0028533Y0090441D01*
X0029839Y0091440D02*
X0032161Y0091440D01*
X0031314Y0092438D02*
X0030686Y0092438D01*
X0017892Y0111410D02*
X0052404Y0111410D01*
X0053461Y0110412D02*
X0049993Y0110412D01*
X0051125Y0109413D02*
X0054459Y0109413D01*
X0055458Y0108415D02*
X0051200Y0108415D01*
X0051200Y0107416D02*
X0056785Y0107416D01*
X0057905Y0110166D02*
X0072079Y0110166D01*
X0076016Y0114103D01*
X0076409Y0114103D01*
X0076409Y0122765D01*
X0079255Y0121395D02*
X0079992Y0121395D01*
X0079992Y0120397D02*
X0079191Y0120397D01*
X0079191Y0119398D02*
X0079992Y0119398D01*
X0079992Y0118400D02*
X0079191Y0118400D01*
X0079191Y0117401D02*
X0079520Y0117401D01*
X0079191Y0116403D02*
X0079192Y0116403D01*
X0079191Y0115404D02*
X0079192Y0115404D01*
X0079191Y0114406D02*
X0079561Y0114406D01*
X0079183Y0113407D02*
X0080372Y0113407D01*
X0078769Y0112409D02*
X0084946Y0112409D01*
X0084946Y0113407D02*
X0084612Y0113407D01*
X0084946Y0111410D02*
X0077798Y0111410D01*
X0076799Y0110412D02*
X0084946Y0110412D01*
X0084946Y0109413D02*
X0075801Y0109413D01*
X0074802Y0108415D02*
X0084946Y0108415D01*
X0084946Y0107416D02*
X0073474Y0107416D01*
X0071592Y0113407D02*
X0070500Y0113407D01*
X0068972Y0113407D02*
X0058668Y0113407D01*
X0057669Y0114406D02*
X0067326Y0114406D01*
X0066686Y0115404D02*
X0056771Y0115404D01*
X0056336Y0116403D02*
X0066436Y0116403D01*
X0066470Y0117401D02*
X0056075Y0117401D01*
X0056075Y0118400D02*
X0066884Y0118400D01*
X0067236Y0119398D02*
X0056075Y0119398D01*
X0056075Y0120397D02*
X0067236Y0120397D01*
X0067236Y0121395D02*
X0055870Y0121395D01*
X0055119Y0122394D02*
X0067236Y0122394D01*
X0067236Y0123392D02*
X0054121Y0123392D01*
X0053122Y0124391D02*
X0067236Y0124391D01*
X0067236Y0125389D02*
X0052124Y0125389D01*
X0051125Y0126388D02*
X0067236Y0126388D01*
X0067236Y0127386D02*
X0050127Y0127386D01*
X0049128Y0128385D02*
X0067236Y0128385D01*
X0067236Y0129383D02*
X0048130Y0129383D01*
X0047131Y0130382D02*
X0067236Y0130382D01*
X0067236Y0131380D02*
X0046133Y0131380D01*
X0045134Y0132379D02*
X0067236Y0132379D01*
X0067236Y0133377D02*
X0044136Y0133377D01*
X0043137Y0134376D02*
X0067236Y0134376D01*
X0067236Y0135374D02*
X0042139Y0135374D01*
X0041140Y0136373D02*
X0067236Y0136373D01*
X0067236Y0137371D02*
X0060388Y0137371D01*
X0061067Y0138370D02*
X0067236Y0138370D01*
X0066349Y0139368D02*
X0061343Y0139368D01*
X0061336Y0140367D02*
X0065351Y0140367D01*
X0064352Y0141366D02*
X0060923Y0141366D01*
X0060040Y0142364D02*
X0063354Y0142364D01*
X0062355Y0143363D02*
X0041427Y0143363D01*
X0041501Y0142364D02*
X0056046Y0142364D01*
X0059359Y0146358D02*
X0031155Y0146358D01*
X0032153Y0145360D02*
X0036412Y0145360D01*
X0035388Y0144361D02*
X0033152Y0144361D01*
X0034150Y0143363D02*
X0034974Y0143363D01*
X0031073Y0139368D02*
X0017965Y0139368D01*
X0017892Y0140367D02*
X0030075Y0140367D01*
X0029076Y0141366D02*
X0017892Y0141366D01*
X0017892Y0142364D02*
X0028078Y0142364D01*
X0027079Y0143363D02*
X0017892Y0143363D01*
X0017892Y0144361D02*
X0026081Y0144361D01*
X0025082Y0145360D02*
X0017892Y0145360D01*
X0017892Y0146358D02*
X0024084Y0146358D01*
X0023434Y0147357D02*
X0017892Y0147357D01*
X0017892Y0148355D02*
X0023299Y0148355D01*
X0023299Y0149354D02*
X0017892Y0149354D01*
X0017892Y0150352D02*
X0023299Y0150352D01*
X0023299Y0151351D02*
X0017892Y0151351D01*
X0017892Y0152349D02*
X0023299Y0152349D01*
X0023299Y0153348D02*
X0017892Y0153348D01*
X0017892Y0154346D02*
X0023299Y0154346D01*
X0023299Y0155345D02*
X0017892Y0155345D01*
X0017892Y0156343D02*
X0023299Y0156343D01*
X0023299Y0157342D02*
X0017892Y0157342D01*
X0017892Y0158340D02*
X0023299Y0158340D01*
X0023299Y0159339D02*
X0017892Y0159339D01*
X0017892Y0160337D02*
X0023299Y0160337D01*
X0023299Y0161336D02*
X0017892Y0161336D01*
X0017892Y0162334D02*
X0023299Y0162334D01*
X0022856Y0163333D02*
X0017892Y0163333D01*
X0017892Y0164331D02*
X0022499Y0164331D01*
X0022499Y0165330D02*
X0017892Y0165330D01*
X0017892Y0166328D02*
X0022839Y0166328D01*
X0023608Y0167327D02*
X0017892Y0167327D01*
X0017892Y0168325D02*
X0028111Y0168325D01*
X0027991Y0167327D02*
X0029099Y0167327D01*
X0028759Y0166328D02*
X0030098Y0166328D01*
X0031096Y0165330D02*
X0029099Y0165330D01*
X0029099Y0164331D02*
X0032095Y0164331D01*
X0033093Y0163333D02*
X0028742Y0163333D01*
X0028299Y0162334D02*
X0034092Y0162334D01*
X0035090Y0161336D02*
X0028299Y0161336D01*
X0028299Y0160337D02*
X0036089Y0160337D01*
X0037087Y0159339D02*
X0028299Y0159339D01*
X0028299Y0158340D02*
X0038086Y0158340D01*
X0039084Y0157342D02*
X0028299Y0157342D01*
X0028299Y0156343D02*
X0040083Y0156343D01*
X0041082Y0155345D02*
X0028299Y0155345D01*
X0028299Y0154346D02*
X0042080Y0154346D01*
X0043079Y0153348D02*
X0028299Y0153348D01*
X0028299Y0152349D02*
X0044077Y0152349D01*
X0045076Y0151351D02*
X0028299Y0151351D01*
X0028299Y0150352D02*
X0046074Y0150352D01*
X0047073Y0149354D02*
X0028299Y0149354D01*
X0029158Y0148355D02*
X0048071Y0148355D01*
X0049155Y0147357D02*
X0030156Y0147357D01*
X0032072Y0138370D02*
X0018646Y0138370D01*
X0017892Y0131380D02*
X0027678Y0131380D01*
X0029590Y0131380D02*
X0039062Y0131380D01*
X0040060Y0130382D02*
X0017892Y0130382D01*
X0017892Y0129383D02*
X0041059Y0129383D01*
X0042057Y0128385D02*
X0017892Y0128385D01*
X0017892Y0127386D02*
X0043056Y0127386D01*
X0044054Y0126388D02*
X0017892Y0126388D01*
X0017892Y0125389D02*
X0045053Y0125389D01*
X0046051Y0124391D02*
X0017892Y0124391D01*
X0017892Y0123392D02*
X0047050Y0123392D01*
X0048048Y0122394D02*
X0017892Y0122394D01*
X0017892Y0121395D02*
X0049047Y0121395D01*
X0050045Y0120397D02*
X0017892Y0120397D01*
X0017892Y0119398D02*
X0051044Y0119398D01*
X0051075Y0118400D02*
X0017892Y0118400D01*
X0017892Y0117401D02*
X0051075Y0117401D01*
X0050813Y0116403D02*
X0017892Y0116403D01*
X0017892Y0115404D02*
X0050379Y0115404D01*
X0050275Y0114406D02*
X0017892Y0114406D01*
X0017892Y0113407D02*
X0050454Y0113407D01*
X0050996Y0112409D02*
X0017892Y0112409D01*
X0031123Y0132379D02*
X0038063Y0132379D01*
X0037065Y0133377D02*
X0031717Y0133377D01*
X0031934Y0134376D02*
X0036066Y0134376D01*
X0035067Y0135374D02*
X0031867Y0135374D01*
X0031453Y0136373D02*
X0034069Y0136373D01*
X0033070Y0137371D02*
X0030461Y0137371D01*
X0039990Y0145360D02*
X0060358Y0145360D01*
X0061356Y0144361D02*
X0041014Y0144361D01*
X0050150Y0153348D02*
X0066922Y0153348D01*
X0065924Y0154346D02*
X0049151Y0154346D01*
X0048153Y0155345D02*
X0064925Y0155345D01*
X0063927Y0156343D02*
X0047154Y0156343D01*
X0046156Y0157342D02*
X0062928Y0157342D01*
X0062283Y0158340D02*
X0045157Y0158340D01*
X0044159Y0159339D02*
X0054962Y0159339D01*
X0053963Y0160337D02*
X0043160Y0160337D01*
X0042162Y0161336D02*
X0053357Y0161336D01*
X0052944Y0162334D02*
X0041163Y0162334D01*
X0040164Y0163333D02*
X0052843Y0163333D01*
X0052843Y0164331D02*
X0039166Y0164331D01*
X0038167Y0165330D02*
X0053127Y0165330D01*
X0053540Y0166328D02*
X0037169Y0166328D01*
X0036170Y0167327D02*
X0054405Y0167327D01*
X0055836Y0168325D02*
X0035172Y0168325D01*
X0034173Y0169324D02*
X0040891Y0169324D01*
X0039539Y0170322D02*
X0033705Y0170322D01*
X0033705Y0171321D02*
X0039021Y0171321D01*
X0038108Y0172319D02*
X0033306Y0172319D01*
X0032452Y0173318D02*
X0037110Y0173318D01*
X0036111Y0174316D02*
X0017892Y0174316D01*
X0017892Y0173318D02*
X0028359Y0173318D01*
X0027505Y0172319D02*
X0017892Y0172319D01*
X0017892Y0171321D02*
X0027105Y0171321D01*
X0027105Y0170322D02*
X0017892Y0170322D01*
X0017892Y0169324D02*
X0027403Y0169324D01*
X0022641Y0181306D02*
X0054211Y0181306D01*
X0053460Y0180307D02*
X0037730Y0180307D01*
X0039321Y0179309D02*
X0053046Y0179309D01*
X0052843Y0178310D02*
X0040319Y0178310D01*
X0041318Y0177312D02*
X0052843Y0177312D01*
X0053024Y0176313D02*
X0042316Y0176313D01*
X0043674Y0175315D02*
X0053438Y0175315D01*
X0054158Y0174316D02*
X0044879Y0174316D01*
X0045337Y0173318D02*
X0055239Y0173318D01*
X0060848Y0173318D02*
X0062092Y0173318D01*
X0062092Y0174316D02*
X0061929Y0174316D01*
X0062092Y0172319D02*
X0045457Y0172319D01*
X0045294Y0171321D02*
X0062092Y0171321D01*
X0062092Y0170322D02*
X0044776Y0170322D01*
X0043424Y0169324D02*
X0062092Y0169324D01*
X0062092Y0168325D02*
X0060251Y0168325D01*
X0061682Y0167327D02*
X0062092Y0167327D01*
X0067892Y0167327D02*
X0068578Y0167327D01*
X0067892Y0168325D02*
X0070009Y0168325D01*
X0067892Y0169324D02*
X0079546Y0169324D01*
X0081186Y0169324D02*
X0084946Y0169324D01*
X0084946Y0170322D02*
X0067892Y0170322D01*
X0067892Y0171321D02*
X0084946Y0171321D01*
X0084946Y0172319D02*
X0067892Y0172319D01*
X0067892Y0173318D02*
X0069969Y0173318D01*
X0068614Y0174316D02*
X0067892Y0174316D01*
X0071929Y0174316D02*
X0072504Y0174316D01*
X0072504Y0173318D02*
X0071929Y0173318D01*
X0071929Y0175315D02*
X0072504Y0175315D01*
X0072504Y0176313D02*
X0071929Y0176313D01*
X0071929Y0177312D02*
X0072504Y0177312D01*
X0072504Y0178310D02*
X0071929Y0178310D01*
X0071929Y0179309D02*
X0072504Y0179309D01*
X0072504Y0180307D02*
X0071929Y0180307D01*
X0071929Y0181306D02*
X0072504Y0181306D01*
X0072504Y0182304D02*
X0071929Y0182304D01*
X0074359Y0182304D02*
X0084946Y0182304D01*
X0084946Y0181306D02*
X0075766Y0181306D01*
X0076543Y0180307D02*
X0084946Y0180307D01*
X0084946Y0179309D02*
X0076979Y0179309D01*
X0077196Y0178310D02*
X0084946Y0178310D01*
X0084946Y0177312D02*
X0077204Y0177312D01*
X0076996Y0176313D02*
X0084946Y0176313D01*
X0084946Y0175315D02*
X0076570Y0175315D01*
X0075819Y0174316D02*
X0084946Y0174316D01*
X0084946Y0173318D02*
X0074464Y0173318D01*
X0074424Y0168325D02*
X0077933Y0168325D01*
X0077306Y0167327D02*
X0075855Y0167327D01*
X0076720Y0166328D02*
X0077066Y0166328D01*
X0077417Y0164331D02*
X0077523Y0164331D01*
X0077417Y0163333D02*
X0078458Y0163333D01*
X0077316Y0162334D02*
X0079992Y0162334D01*
X0079992Y0161336D02*
X0076902Y0161336D01*
X0076296Y0160337D02*
X0079992Y0160337D01*
X0079992Y0159339D02*
X0075298Y0159339D01*
X0072129Y0156343D02*
X0079992Y0156343D01*
X0079992Y0155345D02*
X0073128Y0155345D01*
X0074126Y0154346D02*
X0079992Y0154346D01*
X0079992Y0153348D02*
X0075125Y0153348D01*
X0076123Y0152349D02*
X0079992Y0152349D01*
X0079992Y0151351D02*
X0076992Y0151351D01*
X0077341Y0150352D02*
X0079992Y0150352D01*
X0079992Y0149354D02*
X0077341Y0149354D01*
X0077341Y0148355D02*
X0079992Y0148355D01*
X0079992Y0147357D02*
X0077341Y0147357D01*
X0077341Y0146358D02*
X0079992Y0146358D01*
X0079992Y0145360D02*
X0077341Y0145360D01*
X0077341Y0144361D02*
X0079992Y0144361D01*
X0079992Y0143363D02*
X0077341Y0143363D01*
X0077341Y0142364D02*
X0079992Y0142364D01*
X0079992Y0141366D02*
X0077341Y0141366D01*
X0077341Y0140367D02*
X0079992Y0140367D01*
X0079992Y0139368D02*
X0077341Y0139368D01*
X0077341Y0138370D02*
X0079992Y0138370D01*
X0079992Y0137371D02*
X0077341Y0137371D01*
X0077341Y0136373D02*
X0079992Y0136373D01*
X0079992Y0135374D02*
X0077341Y0135374D01*
X0077341Y0134376D02*
X0079992Y0134376D01*
X0079992Y0133377D02*
X0077341Y0133377D01*
X0077341Y0132379D02*
X0079992Y0132379D01*
X0079992Y0131380D02*
X0077341Y0131380D01*
X0077341Y0130382D02*
X0079992Y0130382D01*
X0079992Y0129383D02*
X0077341Y0129383D01*
X0077341Y0128385D02*
X0079992Y0128385D01*
X0079992Y0127386D02*
X0077341Y0127386D01*
X0077341Y0126388D02*
X0079992Y0126388D01*
X0079992Y0125389D02*
X0078432Y0125389D01*
X0079230Y0124391D02*
X0079992Y0124391D01*
X0079992Y0123392D02*
X0079591Y0123392D01*
X0079591Y0122394D02*
X0079992Y0122394D01*
X0073328Y0121395D02*
X0072236Y0121395D01*
X0072236Y0120397D02*
X0073391Y0120397D01*
X0073391Y0119398D02*
X0072236Y0119398D01*
X0072589Y0118400D02*
X0073391Y0118400D01*
X0073391Y0117401D02*
X0073002Y0117401D01*
X0073036Y0116403D02*
X0073391Y0116403D01*
X0073391Y0115404D02*
X0072787Y0115404D01*
X0072591Y0114406D02*
X0072146Y0114406D01*
X0072236Y0122394D02*
X0072679Y0122394D01*
X0084946Y0106418D02*
X0051200Y0106418D01*
X0051350Y0096432D02*
X0073119Y0096432D01*
X0071624Y0095434D02*
X0051400Y0095434D01*
X0051400Y0094435D02*
X0070626Y0094435D01*
X0069858Y0093437D02*
X0051099Y0093437D01*
X0050686Y0092438D02*
X0069445Y0092438D01*
X0069031Y0091440D02*
X0049839Y0091440D01*
X0048533Y0090441D02*
X0068804Y0090441D01*
X0048028Y0087145D02*
X0048028Y0087145D01*
X0071423Y0141366D02*
X0071541Y0141366D01*
X0071541Y0142364D02*
X0070425Y0142364D01*
X0069426Y0143363D02*
X0071541Y0143363D01*
X0071541Y0144361D02*
X0068428Y0144361D01*
X0067429Y0145360D02*
X0071541Y0145360D01*
X0071541Y0146358D02*
X0066431Y0146358D01*
X0065432Y0147357D02*
X0071541Y0147357D01*
X0071541Y0148355D02*
X0064434Y0148355D01*
X0063435Y0149354D02*
X0070916Y0149354D01*
X0069918Y0150352D02*
X0062436Y0150352D01*
X0061438Y0151351D02*
X0068919Y0151351D01*
X0067921Y0152349D02*
X0051148Y0152349D01*
X0061125Y0159339D02*
X0062092Y0159339D01*
X0068135Y0160337D02*
X0068137Y0160337D01*
X0069134Y0159339D02*
X0069135Y0159339D01*
X0070132Y0158340D02*
X0079992Y0158340D01*
X0079992Y0157342D02*
X0071131Y0157342D01*
X0083666Y0166328D02*
X0084946Y0166328D01*
X0084946Y0165330D02*
X0084633Y0165330D01*
X0084946Y0167327D02*
X0083426Y0167327D01*
X0082799Y0168325D02*
X0084946Y0168325D01*
X0084946Y0183303D02*
X0067892Y0183303D01*
X0067892Y0184301D02*
X0084946Y0184301D01*
X0084946Y0185300D02*
X0067892Y0185300D01*
X0067898Y0186299D02*
X0084946Y0186299D01*
X0084946Y0187297D02*
X0067753Y0187297D01*
X0067258Y0188296D02*
X0084946Y0188296D01*
X0084946Y0189294D02*
X0065966Y0189294D01*
X0063231Y0189294D02*
X0046949Y0189294D01*
X0045246Y0190293D02*
X0084946Y0190293D01*
X0084946Y0191291D02*
X0024929Y0191291D01*
X0025343Y0190293D02*
X0043911Y0190293D01*
X0042209Y0189294D02*
X0025747Y0189294D01*
X0025747Y0188296D02*
X0041545Y0188296D01*
X0041279Y0187297D02*
X0025747Y0187297D01*
X0025747Y0186299D02*
X0041296Y0186299D01*
X0041710Y0185300D02*
X0025402Y0185300D01*
X0024988Y0184301D02*
X0042608Y0184301D01*
X0055367Y0182304D02*
X0023640Y0182304D01*
X0024574Y0183303D02*
X0062092Y0183303D01*
X0062092Y0182304D02*
X0060720Y0182304D01*
X0061876Y0181306D02*
X0062092Y0181306D01*
X0067892Y0181306D02*
X0068667Y0181306D01*
X0067892Y0182304D02*
X0070074Y0182304D01*
X0084946Y0192290D02*
X0024497Y0192290D01*
X0023498Y0193288D02*
X0084946Y0193288D01*
X0084946Y0194287D02*
X0022500Y0194287D01*
X0020400Y0195285D02*
X0084946Y0195285D01*
X0015096Y0195285D02*
X0009605Y0195285D01*
X0009605Y0194287D02*
X0012997Y0194287D01*
X0011998Y0193288D02*
X0009605Y0193288D01*
X0009605Y0192290D02*
X0010999Y0192290D01*
X0010567Y0191291D02*
X0009605Y0191291D01*
X0009605Y0190293D02*
X0010153Y0190293D01*
X0009749Y0189294D02*
X0009605Y0189294D01*
X0009605Y0188296D02*
X0009749Y0188296D01*
X0009749Y0187297D02*
X0009605Y0187297D01*
X0009605Y0186299D02*
X0009749Y0186299D01*
X0009605Y0185300D02*
X0010094Y0185300D01*
X0010508Y0184301D02*
X0009605Y0184301D01*
X0009605Y0183303D02*
X0010922Y0183303D01*
X0011856Y0182304D02*
X0009605Y0182304D01*
X0009605Y0181306D02*
X0012855Y0181306D01*
X0011012Y0180307D02*
X0009605Y0180307D01*
X0009605Y0179309D02*
X0009901Y0179309D01*
D15*
X0012689Y0177430D03*
X0025799Y0164852D03*
X0030405Y0170698D03*
X0042157Y0172371D03*
X0044579Y0186997D03*
X0064598Y0186289D03*
X0080366Y0166092D03*
X0058043Y0139694D03*
X0059874Y0131033D03*
X0069736Y0116663D03*
X0076291Y0122863D03*
X0082492Y0115954D03*
X0055150Y0087726D03*
X0053575Y0114497D03*
X0038201Y0142529D03*
X0028634Y0134556D03*
X0014992Y0137922D03*
X0026016Y0116859D03*
D16*
X0028634Y0134556D02*
X0018358Y0134556D01*
X0014992Y0137922D01*
X0014992Y0175127D01*
X0012689Y0177430D01*
X0037098Y0177430D01*
X0042157Y0172371D01*
X0045287Y0186289D02*
X0064598Y0186289D01*
X0064992Y0185895D01*
X0064992Y0159379D01*
X0074441Y0149930D01*
X0074441Y0124733D01*
X0076409Y0122765D01*
X0076291Y0122863D02*
X0076291Y0114005D01*
X0072394Y0110107D01*
X0057866Y0110107D01*
X0053575Y0114399D01*
X0053575Y0114497D01*
X0036000Y0095237D02*
X0035898Y0095135D01*
X0035898Y0089202D01*
X0032177Y0085481D01*
X0015524Y0085481D01*
X0014992Y0086013D01*
X0014992Y0137922D01*
X0045287Y0186289D02*
X0044579Y0186997D01*
D17*
X0030405Y0170698D02*
X0030405Y0169556D01*
X0050425Y0149537D01*
X0059717Y0149537D01*
X0069736Y0139517D01*
X0069736Y0116663D01*
X0082492Y0115954D02*
X0082492Y0163966D01*
X0080366Y0166092D01*
X0053575Y0120403D02*
X0053575Y0114497D01*
X0053575Y0120403D02*
X0025799Y0148178D01*
X0025799Y0164852D01*
D18*
X0038201Y0142529D02*
X0040858Y0139517D01*
X0058043Y0139694D01*
M02*
