G04 EAGLE Gerber RS-274X export*
G75*
%MOMM*%
%FSLAX34Y34*%
%LPD*%
%INBottom Copper*%
%IPPOS*%
%AMOC8*
5,1,8,0,0,1.08239X$1,22.5*%
G01*
%ADD10R,1.750000X1.750000*%
%ADD11C,1.750000*%
%ADD12C,2.100000*%

G36*
X502964Y4071D02*
X502964Y4071D01*
X503040Y4069D01*
X503209Y4091D01*
X503380Y4105D01*
X503454Y4123D01*
X503529Y4133D01*
X503693Y4182D01*
X503859Y4223D01*
X503928Y4253D01*
X504002Y4275D01*
X504155Y4351D01*
X504312Y4418D01*
X504376Y4459D01*
X504445Y4492D01*
X504584Y4591D01*
X504728Y4683D01*
X504785Y4734D01*
X504847Y4778D01*
X504968Y4898D01*
X505096Y5012D01*
X505144Y5071D01*
X505198Y5125D01*
X505299Y5263D01*
X505406Y5396D01*
X505443Y5462D01*
X505488Y5523D01*
X505565Y5676D01*
X505650Y5824D01*
X505676Y5896D01*
X505711Y5964D01*
X505762Y6127D01*
X505821Y6287D01*
X505836Y6362D01*
X505859Y6434D01*
X505871Y6539D01*
X505916Y6771D01*
X505923Y7007D01*
X505935Y7112D01*
X505935Y662888D01*
X505929Y662964D01*
X505931Y663040D01*
X505909Y663209D01*
X505895Y663380D01*
X505877Y663454D01*
X505867Y663529D01*
X505818Y663693D01*
X505777Y663859D01*
X505747Y663928D01*
X505725Y664002D01*
X505649Y664155D01*
X505582Y664312D01*
X505541Y664376D01*
X505508Y664445D01*
X505409Y664584D01*
X505317Y664728D01*
X505266Y664785D01*
X505222Y664847D01*
X505102Y664968D01*
X504988Y665096D01*
X504929Y665144D01*
X504875Y665198D01*
X504737Y665299D01*
X504604Y665406D01*
X504538Y665443D01*
X504477Y665488D01*
X504324Y665565D01*
X504176Y665650D01*
X504104Y665676D01*
X504036Y665711D01*
X503873Y665762D01*
X503713Y665821D01*
X503638Y665836D01*
X503566Y665859D01*
X503461Y665871D01*
X503229Y665916D01*
X502993Y665923D01*
X502888Y665935D01*
X7112Y665935D01*
X7036Y665929D01*
X6960Y665931D01*
X6791Y665909D01*
X6620Y665895D01*
X6546Y665877D01*
X6471Y665867D01*
X6307Y665818D01*
X6141Y665777D01*
X6072Y665747D01*
X5998Y665725D01*
X5845Y665649D01*
X5688Y665582D01*
X5624Y665541D01*
X5555Y665508D01*
X5416Y665409D01*
X5272Y665317D01*
X5215Y665266D01*
X5153Y665222D01*
X5032Y665102D01*
X4904Y664988D01*
X4856Y664929D01*
X4802Y664875D01*
X4701Y664737D01*
X4594Y664604D01*
X4557Y664538D01*
X4512Y664477D01*
X4435Y664324D01*
X4350Y664176D01*
X4324Y664104D01*
X4289Y664036D01*
X4238Y663873D01*
X4179Y663713D01*
X4164Y663638D01*
X4141Y663566D01*
X4129Y663461D01*
X4084Y663229D01*
X4077Y662993D01*
X4065Y662888D01*
X4065Y7112D01*
X4071Y7036D01*
X4069Y6960D01*
X4091Y6791D01*
X4105Y6620D01*
X4123Y6546D01*
X4133Y6471D01*
X4182Y6307D01*
X4223Y6141D01*
X4253Y6072D01*
X4275Y5998D01*
X4351Y5845D01*
X4418Y5688D01*
X4459Y5624D01*
X4492Y5555D01*
X4591Y5416D01*
X4683Y5272D01*
X4734Y5215D01*
X4778Y5153D01*
X4898Y5032D01*
X5012Y4904D01*
X5071Y4856D01*
X5125Y4802D01*
X5263Y4701D01*
X5396Y4594D01*
X5462Y4557D01*
X5523Y4512D01*
X5676Y4435D01*
X5824Y4350D01*
X5896Y4324D01*
X5964Y4289D01*
X6127Y4238D01*
X6287Y4179D01*
X6362Y4164D01*
X6434Y4141D01*
X6539Y4129D01*
X6771Y4084D01*
X7007Y4077D01*
X7112Y4065D01*
X502888Y4065D01*
X502964Y4071D01*
G37*
%LPC*%
G36*
X52051Y244485D02*
X52051Y244485D01*
X47341Y246436D01*
X43736Y250041D01*
X41785Y254751D01*
X41785Y259849D01*
X43736Y264559D01*
X47022Y267845D01*
X47072Y267903D01*
X47127Y267956D01*
X47231Y268091D01*
X47342Y268221D01*
X47381Y268286D01*
X47428Y268347D01*
X47508Y268497D01*
X47597Y268644D01*
X47625Y268715D01*
X47661Y268782D01*
X47716Y268943D01*
X47780Y269102D01*
X47796Y269176D01*
X47821Y269248D01*
X47849Y269417D01*
X47886Y269584D01*
X47891Y269660D01*
X47903Y269735D01*
X47905Y269906D01*
X47914Y270076D01*
X47906Y270152D01*
X47906Y270228D01*
X47880Y270397D01*
X47862Y270567D01*
X47842Y270640D01*
X47830Y270715D01*
X47776Y270878D01*
X47731Y271042D01*
X47699Y271112D01*
X47676Y271184D01*
X47597Y271335D01*
X47525Y271491D01*
X47483Y271554D01*
X47448Y271622D01*
X47382Y271704D01*
X47250Y271900D01*
X47088Y272072D01*
X47022Y272155D01*
X43736Y275441D01*
X41785Y280151D01*
X41785Y285249D01*
X43736Y289959D01*
X47341Y293564D01*
X52051Y295515D01*
X57149Y295515D01*
X61859Y293564D01*
X65145Y290278D01*
X65203Y290228D01*
X65256Y290173D01*
X65391Y290069D01*
X65521Y289958D01*
X65586Y289919D01*
X65647Y289872D01*
X65797Y289792D01*
X65944Y289703D01*
X66015Y289675D01*
X66082Y289639D01*
X66243Y289584D01*
X66402Y289520D01*
X66476Y289504D01*
X66548Y289479D01*
X66717Y289451D01*
X66884Y289414D01*
X66960Y289409D01*
X67035Y289397D01*
X67206Y289395D01*
X67376Y289386D01*
X67452Y289394D01*
X67528Y289394D01*
X67697Y289420D01*
X67867Y289438D01*
X67940Y289458D01*
X68015Y289470D01*
X68178Y289524D01*
X68342Y289569D01*
X68412Y289601D01*
X68484Y289624D01*
X68635Y289703D01*
X68791Y289775D01*
X68854Y289817D01*
X68922Y289852D01*
X69004Y289918D01*
X69200Y290050D01*
X69372Y290212D01*
X69455Y290278D01*
X72741Y293564D01*
X77451Y295515D01*
X82549Y295515D01*
X87259Y293564D01*
X89318Y291504D01*
X89492Y291357D01*
X89664Y291207D01*
X89680Y291197D01*
X89694Y291185D01*
X89890Y291067D01*
X90083Y290947D01*
X90101Y290940D01*
X90117Y290930D01*
X90328Y290846D01*
X90539Y290759D01*
X90557Y290754D01*
X90575Y290747D01*
X90797Y290698D01*
X91019Y290646D01*
X91038Y290645D01*
X91057Y290641D01*
X91285Y290628D01*
X91511Y290612D01*
X91530Y290614D01*
X91549Y290613D01*
X91776Y290637D01*
X92003Y290658D01*
X92021Y290663D01*
X92040Y290665D01*
X92259Y290725D01*
X92480Y290783D01*
X92497Y290791D01*
X92515Y290796D01*
X92723Y290891D01*
X92931Y290983D01*
X92947Y290994D01*
X92964Y291001D01*
X93153Y291129D01*
X93343Y291254D01*
X93357Y291266D01*
X93373Y291277D01*
X93540Y291433D01*
X93707Y291587D01*
X93716Y291599D01*
X93733Y291615D01*
X94033Y292006D01*
X94077Y292088D01*
X94112Y292136D01*
X94617Y293010D01*
X95090Y293483D01*
X95669Y293818D01*
X96315Y293991D01*
X102353Y293991D01*
X102353Y282700D01*
X102359Y282624D01*
X102356Y282548D01*
X102379Y282379D01*
X102393Y282209D01*
X102411Y282135D01*
X102421Y282059D01*
X102470Y281895D01*
X102511Y281730D01*
X102541Y281660D01*
X102563Y281587D01*
X102638Y281433D01*
X102706Y281276D01*
X102747Y281212D01*
X102780Y281144D01*
X102879Y281004D01*
X102971Y280860D01*
X103022Y280804D01*
X103066Y280741D01*
X103186Y280620D01*
X103300Y280492D01*
X103359Y280444D01*
X103412Y280390D01*
X103413Y280390D01*
X103551Y280289D01*
X103684Y280182D01*
X103750Y280144D01*
X103812Y280099D01*
X103964Y280023D01*
X104113Y279938D01*
X104184Y279911D01*
X104252Y279877D01*
X104415Y279826D01*
X104575Y279766D01*
X104650Y279752D01*
X104723Y279729D01*
X104827Y279717D01*
X105059Y279672D01*
X105295Y279664D01*
X105400Y279653D01*
X116691Y279653D01*
X116691Y273615D01*
X116518Y272969D01*
X116183Y272390D01*
X115710Y271917D01*
X114836Y271412D01*
X114648Y271283D01*
X114459Y271155D01*
X114445Y271142D01*
X114430Y271132D01*
X114266Y270974D01*
X114100Y270818D01*
X114088Y270803D01*
X114074Y270789D01*
X113938Y270607D01*
X113799Y270426D01*
X113790Y270409D01*
X113779Y270394D01*
X113674Y270192D01*
X113566Y269991D01*
X113560Y269973D01*
X113551Y269957D01*
X113480Y269741D01*
X113406Y269525D01*
X113403Y269506D01*
X113397Y269488D01*
X113362Y269264D01*
X113324Y269038D01*
X113323Y269019D01*
X113320Y269001D01*
X113322Y268774D01*
X113320Y268545D01*
X113323Y268526D01*
X113324Y268507D01*
X113362Y268283D01*
X113397Y268058D01*
X113403Y268040D01*
X113406Y268021D01*
X113480Y267806D01*
X113551Y267589D01*
X113560Y267572D01*
X113566Y267554D01*
X113673Y267355D01*
X113779Y267152D01*
X113789Y267139D01*
X113800Y267120D01*
X114100Y266728D01*
X114167Y266665D01*
X114204Y266618D01*
X116264Y264559D01*
X118215Y259849D01*
X118215Y254751D01*
X116264Y250041D01*
X112659Y246436D01*
X107949Y244485D01*
X102851Y244485D01*
X98141Y246436D01*
X94855Y249722D01*
X94797Y249772D01*
X94745Y249827D01*
X94609Y249931D01*
X94479Y250042D01*
X94413Y250081D01*
X94353Y250128D01*
X94203Y250208D01*
X94056Y250297D01*
X93986Y250325D01*
X93918Y250361D01*
X93757Y250416D01*
X93598Y250480D01*
X93524Y250496D01*
X93452Y250521D01*
X93283Y250549D01*
X93117Y250586D01*
X93040Y250591D01*
X92965Y250603D01*
X92794Y250605D01*
X92624Y250614D01*
X92548Y250606D01*
X92472Y250606D01*
X92303Y250580D01*
X92133Y250562D01*
X92060Y250542D01*
X91985Y250530D01*
X91822Y250476D01*
X91658Y250431D01*
X91588Y250399D01*
X91516Y250376D01*
X91364Y250297D01*
X91209Y250225D01*
X91146Y250183D01*
X91078Y250148D01*
X90996Y250082D01*
X90800Y249950D01*
X90627Y249788D01*
X90545Y249722D01*
X87259Y246436D01*
X82549Y244485D01*
X77451Y244485D01*
X72741Y246436D01*
X69455Y249722D01*
X69397Y249772D01*
X69345Y249827D01*
X69209Y249931D01*
X69079Y250042D01*
X69013Y250081D01*
X68953Y250128D01*
X68803Y250208D01*
X68656Y250297D01*
X68586Y250325D01*
X68518Y250361D01*
X68357Y250416D01*
X68198Y250480D01*
X68124Y250496D01*
X68052Y250521D01*
X67883Y250549D01*
X67717Y250586D01*
X67640Y250591D01*
X67565Y250603D01*
X67394Y250605D01*
X67224Y250614D01*
X67148Y250606D01*
X67072Y250606D01*
X66903Y250580D01*
X66733Y250562D01*
X66660Y250542D01*
X66585Y250530D01*
X66422Y250476D01*
X66258Y250431D01*
X66188Y250399D01*
X66116Y250376D01*
X65964Y250297D01*
X65809Y250225D01*
X65746Y250183D01*
X65678Y250148D01*
X65596Y250082D01*
X65400Y249950D01*
X65227Y249788D01*
X65145Y249722D01*
X61859Y246436D01*
X57149Y244485D01*
X52051Y244485D01*
G37*
%LPD*%
%LPC*%
G36*
X402051Y244485D02*
X402051Y244485D01*
X397341Y246436D01*
X393736Y250041D01*
X391785Y254751D01*
X391785Y259849D01*
X393736Y264559D01*
X397022Y267845D01*
X397072Y267903D01*
X397127Y267956D01*
X397231Y268091D01*
X397342Y268221D01*
X397381Y268286D01*
X397428Y268347D01*
X397508Y268497D01*
X397597Y268644D01*
X397625Y268715D01*
X397661Y268782D01*
X397716Y268943D01*
X397780Y269102D01*
X397796Y269176D01*
X397821Y269248D01*
X397849Y269417D01*
X397886Y269584D01*
X397891Y269660D01*
X397903Y269735D01*
X397905Y269906D01*
X397914Y270076D01*
X397906Y270152D01*
X397906Y270228D01*
X397880Y270397D01*
X397862Y270567D01*
X397842Y270640D01*
X397830Y270715D01*
X397776Y270878D01*
X397731Y271042D01*
X397699Y271112D01*
X397676Y271184D01*
X397597Y271335D01*
X397525Y271491D01*
X397483Y271554D01*
X397448Y271622D01*
X397382Y271704D01*
X397250Y271900D01*
X397088Y272072D01*
X397022Y272155D01*
X393736Y275441D01*
X391785Y280151D01*
X391785Y285249D01*
X393736Y289959D01*
X397341Y293564D01*
X402051Y295515D01*
X407149Y295515D01*
X411859Y293564D01*
X415145Y290278D01*
X415203Y290228D01*
X415256Y290173D01*
X415391Y290069D01*
X415521Y289958D01*
X415586Y289919D01*
X415647Y289872D01*
X415797Y289792D01*
X415944Y289703D01*
X416015Y289675D01*
X416082Y289639D01*
X416243Y289584D01*
X416402Y289520D01*
X416476Y289504D01*
X416548Y289479D01*
X416717Y289451D01*
X416884Y289414D01*
X416960Y289409D01*
X417035Y289397D01*
X417206Y289395D01*
X417376Y289386D01*
X417452Y289394D01*
X417528Y289394D01*
X417697Y289420D01*
X417867Y289438D01*
X417940Y289458D01*
X418015Y289470D01*
X418178Y289524D01*
X418342Y289569D01*
X418412Y289601D01*
X418484Y289624D01*
X418635Y289703D01*
X418791Y289775D01*
X418854Y289817D01*
X418922Y289852D01*
X419004Y289918D01*
X419200Y290050D01*
X419372Y290212D01*
X419455Y290278D01*
X422741Y293564D01*
X427451Y295515D01*
X432549Y295515D01*
X437259Y293564D01*
X439318Y291504D01*
X439492Y291357D01*
X439664Y291207D01*
X439680Y291197D01*
X439694Y291185D01*
X439890Y291067D01*
X440083Y290947D01*
X440101Y290940D01*
X440117Y290930D01*
X440328Y290846D01*
X440539Y290759D01*
X440557Y290754D01*
X440575Y290747D01*
X440797Y290698D01*
X441019Y290646D01*
X441038Y290645D01*
X441057Y290641D01*
X441285Y290628D01*
X441511Y290612D01*
X441530Y290614D01*
X441549Y290613D01*
X441776Y290637D01*
X442003Y290658D01*
X442021Y290663D01*
X442040Y290665D01*
X442259Y290725D01*
X442480Y290783D01*
X442497Y290791D01*
X442515Y290796D01*
X442723Y290891D01*
X442931Y290983D01*
X442947Y290994D01*
X442964Y291001D01*
X443153Y291129D01*
X443343Y291254D01*
X443357Y291266D01*
X443373Y291277D01*
X443540Y291433D01*
X443707Y291587D01*
X443716Y291599D01*
X443733Y291615D01*
X444033Y292006D01*
X444077Y292088D01*
X444112Y292136D01*
X444617Y293010D01*
X445090Y293483D01*
X445669Y293818D01*
X446315Y293991D01*
X452353Y293991D01*
X452353Y282700D01*
X452359Y282624D01*
X452356Y282548D01*
X452379Y282379D01*
X452393Y282209D01*
X452411Y282135D01*
X452421Y282059D01*
X452470Y281895D01*
X452511Y281730D01*
X452541Y281660D01*
X452563Y281587D01*
X452638Y281433D01*
X452706Y281276D01*
X452747Y281212D01*
X452780Y281144D01*
X452879Y281004D01*
X452971Y280860D01*
X453022Y280804D01*
X453066Y280741D01*
X453186Y280620D01*
X453300Y280492D01*
X453359Y280444D01*
X453412Y280390D01*
X453413Y280390D01*
X453551Y280289D01*
X453684Y280182D01*
X453750Y280144D01*
X453812Y280099D01*
X453964Y280023D01*
X454113Y279938D01*
X454184Y279911D01*
X454252Y279877D01*
X454415Y279826D01*
X454575Y279766D01*
X454650Y279752D01*
X454723Y279729D01*
X454827Y279717D01*
X455059Y279672D01*
X455295Y279664D01*
X455400Y279653D01*
X466691Y279653D01*
X466691Y273615D01*
X466518Y272969D01*
X466183Y272390D01*
X465710Y271917D01*
X464836Y271412D01*
X464648Y271283D01*
X464459Y271155D01*
X464445Y271142D01*
X464430Y271132D01*
X464266Y270974D01*
X464100Y270818D01*
X464088Y270803D01*
X464074Y270789D01*
X463938Y270607D01*
X463799Y270426D01*
X463790Y270409D01*
X463779Y270394D01*
X463674Y270192D01*
X463566Y269991D01*
X463560Y269973D01*
X463551Y269957D01*
X463480Y269741D01*
X463406Y269525D01*
X463403Y269506D01*
X463397Y269488D01*
X463362Y269264D01*
X463324Y269038D01*
X463323Y269019D01*
X463320Y269001D01*
X463322Y268774D01*
X463320Y268545D01*
X463323Y268526D01*
X463324Y268507D01*
X463362Y268283D01*
X463397Y268058D01*
X463403Y268040D01*
X463406Y268021D01*
X463480Y267806D01*
X463551Y267589D01*
X463560Y267572D01*
X463566Y267554D01*
X463673Y267355D01*
X463779Y267152D01*
X463789Y267139D01*
X463800Y267120D01*
X464100Y266728D01*
X464167Y266665D01*
X464204Y266618D01*
X466264Y264559D01*
X468215Y259849D01*
X468215Y254751D01*
X466264Y250041D01*
X462659Y246436D01*
X457949Y244485D01*
X452851Y244485D01*
X448141Y246436D01*
X444855Y249722D01*
X444797Y249772D01*
X444745Y249827D01*
X444609Y249931D01*
X444479Y250042D01*
X444413Y250081D01*
X444353Y250128D01*
X444203Y250208D01*
X444056Y250297D01*
X443986Y250325D01*
X443918Y250361D01*
X443757Y250416D01*
X443598Y250480D01*
X443524Y250496D01*
X443452Y250521D01*
X443283Y250549D01*
X443117Y250586D01*
X443040Y250591D01*
X442965Y250603D01*
X442794Y250605D01*
X442624Y250614D01*
X442548Y250606D01*
X442472Y250606D01*
X442303Y250580D01*
X442133Y250562D01*
X442060Y250542D01*
X441985Y250530D01*
X441822Y250476D01*
X441658Y250431D01*
X441588Y250399D01*
X441516Y250376D01*
X441364Y250297D01*
X441209Y250225D01*
X441146Y250183D01*
X441078Y250148D01*
X440996Y250082D01*
X440800Y249950D01*
X440627Y249788D01*
X440545Y249722D01*
X437259Y246436D01*
X432549Y244485D01*
X427451Y244485D01*
X422741Y246436D01*
X419455Y249722D01*
X419397Y249772D01*
X419345Y249827D01*
X419209Y249931D01*
X419079Y250042D01*
X419013Y250081D01*
X418953Y250128D01*
X418803Y250208D01*
X418656Y250297D01*
X418586Y250325D01*
X418518Y250361D01*
X418357Y250416D01*
X418198Y250480D01*
X418124Y250496D01*
X418052Y250521D01*
X417883Y250549D01*
X417717Y250586D01*
X417640Y250591D01*
X417565Y250603D01*
X417394Y250605D01*
X417224Y250614D01*
X417148Y250606D01*
X417072Y250606D01*
X416903Y250580D01*
X416733Y250562D01*
X416660Y250542D01*
X416585Y250530D01*
X416422Y250476D01*
X416258Y250431D01*
X416188Y250399D01*
X416116Y250376D01*
X415964Y250297D01*
X415809Y250225D01*
X415746Y250183D01*
X415678Y250148D01*
X415596Y250082D01*
X415400Y249950D01*
X415227Y249788D01*
X415145Y249722D01*
X411859Y246436D01*
X407149Y244485D01*
X402051Y244485D01*
G37*
%LPD*%
%LPC*%
G36*
X227051Y244485D02*
X227051Y244485D01*
X222341Y246436D01*
X218736Y250041D01*
X216785Y254751D01*
X216785Y259849D01*
X218736Y264559D01*
X222022Y267845D01*
X222072Y267903D01*
X222127Y267956D01*
X222231Y268091D01*
X222342Y268221D01*
X222381Y268286D01*
X222428Y268347D01*
X222508Y268497D01*
X222597Y268644D01*
X222625Y268715D01*
X222661Y268782D01*
X222716Y268943D01*
X222780Y269102D01*
X222796Y269176D01*
X222821Y269248D01*
X222849Y269417D01*
X222886Y269584D01*
X222891Y269660D01*
X222903Y269735D01*
X222905Y269906D01*
X222914Y270076D01*
X222906Y270152D01*
X222906Y270228D01*
X222880Y270397D01*
X222862Y270567D01*
X222842Y270640D01*
X222830Y270715D01*
X222776Y270878D01*
X222731Y271042D01*
X222699Y271112D01*
X222676Y271184D01*
X222597Y271335D01*
X222525Y271491D01*
X222483Y271554D01*
X222448Y271622D01*
X222382Y271704D01*
X222250Y271900D01*
X222088Y272072D01*
X222022Y272155D01*
X218736Y275441D01*
X216785Y280151D01*
X216785Y285249D01*
X218736Y289959D01*
X222341Y293564D01*
X227051Y295515D01*
X232149Y295515D01*
X236859Y293564D01*
X240145Y290278D01*
X240203Y290228D01*
X240256Y290173D01*
X240391Y290069D01*
X240521Y289958D01*
X240586Y289919D01*
X240647Y289872D01*
X240797Y289792D01*
X240944Y289703D01*
X241015Y289675D01*
X241082Y289639D01*
X241243Y289584D01*
X241402Y289520D01*
X241476Y289504D01*
X241548Y289479D01*
X241717Y289451D01*
X241884Y289414D01*
X241960Y289409D01*
X242035Y289397D01*
X242206Y289395D01*
X242376Y289386D01*
X242452Y289394D01*
X242528Y289394D01*
X242697Y289420D01*
X242867Y289438D01*
X242940Y289458D01*
X243015Y289470D01*
X243178Y289524D01*
X243342Y289569D01*
X243412Y289601D01*
X243484Y289624D01*
X243635Y289703D01*
X243791Y289775D01*
X243854Y289817D01*
X243922Y289852D01*
X244004Y289918D01*
X244200Y290050D01*
X244372Y290212D01*
X244455Y290278D01*
X247741Y293564D01*
X252451Y295515D01*
X257549Y295515D01*
X262259Y293564D01*
X264318Y291504D01*
X264492Y291357D01*
X264664Y291207D01*
X264680Y291197D01*
X264694Y291185D01*
X264890Y291067D01*
X265083Y290947D01*
X265101Y290940D01*
X265117Y290930D01*
X265328Y290846D01*
X265539Y290759D01*
X265557Y290754D01*
X265575Y290747D01*
X265797Y290698D01*
X266019Y290646D01*
X266038Y290645D01*
X266057Y290641D01*
X266285Y290628D01*
X266511Y290612D01*
X266530Y290614D01*
X266549Y290613D01*
X266776Y290637D01*
X267003Y290658D01*
X267021Y290663D01*
X267040Y290665D01*
X267259Y290725D01*
X267480Y290783D01*
X267497Y290791D01*
X267515Y290796D01*
X267723Y290891D01*
X267931Y290983D01*
X267947Y290994D01*
X267964Y291001D01*
X268153Y291129D01*
X268343Y291254D01*
X268357Y291266D01*
X268373Y291277D01*
X268540Y291433D01*
X268707Y291587D01*
X268716Y291599D01*
X268733Y291615D01*
X269033Y292006D01*
X269077Y292088D01*
X269112Y292136D01*
X269617Y293010D01*
X270090Y293483D01*
X270669Y293818D01*
X271315Y293991D01*
X277353Y293991D01*
X277353Y282700D01*
X277359Y282624D01*
X277356Y282548D01*
X277379Y282379D01*
X277393Y282209D01*
X277411Y282135D01*
X277421Y282059D01*
X277470Y281895D01*
X277511Y281730D01*
X277541Y281660D01*
X277563Y281587D01*
X277638Y281433D01*
X277706Y281276D01*
X277747Y281212D01*
X277780Y281144D01*
X277879Y281004D01*
X277971Y280860D01*
X278022Y280804D01*
X278066Y280741D01*
X278186Y280620D01*
X278300Y280492D01*
X278359Y280444D01*
X278412Y280390D01*
X278413Y280390D01*
X278551Y280289D01*
X278684Y280182D01*
X278750Y280144D01*
X278812Y280099D01*
X278964Y280023D01*
X279113Y279938D01*
X279184Y279911D01*
X279252Y279877D01*
X279415Y279826D01*
X279575Y279766D01*
X279650Y279752D01*
X279723Y279729D01*
X279827Y279717D01*
X280059Y279672D01*
X280295Y279664D01*
X280400Y279653D01*
X291691Y279653D01*
X291691Y273615D01*
X291518Y272969D01*
X291183Y272390D01*
X290710Y271917D01*
X289836Y271412D01*
X289648Y271283D01*
X289459Y271155D01*
X289445Y271142D01*
X289430Y271132D01*
X289266Y270974D01*
X289100Y270818D01*
X289088Y270803D01*
X289074Y270789D01*
X288938Y270607D01*
X288799Y270426D01*
X288790Y270409D01*
X288779Y270394D01*
X288674Y270192D01*
X288566Y269991D01*
X288560Y269973D01*
X288551Y269957D01*
X288480Y269741D01*
X288406Y269525D01*
X288403Y269506D01*
X288397Y269488D01*
X288362Y269264D01*
X288324Y269038D01*
X288323Y269019D01*
X288320Y269001D01*
X288322Y268774D01*
X288320Y268545D01*
X288323Y268526D01*
X288324Y268507D01*
X288362Y268283D01*
X288397Y268058D01*
X288403Y268040D01*
X288406Y268021D01*
X288480Y267806D01*
X288551Y267589D01*
X288560Y267572D01*
X288566Y267554D01*
X288673Y267355D01*
X288779Y267152D01*
X288789Y267139D01*
X288800Y267120D01*
X289100Y266728D01*
X289167Y266665D01*
X289204Y266618D01*
X291264Y264559D01*
X293215Y259849D01*
X293215Y254751D01*
X291264Y250041D01*
X287659Y246436D01*
X282949Y244485D01*
X277851Y244485D01*
X273141Y246436D01*
X269855Y249722D01*
X269797Y249772D01*
X269745Y249827D01*
X269609Y249931D01*
X269479Y250042D01*
X269413Y250081D01*
X269353Y250128D01*
X269203Y250208D01*
X269056Y250297D01*
X268986Y250325D01*
X268918Y250361D01*
X268757Y250416D01*
X268598Y250480D01*
X268524Y250496D01*
X268452Y250521D01*
X268283Y250549D01*
X268117Y250586D01*
X268040Y250591D01*
X267965Y250603D01*
X267794Y250605D01*
X267624Y250614D01*
X267548Y250606D01*
X267472Y250606D01*
X267303Y250580D01*
X267133Y250562D01*
X267060Y250542D01*
X266985Y250530D01*
X266822Y250476D01*
X266658Y250431D01*
X266588Y250399D01*
X266516Y250376D01*
X266364Y250297D01*
X266209Y250225D01*
X266146Y250183D01*
X266078Y250148D01*
X265996Y250082D01*
X265800Y249950D01*
X265627Y249788D01*
X265545Y249722D01*
X262259Y246436D01*
X257549Y244485D01*
X252451Y244485D01*
X247741Y246436D01*
X244455Y249722D01*
X244397Y249772D01*
X244345Y249827D01*
X244209Y249931D01*
X244079Y250042D01*
X244013Y250081D01*
X243953Y250128D01*
X243803Y250208D01*
X243656Y250297D01*
X243586Y250325D01*
X243518Y250361D01*
X243357Y250416D01*
X243198Y250480D01*
X243124Y250496D01*
X243052Y250521D01*
X242883Y250549D01*
X242717Y250586D01*
X242640Y250591D01*
X242565Y250603D01*
X242394Y250605D01*
X242224Y250614D01*
X242148Y250606D01*
X242072Y250606D01*
X241903Y250580D01*
X241733Y250562D01*
X241660Y250542D01*
X241585Y250530D01*
X241422Y250476D01*
X241258Y250431D01*
X241188Y250399D01*
X241116Y250376D01*
X240964Y250297D01*
X240809Y250225D01*
X240746Y250183D01*
X240678Y250148D01*
X240596Y250082D01*
X240400Y249950D01*
X240227Y249788D01*
X240145Y249722D01*
X236859Y246436D01*
X232149Y244485D01*
X227051Y244485D01*
G37*
%LPD*%
%LPC*%
G36*
X402051Y374485D02*
X402051Y374485D01*
X397341Y376436D01*
X393736Y380041D01*
X391785Y384751D01*
X391785Y389849D01*
X393736Y394559D01*
X397022Y397845D01*
X397072Y397903D01*
X397127Y397956D01*
X397231Y398091D01*
X397342Y398221D01*
X397381Y398286D01*
X397428Y398347D01*
X397508Y398497D01*
X397597Y398644D01*
X397625Y398715D01*
X397661Y398782D01*
X397716Y398943D01*
X397780Y399102D01*
X397796Y399176D01*
X397821Y399248D01*
X397849Y399417D01*
X397886Y399584D01*
X397891Y399660D01*
X397903Y399735D01*
X397905Y399906D01*
X397914Y400076D01*
X397906Y400152D01*
X397906Y400228D01*
X397880Y400397D01*
X397862Y400567D01*
X397842Y400640D01*
X397830Y400715D01*
X397776Y400878D01*
X397731Y401042D01*
X397699Y401112D01*
X397676Y401184D01*
X397597Y401335D01*
X397525Y401491D01*
X397483Y401554D01*
X397448Y401622D01*
X397382Y401704D01*
X397250Y401900D01*
X397088Y402072D01*
X397022Y402155D01*
X393736Y405441D01*
X391785Y410151D01*
X391785Y415249D01*
X393736Y419959D01*
X397341Y423564D01*
X402051Y425515D01*
X407149Y425515D01*
X411859Y423564D01*
X415145Y420278D01*
X415203Y420228D01*
X415256Y420173D01*
X415391Y420069D01*
X415521Y419958D01*
X415586Y419919D01*
X415647Y419872D01*
X415797Y419792D01*
X415944Y419703D01*
X416015Y419675D01*
X416082Y419639D01*
X416243Y419584D01*
X416402Y419520D01*
X416476Y419504D01*
X416548Y419479D01*
X416717Y419451D01*
X416884Y419414D01*
X416960Y419409D01*
X417035Y419397D01*
X417206Y419395D01*
X417376Y419386D01*
X417452Y419394D01*
X417528Y419394D01*
X417697Y419420D01*
X417867Y419438D01*
X417940Y419458D01*
X418015Y419470D01*
X418178Y419524D01*
X418342Y419569D01*
X418412Y419601D01*
X418484Y419624D01*
X418635Y419703D01*
X418791Y419775D01*
X418854Y419817D01*
X418922Y419852D01*
X419004Y419918D01*
X419200Y420050D01*
X419372Y420212D01*
X419455Y420278D01*
X422741Y423564D01*
X427451Y425515D01*
X432549Y425515D01*
X437259Y423564D01*
X439318Y421504D01*
X439492Y421357D01*
X439664Y421207D01*
X439680Y421197D01*
X439694Y421185D01*
X439890Y421067D01*
X440083Y420947D01*
X440101Y420940D01*
X440117Y420930D01*
X440328Y420846D01*
X440539Y420759D01*
X440557Y420754D01*
X440575Y420747D01*
X440797Y420698D01*
X441019Y420646D01*
X441038Y420645D01*
X441057Y420641D01*
X441285Y420628D01*
X441511Y420612D01*
X441530Y420614D01*
X441549Y420613D01*
X441776Y420637D01*
X442003Y420658D01*
X442021Y420663D01*
X442040Y420665D01*
X442259Y420725D01*
X442480Y420783D01*
X442497Y420791D01*
X442515Y420796D01*
X442723Y420891D01*
X442931Y420983D01*
X442947Y420994D01*
X442964Y421001D01*
X443153Y421129D01*
X443343Y421254D01*
X443357Y421266D01*
X443373Y421277D01*
X443540Y421433D01*
X443707Y421587D01*
X443716Y421599D01*
X443733Y421615D01*
X444033Y422006D01*
X444077Y422088D01*
X444112Y422136D01*
X444617Y423010D01*
X445090Y423483D01*
X445669Y423818D01*
X446315Y423991D01*
X452353Y423991D01*
X452353Y412700D01*
X452359Y412624D01*
X452356Y412548D01*
X452379Y412379D01*
X452393Y412209D01*
X452411Y412135D01*
X452421Y412059D01*
X452470Y411895D01*
X452511Y411730D01*
X452541Y411660D01*
X452563Y411587D01*
X452638Y411433D01*
X452706Y411276D01*
X452747Y411212D01*
X452780Y411144D01*
X452879Y411004D01*
X452971Y410860D01*
X453022Y410804D01*
X453066Y410741D01*
X453186Y410620D01*
X453300Y410492D01*
X453359Y410444D01*
X453412Y410390D01*
X453413Y410390D01*
X453551Y410289D01*
X453684Y410182D01*
X453750Y410144D01*
X453812Y410099D01*
X453964Y410023D01*
X454113Y409938D01*
X454184Y409911D01*
X454252Y409877D01*
X454415Y409826D01*
X454575Y409766D01*
X454650Y409752D01*
X454723Y409729D01*
X454827Y409717D01*
X455059Y409672D01*
X455295Y409664D01*
X455400Y409653D01*
X466691Y409653D01*
X466691Y403615D01*
X466518Y402969D01*
X466183Y402390D01*
X465710Y401917D01*
X464836Y401412D01*
X464648Y401283D01*
X464459Y401155D01*
X464445Y401142D01*
X464430Y401132D01*
X464266Y400974D01*
X464100Y400818D01*
X464088Y400803D01*
X464074Y400789D01*
X463938Y400607D01*
X463799Y400426D01*
X463790Y400409D01*
X463779Y400394D01*
X463674Y400192D01*
X463566Y399991D01*
X463560Y399973D01*
X463551Y399957D01*
X463480Y399741D01*
X463406Y399525D01*
X463403Y399506D01*
X463397Y399488D01*
X463362Y399264D01*
X463324Y399038D01*
X463323Y399019D01*
X463320Y399001D01*
X463322Y398774D01*
X463320Y398545D01*
X463323Y398526D01*
X463324Y398507D01*
X463362Y398283D01*
X463397Y398058D01*
X463403Y398040D01*
X463406Y398021D01*
X463480Y397806D01*
X463551Y397589D01*
X463560Y397572D01*
X463566Y397554D01*
X463673Y397355D01*
X463779Y397152D01*
X463789Y397139D01*
X463800Y397120D01*
X464100Y396728D01*
X464167Y396665D01*
X464204Y396618D01*
X466264Y394559D01*
X468215Y389849D01*
X468215Y384751D01*
X466264Y380041D01*
X462659Y376436D01*
X457949Y374485D01*
X452851Y374485D01*
X448141Y376436D01*
X444855Y379722D01*
X444797Y379772D01*
X444745Y379827D01*
X444609Y379931D01*
X444479Y380042D01*
X444413Y380081D01*
X444353Y380128D01*
X444203Y380208D01*
X444056Y380297D01*
X443986Y380325D01*
X443918Y380361D01*
X443757Y380416D01*
X443598Y380480D01*
X443524Y380496D01*
X443452Y380521D01*
X443283Y380549D01*
X443117Y380586D01*
X443040Y380591D01*
X442965Y380603D01*
X442794Y380605D01*
X442624Y380614D01*
X442548Y380606D01*
X442472Y380606D01*
X442303Y380580D01*
X442133Y380562D01*
X442060Y380542D01*
X441985Y380530D01*
X441822Y380476D01*
X441658Y380431D01*
X441588Y380399D01*
X441516Y380376D01*
X441364Y380297D01*
X441209Y380225D01*
X441146Y380183D01*
X441078Y380148D01*
X440996Y380082D01*
X440800Y379950D01*
X440627Y379788D01*
X440545Y379722D01*
X437259Y376436D01*
X432549Y374485D01*
X427451Y374485D01*
X422741Y376436D01*
X419455Y379722D01*
X419397Y379772D01*
X419345Y379827D01*
X419209Y379931D01*
X419079Y380042D01*
X419013Y380081D01*
X418953Y380128D01*
X418803Y380208D01*
X418656Y380297D01*
X418586Y380325D01*
X418518Y380361D01*
X418357Y380416D01*
X418198Y380480D01*
X418124Y380496D01*
X418052Y380521D01*
X417883Y380549D01*
X417717Y380586D01*
X417640Y380591D01*
X417565Y380603D01*
X417394Y380605D01*
X417224Y380614D01*
X417148Y380606D01*
X417072Y380606D01*
X416903Y380580D01*
X416733Y380562D01*
X416660Y380542D01*
X416585Y380530D01*
X416422Y380476D01*
X416258Y380431D01*
X416188Y380399D01*
X416116Y380376D01*
X415964Y380297D01*
X415809Y380225D01*
X415746Y380183D01*
X415678Y380148D01*
X415596Y380082D01*
X415400Y379950D01*
X415227Y379788D01*
X415145Y379722D01*
X411859Y376436D01*
X407149Y374485D01*
X402051Y374485D01*
G37*
%LPD*%
%LPC*%
G36*
X227051Y374485D02*
X227051Y374485D01*
X222341Y376436D01*
X218736Y380041D01*
X216785Y384751D01*
X216785Y389849D01*
X218736Y394559D01*
X222022Y397845D01*
X222072Y397903D01*
X222127Y397956D01*
X222231Y398091D01*
X222342Y398221D01*
X222381Y398286D01*
X222428Y398347D01*
X222508Y398497D01*
X222597Y398644D01*
X222625Y398715D01*
X222661Y398782D01*
X222716Y398943D01*
X222780Y399102D01*
X222796Y399176D01*
X222821Y399248D01*
X222849Y399417D01*
X222886Y399584D01*
X222891Y399660D01*
X222903Y399735D01*
X222905Y399906D01*
X222914Y400076D01*
X222906Y400152D01*
X222906Y400228D01*
X222880Y400397D01*
X222862Y400567D01*
X222842Y400640D01*
X222830Y400715D01*
X222776Y400878D01*
X222731Y401042D01*
X222699Y401112D01*
X222676Y401184D01*
X222597Y401335D01*
X222525Y401491D01*
X222483Y401554D01*
X222448Y401622D01*
X222382Y401704D01*
X222250Y401900D01*
X222088Y402072D01*
X222022Y402155D01*
X218736Y405441D01*
X216785Y410151D01*
X216785Y415249D01*
X218736Y419959D01*
X222341Y423564D01*
X227051Y425515D01*
X232149Y425515D01*
X236859Y423564D01*
X240145Y420278D01*
X240203Y420228D01*
X240256Y420173D01*
X240391Y420069D01*
X240521Y419958D01*
X240586Y419919D01*
X240647Y419872D01*
X240797Y419792D01*
X240944Y419703D01*
X241015Y419675D01*
X241082Y419639D01*
X241243Y419584D01*
X241402Y419520D01*
X241476Y419504D01*
X241548Y419479D01*
X241717Y419451D01*
X241884Y419414D01*
X241960Y419409D01*
X242035Y419397D01*
X242206Y419395D01*
X242376Y419386D01*
X242452Y419394D01*
X242528Y419394D01*
X242697Y419420D01*
X242867Y419438D01*
X242940Y419458D01*
X243015Y419470D01*
X243178Y419524D01*
X243342Y419569D01*
X243412Y419601D01*
X243484Y419624D01*
X243635Y419703D01*
X243791Y419775D01*
X243854Y419817D01*
X243922Y419852D01*
X244004Y419918D01*
X244200Y420050D01*
X244372Y420212D01*
X244455Y420278D01*
X247741Y423564D01*
X252451Y425515D01*
X257549Y425515D01*
X262259Y423564D01*
X264318Y421504D01*
X264492Y421357D01*
X264664Y421207D01*
X264680Y421197D01*
X264694Y421185D01*
X264889Y421067D01*
X265083Y420947D01*
X265101Y420940D01*
X265117Y420930D01*
X265328Y420846D01*
X265539Y420759D01*
X265557Y420754D01*
X265575Y420747D01*
X265798Y420698D01*
X266019Y420646D01*
X266038Y420645D01*
X266057Y420641D01*
X266286Y420628D01*
X266511Y420612D01*
X266530Y420614D01*
X266549Y420613D01*
X266775Y420637D01*
X267003Y420658D01*
X267021Y420663D01*
X267040Y420665D01*
X267258Y420725D01*
X267480Y420783D01*
X267497Y420791D01*
X267515Y420796D01*
X267722Y420891D01*
X267931Y420983D01*
X267947Y420994D01*
X267964Y421001D01*
X268153Y421129D01*
X268343Y421253D01*
X268357Y421266D01*
X268373Y421277D01*
X268539Y421433D01*
X268707Y421587D01*
X268716Y421599D01*
X268733Y421615D01*
X269033Y422006D01*
X269077Y422088D01*
X269112Y422136D01*
X269617Y423010D01*
X270090Y423483D01*
X270669Y423818D01*
X271315Y423991D01*
X277353Y423991D01*
X277353Y412700D01*
X277359Y412624D01*
X277356Y412548D01*
X277379Y412379D01*
X277393Y412209D01*
X277411Y412135D01*
X277421Y412059D01*
X277470Y411895D01*
X277511Y411730D01*
X277541Y411660D01*
X277563Y411587D01*
X277638Y411433D01*
X277706Y411276D01*
X277747Y411212D01*
X277780Y411144D01*
X277879Y411004D01*
X277971Y410860D01*
X278022Y410804D01*
X278066Y410741D01*
X278186Y410620D01*
X278300Y410492D01*
X278359Y410444D01*
X278412Y410390D01*
X278413Y410390D01*
X278551Y410289D01*
X278684Y410182D01*
X278750Y410144D01*
X278812Y410099D01*
X278964Y410023D01*
X279113Y409938D01*
X279184Y409911D01*
X279252Y409877D01*
X279415Y409826D01*
X279575Y409766D01*
X279650Y409752D01*
X279723Y409729D01*
X279827Y409717D01*
X280059Y409672D01*
X280295Y409664D01*
X280400Y409653D01*
X291691Y409653D01*
X291691Y403615D01*
X291518Y402969D01*
X291183Y402390D01*
X290710Y401917D01*
X289836Y401412D01*
X289648Y401282D01*
X289459Y401155D01*
X289445Y401142D01*
X289430Y401132D01*
X289265Y400973D01*
X289100Y400818D01*
X289088Y400803D01*
X289074Y400789D01*
X288938Y400607D01*
X288799Y400426D01*
X288790Y400409D01*
X288779Y400394D01*
X288674Y400193D01*
X288566Y399991D01*
X288560Y399973D01*
X288551Y399957D01*
X288480Y399741D01*
X288406Y399525D01*
X288403Y399506D01*
X288397Y399488D01*
X288362Y399264D01*
X288323Y399038D01*
X288323Y399019D01*
X288320Y399001D01*
X288322Y398774D01*
X288320Y398545D01*
X288323Y398526D01*
X288324Y398507D01*
X288362Y398283D01*
X288397Y398058D01*
X288403Y398040D01*
X288406Y398021D01*
X288480Y397806D01*
X288551Y397589D01*
X288560Y397572D01*
X288566Y397554D01*
X288674Y397353D01*
X288779Y397151D01*
X288789Y397139D01*
X288799Y397120D01*
X289100Y396728D01*
X289167Y396665D01*
X289204Y396618D01*
X291264Y394559D01*
X293215Y389849D01*
X293215Y384751D01*
X291264Y380041D01*
X287659Y376436D01*
X282949Y374485D01*
X277851Y374485D01*
X273141Y376436D01*
X269855Y379722D01*
X269797Y379772D01*
X269745Y379827D01*
X269609Y379931D01*
X269479Y380042D01*
X269413Y380081D01*
X269353Y380128D01*
X269203Y380208D01*
X269056Y380297D01*
X268986Y380325D01*
X268918Y380361D01*
X268757Y380416D01*
X268598Y380480D01*
X268524Y380496D01*
X268452Y380521D01*
X268283Y380549D01*
X268117Y380586D01*
X268040Y380591D01*
X267965Y380603D01*
X267794Y380605D01*
X267624Y380614D01*
X267548Y380606D01*
X267472Y380606D01*
X267303Y380580D01*
X267133Y380562D01*
X267060Y380542D01*
X266985Y380530D01*
X266822Y380476D01*
X266658Y380431D01*
X266588Y380399D01*
X266516Y380376D01*
X266364Y380297D01*
X266209Y380225D01*
X266146Y380183D01*
X266078Y380148D01*
X265996Y380082D01*
X265800Y379950D01*
X265627Y379788D01*
X265545Y379722D01*
X262259Y376436D01*
X257549Y374485D01*
X252451Y374485D01*
X247741Y376436D01*
X244455Y379722D01*
X244397Y379772D01*
X244345Y379827D01*
X244209Y379931D01*
X244079Y380042D01*
X244013Y380081D01*
X243953Y380128D01*
X243803Y380208D01*
X243656Y380297D01*
X243586Y380325D01*
X243518Y380361D01*
X243357Y380416D01*
X243198Y380480D01*
X243124Y380496D01*
X243052Y380521D01*
X242883Y380549D01*
X242717Y380586D01*
X242640Y380591D01*
X242565Y380603D01*
X242394Y380605D01*
X242224Y380614D01*
X242148Y380606D01*
X242072Y380606D01*
X241903Y380580D01*
X241733Y380562D01*
X241660Y380542D01*
X241585Y380530D01*
X241422Y380476D01*
X241258Y380431D01*
X241188Y380399D01*
X241116Y380376D01*
X240964Y380297D01*
X240809Y380225D01*
X240746Y380183D01*
X240678Y380148D01*
X240596Y380082D01*
X240400Y379950D01*
X240227Y379788D01*
X240145Y379722D01*
X236859Y376436D01*
X232149Y374485D01*
X227051Y374485D01*
G37*
%LPD*%
%LPC*%
G36*
X52051Y374485D02*
X52051Y374485D01*
X47341Y376436D01*
X43736Y380041D01*
X41785Y384751D01*
X41785Y389849D01*
X43736Y394559D01*
X47022Y397845D01*
X47072Y397903D01*
X47127Y397956D01*
X47231Y398091D01*
X47342Y398221D01*
X47381Y398286D01*
X47428Y398347D01*
X47508Y398497D01*
X47597Y398644D01*
X47625Y398715D01*
X47661Y398782D01*
X47716Y398943D01*
X47780Y399102D01*
X47796Y399176D01*
X47821Y399248D01*
X47849Y399417D01*
X47886Y399584D01*
X47891Y399660D01*
X47903Y399735D01*
X47905Y399906D01*
X47914Y400076D01*
X47906Y400152D01*
X47906Y400228D01*
X47880Y400397D01*
X47862Y400567D01*
X47842Y400640D01*
X47830Y400715D01*
X47776Y400878D01*
X47731Y401042D01*
X47699Y401112D01*
X47676Y401184D01*
X47597Y401335D01*
X47525Y401491D01*
X47483Y401554D01*
X47448Y401622D01*
X47382Y401704D01*
X47250Y401900D01*
X47088Y402072D01*
X47022Y402155D01*
X43736Y405441D01*
X41785Y410151D01*
X41785Y415249D01*
X43736Y419959D01*
X47341Y423564D01*
X52051Y425515D01*
X57149Y425515D01*
X61859Y423564D01*
X65145Y420278D01*
X65203Y420228D01*
X65256Y420173D01*
X65391Y420069D01*
X65521Y419958D01*
X65586Y419919D01*
X65647Y419872D01*
X65797Y419792D01*
X65944Y419703D01*
X66015Y419675D01*
X66082Y419639D01*
X66243Y419584D01*
X66402Y419520D01*
X66476Y419504D01*
X66548Y419479D01*
X66717Y419451D01*
X66884Y419414D01*
X66960Y419409D01*
X67035Y419397D01*
X67206Y419395D01*
X67376Y419386D01*
X67452Y419394D01*
X67528Y419394D01*
X67697Y419420D01*
X67867Y419438D01*
X67940Y419458D01*
X68015Y419470D01*
X68178Y419524D01*
X68342Y419569D01*
X68412Y419601D01*
X68484Y419624D01*
X68635Y419703D01*
X68791Y419775D01*
X68854Y419817D01*
X68922Y419852D01*
X69004Y419918D01*
X69200Y420050D01*
X69372Y420212D01*
X69455Y420278D01*
X72741Y423564D01*
X77451Y425515D01*
X82549Y425515D01*
X87259Y423564D01*
X89318Y421504D01*
X89492Y421357D01*
X89664Y421207D01*
X89680Y421197D01*
X89694Y421185D01*
X89889Y421067D01*
X90083Y420947D01*
X90101Y420940D01*
X90117Y420930D01*
X90328Y420846D01*
X90539Y420759D01*
X90557Y420754D01*
X90575Y420747D01*
X90798Y420698D01*
X91019Y420646D01*
X91038Y420645D01*
X91057Y420641D01*
X91286Y420628D01*
X91511Y420612D01*
X91530Y420614D01*
X91549Y420613D01*
X91775Y420637D01*
X92003Y420658D01*
X92021Y420663D01*
X92040Y420665D01*
X92258Y420725D01*
X92480Y420783D01*
X92497Y420791D01*
X92515Y420796D01*
X92722Y420891D01*
X92931Y420983D01*
X92947Y420994D01*
X92964Y421001D01*
X93153Y421129D01*
X93343Y421253D01*
X93357Y421266D01*
X93373Y421277D01*
X93539Y421433D01*
X93707Y421587D01*
X93716Y421599D01*
X93733Y421615D01*
X94033Y422006D01*
X94077Y422088D01*
X94112Y422136D01*
X94617Y423010D01*
X95090Y423483D01*
X95669Y423818D01*
X96315Y423991D01*
X102353Y423991D01*
X102353Y412700D01*
X102359Y412624D01*
X102356Y412548D01*
X102379Y412379D01*
X102393Y412209D01*
X102411Y412135D01*
X102421Y412059D01*
X102470Y411895D01*
X102511Y411730D01*
X102541Y411660D01*
X102563Y411587D01*
X102638Y411433D01*
X102706Y411276D01*
X102747Y411212D01*
X102780Y411144D01*
X102879Y411004D01*
X102971Y410860D01*
X103022Y410804D01*
X103066Y410741D01*
X103186Y410620D01*
X103300Y410492D01*
X103359Y410444D01*
X103412Y410390D01*
X103413Y410390D01*
X103551Y410289D01*
X103684Y410182D01*
X103750Y410144D01*
X103812Y410099D01*
X103964Y410023D01*
X104113Y409938D01*
X104184Y409911D01*
X104252Y409877D01*
X104415Y409826D01*
X104575Y409766D01*
X104650Y409752D01*
X104723Y409729D01*
X104827Y409717D01*
X105059Y409672D01*
X105295Y409664D01*
X105400Y409653D01*
X116691Y409653D01*
X116691Y403615D01*
X116518Y402969D01*
X116183Y402390D01*
X115710Y401917D01*
X114836Y401412D01*
X114648Y401282D01*
X114459Y401155D01*
X114445Y401142D01*
X114430Y401132D01*
X114265Y400973D01*
X114100Y400818D01*
X114088Y400803D01*
X114074Y400789D01*
X113938Y400607D01*
X113799Y400426D01*
X113790Y400409D01*
X113779Y400394D01*
X113674Y400193D01*
X113566Y399991D01*
X113560Y399973D01*
X113551Y399957D01*
X113480Y399741D01*
X113406Y399525D01*
X113403Y399506D01*
X113397Y399488D01*
X113362Y399264D01*
X113323Y399038D01*
X113323Y399019D01*
X113320Y399001D01*
X113322Y398774D01*
X113320Y398545D01*
X113323Y398526D01*
X113324Y398507D01*
X113362Y398283D01*
X113397Y398058D01*
X113403Y398040D01*
X113406Y398021D01*
X113480Y397806D01*
X113551Y397589D01*
X113560Y397572D01*
X113566Y397554D01*
X113674Y397353D01*
X113779Y397151D01*
X113789Y397139D01*
X113799Y397120D01*
X114100Y396728D01*
X114167Y396665D01*
X114204Y396618D01*
X116264Y394559D01*
X118215Y389849D01*
X118215Y384751D01*
X116264Y380041D01*
X112659Y376436D01*
X107949Y374485D01*
X102851Y374485D01*
X98141Y376436D01*
X94855Y379722D01*
X94797Y379772D01*
X94745Y379827D01*
X94609Y379931D01*
X94479Y380042D01*
X94413Y380081D01*
X94353Y380128D01*
X94203Y380208D01*
X94056Y380297D01*
X93986Y380325D01*
X93918Y380361D01*
X93757Y380416D01*
X93598Y380480D01*
X93524Y380496D01*
X93452Y380521D01*
X93283Y380549D01*
X93117Y380586D01*
X93040Y380591D01*
X92965Y380603D01*
X92794Y380605D01*
X92624Y380614D01*
X92548Y380606D01*
X92472Y380606D01*
X92303Y380580D01*
X92133Y380562D01*
X92060Y380542D01*
X91985Y380530D01*
X91822Y380476D01*
X91658Y380431D01*
X91588Y380399D01*
X91516Y380376D01*
X91364Y380297D01*
X91209Y380225D01*
X91146Y380183D01*
X91078Y380148D01*
X90996Y380082D01*
X90800Y379950D01*
X90627Y379788D01*
X90545Y379722D01*
X87259Y376436D01*
X82549Y374485D01*
X77451Y374485D01*
X72741Y376436D01*
X69455Y379722D01*
X69397Y379772D01*
X69345Y379827D01*
X69209Y379931D01*
X69079Y380042D01*
X69013Y380081D01*
X68953Y380128D01*
X68803Y380208D01*
X68656Y380297D01*
X68586Y380325D01*
X68518Y380361D01*
X68357Y380416D01*
X68198Y380480D01*
X68124Y380496D01*
X68052Y380521D01*
X67883Y380549D01*
X67717Y380586D01*
X67640Y380591D01*
X67565Y380603D01*
X67394Y380605D01*
X67224Y380614D01*
X67148Y380606D01*
X67072Y380606D01*
X66903Y380580D01*
X66733Y380562D01*
X66660Y380542D01*
X66585Y380530D01*
X66422Y380476D01*
X66258Y380431D01*
X66188Y380399D01*
X66116Y380376D01*
X65964Y380297D01*
X65809Y380225D01*
X65746Y380183D01*
X65678Y380148D01*
X65596Y380082D01*
X65400Y379950D01*
X65227Y379788D01*
X65145Y379722D01*
X61859Y376436D01*
X57149Y374485D01*
X52051Y374485D01*
G37*
%LPD*%
%LPC*%
G36*
X277103Y475135D02*
X277103Y475135D01*
X271750Y477353D01*
X267653Y481450D01*
X265435Y486803D01*
X265435Y513597D01*
X267653Y518950D01*
X271750Y523047D01*
X277103Y525265D01*
X282897Y525265D01*
X288250Y523047D01*
X292347Y518950D01*
X294565Y513597D01*
X294565Y486803D01*
X292347Y481450D01*
X288250Y477353D01*
X282897Y475135D01*
X277103Y475135D01*
G37*
%LPD*%
%LPC*%
G36*
X227103Y475135D02*
X227103Y475135D01*
X221750Y477353D01*
X217653Y481450D01*
X215435Y486803D01*
X215435Y513597D01*
X217653Y518950D01*
X221750Y523047D01*
X227103Y525265D01*
X232897Y525265D01*
X238250Y523047D01*
X242347Y518950D01*
X244565Y513597D01*
X244565Y486803D01*
X242347Y481450D01*
X238250Y477353D01*
X232897Y475135D01*
X227103Y475135D01*
G37*
%LPD*%
%LPC*%
G36*
X427103Y475135D02*
X427103Y475135D01*
X421750Y477353D01*
X417653Y481450D01*
X415435Y486803D01*
X415435Y513597D01*
X417653Y518950D01*
X421750Y523047D01*
X427103Y525265D01*
X432897Y525265D01*
X438250Y523047D01*
X442347Y518950D01*
X444565Y513597D01*
X444565Y486803D01*
X442347Y481450D01*
X438250Y477353D01*
X432897Y475135D01*
X427103Y475135D01*
G37*
%LPD*%
%LPC*%
G36*
X377103Y475135D02*
X377103Y475135D01*
X371750Y477353D01*
X367653Y481450D01*
X365435Y486803D01*
X365435Y513597D01*
X367653Y518950D01*
X371750Y523047D01*
X377103Y525265D01*
X382897Y525265D01*
X388250Y523047D01*
X392347Y518950D01*
X394565Y513597D01*
X394565Y486803D01*
X392347Y481450D01*
X388250Y477353D01*
X382897Y475135D01*
X377103Y475135D01*
G37*
%LPD*%
%LPC*%
G36*
X127103Y475135D02*
X127103Y475135D01*
X121750Y477353D01*
X117653Y481450D01*
X115435Y486803D01*
X115435Y513597D01*
X117653Y518950D01*
X121750Y523047D01*
X127103Y525265D01*
X132897Y525265D01*
X138250Y523047D01*
X142347Y518950D01*
X144565Y513597D01*
X144565Y486803D01*
X142347Y481450D01*
X138250Y477353D01*
X132897Y475135D01*
X127103Y475135D01*
G37*
%LPD*%
%LPC*%
G36*
X77103Y475135D02*
X77103Y475135D01*
X71750Y477353D01*
X67653Y481450D01*
X65435Y486803D01*
X65435Y513597D01*
X67653Y518950D01*
X71750Y523047D01*
X77103Y525265D01*
X82897Y525265D01*
X88250Y523047D01*
X92347Y518950D01*
X94565Y513597D01*
X94565Y486803D01*
X92347Y481450D01*
X88250Y477353D01*
X82897Y475135D01*
X77103Y475135D01*
G37*
%LPD*%
%LPC*%
G36*
X77103Y134735D02*
X77103Y134735D01*
X71750Y136953D01*
X67653Y141050D01*
X65435Y146403D01*
X65435Y173197D01*
X67653Y178550D01*
X71750Y182647D01*
X77103Y184865D01*
X82897Y184865D01*
X88250Y182647D01*
X92347Y178550D01*
X94565Y173197D01*
X94565Y146403D01*
X92347Y141050D01*
X88250Y136953D01*
X82897Y134735D01*
X77103Y134735D01*
G37*
%LPD*%
%LPC*%
G36*
X127103Y134735D02*
X127103Y134735D01*
X121750Y136953D01*
X117653Y141050D01*
X115435Y146403D01*
X115435Y173197D01*
X117653Y178550D01*
X121750Y182647D01*
X127103Y184865D01*
X132897Y184865D01*
X138250Y182647D01*
X142347Y178550D01*
X144565Y173197D01*
X144565Y146403D01*
X142347Y141050D01*
X138250Y136953D01*
X132897Y134735D01*
X127103Y134735D01*
G37*
%LPD*%
%LPC*%
G36*
X227103Y134735D02*
X227103Y134735D01*
X221750Y136953D01*
X217653Y141050D01*
X215435Y146403D01*
X215435Y173197D01*
X217653Y178550D01*
X221750Y182647D01*
X227103Y184865D01*
X232897Y184865D01*
X238250Y182647D01*
X242347Y178550D01*
X244565Y173197D01*
X244565Y146403D01*
X242347Y141050D01*
X238250Y136953D01*
X232897Y134735D01*
X227103Y134735D01*
G37*
%LPD*%
%LPC*%
G36*
X277103Y134735D02*
X277103Y134735D01*
X271750Y136953D01*
X267653Y141050D01*
X265435Y146403D01*
X265435Y173197D01*
X267653Y178550D01*
X271750Y182647D01*
X277103Y184865D01*
X282897Y184865D01*
X288250Y182647D01*
X292347Y178550D01*
X294565Y173197D01*
X294565Y146403D01*
X292347Y141050D01*
X288250Y136953D01*
X282897Y134735D01*
X277103Y134735D01*
G37*
%LPD*%
%LPC*%
G36*
X377103Y134735D02*
X377103Y134735D01*
X371750Y136953D01*
X367653Y141050D01*
X365435Y146403D01*
X365435Y173197D01*
X367653Y178550D01*
X371750Y182647D01*
X377103Y184865D01*
X382897Y184865D01*
X388250Y182647D01*
X392347Y178550D01*
X394565Y173197D01*
X394565Y146403D01*
X392347Y141050D01*
X388250Y136953D01*
X382897Y134735D01*
X377103Y134735D01*
G37*
%LPD*%
%LPC*%
G36*
X427103Y134735D02*
X427103Y134735D01*
X421750Y136953D01*
X417653Y141050D01*
X415435Y146403D01*
X415435Y173197D01*
X417653Y178550D01*
X421750Y182647D01*
X427103Y184865D01*
X432897Y184865D01*
X438250Y182647D01*
X442347Y178550D01*
X444565Y173197D01*
X444565Y146403D01*
X442347Y141050D01*
X438250Y136953D01*
X432897Y134735D01*
X427103Y134735D01*
G37*
%LPD*%
%LPC*%
G36*
X183499Y503699D02*
X183499Y503699D01*
X183499Y523275D01*
X185006Y522785D01*
X186835Y521853D01*
X188496Y520647D01*
X189947Y519196D01*
X191153Y517535D01*
X192085Y515706D01*
X192720Y513754D01*
X193041Y511726D01*
X193041Y503699D01*
X183499Y503699D01*
G37*
%LPD*%
%LPC*%
G36*
X183499Y163299D02*
X183499Y163299D01*
X183499Y182875D01*
X185006Y182385D01*
X186835Y181453D01*
X188496Y180247D01*
X189947Y178796D01*
X191153Y177135D01*
X192085Y175306D01*
X192720Y173354D01*
X193041Y171326D01*
X193041Y163299D01*
X183499Y163299D01*
G37*
%LPD*%
%LPC*%
G36*
X33499Y163299D02*
X33499Y163299D01*
X33499Y182875D01*
X35006Y182385D01*
X36835Y181453D01*
X38496Y180247D01*
X39947Y178796D01*
X41153Y177135D01*
X42085Y175306D01*
X42720Y173354D01*
X43041Y171326D01*
X43041Y163299D01*
X33499Y163299D01*
G37*
%LPD*%
%LPC*%
G36*
X33499Y503699D02*
X33499Y503699D01*
X33499Y523275D01*
X35006Y522785D01*
X36835Y521853D01*
X38496Y520647D01*
X39947Y519196D01*
X41153Y517535D01*
X42085Y515706D01*
X42720Y513754D01*
X43041Y511726D01*
X43041Y503699D01*
X33499Y503699D01*
G37*
%LPD*%
%LPC*%
G36*
X483499Y503699D02*
X483499Y503699D01*
X483499Y523275D01*
X485006Y522785D01*
X486835Y521853D01*
X488496Y520647D01*
X489947Y519196D01*
X491153Y517535D01*
X492085Y515706D01*
X492720Y513754D01*
X493041Y511726D01*
X493041Y503699D01*
X483499Y503699D01*
G37*
%LPD*%
%LPC*%
G36*
X333499Y503699D02*
X333499Y503699D01*
X333499Y523275D01*
X335006Y522785D01*
X336835Y521853D01*
X338496Y520647D01*
X339947Y519196D01*
X341153Y517535D01*
X342085Y515706D01*
X342720Y513754D01*
X343041Y511726D01*
X343041Y503699D01*
X333499Y503699D01*
G37*
%LPD*%
%LPC*%
G36*
X333499Y163299D02*
X333499Y163299D01*
X333499Y182875D01*
X335006Y182385D01*
X336835Y181453D01*
X338496Y180247D01*
X339947Y178796D01*
X341153Y177135D01*
X342085Y175306D01*
X342720Y173354D01*
X343041Y171326D01*
X343041Y163299D01*
X333499Y163299D01*
G37*
%LPD*%
%LPC*%
G36*
X483499Y163299D02*
X483499Y163299D01*
X483499Y182875D01*
X485006Y182385D01*
X486835Y181453D01*
X488496Y180247D01*
X489947Y178796D01*
X491153Y177135D01*
X492085Y175306D01*
X492720Y173354D01*
X493041Y171326D01*
X493041Y163299D01*
X483499Y163299D01*
G37*
%LPD*%
%LPC*%
G36*
X333499Y496701D02*
X333499Y496701D01*
X343041Y496701D01*
X343041Y488674D01*
X342720Y486646D01*
X342085Y484694D01*
X341153Y482865D01*
X339947Y481204D01*
X338496Y479753D01*
X336835Y478547D01*
X335006Y477615D01*
X333499Y477125D01*
X333499Y496701D01*
G37*
%LPD*%
%LPC*%
G36*
X183499Y496701D02*
X183499Y496701D01*
X193041Y496701D01*
X193041Y488674D01*
X192720Y486646D01*
X192085Y484694D01*
X191153Y482865D01*
X189947Y481204D01*
X188496Y479753D01*
X186835Y478547D01*
X185006Y477615D01*
X183499Y477125D01*
X183499Y496701D01*
G37*
%LPD*%
%LPC*%
G36*
X33499Y496701D02*
X33499Y496701D01*
X43041Y496701D01*
X43041Y488674D01*
X42720Y486646D01*
X42085Y484694D01*
X41153Y482865D01*
X39947Y481204D01*
X38496Y479753D01*
X36835Y478547D01*
X35006Y477615D01*
X33499Y477125D01*
X33499Y496701D01*
G37*
%LPD*%
%LPC*%
G36*
X483499Y496701D02*
X483499Y496701D01*
X493041Y496701D01*
X493041Y488674D01*
X492720Y486646D01*
X492085Y484694D01*
X491153Y482865D01*
X489947Y481204D01*
X488496Y479753D01*
X486835Y478547D01*
X485006Y477615D01*
X483499Y477125D01*
X483499Y496701D01*
G37*
%LPD*%
%LPC*%
G36*
X483499Y156301D02*
X483499Y156301D01*
X493041Y156301D01*
X493041Y148274D01*
X492720Y146246D01*
X492085Y144294D01*
X491153Y142465D01*
X489947Y140804D01*
X488496Y139353D01*
X486835Y138147D01*
X485006Y137215D01*
X483499Y136725D01*
X483499Y156301D01*
G37*
%LPD*%
%LPC*%
G36*
X333499Y156301D02*
X333499Y156301D01*
X343041Y156301D01*
X343041Y148274D01*
X342720Y146246D01*
X342085Y144294D01*
X341153Y142465D01*
X339947Y140804D01*
X338496Y139353D01*
X336835Y138147D01*
X335006Y137215D01*
X333499Y136725D01*
X333499Y156301D01*
G37*
%LPD*%
%LPC*%
G36*
X183499Y156301D02*
X183499Y156301D01*
X193041Y156301D01*
X193041Y148274D01*
X192720Y146246D01*
X192085Y144294D01*
X191153Y142465D01*
X189947Y140804D01*
X188496Y139353D01*
X186835Y138147D01*
X185006Y137215D01*
X183499Y136725D01*
X183499Y156301D01*
G37*
%LPD*%
%LPC*%
G36*
X33499Y156301D02*
X33499Y156301D01*
X43041Y156301D01*
X43041Y148274D01*
X42720Y146246D01*
X42085Y144294D01*
X41153Y142465D01*
X39947Y140804D01*
X38496Y139353D01*
X36835Y138147D01*
X35006Y137215D01*
X33499Y136725D01*
X33499Y156301D01*
G37*
%LPD*%
%LPC*%
G36*
X466959Y503699D02*
X466959Y503699D01*
X466959Y511726D01*
X467280Y513754D01*
X467915Y515706D01*
X468847Y517535D01*
X470053Y519196D01*
X471504Y520647D01*
X473165Y521853D01*
X474994Y522785D01*
X476501Y523275D01*
X476501Y503699D01*
X466959Y503699D01*
G37*
%LPD*%
%LPC*%
G36*
X166959Y503699D02*
X166959Y503699D01*
X166959Y511726D01*
X167280Y513754D01*
X167915Y515706D01*
X168847Y517535D01*
X170053Y519196D01*
X171504Y520647D01*
X173165Y521853D01*
X174994Y522785D01*
X176501Y523275D01*
X176501Y503699D01*
X166959Y503699D01*
G37*
%LPD*%
%LPC*%
G36*
X16959Y163299D02*
X16959Y163299D01*
X16959Y171326D01*
X17280Y173354D01*
X17915Y175306D01*
X18847Y177135D01*
X20053Y178796D01*
X21504Y180247D01*
X23165Y181453D01*
X24994Y182385D01*
X26501Y182875D01*
X26501Y163299D01*
X16959Y163299D01*
G37*
%LPD*%
%LPC*%
G36*
X16959Y503699D02*
X16959Y503699D01*
X16959Y511726D01*
X17280Y513754D01*
X17915Y515706D01*
X18847Y517535D01*
X20053Y519196D01*
X21504Y520647D01*
X23165Y521853D01*
X24994Y522785D01*
X26501Y523275D01*
X26501Y503699D01*
X16959Y503699D01*
G37*
%LPD*%
%LPC*%
G36*
X166959Y163299D02*
X166959Y163299D01*
X166959Y171326D01*
X167280Y173354D01*
X167915Y175306D01*
X168847Y177135D01*
X170053Y178796D01*
X171504Y180247D01*
X173165Y181453D01*
X174994Y182385D01*
X176501Y182875D01*
X176501Y163299D01*
X166959Y163299D01*
G37*
%LPD*%
%LPC*%
G36*
X316959Y503699D02*
X316959Y503699D01*
X316959Y511726D01*
X317280Y513754D01*
X317915Y515706D01*
X318847Y517535D01*
X320053Y519196D01*
X321504Y520647D01*
X323165Y521853D01*
X324994Y522785D01*
X326501Y523275D01*
X326501Y503699D01*
X316959Y503699D01*
G37*
%LPD*%
%LPC*%
G36*
X316959Y163299D02*
X316959Y163299D01*
X316959Y171326D01*
X317280Y173354D01*
X317915Y175306D01*
X318847Y177135D01*
X320053Y178796D01*
X321504Y180247D01*
X323165Y181453D01*
X324994Y182385D01*
X326501Y182875D01*
X326501Y163299D01*
X316959Y163299D01*
G37*
%LPD*%
%LPC*%
G36*
X466959Y163299D02*
X466959Y163299D01*
X466959Y171326D01*
X467280Y173354D01*
X467915Y175306D01*
X468847Y177135D01*
X470053Y178796D01*
X471504Y180247D01*
X473165Y181453D01*
X474994Y182385D01*
X476501Y182875D01*
X476501Y163299D01*
X466959Y163299D01*
G37*
%LPD*%
%LPC*%
G36*
X324994Y477615D02*
X324994Y477615D01*
X323165Y478547D01*
X321504Y479753D01*
X320053Y481204D01*
X318847Y482865D01*
X317915Y484694D01*
X317280Y486646D01*
X316959Y488674D01*
X316959Y496701D01*
X326501Y496701D01*
X326501Y477125D01*
X324994Y477615D01*
G37*
%LPD*%
%LPC*%
G36*
X474994Y477615D02*
X474994Y477615D01*
X473165Y478547D01*
X471504Y479753D01*
X470053Y481204D01*
X468847Y482865D01*
X467915Y484694D01*
X467280Y486646D01*
X466959Y488674D01*
X466959Y496701D01*
X476501Y496701D01*
X476501Y477125D01*
X474994Y477615D01*
G37*
%LPD*%
%LPC*%
G36*
X24994Y477615D02*
X24994Y477615D01*
X23165Y478547D01*
X21504Y479753D01*
X20053Y481204D01*
X18847Y482865D01*
X17915Y484694D01*
X17280Y486646D01*
X16959Y488674D01*
X16959Y496701D01*
X26501Y496701D01*
X26501Y477125D01*
X24994Y477615D01*
G37*
%LPD*%
%LPC*%
G36*
X174994Y477615D02*
X174994Y477615D01*
X173165Y478547D01*
X171504Y479753D01*
X170053Y481204D01*
X168847Y482865D01*
X167915Y484694D01*
X167280Y486646D01*
X166959Y488674D01*
X166959Y496701D01*
X176501Y496701D01*
X176501Y477125D01*
X174994Y477615D01*
G37*
%LPD*%
%LPC*%
G36*
X474994Y137215D02*
X474994Y137215D01*
X473165Y138147D01*
X471504Y139353D01*
X470053Y140804D01*
X468847Y142465D01*
X467915Y144294D01*
X467280Y146246D01*
X466959Y148274D01*
X466959Y156301D01*
X476501Y156301D01*
X476501Y136725D01*
X474994Y137215D01*
G37*
%LPD*%
%LPC*%
G36*
X324994Y137215D02*
X324994Y137215D01*
X323165Y138147D01*
X321504Y139353D01*
X320053Y140804D01*
X318847Y142465D01*
X317915Y144294D01*
X317280Y146246D01*
X316959Y148274D01*
X316959Y156301D01*
X326501Y156301D01*
X326501Y136725D01*
X324994Y137215D01*
G37*
%LPD*%
%LPC*%
G36*
X174994Y137215D02*
X174994Y137215D01*
X173165Y138147D01*
X171504Y139353D01*
X170053Y140804D01*
X168847Y142465D01*
X167915Y144294D01*
X167280Y146246D01*
X166959Y148274D01*
X166959Y156301D01*
X176501Y156301D01*
X176501Y136725D01*
X174994Y137215D01*
G37*
%LPD*%
%LPC*%
G36*
X24994Y137215D02*
X24994Y137215D01*
X23165Y138147D01*
X21504Y139353D01*
X20053Y140804D01*
X18847Y142465D01*
X17915Y144294D01*
X17280Y146246D01*
X16959Y148274D01*
X16959Y156301D01*
X26501Y156301D01*
X26501Y136725D01*
X24994Y137215D01*
G37*
%LPD*%
%LPC*%
G36*
X108447Y415747D02*
X108447Y415747D01*
X108447Y423991D01*
X114485Y423991D01*
X115131Y423818D01*
X115710Y423483D01*
X116183Y423010D01*
X116518Y422431D01*
X116691Y421785D01*
X116691Y415747D01*
X108447Y415747D01*
G37*
%LPD*%
%LPC*%
G36*
X283447Y415747D02*
X283447Y415747D01*
X283447Y423991D01*
X289485Y423991D01*
X290131Y423818D01*
X290710Y423483D01*
X291183Y423010D01*
X291518Y422431D01*
X291691Y421785D01*
X291691Y415747D01*
X283447Y415747D01*
G37*
%LPD*%
%LPC*%
G36*
X458447Y415747D02*
X458447Y415747D01*
X458447Y423991D01*
X464485Y423991D01*
X465131Y423818D01*
X465710Y423483D01*
X466183Y423010D01*
X466518Y422431D01*
X466691Y421785D01*
X466691Y415747D01*
X458447Y415747D01*
G37*
%LPD*%
%LPC*%
G36*
X283447Y285747D02*
X283447Y285747D01*
X283447Y293991D01*
X289485Y293991D01*
X290131Y293818D01*
X290710Y293483D01*
X291183Y293010D01*
X291518Y292431D01*
X291691Y291785D01*
X291691Y285747D01*
X283447Y285747D01*
G37*
%LPD*%
%LPC*%
G36*
X108447Y285747D02*
X108447Y285747D01*
X108447Y293991D01*
X114485Y293991D01*
X115131Y293818D01*
X115710Y293483D01*
X116183Y293010D01*
X116518Y292431D01*
X116691Y291785D01*
X116691Y285747D01*
X108447Y285747D01*
G37*
%LPD*%
%LPC*%
G36*
X458447Y285747D02*
X458447Y285747D01*
X458447Y293991D01*
X464485Y293991D01*
X465131Y293818D01*
X465710Y293483D01*
X466183Y293010D01*
X466518Y292431D01*
X466691Y291785D01*
X466691Y285747D01*
X458447Y285747D01*
G37*
%LPD*%
D10*
X280400Y412700D03*
D11*
X280400Y387300D03*
X255000Y412700D03*
X255000Y387300D03*
X229600Y412700D03*
X229600Y387300D03*
D10*
X280400Y282700D03*
D11*
X280400Y257300D03*
X255000Y282700D03*
X255000Y257300D03*
X229600Y282700D03*
X229600Y257300D03*
D10*
X455400Y412700D03*
D11*
X455400Y387300D03*
X430000Y412700D03*
X430000Y387300D03*
X404600Y412700D03*
X404600Y387300D03*
D10*
X455400Y282700D03*
D11*
X455400Y257300D03*
X430000Y282700D03*
X430000Y257300D03*
X404600Y282700D03*
X404600Y257300D03*
D10*
X105400Y412700D03*
D11*
X105400Y387300D03*
X80000Y412700D03*
X80000Y387300D03*
X54600Y412700D03*
X54600Y387300D03*
D10*
X105400Y282700D03*
D11*
X105400Y257300D03*
X80000Y282700D03*
X80000Y257300D03*
X54600Y282700D03*
X54600Y257300D03*
D12*
X480000Y489700D02*
X480000Y510700D01*
X430000Y510700D02*
X430000Y489700D01*
X380000Y489700D02*
X380000Y510700D01*
X330000Y510700D02*
X330000Y489700D01*
X280000Y489700D02*
X280000Y510700D01*
X230000Y510700D02*
X230000Y489700D01*
X180000Y489700D02*
X180000Y510700D01*
X130000Y510700D02*
X130000Y489700D01*
X80000Y489700D02*
X80000Y510700D01*
X30000Y510700D02*
X30000Y489700D01*
X30000Y170300D02*
X30000Y149300D01*
X80000Y149300D02*
X80000Y170300D01*
X130000Y170300D02*
X130000Y149300D01*
X180000Y149300D02*
X180000Y170300D01*
X230000Y170300D02*
X230000Y149300D01*
X280000Y149300D02*
X280000Y170300D01*
X330000Y170300D02*
X330000Y149300D01*
X380000Y149300D02*
X380000Y170300D01*
X430000Y170300D02*
X430000Y149300D01*
X480000Y149300D02*
X480000Y170300D01*
M02*
