G04 EAGLE Gerber RS-274X export*
G75*
%MOMM*%
%FSLAX34Y34*%
%LPD*%
%INSilkscreen Bottom*%
%IPPOS*%
%AMOC8*
5,1,8,0,0,1.08239X$1,22.5*%
G01*
%ADD10C,0.000000*%
%ADD11C,0.152400*%
%ADD12C,0.200000*%
%ADD13C,0.127000*%


D10*
X0Y0D02*
X510000Y0D01*
X510000Y670000D01*
X0Y670000D01*
X0Y0D01*
D11*
X102542Y434804D02*
X102542Y445651D01*
X97118Y451074D01*
X91695Y445651D01*
X91695Y434804D01*
X91695Y442939D02*
X102542Y442939D01*
X86170Y448362D02*
X83458Y451074D01*
X78035Y451074D01*
X75323Y448362D01*
X75323Y445651D01*
X78035Y442939D01*
X80747Y442939D01*
X78035Y442939D02*
X75323Y440227D01*
X75323Y437516D01*
X78035Y434804D01*
X83458Y434804D01*
X86170Y437516D01*
X69798Y437516D02*
X69798Y434804D01*
X69798Y437516D02*
X67087Y437516D01*
X67087Y434804D01*
X69798Y434804D01*
X61613Y445651D02*
X56189Y451074D01*
X56189Y434804D01*
X50766Y434804D02*
X61613Y434804D01*
X103113Y315171D02*
X103113Y304324D01*
X103113Y315171D02*
X97690Y320594D01*
X92266Y315171D01*
X92266Y304324D01*
X92266Y312459D02*
X103113Y312459D01*
X86741Y317882D02*
X84030Y320594D01*
X78607Y320594D01*
X75895Y317882D01*
X75895Y315171D01*
X78607Y312459D01*
X81318Y312459D01*
X78607Y312459D02*
X75895Y309747D01*
X75895Y307036D01*
X78607Y304324D01*
X84030Y304324D01*
X86741Y307036D01*
X70370Y307036D02*
X70370Y304324D01*
X70370Y307036D02*
X67658Y307036D01*
X67658Y304324D01*
X70370Y304324D01*
X62184Y304324D02*
X51338Y304324D01*
X62184Y304324D02*
X51338Y315171D01*
X51338Y317882D01*
X54049Y320594D01*
X59472Y320594D01*
X62184Y317882D01*
X268754Y314804D02*
X268754Y325651D01*
X263331Y331074D01*
X257907Y325651D01*
X257907Y314804D01*
X257907Y322939D02*
X268754Y322939D01*
X252382Y314804D02*
X241536Y314804D01*
X252382Y314804D02*
X241536Y325651D01*
X241536Y328362D01*
X244248Y331074D01*
X249671Y331074D01*
X252382Y328362D01*
X236011Y317516D02*
X236011Y314804D01*
X236011Y317516D02*
X233299Y317516D01*
X233299Y314804D01*
X236011Y314804D01*
X227825Y314804D02*
X216979Y314804D01*
X227825Y314804D02*
X216979Y325651D01*
X216979Y328362D01*
X219690Y331074D01*
X225113Y331074D01*
X227825Y328362D01*
X449897Y436133D02*
X449897Y446979D01*
X444474Y452402D01*
X439050Y446979D01*
X439050Y436133D01*
X439050Y444267D02*
X449897Y444267D01*
X433525Y436133D02*
X422679Y436133D01*
X433525Y436133D02*
X422679Y446979D01*
X422679Y449691D01*
X425391Y452402D01*
X430814Y452402D01*
X433525Y449691D01*
X417154Y438844D02*
X417154Y436133D01*
X417154Y438844D02*
X414442Y438844D01*
X414442Y436133D01*
X417154Y436133D01*
X408968Y449691D02*
X406256Y452402D01*
X400833Y452402D01*
X398122Y449691D01*
X398122Y446979D01*
X400833Y444267D01*
X403545Y444267D01*
X400833Y444267D02*
X398122Y441556D01*
X398122Y438844D01*
X400833Y436133D01*
X406256Y436133D01*
X408968Y438844D01*
X275538Y435376D02*
X275538Y446222D01*
X270115Y451645D01*
X264691Y446222D01*
X264691Y435376D01*
X264691Y443510D02*
X275538Y443510D01*
X259166Y435376D02*
X248320Y435376D01*
X259166Y435376D02*
X248320Y446222D01*
X248320Y448934D01*
X251032Y451645D01*
X256455Y451645D01*
X259166Y448934D01*
X242795Y438087D02*
X242795Y435376D01*
X242795Y438087D02*
X240083Y438087D01*
X240083Y435376D01*
X242795Y435376D01*
X234609Y446222D02*
X229186Y451645D01*
X229186Y435376D01*
X234609Y435376D02*
X223763Y435376D01*
X448754Y315651D02*
X448754Y304804D01*
X448754Y315651D02*
X443331Y321074D01*
X437907Y315651D01*
X437907Y304804D01*
X437907Y312939D02*
X448754Y312939D01*
X432382Y304804D02*
X421536Y304804D01*
X432382Y304804D02*
X421536Y315651D01*
X421536Y318362D01*
X424248Y321074D01*
X429671Y321074D01*
X432382Y318362D01*
X416011Y307516D02*
X416011Y304804D01*
X416011Y307516D02*
X413299Y307516D01*
X413299Y304804D01*
X416011Y304804D01*
X399690Y304804D02*
X399690Y321074D01*
X407825Y312939D01*
X396979Y312939D01*
D12*
X280400Y425950D02*
X214350Y425950D01*
X214350Y372850D01*
X295650Y372850D01*
X295650Y412700D01*
D13*
X207379Y397029D02*
X203354Y397029D01*
X202549Y397834D01*
X202549Y399444D01*
X203354Y400249D01*
X207379Y400249D01*
X207379Y402642D02*
X207379Y405862D01*
X207379Y402642D02*
X204964Y402642D01*
X205769Y404252D01*
X205769Y405057D01*
X204964Y405862D01*
X203354Y405862D01*
X202549Y405057D01*
X202549Y403447D01*
X203354Y402642D01*
D12*
X214350Y295950D02*
X280400Y295950D01*
X214350Y295950D02*
X214350Y242850D01*
X295650Y242850D01*
X295650Y282700D01*
D13*
X207379Y264489D02*
X203354Y264489D01*
X202549Y265294D01*
X202549Y266904D01*
X203354Y267709D01*
X207379Y267709D01*
X206574Y271712D02*
X207379Y273322D01*
X206574Y271712D02*
X204964Y270102D01*
X203354Y270102D01*
X202549Y270907D01*
X202549Y272517D01*
X203354Y273322D01*
X204159Y273322D01*
X204964Y272517D01*
X204964Y270102D01*
D12*
X389350Y425950D02*
X455400Y425950D01*
X389350Y425950D02*
X389350Y372850D01*
X470650Y372850D01*
X470650Y412700D01*
D13*
X382379Y397029D02*
X378354Y397029D01*
X377549Y397834D01*
X377549Y399444D01*
X378354Y400249D01*
X382379Y400249D01*
X382379Y402642D02*
X382379Y405862D01*
X381574Y405862D01*
X378354Y402642D01*
X377549Y402642D01*
D12*
X389350Y295950D02*
X455400Y295950D01*
X389350Y295950D02*
X389350Y242850D01*
X470650Y242850D01*
X470650Y282700D01*
D13*
X382379Y264489D02*
X378354Y264489D01*
X377549Y265294D01*
X377549Y266904D01*
X378354Y267709D01*
X382379Y267709D01*
X381574Y270102D02*
X382379Y270907D01*
X382379Y272517D01*
X381574Y273322D01*
X380769Y273322D01*
X379964Y272517D01*
X379159Y273322D01*
X378354Y273322D01*
X377549Y272517D01*
X377549Y270907D01*
X378354Y270102D01*
X379159Y270102D01*
X379964Y270907D01*
X380769Y270102D01*
X381574Y270102D01*
X379964Y270907D02*
X379964Y272517D01*
D12*
X105400Y425950D02*
X39350Y425950D01*
X39350Y372850D01*
X120650Y372850D01*
X120650Y412700D01*
D13*
X32379Y397029D02*
X28354Y397029D01*
X27549Y397834D01*
X27549Y399444D01*
X28354Y400249D01*
X32379Y400249D01*
X28354Y402642D02*
X27549Y403447D01*
X27549Y405057D01*
X28354Y405862D01*
X31574Y405862D01*
X32379Y405057D01*
X32379Y403447D01*
X31574Y402642D01*
X30769Y402642D01*
X29964Y403447D01*
X29964Y405862D01*
D12*
X39350Y295950D02*
X105400Y295950D01*
X39350Y295950D02*
X39350Y242850D01*
X120650Y242850D01*
X120650Y282700D01*
D13*
X32379Y296976D02*
X28354Y296976D01*
X27549Y297781D01*
X27549Y299391D01*
X28354Y300196D01*
X32379Y300196D01*
X30769Y302589D02*
X32379Y304199D01*
X27549Y304199D01*
X27549Y302589D02*
X27549Y305809D01*
X28354Y308202D02*
X31574Y308202D01*
X32379Y309007D01*
X32379Y310617D01*
X31574Y311422D01*
X28354Y311422D01*
X27549Y310617D01*
X27549Y309007D01*
X28354Y308202D01*
X31574Y311422D01*
M02*
