G04 EAGLE Gerber RS-274X export*
G75*
%MOMM*%
%FSLAX34Y34*%
%LPD*%
%INSoldermask Top*%
%IPPOS*%
%AMOC8*
5,1,8,0,0,1.08239X$1,22.5*%
G01*
%ADD10R,1.953200X1.953200*%
%ADD11C,1.953200*%
%ADD12C,2.303200*%
%ADD13R,1.473200X0.838200*%


D10*
X280400Y412700D03*
D11*
X280400Y387300D03*
X255000Y412700D03*
X255000Y387300D03*
X229600Y412700D03*
X229600Y387300D03*
D10*
X280400Y282700D03*
D11*
X280400Y257300D03*
X255000Y282700D03*
X255000Y257300D03*
X229600Y282700D03*
X229600Y257300D03*
D10*
X455400Y412700D03*
D11*
X455400Y387300D03*
X430000Y412700D03*
X430000Y387300D03*
X404600Y412700D03*
X404600Y387300D03*
D10*
X455400Y282700D03*
D11*
X455400Y257300D03*
X430000Y282700D03*
X430000Y257300D03*
X404600Y282700D03*
X404600Y257300D03*
D10*
X105400Y412700D03*
D11*
X105400Y387300D03*
X80000Y412700D03*
X80000Y387300D03*
X54600Y412700D03*
X54600Y387300D03*
D10*
X105400Y282700D03*
D11*
X105400Y257300D03*
X80000Y282700D03*
X80000Y257300D03*
X54600Y282700D03*
X54600Y257300D03*
D12*
X480000Y489700D02*
X480000Y510700D01*
X430000Y510700D02*
X430000Y489700D01*
X380000Y489700D02*
X380000Y510700D01*
X330000Y510700D02*
X330000Y489700D01*
X280000Y489700D02*
X280000Y510700D01*
X230000Y510700D02*
X230000Y489700D01*
X180000Y489700D02*
X180000Y510700D01*
X130000Y510700D02*
X130000Y489700D01*
X80000Y489700D02*
X80000Y510700D01*
X30000Y510700D02*
X30000Y489700D01*
X30000Y170300D02*
X30000Y149300D01*
X80000Y149300D02*
X80000Y170300D01*
X130000Y170300D02*
X130000Y149300D01*
X180000Y149300D02*
X180000Y170300D01*
X230000Y170300D02*
X230000Y149300D01*
X280000Y149300D02*
X280000Y170300D01*
X330000Y170300D02*
X330000Y149300D01*
X380000Y149300D02*
X380000Y170300D01*
X430000Y170300D02*
X430000Y149300D01*
X480000Y149300D02*
X480000Y170300D01*
D13*
X370000Y410160D03*
X370000Y400000D03*
X370000Y389840D03*
X370000Y280160D03*
X370000Y270000D03*
X370000Y259840D03*
X20000Y410160D03*
X20000Y400000D03*
X20000Y389840D03*
X20000Y280160D03*
X20000Y270000D03*
X20000Y259840D03*
X200000Y280160D03*
X200000Y270000D03*
X200000Y259840D03*
X200000Y410160D03*
X200000Y400000D03*
X200000Y389840D03*
M02*
