%
M48
M72
T01C0.01571
T02C0.01575
T03C0.04000
T04C0.04331
T05C0.05000
T06C0.05118
T07C0.05900
T08C0.06299
T09C0.09055
T10C0.12205
%
T01
X337900Y260075
X335450Y276000
X355050Y260075
T02
X36550Y236800
X21850Y264975
X21850Y277225
X21850Y289475
X40225Y305400
X62275Y336025
X62275Y342150
X69625Y350725
X53700Y338475
X47575Y349725
X40225Y338475
X41450Y358300
X41450Y364425
X47575Y364200
X47575Y358300
X47575Y371550
X41450Y382575
X41450Y394825
X46350Y403400
X46350Y415650
X52475Y421775
X51617Y432310
X63500Y438925
X72075Y448725
X75750Y456075
X63500Y464650
X58600Y460975
X73300Y474450
X78200Y472000
X86775Y470775
X91602Y482231
X85550Y484617
X70850Y492825
X80650Y513650
X97800Y513650
X110662Y513773
X122300Y513650
X134550Y492825
X141900Y492825
X127130Y481853
X117400Y465875
X110050Y465875
X107600Y472000
X139450Y512425
X162725Y516100
X181100Y514875
X195800Y495275
X182325Y490375
X194575Y480575
X183550Y472000
X176200Y449950
X168850Y448725
X164685Y460240
X154150Y473225
X146800Y472000
X145575Y465875
X165175Y480575
X165175Y490375
X187225Y443825
X176200Y431575
X172525Y424225
X172525Y419325
X182325Y419325
X182325Y424225
X168850Y436475
X159050Y425450
X159050Y418100
X159050Y407075
X159050Y396050
X159050Y387475
X171300Y394825
X177425Y399725
X177425Y389925
X183550Y394825
X195800Y386250
X197025Y396050
X211725Y419325
X206825Y434025
X214175Y474450
X220300Y483025
X227650Y479350
X237450Y486700
X247250Y479350
X254600Y490375
X266850Y476900
X272975Y480575
X277875Y470775
X284000Y478125
X293800Y481800
X290125Y495275
X293800Y513650
X307275Y523450
X328100Y495275
X317075Y481800
X339125Y481800
X340350Y513650
X355050Y513650
X362400Y513650
X370975Y519775
X374650Y498950
X373425Y483025
X362400Y480575
X362400Y487925
X373425Y469550
X383225Y463425
X385675Y449950
X390575Y445050
X396700Y442600
X397925Y448725
X402825Y436475
X394250Y421775
X396700Y413200
X388125Y400950
X378325Y399725
X356275Y415650
X350150Y415650
X342800Y421775
X340350Y416875
X348925Y436475
X341575Y442600
X315850Y429125
X309725Y426675
X309725Y421775
X302375Y415650
X297475Y415650
X292575Y415650
X287675Y415650
X282775Y415650
X276650Y416875
X263175Y426675
X239900Y408300
X239900Y402175
X239900Y389925
X247250Y365425
X242350Y360525
X223975Y360525
X215400Y367875
X210500Y361750
X215400Y342150
X223975Y342150
X215400Y322550
X220300Y318875
X206825Y299275
X204375Y307850
X198250Y307850
X192125Y307850
X187225Y307850
X180425Y302750
X180425Y296625
X181800Y284275
X177375Y280350
X171050Y272525
X169550Y284275
X163425Y284275
X155375Y306625
X146800Y306625
X135775Y317650
X133325Y301725
X123525Y288250
X125975Y271100
X109425Y282550
X105050Y278800
X100050Y282550
X93800Y282550
X85550Y291925
X80650Y290700
X91675Y300500
X100250Y309075
X110050Y303175
X110050Y296300
X112500Y312750
X125975Y348275
X132100Y355625
X128425Y380125
X135775Y386250
X135775Y393600
X129650Y407075
X146800Y413200
X146800Y425450
X172525Y376450
X171300Y362975
X184775Y361750
X189675Y366650
X195800Y372775
X181100Y342150
X183550Y337250
X199475Y325000
X192125Y290700
X193595Y272693
X215400Y266200
X215000Y284575
X226425Y282125
X236225Y295600
X244800Y285800
X249700Y294375
X258275Y294375
X266000Y293525
X281550Y290700
X277875Y318875
X266850Y318875
X279100Y333575
X286450Y345825
X299925Y338475
X304825Y345825
X314625Y343375
X324425Y327450
X334225Y315200
X345250Y318875
X350150Y323775
X363625Y326225
X362400Y332350
X378325Y313975
X384450Y329900
X390575Y328675
X389350Y316425
X375875Y298050
X365625Y291900
X358725Y293150
X358725Y279675
X349500Y279400
X342000Y281900
X337000Y283150
X325650Y295600
X301150Y327450
X284000Y377675
X295025Y388700
X307275Y398500
X307275Y407075
X329325Y388700
X337900Y378900
X341575Y372775
X347700Y392375
X370975Y361750
X377100Y364200
X397925Y362975
X397925Y354400
X365625Y306775
X345250Y344600
X394250Y288250
X299925Y242925
X269300Y250275
X261950Y247825
X222750Y242925
X165175Y252725
X145575Y246600
X138225Y246600
X114950Y246600
X114950Y252725
X99883Y271225
X94125Y252725
X111275Y366650
X111275Y376450
X118625Y376450
X80650Y382575
X76975Y370325
X65950Y372775
X65950Y421725
X40225Y448725
X30425Y463425
X30425Y470775
X36550Y483025
X52475Y492825
X48800Y544275
X63500Y551625
X52475Y581025
X42675Y577350
X32875Y563875
X18175Y578575
X59825Y621450
X70850Y612875
X68400Y600625
X84325Y601850
X94125Y607975
X99025Y601850
X107600Y598175
X107600Y587150
X121075Y581025
X133325Y555300
X145575Y570000
X152925Y601850
X152925Y607975
X165175Y607975
X170075Y601850
X177425Y599400
X177425Y587150
X189675Y581025
X200700Y612875
X210500Y607975
X221525Y607975
X221525Y601850
X232550Y607975
X237450Y601850
X246025Y599400
X246025Y587150
X257050Y581025
X269300Y612875
X280325Y607975
X291350Y607975
X290125Y601850
X302375Y607975
X307275Y601850
X313400Y587150
X323200Y581025
X339125Y552850
X359950Y601850
X348925Y607975
X339125Y612875
X377100Y607975
X377100Y587150
X396700Y563875
X379550Y543050
X404050Y490375
X309725Y448725
X292575Y458525
X275425Y458525
X270525Y495275
X250925Y514875
X233775Y514875
X217850Y513650
X219075Y495275
X237450Y457300
X238675Y429125
X269300Y396050
X239900Y329900
X141900Y607975
X132100Y612875
X24300Y430350
X24300Y424225
X18175Y424225
X18175Y430350
X30425Y425450
X18175Y415650
X18175Y402175
T03
X125400Y367175
X135400Y367175
X132000Y336900
X132000Y326900
X122000Y326900
X122000Y336900
X142000Y336900
X142000Y326900
X152000Y326900
X152000Y336900
X162000Y336900
X162000Y326900
X172000Y326900
X172000Y336900
X223500Y373700
X223500Y383700
X223500Y393700
X223500Y403700
X256150Y403700
X256150Y393700
X256150Y383700
X256150Y373700
X313300Y370325
X323300Y370325
X334691Y253517
X356738Y253517
X226350Y464183
X216350Y464183
X206350Y464183
X196350Y464183
X396950Y505125
X396950Y522925
T04
X359146Y530050
X359146Y540050
X349146Y540050
X349146Y530050
X339146Y530050
X339146Y540050
X339146Y581231
X339146Y591231
X349146Y591231
X359146Y591231
X359146Y581231
X349146Y581231
X290248Y581231
X290248Y591231
X280248Y591231
X270248Y591231
X270248Y581231
X280248Y581231
X280248Y540050
X270248Y540050
X270248Y530050
X280248Y530050
X290248Y530050
X290248Y540050
X221350Y540050
X211350Y540050
X201350Y540050
X201350Y530050
X211350Y530050
X221350Y530050
X221350Y581231
X211350Y581231
X201350Y581231
X201350Y591231
X211350Y591231
X221350Y591231
X152453Y591231
X152453Y581231
X142453Y581231
X142453Y591231
X132453Y591231
X132453Y581231
X132453Y540050
X142453Y540050
X142453Y530050
X132453Y530050
X152453Y530050
X152453Y540050
X83555Y540050
X83555Y530050
X73555Y530050
X73555Y540050
X63555Y540050
X63555Y530050
X63555Y581231
X63555Y591231
X73555Y591231
X73555Y581231
X83555Y581231
X83555Y591231
X223000Y290400
T05
X345715Y245052
T06
X67961Y325000
X56150Y306496
X44339Y325000
X32000Y389107
X32000Y408793
T07
X387150Y500225
X387150Y527825
T08
X306000Y290400
T09
X202079Y333908
X91843Y333908
X26622Y325000
T10
X38122Y255522
X34185Y601979
X384579Y255522
X388516Y601979
M30
