G04 EAGLE Gerber RS-274X export*
G75*
%MOMM*%
%FSLAX34Y34*%
%LPD*%
%IN*%
%IPPOS*%
%AMOC8*
5,1,8,0,0,1.08239X$1,22.5*%
G01*
%ADD10C,0.254000*%


D10*
X230000Y450000D02*
X1350000Y450000D01*
X1350000Y1280000D01*
X230000Y1280000D01*
X230000Y450000D01*
X305500Y509446D02*
X305421Y508342D01*
X305263Y507246D01*
X305028Y506164D01*
X304716Y505102D01*
X304329Y504065D01*
X303869Y503058D01*
X303339Y502086D01*
X302740Y501154D01*
X302077Y500268D01*
X301352Y499431D01*
X300569Y498648D01*
X299732Y497923D01*
X298846Y497260D01*
X297914Y496661D01*
X296943Y496131D01*
X295935Y495671D01*
X294898Y495284D01*
X293836Y494972D01*
X292754Y494737D01*
X291658Y494579D01*
X290554Y494500D01*
X289446Y494500D01*
X288342Y494579D01*
X287246Y494737D01*
X286164Y494972D01*
X285102Y495284D01*
X284065Y495671D01*
X283058Y496131D01*
X282086Y496661D01*
X281154Y497260D01*
X280268Y497923D01*
X279431Y498648D01*
X278648Y499431D01*
X277923Y500268D01*
X277260Y501154D01*
X276661Y502086D01*
X276131Y503058D01*
X275671Y504065D01*
X275284Y505102D01*
X274972Y506164D01*
X274737Y507246D01*
X274579Y508342D01*
X274500Y509446D01*
X274500Y510554D01*
X274579Y511658D01*
X274737Y512754D01*
X274972Y513836D01*
X275284Y514898D01*
X275671Y515935D01*
X276131Y516943D01*
X276661Y517914D01*
X277260Y518846D01*
X277923Y519732D01*
X278648Y520569D01*
X279431Y521352D01*
X280268Y522077D01*
X281154Y522740D01*
X282086Y523339D01*
X283058Y523869D01*
X284065Y524329D01*
X285102Y524716D01*
X286164Y525028D01*
X287246Y525263D01*
X288342Y525421D01*
X289446Y525500D01*
X290554Y525500D01*
X291658Y525421D01*
X292754Y525263D01*
X293836Y525028D01*
X294898Y524716D01*
X295935Y524329D01*
X296943Y523869D01*
X297914Y523339D01*
X298846Y522740D01*
X299732Y522077D01*
X300569Y521352D01*
X301352Y520569D01*
X302077Y519732D01*
X302740Y518846D01*
X303339Y517914D01*
X303869Y516943D01*
X304329Y515935D01*
X304716Y514898D01*
X305028Y513836D01*
X305263Y512754D01*
X305421Y511658D01*
X305500Y510554D01*
X305500Y509446D01*
X295500Y1229446D02*
X295421Y1228342D01*
X295263Y1227246D01*
X295028Y1226164D01*
X294716Y1225102D01*
X294329Y1224065D01*
X293869Y1223058D01*
X293339Y1222086D01*
X292740Y1221154D01*
X292077Y1220268D01*
X291352Y1219431D01*
X290569Y1218648D01*
X289732Y1217923D01*
X288846Y1217260D01*
X287914Y1216661D01*
X286943Y1216131D01*
X285935Y1215671D01*
X284898Y1215284D01*
X283836Y1214972D01*
X282754Y1214737D01*
X281658Y1214579D01*
X280554Y1214500D01*
X279446Y1214500D01*
X278342Y1214579D01*
X277246Y1214737D01*
X276164Y1214972D01*
X275102Y1215284D01*
X274065Y1215671D01*
X273058Y1216131D01*
X272086Y1216661D01*
X271154Y1217260D01*
X270268Y1217923D01*
X269431Y1218648D01*
X268648Y1219431D01*
X267923Y1220268D01*
X267260Y1221154D01*
X266661Y1222086D01*
X266131Y1223058D01*
X265671Y1224065D01*
X265284Y1225102D01*
X264972Y1226164D01*
X264737Y1227246D01*
X264579Y1228342D01*
X264500Y1229446D01*
X264500Y1230554D01*
X264579Y1231658D01*
X264737Y1232754D01*
X264972Y1233836D01*
X265284Y1234898D01*
X265671Y1235935D01*
X266131Y1236943D01*
X266661Y1237914D01*
X267260Y1238846D01*
X267923Y1239732D01*
X268648Y1240569D01*
X269431Y1241352D01*
X270268Y1242077D01*
X271154Y1242740D01*
X272086Y1243339D01*
X273058Y1243869D01*
X274065Y1244329D01*
X275102Y1244716D01*
X276164Y1245028D01*
X277246Y1245263D01*
X278342Y1245421D01*
X279446Y1245500D01*
X280554Y1245500D01*
X281658Y1245421D01*
X282754Y1245263D01*
X283836Y1245028D01*
X284898Y1244716D01*
X285935Y1244329D01*
X286943Y1243869D01*
X287914Y1243339D01*
X288846Y1242740D01*
X289732Y1242077D01*
X290569Y1241352D01*
X291352Y1240569D01*
X292077Y1239732D01*
X292740Y1238846D01*
X293339Y1237914D01*
X293869Y1236943D01*
X294329Y1235935D01*
X294716Y1234898D01*
X295028Y1233836D01*
X295263Y1232754D01*
X295421Y1231658D01*
X295500Y1230554D01*
X295500Y1229446D01*
X1315500Y1229446D02*
X1315421Y1228342D01*
X1315263Y1227246D01*
X1315028Y1226164D01*
X1314716Y1225102D01*
X1314329Y1224065D01*
X1313869Y1223058D01*
X1313339Y1222086D01*
X1312740Y1221154D01*
X1312077Y1220268D01*
X1311352Y1219431D01*
X1310569Y1218648D01*
X1309732Y1217923D01*
X1308846Y1217260D01*
X1307914Y1216661D01*
X1306943Y1216131D01*
X1305935Y1215671D01*
X1304898Y1215284D01*
X1303836Y1214972D01*
X1302754Y1214737D01*
X1301658Y1214579D01*
X1300554Y1214500D01*
X1299446Y1214500D01*
X1298342Y1214579D01*
X1297246Y1214737D01*
X1296164Y1214972D01*
X1295102Y1215284D01*
X1294065Y1215671D01*
X1293058Y1216131D01*
X1292086Y1216661D01*
X1291154Y1217260D01*
X1290268Y1217923D01*
X1289431Y1218648D01*
X1288648Y1219431D01*
X1287923Y1220268D01*
X1287260Y1221154D01*
X1286661Y1222086D01*
X1286131Y1223058D01*
X1285671Y1224065D01*
X1285284Y1225102D01*
X1284972Y1226164D01*
X1284737Y1227246D01*
X1284579Y1228342D01*
X1284500Y1229446D01*
X1284500Y1230554D01*
X1284579Y1231658D01*
X1284737Y1232754D01*
X1284972Y1233836D01*
X1285284Y1234898D01*
X1285671Y1235935D01*
X1286131Y1236943D01*
X1286661Y1237914D01*
X1287260Y1238846D01*
X1287923Y1239732D01*
X1288648Y1240569D01*
X1289431Y1241352D01*
X1290268Y1242077D01*
X1291154Y1242740D01*
X1292086Y1243339D01*
X1293058Y1243869D01*
X1294065Y1244329D01*
X1295102Y1244716D01*
X1296164Y1245028D01*
X1297246Y1245263D01*
X1298342Y1245421D01*
X1299446Y1245500D01*
X1300554Y1245500D01*
X1301658Y1245421D01*
X1302754Y1245263D01*
X1303836Y1245028D01*
X1304898Y1244716D01*
X1305935Y1244329D01*
X1306943Y1243869D01*
X1307914Y1243339D01*
X1308846Y1242740D01*
X1309732Y1242077D01*
X1310569Y1241352D01*
X1311352Y1240569D01*
X1312077Y1239732D01*
X1312740Y1238846D01*
X1313339Y1237914D01*
X1313869Y1236943D01*
X1314329Y1235935D01*
X1314716Y1234898D01*
X1315028Y1233836D01*
X1315263Y1232754D01*
X1315421Y1231658D01*
X1315500Y1230554D01*
X1315500Y1229446D01*
X1305500Y509446D02*
X1305421Y508342D01*
X1305263Y507246D01*
X1305028Y506164D01*
X1304716Y505102D01*
X1304329Y504065D01*
X1303869Y503058D01*
X1303339Y502086D01*
X1302740Y501154D01*
X1302077Y500268D01*
X1301352Y499431D01*
X1300569Y498648D01*
X1299732Y497923D01*
X1298846Y497260D01*
X1297914Y496661D01*
X1296943Y496131D01*
X1295935Y495671D01*
X1294898Y495284D01*
X1293836Y494972D01*
X1292754Y494737D01*
X1291658Y494579D01*
X1290554Y494500D01*
X1289446Y494500D01*
X1288342Y494579D01*
X1287246Y494737D01*
X1286164Y494972D01*
X1285102Y495284D01*
X1284065Y495671D01*
X1283058Y496131D01*
X1282086Y496661D01*
X1281154Y497260D01*
X1280268Y497923D01*
X1279431Y498648D01*
X1278648Y499431D01*
X1277923Y500268D01*
X1277260Y501154D01*
X1276661Y502086D01*
X1276131Y503058D01*
X1275671Y504065D01*
X1275284Y505102D01*
X1274972Y506164D01*
X1274737Y507246D01*
X1274579Y508342D01*
X1274500Y509446D01*
X1274500Y510554D01*
X1274579Y511658D01*
X1274737Y512754D01*
X1274972Y513836D01*
X1275284Y514898D01*
X1275671Y515935D01*
X1276131Y516943D01*
X1276661Y517914D01*
X1277260Y518846D01*
X1277923Y519732D01*
X1278648Y520569D01*
X1279431Y521352D01*
X1280268Y522077D01*
X1281154Y522740D01*
X1282086Y523339D01*
X1283058Y523869D01*
X1284065Y524329D01*
X1285102Y524716D01*
X1286164Y525028D01*
X1287246Y525263D01*
X1288342Y525421D01*
X1289446Y525500D01*
X1290554Y525500D01*
X1291658Y525421D01*
X1292754Y525263D01*
X1293836Y525028D01*
X1294898Y524716D01*
X1295935Y524329D01*
X1296943Y523869D01*
X1297914Y523339D01*
X1298846Y522740D01*
X1299732Y522077D01*
X1300569Y521352D01*
X1301352Y520569D01*
X1302077Y519732D01*
X1302740Y518846D01*
X1303339Y517914D01*
X1303869Y516943D01*
X1304329Y515935D01*
X1304716Y514898D01*
X1305028Y513836D01*
X1305263Y512754D01*
X1305421Y511658D01*
X1305500Y510554D01*
X1305500Y509446D01*
M02*
