G04 EAGLE Gerber RS-274X export*
G75*
%MOMM*%
%FSLAX34Y34*%
%LPD*%
%INSoldermask Top*%
%IPPOS*%
%AMOC8*
5,1,8,0,0,1.08239X$1,22.5*%
G01*
%ADD10C,3.303200*%
%ADD11C,2.153200*%
%ADD12C,1.727200*%
%ADD13R,2.082800X2.082800*%
%ADD14C,2.082800*%
%ADD15C,2.303200*%
%ADD16R,1.473200X0.838200*%


D10*
X290000Y510000D03*
X280000Y1230000D03*
X1300000Y1230000D03*
X1290000Y510000D03*
D11*
X314200Y1109307D02*
X294700Y1109307D01*
X294700Y1059307D02*
X314200Y1059307D01*
D12*
X333240Y856372D02*
X348480Y856372D01*
X348480Y830972D02*
X333240Y830972D01*
X333240Y805572D02*
X348480Y805572D01*
X348480Y780172D02*
X333240Y780172D01*
X287620Y835700D02*
X272380Y835700D01*
X272380Y861100D02*
X287620Y861100D01*
D13*
X474600Y962700D03*
D14*
X474600Y937300D03*
X500000Y962700D03*
X500000Y937300D03*
X525400Y962700D03*
X525400Y937300D03*
D13*
X474600Y832700D03*
D14*
X474600Y807300D03*
X500000Y832700D03*
X500000Y807300D03*
X525400Y832700D03*
X525400Y807300D03*
D13*
X649600Y962700D03*
D14*
X649600Y937300D03*
X675000Y962700D03*
X675000Y937300D03*
X700400Y962700D03*
X700400Y937300D03*
D13*
X649600Y832700D03*
D14*
X649600Y807300D03*
X675000Y832700D03*
X675000Y807300D03*
X700400Y832700D03*
X700400Y807300D03*
D13*
X999600Y962700D03*
D14*
X999600Y937300D03*
X1025000Y962700D03*
X1025000Y937300D03*
X1050400Y962700D03*
X1050400Y937300D03*
D13*
X999600Y832700D03*
D14*
X999600Y807300D03*
X1025000Y832700D03*
X1025000Y807300D03*
X1050400Y832700D03*
X1050400Y807300D03*
D13*
X1174600Y962700D03*
D14*
X1174600Y937300D03*
X1200000Y962700D03*
X1200000Y937300D03*
X1225400Y962700D03*
X1225400Y937300D03*
D13*
X1174600Y832700D03*
D14*
X1174600Y807300D03*
X1200000Y832700D03*
X1200000Y807300D03*
X1225400Y832700D03*
X1225400Y807300D03*
D13*
X824600Y962700D03*
D14*
X824600Y937300D03*
X850000Y962700D03*
X850000Y937300D03*
X875400Y962700D03*
X875400Y937300D03*
D13*
X824600Y832700D03*
D14*
X824600Y807300D03*
X850000Y832700D03*
X850000Y807300D03*
X875400Y832700D03*
X875400Y807300D03*
D12*
X287620Y934352D02*
X272380Y934352D01*
X272380Y908952D02*
X287620Y908952D01*
D13*
X474600Y1037300D03*
D14*
X474600Y1062700D03*
X500000Y1037300D03*
X500000Y1062700D03*
X525400Y1037300D03*
X525400Y1062700D03*
D13*
X474600Y697300D03*
D14*
X474600Y722700D03*
X500000Y697300D03*
X500000Y722700D03*
X525400Y697300D03*
X525400Y722700D03*
D13*
X649600Y1037300D03*
D14*
X649600Y1062700D03*
X675000Y1037300D03*
X675000Y1062700D03*
X700400Y1037300D03*
X700400Y1062700D03*
D13*
X649600Y697300D03*
D14*
X649600Y722700D03*
X675000Y697300D03*
X675000Y722700D03*
X700400Y697300D03*
X700400Y722700D03*
D13*
X999600Y1037300D03*
D14*
X999600Y1062700D03*
X1025000Y1037300D03*
X1025000Y1062700D03*
X1050400Y1037300D03*
X1050400Y1062700D03*
D13*
X999600Y697300D03*
D14*
X999600Y722700D03*
X1025000Y697300D03*
X1025000Y722700D03*
X1050400Y697300D03*
X1050400Y722700D03*
D13*
X1174600Y1037300D03*
D14*
X1174600Y1062700D03*
X1200000Y1037300D03*
X1200000Y1062700D03*
X1225400Y1037300D03*
X1225400Y1062700D03*
D13*
X1174600Y697300D03*
D14*
X1174600Y722700D03*
X1200000Y697300D03*
X1200000Y722700D03*
X1225400Y697300D03*
X1225400Y722700D03*
D13*
X824600Y1037300D03*
D14*
X824600Y1062700D03*
X850000Y1037300D03*
X850000Y1062700D03*
X875400Y1037300D03*
X875400Y1062700D03*
D13*
X824600Y697300D03*
D14*
X824600Y722700D03*
X850000Y697300D03*
X850000Y722700D03*
X875400Y697300D03*
X875400Y722700D03*
D12*
X347620Y911900D02*
X332380Y911900D01*
X332380Y937300D02*
X347620Y937300D01*
X347620Y962700D02*
X332380Y962700D01*
X332380Y988100D02*
X347620Y988100D01*
D15*
X500000Y584180D02*
X500000Y563180D01*
X550000Y563180D02*
X550000Y584180D01*
X600000Y584180D02*
X600000Y563180D01*
X650000Y563180D02*
X650000Y584180D01*
X700000Y584180D02*
X700000Y563180D01*
X750000Y563180D02*
X750000Y584180D01*
X800000Y584180D02*
X800000Y563180D01*
X850000Y563180D02*
X850000Y584180D01*
X900000Y584180D02*
X900000Y563180D01*
X950000Y563180D02*
X950000Y584180D01*
X1000000Y584180D02*
X1000000Y563180D01*
X1050000Y563180D02*
X1050000Y584180D01*
X1100000Y584180D02*
X1100000Y563180D01*
X1150000Y563180D02*
X1150000Y584180D01*
X1200000Y584180D02*
X1200000Y563180D01*
X1200000Y1139500D02*
X1200000Y1160500D01*
X1150000Y1160500D02*
X1150000Y1139500D01*
X1100000Y1139500D02*
X1100000Y1160500D01*
X1050000Y1160500D02*
X1050000Y1139500D01*
X1000000Y1139500D02*
X1000000Y1160500D01*
X950000Y1160500D02*
X950000Y1139500D01*
X900000Y1139500D02*
X900000Y1160500D01*
X850000Y1160500D02*
X850000Y1139500D01*
X800000Y1139500D02*
X800000Y1160500D01*
X750000Y1160500D02*
X750000Y1139500D01*
X700000Y1139500D02*
X700000Y1160500D01*
X650000Y1160500D02*
X650000Y1139500D01*
X600000Y1139500D02*
X600000Y1160500D01*
X550000Y1160500D02*
X550000Y1139500D01*
X500000Y1139500D02*
X500000Y1160500D01*
D16*
X440000Y809840D03*
X440000Y820000D03*
X440000Y830160D03*
X610000Y809840D03*
X610000Y820000D03*
X610000Y830160D03*
X960000Y809840D03*
X960000Y820000D03*
X960000Y830160D03*
X1140000Y809840D03*
X1140000Y820000D03*
X1140000Y830160D03*
X780000Y809840D03*
X780000Y820000D03*
X780000Y830160D03*
X790000Y939840D03*
X790000Y950000D03*
X790000Y960160D03*
X1140000Y939840D03*
X1140000Y950000D03*
X1140000Y960160D03*
X960000Y939840D03*
X960000Y950000D03*
X960000Y960160D03*
X610000Y939840D03*
X610000Y950000D03*
X610000Y960160D03*
X440000Y939840D03*
X440000Y950000D03*
X440000Y960160D03*
D12*
X297620Y698100D02*
X282380Y698100D01*
X282380Y672700D02*
X297620Y672700D01*
X297620Y647300D02*
X282380Y647300D01*
X282380Y621900D02*
X297620Y621900D01*
X332380Y698100D02*
X347620Y698100D01*
X347620Y672700D02*
X332380Y672700D01*
X332380Y647300D02*
X347620Y647300D01*
X347620Y621900D02*
X332380Y621900D01*
X387300Y1202380D02*
X387300Y1217620D01*
X412700Y1217620D02*
X412700Y1202380D01*
D15*
X1299500Y780000D02*
X1320500Y780000D01*
X1320500Y830000D02*
X1299500Y830000D01*
X1299500Y880000D02*
X1320500Y880000D01*
X1320500Y930000D02*
X1299500Y930000D01*
X1299500Y980000D02*
X1320500Y980000D01*
M02*
