M48
;GenerationSoftware,Autodesk,EAGLE,9.5.2*%
;CreationDate,2020-03-07T17:18:46Z*%
FMAT,2
ICI,OFF
METRIC,TZ,000.000
T5C1.016
T4C1.100
T3C1.300
T2C1.400
T1C3.100
%
G90
M71
T1
X29000Y51000
X28000Y123000
X130000Y123000
X129000Y51000
T2
X131000Y93000
X131000Y98000
X85000Y57368
X80000Y57368
X75000Y57368
X70000Y57368
X65000Y57368
X60000Y57368
X55000Y57368
X85000Y115000
X50000Y57368
X90000Y57368
X95000Y57368
X100000Y57368
X105000Y57368
X110000Y57368
X115000Y57368
X120000Y57368
X120000Y115000
X115000Y115000
X110000Y115000
X105000Y115000
X100000Y115000
X95000Y115000
X90000Y115000
X80000Y115000
X75000Y115000
X70000Y115000
X65000Y115000
X60000Y115000
X55000Y115000
X50000Y115000
X131000Y78000
X131000Y83000
X131000Y88000
T3
X30445Y110931
X30445Y105931
T4
X102500Y93730
X105040Y96270
X105040Y93730
X99960Y83270
X99960Y80730
X102500Y83270
X102500Y80730
X105040Y83270
X105040Y80730
X117460Y96270
X117460Y93730
X120000Y96270
X120000Y93730
X122540Y96270
X122540Y93730
X117460Y83270
X117460Y80730
X120000Y83270
X120000Y80730
X122540Y83270
X122540Y80730
X82460Y96270
X82460Y93730
X85000Y96270
X85000Y93730
X87540Y96270
X87540Y93730
X82460Y83270
X82460Y80730
X85000Y83270
X85000Y80730
X87540Y83270
X87540Y80730
X47460Y103730
X47460Y106270
X50000Y103730
X50000Y106270
X52540Y103730
X52540Y106270
X47460Y69730
X47460Y72270
X50000Y69730
X50000Y72270
X52540Y69730
X52540Y72270
X64960Y103730
X64960Y106270
X67500Y103730
X67500Y106270
X70040Y103730
X52540Y83270
X64960Y69730
X64960Y72270
X67500Y69730
X67500Y72270
X70040Y69730
X70040Y72270
X99960Y103730
X99960Y106270
X102500Y103730
X102500Y106270
X105040Y103730
X105040Y106270
X99960Y69730
X99960Y72270
X102500Y69730
X102500Y72270
X105040Y69730
X105040Y72270
X117460Y103730
X117460Y106270
X120000Y103730
X120000Y106270
X122540Y103730
X122540Y106270
X117460Y69730
X117460Y72270
X120000Y69730
X120000Y72270
X122540Y69730
X122540Y72270
X82460Y103730
X82460Y106270
X85000Y103730
X85000Y106270
X87540Y103730
X87540Y106270
X82460Y69730
X82460Y72270
X85000Y69730
X85000Y72270
X87540Y69730
X87540Y72270
X47460Y96270
X47460Y93730
X50000Y96270
X50000Y93730
X52540Y96270
X52540Y93730
X47460Y83270
X47460Y80730
X50000Y83270
X50000Y80730
X52540Y80730
X64960Y96270
X64960Y93730
X67500Y96270
X70040Y106270
X67500Y93730
X70040Y96270
X70040Y93730
X64960Y83270
X64960Y80730
X67500Y83270
X67500Y80730
X70040Y83270
X70040Y80730
X99960Y96270
X99960Y93730
X102500Y96270
T5
X34000Y98810
X28000Y90895
X28000Y93435
X28000Y86110
X28000Y83570
X34086Y78017
X34086Y80557
X29000Y69810
X29000Y67270
X29000Y64730
X29000Y62190
X34000Y69810
X34000Y67270
X34000Y64730
X34000Y62190
X38730Y121000
X41270Y121000
X34086Y83097
X34086Y85637
X34000Y91190
X34000Y93730
X34000Y96270
M30