G75*
%MOIN*%
%OFA0B0*%
%FSLAX25Y25*%
%IPPOS*%
%LPD*%
%AMOC8*
5,1,8,0,0,1.08239X$1,22.5*
%
%ADD10C,0.01700*%
%ADD11C,0.19685*%
%ADD12C,0.15000*%
%ADD13R,0.02165X0.04724*%
%ADD14R,0.04331X0.03937*%
%ADD15R,0.03937X0.04331*%
%ADD16R,0.04134X0.04252*%
%ADD17R,0.04252X0.04134*%
%ADD18R,0.03150X0.01378*%
%ADD19C,0.09843*%
%ADD20R,0.04724X0.02165*%
%ADD21R,0.07400X0.07400*%
%ADD22C,0.07400*%
%ADD23C,0.03937*%
%ADD24C,0.06000*%
%ADD25C,0.17717*%
%ADD26C,0.11811*%
%ADD27R,0.03346X0.01181*%
%ADD28R,0.10236X0.11811*%
%ADD29C,0.14567*%
%ADD30R,0.04921X0.02362*%
%ADD31R,0.02362X0.04134*%
%ADD32C,0.05937*%
%ADD33R,0.03937X0.05512*%
%ADD34R,0.05512X0.02362*%
%ADD35R,0.03150X0.03150*%
%ADD36C,0.02400*%
%ADD37C,0.03200*%
%ADD38C,0.01600*%
%ADD39C,0.01200*%
%ADD40C,0.03200*%
%ADD41R,0.03962X0.03962*%
%ADD42C,0.01000*%
%ADD43C,0.04000*%
D10*
X0049825Y0161172D02*
X0049825Y0167351D01*
X0047765Y0167351D02*
X0051885Y0167351D01*
X0055016Y0166321D02*
X0055016Y0162201D01*
X0056046Y0161172D01*
X0058105Y0161172D01*
X0059135Y0162201D01*
X0059135Y0166321D01*
X0058105Y0167351D01*
X0056046Y0167351D01*
X0055016Y0166321D01*
X0062266Y0167351D02*
X0065356Y0167351D01*
X0066386Y0166321D01*
X0066386Y0164261D01*
X0065356Y0163231D01*
X0062266Y0163231D01*
X0062266Y0161172D02*
X0062266Y0167351D01*
D11*
X0200632Y0100837D03*
D12*
X0230632Y0090837D03*
X0230632Y0110837D03*
D13*
X0282085Y0128916D03*
X0289565Y0128916D03*
X0289565Y0138759D03*
X0285825Y0138759D03*
X0282085Y0138759D03*
D14*
X0273325Y0135684D03*
X0273325Y0128991D03*
X0244825Y0150991D03*
X0244825Y0157684D03*
X0073825Y0078684D03*
X0073825Y0071991D03*
X0052825Y0081991D03*
X0042825Y0081991D03*
X0042825Y0088684D03*
X0052825Y0088684D03*
X0056978Y0038337D03*
X0063671Y0038337D03*
X0072825Y0038184D03*
X0072825Y0031491D03*
X0162825Y0032184D03*
X0162825Y0025491D03*
X0174325Y0025491D03*
X0174325Y0032184D03*
X0174325Y0042491D03*
X0174325Y0049184D03*
X0162825Y0049184D03*
X0162825Y0042491D03*
D15*
X0160671Y0074337D03*
X0153978Y0074337D03*
X0120825Y0085991D03*
X0120825Y0092684D03*
X0109171Y0095837D03*
X0102478Y0095837D03*
X0102478Y0105337D03*
X0109171Y0105337D03*
X0105171Y0115837D03*
X0098478Y0115837D03*
X0054171Y0111837D03*
X0047478Y0111837D03*
X0082978Y0078337D03*
X0089671Y0078337D03*
X0051171Y0065837D03*
X0044478Y0065837D03*
X0037171Y0065837D03*
X0030478Y0065837D03*
X0060978Y0049837D03*
X0067671Y0049837D03*
X0086978Y0052837D03*
X0093671Y0052837D03*
X0207478Y0119837D03*
X0214171Y0119837D03*
X0256978Y0143337D03*
X0263671Y0143337D03*
X0282478Y0159337D03*
X0289171Y0159337D03*
X0235671Y0156837D03*
X0228978Y0156837D03*
X0214171Y0150837D03*
X0207478Y0150837D03*
X0282978Y0118337D03*
X0289671Y0118337D03*
D16*
X0289770Y0108337D03*
X0282880Y0108337D03*
X0282380Y0149337D03*
X0289270Y0149337D03*
X0167270Y0087337D03*
X0160380Y0087337D03*
X0132270Y0062337D03*
X0125380Y0062337D03*
X0094270Y0043837D03*
X0087380Y0043837D03*
X0182380Y0037337D03*
X0189270Y0037337D03*
X0205380Y0067837D03*
X0212270Y0067837D03*
D17*
X0153226Y0062282D03*
X0153226Y0055392D03*
X0094325Y0034282D03*
X0094325Y0027392D03*
X0082825Y0060892D03*
X0082825Y0067782D03*
X0273825Y0098892D03*
X0273825Y0105782D03*
X0273325Y0114892D03*
X0273325Y0121782D03*
D18*
X0262171Y0153278D03*
X0255478Y0153278D03*
X0255478Y0155837D03*
X0255478Y0158396D03*
X0262171Y0158396D03*
D19*
X0087412Y0107924D03*
X0073238Y0107924D03*
X0073238Y0093751D03*
X0087412Y0093751D03*
D20*
X0102404Y0085577D03*
X0102404Y0081837D03*
X0102404Y0078097D03*
X0112246Y0078097D03*
X0112246Y0085577D03*
D21*
X0115297Y0043837D03*
D22*
X0125297Y0043837D03*
X0135297Y0043837D03*
X0135297Y0033837D03*
X0125297Y0033837D03*
X0115297Y0033837D03*
D23*
X0048195Y0034022D03*
X0028510Y0152133D03*
X0284415Y0034022D03*
D24*
X0174825Y0146337D02*
X0174825Y0152337D01*
X0164825Y0152337D02*
X0164825Y0146337D01*
D25*
X0174325Y0127337D03*
X0200825Y0100837D03*
X0230575Y0090837D03*
X0230575Y0110837D03*
X0174325Y0074337D03*
D26*
X0087325Y0093837D03*
X0073325Y0093837D03*
X0073325Y0107837D03*
X0087325Y0107837D03*
D27*
X0164148Y0106743D03*
X0164148Y0104774D03*
X0164148Y0102806D03*
X0164148Y0100837D03*
X0164148Y0098869D03*
X0164148Y0096900D03*
X0164148Y0094932D03*
X0179502Y0094932D03*
X0179502Y0096900D03*
X0179502Y0098869D03*
X0179502Y0100837D03*
X0179502Y0102806D03*
X0179502Y0104774D03*
X0179502Y0106743D03*
D28*
X0171825Y0100837D03*
D29*
X0200900Y0100837D03*
X0174325Y0127412D03*
X0174325Y0074263D03*
D30*
X0204691Y0055837D03*
X0212959Y0052097D03*
X0212959Y0059577D03*
D31*
X0201065Y0143007D03*
X0193585Y0143007D03*
X0197325Y0151668D03*
D32*
X0215644Y0103806D02*
X0215644Y0097869D01*
X0018006Y0089042D02*
X0018006Y0083105D01*
X0018006Y0112633D02*
X0018006Y0118570D01*
D33*
X0064825Y0068668D03*
X0068565Y0060007D03*
X0061085Y0060007D03*
D34*
X0036746Y0057577D03*
X0036746Y0053837D03*
X0036746Y0050097D03*
X0026904Y0050097D03*
X0026904Y0057577D03*
D35*
X0273325Y0152385D03*
X0273325Y0158290D03*
D36*
X0273325Y0128991D02*
X0273325Y0121782D01*
X0273325Y0114892D02*
X0273825Y0114392D01*
X0273825Y0105782D01*
X0257270Y0122337D01*
X0239825Y0122337D01*
X0247825Y0110837D02*
X0230632Y0110837D01*
X0247825Y0110837D02*
X0259825Y0098837D01*
X0273770Y0098837D01*
X0273825Y0098892D01*
X0285380Y0098892D01*
X0289325Y0102837D01*
X0289325Y0107892D01*
X0289770Y0108337D01*
X0289671Y0108436D01*
X0289671Y0118337D01*
X0282880Y0108337D02*
X0280325Y0105782D01*
X0273825Y0105782D01*
X0230575Y0090837D02*
X0221325Y0081587D01*
X0221325Y0077861D01*
X0221423Y0077763D01*
X0221325Y0077837D02*
X0221325Y0077861D01*
X0132309Y0077054D02*
X0132309Y0071562D01*
X0132325Y0071562D02*
X0132325Y0090837D01*
X0117825Y0105337D01*
X0109171Y0105337D01*
X0105171Y0115837D02*
X0105171Y0119491D01*
X0101825Y0122837D01*
X0096325Y0122837D01*
X0050325Y0122837D01*
X0047825Y0120337D01*
X0047825Y0112184D01*
X0047478Y0111837D01*
X0030478Y0094837D01*
X0030478Y0065837D01*
X0030325Y0065991D01*
X0030325Y0072337D01*
X0022325Y0072337D01*
X0018325Y0068337D01*
X0018325Y0039837D01*
X0026904Y0039837D01*
X0036746Y0053837D02*
X0051325Y0053837D01*
X0051325Y0045337D01*
X0052825Y0043837D01*
X0061325Y0043837D01*
X0063671Y0041491D01*
X0063671Y0038337D01*
X0051325Y0053837D02*
X0051325Y0065684D01*
X0051171Y0065837D01*
X0051325Y0065991D01*
X0051325Y0069337D01*
X0042825Y0077837D01*
X0042825Y0081991D01*
X0042825Y0088684D02*
X0042825Y0096337D01*
X0048825Y0102337D01*
X0057825Y0102337D01*
X0061075Y0105587D01*
X0060421Y0105587D01*
X0054171Y0111837D01*
X0061075Y0105587D02*
X0063412Y0107924D01*
X0073238Y0107924D01*
X0132325Y0071562D02*
X0132325Y0062392D01*
X0132270Y0062337D01*
D37*
X0138156Y0060755D03*
X0140325Y0068837D03*
X0132325Y0071562D03*
X0132309Y0071562D03*
X0132309Y0077054D03*
X0137325Y0076337D03*
X0148325Y0081337D03*
X0153825Y0083337D03*
X0171825Y0096837D03*
X0168825Y0100837D03*
X0171825Y0104837D03*
X0175325Y0100837D03*
X0183325Y0108837D03*
X0187825Y0113912D03*
X0158325Y0105837D03*
X0149825Y0098337D03*
X0133825Y0096337D03*
X0127825Y0084837D03*
X0119325Y0077837D03*
X0118667Y0071562D03*
X0108309Y0065853D03*
X0118667Y0064652D03*
X0106325Y0052837D03*
X0101825Y0038337D03*
X0081825Y0044337D03*
X0058825Y0032837D03*
X0036325Y0040337D03*
X0046325Y0049337D03*
X0055825Y0054337D03*
X0024325Y0064837D03*
X0062825Y0083837D03*
X0095325Y0084837D03*
X0127325Y0115837D03*
X0117325Y0145337D03*
X0148325Y0146337D03*
X0106325Y0166337D03*
X0073825Y0166837D03*
X0039825Y0166337D03*
X0055825Y0145337D03*
X0016825Y0143337D03*
X0161325Y0058337D03*
X0146482Y0034180D03*
X0146482Y0029219D03*
X0146305Y0024967D03*
X0156825Y0031837D03*
X0180825Y0025837D03*
X0208825Y0034337D03*
X0235325Y0021337D03*
X0238325Y0045837D03*
X0221325Y0051837D03*
X0238825Y0059337D03*
X0221325Y0077837D03*
X0239825Y0122337D03*
X0258825Y0132837D03*
X0249325Y0145337D03*
X0251825Y0149837D03*
X0230825Y0143337D03*
X0207325Y0142837D03*
X0262325Y0163337D03*
X0296325Y0165837D03*
X0297325Y0133337D03*
X0297325Y0101837D03*
X0297325Y0056337D03*
D38*
X0230632Y0090837D02*
X0230575Y0090837D01*
X0215644Y0100837D02*
X0200900Y0100837D01*
X0200825Y0100837D01*
X0200632Y0100837D01*
X0200900Y0100837D02*
X0207478Y0107416D01*
X0207478Y0119837D01*
X0183325Y0108837D02*
X0178325Y0113837D01*
X0166825Y0113837D01*
X0157825Y0122837D01*
X0157825Y0133837D01*
X0164825Y0140837D01*
X0164825Y0149337D01*
X0174825Y0149337D02*
X0174825Y0127837D01*
X0174325Y0127337D01*
X0150825Y0161337D02*
X0133825Y0144337D01*
X0133825Y0096337D01*
X0120825Y0092684D02*
X0115171Y0092684D01*
X0112825Y0090337D01*
X0104825Y0090337D01*
X0101325Y0093837D01*
X0100478Y0093837D01*
X0102478Y0095837D01*
X0100478Y0093837D02*
X0087325Y0093837D01*
X0087412Y0093751D01*
X0073825Y0093164D02*
X0073238Y0093751D01*
X0073325Y0093837D01*
X0073825Y0093164D02*
X0073825Y0078684D01*
X0074171Y0078337D01*
X0082978Y0078337D01*
X0082978Y0067936D01*
X0106226Y0067936D01*
X0108309Y0065853D01*
X0125380Y0062337D02*
X0125380Y0081436D01*
X0120825Y0085991D01*
X0112660Y0085991D01*
X0112246Y0085577D01*
X0102404Y0081837D02*
X0098325Y0081837D01*
X0095325Y0084837D01*
X0089671Y0078337D02*
X0089912Y0078097D01*
X0102404Y0078097D01*
X0082978Y0067936D02*
X0082825Y0067782D01*
X0073825Y0071991D02*
X0070502Y0068668D01*
X0064825Y0068668D01*
X0064656Y0068837D01*
X0060325Y0068837D01*
X0052825Y0076337D01*
X0052825Y0081991D01*
X0044478Y0065837D02*
X0037171Y0065837D01*
X0037171Y0058003D01*
X0036746Y0057577D01*
X0036986Y0050337D02*
X0045325Y0050337D01*
X0046325Y0049337D01*
X0036986Y0050337D02*
X0036746Y0050097D01*
X0026904Y0057577D02*
X0024325Y0060156D01*
X0024325Y0064837D01*
X0055825Y0054337D02*
X0061085Y0054337D01*
X0061085Y0049944D01*
X0060978Y0049837D01*
X0061085Y0054337D02*
X0061085Y0060007D01*
X0068565Y0060007D02*
X0068565Y0050731D01*
X0067671Y0049837D01*
X0081825Y0044337D02*
X0082325Y0043837D01*
X0087380Y0043837D01*
X0087380Y0044239D01*
X0086978Y0052837D01*
X0093671Y0052837D02*
X0106325Y0052837D01*
X0082825Y0060892D02*
X0069451Y0060892D01*
X0068565Y0060007D01*
X0018006Y0086074D02*
X0018006Y0115601D01*
X0073238Y0107924D02*
X0073325Y0107837D01*
X0087325Y0107837D02*
X0087412Y0107924D01*
X0087325Y0107837D02*
X0097325Y0107837D01*
X0098478Y0108991D01*
X0098478Y0115837D01*
X0096325Y0122837D02*
X0096325Y0148837D01*
X0114325Y0166837D01*
X0285825Y0166837D01*
X0289325Y0163337D01*
X0289325Y0159337D01*
X0289171Y0159337D02*
X0289171Y0149436D01*
X0289270Y0149337D01*
X0289270Y0139054D01*
X0289565Y0138759D01*
X0285825Y0138759D02*
X0285825Y0142337D01*
X0283325Y0144837D01*
X0283325Y0148392D01*
X0277317Y0148392D01*
X0277099Y0148611D01*
X0277099Y0148111D01*
X0273825Y0144837D01*
X0273825Y0136184D01*
X0273325Y0135684D01*
X0272978Y0135337D01*
X0269325Y0135337D01*
X0265325Y0131337D01*
X0265325Y0120337D01*
X0270770Y0114892D01*
X0273325Y0114892D01*
X0278325Y0121837D02*
X0281825Y0118337D01*
X0282978Y0118337D01*
X0278325Y0121837D02*
X0273380Y0121837D01*
X0273325Y0121782D01*
X0273325Y0128991D02*
X0282010Y0128991D01*
X0282085Y0128916D01*
X0289565Y0128916D02*
X0289565Y0118444D01*
X0289671Y0118337D01*
X0283325Y0148392D02*
X0282380Y0149337D01*
X0277099Y0148611D02*
X0273325Y0152385D01*
X0273325Y0158290D02*
X0281431Y0158290D01*
X0282478Y0159337D01*
X0244825Y0150991D02*
X0242171Y0148337D01*
X0223825Y0148337D01*
X0221325Y0150837D01*
X0214171Y0150837D01*
X0213825Y0151184D01*
X0213825Y0157837D01*
X0210325Y0161337D01*
X0150825Y0161337D01*
X0230575Y0110837D02*
X0230632Y0110837D01*
X0174325Y0074337D02*
X0174250Y0074337D01*
X0174325Y0074263D01*
X0174250Y0074337D02*
X0160671Y0074337D01*
X0157325Y0062337D02*
X0153226Y0062282D01*
X0157325Y0062337D02*
X0161325Y0058337D01*
X0143471Y0060400D02*
X0136207Y0067664D01*
X0136207Y0075219D01*
X0137325Y0076337D01*
X0138156Y0060755D02*
X0138156Y0046696D01*
X0135297Y0043837D01*
X0143471Y0040203D02*
X0143471Y0060400D01*
X0143471Y0040203D02*
X0137104Y0033837D01*
X0135297Y0033837D01*
X0156825Y0031837D02*
X0157325Y0031337D01*
X0157325Y0028337D01*
X0160171Y0025491D01*
X0162825Y0025491D01*
X0174325Y0025491D02*
X0180478Y0025491D01*
X0180825Y0025837D01*
X0109171Y0095837D02*
X0109171Y0105337D01*
X0102478Y0105337D02*
X0099978Y0107837D01*
X0097325Y0107837D01*
D39*
X0105171Y0115837D02*
X0127325Y0115837D01*
X0137825Y0090837D02*
X0155825Y0108837D01*
X0162053Y0108837D01*
X0164148Y0106743D01*
X0159325Y0102837D02*
X0137325Y0080837D01*
X0137325Y0076337D01*
X0140325Y0080337D02*
X0140325Y0068837D01*
X0153825Y0074491D02*
X0153825Y0083337D01*
X0148325Y0084337D02*
X0148325Y0081337D01*
X0148325Y0084337D02*
X0155825Y0091837D01*
X0160325Y0087337D01*
X0160380Y0087337D01*
X0155825Y0091837D02*
X0160825Y0096837D01*
X0160825Y0100837D02*
X0140325Y0080337D01*
X0127825Y0084837D02*
X0125380Y0082392D01*
X0125380Y0081436D01*
X0119325Y0077837D02*
X0112506Y0077837D01*
X0112246Y0078097D01*
X0109565Y0078097D01*
X0107825Y0079837D01*
X0107825Y0083337D01*
X0105825Y0085337D01*
X0102644Y0085337D01*
X0102404Y0085577D01*
X0132325Y0090837D02*
X0137825Y0090837D01*
X0153825Y0074491D02*
X0153978Y0074337D01*
X0168325Y0058337D02*
X0162825Y0052837D01*
X0162825Y0049184D01*
X0174325Y0049184D02*
X0178478Y0053337D01*
X0194325Y0053337D01*
X0201825Y0045837D01*
X0238325Y0045837D01*
X0221325Y0051837D02*
X0213219Y0051837D01*
X0212959Y0052097D01*
X0187825Y0064337D02*
X0181825Y0058337D01*
X0168325Y0058337D01*
X0187825Y0064337D02*
X0187825Y0086609D01*
X0179502Y0094932D01*
X0187750Y0113912D02*
X0174325Y0127337D01*
X0193585Y0133731D02*
X0207478Y0119837D01*
X0214171Y0119837D02*
X0218825Y0119837D01*
X0233325Y0134337D01*
X0247978Y0134337D01*
X0256978Y0143337D01*
X0255478Y0144837D01*
X0255478Y0153278D01*
X0251825Y0155837D02*
X0251325Y0155337D01*
X0251325Y0150337D01*
X0251825Y0149837D01*
X0247325Y0147837D02*
X0249325Y0145337D01*
X0247325Y0147837D02*
X0244825Y0150991D01*
X0246478Y0156837D02*
X0235671Y0156837D01*
X0244538Y0158396D02*
X0244825Y0157684D01*
X0246478Y0156837D01*
X0244538Y0158396D02*
X0255478Y0158396D01*
X0255478Y0155837D02*
X0251825Y0155837D01*
X0262171Y0153278D02*
X0263671Y0151778D01*
X0263671Y0143337D01*
X0263671Y0137684D01*
X0258825Y0132837D01*
X0262171Y0158396D02*
X0262325Y0158550D01*
X0262325Y0163337D01*
X0207478Y0150837D02*
X0206648Y0151668D01*
X0197325Y0151668D01*
X0201065Y0143007D02*
X0207156Y0143007D01*
X0207325Y0142837D01*
X0193585Y0143007D02*
X0193585Y0133731D01*
X0187825Y0113912D02*
X0187750Y0113912D01*
D40*
X0174325Y0074337D02*
X0174325Y0074263D01*
X0125380Y0062337D02*
X0125297Y0062337D01*
X0125297Y0043837D01*
X0115301Y0043841D02*
X0115301Y0055085D01*
X0118667Y0058452D01*
X0118667Y0064652D01*
X0118667Y0071562D01*
X0125380Y0062337D02*
X0125325Y0062282D01*
X0115301Y0043841D02*
X0115297Y0043837D01*
X0101825Y0038337D02*
X0098380Y0038337D01*
X0094325Y0034282D01*
X0084380Y0034282D01*
X0080325Y0038337D01*
X0072978Y0038337D01*
X0072825Y0038184D01*
X0072671Y0038337D01*
X0063671Y0038337D01*
X0072825Y0022837D02*
X0041325Y0022837D01*
X0026904Y0037259D01*
X0026904Y0039837D01*
X0026904Y0050097D01*
X0094270Y0043837D02*
X0096325Y0043837D01*
X0101825Y0038337D01*
X0146305Y0034003D02*
X0146305Y0024967D01*
X0146482Y0029219D02*
X0146482Y0034180D01*
X0146305Y0034003D01*
X0146482Y0034180D02*
X0146482Y0035495D01*
X0148325Y0037337D01*
X0162825Y0037337D01*
X0173825Y0037337D01*
X0174325Y0037837D01*
X0174325Y0038337D01*
X0175325Y0037337D01*
X0182380Y0037337D01*
X0174325Y0036837D02*
X0173825Y0037337D01*
X0174325Y0036837D02*
X0174325Y0032184D01*
X0174325Y0038337D02*
X0174325Y0042491D01*
X0162825Y0042491D02*
X0162825Y0037337D01*
X0162825Y0032184D01*
D41*
X0221423Y0077763D03*
D42*
X0010325Y0015837D02*
X0010325Y0170318D01*
X0043758Y0170318D01*
X0043758Y0158238D01*
X0043722Y0158190D01*
X0043758Y0157965D01*
X0043758Y0157963D01*
X0043722Y0157851D01*
X0043758Y0157780D01*
X0043758Y0157738D01*
X0043801Y0157695D01*
X0043826Y0157538D01*
X0043826Y0157530D01*
X0043827Y0157528D01*
X0043828Y0157526D01*
X0043834Y0157521D01*
X0043948Y0157407D01*
X0044021Y0157263D01*
X0044024Y0157256D01*
X0044026Y0157255D01*
X0044027Y0157253D01*
X0044034Y0157250D01*
X0044178Y0157177D01*
X0044292Y0157063D01*
X0044297Y0157057D01*
X0044299Y0157056D01*
X0044301Y0157055D01*
X0044309Y0157055D01*
X0044466Y0157030D01*
X0044509Y0156987D01*
X0044551Y0156987D01*
X0044623Y0156951D01*
X0044734Y0156987D01*
X0044736Y0156987D01*
X0044961Y0156951D01*
X0045009Y0156987D01*
X0070759Y0156987D01*
X0071156Y0157384D01*
X0071156Y0170200D01*
X0071191Y0170249D01*
X0071180Y0170318D01*
X0302601Y0170318D01*
X0302601Y0015837D01*
X0010325Y0015837D01*
X0010325Y0016334D02*
X0302601Y0016334D01*
X0302601Y0017333D02*
X0010325Y0017333D01*
X0010325Y0018331D02*
X0302601Y0018331D01*
X0302601Y0019330D02*
X0296209Y0019330D01*
X0296707Y0019536D02*
X0298901Y0021730D01*
X0300089Y0024597D01*
X0300089Y0027700D01*
X0298901Y0030566D01*
X0296707Y0032760D01*
X0293841Y0033948D01*
X0290738Y0033948D01*
X0288852Y0033166D01*
X0288852Y0035211D01*
X0287664Y0037270D01*
X0287664Y0037270D01*
X0287664Y0037270D01*
X0285604Y0038459D01*
X0283801Y0038459D01*
X0283227Y0038459D01*
X0283227Y0038459D01*
X0281167Y0037270D01*
X0279978Y0035211D01*
X0279978Y0032833D01*
X0281167Y0030774D01*
X0281167Y0030774D01*
X0281167Y0030774D01*
X0283227Y0029585D01*
X0285271Y0029585D01*
X0284490Y0027700D01*
X0284490Y0024597D01*
X0285678Y0021730D01*
X0287872Y0019536D01*
X0290738Y0018349D01*
X0293841Y0018349D01*
X0296707Y0019536D01*
X0297499Y0020328D02*
X0302601Y0020328D01*
X0302601Y0021327D02*
X0298498Y0021327D01*
X0299148Y0022325D02*
X0302601Y0022325D01*
X0302601Y0023324D02*
X0299561Y0023324D01*
X0299975Y0024322D02*
X0302601Y0024322D01*
X0302601Y0025321D02*
X0300089Y0025321D01*
X0300089Y0026319D02*
X0302601Y0026319D01*
X0302601Y0027318D02*
X0300089Y0027318D01*
X0299833Y0028316D02*
X0302601Y0028316D01*
X0302601Y0029315D02*
X0299420Y0029315D01*
X0299006Y0030314D02*
X0302601Y0030314D01*
X0302601Y0031312D02*
X0298156Y0031312D01*
X0297157Y0032311D02*
X0302601Y0032311D01*
X0302601Y0033309D02*
X0295382Y0033309D01*
X0289197Y0033309D02*
X0288852Y0033309D01*
X0288852Y0034308D02*
X0302601Y0034308D01*
X0302601Y0035306D02*
X0288798Y0035306D01*
X0288221Y0036305D02*
X0302601Y0036305D01*
X0302601Y0037303D02*
X0287607Y0037303D01*
X0285878Y0038302D02*
X0302601Y0038302D01*
X0302601Y0039300D02*
X0192837Y0039300D01*
X0192837Y0039661D02*
X0192734Y0040042D01*
X0192537Y0040384D01*
X0192258Y0040664D01*
X0191916Y0040861D01*
X0191534Y0040963D01*
X0189770Y0040963D01*
X0189770Y0037837D01*
X0192837Y0037837D01*
X0192837Y0039661D01*
X0192586Y0040299D02*
X0302601Y0040299D01*
X0302601Y0041297D02*
X0177580Y0041297D01*
X0177580Y0040299D02*
X0179607Y0040299D01*
X0179862Y0040553D02*
X0179336Y0040027D01*
X0177537Y0040027D01*
X0177580Y0040071D01*
X0177580Y0044911D01*
X0176942Y0045549D01*
X0171708Y0045549D01*
X0171070Y0044911D01*
X0171070Y0040071D01*
X0171113Y0040027D01*
X0166037Y0040027D01*
X0166080Y0040071D01*
X0166080Y0044911D01*
X0165442Y0045549D01*
X0160208Y0045549D01*
X0159570Y0044911D01*
X0159570Y0040071D01*
X0159613Y0040027D01*
X0147790Y0040027D01*
X0146801Y0039618D01*
X0144959Y0037775D01*
X0144202Y0037019D01*
X0143792Y0036030D01*
X0143792Y0035264D01*
X0143582Y0034757D01*
X0143582Y0033603D01*
X0143615Y0033524D01*
X0143615Y0029875D01*
X0143582Y0029796D01*
X0143582Y0028642D01*
X0143615Y0028563D01*
X0143615Y0026051D01*
X0143405Y0025544D01*
X0143405Y0024390D01*
X0143847Y0023325D01*
X0144663Y0022509D01*
X0145728Y0022067D01*
X0146882Y0022067D01*
X0147948Y0022509D01*
X0148764Y0023325D01*
X0149205Y0024390D01*
X0149205Y0025544D01*
X0148995Y0026051D01*
X0148995Y0027708D01*
X0149382Y0028642D01*
X0149382Y0029796D01*
X0149172Y0030303D01*
X0149172Y0033096D01*
X0149382Y0033603D01*
X0149382Y0034591D01*
X0149439Y0034647D01*
X0156031Y0034647D01*
X0155182Y0034296D01*
X0154366Y0033480D01*
X0153925Y0032414D01*
X0153925Y0031260D01*
X0154366Y0030195D01*
X0155182Y0029379D01*
X0155435Y0029274D01*
X0155435Y0027554D01*
X0156542Y0026447D01*
X0159388Y0023601D01*
X0159570Y0023601D01*
X0159570Y0023071D01*
X0160208Y0022432D01*
X0165442Y0022432D01*
X0166080Y0023071D01*
X0166080Y0027911D01*
X0165442Y0028549D01*
X0160208Y0028549D01*
X0159997Y0028338D01*
X0159215Y0029120D01*
X0159215Y0030126D01*
X0159283Y0030195D01*
X0159570Y0030885D01*
X0159570Y0029764D01*
X0160208Y0029125D01*
X0165442Y0029125D01*
X0166080Y0029764D01*
X0166080Y0034604D01*
X0166037Y0034647D01*
X0171113Y0034647D01*
X0171070Y0034604D01*
X0171070Y0029764D01*
X0171708Y0029125D01*
X0176942Y0029125D01*
X0177580Y0029764D01*
X0177580Y0034604D01*
X0177537Y0034647D01*
X0179336Y0034647D01*
X0179862Y0034121D01*
X0184898Y0034121D01*
X0185537Y0034760D01*
X0185537Y0039915D01*
X0184898Y0040553D01*
X0179862Y0040553D01*
X0177580Y0042296D02*
X0302601Y0042296D01*
X0302601Y0043294D02*
X0239763Y0043294D01*
X0239968Y0043379D02*
X0240783Y0044195D01*
X0241225Y0045260D01*
X0241225Y0046414D01*
X0240783Y0047480D01*
X0239968Y0048296D01*
X0238902Y0048737D01*
X0237748Y0048737D01*
X0236682Y0048296D01*
X0235914Y0047527D01*
X0202525Y0047527D01*
X0195025Y0055027D01*
X0177778Y0055027D01*
X0176788Y0054037D01*
X0174993Y0052242D01*
X0171708Y0052242D01*
X0171070Y0051604D01*
X0171070Y0046764D01*
X0171708Y0046125D01*
X0176942Y0046125D01*
X0177580Y0046764D01*
X0177580Y0050049D01*
X0179178Y0051647D01*
X0193625Y0051647D01*
X0200135Y0045137D01*
X0201125Y0044147D01*
X0235914Y0044147D01*
X0236682Y0043379D01*
X0237748Y0042937D01*
X0238902Y0042937D01*
X0239968Y0043379D01*
X0240824Y0044293D02*
X0302601Y0044293D01*
X0302601Y0045291D02*
X0241225Y0045291D01*
X0241225Y0046290D02*
X0302601Y0046290D01*
X0302601Y0047288D02*
X0240863Y0047288D01*
X0239977Y0048287D02*
X0302601Y0048287D01*
X0302601Y0049285D02*
X0222742Y0049285D01*
X0222968Y0049379D02*
X0221902Y0048937D01*
X0220748Y0048937D01*
X0219682Y0049379D01*
X0218914Y0050147D01*
X0216192Y0050147D01*
X0215871Y0049826D01*
X0210047Y0049826D01*
X0209408Y0050465D01*
X0209408Y0053730D01*
X0210047Y0054368D01*
X0215871Y0054368D01*
X0216509Y0053730D01*
X0216509Y0053527D01*
X0218914Y0053527D01*
X0219682Y0054296D01*
X0220748Y0054737D01*
X0221902Y0054737D01*
X0222968Y0054296D01*
X0223783Y0053480D01*
X0224225Y0052414D01*
X0224225Y0051260D01*
X0223783Y0050195D01*
X0222968Y0049379D01*
X0223820Y0050284D02*
X0302601Y0050284D01*
X0302601Y0051282D02*
X0224225Y0051282D01*
X0224225Y0052281D02*
X0302601Y0052281D01*
X0302601Y0053279D02*
X0223867Y0053279D01*
X0222986Y0054278D02*
X0302601Y0054278D01*
X0302601Y0055276D02*
X0208652Y0055276D01*
X0208652Y0055747D02*
X0204782Y0055747D01*
X0204782Y0055928D01*
X0208652Y0055928D01*
X0208652Y0057216D01*
X0208549Y0057597D01*
X0208352Y0057939D01*
X0208073Y0058219D01*
X0207731Y0058416D01*
X0207349Y0058518D01*
X0204782Y0058518D01*
X0204782Y0055928D01*
X0204600Y0055928D01*
X0204600Y0055747D01*
X0200730Y0055747D01*
X0200730Y0054459D01*
X0200833Y0054077D01*
X0201030Y0053735D01*
X0201309Y0053456D01*
X0201651Y0053258D01*
X0202033Y0053156D01*
X0204600Y0053156D01*
X0204600Y0055747D01*
X0204782Y0055747D01*
X0204782Y0053156D01*
X0207349Y0053156D01*
X0207731Y0053258D01*
X0208073Y0053456D01*
X0208352Y0053735D01*
X0208549Y0054077D01*
X0208652Y0054459D01*
X0208652Y0055747D01*
X0208652Y0056275D02*
X0302601Y0056275D01*
X0302601Y0057273D02*
X0208636Y0057273D01*
X0209408Y0057945D02*
X0210047Y0057306D01*
X0215871Y0057306D01*
X0216509Y0057945D01*
X0216509Y0061210D01*
X0215871Y0061849D01*
X0213860Y0061849D01*
X0213860Y0064621D01*
X0214788Y0064621D01*
X0215427Y0065260D01*
X0215427Y0070415D01*
X0214788Y0071053D01*
X0213915Y0071053D01*
X0213915Y0071996D01*
X0212984Y0072927D01*
X0189915Y0095996D01*
X0189915Y0097996D01*
X0188984Y0098927D01*
X0186695Y0101216D01*
X0189699Y0101216D01*
X0189699Y0099398D01*
X0190445Y0096618D01*
X0191884Y0094125D01*
X0193919Y0092089D01*
X0196412Y0090650D01*
X0199193Y0089905D01*
X0202071Y0089905D01*
X0204852Y0090650D01*
X0207345Y0092089D01*
X0209380Y0094125D01*
X0210819Y0096618D01*
X0211444Y0098947D01*
X0211585Y0098947D01*
X0211585Y0097062D01*
X0212203Y0095570D01*
X0213345Y0094428D01*
X0214837Y0093810D01*
X0216451Y0093810D01*
X0217943Y0094428D01*
X0219084Y0095570D01*
X0219702Y0097062D01*
X0219702Y0104613D01*
X0219084Y0106105D01*
X0217943Y0107246D01*
X0216451Y0107864D01*
X0214837Y0107864D01*
X0213345Y0107246D01*
X0212203Y0106105D01*
X0211585Y0104613D01*
X0211585Y0102727D01*
X0211444Y0102727D01*
X0210819Y0105057D01*
X0209380Y0107550D01*
X0209368Y0107562D01*
X0209368Y0116582D01*
X0209898Y0116582D01*
X0210537Y0117220D01*
X0210537Y0122454D01*
X0209898Y0123093D01*
X0206613Y0123093D01*
X0195275Y0134431D01*
X0195275Y0139907D01*
X0195856Y0140488D01*
X0195856Y0145525D01*
X0195217Y0146164D01*
X0191952Y0146164D01*
X0191314Y0145525D01*
X0191314Y0140488D01*
X0191895Y0139907D01*
X0191895Y0133031D01*
X0204420Y0120506D01*
X0204420Y0117220D01*
X0205058Y0116582D01*
X0205588Y0116582D01*
X0205588Y0110599D01*
X0204852Y0111025D01*
X0202071Y0111770D01*
X0199193Y0111770D01*
X0196412Y0111025D01*
X0193919Y0109586D01*
X0191884Y0107550D01*
X0190445Y0105057D01*
X0190267Y0104396D01*
X0188132Y0104396D01*
X0188484Y0104747D01*
X0189415Y0105679D01*
X0189415Y0111432D01*
X0189468Y0111454D01*
X0190283Y0112269D01*
X0190725Y0113335D01*
X0190725Y0114489D01*
X0190283Y0115555D01*
X0189468Y0116371D01*
X0188402Y0116812D01*
X0187248Y0116812D01*
X0187242Y0116810D01*
X0182554Y0121498D01*
X0182759Y0121702D01*
X0184273Y0125358D01*
X0184273Y0129316D01*
X0182759Y0132973D01*
X0179960Y0135771D01*
X0176715Y0137115D01*
X0176715Y0142693D01*
X0177142Y0142870D01*
X0178292Y0144021D01*
X0178915Y0145524D01*
X0178915Y0153151D01*
X0178292Y0154654D01*
X0177142Y0155805D01*
X0175638Y0156427D01*
X0174011Y0156427D01*
X0172508Y0155805D01*
X0171358Y0154654D01*
X0170735Y0153151D01*
X0170735Y0145524D01*
X0171358Y0144021D01*
X0172508Y0142870D01*
X0172935Y0142693D01*
X0172935Y0137286D01*
X0172346Y0137286D01*
X0168690Y0135771D01*
X0165891Y0132973D01*
X0164377Y0129316D01*
X0164377Y0125358D01*
X0165891Y0121702D01*
X0168690Y0118904D01*
X0172346Y0117389D01*
X0176304Y0117389D01*
X0179960Y0118904D01*
X0180164Y0119108D01*
X0184925Y0114347D01*
X0184925Y0113335D01*
X0185366Y0112269D01*
X0186182Y0111454D01*
X0186235Y0111432D01*
X0186235Y0106996D01*
X0185603Y0106364D01*
X0184933Y0106364D01*
X0184968Y0106379D01*
X0185783Y0107195D01*
X0186225Y0108260D01*
X0186225Y0109414D01*
X0185783Y0110480D01*
X0184968Y0111296D01*
X0183902Y0111737D01*
X0183098Y0111737D01*
X0179108Y0115727D01*
X0167608Y0115727D01*
X0159715Y0123620D01*
X0159715Y0133054D01*
X0166715Y0140054D01*
X0166715Y0142693D01*
X0167142Y0142870D01*
X0168292Y0144021D01*
X0168915Y0145524D01*
X0168915Y0153151D01*
X0168292Y0154654D01*
X0167142Y0155805D01*
X0165638Y0156427D01*
X0164011Y0156427D01*
X0162508Y0155805D01*
X0161358Y0154654D01*
X0160735Y0153151D01*
X0160735Y0145524D01*
X0161358Y0144021D01*
X0162508Y0142870D01*
X0162935Y0142693D01*
X0162935Y0141620D01*
X0157042Y0135727D01*
X0155935Y0134620D01*
X0155935Y0122054D01*
X0164935Y0113054D01*
X0166042Y0111947D01*
X0177542Y0111947D01*
X0180425Y0109064D01*
X0180425Y0108423D01*
X0177377Y0108423D01*
X0177185Y0108231D01*
X0177141Y0108243D01*
X0172325Y0108243D01*
X0172325Y0101337D01*
X0176305Y0101337D01*
X0176305Y0100337D01*
X0172325Y0100337D01*
X0172325Y0093432D01*
X0177141Y0093432D01*
X0177185Y0093444D01*
X0177377Y0093251D01*
X0178793Y0093251D01*
X0186135Y0085909D01*
X0186135Y0065037D01*
X0181125Y0060027D01*
X0167625Y0060027D01*
X0162125Y0054527D01*
X0161135Y0053537D01*
X0161135Y0052242D01*
X0160208Y0052242D01*
X0159570Y0051604D01*
X0159570Y0046764D01*
X0160208Y0046125D01*
X0165442Y0046125D01*
X0166080Y0046764D01*
X0166080Y0051604D01*
X0165442Y0052242D01*
X0164620Y0052242D01*
X0169025Y0056647D01*
X0182525Y0056647D01*
X0183515Y0057637D01*
X0189515Y0063637D01*
X0189515Y0087309D01*
X0188525Y0088299D01*
X0182265Y0094559D01*
X0182265Y0099247D01*
X0184166Y0099247D01*
X0186735Y0096679D01*
X0186735Y0094679D01*
X0210360Y0071053D01*
X0209751Y0071053D01*
X0209113Y0070415D01*
X0209113Y0065260D01*
X0209751Y0064621D01*
X0210680Y0064621D01*
X0210680Y0061849D01*
X0210047Y0061849D01*
X0209408Y0061210D01*
X0209408Y0057945D01*
X0209408Y0058272D02*
X0207981Y0058272D01*
X0209408Y0059270D02*
X0185148Y0059270D01*
X0184149Y0058272D02*
X0201401Y0058272D01*
X0201309Y0058219D02*
X0201030Y0057939D01*
X0200833Y0057597D01*
X0200730Y0057216D01*
X0200730Y0055928D01*
X0204600Y0055928D01*
X0204600Y0058518D01*
X0202033Y0058518D01*
X0201651Y0058416D01*
X0201309Y0058219D01*
X0200746Y0057273D02*
X0183151Y0057273D01*
X0181366Y0060269D02*
X0163495Y0060269D01*
X0163783Y0059980D02*
X0162968Y0060796D01*
X0161902Y0061237D01*
X0161098Y0061237D01*
X0159204Y0063131D01*
X0159204Y0063146D01*
X0158653Y0063683D01*
X0158108Y0064227D01*
X0158093Y0064227D01*
X0158082Y0064238D01*
X0157312Y0064227D01*
X0156542Y0064227D01*
X0156532Y0064217D01*
X0156442Y0064216D01*
X0156442Y0064801D01*
X0155804Y0065439D01*
X0150649Y0065439D01*
X0150011Y0064801D01*
X0150011Y0059764D01*
X0150649Y0059125D01*
X0155804Y0059125D01*
X0156442Y0059764D01*
X0156442Y0060435D01*
X0156553Y0060437D01*
X0158425Y0058564D01*
X0158425Y0057760D01*
X0158866Y0056695D01*
X0159682Y0055879D01*
X0160748Y0055437D01*
X0161902Y0055437D01*
X0162968Y0055879D01*
X0163783Y0056695D01*
X0164225Y0057760D01*
X0164225Y0058914D01*
X0163783Y0059980D01*
X0164077Y0059270D02*
X0166868Y0059270D01*
X0165869Y0058272D02*
X0164225Y0058272D01*
X0164023Y0057273D02*
X0164871Y0057273D01*
X0163872Y0056275D02*
X0163364Y0056275D01*
X0162874Y0055276D02*
X0153727Y0055276D01*
X0153727Y0054892D02*
X0153727Y0055892D01*
X0156852Y0055892D01*
X0156852Y0057657D01*
X0156750Y0058038D01*
X0156553Y0058380D01*
X0156273Y0058660D01*
X0155931Y0058857D01*
X0155550Y0058959D01*
X0153726Y0058959D01*
X0153726Y0055892D01*
X0152727Y0055892D01*
X0152727Y0058959D01*
X0150903Y0058959D01*
X0150522Y0058857D01*
X0150179Y0058660D01*
X0149900Y0058380D01*
X0149703Y0058038D01*
X0149601Y0057657D01*
X0149601Y0055892D01*
X0152726Y0055892D01*
X0152726Y0054892D01*
X0149601Y0054892D01*
X0149601Y0053128D01*
X0149703Y0052747D01*
X0149900Y0052404D01*
X0150179Y0052125D01*
X0150522Y0051928D01*
X0150903Y0051826D01*
X0152727Y0051826D01*
X0152727Y0054892D01*
X0153726Y0054892D01*
X0153726Y0051826D01*
X0155550Y0051826D01*
X0155931Y0051928D01*
X0156273Y0052125D01*
X0156553Y0052404D01*
X0156750Y0052747D01*
X0156852Y0053128D01*
X0156852Y0054892D01*
X0153727Y0054892D01*
X0153726Y0054278D02*
X0152727Y0054278D01*
X0152726Y0055276D02*
X0145361Y0055276D01*
X0145361Y0054278D02*
X0149601Y0054278D01*
X0149601Y0053279D02*
X0145361Y0053279D01*
X0145361Y0052281D02*
X0150024Y0052281D01*
X0152727Y0052281D02*
X0153726Y0052281D01*
X0153726Y0053279D02*
X0152727Y0053279D01*
X0152727Y0056275D02*
X0153726Y0056275D01*
X0153726Y0057273D02*
X0152727Y0057273D01*
X0152727Y0058272D02*
X0153726Y0058272D01*
X0155949Y0059270D02*
X0157719Y0059270D01*
X0158425Y0058272D02*
X0156615Y0058272D01*
X0156852Y0057273D02*
X0158627Y0057273D01*
X0159286Y0056275D02*
X0156852Y0056275D01*
X0156852Y0054278D02*
X0161875Y0054278D01*
X0161135Y0053279D02*
X0156852Y0053279D01*
X0156429Y0052281D02*
X0161135Y0052281D01*
X0159570Y0051282D02*
X0145361Y0051282D01*
X0145361Y0050284D02*
X0159570Y0050284D01*
X0159570Y0049285D02*
X0145361Y0049285D01*
X0145361Y0048287D02*
X0159570Y0048287D01*
X0159570Y0047288D02*
X0145361Y0047288D01*
X0145361Y0046290D02*
X0160044Y0046290D01*
X0159950Y0045291D02*
X0145361Y0045291D01*
X0145361Y0044293D02*
X0159570Y0044293D01*
X0159570Y0043294D02*
X0145361Y0043294D01*
X0145361Y0042296D02*
X0159570Y0042296D01*
X0159570Y0041297D02*
X0145361Y0041297D01*
X0145361Y0040299D02*
X0159570Y0040299D01*
X0166080Y0040299D02*
X0171070Y0040299D01*
X0171070Y0041297D02*
X0166080Y0041297D01*
X0166080Y0042296D02*
X0171070Y0042296D01*
X0171070Y0043294D02*
X0166080Y0043294D01*
X0166080Y0044293D02*
X0171070Y0044293D01*
X0171450Y0045291D02*
X0165700Y0045291D01*
X0165606Y0046290D02*
X0171544Y0046290D01*
X0171070Y0047288D02*
X0166080Y0047288D01*
X0166080Y0048287D02*
X0171070Y0048287D01*
X0171070Y0049285D02*
X0166080Y0049285D01*
X0166080Y0050284D02*
X0171070Y0050284D01*
X0171070Y0051282D02*
X0166080Y0051282D01*
X0164658Y0052281D02*
X0175032Y0052281D01*
X0176030Y0053279D02*
X0165657Y0053279D01*
X0166655Y0054278D02*
X0177029Y0054278D01*
X0176788Y0054037D02*
X0176788Y0054037D01*
X0178813Y0051282D02*
X0193990Y0051282D01*
X0194988Y0050284D02*
X0177815Y0050284D01*
X0177580Y0049285D02*
X0195987Y0049285D01*
X0196986Y0048287D02*
X0177580Y0048287D01*
X0177580Y0047288D02*
X0197984Y0047288D01*
X0198983Y0046290D02*
X0177106Y0046290D01*
X0177200Y0045291D02*
X0199981Y0045291D01*
X0200980Y0044293D02*
X0177580Y0044293D01*
X0177580Y0043294D02*
X0236887Y0043294D01*
X0236673Y0048287D02*
X0201766Y0048287D01*
X0200767Y0049285D02*
X0219908Y0049285D01*
X0219664Y0054278D02*
X0215961Y0054278D01*
X0216509Y0058272D02*
X0302601Y0058272D01*
X0302601Y0059270D02*
X0216509Y0059270D01*
X0216509Y0060269D02*
X0302601Y0060269D01*
X0302601Y0061267D02*
X0216452Y0061267D01*
X0213860Y0062266D02*
X0302601Y0062266D01*
X0302601Y0063264D02*
X0213860Y0063264D01*
X0213860Y0064263D02*
X0302601Y0064263D01*
X0302601Y0065261D02*
X0215427Y0065261D01*
X0215427Y0066260D02*
X0302601Y0066260D01*
X0302601Y0067258D02*
X0215427Y0067258D01*
X0215427Y0068257D02*
X0302601Y0068257D01*
X0302601Y0069255D02*
X0215427Y0069255D01*
X0215427Y0070254D02*
X0302601Y0070254D01*
X0302601Y0071252D02*
X0213915Y0071252D01*
X0213660Y0072251D02*
X0302601Y0072251D01*
X0302601Y0073249D02*
X0212661Y0073249D01*
X0211663Y0074248D02*
X0302601Y0074248D01*
X0302601Y0075247D02*
X0224704Y0075247D01*
X0224704Y0075243D02*
X0224704Y0080282D01*
X0223981Y0081005D01*
X0225251Y0082275D01*
X0228596Y0080889D01*
X0232554Y0080889D01*
X0236210Y0082404D01*
X0239009Y0085202D01*
X0240523Y0088858D01*
X0240523Y0092816D01*
X0239009Y0096473D01*
X0236210Y0099271D01*
X0232554Y0100786D01*
X0228596Y0100786D01*
X0224940Y0099271D01*
X0222141Y0096473D01*
X0220627Y0092816D01*
X0220627Y0088858D01*
X0222012Y0085513D01*
X0219035Y0082536D01*
X0219035Y0081044D01*
X0218904Y0081044D01*
X0218142Y0080282D01*
X0218142Y0075243D01*
X0218904Y0074481D01*
X0223943Y0074481D01*
X0224704Y0075243D01*
X0224704Y0076245D02*
X0302601Y0076245D01*
X0302601Y0077244D02*
X0224704Y0077244D01*
X0224704Y0078242D02*
X0288715Y0078242D01*
X0287872Y0078592D02*
X0290738Y0077404D01*
X0293841Y0077404D01*
X0296707Y0078592D01*
X0298901Y0080786D01*
X0300089Y0083652D01*
X0300089Y0086755D01*
X0298901Y0089621D01*
X0296707Y0091815D01*
X0293841Y0093003D01*
X0290738Y0093003D01*
X0287872Y0091815D01*
X0285678Y0089621D01*
X0284490Y0086755D01*
X0284490Y0083652D01*
X0285678Y0080786D01*
X0287872Y0078592D01*
X0287223Y0079241D02*
X0224704Y0079241D01*
X0224704Y0080239D02*
X0286224Y0080239D01*
X0285490Y0081238D02*
X0233395Y0081238D01*
X0235806Y0082236D02*
X0285077Y0082236D01*
X0284663Y0083235D02*
X0237041Y0083235D01*
X0238040Y0084233D02*
X0284490Y0084233D01*
X0284490Y0085232D02*
X0239021Y0085232D01*
X0239434Y0086230D02*
X0284490Y0086230D01*
X0284687Y0087229D02*
X0239848Y0087229D01*
X0240262Y0088227D02*
X0285100Y0088227D01*
X0285514Y0089226D02*
X0240523Y0089226D01*
X0240523Y0090224D02*
X0286280Y0090224D01*
X0287279Y0091223D02*
X0240523Y0091223D01*
X0240523Y0092221D02*
X0288852Y0092221D01*
X0286329Y0096602D02*
X0290273Y0100547D01*
X0291615Y0101889D01*
X0291615Y0105121D01*
X0292288Y0105121D01*
X0292927Y0105760D01*
X0292927Y0110915D01*
X0292288Y0111553D01*
X0291961Y0111553D01*
X0291961Y0115082D01*
X0292091Y0115082D01*
X0292730Y0115720D01*
X0292730Y0120954D01*
X0292091Y0121593D01*
X0291455Y0121593D01*
X0291455Y0125820D01*
X0291738Y0126102D01*
X0291738Y0131730D01*
X0291099Y0132368D01*
X0290104Y0132368D01*
X0290484Y0132747D01*
X0291415Y0133679D01*
X0291415Y0135622D01*
X0291738Y0135945D01*
X0291738Y0141572D01*
X0291160Y0142150D01*
X0291160Y0146121D01*
X0291788Y0146121D01*
X0292427Y0146760D01*
X0292427Y0151915D01*
X0291788Y0152553D01*
X0291061Y0152553D01*
X0291061Y0156082D01*
X0291591Y0156082D01*
X0292230Y0156720D01*
X0292230Y0161954D01*
X0291591Y0162593D01*
X0291215Y0162593D01*
X0291215Y0164120D01*
X0287715Y0167620D01*
X0286608Y0168727D01*
X0113542Y0168727D01*
X0095542Y0150727D01*
X0094435Y0149620D01*
X0094435Y0125127D01*
X0049376Y0125127D01*
X0048035Y0123786D01*
X0045535Y0121286D01*
X0045535Y0115093D01*
X0045058Y0115093D01*
X0044420Y0114454D01*
X0044420Y0112017D01*
X0029530Y0097127D01*
X0028188Y0095786D01*
X0028188Y0074627D01*
X0021376Y0074627D01*
X0017376Y0070627D01*
X0016035Y0069286D01*
X0016035Y0038889D01*
X0017376Y0037547D01*
X0024214Y0037547D01*
X0024214Y0036723D01*
X0024623Y0035735D01*
X0025380Y0034978D01*
X0039801Y0020557D01*
X0040790Y0020147D01*
X0070645Y0020147D01*
X0071075Y0019718D01*
X0072210Y0019247D01*
X0120440Y0019247D01*
X0121575Y0019718D01*
X0122444Y0020587D01*
X0127075Y0025218D01*
X0127944Y0026087D01*
X0128415Y0027223D01*
X0128415Y0028452D01*
X0128387Y0028518D01*
X0128387Y0030153D01*
X0129358Y0031124D01*
X0130087Y0032885D01*
X0130087Y0034790D01*
X0129358Y0036551D01*
X0128011Y0037898D01*
X0126250Y0038627D01*
X0124345Y0038627D01*
X0122584Y0037898D01*
X0121237Y0036551D01*
X0120507Y0034790D01*
X0120507Y0032885D01*
X0121237Y0031124D01*
X0122207Y0030153D01*
X0122207Y0029090D01*
X0118545Y0025427D01*
X0097541Y0025427D01*
X0097541Y0029911D01*
X0096902Y0030549D01*
X0091747Y0030549D01*
X0091109Y0029911D01*
X0091109Y0025427D01*
X0075915Y0025427D01*
X0075915Y0028906D01*
X0076080Y0029071D01*
X0076080Y0033911D01*
X0075442Y0034549D01*
X0073516Y0034549D01*
X0073440Y0034581D01*
X0072210Y0034581D01*
X0072134Y0034549D01*
X0070208Y0034549D01*
X0069570Y0033911D01*
X0069570Y0029071D01*
X0069735Y0028906D01*
X0069735Y0025527D01*
X0042439Y0025527D01*
X0029594Y0038373D01*
X0029594Y0047826D01*
X0030111Y0047826D01*
X0030750Y0048465D01*
X0030750Y0051730D01*
X0030111Y0052368D01*
X0028437Y0052368D01*
X0028427Y0052378D01*
X0027439Y0052787D01*
X0026369Y0052787D01*
X0025380Y0052378D01*
X0025371Y0052368D01*
X0023696Y0052368D01*
X0023058Y0051730D01*
X0023058Y0048465D01*
X0023696Y0047826D01*
X0024214Y0047826D01*
X0024214Y0042127D01*
X0020615Y0042127D01*
X0020615Y0067389D01*
X0023273Y0070047D01*
X0028035Y0070047D01*
X0028035Y0069069D01*
X0027420Y0068454D01*
X0027420Y0063220D01*
X0028058Y0062582D01*
X0032898Y0062582D01*
X0033537Y0063220D01*
X0033537Y0068454D01*
X0032898Y0069093D01*
X0032768Y0069093D01*
X0032768Y0093889D01*
X0047462Y0108582D01*
X0049898Y0108582D01*
X0050537Y0109220D01*
X0050537Y0114454D01*
X0050115Y0114876D01*
X0050115Y0119389D01*
X0051273Y0120547D01*
X0100876Y0120547D01*
X0102541Y0118882D01*
X0102113Y0118454D01*
X0102113Y0113220D01*
X0102751Y0112582D01*
X0107591Y0112582D01*
X0108230Y0113220D01*
X0108230Y0114147D01*
X0124914Y0114147D01*
X0125682Y0113379D01*
X0126748Y0112937D01*
X0127902Y0112937D01*
X0128968Y0113379D01*
X0129783Y0114195D01*
X0130225Y0115260D01*
X0130225Y0116414D01*
X0129783Y0117480D01*
X0128968Y0118296D01*
X0127902Y0118737D01*
X0126748Y0118737D01*
X0125682Y0118296D01*
X0124914Y0117527D01*
X0108230Y0117527D01*
X0108230Y0118454D01*
X0107591Y0119093D01*
X0107461Y0119093D01*
X0107461Y0120439D01*
X0106120Y0121781D01*
X0102773Y0125127D01*
X0098215Y0125127D01*
X0098215Y0148054D01*
X0115108Y0164947D01*
X0259853Y0164947D01*
X0259425Y0163914D01*
X0259425Y0162760D01*
X0259866Y0161695D01*
X0260635Y0160926D01*
X0260635Y0160175D01*
X0260145Y0160175D01*
X0259507Y0159537D01*
X0259507Y0157256D01*
X0260145Y0156617D01*
X0264198Y0156617D01*
X0264836Y0157256D01*
X0264836Y0159537D01*
X0264198Y0160175D01*
X0264015Y0160175D01*
X0264015Y0160926D01*
X0264783Y0161695D01*
X0265225Y0162760D01*
X0265225Y0163914D01*
X0264797Y0164947D01*
X0285042Y0164947D01*
X0287397Y0162593D01*
X0286751Y0162593D01*
X0286113Y0161954D01*
X0286113Y0156720D01*
X0286751Y0156082D01*
X0287281Y0156082D01*
X0287281Y0152553D01*
X0286751Y0152553D01*
X0286113Y0151915D01*
X0286113Y0146760D01*
X0286751Y0146121D01*
X0287380Y0146121D01*
X0287380Y0143455D01*
X0285215Y0145620D01*
X0285215Y0146438D01*
X0285537Y0146760D01*
X0285537Y0151915D01*
X0284898Y0152553D01*
X0279862Y0152553D01*
X0279223Y0151915D01*
X0279223Y0150282D01*
X0278100Y0150282D01*
X0275990Y0152393D01*
X0275990Y0154411D01*
X0275351Y0155049D01*
X0271299Y0155049D01*
X0270660Y0154411D01*
X0270660Y0150358D01*
X0271299Y0149720D01*
X0273317Y0149720D01*
X0274676Y0148361D01*
X0271935Y0145620D01*
X0271935Y0138742D01*
X0270708Y0138742D01*
X0270070Y0138104D01*
X0270070Y0137227D01*
X0268542Y0137227D01*
X0267435Y0136120D01*
X0263435Y0132120D01*
X0263435Y0119554D01*
X0264542Y0118447D01*
X0269987Y0113002D01*
X0270109Y0113002D01*
X0270109Y0112737D01*
X0258218Y0124627D01*
X0241636Y0124627D01*
X0241468Y0124796D01*
X0240402Y0125237D01*
X0239248Y0125237D01*
X0238182Y0124796D01*
X0237366Y0123980D01*
X0236925Y0122914D01*
X0236925Y0121760D01*
X0237366Y0120695D01*
X0238182Y0119879D01*
X0239248Y0119437D01*
X0240402Y0119437D01*
X0241468Y0119879D01*
X0241636Y0120047D01*
X0256321Y0120047D01*
X0270609Y0105760D01*
X0270609Y0103264D01*
X0271247Y0102625D01*
X0276402Y0102625D01*
X0277041Y0103264D01*
X0277041Y0103492D01*
X0281273Y0103492D01*
X0282903Y0105121D01*
X0285398Y0105121D01*
X0286037Y0105760D01*
X0286037Y0110915D01*
X0285398Y0111553D01*
X0280362Y0111553D01*
X0279723Y0110915D01*
X0279723Y0108419D01*
X0279376Y0108072D01*
X0277041Y0108072D01*
X0277041Y0108301D01*
X0276402Y0108939D01*
X0276115Y0108939D01*
X0276115Y0111948D01*
X0276541Y0112374D01*
X0276541Y0117411D01*
X0275902Y0118049D01*
X0270747Y0118049D01*
X0270517Y0117819D01*
X0267215Y0121120D01*
X0267215Y0130554D01*
X0270070Y0133409D01*
X0270070Y0133264D01*
X0270708Y0132625D01*
X0275942Y0132625D01*
X0276580Y0133264D01*
X0276580Y0138104D01*
X0275942Y0138742D01*
X0275715Y0138742D01*
X0275715Y0144054D01*
X0277881Y0146221D01*
X0278163Y0146502D01*
X0279480Y0146502D01*
X0279862Y0146121D01*
X0281435Y0146121D01*
X0281435Y0144054D01*
X0282542Y0142947D01*
X0283279Y0142211D01*
X0280551Y0142211D01*
X0279912Y0141572D01*
X0279912Y0135945D01*
X0280495Y0135362D01*
X0280495Y0133419D01*
X0281426Y0132487D01*
X0281545Y0132368D01*
X0280551Y0132368D01*
X0279912Y0131730D01*
X0279912Y0130881D01*
X0276580Y0130881D01*
X0276580Y0131411D01*
X0275942Y0132049D01*
X0270708Y0132049D01*
X0270070Y0131411D01*
X0270070Y0126571D01*
X0270708Y0125932D01*
X0271035Y0125932D01*
X0271035Y0124939D01*
X0270747Y0124939D01*
X0270109Y0124301D01*
X0270109Y0119264D01*
X0270747Y0118625D01*
X0275902Y0118625D01*
X0276541Y0119264D01*
X0276541Y0119947D01*
X0277542Y0119947D01*
X0279920Y0117569D01*
X0279920Y0115720D01*
X0280558Y0115082D01*
X0285398Y0115082D01*
X0286037Y0115720D01*
X0286037Y0120954D01*
X0285398Y0121593D01*
X0281242Y0121593D01*
X0280215Y0122620D01*
X0279108Y0123727D01*
X0276541Y0123727D01*
X0276541Y0124301D01*
X0275902Y0124939D01*
X0275615Y0124939D01*
X0275615Y0125932D01*
X0275942Y0125932D01*
X0276580Y0126571D01*
X0276580Y0127101D01*
X0279912Y0127101D01*
X0279912Y0126102D01*
X0280551Y0125464D01*
X0283619Y0125464D01*
X0284257Y0126102D01*
X0284257Y0131730D01*
X0283740Y0132247D01*
X0287910Y0132247D01*
X0287392Y0131730D01*
X0287392Y0126102D01*
X0287675Y0125820D01*
X0287675Y0121593D01*
X0287251Y0121593D01*
X0286613Y0120954D01*
X0286613Y0115720D01*
X0287251Y0115082D01*
X0287381Y0115082D01*
X0287381Y0111553D01*
X0287251Y0111553D01*
X0286613Y0110915D01*
X0286613Y0105760D01*
X0287035Y0105338D01*
X0287035Y0103786D01*
X0284431Y0101182D01*
X0277041Y0101182D01*
X0277041Y0101411D01*
X0276402Y0102049D01*
X0271247Y0102049D01*
X0270609Y0101411D01*
X0270609Y0101127D01*
X0260773Y0101127D01*
X0248773Y0113127D01*
X0240394Y0113127D01*
X0239009Y0116473D01*
X0236210Y0119271D01*
X0232554Y0120786D01*
X0228596Y0120786D01*
X0224940Y0119271D01*
X0222141Y0116473D01*
X0220627Y0112816D01*
X0220627Y0108858D01*
X0222141Y0105202D01*
X0224940Y0102404D01*
X0228596Y0100889D01*
X0232554Y0100889D01*
X0236210Y0102404D01*
X0239009Y0105202D01*
X0240394Y0108547D01*
X0246876Y0108547D01*
X0257535Y0097889D01*
X0258876Y0096547D01*
X0270609Y0096547D01*
X0270609Y0096374D01*
X0271247Y0095736D01*
X0276402Y0095736D01*
X0277041Y0096374D01*
X0277041Y0096602D01*
X0286329Y0096602D01*
X0286940Y0097214D02*
X0302601Y0097214D01*
X0302601Y0098212D02*
X0287938Y0098212D01*
X0288937Y0099211D02*
X0302601Y0099211D01*
X0302601Y0100209D02*
X0289935Y0100209D01*
X0290934Y0101208D02*
X0302601Y0101208D01*
X0302601Y0102206D02*
X0291615Y0102206D01*
X0291615Y0103205D02*
X0302601Y0103205D01*
X0302601Y0104203D02*
X0291615Y0104203D01*
X0292369Y0105202D02*
X0302601Y0105202D01*
X0302601Y0106200D02*
X0292927Y0106200D01*
X0292927Y0107199D02*
X0302601Y0107199D01*
X0302601Y0108197D02*
X0292927Y0108197D01*
X0292927Y0109196D02*
X0302601Y0109196D01*
X0302601Y0110194D02*
X0292927Y0110194D01*
X0292649Y0111193D02*
X0302601Y0111193D01*
X0302601Y0112191D02*
X0291961Y0112191D01*
X0291961Y0113190D02*
X0302601Y0113190D01*
X0302601Y0114188D02*
X0291961Y0114188D01*
X0292196Y0115187D02*
X0302601Y0115187D01*
X0302601Y0116185D02*
X0292730Y0116185D01*
X0292730Y0117184D02*
X0302601Y0117184D01*
X0302601Y0118183D02*
X0292730Y0118183D01*
X0292730Y0119181D02*
X0302601Y0119181D01*
X0302601Y0120180D02*
X0292730Y0120180D01*
X0292506Y0121178D02*
X0302601Y0121178D01*
X0302601Y0122177D02*
X0291455Y0122177D01*
X0291455Y0123175D02*
X0302601Y0123175D01*
X0302601Y0124174D02*
X0291455Y0124174D01*
X0291455Y0125172D02*
X0302601Y0125172D01*
X0302601Y0126171D02*
X0291738Y0126171D01*
X0291738Y0127169D02*
X0302601Y0127169D01*
X0302601Y0128168D02*
X0291738Y0128168D01*
X0291738Y0129166D02*
X0302601Y0129166D01*
X0302601Y0130165D02*
X0291738Y0130165D01*
X0291738Y0131163D02*
X0302601Y0131163D01*
X0302601Y0132162D02*
X0291306Y0132162D01*
X0290896Y0133160D02*
X0302601Y0133160D01*
X0302601Y0134159D02*
X0291415Y0134159D01*
X0291415Y0135157D02*
X0302601Y0135157D01*
X0302601Y0136156D02*
X0291738Y0136156D01*
X0291738Y0137154D02*
X0302601Y0137154D01*
X0302601Y0138153D02*
X0291738Y0138153D01*
X0291738Y0139151D02*
X0302601Y0139151D01*
X0302601Y0140150D02*
X0291738Y0140150D01*
X0291738Y0141148D02*
X0302601Y0141148D01*
X0302601Y0142147D02*
X0291163Y0142147D01*
X0291160Y0143145D02*
X0302601Y0143145D01*
X0302601Y0144144D02*
X0291160Y0144144D01*
X0291160Y0145142D02*
X0302601Y0145142D01*
X0302601Y0146141D02*
X0291808Y0146141D01*
X0292427Y0147139D02*
X0302601Y0147139D01*
X0302601Y0148138D02*
X0292427Y0148138D01*
X0292427Y0149136D02*
X0302601Y0149136D01*
X0302601Y0150135D02*
X0292427Y0150135D01*
X0292427Y0151133D02*
X0302601Y0151133D01*
X0302601Y0152132D02*
X0292210Y0152132D01*
X0291061Y0153130D02*
X0302601Y0153130D01*
X0302601Y0154129D02*
X0291061Y0154129D01*
X0291061Y0155127D02*
X0302601Y0155127D01*
X0302601Y0156126D02*
X0291635Y0156126D01*
X0292230Y0157124D02*
X0302601Y0157124D01*
X0302601Y0158123D02*
X0292230Y0158123D01*
X0292230Y0159121D02*
X0302601Y0159121D01*
X0302601Y0160120D02*
X0292230Y0160120D01*
X0292230Y0161118D02*
X0302601Y0161118D01*
X0302601Y0162117D02*
X0292067Y0162117D01*
X0291215Y0163116D02*
X0302601Y0163116D01*
X0302601Y0164114D02*
X0291215Y0164114D01*
X0290223Y0165113D02*
X0302601Y0165113D01*
X0302601Y0166111D02*
X0289224Y0166111D01*
X0288226Y0167110D02*
X0302601Y0167110D01*
X0302601Y0168108D02*
X0287227Y0168108D01*
X0285875Y0164114D02*
X0265142Y0164114D01*
X0265225Y0163116D02*
X0286874Y0163116D01*
X0286276Y0162117D02*
X0285374Y0162117D01*
X0285537Y0161954D02*
X0284898Y0162593D01*
X0280058Y0162593D01*
X0279420Y0161954D01*
X0279420Y0160180D01*
X0275990Y0160180D01*
X0275990Y0160316D01*
X0275351Y0160955D01*
X0271299Y0160955D01*
X0270660Y0160316D01*
X0270660Y0156264D01*
X0271299Y0155625D01*
X0275351Y0155625D01*
X0275990Y0156264D01*
X0275990Y0156400D01*
X0279740Y0156400D01*
X0280058Y0156082D01*
X0284898Y0156082D01*
X0285537Y0156720D01*
X0285537Y0161954D01*
X0285537Y0161118D02*
X0286113Y0161118D01*
X0286113Y0160120D02*
X0285537Y0160120D01*
X0285537Y0159121D02*
X0286113Y0159121D01*
X0286113Y0158123D02*
X0285537Y0158123D01*
X0285537Y0157124D02*
X0286113Y0157124D01*
X0286707Y0156126D02*
X0284942Y0156126D01*
X0287281Y0155127D02*
X0258553Y0155127D01*
X0258553Y0154951D02*
X0258553Y0155837D01*
X0255479Y0155837D01*
X0255479Y0155837D01*
X0258553Y0155837D01*
X0258553Y0156724D01*
X0258451Y0157105D01*
X0258254Y0157447D01*
X0258143Y0157558D01*
X0258143Y0159537D01*
X0257505Y0160175D01*
X0253452Y0160175D01*
X0253363Y0160086D01*
X0248080Y0160086D01*
X0248080Y0160104D01*
X0247442Y0160742D01*
X0242208Y0160742D01*
X0241570Y0160104D01*
X0241570Y0158527D01*
X0238730Y0158527D01*
X0238730Y0159454D01*
X0238091Y0160093D01*
X0233251Y0160093D01*
X0232613Y0159454D01*
X0232613Y0154220D01*
X0233251Y0153582D01*
X0238091Y0153582D01*
X0238730Y0154220D01*
X0238730Y0155147D01*
X0241686Y0155147D01*
X0242208Y0154625D01*
X0247442Y0154625D01*
X0248080Y0155264D01*
X0248080Y0156049D01*
X0248168Y0156137D01*
X0248168Y0156430D01*
X0248302Y0156690D01*
X0248297Y0156706D01*
X0252404Y0156706D01*
X0252404Y0155837D01*
X0252404Y0154951D01*
X0252506Y0154569D01*
X0252703Y0154227D01*
X0252814Y0154117D01*
X0252814Y0152138D01*
X0253452Y0151499D01*
X0253788Y0151499D01*
X0253788Y0144137D01*
X0253920Y0144006D01*
X0253920Y0142669D01*
X0247278Y0136027D01*
X0232625Y0136027D01*
X0231635Y0135037D01*
X0218125Y0121527D01*
X0217230Y0121527D01*
X0217230Y0122454D01*
X0216591Y0123093D01*
X0211751Y0123093D01*
X0211113Y0122454D01*
X0211113Y0117220D01*
X0211751Y0116582D01*
X0216591Y0116582D01*
X0217230Y0117220D01*
X0217230Y0118147D01*
X0219525Y0118147D01*
X0234025Y0132647D01*
X0248678Y0132647D01*
X0256113Y0140082D01*
X0259398Y0140082D01*
X0260037Y0140720D01*
X0260037Y0145954D01*
X0259398Y0146593D01*
X0257168Y0146593D01*
X0257168Y0151499D01*
X0257505Y0151499D01*
X0258143Y0152138D01*
X0258143Y0154117D01*
X0258254Y0154227D01*
X0258451Y0154569D01*
X0258553Y0154951D01*
X0258155Y0154129D02*
X0259507Y0154129D01*
X0259507Y0154419D02*
X0259507Y0152138D01*
X0260145Y0151499D01*
X0261560Y0151499D01*
X0261981Y0151078D01*
X0261981Y0146593D01*
X0261251Y0146593D01*
X0260613Y0145954D01*
X0260613Y0140720D01*
X0261251Y0140082D01*
X0261981Y0140082D01*
X0261981Y0138384D01*
X0259335Y0135737D01*
X0258248Y0135737D01*
X0257182Y0135296D01*
X0256366Y0134480D01*
X0255925Y0133414D01*
X0255925Y0132260D01*
X0256366Y0131195D01*
X0257182Y0130379D01*
X0258248Y0129937D01*
X0259402Y0129937D01*
X0260468Y0130379D01*
X0261283Y0131195D01*
X0261725Y0132260D01*
X0261725Y0133347D01*
X0264371Y0135994D01*
X0265361Y0136984D01*
X0265361Y0140082D01*
X0266091Y0140082D01*
X0266730Y0140720D01*
X0266730Y0145954D01*
X0266091Y0146593D01*
X0265361Y0146593D01*
X0265361Y0152478D01*
X0264836Y0153003D01*
X0264836Y0154419D01*
X0264198Y0155057D01*
X0260145Y0155057D01*
X0259507Y0154419D01*
X0259507Y0153130D02*
X0258143Y0153130D01*
X0258137Y0152132D02*
X0259512Y0152132D01*
X0257168Y0151133D02*
X0261926Y0151133D01*
X0261981Y0150135D02*
X0257168Y0150135D01*
X0257168Y0149136D02*
X0261981Y0149136D01*
X0261981Y0148138D02*
X0257168Y0148138D01*
X0257168Y0147139D02*
X0261981Y0147139D01*
X0260800Y0146141D02*
X0259850Y0146141D01*
X0260037Y0145142D02*
X0260613Y0145142D01*
X0260613Y0144144D02*
X0260037Y0144144D01*
X0260037Y0143145D02*
X0260613Y0143145D01*
X0260613Y0142147D02*
X0260037Y0142147D01*
X0260037Y0141148D02*
X0260613Y0141148D01*
X0261184Y0140150D02*
X0259466Y0140150D01*
X0261981Y0139151D02*
X0255182Y0139151D01*
X0254184Y0138153D02*
X0261750Y0138153D01*
X0260752Y0137154D02*
X0253185Y0137154D01*
X0252187Y0136156D02*
X0259753Y0136156D01*
X0257044Y0135157D02*
X0251188Y0135157D01*
X0250190Y0134159D02*
X0256233Y0134159D01*
X0255925Y0133160D02*
X0249191Y0133160D01*
X0247407Y0136156D02*
X0195275Y0136156D01*
X0195275Y0137154D02*
X0248405Y0137154D01*
X0249404Y0138153D02*
X0195275Y0138153D01*
X0195275Y0139151D02*
X0250402Y0139151D01*
X0251401Y0140150D02*
X0208415Y0140150D01*
X0207902Y0139937D02*
X0208968Y0140379D01*
X0209783Y0141195D01*
X0210225Y0142260D01*
X0210225Y0143414D01*
X0209783Y0144480D01*
X0208968Y0145296D01*
X0207902Y0145737D01*
X0206748Y0145737D01*
X0205682Y0145296D01*
X0205083Y0144697D01*
X0203336Y0144697D01*
X0203336Y0145525D01*
X0202698Y0146164D01*
X0199432Y0146164D01*
X0198794Y0145525D01*
X0198794Y0140488D01*
X0199432Y0139850D01*
X0202698Y0139850D01*
X0203336Y0140488D01*
X0203336Y0141317D01*
X0204816Y0141317D01*
X0204866Y0141195D01*
X0205682Y0140379D01*
X0206748Y0139937D01*
X0207902Y0139937D01*
X0206235Y0140150D02*
X0202998Y0140150D01*
X0203336Y0141148D02*
X0204913Y0141148D01*
X0209737Y0141148D02*
X0252399Y0141148D01*
X0253398Y0142147D02*
X0210178Y0142147D01*
X0210225Y0143145D02*
X0247416Y0143145D01*
X0247682Y0142879D02*
X0248748Y0142437D01*
X0249902Y0142437D01*
X0250968Y0142879D01*
X0251783Y0143695D01*
X0252225Y0144760D01*
X0252225Y0145914D01*
X0251783Y0146980D01*
X0250968Y0147796D01*
X0249902Y0148237D01*
X0249169Y0148237D01*
X0248647Y0148890D01*
X0248080Y0149605D01*
X0248080Y0153411D01*
X0247442Y0154049D01*
X0242208Y0154049D01*
X0241570Y0153411D01*
X0241570Y0150408D01*
X0241388Y0150227D01*
X0224608Y0150227D01*
X0222108Y0152727D01*
X0217230Y0152727D01*
X0217230Y0153454D01*
X0216591Y0154093D01*
X0215715Y0154093D01*
X0215715Y0158620D01*
X0212215Y0162120D01*
X0211108Y0163227D01*
X0150042Y0163227D01*
X0131935Y0145120D01*
X0131935Y0098549D01*
X0131366Y0097980D01*
X0130925Y0096914D01*
X0130925Y0095760D01*
X0131126Y0095275D01*
X0120115Y0106286D01*
X0118773Y0107627D01*
X0112230Y0107627D01*
X0112230Y0107954D01*
X0111591Y0108593D01*
X0106751Y0108593D01*
X0106113Y0107954D01*
X0106113Y0102720D01*
X0106751Y0102082D01*
X0107281Y0102082D01*
X0107281Y0099093D01*
X0106751Y0099093D01*
X0106113Y0098454D01*
X0106113Y0093220D01*
X0106751Y0092582D01*
X0111591Y0092582D01*
X0112230Y0093220D01*
X0112230Y0098454D01*
X0111591Y0099093D01*
X0111061Y0099093D01*
X0111061Y0102082D01*
X0111591Y0102082D01*
X0112230Y0102720D01*
X0112230Y0103047D01*
X0116876Y0103047D01*
X0130035Y0089889D01*
X0130035Y0086729D01*
X0129468Y0087296D01*
X0128402Y0087737D01*
X0127248Y0087737D01*
X0126182Y0087296D01*
X0125366Y0086480D01*
X0124925Y0085414D01*
X0124925Y0084564D01*
X0123883Y0085605D01*
X0123883Y0088608D01*
X0123245Y0089246D01*
X0118405Y0089246D01*
X0117766Y0088608D01*
X0117766Y0087881D01*
X0111877Y0087881D01*
X0111746Y0087750D01*
X0109432Y0087750D01*
X0108794Y0087112D01*
X0108794Y0084758D01*
X0108525Y0085027D01*
X0106525Y0087027D01*
X0105856Y0087027D01*
X0105856Y0087112D01*
X0105217Y0087750D01*
X0099590Y0087750D01*
X0098951Y0087112D01*
X0098951Y0084043D01*
X0098997Y0083997D01*
X0098841Y0083841D01*
X0098644Y0083499D01*
X0098541Y0083117D01*
X0098541Y0081879D01*
X0102362Y0081879D01*
X0102362Y0081796D01*
X0098541Y0081796D01*
X0098541Y0080557D01*
X0098644Y0080176D01*
X0098753Y0079987D01*
X0092730Y0079987D01*
X0092730Y0080954D01*
X0092091Y0081593D01*
X0087251Y0081593D01*
X0086613Y0080954D01*
X0086613Y0075720D01*
X0087251Y0075082D01*
X0092091Y0075082D01*
X0092730Y0075720D01*
X0092730Y0076207D01*
X0099307Y0076207D01*
X0099590Y0075924D01*
X0105217Y0075924D01*
X0105856Y0076563D01*
X0105856Y0079631D01*
X0105810Y0079677D01*
X0105966Y0079834D01*
X0106135Y0080126D01*
X0106135Y0079137D01*
X0107875Y0077397D01*
X0108865Y0076407D01*
X0108950Y0076407D01*
X0109432Y0075924D01*
X0115060Y0075924D01*
X0115283Y0076147D01*
X0116914Y0076147D01*
X0117682Y0075379D01*
X0118748Y0074937D01*
X0119902Y0074937D01*
X0120968Y0075379D01*
X0121783Y0076195D01*
X0122225Y0077260D01*
X0122225Y0078414D01*
X0121783Y0079480D01*
X0120968Y0080296D01*
X0119902Y0080737D01*
X0118748Y0080737D01*
X0117682Y0080296D01*
X0116914Y0079527D01*
X0115698Y0079527D01*
X0115698Y0079631D01*
X0115060Y0080270D01*
X0109782Y0080270D01*
X0109515Y0080537D01*
X0109515Y0083405D01*
X0115060Y0083405D01*
X0115698Y0084043D01*
X0115698Y0084101D01*
X0117766Y0084101D01*
X0117766Y0083374D01*
X0118405Y0082736D01*
X0121407Y0082736D01*
X0123490Y0080653D01*
X0123490Y0065553D01*
X0122862Y0065553D01*
X0122223Y0064915D01*
X0122223Y0059760D01*
X0122607Y0059376D01*
X0122607Y0047908D01*
X0122584Y0047898D01*
X0121237Y0046551D01*
X0120507Y0044790D01*
X0120507Y0042885D01*
X0121237Y0041124D01*
X0122584Y0039777D01*
X0124345Y0039047D01*
X0126250Y0039047D01*
X0128011Y0039777D01*
X0129358Y0041124D01*
X0130087Y0042885D01*
X0130087Y0044790D01*
X0129358Y0046551D01*
X0128011Y0047898D01*
X0127987Y0047908D01*
X0127987Y0059210D01*
X0128537Y0059760D01*
X0128537Y0064915D01*
X0127898Y0065553D01*
X0127270Y0065553D01*
X0127270Y0081892D01*
X0127315Y0081937D01*
X0128402Y0081937D01*
X0129468Y0082379D01*
X0130035Y0082946D01*
X0130035Y0078881D01*
X0129851Y0078697D01*
X0129409Y0077631D01*
X0129409Y0076477D01*
X0129851Y0075411D01*
X0130019Y0075243D01*
X0130019Y0073373D01*
X0129851Y0073204D01*
X0129409Y0072139D01*
X0129409Y0070985D01*
X0129851Y0069919D01*
X0130035Y0069735D01*
X0130035Y0065553D01*
X0129751Y0065553D01*
X0129113Y0064915D01*
X0129113Y0059760D01*
X0129751Y0059121D01*
X0134788Y0059121D01*
X0135427Y0059760D01*
X0135427Y0059765D01*
X0135697Y0059112D01*
X0136266Y0058543D01*
X0136266Y0048621D01*
X0136250Y0048627D01*
X0134345Y0048627D01*
X0132584Y0047898D01*
X0131237Y0046551D01*
X0130507Y0044790D01*
X0130507Y0042885D01*
X0131237Y0041124D01*
X0132584Y0039777D01*
X0134345Y0039047D01*
X0136250Y0039047D01*
X0138011Y0039777D01*
X0139358Y0041124D01*
X0140087Y0042885D01*
X0140087Y0044790D01*
X0139746Y0045613D01*
X0140046Y0045913D01*
X0140046Y0058543D01*
X0140614Y0059112D01*
X0141045Y0060153D01*
X0141581Y0059617D01*
X0141581Y0040986D01*
X0138252Y0037657D01*
X0138011Y0037898D01*
X0136250Y0038627D01*
X0134345Y0038627D01*
X0132584Y0037898D01*
X0131237Y0036551D01*
X0130507Y0034790D01*
X0130507Y0032885D01*
X0131237Y0031124D01*
X0132584Y0029777D01*
X0134345Y0029047D01*
X0136250Y0029047D01*
X0138011Y0029777D01*
X0139358Y0031124D01*
X0140087Y0032885D01*
X0140087Y0034147D01*
X0144253Y0038313D01*
X0145361Y0039421D01*
X0145361Y0061183D01*
X0140606Y0065937D01*
X0140902Y0065937D01*
X0141968Y0066379D01*
X0142783Y0067195D01*
X0143225Y0068260D01*
X0143225Y0069414D01*
X0142783Y0070480D01*
X0142015Y0071249D01*
X0142015Y0079637D01*
X0146635Y0084257D01*
X0146635Y0083749D01*
X0145866Y0082980D01*
X0145425Y0081914D01*
X0145425Y0080760D01*
X0145866Y0079695D01*
X0146682Y0078879D01*
X0147748Y0078437D01*
X0148902Y0078437D01*
X0149968Y0078879D01*
X0150783Y0079695D01*
X0151225Y0080760D01*
X0151225Y0081914D01*
X0150783Y0082980D01*
X0150071Y0083693D01*
X0155825Y0089447D01*
X0157223Y0088049D01*
X0157223Y0084760D01*
X0157862Y0084121D01*
X0162898Y0084121D01*
X0163537Y0084760D01*
X0163537Y0089915D01*
X0162898Y0090553D01*
X0159499Y0090553D01*
X0158215Y0091837D01*
X0160975Y0094597D01*
X0160975Y0094144D01*
X0161077Y0093762D01*
X0161274Y0093420D01*
X0161553Y0093141D01*
X0161896Y0092943D01*
X0162277Y0092841D01*
X0164148Y0092841D01*
X0166018Y0092841D01*
X0166400Y0092943D01*
X0166742Y0093141D01*
X0167021Y0093420D01*
X0167028Y0093432D01*
X0171325Y0093432D01*
X0171325Y0100337D01*
X0172325Y0100337D01*
X0172325Y0101337D01*
X0171325Y0101337D01*
X0171325Y0100337D01*
X0167345Y0100337D01*
X0167345Y0101337D01*
X0171325Y0101337D01*
X0171325Y0108243D01*
X0166509Y0108243D01*
X0166465Y0108231D01*
X0166272Y0108423D01*
X0164857Y0108423D01*
X0163743Y0109537D01*
X0162753Y0110527D01*
X0155125Y0110527D01*
X0137125Y0092527D01*
X0133873Y0092527D01*
X0132762Y0093639D01*
X0133248Y0093437D01*
X0134402Y0093437D01*
X0135468Y0093879D01*
X0136283Y0094695D01*
X0136725Y0095760D01*
X0136725Y0096914D01*
X0136283Y0097980D01*
X0135715Y0098549D01*
X0135715Y0143554D01*
X0151608Y0159447D01*
X0209542Y0159447D01*
X0211935Y0157054D01*
X0211935Y0154093D01*
X0211751Y0154093D01*
X0211113Y0153454D01*
X0211113Y0148220D01*
X0211751Y0147582D01*
X0216591Y0147582D01*
X0217230Y0148220D01*
X0217230Y0148947D01*
X0220542Y0148947D01*
X0221935Y0147554D01*
X0223042Y0146447D01*
X0242954Y0146447D01*
X0244439Y0147932D01*
X0245093Y0147932D01*
X0245568Y0147333D01*
X0245568Y0147328D01*
X0246002Y0146786D01*
X0246435Y0146239D01*
X0246440Y0146238D01*
X0246518Y0146140D01*
X0246425Y0145914D01*
X0246425Y0144760D01*
X0246866Y0143695D01*
X0247682Y0142879D01*
X0246680Y0144144D02*
X0209923Y0144144D01*
X0209121Y0145142D02*
X0246425Y0145142D01*
X0246518Y0146141D02*
X0202720Y0146141D01*
X0203336Y0145142D02*
X0205529Y0145142D01*
X0205058Y0147582D02*
X0204420Y0148220D01*
X0204420Y0149978D01*
X0199596Y0149978D01*
X0199596Y0149150D01*
X0198958Y0148511D01*
X0195692Y0148511D01*
X0195054Y0149150D01*
X0195054Y0154186D01*
X0195692Y0154825D01*
X0198958Y0154825D01*
X0199596Y0154186D01*
X0199596Y0153358D01*
X0204420Y0153358D01*
X0204420Y0153454D01*
X0205058Y0154093D01*
X0209898Y0154093D01*
X0210537Y0153454D01*
X0210537Y0148220D01*
X0209898Y0147582D01*
X0205058Y0147582D01*
X0204503Y0148138D02*
X0178915Y0148138D01*
X0178915Y0149136D02*
X0195067Y0149136D01*
X0195054Y0150135D02*
X0178915Y0150135D01*
X0178915Y0151133D02*
X0195054Y0151133D01*
X0195054Y0152132D02*
X0178915Y0152132D01*
X0178915Y0153130D02*
X0195054Y0153130D01*
X0195054Y0154129D02*
X0178510Y0154129D01*
X0177819Y0155127D02*
X0211935Y0155127D01*
X0211935Y0154129D02*
X0199596Y0154129D01*
X0199583Y0149136D02*
X0204420Y0149136D01*
X0199410Y0146141D02*
X0195240Y0146141D01*
X0195856Y0145142D02*
X0198794Y0145142D01*
X0198794Y0144144D02*
X0195856Y0144144D01*
X0195856Y0143145D02*
X0198794Y0143145D01*
X0198794Y0142147D02*
X0195856Y0142147D01*
X0195856Y0141148D02*
X0198794Y0141148D01*
X0199132Y0140150D02*
X0195517Y0140150D01*
X0191895Y0139151D02*
X0176715Y0139151D01*
X0176715Y0138153D02*
X0191895Y0138153D01*
X0191895Y0137154D02*
X0176715Y0137154D01*
X0179032Y0136156D02*
X0191895Y0136156D01*
X0191895Y0135157D02*
X0180574Y0135157D01*
X0181573Y0134159D02*
X0191895Y0134159D01*
X0191895Y0133160D02*
X0182571Y0133160D01*
X0183095Y0132162D02*
X0192764Y0132162D01*
X0193763Y0131163D02*
X0183508Y0131163D01*
X0183922Y0130165D02*
X0194761Y0130165D01*
X0195760Y0129166D02*
X0184273Y0129166D01*
X0184273Y0128168D02*
X0196758Y0128168D01*
X0197757Y0127169D02*
X0184273Y0127169D01*
X0184273Y0126171D02*
X0198755Y0126171D01*
X0199754Y0125172D02*
X0184196Y0125172D01*
X0183782Y0124174D02*
X0200752Y0124174D01*
X0201751Y0123175D02*
X0183369Y0123175D01*
X0182955Y0122177D02*
X0202749Y0122177D01*
X0203748Y0121178D02*
X0182874Y0121178D01*
X0183873Y0120180D02*
X0204420Y0120180D01*
X0204420Y0119181D02*
X0184871Y0119181D01*
X0185870Y0118183D02*
X0204420Y0118183D01*
X0204456Y0117184D02*
X0186868Y0117184D01*
X0189653Y0116185D02*
X0205588Y0116185D01*
X0205588Y0115187D02*
X0190436Y0115187D01*
X0190725Y0114188D02*
X0205588Y0114188D01*
X0205588Y0113190D02*
X0190665Y0113190D01*
X0190205Y0112191D02*
X0205588Y0112191D01*
X0205588Y0111193D02*
X0204224Y0111193D01*
X0209368Y0111193D02*
X0220627Y0111193D01*
X0220627Y0112191D02*
X0209368Y0112191D01*
X0209368Y0113190D02*
X0220781Y0113190D01*
X0221195Y0114188D02*
X0209368Y0114188D01*
X0209368Y0115187D02*
X0221609Y0115187D01*
X0222022Y0116185D02*
X0209368Y0116185D01*
X0210500Y0117184D02*
X0211149Y0117184D01*
X0211113Y0118183D02*
X0210537Y0118183D01*
X0210537Y0119181D02*
X0211113Y0119181D01*
X0211113Y0120180D02*
X0210537Y0120180D01*
X0210537Y0121178D02*
X0211113Y0121178D01*
X0211113Y0122177D02*
X0210537Y0122177D01*
X0206531Y0123175D02*
X0219773Y0123175D01*
X0220771Y0124174D02*
X0205532Y0124174D01*
X0204534Y0125172D02*
X0221770Y0125172D01*
X0222768Y0126171D02*
X0203535Y0126171D01*
X0202537Y0127169D02*
X0223767Y0127169D01*
X0224765Y0128168D02*
X0201538Y0128168D01*
X0200540Y0129166D02*
X0225764Y0129166D01*
X0226762Y0130165D02*
X0199541Y0130165D01*
X0198543Y0131163D02*
X0227761Y0131163D01*
X0228759Y0132162D02*
X0197544Y0132162D01*
X0196546Y0133160D02*
X0229758Y0133160D01*
X0230756Y0134159D02*
X0195547Y0134159D01*
X0195275Y0135157D02*
X0231755Y0135157D01*
X0233539Y0132162D02*
X0255966Y0132162D01*
X0256398Y0131163D02*
X0232541Y0131163D01*
X0231542Y0130165D02*
X0257699Y0130165D01*
X0259951Y0130165D02*
X0263435Y0130165D01*
X0263435Y0131163D02*
X0261252Y0131163D01*
X0261684Y0132162D02*
X0263476Y0132162D01*
X0264475Y0133160D02*
X0261725Y0133160D01*
X0262536Y0134159D02*
X0265473Y0134159D01*
X0266472Y0135157D02*
X0263535Y0135157D01*
X0264533Y0136156D02*
X0267470Y0136156D01*
X0268469Y0137154D02*
X0265361Y0137154D01*
X0265361Y0138153D02*
X0270119Y0138153D01*
X0271935Y0139151D02*
X0265361Y0139151D01*
X0266159Y0140150D02*
X0271935Y0140150D01*
X0271935Y0141148D02*
X0266730Y0141148D01*
X0266730Y0142147D02*
X0271935Y0142147D01*
X0271935Y0143145D02*
X0266730Y0143145D01*
X0266730Y0144144D02*
X0271935Y0144144D01*
X0271935Y0145142D02*
X0266730Y0145142D01*
X0266543Y0146141D02*
X0272456Y0146141D01*
X0273454Y0147139D02*
X0265361Y0147139D01*
X0265361Y0148138D02*
X0274453Y0148138D01*
X0273900Y0149136D02*
X0265361Y0149136D01*
X0265361Y0150135D02*
X0270884Y0150135D01*
X0270660Y0151133D02*
X0265361Y0151133D01*
X0265361Y0152132D02*
X0270660Y0152132D01*
X0270660Y0153130D02*
X0264836Y0153130D01*
X0264836Y0154129D02*
X0270660Y0154129D01*
X0270798Y0156126D02*
X0258553Y0156126D01*
X0258440Y0157124D02*
X0259638Y0157124D01*
X0259507Y0158123D02*
X0258143Y0158123D01*
X0258143Y0159121D02*
X0259507Y0159121D01*
X0260090Y0160120D02*
X0257560Y0160120D01*
X0259691Y0162117D02*
X0212218Y0162117D01*
X0211220Y0163116D02*
X0259425Y0163116D01*
X0259508Y0164114D02*
X0114274Y0164114D01*
X0113276Y0163116D02*
X0149930Y0163116D01*
X0148932Y0162117D02*
X0112277Y0162117D01*
X0111279Y0161118D02*
X0147933Y0161118D01*
X0146935Y0160120D02*
X0110280Y0160120D01*
X0109282Y0159121D02*
X0145936Y0159121D01*
X0144938Y0158123D02*
X0108283Y0158123D01*
X0107285Y0157124D02*
X0143939Y0157124D01*
X0142941Y0156126D02*
X0106286Y0156126D01*
X0105288Y0155127D02*
X0141942Y0155127D01*
X0140944Y0154129D02*
X0104289Y0154129D01*
X0103291Y0153130D02*
X0139945Y0153130D01*
X0138947Y0152132D02*
X0102292Y0152132D01*
X0101294Y0151133D02*
X0137948Y0151133D01*
X0136950Y0150135D02*
X0100295Y0150135D01*
X0099297Y0149136D02*
X0135951Y0149136D01*
X0134953Y0148138D02*
X0098298Y0148138D01*
X0098215Y0147139D02*
X0133954Y0147139D01*
X0132956Y0146141D02*
X0098215Y0146141D01*
X0098215Y0145142D02*
X0131957Y0145142D01*
X0131935Y0144144D02*
X0098215Y0144144D01*
X0098215Y0143145D02*
X0131935Y0143145D01*
X0131935Y0142147D02*
X0098215Y0142147D01*
X0098215Y0141148D02*
X0131935Y0141148D01*
X0131935Y0140150D02*
X0098215Y0140150D01*
X0098215Y0139151D02*
X0131935Y0139151D01*
X0131935Y0138153D02*
X0098215Y0138153D01*
X0098215Y0137154D02*
X0131935Y0137154D01*
X0131935Y0136156D02*
X0098215Y0136156D01*
X0098215Y0135157D02*
X0131935Y0135157D01*
X0131935Y0134159D02*
X0098215Y0134159D01*
X0098215Y0133160D02*
X0131935Y0133160D01*
X0131935Y0132162D02*
X0098215Y0132162D01*
X0098215Y0131163D02*
X0131935Y0131163D01*
X0131935Y0130165D02*
X0098215Y0130165D01*
X0098215Y0129166D02*
X0131935Y0129166D01*
X0131935Y0128168D02*
X0098215Y0128168D01*
X0098215Y0127169D02*
X0131935Y0127169D01*
X0131935Y0126171D02*
X0098215Y0126171D01*
X0098215Y0125172D02*
X0131935Y0125172D01*
X0131935Y0124174D02*
X0103727Y0124174D01*
X0104726Y0123175D02*
X0131935Y0123175D01*
X0131935Y0122177D02*
X0105724Y0122177D01*
X0106723Y0121178D02*
X0131935Y0121178D01*
X0131935Y0120180D02*
X0107461Y0120180D01*
X0107461Y0119181D02*
X0131935Y0119181D01*
X0131935Y0118183D02*
X0129081Y0118183D01*
X0129906Y0117184D02*
X0131935Y0117184D01*
X0131935Y0116185D02*
X0130225Y0116185D01*
X0130194Y0115187D02*
X0131935Y0115187D01*
X0131935Y0114188D02*
X0129777Y0114188D01*
X0128512Y0113190D02*
X0131935Y0113190D01*
X0131935Y0112191D02*
X0100368Y0112191D01*
X0100368Y0112582D02*
X0100898Y0112582D01*
X0101537Y0113220D01*
X0101537Y0118454D01*
X0100898Y0119093D01*
X0096058Y0119093D01*
X0095420Y0118454D01*
X0095420Y0113220D01*
X0096058Y0112582D01*
X0096588Y0112582D01*
X0096588Y0109774D01*
X0096542Y0109727D01*
X0094114Y0109727D01*
X0093255Y0111800D01*
X0091288Y0113768D01*
X0088716Y0114833D01*
X0085933Y0114833D01*
X0083362Y0113768D01*
X0081394Y0111800D01*
X0080329Y0109229D01*
X0080329Y0106446D01*
X0081394Y0103875D01*
X0083362Y0101907D01*
X0085933Y0100842D01*
X0088716Y0100842D01*
X0091288Y0101907D01*
X0093255Y0103875D01*
X0094114Y0105947D01*
X0099196Y0105947D01*
X0099420Y0105723D01*
X0099420Y0102720D01*
X0100058Y0102082D01*
X0104898Y0102082D01*
X0105537Y0102720D01*
X0105537Y0107954D01*
X0104898Y0108593D01*
X0101896Y0108593D01*
X0100761Y0109727D01*
X0100368Y0109727D01*
X0100368Y0112582D01*
X0101506Y0113190D02*
X0102143Y0113190D01*
X0102113Y0114188D02*
X0101537Y0114188D01*
X0101537Y0115187D02*
X0102113Y0115187D01*
X0102113Y0116185D02*
X0101537Y0116185D01*
X0101537Y0117184D02*
X0102113Y0117184D01*
X0102113Y0118183D02*
X0101537Y0118183D01*
X0102243Y0119181D02*
X0050115Y0119181D01*
X0050115Y0118183D02*
X0095420Y0118183D01*
X0095420Y0117184D02*
X0050115Y0117184D01*
X0050115Y0116185D02*
X0095420Y0116185D01*
X0095420Y0115187D02*
X0050115Y0115187D01*
X0050537Y0114188D02*
X0051113Y0114188D01*
X0051113Y0114454D02*
X0051113Y0109220D01*
X0051751Y0108582D01*
X0054188Y0108582D01*
X0057510Y0105261D01*
X0056876Y0104627D01*
X0047876Y0104627D01*
X0046535Y0103286D01*
X0040535Y0097286D01*
X0040535Y0091742D01*
X0040208Y0091742D01*
X0039570Y0091104D01*
X0039570Y0086264D01*
X0040208Y0085625D01*
X0045442Y0085625D01*
X0046080Y0086264D01*
X0046080Y0091104D01*
X0045442Y0091742D01*
X0045115Y0091742D01*
X0045115Y0095389D01*
X0049773Y0100047D01*
X0058773Y0100047D01*
X0062023Y0103297D01*
X0062023Y0103297D01*
X0063365Y0104639D01*
X0064360Y0105634D01*
X0066666Y0105634D01*
X0067394Y0103875D01*
X0069362Y0101907D01*
X0071933Y0100842D01*
X0074716Y0100842D01*
X0077288Y0101907D01*
X0079255Y0103875D01*
X0080320Y0106446D01*
X0080320Y0109229D01*
X0079255Y0111800D01*
X0077288Y0113768D01*
X0074716Y0114833D01*
X0071933Y0114833D01*
X0069362Y0113768D01*
X0067394Y0111800D01*
X0066737Y0110214D01*
X0062463Y0110214D01*
X0061122Y0108872D01*
X0060748Y0108499D01*
X0057230Y0112017D01*
X0057230Y0114454D01*
X0056591Y0115093D01*
X0051751Y0115093D01*
X0051113Y0114454D01*
X0051113Y0113190D02*
X0050537Y0113190D01*
X0050537Y0112191D02*
X0051113Y0112191D01*
X0051113Y0111193D02*
X0050537Y0111193D01*
X0050537Y0110194D02*
X0051113Y0110194D01*
X0051137Y0109196D02*
X0050512Y0109196D01*
X0047077Y0108197D02*
X0054573Y0108197D01*
X0055571Y0107199D02*
X0046079Y0107199D01*
X0045080Y0106200D02*
X0056570Y0106200D01*
X0057451Y0105202D02*
X0044082Y0105202D01*
X0043083Y0104203D02*
X0047452Y0104203D01*
X0046454Y0103205D02*
X0042085Y0103205D01*
X0041086Y0102206D02*
X0045455Y0102206D01*
X0044457Y0101208D02*
X0040087Y0101208D01*
X0039089Y0100209D02*
X0043458Y0100209D01*
X0042460Y0099211D02*
X0038090Y0099211D01*
X0037092Y0098212D02*
X0041461Y0098212D01*
X0040535Y0097214D02*
X0036093Y0097214D01*
X0035095Y0096215D02*
X0040535Y0096215D01*
X0040535Y0095217D02*
X0034096Y0095217D01*
X0033098Y0094218D02*
X0040535Y0094218D01*
X0040535Y0093220D02*
X0032768Y0093220D01*
X0032768Y0092221D02*
X0040535Y0092221D01*
X0039688Y0091223D02*
X0032768Y0091223D01*
X0032768Y0090224D02*
X0039570Y0090224D01*
X0039570Y0089226D02*
X0032768Y0089226D01*
X0032768Y0088227D02*
X0039570Y0088227D01*
X0039570Y0087229D02*
X0032768Y0087229D01*
X0032768Y0086230D02*
X0039603Y0086230D01*
X0040208Y0085049D02*
X0039570Y0084411D01*
X0039570Y0079571D01*
X0040208Y0078932D01*
X0040535Y0078932D01*
X0040535Y0076889D01*
X0041876Y0075547D01*
X0041876Y0075547D01*
X0048541Y0068882D01*
X0048113Y0068454D01*
X0048113Y0063220D01*
X0048751Y0062582D01*
X0049035Y0062582D01*
X0049035Y0056127D01*
X0040592Y0056127D01*
X0040592Y0059210D01*
X0039954Y0059849D01*
X0039061Y0059849D01*
X0039061Y0062582D01*
X0039591Y0062582D01*
X0040230Y0063220D01*
X0040230Y0063947D01*
X0041420Y0063947D01*
X0041420Y0063220D01*
X0042058Y0062582D01*
X0046898Y0062582D01*
X0047537Y0063220D01*
X0047537Y0068454D01*
X0046898Y0069093D01*
X0042058Y0069093D01*
X0041420Y0068454D01*
X0041420Y0067727D01*
X0040230Y0067727D01*
X0040230Y0068454D01*
X0039591Y0069093D01*
X0034751Y0069093D01*
X0034113Y0068454D01*
X0034113Y0063220D01*
X0034751Y0062582D01*
X0035281Y0062582D01*
X0035281Y0059849D01*
X0033539Y0059849D01*
X0032900Y0059210D01*
X0032900Y0055945D01*
X0033138Y0055707D01*
X0032900Y0055470D01*
X0032900Y0052205D01*
X0033138Y0051967D01*
X0032900Y0051730D01*
X0032900Y0048465D01*
X0033539Y0047826D01*
X0039954Y0047826D01*
X0040575Y0048447D01*
X0043555Y0048447D01*
X0043866Y0047695D01*
X0044682Y0046879D01*
X0045748Y0046437D01*
X0046902Y0046437D01*
X0047968Y0046879D01*
X0048783Y0047695D01*
X0049035Y0048302D01*
X0049035Y0044389D01*
X0050535Y0042889D01*
X0051876Y0041547D01*
X0053963Y0041547D01*
X0053892Y0041506D01*
X0053613Y0041227D01*
X0053415Y0040885D01*
X0053313Y0040503D01*
X0053313Y0038822D01*
X0056494Y0038822D01*
X0056494Y0037853D01*
X0053313Y0037853D01*
X0053313Y0036171D01*
X0053415Y0035790D01*
X0053613Y0035448D01*
X0053892Y0035169D01*
X0054234Y0034971D01*
X0054616Y0034869D01*
X0056494Y0034869D01*
X0056494Y0037853D01*
X0057463Y0037853D01*
X0057463Y0034869D01*
X0059341Y0034869D01*
X0059723Y0034971D01*
X0060065Y0035169D01*
X0060344Y0035448D01*
X0060542Y0035790D01*
X0060542Y0035791D01*
X0061055Y0035279D01*
X0066288Y0035279D01*
X0066657Y0035647D01*
X0069686Y0035647D01*
X0070208Y0035125D01*
X0075442Y0035125D01*
X0075964Y0035647D01*
X0079211Y0035647D01*
X0082100Y0032758D01*
X0082856Y0032002D01*
X0083845Y0031592D01*
X0091280Y0031592D01*
X0091747Y0031125D01*
X0096902Y0031125D01*
X0097541Y0031764D01*
X0097541Y0033694D01*
X0099494Y0035647D01*
X0100741Y0035647D01*
X0101248Y0035437D01*
X0102402Y0035437D01*
X0103468Y0035879D01*
X0104283Y0036695D01*
X0104725Y0037760D01*
X0104725Y0038914D01*
X0104283Y0039980D01*
X0103468Y0040796D01*
X0102961Y0041006D01*
X0098605Y0045361D01*
X0097849Y0046118D01*
X0097427Y0046293D01*
X0097427Y0046415D01*
X0096788Y0047053D01*
X0091751Y0047053D01*
X0091113Y0046415D01*
X0091113Y0041260D01*
X0091751Y0040621D01*
X0095737Y0040621D01*
X0096298Y0040060D01*
X0096100Y0039861D01*
X0093678Y0037439D01*
X0091747Y0037439D01*
X0091280Y0036972D01*
X0085494Y0036972D01*
X0081849Y0040618D01*
X0080860Y0041027D01*
X0075657Y0041027D01*
X0075442Y0041242D01*
X0070208Y0041242D01*
X0069993Y0041027D01*
X0066657Y0041027D01*
X0066288Y0041396D01*
X0065961Y0041396D01*
X0065961Y0042439D01*
X0062273Y0046127D01*
X0053773Y0046127D01*
X0053615Y0046286D01*
X0053615Y0052446D01*
X0054182Y0051879D01*
X0055248Y0051437D01*
X0056402Y0051437D01*
X0057468Y0051879D01*
X0057920Y0052331D01*
X0057920Y0047220D01*
X0058558Y0046582D01*
X0063398Y0046582D01*
X0064037Y0047220D01*
X0064037Y0052454D01*
X0063398Y0053093D01*
X0062975Y0053093D01*
X0062975Y0056161D01*
X0063505Y0056161D01*
X0064143Y0056799D01*
X0064143Y0063214D01*
X0063505Y0063853D01*
X0058665Y0063853D01*
X0058026Y0063214D01*
X0058026Y0056799D01*
X0058598Y0056227D01*
X0058036Y0056227D01*
X0057468Y0056796D01*
X0056402Y0057237D01*
X0055248Y0057237D01*
X0054182Y0056796D01*
X0053615Y0056229D01*
X0053615Y0062606D01*
X0054230Y0063220D01*
X0054230Y0068454D01*
X0053615Y0069069D01*
X0053615Y0070286D01*
X0045115Y0078786D01*
X0045115Y0078932D01*
X0045442Y0078932D01*
X0046080Y0079571D01*
X0046080Y0084411D01*
X0045442Y0085049D01*
X0040208Y0085049D01*
X0039570Y0084233D02*
X0032768Y0084233D01*
X0032768Y0083235D02*
X0039570Y0083235D01*
X0039570Y0082236D02*
X0032768Y0082236D01*
X0032768Y0081238D02*
X0039570Y0081238D01*
X0039570Y0080239D02*
X0032768Y0080239D01*
X0032768Y0079241D02*
X0039900Y0079241D01*
X0040535Y0078242D02*
X0032768Y0078242D01*
X0032768Y0077244D02*
X0040535Y0077244D01*
X0041179Y0076245D02*
X0032768Y0076245D01*
X0032768Y0075247D02*
X0042177Y0075247D01*
X0043176Y0074248D02*
X0032768Y0074248D01*
X0032768Y0073249D02*
X0044174Y0073249D01*
X0045173Y0072251D02*
X0032768Y0072251D01*
X0032768Y0071252D02*
X0046171Y0071252D01*
X0047170Y0070254D02*
X0032768Y0070254D01*
X0032768Y0069255D02*
X0048168Y0069255D01*
X0048113Y0068257D02*
X0047537Y0068257D01*
X0047537Y0067258D02*
X0048113Y0067258D01*
X0048113Y0066260D02*
X0047537Y0066260D01*
X0047537Y0065261D02*
X0048113Y0065261D01*
X0048113Y0064263D02*
X0047537Y0064263D01*
X0047537Y0063264D02*
X0048113Y0063264D01*
X0049035Y0062266D02*
X0039061Y0062266D01*
X0039061Y0061267D02*
X0049035Y0061267D01*
X0049035Y0060269D02*
X0039061Y0060269D01*
X0040532Y0059270D02*
X0049035Y0059270D01*
X0049035Y0058272D02*
X0040592Y0058272D01*
X0040592Y0057273D02*
X0049035Y0057273D01*
X0049035Y0056275D02*
X0040592Y0056275D01*
X0035281Y0060269D02*
X0026885Y0060269D01*
X0027305Y0059849D02*
X0026215Y0060939D01*
X0026215Y0062626D01*
X0026783Y0063195D01*
X0027225Y0064260D01*
X0027225Y0065414D01*
X0026783Y0066480D01*
X0025968Y0067296D01*
X0024902Y0067737D01*
X0023748Y0067737D01*
X0022682Y0067296D01*
X0021866Y0066480D01*
X0021425Y0065414D01*
X0021425Y0064260D01*
X0021866Y0063195D01*
X0022435Y0062626D01*
X0022435Y0059373D01*
X0023058Y0058751D01*
X0023058Y0055945D01*
X0023696Y0055306D01*
X0030111Y0055306D01*
X0030750Y0055945D01*
X0030750Y0059210D01*
X0030111Y0059849D01*
X0027305Y0059849D01*
X0026215Y0061267D02*
X0035281Y0061267D01*
X0035281Y0062266D02*
X0026215Y0062266D01*
X0026812Y0063264D02*
X0027420Y0063264D01*
X0027420Y0064263D02*
X0027225Y0064263D01*
X0027225Y0065261D02*
X0027420Y0065261D01*
X0027420Y0066260D02*
X0026875Y0066260D01*
X0027420Y0067258D02*
X0026005Y0067258D01*
X0027420Y0068257D02*
X0021483Y0068257D01*
X0020615Y0067258D02*
X0022645Y0067258D01*
X0021775Y0066260D02*
X0020615Y0066260D01*
X0020615Y0065261D02*
X0021425Y0065261D01*
X0021425Y0064263D02*
X0020615Y0064263D01*
X0020615Y0063264D02*
X0021837Y0063264D01*
X0022435Y0062266D02*
X0020615Y0062266D01*
X0020615Y0061267D02*
X0022435Y0061267D01*
X0022435Y0060269D02*
X0020615Y0060269D01*
X0020615Y0059270D02*
X0022538Y0059270D01*
X0023058Y0058272D02*
X0020615Y0058272D01*
X0020615Y0057273D02*
X0023058Y0057273D01*
X0023058Y0056275D02*
X0020615Y0056275D01*
X0020615Y0055276D02*
X0032900Y0055276D01*
X0032900Y0054278D02*
X0020615Y0054278D01*
X0020615Y0053279D02*
X0032900Y0053279D01*
X0032900Y0052281D02*
X0030199Y0052281D01*
X0030750Y0051282D02*
X0032900Y0051282D01*
X0032900Y0050284D02*
X0030750Y0050284D01*
X0030750Y0049285D02*
X0032900Y0049285D01*
X0033078Y0048287D02*
X0030572Y0048287D01*
X0029594Y0047288D02*
X0044273Y0047288D01*
X0043621Y0048287D02*
X0040414Y0048287D01*
X0048377Y0047288D02*
X0049035Y0047288D01*
X0049035Y0046290D02*
X0029594Y0046290D01*
X0029594Y0045291D02*
X0049035Y0045291D01*
X0049131Y0044293D02*
X0029594Y0044293D01*
X0029594Y0043294D02*
X0050130Y0043294D01*
X0051128Y0042296D02*
X0029594Y0042296D01*
X0029594Y0041297D02*
X0053683Y0041297D01*
X0053313Y0040299D02*
X0029594Y0040299D01*
X0029594Y0039300D02*
X0053313Y0039300D01*
X0053313Y0037303D02*
X0051387Y0037303D01*
X0051443Y0037270D02*
X0049384Y0038459D01*
X0047580Y0038459D01*
X0047006Y0038459D01*
X0044947Y0037270D01*
X0043758Y0035211D01*
X0043758Y0032833D01*
X0044947Y0030774D01*
X0047006Y0029585D01*
X0049384Y0029585D01*
X0049384Y0029585D01*
X0051443Y0030774D01*
X0052632Y0032833D01*
X0052632Y0035211D01*
X0051443Y0037270D01*
X0051443Y0037270D01*
X0051443Y0037270D01*
X0052001Y0036305D02*
X0053313Y0036305D01*
X0053755Y0035306D02*
X0052577Y0035306D01*
X0052632Y0034308D02*
X0069966Y0034308D01*
X0070027Y0035306D02*
X0066315Y0035306D01*
X0069570Y0033309D02*
X0052632Y0033309D01*
X0052330Y0032311D02*
X0069570Y0032311D01*
X0069570Y0031312D02*
X0051754Y0031312D01*
X0051443Y0030774D02*
X0051443Y0030774D01*
X0050645Y0030314D02*
X0069570Y0030314D01*
X0069570Y0029315D02*
X0038651Y0029315D01*
X0037653Y0030314D02*
X0045745Y0030314D01*
X0044947Y0030774D02*
X0044947Y0030774D01*
X0044947Y0030774D01*
X0044636Y0031312D02*
X0036654Y0031312D01*
X0035656Y0032311D02*
X0044060Y0032311D01*
X0043758Y0033309D02*
X0034657Y0033309D01*
X0033659Y0034308D02*
X0043758Y0034308D01*
X0043813Y0035306D02*
X0032660Y0035306D01*
X0031662Y0036305D02*
X0044389Y0036305D01*
X0044947Y0037270D02*
X0044947Y0037270D01*
X0044947Y0037270D01*
X0045003Y0037303D02*
X0030663Y0037303D01*
X0029665Y0038302D02*
X0046733Y0038302D01*
X0047006Y0038459D02*
X0047006Y0038459D01*
X0049657Y0038302D02*
X0056494Y0038302D01*
X0056494Y0037303D02*
X0057463Y0037303D01*
X0057463Y0036305D02*
X0056494Y0036305D01*
X0056494Y0035306D02*
X0057463Y0035306D01*
X0060202Y0035306D02*
X0061027Y0035306D01*
X0069735Y0028316D02*
X0039650Y0028316D01*
X0040648Y0027318D02*
X0069735Y0027318D01*
X0069735Y0026319D02*
X0041647Y0026319D01*
X0037034Y0023324D02*
X0027908Y0023324D01*
X0028321Y0024322D02*
X0036036Y0024322D01*
X0035037Y0025321D02*
X0028435Y0025321D01*
X0028435Y0024597D02*
X0027248Y0021730D01*
X0025054Y0019536D01*
X0022187Y0018349D01*
X0019085Y0018349D01*
X0016218Y0019536D01*
X0014024Y0021730D01*
X0012837Y0024597D01*
X0012837Y0027700D01*
X0014024Y0030566D01*
X0016218Y0032760D01*
X0019085Y0033948D01*
X0022187Y0033948D01*
X0025054Y0032760D01*
X0027248Y0030566D01*
X0028435Y0027700D01*
X0028435Y0024597D01*
X0028435Y0026319D02*
X0034039Y0026319D01*
X0033040Y0027318D02*
X0028435Y0027318D01*
X0028180Y0028316D02*
X0032042Y0028316D01*
X0031043Y0029315D02*
X0027766Y0029315D01*
X0027352Y0030314D02*
X0030044Y0030314D01*
X0029046Y0031312D02*
X0026502Y0031312D01*
X0025503Y0032311D02*
X0028047Y0032311D01*
X0027049Y0033309D02*
X0023729Y0033309D01*
X0025052Y0035306D02*
X0010325Y0035306D01*
X0010325Y0034308D02*
X0026050Y0034308D01*
X0024387Y0036305D02*
X0010325Y0036305D01*
X0010325Y0037303D02*
X0024214Y0037303D01*
X0024214Y0042296D02*
X0020615Y0042296D01*
X0020615Y0043294D02*
X0024214Y0043294D01*
X0024214Y0044293D02*
X0020615Y0044293D01*
X0020615Y0045291D02*
X0024214Y0045291D01*
X0024214Y0046290D02*
X0020615Y0046290D01*
X0020615Y0047288D02*
X0024214Y0047288D01*
X0023236Y0048287D02*
X0020615Y0048287D01*
X0020615Y0049285D02*
X0023058Y0049285D01*
X0023058Y0050284D02*
X0020615Y0050284D01*
X0020615Y0051282D02*
X0023058Y0051282D01*
X0023609Y0052281D02*
X0020615Y0052281D01*
X0016035Y0052281D02*
X0010325Y0052281D01*
X0010325Y0053279D02*
X0016035Y0053279D01*
X0016035Y0054278D02*
X0010325Y0054278D01*
X0010325Y0055276D02*
X0016035Y0055276D01*
X0016035Y0056275D02*
X0010325Y0056275D01*
X0010325Y0057273D02*
X0016035Y0057273D01*
X0016035Y0058272D02*
X0010325Y0058272D01*
X0010325Y0059270D02*
X0016035Y0059270D01*
X0016035Y0060269D02*
X0010325Y0060269D01*
X0010325Y0061267D02*
X0016035Y0061267D01*
X0016035Y0062266D02*
X0010325Y0062266D01*
X0010325Y0063264D02*
X0016035Y0063264D01*
X0016035Y0064263D02*
X0010325Y0064263D01*
X0010325Y0065261D02*
X0016035Y0065261D01*
X0016035Y0066260D02*
X0010325Y0066260D01*
X0010325Y0067258D02*
X0016035Y0067258D01*
X0016035Y0068257D02*
X0010325Y0068257D01*
X0010325Y0069255D02*
X0016035Y0069255D01*
X0017003Y0070254D02*
X0010325Y0070254D01*
X0010325Y0071252D02*
X0018002Y0071252D01*
X0019000Y0072251D02*
X0010325Y0072251D01*
X0010325Y0073249D02*
X0019999Y0073249D01*
X0020997Y0074248D02*
X0010325Y0074248D01*
X0010325Y0075247D02*
X0028188Y0075247D01*
X0028188Y0076245D02*
X0010325Y0076245D01*
X0010325Y0077244D02*
X0028188Y0077244D01*
X0028188Y0078242D02*
X0010325Y0078242D01*
X0010325Y0079241D02*
X0016730Y0079241D01*
X0017199Y0079047D02*
X0018813Y0079047D01*
X0020305Y0079664D01*
X0021447Y0080806D01*
X0022065Y0082298D01*
X0022065Y0089849D01*
X0021447Y0091341D01*
X0020305Y0092483D01*
X0019896Y0092652D01*
X0019896Y0109023D01*
X0020305Y0109192D01*
X0021447Y0110334D01*
X0022065Y0111825D01*
X0022065Y0119377D01*
X0021447Y0120869D01*
X0020305Y0122010D01*
X0018813Y0122628D01*
X0017199Y0122628D01*
X0015707Y0122010D01*
X0014565Y0120869D01*
X0013948Y0119377D01*
X0013948Y0111825D01*
X0014565Y0110334D01*
X0015707Y0109192D01*
X0016116Y0109023D01*
X0016116Y0092652D01*
X0015707Y0092483D01*
X0014565Y0091341D01*
X0013948Y0089849D01*
X0013948Y0082298D01*
X0014565Y0080806D01*
X0015707Y0079664D01*
X0017199Y0079047D01*
X0019282Y0079241D02*
X0028188Y0079241D01*
X0028188Y0080239D02*
X0020880Y0080239D01*
X0021625Y0081238D02*
X0028188Y0081238D01*
X0028188Y0082236D02*
X0022039Y0082236D01*
X0022065Y0083235D02*
X0028188Y0083235D01*
X0028188Y0084233D02*
X0022065Y0084233D01*
X0022065Y0085232D02*
X0028188Y0085232D01*
X0028188Y0086230D02*
X0022065Y0086230D01*
X0022065Y0087229D02*
X0028188Y0087229D01*
X0028188Y0088227D02*
X0022065Y0088227D01*
X0022065Y0089226D02*
X0028188Y0089226D01*
X0028188Y0090224D02*
X0021909Y0090224D01*
X0021496Y0091223D02*
X0028188Y0091223D01*
X0028188Y0092221D02*
X0020566Y0092221D01*
X0019896Y0093220D02*
X0028188Y0093220D01*
X0028188Y0094218D02*
X0019896Y0094218D01*
X0019896Y0095217D02*
X0028188Y0095217D01*
X0028618Y0096215D02*
X0019896Y0096215D01*
X0019896Y0097214D02*
X0029616Y0097214D01*
X0030615Y0098212D02*
X0019896Y0098212D01*
X0019896Y0099211D02*
X0031613Y0099211D01*
X0032612Y0100209D02*
X0019896Y0100209D01*
X0019896Y0101208D02*
X0033610Y0101208D01*
X0034609Y0102206D02*
X0019896Y0102206D01*
X0019896Y0103205D02*
X0035607Y0103205D01*
X0036606Y0104203D02*
X0019896Y0104203D01*
X0019896Y0105202D02*
X0037604Y0105202D01*
X0038603Y0106200D02*
X0019896Y0106200D01*
X0019896Y0107199D02*
X0039601Y0107199D01*
X0040600Y0108197D02*
X0019896Y0108197D01*
X0020309Y0109196D02*
X0041598Y0109196D01*
X0042597Y0110194D02*
X0021307Y0110194D01*
X0021803Y0111193D02*
X0043596Y0111193D01*
X0044420Y0112191D02*
X0022065Y0112191D01*
X0022065Y0113190D02*
X0044420Y0113190D01*
X0044420Y0114188D02*
X0022065Y0114188D01*
X0022065Y0115187D02*
X0045535Y0115187D01*
X0045535Y0116185D02*
X0022065Y0116185D01*
X0022065Y0117184D02*
X0045535Y0117184D01*
X0045535Y0118183D02*
X0022065Y0118183D01*
X0022065Y0119181D02*
X0045535Y0119181D01*
X0045535Y0120180D02*
X0021732Y0120180D01*
X0021137Y0121178D02*
X0045535Y0121178D01*
X0046426Y0122177D02*
X0019903Y0122177D01*
X0016109Y0122177D02*
X0010325Y0122177D01*
X0010325Y0123175D02*
X0047424Y0123175D01*
X0048423Y0124174D02*
X0010325Y0124174D01*
X0010325Y0125172D02*
X0094435Y0125172D01*
X0094435Y0126171D02*
X0010325Y0126171D01*
X0010325Y0127169D02*
X0094435Y0127169D01*
X0094435Y0128168D02*
X0010325Y0128168D01*
X0010325Y0129166D02*
X0094435Y0129166D01*
X0094435Y0130165D02*
X0010325Y0130165D01*
X0010325Y0131163D02*
X0094435Y0131163D01*
X0094435Y0132162D02*
X0010325Y0132162D01*
X0010325Y0133160D02*
X0094435Y0133160D01*
X0094435Y0134159D02*
X0010325Y0134159D01*
X0010325Y0135157D02*
X0094435Y0135157D01*
X0094435Y0136156D02*
X0010325Y0136156D01*
X0010325Y0137154D02*
X0094435Y0137154D01*
X0094435Y0138153D02*
X0010325Y0138153D01*
X0010325Y0139151D02*
X0094435Y0139151D01*
X0094435Y0140150D02*
X0010325Y0140150D01*
X0010325Y0141148D02*
X0094435Y0141148D01*
X0094435Y0142147D02*
X0010325Y0142147D01*
X0010325Y0143145D02*
X0094435Y0143145D01*
X0094435Y0144144D02*
X0010325Y0144144D01*
X0010325Y0145142D02*
X0094435Y0145142D01*
X0094435Y0146141D02*
X0010325Y0146141D01*
X0010325Y0147139D02*
X0094435Y0147139D01*
X0094435Y0148138D02*
X0030465Y0148138D01*
X0029699Y0147696D02*
X0031758Y0148884D01*
X0031758Y0148884D01*
X0031758Y0148884D01*
X0032947Y0150944D01*
X0032947Y0153321D01*
X0031758Y0155381D01*
X0029699Y0156570D01*
X0027654Y0156570D01*
X0028435Y0158455D01*
X0028435Y0161558D01*
X0027248Y0164425D01*
X0025054Y0166618D01*
X0022187Y0167806D01*
X0019085Y0167806D01*
X0016218Y0166618D01*
X0014024Y0164425D01*
X0012837Y0161558D01*
X0012837Y0158455D01*
X0014024Y0155589D01*
X0016218Y0153395D01*
X0019085Y0152207D01*
X0022187Y0152207D01*
X0024073Y0152988D01*
X0024073Y0150944D01*
X0025262Y0148884D01*
X0027321Y0147696D01*
X0029699Y0147696D01*
X0031903Y0149136D02*
X0094435Y0149136D01*
X0094950Y0150135D02*
X0032480Y0150135D01*
X0032947Y0151133D02*
X0095948Y0151133D01*
X0096947Y0152132D02*
X0032947Y0152132D01*
X0032947Y0153130D02*
X0083785Y0153130D01*
X0083147Y0153395D02*
X0086014Y0152207D01*
X0089116Y0152207D01*
X0091983Y0153395D01*
X0094177Y0155589D01*
X0095364Y0158455D01*
X0095364Y0161558D01*
X0094177Y0164425D01*
X0091983Y0166618D01*
X0089116Y0167806D01*
X0086014Y0167806D01*
X0083147Y0166618D01*
X0080953Y0164425D01*
X0079766Y0161558D01*
X0079766Y0158455D01*
X0080953Y0155589D01*
X0083147Y0153395D01*
X0082413Y0154129D02*
X0032481Y0154129D01*
X0031904Y0155127D02*
X0081415Y0155127D01*
X0080731Y0156126D02*
X0030467Y0156126D01*
X0031758Y0155381D02*
X0031758Y0155381D01*
X0031758Y0155381D01*
X0027884Y0157124D02*
X0044231Y0157124D01*
X0043733Y0158123D02*
X0028297Y0158123D01*
X0028435Y0159121D02*
X0043758Y0159121D01*
X0043758Y0160120D02*
X0028435Y0160120D01*
X0028435Y0161118D02*
X0043758Y0161118D01*
X0043758Y0162117D02*
X0028204Y0162117D01*
X0027790Y0163116D02*
X0043758Y0163116D01*
X0043758Y0164114D02*
X0027376Y0164114D01*
X0026560Y0165113D02*
X0043758Y0165113D01*
X0043758Y0166111D02*
X0025561Y0166111D01*
X0023868Y0167110D02*
X0043758Y0167110D01*
X0043758Y0168108D02*
X0010325Y0168108D01*
X0010325Y0167110D02*
X0017404Y0167110D01*
X0015711Y0166111D02*
X0010325Y0166111D01*
X0010325Y0165113D02*
X0014712Y0165113D01*
X0013895Y0164114D02*
X0010325Y0164114D01*
X0010325Y0163116D02*
X0013482Y0163116D01*
X0013068Y0162117D02*
X0010325Y0162117D01*
X0010325Y0161118D02*
X0012837Y0161118D01*
X0012837Y0160120D02*
X0010325Y0160120D01*
X0010325Y0159121D02*
X0012837Y0159121D01*
X0012974Y0158123D02*
X0010325Y0158123D01*
X0010325Y0157124D02*
X0013388Y0157124D01*
X0013802Y0156126D02*
X0010325Y0156126D01*
X0010325Y0155127D02*
X0014485Y0155127D01*
X0015484Y0154129D02*
X0010325Y0154129D01*
X0010325Y0153130D02*
X0016856Y0153130D01*
X0010325Y0152132D02*
X0024073Y0152132D01*
X0024073Y0151133D02*
X0010325Y0151133D01*
X0010325Y0150135D02*
X0024540Y0150135D01*
X0025116Y0149136D02*
X0010325Y0149136D01*
X0010325Y0148138D02*
X0026555Y0148138D01*
X0025262Y0148884D02*
X0025262Y0148884D01*
X0025262Y0148884D01*
X0010325Y0169107D02*
X0043758Y0169107D01*
X0043758Y0170105D02*
X0010325Y0170105D01*
X0071156Y0170105D02*
X0302601Y0170105D01*
X0302601Y0169107D02*
X0071156Y0169107D01*
X0071156Y0168108D02*
X0112923Y0168108D01*
X0111924Y0167110D02*
X0090797Y0167110D01*
X0092490Y0166111D02*
X0110926Y0166111D01*
X0109927Y0165113D02*
X0093489Y0165113D01*
X0094306Y0164114D02*
X0108929Y0164114D01*
X0107930Y0163116D02*
X0094719Y0163116D01*
X0095133Y0162117D02*
X0106932Y0162117D01*
X0105933Y0161118D02*
X0095364Y0161118D01*
X0095364Y0160120D02*
X0104935Y0160120D01*
X0103936Y0159121D02*
X0095364Y0159121D01*
X0095227Y0158123D02*
X0102938Y0158123D01*
X0101939Y0157124D02*
X0094813Y0157124D01*
X0094399Y0156126D02*
X0100941Y0156126D01*
X0099942Y0155127D02*
X0093716Y0155127D01*
X0092717Y0154129D02*
X0098944Y0154129D01*
X0097945Y0153130D02*
X0091345Y0153130D01*
X0080317Y0157124D02*
X0070896Y0157124D01*
X0071156Y0158123D02*
X0079903Y0158123D01*
X0079766Y0159121D02*
X0071156Y0159121D01*
X0071156Y0160120D02*
X0079766Y0160120D01*
X0079766Y0161118D02*
X0071156Y0161118D01*
X0071156Y0162117D02*
X0079997Y0162117D01*
X0080411Y0163116D02*
X0071156Y0163116D01*
X0071156Y0164114D02*
X0080825Y0164114D01*
X0081641Y0165113D02*
X0071156Y0165113D01*
X0071156Y0166111D02*
X0082640Y0166111D01*
X0084333Y0167110D02*
X0071156Y0167110D01*
X0135715Y0143145D02*
X0162233Y0143145D01*
X0162935Y0142147D02*
X0135715Y0142147D01*
X0135715Y0141148D02*
X0162463Y0141148D01*
X0161464Y0140150D02*
X0135715Y0140150D01*
X0135715Y0139151D02*
X0160466Y0139151D01*
X0159467Y0138153D02*
X0135715Y0138153D01*
X0135715Y0137154D02*
X0158469Y0137154D01*
X0157470Y0136156D02*
X0135715Y0136156D01*
X0135715Y0135157D02*
X0156472Y0135157D01*
X0155935Y0134159D02*
X0135715Y0134159D01*
X0135715Y0133160D02*
X0155935Y0133160D01*
X0155935Y0132162D02*
X0135715Y0132162D01*
X0135715Y0131163D02*
X0155935Y0131163D01*
X0155935Y0130165D02*
X0135715Y0130165D01*
X0135715Y0129166D02*
X0155935Y0129166D01*
X0155935Y0128168D02*
X0135715Y0128168D01*
X0135715Y0127169D02*
X0155935Y0127169D01*
X0155935Y0126171D02*
X0135715Y0126171D01*
X0135715Y0125172D02*
X0155935Y0125172D01*
X0155935Y0124174D02*
X0135715Y0124174D01*
X0135715Y0123175D02*
X0155935Y0123175D01*
X0155935Y0122177D02*
X0135715Y0122177D01*
X0135715Y0121178D02*
X0156811Y0121178D01*
X0157810Y0120180D02*
X0135715Y0120180D01*
X0135715Y0119181D02*
X0158808Y0119181D01*
X0159807Y0118183D02*
X0135715Y0118183D01*
X0135715Y0117184D02*
X0160805Y0117184D01*
X0161804Y0116185D02*
X0135715Y0116185D01*
X0135715Y0115187D02*
X0162802Y0115187D01*
X0163801Y0114188D02*
X0135715Y0114188D01*
X0135715Y0113190D02*
X0164799Y0113190D01*
X0165798Y0112191D02*
X0135715Y0112191D01*
X0135715Y0111193D02*
X0178296Y0111193D01*
X0179295Y0110194D02*
X0163086Y0110194D01*
X0164085Y0109196D02*
X0180293Y0109196D01*
X0179502Y0106743D02*
X0181230Y0106743D01*
X0183325Y0108837D01*
X0185902Y0110194D02*
X0186235Y0110194D01*
X0186225Y0109196D02*
X0186235Y0109196D01*
X0186199Y0108197D02*
X0186235Y0108197D01*
X0186235Y0107199D02*
X0185785Y0107199D01*
X0187825Y0106337D02*
X0186262Y0104774D01*
X0179502Y0104774D01*
X0179502Y0102806D02*
X0198931Y0102806D01*
X0200900Y0100837D01*
X0210159Y0106200D02*
X0212299Y0106200D01*
X0211829Y0105202D02*
X0210736Y0105202D01*
X0211048Y0104203D02*
X0211585Y0104203D01*
X0211585Y0103205D02*
X0211316Y0103205D01*
X0209583Y0107199D02*
X0213297Y0107199D01*
X0209368Y0108197D02*
X0220900Y0108197D01*
X0220627Y0109196D02*
X0209368Y0109196D01*
X0209368Y0110194D02*
X0220627Y0110194D01*
X0221314Y0107199D02*
X0217990Y0107199D01*
X0218989Y0106200D02*
X0221728Y0106200D01*
X0222141Y0105202D02*
X0219458Y0105202D01*
X0219702Y0104203D02*
X0223140Y0104203D01*
X0224138Y0103205D02*
X0219702Y0103205D01*
X0219702Y0102206D02*
X0225416Y0102206D01*
X0227827Y0101208D02*
X0219702Y0101208D01*
X0219702Y0100209D02*
X0227205Y0100209D01*
X0224879Y0099211D02*
X0219702Y0099211D01*
X0219702Y0098212D02*
X0223881Y0098212D01*
X0222882Y0097214D02*
X0219702Y0097214D01*
X0219352Y0096215D02*
X0222035Y0096215D01*
X0221621Y0095217D02*
X0218731Y0095217D01*
X0217436Y0094218D02*
X0221207Y0094218D01*
X0220794Y0093220D02*
X0208475Y0093220D01*
X0209434Y0094218D02*
X0213852Y0094218D01*
X0212556Y0095217D02*
X0210011Y0095217D01*
X0210587Y0096215D02*
X0211936Y0096215D01*
X0211585Y0097214D02*
X0210979Y0097214D01*
X0211247Y0098212D02*
X0211585Y0098212D01*
X0207477Y0092221D02*
X0220627Y0092221D01*
X0220627Y0091223D02*
X0205844Y0091223D01*
X0203263Y0090224D02*
X0220627Y0090224D01*
X0220627Y0089226D02*
X0196685Y0089226D01*
X0195687Y0090224D02*
X0198001Y0090224D01*
X0195420Y0091223D02*
X0194688Y0091223D01*
X0193787Y0092221D02*
X0193690Y0092221D01*
X0192789Y0093220D02*
X0192691Y0093220D01*
X0191830Y0094218D02*
X0191693Y0094218D01*
X0191253Y0095217D02*
X0190694Y0095217D01*
X0190677Y0096215D02*
X0189915Y0096215D01*
X0189915Y0097214D02*
X0190285Y0097214D01*
X0190017Y0098212D02*
X0189699Y0098212D01*
X0189750Y0099211D02*
X0188700Y0099211D01*
X0187702Y0100209D02*
X0189699Y0100209D01*
X0189699Y0101208D02*
X0186703Y0101208D01*
X0184825Y0100837D02*
X0188325Y0097337D01*
X0188325Y0095337D01*
X0212325Y0071337D01*
X0212325Y0067892D01*
X0212270Y0067837D01*
X0212270Y0060266D01*
X0212959Y0059577D01*
X0209408Y0060269D02*
X0186146Y0060269D01*
X0187145Y0061267D02*
X0209465Y0061267D01*
X0210680Y0062266D02*
X0188143Y0062266D01*
X0189142Y0063264D02*
X0210680Y0063264D01*
X0210680Y0064263D02*
X0207837Y0064263D01*
X0208026Y0064314D02*
X0208368Y0064511D01*
X0208647Y0064790D01*
X0208845Y0065132D01*
X0208947Y0065514D01*
X0208947Y0067337D01*
X0205880Y0067337D01*
X0205880Y0064211D01*
X0207644Y0064211D01*
X0208026Y0064314D01*
X0208879Y0065261D02*
X0209113Y0065261D01*
X0209113Y0066260D02*
X0208947Y0066260D01*
X0208947Y0067258D02*
X0209113Y0067258D01*
X0209113Y0068257D02*
X0205880Y0068257D01*
X0205880Y0068337D02*
X0208947Y0068337D01*
X0208947Y0070161D01*
X0208845Y0070542D01*
X0208647Y0070884D01*
X0208368Y0071164D01*
X0208026Y0071361D01*
X0207644Y0071463D01*
X0205880Y0071463D01*
X0205880Y0068337D01*
X0205880Y0067337D01*
X0204880Y0067337D01*
X0204880Y0064211D01*
X0203116Y0064211D01*
X0202734Y0064314D01*
X0202392Y0064511D01*
X0202113Y0064790D01*
X0201915Y0065132D01*
X0201813Y0065514D01*
X0201813Y0067337D01*
X0204880Y0067337D01*
X0204880Y0068337D01*
X0201813Y0068337D01*
X0201813Y0070161D01*
X0201915Y0070542D01*
X0202113Y0070884D01*
X0202392Y0071164D01*
X0202734Y0071361D01*
X0203116Y0071463D01*
X0204880Y0071463D01*
X0204880Y0068337D01*
X0205880Y0068337D01*
X0205380Y0067837D02*
X0204691Y0067148D01*
X0204691Y0055837D01*
X0204600Y0056275D02*
X0204782Y0056275D01*
X0204782Y0057273D02*
X0204600Y0057273D01*
X0204600Y0058272D02*
X0204782Y0058272D01*
X0204782Y0055276D02*
X0204600Y0055276D01*
X0204600Y0054278D02*
X0204782Y0054278D01*
X0204782Y0053279D02*
X0204600Y0053279D01*
X0201615Y0053279D02*
X0196773Y0053279D01*
X0197771Y0052281D02*
X0209408Y0052281D01*
X0209408Y0053279D02*
X0207767Y0053279D01*
X0208603Y0054278D02*
X0209956Y0054278D01*
X0209408Y0051282D02*
X0198770Y0051282D01*
X0199769Y0050284D02*
X0209589Y0050284D01*
X0200779Y0054278D02*
X0195774Y0054278D01*
X0200730Y0055276D02*
X0167654Y0055276D01*
X0168652Y0056275D02*
X0200730Y0056275D01*
X0202923Y0064263D02*
X0189515Y0064263D01*
X0189515Y0065261D02*
X0201881Y0065261D01*
X0201813Y0066260D02*
X0189515Y0066260D01*
X0189515Y0067258D02*
X0201813Y0067258D01*
X0201813Y0069255D02*
X0189515Y0069255D01*
X0189515Y0068257D02*
X0204880Y0068257D01*
X0204880Y0069255D02*
X0205880Y0069255D01*
X0205880Y0070254D02*
X0204880Y0070254D01*
X0204880Y0071252D02*
X0205880Y0071252D01*
X0208214Y0071252D02*
X0210161Y0071252D01*
X0209163Y0072251D02*
X0189515Y0072251D01*
X0189515Y0073249D02*
X0208164Y0073249D01*
X0207166Y0074248D02*
X0189515Y0074248D01*
X0189515Y0075247D02*
X0206167Y0075247D01*
X0205169Y0076245D02*
X0189515Y0076245D01*
X0189515Y0077244D02*
X0204170Y0077244D01*
X0203172Y0078242D02*
X0189515Y0078242D01*
X0189515Y0079241D02*
X0202173Y0079241D01*
X0201175Y0080239D02*
X0189515Y0080239D01*
X0189515Y0081238D02*
X0200176Y0081238D01*
X0199178Y0082236D02*
X0189515Y0082236D01*
X0189515Y0083235D02*
X0198179Y0083235D01*
X0197181Y0084233D02*
X0189515Y0084233D01*
X0189515Y0085232D02*
X0196182Y0085232D01*
X0195184Y0086230D02*
X0189515Y0086230D01*
X0189515Y0087229D02*
X0194185Y0087229D01*
X0193186Y0088227D02*
X0188597Y0088227D01*
X0187598Y0089226D02*
X0192188Y0089226D01*
X0191189Y0090224D02*
X0186600Y0090224D01*
X0185601Y0091223D02*
X0190191Y0091223D01*
X0189192Y0092221D02*
X0184603Y0092221D01*
X0183604Y0093220D02*
X0188194Y0093220D01*
X0187195Y0094218D02*
X0182606Y0094218D01*
X0182265Y0095217D02*
X0186735Y0095217D01*
X0186735Y0096215D02*
X0182265Y0096215D01*
X0182265Y0097214D02*
X0186200Y0097214D01*
X0185201Y0098212D02*
X0182265Y0098212D01*
X0182265Y0099211D02*
X0184203Y0099211D01*
X0184825Y0100837D02*
X0179502Y0100837D01*
X0176305Y0101208D02*
X0172325Y0101208D01*
X0172325Y0102206D02*
X0171325Y0102206D01*
X0171325Y0101208D02*
X0167345Y0101208D01*
X0164148Y0100837D02*
X0160825Y0100837D01*
X0159325Y0102837D02*
X0164116Y0102837D01*
X0164148Y0102806D01*
X0164148Y0104774D02*
X0159388Y0104774D01*
X0158325Y0105837D01*
X0157244Y0103146D02*
X0136625Y0082527D01*
X0135635Y0081537D01*
X0135635Y0078749D01*
X0135006Y0078120D01*
X0134768Y0078697D01*
X0134615Y0078849D01*
X0134615Y0089147D01*
X0138525Y0089147D01*
X0139515Y0090137D01*
X0155425Y0106047D01*
X0155425Y0105260D01*
X0155866Y0104195D01*
X0156682Y0103379D01*
X0157244Y0103146D01*
X0157102Y0103205D02*
X0152582Y0103205D01*
X0151584Y0102206D02*
X0156304Y0102206D01*
X0155305Y0101208D02*
X0150585Y0101208D01*
X0149587Y0100209D02*
X0154307Y0100209D01*
X0153308Y0099211D02*
X0148588Y0099211D01*
X0147590Y0098212D02*
X0152310Y0098212D01*
X0151311Y0097214D02*
X0146591Y0097214D01*
X0145593Y0096215D02*
X0150313Y0096215D01*
X0149314Y0095217D02*
X0144594Y0095217D01*
X0143596Y0094218D02*
X0148316Y0094218D01*
X0147317Y0093220D02*
X0142597Y0093220D01*
X0141599Y0092221D02*
X0146319Y0092221D01*
X0145320Y0091223D02*
X0140600Y0091223D01*
X0139602Y0090224D02*
X0144322Y0090224D01*
X0143323Y0089226D02*
X0138603Y0089226D01*
X0141326Y0087229D02*
X0134615Y0087229D01*
X0134615Y0088227D02*
X0142325Y0088227D01*
X0140328Y0086230D02*
X0134615Y0086230D01*
X0134615Y0085232D02*
X0139329Y0085232D01*
X0138331Y0084233D02*
X0134615Y0084233D01*
X0134615Y0083235D02*
X0137332Y0083235D01*
X0136334Y0082236D02*
X0134615Y0082236D01*
X0134615Y0081238D02*
X0135635Y0081238D01*
X0135635Y0080239D02*
X0134615Y0080239D01*
X0134615Y0079241D02*
X0135635Y0079241D01*
X0135128Y0078242D02*
X0134956Y0078242D01*
X0130035Y0079241D02*
X0127270Y0079241D01*
X0127270Y0080239D02*
X0130035Y0080239D01*
X0130035Y0081238D02*
X0127270Y0081238D01*
X0129123Y0082236D02*
X0130035Y0082236D01*
X0129662Y0078242D02*
X0127270Y0078242D01*
X0127270Y0077244D02*
X0129409Y0077244D01*
X0129505Y0076245D02*
X0127270Y0076245D01*
X0127270Y0075247D02*
X0130015Y0075247D01*
X0130019Y0074248D02*
X0127270Y0074248D01*
X0127270Y0073249D02*
X0129896Y0073249D01*
X0129456Y0072251D02*
X0127270Y0072251D01*
X0127270Y0071252D02*
X0129409Y0071252D01*
X0129712Y0070254D02*
X0127270Y0070254D01*
X0127270Y0069255D02*
X0130035Y0069255D01*
X0130035Y0068257D02*
X0127270Y0068257D01*
X0127270Y0067258D02*
X0130035Y0067258D01*
X0130035Y0066260D02*
X0127270Y0066260D01*
X0128190Y0065261D02*
X0129459Y0065261D01*
X0129113Y0064263D02*
X0128537Y0064263D01*
X0128537Y0063264D02*
X0129113Y0063264D01*
X0129113Y0062266D02*
X0128537Y0062266D01*
X0128537Y0061267D02*
X0129113Y0061267D01*
X0129113Y0060269D02*
X0128537Y0060269D01*
X0128047Y0059270D02*
X0129602Y0059270D01*
X0127987Y0058272D02*
X0136266Y0058272D01*
X0136266Y0057273D02*
X0127987Y0057273D01*
X0127987Y0056275D02*
X0136266Y0056275D01*
X0136266Y0055276D02*
X0127987Y0055276D01*
X0127987Y0054278D02*
X0136266Y0054278D01*
X0136266Y0053279D02*
X0127987Y0053279D01*
X0127987Y0052281D02*
X0136266Y0052281D01*
X0136266Y0051282D02*
X0127987Y0051282D01*
X0127987Y0050284D02*
X0136266Y0050284D01*
X0136266Y0049285D02*
X0127987Y0049285D01*
X0127987Y0048287D02*
X0133522Y0048287D01*
X0131974Y0047288D02*
X0128621Y0047288D01*
X0129466Y0046290D02*
X0131129Y0046290D01*
X0130715Y0045291D02*
X0129880Y0045291D01*
X0130087Y0044293D02*
X0130507Y0044293D01*
X0130507Y0043294D02*
X0130087Y0043294D01*
X0129843Y0042296D02*
X0130751Y0042296D01*
X0131165Y0041297D02*
X0129430Y0041297D01*
X0128533Y0040299D02*
X0132062Y0040299D01*
X0133734Y0039300D02*
X0126860Y0039300D01*
X0127036Y0038302D02*
X0133558Y0038302D01*
X0131989Y0037303D02*
X0128606Y0037303D01*
X0129460Y0036305D02*
X0131135Y0036305D01*
X0130721Y0035306D02*
X0129874Y0035306D01*
X0130087Y0034308D02*
X0130507Y0034308D01*
X0130507Y0033309D02*
X0130087Y0033309D01*
X0129850Y0032311D02*
X0130745Y0032311D01*
X0131159Y0031312D02*
X0129436Y0031312D01*
X0128548Y0030314D02*
X0132047Y0030314D01*
X0133698Y0029315D02*
X0128387Y0029315D01*
X0128415Y0028316D02*
X0143615Y0028316D01*
X0143615Y0027318D02*
X0128415Y0027318D01*
X0128041Y0026319D02*
X0143615Y0026319D01*
X0143405Y0025321D02*
X0127178Y0025321D01*
X0126180Y0024322D02*
X0143433Y0024322D01*
X0143847Y0023324D02*
X0125181Y0023324D01*
X0124183Y0022325D02*
X0145105Y0022325D01*
X0147505Y0022325D02*
X0285431Y0022325D01*
X0285018Y0023324D02*
X0182335Y0023324D01*
X0182468Y0023379D02*
X0183283Y0024195D01*
X0183725Y0025260D01*
X0183725Y0026414D01*
X0183283Y0027480D01*
X0182468Y0028296D01*
X0181402Y0028737D01*
X0180248Y0028737D01*
X0179182Y0028296D01*
X0178366Y0027480D01*
X0178325Y0027381D01*
X0177580Y0027381D01*
X0177580Y0027911D01*
X0176942Y0028549D01*
X0171708Y0028549D01*
X0171070Y0027911D01*
X0171070Y0023071D01*
X0171708Y0022432D01*
X0176942Y0022432D01*
X0177580Y0023071D01*
X0177580Y0023601D01*
X0178960Y0023601D01*
X0179182Y0023379D01*
X0180248Y0022937D01*
X0181402Y0022937D01*
X0182468Y0023379D01*
X0183336Y0024322D02*
X0284604Y0024322D01*
X0284490Y0025321D02*
X0183725Y0025321D01*
X0183725Y0026319D02*
X0284490Y0026319D01*
X0284490Y0027318D02*
X0183351Y0027318D01*
X0182418Y0028316D02*
X0284746Y0028316D01*
X0285159Y0029315D02*
X0177131Y0029315D01*
X0177175Y0028316D02*
X0179232Y0028316D01*
X0177580Y0030314D02*
X0281965Y0030314D01*
X0280857Y0031312D02*
X0177580Y0031312D01*
X0177580Y0032311D02*
X0280280Y0032311D01*
X0279978Y0033309D02*
X0177580Y0033309D01*
X0177580Y0034308D02*
X0179675Y0034308D01*
X0185085Y0034308D02*
X0185993Y0034308D01*
X0186003Y0034290D02*
X0186282Y0034011D01*
X0186624Y0033814D01*
X0187005Y0033711D01*
X0188770Y0033711D01*
X0188770Y0036837D01*
X0189770Y0036837D01*
X0189770Y0033711D01*
X0191534Y0033711D01*
X0191916Y0033814D01*
X0192258Y0034011D01*
X0192537Y0034290D01*
X0192734Y0034632D01*
X0192837Y0035014D01*
X0192837Y0036837D01*
X0189770Y0036837D01*
X0189770Y0037837D01*
X0188770Y0037837D01*
X0188770Y0036837D01*
X0185703Y0036837D01*
X0185703Y0035014D01*
X0185805Y0034632D01*
X0186003Y0034290D01*
X0185703Y0035306D02*
X0185537Y0035306D01*
X0185537Y0036305D02*
X0185703Y0036305D01*
X0185537Y0037303D02*
X0188770Y0037303D01*
X0188770Y0037837D02*
X0185703Y0037837D01*
X0185703Y0039661D01*
X0185805Y0040042D01*
X0186003Y0040384D01*
X0186282Y0040664D01*
X0186624Y0040861D01*
X0187005Y0040963D01*
X0188770Y0040963D01*
X0188770Y0037837D01*
X0188770Y0038302D02*
X0189770Y0038302D01*
X0189770Y0039300D02*
X0188770Y0039300D01*
X0188770Y0040299D02*
X0189770Y0040299D01*
X0189770Y0037303D02*
X0281224Y0037303D01*
X0281167Y0037270D02*
X0281167Y0037270D01*
X0280610Y0036305D02*
X0192837Y0036305D01*
X0192837Y0035306D02*
X0280033Y0035306D01*
X0279978Y0034308D02*
X0192547Y0034308D01*
X0189770Y0034308D02*
X0188770Y0034308D01*
X0188770Y0035306D02*
X0189770Y0035306D01*
X0189770Y0036305D02*
X0188770Y0036305D01*
X0185703Y0038302D02*
X0185537Y0038302D01*
X0185537Y0039300D02*
X0185703Y0039300D01*
X0185953Y0040299D02*
X0185153Y0040299D01*
X0192837Y0038302D02*
X0282953Y0038302D01*
X0286081Y0021327D02*
X0123184Y0021327D01*
X0122186Y0020328D02*
X0287080Y0020328D01*
X0288370Y0019330D02*
X0120639Y0019330D01*
X0119437Y0026319D02*
X0097541Y0026319D01*
X0097541Y0027318D02*
X0120436Y0027318D01*
X0121434Y0028316D02*
X0097541Y0028316D01*
X0097541Y0029315D02*
X0113698Y0029315D01*
X0114345Y0029047D02*
X0116250Y0029047D01*
X0118011Y0029777D01*
X0119358Y0031124D01*
X0120087Y0032885D01*
X0120087Y0034790D01*
X0119358Y0036551D01*
X0118011Y0037898D01*
X0116250Y0038627D01*
X0114345Y0038627D01*
X0112584Y0037898D01*
X0111237Y0036551D01*
X0110507Y0034790D01*
X0110507Y0032885D01*
X0111237Y0031124D01*
X0112584Y0029777D01*
X0114345Y0029047D01*
X0116896Y0029315D02*
X0122207Y0029315D01*
X0122047Y0030314D02*
X0118548Y0030314D01*
X0119436Y0031312D02*
X0121159Y0031312D01*
X0120745Y0032311D02*
X0119850Y0032311D01*
X0120087Y0033309D02*
X0120507Y0033309D01*
X0120507Y0034308D02*
X0120087Y0034308D01*
X0119874Y0035306D02*
X0120721Y0035306D01*
X0121135Y0036305D02*
X0119460Y0036305D01*
X0118606Y0037303D02*
X0121989Y0037303D01*
X0123558Y0038302D02*
X0117036Y0038302D01*
X0119449Y0039047D02*
X0120087Y0039686D01*
X0120087Y0047989D01*
X0119449Y0048627D01*
X0117991Y0048627D01*
X0117991Y0053971D01*
X0120191Y0056171D01*
X0120948Y0056928D01*
X0121357Y0057916D01*
X0121357Y0063568D01*
X0121567Y0064075D01*
X0121567Y0065229D01*
X0121357Y0065736D01*
X0121357Y0070478D01*
X0121567Y0070985D01*
X0121567Y0072139D01*
X0121126Y0073204D01*
X0120310Y0074020D01*
X0119244Y0074462D01*
X0118091Y0074462D01*
X0117025Y0074020D01*
X0116209Y0073204D01*
X0115767Y0072139D01*
X0115767Y0070985D01*
X0115977Y0070478D01*
X0115977Y0065736D01*
X0115767Y0065229D01*
X0115767Y0064075D01*
X0115977Y0063568D01*
X0115977Y0059566D01*
X0113021Y0056609D01*
X0112611Y0055620D01*
X0112611Y0048627D01*
X0111146Y0048627D01*
X0110507Y0047989D01*
X0110507Y0039686D01*
X0111146Y0039047D01*
X0119449Y0039047D01*
X0119702Y0039300D02*
X0123734Y0039300D01*
X0122062Y0040299D02*
X0120087Y0040299D01*
X0120087Y0041297D02*
X0121165Y0041297D01*
X0120751Y0042296D02*
X0120087Y0042296D01*
X0120087Y0043294D02*
X0120507Y0043294D01*
X0120507Y0044293D02*
X0120087Y0044293D01*
X0120087Y0045291D02*
X0120715Y0045291D01*
X0121129Y0046290D02*
X0120087Y0046290D01*
X0120087Y0047288D02*
X0121974Y0047288D01*
X0122607Y0048287D02*
X0119789Y0048287D01*
X0117991Y0049285D02*
X0122607Y0049285D01*
X0122607Y0050284D02*
X0117991Y0050284D01*
X0117991Y0051282D02*
X0122607Y0051282D01*
X0122607Y0052281D02*
X0117991Y0052281D01*
X0117991Y0053279D02*
X0122607Y0053279D01*
X0122607Y0054278D02*
X0118298Y0054278D01*
X0119296Y0055276D02*
X0122607Y0055276D01*
X0122607Y0056275D02*
X0120295Y0056275D01*
X0121091Y0057273D02*
X0122607Y0057273D01*
X0122607Y0058272D02*
X0121357Y0058272D01*
X0121357Y0059270D02*
X0122607Y0059270D01*
X0122223Y0060269D02*
X0121357Y0060269D01*
X0121357Y0061267D02*
X0122223Y0061267D01*
X0122223Y0062266D02*
X0121357Y0062266D01*
X0121357Y0063264D02*
X0122223Y0063264D01*
X0122223Y0064263D02*
X0121567Y0064263D01*
X0121554Y0065261D02*
X0122570Y0065261D01*
X0123490Y0066260D02*
X0121357Y0066260D01*
X0121357Y0067258D02*
X0123490Y0067258D01*
X0123490Y0068257D02*
X0121357Y0068257D01*
X0121357Y0069255D02*
X0123490Y0069255D01*
X0123490Y0070254D02*
X0121357Y0070254D01*
X0121567Y0071252D02*
X0123490Y0071252D01*
X0123490Y0072251D02*
X0121521Y0072251D01*
X0121081Y0073249D02*
X0123490Y0073249D01*
X0123490Y0074248D02*
X0119760Y0074248D01*
X0120648Y0075247D02*
X0123490Y0075247D01*
X0123490Y0076245D02*
X0121804Y0076245D01*
X0122218Y0077244D02*
X0123490Y0077244D01*
X0123490Y0078242D02*
X0122225Y0078242D01*
X0121883Y0079241D02*
X0123490Y0079241D01*
X0123490Y0080239D02*
X0121024Y0080239D01*
X0122905Y0081238D02*
X0109515Y0081238D01*
X0109515Y0082236D02*
X0121907Y0082236D01*
X0117906Y0083235D02*
X0109515Y0083235D01*
X0108794Y0085232D02*
X0108321Y0085232D01*
X0108794Y0086230D02*
X0107322Y0086230D01*
X0105739Y0087229D02*
X0108911Y0087229D01*
X0113608Y0088447D02*
X0104042Y0088447D01*
X0102935Y0089554D01*
X0100542Y0091947D01*
X0094114Y0091947D01*
X0093255Y0089875D01*
X0091288Y0087907D01*
X0088716Y0086842D01*
X0085933Y0086842D01*
X0083362Y0087907D01*
X0081394Y0089875D01*
X0080329Y0092446D01*
X0080329Y0095229D01*
X0081394Y0097800D01*
X0083362Y0099768D01*
X0085933Y0100833D01*
X0088716Y0100833D01*
X0091288Y0099768D01*
X0093255Y0097800D01*
X0094114Y0095727D01*
X0099420Y0095727D01*
X0099420Y0098454D01*
X0100058Y0099093D01*
X0104898Y0099093D01*
X0105537Y0098454D01*
X0105537Y0093220D01*
X0105076Y0092759D01*
X0105608Y0092227D01*
X0112042Y0092227D01*
X0113281Y0093467D01*
X0114388Y0094574D01*
X0117766Y0094574D01*
X0117766Y0095301D01*
X0118405Y0095939D01*
X0123245Y0095939D01*
X0123883Y0095301D01*
X0123883Y0090067D01*
X0123245Y0089428D01*
X0118405Y0089428D01*
X0117766Y0090067D01*
X0117766Y0090794D01*
X0115954Y0090794D01*
X0113608Y0088447D01*
X0114386Y0089226D02*
X0118384Y0089226D01*
X0117766Y0090224D02*
X0115385Y0090224D01*
X0113034Y0093220D02*
X0112229Y0093220D01*
X0112230Y0094218D02*
X0114033Y0094218D01*
X0112230Y0095217D02*
X0117766Y0095217D01*
X0121711Y0098212D02*
X0112230Y0098212D01*
X0112230Y0097214D02*
X0122710Y0097214D01*
X0123708Y0096215D02*
X0112230Y0096215D01*
X0111061Y0099211D02*
X0120713Y0099211D01*
X0119714Y0100209D02*
X0111061Y0100209D01*
X0111061Y0101208D02*
X0118716Y0101208D01*
X0117717Y0102206D02*
X0111716Y0102206D01*
X0107281Y0101208D02*
X0089600Y0101208D01*
X0090222Y0100209D02*
X0107281Y0100209D01*
X0107281Y0099211D02*
X0091845Y0099211D01*
X0092843Y0098212D02*
X0099420Y0098212D01*
X0099420Y0097214D02*
X0093498Y0097214D01*
X0093912Y0096215D02*
X0099420Y0096215D01*
X0105537Y0096215D02*
X0106113Y0096215D01*
X0106113Y0095217D02*
X0105537Y0095217D01*
X0105537Y0094218D02*
X0106113Y0094218D01*
X0106114Y0093220D02*
X0105536Y0093220D01*
X0102265Y0090224D02*
X0093400Y0090224D01*
X0093814Y0091223D02*
X0101267Y0091223D01*
X0103264Y0089226D02*
X0092606Y0089226D01*
X0091608Y0088227D02*
X0117766Y0088227D01*
X0123265Y0089226D02*
X0130035Y0089226D01*
X0130035Y0088227D02*
X0123883Y0088227D01*
X0123883Y0087229D02*
X0126115Y0087229D01*
X0125263Y0086230D02*
X0123883Y0086230D01*
X0124257Y0085232D02*
X0124925Y0085232D01*
X0129535Y0087229D02*
X0130035Y0087229D01*
X0129699Y0090224D02*
X0123883Y0090224D01*
X0123883Y0091223D02*
X0128701Y0091223D01*
X0127702Y0092221D02*
X0123883Y0092221D01*
X0123883Y0093220D02*
X0126704Y0093220D01*
X0125705Y0094218D02*
X0123883Y0094218D01*
X0123883Y0095217D02*
X0124707Y0095217D01*
X0128188Y0098212D02*
X0131599Y0098212D01*
X0131935Y0099211D02*
X0127190Y0099211D01*
X0126191Y0100209D02*
X0131935Y0100209D01*
X0131935Y0101208D02*
X0125193Y0101208D01*
X0124194Y0102206D02*
X0131935Y0102206D01*
X0131935Y0103205D02*
X0123196Y0103205D01*
X0122197Y0104203D02*
X0131935Y0104203D01*
X0131935Y0105202D02*
X0121199Y0105202D01*
X0120200Y0106200D02*
X0131935Y0106200D01*
X0131935Y0107199D02*
X0119202Y0107199D01*
X0111987Y0108197D02*
X0131935Y0108197D01*
X0131935Y0109196D02*
X0101293Y0109196D01*
X0100368Y0110194D02*
X0131935Y0110194D01*
X0131935Y0111193D02*
X0100368Y0111193D01*
X0096588Y0111193D02*
X0093507Y0111193D01*
X0093920Y0110194D02*
X0096588Y0110194D01*
X0096588Y0112191D02*
X0092864Y0112191D01*
X0091865Y0113190D02*
X0095450Y0113190D01*
X0095420Y0114188D02*
X0090272Y0114188D01*
X0084378Y0114188D02*
X0076272Y0114188D01*
X0077865Y0113190D02*
X0082784Y0113190D01*
X0081786Y0112191D02*
X0078864Y0112191D01*
X0079507Y0111193D02*
X0081143Y0111193D01*
X0080729Y0110194D02*
X0079920Y0110194D01*
X0080320Y0109196D02*
X0080329Y0109196D01*
X0080320Y0108197D02*
X0080329Y0108197D01*
X0080320Y0107199D02*
X0080329Y0107199D01*
X0080431Y0106200D02*
X0080219Y0106200D01*
X0079805Y0105202D02*
X0080845Y0105202D01*
X0081258Y0104203D02*
X0079392Y0104203D01*
X0078586Y0103205D02*
X0082064Y0103205D01*
X0083063Y0102206D02*
X0077587Y0102206D01*
X0075600Y0101208D02*
X0085050Y0101208D01*
X0084428Y0100209D02*
X0076222Y0100209D01*
X0077288Y0099768D02*
X0074716Y0100833D01*
X0071933Y0100833D01*
X0069362Y0099768D01*
X0067394Y0097800D01*
X0066329Y0095229D01*
X0066329Y0092446D01*
X0067394Y0089875D01*
X0069362Y0087907D01*
X0071933Y0086842D01*
X0071935Y0086842D01*
X0071935Y0081742D01*
X0071208Y0081742D01*
X0070570Y0081104D01*
X0070570Y0076264D01*
X0071208Y0075625D01*
X0076442Y0075625D01*
X0077080Y0076264D01*
X0077080Y0076447D01*
X0079920Y0076447D01*
X0079920Y0075720D01*
X0080558Y0075082D01*
X0081088Y0075082D01*
X0081088Y0070939D01*
X0080247Y0070939D01*
X0079609Y0070301D01*
X0079609Y0065264D01*
X0080247Y0064625D01*
X0085402Y0064625D01*
X0086041Y0065264D01*
X0086041Y0066046D01*
X0105409Y0066046D01*
X0105409Y0065276D01*
X0105851Y0064210D01*
X0106666Y0063395D01*
X0107732Y0062953D01*
X0108886Y0062953D01*
X0109952Y0063395D01*
X0110768Y0064210D01*
X0111209Y0065276D01*
X0111209Y0066430D01*
X0110768Y0067496D01*
X0109952Y0068312D01*
X0108886Y0068753D01*
X0108082Y0068753D01*
X0107009Y0069826D01*
X0086041Y0069826D01*
X0086041Y0070301D01*
X0085402Y0070939D01*
X0084868Y0070939D01*
X0084868Y0075082D01*
X0085398Y0075082D01*
X0086037Y0075720D01*
X0086037Y0080954D01*
X0085398Y0081593D01*
X0080558Y0081593D01*
X0079920Y0080954D01*
X0079920Y0080227D01*
X0077080Y0080227D01*
X0077080Y0081104D01*
X0076442Y0081742D01*
X0075715Y0081742D01*
X0075715Y0087255D01*
X0077288Y0087907D01*
X0079255Y0089875D01*
X0080320Y0092446D01*
X0080320Y0095229D01*
X0079255Y0097800D01*
X0077288Y0099768D01*
X0077845Y0099211D02*
X0082805Y0099211D01*
X0081807Y0098212D02*
X0078843Y0098212D01*
X0079498Y0097214D02*
X0081152Y0097214D01*
X0080738Y0096215D02*
X0079912Y0096215D01*
X0080320Y0095217D02*
X0080329Y0095217D01*
X0080320Y0094218D02*
X0080329Y0094218D01*
X0080320Y0093220D02*
X0080329Y0093220D01*
X0080422Y0092221D02*
X0080227Y0092221D01*
X0079814Y0091223D02*
X0080836Y0091223D01*
X0081250Y0090224D02*
X0079400Y0090224D01*
X0078606Y0089226D02*
X0082043Y0089226D01*
X0083042Y0088227D02*
X0077608Y0088227D01*
X0075715Y0087229D02*
X0084999Y0087229D01*
X0089650Y0087229D02*
X0099068Y0087229D01*
X0098951Y0086230D02*
X0075715Y0086230D01*
X0075715Y0085232D02*
X0098951Y0085232D01*
X0098951Y0084233D02*
X0075715Y0084233D01*
X0075715Y0083235D02*
X0098573Y0083235D01*
X0098541Y0082236D02*
X0075715Y0082236D01*
X0076946Y0081238D02*
X0080203Y0081238D01*
X0079920Y0080239D02*
X0077080Y0080239D01*
X0077062Y0076245D02*
X0079920Y0076245D01*
X0080394Y0075247D02*
X0056589Y0075247D01*
X0055590Y0076245D02*
X0070588Y0076245D01*
X0070570Y0077244D02*
X0054715Y0077244D01*
X0054715Y0077120D02*
X0054715Y0078932D01*
X0055442Y0078932D01*
X0056080Y0079571D01*
X0056080Y0084411D01*
X0055442Y0085049D01*
X0050208Y0085049D01*
X0049570Y0084411D01*
X0049570Y0079571D01*
X0050208Y0078932D01*
X0050935Y0078932D01*
X0050935Y0075554D01*
X0058435Y0068054D01*
X0059542Y0066947D01*
X0061766Y0066947D01*
X0061766Y0065461D01*
X0062405Y0064822D01*
X0067245Y0064822D01*
X0067883Y0065461D01*
X0067883Y0066778D01*
X0071285Y0066778D01*
X0073439Y0068932D01*
X0076442Y0068932D01*
X0077080Y0069571D01*
X0077080Y0074411D01*
X0076442Y0075049D01*
X0071208Y0075049D01*
X0070570Y0074411D01*
X0070570Y0071408D01*
X0069719Y0070558D01*
X0067883Y0070558D01*
X0067883Y0071875D01*
X0067245Y0072514D01*
X0062405Y0072514D01*
X0061766Y0071875D01*
X0061766Y0070727D01*
X0061108Y0070727D01*
X0054715Y0077120D01*
X0054715Y0078242D02*
X0070570Y0078242D01*
X0070570Y0079241D02*
X0055750Y0079241D01*
X0056080Y0080239D02*
X0070570Y0080239D01*
X0070703Y0081238D02*
X0056080Y0081238D01*
X0056080Y0082236D02*
X0071935Y0082236D01*
X0071935Y0083235D02*
X0056080Y0083235D01*
X0056080Y0084233D02*
X0071935Y0084233D01*
X0071935Y0085232D02*
X0055249Y0085232D01*
X0055188Y0085215D02*
X0055569Y0085318D01*
X0055911Y0085515D01*
X0056191Y0085794D01*
X0056388Y0086136D01*
X0056490Y0086518D01*
X0056490Y0088200D01*
X0053309Y0088200D01*
X0053309Y0089168D01*
X0052341Y0089168D01*
X0052341Y0092152D01*
X0050462Y0092152D01*
X0050081Y0092050D01*
X0049739Y0091853D01*
X0049459Y0091573D01*
X0049262Y0091231D01*
X0049160Y0090850D01*
X0049160Y0089168D01*
X0052341Y0089168D01*
X0052341Y0088200D01*
X0049160Y0088200D01*
X0049160Y0086518D01*
X0049262Y0086136D01*
X0049459Y0085794D01*
X0049739Y0085515D01*
X0050081Y0085318D01*
X0050462Y0085215D01*
X0052341Y0085215D01*
X0052341Y0088199D01*
X0053309Y0088199D01*
X0053309Y0085215D01*
X0055188Y0085215D01*
X0056413Y0086230D02*
X0071935Y0086230D01*
X0070999Y0087229D02*
X0056490Y0087229D01*
X0056490Y0089168D02*
X0053309Y0089168D01*
X0053309Y0092152D01*
X0055188Y0092152D01*
X0055569Y0092050D01*
X0055911Y0091853D01*
X0056191Y0091573D01*
X0056388Y0091231D01*
X0056490Y0090850D01*
X0056490Y0089168D01*
X0056490Y0089226D02*
X0068043Y0089226D01*
X0067250Y0090224D02*
X0056490Y0090224D01*
X0056390Y0091223D02*
X0066836Y0091223D01*
X0066422Y0092221D02*
X0045115Y0092221D01*
X0045115Y0093220D02*
X0066329Y0093220D01*
X0066329Y0094218D02*
X0045115Y0094218D01*
X0045115Y0095217D02*
X0066329Y0095217D01*
X0066738Y0096215D02*
X0045941Y0096215D01*
X0046940Y0097214D02*
X0067152Y0097214D01*
X0067807Y0098212D02*
X0047938Y0098212D01*
X0048937Y0099211D02*
X0068805Y0099211D01*
X0070428Y0100209D02*
X0058935Y0100209D01*
X0059934Y0101208D02*
X0071050Y0101208D01*
X0069063Y0102206D02*
X0060932Y0102206D01*
X0061931Y0103205D02*
X0068064Y0103205D01*
X0067258Y0104203D02*
X0062929Y0104203D01*
X0063365Y0104639D02*
X0063365Y0104639D01*
X0063928Y0105202D02*
X0066845Y0105202D01*
X0061445Y0109196D02*
X0060051Y0109196D01*
X0059053Y0110194D02*
X0062443Y0110194D01*
X0058054Y0111193D02*
X0067143Y0111193D01*
X0067786Y0112191D02*
X0057230Y0112191D01*
X0057230Y0113190D02*
X0068784Y0113190D01*
X0070378Y0114188D02*
X0057230Y0114188D01*
X0050906Y0120180D02*
X0101244Y0120180D01*
X0108230Y0118183D02*
X0125569Y0118183D01*
X0126138Y0113190D02*
X0108199Y0113190D01*
X0106356Y0108197D02*
X0105294Y0108197D01*
X0105537Y0107199D02*
X0106113Y0107199D01*
X0106113Y0106200D02*
X0105537Y0106200D01*
X0105537Y0105202D02*
X0106113Y0105202D01*
X0106113Y0104203D02*
X0105537Y0104203D01*
X0105537Y0103205D02*
X0106113Y0103205D01*
X0106627Y0102206D02*
X0105023Y0102206D01*
X0105537Y0098212D02*
X0106113Y0098212D01*
X0106113Y0097214D02*
X0105537Y0097214D01*
X0099934Y0102206D02*
X0091587Y0102206D01*
X0092586Y0103205D02*
X0099420Y0103205D01*
X0099420Y0104203D02*
X0093392Y0104203D01*
X0093805Y0105202D02*
X0099420Y0105202D01*
X0129187Y0097214D02*
X0131049Y0097214D01*
X0130925Y0096215D02*
X0130186Y0096215D01*
X0133181Y0093220D02*
X0137817Y0093220D01*
X0138816Y0094218D02*
X0135807Y0094218D01*
X0136500Y0095217D02*
X0139814Y0095217D01*
X0140813Y0096215D02*
X0136725Y0096215D01*
X0136601Y0097214D02*
X0141811Y0097214D01*
X0142810Y0098212D02*
X0136051Y0098212D01*
X0135715Y0099211D02*
X0143808Y0099211D01*
X0144807Y0100209D02*
X0135715Y0100209D01*
X0135715Y0101208D02*
X0145805Y0101208D01*
X0146804Y0102206D02*
X0135715Y0102206D01*
X0135715Y0103205D02*
X0147802Y0103205D01*
X0148801Y0104203D02*
X0135715Y0104203D01*
X0135715Y0105202D02*
X0149799Y0105202D01*
X0150798Y0106200D02*
X0135715Y0106200D01*
X0135715Y0107199D02*
X0151796Y0107199D01*
X0152795Y0108197D02*
X0135715Y0108197D01*
X0135715Y0109196D02*
X0153793Y0109196D01*
X0154792Y0110194D02*
X0135715Y0110194D01*
X0153581Y0104203D02*
X0155863Y0104203D01*
X0155449Y0105202D02*
X0154579Y0105202D01*
X0160825Y0096837D02*
X0164085Y0096837D01*
X0164148Y0096900D01*
X0164148Y0094932D02*
X0164148Y0092841D01*
X0164148Y0094932D01*
X0164148Y0094932D01*
X0164148Y0094218D02*
X0164148Y0094218D01*
X0164148Y0093220D02*
X0164148Y0093220D01*
X0164624Y0090861D02*
X0164282Y0090664D01*
X0164003Y0090384D01*
X0163805Y0090042D01*
X0163703Y0089661D01*
X0163703Y0087837D01*
X0166770Y0087837D01*
X0166770Y0086837D01*
X0167770Y0086837D01*
X0167770Y0083711D01*
X0169534Y0083711D01*
X0169916Y0083814D01*
X0170258Y0084011D01*
X0170537Y0084290D01*
X0170734Y0084632D01*
X0170837Y0085014D01*
X0170837Y0086837D01*
X0167770Y0086837D01*
X0167770Y0087837D01*
X0170837Y0087837D01*
X0170837Y0089661D01*
X0170734Y0090042D01*
X0170537Y0090384D01*
X0170258Y0090664D01*
X0169916Y0090861D01*
X0169534Y0090963D01*
X0167770Y0090963D01*
X0167770Y0087837D01*
X0166770Y0087837D01*
X0166770Y0090963D01*
X0165005Y0090963D01*
X0164624Y0090861D01*
X0163910Y0090224D02*
X0163228Y0090224D01*
X0163537Y0089226D02*
X0163703Y0089226D01*
X0163703Y0088227D02*
X0163537Y0088227D01*
X0163537Y0087229D02*
X0166770Y0087229D01*
X0166770Y0086837D02*
X0163703Y0086837D01*
X0163703Y0085014D01*
X0163805Y0084632D01*
X0164003Y0084290D01*
X0164282Y0084011D01*
X0164624Y0083814D01*
X0165005Y0083711D01*
X0166770Y0083711D01*
X0166770Y0086837D01*
X0166770Y0086230D02*
X0167770Y0086230D01*
X0167770Y0085232D02*
X0166770Y0085232D01*
X0166770Y0084233D02*
X0167770Y0084233D01*
X0168690Y0082771D02*
X0165891Y0079973D01*
X0164377Y0076316D01*
X0164377Y0076227D01*
X0163730Y0076227D01*
X0163730Y0076954D01*
X0163091Y0077593D01*
X0158251Y0077593D01*
X0157613Y0076954D01*
X0157613Y0071720D01*
X0158251Y0071082D01*
X0163091Y0071082D01*
X0163730Y0071720D01*
X0163730Y0072447D01*
X0164377Y0072447D01*
X0164377Y0072358D01*
X0165891Y0068702D01*
X0168690Y0065904D01*
X0172346Y0064389D01*
X0176304Y0064389D01*
X0179960Y0065904D01*
X0182759Y0068702D01*
X0184273Y0072358D01*
X0184273Y0076316D01*
X0182759Y0079973D01*
X0179960Y0082771D01*
X0176304Y0084286D01*
X0172346Y0084286D01*
X0168690Y0082771D01*
X0168155Y0082236D02*
X0156508Y0082236D01*
X0156725Y0082760D02*
X0156725Y0083914D01*
X0156283Y0084980D01*
X0155468Y0085796D01*
X0154402Y0086237D01*
X0153248Y0086237D01*
X0152182Y0085796D01*
X0151366Y0084980D01*
X0150925Y0083914D01*
X0150925Y0082760D01*
X0151366Y0081695D01*
X0152135Y0080926D01*
X0152135Y0077593D01*
X0151558Y0077593D01*
X0150920Y0076954D01*
X0150920Y0071720D01*
X0151558Y0071082D01*
X0156398Y0071082D01*
X0157037Y0071720D01*
X0157037Y0076954D01*
X0156398Y0077593D01*
X0155515Y0077593D01*
X0155515Y0080926D01*
X0156283Y0081695D01*
X0156725Y0082760D01*
X0156725Y0083235D02*
X0169809Y0083235D01*
X0170480Y0084233D02*
X0172219Y0084233D01*
X0170837Y0085232D02*
X0186135Y0085232D01*
X0186135Y0084233D02*
X0176430Y0084233D01*
X0178841Y0083235D02*
X0186135Y0083235D01*
X0186135Y0082236D02*
X0180495Y0082236D01*
X0181494Y0081238D02*
X0186135Y0081238D01*
X0186135Y0080239D02*
X0182492Y0080239D01*
X0183062Y0079241D02*
X0186135Y0079241D01*
X0186135Y0078242D02*
X0183475Y0078242D01*
X0183889Y0077244D02*
X0186135Y0077244D01*
X0186135Y0076245D02*
X0184273Y0076245D01*
X0184273Y0075247D02*
X0186135Y0075247D01*
X0186135Y0074248D02*
X0184273Y0074248D01*
X0184273Y0073249D02*
X0186135Y0073249D01*
X0186135Y0072251D02*
X0184229Y0072251D01*
X0183815Y0071252D02*
X0186135Y0071252D01*
X0186135Y0070254D02*
X0183401Y0070254D01*
X0182988Y0069255D02*
X0186135Y0069255D01*
X0186135Y0068257D02*
X0182313Y0068257D01*
X0181315Y0067258D02*
X0186135Y0067258D01*
X0186135Y0066260D02*
X0180316Y0066260D01*
X0178410Y0065261D02*
X0186135Y0065261D01*
X0185360Y0064263D02*
X0156442Y0064263D01*
X0155982Y0065261D02*
X0170240Y0065261D01*
X0168333Y0066260D02*
X0141681Y0066260D01*
X0141282Y0065261D02*
X0150471Y0065261D01*
X0150011Y0064263D02*
X0142281Y0064263D01*
X0143279Y0063264D02*
X0150011Y0063264D01*
X0150011Y0062266D02*
X0144278Y0062266D01*
X0145276Y0061267D02*
X0150011Y0061267D01*
X0150011Y0060269D02*
X0145361Y0060269D01*
X0145361Y0059270D02*
X0150504Y0059270D01*
X0149838Y0058272D02*
X0145361Y0058272D01*
X0145361Y0057273D02*
X0149601Y0057273D01*
X0149601Y0056275D02*
X0145361Y0056275D01*
X0141581Y0056275D02*
X0140046Y0056275D01*
X0140046Y0057273D02*
X0141581Y0057273D01*
X0141581Y0058272D02*
X0140046Y0058272D01*
X0140680Y0059270D02*
X0141581Y0059270D01*
X0141581Y0055276D02*
X0140046Y0055276D01*
X0140046Y0054278D02*
X0141581Y0054278D01*
X0141581Y0053279D02*
X0140046Y0053279D01*
X0140046Y0052281D02*
X0141581Y0052281D01*
X0141581Y0051282D02*
X0140046Y0051282D01*
X0140046Y0050284D02*
X0141581Y0050284D01*
X0141581Y0049285D02*
X0140046Y0049285D01*
X0140046Y0048287D02*
X0141581Y0048287D01*
X0141581Y0047288D02*
X0140046Y0047288D01*
X0140046Y0046290D02*
X0141581Y0046290D01*
X0141581Y0045291D02*
X0139880Y0045291D01*
X0140087Y0044293D02*
X0141581Y0044293D01*
X0141581Y0043294D02*
X0140087Y0043294D01*
X0139843Y0042296D02*
X0141581Y0042296D01*
X0141581Y0041297D02*
X0139430Y0041297D01*
X0138533Y0040299D02*
X0140893Y0040299D01*
X0139894Y0039300D02*
X0136860Y0039300D01*
X0137036Y0038302D02*
X0138896Y0038302D01*
X0142245Y0036305D02*
X0143906Y0036305D01*
X0143792Y0035306D02*
X0141246Y0035306D01*
X0140248Y0034308D02*
X0143582Y0034308D01*
X0143615Y0033309D02*
X0140087Y0033309D01*
X0139850Y0032311D02*
X0143615Y0032311D01*
X0143615Y0031312D02*
X0139436Y0031312D01*
X0138548Y0030314D02*
X0143615Y0030314D01*
X0143582Y0029315D02*
X0136896Y0029315D01*
X0148995Y0027318D02*
X0155671Y0027318D01*
X0155435Y0028316D02*
X0149247Y0028316D01*
X0149382Y0029315D02*
X0155336Y0029315D01*
X0154317Y0030314D02*
X0149172Y0030314D01*
X0149172Y0031312D02*
X0153925Y0031312D01*
X0153925Y0032311D02*
X0149172Y0032311D01*
X0149261Y0033309D02*
X0154296Y0033309D01*
X0155211Y0034308D02*
X0149382Y0034308D01*
X0145485Y0038302D02*
X0144242Y0038302D01*
X0144486Y0037303D02*
X0143243Y0037303D01*
X0145240Y0039300D02*
X0146483Y0039300D01*
X0159333Y0030314D02*
X0159570Y0030314D01*
X0159215Y0029315D02*
X0160018Y0029315D01*
X0156670Y0026319D02*
X0148995Y0026319D01*
X0149205Y0025321D02*
X0157668Y0025321D01*
X0158667Y0024322D02*
X0149177Y0024322D01*
X0148763Y0023324D02*
X0159570Y0023324D01*
X0166080Y0023324D02*
X0171070Y0023324D01*
X0171070Y0024322D02*
X0166080Y0024322D01*
X0166080Y0025321D02*
X0171070Y0025321D01*
X0171070Y0026319D02*
X0166080Y0026319D01*
X0166080Y0027318D02*
X0171070Y0027318D01*
X0171475Y0028316D02*
X0165675Y0028316D01*
X0165631Y0029315D02*
X0171518Y0029315D01*
X0171070Y0030314D02*
X0166080Y0030314D01*
X0166080Y0031312D02*
X0171070Y0031312D01*
X0171070Y0032311D02*
X0166080Y0032311D01*
X0166080Y0033309D02*
X0171070Y0033309D01*
X0171070Y0034308D02*
X0166080Y0034308D01*
X0177580Y0023324D02*
X0179315Y0023324D01*
X0135631Y0059270D02*
X0134937Y0059270D01*
X0142810Y0067258D02*
X0167335Y0067258D01*
X0166336Y0068257D02*
X0143223Y0068257D01*
X0143225Y0069255D02*
X0165662Y0069255D01*
X0165248Y0070254D02*
X0142877Y0070254D01*
X0142015Y0071252D02*
X0151388Y0071252D01*
X0150920Y0072251D02*
X0142015Y0072251D01*
X0142015Y0073249D02*
X0150920Y0073249D01*
X0150920Y0074248D02*
X0142015Y0074248D01*
X0142015Y0075247D02*
X0150920Y0075247D01*
X0150920Y0076245D02*
X0142015Y0076245D01*
X0142015Y0077244D02*
X0151209Y0077244D01*
X0152135Y0078242D02*
X0142015Y0078242D01*
X0142015Y0079241D02*
X0146320Y0079241D01*
X0145641Y0080239D02*
X0142617Y0080239D01*
X0143615Y0081238D02*
X0145425Y0081238D01*
X0145558Y0082236D02*
X0144614Y0082236D01*
X0145612Y0083235D02*
X0146121Y0083235D01*
X0146611Y0084233D02*
X0146635Y0084233D01*
X0150611Y0084233D02*
X0151057Y0084233D01*
X0150925Y0083235D02*
X0150529Y0083235D01*
X0151092Y0082236D02*
X0151142Y0082236D01*
X0151225Y0081238D02*
X0151823Y0081238D01*
X0152135Y0080239D02*
X0151009Y0080239D01*
X0150329Y0079241D02*
X0152135Y0079241D01*
X0155515Y0079241D02*
X0165588Y0079241D01*
X0165174Y0078242D02*
X0155515Y0078242D01*
X0156748Y0077244D02*
X0157902Y0077244D01*
X0157613Y0076245D02*
X0157037Y0076245D01*
X0157037Y0075247D02*
X0157613Y0075247D01*
X0157613Y0074248D02*
X0157037Y0074248D01*
X0157037Y0073249D02*
X0157613Y0073249D01*
X0157613Y0072251D02*
X0157037Y0072251D01*
X0156569Y0071252D02*
X0158081Y0071252D01*
X0163262Y0071252D02*
X0164835Y0071252D01*
X0164421Y0072251D02*
X0163730Y0072251D01*
X0163730Y0076245D02*
X0164377Y0076245D01*
X0164761Y0077244D02*
X0163440Y0077244D01*
X0166158Y0080239D02*
X0155515Y0080239D01*
X0155826Y0081238D02*
X0167156Y0081238D01*
X0164060Y0084233D02*
X0163010Y0084233D01*
X0163537Y0085232D02*
X0163703Y0085232D01*
X0163703Y0086230D02*
X0163537Y0086230D01*
X0166770Y0088227D02*
X0167770Y0088227D01*
X0167770Y0087229D02*
X0184815Y0087229D01*
X0183817Y0088227D02*
X0170837Y0088227D01*
X0170837Y0089226D02*
X0182818Y0089226D01*
X0181820Y0090224D02*
X0170629Y0090224D01*
X0167770Y0090224D02*
X0166770Y0090224D01*
X0166770Y0089226D02*
X0167770Y0089226D01*
X0166821Y0093220D02*
X0178824Y0093220D01*
X0179823Y0092221D02*
X0158599Y0092221D01*
X0158830Y0091223D02*
X0180821Y0091223D01*
X0185814Y0086230D02*
X0170837Y0086230D01*
X0161475Y0093220D02*
X0159597Y0093220D01*
X0160596Y0094218D02*
X0160975Y0094218D01*
X0156047Y0089226D02*
X0155603Y0089226D01*
X0154605Y0088227D02*
X0157045Y0088227D01*
X0157223Y0087229D02*
X0153606Y0087229D01*
X0153231Y0086230D02*
X0152608Y0086230D01*
X0151618Y0085232D02*
X0151609Y0085232D01*
X0154419Y0086230D02*
X0157223Y0086230D01*
X0157223Y0085232D02*
X0156032Y0085232D01*
X0156593Y0084233D02*
X0157750Y0084233D01*
X0171325Y0094218D02*
X0172325Y0094218D01*
X0172325Y0095217D02*
X0171325Y0095217D01*
X0171325Y0096215D02*
X0172325Y0096215D01*
X0172325Y0097214D02*
X0171325Y0097214D01*
X0171325Y0098212D02*
X0172325Y0098212D01*
X0172325Y0099211D02*
X0171325Y0099211D01*
X0171325Y0100209D02*
X0172325Y0100209D01*
X0172325Y0103205D02*
X0171325Y0103205D01*
X0171325Y0104203D02*
X0172325Y0104203D01*
X0172325Y0105202D02*
X0171325Y0105202D01*
X0171325Y0106200D02*
X0172325Y0106200D01*
X0172325Y0107199D02*
X0171325Y0107199D01*
X0171325Y0108197D02*
X0172325Y0108197D01*
X0180647Y0114188D02*
X0184925Y0114188D01*
X0184985Y0113190D02*
X0181645Y0113190D01*
X0182644Y0112191D02*
X0185444Y0112191D01*
X0185071Y0111193D02*
X0186235Y0111193D01*
X0187825Y0113912D02*
X0187825Y0106337D01*
X0188938Y0105202D02*
X0190528Y0105202D01*
X0191105Y0106200D02*
X0189415Y0106200D01*
X0189415Y0107199D02*
X0191681Y0107199D01*
X0192531Y0108197D02*
X0189415Y0108197D01*
X0189415Y0109196D02*
X0193530Y0109196D01*
X0194974Y0110194D02*
X0189415Y0110194D01*
X0189415Y0111193D02*
X0197040Y0111193D01*
X0187825Y0113912D02*
X0174325Y0127412D01*
X0174325Y0127337D01*
X0165142Y0131163D02*
X0159715Y0131163D01*
X0159715Y0130165D02*
X0164728Y0130165D01*
X0164377Y0129166D02*
X0159715Y0129166D01*
X0159715Y0128168D02*
X0164377Y0128168D01*
X0164377Y0127169D02*
X0159715Y0127169D01*
X0159715Y0126171D02*
X0164377Y0126171D01*
X0164454Y0125172D02*
X0159715Y0125172D01*
X0159715Y0124174D02*
X0164867Y0124174D01*
X0165281Y0123175D02*
X0160160Y0123175D01*
X0161159Y0122177D02*
X0165695Y0122177D01*
X0166415Y0121178D02*
X0162157Y0121178D01*
X0163156Y0120180D02*
X0167414Y0120180D01*
X0168412Y0119181D02*
X0164154Y0119181D01*
X0165153Y0118183D02*
X0170431Y0118183D01*
X0167150Y0116185D02*
X0183087Y0116185D01*
X0184085Y0115187D02*
X0179648Y0115187D01*
X0182088Y0117184D02*
X0166151Y0117184D01*
X0178219Y0118183D02*
X0181090Y0118183D01*
X0165555Y0132162D02*
X0159715Y0132162D01*
X0159821Y0133160D02*
X0166079Y0133160D01*
X0167077Y0134159D02*
X0160819Y0134159D01*
X0161818Y0135157D02*
X0168076Y0135157D01*
X0169618Y0136156D02*
X0162816Y0136156D01*
X0163815Y0137154D02*
X0172029Y0137154D01*
X0172935Y0138153D02*
X0164813Y0138153D01*
X0165812Y0139151D02*
X0172935Y0139151D01*
X0172935Y0140150D02*
X0166715Y0140150D01*
X0166715Y0141148D02*
X0172935Y0141148D01*
X0172935Y0142147D02*
X0166715Y0142147D01*
X0167417Y0143145D02*
X0172233Y0143145D01*
X0171307Y0144144D02*
X0168343Y0144144D01*
X0168757Y0145142D02*
X0170893Y0145142D01*
X0170735Y0146141D02*
X0168915Y0146141D01*
X0168915Y0147139D02*
X0170735Y0147139D01*
X0170735Y0148138D02*
X0168915Y0148138D01*
X0168915Y0149136D02*
X0170735Y0149136D01*
X0170735Y0150135D02*
X0168915Y0150135D01*
X0168915Y0151133D02*
X0170735Y0151133D01*
X0170735Y0152132D02*
X0168915Y0152132D01*
X0168915Y0153130D02*
X0170735Y0153130D01*
X0171140Y0154129D02*
X0168510Y0154129D01*
X0167819Y0155127D02*
X0171831Y0155127D01*
X0173284Y0156126D02*
X0166366Y0156126D01*
X0163284Y0156126D02*
X0148286Y0156126D01*
X0147288Y0155127D02*
X0161831Y0155127D01*
X0161140Y0154129D02*
X0146289Y0154129D01*
X0145291Y0153130D02*
X0160735Y0153130D01*
X0160735Y0152132D02*
X0144292Y0152132D01*
X0143294Y0151133D02*
X0160735Y0151133D01*
X0160735Y0150135D02*
X0142295Y0150135D01*
X0141297Y0149136D02*
X0160735Y0149136D01*
X0160735Y0148138D02*
X0140298Y0148138D01*
X0139300Y0147139D02*
X0160735Y0147139D01*
X0160735Y0146141D02*
X0138301Y0146141D01*
X0137303Y0145142D02*
X0160893Y0145142D01*
X0161307Y0144144D02*
X0136304Y0144144D01*
X0149285Y0157124D02*
X0211865Y0157124D01*
X0211935Y0156126D02*
X0176366Y0156126D01*
X0178915Y0147139D02*
X0222350Y0147139D01*
X0221352Y0148138D02*
X0217147Y0148138D01*
X0211195Y0148138D02*
X0210454Y0148138D01*
X0210537Y0149136D02*
X0211113Y0149136D01*
X0211113Y0150135D02*
X0210537Y0150135D01*
X0210537Y0151133D02*
X0211113Y0151133D01*
X0211113Y0152132D02*
X0210537Y0152132D01*
X0210537Y0153130D02*
X0211113Y0153130D01*
X0215715Y0154129D02*
X0225603Y0154129D01*
X0225612Y0154093D02*
X0225810Y0153751D01*
X0226089Y0153472D01*
X0226431Y0153274D01*
X0226812Y0153172D01*
X0228494Y0153172D01*
X0228494Y0156353D01*
X0225510Y0156353D01*
X0225510Y0154474D01*
X0225612Y0154093D01*
X0225510Y0155127D02*
X0215715Y0155127D01*
X0215715Y0156126D02*
X0225510Y0156126D01*
X0225510Y0157322D02*
X0228494Y0157322D01*
X0228494Y0160503D01*
X0226812Y0160503D01*
X0226431Y0160400D01*
X0226089Y0160203D01*
X0225810Y0159924D01*
X0225612Y0159582D01*
X0225510Y0159200D01*
X0225510Y0157322D01*
X0225510Y0158123D02*
X0215715Y0158123D01*
X0215715Y0157124D02*
X0228494Y0157124D01*
X0228494Y0157322D02*
X0228494Y0156353D01*
X0229463Y0156353D01*
X0229463Y0157322D01*
X0228494Y0157322D01*
X0228494Y0158123D02*
X0229463Y0158123D01*
X0229463Y0157322D02*
X0229463Y0160503D01*
X0231144Y0160503D01*
X0231526Y0160400D01*
X0231868Y0160203D01*
X0232147Y0159924D01*
X0232345Y0159582D01*
X0232447Y0159200D01*
X0232447Y0157322D01*
X0229463Y0157322D01*
X0229463Y0157124D02*
X0232613Y0157124D01*
X0232447Y0156353D02*
X0229463Y0156353D01*
X0229463Y0153172D01*
X0231144Y0153172D01*
X0231526Y0153274D01*
X0231868Y0153472D01*
X0232147Y0153751D01*
X0232345Y0154093D01*
X0232447Y0154474D01*
X0232447Y0156353D01*
X0232447Y0156126D02*
X0232613Y0156126D01*
X0232613Y0155127D02*
X0232447Y0155127D01*
X0232354Y0154129D02*
X0232704Y0154129D01*
X0229463Y0154129D02*
X0228494Y0154129D01*
X0228494Y0155127D02*
X0229463Y0155127D01*
X0229463Y0156126D02*
X0228494Y0156126D01*
X0228494Y0159121D02*
X0229463Y0159121D01*
X0229463Y0160120D02*
X0228494Y0160120D01*
X0226006Y0160120D02*
X0214215Y0160120D01*
X0213217Y0161118D02*
X0260443Y0161118D01*
X0264207Y0161118D02*
X0279420Y0161118D01*
X0279583Y0162117D02*
X0264958Y0162117D01*
X0264253Y0160120D02*
X0270660Y0160120D01*
X0270660Y0159121D02*
X0264836Y0159121D01*
X0264836Y0158123D02*
X0270660Y0158123D01*
X0270660Y0157124D02*
X0264705Y0157124D01*
X0255478Y0155837D02*
X0255478Y0155837D01*
X0252404Y0155837D01*
X0255478Y0155837D01*
X0252404Y0156126D02*
X0248157Y0156126D01*
X0247944Y0155127D02*
X0252404Y0155127D01*
X0252802Y0154129D02*
X0238638Y0154129D01*
X0238730Y0155127D02*
X0241706Y0155127D01*
X0241570Y0153130D02*
X0217230Y0153130D01*
X0222703Y0152132D02*
X0241570Y0152132D01*
X0241570Y0151133D02*
X0223702Y0151133D01*
X0225510Y0159121D02*
X0215214Y0159121D01*
X0210866Y0158123D02*
X0150283Y0158123D01*
X0151282Y0159121D02*
X0209868Y0159121D01*
X0231951Y0160120D02*
X0241586Y0160120D01*
X0241570Y0159121D02*
X0238730Y0159121D01*
X0232613Y0159121D02*
X0232447Y0159121D01*
X0232447Y0158123D02*
X0232613Y0158123D01*
X0248064Y0160120D02*
X0253397Y0160120D01*
X0252814Y0153130D02*
X0248080Y0153130D01*
X0248080Y0152132D02*
X0252820Y0152132D01*
X0253788Y0151133D02*
X0248080Y0151133D01*
X0248080Y0150135D02*
X0253788Y0150135D01*
X0253788Y0149136D02*
X0248452Y0149136D01*
X0250142Y0148138D02*
X0253788Y0148138D01*
X0253788Y0147139D02*
X0251624Y0147139D01*
X0252131Y0146141D02*
X0253788Y0146141D01*
X0253788Y0145142D02*
X0252225Y0145142D01*
X0251969Y0144144D02*
X0253788Y0144144D01*
X0253920Y0143145D02*
X0251234Y0143145D01*
X0245719Y0147139D02*
X0243646Y0147139D01*
X0267824Y0131163D02*
X0270070Y0131163D01*
X0270070Y0130165D02*
X0267215Y0130165D01*
X0267215Y0129166D02*
X0270070Y0129166D01*
X0270070Y0128168D02*
X0267215Y0128168D01*
X0267215Y0127169D02*
X0270070Y0127169D01*
X0270470Y0126171D02*
X0267215Y0126171D01*
X0267215Y0125172D02*
X0271035Y0125172D01*
X0270109Y0124174D02*
X0267215Y0124174D01*
X0267215Y0123175D02*
X0270109Y0123175D01*
X0270109Y0122177D02*
X0267215Y0122177D01*
X0267215Y0121178D02*
X0270109Y0121178D01*
X0270109Y0120180D02*
X0268156Y0120180D01*
X0269154Y0119181D02*
X0270192Y0119181D01*
X0270153Y0118183D02*
X0279307Y0118183D01*
X0279920Y0117184D02*
X0276541Y0117184D01*
X0276541Y0116185D02*
X0279920Y0116185D01*
X0280453Y0115187D02*
X0276541Y0115187D01*
X0276541Y0114188D02*
X0287381Y0114188D01*
X0287381Y0113190D02*
X0276541Y0113190D01*
X0276358Y0112191D02*
X0287381Y0112191D01*
X0286891Y0111193D02*
X0285759Y0111193D01*
X0286037Y0110194D02*
X0286613Y0110194D01*
X0286613Y0109196D02*
X0286037Y0109196D01*
X0286037Y0108197D02*
X0286613Y0108197D01*
X0286613Y0107199D02*
X0286037Y0107199D01*
X0286037Y0106200D02*
X0286613Y0106200D01*
X0287035Y0105202D02*
X0285479Y0105202D01*
X0287035Y0104203D02*
X0281985Y0104203D01*
X0284457Y0101208D02*
X0277041Y0101208D01*
X0276982Y0103205D02*
X0286454Y0103205D01*
X0285455Y0102206D02*
X0259694Y0102206D01*
X0258696Y0103205D02*
X0270668Y0103205D01*
X0270609Y0104203D02*
X0257697Y0104203D01*
X0256699Y0105202D02*
X0270609Y0105202D01*
X0270168Y0106200D02*
X0255700Y0106200D01*
X0254702Y0107199D02*
X0269170Y0107199D01*
X0268171Y0108197D02*
X0253703Y0108197D01*
X0252705Y0109196D02*
X0267173Y0109196D01*
X0266174Y0110194D02*
X0251706Y0110194D01*
X0250708Y0111193D02*
X0265176Y0111193D01*
X0264177Y0112191D02*
X0249709Y0112191D01*
X0247226Y0108197D02*
X0240249Y0108197D01*
X0239836Y0107199D02*
X0248225Y0107199D01*
X0249223Y0106200D02*
X0239422Y0106200D01*
X0239008Y0105202D02*
X0250222Y0105202D01*
X0251220Y0104203D02*
X0238010Y0104203D01*
X0237011Y0103205D02*
X0252219Y0103205D01*
X0253217Y0102206D02*
X0235734Y0102206D01*
X0233323Y0101208D02*
X0254216Y0101208D01*
X0255214Y0100209D02*
X0233945Y0100209D01*
X0236270Y0099211D02*
X0256213Y0099211D01*
X0257211Y0098212D02*
X0237269Y0098212D01*
X0238267Y0097214D02*
X0258210Y0097214D01*
X0260693Y0101208D02*
X0270609Y0101208D01*
X0270768Y0096215D02*
X0239115Y0096215D01*
X0239529Y0095217D02*
X0302601Y0095217D01*
X0302601Y0096215D02*
X0276882Y0096215D01*
X0295727Y0092221D02*
X0302601Y0092221D01*
X0302601Y0091223D02*
X0297300Y0091223D01*
X0298298Y0090224D02*
X0302601Y0090224D01*
X0302601Y0089226D02*
X0299065Y0089226D01*
X0299479Y0088227D02*
X0302601Y0088227D01*
X0302601Y0087229D02*
X0299892Y0087229D01*
X0300089Y0086230D02*
X0302601Y0086230D01*
X0302601Y0085232D02*
X0300089Y0085232D01*
X0300089Y0084233D02*
X0302601Y0084233D01*
X0302601Y0083235D02*
X0299916Y0083235D01*
X0299502Y0082236D02*
X0302601Y0082236D01*
X0302601Y0081238D02*
X0299089Y0081238D01*
X0298355Y0080239D02*
X0302601Y0080239D01*
X0302601Y0079241D02*
X0297356Y0079241D01*
X0295863Y0078242D02*
X0302601Y0078242D01*
X0302601Y0093220D02*
X0240356Y0093220D01*
X0239942Y0094218D02*
X0302601Y0094218D01*
X0279502Y0108197D02*
X0277041Y0108197D01*
X0276115Y0109196D02*
X0279723Y0109196D01*
X0279723Y0110194D02*
X0276115Y0110194D01*
X0276115Y0111193D02*
X0280001Y0111193D01*
X0285503Y0115187D02*
X0287146Y0115187D01*
X0286613Y0116185D02*
X0286037Y0116185D01*
X0286037Y0117184D02*
X0286613Y0117184D01*
X0286613Y0118183D02*
X0286037Y0118183D01*
X0286037Y0119181D02*
X0286613Y0119181D01*
X0286613Y0120180D02*
X0286037Y0120180D01*
X0285813Y0121178D02*
X0286837Y0121178D01*
X0287675Y0122177D02*
X0280659Y0122177D01*
X0279660Y0123175D02*
X0287675Y0123175D01*
X0287675Y0124174D02*
X0276541Y0124174D01*
X0275615Y0125172D02*
X0287675Y0125172D01*
X0287392Y0126171D02*
X0284257Y0126171D01*
X0284257Y0127169D02*
X0287392Y0127169D01*
X0287392Y0128168D02*
X0284257Y0128168D01*
X0284257Y0129166D02*
X0287392Y0129166D01*
X0287392Y0130165D02*
X0284257Y0130165D01*
X0284257Y0131163D02*
X0287392Y0131163D01*
X0287824Y0132162D02*
X0283826Y0132162D01*
X0282325Y0133837D02*
X0289325Y0133837D01*
X0289825Y0134337D01*
X0289825Y0138499D01*
X0289825Y0138837D01*
X0289325Y0139337D01*
X0289325Y0159337D01*
X0287281Y0154129D02*
X0275990Y0154129D01*
X0275990Y0153130D02*
X0287281Y0153130D01*
X0286330Y0152132D02*
X0285320Y0152132D01*
X0285537Y0151133D02*
X0286113Y0151133D01*
X0286113Y0150135D02*
X0285537Y0150135D01*
X0285537Y0149136D02*
X0286113Y0149136D01*
X0286113Y0148138D02*
X0285537Y0148138D01*
X0285537Y0147139D02*
X0286113Y0147139D01*
X0286732Y0146141D02*
X0285215Y0146141D01*
X0285693Y0145142D02*
X0287380Y0145142D01*
X0287380Y0144144D02*
X0286691Y0144144D01*
X0282344Y0143145D02*
X0275715Y0143145D01*
X0275715Y0142147D02*
X0280487Y0142147D01*
X0279912Y0141148D02*
X0275715Y0141148D01*
X0275715Y0140150D02*
X0279912Y0140150D01*
X0279912Y0139151D02*
X0275715Y0139151D01*
X0276531Y0138153D02*
X0279912Y0138153D01*
X0279912Y0137154D02*
X0276580Y0137154D01*
X0276580Y0136156D02*
X0279912Y0136156D01*
X0280495Y0135157D02*
X0276580Y0135157D01*
X0276580Y0134159D02*
X0280495Y0134159D01*
X0280753Y0133160D02*
X0276477Y0133160D01*
X0276580Y0131163D02*
X0279912Y0131163D01*
X0280344Y0132162D02*
X0268822Y0132162D01*
X0269821Y0133160D02*
X0270173Y0133160D01*
X0263435Y0129166D02*
X0230544Y0129166D01*
X0229545Y0128168D02*
X0263435Y0128168D01*
X0263435Y0127169D02*
X0228547Y0127169D01*
X0227548Y0126171D02*
X0263435Y0126171D01*
X0263435Y0125172D02*
X0240559Y0125172D01*
X0239091Y0125172D02*
X0226550Y0125172D01*
X0225551Y0124174D02*
X0237560Y0124174D01*
X0237033Y0123175D02*
X0224553Y0123175D01*
X0223554Y0122177D02*
X0236925Y0122177D01*
X0237166Y0121178D02*
X0222556Y0121178D01*
X0221557Y0120180D02*
X0227133Y0120180D01*
X0224850Y0119181D02*
X0220559Y0119181D01*
X0219560Y0118183D02*
X0223851Y0118183D01*
X0222853Y0117184D02*
X0217193Y0117184D01*
X0217230Y0122177D02*
X0218774Y0122177D01*
X0234017Y0120180D02*
X0237881Y0120180D01*
X0236300Y0119181D02*
X0257188Y0119181D01*
X0258186Y0118183D02*
X0237299Y0118183D01*
X0238297Y0117184D02*
X0259185Y0117184D01*
X0260183Y0116185D02*
X0239128Y0116185D01*
X0239541Y0115187D02*
X0261182Y0115187D01*
X0262180Y0114188D02*
X0239955Y0114188D01*
X0240368Y0113190D02*
X0263179Y0113190D01*
X0268657Y0114188D02*
X0268801Y0114188D01*
X0269656Y0113190D02*
X0269799Y0113190D01*
X0267802Y0115187D02*
X0267659Y0115187D01*
X0266804Y0116185D02*
X0266660Y0116185D01*
X0265805Y0117184D02*
X0265662Y0117184D01*
X0264807Y0118183D02*
X0264663Y0118183D01*
X0263808Y0119181D02*
X0263665Y0119181D01*
X0263435Y0120180D02*
X0262666Y0120180D01*
X0263435Y0121178D02*
X0261668Y0121178D01*
X0260669Y0122177D02*
X0263435Y0122177D01*
X0263435Y0123175D02*
X0259671Y0123175D01*
X0258672Y0124174D02*
X0263435Y0124174D01*
X0276180Y0126171D02*
X0279912Y0126171D01*
X0278308Y0119181D02*
X0276458Y0119181D01*
X0282325Y0133837D02*
X0282085Y0134077D01*
X0282085Y0138759D01*
X0289565Y0138759D02*
X0289825Y0138499D01*
X0281435Y0144144D02*
X0275804Y0144144D01*
X0276803Y0145142D02*
X0281435Y0145142D01*
X0279842Y0146141D02*
X0277801Y0146141D01*
X0277249Y0151133D02*
X0279223Y0151133D01*
X0279440Y0152132D02*
X0276250Y0152132D01*
X0275852Y0156126D02*
X0280014Y0156126D01*
X0191929Y0146141D02*
X0178915Y0146141D01*
X0178757Y0145142D02*
X0191314Y0145142D01*
X0191314Y0144144D02*
X0178343Y0144144D01*
X0177417Y0143145D02*
X0191314Y0143145D01*
X0191314Y0142147D02*
X0176715Y0142147D01*
X0176715Y0141148D02*
X0191314Y0141148D01*
X0191652Y0140150D02*
X0176715Y0140150D01*
X0197684Y0088227D02*
X0220888Y0088227D01*
X0221302Y0087229D02*
X0198682Y0087229D01*
X0199681Y0086230D02*
X0221715Y0086230D01*
X0221731Y0085232D02*
X0200679Y0085232D01*
X0201678Y0084233D02*
X0220732Y0084233D01*
X0219734Y0083235D02*
X0202676Y0083235D01*
X0203675Y0082236D02*
X0219035Y0082236D01*
X0219035Y0081238D02*
X0204673Y0081238D01*
X0205672Y0080239D02*
X0218142Y0080239D01*
X0218142Y0079241D02*
X0206670Y0079241D01*
X0207669Y0078242D02*
X0218142Y0078242D01*
X0218142Y0077244D02*
X0208667Y0077244D01*
X0209666Y0076245D02*
X0218142Y0076245D01*
X0218142Y0075247D02*
X0210664Y0075247D01*
X0202546Y0071252D02*
X0189515Y0071252D01*
X0189515Y0070254D02*
X0201838Y0070254D01*
X0204880Y0067258D02*
X0205880Y0067258D01*
X0205880Y0066260D02*
X0204880Y0066260D01*
X0204880Y0065261D02*
X0205880Y0065261D01*
X0205880Y0064263D02*
X0204880Y0064263D01*
X0208947Y0069255D02*
X0209113Y0069255D01*
X0209113Y0070254D02*
X0208922Y0070254D01*
X0224214Y0081238D02*
X0227755Y0081238D01*
X0225344Y0082236D02*
X0225212Y0082236D01*
X0184362Y0063264D02*
X0159082Y0063264D01*
X0160069Y0062266D02*
X0183363Y0062266D01*
X0182365Y0061267D02*
X0161068Y0061267D01*
X0156721Y0060269D02*
X0156442Y0060269D01*
X0118002Y0075247D02*
X0092256Y0075247D01*
X0087087Y0075247D02*
X0085563Y0075247D01*
X0086037Y0076245D02*
X0086613Y0076245D01*
X0086613Y0077244D02*
X0086037Y0077244D01*
X0086037Y0078242D02*
X0086613Y0078242D01*
X0086613Y0079241D02*
X0086037Y0079241D01*
X0086037Y0080239D02*
X0086613Y0080239D01*
X0086896Y0081238D02*
X0085754Y0081238D01*
X0092446Y0081238D02*
X0098541Y0081238D01*
X0098627Y0080239D02*
X0092730Y0080239D01*
X0084868Y0074248D02*
X0117575Y0074248D01*
X0116254Y0073249D02*
X0084868Y0073249D01*
X0084868Y0072251D02*
X0115814Y0072251D01*
X0115767Y0071252D02*
X0084868Y0071252D01*
X0086041Y0070254D02*
X0115977Y0070254D01*
X0115977Y0069255D02*
X0107580Y0069255D01*
X0110007Y0068257D02*
X0115977Y0068257D01*
X0115977Y0067258D02*
X0110866Y0067258D01*
X0111209Y0066260D02*
X0115977Y0066260D01*
X0115781Y0065261D02*
X0111203Y0065261D01*
X0110789Y0064263D02*
X0115767Y0064263D01*
X0115977Y0063264D02*
X0109638Y0063264D01*
X0106981Y0063264D02*
X0086422Y0063264D01*
X0086451Y0063157D02*
X0086349Y0063538D01*
X0086151Y0063880D01*
X0085872Y0064160D01*
X0085530Y0064357D01*
X0085148Y0064459D01*
X0083325Y0064459D01*
X0083325Y0061392D01*
X0086451Y0061392D01*
X0086451Y0063157D01*
X0086451Y0062266D02*
X0115977Y0062266D01*
X0115977Y0061267D02*
X0083325Y0061267D01*
X0083325Y0061392D02*
X0083325Y0060392D01*
X0083325Y0057326D01*
X0085148Y0057326D01*
X0085530Y0057428D01*
X0085872Y0057625D01*
X0086151Y0057904D01*
X0086349Y0058247D01*
X0086451Y0058628D01*
X0086451Y0060392D01*
X0083325Y0060392D01*
X0082325Y0060392D01*
X0082325Y0057326D01*
X0080501Y0057326D01*
X0080120Y0057428D01*
X0079778Y0057625D01*
X0079499Y0057904D01*
X0079301Y0058247D01*
X0079199Y0058628D01*
X0079199Y0060392D01*
X0082325Y0060392D01*
X0082325Y0061392D01*
X0079199Y0061392D01*
X0079199Y0063157D01*
X0079301Y0063538D01*
X0079499Y0063880D01*
X0079778Y0064160D01*
X0080120Y0064357D01*
X0080501Y0064459D01*
X0082325Y0064459D01*
X0082325Y0061392D01*
X0083325Y0061392D01*
X0083325Y0062266D02*
X0082325Y0062266D01*
X0082325Y0063264D02*
X0083325Y0063264D01*
X0083325Y0064263D02*
X0082325Y0064263D01*
X0079957Y0064263D02*
X0054230Y0064263D01*
X0054230Y0065261D02*
X0061966Y0065261D01*
X0061766Y0066260D02*
X0054230Y0066260D01*
X0054230Y0067258D02*
X0059231Y0067258D01*
X0058232Y0068257D02*
X0054230Y0068257D01*
X0053615Y0069255D02*
X0057234Y0069255D01*
X0056235Y0070254D02*
X0053615Y0070254D01*
X0052648Y0071252D02*
X0055237Y0071252D01*
X0054238Y0072251D02*
X0051650Y0072251D01*
X0050651Y0073249D02*
X0053240Y0073249D01*
X0052241Y0074248D02*
X0049653Y0074248D01*
X0048654Y0075247D02*
X0051243Y0075247D01*
X0050935Y0076245D02*
X0047656Y0076245D01*
X0046657Y0077244D02*
X0050935Y0077244D01*
X0050935Y0078242D02*
X0045659Y0078242D01*
X0045750Y0079241D02*
X0049900Y0079241D01*
X0049570Y0080239D02*
X0046080Y0080239D01*
X0046080Y0081238D02*
X0049570Y0081238D01*
X0049570Y0082236D02*
X0046080Y0082236D01*
X0046080Y0083235D02*
X0049570Y0083235D01*
X0049570Y0084233D02*
X0046080Y0084233D01*
X0046047Y0086230D02*
X0049237Y0086230D01*
X0049160Y0087229D02*
X0046080Y0087229D01*
X0046080Y0088227D02*
X0052341Y0088227D01*
X0053309Y0088227D02*
X0069042Y0088227D01*
X0053309Y0087229D02*
X0052341Y0087229D01*
X0052341Y0086230D02*
X0053309Y0086230D01*
X0053309Y0085232D02*
X0052341Y0085232D01*
X0050401Y0085232D02*
X0032768Y0085232D01*
X0046080Y0089226D02*
X0049160Y0089226D01*
X0049160Y0090224D02*
X0046080Y0090224D01*
X0045961Y0091223D02*
X0049259Y0091223D01*
X0052341Y0091223D02*
X0053309Y0091223D01*
X0053309Y0090224D02*
X0052341Y0090224D01*
X0052341Y0089226D02*
X0053309Y0089226D01*
X0057587Y0074248D02*
X0070570Y0074248D01*
X0070570Y0073249D02*
X0058586Y0073249D01*
X0059584Y0072251D02*
X0062142Y0072251D01*
X0061766Y0071252D02*
X0060583Y0071252D01*
X0067508Y0072251D02*
X0070570Y0072251D01*
X0070414Y0071252D02*
X0067883Y0071252D01*
X0071765Y0067258D02*
X0079609Y0067258D01*
X0079609Y0066260D02*
X0067883Y0066260D01*
X0067684Y0065261D02*
X0079611Y0065261D01*
X0079228Y0063264D02*
X0071952Y0063264D01*
X0071931Y0063341D02*
X0071734Y0063684D01*
X0071455Y0063963D01*
X0071113Y0064160D01*
X0070731Y0064263D01*
X0069049Y0064263D01*
X0069049Y0060491D01*
X0068081Y0060491D01*
X0068081Y0064263D01*
X0066399Y0064263D01*
X0066018Y0064160D01*
X0065676Y0063963D01*
X0065396Y0063684D01*
X0065199Y0063341D01*
X0065097Y0062960D01*
X0065097Y0060491D01*
X0068081Y0060491D01*
X0068081Y0059522D01*
X0069049Y0059522D01*
X0069049Y0055751D01*
X0070731Y0055751D01*
X0071113Y0055853D01*
X0071455Y0056050D01*
X0071734Y0056330D01*
X0071931Y0056672D01*
X0072034Y0057053D01*
X0072034Y0059522D01*
X0069049Y0059522D01*
X0069049Y0060491D01*
X0072034Y0060491D01*
X0072034Y0062960D01*
X0071931Y0063341D01*
X0072034Y0062266D02*
X0079199Y0062266D01*
X0079199Y0060269D02*
X0069049Y0060269D01*
X0068081Y0060269D02*
X0064143Y0060269D01*
X0064143Y0061267D02*
X0065097Y0061267D01*
X0065097Y0062266D02*
X0064143Y0062266D01*
X0064093Y0063264D02*
X0065178Y0063264D01*
X0068081Y0063264D02*
X0069049Y0063264D01*
X0069049Y0062266D02*
X0068081Y0062266D01*
X0068081Y0061267D02*
X0069049Y0061267D01*
X0068081Y0059522D02*
X0065097Y0059522D01*
X0065097Y0057053D01*
X0065199Y0056672D01*
X0065396Y0056330D01*
X0065676Y0056050D01*
X0066018Y0055853D01*
X0066399Y0055751D01*
X0068081Y0055751D01*
X0068081Y0059522D01*
X0068081Y0059270D02*
X0069049Y0059270D01*
X0069049Y0058272D02*
X0068081Y0058272D01*
X0068081Y0057273D02*
X0069049Y0057273D01*
X0069049Y0056275D02*
X0068081Y0056275D01*
X0065451Y0056275D02*
X0063619Y0056275D01*
X0064143Y0057273D02*
X0065097Y0057273D01*
X0065097Y0058272D02*
X0064143Y0058272D01*
X0064143Y0059270D02*
X0065097Y0059270D01*
X0062975Y0055276D02*
X0083920Y0055276D01*
X0083920Y0055454D02*
X0083920Y0050220D01*
X0084558Y0049582D01*
X0085238Y0049582D01*
X0085357Y0047053D01*
X0084862Y0047053D01*
X0084223Y0046415D01*
X0084223Y0046040D01*
X0083468Y0046796D01*
X0082402Y0047237D01*
X0081248Y0047237D01*
X0080182Y0046796D01*
X0079366Y0045980D01*
X0078925Y0044914D01*
X0078925Y0043760D01*
X0079366Y0042695D01*
X0080182Y0041879D01*
X0081248Y0041437D01*
X0082402Y0041437D01*
X0083468Y0041879D01*
X0083536Y0041947D01*
X0084223Y0041947D01*
X0084223Y0041260D01*
X0084862Y0040621D01*
X0089898Y0040621D01*
X0090537Y0041260D01*
X0090537Y0046415D01*
X0089898Y0047053D01*
X0089141Y0047053D01*
X0089023Y0049582D01*
X0089398Y0049582D01*
X0090037Y0050220D01*
X0090037Y0055454D01*
X0089398Y0056093D01*
X0084558Y0056093D01*
X0083920Y0055454D01*
X0083920Y0054278D02*
X0062975Y0054278D01*
X0062975Y0053279D02*
X0064914Y0053279D01*
X0064782Y0053203D02*
X0064503Y0052924D01*
X0064305Y0052582D01*
X0064203Y0052200D01*
X0064203Y0050322D01*
X0067187Y0050322D01*
X0067187Y0053503D01*
X0065505Y0053503D01*
X0065124Y0053400D01*
X0064782Y0053203D01*
X0064224Y0052281D02*
X0064037Y0052281D01*
X0064037Y0051282D02*
X0064203Y0051282D01*
X0064037Y0050284D02*
X0067187Y0050284D01*
X0067187Y0050322D02*
X0067187Y0049353D01*
X0064203Y0049353D01*
X0064203Y0047474D01*
X0064305Y0047093D01*
X0064503Y0046751D01*
X0064782Y0046472D01*
X0065124Y0046274D01*
X0065505Y0046172D01*
X0067187Y0046172D01*
X0067187Y0049353D01*
X0068156Y0049353D01*
X0068156Y0050322D01*
X0067187Y0050322D01*
X0067187Y0051282D02*
X0068156Y0051282D01*
X0068156Y0050322D02*
X0068156Y0053503D01*
X0069837Y0053503D01*
X0070219Y0053400D01*
X0070561Y0053203D01*
X0070840Y0052924D01*
X0071038Y0052582D01*
X0071140Y0052200D01*
X0071140Y0050322D01*
X0068156Y0050322D01*
X0068156Y0050284D02*
X0083920Y0050284D01*
X0083920Y0051282D02*
X0071140Y0051282D01*
X0071118Y0052281D02*
X0083920Y0052281D01*
X0083920Y0053279D02*
X0070429Y0053279D01*
X0068156Y0053279D02*
X0067187Y0053279D01*
X0067187Y0052281D02*
X0068156Y0052281D01*
X0068156Y0049353D02*
X0071140Y0049353D01*
X0071140Y0047474D01*
X0071038Y0047093D01*
X0070840Y0046751D01*
X0070561Y0046472D01*
X0070219Y0046274D01*
X0069837Y0046172D01*
X0068156Y0046172D01*
X0068156Y0049353D01*
X0068156Y0049285D02*
X0067187Y0049285D01*
X0067187Y0048287D02*
X0068156Y0048287D01*
X0068156Y0047288D02*
X0067187Y0047288D01*
X0067187Y0046290D02*
X0068156Y0046290D01*
X0070246Y0046290D02*
X0079676Y0046290D01*
X0079081Y0045291D02*
X0063110Y0045291D01*
X0064108Y0044293D02*
X0078925Y0044293D01*
X0079118Y0043294D02*
X0065107Y0043294D01*
X0065961Y0042296D02*
X0079765Y0042296D01*
X0082168Y0040299D02*
X0096059Y0040299D01*
X0095539Y0039300D02*
X0083166Y0039300D01*
X0084165Y0038302D02*
X0094540Y0038302D01*
X0091611Y0037303D02*
X0085163Y0037303D01*
X0084223Y0041297D02*
X0066387Y0041297D01*
X0065097Y0046290D02*
X0053615Y0046290D01*
X0053615Y0047288D02*
X0057920Y0047288D01*
X0057920Y0048287D02*
X0053615Y0048287D01*
X0053615Y0049285D02*
X0057920Y0049285D01*
X0057920Y0050284D02*
X0053615Y0050284D01*
X0053615Y0051282D02*
X0057920Y0051282D01*
X0057920Y0052281D02*
X0057870Y0052281D01*
X0053780Y0052281D02*
X0053615Y0052281D01*
X0053615Y0056275D02*
X0053661Y0056275D01*
X0053615Y0057273D02*
X0058026Y0057273D01*
X0058026Y0058272D02*
X0053615Y0058272D01*
X0053615Y0059270D02*
X0058026Y0059270D01*
X0058026Y0060269D02*
X0053615Y0060269D01*
X0053615Y0061267D02*
X0058026Y0061267D01*
X0058026Y0062266D02*
X0053615Y0062266D01*
X0054230Y0063264D02*
X0058077Y0063264D01*
X0057989Y0056275D02*
X0058551Y0056275D01*
X0064037Y0049285D02*
X0064203Y0049285D01*
X0064203Y0048287D02*
X0064037Y0048287D01*
X0064037Y0047288D02*
X0064253Y0047288D01*
X0071090Y0047288D02*
X0085346Y0047288D01*
X0085299Y0048287D02*
X0071140Y0048287D01*
X0071140Y0049285D02*
X0085252Y0049285D01*
X0084223Y0046290D02*
X0083974Y0046290D01*
X0089130Y0047288D02*
X0110507Y0047288D01*
X0110507Y0046290D02*
X0097434Y0046290D01*
X0098675Y0045291D02*
X0110507Y0045291D01*
X0110507Y0044293D02*
X0099674Y0044293D01*
X0100672Y0043294D02*
X0110507Y0043294D01*
X0110507Y0042296D02*
X0101671Y0042296D01*
X0102669Y0041297D02*
X0110507Y0041297D01*
X0110507Y0040299D02*
X0103965Y0040299D01*
X0104565Y0039300D02*
X0110893Y0039300D01*
X0111989Y0037303D02*
X0104535Y0037303D01*
X0104725Y0038302D02*
X0113558Y0038302D01*
X0111135Y0036305D02*
X0103893Y0036305D01*
X0099153Y0035306D02*
X0110721Y0035306D01*
X0110507Y0034308D02*
X0098154Y0034308D01*
X0097541Y0033309D02*
X0110507Y0033309D01*
X0110745Y0032311D02*
X0097541Y0032311D01*
X0097089Y0031312D02*
X0111159Y0031312D01*
X0112047Y0030314D02*
X0097138Y0030314D01*
X0091512Y0030314D02*
X0076080Y0030314D01*
X0076080Y0031312D02*
X0091561Y0031312D01*
X0091109Y0029315D02*
X0076080Y0029315D01*
X0075915Y0028316D02*
X0091109Y0028316D01*
X0091109Y0027318D02*
X0075915Y0027318D01*
X0075915Y0026319D02*
X0091109Y0026319D01*
X0082547Y0032311D02*
X0076080Y0032311D01*
X0076080Y0033309D02*
X0081549Y0033309D01*
X0080550Y0034308D02*
X0075684Y0034308D01*
X0075623Y0035306D02*
X0079552Y0035306D01*
X0090537Y0041297D02*
X0091113Y0041297D01*
X0091113Y0042296D02*
X0090537Y0042296D01*
X0090537Y0043294D02*
X0091113Y0043294D01*
X0091113Y0044293D02*
X0090537Y0044293D01*
X0090537Y0045291D02*
X0091113Y0045291D01*
X0091113Y0046290D02*
X0090537Y0046290D01*
X0089083Y0048287D02*
X0110805Y0048287D01*
X0112611Y0049285D02*
X0089036Y0049285D01*
X0090037Y0050284D02*
X0090613Y0050284D01*
X0090613Y0050220D02*
X0091251Y0049582D01*
X0096091Y0049582D01*
X0096730Y0050220D01*
X0096730Y0050947D01*
X0104114Y0050947D01*
X0104682Y0050379D01*
X0105748Y0049937D01*
X0106902Y0049937D01*
X0107968Y0050379D01*
X0108783Y0051195D01*
X0109225Y0052260D01*
X0109225Y0053414D01*
X0108783Y0054480D01*
X0107968Y0055296D01*
X0106902Y0055737D01*
X0105748Y0055737D01*
X0104682Y0055296D01*
X0104114Y0054727D01*
X0096730Y0054727D01*
X0096730Y0055454D01*
X0096091Y0056093D01*
X0091251Y0056093D01*
X0090613Y0055454D01*
X0090613Y0050220D01*
X0090613Y0051282D02*
X0090037Y0051282D01*
X0090037Y0052281D02*
X0090613Y0052281D01*
X0090613Y0053279D02*
X0090037Y0053279D01*
X0090037Y0054278D02*
X0090613Y0054278D01*
X0090613Y0055276D02*
X0090037Y0055276D01*
X0086355Y0058272D02*
X0114684Y0058272D01*
X0115682Y0059270D02*
X0086451Y0059270D01*
X0086451Y0060269D02*
X0115977Y0060269D01*
X0113685Y0057273D02*
X0072034Y0057273D01*
X0072034Y0058272D02*
X0079294Y0058272D01*
X0079199Y0059270D02*
X0072034Y0059270D01*
X0072034Y0061267D02*
X0082325Y0061267D01*
X0082325Y0060269D02*
X0083325Y0060269D01*
X0083325Y0059270D02*
X0082325Y0059270D01*
X0082325Y0058272D02*
X0083325Y0058272D01*
X0085693Y0064263D02*
X0105829Y0064263D01*
X0105415Y0065261D02*
X0086039Y0065261D01*
X0079609Y0068257D02*
X0072764Y0068257D01*
X0076765Y0069255D02*
X0079609Y0069255D01*
X0079609Y0070254D02*
X0077080Y0070254D01*
X0077080Y0071252D02*
X0081088Y0071252D01*
X0081088Y0072251D02*
X0077080Y0072251D01*
X0077080Y0073249D02*
X0081088Y0073249D01*
X0081088Y0074248D02*
X0077080Y0074248D01*
X0105538Y0076245D02*
X0109112Y0076245D01*
X0108029Y0077244D02*
X0105856Y0077244D01*
X0105856Y0078242D02*
X0107030Y0078242D01*
X0106135Y0079241D02*
X0105856Y0079241D01*
X0115091Y0080239D02*
X0117625Y0080239D01*
X0112882Y0056275D02*
X0071679Y0056275D01*
X0049035Y0048287D02*
X0049029Y0048287D01*
X0032900Y0056275D02*
X0030750Y0056275D01*
X0030750Y0057273D02*
X0032900Y0057273D01*
X0032900Y0058272D02*
X0030750Y0058272D01*
X0030689Y0059270D02*
X0032961Y0059270D01*
X0033537Y0063264D02*
X0034113Y0063264D01*
X0034113Y0064263D02*
X0033537Y0064263D01*
X0033537Y0065261D02*
X0034113Y0065261D01*
X0034113Y0066260D02*
X0033537Y0066260D01*
X0033537Y0067258D02*
X0034113Y0067258D01*
X0034113Y0068257D02*
X0033537Y0068257D01*
X0028035Y0069255D02*
X0022482Y0069255D01*
X0015132Y0080239D02*
X0010325Y0080239D01*
X0010325Y0081238D02*
X0014387Y0081238D01*
X0013973Y0082236D02*
X0010325Y0082236D01*
X0010325Y0083235D02*
X0013948Y0083235D01*
X0013948Y0084233D02*
X0010325Y0084233D01*
X0010325Y0085232D02*
X0013948Y0085232D01*
X0013948Y0086230D02*
X0010325Y0086230D01*
X0010325Y0087229D02*
X0013948Y0087229D01*
X0013948Y0088227D02*
X0010325Y0088227D01*
X0010325Y0089226D02*
X0013948Y0089226D01*
X0014103Y0090224D02*
X0010325Y0090224D01*
X0010325Y0091223D02*
X0014516Y0091223D01*
X0015446Y0092221D02*
X0010325Y0092221D01*
X0010325Y0093220D02*
X0016116Y0093220D01*
X0016116Y0094218D02*
X0010325Y0094218D01*
X0010325Y0095217D02*
X0016116Y0095217D01*
X0016116Y0096215D02*
X0010325Y0096215D01*
X0010325Y0097214D02*
X0016116Y0097214D01*
X0016116Y0098212D02*
X0010325Y0098212D01*
X0010325Y0099211D02*
X0016116Y0099211D01*
X0016116Y0100209D02*
X0010325Y0100209D01*
X0010325Y0101208D02*
X0016116Y0101208D01*
X0016116Y0102206D02*
X0010325Y0102206D01*
X0010325Y0103205D02*
X0016116Y0103205D01*
X0016116Y0104203D02*
X0010325Y0104203D01*
X0010325Y0105202D02*
X0016116Y0105202D01*
X0016116Y0106200D02*
X0010325Y0106200D01*
X0010325Y0107199D02*
X0016116Y0107199D01*
X0016116Y0108197D02*
X0010325Y0108197D01*
X0010325Y0109196D02*
X0015703Y0109196D01*
X0014705Y0110194D02*
X0010325Y0110194D01*
X0010325Y0111193D02*
X0014209Y0111193D01*
X0013948Y0112191D02*
X0010325Y0112191D01*
X0010325Y0113190D02*
X0013948Y0113190D01*
X0013948Y0114188D02*
X0010325Y0114188D01*
X0010325Y0115187D02*
X0013948Y0115187D01*
X0013948Y0116185D02*
X0010325Y0116185D01*
X0010325Y0117184D02*
X0013948Y0117184D01*
X0013948Y0118183D02*
X0010325Y0118183D01*
X0010325Y0119181D02*
X0013948Y0119181D01*
X0014280Y0120180D02*
X0010325Y0120180D01*
X0010325Y0121178D02*
X0014875Y0121178D01*
X0040230Y0068257D02*
X0041420Y0068257D01*
X0041420Y0063264D02*
X0040230Y0063264D01*
X0016035Y0051282D02*
X0010325Y0051282D01*
X0010325Y0050284D02*
X0016035Y0050284D01*
X0016035Y0049285D02*
X0010325Y0049285D01*
X0010325Y0048287D02*
X0016035Y0048287D01*
X0016035Y0047288D02*
X0010325Y0047288D01*
X0010325Y0046290D02*
X0016035Y0046290D01*
X0016035Y0045291D02*
X0010325Y0045291D01*
X0010325Y0044293D02*
X0016035Y0044293D01*
X0016035Y0043294D02*
X0010325Y0043294D01*
X0010325Y0042296D02*
X0016035Y0042296D01*
X0016035Y0041297D02*
X0010325Y0041297D01*
X0010325Y0040299D02*
X0016035Y0040299D01*
X0016035Y0039300D02*
X0010325Y0039300D01*
X0010325Y0038302D02*
X0016622Y0038302D01*
X0017543Y0033309D02*
X0010325Y0033309D01*
X0010325Y0032311D02*
X0015768Y0032311D01*
X0014770Y0031312D02*
X0010325Y0031312D01*
X0010325Y0030314D02*
X0013919Y0030314D01*
X0013506Y0029315D02*
X0010325Y0029315D01*
X0010325Y0028316D02*
X0013092Y0028316D01*
X0012837Y0027318D02*
X0010325Y0027318D01*
X0010325Y0026319D02*
X0012837Y0026319D01*
X0012837Y0025321D02*
X0010325Y0025321D01*
X0010325Y0024322D02*
X0012950Y0024322D01*
X0013364Y0023324D02*
X0010325Y0023324D01*
X0010325Y0022325D02*
X0013778Y0022325D01*
X0014428Y0021327D02*
X0010325Y0021327D01*
X0010325Y0020328D02*
X0015426Y0020328D01*
X0016717Y0019330D02*
X0010325Y0019330D01*
X0024555Y0019330D02*
X0072011Y0019330D01*
X0040353Y0020328D02*
X0025846Y0020328D01*
X0026844Y0021327D02*
X0039031Y0021327D01*
X0038033Y0022325D02*
X0027494Y0022325D01*
X0096730Y0050284D02*
X0104912Y0050284D01*
X0107738Y0050284D02*
X0112611Y0050284D01*
X0112611Y0051282D02*
X0108820Y0051282D01*
X0109225Y0052281D02*
X0112611Y0052281D01*
X0112611Y0053279D02*
X0109225Y0053279D01*
X0108867Y0054278D02*
X0112611Y0054278D01*
X0112611Y0055276D02*
X0107987Y0055276D01*
X0104663Y0055276D02*
X0096730Y0055276D01*
D43*
X0125297Y0033837D02*
X0125297Y0027837D01*
X0125325Y0027837D01*
X0119825Y0022337D01*
X0094325Y0022337D01*
X0072825Y0022337D01*
X0072825Y0022837D01*
X0072825Y0031491D01*
X0094325Y0027392D02*
X0094325Y0022337D01*
M02*
