G75*
%MOIN*%
%OFA0B0*%
%FSLAX25Y25*%
%IPPOS*%
%LPD*%
%AMOC8*
5,1,8,0,0,1.08239X$1,22.5*
%
%ADD10C,0.00000*%
%ADD11R,0.01772X0.00177*%
%ADD12R,0.02835X0.00177*%
%ADD13R,0.03543X0.00177*%
%ADD14R,0.04075X0.00177*%
%ADD15R,0.04783X0.00177*%
%ADD16R,0.05492X0.00177*%
%ADD17R,0.06024X0.00177*%
%ADD18R,0.06555X0.00177*%
%ADD19R,0.07264X0.00177*%
%ADD20R,0.08150X0.00177*%
%ADD21R,0.08858X0.00177*%
%ADD22R,0.09213X0.00177*%
%ADD23R,0.09744X0.00177*%
%ADD24R,0.10453X0.00177*%
%ADD25R,0.10984X0.00177*%
%ADD26R,0.11516X0.00177*%
%ADD27R,0.12224X0.00177*%
%ADD28R,0.12933X0.00177*%
%ADD29R,0.07441X0.00177*%
%ADD30R,0.04961X0.00177*%
%ADD31R,0.07618X0.00177*%
%ADD32R,0.05138X0.00177*%
%ADD33R,0.07972X0.00177*%
%ADD34R,0.08327X0.00177*%
%ADD35R,0.08504X0.00177*%
%ADD36R,0.08681X0.00177*%
%ADD37R,0.09390X0.00177*%
%ADD38R,0.09921X0.00177*%
%ADD39R,0.10098X0.00177*%
%ADD40R,0.05315X0.00177*%
%ADD41R,0.10276X0.00177*%
%ADD42R,0.05669X0.00177*%
%ADD43R,0.10807X0.00177*%
%ADD44R,0.06201X0.00177*%
%ADD45R,0.11161X0.00177*%
%ADD46R,0.06378X0.00177*%
%ADD47R,0.11339X0.00177*%
%ADD48R,0.06732X0.00177*%
%ADD49R,0.03898X0.00177*%
%ADD50R,0.06909X0.00177*%
%ADD51R,0.07087X0.00177*%
%ADD52R,0.07795X0.00177*%
%ADD53R,0.03720X0.00177*%
%ADD54R,0.09035X0.00177*%
%ADD55R,0.09567X0.00177*%
%ADD56R,0.03366X0.00177*%
%ADD57R,0.03189X0.00177*%
%ADD58R,0.05846X0.00177*%
%ADD59R,0.03012X0.00177*%
%ADD60R,0.10630X0.00177*%
%ADD61R,0.04252X0.00177*%
%ADD62R,0.04429X0.00177*%
%ADD63R,0.04606X0.00177*%
%ADD64R,0.02657X0.00177*%
%ADD65R,0.11693X0.00177*%
%ADD66R,0.02480X0.00177*%
%ADD67R,0.11870X0.00177*%
%ADD68R,0.12047X0.00177*%
%ADD69R,0.12402X0.00177*%
%ADD70R,0.01594X0.00177*%
%ADD71R,0.02126X0.00177*%
%ADD72R,0.01240X0.00177*%
%ADD73R,0.01417X0.00177*%
%ADD74R,0.12579X0.00177*%
%ADD75R,0.12756X0.00177*%
%ADD76R,0.13110X0.00177*%
%ADD77R,0.13287X0.00177*%
%ADD78R,0.13465X0.00177*%
%ADD79R,0.13642X0.00177*%
%ADD80R,0.13819X0.00177*%
%ADD81R,0.13996X0.00177*%
%ADD82R,0.14173X0.00177*%
%ADD83R,0.02303X0.00177*%
%ADD84R,0.01063X0.00177*%
%ADD85R,0.01949X0.00177*%
%ADD86R,0.18780X0.00177*%
%ADD87R,0.35433X0.00177*%
%ADD88R,0.23917X0.00177*%
%ADD89R,0.14350X0.00177*%
%ADD90R,0.16122X0.00177*%
%ADD91R,0.17185X0.00177*%
%ADD92R,0.18957X0.00177*%
%ADD93R,0.22146X0.00177*%
%ADD94R,0.24449X0.00177*%
%ADD95R,0.15059X0.00177*%
%ADD96R,0.15236X0.00177*%
%ADD97R,0.14882X0.00177*%
%ADD98R,0.00886X0.00177*%
%ADD99R,0.00709X0.00177*%
%ADD100R,0.00531X0.00177*%
%ADD101R,0.00354X0.00177*%
%ADD102R,0.00177X0.00177*%
%ADD103R,0.14528X0.00177*%
%ADD104R,0.14705X0.00177*%
%ADD105R,0.15413X0.00177*%
%ADD106R,0.15591X0.00177*%
%ADD107R,0.15768X0.00177*%
%ADD108R,0.15945X0.00177*%
%ADD109R,0.16299X0.00177*%
%ADD110R,0.16476X0.00177*%
%ADD111R,0.16654X0.00177*%
%ADD112R,0.16831X0.00177*%
%ADD113R,0.17008X0.00177*%
%ADD114R,0.17362X0.00177*%
%ADD115R,0.17539X0.00177*%
%ADD116R,0.17717X0.00177*%
%ADD117R,0.35610X0.00177*%
%ADD118R,0.35256X0.00177*%
%ADD119R,0.34370X0.00177*%
%ADD120C,0.00300*%
%ADD121C,0.00354*%
%ADD122C,0.00500*%
%ADD123C,0.00400*%
%ADD124C,0.00197*%
%ADD125C,0.00394*%
%ADD126C,0.00787*%
%ADD127C,0.00600*%
%ADD128R,0.03400X0.01600*%
%ADD129R,0.01600X0.03400*%
%ADD130R,0.01378X0.03150*%
%ADD131R,0.03150X0.01378*%
%ADD132C,0.00800*%
%ADD133C,0.01181*%
%ADD134R,0.01969X0.01181*%
%ADD135C,0.07000*%
%ADD136R,0.01969X0.03740*%
%ADD137R,0.02000X0.02000*%
%ADD138C,0.00984*%
%ADD139R,0.03740X0.01969*%
%ADD140R,0.01800X0.02300*%
%ADD141R,0.03543X0.01575*%
%ADD142R,0.00591X0.01181*%
%ADD143R,0.01181X0.01181*%
D10*
X0008825Y0014337D02*
X0008825Y0171818D01*
X0304101Y0171818D01*
X0304101Y0014337D01*
X0008825Y0014337D01*
X0014337Y0026148D02*
X0014339Y0026306D01*
X0014345Y0026464D01*
X0014355Y0026622D01*
X0014369Y0026780D01*
X0014387Y0026937D01*
X0014408Y0027094D01*
X0014434Y0027250D01*
X0014464Y0027406D01*
X0014497Y0027561D01*
X0014535Y0027714D01*
X0014576Y0027867D01*
X0014621Y0028019D01*
X0014670Y0028170D01*
X0014723Y0028319D01*
X0014779Y0028467D01*
X0014839Y0028613D01*
X0014903Y0028758D01*
X0014971Y0028901D01*
X0015042Y0029043D01*
X0015116Y0029183D01*
X0015194Y0029320D01*
X0015276Y0029456D01*
X0015360Y0029590D01*
X0015449Y0029721D01*
X0015540Y0029850D01*
X0015635Y0029977D01*
X0015732Y0030102D01*
X0015833Y0030224D01*
X0015937Y0030343D01*
X0016044Y0030460D01*
X0016154Y0030574D01*
X0016267Y0030685D01*
X0016382Y0030794D01*
X0016500Y0030899D01*
X0016621Y0031001D01*
X0016744Y0031101D01*
X0016870Y0031197D01*
X0016998Y0031290D01*
X0017128Y0031380D01*
X0017261Y0031466D01*
X0017396Y0031550D01*
X0017532Y0031629D01*
X0017671Y0031706D01*
X0017812Y0031778D01*
X0017954Y0031848D01*
X0018098Y0031913D01*
X0018244Y0031975D01*
X0018391Y0032033D01*
X0018540Y0032088D01*
X0018690Y0032139D01*
X0018841Y0032186D01*
X0018993Y0032229D01*
X0019146Y0032268D01*
X0019301Y0032304D01*
X0019456Y0032335D01*
X0019612Y0032363D01*
X0019768Y0032387D01*
X0019925Y0032407D01*
X0020083Y0032423D01*
X0020240Y0032435D01*
X0020399Y0032443D01*
X0020557Y0032447D01*
X0020715Y0032447D01*
X0020873Y0032443D01*
X0021032Y0032435D01*
X0021189Y0032423D01*
X0021347Y0032407D01*
X0021504Y0032387D01*
X0021660Y0032363D01*
X0021816Y0032335D01*
X0021971Y0032304D01*
X0022126Y0032268D01*
X0022279Y0032229D01*
X0022431Y0032186D01*
X0022582Y0032139D01*
X0022732Y0032088D01*
X0022881Y0032033D01*
X0023028Y0031975D01*
X0023174Y0031913D01*
X0023318Y0031848D01*
X0023460Y0031778D01*
X0023601Y0031706D01*
X0023740Y0031629D01*
X0023876Y0031550D01*
X0024011Y0031466D01*
X0024144Y0031380D01*
X0024274Y0031290D01*
X0024402Y0031197D01*
X0024528Y0031101D01*
X0024651Y0031001D01*
X0024772Y0030899D01*
X0024890Y0030794D01*
X0025005Y0030685D01*
X0025118Y0030574D01*
X0025228Y0030460D01*
X0025335Y0030343D01*
X0025439Y0030224D01*
X0025540Y0030102D01*
X0025637Y0029977D01*
X0025732Y0029850D01*
X0025823Y0029721D01*
X0025912Y0029590D01*
X0025996Y0029456D01*
X0026078Y0029320D01*
X0026156Y0029183D01*
X0026230Y0029043D01*
X0026301Y0028901D01*
X0026369Y0028758D01*
X0026433Y0028613D01*
X0026493Y0028467D01*
X0026549Y0028319D01*
X0026602Y0028170D01*
X0026651Y0028019D01*
X0026696Y0027867D01*
X0026737Y0027714D01*
X0026775Y0027561D01*
X0026808Y0027406D01*
X0026838Y0027250D01*
X0026864Y0027094D01*
X0026885Y0026937D01*
X0026903Y0026780D01*
X0026917Y0026622D01*
X0026927Y0026464D01*
X0026933Y0026306D01*
X0026935Y0026148D01*
X0026933Y0025990D01*
X0026927Y0025832D01*
X0026917Y0025674D01*
X0026903Y0025516D01*
X0026885Y0025359D01*
X0026864Y0025202D01*
X0026838Y0025046D01*
X0026808Y0024890D01*
X0026775Y0024735D01*
X0026737Y0024582D01*
X0026696Y0024429D01*
X0026651Y0024277D01*
X0026602Y0024126D01*
X0026549Y0023977D01*
X0026493Y0023829D01*
X0026433Y0023683D01*
X0026369Y0023538D01*
X0026301Y0023395D01*
X0026230Y0023253D01*
X0026156Y0023113D01*
X0026078Y0022976D01*
X0025996Y0022840D01*
X0025912Y0022706D01*
X0025823Y0022575D01*
X0025732Y0022446D01*
X0025637Y0022319D01*
X0025540Y0022194D01*
X0025439Y0022072D01*
X0025335Y0021953D01*
X0025228Y0021836D01*
X0025118Y0021722D01*
X0025005Y0021611D01*
X0024890Y0021502D01*
X0024772Y0021397D01*
X0024651Y0021295D01*
X0024528Y0021195D01*
X0024402Y0021099D01*
X0024274Y0021006D01*
X0024144Y0020916D01*
X0024011Y0020830D01*
X0023876Y0020746D01*
X0023740Y0020667D01*
X0023601Y0020590D01*
X0023460Y0020518D01*
X0023318Y0020448D01*
X0023174Y0020383D01*
X0023028Y0020321D01*
X0022881Y0020263D01*
X0022732Y0020208D01*
X0022582Y0020157D01*
X0022431Y0020110D01*
X0022279Y0020067D01*
X0022126Y0020028D01*
X0021971Y0019992D01*
X0021816Y0019961D01*
X0021660Y0019933D01*
X0021504Y0019909D01*
X0021347Y0019889D01*
X0021189Y0019873D01*
X0021032Y0019861D01*
X0020873Y0019853D01*
X0020715Y0019849D01*
X0020557Y0019849D01*
X0020399Y0019853D01*
X0020240Y0019861D01*
X0020083Y0019873D01*
X0019925Y0019889D01*
X0019768Y0019909D01*
X0019612Y0019933D01*
X0019456Y0019961D01*
X0019301Y0019992D01*
X0019146Y0020028D01*
X0018993Y0020067D01*
X0018841Y0020110D01*
X0018690Y0020157D01*
X0018540Y0020208D01*
X0018391Y0020263D01*
X0018244Y0020321D01*
X0018098Y0020383D01*
X0017954Y0020448D01*
X0017812Y0020518D01*
X0017671Y0020590D01*
X0017532Y0020667D01*
X0017396Y0020746D01*
X0017261Y0020830D01*
X0017128Y0020916D01*
X0016998Y0021006D01*
X0016870Y0021099D01*
X0016744Y0021195D01*
X0016621Y0021295D01*
X0016500Y0021397D01*
X0016382Y0021502D01*
X0016267Y0021611D01*
X0016154Y0021722D01*
X0016044Y0021836D01*
X0015937Y0021953D01*
X0015833Y0022072D01*
X0015732Y0022194D01*
X0015635Y0022319D01*
X0015540Y0022446D01*
X0015449Y0022575D01*
X0015360Y0022706D01*
X0015276Y0022840D01*
X0015194Y0022976D01*
X0015116Y0023113D01*
X0015042Y0023253D01*
X0014971Y0023395D01*
X0014903Y0023538D01*
X0014839Y0023683D01*
X0014779Y0023829D01*
X0014723Y0023977D01*
X0014670Y0024126D01*
X0014621Y0024277D01*
X0014576Y0024429D01*
X0014535Y0024582D01*
X0014497Y0024735D01*
X0014464Y0024890D01*
X0014434Y0025046D01*
X0014408Y0025202D01*
X0014387Y0025359D01*
X0014369Y0025516D01*
X0014355Y0025674D01*
X0014345Y0025832D01*
X0014339Y0025990D01*
X0014337Y0026148D01*
X0014337Y0160007D02*
X0014339Y0160165D01*
X0014345Y0160323D01*
X0014355Y0160481D01*
X0014369Y0160639D01*
X0014387Y0160796D01*
X0014408Y0160953D01*
X0014434Y0161109D01*
X0014464Y0161265D01*
X0014497Y0161420D01*
X0014535Y0161573D01*
X0014576Y0161726D01*
X0014621Y0161878D01*
X0014670Y0162029D01*
X0014723Y0162178D01*
X0014779Y0162326D01*
X0014839Y0162472D01*
X0014903Y0162617D01*
X0014971Y0162760D01*
X0015042Y0162902D01*
X0015116Y0163042D01*
X0015194Y0163179D01*
X0015276Y0163315D01*
X0015360Y0163449D01*
X0015449Y0163580D01*
X0015540Y0163709D01*
X0015635Y0163836D01*
X0015732Y0163961D01*
X0015833Y0164083D01*
X0015937Y0164202D01*
X0016044Y0164319D01*
X0016154Y0164433D01*
X0016267Y0164544D01*
X0016382Y0164653D01*
X0016500Y0164758D01*
X0016621Y0164860D01*
X0016744Y0164960D01*
X0016870Y0165056D01*
X0016998Y0165149D01*
X0017128Y0165239D01*
X0017261Y0165325D01*
X0017396Y0165409D01*
X0017532Y0165488D01*
X0017671Y0165565D01*
X0017812Y0165637D01*
X0017954Y0165707D01*
X0018098Y0165772D01*
X0018244Y0165834D01*
X0018391Y0165892D01*
X0018540Y0165947D01*
X0018690Y0165998D01*
X0018841Y0166045D01*
X0018993Y0166088D01*
X0019146Y0166127D01*
X0019301Y0166163D01*
X0019456Y0166194D01*
X0019612Y0166222D01*
X0019768Y0166246D01*
X0019925Y0166266D01*
X0020083Y0166282D01*
X0020240Y0166294D01*
X0020399Y0166302D01*
X0020557Y0166306D01*
X0020715Y0166306D01*
X0020873Y0166302D01*
X0021032Y0166294D01*
X0021189Y0166282D01*
X0021347Y0166266D01*
X0021504Y0166246D01*
X0021660Y0166222D01*
X0021816Y0166194D01*
X0021971Y0166163D01*
X0022126Y0166127D01*
X0022279Y0166088D01*
X0022431Y0166045D01*
X0022582Y0165998D01*
X0022732Y0165947D01*
X0022881Y0165892D01*
X0023028Y0165834D01*
X0023174Y0165772D01*
X0023318Y0165707D01*
X0023460Y0165637D01*
X0023601Y0165565D01*
X0023740Y0165488D01*
X0023876Y0165409D01*
X0024011Y0165325D01*
X0024144Y0165239D01*
X0024274Y0165149D01*
X0024402Y0165056D01*
X0024528Y0164960D01*
X0024651Y0164860D01*
X0024772Y0164758D01*
X0024890Y0164653D01*
X0025005Y0164544D01*
X0025118Y0164433D01*
X0025228Y0164319D01*
X0025335Y0164202D01*
X0025439Y0164083D01*
X0025540Y0163961D01*
X0025637Y0163836D01*
X0025732Y0163709D01*
X0025823Y0163580D01*
X0025912Y0163449D01*
X0025996Y0163315D01*
X0026078Y0163179D01*
X0026156Y0163042D01*
X0026230Y0162902D01*
X0026301Y0162760D01*
X0026369Y0162617D01*
X0026433Y0162472D01*
X0026493Y0162326D01*
X0026549Y0162178D01*
X0026602Y0162029D01*
X0026651Y0161878D01*
X0026696Y0161726D01*
X0026737Y0161573D01*
X0026775Y0161420D01*
X0026808Y0161265D01*
X0026838Y0161109D01*
X0026864Y0160953D01*
X0026885Y0160796D01*
X0026903Y0160639D01*
X0026917Y0160481D01*
X0026927Y0160323D01*
X0026933Y0160165D01*
X0026935Y0160007D01*
X0026933Y0159849D01*
X0026927Y0159691D01*
X0026917Y0159533D01*
X0026903Y0159375D01*
X0026885Y0159218D01*
X0026864Y0159061D01*
X0026838Y0158905D01*
X0026808Y0158749D01*
X0026775Y0158594D01*
X0026737Y0158441D01*
X0026696Y0158288D01*
X0026651Y0158136D01*
X0026602Y0157985D01*
X0026549Y0157836D01*
X0026493Y0157688D01*
X0026433Y0157542D01*
X0026369Y0157397D01*
X0026301Y0157254D01*
X0026230Y0157112D01*
X0026156Y0156972D01*
X0026078Y0156835D01*
X0025996Y0156699D01*
X0025912Y0156565D01*
X0025823Y0156434D01*
X0025732Y0156305D01*
X0025637Y0156178D01*
X0025540Y0156053D01*
X0025439Y0155931D01*
X0025335Y0155812D01*
X0025228Y0155695D01*
X0025118Y0155581D01*
X0025005Y0155470D01*
X0024890Y0155361D01*
X0024772Y0155256D01*
X0024651Y0155154D01*
X0024528Y0155054D01*
X0024402Y0154958D01*
X0024274Y0154865D01*
X0024144Y0154775D01*
X0024011Y0154689D01*
X0023876Y0154605D01*
X0023740Y0154526D01*
X0023601Y0154449D01*
X0023460Y0154377D01*
X0023318Y0154307D01*
X0023174Y0154242D01*
X0023028Y0154180D01*
X0022881Y0154122D01*
X0022732Y0154067D01*
X0022582Y0154016D01*
X0022431Y0153969D01*
X0022279Y0153926D01*
X0022126Y0153887D01*
X0021971Y0153851D01*
X0021816Y0153820D01*
X0021660Y0153792D01*
X0021504Y0153768D01*
X0021347Y0153748D01*
X0021189Y0153732D01*
X0021032Y0153720D01*
X0020873Y0153712D01*
X0020715Y0153708D01*
X0020557Y0153708D01*
X0020399Y0153712D01*
X0020240Y0153720D01*
X0020083Y0153732D01*
X0019925Y0153748D01*
X0019768Y0153768D01*
X0019612Y0153792D01*
X0019456Y0153820D01*
X0019301Y0153851D01*
X0019146Y0153887D01*
X0018993Y0153926D01*
X0018841Y0153969D01*
X0018690Y0154016D01*
X0018540Y0154067D01*
X0018391Y0154122D01*
X0018244Y0154180D01*
X0018098Y0154242D01*
X0017954Y0154307D01*
X0017812Y0154377D01*
X0017671Y0154449D01*
X0017532Y0154526D01*
X0017396Y0154605D01*
X0017261Y0154689D01*
X0017128Y0154775D01*
X0016998Y0154865D01*
X0016870Y0154958D01*
X0016744Y0155054D01*
X0016621Y0155154D01*
X0016500Y0155256D01*
X0016382Y0155361D01*
X0016267Y0155470D01*
X0016154Y0155581D01*
X0016044Y0155695D01*
X0015937Y0155812D01*
X0015833Y0155931D01*
X0015732Y0156053D01*
X0015635Y0156178D01*
X0015540Y0156305D01*
X0015449Y0156434D01*
X0015360Y0156565D01*
X0015276Y0156699D01*
X0015194Y0156835D01*
X0015116Y0156972D01*
X0015042Y0157112D01*
X0014971Y0157254D01*
X0014903Y0157397D01*
X0014839Y0157542D01*
X0014779Y0157688D01*
X0014723Y0157836D01*
X0014670Y0157985D01*
X0014621Y0158136D01*
X0014576Y0158288D01*
X0014535Y0158441D01*
X0014497Y0158594D01*
X0014464Y0158749D01*
X0014434Y0158905D01*
X0014408Y0159061D01*
X0014387Y0159218D01*
X0014369Y0159375D01*
X0014355Y0159533D01*
X0014345Y0159691D01*
X0014339Y0159849D01*
X0014337Y0160007D01*
X0081266Y0160007D02*
X0081268Y0160165D01*
X0081274Y0160323D01*
X0081284Y0160481D01*
X0081298Y0160639D01*
X0081316Y0160796D01*
X0081337Y0160953D01*
X0081363Y0161109D01*
X0081393Y0161265D01*
X0081426Y0161420D01*
X0081464Y0161573D01*
X0081505Y0161726D01*
X0081550Y0161878D01*
X0081599Y0162029D01*
X0081652Y0162178D01*
X0081708Y0162326D01*
X0081768Y0162472D01*
X0081832Y0162617D01*
X0081900Y0162760D01*
X0081971Y0162902D01*
X0082045Y0163042D01*
X0082123Y0163179D01*
X0082205Y0163315D01*
X0082289Y0163449D01*
X0082378Y0163580D01*
X0082469Y0163709D01*
X0082564Y0163836D01*
X0082661Y0163961D01*
X0082762Y0164083D01*
X0082866Y0164202D01*
X0082973Y0164319D01*
X0083083Y0164433D01*
X0083196Y0164544D01*
X0083311Y0164653D01*
X0083429Y0164758D01*
X0083550Y0164860D01*
X0083673Y0164960D01*
X0083799Y0165056D01*
X0083927Y0165149D01*
X0084057Y0165239D01*
X0084190Y0165325D01*
X0084325Y0165409D01*
X0084461Y0165488D01*
X0084600Y0165565D01*
X0084741Y0165637D01*
X0084883Y0165707D01*
X0085027Y0165772D01*
X0085173Y0165834D01*
X0085320Y0165892D01*
X0085469Y0165947D01*
X0085619Y0165998D01*
X0085770Y0166045D01*
X0085922Y0166088D01*
X0086075Y0166127D01*
X0086230Y0166163D01*
X0086385Y0166194D01*
X0086541Y0166222D01*
X0086697Y0166246D01*
X0086854Y0166266D01*
X0087012Y0166282D01*
X0087169Y0166294D01*
X0087328Y0166302D01*
X0087486Y0166306D01*
X0087644Y0166306D01*
X0087802Y0166302D01*
X0087961Y0166294D01*
X0088118Y0166282D01*
X0088276Y0166266D01*
X0088433Y0166246D01*
X0088589Y0166222D01*
X0088745Y0166194D01*
X0088900Y0166163D01*
X0089055Y0166127D01*
X0089208Y0166088D01*
X0089360Y0166045D01*
X0089511Y0165998D01*
X0089661Y0165947D01*
X0089810Y0165892D01*
X0089957Y0165834D01*
X0090103Y0165772D01*
X0090247Y0165707D01*
X0090389Y0165637D01*
X0090530Y0165565D01*
X0090669Y0165488D01*
X0090805Y0165409D01*
X0090940Y0165325D01*
X0091073Y0165239D01*
X0091203Y0165149D01*
X0091331Y0165056D01*
X0091457Y0164960D01*
X0091580Y0164860D01*
X0091701Y0164758D01*
X0091819Y0164653D01*
X0091934Y0164544D01*
X0092047Y0164433D01*
X0092157Y0164319D01*
X0092264Y0164202D01*
X0092368Y0164083D01*
X0092469Y0163961D01*
X0092566Y0163836D01*
X0092661Y0163709D01*
X0092752Y0163580D01*
X0092841Y0163449D01*
X0092925Y0163315D01*
X0093007Y0163179D01*
X0093085Y0163042D01*
X0093159Y0162902D01*
X0093230Y0162760D01*
X0093298Y0162617D01*
X0093362Y0162472D01*
X0093422Y0162326D01*
X0093478Y0162178D01*
X0093531Y0162029D01*
X0093580Y0161878D01*
X0093625Y0161726D01*
X0093666Y0161573D01*
X0093704Y0161420D01*
X0093737Y0161265D01*
X0093767Y0161109D01*
X0093793Y0160953D01*
X0093814Y0160796D01*
X0093832Y0160639D01*
X0093846Y0160481D01*
X0093856Y0160323D01*
X0093862Y0160165D01*
X0093864Y0160007D01*
X0093862Y0159849D01*
X0093856Y0159691D01*
X0093846Y0159533D01*
X0093832Y0159375D01*
X0093814Y0159218D01*
X0093793Y0159061D01*
X0093767Y0158905D01*
X0093737Y0158749D01*
X0093704Y0158594D01*
X0093666Y0158441D01*
X0093625Y0158288D01*
X0093580Y0158136D01*
X0093531Y0157985D01*
X0093478Y0157836D01*
X0093422Y0157688D01*
X0093362Y0157542D01*
X0093298Y0157397D01*
X0093230Y0157254D01*
X0093159Y0157112D01*
X0093085Y0156972D01*
X0093007Y0156835D01*
X0092925Y0156699D01*
X0092841Y0156565D01*
X0092752Y0156434D01*
X0092661Y0156305D01*
X0092566Y0156178D01*
X0092469Y0156053D01*
X0092368Y0155931D01*
X0092264Y0155812D01*
X0092157Y0155695D01*
X0092047Y0155581D01*
X0091934Y0155470D01*
X0091819Y0155361D01*
X0091701Y0155256D01*
X0091580Y0155154D01*
X0091457Y0155054D01*
X0091331Y0154958D01*
X0091203Y0154865D01*
X0091073Y0154775D01*
X0090940Y0154689D01*
X0090805Y0154605D01*
X0090669Y0154526D01*
X0090530Y0154449D01*
X0090389Y0154377D01*
X0090247Y0154307D01*
X0090103Y0154242D01*
X0089957Y0154180D01*
X0089810Y0154122D01*
X0089661Y0154067D01*
X0089511Y0154016D01*
X0089360Y0153969D01*
X0089208Y0153926D01*
X0089055Y0153887D01*
X0088900Y0153851D01*
X0088745Y0153820D01*
X0088589Y0153792D01*
X0088433Y0153768D01*
X0088276Y0153748D01*
X0088118Y0153732D01*
X0087961Y0153720D01*
X0087802Y0153712D01*
X0087644Y0153708D01*
X0087486Y0153708D01*
X0087328Y0153712D01*
X0087169Y0153720D01*
X0087012Y0153732D01*
X0086854Y0153748D01*
X0086697Y0153768D01*
X0086541Y0153792D01*
X0086385Y0153820D01*
X0086230Y0153851D01*
X0086075Y0153887D01*
X0085922Y0153926D01*
X0085770Y0153969D01*
X0085619Y0154016D01*
X0085469Y0154067D01*
X0085320Y0154122D01*
X0085173Y0154180D01*
X0085027Y0154242D01*
X0084883Y0154307D01*
X0084741Y0154377D01*
X0084600Y0154449D01*
X0084461Y0154526D01*
X0084325Y0154605D01*
X0084190Y0154689D01*
X0084057Y0154775D01*
X0083927Y0154865D01*
X0083799Y0154958D01*
X0083673Y0155054D01*
X0083550Y0155154D01*
X0083429Y0155256D01*
X0083311Y0155361D01*
X0083196Y0155470D01*
X0083083Y0155581D01*
X0082973Y0155695D01*
X0082866Y0155812D01*
X0082762Y0155931D01*
X0082661Y0156053D01*
X0082564Y0156178D01*
X0082469Y0156305D01*
X0082378Y0156434D01*
X0082289Y0156565D01*
X0082205Y0156699D01*
X0082123Y0156835D01*
X0082045Y0156972D01*
X0081971Y0157112D01*
X0081900Y0157254D01*
X0081832Y0157397D01*
X0081768Y0157542D01*
X0081708Y0157688D01*
X0081652Y0157836D01*
X0081599Y0157985D01*
X0081550Y0158136D01*
X0081505Y0158288D01*
X0081464Y0158441D01*
X0081426Y0158594D01*
X0081393Y0158749D01*
X0081363Y0158905D01*
X0081337Y0159061D01*
X0081316Y0159218D01*
X0081298Y0159375D01*
X0081284Y0159533D01*
X0081274Y0159691D01*
X0081268Y0159849D01*
X0081266Y0160007D01*
X0285990Y0085203D02*
X0285992Y0085361D01*
X0285998Y0085519D01*
X0286008Y0085677D01*
X0286022Y0085835D01*
X0286040Y0085992D01*
X0286061Y0086149D01*
X0286087Y0086305D01*
X0286117Y0086461D01*
X0286150Y0086616D01*
X0286188Y0086769D01*
X0286229Y0086922D01*
X0286274Y0087074D01*
X0286323Y0087225D01*
X0286376Y0087374D01*
X0286432Y0087522D01*
X0286492Y0087668D01*
X0286556Y0087813D01*
X0286624Y0087956D01*
X0286695Y0088098D01*
X0286769Y0088238D01*
X0286847Y0088375D01*
X0286929Y0088511D01*
X0287013Y0088645D01*
X0287102Y0088776D01*
X0287193Y0088905D01*
X0287288Y0089032D01*
X0287385Y0089157D01*
X0287486Y0089279D01*
X0287590Y0089398D01*
X0287697Y0089515D01*
X0287807Y0089629D01*
X0287920Y0089740D01*
X0288035Y0089849D01*
X0288153Y0089954D01*
X0288274Y0090056D01*
X0288397Y0090156D01*
X0288523Y0090252D01*
X0288651Y0090345D01*
X0288781Y0090435D01*
X0288914Y0090521D01*
X0289049Y0090605D01*
X0289185Y0090684D01*
X0289324Y0090761D01*
X0289465Y0090833D01*
X0289607Y0090903D01*
X0289751Y0090968D01*
X0289897Y0091030D01*
X0290044Y0091088D01*
X0290193Y0091143D01*
X0290343Y0091194D01*
X0290494Y0091241D01*
X0290646Y0091284D01*
X0290799Y0091323D01*
X0290954Y0091359D01*
X0291109Y0091390D01*
X0291265Y0091418D01*
X0291421Y0091442D01*
X0291578Y0091462D01*
X0291736Y0091478D01*
X0291893Y0091490D01*
X0292052Y0091498D01*
X0292210Y0091502D01*
X0292368Y0091502D01*
X0292526Y0091498D01*
X0292685Y0091490D01*
X0292842Y0091478D01*
X0293000Y0091462D01*
X0293157Y0091442D01*
X0293313Y0091418D01*
X0293469Y0091390D01*
X0293624Y0091359D01*
X0293779Y0091323D01*
X0293932Y0091284D01*
X0294084Y0091241D01*
X0294235Y0091194D01*
X0294385Y0091143D01*
X0294534Y0091088D01*
X0294681Y0091030D01*
X0294827Y0090968D01*
X0294971Y0090903D01*
X0295113Y0090833D01*
X0295254Y0090761D01*
X0295393Y0090684D01*
X0295529Y0090605D01*
X0295664Y0090521D01*
X0295797Y0090435D01*
X0295927Y0090345D01*
X0296055Y0090252D01*
X0296181Y0090156D01*
X0296304Y0090056D01*
X0296425Y0089954D01*
X0296543Y0089849D01*
X0296658Y0089740D01*
X0296771Y0089629D01*
X0296881Y0089515D01*
X0296988Y0089398D01*
X0297092Y0089279D01*
X0297193Y0089157D01*
X0297290Y0089032D01*
X0297385Y0088905D01*
X0297476Y0088776D01*
X0297565Y0088645D01*
X0297649Y0088511D01*
X0297731Y0088375D01*
X0297809Y0088238D01*
X0297883Y0088098D01*
X0297954Y0087956D01*
X0298022Y0087813D01*
X0298086Y0087668D01*
X0298146Y0087522D01*
X0298202Y0087374D01*
X0298255Y0087225D01*
X0298304Y0087074D01*
X0298349Y0086922D01*
X0298390Y0086769D01*
X0298428Y0086616D01*
X0298461Y0086461D01*
X0298491Y0086305D01*
X0298517Y0086149D01*
X0298538Y0085992D01*
X0298556Y0085835D01*
X0298570Y0085677D01*
X0298580Y0085519D01*
X0298586Y0085361D01*
X0298588Y0085203D01*
X0298586Y0085045D01*
X0298580Y0084887D01*
X0298570Y0084729D01*
X0298556Y0084571D01*
X0298538Y0084414D01*
X0298517Y0084257D01*
X0298491Y0084101D01*
X0298461Y0083945D01*
X0298428Y0083790D01*
X0298390Y0083637D01*
X0298349Y0083484D01*
X0298304Y0083332D01*
X0298255Y0083181D01*
X0298202Y0083032D01*
X0298146Y0082884D01*
X0298086Y0082738D01*
X0298022Y0082593D01*
X0297954Y0082450D01*
X0297883Y0082308D01*
X0297809Y0082168D01*
X0297731Y0082031D01*
X0297649Y0081895D01*
X0297565Y0081761D01*
X0297476Y0081630D01*
X0297385Y0081501D01*
X0297290Y0081374D01*
X0297193Y0081249D01*
X0297092Y0081127D01*
X0296988Y0081008D01*
X0296881Y0080891D01*
X0296771Y0080777D01*
X0296658Y0080666D01*
X0296543Y0080557D01*
X0296425Y0080452D01*
X0296304Y0080350D01*
X0296181Y0080250D01*
X0296055Y0080154D01*
X0295927Y0080061D01*
X0295797Y0079971D01*
X0295664Y0079885D01*
X0295529Y0079801D01*
X0295393Y0079722D01*
X0295254Y0079645D01*
X0295113Y0079573D01*
X0294971Y0079503D01*
X0294827Y0079438D01*
X0294681Y0079376D01*
X0294534Y0079318D01*
X0294385Y0079263D01*
X0294235Y0079212D01*
X0294084Y0079165D01*
X0293932Y0079122D01*
X0293779Y0079083D01*
X0293624Y0079047D01*
X0293469Y0079016D01*
X0293313Y0078988D01*
X0293157Y0078964D01*
X0293000Y0078944D01*
X0292842Y0078928D01*
X0292685Y0078916D01*
X0292526Y0078908D01*
X0292368Y0078904D01*
X0292210Y0078904D01*
X0292052Y0078908D01*
X0291893Y0078916D01*
X0291736Y0078928D01*
X0291578Y0078944D01*
X0291421Y0078964D01*
X0291265Y0078988D01*
X0291109Y0079016D01*
X0290954Y0079047D01*
X0290799Y0079083D01*
X0290646Y0079122D01*
X0290494Y0079165D01*
X0290343Y0079212D01*
X0290193Y0079263D01*
X0290044Y0079318D01*
X0289897Y0079376D01*
X0289751Y0079438D01*
X0289607Y0079503D01*
X0289465Y0079573D01*
X0289324Y0079645D01*
X0289185Y0079722D01*
X0289049Y0079801D01*
X0288914Y0079885D01*
X0288781Y0079971D01*
X0288651Y0080061D01*
X0288523Y0080154D01*
X0288397Y0080250D01*
X0288274Y0080350D01*
X0288153Y0080452D01*
X0288035Y0080557D01*
X0287920Y0080666D01*
X0287807Y0080777D01*
X0287697Y0080891D01*
X0287590Y0081008D01*
X0287486Y0081127D01*
X0287385Y0081249D01*
X0287288Y0081374D01*
X0287193Y0081501D01*
X0287102Y0081630D01*
X0287013Y0081761D01*
X0286929Y0081895D01*
X0286847Y0082031D01*
X0286769Y0082168D01*
X0286695Y0082308D01*
X0286624Y0082450D01*
X0286556Y0082593D01*
X0286492Y0082738D01*
X0286432Y0082884D01*
X0286376Y0083032D01*
X0286323Y0083181D01*
X0286274Y0083332D01*
X0286229Y0083484D01*
X0286188Y0083637D01*
X0286150Y0083790D01*
X0286117Y0083945D01*
X0286087Y0084101D01*
X0286061Y0084257D01*
X0286040Y0084414D01*
X0286022Y0084571D01*
X0286008Y0084729D01*
X0285998Y0084887D01*
X0285992Y0085045D01*
X0285990Y0085203D01*
X0285990Y0026148D02*
X0285992Y0026306D01*
X0285998Y0026464D01*
X0286008Y0026622D01*
X0286022Y0026780D01*
X0286040Y0026937D01*
X0286061Y0027094D01*
X0286087Y0027250D01*
X0286117Y0027406D01*
X0286150Y0027561D01*
X0286188Y0027714D01*
X0286229Y0027867D01*
X0286274Y0028019D01*
X0286323Y0028170D01*
X0286376Y0028319D01*
X0286432Y0028467D01*
X0286492Y0028613D01*
X0286556Y0028758D01*
X0286624Y0028901D01*
X0286695Y0029043D01*
X0286769Y0029183D01*
X0286847Y0029320D01*
X0286929Y0029456D01*
X0287013Y0029590D01*
X0287102Y0029721D01*
X0287193Y0029850D01*
X0287288Y0029977D01*
X0287385Y0030102D01*
X0287486Y0030224D01*
X0287590Y0030343D01*
X0287697Y0030460D01*
X0287807Y0030574D01*
X0287920Y0030685D01*
X0288035Y0030794D01*
X0288153Y0030899D01*
X0288274Y0031001D01*
X0288397Y0031101D01*
X0288523Y0031197D01*
X0288651Y0031290D01*
X0288781Y0031380D01*
X0288914Y0031466D01*
X0289049Y0031550D01*
X0289185Y0031629D01*
X0289324Y0031706D01*
X0289465Y0031778D01*
X0289607Y0031848D01*
X0289751Y0031913D01*
X0289897Y0031975D01*
X0290044Y0032033D01*
X0290193Y0032088D01*
X0290343Y0032139D01*
X0290494Y0032186D01*
X0290646Y0032229D01*
X0290799Y0032268D01*
X0290954Y0032304D01*
X0291109Y0032335D01*
X0291265Y0032363D01*
X0291421Y0032387D01*
X0291578Y0032407D01*
X0291736Y0032423D01*
X0291893Y0032435D01*
X0292052Y0032443D01*
X0292210Y0032447D01*
X0292368Y0032447D01*
X0292526Y0032443D01*
X0292685Y0032435D01*
X0292842Y0032423D01*
X0293000Y0032407D01*
X0293157Y0032387D01*
X0293313Y0032363D01*
X0293469Y0032335D01*
X0293624Y0032304D01*
X0293779Y0032268D01*
X0293932Y0032229D01*
X0294084Y0032186D01*
X0294235Y0032139D01*
X0294385Y0032088D01*
X0294534Y0032033D01*
X0294681Y0031975D01*
X0294827Y0031913D01*
X0294971Y0031848D01*
X0295113Y0031778D01*
X0295254Y0031706D01*
X0295393Y0031629D01*
X0295529Y0031550D01*
X0295664Y0031466D01*
X0295797Y0031380D01*
X0295927Y0031290D01*
X0296055Y0031197D01*
X0296181Y0031101D01*
X0296304Y0031001D01*
X0296425Y0030899D01*
X0296543Y0030794D01*
X0296658Y0030685D01*
X0296771Y0030574D01*
X0296881Y0030460D01*
X0296988Y0030343D01*
X0297092Y0030224D01*
X0297193Y0030102D01*
X0297290Y0029977D01*
X0297385Y0029850D01*
X0297476Y0029721D01*
X0297565Y0029590D01*
X0297649Y0029456D01*
X0297731Y0029320D01*
X0297809Y0029183D01*
X0297883Y0029043D01*
X0297954Y0028901D01*
X0298022Y0028758D01*
X0298086Y0028613D01*
X0298146Y0028467D01*
X0298202Y0028319D01*
X0298255Y0028170D01*
X0298304Y0028019D01*
X0298349Y0027867D01*
X0298390Y0027714D01*
X0298428Y0027561D01*
X0298461Y0027406D01*
X0298491Y0027250D01*
X0298517Y0027094D01*
X0298538Y0026937D01*
X0298556Y0026780D01*
X0298570Y0026622D01*
X0298580Y0026464D01*
X0298586Y0026306D01*
X0298588Y0026148D01*
X0298586Y0025990D01*
X0298580Y0025832D01*
X0298570Y0025674D01*
X0298556Y0025516D01*
X0298538Y0025359D01*
X0298517Y0025202D01*
X0298491Y0025046D01*
X0298461Y0024890D01*
X0298428Y0024735D01*
X0298390Y0024582D01*
X0298349Y0024429D01*
X0298304Y0024277D01*
X0298255Y0024126D01*
X0298202Y0023977D01*
X0298146Y0023829D01*
X0298086Y0023683D01*
X0298022Y0023538D01*
X0297954Y0023395D01*
X0297883Y0023253D01*
X0297809Y0023113D01*
X0297731Y0022976D01*
X0297649Y0022840D01*
X0297565Y0022706D01*
X0297476Y0022575D01*
X0297385Y0022446D01*
X0297290Y0022319D01*
X0297193Y0022194D01*
X0297092Y0022072D01*
X0296988Y0021953D01*
X0296881Y0021836D01*
X0296771Y0021722D01*
X0296658Y0021611D01*
X0296543Y0021502D01*
X0296425Y0021397D01*
X0296304Y0021295D01*
X0296181Y0021195D01*
X0296055Y0021099D01*
X0295927Y0021006D01*
X0295797Y0020916D01*
X0295664Y0020830D01*
X0295529Y0020746D01*
X0295393Y0020667D01*
X0295254Y0020590D01*
X0295113Y0020518D01*
X0294971Y0020448D01*
X0294827Y0020383D01*
X0294681Y0020321D01*
X0294534Y0020263D01*
X0294385Y0020208D01*
X0294235Y0020157D01*
X0294084Y0020110D01*
X0293932Y0020067D01*
X0293779Y0020028D01*
X0293624Y0019992D01*
X0293469Y0019961D01*
X0293313Y0019933D01*
X0293157Y0019909D01*
X0293000Y0019889D01*
X0292842Y0019873D01*
X0292685Y0019861D01*
X0292526Y0019853D01*
X0292368Y0019849D01*
X0292210Y0019849D01*
X0292052Y0019853D01*
X0291893Y0019861D01*
X0291736Y0019873D01*
X0291578Y0019889D01*
X0291421Y0019909D01*
X0291265Y0019933D01*
X0291109Y0019961D01*
X0290954Y0019992D01*
X0290799Y0020028D01*
X0290646Y0020067D01*
X0290494Y0020110D01*
X0290343Y0020157D01*
X0290193Y0020208D01*
X0290044Y0020263D01*
X0289897Y0020321D01*
X0289751Y0020383D01*
X0289607Y0020448D01*
X0289465Y0020518D01*
X0289324Y0020590D01*
X0289185Y0020667D01*
X0289049Y0020746D01*
X0288914Y0020830D01*
X0288781Y0020916D01*
X0288651Y0021006D01*
X0288523Y0021099D01*
X0288397Y0021195D01*
X0288274Y0021295D01*
X0288153Y0021397D01*
X0288035Y0021502D01*
X0287920Y0021611D01*
X0287807Y0021722D01*
X0287697Y0021836D01*
X0287590Y0021953D01*
X0287486Y0022072D01*
X0287385Y0022194D01*
X0287288Y0022319D01*
X0287193Y0022446D01*
X0287102Y0022575D01*
X0287013Y0022706D01*
X0286929Y0022840D01*
X0286847Y0022976D01*
X0286769Y0023113D01*
X0286695Y0023253D01*
X0286624Y0023395D01*
X0286556Y0023538D01*
X0286492Y0023683D01*
X0286432Y0023829D01*
X0286376Y0023977D01*
X0286323Y0024126D01*
X0286274Y0024277D01*
X0286229Y0024429D01*
X0286188Y0024582D01*
X0286150Y0024735D01*
X0286117Y0024890D01*
X0286087Y0025046D01*
X0286061Y0025202D01*
X0286040Y0025359D01*
X0286022Y0025516D01*
X0286008Y0025674D01*
X0285998Y0025832D01*
X0285992Y0025990D01*
X0285990Y0026148D01*
D11*
X0261906Y0016286D03*
X0261906Y0063058D03*
D12*
X0256591Y0052074D03*
X0256768Y0051896D03*
X0256945Y0051719D03*
X0256236Y0052251D03*
X0245784Y0046581D03*
X0267043Y0051719D03*
X0267575Y0052074D03*
X0278382Y0046581D03*
X0278382Y0041975D03*
X0278382Y0041798D03*
X0278205Y0041444D03*
X0247024Y0030282D03*
X0247024Y0030105D03*
X0246847Y0030459D03*
X0246847Y0030637D03*
X0246669Y0030814D03*
X0246669Y0030991D03*
X0246492Y0031168D03*
X0246492Y0031345D03*
X0246315Y0031522D03*
X0246315Y0031700D03*
X0262083Y0016463D03*
D13*
X0262083Y0016640D03*
X0250567Y0025144D03*
X0250390Y0025322D03*
X0250213Y0025499D03*
X0267752Y0035243D03*
X0267752Y0035420D03*
X0267752Y0035597D03*
X0267752Y0035774D03*
X0267752Y0035952D03*
X0277851Y0040381D03*
X0262083Y0073511D03*
D14*
X0261994Y0061109D03*
X0277585Y0039849D03*
X0268195Y0032054D03*
X0268195Y0031877D03*
X0268195Y0031700D03*
X0276522Y0029751D03*
X0261994Y0016818D03*
D15*
X0261994Y0016995D03*
X0267309Y0020184D03*
X0267486Y0020361D03*
X0267841Y0020538D03*
X0268195Y0020715D03*
X0268372Y0020892D03*
X0268549Y0029928D03*
X0268549Y0030105D03*
X0268549Y0030282D03*
X0277230Y0039140D03*
X0277408Y0050125D03*
X0261994Y0051542D03*
X0261994Y0051719D03*
X0261994Y0060577D03*
X0246758Y0050125D03*
D16*
X0247112Y0049593D03*
X0261994Y0052074D03*
X0261994Y0060223D03*
X0277053Y0049593D03*
X0276876Y0038609D03*
X0276522Y0031345D03*
X0268904Y0028688D03*
X0268904Y0028511D03*
X0268904Y0021601D03*
X0261994Y0017172D03*
X0262171Y0072979D03*
D17*
X0262083Y0048885D03*
X0247378Y0049062D03*
X0276433Y0032231D03*
X0276433Y0032054D03*
X0269169Y0027802D03*
X0269169Y0027625D03*
X0269169Y0021955D03*
X0262083Y0017349D03*
D18*
X0261994Y0017526D03*
X0269435Y0022487D03*
X0276345Y0037900D03*
X0269258Y0041089D03*
X0270144Y0043747D03*
X0261994Y0059514D03*
D19*
X0261994Y0058983D03*
X0261994Y0053314D03*
X0261994Y0049062D03*
X0269612Y0041798D03*
X0275990Y0036837D03*
X0275990Y0036660D03*
X0275990Y0036483D03*
X0275990Y0036306D03*
X0259160Y0025853D03*
X0261994Y0017703D03*
X0269789Y0023018D03*
X0262171Y0072625D03*
D20*
X0262260Y0072448D03*
X0262083Y0058274D03*
X0262083Y0058097D03*
X0262083Y0054377D03*
X0262083Y0054200D03*
X0262083Y0054022D03*
X0258717Y0026739D03*
X0270232Y0023904D03*
X0262083Y0017881D03*
D21*
X0262083Y0018058D03*
X0258362Y0020538D03*
X0258362Y0027448D03*
X0258362Y0027625D03*
X0270587Y0024613D03*
X0275370Y0052074D03*
X0275370Y0053314D03*
X0275370Y0053491D03*
X0275370Y0053668D03*
X0275370Y0053845D03*
X0275370Y0054022D03*
X0248795Y0051896D03*
D22*
X0262083Y0049239D03*
X0275193Y0051719D03*
X0258185Y0027979D03*
X0258185Y0020715D03*
X0262083Y0018235D03*
X0270764Y0025144D03*
D23*
X0271030Y0025676D03*
X0261994Y0018412D03*
X0257919Y0021070D03*
X0257919Y0028511D03*
X0257919Y0028688D03*
X0249238Y0051542D03*
D24*
X0249593Y0056680D03*
X0249593Y0056857D03*
X0249593Y0057034D03*
X0249593Y0057211D03*
X0249593Y0057389D03*
X0249593Y0057566D03*
X0249593Y0057743D03*
X0249593Y0057920D03*
X0249593Y0058097D03*
X0257565Y0029751D03*
X0257565Y0021778D03*
X0261994Y0018589D03*
X0271384Y0026562D03*
D25*
X0257299Y0030459D03*
X0257299Y0030637D03*
X0257299Y0022133D03*
X0262083Y0018766D03*
X0262083Y0049416D03*
X0249858Y0055085D03*
X0249858Y0055263D03*
X0249858Y0059692D03*
X0249858Y0059869D03*
X0274307Y0059514D03*
X0274307Y0059337D03*
X0274307Y0059160D03*
X0274307Y0058983D03*
X0274307Y0055794D03*
X0274307Y0055617D03*
X0274307Y0055440D03*
D26*
X0274041Y0054554D03*
X0274041Y0054377D03*
X0274041Y0060400D03*
X0274041Y0060577D03*
X0262171Y0071739D03*
X0250124Y0061109D03*
X0257034Y0031700D03*
X0257034Y0031522D03*
X0257034Y0031345D03*
X0257034Y0022664D03*
X0261994Y0018944D03*
D27*
X0261994Y0019121D03*
X0256679Y0032940D03*
X0256679Y0033117D03*
X0256679Y0033294D03*
X0256679Y0033471D03*
X0256679Y0036837D03*
X0256679Y0040203D03*
X0250301Y0061818D03*
X0250301Y0061995D03*
X0273687Y0061818D03*
D28*
X0273333Y0062703D03*
X0273333Y0062881D03*
X0250656Y0062881D03*
X0250656Y0063058D03*
X0257388Y0043747D03*
X0256856Y0040912D03*
X0261994Y0019298D03*
D29*
X0259071Y0019475D03*
X0259071Y0026030D03*
X0269878Y0023196D03*
X0269701Y0041975D03*
D30*
X0277142Y0038963D03*
X0276433Y0030814D03*
X0276433Y0030637D03*
X0268638Y0029751D03*
X0268638Y0029574D03*
X0268461Y0021070D03*
X0267043Y0020007D03*
X0266158Y0019475D03*
X0277319Y0049948D03*
D31*
X0269967Y0043570D03*
X0269789Y0042152D03*
X0261994Y0053491D03*
X0261994Y0058806D03*
X0248175Y0048707D03*
X0258982Y0026207D03*
X0258982Y0019652D03*
X0269967Y0023373D03*
D32*
X0268549Y0021247D03*
X0266778Y0019829D03*
X0266423Y0019652D03*
X0268726Y0029219D03*
X0268726Y0029396D03*
X0277053Y0038786D03*
X0268549Y0040558D03*
X0261994Y0051896D03*
X0261994Y0060400D03*
X0246935Y0049948D03*
X0262171Y0073156D03*
D33*
X0261994Y0058452D03*
X0269967Y0043215D03*
X0269967Y0043038D03*
X0269967Y0042861D03*
X0258805Y0026562D03*
X0258805Y0019829D03*
X0270144Y0023727D03*
D34*
X0270321Y0024081D03*
X0258628Y0026916D03*
X0258628Y0020007D03*
X0248530Y0052428D03*
X0261994Y0054554D03*
X0261994Y0054731D03*
D35*
X0262083Y0057743D03*
X0262083Y0057920D03*
X0248618Y0054554D03*
X0248618Y0054377D03*
X0248618Y0054200D03*
X0248618Y0054022D03*
X0248618Y0053845D03*
X0248618Y0053668D03*
X0248618Y0053491D03*
X0248618Y0053314D03*
X0248618Y0053137D03*
X0248618Y0052959D03*
X0248618Y0052782D03*
X0248618Y0052605D03*
X0248618Y0052251D03*
X0248618Y0052074D03*
X0275547Y0052428D03*
X0258539Y0027093D03*
X0258539Y0020184D03*
X0270410Y0024259D03*
D36*
X0270498Y0024436D03*
X0258451Y0027270D03*
X0258451Y0020361D03*
X0275459Y0052251D03*
X0275459Y0052605D03*
X0275459Y0052782D03*
X0275459Y0052959D03*
X0275459Y0053137D03*
X0261994Y0054908D03*
X0261994Y0055085D03*
X0261994Y0055263D03*
X0261994Y0055440D03*
X0261994Y0055617D03*
X0261994Y0055794D03*
X0261994Y0055971D03*
X0261994Y0056148D03*
X0261994Y0056326D03*
X0261994Y0056503D03*
X0261994Y0056680D03*
X0261994Y0056857D03*
X0261994Y0057034D03*
X0261994Y0057211D03*
X0261994Y0057389D03*
X0261994Y0057566D03*
X0262171Y0072270D03*
D37*
X0262171Y0072093D03*
X0258097Y0028156D03*
X0258097Y0020892D03*
X0270852Y0025322D03*
D38*
X0271118Y0025853D03*
X0257831Y0028865D03*
X0257831Y0021247D03*
X0274839Y0051542D03*
D39*
X0257742Y0029219D03*
X0257742Y0029042D03*
X0257742Y0021424D03*
X0271207Y0026030D03*
D40*
X0268815Y0028865D03*
X0268815Y0029042D03*
X0276433Y0030991D03*
X0276433Y0031168D03*
X0268815Y0021424D03*
X0277142Y0049770D03*
X0247024Y0049770D03*
D41*
X0254642Y0051011D03*
X0257654Y0029574D03*
X0257654Y0029396D03*
X0257654Y0021601D03*
X0271295Y0026207D03*
X0271295Y0026385D03*
D42*
X0268992Y0028156D03*
X0268992Y0028333D03*
X0276433Y0031522D03*
X0276433Y0031700D03*
X0276433Y0031877D03*
X0276788Y0038432D03*
X0268815Y0040735D03*
X0276965Y0049416D03*
X0262083Y0060046D03*
X0247201Y0049416D03*
X0268992Y0021778D03*
D43*
X0257388Y0021955D03*
X0257388Y0030105D03*
X0257388Y0030282D03*
X0249770Y0055440D03*
X0249770Y0055617D03*
X0249770Y0059160D03*
X0249770Y0059337D03*
X0249770Y0059514D03*
X0262171Y0071916D03*
X0274396Y0058806D03*
X0274396Y0058629D03*
X0274396Y0058452D03*
X0274396Y0058274D03*
X0274396Y0056326D03*
X0274396Y0056148D03*
X0274396Y0055971D03*
D44*
X0276699Y0049062D03*
X0269081Y0040912D03*
X0276522Y0038077D03*
X0276345Y0032585D03*
X0276345Y0032408D03*
X0269258Y0027448D03*
X0269258Y0027270D03*
X0269258Y0022133D03*
X0261994Y0052428D03*
X0261994Y0059692D03*
X0262171Y0072802D03*
D45*
X0249947Y0060400D03*
X0249947Y0060223D03*
X0249947Y0060046D03*
X0249947Y0054908D03*
X0249947Y0054731D03*
X0274219Y0054908D03*
X0274219Y0055085D03*
X0274219Y0055263D03*
X0274219Y0059692D03*
X0274219Y0059869D03*
X0274219Y0060046D03*
X0257211Y0030814D03*
X0257211Y0022310D03*
D46*
X0269347Y0022310D03*
X0269347Y0026916D03*
X0269347Y0027093D03*
X0276256Y0032763D03*
X0276256Y0032940D03*
X0276256Y0033117D03*
X0276610Y0048885D03*
X0262083Y0052605D03*
X0247555Y0048885D03*
D47*
X0250036Y0048530D03*
X0250036Y0060577D03*
X0250036Y0060755D03*
X0250036Y0060932D03*
X0274130Y0060223D03*
X0274130Y0054731D03*
X0257122Y0031168D03*
X0257122Y0030991D03*
X0257122Y0022487D03*
D48*
X0269524Y0022664D03*
X0269524Y0026739D03*
X0276256Y0033294D03*
X0276256Y0033471D03*
X0276256Y0033648D03*
X0276256Y0033826D03*
X0276256Y0034003D03*
X0269347Y0041266D03*
X0262083Y0052782D03*
D49*
X0262083Y0051011D03*
X0268106Y0040203D03*
X0277673Y0040026D03*
X0267929Y0033294D03*
X0268106Y0032585D03*
X0268106Y0032408D03*
X0268106Y0032231D03*
X0252870Y0023018D03*
X0253047Y0022841D03*
X0252516Y0023196D03*
X0252339Y0023373D03*
X0252162Y0023550D03*
X0251984Y0023727D03*
X0277851Y0051011D03*
D50*
X0269435Y0041444D03*
X0276167Y0037723D03*
X0276167Y0034889D03*
X0276167Y0034711D03*
X0276167Y0034534D03*
X0276167Y0034357D03*
X0276167Y0034180D03*
X0259337Y0025322D03*
X0259337Y0025144D03*
X0259337Y0024967D03*
X0259337Y0024790D03*
X0259337Y0024613D03*
X0259337Y0024436D03*
X0259337Y0024259D03*
X0259337Y0024081D03*
X0259337Y0023904D03*
X0259337Y0023727D03*
X0259337Y0023550D03*
X0259337Y0023373D03*
X0259337Y0023196D03*
X0259337Y0023018D03*
X0259337Y0022841D03*
X0261994Y0052959D03*
X0261994Y0059160D03*
X0261994Y0059337D03*
D51*
X0261906Y0053137D03*
X0262083Y0048707D03*
X0269524Y0041621D03*
X0276079Y0037546D03*
X0276079Y0037369D03*
X0276079Y0037192D03*
X0276079Y0037014D03*
X0276079Y0036129D03*
X0276079Y0035952D03*
X0276079Y0035774D03*
X0276079Y0035597D03*
X0276079Y0035420D03*
X0276079Y0035243D03*
X0276079Y0035066D03*
X0259248Y0025676D03*
X0259248Y0025499D03*
X0269701Y0022841D03*
D52*
X0270055Y0023550D03*
X0258894Y0026385D03*
X0269878Y0042329D03*
X0269878Y0042507D03*
X0269878Y0042684D03*
X0270055Y0043392D03*
X0275902Y0048707D03*
X0262083Y0053668D03*
X0262083Y0053845D03*
X0262083Y0058629D03*
D53*
X0261994Y0061286D03*
X0261994Y0061463D03*
X0257211Y0051365D03*
X0246226Y0051011D03*
X0267841Y0035066D03*
X0267841Y0034889D03*
X0267841Y0034711D03*
X0267841Y0034534D03*
X0267841Y0034357D03*
X0267841Y0034180D03*
X0267841Y0034003D03*
X0267841Y0033826D03*
X0267841Y0033648D03*
X0267841Y0033471D03*
X0268018Y0033117D03*
X0268018Y0032940D03*
X0268018Y0032763D03*
X0276522Y0029574D03*
X0277762Y0040203D03*
X0250833Y0024790D03*
X0251010Y0024613D03*
X0251187Y0024436D03*
X0251364Y0024259D03*
X0251541Y0024081D03*
X0251719Y0023904D03*
X0250656Y0024967D03*
D54*
X0258274Y0027802D03*
X0270675Y0024967D03*
X0270675Y0024790D03*
X0275282Y0051896D03*
X0275282Y0054200D03*
X0248884Y0051719D03*
D55*
X0258008Y0028333D03*
X0270941Y0025499D03*
D56*
X0275282Y0027093D03*
X0275459Y0027270D03*
X0276522Y0029219D03*
X0276522Y0029396D03*
X0267841Y0036129D03*
X0267841Y0036306D03*
X0267841Y0036483D03*
X0267841Y0036660D03*
X0277939Y0040558D03*
X0277939Y0040735D03*
X0257034Y0051542D03*
X0261994Y0061640D03*
X0248707Y0027270D03*
X0248884Y0027093D03*
X0249061Y0026916D03*
X0249238Y0026562D03*
X0249415Y0026385D03*
X0249593Y0026207D03*
X0249770Y0026030D03*
X0249947Y0025853D03*
X0249947Y0025676D03*
D57*
X0249150Y0026739D03*
X0248618Y0027448D03*
X0248441Y0027625D03*
X0248441Y0027802D03*
X0248264Y0027979D03*
X0248087Y0028156D03*
X0248087Y0028333D03*
X0247910Y0028511D03*
X0267929Y0036837D03*
X0278028Y0040912D03*
X0278028Y0041089D03*
X0266866Y0051542D03*
X0262083Y0061818D03*
X0276433Y0029042D03*
X0276256Y0028333D03*
X0276079Y0028156D03*
X0275902Y0027979D03*
X0275902Y0027802D03*
X0275725Y0027625D03*
X0275547Y0027448D03*
X0275193Y0026916D03*
X0275016Y0026739D03*
D58*
X0269081Y0027979D03*
X0276699Y0038255D03*
X0276876Y0049239D03*
X0261994Y0052251D03*
X0261994Y0059869D03*
X0247289Y0049239D03*
D59*
X0245872Y0046759D03*
X0267309Y0051896D03*
X0261994Y0061995D03*
X0278293Y0041621D03*
X0278116Y0041266D03*
X0276522Y0028865D03*
X0276522Y0028688D03*
X0276345Y0028511D03*
X0247821Y0028688D03*
X0247644Y0028865D03*
X0247644Y0029042D03*
X0247467Y0029219D03*
X0247289Y0029396D03*
X0247289Y0029574D03*
X0247112Y0029751D03*
X0247112Y0029928D03*
D60*
X0257476Y0029928D03*
X0269701Y0051011D03*
X0274484Y0056503D03*
X0274484Y0056680D03*
X0274484Y0056857D03*
X0274484Y0057034D03*
X0274484Y0057211D03*
X0274484Y0057389D03*
X0274484Y0057566D03*
X0274484Y0057743D03*
X0274484Y0057920D03*
X0274484Y0058097D03*
X0249681Y0058274D03*
X0249681Y0058452D03*
X0249681Y0058629D03*
X0249681Y0058806D03*
X0249681Y0058983D03*
X0249681Y0056503D03*
X0249681Y0056326D03*
X0249681Y0056148D03*
X0249681Y0055971D03*
X0249681Y0055794D03*
X0249681Y0051365D03*
D61*
X0246492Y0050833D03*
X0277673Y0050833D03*
X0277496Y0039672D03*
X0268284Y0031522D03*
X0268284Y0031345D03*
X0268284Y0031168D03*
X0276433Y0029928D03*
D62*
X0276522Y0030105D03*
X0276522Y0030282D03*
X0268372Y0030814D03*
X0268372Y0030991D03*
X0277408Y0039495D03*
X0261817Y0051188D03*
X0246581Y0050656D03*
X0246581Y0050479D03*
X0261994Y0060755D03*
X0261994Y0060932D03*
X0262171Y0073333D03*
D63*
X0261906Y0051365D03*
X0246669Y0050302D03*
X0268461Y0040381D03*
X0277319Y0039318D03*
X0276433Y0030459D03*
X0268461Y0030459D03*
X0268461Y0030637D03*
X0277496Y0050302D03*
X0277496Y0050479D03*
X0277496Y0050656D03*
D64*
X0268195Y0052605D03*
X0268018Y0052428D03*
X0267841Y0052251D03*
X0255616Y0052959D03*
X0245695Y0046404D03*
X0245695Y0046227D03*
X0245695Y0046050D03*
X0245695Y0045873D03*
X0245695Y0045696D03*
X0245695Y0045518D03*
X0245695Y0045341D03*
X0245695Y0045164D03*
X0245695Y0044987D03*
X0245695Y0044810D03*
X0245695Y0044633D03*
X0245695Y0044455D03*
X0245695Y0044278D03*
X0245695Y0044101D03*
X0245695Y0043924D03*
X0245695Y0043747D03*
X0245695Y0043570D03*
X0245695Y0043392D03*
X0245695Y0043215D03*
X0245695Y0043038D03*
X0245695Y0042861D03*
X0245695Y0042684D03*
X0245695Y0042507D03*
X0245695Y0042329D03*
X0245695Y0042152D03*
X0245695Y0041975D03*
X0245695Y0041798D03*
X0245695Y0041621D03*
X0245695Y0041444D03*
X0245695Y0041266D03*
X0245695Y0041089D03*
X0245695Y0040912D03*
X0245695Y0040735D03*
X0245695Y0040558D03*
X0245695Y0040381D03*
X0245695Y0040203D03*
X0245695Y0040026D03*
X0245695Y0039849D03*
X0245695Y0039672D03*
X0245695Y0039495D03*
X0245695Y0039318D03*
X0245695Y0039140D03*
X0245695Y0038963D03*
X0245695Y0038786D03*
X0245695Y0038609D03*
X0245695Y0038432D03*
X0245695Y0038255D03*
X0245695Y0038077D03*
X0245695Y0037900D03*
X0245695Y0037723D03*
X0245695Y0037546D03*
X0245695Y0037369D03*
X0245695Y0037192D03*
X0245695Y0037014D03*
X0245695Y0036837D03*
X0245695Y0036660D03*
X0245695Y0036483D03*
X0245695Y0036306D03*
X0245695Y0036129D03*
X0245695Y0035952D03*
X0245695Y0035774D03*
X0245695Y0035597D03*
X0245695Y0035420D03*
X0245695Y0035243D03*
X0245695Y0035066D03*
X0245695Y0034889D03*
X0245695Y0034711D03*
X0245695Y0034534D03*
X0245695Y0034357D03*
X0245872Y0033471D03*
X0245872Y0033294D03*
X0245872Y0033117D03*
X0246049Y0032585D03*
X0246049Y0032408D03*
X0246226Y0032054D03*
X0246226Y0031877D03*
X0278471Y0042152D03*
X0278471Y0042329D03*
X0278471Y0042507D03*
X0261994Y0062172D03*
X0262171Y0073688D03*
D65*
X0250213Y0061286D03*
X0262083Y0049593D03*
X0273953Y0060755D03*
X0273953Y0060932D03*
X0256945Y0032231D03*
X0256945Y0032054D03*
X0256945Y0031877D03*
D66*
X0246138Y0032231D03*
X0245961Y0032763D03*
X0245961Y0032940D03*
X0245784Y0033648D03*
X0245784Y0033826D03*
X0245784Y0034003D03*
X0245784Y0034180D03*
X0267575Y0040026D03*
X0278559Y0042684D03*
X0278559Y0042861D03*
X0278559Y0046404D03*
X0268461Y0052959D03*
X0268284Y0052782D03*
X0268638Y0053314D03*
X0256059Y0052428D03*
X0255882Y0052605D03*
X0255705Y0052782D03*
X0255173Y0053491D03*
X0254465Y0054377D03*
X0262083Y0062349D03*
D67*
X0273864Y0061463D03*
X0273864Y0061286D03*
X0273864Y0061109D03*
X0256856Y0040026D03*
X0256856Y0032408D03*
D68*
X0256768Y0032585D03*
X0256768Y0032763D03*
X0250213Y0061463D03*
X0250213Y0061640D03*
X0262083Y0071562D03*
X0273776Y0061640D03*
D69*
X0273599Y0061995D03*
X0273599Y0062172D03*
X0250390Y0062172D03*
X0256591Y0036660D03*
X0256591Y0036483D03*
X0256591Y0036306D03*
X0256591Y0036129D03*
X0256591Y0035952D03*
X0256591Y0035774D03*
X0256591Y0035597D03*
X0256591Y0035420D03*
X0256591Y0035243D03*
X0256591Y0035066D03*
X0256591Y0034889D03*
X0256591Y0034711D03*
X0256591Y0034534D03*
X0256591Y0034357D03*
X0256591Y0034180D03*
X0256591Y0034003D03*
X0256591Y0033826D03*
X0256591Y0033648D03*
D70*
X0261994Y0037014D03*
X0261994Y0039849D03*
X0262171Y0043924D03*
X0261994Y0063235D03*
D71*
X0262083Y0062703D03*
X0254819Y0054022D03*
X0278736Y0046050D03*
X0278736Y0045873D03*
X0278736Y0045696D03*
X0278736Y0045518D03*
X0278736Y0045341D03*
X0278736Y0045164D03*
X0278736Y0044987D03*
X0278736Y0044810D03*
X0278736Y0044633D03*
X0278736Y0044455D03*
X0278736Y0044278D03*
X0278736Y0044101D03*
X0278736Y0043924D03*
X0278736Y0043747D03*
X0268284Y0037014D03*
D72*
X0262171Y0037192D03*
X0262171Y0037369D03*
X0262171Y0037546D03*
X0262171Y0037723D03*
X0262171Y0037900D03*
X0262171Y0038077D03*
X0262171Y0038255D03*
X0262171Y0038432D03*
X0262171Y0038609D03*
X0262171Y0038786D03*
X0262171Y0038963D03*
X0262171Y0039140D03*
X0262171Y0039318D03*
X0262171Y0039495D03*
X0262171Y0044101D03*
X0262171Y0044278D03*
X0262171Y0044455D03*
X0262171Y0044633D03*
X0262171Y0044810D03*
X0262171Y0044987D03*
X0262171Y0045164D03*
X0262171Y0045341D03*
X0262171Y0045518D03*
X0262171Y0045696D03*
X0262171Y0045873D03*
X0262171Y0046227D03*
X0261994Y0063589D03*
X0261994Y0063766D03*
D73*
X0261906Y0063412D03*
X0262083Y0046404D03*
X0262083Y0039672D03*
D74*
X0256679Y0040381D03*
X0256679Y0040558D03*
X0250478Y0062349D03*
X0262171Y0071385D03*
X0273510Y0062349D03*
D75*
X0273421Y0062526D03*
X0262083Y0049770D03*
X0256768Y0040735D03*
X0250567Y0062526D03*
X0250567Y0062703D03*
D76*
X0250744Y0063235D03*
X0273244Y0063058D03*
X0256945Y0041266D03*
X0256945Y0041089D03*
D77*
X0257034Y0041444D03*
X0257034Y0041621D03*
X0250833Y0063412D03*
X0273156Y0063412D03*
X0273156Y0063235D03*
D78*
X0273067Y0063589D03*
X0250921Y0063589D03*
X0250921Y0063766D03*
X0257122Y0041975D03*
X0257122Y0041798D03*
D79*
X0257211Y0042152D03*
X0251010Y0063944D03*
X0272978Y0063766D03*
D80*
X0272890Y0063944D03*
X0272890Y0064121D03*
X0251099Y0064121D03*
X0257476Y0043570D03*
X0257299Y0042507D03*
X0257299Y0042329D03*
D81*
X0257388Y0042684D03*
X0257388Y0042861D03*
X0251187Y0064298D03*
X0251187Y0064475D03*
X0272801Y0064298D03*
D82*
X0272713Y0064475D03*
X0262260Y0071207D03*
X0251276Y0064829D03*
X0251276Y0064652D03*
X0257476Y0043392D03*
X0257476Y0043215D03*
X0257476Y0043038D03*
D83*
X0255439Y0053137D03*
X0255262Y0053314D03*
X0255085Y0053668D03*
X0254553Y0054200D03*
X0254376Y0054554D03*
X0268549Y0053137D03*
X0268904Y0053491D03*
X0269081Y0053668D03*
X0269081Y0053845D03*
X0269258Y0054022D03*
X0269258Y0054200D03*
X0278648Y0046227D03*
X0278648Y0043570D03*
X0278648Y0043392D03*
X0278648Y0043215D03*
X0278648Y0043038D03*
X0261994Y0062526D03*
X0262171Y0073865D03*
D84*
X0262083Y0046050D03*
D85*
X0262171Y0046581D03*
X0254908Y0053845D03*
X0261994Y0062881D03*
D86*
X0270410Y0046759D03*
D87*
X0262083Y0046936D03*
X0262083Y0047113D03*
X0262083Y0047290D03*
X0262083Y0047467D03*
X0262083Y0047644D03*
X0262083Y0047822D03*
X0262083Y0047999D03*
X0262083Y0048176D03*
X0262083Y0048353D03*
X0262083Y0070144D03*
D88*
X0267841Y0048530D03*
D89*
X0262171Y0049948D03*
X0272624Y0064652D03*
X0272624Y0064829D03*
X0251364Y0065007D03*
X0251364Y0065184D03*
D90*
X0252250Y0066778D03*
X0262171Y0070853D03*
X0262171Y0050125D03*
D91*
X0262171Y0050302D03*
X0271207Y0068018D03*
X0252782Y0068196D03*
X0252782Y0068373D03*
X0252782Y0068550D03*
X0252782Y0068727D03*
D92*
X0262171Y0050479D03*
D93*
X0262171Y0050656D03*
D94*
X0262260Y0050833D03*
D95*
X0251896Y0051188D03*
X0251719Y0066070D03*
X0251719Y0066247D03*
D96*
X0272181Y0066070D03*
X0272181Y0051188D03*
D97*
X0272358Y0051365D03*
X0272358Y0065892D03*
X0251630Y0065892D03*
X0251630Y0065715D03*
D98*
X0261994Y0063944D03*
D99*
X0262083Y0064121D03*
D100*
X0262171Y0064298D03*
D101*
X0262083Y0064475D03*
D102*
X0262171Y0064652D03*
D103*
X0251453Y0065361D03*
X0272536Y0065184D03*
X0272536Y0065007D03*
D104*
X0272447Y0065361D03*
X0272447Y0065538D03*
X0272447Y0065715D03*
X0251541Y0065538D03*
D105*
X0251896Y0066424D03*
X0262171Y0071030D03*
X0272093Y0066247D03*
D106*
X0272004Y0066424D03*
D107*
X0252073Y0066601D03*
D108*
X0271827Y0066601D03*
D109*
X0271650Y0066778D03*
X0252339Y0066955D03*
D110*
X0252427Y0067133D03*
X0271561Y0066955D03*
D111*
X0271473Y0067133D03*
X0271473Y0067310D03*
X0252516Y0067310D03*
D112*
X0252604Y0067487D03*
X0271384Y0067487D03*
X0271384Y0067664D03*
X0271384Y0067841D03*
D113*
X0252693Y0067841D03*
X0252693Y0067664D03*
X0252693Y0068018D03*
D114*
X0262260Y0070676D03*
X0271118Y0068550D03*
X0271118Y0068373D03*
X0271118Y0068196D03*
D115*
X0271030Y0068727D03*
X0271030Y0068904D03*
X0271030Y0069081D03*
X0271030Y0069259D03*
X0252959Y0068904D03*
D116*
X0253047Y0069081D03*
X0253047Y0069259D03*
D117*
X0261994Y0069436D03*
X0261994Y0069613D03*
X0261994Y0069790D03*
X0261994Y0069967D03*
D118*
X0262171Y0070322D03*
D119*
X0262260Y0070499D03*
D120*
X0221410Y0069514D02*
X0221410Y0068897D01*
X0220793Y0068280D01*
X0219559Y0068280D01*
X0218941Y0068897D01*
X0218941Y0069514D01*
X0219559Y0070131D01*
X0220793Y0070131D01*
X0221410Y0069514D01*
X0220793Y0068280D02*
X0221410Y0067663D01*
X0221410Y0067045D01*
X0220793Y0066428D01*
X0219559Y0066428D01*
X0218941Y0067045D01*
X0218941Y0067663D01*
X0219559Y0068280D01*
X0217727Y0069514D02*
X0217110Y0070131D01*
X0215875Y0070131D01*
X0215258Y0069514D01*
X0215258Y0067045D01*
X0215875Y0066428D01*
X0217110Y0066428D01*
X0217727Y0067045D01*
X0199360Y0039750D02*
X0198126Y0039750D01*
X0197508Y0039132D01*
X0197508Y0038515D01*
X0198126Y0037898D01*
X0199977Y0037898D01*
X0199977Y0036664D02*
X0199977Y0039132D01*
X0199360Y0039750D01*
X0196294Y0039132D02*
X0195677Y0039750D01*
X0194442Y0039750D01*
X0193825Y0039132D01*
X0193825Y0036664D01*
X0194442Y0036046D01*
X0195677Y0036046D01*
X0196294Y0036664D01*
X0197508Y0036664D02*
X0198126Y0036046D01*
X0199360Y0036046D01*
X0199977Y0036664D01*
X0155017Y0066455D02*
X0155017Y0067689D01*
X0154400Y0068306D01*
X0155017Y0069521D02*
X0155017Y0071990D01*
X0155017Y0073204D02*
X0152549Y0075673D01*
X0151931Y0075673D01*
X0151314Y0075056D01*
X0151314Y0073821D01*
X0151931Y0073204D01*
X0151314Y0070755D02*
X0155017Y0070755D01*
X0155017Y0073204D02*
X0155017Y0075673D01*
X0151314Y0070755D02*
X0152549Y0069521D01*
X0151931Y0068306D02*
X0151314Y0067689D01*
X0151314Y0066455D01*
X0151931Y0065838D01*
X0154400Y0065838D01*
X0155017Y0066455D01*
X0131977Y0067515D02*
X0131977Y0068132D01*
X0131360Y0068750D01*
X0130126Y0068750D01*
X0129508Y0068132D01*
X0128294Y0068132D02*
X0127677Y0068750D01*
X0126442Y0068750D01*
X0125825Y0068132D01*
X0125825Y0065664D01*
X0126442Y0065046D01*
X0127677Y0065046D01*
X0128294Y0065664D01*
X0129508Y0065046D02*
X0131977Y0067515D01*
X0131977Y0065046D02*
X0129508Y0065046D01*
X0157258Y0080545D02*
X0157875Y0079928D01*
X0159110Y0079928D01*
X0159727Y0080545D01*
X0160941Y0081780D02*
X0163410Y0081780D01*
X0162793Y0083631D02*
X0162793Y0079928D01*
X0160941Y0081780D02*
X0162793Y0083631D01*
X0159727Y0083014D02*
X0159110Y0083631D01*
X0157875Y0083631D01*
X0157258Y0083014D01*
X0157258Y0080545D01*
X0097156Y0096636D02*
X0096680Y0096161D01*
X0095730Y0096161D01*
X0095254Y0096636D01*
X0096205Y0097587D02*
X0096680Y0097587D01*
X0097156Y0097111D01*
X0097156Y0096636D01*
X0096680Y0097587D02*
X0097156Y0098062D01*
X0097156Y0098537D01*
X0096680Y0099013D01*
X0095730Y0099013D01*
X0095254Y0098537D01*
X0096503Y0103956D02*
X0096503Y0106808D01*
X0095077Y0105382D01*
X0096979Y0105382D01*
X0065798Y0103779D02*
X0063896Y0103779D01*
X0064847Y0103779D02*
X0064847Y0106631D01*
X0063896Y0105680D01*
X0064372Y0098835D02*
X0063896Y0098360D01*
X0064372Y0098835D02*
X0065322Y0098835D01*
X0065798Y0098360D01*
X0065798Y0097885D01*
X0063896Y0095983D01*
X0065798Y0095983D01*
X0039438Y0123798D02*
X0037537Y0123798D01*
X0039438Y0125700D01*
X0039438Y0126175D01*
X0038963Y0126650D01*
X0038012Y0126650D01*
X0037537Y0126175D01*
X0036538Y0125224D02*
X0034637Y0125224D01*
X0036063Y0126650D01*
X0036063Y0123798D01*
X0033638Y0124274D02*
X0033163Y0123798D01*
X0032212Y0123798D01*
X0031737Y0124274D01*
X0033638Y0126175D01*
X0033638Y0124274D01*
X0033638Y0126175D02*
X0033163Y0126650D01*
X0032212Y0126650D01*
X0031737Y0126175D01*
X0031737Y0124274D01*
X0030738Y0124274D02*
X0030263Y0123798D01*
X0029312Y0123798D01*
X0028837Y0124274D01*
X0028837Y0125224D02*
X0029787Y0125700D01*
X0030263Y0125700D01*
X0030738Y0125224D01*
X0030738Y0124274D01*
X0028837Y0125224D02*
X0028837Y0126650D01*
X0030738Y0126650D01*
X0027838Y0126175D02*
X0027363Y0126650D01*
X0026412Y0126650D01*
X0025937Y0126175D01*
X0025937Y0125700D01*
X0026412Y0125224D01*
X0027363Y0125224D01*
X0027838Y0124749D01*
X0027838Y0124274D01*
X0027363Y0123798D01*
X0026412Y0123798D01*
X0025937Y0124274D01*
X0024938Y0124274D02*
X0024938Y0125224D01*
X0023987Y0125224D01*
X0023036Y0124274D02*
X0023512Y0123798D01*
X0024462Y0123798D01*
X0024938Y0124274D01*
X0024938Y0126175D02*
X0024462Y0126650D01*
X0023512Y0126650D01*
X0023036Y0126175D01*
X0023036Y0124274D01*
X0021087Y0123798D02*
X0021087Y0126650D01*
X0020136Y0126650D02*
X0022038Y0126650D01*
X0045294Y0134977D02*
X0047195Y0134977D01*
X0046244Y0134977D02*
X0046244Y0132125D01*
X0048194Y0132600D02*
X0048669Y0132125D01*
X0049620Y0132125D01*
X0050095Y0132600D01*
X0050095Y0133551D01*
X0049145Y0133551D01*
X0050095Y0134502D02*
X0049620Y0134977D01*
X0048669Y0134977D01*
X0048194Y0134502D01*
X0048194Y0132600D01*
X0051094Y0132600D02*
X0051569Y0132125D01*
X0052520Y0132125D01*
X0052995Y0132600D01*
X0052995Y0133076D01*
X0052520Y0133551D01*
X0051569Y0133551D01*
X0051094Y0134026D01*
X0051094Y0134502D01*
X0051569Y0134977D01*
X0052520Y0134977D01*
X0052995Y0134502D01*
X0053994Y0133551D02*
X0055895Y0133551D01*
X0056894Y0134026D02*
X0057845Y0134977D01*
X0057845Y0132125D01*
X0056894Y0132125D02*
X0058796Y0132125D01*
X0059794Y0132600D02*
X0060270Y0132125D01*
X0061220Y0132125D01*
X0061696Y0132600D01*
X0061696Y0133076D01*
X0061220Y0133551D01*
X0059794Y0133551D01*
X0059794Y0132600D01*
X0059794Y0133551D02*
X0060745Y0134502D01*
X0061696Y0134977D01*
X0062694Y0134026D02*
X0063645Y0134977D01*
X0063645Y0132125D01*
X0062694Y0132125D02*
X0064596Y0132125D01*
X0070628Y0134800D02*
X0072530Y0134800D01*
X0071579Y0134800D02*
X0071579Y0131948D01*
X0073529Y0132423D02*
X0073529Y0134325D01*
X0074004Y0134800D01*
X0074955Y0134800D01*
X0075430Y0134325D01*
X0075430Y0133374D02*
X0074479Y0133374D01*
X0075430Y0133374D02*
X0075430Y0132423D01*
X0074955Y0131948D01*
X0074004Y0131948D01*
X0073529Y0132423D01*
X0076429Y0132423D02*
X0076904Y0131948D01*
X0077855Y0131948D01*
X0078330Y0132423D01*
X0078330Y0132899D01*
X0077855Y0133374D01*
X0076904Y0133374D01*
X0076429Y0133849D01*
X0076429Y0134325D01*
X0076904Y0134800D01*
X0077855Y0134800D01*
X0078330Y0134325D01*
X0079329Y0134325D02*
X0079804Y0134800D01*
X0080755Y0134800D01*
X0081230Y0134325D01*
X0081230Y0133849D01*
X0079329Y0131948D01*
X0081230Y0131948D01*
X0082229Y0132423D02*
X0082704Y0131948D01*
X0083655Y0131948D01*
X0084130Y0132423D01*
X0084130Y0132899D01*
X0083655Y0133374D01*
X0082229Y0133374D01*
X0082229Y0132423D01*
X0082229Y0133374D02*
X0083180Y0134325D01*
X0084130Y0134800D01*
X0085129Y0134325D02*
X0085604Y0134800D01*
X0086555Y0134800D01*
X0087030Y0134325D01*
X0087030Y0133849D01*
X0085129Y0131948D01*
X0087030Y0131948D01*
X0088029Y0132423D02*
X0089930Y0134325D01*
X0089930Y0132423D01*
X0089455Y0131948D01*
X0088504Y0131948D01*
X0088029Y0132423D01*
X0088029Y0134325D01*
X0088504Y0134800D01*
X0089455Y0134800D01*
X0089930Y0134325D01*
X0089930Y0136672D02*
X0088029Y0136672D01*
X0089930Y0138574D01*
X0089930Y0139049D01*
X0089455Y0139524D01*
X0088504Y0139524D01*
X0088029Y0139049D01*
X0086080Y0139524D02*
X0086080Y0136672D01*
X0087030Y0136672D02*
X0085129Y0136672D01*
X0084130Y0137148D02*
X0084130Y0137623D01*
X0083655Y0138098D01*
X0082229Y0138098D01*
X0082229Y0137148D01*
X0082704Y0136672D01*
X0083655Y0136672D01*
X0084130Y0137148D01*
X0085129Y0138574D02*
X0086080Y0139524D01*
X0086080Y0141397D02*
X0086080Y0144249D01*
X0085129Y0143298D01*
X0084130Y0142347D02*
X0083655Y0142823D01*
X0082229Y0142823D01*
X0082229Y0141872D01*
X0082704Y0141397D01*
X0083655Y0141397D01*
X0084130Y0141872D01*
X0084130Y0142347D01*
X0085129Y0141397D02*
X0087030Y0141397D01*
X0088029Y0141397D02*
X0089930Y0141397D01*
X0088980Y0141397D02*
X0088980Y0144249D01*
X0088029Y0143298D01*
X0084130Y0144249D02*
X0083180Y0143773D01*
X0082229Y0142823D01*
X0081230Y0143298D02*
X0079329Y0141397D01*
X0081230Y0141397D01*
X0080755Y0139524D02*
X0079804Y0139524D01*
X0079329Y0139049D01*
X0078330Y0139049D02*
X0077855Y0139524D01*
X0076904Y0139524D01*
X0076429Y0139049D01*
X0076429Y0138574D01*
X0076904Y0138098D01*
X0077855Y0138098D01*
X0078330Y0137623D01*
X0078330Y0137148D01*
X0077855Y0136672D01*
X0076904Y0136672D01*
X0076429Y0137148D01*
X0075430Y0137148D02*
X0075430Y0138098D01*
X0074479Y0138098D01*
X0073529Y0137148D02*
X0073529Y0139049D01*
X0074004Y0139524D01*
X0074955Y0139524D01*
X0075430Y0139049D01*
X0075430Y0137148D02*
X0074955Y0136672D01*
X0074004Y0136672D01*
X0073529Y0137148D01*
X0071579Y0136672D02*
X0071579Y0139524D01*
X0070628Y0139524D02*
X0072530Y0139524D01*
X0071579Y0141397D02*
X0071579Y0144249D01*
X0070628Y0144249D02*
X0072530Y0144249D01*
X0073529Y0143773D02*
X0073529Y0141872D01*
X0074004Y0141397D01*
X0074955Y0141397D01*
X0075430Y0141872D01*
X0075430Y0142823D01*
X0074479Y0142823D01*
X0073529Y0143773D02*
X0074004Y0144249D01*
X0074955Y0144249D01*
X0075430Y0143773D01*
X0076429Y0143773D02*
X0076429Y0143298D01*
X0076904Y0142823D01*
X0077855Y0142823D01*
X0078330Y0142347D01*
X0078330Y0141872D01*
X0077855Y0141397D01*
X0076904Y0141397D01*
X0076429Y0141872D01*
X0076429Y0143773D02*
X0076904Y0144249D01*
X0077855Y0144249D01*
X0078330Y0143773D01*
X0079329Y0143773D02*
X0079804Y0144249D01*
X0080755Y0144249D01*
X0081230Y0143773D01*
X0081230Y0143298D01*
X0080755Y0139524D02*
X0081230Y0139049D01*
X0081230Y0138574D01*
X0079329Y0136672D01*
X0081230Y0136672D01*
X0082229Y0138098D02*
X0083180Y0139049D01*
X0084130Y0139524D01*
X0061696Y0139226D02*
X0061220Y0139702D01*
X0060270Y0139702D01*
X0059794Y0139226D01*
X0061696Y0139226D02*
X0061696Y0138751D01*
X0059794Y0136850D01*
X0061696Y0136850D01*
X0058796Y0136850D02*
X0056894Y0136850D01*
X0057845Y0136850D02*
X0057845Y0139702D01*
X0056894Y0138751D01*
X0055895Y0138751D02*
X0055420Y0138276D01*
X0054469Y0138276D01*
X0053994Y0138751D01*
X0053994Y0139226D01*
X0054469Y0139702D01*
X0055420Y0139702D01*
X0055895Y0139226D01*
X0055895Y0138751D01*
X0055420Y0138276D02*
X0055895Y0137800D01*
X0055895Y0137325D01*
X0055420Y0136850D01*
X0054469Y0136850D01*
X0053994Y0137325D01*
X0053994Y0137800D01*
X0054469Y0138276D01*
X0052995Y0138276D02*
X0051094Y0138276D01*
X0050095Y0138276D02*
X0049145Y0138276D01*
X0050095Y0138276D02*
X0050095Y0137325D01*
X0049620Y0136850D01*
X0048669Y0136850D01*
X0048194Y0137325D01*
X0048194Y0139226D01*
X0048669Y0139702D01*
X0049620Y0139702D01*
X0050095Y0139226D01*
X0047195Y0139702D02*
X0047195Y0136850D01*
X0045294Y0136850D02*
X0045294Y0139702D01*
X0046244Y0138751D01*
X0047195Y0139702D01*
X0053994Y0133551D02*
X0055420Y0134977D01*
X0055420Y0132125D01*
X0089234Y0066423D02*
X0089234Y0063954D01*
X0089234Y0065188D02*
X0085531Y0065188D01*
X0086765Y0063954D01*
X0086148Y0062739D02*
X0085531Y0062122D01*
X0085531Y0060888D01*
X0086148Y0060271D01*
X0088617Y0060271D01*
X0089234Y0060888D01*
X0089234Y0062122D01*
X0088617Y0062739D01*
X0087677Y0040750D02*
X0086442Y0040750D01*
X0085825Y0040132D01*
X0085825Y0037664D01*
X0086442Y0037046D01*
X0087677Y0037046D01*
X0088294Y0037664D01*
X0089508Y0037046D02*
X0091977Y0037046D01*
X0091116Y0036173D02*
X0091116Y0033704D01*
X0091116Y0032490D02*
X0091116Y0030021D01*
X0091116Y0031255D02*
X0087413Y0031255D01*
X0088647Y0030021D01*
X0088030Y0028806D02*
X0087413Y0028189D01*
X0087413Y0026955D01*
X0088030Y0026338D01*
X0090499Y0026338D01*
X0091116Y0026955D01*
X0091116Y0028189D01*
X0090499Y0028806D01*
X0088647Y0033704D02*
X0087413Y0034938D01*
X0091116Y0034938D01*
X0090743Y0037046D02*
X0090743Y0040750D01*
X0089508Y0039515D01*
X0088294Y0040132D02*
X0087677Y0040750D01*
X0093192Y0040132D02*
X0093192Y0037664D01*
X0095660Y0040132D01*
X0095660Y0037664D01*
X0095043Y0037046D01*
X0093809Y0037046D01*
X0093192Y0037664D01*
X0093192Y0040132D02*
X0093809Y0040750D01*
X0095043Y0040750D01*
X0095660Y0040132D01*
X0115206Y0028993D02*
X0115206Y0026616D01*
X0115681Y0026141D01*
X0116632Y0026141D01*
X0117107Y0026616D01*
X0117107Y0028993D01*
X0118106Y0028518D02*
X0118581Y0028993D01*
X0119532Y0028993D01*
X0120007Y0028518D01*
X0119532Y0027567D02*
X0118581Y0027567D01*
X0118106Y0028042D01*
X0118106Y0028518D01*
X0119057Y0029468D02*
X0119057Y0025666D01*
X0119532Y0026141D02*
X0118581Y0026141D01*
X0118106Y0026616D01*
X0119532Y0026141D02*
X0120007Y0026616D01*
X0120007Y0027092D01*
X0119532Y0027567D01*
X0121006Y0028042D02*
X0121957Y0028993D01*
X0121957Y0026141D01*
X0122907Y0026141D02*
X0121006Y0026141D01*
X0120756Y0024269D02*
X0120281Y0023793D01*
X0120281Y0021892D01*
X0120756Y0021416D01*
X0121707Y0021416D01*
X0122182Y0021892D01*
X0122182Y0023793D01*
X0121707Y0024269D01*
X0120756Y0024269D01*
X0119282Y0023793D02*
X0119282Y0023318D01*
X0118807Y0022842D01*
X0117381Y0022842D01*
X0117381Y0021416D02*
X0118807Y0021416D01*
X0119282Y0021892D01*
X0119282Y0022367D01*
X0118807Y0022842D01*
X0119282Y0023793D02*
X0118807Y0024269D01*
X0117381Y0024269D01*
X0117381Y0021416D01*
X0118340Y0018593D02*
X0119766Y0018593D01*
X0119290Y0017643D02*
X0118340Y0017643D01*
X0117864Y0018118D01*
X0118340Y0018593D01*
X0119290Y0017643D02*
X0119766Y0017167D01*
X0119290Y0016692D01*
X0117864Y0016692D01*
X0116865Y0016692D02*
X0115439Y0016692D01*
X0114964Y0017167D01*
X0115439Y0017643D01*
X0116865Y0017643D01*
X0116865Y0018118D02*
X0116865Y0016692D01*
X0116865Y0018118D02*
X0116390Y0018593D01*
X0115439Y0018593D01*
X0120764Y0018118D02*
X0121240Y0017643D01*
X0122190Y0017643D01*
X0122666Y0017167D01*
X0122190Y0016692D01*
X0120764Y0016692D01*
X0120764Y0018118D02*
X0121240Y0018593D01*
X0122666Y0018593D01*
X0123664Y0018118D02*
X0124140Y0018593D01*
X0125090Y0018593D01*
X0125566Y0018118D01*
X0125566Y0017643D01*
X0123664Y0017643D01*
X0123664Y0018118D02*
X0123664Y0017167D01*
X0124140Y0016692D01*
X0125090Y0016692D01*
X0126565Y0016692D02*
X0126565Y0018593D01*
X0127040Y0018593D01*
X0127515Y0018118D01*
X0127991Y0018593D01*
X0128466Y0018118D01*
X0128466Y0016692D01*
X0127515Y0016692D02*
X0127515Y0018118D01*
X0129465Y0018593D02*
X0130891Y0018593D01*
X0131366Y0018118D01*
X0131366Y0017167D01*
X0130891Y0016692D01*
X0129465Y0016692D01*
X0129465Y0019544D01*
X0129457Y0021416D02*
X0130407Y0021416D01*
X0130883Y0021892D01*
X0130883Y0023793D01*
X0130407Y0024269D01*
X0129457Y0024269D01*
X0128981Y0023793D01*
X0128981Y0021892D01*
X0129457Y0021416D01*
X0131881Y0021416D02*
X0131881Y0024269D01*
X0132832Y0023318D01*
X0133783Y0024269D01*
X0133783Y0021416D01*
X0132840Y0019544D02*
X0132840Y0016692D01*
X0132365Y0016692D02*
X0133315Y0016692D01*
X0134298Y0017167D02*
X0134774Y0016692D01*
X0136200Y0016692D01*
X0136200Y0016217D02*
X0135724Y0015741D01*
X0135249Y0015741D01*
X0136200Y0016217D02*
X0136200Y0018593D01*
X0134298Y0018593D02*
X0134298Y0017167D01*
X0132840Y0019544D02*
X0132365Y0019544D01*
X0127032Y0021416D02*
X0127032Y0024269D01*
X0126081Y0024269D02*
X0127983Y0024269D01*
X0127282Y0026141D02*
X0128708Y0026141D01*
X0129706Y0026616D02*
X0130182Y0026141D01*
X0131132Y0026141D01*
X0131608Y0026616D01*
X0131608Y0027567D01*
X0131132Y0028042D01*
X0130182Y0028042D01*
X0129706Y0027567D01*
X0129706Y0026616D01*
X0128708Y0028042D02*
X0127282Y0028042D01*
X0126806Y0027567D01*
X0126806Y0026616D01*
X0127282Y0026141D01*
X0125082Y0024269D02*
X0123181Y0024269D01*
X0124132Y0024269D02*
X0124132Y0021416D01*
X0132606Y0026141D02*
X0132606Y0028042D01*
X0134032Y0028042D01*
X0134508Y0027567D01*
X0134508Y0026141D01*
X0135507Y0026141D02*
X0135982Y0026141D01*
X0135982Y0026616D01*
X0135507Y0026616D01*
X0135507Y0026141D01*
X0265913Y0101455D02*
X0266530Y0100838D01*
X0268999Y0100838D01*
X0269616Y0101455D01*
X0269616Y0102689D01*
X0268999Y0103306D01*
X0268999Y0104521D02*
X0269616Y0104521D01*
X0268999Y0104521D02*
X0266530Y0106990D01*
X0265913Y0106990D01*
X0265913Y0104521D01*
X0266530Y0103306D02*
X0265913Y0102689D01*
X0265913Y0101455D01*
X0281758Y0101045D02*
X0282375Y0100428D01*
X0283610Y0100428D01*
X0284227Y0101045D01*
X0285441Y0101045D02*
X0286059Y0100428D01*
X0287293Y0100428D01*
X0287910Y0101045D01*
X0287910Y0102280D01*
X0287293Y0102897D01*
X0286676Y0102897D01*
X0285441Y0102280D01*
X0285441Y0104131D01*
X0287910Y0104131D01*
X0284227Y0103514D02*
X0283610Y0104131D01*
X0282375Y0104131D01*
X0281758Y0103514D01*
X0281758Y0101045D01*
X0269117Y0114271D02*
X0266648Y0114271D01*
X0266031Y0114888D01*
X0266031Y0116122D01*
X0266648Y0116739D01*
X0267882Y0117954D02*
X0267882Y0119805D01*
X0268500Y0120423D01*
X0269117Y0120423D01*
X0269734Y0119805D01*
X0269734Y0118571D01*
X0269117Y0117954D01*
X0267882Y0117954D01*
X0266648Y0119188D01*
X0266031Y0120423D01*
X0269117Y0116739D02*
X0269734Y0116122D01*
X0269734Y0114888D01*
X0269117Y0114271D01*
X0272875Y0143428D02*
X0274110Y0143428D01*
X0274727Y0144045D01*
X0275941Y0144045D02*
X0276559Y0143428D01*
X0277793Y0143428D01*
X0278410Y0144045D01*
X0278410Y0144663D01*
X0277793Y0145280D01*
X0277176Y0145280D01*
X0277793Y0145280D02*
X0278410Y0145897D01*
X0278410Y0146514D01*
X0277793Y0147131D01*
X0276559Y0147131D01*
X0275941Y0146514D01*
X0274727Y0146514D02*
X0274110Y0147131D01*
X0272875Y0147131D01*
X0272258Y0146514D01*
X0272258Y0144045D01*
X0272875Y0143428D01*
X0268990Y0150390D02*
X0268990Y0151624D01*
X0268990Y0151007D02*
X0265287Y0151007D01*
X0265287Y0150390D02*
X0265287Y0151624D01*
X0265904Y0152845D02*
X0265287Y0153463D01*
X0265287Y0154697D01*
X0265904Y0155314D01*
X0266521Y0156529D02*
X0265287Y0157763D01*
X0268990Y0157763D01*
X0268990Y0156529D02*
X0268990Y0158997D01*
X0268373Y0155314D02*
X0268990Y0154697D01*
X0268990Y0153463D01*
X0268373Y0152845D01*
X0265904Y0152845D01*
D121*
X0093333Y0146326D02*
X0093333Y0129849D01*
X0068352Y0129849D01*
X0068315Y0129851D01*
X0068278Y0129857D01*
X0068243Y0129866D01*
X0068208Y0129880D01*
X0068175Y0129896D01*
X0068144Y0129917D01*
X0068115Y0129940D01*
X0068089Y0129966D01*
X0068066Y0129995D01*
X0068045Y0130026D01*
X0068029Y0130059D01*
X0068015Y0130094D01*
X0068006Y0130129D01*
X0068000Y0130166D01*
X0067998Y0130203D01*
X0067998Y0146680D01*
X0068175Y0146680D02*
X0092978Y0146680D01*
X0093015Y0146678D01*
X0093052Y0146672D01*
X0093087Y0146663D01*
X0093122Y0146649D01*
X0093155Y0146633D01*
X0093186Y0146612D01*
X0093215Y0146589D01*
X0093241Y0146563D01*
X0093264Y0146534D01*
X0093285Y0146503D01*
X0093301Y0146470D01*
X0093315Y0146435D01*
X0093324Y0146400D01*
X0093330Y0146363D01*
X0093332Y0146326D01*
X0066404Y0141365D02*
X0066404Y0129849D01*
X0043549Y0129849D01*
X0043512Y0129851D01*
X0043475Y0129857D01*
X0043440Y0129866D01*
X0043405Y0129880D01*
X0043372Y0129896D01*
X0043341Y0129917D01*
X0043312Y0129940D01*
X0043286Y0129966D01*
X0043263Y0129995D01*
X0043242Y0130026D01*
X0043226Y0130059D01*
X0043212Y0130094D01*
X0043203Y0130129D01*
X0043197Y0130166D01*
X0043195Y0130203D01*
X0043195Y0141719D01*
X0066049Y0141719D01*
X0066086Y0141717D01*
X0066123Y0141711D01*
X0066158Y0141702D01*
X0066193Y0141688D01*
X0066226Y0141672D01*
X0066257Y0141651D01*
X0066286Y0141628D01*
X0066312Y0141602D01*
X0066335Y0141573D01*
X0066356Y0141542D01*
X0066372Y0141509D01*
X0066386Y0141474D01*
X0066395Y0141439D01*
X0066401Y0141402D01*
X0066403Y0141365D01*
D122*
X0075325Y0125837D02*
X0085325Y0125837D01*
X0085325Y0120837D01*
X0075325Y0120837D02*
X0075325Y0125837D01*
X0075325Y0120837D01*
X0062215Y0100837D02*
X0062220Y0101281D01*
X0062237Y0101726D01*
X0062264Y0102169D01*
X0062302Y0102612D01*
X0062351Y0103054D01*
X0062411Y0103494D01*
X0062482Y0103933D01*
X0062563Y0104370D01*
X0062655Y0104805D01*
X0062758Y0105237D01*
X0062871Y0105667D01*
X0062995Y0106094D01*
X0063129Y0106518D01*
X0063274Y0106938D01*
X0063429Y0107355D01*
X0063594Y0107767D01*
X0063769Y0108176D01*
X0063954Y0108580D01*
X0064149Y0108979D01*
X0064353Y0109374D01*
X0064568Y0109763D01*
X0064792Y0110147D01*
X0065025Y0110526D01*
X0065267Y0110898D01*
X0065519Y0111265D01*
X0065779Y0111625D01*
X0066048Y0111979D01*
X0066326Y0112326D01*
X0066612Y0112666D01*
X0066906Y0112999D01*
X0067209Y0113325D01*
X0067519Y0113643D01*
X0067837Y0113953D01*
X0068163Y0114256D01*
X0068496Y0114550D01*
X0068836Y0114836D01*
X0069183Y0115114D01*
X0069537Y0115383D01*
X0069897Y0115643D01*
X0070264Y0115895D01*
X0070636Y0116137D01*
X0071015Y0116370D01*
X0071399Y0116594D01*
X0071788Y0116809D01*
X0072183Y0117013D01*
X0072582Y0117208D01*
X0072986Y0117393D01*
X0073395Y0117568D01*
X0073807Y0117733D01*
X0074224Y0117888D01*
X0074644Y0118033D01*
X0075068Y0118167D01*
X0075495Y0118291D01*
X0075925Y0118404D01*
X0076357Y0118507D01*
X0076792Y0118599D01*
X0077229Y0118680D01*
X0077668Y0118751D01*
X0078108Y0118811D01*
X0078550Y0118860D01*
X0078993Y0118898D01*
X0079436Y0118925D01*
X0079881Y0118942D01*
X0080325Y0118947D01*
X0080769Y0118942D01*
X0081214Y0118925D01*
X0081657Y0118898D01*
X0082100Y0118860D01*
X0082542Y0118811D01*
X0082982Y0118751D01*
X0083421Y0118680D01*
X0083858Y0118599D01*
X0084293Y0118507D01*
X0084725Y0118404D01*
X0085155Y0118291D01*
X0085582Y0118167D01*
X0086006Y0118033D01*
X0086426Y0117888D01*
X0086843Y0117733D01*
X0087255Y0117568D01*
X0087664Y0117393D01*
X0088068Y0117208D01*
X0088467Y0117013D01*
X0088862Y0116809D01*
X0089251Y0116594D01*
X0089635Y0116370D01*
X0090014Y0116137D01*
X0090386Y0115895D01*
X0090753Y0115643D01*
X0091113Y0115383D01*
X0091467Y0115114D01*
X0091814Y0114836D01*
X0092154Y0114550D01*
X0092487Y0114256D01*
X0092813Y0113953D01*
X0093131Y0113643D01*
X0093441Y0113325D01*
X0093744Y0112999D01*
X0094038Y0112666D01*
X0094324Y0112326D01*
X0094602Y0111979D01*
X0094871Y0111625D01*
X0095131Y0111265D01*
X0095383Y0110898D01*
X0095625Y0110526D01*
X0095858Y0110147D01*
X0096082Y0109763D01*
X0096297Y0109374D01*
X0096501Y0108979D01*
X0096696Y0108580D01*
X0096881Y0108176D01*
X0097056Y0107767D01*
X0097221Y0107355D01*
X0097376Y0106938D01*
X0097521Y0106518D01*
X0097655Y0106094D01*
X0097779Y0105667D01*
X0097892Y0105237D01*
X0097995Y0104805D01*
X0098087Y0104370D01*
X0098168Y0103933D01*
X0098239Y0103494D01*
X0098299Y0103054D01*
X0098348Y0102612D01*
X0098386Y0102169D01*
X0098413Y0101726D01*
X0098430Y0101281D01*
X0098435Y0100837D01*
X0098430Y0100393D01*
X0098413Y0099948D01*
X0098386Y0099505D01*
X0098348Y0099062D01*
X0098299Y0098620D01*
X0098239Y0098180D01*
X0098168Y0097741D01*
X0098087Y0097304D01*
X0097995Y0096869D01*
X0097892Y0096437D01*
X0097779Y0096007D01*
X0097655Y0095580D01*
X0097521Y0095156D01*
X0097376Y0094736D01*
X0097221Y0094319D01*
X0097056Y0093907D01*
X0096881Y0093498D01*
X0096696Y0093094D01*
X0096501Y0092695D01*
X0096297Y0092300D01*
X0096082Y0091911D01*
X0095858Y0091527D01*
X0095625Y0091148D01*
X0095383Y0090776D01*
X0095131Y0090409D01*
X0094871Y0090049D01*
X0094602Y0089695D01*
X0094324Y0089348D01*
X0094038Y0089008D01*
X0093744Y0088675D01*
X0093441Y0088349D01*
X0093131Y0088031D01*
X0092813Y0087721D01*
X0092487Y0087418D01*
X0092154Y0087124D01*
X0091814Y0086838D01*
X0091467Y0086560D01*
X0091113Y0086291D01*
X0090753Y0086031D01*
X0090386Y0085779D01*
X0090014Y0085537D01*
X0089635Y0085304D01*
X0089251Y0085080D01*
X0088862Y0084865D01*
X0088467Y0084661D01*
X0088068Y0084466D01*
X0087664Y0084281D01*
X0087255Y0084106D01*
X0086843Y0083941D01*
X0086426Y0083786D01*
X0086006Y0083641D01*
X0085582Y0083507D01*
X0085155Y0083383D01*
X0084725Y0083270D01*
X0084293Y0083167D01*
X0083858Y0083075D01*
X0083421Y0082994D01*
X0082982Y0082923D01*
X0082542Y0082863D01*
X0082100Y0082814D01*
X0081657Y0082776D01*
X0081214Y0082749D01*
X0080769Y0082732D01*
X0080325Y0082727D01*
X0079881Y0082732D01*
X0079436Y0082749D01*
X0078993Y0082776D01*
X0078550Y0082814D01*
X0078108Y0082863D01*
X0077668Y0082923D01*
X0077229Y0082994D01*
X0076792Y0083075D01*
X0076357Y0083167D01*
X0075925Y0083270D01*
X0075495Y0083383D01*
X0075068Y0083507D01*
X0074644Y0083641D01*
X0074224Y0083786D01*
X0073807Y0083941D01*
X0073395Y0084106D01*
X0072986Y0084281D01*
X0072582Y0084466D01*
X0072183Y0084661D01*
X0071788Y0084865D01*
X0071399Y0085080D01*
X0071015Y0085304D01*
X0070636Y0085537D01*
X0070264Y0085779D01*
X0069897Y0086031D01*
X0069537Y0086291D01*
X0069183Y0086560D01*
X0068836Y0086838D01*
X0068496Y0087124D01*
X0068163Y0087418D01*
X0067837Y0087721D01*
X0067519Y0088031D01*
X0067209Y0088349D01*
X0066906Y0088675D01*
X0066612Y0089008D01*
X0066326Y0089348D01*
X0066048Y0089695D01*
X0065779Y0090049D01*
X0065519Y0090409D01*
X0065267Y0090776D01*
X0065025Y0091148D01*
X0064792Y0091527D01*
X0064568Y0091911D01*
X0064353Y0092300D01*
X0064149Y0092695D01*
X0063954Y0093094D01*
X0063769Y0093498D01*
X0063594Y0093907D01*
X0063429Y0094319D01*
X0063274Y0094736D01*
X0063129Y0095156D01*
X0062995Y0095580D01*
X0062871Y0096007D01*
X0062758Y0096437D01*
X0062655Y0096869D01*
X0062563Y0097304D01*
X0062482Y0097741D01*
X0062411Y0098180D01*
X0062351Y0098620D01*
X0062302Y0099062D01*
X0062264Y0099505D01*
X0062237Y0099948D01*
X0062220Y0100393D01*
X0062215Y0100837D01*
X0062220Y0101281D01*
X0062237Y0101726D01*
X0062264Y0102169D01*
X0062302Y0102612D01*
X0062351Y0103054D01*
X0062411Y0103494D01*
X0062482Y0103933D01*
X0062563Y0104370D01*
X0062655Y0104805D01*
X0062758Y0105237D01*
X0062871Y0105667D01*
X0062995Y0106094D01*
X0063129Y0106518D01*
X0063274Y0106938D01*
X0063429Y0107355D01*
X0063594Y0107767D01*
X0063769Y0108176D01*
X0063954Y0108580D01*
X0064149Y0108979D01*
X0064353Y0109374D01*
X0064568Y0109763D01*
X0064792Y0110147D01*
X0065025Y0110526D01*
X0065267Y0110898D01*
X0065519Y0111265D01*
X0065779Y0111625D01*
X0066048Y0111979D01*
X0066326Y0112326D01*
X0066612Y0112666D01*
X0066906Y0112999D01*
X0067209Y0113325D01*
X0067519Y0113643D01*
X0067837Y0113953D01*
X0068163Y0114256D01*
X0068496Y0114550D01*
X0068836Y0114836D01*
X0069183Y0115114D01*
X0069537Y0115383D01*
X0069897Y0115643D01*
X0070264Y0115895D01*
X0070636Y0116137D01*
X0071015Y0116370D01*
X0071399Y0116594D01*
X0071788Y0116809D01*
X0072183Y0117013D01*
X0072582Y0117208D01*
X0072986Y0117393D01*
X0073395Y0117568D01*
X0073807Y0117733D01*
X0074224Y0117888D01*
X0074644Y0118033D01*
X0075068Y0118167D01*
X0075495Y0118291D01*
X0075925Y0118404D01*
X0076357Y0118507D01*
X0076792Y0118599D01*
X0077229Y0118680D01*
X0077668Y0118751D01*
X0078108Y0118811D01*
X0078550Y0118860D01*
X0078993Y0118898D01*
X0079436Y0118925D01*
X0079881Y0118942D01*
X0080325Y0118947D01*
X0080769Y0118942D01*
X0081214Y0118925D01*
X0081657Y0118898D01*
X0082100Y0118860D01*
X0082542Y0118811D01*
X0082982Y0118751D01*
X0083421Y0118680D01*
X0083858Y0118599D01*
X0084293Y0118507D01*
X0084725Y0118404D01*
X0085155Y0118291D01*
X0085582Y0118167D01*
X0086006Y0118033D01*
X0086426Y0117888D01*
X0086843Y0117733D01*
X0087255Y0117568D01*
X0087664Y0117393D01*
X0088068Y0117208D01*
X0088467Y0117013D01*
X0088862Y0116809D01*
X0089251Y0116594D01*
X0089635Y0116370D01*
X0090014Y0116137D01*
X0090386Y0115895D01*
X0090753Y0115643D01*
X0091113Y0115383D01*
X0091467Y0115114D01*
X0091814Y0114836D01*
X0092154Y0114550D01*
X0092487Y0114256D01*
X0092813Y0113953D01*
X0093131Y0113643D01*
X0093441Y0113325D01*
X0093744Y0112999D01*
X0094038Y0112666D01*
X0094324Y0112326D01*
X0094602Y0111979D01*
X0094871Y0111625D01*
X0095131Y0111265D01*
X0095383Y0110898D01*
X0095625Y0110526D01*
X0095858Y0110147D01*
X0096082Y0109763D01*
X0096297Y0109374D01*
X0096501Y0108979D01*
X0096696Y0108580D01*
X0096881Y0108176D01*
X0097056Y0107767D01*
X0097221Y0107355D01*
X0097376Y0106938D01*
X0097521Y0106518D01*
X0097655Y0106094D01*
X0097779Y0105667D01*
X0097892Y0105237D01*
X0097995Y0104805D01*
X0098087Y0104370D01*
X0098168Y0103933D01*
X0098239Y0103494D01*
X0098299Y0103054D01*
X0098348Y0102612D01*
X0098386Y0102169D01*
X0098413Y0101726D01*
X0098430Y0101281D01*
X0098435Y0100837D01*
X0098430Y0100393D01*
X0098413Y0099948D01*
X0098386Y0099505D01*
X0098348Y0099062D01*
X0098299Y0098620D01*
X0098239Y0098180D01*
X0098168Y0097741D01*
X0098087Y0097304D01*
X0097995Y0096869D01*
X0097892Y0096437D01*
X0097779Y0096007D01*
X0097655Y0095580D01*
X0097521Y0095156D01*
X0097376Y0094736D01*
X0097221Y0094319D01*
X0097056Y0093907D01*
X0096881Y0093498D01*
X0096696Y0093094D01*
X0096501Y0092695D01*
X0096297Y0092300D01*
X0096082Y0091911D01*
X0095858Y0091527D01*
X0095625Y0091148D01*
X0095383Y0090776D01*
X0095131Y0090409D01*
X0094871Y0090049D01*
X0094602Y0089695D01*
X0094324Y0089348D01*
X0094038Y0089008D01*
X0093744Y0088675D01*
X0093441Y0088349D01*
X0093131Y0088031D01*
X0092813Y0087721D01*
X0092487Y0087418D01*
X0092154Y0087124D01*
X0091814Y0086838D01*
X0091467Y0086560D01*
X0091113Y0086291D01*
X0090753Y0086031D01*
X0090386Y0085779D01*
X0090014Y0085537D01*
X0089635Y0085304D01*
X0089251Y0085080D01*
X0088862Y0084865D01*
X0088467Y0084661D01*
X0088068Y0084466D01*
X0087664Y0084281D01*
X0087255Y0084106D01*
X0086843Y0083941D01*
X0086426Y0083786D01*
X0086006Y0083641D01*
X0085582Y0083507D01*
X0085155Y0083383D01*
X0084725Y0083270D01*
X0084293Y0083167D01*
X0083858Y0083075D01*
X0083421Y0082994D01*
X0082982Y0082923D01*
X0082542Y0082863D01*
X0082100Y0082814D01*
X0081657Y0082776D01*
X0081214Y0082749D01*
X0080769Y0082732D01*
X0080325Y0082727D01*
X0079881Y0082732D01*
X0079436Y0082749D01*
X0078993Y0082776D01*
X0078550Y0082814D01*
X0078108Y0082863D01*
X0077668Y0082923D01*
X0077229Y0082994D01*
X0076792Y0083075D01*
X0076357Y0083167D01*
X0075925Y0083270D01*
X0075495Y0083383D01*
X0075068Y0083507D01*
X0074644Y0083641D01*
X0074224Y0083786D01*
X0073807Y0083941D01*
X0073395Y0084106D01*
X0072986Y0084281D01*
X0072582Y0084466D01*
X0072183Y0084661D01*
X0071788Y0084865D01*
X0071399Y0085080D01*
X0071015Y0085304D01*
X0070636Y0085537D01*
X0070264Y0085779D01*
X0069897Y0086031D01*
X0069537Y0086291D01*
X0069183Y0086560D01*
X0068836Y0086838D01*
X0068496Y0087124D01*
X0068163Y0087418D01*
X0067837Y0087721D01*
X0067519Y0088031D01*
X0067209Y0088349D01*
X0066906Y0088675D01*
X0066612Y0089008D01*
X0066326Y0089348D01*
X0066048Y0089695D01*
X0065779Y0090049D01*
X0065519Y0090409D01*
X0065267Y0090776D01*
X0065025Y0091148D01*
X0064792Y0091527D01*
X0064568Y0091911D01*
X0064353Y0092300D01*
X0064149Y0092695D01*
X0063954Y0093094D01*
X0063769Y0093498D01*
X0063594Y0093907D01*
X0063429Y0094319D01*
X0063274Y0094736D01*
X0063129Y0095156D01*
X0062995Y0095580D01*
X0062871Y0096007D01*
X0062758Y0096437D01*
X0062655Y0096869D01*
X0062563Y0097304D01*
X0062482Y0097741D01*
X0062411Y0098180D01*
X0062351Y0098620D01*
X0062302Y0099062D01*
X0062264Y0099505D01*
X0062237Y0099948D01*
X0062220Y0100393D01*
X0062215Y0100837D01*
X0018006Y0073081D02*
X0018006Y0128593D01*
X0215644Y0128593D01*
X0215644Y0073081D01*
X0018006Y0072885D01*
X0112352Y0149418D02*
X0112352Y0153646D01*
X0114466Y0153646D01*
X0115170Y0152941D01*
X0115170Y0151532D01*
X0114466Y0150827D01*
X0112352Y0150827D01*
X0110820Y0152237D02*
X0108002Y0152237D01*
X0108002Y0152941D02*
X0108706Y0153646D01*
X0110116Y0153646D01*
X0110820Y0152941D01*
X0110820Y0152237D01*
X0110116Y0150827D02*
X0108706Y0150827D01*
X0108002Y0151532D01*
X0108002Y0152941D01*
X0106470Y0152941D02*
X0106470Y0154351D01*
X0105765Y0155055D01*
X0103651Y0155055D01*
X0103651Y0150827D01*
X0103651Y0152237D02*
X0105765Y0152237D01*
X0106470Y0152941D01*
X0105061Y0152237D02*
X0106470Y0150827D01*
X0102181Y0150827D02*
X0101476Y0150827D01*
X0101476Y0151532D01*
X0102181Y0151532D01*
X0102181Y0150827D01*
X0099240Y0151532D02*
X0099240Y0155055D01*
X0098535Y0155055D02*
X0099945Y0155055D01*
X0099240Y0157914D02*
X0097831Y0157914D01*
X0097126Y0158619D01*
X0097831Y0160028D02*
X0097126Y0160733D01*
X0097126Y0161437D01*
X0097831Y0162142D01*
X0099240Y0162142D01*
X0099945Y0161437D01*
X0099240Y0160028D02*
X0099945Y0159323D01*
X0099945Y0158619D01*
X0099240Y0157914D01*
X0099240Y0160028D02*
X0097831Y0160028D01*
X0101476Y0160028D02*
X0101476Y0158619D01*
X0102181Y0157914D01*
X0103590Y0157914D01*
X0104295Y0159323D02*
X0101476Y0159323D01*
X0101476Y0160028D02*
X0102181Y0160733D01*
X0103590Y0160733D01*
X0104295Y0160028D01*
X0104295Y0159323D01*
X0105826Y0157914D02*
X0105826Y0160733D01*
X0107940Y0160733D01*
X0108645Y0160028D01*
X0108645Y0157914D01*
X0110177Y0157914D02*
X0112291Y0157914D01*
X0112995Y0158619D01*
X0112291Y0159323D01*
X0110881Y0159323D01*
X0110177Y0160028D01*
X0110881Y0160733D01*
X0112995Y0160733D01*
X0114527Y0160028D02*
X0114527Y0158619D01*
X0115231Y0157914D01*
X0116641Y0157914D01*
X0117345Y0158619D01*
X0117345Y0160028D01*
X0116641Y0160733D01*
X0115231Y0160733D01*
X0114527Y0160028D01*
X0118877Y0159323D02*
X0120286Y0160733D01*
X0120991Y0160733D01*
X0118877Y0160733D02*
X0118877Y0157914D01*
X0121757Y0155760D02*
X0121757Y0155055D01*
X0121757Y0153646D02*
X0121757Y0150827D01*
X0122461Y0150827D02*
X0121052Y0150827D01*
X0119521Y0150827D02*
X0117407Y0150827D01*
X0116702Y0151532D01*
X0116702Y0152941D01*
X0117407Y0153646D01*
X0119521Y0153646D01*
X0121052Y0153646D02*
X0121757Y0153646D01*
X0123952Y0152237D02*
X0126066Y0153646D01*
X0123952Y0152237D02*
X0126066Y0150827D01*
X0123952Y0150827D02*
X0123952Y0155055D01*
X0126852Y0157914D02*
X0126852Y0162142D01*
X0128966Y0162142D01*
X0129671Y0161437D01*
X0129671Y0160028D01*
X0128966Y0159323D01*
X0126852Y0159323D01*
X0131202Y0158619D02*
X0131907Y0157914D01*
X0133316Y0157914D01*
X0134021Y0158619D01*
X0135553Y0157914D02*
X0137667Y0157914D01*
X0138371Y0158619D01*
X0138371Y0159323D01*
X0137667Y0160028D01*
X0135553Y0160028D01*
X0134021Y0161437D02*
X0133316Y0162142D01*
X0131907Y0162142D01*
X0131202Y0161437D01*
X0131202Y0158619D01*
X0131927Y0155055D02*
X0134746Y0155055D01*
X0134746Y0154351D01*
X0131927Y0151532D01*
X0131927Y0150827D01*
X0136278Y0150827D02*
X0139096Y0155055D01*
X0140628Y0154351D02*
X0141332Y0155055D01*
X0142742Y0155055D01*
X0143446Y0154351D01*
X0143446Y0153646D01*
X0140628Y0150827D01*
X0143446Y0150827D01*
X0144978Y0151532D02*
X0147797Y0154351D01*
X0147797Y0151532D01*
X0147092Y0150827D01*
X0145683Y0150827D01*
X0144978Y0151532D01*
X0144978Y0154351D01*
X0145683Y0155055D01*
X0147092Y0155055D01*
X0147797Y0154351D01*
X0149328Y0153646D02*
X0150737Y0155055D01*
X0150737Y0150827D01*
X0149328Y0150827D02*
X0152147Y0150827D01*
X0153678Y0151532D02*
X0154383Y0150827D01*
X0155792Y0150827D01*
X0156497Y0151532D01*
X0156497Y0154351D01*
X0155792Y0155055D01*
X0154383Y0155055D01*
X0153678Y0154351D01*
X0153678Y0153646D01*
X0154383Y0152941D01*
X0156497Y0152941D01*
X0160526Y0156787D02*
X0161276Y0156787D01*
X0162027Y0157538D01*
X0162027Y0161291D01*
X0162777Y0161291D02*
X0161276Y0161291D01*
X0164379Y0159790D02*
X0165880Y0161291D01*
X0165880Y0156787D01*
X0164379Y0156787D02*
X0167381Y0156787D01*
X0168983Y0157538D02*
X0171985Y0160541D01*
X0171985Y0157538D01*
X0171235Y0156787D01*
X0169733Y0156787D01*
X0168983Y0157538D01*
X0168983Y0160541D01*
X0169733Y0161291D01*
X0171235Y0161291D01*
X0171985Y0160541D01*
X0160526Y0156787D02*
X0159775Y0157538D01*
X0151422Y0157914D02*
X0148603Y0157914D01*
X0150012Y0157914D02*
X0150012Y0162142D01*
X0148603Y0160733D01*
X0147072Y0160733D02*
X0145662Y0157914D01*
X0144253Y0160733D01*
X0138371Y0160733D02*
X0137667Y0160028D01*
X0138371Y0160733D02*
X0138371Y0161437D01*
X0137667Y0162142D01*
X0135553Y0162142D01*
X0135553Y0157914D01*
X0099240Y0151532D02*
X0098535Y0150827D01*
X0097831Y0150827D01*
X0097126Y0151532D01*
X0138892Y0100837D02*
X0138903Y0101707D01*
X0138935Y0102576D01*
X0138988Y0103444D01*
X0139063Y0104310D01*
X0139158Y0105174D01*
X0139276Y0106036D01*
X0139414Y0106895D01*
X0139573Y0107750D01*
X0139753Y0108600D01*
X0139954Y0109447D01*
X0140176Y0110287D01*
X0140418Y0111123D01*
X0140680Y0111952D01*
X0140963Y0112774D01*
X0141266Y0113589D01*
X0141589Y0114397D01*
X0141932Y0115196D01*
X0142294Y0115987D01*
X0142675Y0116768D01*
X0143076Y0117540D01*
X0143495Y0118302D01*
X0143933Y0119053D01*
X0144389Y0119794D01*
X0144864Y0120523D01*
X0145356Y0121240D01*
X0145865Y0121944D01*
X0146392Y0122637D01*
X0146935Y0123315D01*
X0147495Y0123981D01*
X0148071Y0124632D01*
X0148663Y0125269D01*
X0149270Y0125892D01*
X0149893Y0126499D01*
X0150530Y0127091D01*
X0151181Y0127667D01*
X0151847Y0128227D01*
X0152525Y0128770D01*
X0153218Y0129297D01*
X0153922Y0129806D01*
X0154639Y0130298D01*
X0155368Y0130773D01*
X0156109Y0131229D01*
X0156860Y0131667D01*
X0157622Y0132086D01*
X0158394Y0132487D01*
X0159175Y0132868D01*
X0159966Y0133230D01*
X0160765Y0133573D01*
X0161573Y0133896D01*
X0162388Y0134199D01*
X0163210Y0134482D01*
X0164039Y0134744D01*
X0164875Y0134986D01*
X0165715Y0135208D01*
X0166562Y0135409D01*
X0167412Y0135589D01*
X0168267Y0135748D01*
X0169126Y0135886D01*
X0169988Y0136004D01*
X0170852Y0136099D01*
X0171718Y0136174D01*
X0172586Y0136227D01*
X0173455Y0136259D01*
X0174325Y0136270D01*
X0175195Y0136259D01*
X0176064Y0136227D01*
X0176932Y0136174D01*
X0177798Y0136099D01*
X0178662Y0136004D01*
X0179524Y0135886D01*
X0180383Y0135748D01*
X0181238Y0135589D01*
X0182088Y0135409D01*
X0182935Y0135208D01*
X0183775Y0134986D01*
X0184611Y0134744D01*
X0185440Y0134482D01*
X0186262Y0134199D01*
X0187077Y0133896D01*
X0187885Y0133573D01*
X0188684Y0133230D01*
X0189475Y0132868D01*
X0190256Y0132487D01*
X0191028Y0132086D01*
X0191790Y0131667D01*
X0192541Y0131229D01*
X0193282Y0130773D01*
X0194011Y0130298D01*
X0194728Y0129806D01*
X0195432Y0129297D01*
X0196125Y0128770D01*
X0196803Y0128227D01*
X0197469Y0127667D01*
X0198120Y0127091D01*
X0198757Y0126499D01*
X0199380Y0125892D01*
X0199987Y0125269D01*
X0200579Y0124632D01*
X0201155Y0123981D01*
X0201715Y0123315D01*
X0202258Y0122637D01*
X0202785Y0121944D01*
X0203294Y0121240D01*
X0203786Y0120523D01*
X0204261Y0119794D01*
X0204717Y0119053D01*
X0205155Y0118302D01*
X0205574Y0117540D01*
X0205975Y0116768D01*
X0206356Y0115987D01*
X0206718Y0115196D01*
X0207061Y0114397D01*
X0207384Y0113589D01*
X0207687Y0112774D01*
X0207970Y0111952D01*
X0208232Y0111123D01*
X0208474Y0110287D01*
X0208696Y0109447D01*
X0208897Y0108600D01*
X0209077Y0107750D01*
X0209236Y0106895D01*
X0209374Y0106036D01*
X0209492Y0105174D01*
X0209587Y0104310D01*
X0209662Y0103444D01*
X0209715Y0102576D01*
X0209747Y0101707D01*
X0209758Y0100837D01*
X0209747Y0099967D01*
X0209715Y0099098D01*
X0209662Y0098230D01*
X0209587Y0097364D01*
X0209492Y0096500D01*
X0209374Y0095638D01*
X0209236Y0094779D01*
X0209077Y0093924D01*
X0208897Y0093074D01*
X0208696Y0092227D01*
X0208474Y0091387D01*
X0208232Y0090551D01*
X0207970Y0089722D01*
X0207687Y0088900D01*
X0207384Y0088085D01*
X0207061Y0087277D01*
X0206718Y0086478D01*
X0206356Y0085687D01*
X0205975Y0084906D01*
X0205574Y0084134D01*
X0205155Y0083372D01*
X0204717Y0082621D01*
X0204261Y0081880D01*
X0203786Y0081151D01*
X0203294Y0080434D01*
X0202785Y0079730D01*
X0202258Y0079037D01*
X0201715Y0078359D01*
X0201155Y0077693D01*
X0200579Y0077042D01*
X0199987Y0076405D01*
X0199380Y0075782D01*
X0198757Y0075175D01*
X0198120Y0074583D01*
X0197469Y0074007D01*
X0196803Y0073447D01*
X0196125Y0072904D01*
X0195432Y0072377D01*
X0194728Y0071868D01*
X0194011Y0071376D01*
X0193282Y0070901D01*
X0192541Y0070445D01*
X0191790Y0070007D01*
X0191028Y0069588D01*
X0190256Y0069187D01*
X0189475Y0068806D01*
X0188684Y0068444D01*
X0187885Y0068101D01*
X0187077Y0067778D01*
X0186262Y0067475D01*
X0185440Y0067192D01*
X0184611Y0066930D01*
X0183775Y0066688D01*
X0182935Y0066466D01*
X0182088Y0066265D01*
X0181238Y0066085D01*
X0180383Y0065926D01*
X0179524Y0065788D01*
X0178662Y0065670D01*
X0177798Y0065575D01*
X0176932Y0065500D01*
X0176064Y0065447D01*
X0175195Y0065415D01*
X0174325Y0065404D01*
X0173455Y0065415D01*
X0172586Y0065447D01*
X0171718Y0065500D01*
X0170852Y0065575D01*
X0169988Y0065670D01*
X0169126Y0065788D01*
X0168267Y0065926D01*
X0167412Y0066085D01*
X0166562Y0066265D01*
X0165715Y0066466D01*
X0164875Y0066688D01*
X0164039Y0066930D01*
X0163210Y0067192D01*
X0162388Y0067475D01*
X0161573Y0067778D01*
X0160765Y0068101D01*
X0159966Y0068444D01*
X0159175Y0068806D01*
X0158394Y0069187D01*
X0157622Y0069588D01*
X0156860Y0070007D01*
X0156109Y0070445D01*
X0155368Y0070901D01*
X0154639Y0071376D01*
X0153922Y0071868D01*
X0153218Y0072377D01*
X0152525Y0072904D01*
X0151847Y0073447D01*
X0151181Y0074007D01*
X0150530Y0074583D01*
X0149893Y0075175D01*
X0149270Y0075782D01*
X0148663Y0076405D01*
X0148071Y0077042D01*
X0147495Y0077693D01*
X0146935Y0078359D01*
X0146392Y0079037D01*
X0145865Y0079730D01*
X0145356Y0080434D01*
X0144864Y0081151D01*
X0144389Y0081880D01*
X0143933Y0082621D01*
X0143495Y0083372D01*
X0143076Y0084134D01*
X0142675Y0084906D01*
X0142294Y0085687D01*
X0141932Y0086478D01*
X0141589Y0087277D01*
X0141266Y0088085D01*
X0140963Y0088900D01*
X0140680Y0089722D01*
X0140418Y0090551D01*
X0140176Y0091387D01*
X0139954Y0092227D01*
X0139753Y0093074D01*
X0139573Y0093924D01*
X0139414Y0094779D01*
X0139276Y0095638D01*
X0139158Y0096500D01*
X0139063Y0097364D01*
X0138988Y0098230D01*
X0138935Y0099098D01*
X0138903Y0099967D01*
X0138892Y0100837D01*
X0134168Y0100837D02*
X0134180Y0101823D01*
X0134216Y0102807D01*
X0134277Y0103791D01*
X0134361Y0104773D01*
X0134470Y0105753D01*
X0134603Y0106729D01*
X0134759Y0107702D01*
X0134940Y0108671D01*
X0135144Y0109635D01*
X0135371Y0110594D01*
X0135623Y0111547D01*
X0135897Y0112494D01*
X0136195Y0113434D01*
X0136515Y0114365D01*
X0136859Y0115289D01*
X0137225Y0116204D01*
X0137613Y0117110D01*
X0138024Y0118006D01*
X0138456Y0118892D01*
X0138910Y0119767D01*
X0139385Y0120630D01*
X0139881Y0121482D01*
X0140398Y0122321D01*
X0140936Y0123147D01*
X0141493Y0123960D01*
X0142071Y0124758D01*
X0142667Y0125543D01*
X0143283Y0126312D01*
X0143918Y0127066D01*
X0144571Y0127805D01*
X0145241Y0128527D01*
X0145930Y0129232D01*
X0146635Y0129921D01*
X0147357Y0130591D01*
X0148096Y0131244D01*
X0148850Y0131879D01*
X0149619Y0132495D01*
X0150404Y0133091D01*
X0151202Y0133669D01*
X0152015Y0134226D01*
X0152841Y0134764D01*
X0153680Y0135281D01*
X0154532Y0135777D01*
X0155395Y0136252D01*
X0156270Y0136706D01*
X0157156Y0137138D01*
X0158052Y0137549D01*
X0158958Y0137937D01*
X0159873Y0138303D01*
X0160797Y0138647D01*
X0161728Y0138967D01*
X0162668Y0139265D01*
X0163615Y0139539D01*
X0164568Y0139791D01*
X0165527Y0140018D01*
X0166491Y0140222D01*
X0167460Y0140403D01*
X0168433Y0140559D01*
X0169409Y0140692D01*
X0170389Y0140801D01*
X0171371Y0140885D01*
X0172355Y0140946D01*
X0173339Y0140982D01*
X0174325Y0140994D01*
X0175311Y0140982D01*
X0176295Y0140946D01*
X0177279Y0140885D01*
X0178261Y0140801D01*
X0179241Y0140692D01*
X0180217Y0140559D01*
X0181190Y0140403D01*
X0182159Y0140222D01*
X0183123Y0140018D01*
X0184082Y0139791D01*
X0185035Y0139539D01*
X0185982Y0139265D01*
X0186922Y0138967D01*
X0187853Y0138647D01*
X0188777Y0138303D01*
X0189692Y0137937D01*
X0190598Y0137549D01*
X0191494Y0137138D01*
X0192380Y0136706D01*
X0193255Y0136252D01*
X0194118Y0135777D01*
X0194970Y0135281D01*
X0195809Y0134764D01*
X0196635Y0134226D01*
X0197448Y0133669D01*
X0198246Y0133091D01*
X0199031Y0132495D01*
X0199800Y0131879D01*
X0200554Y0131244D01*
X0201293Y0130591D01*
X0202015Y0129921D01*
X0202720Y0129232D01*
X0203409Y0128527D01*
X0204079Y0127805D01*
X0204732Y0127066D01*
X0205367Y0126312D01*
X0205983Y0125543D01*
X0206579Y0124758D01*
X0207157Y0123960D01*
X0207714Y0123147D01*
X0208252Y0122321D01*
X0208769Y0121482D01*
X0209265Y0120630D01*
X0209740Y0119767D01*
X0210194Y0118892D01*
X0210626Y0118006D01*
X0211037Y0117110D01*
X0211425Y0116204D01*
X0211791Y0115289D01*
X0212135Y0114365D01*
X0212455Y0113434D01*
X0212753Y0112494D01*
X0213027Y0111547D01*
X0213279Y0110594D01*
X0213506Y0109635D01*
X0213710Y0108671D01*
X0213891Y0107702D01*
X0214047Y0106729D01*
X0214180Y0105753D01*
X0214289Y0104773D01*
X0214373Y0103791D01*
X0214434Y0102807D01*
X0214470Y0101823D01*
X0214482Y0100837D01*
X0214470Y0099851D01*
X0214434Y0098867D01*
X0214373Y0097883D01*
X0214289Y0096901D01*
X0214180Y0095921D01*
X0214047Y0094945D01*
X0213891Y0093972D01*
X0213710Y0093003D01*
X0213506Y0092039D01*
X0213279Y0091080D01*
X0213027Y0090127D01*
X0212753Y0089180D01*
X0212455Y0088240D01*
X0212135Y0087309D01*
X0211791Y0086385D01*
X0211425Y0085470D01*
X0211037Y0084564D01*
X0210626Y0083668D01*
X0210194Y0082782D01*
X0209740Y0081907D01*
X0209265Y0081044D01*
X0208769Y0080192D01*
X0208252Y0079353D01*
X0207714Y0078527D01*
X0207157Y0077714D01*
X0206579Y0076916D01*
X0205983Y0076131D01*
X0205367Y0075362D01*
X0204732Y0074608D01*
X0204079Y0073869D01*
X0203409Y0073147D01*
X0202720Y0072442D01*
X0202015Y0071753D01*
X0201293Y0071083D01*
X0200554Y0070430D01*
X0199800Y0069795D01*
X0199031Y0069179D01*
X0198246Y0068583D01*
X0197448Y0068005D01*
X0196635Y0067448D01*
X0195809Y0066910D01*
X0194970Y0066393D01*
X0194118Y0065897D01*
X0193255Y0065422D01*
X0192380Y0064968D01*
X0191494Y0064536D01*
X0190598Y0064125D01*
X0189692Y0063737D01*
X0188777Y0063371D01*
X0187853Y0063027D01*
X0186922Y0062707D01*
X0185982Y0062409D01*
X0185035Y0062135D01*
X0184082Y0061883D01*
X0183123Y0061656D01*
X0182159Y0061452D01*
X0181190Y0061271D01*
X0180217Y0061115D01*
X0179241Y0060982D01*
X0178261Y0060873D01*
X0177279Y0060789D01*
X0176295Y0060728D01*
X0175311Y0060692D01*
X0174325Y0060680D01*
X0173339Y0060692D01*
X0172355Y0060728D01*
X0171371Y0060789D01*
X0170389Y0060873D01*
X0169409Y0060982D01*
X0168433Y0061115D01*
X0167460Y0061271D01*
X0166491Y0061452D01*
X0165527Y0061656D01*
X0164568Y0061883D01*
X0163615Y0062135D01*
X0162668Y0062409D01*
X0161728Y0062707D01*
X0160797Y0063027D01*
X0159873Y0063371D01*
X0158958Y0063737D01*
X0158052Y0064125D01*
X0157156Y0064536D01*
X0156270Y0064968D01*
X0155395Y0065422D01*
X0154532Y0065897D01*
X0153680Y0066393D01*
X0152841Y0066910D01*
X0152015Y0067448D01*
X0151202Y0068005D01*
X0150404Y0068583D01*
X0149619Y0069179D01*
X0148850Y0069795D01*
X0148096Y0070430D01*
X0147357Y0071083D01*
X0146635Y0071753D01*
X0145930Y0072442D01*
X0145241Y0073147D01*
X0144571Y0073869D01*
X0143918Y0074608D01*
X0143283Y0075362D01*
X0142667Y0076131D01*
X0142071Y0076916D01*
X0141493Y0077714D01*
X0140936Y0078527D01*
X0140398Y0079353D01*
X0139881Y0080192D01*
X0139385Y0081044D01*
X0138910Y0081907D01*
X0138456Y0082782D01*
X0138024Y0083668D01*
X0137613Y0084564D01*
X0137225Y0085470D01*
X0136859Y0086385D01*
X0136515Y0087309D01*
X0136195Y0088240D01*
X0135897Y0089180D01*
X0135623Y0090127D01*
X0135371Y0091080D01*
X0135144Y0092039D01*
X0134940Y0093003D01*
X0134759Y0093972D01*
X0134603Y0094945D01*
X0134470Y0095921D01*
X0134361Y0096901D01*
X0134277Y0097883D01*
X0134216Y0098867D01*
X0134180Y0099851D01*
X0134168Y0100837D01*
X0202652Y0128396D02*
X0202652Y0073278D01*
X0177168Y0100837D02*
X0177180Y0101823D01*
X0177216Y0102807D01*
X0177277Y0103791D01*
X0177361Y0104773D01*
X0177470Y0105753D01*
X0177603Y0106729D01*
X0177759Y0107702D01*
X0177940Y0108671D01*
X0178144Y0109635D01*
X0178371Y0110594D01*
X0178623Y0111547D01*
X0178897Y0112494D01*
X0179195Y0113434D01*
X0179515Y0114365D01*
X0179859Y0115289D01*
X0180225Y0116204D01*
X0180613Y0117110D01*
X0181024Y0118006D01*
X0181456Y0118892D01*
X0181910Y0119767D01*
X0182385Y0120630D01*
X0182881Y0121482D01*
X0183398Y0122321D01*
X0183936Y0123147D01*
X0184493Y0123960D01*
X0185071Y0124758D01*
X0185667Y0125543D01*
X0186283Y0126312D01*
X0186918Y0127066D01*
X0187571Y0127805D01*
X0188241Y0128527D01*
X0188930Y0129232D01*
X0189635Y0129921D01*
X0190357Y0130591D01*
X0191096Y0131244D01*
X0191850Y0131879D01*
X0192619Y0132495D01*
X0193404Y0133091D01*
X0194202Y0133669D01*
X0195015Y0134226D01*
X0195841Y0134764D01*
X0196680Y0135281D01*
X0197532Y0135777D01*
X0198395Y0136252D01*
X0199270Y0136706D01*
X0200156Y0137138D01*
X0201052Y0137549D01*
X0201958Y0137937D01*
X0202873Y0138303D01*
X0203797Y0138647D01*
X0204728Y0138967D01*
X0205668Y0139265D01*
X0206615Y0139539D01*
X0207568Y0139791D01*
X0208527Y0140018D01*
X0209491Y0140222D01*
X0210460Y0140403D01*
X0211433Y0140559D01*
X0212409Y0140692D01*
X0213389Y0140801D01*
X0214371Y0140885D01*
X0215355Y0140946D01*
X0216339Y0140982D01*
X0217325Y0140994D01*
X0218311Y0140982D01*
X0219295Y0140946D01*
X0220279Y0140885D01*
X0221261Y0140801D01*
X0222241Y0140692D01*
X0223217Y0140559D01*
X0224190Y0140403D01*
X0225159Y0140222D01*
X0226123Y0140018D01*
X0227082Y0139791D01*
X0228035Y0139539D01*
X0228982Y0139265D01*
X0229922Y0138967D01*
X0230853Y0138647D01*
X0231777Y0138303D01*
X0232692Y0137937D01*
X0233598Y0137549D01*
X0234494Y0137138D01*
X0235380Y0136706D01*
X0236255Y0136252D01*
X0237118Y0135777D01*
X0237970Y0135281D01*
X0238809Y0134764D01*
X0239635Y0134226D01*
X0240448Y0133669D01*
X0241246Y0133091D01*
X0242031Y0132495D01*
X0242800Y0131879D01*
X0243554Y0131244D01*
X0244293Y0130591D01*
X0245015Y0129921D01*
X0245720Y0129232D01*
X0246409Y0128527D01*
X0247079Y0127805D01*
X0247732Y0127066D01*
X0248367Y0126312D01*
X0248983Y0125543D01*
X0249579Y0124758D01*
X0250157Y0123960D01*
X0250714Y0123147D01*
X0251252Y0122321D01*
X0251769Y0121482D01*
X0252265Y0120630D01*
X0252740Y0119767D01*
X0253194Y0118892D01*
X0253626Y0118006D01*
X0254037Y0117110D01*
X0254425Y0116204D01*
X0254791Y0115289D01*
X0255135Y0114365D01*
X0255455Y0113434D01*
X0255753Y0112494D01*
X0256027Y0111547D01*
X0256279Y0110594D01*
X0256506Y0109635D01*
X0256710Y0108671D01*
X0256891Y0107702D01*
X0257047Y0106729D01*
X0257180Y0105753D01*
X0257289Y0104773D01*
X0257373Y0103791D01*
X0257434Y0102807D01*
X0257470Y0101823D01*
X0257482Y0100837D01*
X0257470Y0099851D01*
X0257434Y0098867D01*
X0257373Y0097883D01*
X0257289Y0096901D01*
X0257180Y0095921D01*
X0257047Y0094945D01*
X0256891Y0093972D01*
X0256710Y0093003D01*
X0256506Y0092039D01*
X0256279Y0091080D01*
X0256027Y0090127D01*
X0255753Y0089180D01*
X0255455Y0088240D01*
X0255135Y0087309D01*
X0254791Y0086385D01*
X0254425Y0085470D01*
X0254037Y0084564D01*
X0253626Y0083668D01*
X0253194Y0082782D01*
X0252740Y0081907D01*
X0252265Y0081044D01*
X0251769Y0080192D01*
X0251252Y0079353D01*
X0250714Y0078527D01*
X0250157Y0077714D01*
X0249579Y0076916D01*
X0248983Y0076131D01*
X0248367Y0075362D01*
X0247732Y0074608D01*
X0247079Y0073869D01*
X0246409Y0073147D01*
X0245720Y0072442D01*
X0245015Y0071753D01*
X0244293Y0071083D01*
X0243554Y0070430D01*
X0242800Y0069795D01*
X0242031Y0069179D01*
X0241246Y0068583D01*
X0240448Y0068005D01*
X0239635Y0067448D01*
X0238809Y0066910D01*
X0237970Y0066393D01*
X0237118Y0065897D01*
X0236255Y0065422D01*
X0235380Y0064968D01*
X0234494Y0064536D01*
X0233598Y0064125D01*
X0232692Y0063737D01*
X0231777Y0063371D01*
X0230853Y0063027D01*
X0229922Y0062707D01*
X0228982Y0062409D01*
X0228035Y0062135D01*
X0227082Y0061883D01*
X0226123Y0061656D01*
X0225159Y0061452D01*
X0224190Y0061271D01*
X0223217Y0061115D01*
X0222241Y0060982D01*
X0221261Y0060873D01*
X0220279Y0060789D01*
X0219295Y0060728D01*
X0218311Y0060692D01*
X0217325Y0060680D01*
X0216339Y0060692D01*
X0215355Y0060728D01*
X0214371Y0060789D01*
X0213389Y0060873D01*
X0212409Y0060982D01*
X0211433Y0061115D01*
X0210460Y0061271D01*
X0209491Y0061452D01*
X0208527Y0061656D01*
X0207568Y0061883D01*
X0206615Y0062135D01*
X0205668Y0062409D01*
X0204728Y0062707D01*
X0203797Y0063027D01*
X0202873Y0063371D01*
X0201958Y0063737D01*
X0201052Y0064125D01*
X0200156Y0064536D01*
X0199270Y0064968D01*
X0198395Y0065422D01*
X0197532Y0065897D01*
X0196680Y0066393D01*
X0195841Y0066910D01*
X0195015Y0067448D01*
X0194202Y0068005D01*
X0193404Y0068583D01*
X0192619Y0069179D01*
X0191850Y0069795D01*
X0191096Y0070430D01*
X0190357Y0071083D01*
X0189635Y0071753D01*
X0188930Y0072442D01*
X0188241Y0073147D01*
X0187571Y0073869D01*
X0186918Y0074608D01*
X0186283Y0075362D01*
X0185667Y0076131D01*
X0185071Y0076916D01*
X0184493Y0077714D01*
X0183936Y0078527D01*
X0183398Y0079353D01*
X0182881Y0080192D01*
X0182385Y0081044D01*
X0181910Y0081907D01*
X0181456Y0082782D01*
X0181024Y0083668D01*
X0180613Y0084564D01*
X0180225Y0085470D01*
X0179859Y0086385D01*
X0179515Y0087309D01*
X0179195Y0088240D01*
X0178897Y0089180D01*
X0178623Y0090127D01*
X0178371Y0091080D01*
X0178144Y0092039D01*
X0177940Y0093003D01*
X0177759Y0093972D01*
X0177603Y0094945D01*
X0177470Y0095921D01*
X0177361Y0096901D01*
X0177277Y0097883D01*
X0177216Y0098867D01*
X0177180Y0099851D01*
X0177168Y0100837D01*
X0177180Y0101823D01*
X0177216Y0102807D01*
X0177277Y0103791D01*
X0177361Y0104773D01*
X0177470Y0105753D01*
X0177603Y0106729D01*
X0177759Y0107702D01*
X0177940Y0108671D01*
X0178144Y0109635D01*
X0178371Y0110594D01*
X0178623Y0111547D01*
X0178897Y0112494D01*
X0179195Y0113434D01*
X0179515Y0114365D01*
X0179859Y0115289D01*
X0180225Y0116204D01*
X0180613Y0117110D01*
X0181024Y0118006D01*
X0181456Y0118892D01*
X0181910Y0119767D01*
X0182385Y0120630D01*
X0182881Y0121482D01*
X0183398Y0122321D01*
X0183936Y0123147D01*
X0184493Y0123960D01*
X0185071Y0124758D01*
X0185667Y0125543D01*
X0186283Y0126312D01*
X0186918Y0127066D01*
X0187571Y0127805D01*
X0188241Y0128527D01*
X0188930Y0129232D01*
X0189635Y0129921D01*
X0190357Y0130591D01*
X0191096Y0131244D01*
X0191850Y0131879D01*
X0192619Y0132495D01*
X0193404Y0133091D01*
X0194202Y0133669D01*
X0195015Y0134226D01*
X0195841Y0134764D01*
X0196680Y0135281D01*
X0197532Y0135777D01*
X0198395Y0136252D01*
X0199270Y0136706D01*
X0200156Y0137138D01*
X0201052Y0137549D01*
X0201958Y0137937D01*
X0202873Y0138303D01*
X0203797Y0138647D01*
X0204728Y0138967D01*
X0205668Y0139265D01*
X0206615Y0139539D01*
X0207568Y0139791D01*
X0208527Y0140018D01*
X0209491Y0140222D01*
X0210460Y0140403D01*
X0211433Y0140559D01*
X0212409Y0140692D01*
X0213389Y0140801D01*
X0214371Y0140885D01*
X0215355Y0140946D01*
X0216339Y0140982D01*
X0217325Y0140994D01*
X0218311Y0140982D01*
X0219295Y0140946D01*
X0220279Y0140885D01*
X0221261Y0140801D01*
X0222241Y0140692D01*
X0223217Y0140559D01*
X0224190Y0140403D01*
X0225159Y0140222D01*
X0226123Y0140018D01*
X0227082Y0139791D01*
X0228035Y0139539D01*
X0228982Y0139265D01*
X0229922Y0138967D01*
X0230853Y0138647D01*
X0231777Y0138303D01*
X0232692Y0137937D01*
X0233598Y0137549D01*
X0234494Y0137138D01*
X0235380Y0136706D01*
X0236255Y0136252D01*
X0237118Y0135777D01*
X0237970Y0135281D01*
X0238809Y0134764D01*
X0239635Y0134226D01*
X0240448Y0133669D01*
X0241246Y0133091D01*
X0242031Y0132495D01*
X0242800Y0131879D01*
X0243554Y0131244D01*
X0244293Y0130591D01*
X0245015Y0129921D01*
X0245720Y0129232D01*
X0246409Y0128527D01*
X0247079Y0127805D01*
X0247732Y0127066D01*
X0248367Y0126312D01*
X0248983Y0125543D01*
X0249579Y0124758D01*
X0250157Y0123960D01*
X0250714Y0123147D01*
X0251252Y0122321D01*
X0251769Y0121482D01*
X0252265Y0120630D01*
X0252740Y0119767D01*
X0253194Y0118892D01*
X0253626Y0118006D01*
X0254037Y0117110D01*
X0254425Y0116204D01*
X0254791Y0115289D01*
X0255135Y0114365D01*
X0255455Y0113434D01*
X0255753Y0112494D01*
X0256027Y0111547D01*
X0256279Y0110594D01*
X0256506Y0109635D01*
X0256710Y0108671D01*
X0256891Y0107702D01*
X0257047Y0106729D01*
X0257180Y0105753D01*
X0257289Y0104773D01*
X0257373Y0103791D01*
X0257434Y0102807D01*
X0257470Y0101823D01*
X0257482Y0100837D01*
X0257470Y0099851D01*
X0257434Y0098867D01*
X0257373Y0097883D01*
X0257289Y0096901D01*
X0257180Y0095921D01*
X0257047Y0094945D01*
X0256891Y0093972D01*
X0256710Y0093003D01*
X0256506Y0092039D01*
X0256279Y0091080D01*
X0256027Y0090127D01*
X0255753Y0089180D01*
X0255455Y0088240D01*
X0255135Y0087309D01*
X0254791Y0086385D01*
X0254425Y0085470D01*
X0254037Y0084564D01*
X0253626Y0083668D01*
X0253194Y0082782D01*
X0252740Y0081907D01*
X0252265Y0081044D01*
X0251769Y0080192D01*
X0251252Y0079353D01*
X0250714Y0078527D01*
X0250157Y0077714D01*
X0249579Y0076916D01*
X0248983Y0076131D01*
X0248367Y0075362D01*
X0247732Y0074608D01*
X0247079Y0073869D01*
X0246409Y0073147D01*
X0245720Y0072442D01*
X0245015Y0071753D01*
X0244293Y0071083D01*
X0243554Y0070430D01*
X0242800Y0069795D01*
X0242031Y0069179D01*
X0241246Y0068583D01*
X0240448Y0068005D01*
X0239635Y0067448D01*
X0238809Y0066910D01*
X0237970Y0066393D01*
X0237118Y0065897D01*
X0236255Y0065422D01*
X0235380Y0064968D01*
X0234494Y0064536D01*
X0233598Y0064125D01*
X0232692Y0063737D01*
X0231777Y0063371D01*
X0230853Y0063027D01*
X0229922Y0062707D01*
X0228982Y0062409D01*
X0228035Y0062135D01*
X0227082Y0061883D01*
X0226123Y0061656D01*
X0225159Y0061452D01*
X0224190Y0061271D01*
X0223217Y0061115D01*
X0222241Y0060982D01*
X0221261Y0060873D01*
X0220279Y0060789D01*
X0219295Y0060728D01*
X0218311Y0060692D01*
X0217325Y0060680D01*
X0216339Y0060692D01*
X0215355Y0060728D01*
X0214371Y0060789D01*
X0213389Y0060873D01*
X0212409Y0060982D01*
X0211433Y0061115D01*
X0210460Y0061271D01*
X0209491Y0061452D01*
X0208527Y0061656D01*
X0207568Y0061883D01*
X0206615Y0062135D01*
X0205668Y0062409D01*
X0204728Y0062707D01*
X0203797Y0063027D01*
X0202873Y0063371D01*
X0201958Y0063737D01*
X0201052Y0064125D01*
X0200156Y0064536D01*
X0199270Y0064968D01*
X0198395Y0065422D01*
X0197532Y0065897D01*
X0196680Y0066393D01*
X0195841Y0066910D01*
X0195015Y0067448D01*
X0194202Y0068005D01*
X0193404Y0068583D01*
X0192619Y0069179D01*
X0191850Y0069795D01*
X0191096Y0070430D01*
X0190357Y0071083D01*
X0189635Y0071753D01*
X0188930Y0072442D01*
X0188241Y0073147D01*
X0187571Y0073869D01*
X0186918Y0074608D01*
X0186283Y0075362D01*
X0185667Y0076131D01*
X0185071Y0076916D01*
X0184493Y0077714D01*
X0183936Y0078527D01*
X0183398Y0079353D01*
X0182881Y0080192D01*
X0182385Y0081044D01*
X0181910Y0081907D01*
X0181456Y0082782D01*
X0181024Y0083668D01*
X0180613Y0084564D01*
X0180225Y0085470D01*
X0179859Y0086385D01*
X0179515Y0087309D01*
X0179195Y0088240D01*
X0178897Y0089180D01*
X0178623Y0090127D01*
X0178371Y0091080D01*
X0178144Y0092039D01*
X0177940Y0093003D01*
X0177759Y0093972D01*
X0177603Y0094945D01*
X0177470Y0095921D01*
X0177361Y0096901D01*
X0177277Y0097883D01*
X0177216Y0098867D01*
X0177180Y0099851D01*
X0177168Y0100837D01*
D123*
X0175862Y0111037D02*
X0175862Y0115641D01*
X0173560Y0113339D01*
X0176629Y0113339D01*
X0172025Y0111805D02*
X0171258Y0111037D01*
X0169723Y0111037D01*
X0168956Y0111805D01*
X0168956Y0114874D01*
X0169723Y0115641D01*
X0171258Y0115641D01*
X0172025Y0114874D01*
X0167421Y0115641D02*
X0165886Y0115641D01*
X0166654Y0115641D02*
X0166654Y0111037D01*
X0167421Y0111037D02*
X0165886Y0111037D01*
X0166679Y0088715D02*
X0160971Y0088715D01*
X0160971Y0085959D02*
X0166679Y0085959D01*
X0149490Y0075874D02*
X0148723Y0076641D01*
X0147188Y0076641D01*
X0146421Y0075874D01*
X0144886Y0075874D02*
X0144119Y0076641D01*
X0142584Y0076641D01*
X0141817Y0075874D01*
X0140282Y0075874D02*
X0139515Y0076641D01*
X0137213Y0076641D01*
X0137213Y0072037D01*
X0137213Y0073572D02*
X0139515Y0073572D01*
X0140282Y0074339D01*
X0140282Y0075874D01*
X0138748Y0073572D02*
X0140282Y0072037D01*
X0141817Y0072037D02*
X0144886Y0075107D01*
X0144886Y0075874D01*
X0146421Y0072037D02*
X0149490Y0075107D01*
X0149490Y0075874D01*
X0149490Y0072037D02*
X0146421Y0072037D01*
X0144886Y0072037D02*
X0141817Y0072037D01*
X0131679Y0063715D02*
X0125971Y0063715D01*
X0125971Y0060959D02*
X0131679Y0060959D01*
X0119129Y0068305D02*
X0118362Y0067537D01*
X0116827Y0067537D01*
X0116060Y0068305D01*
X0114525Y0068305D02*
X0113758Y0067537D01*
X0112223Y0067537D01*
X0111456Y0068305D01*
X0111456Y0071374D01*
X0112223Y0072141D01*
X0113758Y0072141D01*
X0114525Y0071374D01*
X0116060Y0071374D02*
X0116827Y0072141D01*
X0118362Y0072141D01*
X0119129Y0071374D01*
X0119129Y0070607D01*
X0118362Y0069839D01*
X0119129Y0069072D01*
X0119129Y0068305D01*
X0118362Y0069839D02*
X0117594Y0069839D01*
X0109921Y0067537D02*
X0108386Y0067537D01*
X0109154Y0067537D02*
X0109154Y0072141D01*
X0109921Y0072141D02*
X0108386Y0072141D01*
X0098990Y0061141D02*
X0095921Y0061141D01*
X0095921Y0058839D01*
X0097456Y0059607D01*
X0098223Y0059607D01*
X0098990Y0058839D01*
X0098990Y0057305D01*
X0098223Y0056537D01*
X0096688Y0056537D01*
X0095921Y0057305D01*
X0094386Y0056537D02*
X0091317Y0056537D01*
X0094386Y0059607D01*
X0094386Y0060374D01*
X0093619Y0061141D01*
X0092084Y0061141D01*
X0091317Y0060374D01*
X0089782Y0060374D02*
X0089782Y0058839D01*
X0089015Y0058072D01*
X0086713Y0058072D01*
X0086713Y0056537D02*
X0086713Y0061141D01*
X0089015Y0061141D01*
X0089782Y0060374D01*
X0088248Y0058072D02*
X0089782Y0056537D01*
X0084203Y0061483D02*
X0084203Y0067192D01*
X0081447Y0067192D02*
X0081447Y0061483D01*
X0077625Y0060829D02*
X0073021Y0060829D01*
X0073021Y0063131D01*
X0073788Y0063899D01*
X0075323Y0063899D01*
X0076090Y0063131D01*
X0076090Y0060829D01*
X0076090Y0062364D02*
X0077625Y0063899D01*
X0075323Y0065433D02*
X0075323Y0068503D01*
X0077625Y0067735D02*
X0073021Y0067735D01*
X0075323Y0065433D01*
X0078713Y0070537D02*
X0078713Y0075141D01*
X0081015Y0075141D01*
X0081782Y0074374D01*
X0081782Y0072839D01*
X0081015Y0072072D01*
X0078713Y0072072D01*
X0080248Y0072072D02*
X0081782Y0070537D01*
X0083317Y0070537D02*
X0086386Y0070537D01*
X0084852Y0070537D02*
X0084852Y0075141D01*
X0083317Y0073607D01*
X0087921Y0074374D02*
X0088688Y0075141D01*
X0090223Y0075141D01*
X0090990Y0074374D01*
X0090990Y0073607D01*
X0090223Y0072839D01*
X0090990Y0072072D01*
X0090990Y0071305D01*
X0090223Y0070537D01*
X0088688Y0070537D01*
X0087921Y0071305D01*
X0089456Y0072839D02*
X0090223Y0072839D01*
X0067198Y0074805D02*
X0066431Y0074037D01*
X0064896Y0074037D01*
X0064129Y0074805D01*
X0062594Y0074805D02*
X0061827Y0074037D01*
X0060292Y0074037D01*
X0059525Y0074805D01*
X0059525Y0077874D01*
X0060292Y0078641D01*
X0061827Y0078641D01*
X0062594Y0077874D01*
X0062594Y0074805D01*
X0062594Y0074037D02*
X0061060Y0075572D01*
X0064129Y0077874D02*
X0064896Y0078641D01*
X0066431Y0078641D01*
X0067198Y0077874D01*
X0067198Y0077107D01*
X0066431Y0076339D01*
X0067198Y0075572D01*
X0067198Y0074805D01*
X0066431Y0076339D02*
X0065663Y0076339D01*
X0054802Y0074141D02*
X0054802Y0073374D01*
X0051733Y0070305D01*
X0051733Y0069537D01*
X0050198Y0069537D02*
X0047129Y0069537D01*
X0050198Y0072607D01*
X0050198Y0073374D01*
X0049431Y0074141D01*
X0047896Y0074141D01*
X0047129Y0073374D01*
X0045594Y0073374D02*
X0045594Y0071839D01*
X0044827Y0071072D01*
X0042525Y0071072D01*
X0044060Y0071072D02*
X0045594Y0069537D01*
X0042525Y0069537D02*
X0042525Y0074141D01*
X0044827Y0074141D01*
X0045594Y0073374D01*
X0040802Y0074641D02*
X0039267Y0073874D01*
X0037733Y0072339D01*
X0040035Y0072339D01*
X0040802Y0071572D01*
X0040802Y0070805D01*
X0040035Y0070037D01*
X0038500Y0070037D01*
X0037733Y0070805D01*
X0037733Y0072339D01*
X0036198Y0073107D02*
X0036198Y0073874D01*
X0035431Y0074641D01*
X0033896Y0074641D01*
X0033129Y0073874D01*
X0031594Y0073874D02*
X0031594Y0072339D01*
X0030827Y0071572D01*
X0028525Y0071572D01*
X0030060Y0071572D02*
X0031594Y0070037D01*
X0033129Y0070037D02*
X0036198Y0073107D01*
X0031594Y0073874D02*
X0030827Y0074641D01*
X0028525Y0074641D01*
X0028525Y0070037D01*
X0033129Y0070037D02*
X0036198Y0070037D01*
X0051733Y0074141D02*
X0054802Y0074141D01*
X0062025Y0057141D02*
X0064327Y0057141D01*
X0065094Y0056374D01*
X0065094Y0054839D01*
X0064327Y0054072D01*
X0062025Y0054072D01*
X0063560Y0054072D02*
X0065094Y0052537D01*
X0066629Y0052537D02*
X0069698Y0052537D01*
X0068163Y0052537D02*
X0068163Y0057141D01*
X0066629Y0055607D01*
X0062025Y0057141D02*
X0062025Y0052537D01*
X0061726Y0039987D02*
X0058923Y0039987D01*
X0058923Y0036637D02*
X0061726Y0036637D01*
X0076521Y0034468D02*
X0078056Y0032933D01*
X0078056Y0031399D02*
X0077288Y0031399D01*
X0076521Y0030631D01*
X0076521Y0029097D01*
X0077288Y0028329D01*
X0077288Y0026795D02*
X0078823Y0026795D01*
X0079590Y0026027D01*
X0079590Y0023726D01*
X0079590Y0025260D02*
X0081125Y0026795D01*
X0081125Y0028329D02*
X0078056Y0031399D01*
X0081125Y0031399D02*
X0081125Y0028329D01*
X0077288Y0026795D02*
X0076521Y0026027D01*
X0076521Y0023726D01*
X0081125Y0023726D01*
X0092947Y0027983D02*
X0092947Y0033692D01*
X0095703Y0033692D02*
X0095703Y0027983D01*
X0081125Y0032933D02*
X0081125Y0036003D01*
X0081125Y0034468D02*
X0076521Y0034468D01*
X0087971Y0042459D02*
X0093679Y0042459D01*
X0093679Y0045215D02*
X0087971Y0045215D01*
X0151849Y0055983D02*
X0151849Y0061692D01*
X0154604Y0061692D02*
X0154604Y0055983D01*
X0166021Y0052047D02*
X0166021Y0050512D01*
X0166788Y0049745D01*
X0166021Y0052047D02*
X0166788Y0052814D01*
X0167556Y0052814D01*
X0170625Y0049745D01*
X0170625Y0052814D01*
X0170625Y0048211D02*
X0170625Y0045141D01*
X0170625Y0043607D02*
X0169090Y0042072D01*
X0169090Y0042839D02*
X0169090Y0040537D01*
X0170625Y0040537D02*
X0166021Y0040537D01*
X0166021Y0042839D01*
X0166788Y0043607D01*
X0168323Y0043607D01*
X0169090Y0042839D01*
X0167556Y0045141D02*
X0166021Y0046676D01*
X0170625Y0046676D01*
X0178021Y0046701D02*
X0178788Y0045933D01*
X0179556Y0045933D01*
X0180323Y0046701D01*
X0180323Y0049003D01*
X0181858Y0049003D02*
X0178788Y0049003D01*
X0178021Y0048235D01*
X0178021Y0046701D01*
X0178788Y0044399D02*
X0180323Y0044399D01*
X0181090Y0043631D01*
X0181090Y0041329D01*
X0182625Y0041329D02*
X0178021Y0041329D01*
X0178021Y0043631D01*
X0178788Y0044399D01*
X0181090Y0042864D02*
X0182625Y0044399D01*
X0181858Y0045933D02*
X0182625Y0046701D01*
X0182625Y0048235D01*
X0181858Y0049003D01*
X0182971Y0038715D02*
X0188679Y0038715D01*
X0188679Y0035959D02*
X0182971Y0035959D01*
X0182223Y0022141D02*
X0182990Y0021374D01*
X0179921Y0018305D01*
X0180688Y0017537D01*
X0182223Y0017537D01*
X0182990Y0018305D01*
X0182990Y0021374D01*
X0182223Y0022141D02*
X0180688Y0022141D01*
X0179921Y0021374D01*
X0179921Y0018305D01*
X0178386Y0017537D02*
X0175317Y0017537D01*
X0173782Y0017537D02*
X0172248Y0019072D01*
X0173015Y0019072D02*
X0170713Y0019072D01*
X0170713Y0017537D02*
X0170713Y0022141D01*
X0173015Y0022141D01*
X0173782Y0021374D01*
X0173782Y0019839D01*
X0173015Y0019072D01*
X0175317Y0020607D02*
X0176852Y0022141D01*
X0176852Y0017537D01*
X0166990Y0017537D02*
X0163921Y0017537D01*
X0165456Y0017537D02*
X0165456Y0022141D01*
X0163921Y0020607D01*
X0160852Y0022141D02*
X0160852Y0017537D01*
X0162386Y0017537D02*
X0159317Y0017537D01*
X0157782Y0017537D02*
X0156248Y0019072D01*
X0157015Y0019072D02*
X0154713Y0019072D01*
X0154713Y0017537D02*
X0154713Y0022141D01*
X0157015Y0022141D01*
X0157782Y0021374D01*
X0157782Y0019839D01*
X0157015Y0019072D01*
X0159317Y0020607D02*
X0160852Y0022141D01*
X0216886Y0055037D02*
X0218421Y0055037D01*
X0217654Y0055037D02*
X0217654Y0059641D01*
X0218421Y0059641D02*
X0216886Y0059641D01*
X0219956Y0058874D02*
X0219956Y0055805D01*
X0220723Y0055037D01*
X0222258Y0055037D01*
X0223025Y0055805D01*
X0224560Y0055805D02*
X0225327Y0055037D01*
X0226861Y0055037D01*
X0227629Y0055805D01*
X0227629Y0057339D01*
X0226861Y0058107D01*
X0226094Y0058107D01*
X0224560Y0057339D01*
X0224560Y0059641D01*
X0227629Y0059641D01*
X0223025Y0058874D02*
X0222258Y0059641D01*
X0220723Y0059641D01*
X0219956Y0058874D01*
X0211679Y0066459D02*
X0205971Y0066459D01*
X0205971Y0069215D02*
X0211679Y0069215D01*
X0255213Y0088805D02*
X0255980Y0088037D01*
X0257515Y0088037D01*
X0258282Y0088805D01*
X0258282Y0089572D01*
X0257515Y0090339D01*
X0255980Y0090339D01*
X0255213Y0091107D01*
X0255213Y0091874D01*
X0255980Y0092641D01*
X0257515Y0092641D01*
X0258282Y0091874D01*
X0259817Y0091874D02*
X0260584Y0092641D01*
X0262119Y0092641D01*
X0262886Y0091874D01*
X0264421Y0091874D02*
X0265188Y0092641D01*
X0266723Y0092641D01*
X0267490Y0091874D01*
X0267490Y0091107D01*
X0266723Y0090339D01*
X0267490Y0089572D01*
X0267490Y0088805D01*
X0266723Y0088037D01*
X0265188Y0088037D01*
X0264421Y0088805D01*
X0262886Y0088805D02*
X0262886Y0089572D01*
X0262119Y0090339D01*
X0260584Y0090339D01*
X0259817Y0091107D01*
X0259817Y0091874D01*
X0261352Y0093409D02*
X0261352Y0087270D01*
X0262119Y0088037D02*
X0262886Y0088805D01*
X0262119Y0088037D02*
X0260584Y0088037D01*
X0259817Y0088805D01*
X0265956Y0090339D02*
X0266723Y0090339D01*
X0272447Y0099483D02*
X0272447Y0105192D01*
X0275203Y0105192D02*
X0275203Y0099483D01*
X0283471Y0106959D02*
X0289179Y0106959D01*
X0289179Y0109715D02*
X0283471Y0109715D01*
X0291317Y0115537D02*
X0291317Y0120141D01*
X0293619Y0120141D01*
X0294386Y0119374D01*
X0294386Y0117839D01*
X0293619Y0117072D01*
X0291317Y0117072D01*
X0292852Y0117072D02*
X0294386Y0115537D01*
X0295921Y0116305D02*
X0296688Y0115537D01*
X0298223Y0115537D01*
X0298990Y0116305D01*
X0298990Y0117072D01*
X0298223Y0117839D01*
X0297456Y0117839D01*
X0298223Y0117839D02*
X0298990Y0118607D01*
X0298990Y0119374D01*
X0298223Y0120141D01*
X0296688Y0120141D01*
X0295921Y0119374D01*
X0274703Y0121192D02*
X0274703Y0115483D01*
X0271947Y0115483D02*
X0271947Y0121192D01*
X0270125Y0129037D02*
X0265521Y0129037D01*
X0265521Y0131339D01*
X0266288Y0132107D01*
X0267823Y0132107D01*
X0268590Y0131339D01*
X0268590Y0129037D01*
X0268590Y0130572D02*
X0270125Y0132107D01*
X0270125Y0133641D02*
X0267056Y0136711D01*
X0266288Y0136711D01*
X0265521Y0135943D01*
X0265521Y0134409D01*
X0266288Y0133641D01*
X0270125Y0133641D02*
X0270125Y0136711D01*
X0255698Y0136072D02*
X0255698Y0135305D01*
X0254931Y0134537D01*
X0253396Y0134537D01*
X0252629Y0135305D01*
X0252629Y0136072D01*
X0253396Y0136839D01*
X0254931Y0136839D01*
X0255698Y0136072D01*
X0254931Y0136839D02*
X0255698Y0137607D01*
X0255698Y0138374D01*
X0254931Y0139141D01*
X0253396Y0139141D01*
X0252629Y0138374D01*
X0252629Y0137607D01*
X0253396Y0136839D01*
X0251094Y0136839D02*
X0250327Y0136072D01*
X0248025Y0136072D01*
X0249560Y0136072D02*
X0251094Y0134537D01*
X0251094Y0136839D02*
X0251094Y0138374D01*
X0250327Y0139141D01*
X0248025Y0139141D01*
X0248025Y0134537D01*
X0271750Y0153566D02*
X0271750Y0157109D01*
X0274900Y0157109D02*
X0274900Y0153566D01*
X0282971Y0150715D02*
X0288679Y0150715D01*
X0288679Y0147959D02*
X0282971Y0147959D01*
X0294521Y0147374D02*
X0296056Y0145839D01*
X0295288Y0144305D02*
X0294521Y0143537D01*
X0294521Y0142003D01*
X0295288Y0141235D01*
X0296056Y0141235D01*
X0296823Y0142003D01*
X0296823Y0143537D01*
X0297590Y0144305D01*
X0298358Y0144305D01*
X0299125Y0143537D01*
X0299125Y0142003D01*
X0298358Y0141235D01*
X0296823Y0139701D02*
X0295288Y0139701D01*
X0294521Y0138933D01*
X0294521Y0136631D01*
X0299125Y0136631D01*
X0297590Y0136631D02*
X0297590Y0138933D01*
X0296823Y0139701D01*
X0299125Y0145839D02*
X0299125Y0148909D01*
X0299125Y0149726D02*
X0294521Y0149726D01*
X0294521Y0152027D01*
X0295288Y0152795D01*
X0296823Y0152795D01*
X0297590Y0152027D01*
X0297590Y0149726D01*
X0297590Y0151260D02*
X0299125Y0152795D01*
X0299125Y0154329D02*
X0296056Y0157399D01*
X0295288Y0157399D01*
X0294521Y0156631D01*
X0294521Y0155097D01*
X0295288Y0154329D01*
X0299125Y0154329D02*
X0299125Y0157399D01*
X0296823Y0158933D02*
X0296823Y0162003D01*
X0299125Y0161235D02*
X0294521Y0161235D01*
X0296823Y0158933D01*
X0283906Y0163537D02*
X0280837Y0163537D01*
X0282371Y0163537D02*
X0282371Y0168141D01*
X0280837Y0166607D01*
X0279302Y0167374D02*
X0278535Y0168141D01*
X0276233Y0168141D01*
X0276233Y0163537D01*
X0278535Y0163537D01*
X0279302Y0164305D01*
X0279302Y0167374D01*
X0274698Y0168141D02*
X0271629Y0168141D01*
X0271629Y0163537D01*
X0274698Y0163537D01*
X0273163Y0165839D02*
X0271629Y0165839D01*
X0270094Y0163537D02*
X0267025Y0163537D01*
X0267025Y0168141D01*
X0247990Y0165641D02*
X0246456Y0164874D01*
X0244921Y0163339D01*
X0247223Y0163339D01*
X0247990Y0162572D01*
X0247990Y0161805D01*
X0247223Y0161037D01*
X0245688Y0161037D01*
X0244921Y0161805D01*
X0244921Y0163339D01*
X0243386Y0163339D02*
X0242619Y0162572D01*
X0240317Y0162572D01*
X0240317Y0161037D02*
X0240317Y0165641D01*
X0242619Y0165641D01*
X0243386Y0164874D01*
X0243386Y0163339D01*
X0241852Y0162572D02*
X0243386Y0161037D01*
X0235990Y0161805D02*
X0235223Y0161037D01*
X0233688Y0161037D01*
X0232921Y0161805D01*
X0232921Y0163339D02*
X0234456Y0164107D01*
X0235223Y0164107D01*
X0235990Y0163339D01*
X0235990Y0161805D01*
X0232921Y0163339D02*
X0232921Y0165641D01*
X0235990Y0165641D01*
X0231386Y0164874D02*
X0231386Y0163339D01*
X0230619Y0162572D01*
X0228317Y0162572D01*
X0228317Y0161037D02*
X0228317Y0165641D01*
X0230619Y0165641D01*
X0231386Y0164874D01*
X0229852Y0162572D02*
X0231386Y0161037D01*
X0216490Y0159374D02*
X0216490Y0156305D01*
X0215723Y0155537D01*
X0214188Y0155537D01*
X0213421Y0156305D01*
X0216490Y0159374D01*
X0215723Y0160141D01*
X0214188Y0160141D01*
X0213421Y0159374D01*
X0213421Y0156305D01*
X0211886Y0155537D02*
X0208817Y0155537D01*
X0211886Y0158607D01*
X0211886Y0159374D01*
X0211119Y0160141D01*
X0209584Y0160141D01*
X0208817Y0159374D01*
X0207282Y0159374D02*
X0207282Y0157839D01*
X0206515Y0157072D01*
X0204213Y0157072D01*
X0204213Y0155537D02*
X0204213Y0160141D01*
X0206515Y0160141D01*
X0207282Y0159374D01*
X0205748Y0157072D02*
X0207282Y0155537D01*
X0200094Y0157537D02*
X0197025Y0157537D01*
X0198560Y0157537D02*
X0198560Y0162141D01*
X0197025Y0160607D01*
X0195490Y0161374D02*
X0194723Y0162141D01*
X0193188Y0162141D01*
X0192421Y0161374D01*
X0192421Y0158305D01*
X0193188Y0157537D01*
X0194723Y0157537D01*
X0195490Y0158305D01*
X0195490Y0161374D01*
X0193956Y0159072D02*
X0195490Y0157537D01*
X0208525Y0134641D02*
X0210827Y0134641D01*
X0211594Y0133874D01*
X0211594Y0132339D01*
X0210827Y0131572D01*
X0208525Y0131572D01*
X0210060Y0131572D02*
X0211594Y0130037D01*
X0213129Y0130037D02*
X0213129Y0130805D01*
X0216198Y0133874D01*
X0216198Y0134641D01*
X0213129Y0134641D01*
X0208525Y0134641D02*
X0208525Y0130037D01*
X0152698Y0135537D02*
X0149629Y0135537D01*
X0151163Y0135537D02*
X0151163Y0140141D01*
X0149629Y0138607D01*
X0148094Y0140141D02*
X0145025Y0135537D01*
X0148094Y0135537D02*
X0145025Y0140141D01*
X0120302Y0123141D02*
X0117233Y0123141D01*
X0117233Y0120839D01*
X0118767Y0121607D01*
X0119535Y0121607D01*
X0120302Y0120839D01*
X0120302Y0119305D01*
X0119535Y0118537D01*
X0118000Y0118537D01*
X0117233Y0119305D01*
X0115698Y0118537D02*
X0112629Y0118537D01*
X0114163Y0118537D02*
X0114163Y0123141D01*
X0112629Y0121607D01*
X0111094Y0122374D02*
X0111094Y0120839D01*
X0110327Y0120072D01*
X0108025Y0120072D01*
X0109560Y0120072D02*
X0111094Y0118537D01*
X0108025Y0118537D02*
X0108025Y0123141D01*
X0110327Y0123141D01*
X0111094Y0122374D01*
X0099302Y0119037D02*
X0096233Y0119037D01*
X0097767Y0119037D02*
X0097767Y0123641D01*
X0096233Y0122107D01*
X0094698Y0122874D02*
X0093931Y0123641D01*
X0092396Y0123641D01*
X0091629Y0122874D01*
X0091629Y0122107D01*
X0092396Y0121339D01*
X0093931Y0121339D01*
X0094698Y0120572D01*
X0094698Y0119805D01*
X0093931Y0119037D01*
X0092396Y0119037D01*
X0091629Y0119805D01*
X0090094Y0119805D02*
X0090094Y0120572D01*
X0089327Y0121339D01*
X0087792Y0121339D01*
X0087025Y0122107D01*
X0087025Y0122874D01*
X0087792Y0123641D01*
X0089327Y0123641D01*
X0090094Y0122874D01*
X0093163Y0124409D02*
X0093163Y0118270D01*
X0090094Y0119805D02*
X0089327Y0119037D01*
X0087792Y0119037D01*
X0087025Y0119805D01*
X0109713Y0113141D02*
X0109713Y0108537D01*
X0109713Y0110072D02*
X0112015Y0110072D01*
X0112782Y0110839D01*
X0112782Y0112374D01*
X0112015Y0113141D01*
X0109713Y0113141D01*
X0111248Y0110072D02*
X0112782Y0108537D01*
X0114317Y0108537D02*
X0117386Y0108537D01*
X0115852Y0108537D02*
X0115852Y0113141D01*
X0114317Y0111607D01*
X0118921Y0111607D02*
X0118921Y0112374D01*
X0119688Y0113141D01*
X0121223Y0113141D01*
X0121990Y0112374D01*
X0121990Y0111607D01*
X0121223Y0110839D01*
X0119688Y0110839D01*
X0118921Y0111607D01*
X0119688Y0110839D02*
X0118921Y0110072D01*
X0118921Y0109305D01*
X0119688Y0108537D01*
X0121223Y0108537D01*
X0121990Y0109305D01*
X0121990Y0110072D01*
X0121223Y0110839D01*
X0121990Y0103141D02*
X0120456Y0102374D01*
X0118921Y0100839D01*
X0121223Y0100839D01*
X0121990Y0100072D01*
X0121990Y0099305D01*
X0121223Y0098537D01*
X0119688Y0098537D01*
X0118921Y0099305D01*
X0118921Y0100839D01*
X0115852Y0103141D02*
X0115852Y0098537D01*
X0117386Y0098537D02*
X0114317Y0098537D01*
X0112782Y0098537D02*
X0111248Y0100072D01*
X0112015Y0100072D02*
X0109713Y0100072D01*
X0109713Y0098537D02*
X0109713Y0103141D01*
X0112015Y0103141D01*
X0112782Y0102374D01*
X0112782Y0100839D01*
X0112015Y0100072D01*
X0114317Y0101607D02*
X0115852Y0103141D01*
X0119175Y0090739D02*
X0119175Y0087936D01*
X0122526Y0087936D02*
X0122526Y0090739D01*
X0058802Y0119874D02*
X0055733Y0116805D01*
X0055733Y0116037D01*
X0054198Y0116037D02*
X0051129Y0116037D01*
X0052663Y0116037D02*
X0052663Y0120641D01*
X0051129Y0119107D01*
X0049594Y0119874D02*
X0049594Y0118339D01*
X0048827Y0117572D01*
X0046525Y0117572D01*
X0048060Y0117572D02*
X0049594Y0116037D01*
X0046525Y0116037D02*
X0046525Y0120641D01*
X0048827Y0120641D01*
X0049594Y0119874D01*
X0055733Y0120641D02*
X0058802Y0120641D01*
X0058802Y0119874D01*
X0053858Y0104314D02*
X0054625Y0103547D01*
X0054625Y0102012D01*
X0053858Y0101245D01*
X0054625Y0099711D02*
X0054625Y0096641D01*
X0051556Y0099711D01*
X0050788Y0099711D01*
X0050021Y0098943D01*
X0050021Y0097409D01*
X0050788Y0096641D01*
X0050788Y0095107D02*
X0052323Y0095107D01*
X0053090Y0094339D01*
X0053090Y0092037D01*
X0054625Y0092037D02*
X0050021Y0092037D01*
X0050021Y0094339D01*
X0050788Y0095107D01*
X0053090Y0093572D02*
X0054625Y0095107D01*
X0045125Y0095107D02*
X0043590Y0093572D01*
X0043590Y0094339D02*
X0043590Y0092037D01*
X0045125Y0092037D02*
X0040521Y0092037D01*
X0040521Y0094339D01*
X0041288Y0095107D01*
X0042823Y0095107D01*
X0043590Y0094339D01*
X0042056Y0096641D02*
X0040521Y0098176D01*
X0045125Y0098176D01*
X0045125Y0096641D02*
X0045125Y0099711D01*
X0042823Y0101245D02*
X0042823Y0104314D01*
X0045125Y0103547D02*
X0040521Y0103547D01*
X0042823Y0101245D01*
X0050021Y0102012D02*
X0050021Y0103547D01*
X0050788Y0104314D01*
X0051556Y0104314D01*
X0052323Y0103547D01*
X0053090Y0104314D01*
X0053858Y0104314D01*
X0052323Y0103547D02*
X0052323Y0102780D01*
X0050788Y0101245D02*
X0050021Y0102012D01*
X0026770Y0100856D02*
X0020632Y0100856D01*
X0021399Y0100089D02*
X0021399Y0101624D01*
X0022166Y0102391D01*
X0022166Y0103926D02*
X0021399Y0104693D01*
X0021399Y0106227D01*
X0022166Y0106995D01*
X0022934Y0106995D01*
X0026003Y0103926D01*
X0026003Y0106995D01*
X0025236Y0102391D02*
X0024468Y0102391D01*
X0023701Y0101624D01*
X0023701Y0100089D01*
X0022934Y0099322D01*
X0022166Y0099322D01*
X0021399Y0100089D01*
X0021399Y0097787D02*
X0025236Y0097787D01*
X0026003Y0097020D01*
X0026003Y0095485D01*
X0025236Y0094718D01*
X0021399Y0094718D01*
X0025236Y0099322D02*
X0026003Y0100089D01*
X0026003Y0101624D01*
X0025236Y0102391D01*
X0021629Y0056641D02*
X0020094Y0055874D01*
X0018560Y0054339D01*
X0020861Y0054339D01*
X0021629Y0053572D01*
X0021629Y0052805D01*
X0020861Y0052037D01*
X0019327Y0052037D01*
X0018560Y0052805D01*
X0018560Y0054339D01*
X0017025Y0052805D02*
X0016258Y0052037D01*
X0014723Y0052037D01*
X0013956Y0052805D01*
X0013956Y0055874D01*
X0014723Y0056641D01*
X0016258Y0056641D01*
X0017025Y0055874D01*
X0012421Y0056641D02*
X0010886Y0056641D01*
X0011654Y0056641D02*
X0011654Y0052037D01*
X0012421Y0052037D02*
X0010886Y0052037D01*
X0294521Y0147374D02*
X0299125Y0147374D01*
D124*
X0292754Y0142105D02*
X0278896Y0142105D01*
X0278896Y0125570D01*
X0292754Y0125570D01*
X0292754Y0142105D01*
X0204215Y0139955D02*
X0190435Y0139955D01*
X0190435Y0154719D01*
X0204215Y0154719D01*
X0204215Y0139955D01*
X0182160Y0109892D02*
X0161490Y0109892D01*
X0161490Y0091782D01*
X0182160Y0091782D01*
X0182160Y0109892D01*
X0115593Y0088766D02*
X0115593Y0074908D01*
X0099057Y0074908D01*
X0099057Y0088766D01*
X0115593Y0088766D01*
X0040486Y0060924D02*
X0040486Y0046751D01*
X0023163Y0046751D01*
X0023163Y0060924D01*
X0040486Y0060924D01*
X0201246Y0062806D02*
X0201246Y0048869D01*
X0216404Y0048869D01*
X0216404Y0062806D01*
X0201246Y0062806D01*
D125*
X0206266Y0061585D02*
X0211384Y0061585D01*
X0211384Y0050089D01*
X0206266Y0050089D01*
X0206266Y0061585D01*
X0211384Y0053829D02*
X0207644Y0050089D01*
X0179699Y0092963D02*
X0163951Y0092963D01*
X0163951Y0108711D01*
X0179699Y0108711D01*
X0179699Y0092963D01*
X0163951Y0104774D02*
X0167888Y0108711D01*
X0110475Y0087585D02*
X0110475Y0076089D01*
X0104175Y0076089D01*
X0104175Y0087585D01*
X0110475Y0087585D01*
X0107915Y0087585D02*
X0104175Y0083845D01*
X0034876Y0059546D02*
X0034876Y0048129D01*
X0028774Y0048129D01*
X0028774Y0059546D01*
X0034876Y0059546D01*
X0034876Y0051869D02*
X0031136Y0048129D01*
X0191616Y0144778D02*
X0203034Y0144778D01*
X0203034Y0149896D01*
X0191616Y0149896D01*
X0191616Y0144778D01*
X0195356Y0144778D02*
X0191616Y0148518D01*
X0280077Y0136987D02*
X0280077Y0130688D01*
X0291573Y0130688D01*
X0291573Y0136987D01*
X0280077Y0136987D01*
X0287833Y0136987D02*
X0291573Y0133247D01*
D126*
X0291573Y0132656D02*
X0280077Y0132656D01*
X0280077Y0135018D01*
X0291573Y0135018D01*
X0291573Y0132656D01*
X0291632Y0136396D02*
X0291632Y0141121D01*
X0203034Y0146452D02*
X0191616Y0146452D01*
X0191616Y0148223D01*
X0203034Y0148223D01*
X0203034Y0146452D01*
X0191419Y0145074D02*
X0191419Y0140940D01*
X0108506Y0087585D02*
X0106144Y0087585D01*
X0106144Y0076089D01*
X0108506Y0076089D01*
X0108506Y0087585D01*
X0104766Y0087644D02*
X0100041Y0087644D01*
X0039502Y0047932D02*
X0033990Y0047932D01*
X0032612Y0048129D02*
X0032612Y0059546D01*
X0031038Y0059546D01*
X0031038Y0048129D01*
X0032612Y0048129D01*
X0208530Y0050089D02*
X0208530Y0061585D01*
X0209120Y0061585D01*
X0209120Y0050089D01*
X0208530Y0050089D01*
X0210498Y0049932D02*
X0215419Y0049932D01*
D127*
X0175726Y0047538D02*
X0175726Y0044137D01*
X0172923Y0044137D02*
X0172923Y0047538D01*
X0164226Y0047538D02*
X0164226Y0044137D01*
X0161423Y0044137D02*
X0161423Y0047538D01*
X0161423Y0030538D02*
X0161423Y0027137D01*
X0164226Y0027137D02*
X0164226Y0030538D01*
X0172923Y0030538D02*
X0172923Y0027137D01*
X0175726Y0027137D02*
X0175726Y0030538D01*
X0159026Y0072936D02*
X0155624Y0072936D01*
X0155624Y0075739D02*
X0159026Y0075739D01*
X0127725Y0090298D02*
X0125123Y0090298D01*
X0125123Y0092033D01*
X0125123Y0093244D02*
X0125123Y0094545D01*
X0125556Y0094979D01*
X0125990Y0094979D01*
X0126424Y0094545D01*
X0126424Y0093244D01*
X0127725Y0093244D02*
X0127725Y0094545D01*
X0127291Y0094979D01*
X0126858Y0094979D01*
X0126424Y0094545D01*
X0125990Y0096191D02*
X0125123Y0097058D01*
X0127725Y0097058D01*
X0127725Y0096191D02*
X0127725Y0097926D01*
X0127725Y0093244D02*
X0125123Y0093244D01*
X0126424Y0091165D02*
X0126424Y0090298D01*
X0107526Y0094436D02*
X0104124Y0094436D01*
X0104124Y0097239D02*
X0107526Y0097239D01*
X0107526Y0103936D02*
X0104124Y0103936D01*
X0104124Y0106739D02*
X0107526Y0106739D01*
X0103526Y0114436D02*
X0100124Y0114436D01*
X0100124Y0117239D02*
X0103526Y0117239D01*
X0052526Y0113239D02*
X0049124Y0113239D01*
X0049124Y0110436D02*
X0052526Y0110436D01*
X0051423Y0087038D02*
X0051423Y0083637D01*
X0054226Y0083637D02*
X0054226Y0087038D01*
X0044226Y0087038D02*
X0044226Y0083637D01*
X0041423Y0083637D02*
X0041423Y0087038D01*
X0072423Y0077038D02*
X0072423Y0073637D01*
X0075226Y0073637D02*
X0075226Y0077038D01*
X0084624Y0076936D02*
X0088026Y0076936D01*
X0088026Y0079739D02*
X0084624Y0079739D01*
X0070425Y0066937D02*
X0059225Y0066937D01*
X0059225Y0061737D01*
X0070425Y0061737D01*
X0070425Y0066937D01*
X0049526Y0067239D02*
X0046124Y0067239D01*
X0046124Y0064436D02*
X0049526Y0064436D01*
X0035526Y0064436D02*
X0032124Y0064436D01*
X0032124Y0067239D02*
X0035526Y0067239D01*
X0062624Y0051239D02*
X0066026Y0051239D01*
X0066026Y0048436D02*
X0062624Y0048436D01*
X0051413Y0041106D02*
X0050980Y0041540D01*
X0050112Y0041540D01*
X0049678Y0041106D01*
X0049678Y0040672D01*
X0050112Y0040238D01*
X0051413Y0040238D01*
X0051413Y0039371D02*
X0051413Y0041106D01*
X0051413Y0039371D02*
X0050980Y0038937D01*
X0050112Y0038937D01*
X0049678Y0039371D01*
X0048467Y0039371D02*
X0048033Y0038937D01*
X0046732Y0038937D01*
X0046732Y0041540D01*
X0048033Y0041540D01*
X0048467Y0041106D01*
X0048467Y0040672D01*
X0048033Y0040238D01*
X0046732Y0040238D01*
X0048033Y0040238D02*
X0048467Y0039805D01*
X0048467Y0039371D01*
X0045520Y0041540D02*
X0043785Y0041540D01*
X0043785Y0038937D01*
X0043785Y0040238D02*
X0044653Y0040238D01*
X0071423Y0036538D02*
X0071423Y0033137D01*
X0074226Y0033137D02*
X0074226Y0036538D01*
X0088624Y0051436D02*
X0092026Y0051436D01*
X0092026Y0054239D02*
X0088624Y0054239D01*
X0209124Y0118436D02*
X0212526Y0118436D01*
X0212526Y0121239D02*
X0209124Y0121239D01*
X0179825Y0146837D02*
X0177325Y0144337D01*
X0172325Y0144337D01*
X0169825Y0146837D01*
X0167325Y0144337D01*
X0162325Y0144337D01*
X0159825Y0146837D01*
X0159825Y0151837D01*
X0162325Y0154337D01*
X0167325Y0154337D01*
X0169825Y0151837D01*
X0172325Y0154337D01*
X0177325Y0154337D01*
X0179825Y0151837D01*
X0179825Y0146837D01*
X0169825Y0146837D02*
X0169825Y0151837D01*
X0209124Y0152239D02*
X0212526Y0152239D01*
X0212526Y0149436D02*
X0209124Y0149436D01*
X0230624Y0155436D02*
X0234026Y0155436D01*
X0234026Y0158239D02*
X0230624Y0158239D01*
X0243423Y0156038D02*
X0243423Y0152637D01*
X0246226Y0152637D02*
X0246226Y0156038D01*
X0258624Y0144739D02*
X0262026Y0144739D01*
X0262026Y0141936D02*
X0258624Y0141936D01*
X0271923Y0134038D02*
X0271923Y0130637D01*
X0274726Y0130637D02*
X0274726Y0134038D01*
X0284624Y0119739D02*
X0288026Y0119739D01*
X0288026Y0116936D02*
X0284624Y0116936D01*
X0284124Y0157936D02*
X0287526Y0157936D01*
X0287526Y0160739D02*
X0284124Y0160739D01*
D128*
X0244825Y0156837D03*
X0244825Y0151837D03*
X0273325Y0134837D03*
X0273325Y0129837D03*
X0174325Y0048337D03*
X0174325Y0043337D03*
X0162825Y0043337D03*
X0162825Y0048337D03*
X0162825Y0031337D03*
X0162825Y0026337D03*
X0174325Y0026337D03*
X0174325Y0031337D03*
X0073825Y0072837D03*
X0073825Y0077837D03*
X0052825Y0082837D03*
X0052825Y0087837D03*
X0042825Y0087837D03*
X0042825Y0082837D03*
X0072825Y0037337D03*
X0072825Y0032337D03*
D129*
X0066825Y0049837D03*
X0061825Y0049837D03*
X0087825Y0052837D03*
X0092825Y0052837D03*
X0050325Y0065837D03*
X0045325Y0065837D03*
X0036325Y0065837D03*
X0031325Y0065837D03*
X0083825Y0078337D03*
X0088825Y0078337D03*
X0103325Y0095837D03*
X0108325Y0095837D03*
X0108325Y0105337D03*
X0103325Y0105337D03*
X0104325Y0115837D03*
X0099325Y0115837D03*
X0053325Y0111837D03*
X0048325Y0111837D03*
X0154825Y0074337D03*
X0159825Y0074337D03*
X0208325Y0119837D03*
X0213325Y0119837D03*
X0257825Y0143337D03*
X0262825Y0143337D03*
X0283325Y0159337D03*
X0288325Y0159337D03*
X0234825Y0156837D03*
X0229825Y0156837D03*
X0213325Y0150837D03*
X0208325Y0150837D03*
X0283825Y0118337D03*
X0288825Y0118337D03*
D130*
X0288786Y0108337D03*
X0283864Y0108337D03*
X0283364Y0149337D03*
X0288286Y0149337D03*
X0166286Y0087337D03*
X0161364Y0087337D03*
X0131286Y0062337D03*
X0126364Y0062337D03*
X0093286Y0043837D03*
X0088364Y0043837D03*
X0183364Y0037337D03*
X0188286Y0037337D03*
X0206364Y0067837D03*
X0211286Y0067837D03*
D131*
X0153226Y0061298D03*
X0153226Y0056377D03*
X0094325Y0033298D03*
X0094325Y0028377D03*
X0082825Y0061877D03*
X0082825Y0066798D03*
X0273825Y0099877D03*
X0273825Y0104798D03*
X0273325Y0115877D03*
X0273325Y0120798D03*
D132*
X0260793Y0151507D02*
X0256856Y0151507D01*
X0256856Y0160168D01*
X0260793Y0160168D01*
X0260793Y0151507D01*
X0123581Y0095637D02*
X0123581Y0083038D01*
X0118069Y0083038D01*
X0118069Y0095637D01*
X0123581Y0095637D01*
X0117797Y0049412D02*
X0112797Y0049412D01*
X0066624Y0041093D02*
X0066624Y0035581D01*
X0054026Y0035581D01*
X0054026Y0041093D01*
X0066624Y0041093D01*
D133*
X0258038Y0158396D03*
D134*
X0255478Y0158396D03*
X0255478Y0155837D03*
X0255478Y0153278D03*
X0262171Y0153278D03*
X0262171Y0158396D03*
D135*
X0064807Y0120837D02*
X0064809Y0120882D01*
X0064815Y0120927D01*
X0064825Y0120971D01*
X0064838Y0121014D01*
X0064856Y0121056D01*
X0064876Y0121096D01*
X0064901Y0121134D01*
X0064928Y0121170D01*
X0064959Y0121203D01*
X0064992Y0121234D01*
X0065028Y0121261D01*
X0065066Y0121286D01*
X0065106Y0121306D01*
X0065148Y0121324D01*
X0065191Y0121337D01*
X0065235Y0121347D01*
X0065280Y0121353D01*
X0065325Y0121355D01*
X0065370Y0121353D01*
X0065415Y0121347D01*
X0065459Y0121337D01*
X0065502Y0121324D01*
X0065544Y0121306D01*
X0065584Y0121286D01*
X0065622Y0121261D01*
X0065658Y0121234D01*
X0065691Y0121203D01*
X0065722Y0121170D01*
X0065749Y0121134D01*
X0065774Y0121096D01*
X0065794Y0121056D01*
X0065812Y0121014D01*
X0065825Y0120971D01*
X0065835Y0120927D01*
X0065841Y0120882D01*
X0065843Y0120837D01*
X0065841Y0120792D01*
X0065835Y0120747D01*
X0065825Y0120703D01*
X0065812Y0120660D01*
X0065794Y0120618D01*
X0065774Y0120578D01*
X0065749Y0120540D01*
X0065722Y0120504D01*
X0065691Y0120471D01*
X0065658Y0120440D01*
X0065622Y0120413D01*
X0065584Y0120388D01*
X0065544Y0120368D01*
X0065502Y0120350D01*
X0065459Y0120337D01*
X0065415Y0120327D01*
X0065370Y0120321D01*
X0065325Y0120319D01*
X0065280Y0120321D01*
X0065235Y0120327D01*
X0065191Y0120337D01*
X0065148Y0120350D01*
X0065106Y0120368D01*
X0065066Y0120388D01*
X0065028Y0120413D01*
X0064992Y0120440D01*
X0064959Y0120471D01*
X0064928Y0120504D01*
X0064901Y0120540D01*
X0064876Y0120578D01*
X0064856Y0120618D01*
X0064838Y0120660D01*
X0064825Y0120703D01*
X0064815Y0120747D01*
X0064809Y0120792D01*
X0064807Y0120837D01*
X0064809Y0120882D01*
X0064815Y0120927D01*
X0064825Y0120971D01*
X0064838Y0121014D01*
X0064856Y0121056D01*
X0064876Y0121096D01*
X0064901Y0121134D01*
X0064928Y0121170D01*
X0064959Y0121203D01*
X0064992Y0121234D01*
X0065028Y0121261D01*
X0065066Y0121286D01*
X0065106Y0121306D01*
X0065148Y0121324D01*
X0065191Y0121337D01*
X0065235Y0121347D01*
X0065280Y0121353D01*
X0065325Y0121355D01*
X0065370Y0121353D01*
X0065415Y0121347D01*
X0065459Y0121337D01*
X0065502Y0121324D01*
X0065544Y0121306D01*
X0065584Y0121286D01*
X0065622Y0121261D01*
X0065658Y0121234D01*
X0065691Y0121203D01*
X0065722Y0121170D01*
X0065749Y0121134D01*
X0065774Y0121096D01*
X0065794Y0121056D01*
X0065812Y0121014D01*
X0065825Y0120971D01*
X0065835Y0120927D01*
X0065841Y0120882D01*
X0065843Y0120837D01*
X0065841Y0120792D01*
X0065835Y0120747D01*
X0065825Y0120703D01*
X0065812Y0120660D01*
X0065794Y0120618D01*
X0065774Y0120578D01*
X0065749Y0120540D01*
X0065722Y0120504D01*
X0065691Y0120471D01*
X0065658Y0120440D01*
X0065622Y0120413D01*
X0065584Y0120388D01*
X0065544Y0120368D01*
X0065502Y0120350D01*
X0065459Y0120337D01*
X0065415Y0120327D01*
X0065370Y0120321D01*
X0065325Y0120319D01*
X0065280Y0120321D01*
X0065235Y0120327D01*
X0065191Y0120337D01*
X0065148Y0120350D01*
X0065106Y0120368D01*
X0065066Y0120388D01*
X0065028Y0120413D01*
X0064992Y0120440D01*
X0064959Y0120471D01*
X0064928Y0120504D01*
X0064901Y0120540D01*
X0064876Y0120578D01*
X0064856Y0120618D01*
X0064838Y0120660D01*
X0064825Y0120703D01*
X0064815Y0120747D01*
X0064809Y0120792D01*
X0064807Y0120837D01*
D136*
X0062640Y0038317D03*
X0058040Y0038317D03*
D137*
X0164825Y0149337D03*
X0174825Y0149337D03*
D138*
X0161983Y0109302D02*
X0161985Y0109346D01*
X0161991Y0109390D01*
X0162001Y0109433D01*
X0162014Y0109475D01*
X0162032Y0109515D01*
X0162053Y0109554D01*
X0162077Y0109591D01*
X0162104Y0109626D01*
X0162135Y0109658D01*
X0162168Y0109687D01*
X0162204Y0109713D01*
X0162242Y0109735D01*
X0162282Y0109754D01*
X0162323Y0109770D01*
X0162366Y0109782D01*
X0162409Y0109790D01*
X0162453Y0109794D01*
X0162497Y0109794D01*
X0162541Y0109790D01*
X0162584Y0109782D01*
X0162627Y0109770D01*
X0162668Y0109754D01*
X0162708Y0109735D01*
X0162746Y0109713D01*
X0162782Y0109687D01*
X0162815Y0109658D01*
X0162846Y0109626D01*
X0162873Y0109591D01*
X0162897Y0109554D01*
X0162918Y0109515D01*
X0162936Y0109475D01*
X0162949Y0109433D01*
X0162959Y0109390D01*
X0162965Y0109346D01*
X0162967Y0109302D01*
X0162965Y0109258D01*
X0162959Y0109214D01*
X0162949Y0109171D01*
X0162936Y0109129D01*
X0162918Y0109089D01*
X0162897Y0109050D01*
X0162873Y0109013D01*
X0162846Y0108978D01*
X0162815Y0108946D01*
X0162782Y0108917D01*
X0162746Y0108891D01*
X0162708Y0108869D01*
X0162668Y0108850D01*
X0162627Y0108834D01*
X0162584Y0108822D01*
X0162541Y0108814D01*
X0162497Y0108810D01*
X0162453Y0108810D01*
X0162409Y0108814D01*
X0162366Y0108822D01*
X0162323Y0108834D01*
X0162282Y0108850D01*
X0162242Y0108869D01*
X0162204Y0108891D01*
X0162168Y0108917D01*
X0162135Y0108946D01*
X0162104Y0108978D01*
X0162077Y0109013D01*
X0162053Y0109050D01*
X0162032Y0109089D01*
X0162014Y0109129D01*
X0162001Y0109171D01*
X0161991Y0109214D01*
X0161985Y0109258D01*
X0161983Y0109302D01*
D139*
X0120845Y0091653D03*
X0120845Y0087053D03*
D140*
X0068525Y0060387D03*
X0061125Y0060387D03*
X0064825Y0068287D03*
D141*
X0273325Y0152778D03*
X0273325Y0157896D03*
D142*
X0274801Y0154747D03*
X0271849Y0154747D03*
D143*
X0273325Y0154747D03*
M02*
