G75*
%MOIN*%
%OFA0B0*%
%FSLAX25Y25*%
%IPPOS*%
%LPD*%
%AMOC8*
5,1,8,0,0,1.08239X$1,22.5*
%
%ADD10C,0.01700*%
%ADD11R,0.07400X0.07400*%
%ADD12C,0.07400*%
%ADD13C,0.06000*%
%ADD14C,0.17717*%
%ADD15C,0.11811*%
%ADD16C,0.05937*%
%ADD17C,0.02400*%
%ADD18C,0.03200*%
%ADD19C,0.03200*%
%ADD20C,0.04000*%
%ADD21R,0.03962X0.03962*%
%ADD22C,0.01200*%
%ADD23C,0.01600*%
%ADD24C,0.01000*%
D10*
X0049879Y0161172D02*
X0049879Y0167351D01*
X0051939Y0167351D02*
X0047819Y0167351D01*
X0055070Y0166321D02*
X0055070Y0162201D01*
X0056100Y0161172D01*
X0058159Y0161172D01*
X0059189Y0162201D01*
X0059189Y0166321D01*
X0058159Y0167351D01*
X0056100Y0167351D01*
X0055070Y0166321D01*
X0062320Y0166321D02*
X0062320Y0165291D01*
X0063350Y0164261D01*
X0066439Y0164261D01*
X0063350Y0164261D02*
X0062320Y0163231D01*
X0062320Y0162201D01*
X0063350Y0161172D01*
X0066439Y0161172D01*
X0066439Y0167351D01*
X0063350Y0167351D01*
X0062320Y0166321D01*
D11*
X0115297Y0043837D03*
D12*
X0125297Y0043837D03*
X0135297Y0043837D03*
X0135297Y0033837D03*
X0125297Y0033837D03*
X0115297Y0033837D03*
D13*
X0164825Y0146337D02*
X0164825Y0152337D01*
X0174825Y0152337D02*
X0174825Y0146337D01*
D14*
X0174325Y0127337D03*
X0200825Y0100837D03*
X0230575Y0090837D03*
X0230575Y0110837D03*
X0174325Y0074337D03*
D15*
X0087325Y0093837D03*
X0073325Y0093837D03*
X0073325Y0107837D03*
X0087325Y0107837D03*
D16*
X0018006Y0112633D02*
X0018006Y0118570D01*
X0018006Y0089042D02*
X0018006Y0083105D01*
X0215644Y0097869D02*
X0215644Y0103806D01*
D17*
X0230632Y0090837D02*
X0236325Y0090837D01*
X0244825Y0099337D01*
X0244825Y0117337D01*
X0239825Y0122337D01*
X0132309Y0077054D02*
X0132309Y0071577D01*
X0132325Y0071562D01*
X0132309Y0071562D02*
X0118667Y0071562D01*
D18*
X0118667Y0071562D03*
X0108309Y0065853D03*
X0118667Y0064652D03*
X0132309Y0071562D03*
X0132325Y0071562D03*
X0140325Y0068837D03*
X0138156Y0060755D03*
X0161325Y0058337D03*
X0137325Y0076337D03*
X0132309Y0077054D03*
X0127825Y0084837D03*
X0119325Y0077837D03*
X0095325Y0084837D03*
X0062825Y0083837D03*
X0024325Y0064837D03*
X0046325Y0049337D03*
X0055825Y0054337D03*
X0036325Y0040337D03*
X0058825Y0032837D03*
X0081825Y0044337D03*
X0101825Y0038337D03*
X0106325Y0052837D03*
X0146482Y0034180D03*
X0146482Y0029219D03*
X0146305Y0024967D03*
X0156825Y0031837D03*
X0180825Y0025837D03*
X0208825Y0034337D03*
X0235325Y0021337D03*
X0238325Y0045837D03*
X0221325Y0051837D03*
X0238825Y0059337D03*
X0221325Y0077837D03*
X0175325Y0100837D03*
X0171825Y0104837D03*
X0168825Y0100837D03*
X0171825Y0096837D03*
X0158325Y0105837D03*
X0149825Y0098337D03*
X0133825Y0096337D03*
X0153825Y0083337D03*
X0148325Y0081337D03*
X0183325Y0108837D03*
X0187825Y0113912D03*
X0207325Y0142837D03*
X0230825Y0143337D03*
X0249325Y0145337D03*
X0251825Y0149837D03*
X0262325Y0163337D03*
X0296325Y0165837D03*
X0297325Y0133337D03*
X0258825Y0132837D03*
X0239825Y0122337D03*
X0297325Y0101837D03*
X0297325Y0056337D03*
X0148325Y0146337D03*
X0117325Y0145337D03*
X0106325Y0166337D03*
X0073825Y0166837D03*
X0039825Y0166337D03*
X0055825Y0145337D03*
X0016825Y0143337D03*
X0127325Y0115837D03*
D19*
X0174325Y0074337D02*
X0174325Y0074263D01*
X0221423Y0077763D02*
X0228687Y0070499D01*
X0228687Y0025853D01*
X0222421Y0019587D01*
X0113575Y0019587D01*
X0102825Y0030337D01*
X0102825Y0037337D01*
X0101825Y0038337D01*
X0115297Y0033837D02*
X0115301Y0033833D01*
X0115301Y0028156D01*
X0118490Y0024967D01*
X0146305Y0024967D01*
X0146305Y0029219D01*
X0146482Y0029219D02*
X0146482Y0034180D01*
X0118667Y0064652D02*
X0118667Y0071562D01*
X0230575Y0090837D02*
X0230632Y0090837D01*
D20*
X0115297Y0043837D02*
X0107325Y0043837D01*
X0101825Y0038337D01*
D21*
X0221423Y0077763D03*
D22*
X0214825Y0058337D02*
X0164825Y0058337D01*
X0163075Y0060087D01*
X0161325Y0058337D01*
X0163075Y0060087D02*
X0156325Y0066837D01*
X0156325Y0072337D01*
X0148325Y0080337D01*
X0148325Y0081337D01*
X0144825Y0084837D01*
X0127825Y0084837D01*
X0122325Y0080837D02*
X0139825Y0080837D01*
X0150825Y0069837D01*
X0153825Y0083337D02*
X0110325Y0126837D01*
X0025825Y0126837D01*
X0018006Y0119018D01*
X0018006Y0115601D01*
X0119325Y0077837D02*
X0122325Y0080837D01*
X0158325Y0105837D02*
X0158325Y0111837D01*
X0154325Y0115837D01*
X0127325Y0115837D01*
X0183325Y0108837D02*
X0184825Y0108837D01*
X0186825Y0106837D01*
X0186825Y0086837D01*
X0174325Y0074337D01*
X0214825Y0058337D02*
X0221325Y0051837D01*
X0238325Y0045837D02*
X0258825Y0066337D01*
X0258825Y0132837D01*
X0256825Y0145337D02*
X0249325Y0145337D01*
X0256825Y0145337D02*
X0262325Y0150837D01*
X0262325Y0163337D01*
X0207325Y0142837D02*
X0207325Y0133412D01*
X0187825Y0113912D01*
D23*
X0133825Y0096337D02*
X0127825Y0090337D01*
X0127825Y0084837D01*
X0150825Y0069837D02*
X0150825Y0066837D01*
X0156825Y0060837D01*
X0156825Y0031837D01*
X0151325Y0029837D02*
X0151325Y0042337D01*
X0139325Y0054337D01*
X0139258Y0054337D01*
X0136030Y0057566D01*
X0116597Y0057566D01*
X0108309Y0065853D01*
X0106325Y0052837D02*
X0132608Y0052837D01*
X0135321Y0050125D01*
X0135321Y0043861D01*
X0135297Y0043837D01*
X0151325Y0029837D02*
X0155325Y0025837D01*
X0180825Y0025837D01*
X0140325Y0062924D02*
X0138156Y0060755D01*
X0140325Y0062924D02*
X0140325Y0068837D01*
X0095325Y0084837D02*
X0094325Y0083837D01*
X0055825Y0054337D02*
X0051325Y0054337D01*
X0046325Y0049337D01*
X0044825Y0044337D02*
X0081825Y0044337D01*
X0044825Y0044337D02*
X0024325Y0064837D01*
D24*
X0010325Y0015837D02*
X0010325Y0170318D01*
X0043758Y0170318D01*
X0043758Y0158238D01*
X0043722Y0158190D01*
X0043758Y0157965D01*
X0043758Y0157963D01*
X0043722Y0157851D01*
X0043758Y0157780D01*
X0043758Y0157738D01*
X0043801Y0157695D01*
X0043826Y0157538D01*
X0043826Y0157530D01*
X0043827Y0157528D01*
X0043828Y0157526D01*
X0043834Y0157521D01*
X0043948Y0157407D01*
X0044021Y0157263D01*
X0044024Y0157256D01*
X0044026Y0157255D01*
X0044027Y0157253D01*
X0044034Y0157250D01*
X0044178Y0157177D01*
X0044292Y0157063D01*
X0044297Y0157057D01*
X0044299Y0157056D01*
X0044301Y0157055D01*
X0044309Y0157055D01*
X0044466Y0157030D01*
X0044509Y0156987D01*
X0044551Y0156987D01*
X0044623Y0156951D01*
X0044734Y0156987D01*
X0044736Y0156987D01*
X0044961Y0156951D01*
X0045009Y0156987D01*
X0070759Y0156987D01*
X0071156Y0157384D01*
X0071156Y0170200D01*
X0071191Y0170249D01*
X0071180Y0170318D01*
X0302601Y0170318D01*
X0302601Y0015837D01*
X0010325Y0015837D01*
X0010325Y0016334D02*
X0302601Y0016334D01*
X0302601Y0017333D02*
X0223971Y0017333D01*
X0223945Y0017307D02*
X0224702Y0018064D01*
X0230968Y0024329D01*
X0231377Y0025318D01*
X0231377Y0071034D01*
X0230968Y0072023D01*
X0230211Y0072779D01*
X0224704Y0078286D01*
X0224704Y0080282D01*
X0223943Y0081044D01*
X0218904Y0081044D01*
X0218142Y0080282D01*
X0218142Y0075243D01*
X0218904Y0074481D01*
X0220900Y0074481D01*
X0225997Y0069384D01*
X0225997Y0026967D01*
X0221307Y0022277D01*
X0147389Y0022277D01*
X0147948Y0022509D01*
X0148764Y0023325D01*
X0149205Y0024390D01*
X0149205Y0025544D01*
X0148995Y0026051D01*
X0148995Y0027708D01*
X0149382Y0028642D01*
X0149382Y0029796D01*
X0149172Y0030303D01*
X0149172Y0033096D01*
X0149382Y0033603D01*
X0149382Y0034757D01*
X0148941Y0035823D01*
X0148125Y0036638D01*
X0147059Y0037080D01*
X0145906Y0037080D01*
X0144840Y0036638D01*
X0144024Y0035823D01*
X0143582Y0034757D01*
X0143582Y0033603D01*
X0143792Y0033096D01*
X0143792Y0030303D01*
X0143582Y0029796D01*
X0143582Y0028642D01*
X0143615Y0028563D01*
X0143615Y0027657D01*
X0119605Y0027657D01*
X0117991Y0029270D01*
X0117991Y0029769D01*
X0118011Y0029777D01*
X0119358Y0031124D01*
X0120087Y0032885D01*
X0120087Y0034790D01*
X0119358Y0036551D01*
X0118011Y0037898D01*
X0116250Y0038627D01*
X0114345Y0038627D01*
X0112584Y0037898D01*
X0111237Y0036551D01*
X0110507Y0034790D01*
X0110507Y0032885D01*
X0111237Y0031124D01*
X0112584Y0029777D01*
X0112611Y0029765D01*
X0112611Y0027621D01*
X0113021Y0026632D01*
X0116210Y0023443D01*
X0116966Y0022687D01*
X0117955Y0022277D01*
X0114689Y0022277D01*
X0105515Y0031452D01*
X0105515Y0037657D01*
X0108605Y0040747D01*
X0110507Y0040747D01*
X0110507Y0039686D01*
X0111146Y0039047D01*
X0119449Y0039047D01*
X0120087Y0039686D01*
X0120087Y0047989D01*
X0119449Y0048627D01*
X0111146Y0048627D01*
X0110507Y0047989D01*
X0110507Y0046927D01*
X0106710Y0046927D01*
X0105575Y0046457D01*
X0099205Y0040088D01*
X0098735Y0038952D01*
X0098735Y0037723D01*
X0099205Y0036587D01*
X0100075Y0035718D01*
X0100135Y0035693D01*
X0100135Y0029802D01*
X0100544Y0028814D01*
X0101301Y0028057D01*
X0112051Y0017307D01*
X0113040Y0016897D01*
X0222956Y0016897D01*
X0223945Y0017307D01*
X0224970Y0018331D02*
X0302601Y0018331D01*
X0302601Y0019330D02*
X0296209Y0019330D01*
X0296707Y0019536D02*
X0298901Y0021730D01*
X0300089Y0024597D01*
X0300089Y0027700D01*
X0298901Y0030566D01*
X0296707Y0032760D01*
X0293841Y0033948D01*
X0290738Y0033948D01*
X0287872Y0032760D01*
X0285678Y0030566D01*
X0284490Y0027700D01*
X0284490Y0024597D01*
X0285678Y0021730D01*
X0287872Y0019536D01*
X0290738Y0018349D01*
X0293841Y0018349D01*
X0296707Y0019536D01*
X0297499Y0020328D02*
X0302601Y0020328D01*
X0302601Y0021327D02*
X0298498Y0021327D01*
X0299148Y0022325D02*
X0302601Y0022325D01*
X0302601Y0023324D02*
X0299561Y0023324D01*
X0299975Y0024322D02*
X0302601Y0024322D01*
X0302601Y0025321D02*
X0300089Y0025321D01*
X0300089Y0026319D02*
X0302601Y0026319D01*
X0302601Y0027318D02*
X0300089Y0027318D01*
X0299833Y0028316D02*
X0302601Y0028316D01*
X0302601Y0029315D02*
X0299420Y0029315D01*
X0299006Y0030314D02*
X0302601Y0030314D01*
X0302601Y0031312D02*
X0298156Y0031312D01*
X0297157Y0032311D02*
X0302601Y0032311D01*
X0302601Y0033309D02*
X0295382Y0033309D01*
X0289197Y0033309D02*
X0231377Y0033309D01*
X0231377Y0032311D02*
X0287422Y0032311D01*
X0286423Y0031312D02*
X0231377Y0031312D01*
X0231377Y0030314D02*
X0285573Y0030314D01*
X0285159Y0029315D02*
X0231377Y0029315D01*
X0231377Y0028316D02*
X0284746Y0028316D01*
X0284490Y0027318D02*
X0231377Y0027318D01*
X0231377Y0026319D02*
X0284490Y0026319D01*
X0284490Y0025321D02*
X0231377Y0025321D01*
X0230961Y0024322D02*
X0284604Y0024322D01*
X0285018Y0023324D02*
X0229962Y0023324D01*
X0228964Y0022325D02*
X0285431Y0022325D01*
X0286081Y0021327D02*
X0227965Y0021327D01*
X0226967Y0020328D02*
X0287080Y0020328D01*
X0288370Y0019330D02*
X0225968Y0019330D01*
X0221355Y0022325D02*
X0147505Y0022325D01*
X0148763Y0023324D02*
X0179315Y0023324D01*
X0179182Y0023379D02*
X0180248Y0022937D01*
X0181402Y0022937D01*
X0182468Y0023379D01*
X0183283Y0024195D01*
X0183725Y0025260D01*
X0183725Y0026414D01*
X0183283Y0027480D01*
X0182468Y0028296D01*
X0181402Y0028737D01*
X0180248Y0028737D01*
X0179182Y0028296D01*
X0178614Y0027727D01*
X0156108Y0027727D01*
X0153215Y0030620D01*
X0153215Y0043120D01*
X0141215Y0055120D01*
X0141215Y0055120D01*
X0140108Y0056227D01*
X0140041Y0056227D01*
X0138413Y0057855D01*
X0138732Y0057855D01*
X0139798Y0058296D01*
X0140614Y0059112D01*
X0141056Y0060178D01*
X0141056Y0060982D01*
X0142215Y0062141D01*
X0142215Y0066626D01*
X0142783Y0067195D01*
X0143225Y0068260D01*
X0143225Y0069414D01*
X0142783Y0070480D01*
X0141968Y0071296D01*
X0140902Y0071737D01*
X0139748Y0071737D01*
X0138682Y0071296D01*
X0137866Y0070480D01*
X0137425Y0069414D01*
X0137425Y0068260D01*
X0137866Y0067195D01*
X0138435Y0066626D01*
X0138435Y0063707D01*
X0138383Y0063655D01*
X0137579Y0063655D01*
X0136513Y0063213D01*
X0135697Y0062397D01*
X0135256Y0061331D01*
X0135256Y0060178D01*
X0135555Y0059456D01*
X0117379Y0059456D01*
X0111209Y0065626D01*
X0111209Y0066430D01*
X0110768Y0067496D01*
X0109952Y0068312D01*
X0108886Y0068753D01*
X0107732Y0068753D01*
X0106666Y0068312D01*
X0105851Y0067496D01*
X0105409Y0066430D01*
X0105409Y0065276D01*
X0105851Y0064210D01*
X0106666Y0063395D01*
X0107732Y0062953D01*
X0108536Y0062953D01*
X0114707Y0056783D01*
X0115814Y0055676D01*
X0135247Y0055676D01*
X0137368Y0053554D01*
X0138475Y0052447D01*
X0138542Y0052447D01*
X0149435Y0041554D01*
X0149435Y0029054D01*
X0150542Y0027947D01*
X0154542Y0023947D01*
X0178614Y0023947D01*
X0179182Y0023379D01*
X0182335Y0023324D02*
X0222354Y0023324D01*
X0223352Y0024322D02*
X0183336Y0024322D01*
X0183725Y0025321D02*
X0224351Y0025321D01*
X0225349Y0026319D02*
X0183725Y0026319D01*
X0183351Y0027318D02*
X0225997Y0027318D01*
X0225997Y0028316D02*
X0182418Y0028316D01*
X0179232Y0028316D02*
X0155519Y0028316D01*
X0156248Y0028937D02*
X0155182Y0029379D01*
X0154366Y0030195D01*
X0153925Y0031260D01*
X0153925Y0032414D01*
X0154366Y0033480D01*
X0154935Y0034049D01*
X0154935Y0060054D01*
X0150042Y0064947D01*
X0150042Y0064947D01*
X0148935Y0066054D01*
X0148935Y0069337D01*
X0139125Y0079147D01*
X0138119Y0079147D01*
X0138968Y0078796D01*
X0139783Y0077980D01*
X0140225Y0076914D01*
X0140225Y0075760D01*
X0139783Y0074695D01*
X0138968Y0073879D01*
X0137902Y0073437D01*
X0136748Y0073437D01*
X0135682Y0073879D01*
X0134866Y0074695D01*
X0134628Y0075271D01*
X0134599Y0075243D01*
X0134599Y0073389D01*
X0134783Y0073204D01*
X0135225Y0072139D01*
X0135225Y0070985D01*
X0134783Y0069919D01*
X0133968Y0069103D01*
X0132902Y0068662D01*
X0131732Y0068662D01*
X0130666Y0069103D01*
X0130498Y0069272D01*
X0121357Y0069272D01*
X0121357Y0065736D01*
X0121567Y0065229D01*
X0121567Y0064075D01*
X0121126Y0063010D01*
X0120310Y0062194D01*
X0119244Y0061752D01*
X0118091Y0061752D01*
X0117025Y0062194D01*
X0116209Y0063010D01*
X0115767Y0064075D01*
X0115767Y0065229D01*
X0115977Y0065736D01*
X0115977Y0070478D01*
X0115767Y0070985D01*
X0115767Y0072139D01*
X0116209Y0073204D01*
X0117025Y0074020D01*
X0118091Y0074462D01*
X0119244Y0074462D01*
X0120310Y0074020D01*
X0120479Y0073852D01*
X0130019Y0073852D01*
X0130019Y0075243D01*
X0129851Y0075411D01*
X0129409Y0076477D01*
X0129409Y0077631D01*
X0129851Y0078697D01*
X0130301Y0079147D01*
X0123025Y0079147D01*
X0122225Y0078347D01*
X0122225Y0077260D01*
X0121783Y0076195D01*
X0120968Y0075379D01*
X0119902Y0074937D01*
X0118748Y0074937D01*
X0117682Y0075379D01*
X0116866Y0076195D01*
X0116425Y0077260D01*
X0116425Y0078414D01*
X0116866Y0079480D01*
X0117682Y0080296D01*
X0118748Y0080737D01*
X0119835Y0080737D01*
X0120635Y0081537D01*
X0121625Y0082527D01*
X0126034Y0082527D01*
X0125366Y0083195D01*
X0124925Y0084260D01*
X0124925Y0085414D01*
X0125366Y0086480D01*
X0125935Y0087049D01*
X0125935Y0091120D01*
X0127042Y0092227D01*
X0130925Y0096110D01*
X0130925Y0096914D01*
X0131366Y0097980D01*
X0132182Y0098796D01*
X0133248Y0099237D01*
X0134402Y0099237D01*
X0135468Y0098796D01*
X0136283Y0097980D01*
X0136725Y0096914D01*
X0136725Y0095760D01*
X0136283Y0094695D01*
X0135468Y0093879D01*
X0134402Y0093437D01*
X0133598Y0093437D01*
X0129715Y0089554D01*
X0129715Y0087049D01*
X0130236Y0086527D01*
X0145525Y0086527D01*
X0146515Y0085537D01*
X0147815Y0084237D01*
X0148902Y0084237D01*
X0149968Y0083796D01*
X0150783Y0082980D01*
X0151225Y0081914D01*
X0151225Y0080760D01*
X0150952Y0080101D01*
X0158015Y0073037D01*
X0158015Y0067537D01*
X0163775Y0061777D01*
X0164765Y0060787D01*
X0165525Y0060027D01*
X0215525Y0060027D01*
X0216515Y0059037D01*
X0220815Y0054737D01*
X0221902Y0054737D01*
X0222968Y0054296D01*
X0223783Y0053480D01*
X0224225Y0052414D01*
X0224225Y0051260D01*
X0223783Y0050195D01*
X0222968Y0049379D01*
X0221902Y0048937D01*
X0220748Y0048937D01*
X0219682Y0049379D01*
X0218866Y0050195D01*
X0218425Y0051260D01*
X0218425Y0052347D01*
X0214125Y0056647D01*
X0164125Y0056647D01*
X0163870Y0056903D01*
X0163783Y0056695D01*
X0162968Y0055879D01*
X0161902Y0055437D01*
X0160748Y0055437D01*
X0159682Y0055879D01*
X0158866Y0056695D01*
X0158715Y0057060D01*
X0158715Y0034049D01*
X0159283Y0033480D01*
X0159725Y0032414D01*
X0159725Y0031260D01*
X0159283Y0030195D01*
X0158468Y0029379D01*
X0157402Y0028937D01*
X0156248Y0028937D01*
X0155336Y0029315D02*
X0154520Y0029315D01*
X0154317Y0030314D02*
X0153522Y0030314D01*
X0153215Y0031312D02*
X0153925Y0031312D01*
X0153925Y0032311D02*
X0153215Y0032311D01*
X0153215Y0033309D02*
X0154296Y0033309D01*
X0154935Y0034308D02*
X0153215Y0034308D01*
X0153215Y0035306D02*
X0154935Y0035306D01*
X0154935Y0036305D02*
X0153215Y0036305D01*
X0153215Y0037303D02*
X0154935Y0037303D01*
X0154935Y0038302D02*
X0153215Y0038302D01*
X0153215Y0039300D02*
X0154935Y0039300D01*
X0154935Y0040299D02*
X0153215Y0040299D01*
X0153215Y0041297D02*
X0154935Y0041297D01*
X0154935Y0042296D02*
X0153215Y0042296D01*
X0153041Y0043294D02*
X0154935Y0043294D01*
X0154935Y0044293D02*
X0152042Y0044293D01*
X0151044Y0045291D02*
X0154935Y0045291D01*
X0154935Y0046290D02*
X0150045Y0046290D01*
X0149047Y0047288D02*
X0154935Y0047288D01*
X0154935Y0048287D02*
X0148048Y0048287D01*
X0147050Y0049285D02*
X0154935Y0049285D01*
X0154935Y0050284D02*
X0146051Y0050284D01*
X0145053Y0051282D02*
X0154935Y0051282D01*
X0154935Y0052281D02*
X0144054Y0052281D01*
X0143056Y0053279D02*
X0154935Y0053279D01*
X0154935Y0054278D02*
X0142057Y0054278D01*
X0141059Y0055276D02*
X0154935Y0055276D01*
X0154935Y0056275D02*
X0139993Y0056275D01*
X0138995Y0057273D02*
X0154935Y0057273D01*
X0154935Y0058272D02*
X0139740Y0058272D01*
X0140680Y0059270D02*
X0154935Y0059270D01*
X0154721Y0060269D02*
X0141056Y0060269D01*
X0141341Y0061267D02*
X0153722Y0061267D01*
X0152723Y0062266D02*
X0142215Y0062266D01*
X0142215Y0063264D02*
X0151725Y0063264D01*
X0150726Y0064263D02*
X0142215Y0064263D01*
X0142215Y0065261D02*
X0149728Y0065261D01*
X0148935Y0066260D02*
X0142215Y0066260D01*
X0142810Y0067258D02*
X0148935Y0067258D01*
X0148935Y0068257D02*
X0143223Y0068257D01*
X0143225Y0069255D02*
X0148935Y0069255D01*
X0148018Y0070254D02*
X0142877Y0070254D01*
X0142011Y0071252D02*
X0147020Y0071252D01*
X0146021Y0072251D02*
X0135178Y0072251D01*
X0135225Y0071252D02*
X0138639Y0071252D01*
X0137773Y0070254D02*
X0134922Y0070254D01*
X0134120Y0069255D02*
X0137425Y0069255D01*
X0137426Y0068257D02*
X0121357Y0068257D01*
X0121357Y0069255D02*
X0130514Y0069255D01*
X0130019Y0074248D02*
X0119760Y0074248D01*
X0120648Y0075247D02*
X0130015Y0075247D01*
X0129505Y0076245D02*
X0121804Y0076245D01*
X0122218Y0077244D02*
X0129409Y0077244D01*
X0129662Y0078242D02*
X0122225Y0078242D01*
X0120335Y0081238D02*
X0021625Y0081238D01*
X0021447Y0080806D02*
X0022065Y0082298D01*
X0022065Y0089849D01*
X0021447Y0091341D01*
X0020305Y0092483D01*
X0018813Y0093101D01*
X0017199Y0093101D01*
X0015707Y0092483D01*
X0014565Y0091341D01*
X0013948Y0089849D01*
X0013948Y0082298D01*
X0014565Y0080806D01*
X0015707Y0079664D01*
X0017199Y0079047D01*
X0018813Y0079047D01*
X0020305Y0079664D01*
X0021447Y0080806D01*
X0020880Y0080239D02*
X0117625Y0080239D01*
X0116767Y0079241D02*
X0019282Y0079241D01*
X0016730Y0079241D02*
X0010325Y0079241D01*
X0010325Y0080239D02*
X0015132Y0080239D01*
X0014387Y0081238D02*
X0010325Y0081238D01*
X0010325Y0082236D02*
X0013973Y0082236D01*
X0013948Y0083235D02*
X0010325Y0083235D01*
X0010325Y0084233D02*
X0013948Y0084233D01*
X0013948Y0085232D02*
X0010325Y0085232D01*
X0010325Y0086230D02*
X0013948Y0086230D01*
X0013948Y0087229D02*
X0010325Y0087229D01*
X0010325Y0088227D02*
X0013948Y0088227D01*
X0013948Y0089226D02*
X0010325Y0089226D01*
X0010325Y0090224D02*
X0014103Y0090224D01*
X0014516Y0091223D02*
X0010325Y0091223D01*
X0010325Y0092221D02*
X0015446Y0092221D01*
X0020566Y0092221D02*
X0066422Y0092221D01*
X0066329Y0092446D02*
X0067394Y0089875D01*
X0069362Y0087907D01*
X0071933Y0086842D01*
X0074716Y0086842D01*
X0077288Y0087907D01*
X0079255Y0089875D01*
X0080320Y0092446D01*
X0080320Y0095229D01*
X0079255Y0097800D01*
X0077288Y0099768D01*
X0074716Y0100833D01*
X0071933Y0100833D01*
X0069362Y0099768D01*
X0067394Y0097800D01*
X0066329Y0095229D01*
X0066329Y0092446D01*
X0066329Y0093220D02*
X0010325Y0093220D01*
X0010325Y0094218D02*
X0066329Y0094218D01*
X0066329Y0095217D02*
X0010325Y0095217D01*
X0010325Y0096215D02*
X0066738Y0096215D01*
X0067152Y0097214D02*
X0010325Y0097214D01*
X0010325Y0098212D02*
X0067807Y0098212D01*
X0068805Y0099211D02*
X0010325Y0099211D01*
X0010325Y0100209D02*
X0070428Y0100209D01*
X0071050Y0101208D02*
X0010325Y0101208D01*
X0010325Y0102206D02*
X0069063Y0102206D01*
X0069362Y0101907D02*
X0071933Y0100842D01*
X0074716Y0100842D01*
X0077288Y0101907D01*
X0079255Y0103875D01*
X0080320Y0106446D01*
X0080320Y0109229D01*
X0079255Y0111800D01*
X0077288Y0113768D01*
X0074716Y0114833D01*
X0071933Y0114833D01*
X0069362Y0113768D01*
X0067394Y0111800D01*
X0066329Y0109229D01*
X0066329Y0106446D01*
X0067394Y0103875D01*
X0069362Y0101907D01*
X0068064Y0103205D02*
X0010325Y0103205D01*
X0010325Y0104203D02*
X0067258Y0104203D01*
X0066845Y0105202D02*
X0010325Y0105202D01*
X0010325Y0106200D02*
X0066431Y0106200D01*
X0066329Y0107199D02*
X0010325Y0107199D01*
X0010325Y0108197D02*
X0066329Y0108197D01*
X0066329Y0109196D02*
X0020309Y0109196D01*
X0020305Y0109192D02*
X0021447Y0110334D01*
X0022065Y0111825D01*
X0022065Y0119377D01*
X0021681Y0120303D01*
X0026525Y0125147D01*
X0109625Y0125147D01*
X0150925Y0083847D01*
X0150925Y0082760D01*
X0151366Y0081695D01*
X0152182Y0080879D01*
X0153248Y0080437D01*
X0154402Y0080437D01*
X0155468Y0080879D01*
X0156283Y0081695D01*
X0156725Y0082760D01*
X0156725Y0083914D01*
X0156283Y0084980D01*
X0155468Y0085796D01*
X0154402Y0086237D01*
X0153315Y0086237D01*
X0126521Y0113031D01*
X0126748Y0112937D01*
X0127902Y0112937D01*
X0128968Y0113379D01*
X0129736Y0114147D01*
X0153625Y0114147D01*
X0156635Y0111137D01*
X0156635Y0108249D01*
X0155866Y0107480D01*
X0155425Y0106414D01*
X0155425Y0105260D01*
X0155866Y0104195D01*
X0156682Y0103379D01*
X0157748Y0102937D01*
X0158902Y0102937D01*
X0159968Y0103379D01*
X0160783Y0104195D01*
X0161225Y0105260D01*
X0161225Y0106414D01*
X0160783Y0107480D01*
X0160015Y0108249D01*
X0160015Y0112537D01*
X0159025Y0113527D01*
X0156015Y0116537D01*
X0155025Y0117527D01*
X0129736Y0117527D01*
X0128968Y0118296D01*
X0127902Y0118737D01*
X0126748Y0118737D01*
X0125682Y0118296D01*
X0124866Y0117480D01*
X0124425Y0116414D01*
X0124425Y0115260D01*
X0124519Y0115033D01*
X0112015Y0127537D01*
X0111025Y0128527D01*
X0025125Y0128527D01*
X0019105Y0122507D01*
X0018813Y0122628D01*
X0017199Y0122628D01*
X0015707Y0122010D01*
X0014565Y0120869D01*
X0013948Y0119377D01*
X0013948Y0111825D01*
X0014565Y0110334D01*
X0015707Y0109192D01*
X0017199Y0108574D01*
X0018813Y0108574D01*
X0020305Y0109192D01*
X0021307Y0110194D02*
X0066729Y0110194D01*
X0067143Y0111193D02*
X0021803Y0111193D01*
X0022065Y0112191D02*
X0067786Y0112191D01*
X0068784Y0113190D02*
X0022065Y0113190D01*
X0022065Y0114188D02*
X0070378Y0114188D01*
X0076272Y0114188D02*
X0084378Y0114188D01*
X0083362Y0113768D02*
X0081394Y0111800D01*
X0080329Y0109229D01*
X0080329Y0106446D01*
X0081394Y0103875D01*
X0083362Y0101907D01*
X0085933Y0100842D01*
X0088716Y0100842D01*
X0091288Y0101907D01*
X0093255Y0103875D01*
X0094320Y0106446D01*
X0094320Y0109229D01*
X0093255Y0111800D01*
X0091288Y0113768D01*
X0088716Y0114833D01*
X0085933Y0114833D01*
X0083362Y0113768D01*
X0082784Y0113190D02*
X0077865Y0113190D01*
X0078864Y0112191D02*
X0081786Y0112191D01*
X0081143Y0111193D02*
X0079507Y0111193D01*
X0079920Y0110194D02*
X0080729Y0110194D01*
X0080329Y0109196D02*
X0080320Y0109196D01*
X0080320Y0108197D02*
X0080329Y0108197D01*
X0080320Y0107199D02*
X0080329Y0107199D01*
X0080431Y0106200D02*
X0080219Y0106200D01*
X0079805Y0105202D02*
X0080845Y0105202D01*
X0081258Y0104203D02*
X0079392Y0104203D01*
X0078586Y0103205D02*
X0082064Y0103205D01*
X0083063Y0102206D02*
X0077587Y0102206D01*
X0075600Y0101208D02*
X0085050Y0101208D01*
X0085933Y0100833D02*
X0083362Y0099768D01*
X0081394Y0097800D01*
X0080329Y0095229D01*
X0080329Y0092446D01*
X0081394Y0089875D01*
X0083362Y0087907D01*
X0085933Y0086842D01*
X0088716Y0086842D01*
X0091288Y0087907D01*
X0093255Y0089875D01*
X0094320Y0092446D01*
X0094320Y0095229D01*
X0093255Y0097800D01*
X0091288Y0099768D01*
X0088716Y0100833D01*
X0085933Y0100833D01*
X0084428Y0100209D02*
X0076222Y0100209D01*
X0077845Y0099211D02*
X0082805Y0099211D01*
X0081807Y0098212D02*
X0078843Y0098212D01*
X0079498Y0097214D02*
X0081152Y0097214D01*
X0080738Y0096215D02*
X0079912Y0096215D01*
X0080320Y0095217D02*
X0080329Y0095217D01*
X0080320Y0094218D02*
X0080329Y0094218D01*
X0080320Y0093220D02*
X0080329Y0093220D01*
X0080422Y0092221D02*
X0080227Y0092221D01*
X0079814Y0091223D02*
X0080836Y0091223D01*
X0081250Y0090224D02*
X0079400Y0090224D01*
X0078606Y0089226D02*
X0082043Y0089226D01*
X0083042Y0088227D02*
X0077608Y0088227D01*
X0075650Y0087229D02*
X0084999Y0087229D01*
X0089650Y0087229D02*
X0125935Y0087229D01*
X0125935Y0088227D02*
X0091608Y0088227D01*
X0092606Y0089226D02*
X0125935Y0089226D01*
X0125935Y0090224D02*
X0093400Y0090224D01*
X0093814Y0091223D02*
X0126037Y0091223D01*
X0127036Y0092221D02*
X0094227Y0092221D01*
X0094320Y0093220D02*
X0128034Y0093220D01*
X0129033Y0094218D02*
X0094320Y0094218D01*
X0094320Y0095217D02*
X0130031Y0095217D01*
X0130925Y0096215D02*
X0093912Y0096215D01*
X0093498Y0097214D02*
X0131049Y0097214D01*
X0131599Y0098212D02*
X0092843Y0098212D01*
X0091845Y0099211D02*
X0133184Y0099211D01*
X0134466Y0099211D02*
X0135561Y0099211D01*
X0136051Y0098212D02*
X0136560Y0098212D01*
X0136601Y0097214D02*
X0137558Y0097214D01*
X0136725Y0096215D02*
X0138557Y0096215D01*
X0139555Y0095217D02*
X0136500Y0095217D01*
X0135807Y0094218D02*
X0140554Y0094218D01*
X0141552Y0093220D02*
X0133380Y0093220D01*
X0132382Y0092221D02*
X0142551Y0092221D01*
X0143550Y0091223D02*
X0131383Y0091223D01*
X0130385Y0090224D02*
X0144548Y0090224D01*
X0145547Y0089226D02*
X0129715Y0089226D01*
X0129715Y0088227D02*
X0146545Y0088227D01*
X0147544Y0087229D02*
X0129715Y0087229D01*
X0125263Y0086230D02*
X0022065Y0086230D01*
X0022065Y0085232D02*
X0124925Y0085232D01*
X0124936Y0084233D02*
X0022065Y0084233D01*
X0022065Y0083235D02*
X0125350Y0083235D01*
X0121334Y0082236D02*
X0022039Y0082236D01*
X0022065Y0087229D02*
X0070999Y0087229D01*
X0069042Y0088227D02*
X0022065Y0088227D01*
X0022065Y0089226D02*
X0068043Y0089226D01*
X0067250Y0090224D02*
X0021909Y0090224D01*
X0021496Y0091223D02*
X0066836Y0091223D01*
X0089600Y0101208D02*
X0133564Y0101208D01*
X0132566Y0102206D02*
X0091587Y0102206D01*
X0092586Y0103205D02*
X0131567Y0103205D01*
X0130569Y0104203D02*
X0093392Y0104203D01*
X0093805Y0105202D02*
X0129570Y0105202D01*
X0128572Y0106200D02*
X0094219Y0106200D01*
X0094320Y0107199D02*
X0127573Y0107199D01*
X0126575Y0108197D02*
X0094320Y0108197D01*
X0094320Y0109196D02*
X0125576Y0109196D01*
X0124578Y0110194D02*
X0093920Y0110194D01*
X0093507Y0111193D02*
X0123579Y0111193D01*
X0122581Y0112191D02*
X0092864Y0112191D01*
X0091865Y0113190D02*
X0121582Y0113190D01*
X0120584Y0114188D02*
X0090272Y0114188D01*
X0110599Y0124174D02*
X0025551Y0124174D01*
X0024553Y0123175D02*
X0111597Y0123175D01*
X0112596Y0122177D02*
X0023554Y0122177D01*
X0022556Y0121178D02*
X0113594Y0121178D01*
X0114593Y0120180D02*
X0021732Y0120180D01*
X0022065Y0119181D02*
X0115591Y0119181D01*
X0116590Y0118183D02*
X0022065Y0118183D01*
X0022065Y0117184D02*
X0117588Y0117184D01*
X0118587Y0116185D02*
X0022065Y0116185D01*
X0022065Y0115187D02*
X0119585Y0115187D01*
X0122368Y0117184D02*
X0124744Y0117184D01*
X0124425Y0116185D02*
X0123367Y0116185D01*
X0124365Y0115187D02*
X0124455Y0115187D01*
X0125569Y0118183D02*
X0121370Y0118183D01*
X0120371Y0119181D02*
X0168412Y0119181D01*
X0168690Y0118904D02*
X0172346Y0117389D01*
X0176304Y0117389D01*
X0179960Y0118904D01*
X0182759Y0121702D01*
X0184273Y0125358D01*
X0184273Y0129316D01*
X0182759Y0132973D01*
X0179960Y0135771D01*
X0176304Y0137286D01*
X0172346Y0137286D01*
X0168690Y0135771D01*
X0165891Y0132973D01*
X0164377Y0129316D01*
X0164377Y0125358D01*
X0165891Y0121702D01*
X0168690Y0118904D01*
X0167414Y0120180D02*
X0119373Y0120180D01*
X0118374Y0121178D02*
X0166415Y0121178D01*
X0165695Y0122177D02*
X0117376Y0122177D01*
X0116377Y0123175D02*
X0165281Y0123175D01*
X0164867Y0124174D02*
X0115379Y0124174D01*
X0114380Y0125172D02*
X0164454Y0125172D01*
X0164377Y0126171D02*
X0113382Y0126171D01*
X0112383Y0127169D02*
X0164377Y0127169D01*
X0164377Y0128168D02*
X0111385Y0128168D01*
X0129081Y0118183D02*
X0170431Y0118183D01*
X0178219Y0118183D02*
X0189705Y0118183D01*
X0190704Y0119181D02*
X0180238Y0119181D01*
X0181236Y0120180D02*
X0191702Y0120180D01*
X0192701Y0121178D02*
X0182235Y0121178D01*
X0182955Y0122177D02*
X0193699Y0122177D01*
X0194698Y0123175D02*
X0183369Y0123175D01*
X0183782Y0124174D02*
X0195696Y0124174D01*
X0196695Y0125172D02*
X0184196Y0125172D01*
X0184273Y0126171D02*
X0197693Y0126171D01*
X0198692Y0127169D02*
X0184273Y0127169D01*
X0184273Y0128168D02*
X0199690Y0128168D01*
X0200689Y0129166D02*
X0184273Y0129166D01*
X0183922Y0130165D02*
X0201687Y0130165D01*
X0202686Y0131163D02*
X0183508Y0131163D01*
X0183095Y0132162D02*
X0203684Y0132162D01*
X0204683Y0133160D02*
X0182571Y0133160D01*
X0181573Y0134159D02*
X0205635Y0134159D01*
X0205635Y0134112D02*
X0188335Y0116812D01*
X0187248Y0116812D01*
X0186182Y0116371D01*
X0185366Y0115555D01*
X0184925Y0114489D01*
X0184925Y0113335D01*
X0185366Y0112269D01*
X0186182Y0111454D01*
X0187248Y0111012D01*
X0188402Y0111012D01*
X0189468Y0111454D01*
X0190283Y0112269D01*
X0190725Y0113335D01*
X0190725Y0114422D01*
X0209015Y0132712D01*
X0209015Y0140426D01*
X0209783Y0141195D01*
X0210225Y0142260D01*
X0210225Y0143414D01*
X0209783Y0144480D01*
X0208968Y0145296D01*
X0207902Y0145737D01*
X0206748Y0145737D01*
X0205682Y0145296D01*
X0204866Y0144480D01*
X0204425Y0143414D01*
X0204425Y0142260D01*
X0204866Y0141195D01*
X0205635Y0140426D01*
X0205635Y0134112D01*
X0205635Y0135157D02*
X0180574Y0135157D01*
X0179032Y0136156D02*
X0205635Y0136156D01*
X0205635Y0137154D02*
X0176621Y0137154D01*
X0172029Y0137154D02*
X0010325Y0137154D01*
X0010325Y0136156D02*
X0169618Y0136156D01*
X0168076Y0135157D02*
X0010325Y0135157D01*
X0010325Y0134159D02*
X0167077Y0134159D01*
X0166079Y0133160D02*
X0010325Y0133160D01*
X0010325Y0132162D02*
X0165555Y0132162D01*
X0165142Y0131163D02*
X0010325Y0131163D01*
X0010325Y0130165D02*
X0164728Y0130165D01*
X0164377Y0129166D02*
X0010325Y0129166D01*
X0010325Y0128168D02*
X0024765Y0128168D01*
X0023767Y0127169D02*
X0010325Y0127169D01*
X0010325Y0126171D02*
X0022768Y0126171D01*
X0021770Y0125172D02*
X0010325Y0125172D01*
X0010325Y0124174D02*
X0020771Y0124174D01*
X0019773Y0123175D02*
X0010325Y0123175D01*
X0010325Y0122177D02*
X0016109Y0122177D01*
X0014875Y0121178D02*
X0010325Y0121178D01*
X0010325Y0120180D02*
X0014280Y0120180D01*
X0013948Y0119181D02*
X0010325Y0119181D01*
X0010325Y0118183D02*
X0013948Y0118183D01*
X0013948Y0117184D02*
X0010325Y0117184D01*
X0010325Y0116185D02*
X0013948Y0116185D01*
X0013948Y0115187D02*
X0010325Y0115187D01*
X0010325Y0114188D02*
X0013948Y0114188D01*
X0013948Y0113190D02*
X0010325Y0113190D01*
X0010325Y0112191D02*
X0013948Y0112191D01*
X0014209Y0111193D02*
X0010325Y0111193D01*
X0010325Y0110194D02*
X0014705Y0110194D01*
X0015703Y0109196D02*
X0010325Y0109196D01*
X0010325Y0138153D02*
X0205635Y0138153D01*
X0205635Y0139151D02*
X0010325Y0139151D01*
X0010325Y0140150D02*
X0205635Y0140150D01*
X0204913Y0141148D02*
X0010325Y0141148D01*
X0010325Y0142147D02*
X0204472Y0142147D01*
X0204425Y0143145D02*
X0177417Y0143145D01*
X0177142Y0142870D02*
X0178292Y0144021D01*
X0178915Y0145524D01*
X0178915Y0153151D01*
X0178292Y0154654D01*
X0177142Y0155805D01*
X0175638Y0156427D01*
X0174011Y0156427D01*
X0172508Y0155805D01*
X0171358Y0154654D01*
X0170735Y0153151D01*
X0170735Y0145524D01*
X0171358Y0144021D01*
X0172508Y0142870D01*
X0174011Y0142247D01*
X0175638Y0142247D01*
X0177142Y0142870D01*
X0178343Y0144144D02*
X0204727Y0144144D01*
X0205529Y0145142D02*
X0178757Y0145142D01*
X0178915Y0146141D02*
X0246519Y0146141D01*
X0246425Y0145914D02*
X0246425Y0144760D01*
X0246866Y0143695D01*
X0247682Y0142879D01*
X0248748Y0142437D01*
X0249902Y0142437D01*
X0250968Y0142879D01*
X0251736Y0143647D01*
X0257525Y0143647D01*
X0263025Y0149147D01*
X0264015Y0150137D01*
X0264015Y0160926D01*
X0264783Y0161695D01*
X0265225Y0162760D01*
X0265225Y0163914D01*
X0264783Y0164980D01*
X0263968Y0165796D01*
X0262902Y0166237D01*
X0261748Y0166237D01*
X0260682Y0165796D01*
X0259866Y0164980D01*
X0259425Y0163914D01*
X0259425Y0162760D01*
X0259866Y0161695D01*
X0260635Y0160926D01*
X0260635Y0151537D01*
X0256125Y0147027D01*
X0251736Y0147027D01*
X0250968Y0147796D01*
X0249902Y0148237D01*
X0248748Y0148237D01*
X0247682Y0147796D01*
X0246866Y0146980D01*
X0246425Y0145914D01*
X0246425Y0145142D02*
X0209121Y0145142D01*
X0209923Y0144144D02*
X0246680Y0144144D01*
X0247416Y0143145D02*
X0210225Y0143145D01*
X0210178Y0142147D02*
X0302601Y0142147D01*
X0302601Y0143145D02*
X0251234Y0143145D01*
X0258021Y0144144D02*
X0302601Y0144144D01*
X0302601Y0145142D02*
X0259020Y0145142D01*
X0260018Y0146141D02*
X0302601Y0146141D01*
X0302601Y0147139D02*
X0261017Y0147139D01*
X0262015Y0148138D02*
X0302601Y0148138D01*
X0302601Y0149136D02*
X0263014Y0149136D01*
X0264012Y0150135D02*
X0302601Y0150135D01*
X0302601Y0151133D02*
X0264015Y0151133D01*
X0264015Y0152132D02*
X0302601Y0152132D01*
X0302601Y0153130D02*
X0264015Y0153130D01*
X0264015Y0154129D02*
X0302601Y0154129D01*
X0302601Y0155127D02*
X0264015Y0155127D01*
X0264015Y0156126D02*
X0302601Y0156126D01*
X0302601Y0157124D02*
X0264015Y0157124D01*
X0264015Y0158123D02*
X0302601Y0158123D01*
X0302601Y0159121D02*
X0264015Y0159121D01*
X0264015Y0160120D02*
X0302601Y0160120D01*
X0302601Y0161118D02*
X0264207Y0161118D01*
X0264958Y0162117D02*
X0302601Y0162117D01*
X0302601Y0163116D02*
X0265225Y0163116D01*
X0265142Y0164114D02*
X0302601Y0164114D01*
X0302601Y0165113D02*
X0264651Y0165113D01*
X0263207Y0166111D02*
X0302601Y0166111D01*
X0302601Y0167110D02*
X0090797Y0167110D01*
X0091983Y0166618D02*
X0089116Y0167806D01*
X0086014Y0167806D01*
X0083147Y0166618D01*
X0080953Y0164425D01*
X0079766Y0161558D01*
X0079766Y0158455D01*
X0080953Y0155589D01*
X0083147Y0153395D01*
X0086014Y0152207D01*
X0089116Y0152207D01*
X0091983Y0153395D01*
X0094177Y0155589D01*
X0095364Y0158455D01*
X0095364Y0161558D01*
X0094177Y0164425D01*
X0091983Y0166618D01*
X0092490Y0166111D02*
X0261443Y0166111D01*
X0259999Y0165113D02*
X0093489Y0165113D01*
X0094306Y0164114D02*
X0259508Y0164114D01*
X0259425Y0163116D02*
X0094719Y0163116D01*
X0095133Y0162117D02*
X0259691Y0162117D01*
X0260443Y0161118D02*
X0095364Y0161118D01*
X0095364Y0160120D02*
X0260635Y0160120D01*
X0260635Y0159121D02*
X0095364Y0159121D01*
X0095227Y0158123D02*
X0260635Y0158123D01*
X0260635Y0157124D02*
X0094813Y0157124D01*
X0094399Y0156126D02*
X0163284Y0156126D01*
X0164011Y0156427D02*
X0162508Y0155805D01*
X0161358Y0154654D01*
X0160735Y0153151D01*
X0160735Y0145524D01*
X0161358Y0144021D01*
X0162508Y0142870D01*
X0164011Y0142247D01*
X0165638Y0142247D01*
X0167142Y0142870D01*
X0168292Y0144021D01*
X0168915Y0145524D01*
X0168915Y0153151D01*
X0168292Y0154654D01*
X0167142Y0155805D01*
X0165638Y0156427D01*
X0164011Y0156427D01*
X0166366Y0156126D02*
X0173284Y0156126D01*
X0171831Y0155127D02*
X0167819Y0155127D01*
X0168510Y0154129D02*
X0171140Y0154129D01*
X0170735Y0153130D02*
X0168915Y0153130D01*
X0168915Y0152132D02*
X0170735Y0152132D01*
X0170735Y0151133D02*
X0168915Y0151133D01*
X0168915Y0150135D02*
X0170735Y0150135D01*
X0170735Y0149136D02*
X0168915Y0149136D01*
X0168915Y0148138D02*
X0170735Y0148138D01*
X0170735Y0147139D02*
X0168915Y0147139D01*
X0168915Y0146141D02*
X0170735Y0146141D01*
X0170893Y0145142D02*
X0168757Y0145142D01*
X0168343Y0144144D02*
X0171307Y0144144D01*
X0172233Y0143145D02*
X0167417Y0143145D01*
X0162233Y0143145D02*
X0010325Y0143145D01*
X0010325Y0144144D02*
X0161307Y0144144D01*
X0160893Y0145142D02*
X0010325Y0145142D01*
X0010325Y0146141D02*
X0160735Y0146141D01*
X0160735Y0147139D02*
X0010325Y0147139D01*
X0010325Y0148138D02*
X0160735Y0148138D01*
X0160735Y0149136D02*
X0010325Y0149136D01*
X0010325Y0150135D02*
X0160735Y0150135D01*
X0160735Y0151133D02*
X0010325Y0151133D01*
X0010325Y0152132D02*
X0160735Y0152132D01*
X0160735Y0153130D02*
X0091345Y0153130D01*
X0092717Y0154129D02*
X0161140Y0154129D01*
X0161831Y0155127D02*
X0093716Y0155127D01*
X0083785Y0153130D02*
X0024416Y0153130D01*
X0025054Y0153395D02*
X0022187Y0152207D01*
X0019085Y0152207D01*
X0016218Y0153395D01*
X0014024Y0155589D01*
X0012837Y0158455D01*
X0012837Y0161558D01*
X0014024Y0164425D01*
X0016218Y0166618D01*
X0019085Y0167806D01*
X0022187Y0167806D01*
X0025054Y0166618D01*
X0027248Y0164425D01*
X0028435Y0161558D01*
X0028435Y0158455D01*
X0027248Y0155589D01*
X0025054Y0153395D01*
X0025788Y0154129D02*
X0082413Y0154129D01*
X0081415Y0155127D02*
X0026786Y0155127D01*
X0027470Y0156126D02*
X0080731Y0156126D01*
X0080317Y0157124D02*
X0070896Y0157124D01*
X0071156Y0158123D02*
X0079903Y0158123D01*
X0079766Y0159121D02*
X0071156Y0159121D01*
X0071156Y0160120D02*
X0079766Y0160120D01*
X0079766Y0161118D02*
X0071156Y0161118D01*
X0071156Y0162117D02*
X0079997Y0162117D01*
X0080411Y0163116D02*
X0071156Y0163116D01*
X0071156Y0164114D02*
X0080825Y0164114D01*
X0081641Y0165113D02*
X0071156Y0165113D01*
X0071156Y0166111D02*
X0082640Y0166111D01*
X0084333Y0167110D02*
X0071156Y0167110D01*
X0071156Y0168108D02*
X0302601Y0168108D01*
X0302601Y0169107D02*
X0071156Y0169107D01*
X0071156Y0170105D02*
X0302601Y0170105D01*
X0260635Y0156126D02*
X0176366Y0156126D01*
X0177819Y0155127D02*
X0260635Y0155127D01*
X0260635Y0154129D02*
X0178510Y0154129D01*
X0178915Y0153130D02*
X0260635Y0153130D01*
X0260635Y0152132D02*
X0178915Y0152132D01*
X0178915Y0151133D02*
X0260231Y0151133D01*
X0259232Y0150135D02*
X0178915Y0150135D01*
X0178915Y0149136D02*
X0258234Y0149136D01*
X0257235Y0148138D02*
X0250142Y0148138D01*
X0248508Y0148138D02*
X0178915Y0148138D01*
X0178915Y0147139D02*
X0247026Y0147139D01*
X0251624Y0147139D02*
X0256237Y0147139D01*
X0258248Y0135737D02*
X0257182Y0135296D01*
X0256366Y0134480D01*
X0255925Y0133414D01*
X0255925Y0132260D01*
X0256366Y0131195D01*
X0257135Y0130426D01*
X0257135Y0067037D01*
X0238835Y0048737D01*
X0237748Y0048737D01*
X0236682Y0048296D01*
X0235866Y0047480D01*
X0235425Y0046414D01*
X0235425Y0045260D01*
X0235866Y0044195D01*
X0236682Y0043379D01*
X0237748Y0042937D01*
X0238902Y0042937D01*
X0239968Y0043379D01*
X0240783Y0044195D01*
X0241225Y0045260D01*
X0241225Y0046347D01*
X0259525Y0064647D01*
X0260515Y0065637D01*
X0260515Y0130426D01*
X0261283Y0131195D01*
X0261725Y0132260D01*
X0261725Y0133414D01*
X0261283Y0134480D01*
X0260468Y0135296D01*
X0259402Y0135737D01*
X0258248Y0135737D01*
X0257044Y0135157D02*
X0209015Y0135157D01*
X0209015Y0134159D02*
X0256233Y0134159D01*
X0255925Y0133160D02*
X0209015Y0133160D01*
X0208464Y0132162D02*
X0255966Y0132162D01*
X0256398Y0131163D02*
X0207466Y0131163D01*
X0206467Y0130165D02*
X0257135Y0130165D01*
X0257135Y0129166D02*
X0205469Y0129166D01*
X0204470Y0128168D02*
X0257135Y0128168D01*
X0257135Y0127169D02*
X0203472Y0127169D01*
X0202473Y0126171D02*
X0257135Y0126171D01*
X0257135Y0125172D02*
X0240559Y0125172D01*
X0240402Y0125237D02*
X0239248Y0125237D01*
X0238182Y0124796D01*
X0237366Y0123980D01*
X0236925Y0122914D01*
X0236925Y0121760D01*
X0237366Y0120695D01*
X0238182Y0119879D01*
X0239248Y0119437D01*
X0239486Y0119437D01*
X0242535Y0116389D01*
X0242535Y0100286D01*
X0238865Y0096616D01*
X0236210Y0099271D01*
X0232554Y0100786D01*
X0228596Y0100786D01*
X0224940Y0099271D01*
X0222141Y0096473D01*
X0220627Y0092816D01*
X0220627Y0088858D01*
X0222141Y0085202D01*
X0224940Y0082404D01*
X0228596Y0080889D01*
X0232554Y0080889D01*
X0236210Y0082404D01*
X0239009Y0085202D01*
X0240523Y0088858D01*
X0240523Y0091797D01*
X0245773Y0097047D01*
X0247115Y0098389D01*
X0247115Y0118286D01*
X0242725Y0122676D01*
X0242725Y0122914D01*
X0242283Y0123980D01*
X0241468Y0124796D01*
X0240402Y0125237D01*
X0239091Y0125172D02*
X0201475Y0125172D01*
X0200476Y0124174D02*
X0237560Y0124174D01*
X0237033Y0123175D02*
X0199478Y0123175D01*
X0198479Y0122177D02*
X0236925Y0122177D01*
X0237166Y0121178D02*
X0197481Y0121178D01*
X0196482Y0120180D02*
X0227133Y0120180D01*
X0228596Y0120786D02*
X0224940Y0119271D01*
X0222141Y0116473D01*
X0220627Y0112816D01*
X0220627Y0108858D01*
X0222141Y0105202D01*
X0224940Y0102404D01*
X0228596Y0100889D01*
X0232554Y0100889D01*
X0236210Y0102404D01*
X0239009Y0105202D01*
X0240523Y0108858D01*
X0240523Y0112816D01*
X0239009Y0116473D01*
X0236210Y0119271D01*
X0232554Y0120786D01*
X0228596Y0120786D01*
X0224850Y0119181D02*
X0195484Y0119181D01*
X0194485Y0118183D02*
X0223851Y0118183D01*
X0222853Y0117184D02*
X0193487Y0117184D01*
X0192488Y0116185D02*
X0222022Y0116185D01*
X0221609Y0115187D02*
X0191490Y0115187D01*
X0190725Y0114188D02*
X0221195Y0114188D01*
X0220781Y0113190D02*
X0190665Y0113190D01*
X0190205Y0112191D02*
X0220627Y0112191D01*
X0220627Y0111193D02*
X0188838Y0111193D01*
X0186812Y0111193D02*
X0185071Y0111193D01*
X0184968Y0111296D02*
X0183902Y0111737D01*
X0182748Y0111737D01*
X0181682Y0111296D01*
X0180866Y0110480D01*
X0180425Y0109414D01*
X0180425Y0108260D01*
X0180866Y0107195D01*
X0181682Y0106379D01*
X0182748Y0105937D01*
X0183902Y0105937D01*
X0184915Y0106357D01*
X0185135Y0106137D01*
X0185135Y0087537D01*
X0180164Y0082567D01*
X0179960Y0082771D01*
X0176304Y0084286D01*
X0172346Y0084286D01*
X0168690Y0082771D01*
X0165891Y0079973D01*
X0164377Y0076316D01*
X0164377Y0072358D01*
X0165891Y0068702D01*
X0168690Y0065904D01*
X0172346Y0064389D01*
X0176304Y0064389D01*
X0179960Y0065904D01*
X0182759Y0068702D01*
X0184273Y0072358D01*
X0184273Y0076316D01*
X0182759Y0079973D01*
X0182554Y0080177D01*
X0188515Y0086137D01*
X0188515Y0107537D01*
X0187525Y0108527D01*
X0185933Y0110119D01*
X0185783Y0110480D01*
X0184968Y0111296D01*
X0185444Y0112191D02*
X0160015Y0112191D01*
X0160015Y0111193D02*
X0181579Y0111193D01*
X0180748Y0110194D02*
X0160015Y0110194D01*
X0160015Y0109196D02*
X0180425Y0109196D01*
X0180451Y0108197D02*
X0160066Y0108197D01*
X0160900Y0107199D02*
X0180865Y0107199D01*
X0182113Y0106200D02*
X0161225Y0106200D01*
X0161201Y0105202D02*
X0185135Y0105202D01*
X0185135Y0104203D02*
X0160787Y0104203D01*
X0159548Y0103205D02*
X0185135Y0103205D01*
X0185135Y0102206D02*
X0137346Y0102206D01*
X0138344Y0101208D02*
X0185135Y0101208D01*
X0185135Y0100209D02*
X0139343Y0100209D01*
X0140341Y0099211D02*
X0185135Y0099211D01*
X0185135Y0098212D02*
X0141340Y0098212D01*
X0142338Y0097214D02*
X0185135Y0097214D01*
X0185135Y0096215D02*
X0143337Y0096215D01*
X0144335Y0095217D02*
X0185135Y0095217D01*
X0185135Y0094218D02*
X0145334Y0094218D01*
X0146333Y0093220D02*
X0185135Y0093220D01*
X0185135Y0092221D02*
X0147331Y0092221D01*
X0148330Y0091223D02*
X0185135Y0091223D01*
X0185135Y0090224D02*
X0149328Y0090224D01*
X0150327Y0089226D02*
X0185135Y0089226D01*
X0185135Y0088227D02*
X0151325Y0088227D01*
X0152324Y0087229D02*
X0184826Y0087229D01*
X0183828Y0086230D02*
X0154419Y0086230D01*
X0156032Y0085232D02*
X0182829Y0085232D01*
X0181831Y0084233D02*
X0176430Y0084233D01*
X0178841Y0083235D02*
X0180832Y0083235D01*
X0184614Y0082236D02*
X0225344Y0082236D01*
X0224109Y0083235D02*
X0185612Y0083235D01*
X0186611Y0084233D02*
X0223110Y0084233D01*
X0222129Y0085232D02*
X0187609Y0085232D01*
X0188515Y0086230D02*
X0221715Y0086230D01*
X0221302Y0087229D02*
X0188515Y0087229D01*
X0188515Y0088227D02*
X0220888Y0088227D01*
X0220627Y0089226D02*
X0188515Y0089226D01*
X0188515Y0090224D02*
X0220627Y0090224D01*
X0220627Y0091223D02*
X0203609Y0091223D01*
X0202804Y0090889D02*
X0206460Y0092404D01*
X0209259Y0095202D01*
X0210773Y0098858D01*
X0210773Y0102816D01*
X0209259Y0106473D01*
X0206460Y0109271D01*
X0202804Y0110786D01*
X0198846Y0110786D01*
X0195190Y0109271D01*
X0192391Y0106473D01*
X0190877Y0102816D01*
X0190877Y0098858D01*
X0192391Y0095202D01*
X0195190Y0092404D01*
X0198846Y0090889D01*
X0202804Y0090889D01*
X0206020Y0092221D02*
X0220627Y0092221D01*
X0220794Y0093220D02*
X0207276Y0093220D01*
X0208275Y0094218D02*
X0213852Y0094218D01*
X0213345Y0094428D02*
X0214837Y0093810D01*
X0216451Y0093810D01*
X0217943Y0094428D01*
X0219084Y0095570D01*
X0219702Y0097062D01*
X0219702Y0104613D01*
X0219084Y0106105D01*
X0217943Y0107246D01*
X0216451Y0107864D01*
X0214837Y0107864D01*
X0213345Y0107246D01*
X0212203Y0106105D01*
X0211585Y0104613D01*
X0211585Y0097062D01*
X0212203Y0095570D01*
X0213345Y0094428D01*
X0212556Y0095217D02*
X0209265Y0095217D01*
X0209678Y0096215D02*
X0211936Y0096215D01*
X0211585Y0097214D02*
X0210092Y0097214D01*
X0210505Y0098212D02*
X0211585Y0098212D01*
X0211585Y0099211D02*
X0210773Y0099211D01*
X0210773Y0100209D02*
X0211585Y0100209D01*
X0211585Y0101208D02*
X0210773Y0101208D01*
X0210773Y0102206D02*
X0211585Y0102206D01*
X0211585Y0103205D02*
X0210612Y0103205D01*
X0210199Y0104203D02*
X0211585Y0104203D01*
X0211829Y0105202D02*
X0209785Y0105202D01*
X0209371Y0106200D02*
X0212299Y0106200D01*
X0213297Y0107199D02*
X0208532Y0107199D01*
X0207534Y0108197D02*
X0220900Y0108197D01*
X0220627Y0109196D02*
X0206535Y0109196D01*
X0204231Y0110194D02*
X0220627Y0110194D01*
X0221314Y0107199D02*
X0217990Y0107199D01*
X0218989Y0106200D02*
X0221728Y0106200D01*
X0222141Y0105202D02*
X0219458Y0105202D01*
X0219702Y0104203D02*
X0223140Y0104203D01*
X0224138Y0103205D02*
X0219702Y0103205D01*
X0219702Y0102206D02*
X0225416Y0102206D01*
X0227827Y0101208D02*
X0219702Y0101208D01*
X0219702Y0100209D02*
X0227205Y0100209D01*
X0224879Y0099211D02*
X0219702Y0099211D01*
X0219702Y0098212D02*
X0223881Y0098212D01*
X0222882Y0097214D02*
X0219702Y0097214D01*
X0219352Y0096215D02*
X0222035Y0096215D01*
X0221621Y0095217D02*
X0218731Y0095217D01*
X0217436Y0094218D02*
X0221207Y0094218D01*
X0233323Y0101208D02*
X0242535Y0101208D01*
X0242535Y0102206D02*
X0235734Y0102206D01*
X0237011Y0103205D02*
X0242535Y0103205D01*
X0242535Y0104203D02*
X0238010Y0104203D01*
X0239008Y0105202D02*
X0242535Y0105202D01*
X0242535Y0106200D02*
X0239422Y0106200D01*
X0239836Y0107199D02*
X0242535Y0107199D01*
X0242535Y0108197D02*
X0240249Y0108197D01*
X0240523Y0109196D02*
X0242535Y0109196D01*
X0242535Y0110194D02*
X0240523Y0110194D01*
X0240523Y0111193D02*
X0242535Y0111193D01*
X0242535Y0112191D02*
X0240523Y0112191D01*
X0240368Y0113190D02*
X0242535Y0113190D01*
X0242535Y0114188D02*
X0239955Y0114188D01*
X0239541Y0115187D02*
X0242535Y0115187D01*
X0242535Y0116185D02*
X0239128Y0116185D01*
X0238297Y0117184D02*
X0241740Y0117184D01*
X0240741Y0118183D02*
X0237299Y0118183D01*
X0236300Y0119181D02*
X0239743Y0119181D01*
X0237881Y0120180D02*
X0234017Y0120180D01*
X0242090Y0124174D02*
X0257135Y0124174D01*
X0257135Y0123175D02*
X0242617Y0123175D01*
X0243224Y0122177D02*
X0257135Y0122177D01*
X0257135Y0121178D02*
X0244223Y0121178D01*
X0245221Y0120180D02*
X0257135Y0120180D01*
X0257135Y0119181D02*
X0246220Y0119181D01*
X0247115Y0118183D02*
X0257135Y0118183D01*
X0257135Y0117184D02*
X0247115Y0117184D01*
X0247115Y0116185D02*
X0257135Y0116185D01*
X0257135Y0115187D02*
X0247115Y0115187D01*
X0247115Y0114188D02*
X0257135Y0114188D01*
X0257135Y0113190D02*
X0247115Y0113190D01*
X0247115Y0112191D02*
X0257135Y0112191D01*
X0257135Y0111193D02*
X0247115Y0111193D01*
X0247115Y0110194D02*
X0257135Y0110194D01*
X0257135Y0109196D02*
X0247115Y0109196D01*
X0247115Y0108197D02*
X0257135Y0108197D01*
X0257135Y0107199D02*
X0247115Y0107199D01*
X0247115Y0106200D02*
X0257135Y0106200D01*
X0257135Y0105202D02*
X0247115Y0105202D01*
X0247115Y0104203D02*
X0257135Y0104203D01*
X0257135Y0103205D02*
X0247115Y0103205D01*
X0247115Y0102206D02*
X0257135Y0102206D01*
X0257135Y0101208D02*
X0247115Y0101208D01*
X0247115Y0100209D02*
X0257135Y0100209D01*
X0257135Y0099211D02*
X0247115Y0099211D01*
X0246938Y0098212D02*
X0257135Y0098212D01*
X0257135Y0097214D02*
X0245940Y0097214D01*
X0244941Y0096215D02*
X0257135Y0096215D01*
X0257135Y0095217D02*
X0243943Y0095217D01*
X0242944Y0094218D02*
X0257135Y0094218D01*
X0257135Y0093220D02*
X0241946Y0093220D01*
X0240947Y0092221D02*
X0257135Y0092221D01*
X0257135Y0091223D02*
X0240523Y0091223D01*
X0240523Y0090224D02*
X0257135Y0090224D01*
X0257135Y0089226D02*
X0240523Y0089226D01*
X0240262Y0088227D02*
X0257135Y0088227D01*
X0257135Y0087229D02*
X0239848Y0087229D01*
X0239434Y0086230D02*
X0257135Y0086230D01*
X0257135Y0085232D02*
X0239021Y0085232D01*
X0238040Y0084233D02*
X0257135Y0084233D01*
X0257135Y0083235D02*
X0237041Y0083235D01*
X0235806Y0082236D02*
X0257135Y0082236D01*
X0257135Y0081238D02*
X0233395Y0081238D01*
X0227755Y0081238D02*
X0183615Y0081238D01*
X0182617Y0080239D02*
X0218142Y0080239D01*
X0218142Y0079241D02*
X0183062Y0079241D01*
X0183475Y0078242D02*
X0218142Y0078242D01*
X0218142Y0077244D02*
X0183889Y0077244D01*
X0184273Y0076245D02*
X0218142Y0076245D01*
X0218142Y0075247D02*
X0184273Y0075247D01*
X0184273Y0074248D02*
X0221134Y0074248D01*
X0222132Y0073249D02*
X0184273Y0073249D01*
X0184229Y0072251D02*
X0223131Y0072251D01*
X0224129Y0071252D02*
X0183815Y0071252D01*
X0183401Y0070254D02*
X0225128Y0070254D01*
X0225997Y0069255D02*
X0182988Y0069255D01*
X0182313Y0068257D02*
X0225997Y0068257D01*
X0225997Y0067258D02*
X0181315Y0067258D01*
X0180316Y0066260D02*
X0225997Y0066260D01*
X0225997Y0065261D02*
X0178410Y0065261D01*
X0170240Y0065261D02*
X0160291Y0065261D01*
X0161289Y0064263D02*
X0225997Y0064263D01*
X0225997Y0063264D02*
X0162288Y0063264D01*
X0163286Y0062266D02*
X0225997Y0062266D01*
X0225997Y0061267D02*
X0164285Y0061267D01*
X0165283Y0060269D02*
X0225997Y0060269D01*
X0225997Y0059270D02*
X0216282Y0059270D01*
X0217280Y0058272D02*
X0225997Y0058272D01*
X0225997Y0057273D02*
X0218279Y0057273D01*
X0219277Y0056275D02*
X0225997Y0056275D01*
X0225997Y0055276D02*
X0220276Y0055276D01*
X0222986Y0054278D02*
X0225997Y0054278D01*
X0225997Y0053279D02*
X0223867Y0053279D01*
X0224225Y0052281D02*
X0225997Y0052281D01*
X0225997Y0051282D02*
X0224225Y0051282D01*
X0223820Y0050284D02*
X0225997Y0050284D01*
X0225997Y0049285D02*
X0222742Y0049285D01*
X0219908Y0049285D02*
X0158715Y0049285D01*
X0158715Y0048287D02*
X0225997Y0048287D01*
X0225997Y0047288D02*
X0158715Y0047288D01*
X0158715Y0046290D02*
X0225997Y0046290D01*
X0225997Y0045291D02*
X0158715Y0045291D01*
X0158715Y0044293D02*
X0225997Y0044293D01*
X0225997Y0043294D02*
X0158715Y0043294D01*
X0158715Y0042296D02*
X0225997Y0042296D01*
X0225997Y0041297D02*
X0158715Y0041297D01*
X0158715Y0040299D02*
X0225997Y0040299D01*
X0225997Y0039300D02*
X0158715Y0039300D01*
X0158715Y0038302D02*
X0225997Y0038302D01*
X0225997Y0037303D02*
X0158715Y0037303D01*
X0158715Y0036305D02*
X0225997Y0036305D01*
X0225997Y0035306D02*
X0158715Y0035306D01*
X0158715Y0034308D02*
X0225997Y0034308D01*
X0225997Y0033309D02*
X0159354Y0033309D01*
X0159725Y0032311D02*
X0225997Y0032311D01*
X0225997Y0031312D02*
X0159725Y0031312D01*
X0159333Y0030314D02*
X0225997Y0030314D01*
X0225997Y0029315D02*
X0158314Y0029315D01*
X0153168Y0025321D02*
X0149205Y0025321D01*
X0149177Y0024322D02*
X0154167Y0024322D01*
X0152170Y0026319D02*
X0148995Y0026319D01*
X0148995Y0027318D02*
X0151171Y0027318D01*
X0150542Y0027947D02*
X0150542Y0027947D01*
X0150173Y0028316D02*
X0149247Y0028316D01*
X0149382Y0029315D02*
X0149435Y0029315D01*
X0149435Y0030314D02*
X0149172Y0030314D01*
X0149172Y0031312D02*
X0149435Y0031312D01*
X0149435Y0032311D02*
X0149172Y0032311D01*
X0149261Y0033309D02*
X0149435Y0033309D01*
X0149435Y0034308D02*
X0149382Y0034308D01*
X0149435Y0035306D02*
X0149155Y0035306D01*
X0149435Y0036305D02*
X0148459Y0036305D01*
X0149435Y0037303D02*
X0138606Y0037303D01*
X0138011Y0037898D02*
X0136250Y0038627D01*
X0134345Y0038627D01*
X0132584Y0037898D01*
X0131237Y0036551D01*
X0130507Y0034790D01*
X0130507Y0032885D01*
X0131237Y0031124D01*
X0132584Y0029777D01*
X0134345Y0029047D01*
X0136250Y0029047D01*
X0138011Y0029777D01*
X0139358Y0031124D01*
X0140087Y0032885D01*
X0140087Y0034790D01*
X0139358Y0036551D01*
X0138011Y0037898D01*
X0137036Y0038302D02*
X0149435Y0038302D01*
X0149435Y0039300D02*
X0136860Y0039300D01*
X0136250Y0039047D02*
X0138011Y0039777D01*
X0139358Y0041124D01*
X0140087Y0042885D01*
X0140087Y0044790D01*
X0139358Y0046551D01*
X0138011Y0047898D01*
X0137211Y0048229D01*
X0137211Y0050908D01*
X0136104Y0052015D01*
X0133391Y0054727D01*
X0108536Y0054727D01*
X0107968Y0055296D01*
X0106902Y0055737D01*
X0105748Y0055737D01*
X0104682Y0055296D01*
X0103866Y0054480D01*
X0103425Y0053414D01*
X0103425Y0052260D01*
X0103866Y0051195D01*
X0104682Y0050379D01*
X0105748Y0049937D01*
X0106902Y0049937D01*
X0107968Y0050379D01*
X0108536Y0050947D01*
X0131826Y0050947D01*
X0133431Y0049342D01*
X0133431Y0048249D01*
X0132584Y0047898D01*
X0131237Y0046551D01*
X0130507Y0044790D01*
X0130507Y0042885D01*
X0131237Y0041124D01*
X0132584Y0039777D01*
X0134345Y0039047D01*
X0136250Y0039047D01*
X0133734Y0039300D02*
X0126860Y0039300D01*
X0126250Y0039047D02*
X0128011Y0039777D01*
X0129358Y0041124D01*
X0130087Y0042885D01*
X0130087Y0044790D01*
X0129358Y0046551D01*
X0128011Y0047898D01*
X0126250Y0048627D01*
X0124345Y0048627D01*
X0122584Y0047898D01*
X0121237Y0046551D01*
X0120507Y0044790D01*
X0120507Y0042885D01*
X0121237Y0041124D01*
X0122584Y0039777D01*
X0124345Y0039047D01*
X0126250Y0039047D01*
X0126250Y0038627D02*
X0124345Y0038627D01*
X0122584Y0037898D01*
X0121237Y0036551D01*
X0120507Y0034790D01*
X0120507Y0032885D01*
X0121237Y0031124D01*
X0122584Y0029777D01*
X0124345Y0029047D01*
X0126250Y0029047D01*
X0128011Y0029777D01*
X0129358Y0031124D01*
X0130087Y0032885D01*
X0130087Y0034790D01*
X0129358Y0036551D01*
X0128011Y0037898D01*
X0126250Y0038627D01*
X0127036Y0038302D02*
X0133558Y0038302D01*
X0131989Y0037303D02*
X0128606Y0037303D01*
X0129460Y0036305D02*
X0131135Y0036305D01*
X0130721Y0035306D02*
X0129874Y0035306D01*
X0130087Y0034308D02*
X0130507Y0034308D01*
X0130507Y0033309D02*
X0130087Y0033309D01*
X0129850Y0032311D02*
X0130745Y0032311D01*
X0131159Y0031312D02*
X0129436Y0031312D01*
X0128548Y0030314D02*
X0132047Y0030314D01*
X0133698Y0029315D02*
X0126896Y0029315D01*
X0123698Y0029315D02*
X0117991Y0029315D01*
X0118548Y0030314D02*
X0122047Y0030314D01*
X0121159Y0031312D02*
X0119436Y0031312D01*
X0119850Y0032311D02*
X0120745Y0032311D01*
X0120507Y0033309D02*
X0120087Y0033309D01*
X0120087Y0034308D02*
X0120507Y0034308D01*
X0120721Y0035306D02*
X0119874Y0035306D01*
X0119460Y0036305D02*
X0121135Y0036305D01*
X0121989Y0037303D02*
X0118606Y0037303D01*
X0117036Y0038302D02*
X0123558Y0038302D01*
X0123734Y0039300D02*
X0119702Y0039300D01*
X0120087Y0040299D02*
X0122062Y0040299D01*
X0121165Y0041297D02*
X0120087Y0041297D01*
X0120087Y0042296D02*
X0120751Y0042296D01*
X0120507Y0043294D02*
X0120087Y0043294D01*
X0120087Y0044293D02*
X0120507Y0044293D01*
X0120715Y0045291D02*
X0120087Y0045291D01*
X0120087Y0046290D02*
X0121129Y0046290D01*
X0121974Y0047288D02*
X0120087Y0047288D01*
X0119789Y0048287D02*
X0123522Y0048287D01*
X0127072Y0048287D02*
X0133431Y0048287D01*
X0133431Y0049285D02*
X0049225Y0049285D01*
X0049225Y0049564D02*
X0049225Y0048760D01*
X0048783Y0047695D01*
X0047968Y0046879D01*
X0046902Y0046437D01*
X0045748Y0046437D01*
X0045150Y0046685D01*
X0045608Y0046227D01*
X0079614Y0046227D01*
X0080182Y0046796D01*
X0081248Y0047237D01*
X0082402Y0047237D01*
X0083468Y0046796D01*
X0084283Y0045980D01*
X0084725Y0044914D01*
X0084725Y0043760D01*
X0084283Y0042695D01*
X0083468Y0041879D01*
X0082402Y0041437D01*
X0081248Y0041437D01*
X0080182Y0041879D01*
X0079614Y0042447D01*
X0044042Y0042447D01*
X0024552Y0061937D01*
X0023748Y0061937D01*
X0022682Y0062379D01*
X0021866Y0063195D01*
X0021425Y0064260D01*
X0021425Y0065414D01*
X0021866Y0066480D01*
X0022682Y0067296D01*
X0023748Y0067737D01*
X0024902Y0067737D01*
X0025968Y0067296D01*
X0026783Y0066480D01*
X0027225Y0065414D01*
X0027225Y0064610D01*
X0043673Y0048162D01*
X0043425Y0048760D01*
X0043425Y0049914D01*
X0043866Y0050980D01*
X0044682Y0051796D01*
X0045748Y0052237D01*
X0046552Y0052237D01*
X0049435Y0055120D01*
X0050542Y0056227D01*
X0053614Y0056227D01*
X0054182Y0056796D01*
X0055248Y0057237D01*
X0056402Y0057237D01*
X0057468Y0056796D01*
X0058283Y0055980D01*
X0058725Y0054914D01*
X0058725Y0053760D01*
X0058283Y0052695D01*
X0057468Y0051879D01*
X0056402Y0051437D01*
X0055248Y0051437D01*
X0054182Y0051879D01*
X0053614Y0052447D01*
X0052108Y0052447D01*
X0049225Y0049564D01*
X0049944Y0050284D02*
X0104912Y0050284D01*
X0103830Y0051282D02*
X0050943Y0051282D01*
X0051941Y0052281D02*
X0053780Y0052281D01*
X0057870Y0052281D02*
X0103425Y0052281D01*
X0103425Y0053279D02*
X0058526Y0053279D01*
X0058725Y0054278D02*
X0103783Y0054278D01*
X0104663Y0055276D02*
X0058575Y0055276D01*
X0057989Y0056275D02*
X0115215Y0056275D01*
X0114216Y0057273D02*
X0034562Y0057273D01*
X0035560Y0056275D02*
X0053661Y0056275D01*
X0049591Y0055276D02*
X0036559Y0055276D01*
X0037557Y0054278D02*
X0048593Y0054278D01*
X0047594Y0053279D02*
X0038556Y0053279D01*
X0039554Y0052281D02*
X0046595Y0052281D01*
X0044169Y0051282D02*
X0040553Y0051282D01*
X0041551Y0050284D02*
X0043578Y0050284D01*
X0043425Y0049285D02*
X0042550Y0049285D01*
X0043548Y0048287D02*
X0043621Y0048287D01*
X0045545Y0046290D02*
X0079676Y0046290D01*
X0083974Y0046290D02*
X0105407Y0046290D01*
X0104409Y0045291D02*
X0084569Y0045291D01*
X0084725Y0044293D02*
X0103410Y0044293D01*
X0102412Y0043294D02*
X0084532Y0043294D01*
X0083884Y0042296D02*
X0101413Y0042296D01*
X0100415Y0041297D02*
X0010325Y0041297D01*
X0010325Y0040299D02*
X0099416Y0040299D01*
X0098879Y0039300D02*
X0010325Y0039300D01*
X0010325Y0038302D02*
X0098735Y0038302D01*
X0098909Y0037303D02*
X0010325Y0037303D01*
X0010325Y0036305D02*
X0099488Y0036305D01*
X0100135Y0035306D02*
X0010325Y0035306D01*
X0010325Y0034308D02*
X0100135Y0034308D01*
X0100135Y0033309D02*
X0023729Y0033309D01*
X0025054Y0032760D02*
X0022187Y0033948D01*
X0019085Y0033948D01*
X0016218Y0032760D01*
X0014024Y0030566D01*
X0012837Y0027700D01*
X0012837Y0024597D01*
X0014024Y0021730D01*
X0016218Y0019536D01*
X0019085Y0018349D01*
X0022187Y0018349D01*
X0025054Y0019536D01*
X0027248Y0021730D01*
X0028435Y0024597D01*
X0028435Y0027700D01*
X0027248Y0030566D01*
X0025054Y0032760D01*
X0025503Y0032311D02*
X0100135Y0032311D01*
X0100135Y0031312D02*
X0026502Y0031312D01*
X0027352Y0030314D02*
X0100135Y0030314D01*
X0100337Y0029315D02*
X0027766Y0029315D01*
X0028180Y0028316D02*
X0101042Y0028316D01*
X0102040Y0027318D02*
X0028435Y0027318D01*
X0028435Y0026319D02*
X0103039Y0026319D01*
X0104037Y0025321D02*
X0028435Y0025321D01*
X0028321Y0024322D02*
X0105036Y0024322D01*
X0106034Y0023324D02*
X0027908Y0023324D01*
X0027494Y0022325D02*
X0107033Y0022325D01*
X0108031Y0021327D02*
X0026844Y0021327D01*
X0025846Y0020328D02*
X0109030Y0020328D01*
X0110028Y0019330D02*
X0024555Y0019330D01*
X0016717Y0019330D02*
X0010325Y0019330D01*
X0010325Y0020328D02*
X0015426Y0020328D01*
X0014428Y0021327D02*
X0010325Y0021327D01*
X0010325Y0022325D02*
X0013778Y0022325D01*
X0013364Y0023324D02*
X0010325Y0023324D01*
X0010325Y0024322D02*
X0012950Y0024322D01*
X0012837Y0025321D02*
X0010325Y0025321D01*
X0010325Y0026319D02*
X0012837Y0026319D01*
X0012837Y0027318D02*
X0010325Y0027318D01*
X0010325Y0028316D02*
X0013092Y0028316D01*
X0013506Y0029315D02*
X0010325Y0029315D01*
X0010325Y0030314D02*
X0013919Y0030314D01*
X0014770Y0031312D02*
X0010325Y0031312D01*
X0010325Y0032311D02*
X0015768Y0032311D01*
X0017543Y0033309D02*
X0010325Y0033309D01*
X0010325Y0042296D02*
X0079765Y0042296D01*
X0105515Y0037303D02*
X0111989Y0037303D01*
X0111135Y0036305D02*
X0105515Y0036305D01*
X0105515Y0035306D02*
X0110721Y0035306D01*
X0110507Y0034308D02*
X0105515Y0034308D01*
X0105515Y0033309D02*
X0110507Y0033309D01*
X0110745Y0032311D02*
X0105515Y0032311D01*
X0105654Y0031312D02*
X0111159Y0031312D01*
X0112047Y0030314D02*
X0106653Y0030314D01*
X0107651Y0029315D02*
X0112611Y0029315D01*
X0112611Y0028316D02*
X0108650Y0028316D01*
X0109648Y0027318D02*
X0112737Y0027318D01*
X0113334Y0026319D02*
X0110647Y0026319D01*
X0111646Y0025321D02*
X0114332Y0025321D01*
X0115331Y0024322D02*
X0112644Y0024322D01*
X0113643Y0023324D02*
X0116329Y0023324D01*
X0117839Y0022325D02*
X0114641Y0022325D01*
X0111027Y0018331D02*
X0010325Y0018331D01*
X0010325Y0017333D02*
X0112025Y0017333D01*
X0118945Y0028316D02*
X0143615Y0028316D01*
X0143582Y0029315D02*
X0136896Y0029315D01*
X0138548Y0030314D02*
X0143792Y0030314D01*
X0143792Y0031312D02*
X0139436Y0031312D01*
X0139850Y0032311D02*
X0143792Y0032311D01*
X0143704Y0033309D02*
X0140087Y0033309D01*
X0140087Y0034308D02*
X0143582Y0034308D01*
X0143810Y0035306D02*
X0139874Y0035306D01*
X0139460Y0036305D02*
X0144506Y0036305D01*
X0149435Y0040299D02*
X0138533Y0040299D01*
X0139430Y0041297D02*
X0149435Y0041297D01*
X0148694Y0042296D02*
X0139843Y0042296D01*
X0140087Y0043294D02*
X0147695Y0043294D01*
X0146697Y0044293D02*
X0140087Y0044293D01*
X0139880Y0045291D02*
X0145698Y0045291D01*
X0144700Y0046290D02*
X0139466Y0046290D01*
X0138621Y0047288D02*
X0143701Y0047288D01*
X0142703Y0048287D02*
X0137211Y0048287D01*
X0137211Y0049285D02*
X0141704Y0049285D01*
X0140706Y0050284D02*
X0137211Y0050284D01*
X0136836Y0051282D02*
X0139707Y0051282D01*
X0138709Y0052281D02*
X0135838Y0052281D01*
X0134839Y0053279D02*
X0137643Y0053279D01*
X0136645Y0054278D02*
X0133841Y0054278D01*
X0135646Y0055276D02*
X0107987Y0055276D01*
X0112219Y0059270D02*
X0032565Y0059270D01*
X0033563Y0058272D02*
X0113218Y0058272D01*
X0111221Y0060269D02*
X0031566Y0060269D01*
X0030568Y0061267D02*
X0110222Y0061267D01*
X0109223Y0062266D02*
X0029569Y0062266D01*
X0028571Y0063264D02*
X0106981Y0063264D01*
X0105829Y0064263D02*
X0027572Y0064263D01*
X0027225Y0065261D02*
X0105415Y0065261D01*
X0105409Y0066260D02*
X0026875Y0066260D01*
X0026005Y0067258D02*
X0105752Y0067258D01*
X0106612Y0068257D02*
X0010325Y0068257D01*
X0010325Y0069255D02*
X0115977Y0069255D01*
X0115977Y0068257D02*
X0110007Y0068257D01*
X0110866Y0067258D02*
X0115977Y0067258D01*
X0115977Y0066260D02*
X0111209Y0066260D01*
X0111574Y0065261D02*
X0115781Y0065261D01*
X0115767Y0064263D02*
X0112572Y0064263D01*
X0113571Y0063264D02*
X0116103Y0063264D01*
X0116953Y0062266D02*
X0114569Y0062266D01*
X0115568Y0061267D02*
X0135256Y0061267D01*
X0135256Y0060269D02*
X0116566Y0060269D01*
X0120382Y0062266D02*
X0135643Y0062266D01*
X0136637Y0063264D02*
X0121231Y0063264D01*
X0121567Y0064263D02*
X0138435Y0064263D01*
X0138435Y0065261D02*
X0121554Y0065261D01*
X0121357Y0066260D02*
X0138435Y0066260D01*
X0137840Y0067258D02*
X0121357Y0067258D01*
X0115977Y0070254D02*
X0010325Y0070254D01*
X0010325Y0071252D02*
X0115767Y0071252D01*
X0115814Y0072251D02*
X0010325Y0072251D01*
X0010325Y0073249D02*
X0116254Y0073249D01*
X0117575Y0074248D02*
X0010325Y0074248D01*
X0010325Y0075247D02*
X0118002Y0075247D01*
X0116846Y0076245D02*
X0010325Y0076245D01*
X0010325Y0077244D02*
X0116432Y0077244D01*
X0116425Y0078242D02*
X0010325Y0078242D01*
X0010325Y0067258D02*
X0022645Y0067258D01*
X0021775Y0066260D02*
X0010325Y0066260D01*
X0010325Y0065261D02*
X0021425Y0065261D01*
X0021425Y0064263D02*
X0010325Y0064263D01*
X0010325Y0063264D02*
X0021837Y0063264D01*
X0022955Y0062266D02*
X0010325Y0062266D01*
X0010325Y0061267D02*
X0025222Y0061267D01*
X0026221Y0060269D02*
X0010325Y0060269D01*
X0010325Y0059270D02*
X0027219Y0059270D01*
X0028218Y0058272D02*
X0010325Y0058272D01*
X0010325Y0057273D02*
X0029216Y0057273D01*
X0030215Y0056275D02*
X0010325Y0056275D01*
X0010325Y0055276D02*
X0031213Y0055276D01*
X0032212Y0054278D02*
X0010325Y0054278D01*
X0010325Y0053279D02*
X0033210Y0053279D01*
X0034209Y0052281D02*
X0010325Y0052281D01*
X0010325Y0051282D02*
X0035207Y0051282D01*
X0036206Y0050284D02*
X0010325Y0050284D01*
X0010325Y0049285D02*
X0037204Y0049285D01*
X0038203Y0048287D02*
X0010325Y0048287D01*
X0010325Y0047288D02*
X0039201Y0047288D01*
X0040200Y0046290D02*
X0010325Y0046290D01*
X0010325Y0045291D02*
X0041198Y0045291D01*
X0042197Y0044293D02*
X0010325Y0044293D01*
X0010325Y0043294D02*
X0043195Y0043294D01*
X0048377Y0047288D02*
X0110507Y0047288D01*
X0110805Y0048287D02*
X0049029Y0048287D01*
X0106159Y0038302D02*
X0113558Y0038302D01*
X0110893Y0039300D02*
X0107158Y0039300D01*
X0108156Y0040299D02*
X0110507Y0040299D01*
X0107738Y0050284D02*
X0132489Y0050284D01*
X0131974Y0047288D02*
X0128621Y0047288D01*
X0129466Y0046290D02*
X0131129Y0046290D01*
X0130715Y0045291D02*
X0129880Y0045291D01*
X0130087Y0044293D02*
X0130507Y0044293D01*
X0130507Y0043294D02*
X0130087Y0043294D01*
X0129843Y0042296D02*
X0130751Y0042296D01*
X0131165Y0041297D02*
X0129430Y0041297D01*
X0128533Y0040299D02*
X0132062Y0040299D01*
X0158715Y0050284D02*
X0218829Y0050284D01*
X0218425Y0051282D02*
X0158715Y0051282D01*
X0158715Y0052281D02*
X0218425Y0052281D01*
X0217493Y0053279D02*
X0158715Y0053279D01*
X0158715Y0054278D02*
X0216494Y0054278D01*
X0215496Y0055276D02*
X0158715Y0055276D01*
X0158715Y0056275D02*
X0159286Y0056275D01*
X0163364Y0056275D02*
X0214497Y0056275D01*
X0231377Y0056275D02*
X0246372Y0056275D01*
X0245374Y0055276D02*
X0231377Y0055276D01*
X0231377Y0054278D02*
X0244375Y0054278D01*
X0243377Y0053279D02*
X0231377Y0053279D01*
X0231377Y0052281D02*
X0242378Y0052281D01*
X0241380Y0051282D02*
X0231377Y0051282D01*
X0231377Y0050284D02*
X0240381Y0050284D01*
X0239383Y0049285D02*
X0231377Y0049285D01*
X0231377Y0048287D02*
X0236673Y0048287D01*
X0235787Y0047288D02*
X0231377Y0047288D01*
X0231377Y0046290D02*
X0235425Y0046290D01*
X0235425Y0045291D02*
X0231377Y0045291D01*
X0231377Y0044293D02*
X0235826Y0044293D01*
X0236887Y0043294D02*
X0231377Y0043294D01*
X0231377Y0042296D02*
X0302601Y0042296D01*
X0302601Y0043294D02*
X0239763Y0043294D01*
X0240824Y0044293D02*
X0302601Y0044293D01*
X0302601Y0045291D02*
X0241225Y0045291D01*
X0241225Y0046290D02*
X0302601Y0046290D01*
X0302601Y0047288D02*
X0242166Y0047288D01*
X0243164Y0048287D02*
X0302601Y0048287D01*
X0302601Y0049285D02*
X0244163Y0049285D01*
X0245161Y0050284D02*
X0302601Y0050284D01*
X0302601Y0051282D02*
X0246160Y0051282D01*
X0247158Y0052281D02*
X0302601Y0052281D01*
X0302601Y0053279D02*
X0248157Y0053279D01*
X0249155Y0054278D02*
X0302601Y0054278D01*
X0302601Y0055276D02*
X0250154Y0055276D01*
X0251152Y0056275D02*
X0302601Y0056275D01*
X0302601Y0057273D02*
X0252151Y0057273D01*
X0253149Y0058272D02*
X0302601Y0058272D01*
X0302601Y0059270D02*
X0254148Y0059270D01*
X0255146Y0060269D02*
X0302601Y0060269D01*
X0302601Y0061267D02*
X0256145Y0061267D01*
X0257143Y0062266D02*
X0302601Y0062266D01*
X0302601Y0063264D02*
X0258142Y0063264D01*
X0259140Y0064263D02*
X0302601Y0064263D01*
X0302601Y0065261D02*
X0260139Y0065261D01*
X0260515Y0066260D02*
X0302601Y0066260D01*
X0302601Y0067258D02*
X0260515Y0067258D01*
X0260515Y0068257D02*
X0302601Y0068257D01*
X0302601Y0069255D02*
X0260515Y0069255D01*
X0260515Y0070254D02*
X0302601Y0070254D01*
X0302601Y0071252D02*
X0260515Y0071252D01*
X0260515Y0072251D02*
X0302601Y0072251D01*
X0302601Y0073249D02*
X0260515Y0073249D01*
X0260515Y0074248D02*
X0302601Y0074248D01*
X0302601Y0075247D02*
X0260515Y0075247D01*
X0260515Y0076245D02*
X0302601Y0076245D01*
X0302601Y0077244D02*
X0260515Y0077244D01*
X0260515Y0078242D02*
X0288715Y0078242D01*
X0287872Y0078592D02*
X0290738Y0077404D01*
X0293841Y0077404D01*
X0296707Y0078592D01*
X0298901Y0080786D01*
X0300089Y0083652D01*
X0300089Y0086755D01*
X0298901Y0089621D01*
X0296707Y0091815D01*
X0293841Y0093003D01*
X0290738Y0093003D01*
X0287872Y0091815D01*
X0285678Y0089621D01*
X0284490Y0086755D01*
X0284490Y0083652D01*
X0285678Y0080786D01*
X0287872Y0078592D01*
X0287223Y0079241D02*
X0260515Y0079241D01*
X0260515Y0080239D02*
X0286224Y0080239D01*
X0285490Y0081238D02*
X0260515Y0081238D01*
X0260515Y0082236D02*
X0285077Y0082236D01*
X0284663Y0083235D02*
X0260515Y0083235D01*
X0260515Y0084233D02*
X0284490Y0084233D01*
X0284490Y0085232D02*
X0260515Y0085232D01*
X0260515Y0086230D02*
X0284490Y0086230D01*
X0284687Y0087229D02*
X0260515Y0087229D01*
X0260515Y0088227D02*
X0285100Y0088227D01*
X0285514Y0089226D02*
X0260515Y0089226D01*
X0260515Y0090224D02*
X0286280Y0090224D01*
X0287279Y0091223D02*
X0260515Y0091223D01*
X0260515Y0092221D02*
X0288852Y0092221D01*
X0295727Y0092221D02*
X0302601Y0092221D01*
X0302601Y0091223D02*
X0297300Y0091223D01*
X0298298Y0090224D02*
X0302601Y0090224D01*
X0302601Y0089226D02*
X0299065Y0089226D01*
X0299479Y0088227D02*
X0302601Y0088227D01*
X0302601Y0087229D02*
X0299892Y0087229D01*
X0300089Y0086230D02*
X0302601Y0086230D01*
X0302601Y0085232D02*
X0300089Y0085232D01*
X0300089Y0084233D02*
X0302601Y0084233D01*
X0302601Y0083235D02*
X0299916Y0083235D01*
X0299502Y0082236D02*
X0302601Y0082236D01*
X0302601Y0081238D02*
X0299089Y0081238D01*
X0298355Y0080239D02*
X0302601Y0080239D01*
X0302601Y0079241D02*
X0297356Y0079241D01*
X0295863Y0078242D02*
X0302601Y0078242D01*
X0302601Y0093220D02*
X0260515Y0093220D01*
X0260515Y0094218D02*
X0302601Y0094218D01*
X0302601Y0095217D02*
X0260515Y0095217D01*
X0260515Y0096215D02*
X0302601Y0096215D01*
X0302601Y0097214D02*
X0260515Y0097214D01*
X0260515Y0098212D02*
X0302601Y0098212D01*
X0302601Y0099211D02*
X0260515Y0099211D01*
X0260515Y0100209D02*
X0302601Y0100209D01*
X0302601Y0101208D02*
X0260515Y0101208D01*
X0260515Y0102206D02*
X0302601Y0102206D01*
X0302601Y0103205D02*
X0260515Y0103205D01*
X0260515Y0104203D02*
X0302601Y0104203D01*
X0302601Y0105202D02*
X0260515Y0105202D01*
X0260515Y0106200D02*
X0302601Y0106200D01*
X0302601Y0107199D02*
X0260515Y0107199D01*
X0260515Y0108197D02*
X0302601Y0108197D01*
X0302601Y0109196D02*
X0260515Y0109196D01*
X0260515Y0110194D02*
X0302601Y0110194D01*
X0302601Y0111193D02*
X0260515Y0111193D01*
X0260515Y0112191D02*
X0302601Y0112191D01*
X0302601Y0113190D02*
X0260515Y0113190D01*
X0260515Y0114188D02*
X0302601Y0114188D01*
X0302601Y0115187D02*
X0260515Y0115187D01*
X0260515Y0116185D02*
X0302601Y0116185D01*
X0302601Y0117184D02*
X0260515Y0117184D01*
X0260515Y0118183D02*
X0302601Y0118183D01*
X0302601Y0119181D02*
X0260515Y0119181D01*
X0260515Y0120180D02*
X0302601Y0120180D01*
X0302601Y0121178D02*
X0260515Y0121178D01*
X0260515Y0122177D02*
X0302601Y0122177D01*
X0302601Y0123175D02*
X0260515Y0123175D01*
X0260515Y0124174D02*
X0302601Y0124174D01*
X0302601Y0125172D02*
X0260515Y0125172D01*
X0260515Y0126171D02*
X0302601Y0126171D01*
X0302601Y0127169D02*
X0260515Y0127169D01*
X0260515Y0128168D02*
X0302601Y0128168D01*
X0302601Y0129166D02*
X0260515Y0129166D01*
X0260515Y0130165D02*
X0302601Y0130165D01*
X0302601Y0131163D02*
X0261252Y0131163D01*
X0261684Y0132162D02*
X0302601Y0132162D01*
X0302601Y0133160D02*
X0261725Y0133160D01*
X0261417Y0134159D02*
X0302601Y0134159D01*
X0302601Y0135157D02*
X0260606Y0135157D01*
X0302601Y0136156D02*
X0209015Y0136156D01*
X0209015Y0137154D02*
X0302601Y0137154D01*
X0302601Y0138153D02*
X0209015Y0138153D01*
X0209015Y0139151D02*
X0302601Y0139151D01*
X0302601Y0140150D02*
X0209015Y0140150D01*
X0209737Y0141148D02*
X0302601Y0141148D01*
X0242458Y0100209D02*
X0233945Y0100209D01*
X0236270Y0099211D02*
X0241460Y0099211D01*
X0240461Y0098212D02*
X0237269Y0098212D01*
X0238267Y0097214D02*
X0239463Y0097214D01*
X0224704Y0080239D02*
X0257135Y0080239D01*
X0257135Y0079241D02*
X0224704Y0079241D01*
X0224748Y0078242D02*
X0257135Y0078242D01*
X0257135Y0077244D02*
X0225747Y0077244D01*
X0226745Y0076245D02*
X0257135Y0076245D01*
X0257135Y0075247D02*
X0227744Y0075247D01*
X0228742Y0074248D02*
X0257135Y0074248D01*
X0257135Y0073249D02*
X0229741Y0073249D01*
X0230739Y0072251D02*
X0257135Y0072251D01*
X0257135Y0071252D02*
X0231287Y0071252D01*
X0231377Y0070254D02*
X0257135Y0070254D01*
X0257135Y0069255D02*
X0231377Y0069255D01*
X0231377Y0068257D02*
X0257135Y0068257D01*
X0257135Y0067258D02*
X0231377Y0067258D01*
X0231377Y0066260D02*
X0256357Y0066260D01*
X0255359Y0065261D02*
X0231377Y0065261D01*
X0231377Y0064263D02*
X0254360Y0064263D01*
X0253362Y0063264D02*
X0231377Y0063264D01*
X0231377Y0062266D02*
X0252363Y0062266D01*
X0251365Y0061267D02*
X0231377Y0061267D01*
X0231377Y0060269D02*
X0250366Y0060269D01*
X0249368Y0059270D02*
X0231377Y0059270D01*
X0231377Y0058272D02*
X0248369Y0058272D01*
X0247371Y0057273D02*
X0231377Y0057273D01*
X0231377Y0041297D02*
X0302601Y0041297D01*
X0302601Y0040299D02*
X0231377Y0040299D01*
X0231377Y0039300D02*
X0302601Y0039300D01*
X0302601Y0038302D02*
X0231377Y0038302D01*
X0231377Y0037303D02*
X0302601Y0037303D01*
X0302601Y0036305D02*
X0231377Y0036305D01*
X0231377Y0035306D02*
X0302601Y0035306D01*
X0302601Y0034308D02*
X0231377Y0034308D01*
X0168333Y0066260D02*
X0159292Y0066260D01*
X0158294Y0067258D02*
X0167335Y0067258D01*
X0166336Y0068257D02*
X0158015Y0068257D01*
X0158015Y0069255D02*
X0165662Y0069255D01*
X0165248Y0070254D02*
X0158015Y0070254D01*
X0158015Y0071252D02*
X0164835Y0071252D01*
X0164421Y0072251D02*
X0158015Y0072251D01*
X0157803Y0073249D02*
X0164377Y0073249D01*
X0164377Y0074248D02*
X0156804Y0074248D01*
X0155806Y0075247D02*
X0164377Y0075247D01*
X0164377Y0076245D02*
X0154807Y0076245D01*
X0153809Y0077244D02*
X0164761Y0077244D01*
X0165174Y0078242D02*
X0152810Y0078242D01*
X0151812Y0079241D02*
X0165588Y0079241D01*
X0166158Y0080239D02*
X0151009Y0080239D01*
X0151225Y0081238D02*
X0151823Y0081238D01*
X0151142Y0082236D02*
X0151092Y0082236D01*
X0150925Y0083235D02*
X0150529Y0083235D01*
X0150539Y0084233D02*
X0148912Y0084233D01*
X0149541Y0085232D02*
X0146821Y0085232D01*
X0145822Y0086230D02*
X0148542Y0086230D01*
X0156593Y0084233D02*
X0172219Y0084233D01*
X0169809Y0083235D02*
X0156725Y0083235D01*
X0156508Y0082236D02*
X0168155Y0082236D01*
X0167156Y0081238D02*
X0155826Y0081238D01*
X0145023Y0073249D02*
X0134738Y0073249D01*
X0134599Y0074248D02*
X0135313Y0074248D01*
X0134638Y0075247D02*
X0134603Y0075247D01*
X0139337Y0074248D02*
X0144024Y0074248D01*
X0143026Y0075247D02*
X0140012Y0075247D01*
X0140225Y0076245D02*
X0142027Y0076245D01*
X0141029Y0077244D02*
X0140088Y0077244D01*
X0140030Y0078242D02*
X0139521Y0078242D01*
X0134563Y0100209D02*
X0090222Y0100209D01*
X0127361Y0112191D02*
X0155581Y0112191D01*
X0156579Y0111193D02*
X0128359Y0111193D01*
X0129358Y0110194D02*
X0156635Y0110194D01*
X0156635Y0109196D02*
X0130356Y0109196D01*
X0131355Y0108197D02*
X0156584Y0108197D01*
X0155750Y0107199D02*
X0132353Y0107199D01*
X0133352Y0106200D02*
X0155425Y0106200D01*
X0155449Y0105202D02*
X0134350Y0105202D01*
X0135349Y0104203D02*
X0155863Y0104203D01*
X0157102Y0103205D02*
X0136347Y0103205D01*
X0128512Y0113190D02*
X0154582Y0113190D01*
X0158364Y0114188D02*
X0184925Y0114188D01*
X0184985Y0113190D02*
X0159362Y0113190D01*
X0157365Y0115187D02*
X0185214Y0115187D01*
X0185997Y0116185D02*
X0156367Y0116185D01*
X0155368Y0117184D02*
X0188707Y0117184D01*
X0185902Y0110194D02*
X0197419Y0110194D01*
X0195115Y0109196D02*
X0186856Y0109196D01*
X0187855Y0108197D02*
X0194116Y0108197D01*
X0193117Y0107199D02*
X0188515Y0107199D01*
X0188515Y0106200D02*
X0192278Y0106200D01*
X0191865Y0105202D02*
X0188515Y0105202D01*
X0188515Y0104203D02*
X0191451Y0104203D01*
X0191038Y0103205D02*
X0188515Y0103205D01*
X0188515Y0102206D02*
X0190877Y0102206D01*
X0190877Y0101208D02*
X0188515Y0101208D01*
X0188515Y0100209D02*
X0190877Y0100209D01*
X0190877Y0099211D02*
X0188515Y0099211D01*
X0188515Y0098212D02*
X0191144Y0098212D01*
X0191558Y0097214D02*
X0188515Y0097214D01*
X0188515Y0096215D02*
X0191972Y0096215D01*
X0192385Y0095217D02*
X0188515Y0095217D01*
X0188515Y0094218D02*
X0193375Y0094218D01*
X0194374Y0093220D02*
X0188515Y0093220D01*
X0188515Y0092221D02*
X0195630Y0092221D01*
X0198041Y0091223D02*
X0188515Y0091223D01*
X0185072Y0106200D02*
X0184537Y0106200D01*
X0174400Y0074337D02*
X0174325Y0074263D01*
X0044231Y0157124D02*
X0027884Y0157124D01*
X0028297Y0158123D02*
X0043733Y0158123D01*
X0043758Y0159121D02*
X0028435Y0159121D01*
X0028435Y0160120D02*
X0043758Y0160120D01*
X0043758Y0161118D02*
X0028435Y0161118D01*
X0028204Y0162117D02*
X0043758Y0162117D01*
X0043758Y0163116D02*
X0027790Y0163116D01*
X0027376Y0164114D02*
X0043758Y0164114D01*
X0043758Y0165113D02*
X0026560Y0165113D01*
X0025561Y0166111D02*
X0043758Y0166111D01*
X0043758Y0167110D02*
X0023868Y0167110D01*
X0017404Y0167110D02*
X0010325Y0167110D01*
X0010325Y0168108D02*
X0043758Y0168108D01*
X0043758Y0169107D02*
X0010325Y0169107D01*
X0010325Y0170105D02*
X0043758Y0170105D01*
X0015711Y0166111D02*
X0010325Y0166111D01*
X0010325Y0165113D02*
X0014712Y0165113D01*
X0013895Y0164114D02*
X0010325Y0164114D01*
X0010325Y0163116D02*
X0013482Y0163116D01*
X0013068Y0162117D02*
X0010325Y0162117D01*
X0010325Y0161118D02*
X0012837Y0161118D01*
X0012837Y0160120D02*
X0010325Y0160120D01*
X0010325Y0159121D02*
X0012837Y0159121D01*
X0012974Y0158123D02*
X0010325Y0158123D01*
X0010325Y0157124D02*
X0013388Y0157124D01*
X0013802Y0156126D02*
X0010325Y0156126D01*
X0010325Y0155127D02*
X0014485Y0155127D01*
X0015484Y0154129D02*
X0010325Y0154129D01*
X0010325Y0153130D02*
X0016856Y0153130D01*
M02*
