%
M48
M72
T01C0.01575
T02C0.02362
T03C0.03937
T04C0.04000
T05C0.04331
T06C0.06299
T07C0.10630
T08C0.12598
%
T01
X58825Y32837
X81825Y44337
X101825Y38337
X106325Y52837
X118667Y64652
X108309Y65853
X118667Y71562
X119325Y77837
X127825Y84837
X132309Y77054
X137325Y76337
X132325Y71562
X132309Y71562
X140325Y68837
X138156Y60755
X161325Y58337
X148325Y81337
X153825Y83337
X171825Y96837
X168825Y100837
X171825Y104837
X175325Y100837
X183325Y108837
X187825Y113912
X158325Y105837
X149825Y98337
X133825Y96337
X127325Y115837
X117325Y145337
X148325Y146337
X106325Y166337
X73825Y166837
X39825Y166337
X55825Y145337
X16825Y143337
X62825Y83837
X95325Y84837
X55825Y54337
X46325Y49337
X36325Y40337
X24325Y64837
X146482Y34180
X146482Y29219
X146305Y24967
X156825Y31837
X180825Y25837
X208825Y34337
X235325Y21337
X238325Y45837
X221325Y51837
X238825Y59337
X221325Y77837
X239825Y122337
X258825Y132837
X249325Y145337
X251825Y149837
X230825Y143337
X207325Y142837
X262325Y163337
X296325Y165837
X297325Y133337
X297325Y101837
X297325Y56337
T02
X221423Y77763
T03
X215644Y100837
X18006Y86074
X18006Y115601
T04
X164825Y149337
X174825Y149337
T05
X135297Y43837
X125297Y43837
X115297Y43837
X115297Y33837
X125297Y33837
X135297Y33837
T06
X87325Y93837
X73325Y93837
X73325Y107837
X87325Y107837
T07
X174325Y127337
X200825Y100837
X230575Y90837
X230575Y110837
X174325Y74337
T08
X20636Y26148
X20636Y160007
X87565Y160007
X292289Y85203
X292289Y26148
M30
