M48
;GenerationSoftware,Autodesk,EAGLE,9.6.2*%
;CreationDate,2020-12-03T16:26:34Z*%
FMAT,2
ICI,OFF
METRIC,TZ,000.000
T10C0.399
T9C0.400
T8C1.016
T7C1.100
T6C1.270
T5C1.300
T4C1.499
T3C1.600
T2C2.300
T1C3.100
%
G90
M71
T1
X6000Y6000
X5000Y94000
X95000Y94000
X94000Y6000
T2
X19645Y25910
X47645Y25910
X3079Y23647
T3
X74041Y14859
T4
X94653Y75165
X94653Y68155
T5
X7579Y23647
X10579Y18947
X4445Y44931
X4445Y39931
X13579Y23647
T6
X84129Y3341
T7
X35040Y88730
X87540Y88730
X85000Y91270
X85000Y88730
X52959Y14859
X82460Y91270
X82460Y88730
X87540Y78270
X87540Y75730
X85000Y78270
X85000Y75730
X82460Y78270
X82460Y75730
X52540Y91270
X52540Y88730
X50000Y91270
X50000Y88730
X47460Y91270
X47460Y88730
X52540Y78270
X52540Y75730
X50000Y78270
X50000Y75730
X47460Y78270
X47460Y75730
X35040Y91270
X17540Y91270
X17540Y88730
X15000Y91270
X15000Y88730
X12460Y91270
X12460Y88730
X17540Y78270
X17540Y75730
X15000Y78270
X15000Y75730
X12460Y78270
X12460Y75730
X67500Y91270
X32500Y91270
X32500Y88730
X29960Y91270
X29960Y88730
X35040Y78270
X35040Y75730
X32500Y78270
X32500Y75730
X29960Y78270
X29960Y75730
X70040Y91270
X70040Y88730
X67500Y88730
X64960Y91270
X64960Y88730
X70040Y78270
X70040Y75730
X67500Y78270
X67500Y75730
X64960Y78270
X64960Y75730
X87540Y91270
T8
X78435Y35160
X27305Y26670
X27305Y24130
X29845Y24130
X32385Y26670
X32385Y24130
X34925Y26670
X34925Y24130
X37465Y26670
X37465Y24130
X40005Y26670
X40005Y24130
X97142Y69399
X97142Y73920
X29845Y26670
X61379Y43637
X61379Y41097
X61379Y38557
X61379Y36017
X53086Y43637
X53086Y41097
X53086Y38557
X53086Y36017
X28169Y34360
X46190Y59000
X48730Y59000
X51270Y59000
X53810Y59000
X30709Y34360
X86929Y5491
X81329Y5491
X75895Y35160
T9
X19602Y17424
X16802Y14935
X18047Y15246
X30804Y41072
X30804Y39205
X28937Y37649
X26448Y36716
X24581Y36716
X24581Y34227
X42939Y26759
X74365Y44494
X94901Y42939
X74365Y42316
X92412Y42628
X89186Y15240
X89186Y19018
X87433Y15557
X85255Y23336
X78721Y24270
X43872Y19291
X45117Y19291
X46672Y19291
X48228Y19291
X67208Y25825
X57252Y44806
X57252Y43250
X97390Y55074
X97079Y53518
X63163Y49473
X50095Y47606
X46361Y41694
X88367Y25514
X93967Y24892
X74987Y49473
X74987Y55074
X39764Y10319
X45117Y14935
X38271Y5290
X45490Y10361
X27692Y14313
X21687Y9989
X28315Y9957
X20225Y5290
X16802Y38271
X29248Y44494
X61919Y15869
X52273Y22092
X72498Y27070
X62852Y4045
X73743Y28937
X69075Y28937
X56318Y16180
X51029Y23025
X72809Y24270
X57252Y24892
X58496Y13691
X53829Y12757
X84633Y40761
X76232Y28315
X84944Y51962
X76543Y50095
X59118Y33915
X51029Y34538
X39827Y33293
X40138Y36716
X79966Y39827
X97390Y33293
X29870Y31426
X30804Y21781
X53207Y28003
X57874Y32671
X94278Y55385
X91167Y63786
X64719Y4667
X63881Y15653
X65653Y63163
X56629Y64719
X66897Y60674
X68453Y62541
X43872Y53829
X12446Y59118
X16180Y60985
X33293Y59430
X28608Y63488
X19584Y63584
X59118Y62852
X54140Y62852
X48851Y51340
X64097Y62230
X41072Y50717
X15557Y56940
X18358Y60674
X24270Y59430
X12135Y28003
X12135Y26448
X8090Y46672
X8090Y43561
X933Y46672
X933Y43250
X9957Y27070
X6534Y27070
X6534Y18669
X6845Y41383
X6845Y38271
X17736Y93967
X35160Y93967
X52584Y93967
X70009Y93967
X87744Y93967
X21469Y93967
X39516Y93967
X56629Y93967
X74365Y93967
X46050Y35782
X16802Y71565
X27381Y71565
X31737Y71253
X40138Y47606
X42628Y47606
X42628Y48851
X40138Y48851
X42939Y60985
X39205Y51962
X21158Y71565
X55696Y71876
X60052Y71876
X70942Y71565
X74365Y74054
X86500Y71565
X82766Y71565
X79654Y66897
X14935Y61608
X933Y88055
X11513Y98946
X23647Y90233
X41383Y90233
X58807Y90233
X75921Y90233
X92100Y95523
X13691Y93656
X24425Y71596
X35471Y61297
X38271Y63163
X42316Y71876
X51651Y71565
X45739Y63163
X7156Y87744
X4667Y84322
X23647Y93034
X41383Y93345
X58807Y93345
X11201Y58185
X18047Y64190
X14624Y55074
X33293Y85877
X56629Y57252
X30493Y66275
X32360Y66275
X20225Y95523
X32360Y95523
X38271Y95523
X49784Y95523
X55385Y95523
X67520Y95523
X84944Y95523
X73120Y95523
X70320Y95523
X52584Y95523
X35160Y95523
X9428Y50904
X4045Y49162
X2489Y48851
X933Y48851
X933Y50406
X2489Y50406
X30182Y82144
X37649Y72187
X82455Y81521
X90545Y73120
X92723Y79032
X41072Y55385
X88367Y71565
X39205Y55074
X93656Y58807
X91167Y60363
X36716Y49162
X46050Y66897
X51962Y66897
X42628Y65653
X14313Y66275
X9646Y66275
X36716Y39516
X36716Y41694
X33604Y49162
X36716Y44494
X36716Y47295
X33604Y46050
X38271Y65653
X23647Y60985
X97079Y84322
X65030Y66897
X70009Y66897
X70942Y63475
X76854Y63475
X82455Y63475
X5601Y63786
X6534Y55074
X26137Y59430
X50717Y61608
X60985Y65653
X52273Y63786
X14313Y96768
X29870Y96768
X47295Y96768
X64719Y96768
X82455Y96768
X4045Y58807
X12446Y81210
X8712Y79343
X9646Y88678
X27070Y88678
X44494Y88678
X61608Y88678
X78410Y88678
X4045Y60674
X33604Y60985
X79032Y16180
X95212Y21469
X96456Y14313
X81210Y21158
X91789Y16802
X96456Y48228
X95523Y24581
X74987Y48228
X66586Y46984
X88367Y65030
X95523Y54140
X92412Y20847
X88678Y23959
X82144Y37338
X84011Y28626
X83185Y12700
X85090Y12065
X81915Y13017
X87433Y12135
X84011Y22092
X24270Y18104
X24270Y16358
X24111Y12865
X23000Y11913
X21730Y12865
X20142Y12865
X42145Y17996
X37827Y13303
X39383Y13303
X42494Y13303
X41370Y12306
X6845Y33661
X6845Y32106
X8401Y29928
X8401Y32106
X8401Y33604
X8401Y35471
X13068Y35782
X14002Y30182
X15869Y35160
X13068Y48216
X59741Y15869
X67831Y14935
X51029Y8712
X50927Y13379
X48851Y17113
X24892Y20536
X83077Y35782
X90545Y32982
X92100Y33604
X97390Y31115
X92100Y90233
X9646Y48228
X12446Y52584
X83388Y48228
X42316Y28003
X43250Y32982
X44494Y34227
X73120Y46672
X71876Y46672
X70631Y46672
X69386Y46672
X68142Y46672
X82766Y46984
X85255Y46672
X86811Y46672
X88367Y63163
X98946Y65653
X42939Y41383
X41383Y42628
X41383Y40138
X39827Y41383
X1867Y14624
X1867Y11513
X1867Y8401
X5601Y1245
X31426Y3734
X33293Y3734
X25514Y3734
X25514Y5290
X33604Y18980
X35782Y18980
X66897Y22092
X64097Y22092
X91478Y67831
X56940Y50095
X70631Y57563
X66275Y57563
X64719Y41694
X46050Y39205
X71253Y39827
X68453Y37027
X83077Y53518
X52895Y2800
X72498Y2800
X57252Y40138
X49784Y32982
X46984Y23647
X51029Y28003
X30182Y17736
X28315Y29559
X42145Y16440
X53207Y32671
X97079Y46050
X98635Y51962
X21781Y19602
X38147Y57998
T10
X82144Y7156
X81521Y11201
X86500Y7156
M30