G04 EAGLE Gerber RS-274X export*
G75*
%MOMM*%
%FSLAX34Y34*%
%LPD*%
%INSolder stop mask BOTTOM*%
%IPPOS*%
%AMOC8*
5,1,8,0,0,1.08239X$1,22.5*%
G01*
%ADD10C,3.303200*%
%ADD11C,2.082800*%
%ADD12C,1.803200*%
%ADD13C,1.303200*%
%ADD14P,2.144431X8X112.500000*%
%ADD15C,2.743200*%
%ADD16C,2.153200*%
%ADD17C,2.503200*%
%ADD18C,1.727200*%
%ADD19C,1.727200*%
%ADD20C,2.108200*%
%ADD21R,2.082800X2.082800*%
%ADD22C,1.016000*%
%ADD23C,1.009600*%


D10*
X60000Y60000D03*
X50000Y940000D03*
X950000Y940000D03*
X940000Y60000D03*
D11*
X273050Y266700D03*
X273050Y241300D03*
X298450Y266700D03*
X298450Y241300D03*
X323850Y266700D03*
X323850Y241300D03*
X349250Y266700D03*
X349250Y241300D03*
X374650Y266700D03*
X374650Y241300D03*
X400050Y266700D03*
X400050Y241300D03*
D12*
X740410Y148590D03*
D13*
X529590Y148590D03*
D14*
X971423Y693992D03*
X971423Y739204D03*
D15*
X946531Y681546D03*
X946531Y751650D03*
D16*
X54200Y449307D02*
X34700Y449307D01*
X34700Y399307D02*
X54200Y399307D01*
D17*
X196450Y259100D03*
X476450Y259100D03*
D18*
X606171Y436372D02*
X621411Y436372D01*
X621411Y410972D02*
X606171Y410972D01*
X606171Y385572D02*
X621411Y385572D01*
X621411Y360172D02*
X606171Y360172D01*
X538480Y436372D02*
X523240Y436372D01*
X523240Y410972D02*
X538480Y410972D01*
X538480Y385572D02*
X523240Y385572D01*
X523240Y360172D02*
X538480Y360172D01*
D19*
X813285Y54907D03*
X869285Y54907D03*
D20*
X841285Y33407D03*
D18*
X307086Y335979D02*
X307086Y351219D01*
X281686Y351219D02*
X281686Y335979D01*
D21*
X175400Y912700D03*
D11*
X175400Y887300D03*
X150000Y912700D03*
X150000Y887300D03*
X124600Y912700D03*
X124600Y887300D03*
D21*
X175400Y782700D03*
D11*
X175400Y757300D03*
X150000Y782700D03*
X150000Y757300D03*
X124600Y782700D03*
X124600Y757300D03*
D21*
X350400Y912700D03*
D11*
X350400Y887300D03*
X325000Y912700D03*
X325000Y887300D03*
X299600Y912700D03*
X299600Y887300D03*
D21*
X350400Y782700D03*
D11*
X350400Y757300D03*
X325000Y782700D03*
X325000Y757300D03*
X299600Y782700D03*
X299600Y757300D03*
D21*
X700400Y912700D03*
D11*
X700400Y887300D03*
X675000Y912700D03*
X675000Y887300D03*
X649600Y912700D03*
X649600Y887300D03*
D21*
X700400Y782700D03*
D11*
X700400Y757300D03*
X675000Y782700D03*
X675000Y757300D03*
X649600Y782700D03*
X649600Y757300D03*
D21*
X875400Y912700D03*
D11*
X875400Y887300D03*
X850000Y912700D03*
X850000Y887300D03*
X824600Y912700D03*
X824600Y887300D03*
D21*
X875400Y782700D03*
D11*
X875400Y757300D03*
X850000Y782700D03*
X850000Y757300D03*
X824600Y782700D03*
X824600Y757300D03*
D21*
X525400Y912700D03*
D11*
X525400Y887300D03*
X500000Y912700D03*
X500000Y887300D03*
X474600Y912700D03*
X474600Y887300D03*
D21*
X525400Y782700D03*
D11*
X525400Y757300D03*
X500000Y782700D03*
X500000Y757300D03*
X474600Y782700D03*
X474600Y757300D03*
D18*
X461900Y597620D02*
X461900Y582380D01*
X487300Y582380D02*
X487300Y597620D01*
X512700Y597620D02*
X512700Y582380D01*
X538100Y582380D02*
X538100Y597620D01*
D16*
X115541Y189474D02*
X96041Y189474D01*
X75791Y226724D02*
X75791Y246224D01*
X135791Y246224D02*
X135791Y226724D01*
D17*
X30791Y236474D03*
D18*
X758952Y343980D02*
X758952Y359220D01*
X784352Y359220D02*
X784352Y343980D01*
D22*
X790321Y161798D03*
X952119Y214694D03*
X964565Y143129D03*
X812102Y211582D03*
X917893Y168021D03*
X964565Y482283D03*
X955231Y245809D03*
X749872Y482283D03*
X665861Y469837D03*
D23*
X883666Y650304D03*
X955231Y541401D03*
D22*
X924116Y208471D03*
X886778Y239586D03*
X821436Y373380D03*
D23*
X840105Y286258D03*
X831850Y127000D03*
X850900Y120650D03*
D22*
X819150Y130175D03*
X874332Y121349D03*
X840105Y220917D03*
X242697Y181039D03*
X242697Y163576D03*
X241110Y128651D03*
X229997Y119126D03*
X217297Y128651D03*
X201422Y128651D03*
X421450Y179959D03*
X378270Y133033D03*
X393827Y133033D03*
X424942Y133033D03*
X413703Y123063D03*
X68453Y336614D03*
X68453Y321056D03*
X84011Y299276D03*
X84011Y321056D03*
X84011Y336042D03*
X84011Y354711D03*
X130683Y357823D03*
X140018Y301816D03*
X158687Y351600D03*
X130683Y482156D03*
X597408Y158687D03*
X678307Y149352D03*
X510286Y87122D03*
X509270Y133795D03*
X488506Y171133D03*
X248920Y205359D03*
X830771Y357823D03*
X905447Y329819D03*
X921004Y336042D03*
X973900Y311150D03*
D23*
X96457Y482283D03*
X124460Y525844D03*
X833882Y482283D03*
X423164Y280035D03*
X460502Y357823D03*
X432499Y329819D03*
X444945Y342265D03*
X731203Y466725D03*
X718757Y466725D03*
X706311Y466725D03*
X693865Y466725D03*
X681419Y466725D03*
X827659Y469837D03*
X852551Y466725D03*
X868109Y466725D03*
X883666Y631635D03*
X989457Y656527D03*
X429387Y413830D03*
X413830Y426276D03*
X413830Y401384D03*
X398272Y413830D03*
X18669Y146241D03*
X18669Y115126D03*
X18669Y84011D03*
X56007Y12446D03*
X314262Y37338D03*
X332931Y37338D03*
X255143Y37338D03*
X255143Y52896D03*
X336042Y189802D03*
X357823Y189802D03*
X668973Y220917D03*
X640969Y220917D03*
X914781Y678307D03*
X569405Y500952D03*
X706311Y575628D03*
X662750Y575628D03*
X647192Y416941D03*
X460502Y392049D03*
X712534Y398272D03*
X684530Y370269D03*
X830771Y535178D03*
X528955Y28004D03*
X724980Y28004D03*
X572516Y401384D03*
X497840Y329819D03*
X469837Y236474D03*
X510286Y280035D03*
D22*
X301816Y177356D03*
X283147Y295593D03*
X421450Y164402D03*
D23*
X532067Y326708D03*
X970788Y460502D03*
X986346Y519621D03*
D22*
X217805Y196025D03*
X196025Y174244D03*
X168021Y149352D03*
X180467Y152464D03*
D23*
X308039Y410718D03*
X308039Y392049D03*
X289370Y376492D03*
X264478Y367157D03*
X245809Y367157D03*
X245809Y342265D03*
X429387Y267589D03*
D22*
X743649Y444945D03*
X949008Y429387D03*
X743649Y423164D03*
X924116Y426276D03*
X891858Y152400D03*
X891858Y190183D03*
X874332Y155575D03*
X852551Y233363D03*
X787210Y242697D03*
X438722Y192913D03*
X451168Y192913D03*
X466725Y192913D03*
X482283Y192913D03*
X672084Y258255D03*
D23*
X572516Y448056D03*
X572516Y432499D03*
X973900Y550736D03*
X970788Y535178D03*
X631635Y494729D03*
X500952Y476060D03*
X463614Y416941D03*
D22*
X821436Y71565D03*
X864997Y71565D03*
X815213Y112014D03*
X883666Y255143D03*
X939673Y248920D03*
X749872Y494729D03*
X749872Y550736D03*
X397637Y103188D03*
X451168Y149352D03*
X382715Y52896D03*
X454901Y103613D03*
X276924Y143129D03*
X216872Y99886D03*
X283147Y99568D03*
X202248Y52896D03*
X168021Y382715D03*
X292481Y444945D03*
X619189Y158687D03*
X522732Y220917D03*
X724980Y270701D03*
D23*
X628523Y40450D03*
D22*
X737426Y289370D03*
X690753Y289370D03*
X563182Y161798D03*
X510286Y230251D03*
X728091Y242697D03*
X572516Y248920D03*
D23*
X584962Y136906D03*
X538290Y127572D03*
X846328Y407607D03*
X762318Y283147D03*
X849440Y519621D03*
X765429Y500952D03*
X591185Y339154D03*
X510286Y345377D03*
X398272Y332931D03*
X401384Y367157D03*
D22*
X799656Y398272D03*
X973900Y332931D03*
X298704Y314262D03*
X308039Y217805D03*
X532067Y280035D03*
X578739Y326708D03*
D23*
X942785Y553847D03*
X911670Y637858D03*
X647192Y46673D03*
X638810Y156528D03*
X656527Y631635D03*
X566293Y647192D03*
X668973Y606743D03*
X684530Y625412D03*
X438722Y538290D03*
X124460Y591185D03*
X161798Y609854D03*
X332931Y594297D03*
D22*
X286080Y634880D03*
X195840Y635840D03*
D23*
X591185Y628523D03*
X541401Y628523D03*
X488506Y513398D03*
X640969Y622300D03*
X410718Y507175D03*
X155575Y569405D03*
X183579Y606743D03*
X242697Y594297D03*
D22*
X121349Y280035D03*
X121349Y264478D03*
X80899Y466725D03*
X80899Y435610D03*
X9335Y466725D03*
X9335Y432499D03*
X99568Y270701D03*
X65342Y270701D03*
X65342Y186690D03*
X68453Y413830D03*
X68453Y382715D03*
D23*
X177356Y939673D03*
X351600Y939673D03*
X525844Y939673D03*
X700088Y939673D03*
X877443Y939673D03*
X214694Y939673D03*
X395161Y939673D03*
X566293Y939673D03*
X743649Y939673D03*
X921004Y902335D03*
X168021Y715645D03*
X273812Y715645D03*
X317373Y712534D03*
X401384Y476060D03*
X426276Y476060D03*
X426276Y488506D03*
X401384Y488506D03*
X429387Y609854D03*
X392049Y519621D03*
X211582Y715645D03*
X556959Y718757D03*
X600520Y718757D03*
X709422Y715645D03*
X743649Y740537D03*
X864997Y715645D03*
X827659Y715645D03*
X796544Y668973D03*
X149352Y616077D03*
X9335Y880555D03*
X115126Y989457D03*
X236474Y902335D03*
X413830Y902335D03*
X588074Y902335D03*
X759206Y902335D03*
X921004Y955231D03*
X136906Y936562D03*
X244253Y715956D03*
X354711Y612966D03*
X382715Y631635D03*
X423164Y718757D03*
X516509Y715645D03*
X457391Y631635D03*
X71565Y877443D03*
X46673Y843217D03*
X236474Y930339D03*
X413830Y933450D03*
X588074Y933450D03*
X112014Y581851D03*
X180467Y641902D03*
X146241Y550736D03*
X332931Y858774D03*
X566293Y572516D03*
X304927Y662750D03*
X323596Y662750D03*
X202248Y955231D03*
X323596Y955231D03*
X382715Y955231D03*
X497840Y955231D03*
X553847Y955231D03*
X675196Y955231D03*
X849440Y955231D03*
X731203Y955231D03*
X703199Y955231D03*
X525844Y955231D03*
X351600Y955231D03*
X94278Y509041D03*
X40450Y491617D03*
X24892Y488506D03*
X9335Y488506D03*
X9335Y504063D03*
X24892Y504063D03*
X301816Y821436D03*
X376492Y721868D03*
X824548Y815213D03*
X905447Y731203D03*
X927227Y790321D03*
X410718Y553847D03*
X883666Y715645D03*
X392049Y550736D03*
X936562Y588074D03*
X911670Y603631D03*
X367157Y491617D03*
X460502Y668973D03*
X519621Y668973D03*
X426276Y656527D03*
X143129Y662750D03*
X96457Y662750D03*
X367157Y395161D03*
X367157Y416941D03*
X336042Y491617D03*
X367157Y444945D03*
X367157Y472948D03*
X336042Y460502D03*
X382715Y656527D03*
X236474Y609854D03*
X970788Y843217D03*
X650304Y668973D03*
X700088Y668973D03*
X709422Y634746D03*
X768541Y634746D03*
X824548Y634746D03*
X56007Y637858D03*
X65342Y550736D03*
X261366Y594297D03*
X507175Y616077D03*
X609854Y656527D03*
X522732Y637858D03*
X143129Y967677D03*
X298704Y967677D03*
X472948Y967677D03*
X647192Y967677D03*
X824548Y967677D03*
X40450Y588074D03*
X124460Y812102D03*
X87122Y793433D03*
X96457Y886778D03*
X270701Y886778D03*
X444945Y886778D03*
X616077Y886778D03*
X784098Y886778D03*
X40450Y606743D03*
X381470Y579984D03*
X336042Y609854D03*
M02*
