G04 EAGLE Gerber RS-274X export*
G75*
%MOMM*%
%FSLAX34Y34*%
%LPD*%
%INSilk BOTTOM*%
%IPPOS*%
%AMOC8*
5,1,8,0,0,1.08239X$1,22.5*%
G01*
%ADD10C,0.000000*%
%ADD11C,0.152400*%
%ADD12C,0.304800*%
%ADD13C,0.203200*%
%ADD14R,0.508000X0.508000*%
%ADD15C,0.127000*%
%ADD16C,0.101600*%


D10*
X0Y0D02*
X1000000Y0D01*
X1000000Y1000000D01*
X0Y1000000D01*
X0Y0D01*
X44500Y60000D02*
X44505Y60380D01*
X44519Y60761D01*
X44542Y61140D01*
X44575Y61519D01*
X44617Y61897D01*
X44668Y62274D01*
X44728Y62650D01*
X44798Y63024D01*
X44877Y63396D01*
X44965Y63766D01*
X45061Y64134D01*
X45167Y64499D01*
X45282Y64862D01*
X45406Y65222D01*
X45539Y65578D01*
X45680Y65932D01*
X45830Y66281D01*
X45988Y66627D01*
X46155Y66969D01*
X46330Y67307D01*
X46514Y67640D01*
X46705Y67969D01*
X46905Y68292D01*
X47112Y68611D01*
X47327Y68925D01*
X47550Y69233D01*
X47781Y69536D01*
X48018Y69833D01*
X48263Y70124D01*
X48515Y70409D01*
X48774Y70688D01*
X49040Y70960D01*
X49312Y71226D01*
X49591Y71485D01*
X49876Y71737D01*
X50167Y71982D01*
X50464Y72219D01*
X50767Y72450D01*
X51075Y72673D01*
X51389Y72888D01*
X51708Y73095D01*
X52031Y73295D01*
X52360Y73486D01*
X52693Y73670D01*
X53031Y73845D01*
X53373Y74012D01*
X53719Y74170D01*
X54068Y74320D01*
X54422Y74461D01*
X54778Y74594D01*
X55138Y74718D01*
X55501Y74833D01*
X55866Y74939D01*
X56234Y75035D01*
X56604Y75123D01*
X56976Y75202D01*
X57350Y75272D01*
X57726Y75332D01*
X58103Y75383D01*
X58481Y75425D01*
X58860Y75458D01*
X59239Y75481D01*
X59620Y75495D01*
X60000Y75500D01*
X60380Y75495D01*
X60761Y75481D01*
X61140Y75458D01*
X61519Y75425D01*
X61897Y75383D01*
X62274Y75332D01*
X62650Y75272D01*
X63024Y75202D01*
X63396Y75123D01*
X63766Y75035D01*
X64134Y74939D01*
X64499Y74833D01*
X64862Y74718D01*
X65222Y74594D01*
X65578Y74461D01*
X65932Y74320D01*
X66281Y74170D01*
X66627Y74012D01*
X66969Y73845D01*
X67307Y73670D01*
X67640Y73486D01*
X67969Y73295D01*
X68292Y73095D01*
X68611Y72888D01*
X68925Y72673D01*
X69233Y72450D01*
X69536Y72219D01*
X69833Y71982D01*
X70124Y71737D01*
X70409Y71485D01*
X70688Y71226D01*
X70960Y70960D01*
X71226Y70688D01*
X71485Y70409D01*
X71737Y70124D01*
X71982Y69833D01*
X72219Y69536D01*
X72450Y69233D01*
X72673Y68925D01*
X72888Y68611D01*
X73095Y68292D01*
X73295Y67969D01*
X73486Y67640D01*
X73670Y67307D01*
X73845Y66969D01*
X74012Y66627D01*
X74170Y66281D01*
X74320Y65932D01*
X74461Y65578D01*
X74594Y65222D01*
X74718Y64862D01*
X74833Y64499D01*
X74939Y64134D01*
X75035Y63766D01*
X75123Y63396D01*
X75202Y63024D01*
X75272Y62650D01*
X75332Y62274D01*
X75383Y61897D01*
X75425Y61519D01*
X75458Y61140D01*
X75481Y60761D01*
X75495Y60380D01*
X75500Y60000D01*
X75495Y59620D01*
X75481Y59239D01*
X75458Y58860D01*
X75425Y58481D01*
X75383Y58103D01*
X75332Y57726D01*
X75272Y57350D01*
X75202Y56976D01*
X75123Y56604D01*
X75035Y56234D01*
X74939Y55866D01*
X74833Y55501D01*
X74718Y55138D01*
X74594Y54778D01*
X74461Y54422D01*
X74320Y54068D01*
X74170Y53719D01*
X74012Y53373D01*
X73845Y53031D01*
X73670Y52693D01*
X73486Y52360D01*
X73295Y52031D01*
X73095Y51708D01*
X72888Y51389D01*
X72673Y51075D01*
X72450Y50767D01*
X72219Y50464D01*
X71982Y50167D01*
X71737Y49876D01*
X71485Y49591D01*
X71226Y49312D01*
X70960Y49040D01*
X70688Y48774D01*
X70409Y48515D01*
X70124Y48263D01*
X69833Y48018D01*
X69536Y47781D01*
X69233Y47550D01*
X68925Y47327D01*
X68611Y47112D01*
X68292Y46905D01*
X67969Y46705D01*
X67640Y46514D01*
X67307Y46330D01*
X66969Y46155D01*
X66627Y45988D01*
X66281Y45830D01*
X65932Y45680D01*
X65578Y45539D01*
X65222Y45406D01*
X64862Y45282D01*
X64499Y45167D01*
X64134Y45061D01*
X63766Y44965D01*
X63396Y44877D01*
X63024Y44798D01*
X62650Y44728D01*
X62274Y44668D01*
X61897Y44617D01*
X61519Y44575D01*
X61140Y44542D01*
X60761Y44519D01*
X60380Y44505D01*
X60000Y44500D01*
X59620Y44505D01*
X59239Y44519D01*
X58860Y44542D01*
X58481Y44575D01*
X58103Y44617D01*
X57726Y44668D01*
X57350Y44728D01*
X56976Y44798D01*
X56604Y44877D01*
X56234Y44965D01*
X55866Y45061D01*
X55501Y45167D01*
X55138Y45282D01*
X54778Y45406D01*
X54422Y45539D01*
X54068Y45680D01*
X53719Y45830D01*
X53373Y45988D01*
X53031Y46155D01*
X52693Y46330D01*
X52360Y46514D01*
X52031Y46705D01*
X51708Y46905D01*
X51389Y47112D01*
X51075Y47327D01*
X50767Y47550D01*
X50464Y47781D01*
X50167Y48018D01*
X49876Y48263D01*
X49591Y48515D01*
X49312Y48774D01*
X49040Y49040D01*
X48774Y49312D01*
X48515Y49591D01*
X48263Y49876D01*
X48018Y50167D01*
X47781Y50464D01*
X47550Y50767D01*
X47327Y51075D01*
X47112Y51389D01*
X46905Y51708D01*
X46705Y52031D01*
X46514Y52360D01*
X46330Y52693D01*
X46155Y53031D01*
X45988Y53373D01*
X45830Y53719D01*
X45680Y54068D01*
X45539Y54422D01*
X45406Y54778D01*
X45282Y55138D01*
X45167Y55501D01*
X45061Y55866D01*
X44965Y56234D01*
X44877Y56604D01*
X44798Y56976D01*
X44728Y57350D01*
X44668Y57726D01*
X44617Y58103D01*
X44575Y58481D01*
X44542Y58860D01*
X44519Y59239D01*
X44505Y59620D01*
X44500Y60000D01*
X34500Y940000D02*
X34505Y940380D01*
X34519Y940761D01*
X34542Y941140D01*
X34575Y941519D01*
X34617Y941897D01*
X34668Y942274D01*
X34728Y942650D01*
X34798Y943024D01*
X34877Y943396D01*
X34965Y943766D01*
X35061Y944134D01*
X35167Y944499D01*
X35282Y944862D01*
X35406Y945222D01*
X35539Y945578D01*
X35680Y945932D01*
X35830Y946281D01*
X35988Y946627D01*
X36155Y946969D01*
X36330Y947307D01*
X36514Y947640D01*
X36705Y947969D01*
X36905Y948292D01*
X37112Y948611D01*
X37327Y948925D01*
X37550Y949233D01*
X37781Y949536D01*
X38018Y949833D01*
X38263Y950124D01*
X38515Y950409D01*
X38774Y950688D01*
X39040Y950960D01*
X39312Y951226D01*
X39591Y951485D01*
X39876Y951737D01*
X40167Y951982D01*
X40464Y952219D01*
X40767Y952450D01*
X41075Y952673D01*
X41389Y952888D01*
X41708Y953095D01*
X42031Y953295D01*
X42360Y953486D01*
X42693Y953670D01*
X43031Y953845D01*
X43373Y954012D01*
X43719Y954170D01*
X44068Y954320D01*
X44422Y954461D01*
X44778Y954594D01*
X45138Y954718D01*
X45501Y954833D01*
X45866Y954939D01*
X46234Y955035D01*
X46604Y955123D01*
X46976Y955202D01*
X47350Y955272D01*
X47726Y955332D01*
X48103Y955383D01*
X48481Y955425D01*
X48860Y955458D01*
X49239Y955481D01*
X49620Y955495D01*
X50000Y955500D01*
X50380Y955495D01*
X50761Y955481D01*
X51140Y955458D01*
X51519Y955425D01*
X51897Y955383D01*
X52274Y955332D01*
X52650Y955272D01*
X53024Y955202D01*
X53396Y955123D01*
X53766Y955035D01*
X54134Y954939D01*
X54499Y954833D01*
X54862Y954718D01*
X55222Y954594D01*
X55578Y954461D01*
X55932Y954320D01*
X56281Y954170D01*
X56627Y954012D01*
X56969Y953845D01*
X57307Y953670D01*
X57640Y953486D01*
X57969Y953295D01*
X58292Y953095D01*
X58611Y952888D01*
X58925Y952673D01*
X59233Y952450D01*
X59536Y952219D01*
X59833Y951982D01*
X60124Y951737D01*
X60409Y951485D01*
X60688Y951226D01*
X60960Y950960D01*
X61226Y950688D01*
X61485Y950409D01*
X61737Y950124D01*
X61982Y949833D01*
X62219Y949536D01*
X62450Y949233D01*
X62673Y948925D01*
X62888Y948611D01*
X63095Y948292D01*
X63295Y947969D01*
X63486Y947640D01*
X63670Y947307D01*
X63845Y946969D01*
X64012Y946627D01*
X64170Y946281D01*
X64320Y945932D01*
X64461Y945578D01*
X64594Y945222D01*
X64718Y944862D01*
X64833Y944499D01*
X64939Y944134D01*
X65035Y943766D01*
X65123Y943396D01*
X65202Y943024D01*
X65272Y942650D01*
X65332Y942274D01*
X65383Y941897D01*
X65425Y941519D01*
X65458Y941140D01*
X65481Y940761D01*
X65495Y940380D01*
X65500Y940000D01*
X65495Y939620D01*
X65481Y939239D01*
X65458Y938860D01*
X65425Y938481D01*
X65383Y938103D01*
X65332Y937726D01*
X65272Y937350D01*
X65202Y936976D01*
X65123Y936604D01*
X65035Y936234D01*
X64939Y935866D01*
X64833Y935501D01*
X64718Y935138D01*
X64594Y934778D01*
X64461Y934422D01*
X64320Y934068D01*
X64170Y933719D01*
X64012Y933373D01*
X63845Y933031D01*
X63670Y932693D01*
X63486Y932360D01*
X63295Y932031D01*
X63095Y931708D01*
X62888Y931389D01*
X62673Y931075D01*
X62450Y930767D01*
X62219Y930464D01*
X61982Y930167D01*
X61737Y929876D01*
X61485Y929591D01*
X61226Y929312D01*
X60960Y929040D01*
X60688Y928774D01*
X60409Y928515D01*
X60124Y928263D01*
X59833Y928018D01*
X59536Y927781D01*
X59233Y927550D01*
X58925Y927327D01*
X58611Y927112D01*
X58292Y926905D01*
X57969Y926705D01*
X57640Y926514D01*
X57307Y926330D01*
X56969Y926155D01*
X56627Y925988D01*
X56281Y925830D01*
X55932Y925680D01*
X55578Y925539D01*
X55222Y925406D01*
X54862Y925282D01*
X54499Y925167D01*
X54134Y925061D01*
X53766Y924965D01*
X53396Y924877D01*
X53024Y924798D01*
X52650Y924728D01*
X52274Y924668D01*
X51897Y924617D01*
X51519Y924575D01*
X51140Y924542D01*
X50761Y924519D01*
X50380Y924505D01*
X50000Y924500D01*
X49620Y924505D01*
X49239Y924519D01*
X48860Y924542D01*
X48481Y924575D01*
X48103Y924617D01*
X47726Y924668D01*
X47350Y924728D01*
X46976Y924798D01*
X46604Y924877D01*
X46234Y924965D01*
X45866Y925061D01*
X45501Y925167D01*
X45138Y925282D01*
X44778Y925406D01*
X44422Y925539D01*
X44068Y925680D01*
X43719Y925830D01*
X43373Y925988D01*
X43031Y926155D01*
X42693Y926330D01*
X42360Y926514D01*
X42031Y926705D01*
X41708Y926905D01*
X41389Y927112D01*
X41075Y927327D01*
X40767Y927550D01*
X40464Y927781D01*
X40167Y928018D01*
X39876Y928263D01*
X39591Y928515D01*
X39312Y928774D01*
X39040Y929040D01*
X38774Y929312D01*
X38515Y929591D01*
X38263Y929876D01*
X38018Y930167D01*
X37781Y930464D01*
X37550Y930767D01*
X37327Y931075D01*
X37112Y931389D01*
X36905Y931708D01*
X36705Y932031D01*
X36514Y932360D01*
X36330Y932693D01*
X36155Y933031D01*
X35988Y933373D01*
X35830Y933719D01*
X35680Y934068D01*
X35539Y934422D01*
X35406Y934778D01*
X35282Y935138D01*
X35167Y935501D01*
X35061Y935866D01*
X34965Y936234D01*
X34877Y936604D01*
X34798Y936976D01*
X34728Y937350D01*
X34668Y937726D01*
X34617Y938103D01*
X34575Y938481D01*
X34542Y938860D01*
X34519Y939239D01*
X34505Y939620D01*
X34500Y940000D01*
X934500Y940000D02*
X934505Y940380D01*
X934519Y940761D01*
X934542Y941140D01*
X934575Y941519D01*
X934617Y941897D01*
X934668Y942274D01*
X934728Y942650D01*
X934798Y943024D01*
X934877Y943396D01*
X934965Y943766D01*
X935061Y944134D01*
X935167Y944499D01*
X935282Y944862D01*
X935406Y945222D01*
X935539Y945578D01*
X935680Y945932D01*
X935830Y946281D01*
X935988Y946627D01*
X936155Y946969D01*
X936330Y947307D01*
X936514Y947640D01*
X936705Y947969D01*
X936905Y948292D01*
X937112Y948611D01*
X937327Y948925D01*
X937550Y949233D01*
X937781Y949536D01*
X938018Y949833D01*
X938263Y950124D01*
X938515Y950409D01*
X938774Y950688D01*
X939040Y950960D01*
X939312Y951226D01*
X939591Y951485D01*
X939876Y951737D01*
X940167Y951982D01*
X940464Y952219D01*
X940767Y952450D01*
X941075Y952673D01*
X941389Y952888D01*
X941708Y953095D01*
X942031Y953295D01*
X942360Y953486D01*
X942693Y953670D01*
X943031Y953845D01*
X943373Y954012D01*
X943719Y954170D01*
X944068Y954320D01*
X944422Y954461D01*
X944778Y954594D01*
X945138Y954718D01*
X945501Y954833D01*
X945866Y954939D01*
X946234Y955035D01*
X946604Y955123D01*
X946976Y955202D01*
X947350Y955272D01*
X947726Y955332D01*
X948103Y955383D01*
X948481Y955425D01*
X948860Y955458D01*
X949239Y955481D01*
X949620Y955495D01*
X950000Y955500D01*
X950380Y955495D01*
X950761Y955481D01*
X951140Y955458D01*
X951519Y955425D01*
X951897Y955383D01*
X952274Y955332D01*
X952650Y955272D01*
X953024Y955202D01*
X953396Y955123D01*
X953766Y955035D01*
X954134Y954939D01*
X954499Y954833D01*
X954862Y954718D01*
X955222Y954594D01*
X955578Y954461D01*
X955932Y954320D01*
X956281Y954170D01*
X956627Y954012D01*
X956969Y953845D01*
X957307Y953670D01*
X957640Y953486D01*
X957969Y953295D01*
X958292Y953095D01*
X958611Y952888D01*
X958925Y952673D01*
X959233Y952450D01*
X959536Y952219D01*
X959833Y951982D01*
X960124Y951737D01*
X960409Y951485D01*
X960688Y951226D01*
X960960Y950960D01*
X961226Y950688D01*
X961485Y950409D01*
X961737Y950124D01*
X961982Y949833D01*
X962219Y949536D01*
X962450Y949233D01*
X962673Y948925D01*
X962888Y948611D01*
X963095Y948292D01*
X963295Y947969D01*
X963486Y947640D01*
X963670Y947307D01*
X963845Y946969D01*
X964012Y946627D01*
X964170Y946281D01*
X964320Y945932D01*
X964461Y945578D01*
X964594Y945222D01*
X964718Y944862D01*
X964833Y944499D01*
X964939Y944134D01*
X965035Y943766D01*
X965123Y943396D01*
X965202Y943024D01*
X965272Y942650D01*
X965332Y942274D01*
X965383Y941897D01*
X965425Y941519D01*
X965458Y941140D01*
X965481Y940761D01*
X965495Y940380D01*
X965500Y940000D01*
X965495Y939620D01*
X965481Y939239D01*
X965458Y938860D01*
X965425Y938481D01*
X965383Y938103D01*
X965332Y937726D01*
X965272Y937350D01*
X965202Y936976D01*
X965123Y936604D01*
X965035Y936234D01*
X964939Y935866D01*
X964833Y935501D01*
X964718Y935138D01*
X964594Y934778D01*
X964461Y934422D01*
X964320Y934068D01*
X964170Y933719D01*
X964012Y933373D01*
X963845Y933031D01*
X963670Y932693D01*
X963486Y932360D01*
X963295Y932031D01*
X963095Y931708D01*
X962888Y931389D01*
X962673Y931075D01*
X962450Y930767D01*
X962219Y930464D01*
X961982Y930167D01*
X961737Y929876D01*
X961485Y929591D01*
X961226Y929312D01*
X960960Y929040D01*
X960688Y928774D01*
X960409Y928515D01*
X960124Y928263D01*
X959833Y928018D01*
X959536Y927781D01*
X959233Y927550D01*
X958925Y927327D01*
X958611Y927112D01*
X958292Y926905D01*
X957969Y926705D01*
X957640Y926514D01*
X957307Y926330D01*
X956969Y926155D01*
X956627Y925988D01*
X956281Y925830D01*
X955932Y925680D01*
X955578Y925539D01*
X955222Y925406D01*
X954862Y925282D01*
X954499Y925167D01*
X954134Y925061D01*
X953766Y924965D01*
X953396Y924877D01*
X953024Y924798D01*
X952650Y924728D01*
X952274Y924668D01*
X951897Y924617D01*
X951519Y924575D01*
X951140Y924542D01*
X950761Y924519D01*
X950380Y924505D01*
X950000Y924500D01*
X949620Y924505D01*
X949239Y924519D01*
X948860Y924542D01*
X948481Y924575D01*
X948103Y924617D01*
X947726Y924668D01*
X947350Y924728D01*
X946976Y924798D01*
X946604Y924877D01*
X946234Y924965D01*
X945866Y925061D01*
X945501Y925167D01*
X945138Y925282D01*
X944778Y925406D01*
X944422Y925539D01*
X944068Y925680D01*
X943719Y925830D01*
X943373Y925988D01*
X943031Y926155D01*
X942693Y926330D01*
X942360Y926514D01*
X942031Y926705D01*
X941708Y926905D01*
X941389Y927112D01*
X941075Y927327D01*
X940767Y927550D01*
X940464Y927781D01*
X940167Y928018D01*
X939876Y928263D01*
X939591Y928515D01*
X939312Y928774D01*
X939040Y929040D01*
X938774Y929312D01*
X938515Y929591D01*
X938263Y929876D01*
X938018Y930167D01*
X937781Y930464D01*
X937550Y930767D01*
X937327Y931075D01*
X937112Y931389D01*
X936905Y931708D01*
X936705Y932031D01*
X936514Y932360D01*
X936330Y932693D01*
X936155Y933031D01*
X935988Y933373D01*
X935830Y933719D01*
X935680Y934068D01*
X935539Y934422D01*
X935406Y934778D01*
X935282Y935138D01*
X935167Y935501D01*
X935061Y935866D01*
X934965Y936234D01*
X934877Y936604D01*
X934798Y936976D01*
X934728Y937350D01*
X934668Y937726D01*
X934617Y938103D01*
X934575Y938481D01*
X934542Y938860D01*
X934519Y939239D01*
X934505Y939620D01*
X934500Y940000D01*
X924500Y60000D02*
X924505Y60380D01*
X924519Y60761D01*
X924542Y61140D01*
X924575Y61519D01*
X924617Y61897D01*
X924668Y62274D01*
X924728Y62650D01*
X924798Y63024D01*
X924877Y63396D01*
X924965Y63766D01*
X925061Y64134D01*
X925167Y64499D01*
X925282Y64862D01*
X925406Y65222D01*
X925539Y65578D01*
X925680Y65932D01*
X925830Y66281D01*
X925988Y66627D01*
X926155Y66969D01*
X926330Y67307D01*
X926514Y67640D01*
X926705Y67969D01*
X926905Y68292D01*
X927112Y68611D01*
X927327Y68925D01*
X927550Y69233D01*
X927781Y69536D01*
X928018Y69833D01*
X928263Y70124D01*
X928515Y70409D01*
X928774Y70688D01*
X929040Y70960D01*
X929312Y71226D01*
X929591Y71485D01*
X929876Y71737D01*
X930167Y71982D01*
X930464Y72219D01*
X930767Y72450D01*
X931075Y72673D01*
X931389Y72888D01*
X931708Y73095D01*
X932031Y73295D01*
X932360Y73486D01*
X932693Y73670D01*
X933031Y73845D01*
X933373Y74012D01*
X933719Y74170D01*
X934068Y74320D01*
X934422Y74461D01*
X934778Y74594D01*
X935138Y74718D01*
X935501Y74833D01*
X935866Y74939D01*
X936234Y75035D01*
X936604Y75123D01*
X936976Y75202D01*
X937350Y75272D01*
X937726Y75332D01*
X938103Y75383D01*
X938481Y75425D01*
X938860Y75458D01*
X939239Y75481D01*
X939620Y75495D01*
X940000Y75500D01*
X940380Y75495D01*
X940761Y75481D01*
X941140Y75458D01*
X941519Y75425D01*
X941897Y75383D01*
X942274Y75332D01*
X942650Y75272D01*
X943024Y75202D01*
X943396Y75123D01*
X943766Y75035D01*
X944134Y74939D01*
X944499Y74833D01*
X944862Y74718D01*
X945222Y74594D01*
X945578Y74461D01*
X945932Y74320D01*
X946281Y74170D01*
X946627Y74012D01*
X946969Y73845D01*
X947307Y73670D01*
X947640Y73486D01*
X947969Y73295D01*
X948292Y73095D01*
X948611Y72888D01*
X948925Y72673D01*
X949233Y72450D01*
X949536Y72219D01*
X949833Y71982D01*
X950124Y71737D01*
X950409Y71485D01*
X950688Y71226D01*
X950960Y70960D01*
X951226Y70688D01*
X951485Y70409D01*
X951737Y70124D01*
X951982Y69833D01*
X952219Y69536D01*
X952450Y69233D01*
X952673Y68925D01*
X952888Y68611D01*
X953095Y68292D01*
X953295Y67969D01*
X953486Y67640D01*
X953670Y67307D01*
X953845Y66969D01*
X954012Y66627D01*
X954170Y66281D01*
X954320Y65932D01*
X954461Y65578D01*
X954594Y65222D01*
X954718Y64862D01*
X954833Y64499D01*
X954939Y64134D01*
X955035Y63766D01*
X955123Y63396D01*
X955202Y63024D01*
X955272Y62650D01*
X955332Y62274D01*
X955383Y61897D01*
X955425Y61519D01*
X955458Y61140D01*
X955481Y60761D01*
X955495Y60380D01*
X955500Y60000D01*
X955495Y59620D01*
X955481Y59239D01*
X955458Y58860D01*
X955425Y58481D01*
X955383Y58103D01*
X955332Y57726D01*
X955272Y57350D01*
X955202Y56976D01*
X955123Y56604D01*
X955035Y56234D01*
X954939Y55866D01*
X954833Y55501D01*
X954718Y55138D01*
X954594Y54778D01*
X954461Y54422D01*
X954320Y54068D01*
X954170Y53719D01*
X954012Y53373D01*
X953845Y53031D01*
X953670Y52693D01*
X953486Y52360D01*
X953295Y52031D01*
X953095Y51708D01*
X952888Y51389D01*
X952673Y51075D01*
X952450Y50767D01*
X952219Y50464D01*
X951982Y50167D01*
X951737Y49876D01*
X951485Y49591D01*
X951226Y49312D01*
X950960Y49040D01*
X950688Y48774D01*
X950409Y48515D01*
X950124Y48263D01*
X949833Y48018D01*
X949536Y47781D01*
X949233Y47550D01*
X948925Y47327D01*
X948611Y47112D01*
X948292Y46905D01*
X947969Y46705D01*
X947640Y46514D01*
X947307Y46330D01*
X946969Y46155D01*
X946627Y45988D01*
X946281Y45830D01*
X945932Y45680D01*
X945578Y45539D01*
X945222Y45406D01*
X944862Y45282D01*
X944499Y45167D01*
X944134Y45061D01*
X943766Y44965D01*
X943396Y44877D01*
X943024Y44798D01*
X942650Y44728D01*
X942274Y44668D01*
X941897Y44617D01*
X941519Y44575D01*
X941140Y44542D01*
X940761Y44519D01*
X940380Y44505D01*
X940000Y44500D01*
X939620Y44505D01*
X939239Y44519D01*
X938860Y44542D01*
X938481Y44575D01*
X938103Y44617D01*
X937726Y44668D01*
X937350Y44728D01*
X936976Y44798D01*
X936604Y44877D01*
X936234Y44965D01*
X935866Y45061D01*
X935501Y45167D01*
X935138Y45282D01*
X934778Y45406D01*
X934422Y45539D01*
X934068Y45680D01*
X933719Y45830D01*
X933373Y45988D01*
X933031Y46155D01*
X932693Y46330D01*
X932360Y46514D01*
X932031Y46705D01*
X931708Y46905D01*
X931389Y47112D01*
X931075Y47327D01*
X930767Y47550D01*
X930464Y47781D01*
X930167Y48018D01*
X929876Y48263D01*
X929591Y48515D01*
X929312Y48774D01*
X929040Y49040D01*
X928774Y49312D01*
X928515Y49591D01*
X928263Y49876D01*
X928018Y50167D01*
X927781Y50464D01*
X927550Y50767D01*
X927327Y51075D01*
X927112Y51389D01*
X926905Y51708D01*
X926705Y52031D01*
X926514Y52360D01*
X926330Y52693D01*
X926155Y53031D01*
X925988Y53373D01*
X925830Y53719D01*
X925680Y54068D01*
X925539Y54422D01*
X925406Y54778D01*
X925282Y55138D01*
X925167Y55501D01*
X925061Y55866D01*
X924965Y56234D01*
X924877Y56604D01*
X924798Y56976D01*
X924728Y57350D01*
X924668Y57726D01*
X924617Y58103D01*
X924575Y58481D01*
X924542Y58860D01*
X924519Y59239D01*
X924505Y59620D01*
X924500Y60000D01*
D11*
X561263Y785751D02*
X562676Y787165D01*
X565504Y787165D01*
X566918Y785751D01*
X566918Y780096D01*
X565504Y778682D01*
X562676Y778682D01*
X561263Y780096D01*
X561263Y782924D01*
X564090Y782924D01*
X557710Y787165D02*
X557710Y778682D01*
X552055Y778682D02*
X557710Y787165D01*
X552055Y787165D02*
X552055Y778682D01*
X548502Y778682D02*
X548502Y787165D01*
X548502Y778682D02*
X544261Y778682D01*
X542847Y780096D01*
X542847Y785751D01*
X544261Y787165D01*
X548502Y787165D01*
X606598Y758418D02*
X606598Y752762D01*
X606598Y758418D02*
X603770Y761245D01*
X600943Y758418D01*
X600943Y752762D01*
X600943Y757004D02*
X606598Y757004D01*
X597390Y758418D02*
X597390Y752762D01*
X597390Y758418D02*
X593149Y758418D01*
X591735Y757004D01*
X591735Y752762D01*
X586768Y758418D02*
X583941Y758418D01*
X582527Y757004D01*
X582527Y752762D01*
X586768Y752762D01*
X588182Y754176D01*
X586768Y755590D01*
X582527Y755590D01*
X578974Y761245D02*
X577561Y761245D01*
X577561Y752762D01*
X578974Y752762D02*
X576147Y752762D01*
X571422Y752762D02*
X568594Y752762D01*
X567180Y754176D01*
X567180Y757004D01*
X568594Y758418D01*
X571422Y758418D01*
X572836Y757004D01*
X572836Y754176D01*
X571422Y752762D01*
X560800Y749934D02*
X559386Y749934D01*
X557973Y751348D01*
X557973Y758418D01*
X562214Y758418D01*
X563628Y757004D01*
X563628Y754176D01*
X562214Y752762D01*
X557973Y752762D01*
X554420Y752762D02*
X551592Y752762D01*
X553006Y752762D02*
X553006Y761245D01*
X554420Y761245D02*
X551592Y761245D01*
X548282Y761245D02*
X548282Y752762D01*
X542626Y752762D02*
X548282Y761245D01*
X542626Y761245D02*
X542626Y752762D01*
X454836Y788445D02*
X453423Y787031D01*
X454836Y788445D02*
X457664Y788445D01*
X459078Y787031D01*
X459078Y785618D01*
X457664Y784204D01*
X454836Y784204D01*
X453423Y782790D01*
X453423Y781376D01*
X454836Y779962D01*
X457664Y779962D01*
X459078Y781376D01*
X449870Y779962D02*
X449870Y788445D01*
X449870Y779962D02*
X445629Y779962D01*
X444215Y781376D01*
X444215Y787031D01*
X445629Y788445D01*
X449870Y788445D01*
X440662Y785618D02*
X440662Y779962D01*
X440662Y785618D02*
X437835Y788445D01*
X435007Y785618D01*
X435007Y779962D01*
X435007Y784204D02*
X440662Y784204D01*
X431454Y778548D02*
X425799Y778548D01*
X422247Y788445D02*
X416591Y788445D01*
X422247Y788445D02*
X422247Y784204D01*
X419419Y785618D01*
X418005Y785618D01*
X416591Y784204D01*
X416591Y781376D01*
X418005Y779962D01*
X420833Y779962D01*
X422247Y781376D01*
X413039Y782790D02*
X413039Y788445D01*
X413039Y782790D02*
X410211Y779962D01*
X407383Y782790D01*
X407383Y788445D01*
X454063Y759511D02*
X455476Y760925D01*
X458304Y760925D01*
X459718Y759511D01*
X459718Y758098D01*
X458304Y756684D01*
X455476Y756684D01*
X454063Y755270D01*
X454063Y753856D01*
X455476Y752442D01*
X458304Y752442D01*
X459718Y753856D01*
X446269Y760925D02*
X444855Y759511D01*
X446269Y760925D02*
X449096Y760925D01*
X450510Y759511D01*
X450510Y753856D01*
X449096Y752442D01*
X446269Y752442D01*
X444855Y753856D01*
X441302Y752442D02*
X441302Y760925D01*
X441302Y752442D02*
X435647Y752442D01*
X432094Y751028D02*
X426439Y751028D01*
X422887Y760925D02*
X417231Y760925D01*
X422887Y760925D02*
X422887Y756684D01*
X420059Y758098D01*
X418645Y758098D01*
X417231Y756684D01*
X417231Y753856D01*
X418645Y752442D01*
X421473Y752442D01*
X422887Y753856D01*
X413679Y755270D02*
X413679Y760925D01*
X413679Y755270D02*
X410851Y752442D01*
X408023Y755270D01*
X408023Y760925D01*
X500783Y808925D02*
X506438Y808925D01*
X506438Y804684D01*
X503610Y806098D01*
X502196Y806098D01*
X500783Y804684D01*
X500783Y801856D01*
X502196Y800442D01*
X505024Y800442D01*
X506438Y801856D01*
X497230Y803270D02*
X497230Y808925D01*
X497230Y803270D02*
X494402Y800442D01*
X491575Y803270D01*
X491575Y808925D01*
X517743Y740125D02*
X523398Y740125D01*
X523398Y735884D01*
X520570Y737298D01*
X519156Y737298D01*
X517743Y735884D01*
X517743Y733056D01*
X519156Y731642D01*
X521984Y731642D01*
X523398Y733056D01*
X514190Y734470D02*
X514190Y740125D01*
X514190Y734470D02*
X511362Y731642D01*
X508535Y734470D01*
X508535Y740125D01*
X504982Y731642D02*
X499327Y740125D01*
X495774Y740125D02*
X495774Y731642D01*
X495774Y735884D02*
X490119Y735884D01*
X490119Y740125D02*
X490119Y731642D01*
X486567Y737298D02*
X485153Y737298D01*
X485153Y731642D01*
X486567Y731642D02*
X483739Y731642D01*
X485153Y740125D02*
X485153Y741539D01*
X480428Y740125D02*
X474773Y740125D01*
X474773Y738711D01*
X480428Y733056D01*
X480428Y731642D01*
X474773Y731642D01*
X508998Y727325D02*
X508998Y718842D01*
X504756Y718842D01*
X503343Y720256D01*
X503343Y725911D01*
X504756Y727325D01*
X508998Y727325D01*
X498376Y727325D02*
X495549Y727325D01*
X498376Y727325D02*
X499790Y725911D01*
X499790Y720256D01*
X498376Y718842D01*
X495549Y718842D01*
X494135Y720256D01*
X494135Y725911D01*
X495549Y727325D01*
X464711Y548394D02*
X466125Y546980D01*
X466125Y544152D01*
X464711Y542738D01*
X459056Y542738D01*
X457642Y544152D01*
X457642Y546980D01*
X459056Y548394D01*
X461884Y548394D01*
X461884Y545566D01*
X466125Y551946D02*
X457642Y551946D01*
X457642Y557602D02*
X466125Y551946D01*
X466125Y557602D02*
X457642Y557602D01*
X457642Y561154D02*
X466125Y561154D01*
X457642Y561154D02*
X457642Y565396D01*
X459056Y566810D01*
X464711Y566810D01*
X466125Y565396D01*
X466125Y561154D01*
X481322Y537494D02*
X486978Y537494D01*
X489805Y540322D01*
X486978Y543150D01*
X481322Y543150D01*
X485564Y543150D02*
X485564Y537494D01*
X488391Y546702D02*
X489805Y548116D01*
X489805Y550944D01*
X488391Y552358D01*
X486978Y552358D01*
X485564Y550944D01*
X485564Y549530D01*
X485564Y550944D02*
X484150Y552358D01*
X482736Y552358D01*
X481322Y550944D01*
X481322Y548116D01*
X482736Y546702D01*
X482736Y555910D02*
X481322Y555910D01*
X482736Y555910D02*
X482736Y557324D01*
X481322Y557324D01*
X481322Y555910D01*
X488391Y560514D02*
X489805Y561928D01*
X489805Y564756D01*
X488391Y566170D01*
X486978Y566170D01*
X485564Y564756D01*
X485564Y563342D01*
X485564Y564756D02*
X484150Y566170D01*
X482736Y566170D01*
X481322Y564756D01*
X481322Y561928D01*
X482736Y560514D01*
X507242Y537494D02*
X512898Y537494D01*
X515725Y540322D01*
X512898Y543150D01*
X507242Y543150D01*
X511484Y543150D02*
X511484Y537494D01*
X514311Y546702D02*
X515725Y548116D01*
X515725Y550944D01*
X514311Y552358D01*
X512898Y552358D01*
X511484Y550944D01*
X511484Y549530D01*
X511484Y550944D02*
X510070Y552358D01*
X508656Y552358D01*
X507242Y550944D01*
X507242Y548116D01*
X508656Y546702D01*
X508656Y555910D02*
X507242Y555910D01*
X508656Y555910D02*
X508656Y557324D01*
X507242Y557324D01*
X507242Y555910D01*
X508656Y560514D02*
X514311Y560514D01*
X515725Y561928D01*
X515725Y564756D01*
X514311Y566170D01*
X508656Y566170D01*
X507242Y564756D01*
X507242Y561928D01*
X508656Y560514D01*
X514311Y566170D01*
X541325Y556962D02*
X541325Y551306D01*
X537084Y551306D01*
X538498Y554134D01*
X538498Y555548D01*
X537084Y556962D01*
X534256Y556962D01*
X532842Y555548D01*
X532842Y552720D01*
X534256Y551306D01*
X535670Y560514D02*
X541325Y560514D01*
X535670Y560514D02*
X532842Y563342D01*
X535670Y566170D01*
X541325Y566170D01*
X581876Y391005D02*
X580463Y389591D01*
X581876Y391005D02*
X584704Y391005D01*
X586118Y389591D01*
X586118Y388178D01*
X584704Y386764D01*
X581876Y386764D01*
X580463Y385350D01*
X580463Y383936D01*
X581876Y382522D01*
X584704Y382522D01*
X586118Y383936D01*
X572669Y391005D02*
X571255Y389591D01*
X572669Y391005D02*
X575496Y391005D01*
X576910Y389591D01*
X576910Y383936D01*
X575496Y382522D01*
X572669Y382522D01*
X571255Y383936D01*
X567702Y382522D02*
X567702Y391005D01*
X567702Y382522D02*
X562047Y382522D01*
X579823Y363991D02*
X581236Y365405D01*
X584064Y365405D01*
X585478Y363991D01*
X585478Y362578D01*
X584064Y361164D01*
X581236Y361164D01*
X579823Y359750D01*
X579823Y358336D01*
X581236Y356922D01*
X584064Y356922D01*
X585478Y358336D01*
X576270Y356922D02*
X576270Y365405D01*
X576270Y356922D02*
X572029Y356922D01*
X570615Y358336D01*
X570615Y363991D01*
X572029Y365405D01*
X576270Y365405D01*
X567062Y362578D02*
X567062Y356922D01*
X567062Y362578D02*
X564235Y365405D01*
X561407Y362578D01*
X561407Y356922D01*
X561407Y361164D02*
X567062Y361164D01*
X577903Y412631D02*
X579316Y414045D01*
X582144Y414045D01*
X583558Y412631D01*
X583558Y406976D01*
X582144Y405562D01*
X579316Y405562D01*
X577903Y406976D01*
X577903Y409804D01*
X580730Y409804D01*
X574350Y414045D02*
X574350Y405562D01*
X568695Y405562D02*
X574350Y414045D01*
X568695Y414045D02*
X568695Y405562D01*
X565142Y405562D02*
X565142Y414045D01*
X565142Y405562D02*
X560901Y405562D01*
X559487Y406976D01*
X559487Y412631D01*
X560901Y414045D01*
X565142Y414045D01*
X542918Y457751D02*
X541504Y459165D01*
X538676Y459165D01*
X537263Y457751D01*
X537263Y456338D01*
X538676Y454924D01*
X540090Y454924D01*
X538676Y454924D02*
X537263Y453510D01*
X537263Y452096D01*
X538676Y450682D01*
X541504Y450682D01*
X542918Y452096D01*
X533710Y453510D02*
X533710Y459165D01*
X533710Y453510D02*
X530882Y450682D01*
X528055Y453510D01*
X528055Y459165D01*
X524502Y457751D02*
X523088Y459165D01*
X520261Y459165D01*
X518847Y457751D01*
X518847Y456338D01*
X520261Y454924D01*
X521675Y454924D01*
X520261Y454924D02*
X518847Y453510D01*
X518847Y452096D01*
X520261Y450682D01*
X523088Y450682D01*
X524502Y452096D01*
X623424Y459805D02*
X624838Y458391D01*
X623424Y459805D02*
X620596Y459805D01*
X619183Y458391D01*
X619183Y456978D01*
X620596Y455564D01*
X622010Y455564D01*
X620596Y455564D02*
X619183Y454150D01*
X619183Y452736D01*
X620596Y451322D01*
X623424Y451322D01*
X624838Y452736D01*
X615630Y454150D02*
X615630Y459805D01*
X615630Y454150D02*
X612802Y451322D01*
X609975Y454150D01*
X609975Y459805D01*
X606422Y458391D02*
X605008Y459805D01*
X602181Y459805D01*
X600767Y458391D01*
X600767Y456978D01*
X602181Y455564D01*
X603595Y455564D01*
X602181Y455564D02*
X600767Y454150D01*
X600767Y452736D01*
X602181Y451322D01*
X605008Y451322D01*
X606422Y452736D01*
X799475Y335451D02*
X807958Y335451D01*
X807958Y341106D01*
X799475Y344658D02*
X799475Y350314D01*
X799475Y344658D02*
X807958Y344658D01*
X807958Y350314D01*
X803716Y347486D02*
X803716Y344658D01*
X799475Y353866D02*
X807958Y353866D01*
X807958Y358108D01*
X806544Y359522D01*
X800889Y359522D01*
X799475Y358108D01*
X799475Y353866D01*
X803716Y363074D02*
X803716Y368730D01*
X800889Y365902D02*
X806544Y365902D01*
X743958Y335771D02*
X735475Y335771D01*
X743958Y335771D02*
X743958Y341426D01*
X735475Y344978D02*
X735475Y350634D01*
X735475Y344978D02*
X743958Y344978D01*
X743958Y350634D01*
X739716Y347806D02*
X739716Y344978D01*
X735475Y354186D02*
X743958Y354186D01*
X743958Y358428D01*
X742544Y359842D01*
X736889Y359842D01*
X735475Y358428D01*
X735475Y354186D01*
X739716Y363394D02*
X739716Y369050D01*
X271058Y368204D02*
X265402Y368204D01*
X268230Y371031D02*
X268230Y365376D01*
X274610Y372445D02*
X280265Y372445D01*
X274610Y372445D02*
X274610Y368204D01*
X277438Y369618D01*
X278851Y369618D01*
X280265Y368204D01*
X280265Y365376D01*
X278851Y363962D01*
X276024Y363962D01*
X274610Y365376D01*
X283818Y366790D02*
X283818Y372445D01*
X283818Y366790D02*
X286645Y363962D01*
X289473Y366790D01*
X289473Y372445D01*
X307642Y323404D02*
X313298Y323404D01*
X319482Y328204D02*
X325138Y328204D01*
D12*
X763805Y992251D02*
X775116Y992251D01*
X775116Y975284D01*
X763805Y975284D01*
X769461Y983767D02*
X775116Y983767D01*
X756700Y992251D02*
X753873Y992251D01*
X753873Y975284D01*
X756700Y975284D02*
X751045Y975284D01*
X741595Y975284D02*
X735940Y975284D01*
X741595Y975284D02*
X744423Y978112D01*
X744423Y983767D01*
X741595Y986595D01*
X735940Y986595D01*
X733112Y983767D01*
X733112Y980940D01*
X744423Y980940D01*
X723180Y986595D02*
X714696Y986595D01*
X723180Y986595D02*
X726007Y983767D01*
X726007Y978112D01*
X723180Y975284D01*
X714696Y975284D01*
X704764Y978112D02*
X704764Y989423D01*
X704764Y978112D02*
X701936Y975284D01*
X701936Y986595D02*
X707592Y986595D01*
X695315Y986595D02*
X695315Y975284D01*
X695315Y980940D02*
X689659Y986595D01*
X686831Y986595D01*
X677140Y975284D02*
X671485Y975284D01*
X668657Y978112D01*
X668657Y983767D01*
X671485Y986595D01*
X677140Y986595D01*
X679968Y983767D01*
X679968Y978112D01*
X677140Y975284D01*
X661552Y975284D02*
X661552Y986595D01*
X653069Y986595D01*
X650241Y983767D01*
X650241Y975284D01*
X643137Y986595D02*
X640309Y986595D01*
X640309Y975284D01*
X643137Y975284D02*
X637481Y975284D01*
X640309Y992251D02*
X640309Y995078D01*
X628032Y986595D02*
X619549Y986595D01*
X628032Y986595D02*
X630860Y983767D01*
X630860Y978112D01*
X628032Y975284D01*
X619549Y975284D01*
X612444Y975284D02*
X603961Y975284D01*
X601133Y978112D01*
X603961Y980940D01*
X609616Y980940D01*
X612444Y983767D01*
X609616Y986595D01*
X601133Y986595D01*
X564301Y992251D02*
X564301Y975284D01*
X572785Y975284D01*
X575612Y978112D01*
X575612Y983767D01*
X572785Y986595D01*
X564301Y986595D01*
X554369Y975284D02*
X548713Y975284D01*
X554369Y975284D02*
X557197Y978112D01*
X557197Y983767D01*
X554369Y986595D01*
X548713Y986595D01*
X545886Y983767D01*
X545886Y980940D01*
X557197Y980940D01*
X538781Y975284D02*
X530298Y975284D01*
X527470Y978112D01*
X530298Y980940D01*
X535953Y980940D01*
X538781Y983767D01*
X535953Y986595D01*
X527470Y986595D01*
X520365Y986595D02*
X517537Y986595D01*
X517537Y975284D01*
X514710Y975284D02*
X520365Y975284D01*
X517537Y992251D02*
X517537Y995078D01*
X502433Y969629D02*
X499605Y969629D01*
X496777Y972456D01*
X496777Y986595D01*
X505260Y986595D01*
X508088Y983767D01*
X508088Y978112D01*
X505260Y975284D01*
X496777Y975284D01*
X489672Y975284D02*
X489672Y986595D01*
X481189Y986595D01*
X478361Y983767D01*
X478361Y975284D01*
X452841Y975284D02*
X444358Y975284D01*
X441530Y978112D01*
X444358Y980940D01*
X450013Y980940D01*
X452841Y983767D01*
X450013Y986595D01*
X441530Y986595D01*
X431597Y975284D02*
X425942Y975284D01*
X423114Y978112D01*
X423114Y983767D01*
X425942Y986595D01*
X431597Y986595D01*
X434425Y983767D01*
X434425Y978112D01*
X431597Y975284D01*
X416009Y992251D02*
X413182Y992251D01*
X413182Y975284D01*
X416009Y975284D02*
X410354Y975284D01*
X403732Y978112D02*
X403732Y986595D01*
X403732Y978112D02*
X400905Y975284D01*
X392421Y975284D01*
X392421Y986595D01*
X382489Y989423D02*
X382489Y978112D01*
X379661Y975284D01*
X379661Y986595D02*
X385317Y986595D01*
X373039Y986595D02*
X370212Y986595D01*
X370212Y975284D01*
X373039Y975284D02*
X367384Y975284D01*
X370212Y992251D02*
X370212Y995078D01*
X357935Y975284D02*
X352279Y975284D01*
X349451Y978112D01*
X349451Y983767D01*
X352279Y986595D01*
X357935Y986595D01*
X360762Y983767D01*
X360762Y978112D01*
X357935Y975284D01*
X342347Y975284D02*
X342347Y986595D01*
X333863Y986595D01*
X331036Y983767D01*
X331036Y975284D01*
X323931Y975284D02*
X315448Y975284D01*
X312620Y978112D01*
X315448Y980940D01*
X321103Y980940D01*
X323931Y983767D01*
X321103Y986595D01*
X312620Y986595D01*
X287099Y975284D02*
X278616Y975284D01*
X275788Y978112D01*
X278616Y980940D01*
X284272Y980940D01*
X287099Y983767D01*
X284272Y986595D01*
X275788Y986595D01*
X268684Y978112D02*
X268684Y975284D01*
X268684Y978112D02*
X265856Y978112D01*
X265856Y975284D01*
X268684Y975284D01*
X259476Y975284D02*
X259476Y986595D01*
X259476Y980940D02*
X253820Y986595D01*
X250993Y986595D01*
X244129Y978112D02*
X244129Y975284D01*
X244129Y978112D02*
X241302Y978112D01*
X241302Y975284D01*
X244129Y975284D01*
X232094Y975284D02*
X226438Y975284D01*
X223611Y978112D01*
X223611Y983767D01*
X226438Y986595D01*
X232094Y986595D01*
X234922Y983767D01*
X234922Y978112D01*
X232094Y975284D01*
X216506Y975284D02*
X216506Y978112D01*
X213678Y978112D01*
X213678Y975284D01*
X216506Y975284D01*
D13*
X266700Y279400D02*
X260350Y273050D01*
X279400Y279400D02*
X285750Y273050D01*
X292100Y279400D01*
X304800Y279400D02*
X311150Y273050D01*
X317500Y279400D01*
X330200Y279400D02*
X336550Y273050D01*
X342900Y279400D01*
X355600Y279400D02*
X361950Y273050D01*
X368300Y279400D01*
X381000Y279400D02*
X387350Y273050D01*
X393700Y279400D01*
X406400Y279400D02*
X412750Y273050D01*
X260350Y273050D02*
X260350Y234950D01*
X266700Y228600D01*
X279400Y228600D01*
X285750Y234950D01*
X292100Y228600D01*
X304800Y228600D01*
X311150Y234950D01*
X317500Y228600D01*
X330200Y228600D01*
X336550Y234950D01*
X342900Y228600D01*
X355600Y228600D01*
X361950Y234950D01*
X368300Y228600D01*
X381000Y228600D01*
X387350Y234950D01*
X393700Y228600D01*
X406400Y228600D01*
X412750Y234950D01*
X285750Y234950D02*
X285750Y273050D01*
X311150Y273050D02*
X311150Y234950D01*
X336550Y234950D02*
X336550Y273050D01*
X361950Y273050D02*
X361950Y234950D01*
X387350Y234950D02*
X387350Y273050D01*
X412750Y273050D02*
X412750Y234950D01*
X406400Y279400D02*
X393700Y279400D01*
X381000Y279400D02*
X368300Y279400D01*
X355600Y279400D02*
X342900Y279400D01*
X330200Y279400D02*
X317500Y279400D01*
X304800Y279400D02*
X292100Y279400D01*
X279400Y279400D02*
X266700Y279400D01*
D14*
X273050Y266700D03*
X273050Y241300D03*
X298450Y241300D03*
X298450Y266700D03*
X323850Y241300D03*
X323850Y266700D03*
X349250Y241300D03*
X374650Y241300D03*
X400050Y241300D03*
X349250Y266700D03*
X374650Y266700D03*
X400050Y266700D03*
D13*
X279400Y283210D02*
X266700Y283210D01*
X266700Y279400D02*
X260350Y273050D01*
X260350Y234950D01*
X266700Y228600D01*
X260350Y273050D02*
X266700Y279400D01*
X260350Y273050D02*
X260350Y234950D01*
X266700Y228600D01*
D15*
X270941Y221404D02*
X270136Y220599D01*
X269331Y220599D01*
X268526Y221404D01*
X268526Y225429D01*
X269331Y225429D02*
X267721Y225429D01*
X265328Y220599D02*
X262108Y220599D01*
X265328Y220599D02*
X262108Y223819D01*
X262108Y224624D01*
X262913Y225429D01*
X264523Y225429D01*
X265328Y224624D01*
D16*
X565658Y103554D02*
X565658Y95758D01*
X565658Y103554D02*
X569556Y107452D01*
X573454Y103554D01*
X573454Y95758D01*
X573454Y101605D02*
X565658Y101605D01*
X577352Y103554D02*
X577352Y95758D01*
X577352Y103554D02*
X579301Y103554D01*
X581250Y101605D01*
X581250Y95758D01*
X581250Y101605D02*
X583199Y103554D01*
X585148Y101605D01*
X585148Y95758D01*
X589046Y91860D02*
X589046Y103554D01*
X594893Y103554D01*
X596842Y101605D01*
X596842Y97707D01*
X594893Y95758D01*
X589046Y95758D01*
X600740Y95758D02*
X600740Y107452D01*
X602689Y103554D02*
X600740Y101605D01*
X602689Y103554D02*
X606587Y103554D01*
X608536Y101605D01*
X608536Y95758D01*
X614383Y95758D02*
X618281Y95758D01*
X614383Y95758D02*
X612434Y97707D01*
X612434Y101605D01*
X614383Y103554D01*
X618281Y103554D01*
X620230Y101605D01*
X620230Y99656D01*
X612434Y99656D01*
X624128Y95758D02*
X624128Y103554D01*
X629975Y103554D01*
X631924Y101605D01*
X631924Y95758D01*
X637771Y95758D02*
X641669Y95758D01*
X643618Y97707D01*
X643618Y101605D01*
X641669Y103554D01*
X637771Y103554D01*
X635822Y101605D01*
X635822Y97707D01*
X637771Y95758D01*
X647516Y107452D02*
X649465Y107452D01*
X649465Y95758D01*
X647516Y95758D02*
X651414Y95758D01*
X667006Y95758D02*
X667006Y107452D01*
X670904Y103554D01*
X674802Y107452D01*
X674802Y95758D01*
X678700Y95758D02*
X678700Y107452D01*
X682598Y103554D01*
X686496Y107452D01*
X686496Y95758D01*
X698190Y105503D02*
X696241Y107452D01*
X692343Y107452D01*
X690394Y105503D01*
X690394Y97707D01*
X692343Y95758D01*
X696241Y95758D01*
X698190Y97707D01*
X702088Y95758D02*
X709884Y107452D01*
X719629Y107452D02*
X721578Y105503D01*
X719629Y107452D02*
X715731Y107452D01*
X713782Y105503D01*
X713782Y103554D01*
X715731Y101605D01*
X719629Y101605D01*
X721578Y99656D01*
X721578Y97707D01*
X719629Y95758D01*
X715731Y95758D01*
X713782Y97707D01*
X725476Y95758D02*
X725476Y107452D01*
X725476Y95758D02*
X731323Y95758D01*
X733272Y97707D01*
X733272Y105503D01*
X731323Y107452D01*
X725476Y107452D01*
D10*
X732410Y148590D02*
X732412Y148786D01*
X732420Y148983D01*
X732432Y149179D01*
X732449Y149374D01*
X732470Y149569D01*
X732497Y149764D01*
X732528Y149958D01*
X732564Y150151D01*
X732604Y150343D01*
X732650Y150534D01*
X732700Y150724D01*
X732754Y150912D01*
X732814Y151099D01*
X732878Y151285D01*
X732946Y151469D01*
X733019Y151651D01*
X733096Y151832D01*
X733178Y152010D01*
X733264Y152187D01*
X733355Y152361D01*
X733449Y152533D01*
X733548Y152703D01*
X733651Y152870D01*
X733758Y153035D01*
X733869Y153196D01*
X733984Y153356D01*
X734103Y153512D01*
X734226Y153665D01*
X734352Y153815D01*
X734482Y153962D01*
X734616Y154106D01*
X734753Y154247D01*
X734894Y154384D01*
X735038Y154518D01*
X735185Y154648D01*
X735335Y154774D01*
X735488Y154897D01*
X735644Y155016D01*
X735804Y155131D01*
X735965Y155242D01*
X736130Y155349D01*
X736297Y155452D01*
X736467Y155551D01*
X736639Y155645D01*
X736813Y155736D01*
X736990Y155822D01*
X737168Y155904D01*
X737349Y155981D01*
X737531Y156054D01*
X737715Y156122D01*
X737901Y156186D01*
X738088Y156246D01*
X738276Y156300D01*
X738466Y156350D01*
X738657Y156396D01*
X738849Y156436D01*
X739042Y156472D01*
X739236Y156503D01*
X739431Y156530D01*
X739626Y156551D01*
X739821Y156568D01*
X740017Y156580D01*
X740214Y156588D01*
X740410Y156590D01*
X740606Y156588D01*
X740803Y156580D01*
X740999Y156568D01*
X741194Y156551D01*
X741389Y156530D01*
X741584Y156503D01*
X741778Y156472D01*
X741971Y156436D01*
X742163Y156396D01*
X742354Y156350D01*
X742544Y156300D01*
X742732Y156246D01*
X742919Y156186D01*
X743105Y156122D01*
X743289Y156054D01*
X743471Y155981D01*
X743652Y155904D01*
X743830Y155822D01*
X744007Y155736D01*
X744181Y155645D01*
X744353Y155551D01*
X744523Y155452D01*
X744690Y155349D01*
X744855Y155242D01*
X745016Y155131D01*
X745176Y155016D01*
X745332Y154897D01*
X745485Y154774D01*
X745635Y154648D01*
X745782Y154518D01*
X745926Y154384D01*
X746067Y154247D01*
X746204Y154106D01*
X746338Y153962D01*
X746468Y153815D01*
X746594Y153665D01*
X746717Y153512D01*
X746836Y153356D01*
X746951Y153196D01*
X747062Y153035D01*
X747169Y152870D01*
X747272Y152703D01*
X747371Y152533D01*
X747465Y152361D01*
X747556Y152187D01*
X747642Y152010D01*
X747724Y151832D01*
X747801Y151651D01*
X747874Y151469D01*
X747942Y151285D01*
X748006Y151099D01*
X748066Y150912D01*
X748120Y150724D01*
X748170Y150534D01*
X748216Y150343D01*
X748256Y150151D01*
X748292Y149958D01*
X748323Y149764D01*
X748350Y149569D01*
X748371Y149374D01*
X748388Y149179D01*
X748400Y148983D01*
X748408Y148786D01*
X748410Y148590D01*
X748408Y148394D01*
X748400Y148197D01*
X748388Y148001D01*
X748371Y147806D01*
X748350Y147611D01*
X748323Y147416D01*
X748292Y147222D01*
X748256Y147029D01*
X748216Y146837D01*
X748170Y146646D01*
X748120Y146456D01*
X748066Y146268D01*
X748006Y146081D01*
X747942Y145895D01*
X747874Y145711D01*
X747801Y145529D01*
X747724Y145348D01*
X747642Y145170D01*
X747556Y144993D01*
X747465Y144819D01*
X747371Y144647D01*
X747272Y144477D01*
X747169Y144310D01*
X747062Y144145D01*
X746951Y143984D01*
X746836Y143824D01*
X746717Y143668D01*
X746594Y143515D01*
X746468Y143365D01*
X746338Y143218D01*
X746204Y143074D01*
X746067Y142933D01*
X745926Y142796D01*
X745782Y142662D01*
X745635Y142532D01*
X745485Y142406D01*
X745332Y142283D01*
X745176Y142164D01*
X745016Y142049D01*
X744855Y141938D01*
X744690Y141831D01*
X744523Y141728D01*
X744353Y141629D01*
X744181Y141535D01*
X744007Y141444D01*
X743830Y141358D01*
X743652Y141276D01*
X743471Y141199D01*
X743289Y141126D01*
X743105Y141058D01*
X742919Y140994D01*
X742732Y140934D01*
X742544Y140880D01*
X742354Y140830D01*
X742163Y140784D01*
X741971Y140744D01*
X741778Y140708D01*
X741584Y140677D01*
X741389Y140650D01*
X741194Y140629D01*
X740999Y140612D01*
X740803Y140600D01*
X740606Y140592D01*
X740410Y140590D01*
X740214Y140592D01*
X740017Y140600D01*
X739821Y140612D01*
X739626Y140629D01*
X739431Y140650D01*
X739236Y140677D01*
X739042Y140708D01*
X738849Y140744D01*
X738657Y140784D01*
X738466Y140830D01*
X738276Y140880D01*
X738088Y140934D01*
X737901Y140994D01*
X737715Y141058D01*
X737531Y141126D01*
X737349Y141199D01*
X737168Y141276D01*
X736990Y141358D01*
X736813Y141444D01*
X736639Y141535D01*
X736467Y141629D01*
X736297Y141728D01*
X736130Y141831D01*
X735965Y141938D01*
X735804Y142049D01*
X735644Y142164D01*
X735488Y142283D01*
X735335Y142406D01*
X735185Y142532D01*
X735038Y142662D01*
X734894Y142796D01*
X734753Y142933D01*
X734616Y143074D01*
X734482Y143218D01*
X734352Y143365D01*
X734226Y143515D01*
X734103Y143668D01*
X733984Y143824D01*
X733869Y143984D01*
X733758Y144145D01*
X733651Y144310D01*
X733548Y144477D01*
X733449Y144647D01*
X733355Y144819D01*
X733264Y144993D01*
X733178Y145170D01*
X733096Y145348D01*
X733019Y145529D01*
X732946Y145711D01*
X732878Y145895D01*
X732814Y146081D01*
X732754Y146268D01*
X732700Y146456D01*
X732650Y146646D01*
X732604Y146837D01*
X732564Y147029D01*
X732528Y147222D01*
X732497Y147416D01*
X732470Y147611D01*
X732449Y147806D01*
X732432Y148001D01*
X732420Y148197D01*
X732412Y148394D01*
X732410Y148590D01*
X524090Y148590D02*
X524092Y148738D01*
X524098Y148886D01*
X524108Y149034D01*
X524122Y149182D01*
X524140Y149329D01*
X524162Y149476D01*
X524188Y149622D01*
X524217Y149767D01*
X524251Y149912D01*
X524289Y150055D01*
X524330Y150198D01*
X524375Y150339D01*
X524425Y150479D01*
X524477Y150617D01*
X524534Y150755D01*
X524594Y150890D01*
X524658Y151024D01*
X524725Y151156D01*
X524796Y151286D01*
X524871Y151415D01*
X524949Y151541D01*
X525030Y151665D01*
X525114Y151787D01*
X525202Y151906D01*
X525293Y152023D01*
X525387Y152138D01*
X525485Y152250D01*
X525585Y152359D01*
X525688Y152466D01*
X525794Y152570D01*
X525902Y152671D01*
X526014Y152769D01*
X526128Y152864D01*
X526244Y152955D01*
X526363Y153044D01*
X526484Y153129D01*
X526608Y153211D01*
X526734Y153290D01*
X526861Y153365D01*
X526991Y153437D01*
X527123Y153506D01*
X527256Y153570D01*
X527391Y153631D01*
X527528Y153689D01*
X527666Y153743D01*
X527806Y153793D01*
X527947Y153839D01*
X528089Y153881D01*
X528232Y153920D01*
X528376Y153954D01*
X528522Y153985D01*
X528667Y154012D01*
X528814Y154035D01*
X528961Y154054D01*
X529109Y154069D01*
X529256Y154080D01*
X529405Y154087D01*
X529553Y154090D01*
X529701Y154089D01*
X529849Y154084D01*
X529997Y154075D01*
X530145Y154062D01*
X530293Y154045D01*
X530439Y154024D01*
X530586Y153999D01*
X530731Y153970D01*
X530876Y153938D01*
X531019Y153901D01*
X531162Y153861D01*
X531304Y153816D01*
X531444Y153768D01*
X531583Y153716D01*
X531720Y153661D01*
X531856Y153601D01*
X531991Y153538D01*
X532123Y153472D01*
X532254Y153402D01*
X532383Y153328D01*
X532509Y153251D01*
X532634Y153171D01*
X532756Y153087D01*
X532877Y153000D01*
X532994Y152910D01*
X533110Y152816D01*
X533222Y152720D01*
X533332Y152621D01*
X533440Y152518D01*
X533544Y152413D01*
X533646Y152305D01*
X533744Y152194D01*
X533840Y152081D01*
X533933Y151965D01*
X534022Y151847D01*
X534108Y151726D01*
X534191Y151603D01*
X534271Y151478D01*
X534347Y151351D01*
X534420Y151221D01*
X534489Y151090D01*
X534554Y150957D01*
X534617Y150823D01*
X534675Y150686D01*
X534730Y150548D01*
X534780Y150409D01*
X534828Y150268D01*
X534871Y150127D01*
X534911Y149984D01*
X534946Y149840D01*
X534978Y149695D01*
X535006Y149549D01*
X535030Y149403D01*
X535050Y149256D01*
X535066Y149108D01*
X535078Y148961D01*
X535086Y148812D01*
X535090Y148664D01*
X535090Y148516D01*
X535086Y148368D01*
X535078Y148219D01*
X535066Y148072D01*
X535050Y147924D01*
X535030Y147777D01*
X535006Y147631D01*
X534978Y147485D01*
X534946Y147340D01*
X534911Y147196D01*
X534871Y147053D01*
X534828Y146912D01*
X534780Y146771D01*
X534730Y146632D01*
X534675Y146494D01*
X534617Y146357D01*
X534554Y146223D01*
X534489Y146090D01*
X534420Y145959D01*
X534347Y145829D01*
X534271Y145702D01*
X534191Y145577D01*
X534108Y145454D01*
X534022Y145333D01*
X533933Y145215D01*
X533840Y145099D01*
X533744Y144986D01*
X533646Y144875D01*
X533544Y144767D01*
X533440Y144662D01*
X533332Y144559D01*
X533222Y144460D01*
X533110Y144364D01*
X532994Y144270D01*
X532877Y144180D01*
X532756Y144093D01*
X532634Y144009D01*
X532509Y143929D01*
X532383Y143852D01*
X532254Y143778D01*
X532123Y143708D01*
X531991Y143642D01*
X531856Y143579D01*
X531720Y143519D01*
X531583Y143464D01*
X531444Y143412D01*
X531304Y143364D01*
X531162Y143319D01*
X531019Y143279D01*
X530876Y143242D01*
X530731Y143210D01*
X530586Y143181D01*
X530439Y143156D01*
X530293Y143135D01*
X530145Y143118D01*
X529997Y143105D01*
X529849Y143096D01*
X529701Y143091D01*
X529553Y143090D01*
X529405Y143093D01*
X529256Y143100D01*
X529109Y143111D01*
X528961Y143126D01*
X528814Y143145D01*
X528667Y143168D01*
X528522Y143195D01*
X528376Y143226D01*
X528232Y143260D01*
X528089Y143299D01*
X527947Y143341D01*
X527806Y143387D01*
X527666Y143437D01*
X527528Y143491D01*
X527391Y143549D01*
X527256Y143610D01*
X527123Y143674D01*
X526991Y143743D01*
X526861Y143815D01*
X526734Y143890D01*
X526608Y143969D01*
X526484Y144051D01*
X526363Y144136D01*
X526244Y144225D01*
X526128Y144316D01*
X526014Y144411D01*
X525902Y144509D01*
X525794Y144610D01*
X525688Y144714D01*
X525585Y144821D01*
X525485Y144930D01*
X525387Y145042D01*
X525293Y145157D01*
X525202Y145274D01*
X525114Y145393D01*
X525030Y145515D01*
X524949Y145639D01*
X524871Y145765D01*
X524796Y145894D01*
X524725Y146024D01*
X524658Y146156D01*
X524594Y146290D01*
X524534Y146425D01*
X524477Y146563D01*
X524425Y146701D01*
X524375Y146841D01*
X524330Y146982D01*
X524289Y147125D01*
X524251Y147268D01*
X524217Y147413D01*
X524188Y147558D01*
X524162Y147704D01*
X524140Y147851D01*
X524122Y147998D01*
X524108Y148146D01*
X524098Y148294D01*
X524092Y148442D01*
X524090Y148590D01*
X184950Y259100D02*
X184953Y259382D01*
X184964Y259664D01*
X184981Y259946D01*
X185005Y260227D01*
X185036Y260508D01*
X185074Y260787D01*
X185119Y261066D01*
X185171Y261344D01*
X185229Y261620D01*
X185295Y261894D01*
X185367Y262167D01*
X185445Y262438D01*
X185530Y262707D01*
X185622Y262974D01*
X185721Y263239D01*
X185825Y263501D01*
X185937Y263760D01*
X186054Y264017D01*
X186178Y264271D01*
X186308Y264521D01*
X186444Y264768D01*
X186586Y265012D01*
X186734Y265252D01*
X186888Y265489D01*
X187048Y265722D01*
X187213Y265951D01*
X187384Y266175D01*
X187560Y266396D01*
X187742Y266611D01*
X187929Y266823D01*
X188121Y267030D01*
X188318Y267232D01*
X188520Y267429D01*
X188727Y267621D01*
X188939Y267808D01*
X189154Y267990D01*
X189375Y268166D01*
X189599Y268337D01*
X189828Y268502D01*
X190061Y268662D01*
X190298Y268816D01*
X190538Y268964D01*
X190782Y269106D01*
X191029Y269242D01*
X191279Y269372D01*
X191533Y269496D01*
X191790Y269613D01*
X192049Y269725D01*
X192311Y269829D01*
X192576Y269928D01*
X192843Y270020D01*
X193112Y270105D01*
X193383Y270183D01*
X193656Y270255D01*
X193930Y270321D01*
X194206Y270379D01*
X194484Y270431D01*
X194763Y270476D01*
X195042Y270514D01*
X195323Y270545D01*
X195604Y270569D01*
X195886Y270586D01*
X196168Y270597D01*
X196450Y270600D01*
X196732Y270597D01*
X197014Y270586D01*
X197296Y270569D01*
X197577Y270545D01*
X197858Y270514D01*
X198137Y270476D01*
X198416Y270431D01*
X198694Y270379D01*
X198970Y270321D01*
X199244Y270255D01*
X199517Y270183D01*
X199788Y270105D01*
X200057Y270020D01*
X200324Y269928D01*
X200589Y269829D01*
X200851Y269725D01*
X201110Y269613D01*
X201367Y269496D01*
X201621Y269372D01*
X201871Y269242D01*
X202118Y269106D01*
X202362Y268964D01*
X202602Y268816D01*
X202839Y268662D01*
X203072Y268502D01*
X203301Y268337D01*
X203525Y268166D01*
X203746Y267990D01*
X203961Y267808D01*
X204173Y267621D01*
X204380Y267429D01*
X204582Y267232D01*
X204779Y267030D01*
X204971Y266823D01*
X205158Y266611D01*
X205340Y266396D01*
X205516Y266175D01*
X205687Y265951D01*
X205852Y265722D01*
X206012Y265489D01*
X206166Y265252D01*
X206314Y265012D01*
X206456Y264768D01*
X206592Y264521D01*
X206722Y264271D01*
X206846Y264017D01*
X206963Y263760D01*
X207075Y263501D01*
X207179Y263239D01*
X207278Y262974D01*
X207370Y262707D01*
X207455Y262438D01*
X207533Y262167D01*
X207605Y261894D01*
X207671Y261620D01*
X207729Y261344D01*
X207781Y261066D01*
X207826Y260787D01*
X207864Y260508D01*
X207895Y260227D01*
X207919Y259946D01*
X207936Y259664D01*
X207947Y259382D01*
X207950Y259100D01*
X207947Y258818D01*
X207936Y258536D01*
X207919Y258254D01*
X207895Y257973D01*
X207864Y257692D01*
X207826Y257413D01*
X207781Y257134D01*
X207729Y256856D01*
X207671Y256580D01*
X207605Y256306D01*
X207533Y256033D01*
X207455Y255762D01*
X207370Y255493D01*
X207278Y255226D01*
X207179Y254961D01*
X207075Y254699D01*
X206963Y254440D01*
X206846Y254183D01*
X206722Y253929D01*
X206592Y253679D01*
X206456Y253432D01*
X206314Y253188D01*
X206166Y252948D01*
X206012Y252711D01*
X205852Y252478D01*
X205687Y252249D01*
X205516Y252025D01*
X205340Y251804D01*
X205158Y251589D01*
X204971Y251377D01*
X204779Y251170D01*
X204582Y250968D01*
X204380Y250771D01*
X204173Y250579D01*
X203961Y250392D01*
X203746Y250210D01*
X203525Y250034D01*
X203301Y249863D01*
X203072Y249698D01*
X202839Y249538D01*
X202602Y249384D01*
X202362Y249236D01*
X202118Y249094D01*
X201871Y248958D01*
X201621Y248828D01*
X201367Y248704D01*
X201110Y248587D01*
X200851Y248475D01*
X200589Y248371D01*
X200324Y248272D01*
X200057Y248180D01*
X199788Y248095D01*
X199517Y248017D01*
X199244Y247945D01*
X198970Y247879D01*
X198694Y247821D01*
X198416Y247769D01*
X198137Y247724D01*
X197858Y247686D01*
X197577Y247655D01*
X197296Y247631D01*
X197014Y247614D01*
X196732Y247603D01*
X196450Y247600D01*
X196168Y247603D01*
X195886Y247614D01*
X195604Y247631D01*
X195323Y247655D01*
X195042Y247686D01*
X194763Y247724D01*
X194484Y247769D01*
X194206Y247821D01*
X193930Y247879D01*
X193656Y247945D01*
X193383Y248017D01*
X193112Y248095D01*
X192843Y248180D01*
X192576Y248272D01*
X192311Y248371D01*
X192049Y248475D01*
X191790Y248587D01*
X191533Y248704D01*
X191279Y248828D01*
X191029Y248958D01*
X190782Y249094D01*
X190538Y249236D01*
X190298Y249384D01*
X190061Y249538D01*
X189828Y249698D01*
X189599Y249863D01*
X189375Y250034D01*
X189154Y250210D01*
X188939Y250392D01*
X188727Y250579D01*
X188520Y250771D01*
X188318Y250968D01*
X188121Y251170D01*
X187929Y251377D01*
X187742Y251589D01*
X187560Y251804D01*
X187384Y252025D01*
X187213Y252249D01*
X187048Y252478D01*
X186888Y252711D01*
X186734Y252948D01*
X186586Y253188D01*
X186444Y253432D01*
X186308Y253679D01*
X186178Y253929D01*
X186054Y254183D01*
X185937Y254440D01*
X185825Y254699D01*
X185721Y254961D01*
X185622Y255226D01*
X185530Y255493D01*
X185445Y255762D01*
X185367Y256033D01*
X185295Y256306D01*
X185229Y256580D01*
X185171Y256856D01*
X185119Y257134D01*
X185074Y257413D01*
X185036Y257692D01*
X185005Y257973D01*
X184981Y258254D01*
X184964Y258536D01*
X184953Y258818D01*
X184950Y259100D01*
X464950Y259100D02*
X464953Y259382D01*
X464964Y259664D01*
X464981Y259946D01*
X465005Y260227D01*
X465036Y260508D01*
X465074Y260787D01*
X465119Y261066D01*
X465171Y261344D01*
X465229Y261620D01*
X465295Y261894D01*
X465367Y262167D01*
X465445Y262438D01*
X465530Y262707D01*
X465622Y262974D01*
X465721Y263239D01*
X465825Y263501D01*
X465937Y263760D01*
X466054Y264017D01*
X466178Y264271D01*
X466308Y264521D01*
X466444Y264768D01*
X466586Y265012D01*
X466734Y265252D01*
X466888Y265489D01*
X467048Y265722D01*
X467213Y265951D01*
X467384Y266175D01*
X467560Y266396D01*
X467742Y266611D01*
X467929Y266823D01*
X468121Y267030D01*
X468318Y267232D01*
X468520Y267429D01*
X468727Y267621D01*
X468939Y267808D01*
X469154Y267990D01*
X469375Y268166D01*
X469599Y268337D01*
X469828Y268502D01*
X470061Y268662D01*
X470298Y268816D01*
X470538Y268964D01*
X470782Y269106D01*
X471029Y269242D01*
X471279Y269372D01*
X471533Y269496D01*
X471790Y269613D01*
X472049Y269725D01*
X472311Y269829D01*
X472576Y269928D01*
X472843Y270020D01*
X473112Y270105D01*
X473383Y270183D01*
X473656Y270255D01*
X473930Y270321D01*
X474206Y270379D01*
X474484Y270431D01*
X474763Y270476D01*
X475042Y270514D01*
X475323Y270545D01*
X475604Y270569D01*
X475886Y270586D01*
X476168Y270597D01*
X476450Y270600D01*
X476732Y270597D01*
X477014Y270586D01*
X477296Y270569D01*
X477577Y270545D01*
X477858Y270514D01*
X478137Y270476D01*
X478416Y270431D01*
X478694Y270379D01*
X478970Y270321D01*
X479244Y270255D01*
X479517Y270183D01*
X479788Y270105D01*
X480057Y270020D01*
X480324Y269928D01*
X480589Y269829D01*
X480851Y269725D01*
X481110Y269613D01*
X481367Y269496D01*
X481621Y269372D01*
X481871Y269242D01*
X482118Y269106D01*
X482362Y268964D01*
X482602Y268816D01*
X482839Y268662D01*
X483072Y268502D01*
X483301Y268337D01*
X483525Y268166D01*
X483746Y267990D01*
X483961Y267808D01*
X484173Y267621D01*
X484380Y267429D01*
X484582Y267232D01*
X484779Y267030D01*
X484971Y266823D01*
X485158Y266611D01*
X485340Y266396D01*
X485516Y266175D01*
X485687Y265951D01*
X485852Y265722D01*
X486012Y265489D01*
X486166Y265252D01*
X486314Y265012D01*
X486456Y264768D01*
X486592Y264521D01*
X486722Y264271D01*
X486846Y264017D01*
X486963Y263760D01*
X487075Y263501D01*
X487179Y263239D01*
X487278Y262974D01*
X487370Y262707D01*
X487455Y262438D01*
X487533Y262167D01*
X487605Y261894D01*
X487671Y261620D01*
X487729Y261344D01*
X487781Y261066D01*
X487826Y260787D01*
X487864Y260508D01*
X487895Y260227D01*
X487919Y259946D01*
X487936Y259664D01*
X487947Y259382D01*
X487950Y259100D01*
X487947Y258818D01*
X487936Y258536D01*
X487919Y258254D01*
X487895Y257973D01*
X487864Y257692D01*
X487826Y257413D01*
X487781Y257134D01*
X487729Y256856D01*
X487671Y256580D01*
X487605Y256306D01*
X487533Y256033D01*
X487455Y255762D01*
X487370Y255493D01*
X487278Y255226D01*
X487179Y254961D01*
X487075Y254699D01*
X486963Y254440D01*
X486846Y254183D01*
X486722Y253929D01*
X486592Y253679D01*
X486456Y253432D01*
X486314Y253188D01*
X486166Y252948D01*
X486012Y252711D01*
X485852Y252478D01*
X485687Y252249D01*
X485516Y252025D01*
X485340Y251804D01*
X485158Y251589D01*
X484971Y251377D01*
X484779Y251170D01*
X484582Y250968D01*
X484380Y250771D01*
X484173Y250579D01*
X483961Y250392D01*
X483746Y250210D01*
X483525Y250034D01*
X483301Y249863D01*
X483072Y249698D01*
X482839Y249538D01*
X482602Y249384D01*
X482362Y249236D01*
X482118Y249094D01*
X481871Y248958D01*
X481621Y248828D01*
X481367Y248704D01*
X481110Y248587D01*
X480851Y248475D01*
X480589Y248371D01*
X480324Y248272D01*
X480057Y248180D01*
X479788Y248095D01*
X479517Y248017D01*
X479244Y247945D01*
X478970Y247879D01*
X478694Y247821D01*
X478416Y247769D01*
X478137Y247724D01*
X477858Y247686D01*
X477577Y247655D01*
X477296Y247631D01*
X477014Y247614D01*
X476732Y247603D01*
X476450Y247600D01*
X476168Y247603D01*
X475886Y247614D01*
X475604Y247631D01*
X475323Y247655D01*
X475042Y247686D01*
X474763Y247724D01*
X474484Y247769D01*
X474206Y247821D01*
X473930Y247879D01*
X473656Y247945D01*
X473383Y248017D01*
X473112Y248095D01*
X472843Y248180D01*
X472576Y248272D01*
X472311Y248371D01*
X472049Y248475D01*
X471790Y248587D01*
X471533Y248704D01*
X471279Y248828D01*
X471029Y248958D01*
X470782Y249094D01*
X470538Y249236D01*
X470298Y249384D01*
X470061Y249538D01*
X469828Y249698D01*
X469599Y249863D01*
X469375Y250034D01*
X469154Y250210D01*
X468939Y250392D01*
X468727Y250579D01*
X468520Y250771D01*
X468318Y250968D01*
X468121Y251170D01*
X467929Y251377D01*
X467742Y251589D01*
X467560Y251804D01*
X467384Y252025D01*
X467213Y252249D01*
X467048Y252478D01*
X466888Y252711D01*
X466734Y252948D01*
X466586Y253188D01*
X466444Y253432D01*
X466308Y253679D01*
X466178Y253929D01*
X466054Y254183D01*
X465937Y254440D01*
X465825Y254699D01*
X465721Y254961D01*
X465622Y255226D01*
X465530Y255493D01*
X465445Y255762D01*
X465367Y256033D01*
X465295Y256306D01*
X465229Y256580D01*
X465171Y256856D01*
X465119Y257134D01*
X465074Y257413D01*
X465036Y257692D01*
X465005Y257973D01*
X464981Y258254D01*
X464964Y258536D01*
X464953Y258818D01*
X464950Y259100D01*
D13*
X181750Y926860D02*
X169050Y926860D01*
X169050Y796860D02*
X181750Y796860D01*
X344050Y926860D02*
X356750Y926860D01*
X356750Y796860D02*
X344050Y796860D01*
X694050Y926860D02*
X706750Y926860D01*
X706750Y796860D02*
X694050Y796860D01*
X869050Y926860D02*
X881750Y926860D01*
X881750Y796860D02*
X869050Y796860D01*
X531750Y926860D02*
X519050Y926860D01*
X519050Y796860D02*
X531750Y796860D01*
D10*
X19291Y236474D02*
X19294Y236756D01*
X19305Y237038D01*
X19322Y237320D01*
X19346Y237601D01*
X19377Y237882D01*
X19415Y238161D01*
X19460Y238440D01*
X19512Y238718D01*
X19570Y238994D01*
X19636Y239268D01*
X19708Y239541D01*
X19786Y239812D01*
X19871Y240081D01*
X19963Y240348D01*
X20062Y240613D01*
X20166Y240875D01*
X20278Y241134D01*
X20395Y241391D01*
X20519Y241645D01*
X20649Y241895D01*
X20785Y242142D01*
X20927Y242386D01*
X21075Y242626D01*
X21229Y242863D01*
X21389Y243096D01*
X21554Y243325D01*
X21725Y243549D01*
X21901Y243770D01*
X22083Y243985D01*
X22270Y244197D01*
X22462Y244404D01*
X22659Y244606D01*
X22861Y244803D01*
X23068Y244995D01*
X23280Y245182D01*
X23495Y245364D01*
X23716Y245540D01*
X23940Y245711D01*
X24169Y245876D01*
X24402Y246036D01*
X24639Y246190D01*
X24879Y246338D01*
X25123Y246480D01*
X25370Y246616D01*
X25620Y246746D01*
X25874Y246870D01*
X26131Y246987D01*
X26390Y247099D01*
X26652Y247203D01*
X26917Y247302D01*
X27184Y247394D01*
X27453Y247479D01*
X27724Y247557D01*
X27997Y247629D01*
X28271Y247695D01*
X28547Y247753D01*
X28825Y247805D01*
X29104Y247850D01*
X29383Y247888D01*
X29664Y247919D01*
X29945Y247943D01*
X30227Y247960D01*
X30509Y247971D01*
X30791Y247974D01*
X31073Y247971D01*
X31355Y247960D01*
X31637Y247943D01*
X31918Y247919D01*
X32199Y247888D01*
X32478Y247850D01*
X32757Y247805D01*
X33035Y247753D01*
X33311Y247695D01*
X33585Y247629D01*
X33858Y247557D01*
X34129Y247479D01*
X34398Y247394D01*
X34665Y247302D01*
X34930Y247203D01*
X35192Y247099D01*
X35451Y246987D01*
X35708Y246870D01*
X35962Y246746D01*
X36212Y246616D01*
X36459Y246480D01*
X36703Y246338D01*
X36943Y246190D01*
X37180Y246036D01*
X37413Y245876D01*
X37642Y245711D01*
X37866Y245540D01*
X38087Y245364D01*
X38302Y245182D01*
X38514Y244995D01*
X38721Y244803D01*
X38923Y244606D01*
X39120Y244404D01*
X39312Y244197D01*
X39499Y243985D01*
X39681Y243770D01*
X39857Y243549D01*
X40028Y243325D01*
X40193Y243096D01*
X40353Y242863D01*
X40507Y242626D01*
X40655Y242386D01*
X40797Y242142D01*
X40933Y241895D01*
X41063Y241645D01*
X41187Y241391D01*
X41304Y241134D01*
X41416Y240875D01*
X41520Y240613D01*
X41619Y240348D01*
X41711Y240081D01*
X41796Y239812D01*
X41874Y239541D01*
X41946Y239268D01*
X42012Y238994D01*
X42070Y238718D01*
X42122Y238440D01*
X42167Y238161D01*
X42205Y237882D01*
X42236Y237601D01*
X42260Y237320D01*
X42277Y237038D01*
X42288Y236756D01*
X42291Y236474D01*
X42288Y236192D01*
X42277Y235910D01*
X42260Y235628D01*
X42236Y235347D01*
X42205Y235066D01*
X42167Y234787D01*
X42122Y234508D01*
X42070Y234230D01*
X42012Y233954D01*
X41946Y233680D01*
X41874Y233407D01*
X41796Y233136D01*
X41711Y232867D01*
X41619Y232600D01*
X41520Y232335D01*
X41416Y232073D01*
X41304Y231814D01*
X41187Y231557D01*
X41063Y231303D01*
X40933Y231053D01*
X40797Y230806D01*
X40655Y230562D01*
X40507Y230322D01*
X40353Y230085D01*
X40193Y229852D01*
X40028Y229623D01*
X39857Y229399D01*
X39681Y229178D01*
X39499Y228963D01*
X39312Y228751D01*
X39120Y228544D01*
X38923Y228342D01*
X38721Y228145D01*
X38514Y227953D01*
X38302Y227766D01*
X38087Y227584D01*
X37866Y227408D01*
X37642Y227237D01*
X37413Y227072D01*
X37180Y226912D01*
X36943Y226758D01*
X36703Y226610D01*
X36459Y226468D01*
X36212Y226332D01*
X35962Y226202D01*
X35708Y226078D01*
X35451Y225961D01*
X35192Y225849D01*
X34930Y225745D01*
X34665Y225646D01*
X34398Y225554D01*
X34129Y225469D01*
X33858Y225391D01*
X33585Y225319D01*
X33311Y225253D01*
X33035Y225195D01*
X32757Y225143D01*
X32478Y225098D01*
X32199Y225060D01*
X31918Y225029D01*
X31637Y225005D01*
X31355Y224988D01*
X31073Y224977D01*
X30791Y224974D01*
X30509Y224977D01*
X30227Y224988D01*
X29945Y225005D01*
X29664Y225029D01*
X29383Y225060D01*
X29104Y225098D01*
X28825Y225143D01*
X28547Y225195D01*
X28271Y225253D01*
X27997Y225319D01*
X27724Y225391D01*
X27453Y225469D01*
X27184Y225554D01*
X26917Y225646D01*
X26652Y225745D01*
X26390Y225849D01*
X26131Y225961D01*
X25874Y226078D01*
X25620Y226202D01*
X25370Y226332D01*
X25123Y226468D01*
X24879Y226610D01*
X24639Y226758D01*
X24402Y226912D01*
X24169Y227072D01*
X23940Y227237D01*
X23716Y227408D01*
X23495Y227584D01*
X23280Y227766D01*
X23068Y227953D01*
X22861Y228145D01*
X22659Y228342D01*
X22462Y228544D01*
X22270Y228751D01*
X22083Y228963D01*
X21901Y229178D01*
X21725Y229399D01*
X21554Y229623D01*
X21389Y229852D01*
X21229Y230085D01*
X21075Y230322D01*
X20927Y230562D01*
X20785Y230806D01*
X20649Y231053D01*
X20519Y231303D01*
X20395Y231557D01*
X20278Y231814D01*
X20166Y232073D01*
X20062Y232335D01*
X19963Y232600D01*
X19871Y232867D01*
X19786Y233136D01*
X19708Y233407D01*
X19636Y233680D01*
X19570Y233954D01*
X19512Y234230D01*
X19460Y234508D01*
X19415Y234787D01*
X19377Y235066D01*
X19346Y235347D01*
X19322Y235628D01*
X19305Y235910D01*
X19294Y236192D01*
X19291Y236474D01*
M02*
