G04 EAGLE Gerber RS-274X export*
G75*
%MOMM*%
%FSLAX34Y34*%
%LPD*%
%INSolder stop mask TOP*%
%IPPOS*%
%AMOC8*
5,1,8,0,0,1.08239X$1,22.5*%
G01*
%ADD10C,3.303200*%
%ADD11R,1.283200X1.253200*%
%ADD12R,1.253200X1.283200*%
%ADD13R,0.400000X1.050000*%
%ADD14R,3.000000X3.000000*%
%ADD15R,1.050000X0.400000*%
%ADD16R,1.203200X1.303200*%
%ADD17R,1.303200X1.203200*%
%ADD18R,1.603200X1.203200*%
%ADD19R,1.103200X1.703200*%
%ADD20R,1.703200X1.103200*%
%ADD21R,1.533200X1.533200*%
%ADD22C,1.203200*%
%ADD23R,1.203200X2.003200*%
%ADD24R,1.103200X0.903200*%
%ADD25R,0.753200X0.803200*%
%ADD26R,2.803200X0.853200*%
%ADD27R,0.853200X2.803200*%
%ADD28C,2.082800*%
%ADD29R,1.473200X2.743200*%
%ADD30R,0.914400X1.625600*%
%ADD31C,1.803200*%
%ADD32C,1.303200*%
%ADD33R,1.403200X0.753200*%
%ADD34R,1.453200X4.903200*%
%ADD35R,1.203200X1.473200*%
%ADD36P,2.144431X8X112.500000*%
%ADD37C,2.743200*%
%ADD38C,2.153200*%
%ADD39R,3.703200X1.803200*%
%ADD40R,0.803200X0.753200*%
%ADD41C,2.503200*%
%ADD42C,1.727200*%
%ADD43R,0.653200X1.703200*%
%ADD44C,1.727200*%
%ADD45C,2.108200*%
%ADD46R,1.603200X0.503200*%
%ADD47R,0.903200X1.953200*%
%ADD48R,1.703200X1.503200*%
%ADD49R,1.003200X1.703200*%
%ADD50R,1.003200X1.603200*%
%ADD51R,1.753200X1.203200*%
%ADD52R,1.203200X1.753200*%
%ADD53R,6.403200X5.603200*%
%ADD54R,1.803200X1.203200*%
%ADD55R,0.508000X1.193800*%
%ADD56R,0.803200X1.353200*%
%ADD57R,0.653200X1.353200*%
%ADD58C,0.500000*%
%ADD59R,2.082800X2.082800*%
%ADD60R,1.603200X0.773200*%
%ADD61R,1.403200X0.853200*%
%ADD62R,1.473200X1.203200*%
%ADD63R,0.853200X1.731200*%
%ADD64C,1.016000*%
%ADD65C,1.009600*%

G36*
X65348Y496837D02*
X65348Y496837D01*
X65419Y496841D01*
X65458Y496857D01*
X65499Y496864D01*
X65560Y496901D01*
X65625Y496928D01*
X65661Y496960D01*
X65692Y496979D01*
X65719Y497012D01*
X65765Y497053D01*
X71925Y504445D01*
X83058Y504445D01*
X83123Y504456D01*
X83189Y504458D01*
X83232Y504476D01*
X83279Y504484D01*
X83336Y504518D01*
X83396Y504543D01*
X83431Y504574D01*
X83472Y504599D01*
X83514Y504650D01*
X83562Y504694D01*
X83584Y504736D01*
X83613Y504773D01*
X83634Y504835D01*
X83665Y504894D01*
X83673Y504948D01*
X83685Y504985D01*
X83684Y505025D01*
X83692Y505079D01*
X83692Y512699D01*
X83681Y512764D01*
X83679Y512830D01*
X83661Y512873D01*
X83653Y512920D01*
X83619Y512977D01*
X83594Y513037D01*
X83563Y513072D01*
X83538Y513113D01*
X83487Y513155D01*
X83443Y513203D01*
X83401Y513225D01*
X83364Y513254D01*
X83302Y513275D01*
X83243Y513306D01*
X83189Y513314D01*
X83152Y513326D01*
X83112Y513325D01*
X83058Y513333D01*
X71925Y513333D01*
X65765Y520725D01*
X65711Y520771D01*
X65663Y520823D01*
X65626Y520842D01*
X65593Y520869D01*
X65527Y520893D01*
X65463Y520926D01*
X65416Y520933D01*
X65382Y520945D01*
X65339Y520944D01*
X65278Y520953D01*
X37338Y520953D01*
X37273Y520942D01*
X37207Y520940D01*
X37164Y520922D01*
X37117Y520914D01*
X37060Y520880D01*
X37000Y520855D01*
X36965Y520824D01*
X36924Y520799D01*
X36883Y520748D01*
X36834Y520704D01*
X36812Y520662D01*
X36783Y520625D01*
X36762Y520563D01*
X36731Y520504D01*
X36723Y520450D01*
X36711Y520413D01*
X36711Y520388D01*
X36711Y520386D01*
X36711Y520369D01*
X36704Y520319D01*
X36704Y497459D01*
X36715Y497394D01*
X36717Y497328D01*
X36735Y497285D01*
X36743Y497238D01*
X36777Y497181D01*
X36802Y497121D01*
X36833Y497086D01*
X36858Y497045D01*
X36909Y497004D01*
X36953Y496955D01*
X36995Y496933D01*
X37032Y496904D01*
X37094Y496883D01*
X37153Y496852D01*
X37207Y496844D01*
X37244Y496832D01*
X37284Y496833D01*
X37338Y496825D01*
X65278Y496825D01*
X65348Y496837D01*
G37*
D10*
X60000Y60000D03*
X50000Y940000D03*
X950000Y940000D03*
X940000Y60000D03*
D11*
X754063Y246748D03*
X754063Y229248D03*
X770065Y246748D03*
X770065Y229248D03*
D12*
X803707Y118872D03*
X786207Y118872D03*
D13*
X823200Y155725D03*
X828200Y155725D03*
D14*
X838200Y180975D03*
D13*
X833200Y155725D03*
X838200Y155725D03*
X843200Y155725D03*
X848200Y155725D03*
X853200Y155725D03*
D15*
X812950Y195975D03*
X812950Y190975D03*
X812950Y185975D03*
X812950Y180975D03*
X812950Y175975D03*
X812950Y170975D03*
X812950Y165975D03*
X863450Y165975D03*
X863450Y170975D03*
X863450Y175975D03*
X863450Y180975D03*
X863450Y185975D03*
X863450Y190975D03*
X863450Y195975D03*
D13*
X853200Y206225D03*
X848200Y206225D03*
X843200Y206225D03*
X838200Y206225D03*
X833200Y206225D03*
X828200Y206225D03*
X823200Y206225D03*
D16*
X980304Y202121D03*
X963304Y202121D03*
D17*
X965454Y178871D03*
X965454Y161871D03*
X768477Y202175D03*
X768477Y185175D03*
X790639Y202175D03*
X790639Y185175D03*
X850810Y91532D03*
X850810Y108532D03*
X834935Y91532D03*
X834935Y108532D03*
D18*
X919529Y189421D03*
X941529Y198921D03*
X941529Y179921D03*
X919529Y151321D03*
X941529Y160821D03*
X941529Y141821D03*
D19*
X987900Y571711D03*
X975200Y571711D03*
X962500Y571711D03*
X949800Y571711D03*
X937100Y571711D03*
X924400Y571711D03*
X911700Y571711D03*
X899000Y571711D03*
X886300Y571711D03*
X873600Y571711D03*
X860900Y571711D03*
X848200Y571711D03*
X835500Y571711D03*
X822800Y571711D03*
D20*
X807900Y538861D03*
X807900Y526161D03*
X807900Y513461D03*
X807900Y500761D03*
X807900Y488061D03*
X807900Y475361D03*
X807900Y462661D03*
X807900Y449961D03*
X807900Y437261D03*
X807900Y424561D03*
D19*
X822800Y391711D03*
X835500Y391711D03*
X848200Y391711D03*
X860900Y391711D03*
X873600Y391711D03*
X886300Y391711D03*
X899000Y391711D03*
X911700Y391711D03*
X924400Y391711D03*
X937100Y391711D03*
X949800Y391711D03*
X962500Y391711D03*
X975200Y391711D03*
X987900Y391711D03*
D21*
X912900Y491711D03*
X894650Y491711D03*
X931250Y491711D03*
X894550Y473361D03*
X912900Y473361D03*
X931250Y473361D03*
X894550Y510061D03*
X912900Y510061D03*
X931250Y510061D03*
D17*
X648399Y473148D03*
X648399Y490148D03*
D12*
X650380Y447358D03*
X667880Y447358D03*
D22*
X219012Y355600D03*
D17*
X882650Y221225D03*
X882650Y204225D03*
D16*
X855100Y136525D03*
X872100Y136525D03*
X926012Y114364D03*
X909012Y114364D03*
D17*
X903256Y221352D03*
X903256Y204352D03*
D11*
X968566Y596151D03*
X968566Y613651D03*
X952437Y596151D03*
X952437Y613651D03*
D23*
X870722Y596900D03*
X895722Y596900D03*
D24*
X870522Y618975D03*
X870522Y631975D03*
X895922Y618975D03*
X895922Y631975D03*
D16*
X809674Y282665D03*
X826674Y282665D03*
D25*
X796105Y94469D03*
X796105Y81469D03*
X814605Y87969D03*
X889608Y96031D03*
X889608Y109031D03*
X871108Y102531D03*
D26*
X721422Y539915D03*
X721422Y527215D03*
X721422Y514515D03*
X721422Y501815D03*
X721422Y489115D03*
X684422Y539915D03*
X684422Y527215D03*
X684422Y514515D03*
X684422Y501815D03*
X684422Y489115D03*
D27*
X926148Y249661D03*
X913448Y249661D03*
X900748Y249661D03*
X926148Y286661D03*
X913448Y286661D03*
X900748Y286661D03*
D17*
X864616Y234445D03*
X864616Y251445D03*
D16*
X654168Y554292D03*
X637168Y554292D03*
X836304Y610680D03*
X853304Y610680D03*
X763152Y571627D03*
X780152Y571627D03*
X763914Y436880D03*
X780914Y436880D03*
X763660Y526034D03*
X780660Y526034D03*
X763787Y548704D03*
X780787Y548704D03*
D28*
X273050Y266700D03*
X273050Y241300D03*
X298450Y266700D03*
X298450Y241300D03*
X323850Y266700D03*
X323850Y241300D03*
X349250Y266700D03*
X349250Y241300D03*
X374650Y266700D03*
X374650Y241300D03*
X400050Y266700D03*
X400050Y241300D03*
D29*
X509270Y158750D03*
X509270Y19050D03*
X781050Y19050D03*
X763270Y158750D03*
D30*
X521970Y179070D03*
X534670Y179070D03*
X547370Y179070D03*
X562610Y179070D03*
X588010Y179070D03*
X613410Y179070D03*
X638810Y179070D03*
X664210Y179070D03*
X689610Y179070D03*
X715010Y179070D03*
X740410Y179070D03*
D31*
X740410Y148590D03*
D32*
X529590Y148590D03*
D33*
X409593Y112942D03*
X409593Y103442D03*
X409593Y93942D03*
X435593Y93942D03*
X435593Y103442D03*
X435593Y112942D03*
D12*
X470014Y136398D03*
X452514Y136398D03*
D16*
X469764Y118745D03*
X452764Y118745D03*
D12*
X401206Y35814D03*
X418706Y35814D03*
X401206Y53467D03*
X418706Y53467D03*
X388760Y147320D03*
X406260Y147320D03*
X388760Y163386D03*
X406260Y163386D03*
X388760Y179451D03*
X406260Y179451D03*
D16*
X369128Y35808D03*
X386128Y35808D03*
X457463Y88837D03*
X474463Y88837D03*
X457463Y67628D03*
X474463Y67628D03*
X457463Y46387D03*
X474463Y46387D03*
D34*
X377946Y91821D03*
X345446Y91821D03*
D35*
X182817Y417861D03*
X192317Y397861D03*
X173317Y397861D03*
D17*
X909892Y371085D03*
X909892Y354085D03*
D16*
X729606Y421894D03*
X712606Y421894D03*
X729606Y444691D03*
X712606Y444691D03*
D17*
X974154Y367974D03*
X974154Y350974D03*
D33*
X230586Y109386D03*
X230586Y99886D03*
X230586Y90386D03*
X256586Y90386D03*
X256586Y99886D03*
X256586Y109386D03*
D12*
X294627Y130175D03*
X277127Y130175D03*
D16*
X293806Y111252D03*
X276806Y111252D03*
D12*
X220676Y54229D03*
X238176Y54229D03*
X220231Y34735D03*
X237731Y34735D03*
X210516Y181293D03*
X228016Y181293D03*
X211341Y143129D03*
X228841Y143129D03*
X210770Y163386D03*
X228270Y163386D03*
D16*
X185175Y34925D03*
X202175Y34925D03*
X274964Y82487D03*
X291964Y82487D03*
X274907Y40488D03*
X291907Y40488D03*
X274977Y61652D03*
X291977Y61652D03*
D34*
X196336Y89726D03*
X163836Y89726D03*
D16*
X147946Y378651D03*
X130946Y378651D03*
D11*
X129032Y417055D03*
X129032Y399555D03*
D17*
X153162Y416805D03*
X153162Y399805D03*
D12*
X606793Y203899D03*
X589293Y203899D03*
D17*
X868490Y370831D03*
X868490Y353831D03*
X889254Y370831D03*
X889254Y353831D03*
X847789Y370831D03*
X847789Y353831D03*
X551752Y216036D03*
X551752Y233036D03*
D16*
X606670Y228410D03*
X589670Y228410D03*
D12*
X261366Y217501D03*
X243866Y217501D03*
D11*
X247142Y247981D03*
X247142Y265481D03*
D36*
X971423Y693992D03*
X971423Y739204D03*
D37*
X946531Y681546D03*
X946531Y751650D03*
D16*
X969192Y634556D03*
X952192Y634556D03*
D38*
X54200Y449307D02*
X34700Y449307D01*
X34700Y399307D02*
X54200Y399307D01*
D39*
X203848Y331724D03*
X149848Y331724D03*
D22*
X353759Y36005D03*
X366141Y164275D03*
X184595Y166307D03*
X173228Y35179D03*
D40*
X165949Y488485D03*
X152949Y488485D03*
X159449Y469985D03*
X630151Y514562D03*
X643151Y514562D03*
X636651Y533062D03*
D16*
X776424Y282004D03*
X793424Y282004D03*
D41*
X196450Y259100D03*
X476450Y259100D03*
D42*
X606171Y436372D02*
X621411Y436372D01*
X621411Y410972D02*
X606171Y410972D01*
X606171Y385572D02*
X621411Y385572D01*
X621411Y360172D02*
X606171Y360172D01*
X538480Y436372D02*
X523240Y436372D01*
X523240Y410972D02*
X538480Y410972D01*
X538480Y385572D02*
X523240Y385572D01*
X523240Y360172D02*
X538480Y360172D01*
D43*
X841285Y52407D03*
X834785Y52407D03*
X854285Y52407D03*
X847785Y52407D03*
D44*
X813285Y54907D03*
X869285Y54907D03*
D45*
X841285Y33407D03*
D43*
X828285Y52407D03*
D11*
X556260Y432422D03*
X556260Y414922D03*
X588391Y432422D03*
X588391Y414922D03*
D16*
X566856Y461709D03*
X549856Y461709D03*
X584400Y461328D03*
X601400Y461328D03*
X437062Y367792D03*
X420062Y367792D03*
D18*
X339393Y343345D03*
X361393Y352845D03*
X361393Y333845D03*
D17*
X385890Y334591D03*
X385890Y351591D03*
D42*
X307086Y351219D02*
X307086Y335979D01*
X281686Y335979D02*
X281686Y351219D01*
D22*
X411544Y333439D03*
D46*
X267364Y640875D03*
X267364Y645875D03*
X267364Y650875D03*
X267364Y655875D03*
X267364Y660875D03*
X223364Y660875D03*
X223364Y655875D03*
X223364Y650875D03*
X223364Y645875D03*
X223364Y640875D03*
X818989Y642399D03*
X818989Y647399D03*
X818989Y652399D03*
X818989Y657399D03*
X818989Y662399D03*
X774989Y662399D03*
X774989Y657399D03*
X774989Y652399D03*
X774989Y647399D03*
X774989Y642399D03*
D12*
X312116Y369316D03*
X329616Y369316D03*
D47*
X673521Y17836D03*
X662521Y17836D03*
X651521Y17836D03*
X640521Y17836D03*
X629521Y17836D03*
X618521Y17836D03*
X607521Y17836D03*
X596521Y17836D03*
D48*
X583521Y20086D03*
X698021Y20086D03*
D49*
X581771Y95086D03*
D50*
X701271Y101586D03*
D51*
X584771Y110086D03*
D52*
X697271Y125836D03*
D17*
X331014Y415231D03*
X348014Y415231D03*
D16*
X426657Y443028D03*
X426657Y460028D03*
D17*
X109737Y438722D03*
X126737Y438722D03*
X109737Y466725D03*
X126737Y466725D03*
X47507Y351600D03*
X64507Y351600D03*
X47507Y301816D03*
X64507Y301816D03*
D53*
X223920Y451168D03*
D54*
X296920Y428368D03*
X296920Y473968D03*
D55*
X418465Y592360D03*
X411965Y592360D03*
X405465Y592360D03*
X398965Y592360D03*
X392465Y592360D03*
X385965Y592360D03*
X379465Y592360D03*
X372965Y592360D03*
X366465Y592360D03*
X359965Y592360D03*
X353465Y592360D03*
X346965Y592360D03*
X346965Y534004D03*
X353465Y534004D03*
X359965Y534004D03*
X366465Y534004D03*
X372965Y534004D03*
X379465Y534004D03*
X385965Y534004D03*
X392465Y534004D03*
X398965Y534004D03*
X405465Y534004D03*
X411965Y534004D03*
X418465Y534004D03*
D56*
X468671Y432529D03*
X489671Y432529D03*
X468671Y476029D03*
X489671Y476029D03*
D57*
X475921Y432529D03*
X482421Y432529D03*
X482421Y476029D03*
X475921Y476029D03*
D58*
X12500Y980000D02*
X12502Y980181D01*
X12509Y980362D01*
X12520Y980543D01*
X12535Y980724D01*
X12555Y980904D01*
X12579Y981084D01*
X12607Y981263D01*
X12640Y981441D01*
X12677Y981618D01*
X12718Y981795D01*
X12763Y981970D01*
X12813Y982145D01*
X12867Y982318D01*
X12925Y982489D01*
X12987Y982660D01*
X13054Y982828D01*
X13124Y982995D01*
X13198Y983161D01*
X13277Y983324D01*
X13359Y983485D01*
X13445Y983645D01*
X13535Y983802D01*
X13629Y983957D01*
X13726Y984110D01*
X13828Y984260D01*
X13932Y984408D01*
X14041Y984554D01*
X14152Y984696D01*
X14268Y984836D01*
X14386Y984973D01*
X14508Y985108D01*
X14633Y985239D01*
X14761Y985367D01*
X14892Y985492D01*
X15027Y985614D01*
X15164Y985732D01*
X15304Y985848D01*
X15446Y985959D01*
X15592Y986068D01*
X15740Y986172D01*
X15890Y986274D01*
X16043Y986371D01*
X16198Y986465D01*
X16355Y986555D01*
X16515Y986641D01*
X16676Y986723D01*
X16839Y986802D01*
X17005Y986876D01*
X17172Y986946D01*
X17340Y987013D01*
X17511Y987075D01*
X17682Y987133D01*
X17855Y987187D01*
X18030Y987237D01*
X18205Y987282D01*
X18382Y987323D01*
X18559Y987360D01*
X18737Y987393D01*
X18916Y987421D01*
X19096Y987445D01*
X19276Y987465D01*
X19457Y987480D01*
X19638Y987491D01*
X19819Y987498D01*
X20000Y987500D01*
X20181Y987498D01*
X20362Y987491D01*
X20543Y987480D01*
X20724Y987465D01*
X20904Y987445D01*
X21084Y987421D01*
X21263Y987393D01*
X21441Y987360D01*
X21618Y987323D01*
X21795Y987282D01*
X21970Y987237D01*
X22145Y987187D01*
X22318Y987133D01*
X22489Y987075D01*
X22660Y987013D01*
X22828Y986946D01*
X22995Y986876D01*
X23161Y986802D01*
X23324Y986723D01*
X23485Y986641D01*
X23645Y986555D01*
X23802Y986465D01*
X23957Y986371D01*
X24110Y986274D01*
X24260Y986172D01*
X24408Y986068D01*
X24554Y985959D01*
X24696Y985848D01*
X24836Y985732D01*
X24973Y985614D01*
X25108Y985492D01*
X25239Y985367D01*
X25367Y985239D01*
X25492Y985108D01*
X25614Y984973D01*
X25732Y984836D01*
X25848Y984696D01*
X25959Y984554D01*
X26068Y984408D01*
X26172Y984260D01*
X26274Y984110D01*
X26371Y983957D01*
X26465Y983802D01*
X26555Y983645D01*
X26641Y983485D01*
X26723Y983324D01*
X26802Y983161D01*
X26876Y982995D01*
X26946Y982828D01*
X27013Y982660D01*
X27075Y982489D01*
X27133Y982318D01*
X27187Y982145D01*
X27237Y981970D01*
X27282Y981795D01*
X27323Y981618D01*
X27360Y981441D01*
X27393Y981263D01*
X27421Y981084D01*
X27445Y980904D01*
X27465Y980724D01*
X27480Y980543D01*
X27491Y980362D01*
X27498Y980181D01*
X27500Y980000D01*
X27498Y979819D01*
X27491Y979638D01*
X27480Y979457D01*
X27465Y979276D01*
X27445Y979096D01*
X27421Y978916D01*
X27393Y978737D01*
X27360Y978559D01*
X27323Y978382D01*
X27282Y978205D01*
X27237Y978030D01*
X27187Y977855D01*
X27133Y977682D01*
X27075Y977511D01*
X27013Y977340D01*
X26946Y977172D01*
X26876Y977005D01*
X26802Y976839D01*
X26723Y976676D01*
X26641Y976515D01*
X26555Y976355D01*
X26465Y976198D01*
X26371Y976043D01*
X26274Y975890D01*
X26172Y975740D01*
X26068Y975592D01*
X25959Y975446D01*
X25848Y975304D01*
X25732Y975164D01*
X25614Y975027D01*
X25492Y974892D01*
X25367Y974761D01*
X25239Y974633D01*
X25108Y974508D01*
X24973Y974386D01*
X24836Y974268D01*
X24696Y974152D01*
X24554Y974041D01*
X24408Y973932D01*
X24260Y973828D01*
X24110Y973726D01*
X23957Y973629D01*
X23802Y973535D01*
X23645Y973445D01*
X23485Y973359D01*
X23324Y973277D01*
X23161Y973198D01*
X22995Y973124D01*
X22828Y973054D01*
X22660Y972987D01*
X22489Y972925D01*
X22318Y972867D01*
X22145Y972813D01*
X21970Y972763D01*
X21795Y972718D01*
X21618Y972677D01*
X21441Y972640D01*
X21263Y972607D01*
X21084Y972579D01*
X20904Y972555D01*
X20724Y972535D01*
X20543Y972520D01*
X20362Y972509D01*
X20181Y972502D01*
X20000Y972500D01*
X19819Y972502D01*
X19638Y972509D01*
X19457Y972520D01*
X19276Y972535D01*
X19096Y972555D01*
X18916Y972579D01*
X18737Y972607D01*
X18559Y972640D01*
X18382Y972677D01*
X18205Y972718D01*
X18030Y972763D01*
X17855Y972813D01*
X17682Y972867D01*
X17511Y972925D01*
X17340Y972987D01*
X17172Y973054D01*
X17005Y973124D01*
X16839Y973198D01*
X16676Y973277D01*
X16515Y973359D01*
X16355Y973445D01*
X16198Y973535D01*
X16043Y973629D01*
X15890Y973726D01*
X15740Y973828D01*
X15592Y973932D01*
X15446Y974041D01*
X15304Y974152D01*
X15164Y974268D01*
X15027Y974386D01*
X14892Y974508D01*
X14761Y974633D01*
X14633Y974761D01*
X14508Y974892D01*
X14386Y975027D01*
X14268Y975164D01*
X14152Y975304D01*
X14041Y975446D01*
X13932Y975592D01*
X13828Y975740D01*
X13726Y975890D01*
X13629Y976043D01*
X13535Y976198D01*
X13445Y976355D01*
X13359Y976515D01*
X13277Y976676D01*
X13198Y976839D01*
X13124Y977005D01*
X13054Y977172D01*
X12987Y977340D01*
X12925Y977511D01*
X12867Y977682D01*
X12813Y977855D01*
X12763Y978030D01*
X12718Y978205D01*
X12677Y978382D01*
X12640Y978559D01*
X12607Y978737D01*
X12579Y978916D01*
X12555Y979096D01*
X12535Y979276D01*
X12520Y979457D01*
X12509Y979638D01*
X12502Y979819D01*
X12500Y980000D01*
X972500Y980000D02*
X972502Y980181D01*
X972509Y980362D01*
X972520Y980543D01*
X972535Y980724D01*
X972555Y980904D01*
X972579Y981084D01*
X972607Y981263D01*
X972640Y981441D01*
X972677Y981618D01*
X972718Y981795D01*
X972763Y981970D01*
X972813Y982145D01*
X972867Y982318D01*
X972925Y982489D01*
X972987Y982660D01*
X973054Y982828D01*
X973124Y982995D01*
X973198Y983161D01*
X973277Y983324D01*
X973359Y983485D01*
X973445Y983645D01*
X973535Y983802D01*
X973629Y983957D01*
X973726Y984110D01*
X973828Y984260D01*
X973932Y984408D01*
X974041Y984554D01*
X974152Y984696D01*
X974268Y984836D01*
X974386Y984973D01*
X974508Y985108D01*
X974633Y985239D01*
X974761Y985367D01*
X974892Y985492D01*
X975027Y985614D01*
X975164Y985732D01*
X975304Y985848D01*
X975446Y985959D01*
X975592Y986068D01*
X975740Y986172D01*
X975890Y986274D01*
X976043Y986371D01*
X976198Y986465D01*
X976355Y986555D01*
X976515Y986641D01*
X976676Y986723D01*
X976839Y986802D01*
X977005Y986876D01*
X977172Y986946D01*
X977340Y987013D01*
X977511Y987075D01*
X977682Y987133D01*
X977855Y987187D01*
X978030Y987237D01*
X978205Y987282D01*
X978382Y987323D01*
X978559Y987360D01*
X978737Y987393D01*
X978916Y987421D01*
X979096Y987445D01*
X979276Y987465D01*
X979457Y987480D01*
X979638Y987491D01*
X979819Y987498D01*
X980000Y987500D01*
X980181Y987498D01*
X980362Y987491D01*
X980543Y987480D01*
X980724Y987465D01*
X980904Y987445D01*
X981084Y987421D01*
X981263Y987393D01*
X981441Y987360D01*
X981618Y987323D01*
X981795Y987282D01*
X981970Y987237D01*
X982145Y987187D01*
X982318Y987133D01*
X982489Y987075D01*
X982660Y987013D01*
X982828Y986946D01*
X982995Y986876D01*
X983161Y986802D01*
X983324Y986723D01*
X983485Y986641D01*
X983645Y986555D01*
X983802Y986465D01*
X983957Y986371D01*
X984110Y986274D01*
X984260Y986172D01*
X984408Y986068D01*
X984554Y985959D01*
X984696Y985848D01*
X984836Y985732D01*
X984973Y985614D01*
X985108Y985492D01*
X985239Y985367D01*
X985367Y985239D01*
X985492Y985108D01*
X985614Y984973D01*
X985732Y984836D01*
X985848Y984696D01*
X985959Y984554D01*
X986068Y984408D01*
X986172Y984260D01*
X986274Y984110D01*
X986371Y983957D01*
X986465Y983802D01*
X986555Y983645D01*
X986641Y983485D01*
X986723Y983324D01*
X986802Y983161D01*
X986876Y982995D01*
X986946Y982828D01*
X987013Y982660D01*
X987075Y982489D01*
X987133Y982318D01*
X987187Y982145D01*
X987237Y981970D01*
X987282Y981795D01*
X987323Y981618D01*
X987360Y981441D01*
X987393Y981263D01*
X987421Y981084D01*
X987445Y980904D01*
X987465Y980724D01*
X987480Y980543D01*
X987491Y980362D01*
X987498Y980181D01*
X987500Y980000D01*
X987498Y979819D01*
X987491Y979638D01*
X987480Y979457D01*
X987465Y979276D01*
X987445Y979096D01*
X987421Y978916D01*
X987393Y978737D01*
X987360Y978559D01*
X987323Y978382D01*
X987282Y978205D01*
X987237Y978030D01*
X987187Y977855D01*
X987133Y977682D01*
X987075Y977511D01*
X987013Y977340D01*
X986946Y977172D01*
X986876Y977005D01*
X986802Y976839D01*
X986723Y976676D01*
X986641Y976515D01*
X986555Y976355D01*
X986465Y976198D01*
X986371Y976043D01*
X986274Y975890D01*
X986172Y975740D01*
X986068Y975592D01*
X985959Y975446D01*
X985848Y975304D01*
X985732Y975164D01*
X985614Y975027D01*
X985492Y974892D01*
X985367Y974761D01*
X985239Y974633D01*
X985108Y974508D01*
X984973Y974386D01*
X984836Y974268D01*
X984696Y974152D01*
X984554Y974041D01*
X984408Y973932D01*
X984260Y973828D01*
X984110Y973726D01*
X983957Y973629D01*
X983802Y973535D01*
X983645Y973445D01*
X983485Y973359D01*
X983324Y973277D01*
X983161Y973198D01*
X982995Y973124D01*
X982828Y973054D01*
X982660Y972987D01*
X982489Y972925D01*
X982318Y972867D01*
X982145Y972813D01*
X981970Y972763D01*
X981795Y972718D01*
X981618Y972677D01*
X981441Y972640D01*
X981263Y972607D01*
X981084Y972579D01*
X980904Y972555D01*
X980724Y972535D01*
X980543Y972520D01*
X980362Y972509D01*
X980181Y972502D01*
X980000Y972500D01*
X979819Y972502D01*
X979638Y972509D01*
X979457Y972520D01*
X979276Y972535D01*
X979096Y972555D01*
X978916Y972579D01*
X978737Y972607D01*
X978559Y972640D01*
X978382Y972677D01*
X978205Y972718D01*
X978030Y972763D01*
X977855Y972813D01*
X977682Y972867D01*
X977511Y972925D01*
X977340Y972987D01*
X977172Y973054D01*
X977005Y973124D01*
X976839Y973198D01*
X976676Y973277D01*
X976515Y973359D01*
X976355Y973445D01*
X976198Y973535D01*
X976043Y973629D01*
X975890Y973726D01*
X975740Y973828D01*
X975592Y973932D01*
X975446Y974041D01*
X975304Y974152D01*
X975164Y974268D01*
X975027Y974386D01*
X974892Y974508D01*
X974761Y974633D01*
X974633Y974761D01*
X974508Y974892D01*
X974386Y975027D01*
X974268Y975164D01*
X974152Y975304D01*
X974041Y975446D01*
X973932Y975592D01*
X973828Y975740D01*
X973726Y975890D01*
X973629Y976043D01*
X973535Y976198D01*
X973445Y976355D01*
X973359Y976515D01*
X973277Y976676D01*
X973198Y976839D01*
X973124Y977005D01*
X973054Y977172D01*
X972987Y977340D01*
X972925Y977511D01*
X972867Y977682D01*
X972813Y977855D01*
X972763Y978030D01*
X972718Y978205D01*
X972677Y978382D01*
X972640Y978559D01*
X972607Y978737D01*
X972579Y978916D01*
X972555Y979096D01*
X972535Y979276D01*
X972520Y979457D01*
X972509Y979638D01*
X972502Y979819D01*
X972500Y980000D01*
X20000Y27500D02*
X19819Y27498D01*
X19638Y27491D01*
X19457Y27480D01*
X19276Y27465D01*
X19096Y27445D01*
X18916Y27421D01*
X18737Y27393D01*
X18559Y27360D01*
X18382Y27323D01*
X18205Y27282D01*
X18030Y27237D01*
X17855Y27187D01*
X17682Y27133D01*
X17511Y27075D01*
X17340Y27013D01*
X17172Y26946D01*
X17005Y26876D01*
X16839Y26802D01*
X16676Y26723D01*
X16515Y26641D01*
X16355Y26555D01*
X16198Y26465D01*
X16043Y26371D01*
X15890Y26274D01*
X15740Y26172D01*
X15592Y26068D01*
X15446Y25959D01*
X15304Y25848D01*
X15164Y25732D01*
X15027Y25614D01*
X14892Y25492D01*
X14761Y25367D01*
X14633Y25239D01*
X14508Y25108D01*
X14386Y24973D01*
X14268Y24836D01*
X14152Y24696D01*
X14041Y24554D01*
X13932Y24408D01*
X13828Y24260D01*
X13726Y24110D01*
X13629Y23957D01*
X13535Y23802D01*
X13445Y23645D01*
X13359Y23485D01*
X13277Y23324D01*
X13198Y23161D01*
X13124Y22995D01*
X13054Y22828D01*
X12987Y22660D01*
X12925Y22489D01*
X12867Y22318D01*
X12813Y22145D01*
X12763Y21970D01*
X12718Y21795D01*
X12677Y21618D01*
X12640Y21441D01*
X12607Y21263D01*
X12579Y21084D01*
X12555Y20904D01*
X12535Y20724D01*
X12520Y20543D01*
X12509Y20362D01*
X12502Y20181D01*
X12500Y20000D01*
X20000Y27500D02*
X20181Y27498D01*
X20362Y27491D01*
X20543Y27480D01*
X20724Y27465D01*
X20904Y27445D01*
X21084Y27421D01*
X21263Y27393D01*
X21441Y27360D01*
X21618Y27323D01*
X21795Y27282D01*
X21970Y27237D01*
X22145Y27187D01*
X22318Y27133D01*
X22489Y27075D01*
X22660Y27013D01*
X22828Y26946D01*
X22995Y26876D01*
X23161Y26802D01*
X23324Y26723D01*
X23485Y26641D01*
X23645Y26555D01*
X23802Y26465D01*
X23957Y26371D01*
X24110Y26274D01*
X24260Y26172D01*
X24408Y26068D01*
X24554Y25959D01*
X24696Y25848D01*
X24836Y25732D01*
X24973Y25614D01*
X25108Y25492D01*
X25239Y25367D01*
X25367Y25239D01*
X25492Y25108D01*
X25614Y24973D01*
X25732Y24836D01*
X25848Y24696D01*
X25959Y24554D01*
X26068Y24408D01*
X26172Y24260D01*
X26274Y24110D01*
X26371Y23957D01*
X26465Y23802D01*
X26555Y23645D01*
X26641Y23485D01*
X26723Y23324D01*
X26802Y23161D01*
X26876Y22995D01*
X26946Y22828D01*
X27013Y22660D01*
X27075Y22489D01*
X27133Y22318D01*
X27187Y22145D01*
X27237Y21970D01*
X27282Y21795D01*
X27323Y21618D01*
X27360Y21441D01*
X27393Y21263D01*
X27421Y21084D01*
X27445Y20904D01*
X27465Y20724D01*
X27480Y20543D01*
X27491Y20362D01*
X27498Y20181D01*
X27500Y20000D01*
X27498Y19819D01*
X27491Y19638D01*
X27480Y19457D01*
X27465Y19276D01*
X27445Y19096D01*
X27421Y18916D01*
X27393Y18737D01*
X27360Y18559D01*
X27323Y18382D01*
X27282Y18205D01*
X27237Y18030D01*
X27187Y17855D01*
X27133Y17682D01*
X27075Y17511D01*
X27013Y17340D01*
X26946Y17172D01*
X26876Y17005D01*
X26802Y16839D01*
X26723Y16676D01*
X26641Y16515D01*
X26555Y16355D01*
X26465Y16198D01*
X26371Y16043D01*
X26274Y15890D01*
X26172Y15740D01*
X26068Y15592D01*
X25959Y15446D01*
X25848Y15304D01*
X25732Y15164D01*
X25614Y15027D01*
X25492Y14892D01*
X25367Y14761D01*
X25239Y14633D01*
X25108Y14508D01*
X24973Y14386D01*
X24836Y14268D01*
X24696Y14152D01*
X24554Y14041D01*
X24408Y13932D01*
X24260Y13828D01*
X24110Y13726D01*
X23957Y13629D01*
X23802Y13535D01*
X23645Y13445D01*
X23485Y13359D01*
X23324Y13277D01*
X23161Y13198D01*
X22995Y13124D01*
X22828Y13054D01*
X22660Y12987D01*
X22489Y12925D01*
X22318Y12867D01*
X22145Y12813D01*
X21970Y12763D01*
X21795Y12718D01*
X21618Y12677D01*
X21441Y12640D01*
X21263Y12607D01*
X21084Y12579D01*
X20904Y12555D01*
X20724Y12535D01*
X20543Y12520D01*
X20362Y12509D01*
X20181Y12502D01*
X20000Y12500D01*
X19819Y12502D01*
X19638Y12509D01*
X19457Y12520D01*
X19276Y12535D01*
X19096Y12555D01*
X18916Y12579D01*
X18737Y12607D01*
X18559Y12640D01*
X18382Y12677D01*
X18205Y12718D01*
X18030Y12763D01*
X17855Y12813D01*
X17682Y12867D01*
X17511Y12925D01*
X17340Y12987D01*
X17172Y13054D01*
X17005Y13124D01*
X16839Y13198D01*
X16676Y13277D01*
X16515Y13359D01*
X16355Y13445D01*
X16198Y13535D01*
X16043Y13629D01*
X15890Y13726D01*
X15740Y13828D01*
X15592Y13932D01*
X15446Y14041D01*
X15304Y14152D01*
X15164Y14268D01*
X15027Y14386D01*
X14892Y14508D01*
X14761Y14633D01*
X14633Y14761D01*
X14508Y14892D01*
X14386Y15027D01*
X14268Y15164D01*
X14152Y15304D01*
X14041Y15446D01*
X13932Y15592D01*
X13828Y15740D01*
X13726Y15890D01*
X13629Y16043D01*
X13535Y16198D01*
X13445Y16355D01*
X13359Y16515D01*
X13277Y16676D01*
X13198Y16839D01*
X13124Y17005D01*
X13054Y17172D01*
X12987Y17340D01*
X12925Y17511D01*
X12867Y17682D01*
X12813Y17855D01*
X12763Y18030D01*
X12718Y18205D01*
X12677Y18382D01*
X12640Y18559D01*
X12607Y18737D01*
X12579Y18916D01*
X12555Y19096D01*
X12535Y19276D01*
X12520Y19457D01*
X12509Y19638D01*
X12502Y19819D01*
X12500Y20000D01*
D11*
X112395Y507924D03*
X112395Y490424D03*
D12*
X93549Y524510D03*
X111049Y524510D03*
D11*
X451168Y481698D03*
X451168Y464198D03*
X451168Y426860D03*
X451168Y444360D03*
D59*
X175400Y912700D03*
D28*
X175400Y887300D03*
X150000Y912700D03*
X150000Y887300D03*
X124600Y912700D03*
X124600Y887300D03*
D35*
X71565Y701868D03*
X81065Y681868D03*
X62065Y681868D03*
D16*
X80065Y653415D03*
X63065Y653415D03*
D59*
X175400Y782700D03*
D28*
X175400Y757300D03*
X150000Y782700D03*
X150000Y757300D03*
X124600Y782700D03*
X124600Y757300D03*
D35*
X121349Y701868D03*
X130849Y681868D03*
X111849Y681868D03*
D16*
X129849Y653415D03*
X112849Y653415D03*
D59*
X350400Y912700D03*
D28*
X350400Y887300D03*
X325000Y912700D03*
X325000Y887300D03*
X299600Y912700D03*
X299600Y887300D03*
D35*
X404806Y703735D03*
X414306Y683735D03*
X395306Y683735D03*
D16*
X412995Y655412D03*
X395995Y655412D03*
D59*
X350400Y782700D03*
D28*
X350400Y757300D03*
X325000Y782700D03*
X325000Y757300D03*
X299600Y782700D03*
X299600Y757300D03*
D35*
X357823Y703865D03*
X367323Y683865D03*
X348323Y683865D03*
D16*
X366323Y656527D03*
X349323Y656527D03*
D59*
X700400Y912700D03*
D28*
X700400Y887300D03*
X675000Y912700D03*
X675000Y887300D03*
X649600Y912700D03*
X649600Y887300D03*
D35*
X631635Y701868D03*
X641135Y681868D03*
X622135Y681868D03*
D16*
X640135Y656527D03*
X623135Y656527D03*
D59*
X700400Y782700D03*
D28*
X700400Y757300D03*
X675000Y782700D03*
X675000Y757300D03*
X649600Y782700D03*
X649600Y757300D03*
D35*
X677062Y701686D03*
X686562Y681686D03*
X667562Y681686D03*
D16*
X686807Y656527D03*
X669807Y656527D03*
D60*
X76218Y493889D03*
D61*
X77218Y508889D03*
D60*
X76218Y523889D03*
D59*
X875400Y912700D03*
D28*
X875400Y887300D03*
X850000Y912700D03*
X850000Y887300D03*
X824600Y912700D03*
X824600Y887300D03*
D62*
X939008Y871220D03*
X959008Y880720D03*
X959008Y861720D03*
D17*
X980123Y879720D03*
X980123Y862720D03*
D59*
X875400Y782700D03*
D28*
X875400Y757300D03*
X850000Y782700D03*
X850000Y757300D03*
X824600Y782700D03*
X824600Y757300D03*
D62*
X939008Y812102D03*
X959008Y821602D03*
X959008Y802602D03*
D17*
X981238Y820602D03*
X981238Y803602D03*
D59*
X525400Y912700D03*
D28*
X525400Y887300D03*
X500000Y912700D03*
X500000Y887300D03*
X474600Y912700D03*
X474600Y887300D03*
D35*
X451168Y703865D03*
X460668Y683865D03*
X441668Y683865D03*
D16*
X459668Y656527D03*
X442668Y656527D03*
D59*
X525400Y782700D03*
D28*
X525400Y757300D03*
X500000Y782700D03*
X500000Y757300D03*
X474600Y782700D03*
X474600Y757300D03*
D35*
X497840Y703865D03*
X507340Y683865D03*
X488340Y683865D03*
D16*
X506340Y656527D03*
X489340Y656527D03*
D22*
X911670Y591185D03*
X911670Y619189D03*
X855663Y591185D03*
X840105Y591185D03*
D16*
X20447Y527059D03*
X20447Y544059D03*
X401384Y442668D03*
X401384Y459668D03*
D17*
X330654Y392049D03*
X347654Y392049D03*
D12*
X787794Y625412D03*
X805294Y625412D03*
X237059Y622300D03*
X254559Y622300D03*
D22*
X840105Y653415D03*
X298704Y640969D03*
X431610Y590677D03*
D16*
X455114Y497840D03*
X472114Y497840D03*
X506340Y497840D03*
X489340Y497840D03*
D17*
X233363Y679142D03*
X233363Y696142D03*
D11*
X211582Y678892D03*
X211582Y696392D03*
D17*
X189802Y679142D03*
X189802Y696142D03*
D11*
X168021Y678892D03*
X168021Y696392D03*
D17*
X255143Y679142D03*
X255143Y696142D03*
D11*
X273812Y678892D03*
X273812Y696392D03*
D17*
X295593Y679142D03*
X295593Y696142D03*
D11*
X317373Y678892D03*
X317373Y696392D03*
D17*
X784098Y682253D03*
X784098Y699253D03*
D11*
X762318Y682003D03*
X762318Y699503D03*
D17*
X740537Y682253D03*
X740537Y699253D03*
D11*
X718757Y682003D03*
X718757Y699503D03*
D17*
X805879Y682253D03*
X805879Y699253D03*
D11*
X827659Y682003D03*
X827659Y699503D03*
D17*
X849440Y682253D03*
X849440Y699253D03*
D11*
X871220Y682003D03*
X871220Y699503D03*
D22*
X970788Y264478D03*
X989457Y264478D03*
D16*
X906281Y656527D03*
X923281Y656527D03*
D46*
X588293Y640304D03*
X588293Y645304D03*
X588293Y650304D03*
X588293Y655304D03*
X588293Y660304D03*
X544293Y660304D03*
X544293Y655304D03*
X544293Y650304D03*
X544293Y645304D03*
X544293Y640304D03*
D12*
X557543Y622300D03*
X575043Y622300D03*
D22*
X591185Y612966D03*
D17*
X578739Y685365D03*
X578739Y702365D03*
D11*
X600520Y685115D03*
X600520Y702615D03*
D17*
X535178Y685365D03*
X535178Y702365D03*
D11*
X556959Y685115D03*
X556959Y702615D03*
D42*
X461900Y597620D02*
X461900Y582380D01*
X487300Y582380D02*
X487300Y597620D01*
X512700Y597620D02*
X512700Y582380D01*
X538100Y582380D02*
X538100Y597620D01*
D22*
X295593Y556959D03*
X311150Y556959D03*
X326708Y556959D03*
X342265Y556959D03*
D11*
X40450Y654000D03*
X40450Y671500D03*
D12*
X130099Y566293D03*
X112599Y566293D03*
D63*
X58738Y567187D03*
X71438Y567187D03*
X84138Y567187D03*
X96838Y567187D03*
X96838Y621407D03*
X84138Y621407D03*
X71438Y621407D03*
X58738Y621407D03*
D17*
X40450Y557793D03*
X40450Y574793D03*
X40450Y637023D03*
X40450Y620023D03*
D38*
X96041Y189474D02*
X115541Y189474D01*
X75791Y226724D02*
X75791Y246224D01*
X135791Y246224D02*
X135791Y226724D01*
D41*
X30791Y236474D03*
D17*
X157852Y508419D03*
X140852Y508419D03*
D12*
X444360Y516509D03*
X426860Y516509D03*
D17*
X320485Y613800D03*
X320485Y630800D03*
D16*
X277758Y600520D03*
X294758Y600520D03*
D17*
X429387Y237309D03*
X429387Y254309D03*
D42*
X758952Y343980D02*
X758952Y359220D01*
X784352Y359220D02*
X784352Y343980D01*
D64*
X790321Y161798D03*
X952119Y214694D03*
X964565Y143129D03*
X812102Y211582D03*
X917893Y168021D03*
X964565Y482283D03*
X955231Y245809D03*
X749872Y482283D03*
X665861Y469837D03*
D65*
X883666Y650304D03*
X955231Y541401D03*
D64*
X924116Y208471D03*
X886778Y239586D03*
X821436Y373380D03*
D65*
X840105Y286258D03*
X831850Y127000D03*
X850900Y120650D03*
D64*
X819150Y130175D03*
X874332Y121349D03*
X840105Y220917D03*
X242697Y181039D03*
X242697Y163576D03*
X241110Y128651D03*
X229997Y119126D03*
X217297Y128651D03*
X201422Y128651D03*
X421450Y179959D03*
X378270Y133033D03*
X393827Y133033D03*
X424942Y133033D03*
X413703Y123063D03*
X68453Y336614D03*
X68453Y321056D03*
X84011Y299276D03*
X84011Y321056D03*
X84011Y336042D03*
X84011Y354711D03*
X130683Y357823D03*
X140018Y301816D03*
X158687Y351600D03*
X130683Y482156D03*
X597408Y158687D03*
X678307Y149352D03*
X510286Y87122D03*
X509270Y133795D03*
X488506Y171133D03*
X248920Y205359D03*
X830771Y357823D03*
X905447Y329819D03*
X921004Y336042D03*
X973900Y311150D03*
D65*
X96457Y482283D03*
X124460Y525844D03*
X833882Y482283D03*
X423164Y280035D03*
X460502Y357823D03*
X432499Y329819D03*
X444945Y342265D03*
X731203Y466725D03*
X718757Y466725D03*
X706311Y466725D03*
X693865Y466725D03*
X681419Y466725D03*
X827659Y469837D03*
X852551Y466725D03*
X868109Y466725D03*
X883666Y631635D03*
X989457Y656527D03*
X429387Y413830D03*
X413830Y426276D03*
X413830Y401384D03*
X398272Y413830D03*
X18669Y146241D03*
X18669Y115126D03*
X18669Y84011D03*
X56007Y12446D03*
X314262Y37338D03*
X332931Y37338D03*
X255143Y37338D03*
X255143Y52896D03*
X336042Y189802D03*
X357823Y189802D03*
X668973Y220917D03*
X640969Y220917D03*
X914781Y678307D03*
X569405Y500952D03*
X706311Y575628D03*
X662750Y575628D03*
X647192Y416941D03*
X460502Y392049D03*
X712534Y398272D03*
X684530Y370269D03*
X830771Y535178D03*
X528955Y28004D03*
X724980Y28004D03*
X572516Y401384D03*
X497840Y329819D03*
X469837Y236474D03*
X510286Y280035D03*
D64*
X301816Y177356D03*
X283147Y295593D03*
X421450Y164402D03*
D65*
X532067Y326708D03*
X970788Y460502D03*
X986346Y519621D03*
D64*
X217805Y196025D03*
X196025Y174244D03*
X168021Y149352D03*
X180467Y152464D03*
D65*
X308039Y410718D03*
X308039Y392049D03*
X289370Y376492D03*
X264478Y367157D03*
X245809Y367157D03*
X245809Y342265D03*
X429387Y267589D03*
D64*
X743649Y444945D03*
X949008Y429387D03*
X743649Y423164D03*
X924116Y426276D03*
X891858Y152400D03*
X891858Y190183D03*
X874332Y155575D03*
X852551Y233363D03*
X787210Y242697D03*
X438722Y192913D03*
X451168Y192913D03*
X466725Y192913D03*
X482283Y192913D03*
X672084Y258255D03*
D65*
X572516Y448056D03*
X572516Y432499D03*
X973900Y550736D03*
X970788Y535178D03*
X631635Y494729D03*
X500952Y476060D03*
X463614Y416941D03*
D64*
X821436Y71565D03*
X864997Y71565D03*
X815213Y112014D03*
X883666Y255143D03*
X939673Y248920D03*
X749872Y494729D03*
X749872Y550736D03*
X397637Y103188D03*
X451168Y149352D03*
X382715Y52896D03*
X454901Y103613D03*
X276924Y143129D03*
X216872Y99886D03*
X283147Y99568D03*
X202248Y52896D03*
X168021Y382715D03*
X292481Y444945D03*
X619189Y158687D03*
X522732Y220917D03*
X724980Y270701D03*
D65*
X628523Y40450D03*
D64*
X737426Y289370D03*
X690753Y289370D03*
X563182Y161798D03*
X510286Y230251D03*
X728091Y242697D03*
X572516Y248920D03*
D65*
X584962Y136906D03*
X538290Y127572D03*
X846328Y407607D03*
X762318Y283147D03*
X849440Y519621D03*
X765429Y500952D03*
X591185Y339154D03*
X510286Y345377D03*
X398272Y332931D03*
X401384Y367157D03*
D64*
X799656Y398272D03*
X973900Y332931D03*
X298704Y314262D03*
X308039Y217805D03*
X532067Y280035D03*
X578739Y326708D03*
D65*
X942785Y553847D03*
X911670Y637858D03*
X647192Y46673D03*
X638810Y156528D03*
X656527Y631635D03*
X566293Y647192D03*
X668973Y606743D03*
X684530Y625412D03*
X438722Y538290D03*
X124460Y591185D03*
X161798Y609854D03*
X332931Y594297D03*
D64*
X286080Y634880D03*
X195840Y635840D03*
D65*
X591185Y628523D03*
X541401Y628523D03*
X488506Y513398D03*
X640969Y622300D03*
X410718Y507175D03*
X155575Y569405D03*
X183579Y606743D03*
X242697Y594297D03*
D64*
X121349Y280035D03*
X121349Y264478D03*
X80899Y466725D03*
X80899Y435610D03*
X9335Y466725D03*
X9335Y432499D03*
X99568Y270701D03*
X65342Y270701D03*
X65342Y186690D03*
X68453Y413830D03*
X68453Y382715D03*
D65*
X177356Y939673D03*
X351600Y939673D03*
X525844Y939673D03*
X700088Y939673D03*
X877443Y939673D03*
X214694Y939673D03*
X395161Y939673D03*
X566293Y939673D03*
X743649Y939673D03*
X921004Y902335D03*
X168021Y715645D03*
X273812Y715645D03*
X317373Y712534D03*
X401384Y476060D03*
X426276Y476060D03*
X426276Y488506D03*
X401384Y488506D03*
X429387Y609854D03*
X392049Y519621D03*
X211582Y715645D03*
X556959Y718757D03*
X600520Y718757D03*
X709422Y715645D03*
X743649Y740537D03*
X864997Y715645D03*
X827659Y715645D03*
X796544Y668973D03*
X149352Y616077D03*
X9335Y880555D03*
X115126Y989457D03*
X236474Y902335D03*
X413830Y902335D03*
X588074Y902335D03*
X759206Y902335D03*
X921004Y955231D03*
X136906Y936562D03*
X244253Y715956D03*
X354711Y612966D03*
X382715Y631635D03*
X423164Y718757D03*
X516509Y715645D03*
X457391Y631635D03*
X71565Y877443D03*
X46673Y843217D03*
X236474Y930339D03*
X413830Y933450D03*
X588074Y933450D03*
X112014Y581851D03*
X180467Y641902D03*
X146241Y550736D03*
X332931Y858774D03*
X566293Y572516D03*
X304927Y662750D03*
X323596Y662750D03*
X202248Y955231D03*
X323596Y955231D03*
X382715Y955231D03*
X497840Y955231D03*
X553847Y955231D03*
X675196Y955231D03*
X849440Y955231D03*
X731203Y955231D03*
X703199Y955231D03*
X525844Y955231D03*
X351600Y955231D03*
X94278Y509041D03*
X40450Y491617D03*
X24892Y488506D03*
X9335Y488506D03*
X9335Y504063D03*
X24892Y504063D03*
X301816Y821436D03*
X376492Y721868D03*
X824548Y815213D03*
X905447Y731203D03*
X927227Y790321D03*
X410718Y553847D03*
X883666Y715645D03*
X392049Y550736D03*
X936562Y588074D03*
X911670Y603631D03*
X367157Y491617D03*
X460502Y668973D03*
X519621Y668973D03*
X426276Y656527D03*
X143129Y662750D03*
X96457Y662750D03*
X367157Y395161D03*
X367157Y416941D03*
X336042Y491617D03*
X367157Y444945D03*
X367157Y472948D03*
X336042Y460502D03*
X382715Y656527D03*
X236474Y609854D03*
X970788Y843217D03*
X650304Y668973D03*
X700088Y668973D03*
X709422Y634746D03*
X768541Y634746D03*
X824548Y634746D03*
X56007Y637858D03*
X65342Y550736D03*
X261366Y594297D03*
X507175Y616077D03*
X609854Y656527D03*
X522732Y637858D03*
X143129Y967677D03*
X298704Y967677D03*
X472948Y967677D03*
X647192Y967677D03*
X824548Y967677D03*
X40450Y588074D03*
X124460Y812102D03*
X87122Y793433D03*
X96457Y886778D03*
X270701Y886778D03*
X444945Y886778D03*
X616077Y886778D03*
X784098Y886778D03*
X40450Y606743D03*
X381470Y579984D03*
X336042Y609854D03*
M02*
