G75*
%MOIN*%
%OFA0B0*%
%FSLAX25Y25*%
%IPPOS*%
%LPD*%
%AMOC8*
5,1,8,0,0,1.08239X$1,22.5*
%
%ADD10C,0.00000*%
D10*
X0005500Y0066852D02*
X0005500Y0153466D01*
X0222035Y0153466D01*
X0222035Y0066852D01*
X0005500Y0066852D01*
X0009044Y0076694D02*
X0009046Y0076852D01*
X0009052Y0077010D01*
X0009062Y0077168D01*
X0009076Y0077326D01*
X0009094Y0077483D01*
X0009115Y0077640D01*
X0009141Y0077796D01*
X0009171Y0077952D01*
X0009204Y0078107D01*
X0009242Y0078260D01*
X0009283Y0078413D01*
X0009328Y0078565D01*
X0009377Y0078716D01*
X0009430Y0078865D01*
X0009486Y0079013D01*
X0009546Y0079159D01*
X0009610Y0079304D01*
X0009678Y0079447D01*
X0009749Y0079589D01*
X0009823Y0079729D01*
X0009901Y0079866D01*
X0009983Y0080002D01*
X0010067Y0080136D01*
X0010156Y0080267D01*
X0010247Y0080396D01*
X0010342Y0080523D01*
X0010439Y0080648D01*
X0010540Y0080770D01*
X0010644Y0080889D01*
X0010751Y0081006D01*
X0010861Y0081120D01*
X0010974Y0081231D01*
X0011089Y0081340D01*
X0011207Y0081445D01*
X0011328Y0081547D01*
X0011451Y0081647D01*
X0011577Y0081743D01*
X0011705Y0081836D01*
X0011835Y0081926D01*
X0011968Y0082012D01*
X0012103Y0082096D01*
X0012239Y0082175D01*
X0012378Y0082252D01*
X0012519Y0082324D01*
X0012661Y0082394D01*
X0012805Y0082459D01*
X0012951Y0082521D01*
X0013098Y0082579D01*
X0013247Y0082634D01*
X0013397Y0082685D01*
X0013548Y0082732D01*
X0013700Y0082775D01*
X0013853Y0082814D01*
X0014008Y0082850D01*
X0014163Y0082881D01*
X0014319Y0082909D01*
X0014475Y0082933D01*
X0014632Y0082953D01*
X0014790Y0082969D01*
X0014947Y0082981D01*
X0015106Y0082989D01*
X0015264Y0082993D01*
X0015422Y0082993D01*
X0015580Y0082989D01*
X0015739Y0082981D01*
X0015896Y0082969D01*
X0016054Y0082953D01*
X0016211Y0082933D01*
X0016367Y0082909D01*
X0016523Y0082881D01*
X0016678Y0082850D01*
X0016833Y0082814D01*
X0016986Y0082775D01*
X0017138Y0082732D01*
X0017289Y0082685D01*
X0017439Y0082634D01*
X0017588Y0082579D01*
X0017735Y0082521D01*
X0017881Y0082459D01*
X0018025Y0082394D01*
X0018167Y0082324D01*
X0018308Y0082252D01*
X0018447Y0082175D01*
X0018583Y0082096D01*
X0018718Y0082012D01*
X0018851Y0081926D01*
X0018981Y0081836D01*
X0019109Y0081743D01*
X0019235Y0081647D01*
X0019358Y0081547D01*
X0019479Y0081445D01*
X0019597Y0081340D01*
X0019712Y0081231D01*
X0019825Y0081120D01*
X0019935Y0081006D01*
X0020042Y0080889D01*
X0020146Y0080770D01*
X0020247Y0080648D01*
X0020344Y0080523D01*
X0020439Y0080396D01*
X0020530Y0080267D01*
X0020619Y0080136D01*
X0020703Y0080002D01*
X0020785Y0079866D01*
X0020863Y0079729D01*
X0020937Y0079589D01*
X0021008Y0079447D01*
X0021076Y0079304D01*
X0021140Y0079159D01*
X0021200Y0079013D01*
X0021256Y0078865D01*
X0021309Y0078716D01*
X0021358Y0078565D01*
X0021403Y0078413D01*
X0021444Y0078260D01*
X0021482Y0078107D01*
X0021515Y0077952D01*
X0021545Y0077796D01*
X0021571Y0077640D01*
X0021592Y0077483D01*
X0021610Y0077326D01*
X0021624Y0077168D01*
X0021634Y0077010D01*
X0021640Y0076852D01*
X0021642Y0076694D01*
X0021640Y0076536D01*
X0021634Y0076378D01*
X0021624Y0076220D01*
X0021610Y0076062D01*
X0021592Y0075905D01*
X0021571Y0075748D01*
X0021545Y0075592D01*
X0021515Y0075436D01*
X0021482Y0075281D01*
X0021444Y0075128D01*
X0021403Y0074975D01*
X0021358Y0074823D01*
X0021309Y0074672D01*
X0021256Y0074523D01*
X0021200Y0074375D01*
X0021140Y0074229D01*
X0021076Y0074084D01*
X0021008Y0073941D01*
X0020937Y0073799D01*
X0020863Y0073659D01*
X0020785Y0073522D01*
X0020703Y0073386D01*
X0020619Y0073252D01*
X0020530Y0073121D01*
X0020439Y0072992D01*
X0020344Y0072865D01*
X0020247Y0072740D01*
X0020146Y0072618D01*
X0020042Y0072499D01*
X0019935Y0072382D01*
X0019825Y0072268D01*
X0019712Y0072157D01*
X0019597Y0072048D01*
X0019479Y0071943D01*
X0019358Y0071841D01*
X0019235Y0071741D01*
X0019109Y0071645D01*
X0018981Y0071552D01*
X0018851Y0071462D01*
X0018718Y0071376D01*
X0018583Y0071292D01*
X0018447Y0071213D01*
X0018308Y0071136D01*
X0018167Y0071064D01*
X0018025Y0070994D01*
X0017881Y0070929D01*
X0017735Y0070867D01*
X0017588Y0070809D01*
X0017439Y0070754D01*
X0017289Y0070703D01*
X0017138Y0070656D01*
X0016986Y0070613D01*
X0016833Y0070574D01*
X0016678Y0070538D01*
X0016523Y0070507D01*
X0016367Y0070479D01*
X0016211Y0070455D01*
X0016054Y0070435D01*
X0015896Y0070419D01*
X0015739Y0070407D01*
X0015580Y0070399D01*
X0015422Y0070395D01*
X0015264Y0070395D01*
X0015106Y0070399D01*
X0014947Y0070407D01*
X0014790Y0070419D01*
X0014632Y0070435D01*
X0014475Y0070455D01*
X0014319Y0070479D01*
X0014163Y0070507D01*
X0014008Y0070538D01*
X0013853Y0070574D01*
X0013700Y0070613D01*
X0013548Y0070656D01*
X0013397Y0070703D01*
X0013247Y0070754D01*
X0013098Y0070809D01*
X0012951Y0070867D01*
X0012805Y0070929D01*
X0012661Y0070994D01*
X0012519Y0071064D01*
X0012378Y0071136D01*
X0012239Y0071213D01*
X0012103Y0071292D01*
X0011968Y0071376D01*
X0011835Y0071462D01*
X0011705Y0071552D01*
X0011577Y0071645D01*
X0011451Y0071741D01*
X0011328Y0071841D01*
X0011207Y0071943D01*
X0011089Y0072048D01*
X0010974Y0072157D01*
X0010861Y0072268D01*
X0010751Y0072382D01*
X0010644Y0072499D01*
X0010540Y0072618D01*
X0010439Y0072740D01*
X0010342Y0072865D01*
X0010247Y0072992D01*
X0010156Y0073121D01*
X0010067Y0073252D01*
X0009983Y0073386D01*
X0009901Y0073522D01*
X0009823Y0073659D01*
X0009749Y0073799D01*
X0009678Y0073941D01*
X0009610Y0074084D01*
X0009546Y0074229D01*
X0009486Y0074375D01*
X0009430Y0074523D01*
X0009377Y0074672D01*
X0009328Y0074823D01*
X0009283Y0074975D01*
X0009242Y0075128D01*
X0009204Y0075281D01*
X0009171Y0075436D01*
X0009141Y0075592D01*
X0009115Y0075748D01*
X0009094Y0075905D01*
X0009076Y0076062D01*
X0009062Y0076220D01*
X0009052Y0076378D01*
X0009046Y0076536D01*
X0009044Y0076694D01*
X0009044Y0143623D02*
X0009046Y0143781D01*
X0009052Y0143939D01*
X0009062Y0144097D01*
X0009076Y0144255D01*
X0009094Y0144412D01*
X0009115Y0144569D01*
X0009141Y0144725D01*
X0009171Y0144881D01*
X0009204Y0145036D01*
X0009242Y0145189D01*
X0009283Y0145342D01*
X0009328Y0145494D01*
X0009377Y0145645D01*
X0009430Y0145794D01*
X0009486Y0145942D01*
X0009546Y0146088D01*
X0009610Y0146233D01*
X0009678Y0146376D01*
X0009749Y0146518D01*
X0009823Y0146658D01*
X0009901Y0146795D01*
X0009983Y0146931D01*
X0010067Y0147065D01*
X0010156Y0147196D01*
X0010247Y0147325D01*
X0010342Y0147452D01*
X0010439Y0147577D01*
X0010540Y0147699D01*
X0010644Y0147818D01*
X0010751Y0147935D01*
X0010861Y0148049D01*
X0010974Y0148160D01*
X0011089Y0148269D01*
X0011207Y0148374D01*
X0011328Y0148476D01*
X0011451Y0148576D01*
X0011577Y0148672D01*
X0011705Y0148765D01*
X0011835Y0148855D01*
X0011968Y0148941D01*
X0012103Y0149025D01*
X0012239Y0149104D01*
X0012378Y0149181D01*
X0012519Y0149253D01*
X0012661Y0149323D01*
X0012805Y0149388D01*
X0012951Y0149450D01*
X0013098Y0149508D01*
X0013247Y0149563D01*
X0013397Y0149614D01*
X0013548Y0149661D01*
X0013700Y0149704D01*
X0013853Y0149743D01*
X0014008Y0149779D01*
X0014163Y0149810D01*
X0014319Y0149838D01*
X0014475Y0149862D01*
X0014632Y0149882D01*
X0014790Y0149898D01*
X0014947Y0149910D01*
X0015106Y0149918D01*
X0015264Y0149922D01*
X0015422Y0149922D01*
X0015580Y0149918D01*
X0015739Y0149910D01*
X0015896Y0149898D01*
X0016054Y0149882D01*
X0016211Y0149862D01*
X0016367Y0149838D01*
X0016523Y0149810D01*
X0016678Y0149779D01*
X0016833Y0149743D01*
X0016986Y0149704D01*
X0017138Y0149661D01*
X0017289Y0149614D01*
X0017439Y0149563D01*
X0017588Y0149508D01*
X0017735Y0149450D01*
X0017881Y0149388D01*
X0018025Y0149323D01*
X0018167Y0149253D01*
X0018308Y0149181D01*
X0018447Y0149104D01*
X0018583Y0149025D01*
X0018718Y0148941D01*
X0018851Y0148855D01*
X0018981Y0148765D01*
X0019109Y0148672D01*
X0019235Y0148576D01*
X0019358Y0148476D01*
X0019479Y0148374D01*
X0019597Y0148269D01*
X0019712Y0148160D01*
X0019825Y0148049D01*
X0019935Y0147935D01*
X0020042Y0147818D01*
X0020146Y0147699D01*
X0020247Y0147577D01*
X0020344Y0147452D01*
X0020439Y0147325D01*
X0020530Y0147196D01*
X0020619Y0147065D01*
X0020703Y0146931D01*
X0020785Y0146795D01*
X0020863Y0146658D01*
X0020937Y0146518D01*
X0021008Y0146376D01*
X0021076Y0146233D01*
X0021140Y0146088D01*
X0021200Y0145942D01*
X0021256Y0145794D01*
X0021309Y0145645D01*
X0021358Y0145494D01*
X0021403Y0145342D01*
X0021444Y0145189D01*
X0021482Y0145036D01*
X0021515Y0144881D01*
X0021545Y0144725D01*
X0021571Y0144569D01*
X0021592Y0144412D01*
X0021610Y0144255D01*
X0021624Y0144097D01*
X0021634Y0143939D01*
X0021640Y0143781D01*
X0021642Y0143623D01*
X0021640Y0143465D01*
X0021634Y0143307D01*
X0021624Y0143149D01*
X0021610Y0142991D01*
X0021592Y0142834D01*
X0021571Y0142677D01*
X0021545Y0142521D01*
X0021515Y0142365D01*
X0021482Y0142210D01*
X0021444Y0142057D01*
X0021403Y0141904D01*
X0021358Y0141752D01*
X0021309Y0141601D01*
X0021256Y0141452D01*
X0021200Y0141304D01*
X0021140Y0141158D01*
X0021076Y0141013D01*
X0021008Y0140870D01*
X0020937Y0140728D01*
X0020863Y0140588D01*
X0020785Y0140451D01*
X0020703Y0140315D01*
X0020619Y0140181D01*
X0020530Y0140050D01*
X0020439Y0139921D01*
X0020344Y0139794D01*
X0020247Y0139669D01*
X0020146Y0139547D01*
X0020042Y0139428D01*
X0019935Y0139311D01*
X0019825Y0139197D01*
X0019712Y0139086D01*
X0019597Y0138977D01*
X0019479Y0138872D01*
X0019358Y0138770D01*
X0019235Y0138670D01*
X0019109Y0138574D01*
X0018981Y0138481D01*
X0018851Y0138391D01*
X0018718Y0138305D01*
X0018583Y0138221D01*
X0018447Y0138142D01*
X0018308Y0138065D01*
X0018167Y0137993D01*
X0018025Y0137923D01*
X0017881Y0137858D01*
X0017735Y0137796D01*
X0017588Y0137738D01*
X0017439Y0137683D01*
X0017289Y0137632D01*
X0017138Y0137585D01*
X0016986Y0137542D01*
X0016833Y0137503D01*
X0016678Y0137467D01*
X0016523Y0137436D01*
X0016367Y0137408D01*
X0016211Y0137384D01*
X0016054Y0137364D01*
X0015896Y0137348D01*
X0015739Y0137336D01*
X0015580Y0137328D01*
X0015422Y0137324D01*
X0015264Y0137324D01*
X0015106Y0137328D01*
X0014947Y0137336D01*
X0014790Y0137348D01*
X0014632Y0137364D01*
X0014475Y0137384D01*
X0014319Y0137408D01*
X0014163Y0137436D01*
X0014008Y0137467D01*
X0013853Y0137503D01*
X0013700Y0137542D01*
X0013548Y0137585D01*
X0013397Y0137632D01*
X0013247Y0137683D01*
X0013098Y0137738D01*
X0012951Y0137796D01*
X0012805Y0137858D01*
X0012661Y0137923D01*
X0012519Y0137993D01*
X0012378Y0138065D01*
X0012239Y0138142D01*
X0012103Y0138221D01*
X0011968Y0138305D01*
X0011835Y0138391D01*
X0011705Y0138481D01*
X0011577Y0138574D01*
X0011451Y0138670D01*
X0011328Y0138770D01*
X0011207Y0138872D01*
X0011089Y0138977D01*
X0010974Y0139086D01*
X0010861Y0139197D01*
X0010751Y0139311D01*
X0010644Y0139428D01*
X0010540Y0139547D01*
X0010439Y0139669D01*
X0010342Y0139794D01*
X0010247Y0139921D01*
X0010156Y0140050D01*
X0010067Y0140181D01*
X0009983Y0140315D01*
X0009901Y0140451D01*
X0009823Y0140588D01*
X0009749Y0140728D01*
X0009678Y0140870D01*
X0009610Y0141013D01*
X0009546Y0141158D01*
X0009486Y0141304D01*
X0009430Y0141452D01*
X0009377Y0141601D01*
X0009328Y0141752D01*
X0009283Y0141904D01*
X0009242Y0142057D01*
X0009204Y0142210D01*
X0009171Y0142365D01*
X0009141Y0142521D01*
X0009115Y0142677D01*
X0009094Y0142834D01*
X0009076Y0142991D01*
X0009062Y0143149D01*
X0009052Y0143307D01*
X0009046Y0143465D01*
X0009044Y0143623D01*
X0199988Y0143623D02*
X0199990Y0143781D01*
X0199996Y0143939D01*
X0200006Y0144097D01*
X0200020Y0144255D01*
X0200038Y0144412D01*
X0200059Y0144569D01*
X0200085Y0144725D01*
X0200115Y0144881D01*
X0200148Y0145036D01*
X0200186Y0145189D01*
X0200227Y0145342D01*
X0200272Y0145494D01*
X0200321Y0145645D01*
X0200374Y0145794D01*
X0200430Y0145942D01*
X0200490Y0146088D01*
X0200554Y0146233D01*
X0200622Y0146376D01*
X0200693Y0146518D01*
X0200767Y0146658D01*
X0200845Y0146795D01*
X0200927Y0146931D01*
X0201011Y0147065D01*
X0201100Y0147196D01*
X0201191Y0147325D01*
X0201286Y0147452D01*
X0201383Y0147577D01*
X0201484Y0147699D01*
X0201588Y0147818D01*
X0201695Y0147935D01*
X0201805Y0148049D01*
X0201918Y0148160D01*
X0202033Y0148269D01*
X0202151Y0148374D01*
X0202272Y0148476D01*
X0202395Y0148576D01*
X0202521Y0148672D01*
X0202649Y0148765D01*
X0202779Y0148855D01*
X0202912Y0148941D01*
X0203047Y0149025D01*
X0203183Y0149104D01*
X0203322Y0149181D01*
X0203463Y0149253D01*
X0203605Y0149323D01*
X0203749Y0149388D01*
X0203895Y0149450D01*
X0204042Y0149508D01*
X0204191Y0149563D01*
X0204341Y0149614D01*
X0204492Y0149661D01*
X0204644Y0149704D01*
X0204797Y0149743D01*
X0204952Y0149779D01*
X0205107Y0149810D01*
X0205263Y0149838D01*
X0205419Y0149862D01*
X0205576Y0149882D01*
X0205734Y0149898D01*
X0205891Y0149910D01*
X0206050Y0149918D01*
X0206208Y0149922D01*
X0206366Y0149922D01*
X0206524Y0149918D01*
X0206683Y0149910D01*
X0206840Y0149898D01*
X0206998Y0149882D01*
X0207155Y0149862D01*
X0207311Y0149838D01*
X0207467Y0149810D01*
X0207622Y0149779D01*
X0207777Y0149743D01*
X0207930Y0149704D01*
X0208082Y0149661D01*
X0208233Y0149614D01*
X0208383Y0149563D01*
X0208532Y0149508D01*
X0208679Y0149450D01*
X0208825Y0149388D01*
X0208969Y0149323D01*
X0209111Y0149253D01*
X0209252Y0149181D01*
X0209391Y0149104D01*
X0209527Y0149025D01*
X0209662Y0148941D01*
X0209795Y0148855D01*
X0209925Y0148765D01*
X0210053Y0148672D01*
X0210179Y0148576D01*
X0210302Y0148476D01*
X0210423Y0148374D01*
X0210541Y0148269D01*
X0210656Y0148160D01*
X0210769Y0148049D01*
X0210879Y0147935D01*
X0210986Y0147818D01*
X0211090Y0147699D01*
X0211191Y0147577D01*
X0211288Y0147452D01*
X0211383Y0147325D01*
X0211474Y0147196D01*
X0211563Y0147065D01*
X0211647Y0146931D01*
X0211729Y0146795D01*
X0211807Y0146658D01*
X0211881Y0146518D01*
X0211952Y0146376D01*
X0212020Y0146233D01*
X0212084Y0146088D01*
X0212144Y0145942D01*
X0212200Y0145794D01*
X0212253Y0145645D01*
X0212302Y0145494D01*
X0212347Y0145342D01*
X0212388Y0145189D01*
X0212426Y0145036D01*
X0212459Y0144881D01*
X0212489Y0144725D01*
X0212515Y0144569D01*
X0212536Y0144412D01*
X0212554Y0144255D01*
X0212568Y0144097D01*
X0212578Y0143939D01*
X0212584Y0143781D01*
X0212586Y0143623D01*
X0212584Y0143465D01*
X0212578Y0143307D01*
X0212568Y0143149D01*
X0212554Y0142991D01*
X0212536Y0142834D01*
X0212515Y0142677D01*
X0212489Y0142521D01*
X0212459Y0142365D01*
X0212426Y0142210D01*
X0212388Y0142057D01*
X0212347Y0141904D01*
X0212302Y0141752D01*
X0212253Y0141601D01*
X0212200Y0141452D01*
X0212144Y0141304D01*
X0212084Y0141158D01*
X0212020Y0141013D01*
X0211952Y0140870D01*
X0211881Y0140728D01*
X0211807Y0140588D01*
X0211729Y0140451D01*
X0211647Y0140315D01*
X0211563Y0140181D01*
X0211474Y0140050D01*
X0211383Y0139921D01*
X0211288Y0139794D01*
X0211191Y0139669D01*
X0211090Y0139547D01*
X0210986Y0139428D01*
X0210879Y0139311D01*
X0210769Y0139197D01*
X0210656Y0139086D01*
X0210541Y0138977D01*
X0210423Y0138872D01*
X0210302Y0138770D01*
X0210179Y0138670D01*
X0210053Y0138574D01*
X0209925Y0138481D01*
X0209795Y0138391D01*
X0209662Y0138305D01*
X0209527Y0138221D01*
X0209391Y0138142D01*
X0209252Y0138065D01*
X0209111Y0137993D01*
X0208969Y0137923D01*
X0208825Y0137858D01*
X0208679Y0137796D01*
X0208532Y0137738D01*
X0208383Y0137683D01*
X0208233Y0137632D01*
X0208082Y0137585D01*
X0207930Y0137542D01*
X0207777Y0137503D01*
X0207622Y0137467D01*
X0207467Y0137436D01*
X0207311Y0137408D01*
X0207155Y0137384D01*
X0206998Y0137364D01*
X0206840Y0137348D01*
X0206683Y0137336D01*
X0206524Y0137328D01*
X0206366Y0137324D01*
X0206208Y0137324D01*
X0206050Y0137328D01*
X0205891Y0137336D01*
X0205734Y0137348D01*
X0205576Y0137364D01*
X0205419Y0137384D01*
X0205263Y0137408D01*
X0205107Y0137436D01*
X0204952Y0137467D01*
X0204797Y0137503D01*
X0204644Y0137542D01*
X0204492Y0137585D01*
X0204341Y0137632D01*
X0204191Y0137683D01*
X0204042Y0137738D01*
X0203895Y0137796D01*
X0203749Y0137858D01*
X0203605Y0137923D01*
X0203463Y0137993D01*
X0203322Y0138065D01*
X0203183Y0138142D01*
X0203047Y0138221D01*
X0202912Y0138305D01*
X0202779Y0138391D01*
X0202649Y0138481D01*
X0202521Y0138574D01*
X0202395Y0138670D01*
X0202272Y0138770D01*
X0202151Y0138872D01*
X0202033Y0138977D01*
X0201918Y0139086D01*
X0201805Y0139197D01*
X0201695Y0139311D01*
X0201588Y0139428D01*
X0201484Y0139547D01*
X0201383Y0139669D01*
X0201286Y0139794D01*
X0201191Y0139921D01*
X0201100Y0140050D01*
X0201011Y0140181D01*
X0200927Y0140315D01*
X0200845Y0140451D01*
X0200767Y0140588D01*
X0200693Y0140728D01*
X0200622Y0140870D01*
X0200554Y0141013D01*
X0200490Y0141158D01*
X0200430Y0141304D01*
X0200374Y0141452D01*
X0200321Y0141601D01*
X0200272Y0141752D01*
X0200227Y0141904D01*
X0200186Y0142057D01*
X0200148Y0142210D01*
X0200115Y0142365D01*
X0200085Y0142521D01*
X0200059Y0142677D01*
X0200038Y0142834D01*
X0200020Y0142991D01*
X0200006Y0143149D01*
X0199996Y0143307D01*
X0199990Y0143465D01*
X0199988Y0143623D01*
X0199988Y0076694D02*
X0199990Y0076852D01*
X0199996Y0077010D01*
X0200006Y0077168D01*
X0200020Y0077326D01*
X0200038Y0077483D01*
X0200059Y0077640D01*
X0200085Y0077796D01*
X0200115Y0077952D01*
X0200148Y0078107D01*
X0200186Y0078260D01*
X0200227Y0078413D01*
X0200272Y0078565D01*
X0200321Y0078716D01*
X0200374Y0078865D01*
X0200430Y0079013D01*
X0200490Y0079159D01*
X0200554Y0079304D01*
X0200622Y0079447D01*
X0200693Y0079589D01*
X0200767Y0079729D01*
X0200845Y0079866D01*
X0200927Y0080002D01*
X0201011Y0080136D01*
X0201100Y0080267D01*
X0201191Y0080396D01*
X0201286Y0080523D01*
X0201383Y0080648D01*
X0201484Y0080770D01*
X0201588Y0080889D01*
X0201695Y0081006D01*
X0201805Y0081120D01*
X0201918Y0081231D01*
X0202033Y0081340D01*
X0202151Y0081445D01*
X0202272Y0081547D01*
X0202395Y0081647D01*
X0202521Y0081743D01*
X0202649Y0081836D01*
X0202779Y0081926D01*
X0202912Y0082012D01*
X0203047Y0082096D01*
X0203183Y0082175D01*
X0203322Y0082252D01*
X0203463Y0082324D01*
X0203605Y0082394D01*
X0203749Y0082459D01*
X0203895Y0082521D01*
X0204042Y0082579D01*
X0204191Y0082634D01*
X0204341Y0082685D01*
X0204492Y0082732D01*
X0204644Y0082775D01*
X0204797Y0082814D01*
X0204952Y0082850D01*
X0205107Y0082881D01*
X0205263Y0082909D01*
X0205419Y0082933D01*
X0205576Y0082953D01*
X0205734Y0082969D01*
X0205891Y0082981D01*
X0206050Y0082989D01*
X0206208Y0082993D01*
X0206366Y0082993D01*
X0206524Y0082989D01*
X0206683Y0082981D01*
X0206840Y0082969D01*
X0206998Y0082953D01*
X0207155Y0082933D01*
X0207311Y0082909D01*
X0207467Y0082881D01*
X0207622Y0082850D01*
X0207777Y0082814D01*
X0207930Y0082775D01*
X0208082Y0082732D01*
X0208233Y0082685D01*
X0208383Y0082634D01*
X0208532Y0082579D01*
X0208679Y0082521D01*
X0208825Y0082459D01*
X0208969Y0082394D01*
X0209111Y0082324D01*
X0209252Y0082252D01*
X0209391Y0082175D01*
X0209527Y0082096D01*
X0209662Y0082012D01*
X0209795Y0081926D01*
X0209925Y0081836D01*
X0210053Y0081743D01*
X0210179Y0081647D01*
X0210302Y0081547D01*
X0210423Y0081445D01*
X0210541Y0081340D01*
X0210656Y0081231D01*
X0210769Y0081120D01*
X0210879Y0081006D01*
X0210986Y0080889D01*
X0211090Y0080770D01*
X0211191Y0080648D01*
X0211288Y0080523D01*
X0211383Y0080396D01*
X0211474Y0080267D01*
X0211563Y0080136D01*
X0211647Y0080002D01*
X0211729Y0079866D01*
X0211807Y0079729D01*
X0211881Y0079589D01*
X0211952Y0079447D01*
X0212020Y0079304D01*
X0212084Y0079159D01*
X0212144Y0079013D01*
X0212200Y0078865D01*
X0212253Y0078716D01*
X0212302Y0078565D01*
X0212347Y0078413D01*
X0212388Y0078260D01*
X0212426Y0078107D01*
X0212459Y0077952D01*
X0212489Y0077796D01*
X0212515Y0077640D01*
X0212536Y0077483D01*
X0212554Y0077326D01*
X0212568Y0077168D01*
X0212578Y0077010D01*
X0212584Y0076852D01*
X0212586Y0076694D01*
X0212584Y0076536D01*
X0212578Y0076378D01*
X0212568Y0076220D01*
X0212554Y0076062D01*
X0212536Y0075905D01*
X0212515Y0075748D01*
X0212489Y0075592D01*
X0212459Y0075436D01*
X0212426Y0075281D01*
X0212388Y0075128D01*
X0212347Y0074975D01*
X0212302Y0074823D01*
X0212253Y0074672D01*
X0212200Y0074523D01*
X0212144Y0074375D01*
X0212084Y0074229D01*
X0212020Y0074084D01*
X0211952Y0073941D01*
X0211881Y0073799D01*
X0211807Y0073659D01*
X0211729Y0073522D01*
X0211647Y0073386D01*
X0211563Y0073252D01*
X0211474Y0073121D01*
X0211383Y0072992D01*
X0211288Y0072865D01*
X0211191Y0072740D01*
X0211090Y0072618D01*
X0210986Y0072499D01*
X0210879Y0072382D01*
X0210769Y0072268D01*
X0210656Y0072157D01*
X0210541Y0072048D01*
X0210423Y0071943D01*
X0210302Y0071841D01*
X0210179Y0071741D01*
X0210053Y0071645D01*
X0209925Y0071552D01*
X0209795Y0071462D01*
X0209662Y0071376D01*
X0209527Y0071292D01*
X0209391Y0071213D01*
X0209252Y0071136D01*
X0209111Y0071064D01*
X0208969Y0070994D01*
X0208825Y0070929D01*
X0208679Y0070867D01*
X0208532Y0070809D01*
X0208383Y0070754D01*
X0208233Y0070703D01*
X0208082Y0070656D01*
X0207930Y0070613D01*
X0207777Y0070574D01*
X0207622Y0070538D01*
X0207467Y0070507D01*
X0207311Y0070479D01*
X0207155Y0070455D01*
X0206998Y0070435D01*
X0206840Y0070419D01*
X0206683Y0070407D01*
X0206524Y0070399D01*
X0206366Y0070395D01*
X0206208Y0070395D01*
X0206050Y0070399D01*
X0205891Y0070407D01*
X0205734Y0070419D01*
X0205576Y0070435D01*
X0205419Y0070455D01*
X0205263Y0070479D01*
X0205107Y0070507D01*
X0204952Y0070538D01*
X0204797Y0070574D01*
X0204644Y0070613D01*
X0204492Y0070656D01*
X0204341Y0070703D01*
X0204191Y0070754D01*
X0204042Y0070809D01*
X0203895Y0070867D01*
X0203749Y0070929D01*
X0203605Y0070994D01*
X0203463Y0071064D01*
X0203322Y0071136D01*
X0203183Y0071213D01*
X0203047Y0071292D01*
X0202912Y0071376D01*
X0202779Y0071462D01*
X0202649Y0071552D01*
X0202521Y0071645D01*
X0202395Y0071741D01*
X0202272Y0071841D01*
X0202151Y0071943D01*
X0202033Y0072048D01*
X0201918Y0072157D01*
X0201805Y0072268D01*
X0201695Y0072382D01*
X0201588Y0072499D01*
X0201484Y0072618D01*
X0201383Y0072740D01*
X0201286Y0072865D01*
X0201191Y0072992D01*
X0201100Y0073121D01*
X0201011Y0073252D01*
X0200927Y0073386D01*
X0200845Y0073522D01*
X0200767Y0073659D01*
X0200693Y0073799D01*
X0200622Y0073941D01*
X0200554Y0074084D01*
X0200490Y0074229D01*
X0200430Y0074375D01*
X0200374Y0074523D01*
X0200321Y0074672D01*
X0200272Y0074823D01*
X0200227Y0074975D01*
X0200186Y0075128D01*
X0200148Y0075281D01*
X0200115Y0075436D01*
X0200085Y0075592D01*
X0200059Y0075748D01*
X0200038Y0075905D01*
X0200020Y0076062D01*
X0200006Y0076220D01*
X0199996Y0076378D01*
X0199990Y0076536D01*
X0199988Y0076694D01*
M02*
