G75*
%MOIN*%
%OFA0B0*%
%FSLAX25Y25*%
%IPPOS*%
%LPD*%
%AMOC8*
5,1,8,0,0,1.08239X$1,22.5*
%
%ADD10C,0.00000*%
%ADD11C,0.00300*%
%ADD12C,0.01000*%
%ADD13C,0.00800*%
%ADD14R,0.02000X0.02000*%
%ADD15C,0.00600*%
%ADD16C,0.00400*%
%ADD17R,0.01378X0.03150*%
%ADD18R,0.01969X0.03740*%
%ADD19C,0.00197*%
%ADD20C,0.00394*%
%ADD21C,0.00984*%
%ADD22C,0.00787*%
%ADD23R,0.03150X0.01378*%
%ADD24R,0.01600X0.03400*%
%ADD25R,0.03400X0.01600*%
%ADD26R,0.01575X0.03543*%
%ADD27R,0.01181X0.00591*%
%ADD28R,0.01181X0.01181*%
D10*
X0005500Y0066852D02*
X0005500Y0153466D01*
X0222035Y0153466D01*
X0222035Y0066852D01*
X0005500Y0066852D01*
X0009044Y0076694D02*
X0009046Y0076852D01*
X0009052Y0077010D01*
X0009062Y0077168D01*
X0009076Y0077326D01*
X0009094Y0077483D01*
X0009115Y0077640D01*
X0009141Y0077796D01*
X0009171Y0077952D01*
X0009204Y0078107D01*
X0009242Y0078260D01*
X0009283Y0078413D01*
X0009328Y0078565D01*
X0009377Y0078716D01*
X0009430Y0078865D01*
X0009486Y0079013D01*
X0009546Y0079159D01*
X0009610Y0079304D01*
X0009678Y0079447D01*
X0009749Y0079589D01*
X0009823Y0079729D01*
X0009901Y0079866D01*
X0009983Y0080002D01*
X0010067Y0080136D01*
X0010156Y0080267D01*
X0010247Y0080396D01*
X0010342Y0080523D01*
X0010439Y0080648D01*
X0010540Y0080770D01*
X0010644Y0080889D01*
X0010751Y0081006D01*
X0010861Y0081120D01*
X0010974Y0081231D01*
X0011089Y0081340D01*
X0011207Y0081445D01*
X0011328Y0081547D01*
X0011451Y0081647D01*
X0011577Y0081743D01*
X0011705Y0081836D01*
X0011835Y0081926D01*
X0011968Y0082012D01*
X0012103Y0082096D01*
X0012239Y0082175D01*
X0012378Y0082252D01*
X0012519Y0082324D01*
X0012661Y0082394D01*
X0012805Y0082459D01*
X0012951Y0082521D01*
X0013098Y0082579D01*
X0013247Y0082634D01*
X0013397Y0082685D01*
X0013548Y0082732D01*
X0013700Y0082775D01*
X0013853Y0082814D01*
X0014008Y0082850D01*
X0014163Y0082881D01*
X0014319Y0082909D01*
X0014475Y0082933D01*
X0014632Y0082953D01*
X0014790Y0082969D01*
X0014947Y0082981D01*
X0015106Y0082989D01*
X0015264Y0082993D01*
X0015422Y0082993D01*
X0015580Y0082989D01*
X0015739Y0082981D01*
X0015896Y0082969D01*
X0016054Y0082953D01*
X0016211Y0082933D01*
X0016367Y0082909D01*
X0016523Y0082881D01*
X0016678Y0082850D01*
X0016833Y0082814D01*
X0016986Y0082775D01*
X0017138Y0082732D01*
X0017289Y0082685D01*
X0017439Y0082634D01*
X0017588Y0082579D01*
X0017735Y0082521D01*
X0017881Y0082459D01*
X0018025Y0082394D01*
X0018167Y0082324D01*
X0018308Y0082252D01*
X0018447Y0082175D01*
X0018583Y0082096D01*
X0018718Y0082012D01*
X0018851Y0081926D01*
X0018981Y0081836D01*
X0019109Y0081743D01*
X0019235Y0081647D01*
X0019358Y0081547D01*
X0019479Y0081445D01*
X0019597Y0081340D01*
X0019712Y0081231D01*
X0019825Y0081120D01*
X0019935Y0081006D01*
X0020042Y0080889D01*
X0020146Y0080770D01*
X0020247Y0080648D01*
X0020344Y0080523D01*
X0020439Y0080396D01*
X0020530Y0080267D01*
X0020619Y0080136D01*
X0020703Y0080002D01*
X0020785Y0079866D01*
X0020863Y0079729D01*
X0020937Y0079589D01*
X0021008Y0079447D01*
X0021076Y0079304D01*
X0021140Y0079159D01*
X0021200Y0079013D01*
X0021256Y0078865D01*
X0021309Y0078716D01*
X0021358Y0078565D01*
X0021403Y0078413D01*
X0021444Y0078260D01*
X0021482Y0078107D01*
X0021515Y0077952D01*
X0021545Y0077796D01*
X0021571Y0077640D01*
X0021592Y0077483D01*
X0021610Y0077326D01*
X0021624Y0077168D01*
X0021634Y0077010D01*
X0021640Y0076852D01*
X0021642Y0076694D01*
X0021640Y0076536D01*
X0021634Y0076378D01*
X0021624Y0076220D01*
X0021610Y0076062D01*
X0021592Y0075905D01*
X0021571Y0075748D01*
X0021545Y0075592D01*
X0021515Y0075436D01*
X0021482Y0075281D01*
X0021444Y0075128D01*
X0021403Y0074975D01*
X0021358Y0074823D01*
X0021309Y0074672D01*
X0021256Y0074523D01*
X0021200Y0074375D01*
X0021140Y0074229D01*
X0021076Y0074084D01*
X0021008Y0073941D01*
X0020937Y0073799D01*
X0020863Y0073659D01*
X0020785Y0073522D01*
X0020703Y0073386D01*
X0020619Y0073252D01*
X0020530Y0073121D01*
X0020439Y0072992D01*
X0020344Y0072865D01*
X0020247Y0072740D01*
X0020146Y0072618D01*
X0020042Y0072499D01*
X0019935Y0072382D01*
X0019825Y0072268D01*
X0019712Y0072157D01*
X0019597Y0072048D01*
X0019479Y0071943D01*
X0019358Y0071841D01*
X0019235Y0071741D01*
X0019109Y0071645D01*
X0018981Y0071552D01*
X0018851Y0071462D01*
X0018718Y0071376D01*
X0018583Y0071292D01*
X0018447Y0071213D01*
X0018308Y0071136D01*
X0018167Y0071064D01*
X0018025Y0070994D01*
X0017881Y0070929D01*
X0017735Y0070867D01*
X0017588Y0070809D01*
X0017439Y0070754D01*
X0017289Y0070703D01*
X0017138Y0070656D01*
X0016986Y0070613D01*
X0016833Y0070574D01*
X0016678Y0070538D01*
X0016523Y0070507D01*
X0016367Y0070479D01*
X0016211Y0070455D01*
X0016054Y0070435D01*
X0015896Y0070419D01*
X0015739Y0070407D01*
X0015580Y0070399D01*
X0015422Y0070395D01*
X0015264Y0070395D01*
X0015106Y0070399D01*
X0014947Y0070407D01*
X0014790Y0070419D01*
X0014632Y0070435D01*
X0014475Y0070455D01*
X0014319Y0070479D01*
X0014163Y0070507D01*
X0014008Y0070538D01*
X0013853Y0070574D01*
X0013700Y0070613D01*
X0013548Y0070656D01*
X0013397Y0070703D01*
X0013247Y0070754D01*
X0013098Y0070809D01*
X0012951Y0070867D01*
X0012805Y0070929D01*
X0012661Y0070994D01*
X0012519Y0071064D01*
X0012378Y0071136D01*
X0012239Y0071213D01*
X0012103Y0071292D01*
X0011968Y0071376D01*
X0011835Y0071462D01*
X0011705Y0071552D01*
X0011577Y0071645D01*
X0011451Y0071741D01*
X0011328Y0071841D01*
X0011207Y0071943D01*
X0011089Y0072048D01*
X0010974Y0072157D01*
X0010861Y0072268D01*
X0010751Y0072382D01*
X0010644Y0072499D01*
X0010540Y0072618D01*
X0010439Y0072740D01*
X0010342Y0072865D01*
X0010247Y0072992D01*
X0010156Y0073121D01*
X0010067Y0073252D01*
X0009983Y0073386D01*
X0009901Y0073522D01*
X0009823Y0073659D01*
X0009749Y0073799D01*
X0009678Y0073941D01*
X0009610Y0074084D01*
X0009546Y0074229D01*
X0009486Y0074375D01*
X0009430Y0074523D01*
X0009377Y0074672D01*
X0009328Y0074823D01*
X0009283Y0074975D01*
X0009242Y0075128D01*
X0009204Y0075281D01*
X0009171Y0075436D01*
X0009141Y0075592D01*
X0009115Y0075748D01*
X0009094Y0075905D01*
X0009076Y0076062D01*
X0009062Y0076220D01*
X0009052Y0076378D01*
X0009046Y0076536D01*
X0009044Y0076694D01*
X0009044Y0143623D02*
X0009046Y0143781D01*
X0009052Y0143939D01*
X0009062Y0144097D01*
X0009076Y0144255D01*
X0009094Y0144412D01*
X0009115Y0144569D01*
X0009141Y0144725D01*
X0009171Y0144881D01*
X0009204Y0145036D01*
X0009242Y0145189D01*
X0009283Y0145342D01*
X0009328Y0145494D01*
X0009377Y0145645D01*
X0009430Y0145794D01*
X0009486Y0145942D01*
X0009546Y0146088D01*
X0009610Y0146233D01*
X0009678Y0146376D01*
X0009749Y0146518D01*
X0009823Y0146658D01*
X0009901Y0146795D01*
X0009983Y0146931D01*
X0010067Y0147065D01*
X0010156Y0147196D01*
X0010247Y0147325D01*
X0010342Y0147452D01*
X0010439Y0147577D01*
X0010540Y0147699D01*
X0010644Y0147818D01*
X0010751Y0147935D01*
X0010861Y0148049D01*
X0010974Y0148160D01*
X0011089Y0148269D01*
X0011207Y0148374D01*
X0011328Y0148476D01*
X0011451Y0148576D01*
X0011577Y0148672D01*
X0011705Y0148765D01*
X0011835Y0148855D01*
X0011968Y0148941D01*
X0012103Y0149025D01*
X0012239Y0149104D01*
X0012378Y0149181D01*
X0012519Y0149253D01*
X0012661Y0149323D01*
X0012805Y0149388D01*
X0012951Y0149450D01*
X0013098Y0149508D01*
X0013247Y0149563D01*
X0013397Y0149614D01*
X0013548Y0149661D01*
X0013700Y0149704D01*
X0013853Y0149743D01*
X0014008Y0149779D01*
X0014163Y0149810D01*
X0014319Y0149838D01*
X0014475Y0149862D01*
X0014632Y0149882D01*
X0014790Y0149898D01*
X0014947Y0149910D01*
X0015106Y0149918D01*
X0015264Y0149922D01*
X0015422Y0149922D01*
X0015580Y0149918D01*
X0015739Y0149910D01*
X0015896Y0149898D01*
X0016054Y0149882D01*
X0016211Y0149862D01*
X0016367Y0149838D01*
X0016523Y0149810D01*
X0016678Y0149779D01*
X0016833Y0149743D01*
X0016986Y0149704D01*
X0017138Y0149661D01*
X0017289Y0149614D01*
X0017439Y0149563D01*
X0017588Y0149508D01*
X0017735Y0149450D01*
X0017881Y0149388D01*
X0018025Y0149323D01*
X0018167Y0149253D01*
X0018308Y0149181D01*
X0018447Y0149104D01*
X0018583Y0149025D01*
X0018718Y0148941D01*
X0018851Y0148855D01*
X0018981Y0148765D01*
X0019109Y0148672D01*
X0019235Y0148576D01*
X0019358Y0148476D01*
X0019479Y0148374D01*
X0019597Y0148269D01*
X0019712Y0148160D01*
X0019825Y0148049D01*
X0019935Y0147935D01*
X0020042Y0147818D01*
X0020146Y0147699D01*
X0020247Y0147577D01*
X0020344Y0147452D01*
X0020439Y0147325D01*
X0020530Y0147196D01*
X0020619Y0147065D01*
X0020703Y0146931D01*
X0020785Y0146795D01*
X0020863Y0146658D01*
X0020937Y0146518D01*
X0021008Y0146376D01*
X0021076Y0146233D01*
X0021140Y0146088D01*
X0021200Y0145942D01*
X0021256Y0145794D01*
X0021309Y0145645D01*
X0021358Y0145494D01*
X0021403Y0145342D01*
X0021444Y0145189D01*
X0021482Y0145036D01*
X0021515Y0144881D01*
X0021545Y0144725D01*
X0021571Y0144569D01*
X0021592Y0144412D01*
X0021610Y0144255D01*
X0021624Y0144097D01*
X0021634Y0143939D01*
X0021640Y0143781D01*
X0021642Y0143623D01*
X0021640Y0143465D01*
X0021634Y0143307D01*
X0021624Y0143149D01*
X0021610Y0142991D01*
X0021592Y0142834D01*
X0021571Y0142677D01*
X0021545Y0142521D01*
X0021515Y0142365D01*
X0021482Y0142210D01*
X0021444Y0142057D01*
X0021403Y0141904D01*
X0021358Y0141752D01*
X0021309Y0141601D01*
X0021256Y0141452D01*
X0021200Y0141304D01*
X0021140Y0141158D01*
X0021076Y0141013D01*
X0021008Y0140870D01*
X0020937Y0140728D01*
X0020863Y0140588D01*
X0020785Y0140451D01*
X0020703Y0140315D01*
X0020619Y0140181D01*
X0020530Y0140050D01*
X0020439Y0139921D01*
X0020344Y0139794D01*
X0020247Y0139669D01*
X0020146Y0139547D01*
X0020042Y0139428D01*
X0019935Y0139311D01*
X0019825Y0139197D01*
X0019712Y0139086D01*
X0019597Y0138977D01*
X0019479Y0138872D01*
X0019358Y0138770D01*
X0019235Y0138670D01*
X0019109Y0138574D01*
X0018981Y0138481D01*
X0018851Y0138391D01*
X0018718Y0138305D01*
X0018583Y0138221D01*
X0018447Y0138142D01*
X0018308Y0138065D01*
X0018167Y0137993D01*
X0018025Y0137923D01*
X0017881Y0137858D01*
X0017735Y0137796D01*
X0017588Y0137738D01*
X0017439Y0137683D01*
X0017289Y0137632D01*
X0017138Y0137585D01*
X0016986Y0137542D01*
X0016833Y0137503D01*
X0016678Y0137467D01*
X0016523Y0137436D01*
X0016367Y0137408D01*
X0016211Y0137384D01*
X0016054Y0137364D01*
X0015896Y0137348D01*
X0015739Y0137336D01*
X0015580Y0137328D01*
X0015422Y0137324D01*
X0015264Y0137324D01*
X0015106Y0137328D01*
X0014947Y0137336D01*
X0014790Y0137348D01*
X0014632Y0137364D01*
X0014475Y0137384D01*
X0014319Y0137408D01*
X0014163Y0137436D01*
X0014008Y0137467D01*
X0013853Y0137503D01*
X0013700Y0137542D01*
X0013548Y0137585D01*
X0013397Y0137632D01*
X0013247Y0137683D01*
X0013098Y0137738D01*
X0012951Y0137796D01*
X0012805Y0137858D01*
X0012661Y0137923D01*
X0012519Y0137993D01*
X0012378Y0138065D01*
X0012239Y0138142D01*
X0012103Y0138221D01*
X0011968Y0138305D01*
X0011835Y0138391D01*
X0011705Y0138481D01*
X0011577Y0138574D01*
X0011451Y0138670D01*
X0011328Y0138770D01*
X0011207Y0138872D01*
X0011089Y0138977D01*
X0010974Y0139086D01*
X0010861Y0139197D01*
X0010751Y0139311D01*
X0010644Y0139428D01*
X0010540Y0139547D01*
X0010439Y0139669D01*
X0010342Y0139794D01*
X0010247Y0139921D01*
X0010156Y0140050D01*
X0010067Y0140181D01*
X0009983Y0140315D01*
X0009901Y0140451D01*
X0009823Y0140588D01*
X0009749Y0140728D01*
X0009678Y0140870D01*
X0009610Y0141013D01*
X0009546Y0141158D01*
X0009486Y0141304D01*
X0009430Y0141452D01*
X0009377Y0141601D01*
X0009328Y0141752D01*
X0009283Y0141904D01*
X0009242Y0142057D01*
X0009204Y0142210D01*
X0009171Y0142365D01*
X0009141Y0142521D01*
X0009115Y0142677D01*
X0009094Y0142834D01*
X0009076Y0142991D01*
X0009062Y0143149D01*
X0009052Y0143307D01*
X0009046Y0143465D01*
X0009044Y0143623D01*
X0199988Y0143623D02*
X0199990Y0143781D01*
X0199996Y0143939D01*
X0200006Y0144097D01*
X0200020Y0144255D01*
X0200038Y0144412D01*
X0200059Y0144569D01*
X0200085Y0144725D01*
X0200115Y0144881D01*
X0200148Y0145036D01*
X0200186Y0145189D01*
X0200227Y0145342D01*
X0200272Y0145494D01*
X0200321Y0145645D01*
X0200374Y0145794D01*
X0200430Y0145942D01*
X0200490Y0146088D01*
X0200554Y0146233D01*
X0200622Y0146376D01*
X0200693Y0146518D01*
X0200767Y0146658D01*
X0200845Y0146795D01*
X0200927Y0146931D01*
X0201011Y0147065D01*
X0201100Y0147196D01*
X0201191Y0147325D01*
X0201286Y0147452D01*
X0201383Y0147577D01*
X0201484Y0147699D01*
X0201588Y0147818D01*
X0201695Y0147935D01*
X0201805Y0148049D01*
X0201918Y0148160D01*
X0202033Y0148269D01*
X0202151Y0148374D01*
X0202272Y0148476D01*
X0202395Y0148576D01*
X0202521Y0148672D01*
X0202649Y0148765D01*
X0202779Y0148855D01*
X0202912Y0148941D01*
X0203047Y0149025D01*
X0203183Y0149104D01*
X0203322Y0149181D01*
X0203463Y0149253D01*
X0203605Y0149323D01*
X0203749Y0149388D01*
X0203895Y0149450D01*
X0204042Y0149508D01*
X0204191Y0149563D01*
X0204341Y0149614D01*
X0204492Y0149661D01*
X0204644Y0149704D01*
X0204797Y0149743D01*
X0204952Y0149779D01*
X0205107Y0149810D01*
X0205263Y0149838D01*
X0205419Y0149862D01*
X0205576Y0149882D01*
X0205734Y0149898D01*
X0205891Y0149910D01*
X0206050Y0149918D01*
X0206208Y0149922D01*
X0206366Y0149922D01*
X0206524Y0149918D01*
X0206683Y0149910D01*
X0206840Y0149898D01*
X0206998Y0149882D01*
X0207155Y0149862D01*
X0207311Y0149838D01*
X0207467Y0149810D01*
X0207622Y0149779D01*
X0207777Y0149743D01*
X0207930Y0149704D01*
X0208082Y0149661D01*
X0208233Y0149614D01*
X0208383Y0149563D01*
X0208532Y0149508D01*
X0208679Y0149450D01*
X0208825Y0149388D01*
X0208969Y0149323D01*
X0209111Y0149253D01*
X0209252Y0149181D01*
X0209391Y0149104D01*
X0209527Y0149025D01*
X0209662Y0148941D01*
X0209795Y0148855D01*
X0209925Y0148765D01*
X0210053Y0148672D01*
X0210179Y0148576D01*
X0210302Y0148476D01*
X0210423Y0148374D01*
X0210541Y0148269D01*
X0210656Y0148160D01*
X0210769Y0148049D01*
X0210879Y0147935D01*
X0210986Y0147818D01*
X0211090Y0147699D01*
X0211191Y0147577D01*
X0211288Y0147452D01*
X0211383Y0147325D01*
X0211474Y0147196D01*
X0211563Y0147065D01*
X0211647Y0146931D01*
X0211729Y0146795D01*
X0211807Y0146658D01*
X0211881Y0146518D01*
X0211952Y0146376D01*
X0212020Y0146233D01*
X0212084Y0146088D01*
X0212144Y0145942D01*
X0212200Y0145794D01*
X0212253Y0145645D01*
X0212302Y0145494D01*
X0212347Y0145342D01*
X0212388Y0145189D01*
X0212426Y0145036D01*
X0212459Y0144881D01*
X0212489Y0144725D01*
X0212515Y0144569D01*
X0212536Y0144412D01*
X0212554Y0144255D01*
X0212568Y0144097D01*
X0212578Y0143939D01*
X0212584Y0143781D01*
X0212586Y0143623D01*
X0212584Y0143465D01*
X0212578Y0143307D01*
X0212568Y0143149D01*
X0212554Y0142991D01*
X0212536Y0142834D01*
X0212515Y0142677D01*
X0212489Y0142521D01*
X0212459Y0142365D01*
X0212426Y0142210D01*
X0212388Y0142057D01*
X0212347Y0141904D01*
X0212302Y0141752D01*
X0212253Y0141601D01*
X0212200Y0141452D01*
X0212144Y0141304D01*
X0212084Y0141158D01*
X0212020Y0141013D01*
X0211952Y0140870D01*
X0211881Y0140728D01*
X0211807Y0140588D01*
X0211729Y0140451D01*
X0211647Y0140315D01*
X0211563Y0140181D01*
X0211474Y0140050D01*
X0211383Y0139921D01*
X0211288Y0139794D01*
X0211191Y0139669D01*
X0211090Y0139547D01*
X0210986Y0139428D01*
X0210879Y0139311D01*
X0210769Y0139197D01*
X0210656Y0139086D01*
X0210541Y0138977D01*
X0210423Y0138872D01*
X0210302Y0138770D01*
X0210179Y0138670D01*
X0210053Y0138574D01*
X0209925Y0138481D01*
X0209795Y0138391D01*
X0209662Y0138305D01*
X0209527Y0138221D01*
X0209391Y0138142D01*
X0209252Y0138065D01*
X0209111Y0137993D01*
X0208969Y0137923D01*
X0208825Y0137858D01*
X0208679Y0137796D01*
X0208532Y0137738D01*
X0208383Y0137683D01*
X0208233Y0137632D01*
X0208082Y0137585D01*
X0207930Y0137542D01*
X0207777Y0137503D01*
X0207622Y0137467D01*
X0207467Y0137436D01*
X0207311Y0137408D01*
X0207155Y0137384D01*
X0206998Y0137364D01*
X0206840Y0137348D01*
X0206683Y0137336D01*
X0206524Y0137328D01*
X0206366Y0137324D01*
X0206208Y0137324D01*
X0206050Y0137328D01*
X0205891Y0137336D01*
X0205734Y0137348D01*
X0205576Y0137364D01*
X0205419Y0137384D01*
X0205263Y0137408D01*
X0205107Y0137436D01*
X0204952Y0137467D01*
X0204797Y0137503D01*
X0204644Y0137542D01*
X0204492Y0137585D01*
X0204341Y0137632D01*
X0204191Y0137683D01*
X0204042Y0137738D01*
X0203895Y0137796D01*
X0203749Y0137858D01*
X0203605Y0137923D01*
X0203463Y0137993D01*
X0203322Y0138065D01*
X0203183Y0138142D01*
X0203047Y0138221D01*
X0202912Y0138305D01*
X0202779Y0138391D01*
X0202649Y0138481D01*
X0202521Y0138574D01*
X0202395Y0138670D01*
X0202272Y0138770D01*
X0202151Y0138872D01*
X0202033Y0138977D01*
X0201918Y0139086D01*
X0201805Y0139197D01*
X0201695Y0139311D01*
X0201588Y0139428D01*
X0201484Y0139547D01*
X0201383Y0139669D01*
X0201286Y0139794D01*
X0201191Y0139921D01*
X0201100Y0140050D01*
X0201011Y0140181D01*
X0200927Y0140315D01*
X0200845Y0140451D01*
X0200767Y0140588D01*
X0200693Y0140728D01*
X0200622Y0140870D01*
X0200554Y0141013D01*
X0200490Y0141158D01*
X0200430Y0141304D01*
X0200374Y0141452D01*
X0200321Y0141601D01*
X0200272Y0141752D01*
X0200227Y0141904D01*
X0200186Y0142057D01*
X0200148Y0142210D01*
X0200115Y0142365D01*
X0200085Y0142521D01*
X0200059Y0142677D01*
X0200038Y0142834D01*
X0200020Y0142991D01*
X0200006Y0143149D01*
X0199996Y0143307D01*
X0199990Y0143465D01*
X0199988Y0143623D01*
X0199988Y0076694D02*
X0199990Y0076852D01*
X0199996Y0077010D01*
X0200006Y0077168D01*
X0200020Y0077326D01*
X0200038Y0077483D01*
X0200059Y0077640D01*
X0200085Y0077796D01*
X0200115Y0077952D01*
X0200148Y0078107D01*
X0200186Y0078260D01*
X0200227Y0078413D01*
X0200272Y0078565D01*
X0200321Y0078716D01*
X0200374Y0078865D01*
X0200430Y0079013D01*
X0200490Y0079159D01*
X0200554Y0079304D01*
X0200622Y0079447D01*
X0200693Y0079589D01*
X0200767Y0079729D01*
X0200845Y0079866D01*
X0200927Y0080002D01*
X0201011Y0080136D01*
X0201100Y0080267D01*
X0201191Y0080396D01*
X0201286Y0080523D01*
X0201383Y0080648D01*
X0201484Y0080770D01*
X0201588Y0080889D01*
X0201695Y0081006D01*
X0201805Y0081120D01*
X0201918Y0081231D01*
X0202033Y0081340D01*
X0202151Y0081445D01*
X0202272Y0081547D01*
X0202395Y0081647D01*
X0202521Y0081743D01*
X0202649Y0081836D01*
X0202779Y0081926D01*
X0202912Y0082012D01*
X0203047Y0082096D01*
X0203183Y0082175D01*
X0203322Y0082252D01*
X0203463Y0082324D01*
X0203605Y0082394D01*
X0203749Y0082459D01*
X0203895Y0082521D01*
X0204042Y0082579D01*
X0204191Y0082634D01*
X0204341Y0082685D01*
X0204492Y0082732D01*
X0204644Y0082775D01*
X0204797Y0082814D01*
X0204952Y0082850D01*
X0205107Y0082881D01*
X0205263Y0082909D01*
X0205419Y0082933D01*
X0205576Y0082953D01*
X0205734Y0082969D01*
X0205891Y0082981D01*
X0206050Y0082989D01*
X0206208Y0082993D01*
X0206366Y0082993D01*
X0206524Y0082989D01*
X0206683Y0082981D01*
X0206840Y0082969D01*
X0206998Y0082953D01*
X0207155Y0082933D01*
X0207311Y0082909D01*
X0207467Y0082881D01*
X0207622Y0082850D01*
X0207777Y0082814D01*
X0207930Y0082775D01*
X0208082Y0082732D01*
X0208233Y0082685D01*
X0208383Y0082634D01*
X0208532Y0082579D01*
X0208679Y0082521D01*
X0208825Y0082459D01*
X0208969Y0082394D01*
X0209111Y0082324D01*
X0209252Y0082252D01*
X0209391Y0082175D01*
X0209527Y0082096D01*
X0209662Y0082012D01*
X0209795Y0081926D01*
X0209925Y0081836D01*
X0210053Y0081743D01*
X0210179Y0081647D01*
X0210302Y0081547D01*
X0210423Y0081445D01*
X0210541Y0081340D01*
X0210656Y0081231D01*
X0210769Y0081120D01*
X0210879Y0081006D01*
X0210986Y0080889D01*
X0211090Y0080770D01*
X0211191Y0080648D01*
X0211288Y0080523D01*
X0211383Y0080396D01*
X0211474Y0080267D01*
X0211563Y0080136D01*
X0211647Y0080002D01*
X0211729Y0079866D01*
X0211807Y0079729D01*
X0211881Y0079589D01*
X0211952Y0079447D01*
X0212020Y0079304D01*
X0212084Y0079159D01*
X0212144Y0079013D01*
X0212200Y0078865D01*
X0212253Y0078716D01*
X0212302Y0078565D01*
X0212347Y0078413D01*
X0212388Y0078260D01*
X0212426Y0078107D01*
X0212459Y0077952D01*
X0212489Y0077796D01*
X0212515Y0077640D01*
X0212536Y0077483D01*
X0212554Y0077326D01*
X0212568Y0077168D01*
X0212578Y0077010D01*
X0212584Y0076852D01*
X0212586Y0076694D01*
X0212584Y0076536D01*
X0212578Y0076378D01*
X0212568Y0076220D01*
X0212554Y0076062D01*
X0212536Y0075905D01*
X0212515Y0075748D01*
X0212489Y0075592D01*
X0212459Y0075436D01*
X0212426Y0075281D01*
X0212388Y0075128D01*
X0212347Y0074975D01*
X0212302Y0074823D01*
X0212253Y0074672D01*
X0212200Y0074523D01*
X0212144Y0074375D01*
X0212084Y0074229D01*
X0212020Y0074084D01*
X0211952Y0073941D01*
X0211881Y0073799D01*
X0211807Y0073659D01*
X0211729Y0073522D01*
X0211647Y0073386D01*
X0211563Y0073252D01*
X0211474Y0073121D01*
X0211383Y0072992D01*
X0211288Y0072865D01*
X0211191Y0072740D01*
X0211090Y0072618D01*
X0210986Y0072499D01*
X0210879Y0072382D01*
X0210769Y0072268D01*
X0210656Y0072157D01*
X0210541Y0072048D01*
X0210423Y0071943D01*
X0210302Y0071841D01*
X0210179Y0071741D01*
X0210053Y0071645D01*
X0209925Y0071552D01*
X0209795Y0071462D01*
X0209662Y0071376D01*
X0209527Y0071292D01*
X0209391Y0071213D01*
X0209252Y0071136D01*
X0209111Y0071064D01*
X0208969Y0070994D01*
X0208825Y0070929D01*
X0208679Y0070867D01*
X0208532Y0070809D01*
X0208383Y0070754D01*
X0208233Y0070703D01*
X0208082Y0070656D01*
X0207930Y0070613D01*
X0207777Y0070574D01*
X0207622Y0070538D01*
X0207467Y0070507D01*
X0207311Y0070479D01*
X0207155Y0070455D01*
X0206998Y0070435D01*
X0206840Y0070419D01*
X0206683Y0070407D01*
X0206524Y0070399D01*
X0206366Y0070395D01*
X0206208Y0070395D01*
X0206050Y0070399D01*
X0205891Y0070407D01*
X0205734Y0070419D01*
X0205576Y0070435D01*
X0205419Y0070455D01*
X0205263Y0070479D01*
X0205107Y0070507D01*
X0204952Y0070538D01*
X0204797Y0070574D01*
X0204644Y0070613D01*
X0204492Y0070656D01*
X0204341Y0070703D01*
X0204191Y0070754D01*
X0204042Y0070809D01*
X0203895Y0070867D01*
X0203749Y0070929D01*
X0203605Y0070994D01*
X0203463Y0071064D01*
X0203322Y0071136D01*
X0203183Y0071213D01*
X0203047Y0071292D01*
X0202912Y0071376D01*
X0202779Y0071462D01*
X0202649Y0071552D01*
X0202521Y0071645D01*
X0202395Y0071741D01*
X0202272Y0071841D01*
X0202151Y0071943D01*
X0202033Y0072048D01*
X0201918Y0072157D01*
X0201805Y0072268D01*
X0201695Y0072382D01*
X0201588Y0072499D01*
X0201484Y0072618D01*
X0201383Y0072740D01*
X0201286Y0072865D01*
X0201191Y0072992D01*
X0201100Y0073121D01*
X0201011Y0073252D01*
X0200927Y0073386D01*
X0200845Y0073522D01*
X0200767Y0073659D01*
X0200693Y0073799D01*
X0200622Y0073941D01*
X0200554Y0074084D01*
X0200490Y0074229D01*
X0200430Y0074375D01*
X0200374Y0074523D01*
X0200321Y0074672D01*
X0200272Y0074823D01*
X0200227Y0074975D01*
X0200186Y0075128D01*
X0200148Y0075281D01*
X0200115Y0075436D01*
X0200085Y0075592D01*
X0200059Y0075748D01*
X0200038Y0075905D01*
X0200020Y0076062D01*
X0200006Y0076220D01*
X0199996Y0076378D01*
X0199990Y0076536D01*
X0199988Y0076694D01*
D11*
X0180880Y0082988D02*
X0178945Y0082988D01*
X0179913Y0082988D02*
X0179913Y0085891D01*
X0178945Y0084923D01*
X0177934Y0085407D02*
X0177934Y0083472D01*
X0177450Y0082988D01*
X0176482Y0082988D01*
X0175999Y0083472D01*
X0175999Y0085407D01*
X0176482Y0085891D01*
X0177450Y0085891D01*
X0177934Y0085407D01*
X0176966Y0083956D02*
X0177934Y0082988D01*
X0172144Y0075558D02*
X0171176Y0075558D01*
X0170693Y0075074D01*
X0170693Y0073139D01*
X0172628Y0075074D01*
X0172628Y0073139D01*
X0172144Y0072655D01*
X0171176Y0072655D01*
X0170693Y0073139D01*
X0169681Y0072655D02*
X0167746Y0072655D01*
X0169681Y0074590D01*
X0169681Y0075074D01*
X0169197Y0075558D01*
X0168230Y0075558D01*
X0167746Y0075074D01*
X0166735Y0075074D02*
X0166251Y0075558D01*
X0164800Y0075558D01*
X0164800Y0072655D01*
X0164800Y0073623D02*
X0166251Y0073623D01*
X0166735Y0074106D01*
X0166735Y0075074D01*
X0165767Y0073623D02*
X0166735Y0072655D01*
X0172144Y0075558D02*
X0172628Y0075074D01*
X0154835Y0090298D02*
X0152900Y0090298D01*
X0153868Y0090298D02*
X0153868Y0093200D01*
X0152900Y0092233D01*
X0151889Y0092716D02*
X0151405Y0093200D01*
X0150438Y0093200D01*
X0149954Y0092716D01*
X0149954Y0090781D01*
X0150438Y0090298D01*
X0151405Y0090298D01*
X0151889Y0090781D01*
X0176558Y0094249D02*
X0177042Y0093765D01*
X0178977Y0093765D01*
X0179460Y0094249D01*
X0179460Y0095217D01*
X0178977Y0095700D01*
X0178977Y0096712D02*
X0178493Y0096712D01*
X0178009Y0097196D01*
X0178009Y0098163D01*
X0178493Y0098647D01*
X0178977Y0098647D01*
X0179460Y0098163D01*
X0179460Y0097196D01*
X0178977Y0096712D01*
X0178009Y0097196D02*
X0177525Y0096712D01*
X0177042Y0096712D01*
X0176558Y0097196D01*
X0176558Y0098163D01*
X0177042Y0098647D01*
X0177525Y0098647D01*
X0178009Y0098163D01*
X0177042Y0095700D02*
X0176558Y0095217D01*
X0176558Y0094249D01*
X0202111Y0094331D02*
X0203079Y0094331D01*
X0202595Y0094331D02*
X0202595Y0097233D01*
X0202111Y0097233D02*
X0203079Y0097233D01*
X0204075Y0096749D02*
X0204075Y0094814D01*
X0204559Y0094331D01*
X0205527Y0094331D01*
X0206010Y0094814D01*
X0207022Y0094814D02*
X0207506Y0094331D01*
X0208473Y0094331D01*
X0208957Y0094814D01*
X0208957Y0095782D01*
X0208473Y0096266D01*
X0207989Y0096266D01*
X0207022Y0095782D01*
X0207022Y0097233D01*
X0208957Y0097233D01*
X0206010Y0096749D02*
X0205527Y0097233D01*
X0204559Y0097233D01*
X0204075Y0096749D01*
X0192863Y0116962D02*
X0191912Y0116962D01*
X0191437Y0117438D01*
X0191437Y0118388D01*
X0191912Y0118864D01*
X0192863Y0118864D01*
X0193338Y0118388D01*
X0193338Y0117913D01*
X0191437Y0117913D01*
X0190446Y0118864D02*
X0189971Y0118864D01*
X0189020Y0117913D01*
X0189020Y0116962D02*
X0189020Y0118864D01*
X0187562Y0118864D02*
X0187562Y0116962D01*
X0187087Y0116962D02*
X0188037Y0116962D01*
X0187562Y0118864D02*
X0187087Y0118864D01*
X0186088Y0118864D02*
X0186088Y0117438D01*
X0185612Y0116962D01*
X0185137Y0117438D01*
X0184662Y0116962D01*
X0184186Y0117438D01*
X0184186Y0118864D01*
X0183188Y0118388D02*
X0181286Y0118388D01*
X0180288Y0118864D02*
X0180288Y0119339D01*
X0179812Y0119814D01*
X0178862Y0119814D01*
X0178386Y0119339D01*
X0180288Y0118864D02*
X0178386Y0116962D01*
X0180288Y0116962D01*
X0179812Y0121687D02*
X0178386Y0121687D01*
X0178862Y0122637D02*
X0178386Y0123113D01*
X0178862Y0123588D01*
X0180288Y0123588D01*
X0179812Y0122637D02*
X0178862Y0122637D01*
X0179812Y0122637D02*
X0180288Y0122162D01*
X0179812Y0121687D01*
X0181286Y0121687D02*
X0181286Y0124539D01*
X0181762Y0123588D02*
X0182712Y0123588D01*
X0183188Y0123113D01*
X0183188Y0121687D01*
X0184186Y0122162D02*
X0184186Y0123113D01*
X0184662Y0123588D01*
X0185612Y0123588D01*
X0186088Y0123113D01*
X0186088Y0122162D01*
X0185612Y0121687D01*
X0184662Y0121687D01*
X0184186Y0122162D01*
X0181762Y0123588D02*
X0181286Y0123113D01*
X0187087Y0123588D02*
X0187087Y0121687D01*
X0187087Y0122637D02*
X0188037Y0123588D01*
X0188513Y0123588D01*
X0189503Y0123588D02*
X0190454Y0123588D01*
X0189979Y0124063D02*
X0189979Y0122162D01*
X0190454Y0121687D01*
X0194337Y0123113D02*
X0195287Y0123113D01*
X0196270Y0123113D02*
X0196270Y0122162D01*
X0196746Y0121687D01*
X0197696Y0121687D01*
X0198172Y0122162D01*
X0198172Y0123113D01*
X0197696Y0123588D01*
X0196746Y0123588D01*
X0196270Y0123113D01*
X0195287Y0124539D02*
X0194812Y0124063D01*
X0194812Y0121687D01*
X0199170Y0121687D02*
X0199170Y0123588D01*
X0199170Y0122637D02*
X0200121Y0123588D01*
X0200596Y0123588D01*
X0187562Y0120290D02*
X0187562Y0119814D01*
X0195798Y0142141D02*
X0196281Y0142625D01*
X0196281Y0143108D01*
X0195798Y0143592D01*
X0193379Y0143592D01*
X0193379Y0143108D02*
X0193379Y0144076D01*
X0193863Y0145087D02*
X0193379Y0145571D01*
X0193379Y0146539D01*
X0193863Y0147022D01*
X0194347Y0147022D01*
X0196281Y0145087D01*
X0196281Y0147022D01*
X0156256Y0147200D02*
X0156256Y0145265D01*
X0154321Y0147200D01*
X0153837Y0147200D01*
X0153353Y0146716D01*
X0153353Y0145748D01*
X0153837Y0145265D01*
X0153837Y0144253D02*
X0153353Y0143769D01*
X0153353Y0142802D01*
X0153837Y0142318D01*
X0153837Y0141307D02*
X0154804Y0141307D01*
X0155288Y0140823D01*
X0155288Y0139372D01*
X0155288Y0140339D02*
X0156256Y0141307D01*
X0156256Y0142318D02*
X0154321Y0144253D01*
X0153837Y0144253D01*
X0156256Y0144253D02*
X0156256Y0142318D01*
X0153837Y0141307D02*
X0153353Y0140823D01*
X0153353Y0139372D01*
X0156256Y0139372D01*
X0135887Y0147848D02*
X0135412Y0148323D01*
X0135412Y0150225D01*
X0135887Y0149749D02*
X0134936Y0149749D01*
X0133946Y0149749D02*
X0133470Y0149749D01*
X0132520Y0148799D01*
X0132520Y0149749D02*
X0132520Y0147848D01*
X0131521Y0148323D02*
X0131521Y0149274D01*
X0131046Y0149749D01*
X0130095Y0149749D01*
X0129620Y0149274D01*
X0129620Y0148323D01*
X0130095Y0147848D01*
X0131046Y0147848D01*
X0131521Y0148323D01*
X0128621Y0147848D02*
X0128621Y0149274D01*
X0128145Y0149749D01*
X0127195Y0149749D01*
X0126719Y0149274D01*
X0125721Y0149749D02*
X0124295Y0149749D01*
X0123819Y0149274D01*
X0124295Y0148799D01*
X0125245Y0148799D01*
X0125721Y0148323D01*
X0125245Y0147848D01*
X0123819Y0147848D01*
X0124770Y0145976D02*
X0124295Y0145500D01*
X0124295Y0143124D01*
X0123819Y0144550D02*
X0124770Y0144550D01*
X0125753Y0144550D02*
X0125753Y0143599D01*
X0126228Y0143124D01*
X0127179Y0143124D01*
X0127654Y0143599D01*
X0127654Y0144550D01*
X0127179Y0145025D01*
X0126228Y0145025D01*
X0125753Y0144550D01*
X0128653Y0145025D02*
X0128653Y0143124D01*
X0128653Y0144074D02*
X0129603Y0145025D01*
X0130079Y0145025D01*
X0128145Y0141251D02*
X0127195Y0141251D01*
X0126719Y0140776D01*
X0126719Y0138875D01*
X0127195Y0138399D01*
X0128145Y0138399D01*
X0128621Y0138875D01*
X0128621Y0140776D01*
X0128145Y0141251D01*
X0125721Y0140776D02*
X0125245Y0141251D01*
X0124295Y0141251D01*
X0123819Y0140776D01*
X0123819Y0138875D01*
X0124295Y0138399D01*
X0125245Y0138399D01*
X0125721Y0138875D01*
X0126719Y0147848D02*
X0126719Y0150700D01*
X0105044Y0148483D02*
X0103109Y0148483D01*
X0104076Y0148483D02*
X0104076Y0151385D01*
X0103109Y0150418D01*
X0102097Y0150901D02*
X0101614Y0151385D01*
X0100162Y0151385D01*
X0100162Y0148483D01*
X0101614Y0148483D01*
X0102097Y0148966D01*
X0102097Y0150901D01*
X0099151Y0151385D02*
X0097216Y0151385D01*
X0097216Y0148483D01*
X0099151Y0148483D01*
X0098183Y0149934D02*
X0097216Y0149934D01*
X0096204Y0148483D02*
X0094269Y0148483D01*
X0094269Y0151385D01*
X0071752Y0140353D02*
X0071268Y0140837D01*
X0070301Y0140837D01*
X0069817Y0140353D01*
X0068805Y0140353D02*
X0068322Y0140837D01*
X0067354Y0140837D01*
X0066870Y0140353D01*
X0066870Y0138418D01*
X0067354Y0137935D01*
X0068322Y0137935D01*
X0068805Y0138418D01*
X0069817Y0137935D02*
X0071752Y0139870D01*
X0071752Y0140353D01*
X0071752Y0137935D02*
X0069817Y0137935D01*
X0096886Y0132707D02*
X0096886Y0129805D01*
X0096886Y0130772D02*
X0098337Y0130772D01*
X0098821Y0131256D01*
X0098821Y0132223D01*
X0098337Y0132707D01*
X0096886Y0132707D01*
X0099833Y0132223D02*
X0100316Y0132707D01*
X0101284Y0132707D01*
X0101768Y0132223D01*
X0101768Y0131740D01*
X0099833Y0129805D01*
X0101768Y0129805D01*
X0102779Y0131256D02*
X0104714Y0131256D01*
X0104230Y0129805D02*
X0104230Y0132707D01*
X0102779Y0131256D01*
X0098821Y0129805D02*
X0097854Y0130772D01*
X0117251Y0125346D02*
X0117251Y0122443D01*
X0117251Y0123411D02*
X0118703Y0123411D01*
X0119186Y0123895D01*
X0119186Y0124862D01*
X0118703Y0125346D01*
X0117251Y0125346D01*
X0118219Y0123411D02*
X0119186Y0122443D01*
X0120198Y0122443D02*
X0122133Y0124378D01*
X0122133Y0124862D01*
X0121649Y0125346D01*
X0120682Y0125346D01*
X0120198Y0124862D01*
X0120198Y0122443D02*
X0122133Y0122443D01*
X0123144Y0122443D02*
X0125079Y0122443D01*
X0124112Y0122443D02*
X0124112Y0125346D01*
X0123144Y0124378D01*
X0139918Y0123190D02*
X0140886Y0123190D01*
X0140402Y0123190D02*
X0140402Y0120287D01*
X0139918Y0120287D02*
X0140886Y0120287D01*
X0141883Y0120771D02*
X0142366Y0120287D01*
X0143334Y0120287D01*
X0143817Y0120771D01*
X0144829Y0121739D02*
X0146764Y0121739D01*
X0146280Y0123190D02*
X0146280Y0120287D01*
X0144829Y0121739D02*
X0146280Y0123190D01*
X0143817Y0122706D02*
X0143334Y0123190D01*
X0142366Y0123190D01*
X0141883Y0122706D01*
X0141883Y0120771D01*
X0124409Y0105097D02*
X0124409Y0103162D01*
X0122474Y0105097D01*
X0121990Y0105097D01*
X0121507Y0104614D01*
X0121507Y0103646D01*
X0121990Y0103162D01*
X0124409Y0102151D02*
X0124409Y0100216D01*
X0124409Y0101183D02*
X0121507Y0101183D01*
X0122474Y0100216D01*
X0121990Y0099204D02*
X0121507Y0098721D01*
X0121507Y0097753D01*
X0121990Y0097269D01*
X0123925Y0097269D01*
X0124409Y0097753D01*
X0124409Y0098721D01*
X0123925Y0099204D01*
X0073494Y0102364D02*
X0071559Y0102364D01*
X0073494Y0104299D01*
X0073494Y0104783D01*
X0073010Y0105266D01*
X0072043Y0105266D01*
X0071559Y0104783D01*
X0069580Y0105266D02*
X0069580Y0102364D01*
X0070547Y0102364D02*
X0068612Y0102364D01*
X0067601Y0102364D02*
X0066633Y0103331D01*
X0067117Y0103331D02*
X0065666Y0103331D01*
X0065666Y0102364D02*
X0065666Y0105266D01*
X0067117Y0105266D01*
X0067601Y0104783D01*
X0067601Y0103815D01*
X0067117Y0103331D01*
X0068612Y0104299D02*
X0069580Y0105266D01*
X0070092Y0113187D02*
X0071060Y0113187D01*
X0071543Y0113670D01*
X0071543Y0115605D01*
X0071060Y0116089D01*
X0070092Y0116089D01*
X0069608Y0115605D01*
X0069608Y0115122D01*
X0070092Y0114638D01*
X0071543Y0114638D01*
X0070092Y0113187D02*
X0069608Y0113670D01*
X0068597Y0113670D02*
X0068113Y0113187D01*
X0067146Y0113187D01*
X0066662Y0113670D01*
X0066662Y0115605D01*
X0067146Y0116089D01*
X0068113Y0116089D01*
X0068597Y0115605D01*
D12*
X0131642Y0143919D02*
X0134543Y0145592D01*
X0137953Y0147560D02*
X0140854Y0149233D01*
X0145848Y0149233D01*
X0149785Y0149233D02*
X0154778Y0149233D01*
X0158715Y0149233D02*
X0163709Y0149233D01*
X0163709Y0145887D01*
X0163709Y0141950D02*
X0163709Y0138604D01*
X0164417Y0138604D01*
X0165480Y0140730D02*
X0165480Y0136478D01*
X0166898Y0136478D01*
X0166898Y0140730D02*
X0165480Y0140730D01*
X0174339Y0136478D02*
X0176110Y0136478D01*
X0176110Y0132757D01*
X0174516Y0132757D01*
X0177173Y0134529D02*
X0178591Y0134529D01*
X0178637Y0132333D01*
X0178721Y0128397D02*
X0178768Y0126202D01*
X0179654Y0124962D01*
D13*
X0075457Y0130273D02*
X0062858Y0130273D01*
X0062858Y0135785D01*
X0075457Y0135785D01*
X0075457Y0130273D01*
X0058650Y0135922D02*
X0058650Y0084895D01*
X0023217Y0084895D01*
X0023217Y0101497D01*
X0029122Y0101497D01*
X0029122Y0118820D01*
X0023217Y0118820D01*
X0023217Y0135922D01*
X0058256Y0135922D01*
X0054319Y0132092D02*
X0054319Y0090226D01*
X0027547Y0090226D01*
X0027547Y0101497D01*
X0023217Y0101497D02*
X0023217Y0118820D01*
X0027547Y0118820D02*
X0027547Y0132092D01*
X0054319Y0132092D01*
X0030508Y0122659D02*
X0030508Y0117659D01*
D14*
X0035933Y0120159D03*
X0045933Y0120159D03*
X0045933Y0110159D03*
X0035933Y0110159D03*
X0035933Y0100159D03*
X0035933Y0100159D03*
X0045933Y0100159D03*
X0045933Y0100159D03*
X0186031Y0132584D03*
X0186031Y0142584D03*
D15*
X0181031Y0140084D02*
X0181031Y0145084D01*
X0183531Y0147584D01*
X0188531Y0147584D01*
X0191031Y0145084D01*
X0191031Y0140084D01*
X0188531Y0137584D01*
X0191031Y0135084D01*
X0191031Y0130084D01*
X0188531Y0127584D01*
X0183531Y0127584D01*
X0181031Y0130084D01*
X0181031Y0135084D01*
X0183531Y0137584D01*
X0181031Y0140084D01*
X0183531Y0137584D02*
X0188531Y0137584D01*
X0174126Y0128943D02*
X0173692Y0129377D01*
X0172825Y0129377D01*
X0172391Y0128943D01*
X0171180Y0128943D02*
X0170746Y0129377D01*
X0169445Y0129377D01*
X0169445Y0126774D01*
X0169445Y0127642D02*
X0170746Y0127642D01*
X0171180Y0128076D01*
X0171180Y0128943D01*
X0172391Y0126774D02*
X0174126Y0128509D01*
X0174126Y0128943D01*
X0174126Y0126774D02*
X0172391Y0126774D01*
X0167799Y0127208D02*
X0167799Y0129377D01*
X0167366Y0129377D02*
X0168233Y0129377D01*
X0167799Y0127208D02*
X0167366Y0126774D01*
X0166932Y0126774D01*
X0166498Y0127208D01*
X0161685Y0138285D02*
X0161685Y0141686D01*
X0158882Y0141686D02*
X0158882Y0138285D01*
X0133646Y0125434D02*
X0130244Y0125434D01*
X0130244Y0122631D02*
X0133646Y0122631D01*
X0102606Y0135332D02*
X0099205Y0135332D01*
X0099205Y0138135D02*
X0102606Y0138135D01*
X0073570Y0128454D02*
X0073570Y0126719D01*
X0073136Y0126285D01*
X0072268Y0126285D01*
X0071835Y0126719D01*
X0072268Y0127587D02*
X0073570Y0127587D01*
X0073570Y0128454D02*
X0073136Y0128888D01*
X0072268Y0128888D01*
X0071835Y0128454D01*
X0071835Y0128020D01*
X0072268Y0127587D01*
X0070623Y0128020D02*
X0070189Y0127587D01*
X0068888Y0127587D01*
X0068888Y0128888D02*
X0070189Y0128888D01*
X0070623Y0128454D01*
X0070623Y0128020D01*
X0070189Y0127587D02*
X0070623Y0127153D01*
X0070623Y0126719D01*
X0070189Y0126285D01*
X0068888Y0126285D01*
X0068888Y0128888D01*
X0067677Y0128888D02*
X0065942Y0128888D01*
X0065942Y0126285D01*
X0065942Y0127587D02*
X0066809Y0127587D01*
X0067189Y0110907D02*
X0070591Y0110907D01*
X0070591Y0108104D02*
X0067189Y0108104D01*
X0021204Y0108810D02*
X0021204Y0109243D01*
X0020770Y0109677D01*
X0018602Y0109677D01*
X0018602Y0109243D02*
X0018602Y0110111D01*
X0019469Y0111323D02*
X0018602Y0112190D01*
X0021204Y0112190D01*
X0021204Y0111323D02*
X0021204Y0113057D01*
X0021204Y0108810D02*
X0020770Y0108376D01*
X0166937Y0080395D02*
X0170339Y0080395D01*
X0170339Y0077592D02*
X0166937Y0077592D01*
D16*
X0155402Y0094529D02*
X0149693Y0094529D01*
X0149693Y0097285D02*
X0155402Y0097285D01*
X0129311Y0098399D02*
X0129311Y0104108D01*
X0126555Y0104108D02*
X0126555Y0098399D01*
X0071614Y0118592D02*
X0065906Y0118592D01*
X0065906Y0121348D02*
X0071614Y0121348D01*
X0070559Y0131379D02*
X0067756Y0131379D01*
X0067756Y0134730D02*
X0070559Y0134730D01*
X0072370Y0143415D02*
X0066661Y0143415D01*
X0066661Y0146170D02*
X0072370Y0146170D01*
X0098713Y0146548D02*
X0102256Y0146548D01*
X0102256Y0143399D02*
X0098713Y0143399D01*
X0181646Y0099450D02*
X0181646Y0093741D01*
X0184402Y0093741D02*
X0184402Y0099450D01*
D17*
X0155008Y0095907D03*
X0150087Y0095907D03*
X0071976Y0144793D03*
X0067055Y0144793D03*
X0066299Y0119970D03*
X0071220Y0119970D03*
D18*
X0071442Y0133049D03*
X0066842Y0133049D03*
D19*
X0133008Y0119178D02*
X0133008Y0101068D01*
X0153677Y0101068D01*
X0153677Y0119178D01*
X0133008Y0119178D01*
X0160528Y0096600D02*
X0160528Y0082820D01*
X0175291Y0082820D01*
X0175291Y0096600D01*
X0160528Y0096600D01*
X0187878Y0103466D02*
X0187878Y0088308D01*
X0201815Y0088308D01*
X0201815Y0103466D01*
X0187878Y0103466D01*
D20*
X0189098Y0098446D02*
X0200594Y0098446D01*
X0200594Y0093328D01*
X0189098Y0093328D01*
X0189098Y0098446D01*
X0196854Y0098446D02*
X0200594Y0094706D01*
X0170469Y0095419D02*
X0170469Y0084001D01*
X0165350Y0084001D01*
X0165350Y0095419D01*
X0170469Y0095419D01*
X0169091Y0095419D02*
X0165350Y0091678D01*
X0151217Y0102249D02*
X0135469Y0102249D01*
X0135469Y0117997D01*
X0151217Y0117997D01*
X0151217Y0102249D01*
X0135469Y0114060D02*
X0139406Y0117997D01*
D21*
X0133500Y0118588D02*
X0133502Y0118632D01*
X0133508Y0118676D01*
X0133518Y0118719D01*
X0133531Y0118761D01*
X0133549Y0118801D01*
X0133570Y0118840D01*
X0133594Y0118877D01*
X0133621Y0118912D01*
X0133652Y0118944D01*
X0133685Y0118973D01*
X0133721Y0118999D01*
X0133759Y0119021D01*
X0133799Y0119040D01*
X0133840Y0119056D01*
X0133883Y0119068D01*
X0133926Y0119076D01*
X0133970Y0119080D01*
X0134014Y0119080D01*
X0134058Y0119076D01*
X0134101Y0119068D01*
X0134144Y0119056D01*
X0134185Y0119040D01*
X0134225Y0119021D01*
X0134263Y0118999D01*
X0134299Y0118973D01*
X0134332Y0118944D01*
X0134363Y0118912D01*
X0134390Y0118877D01*
X0134414Y0118840D01*
X0134435Y0118801D01*
X0134453Y0118761D01*
X0134466Y0118719D01*
X0134476Y0118676D01*
X0134482Y0118632D01*
X0134484Y0118588D01*
X0134482Y0118544D01*
X0134476Y0118500D01*
X0134466Y0118457D01*
X0134453Y0118415D01*
X0134435Y0118375D01*
X0134414Y0118336D01*
X0134390Y0118299D01*
X0134363Y0118264D01*
X0134332Y0118232D01*
X0134299Y0118203D01*
X0134263Y0118177D01*
X0134225Y0118155D01*
X0134185Y0118136D01*
X0134144Y0118120D01*
X0134101Y0118108D01*
X0134058Y0118100D01*
X0134014Y0118096D01*
X0133970Y0118096D01*
X0133926Y0118100D01*
X0133883Y0118108D01*
X0133840Y0118120D01*
X0133799Y0118136D01*
X0133759Y0118155D01*
X0133721Y0118177D01*
X0133685Y0118203D01*
X0133652Y0118232D01*
X0133621Y0118264D01*
X0133594Y0118299D01*
X0133570Y0118336D01*
X0133549Y0118375D01*
X0133531Y0118415D01*
X0133518Y0118457D01*
X0133508Y0118500D01*
X0133502Y0118544D01*
X0133500Y0118588D01*
D22*
X0161512Y0095615D02*
X0165646Y0095615D01*
X0167024Y0095419D02*
X0167024Y0084001D01*
X0168795Y0084001D01*
X0168795Y0095419D01*
X0167024Y0095419D01*
X0189098Y0095592D02*
X0189098Y0096182D01*
X0200594Y0096182D01*
X0200594Y0095592D01*
X0189098Y0095592D01*
X0200752Y0097560D02*
X0200752Y0102482D01*
D23*
X0183024Y0099056D03*
X0183024Y0094135D03*
X0127933Y0098793D03*
X0127933Y0103714D03*
D24*
X0129445Y0124033D03*
X0134445Y0124033D03*
X0103406Y0136733D03*
X0098406Y0136733D03*
X0071390Y0109505D03*
X0066390Y0109505D03*
X0166138Y0078993D03*
X0171138Y0078993D03*
D25*
X0160283Y0137485D03*
X0160283Y0142485D03*
D26*
X0103043Y0144974D03*
X0097925Y0144974D03*
D27*
X0101075Y0146450D03*
X0101075Y0143497D03*
D28*
X0101075Y0144974D03*
M02*
