G75*
%MOIN*%
%OFA0B0*%
%FSLAX25Y25*%
%IPPOS*%
%LPD*%
%AMOC8*
5,1,8,0,0,1.08239X$1,22.5*
%
%ADD10C,0.01700*%
%ADD11R,0.07400X0.07400*%
%ADD12C,0.07400*%
%ADD13R,0.04134X0.04252*%
%ADD14R,0.04331X0.03937*%
%ADD15C,0.05937*%
%ADD16R,0.03346X0.01181*%
%ADD17R,0.10236X0.11811*%
%ADD18C,0.15000*%
%ADD19R,0.02362X0.04921*%
%ADD20R,0.04252X0.04134*%
%ADD21R,0.03937X0.04331*%
%ADD22R,0.04134X0.02362*%
%ADD23R,0.03150X0.03150*%
%ADD24C,0.03937*%
%ADD25R,0.05000X0.02500*%
%ADD26C,0.01200*%
%ADD27C,0.03200*%
%ADD28C,0.01600*%
%ADD29C,0.03200*%
%ADD30C,0.01000*%
%ADD31C,0.02400*%
D10*
X0064571Y0069650D02*
X0064571Y0075830D01*
X0062511Y0075830D02*
X0066631Y0075830D01*
X0069762Y0074800D02*
X0069762Y0070680D01*
X0070792Y0069650D01*
X0072851Y0069650D01*
X0073881Y0070680D01*
X0073881Y0074800D01*
X0072851Y0075830D01*
X0070792Y0075830D01*
X0069762Y0074800D01*
X0077012Y0075830D02*
X0077012Y0069650D01*
X0077012Y0071710D02*
X0080102Y0071710D01*
X0081132Y0072740D01*
X0081132Y0074800D01*
X0080102Y0075830D01*
X0077012Y0075830D01*
D11*
X0035933Y0120159D03*
D12*
X0045933Y0120159D03*
X0045933Y0110159D03*
X0035933Y0110159D03*
X0035933Y0100159D03*
X0045933Y0100159D03*
D13*
X0065315Y0119970D03*
X0072205Y0119970D03*
X0072961Y0144793D03*
X0066071Y0144793D03*
X0149102Y0095907D03*
X0155992Y0095907D03*
D14*
X0160283Y0136639D03*
X0160283Y0143332D03*
X0072504Y0133029D03*
X0065811Y0133029D03*
D15*
X0014949Y0127891D02*
X0014949Y0121954D01*
X0014949Y0098363D02*
X0014949Y0092426D01*
X0183063Y0132584D02*
X0189000Y0132584D01*
X0189000Y0142584D02*
X0183063Y0142584D01*
X0212587Y0113127D02*
X0212587Y0107190D01*
D16*
X0151020Y0108155D03*
X0151020Y0110123D03*
X0151020Y0112092D03*
X0151020Y0114060D03*
X0151020Y0116029D03*
X0151020Y0106186D03*
X0151020Y0104218D03*
X0135665Y0104218D03*
X0135665Y0106186D03*
X0135665Y0108155D03*
X0135665Y0110123D03*
X0135665Y0112092D03*
X0135665Y0114060D03*
X0135665Y0116029D03*
D17*
X0143343Y0110123D03*
D18*
X0169791Y0110159D03*
X0143295Y0136655D03*
X0143295Y0083663D03*
D19*
X0191106Y0100021D03*
X0198587Y0100021D03*
X0194846Y0091753D03*
D20*
X0183024Y0093151D03*
X0183024Y0100041D03*
X0127933Y0097808D03*
X0127933Y0104698D03*
D21*
X0128598Y0124033D03*
X0135291Y0124033D03*
X0104252Y0136733D03*
X0097559Y0136733D03*
X0072236Y0109505D03*
X0065543Y0109505D03*
X0165291Y0078993D03*
X0171984Y0078993D03*
D22*
X0163579Y0085970D03*
X0172240Y0089710D03*
X0163579Y0093450D03*
D23*
X0103437Y0144974D03*
X0097531Y0144974D03*
D24*
X0029122Y0143623D03*
X0036996Y0076694D03*
X0206287Y0125907D03*
D25*
X0170618Y0132655D03*
X0170618Y0136655D03*
X0170618Y0140655D03*
D26*
X0169024Y0142249D01*
X0169024Y0148170D01*
X0160933Y0148170D01*
X0160283Y0147521D01*
X0160283Y0143332D01*
X0160283Y0136639D02*
X0170602Y0136639D01*
X0170618Y0136655D01*
X0175402Y0136655D01*
X0178059Y0139312D01*
X0182571Y0139312D01*
X0185937Y0142678D01*
X0186031Y0142584D01*
X0186031Y0132584D02*
X0170689Y0132584D01*
X0170618Y0132655D01*
X0167035Y0126517D02*
X0179965Y0126517D01*
X0186031Y0132584D01*
X0167035Y0126517D02*
X0157508Y0116989D01*
X0154579Y0114060D01*
X0151020Y0114060D01*
X0151020Y0112092D02*
X0167858Y0112092D01*
X0169791Y0110159D01*
X0169890Y0110257D01*
X0178945Y0110257D01*
X0183020Y0114332D01*
X0189220Y0114332D01*
X0193394Y0110159D01*
X0212587Y0110159D01*
X0191106Y0100021D02*
X0191087Y0100041D01*
X0183024Y0100041D01*
X0183024Y0105123D01*
X0184791Y0106891D01*
X0169791Y0110159D02*
X0169791Y0099663D01*
X0163579Y0093450D01*
X0157331Y0097245D02*
X0155992Y0095907D01*
X0157331Y0097245D02*
X0157331Y0107068D01*
X0156244Y0108155D01*
X0151020Y0108155D01*
X0151020Y0110123D02*
X0158173Y0110123D01*
X0159988Y0108308D01*
X0159988Y0103879D01*
X0161937Y0101930D01*
X0154673Y0100867D02*
X0154142Y0100336D01*
X0150776Y0100336D01*
X0149181Y0098741D01*
X0149181Y0095985D01*
X0149102Y0095907D01*
X0154673Y0100867D02*
X0154673Y0105651D01*
X0154138Y0106186D01*
X0151020Y0106186D01*
X0151020Y0104218D02*
X0148732Y0101930D01*
X0146701Y0101930D01*
X0134122Y0089352D01*
X0082921Y0089352D01*
X0100461Y0099450D02*
X0046642Y0099450D01*
X0045933Y0100159D01*
X0052094Y0095552D02*
X0049437Y0092895D01*
X0038098Y0092895D01*
X0035795Y0095198D01*
X0035795Y0100021D01*
X0035933Y0100159D01*
X0052094Y0095552D02*
X0101169Y0095552D01*
X0115343Y0109726D01*
X0132705Y0109726D01*
X0133102Y0110123D01*
X0135665Y0110123D01*
X0135665Y0112092D02*
X0113102Y0112092D01*
X0100461Y0099450D01*
X0079378Y0109017D02*
X0078890Y0109505D01*
X0072236Y0109505D01*
X0077075Y0125848D02*
X0081504Y0130277D01*
X0100815Y0130277D01*
X0104252Y0133714D01*
X0104252Y0136733D01*
X0104331Y0136655D01*
X0112154Y0136655D01*
X0119339Y0136733D02*
X0128630Y0127442D01*
X0128630Y0124064D01*
X0128598Y0124033D01*
X0128630Y0124001D01*
X0128630Y0116989D01*
X0131559Y0114060D01*
X0135665Y0114060D01*
X0135665Y0116029D02*
X0135665Y0123659D01*
X0135291Y0124033D01*
X0135185Y0124139D01*
X0135185Y0127619D01*
X0117831Y0144974D01*
X0103437Y0144974D01*
X0097559Y0144946D02*
X0097531Y0144974D01*
X0097559Y0144946D02*
X0097559Y0136733D01*
X0104252Y0136733D02*
X0119339Y0136733D01*
X0143295Y0136655D02*
X0143311Y0136639D01*
X0160283Y0136639D01*
X0160406Y0136517D01*
X0151020Y0128930D02*
X0143311Y0136639D01*
X0151020Y0128930D02*
X0151020Y0116029D01*
X0135665Y0106186D02*
X0131646Y0106186D01*
X0130579Y0105119D01*
X0129106Y0105119D01*
X0128039Y0106186D01*
X0127933Y0104698D01*
X0131642Y0099273D02*
X0135665Y0103296D01*
X0135665Y0104218D01*
X0131642Y0099273D02*
X0128063Y0099273D01*
X0127933Y0097808D01*
X0143295Y0083663D02*
X0145602Y0085970D01*
X0163579Y0085970D01*
X0172240Y0089710D02*
X0172240Y0079249D01*
X0171984Y0078993D01*
X0183024Y0093151D02*
X0188256Y0093151D01*
X0189575Y0091832D01*
X0194768Y0091832D01*
X0194846Y0091753D01*
D27*
X0065811Y0133029D02*
X0043154Y0133029D01*
X0035972Y0125848D01*
X0035972Y0120198D01*
X0035933Y0120159D01*
X0025697Y0112915D02*
X0025697Y0128505D01*
X0041984Y0144793D01*
X0066071Y0144793D01*
X0028709Y0109903D02*
X0025697Y0112915D01*
X0028709Y0109903D02*
X0035677Y0109903D01*
X0035933Y0110159D01*
D28*
X0045933Y0120159D02*
X0046122Y0119970D01*
X0065315Y0119970D01*
X0065315Y0109733D01*
X0065543Y0109505D01*
X0065811Y0133029D02*
X0065811Y0136021D01*
X0068748Y0138958D01*
X0071760Y0138958D01*
X0073177Y0140375D01*
X0073177Y0144576D01*
X0072961Y0144793D01*
X0072961Y0147422D01*
X0074772Y0149233D01*
X0102232Y0149233D01*
X0103472Y0147993D01*
X0103472Y0145009D01*
X0103437Y0144974D01*
X0072988Y0144793D02*
X0072961Y0144793D01*
X0118354Y0103525D02*
X0119528Y0104698D01*
X0127933Y0104698D01*
X0165303Y0075533D02*
X0167783Y0073052D01*
X0190638Y0073052D01*
X0194181Y0076596D01*
X0194181Y0081733D01*
X0198587Y0086139D01*
X0198587Y0100021D01*
D29*
X0184791Y0106891D03*
X0161937Y0101930D03*
X0146346Y0110080D03*
X0143335Y0106359D03*
X0140323Y0110080D03*
X0143335Y0113978D03*
X0157508Y0116989D03*
X0157862Y0127619D03*
X0169024Y0148170D03*
X0118354Y0103525D03*
X0132350Y0093426D03*
X0123138Y0079253D03*
X0082921Y0089352D03*
X0079378Y0109017D03*
X0079555Y0116281D03*
X0077075Y0125848D03*
X0058472Y0144804D03*
X0041642Y0137895D03*
X0057055Y0076241D03*
D30*
X0007200Y0068552D02*
X0007200Y0151766D01*
X0220335Y0151766D01*
X0220335Y0068552D01*
X0079317Y0068552D01*
X0079562Y0069143D01*
X0079562Y0069160D01*
X0080609Y0069160D01*
X0081546Y0069548D01*
X0082263Y0070266D01*
X0083293Y0071296D01*
X0083681Y0072233D01*
X0083681Y0075307D01*
X0083293Y0076244D01*
X0082576Y0076962D01*
X0081546Y0077991D01*
X0080609Y0078380D01*
X0076505Y0078380D01*
X0075568Y0077991D01*
X0074932Y0077356D01*
X0074296Y0077991D01*
X0073359Y0078380D01*
X0070284Y0078380D01*
X0069885Y0078214D01*
X0069347Y0077991D01*
X0069320Y0077965D01*
X0068711Y0077356D01*
X0068075Y0077991D01*
X0067138Y0078380D01*
X0062004Y0078380D01*
X0061067Y0077991D01*
X0060350Y0077274D01*
X0059961Y0076337D01*
X0059961Y0075322D01*
X0060350Y0074385D01*
X0061067Y0073668D01*
X0062004Y0073280D01*
X0062021Y0073280D01*
X0062021Y0069143D01*
X0062266Y0068552D01*
X0007200Y0068552D01*
X0007200Y0068849D02*
X0013380Y0068849D01*
X0013751Y0068695D02*
X0010811Y0069913D01*
X0008561Y0072163D01*
X0007343Y0075103D01*
X0007343Y0078285D01*
X0008561Y0081225D01*
X0010811Y0083476D01*
X0013751Y0084693D01*
X0016934Y0084693D01*
X0019874Y0083476D01*
X0022124Y0081225D01*
X0023342Y0078285D01*
X0023342Y0075103D01*
X0022124Y0072163D01*
X0019874Y0069913D01*
X0016934Y0068695D01*
X0013751Y0068695D01*
X0017305Y0068849D02*
X0062143Y0068849D01*
X0062021Y0069847D02*
X0019715Y0069847D01*
X0020807Y0070846D02*
X0062021Y0070846D01*
X0062021Y0071844D02*
X0040017Y0071844D01*
X0040189Y0071915D02*
X0040189Y0071915D01*
X0038117Y0071057D01*
X0035875Y0071057D01*
X0033803Y0071915D01*
X0033803Y0071915D01*
X0032217Y0073501D01*
X0032217Y0073501D01*
X0031359Y0075573D01*
X0031359Y0077815D01*
X0032217Y0079887D01*
X0032217Y0079887D01*
X0033803Y0081473D01*
X0033803Y0081473D01*
X0035875Y0082331D01*
X0038117Y0082331D01*
X0040189Y0081473D01*
X0040189Y0081473D01*
X0041775Y0079887D01*
X0041775Y0079887D01*
X0042633Y0077815D01*
X0042633Y0077228D01*
X0042633Y0075573D01*
X0041775Y0073501D01*
X0041775Y0073501D01*
X0040189Y0071915D01*
X0041117Y0072843D02*
X0062021Y0072843D01*
X0060894Y0073841D02*
X0041916Y0073841D01*
X0042329Y0074840D02*
X0060161Y0074840D01*
X0059961Y0075838D02*
X0042633Y0075838D01*
X0042633Y0076837D02*
X0060168Y0076837D01*
X0060911Y0077835D02*
X0042625Y0077835D01*
X0042633Y0077815D02*
X0042633Y0077815D01*
X0042211Y0078834D02*
X0119838Y0078834D01*
X0119838Y0078597D02*
X0120340Y0077384D01*
X0121268Y0076456D01*
X0122234Y0076056D01*
X0129113Y0069177D01*
X0130179Y0068735D01*
X0161982Y0068735D01*
X0163048Y0069177D01*
X0163864Y0069992D01*
X0165586Y0071714D01*
X0165664Y0071636D01*
X0166367Y0070933D01*
X0167286Y0070552D01*
X0191135Y0070552D01*
X0192054Y0070933D01*
X0195597Y0074476D01*
X0196300Y0075180D01*
X0196681Y0076098D01*
X0196681Y0080698D01*
X0200003Y0084020D01*
X0200706Y0084723D01*
X0201087Y0085642D01*
X0201087Y0096475D01*
X0201468Y0096856D01*
X0201468Y0103186D01*
X0200472Y0104182D01*
X0196701Y0104182D01*
X0195706Y0103186D01*
X0195706Y0096856D01*
X0196087Y0096475D01*
X0196087Y0095714D01*
X0194937Y0095714D01*
X0194937Y0091844D01*
X0194756Y0091844D01*
X0194756Y0095714D01*
X0193468Y0095714D01*
X0193086Y0095612D01*
X0192744Y0095414D01*
X0192465Y0095135D01*
X0192268Y0094793D01*
X0192165Y0094411D01*
X0192165Y0091844D01*
X0194756Y0091844D01*
X0194756Y0091663D01*
X0192165Y0091663D01*
X0192165Y0089095D01*
X0192268Y0088714D01*
X0192465Y0088372D01*
X0192744Y0088092D01*
X0193086Y0087895D01*
X0193468Y0087793D01*
X0194756Y0087793D01*
X0194756Y0091663D01*
X0194937Y0091663D01*
X0194937Y0087793D01*
X0196087Y0087793D01*
X0196087Y0087175D01*
X0192062Y0083150D01*
X0191681Y0082231D01*
X0191681Y0077631D01*
X0189602Y0075552D01*
X0175081Y0075552D01*
X0175653Y0076124D01*
X0175653Y0081863D01*
X0174657Y0082859D01*
X0174540Y0082859D01*
X0174540Y0086829D01*
X0175011Y0086829D01*
X0176007Y0087825D01*
X0176007Y0091595D01*
X0175011Y0092591D01*
X0169469Y0092591D01*
X0168473Y0091595D01*
X0168473Y0087825D01*
X0169469Y0086829D01*
X0169940Y0086829D01*
X0169940Y0082859D01*
X0169312Y0082859D01*
X0168638Y0082185D01*
X0167964Y0082859D01*
X0162619Y0082859D01*
X0161623Y0081863D01*
X0161623Y0076124D01*
X0161708Y0076039D01*
X0160204Y0074535D01*
X0145300Y0074535D01*
X0148507Y0075863D01*
X0151095Y0078451D01*
X0152495Y0081833D01*
X0152495Y0083670D01*
X0160227Y0083670D01*
X0160808Y0083089D01*
X0166350Y0083089D01*
X0167346Y0084084D01*
X0167346Y0087855D01*
X0166350Y0088851D01*
X0160808Y0088851D01*
X0160227Y0088270D01*
X0151345Y0088270D01*
X0151095Y0088874D01*
X0148507Y0091462D01*
X0147013Y0092081D01*
X0151873Y0092081D01*
X0152547Y0092755D01*
X0153221Y0092081D01*
X0158763Y0092081D01*
X0159759Y0093077D01*
X0159759Y0098737D01*
X0159631Y0098865D01*
X0159631Y0099570D01*
X0160068Y0099133D01*
X0161281Y0098630D01*
X0162593Y0098630D01*
X0163806Y0099133D01*
X0164735Y0100061D01*
X0165237Y0101274D01*
X0165237Y0102087D01*
X0167491Y0101153D01*
X0167491Y0100615D01*
X0163207Y0096331D01*
X0160808Y0096331D01*
X0159812Y0095335D01*
X0159812Y0091565D01*
X0160808Y0090569D01*
X0166350Y0090569D01*
X0167346Y0091565D01*
X0167346Y0093964D01*
X0172091Y0098710D01*
X0172091Y0101153D01*
X0175003Y0102359D01*
X0177591Y0104947D01*
X0178837Y0107957D01*
X0179898Y0107957D01*
X0181245Y0109304D01*
X0183972Y0112032D01*
X0188268Y0112032D01*
X0192441Y0107859D01*
X0207918Y0107859D01*
X0207918Y0106262D01*
X0208629Y0104546D01*
X0209942Y0103232D01*
X0211658Y0102522D01*
X0213515Y0102522D01*
X0215231Y0103232D01*
X0216544Y0104546D01*
X0217255Y0106262D01*
X0217255Y0114056D01*
X0216544Y0115772D01*
X0215231Y0117085D01*
X0213515Y0117796D01*
X0211658Y0117796D01*
X0209942Y0117085D01*
X0208629Y0115772D01*
X0207918Y0114056D01*
X0207918Y0112459D01*
X0194346Y0112459D01*
X0191520Y0115285D01*
X0190173Y0116632D01*
X0182067Y0116632D01*
X0178532Y0113097D01*
X0177591Y0115370D01*
X0175003Y0117958D01*
X0171621Y0119359D01*
X0167961Y0119359D01*
X0164580Y0117958D01*
X0161992Y0115370D01*
X0161587Y0114392D01*
X0159577Y0114392D01*
X0160305Y0115120D01*
X0160808Y0116333D01*
X0160808Y0117037D01*
X0167988Y0124217D01*
X0180917Y0124217D01*
X0182265Y0125564D01*
X0184616Y0127915D01*
X0189929Y0127915D01*
X0191644Y0128626D01*
X0192958Y0129939D01*
X0193668Y0131655D01*
X0193668Y0133513D01*
X0192958Y0135228D01*
X0191644Y0136542D01*
X0189929Y0137252D01*
X0183764Y0137252D01*
X0184427Y0137915D01*
X0189929Y0137915D01*
X0191644Y0138626D01*
X0192958Y0139939D01*
X0193668Y0141655D01*
X0193668Y0143513D01*
X0192958Y0145228D01*
X0191644Y0146542D01*
X0189929Y0147252D01*
X0182134Y0147252D01*
X0180418Y0146542D01*
X0179105Y0145228D01*
X0178394Y0143513D01*
X0178394Y0141655D01*
X0178412Y0141612D01*
X0177106Y0141612D01*
X0174818Y0139324D01*
X0174818Y0142609D01*
X0173822Y0143605D01*
X0171324Y0143605D01*
X0171324Y0145804D01*
X0171821Y0146301D01*
X0172324Y0147514D01*
X0172324Y0148827D01*
X0171821Y0150040D01*
X0170893Y0150968D01*
X0169680Y0151470D01*
X0168367Y0151470D01*
X0167154Y0150968D01*
X0166657Y0150470D01*
X0159980Y0150470D01*
X0157983Y0148474D01*
X0157983Y0147000D01*
X0157414Y0147000D01*
X0156418Y0146005D01*
X0156418Y0140659D01*
X0157092Y0139985D01*
X0156418Y0139312D01*
X0156418Y0138939D01*
X0152307Y0138939D01*
X0151095Y0141866D01*
X0148507Y0144454D01*
X0145125Y0145855D01*
X0141465Y0145855D01*
X0138084Y0144454D01*
X0135496Y0141866D01*
X0134095Y0138485D01*
X0134095Y0134825D01*
X0135496Y0131443D01*
X0138084Y0128855D01*
X0141465Y0127455D01*
X0145125Y0127455D01*
X0148037Y0128661D01*
X0148720Y0127978D01*
X0148720Y0118319D01*
X0148642Y0118319D01*
X0147852Y0117529D01*
X0143842Y0117529D01*
X0143842Y0110623D01*
X0142843Y0110623D01*
X0142843Y0117529D01*
X0138833Y0117529D01*
X0138043Y0118319D01*
X0137965Y0118319D01*
X0137965Y0120169D01*
X0138960Y0121163D01*
X0138960Y0126902D01*
X0137964Y0127898D01*
X0137485Y0127898D01*
X0137485Y0128572D01*
X0136138Y0129919D01*
X0118783Y0147274D01*
X0106691Y0147274D01*
X0105972Y0147992D01*
X0105972Y0148491D01*
X0105592Y0149409D01*
X0104352Y0150650D01*
X0103648Y0151353D01*
X0102730Y0151733D01*
X0074274Y0151733D01*
X0073356Y0151353D01*
X0071544Y0149542D01*
X0070841Y0148839D01*
X0070750Y0148619D01*
X0070190Y0148619D01*
X0069516Y0147945D01*
X0068842Y0148619D01*
X0063300Y0148619D01*
X0062774Y0148093D01*
X0059157Y0148093D01*
X0059129Y0148104D01*
X0057816Y0148104D01*
X0057788Y0148093D01*
X0041328Y0148093D01*
X0040115Y0147590D01*
X0039187Y0146662D01*
X0039187Y0146662D01*
X0034570Y0142045D01*
X0034759Y0142502D01*
X0034759Y0144745D01*
X0033901Y0146816D01*
X0033901Y0146816D01*
X0032315Y0148402D01*
X0030243Y0149260D01*
X0028001Y0149260D01*
X0025929Y0148402D01*
X0025929Y0148402D01*
X0024343Y0146816D01*
X0023485Y0144745D01*
X0023485Y0142502D01*
X0024343Y0140430D01*
X0025929Y0138844D01*
X0028001Y0137986D01*
X0030243Y0137986D01*
X0030700Y0138176D01*
X0022899Y0130374D01*
X0022397Y0129162D01*
X0022397Y0112258D01*
X0022899Y0111045D01*
X0026839Y0107105D01*
X0028052Y0106603D01*
X0031852Y0106603D01*
X0032874Y0105581D01*
X0033893Y0105159D01*
X0032874Y0104737D01*
X0031355Y0103218D01*
X0030533Y0101233D01*
X0030533Y0099085D01*
X0031355Y0097100D01*
X0032874Y0095581D01*
X0033495Y0095324D01*
X0033495Y0094245D01*
X0034843Y0092898D01*
X0037146Y0090595D01*
X0050390Y0090595D01*
X0051737Y0091942D01*
X0053047Y0093252D01*
X0102122Y0093252D01*
X0103469Y0094600D01*
X0116295Y0107426D01*
X0124107Y0107426D01*
X0124107Y0107198D01*
X0119030Y0107198D01*
X0118129Y0106825D01*
X0117698Y0106825D01*
X0116485Y0106322D01*
X0115557Y0105394D01*
X0115054Y0104181D01*
X0115054Y0102868D01*
X0115557Y0101656D01*
X0116485Y0100727D01*
X0117698Y0100225D01*
X0119011Y0100225D01*
X0120224Y0100727D01*
X0121152Y0101656D01*
X0121377Y0102198D01*
X0124107Y0102198D01*
X0124107Y0101927D01*
X0124932Y0101102D01*
X0124886Y0101076D01*
X0124607Y0100796D01*
X0124409Y0100454D01*
X0124307Y0100073D01*
X0124307Y0098308D01*
X0127433Y0098308D01*
X0127433Y0097308D01*
X0128433Y0097308D01*
X0128433Y0094241D01*
X0130257Y0094241D01*
X0130638Y0094344D01*
X0130980Y0094541D01*
X0131259Y0094820D01*
X0131457Y0095162D01*
X0131559Y0095544D01*
X0131559Y0097308D01*
X0128433Y0097308D01*
X0128433Y0098308D01*
X0131559Y0098308D01*
X0131559Y0100073D01*
X0131457Y0100454D01*
X0131259Y0100796D01*
X0130980Y0101076D01*
X0130934Y0101102D01*
X0131759Y0101927D01*
X0131759Y0103047D01*
X0132492Y0103780D01*
X0132492Y0103430D01*
X0132594Y0103048D01*
X0132792Y0102706D01*
X0133071Y0102427D01*
X0133413Y0102229D01*
X0133795Y0102127D01*
X0135665Y0102127D01*
X0135665Y0103886D01*
X0135665Y0103886D01*
X0135665Y0102127D01*
X0137536Y0102127D01*
X0137918Y0102229D01*
X0138260Y0102427D01*
X0138539Y0102706D01*
X0138546Y0102718D01*
X0142843Y0102718D01*
X0142843Y0109623D01*
X0143842Y0109623D01*
X0143842Y0102718D01*
X0144236Y0102718D01*
X0133169Y0091652D01*
X0085288Y0091652D01*
X0084791Y0092149D01*
X0083578Y0092652D01*
X0082265Y0092652D01*
X0081052Y0092149D01*
X0080124Y0091221D01*
X0079621Y0090008D01*
X0079621Y0088695D01*
X0080124Y0087482D01*
X0081052Y0086554D01*
X0082265Y0086052D01*
X0083578Y0086052D01*
X0084791Y0086554D01*
X0085288Y0087052D01*
X0134741Y0087052D01*
X0134095Y0085493D01*
X0134095Y0081833D01*
X0135496Y0078451D01*
X0138084Y0075863D01*
X0141290Y0074535D01*
X0131957Y0074535D01*
X0126335Y0080157D01*
X0125935Y0081122D01*
X0125007Y0082051D01*
X0123794Y0082553D01*
X0122481Y0082553D01*
X0121268Y0082051D01*
X0120340Y0081122D01*
X0119838Y0079910D01*
X0119838Y0078597D01*
X0120153Y0077835D02*
X0081702Y0077835D01*
X0082701Y0076837D02*
X0120887Y0076837D01*
X0122452Y0075838D02*
X0083461Y0075838D01*
X0083681Y0074840D02*
X0123450Y0074840D01*
X0124449Y0073841D02*
X0083681Y0073841D01*
X0083681Y0072843D02*
X0125447Y0072843D01*
X0126446Y0071844D02*
X0083520Y0071844D01*
X0082843Y0070846D02*
X0127444Y0070846D01*
X0128443Y0069847D02*
X0081845Y0069847D01*
X0079440Y0068849D02*
X0129905Y0068849D01*
X0131652Y0074840D02*
X0140555Y0074840D01*
X0138144Y0075838D02*
X0130654Y0075838D01*
X0129655Y0076837D02*
X0137110Y0076837D01*
X0136112Y0077835D02*
X0128657Y0077835D01*
X0127658Y0078834D02*
X0135337Y0078834D01*
X0134924Y0079832D02*
X0126660Y0079832D01*
X0126056Y0080831D02*
X0134510Y0080831D01*
X0134097Y0081829D02*
X0125229Y0081829D01*
X0121047Y0081829D02*
X0039329Y0081829D01*
X0040831Y0080831D02*
X0120219Y0080831D01*
X0119838Y0079832D02*
X0041798Y0079832D01*
X0034663Y0081829D02*
X0021520Y0081829D01*
X0022287Y0080831D02*
X0033161Y0080831D01*
X0032194Y0079832D02*
X0022701Y0079832D01*
X0023115Y0078834D02*
X0031781Y0078834D01*
X0031367Y0077835D02*
X0023342Y0077835D01*
X0023342Y0076837D02*
X0031359Y0076837D01*
X0031359Y0075838D02*
X0023342Y0075838D01*
X0023233Y0074840D02*
X0031663Y0074840D01*
X0032076Y0073841D02*
X0022819Y0073841D01*
X0022405Y0072843D02*
X0032876Y0072843D01*
X0033975Y0071844D02*
X0021805Y0071844D01*
X0010970Y0069847D02*
X0007200Y0069847D01*
X0007200Y0070846D02*
X0009878Y0070846D01*
X0008880Y0071844D02*
X0007200Y0071844D01*
X0007200Y0072843D02*
X0008280Y0072843D01*
X0007866Y0073841D02*
X0007200Y0073841D01*
X0007200Y0074840D02*
X0007452Y0074840D01*
X0007343Y0075838D02*
X0007200Y0075838D01*
X0007200Y0076837D02*
X0007343Y0076837D01*
X0007343Y0077835D02*
X0007200Y0077835D01*
X0007200Y0078834D02*
X0007570Y0078834D01*
X0007200Y0079832D02*
X0007984Y0079832D01*
X0008398Y0080831D02*
X0007200Y0080831D01*
X0007200Y0081829D02*
X0009165Y0081829D01*
X0010164Y0082828D02*
X0007200Y0082828D01*
X0007200Y0083826D02*
X0011658Y0083826D01*
X0013869Y0087820D02*
X0007200Y0087820D01*
X0007200Y0086822D02*
X0080784Y0086822D01*
X0079984Y0087820D02*
X0016028Y0087820D01*
X0015877Y0087758D02*
X0017593Y0088469D01*
X0018907Y0089782D01*
X0019617Y0091498D01*
X0019617Y0099292D01*
X0018907Y0101008D01*
X0017593Y0102321D01*
X0015877Y0103032D01*
X0014020Y0103032D01*
X0012304Y0102321D01*
X0010991Y0101008D01*
X0010280Y0099292D01*
X0010280Y0091498D01*
X0010991Y0089782D01*
X0012304Y0088469D01*
X0014020Y0087758D01*
X0015877Y0087758D01*
X0017944Y0088819D02*
X0079621Y0088819D01*
X0079621Y0089817D02*
X0018921Y0089817D01*
X0019335Y0090816D02*
X0036925Y0090816D01*
X0035926Y0091814D02*
X0019617Y0091814D01*
X0019617Y0092813D02*
X0034928Y0092813D01*
X0033929Y0093811D02*
X0019617Y0093811D01*
X0019617Y0094810D02*
X0033495Y0094810D01*
X0032647Y0095808D02*
X0019617Y0095808D01*
X0019617Y0096807D02*
X0031648Y0096807D01*
X0031063Y0097805D02*
X0019617Y0097805D01*
X0019617Y0098804D02*
X0030649Y0098804D01*
X0030533Y0099802D02*
X0019406Y0099802D01*
X0018992Y0100801D02*
X0030533Y0100801D01*
X0030768Y0101799D02*
X0018115Y0101799D01*
X0016442Y0102798D02*
X0031181Y0102798D01*
X0031934Y0103797D02*
X0007200Y0103797D01*
X0007200Y0104795D02*
X0033015Y0104795D01*
X0032661Y0105794D02*
X0007200Y0105794D01*
X0007200Y0106792D02*
X0027595Y0106792D01*
X0026154Y0107791D02*
X0007200Y0107791D01*
X0007200Y0108789D02*
X0025155Y0108789D01*
X0024157Y0109788D02*
X0007200Y0109788D01*
X0007200Y0110786D02*
X0023158Y0110786D01*
X0022593Y0111785D02*
X0007200Y0111785D01*
X0007200Y0112783D02*
X0022397Y0112783D01*
X0022397Y0113782D02*
X0007200Y0113782D01*
X0007200Y0114780D02*
X0022397Y0114780D01*
X0022397Y0115779D02*
X0007200Y0115779D01*
X0007200Y0116777D02*
X0022397Y0116777D01*
X0022397Y0117776D02*
X0017061Y0117776D01*
X0017593Y0117996D02*
X0018907Y0119309D01*
X0019617Y0121025D01*
X0019617Y0128820D01*
X0018907Y0130535D01*
X0017593Y0131849D01*
X0015877Y0132559D01*
X0014020Y0132559D01*
X0012304Y0131849D01*
X0010991Y0130535D01*
X0010280Y0128820D01*
X0010280Y0121025D01*
X0010991Y0119309D01*
X0012304Y0117996D01*
X0014020Y0117285D01*
X0015877Y0117285D01*
X0017593Y0117996D01*
X0018371Y0118774D02*
X0022397Y0118774D01*
X0022397Y0119773D02*
X0019098Y0119773D01*
X0019512Y0120771D02*
X0022397Y0120771D01*
X0022397Y0121770D02*
X0019617Y0121770D01*
X0019617Y0122768D02*
X0022397Y0122768D01*
X0022397Y0123767D02*
X0019617Y0123767D01*
X0019617Y0124765D02*
X0022397Y0124765D01*
X0022397Y0125764D02*
X0019617Y0125764D01*
X0019617Y0126762D02*
X0022397Y0126762D01*
X0022397Y0127761D02*
X0019617Y0127761D01*
X0019617Y0128759D02*
X0022397Y0128759D01*
X0022644Y0129758D02*
X0019229Y0129758D01*
X0018686Y0130756D02*
X0023281Y0130756D01*
X0024280Y0131755D02*
X0017687Y0131755D01*
X0016934Y0135624D02*
X0013751Y0135624D01*
X0010811Y0136842D01*
X0008561Y0139092D01*
X0007343Y0142032D01*
X0007343Y0145214D01*
X0008561Y0148154D01*
X0010811Y0150405D01*
X0013751Y0151622D01*
X0016934Y0151622D01*
X0019874Y0150405D01*
X0022124Y0148154D01*
X0023342Y0145214D01*
X0023342Y0142032D01*
X0022124Y0139092D01*
X0019874Y0136842D01*
X0016934Y0135624D01*
X0017235Y0135749D02*
X0028274Y0135749D01*
X0029272Y0136747D02*
X0019646Y0136747D01*
X0020778Y0137746D02*
X0030271Y0137746D01*
X0026170Y0138744D02*
X0021776Y0138744D01*
X0022394Y0139743D02*
X0025030Y0139743D01*
X0024343Y0140430D02*
X0024343Y0140430D01*
X0024214Y0140741D02*
X0022807Y0140741D01*
X0023221Y0141740D02*
X0023801Y0141740D01*
X0023485Y0142738D02*
X0023342Y0142738D01*
X0023342Y0143737D02*
X0023485Y0143737D01*
X0023485Y0144735D02*
X0023342Y0144735D01*
X0023127Y0145734D02*
X0023895Y0145734D01*
X0024309Y0146733D02*
X0022713Y0146733D01*
X0022299Y0147731D02*
X0025258Y0147731D01*
X0026720Y0148730D02*
X0021549Y0148730D01*
X0020550Y0149728D02*
X0071731Y0149728D01*
X0070796Y0148730D02*
X0031525Y0148730D01*
X0032315Y0148402D02*
X0032315Y0148402D01*
X0032986Y0147731D02*
X0040455Y0147731D01*
X0039257Y0146733D02*
X0033936Y0146733D01*
X0034349Y0145734D02*
X0038259Y0145734D01*
X0037260Y0144735D02*
X0034759Y0144735D01*
X0034759Y0143737D02*
X0036262Y0143737D01*
X0035263Y0142738D02*
X0034759Y0142738D01*
X0039604Y0137746D02*
X0064001Y0137746D01*
X0063692Y0137437D02*
X0063385Y0136697D01*
X0062941Y0136697D01*
X0062573Y0136329D01*
X0042497Y0136329D01*
X0041284Y0135826D01*
X0040356Y0134898D01*
X0033175Y0127717D01*
X0032672Y0126504D01*
X0032672Y0125559D01*
X0031529Y0125559D01*
X0030533Y0124563D01*
X0030533Y0115755D01*
X0031529Y0114759D01*
X0032928Y0114759D01*
X0032874Y0114737D01*
X0031355Y0113218D01*
X0031349Y0113203D01*
X0030076Y0113203D01*
X0028997Y0114281D01*
X0028997Y0127138D01*
X0043351Y0141493D01*
X0062774Y0141493D01*
X0063300Y0140967D01*
X0067221Y0140967D01*
X0064395Y0138140D01*
X0063692Y0137437D01*
X0063406Y0136747D02*
X0038606Y0136747D01*
X0037607Y0135749D02*
X0041207Y0135749D01*
X0040208Y0134750D02*
X0036609Y0134750D01*
X0035610Y0133752D02*
X0039210Y0133752D01*
X0038211Y0132753D02*
X0034612Y0132753D01*
X0033613Y0131755D02*
X0037213Y0131755D01*
X0036214Y0130756D02*
X0032615Y0130756D01*
X0031616Y0129758D02*
X0035216Y0129758D01*
X0034217Y0128759D02*
X0030618Y0128759D01*
X0029619Y0127761D02*
X0033219Y0127761D01*
X0032779Y0126762D02*
X0028997Y0126762D01*
X0028997Y0125764D02*
X0032672Y0125764D01*
X0030735Y0124765D02*
X0028997Y0124765D01*
X0028997Y0123767D02*
X0030533Y0123767D01*
X0030533Y0122768D02*
X0028997Y0122768D01*
X0028997Y0121770D02*
X0030533Y0121770D01*
X0030533Y0120771D02*
X0028997Y0120771D01*
X0028997Y0119773D02*
X0030533Y0119773D01*
X0030533Y0118774D02*
X0028997Y0118774D01*
X0028997Y0117776D02*
X0030533Y0117776D01*
X0030533Y0116777D02*
X0028997Y0116777D01*
X0028997Y0115779D02*
X0030533Y0115779D01*
X0031507Y0114780D02*
X0028997Y0114780D01*
X0029497Y0113782D02*
X0031919Y0113782D01*
X0041333Y0123164D02*
X0041333Y0124563D01*
X0040344Y0125552D01*
X0044520Y0129729D01*
X0062573Y0129729D01*
X0062941Y0129360D01*
X0068681Y0129360D01*
X0069299Y0129979D01*
X0069418Y0129860D01*
X0069760Y0129662D01*
X0070141Y0129560D01*
X0072020Y0129560D01*
X0072020Y0132544D01*
X0072988Y0132544D01*
X0072988Y0129560D01*
X0074867Y0129560D01*
X0075248Y0129662D01*
X0075590Y0129860D01*
X0075870Y0130139D01*
X0076067Y0130481D01*
X0076169Y0130863D01*
X0076169Y0132544D01*
X0072988Y0132544D01*
X0072988Y0133513D01*
X0072020Y0133513D01*
X0072020Y0136458D01*
X0072257Y0136458D01*
X0073176Y0136838D01*
X0073879Y0137542D01*
X0075297Y0138959D01*
X0075677Y0139878D01*
X0075677Y0140967D01*
X0075732Y0140967D01*
X0076728Y0141962D01*
X0076728Y0146733D01*
X0094257Y0146733D01*
X0094257Y0142695D01*
X0095253Y0141699D01*
X0095259Y0141699D01*
X0095259Y0140599D01*
X0094886Y0140599D01*
X0093891Y0139603D01*
X0093891Y0133864D01*
X0094886Y0132868D01*
X0100154Y0132868D01*
X0099862Y0132577D01*
X0080551Y0132577D01*
X0079204Y0131229D01*
X0077122Y0129148D01*
X0076418Y0129148D01*
X0075205Y0128645D01*
X0074277Y0127717D01*
X0073775Y0126504D01*
X0073775Y0125191D01*
X0074277Y0123978D01*
X0074730Y0123526D01*
X0074469Y0123596D01*
X0072705Y0123596D01*
X0072705Y0120470D01*
X0071705Y0120470D01*
X0071705Y0123596D01*
X0069940Y0123596D01*
X0069559Y0123493D01*
X0069217Y0123296D01*
X0068938Y0123017D01*
X0068911Y0122971D01*
X0068086Y0123796D01*
X0062544Y0123796D01*
X0061548Y0122800D01*
X0061548Y0122470D01*
X0050821Y0122470D01*
X0050511Y0123218D01*
X0048992Y0124737D01*
X0047007Y0125559D01*
X0044859Y0125559D01*
X0042874Y0124737D01*
X0041355Y0123218D01*
X0041333Y0123164D01*
X0041333Y0123767D02*
X0041904Y0123767D01*
X0041131Y0124765D02*
X0042943Y0124765D01*
X0041554Y0126762D02*
X0073882Y0126762D01*
X0073775Y0125764D02*
X0040555Y0125764D01*
X0042552Y0127761D02*
X0074321Y0127761D01*
X0075481Y0128759D02*
X0043551Y0128759D01*
X0048923Y0124765D02*
X0073951Y0124765D01*
X0074489Y0123767D02*
X0068115Y0123767D01*
X0071705Y0122768D02*
X0072705Y0122768D01*
X0072705Y0121770D02*
X0071705Y0121770D01*
X0071705Y0120771D02*
X0072705Y0120771D01*
X0072705Y0120470D02*
X0075772Y0120470D01*
X0075772Y0122293D01*
X0075669Y0122675D01*
X0075530Y0122916D01*
X0076418Y0122548D01*
X0077731Y0122548D01*
X0078944Y0123050D01*
X0079872Y0123978D01*
X0080375Y0125191D01*
X0080375Y0125895D01*
X0082457Y0127977D01*
X0101768Y0127977D01*
X0105205Y0131414D01*
X0106552Y0132761D01*
X0106552Y0132868D01*
X0106925Y0132868D01*
X0107920Y0133864D01*
X0107920Y0134355D01*
X0113106Y0134355D01*
X0113185Y0134433D01*
X0118386Y0134433D01*
X0125424Y0127396D01*
X0124930Y0126902D01*
X0124930Y0121163D01*
X0125926Y0120167D01*
X0126330Y0120167D01*
X0126330Y0116037D01*
X0127677Y0114689D01*
X0127975Y0114392D01*
X0112150Y0114392D01*
X0099508Y0101750D01*
X0051119Y0101750D01*
X0050511Y0103218D01*
X0048992Y0104737D01*
X0047973Y0105159D01*
X0048992Y0105581D01*
X0050511Y0107100D01*
X0051333Y0109085D01*
X0051333Y0111233D01*
X0050511Y0113218D01*
X0048992Y0114737D01*
X0047973Y0115159D01*
X0048992Y0115581D01*
X0050511Y0117100D01*
X0050664Y0117470D01*
X0061548Y0117470D01*
X0061548Y0117140D01*
X0062544Y0116144D01*
X0062815Y0116144D01*
X0062815Y0113315D01*
X0061875Y0112375D01*
X0061875Y0106636D01*
X0062871Y0105640D01*
X0068216Y0105640D01*
X0068890Y0106314D01*
X0069564Y0105640D01*
X0074909Y0105640D01*
X0075905Y0106636D01*
X0075905Y0107205D01*
X0076557Y0107205D01*
X0076580Y0107148D01*
X0077509Y0106219D01*
X0078722Y0105717D01*
X0080034Y0105717D01*
X0081247Y0106219D01*
X0082176Y0107148D01*
X0082678Y0108361D01*
X0082678Y0109673D01*
X0082176Y0110886D01*
X0081247Y0111815D01*
X0080034Y0112317D01*
X0078722Y0112317D01*
X0077509Y0111815D01*
X0077499Y0111805D01*
X0075905Y0111805D01*
X0075905Y0112375D01*
X0074909Y0113370D01*
X0069564Y0113370D01*
X0068890Y0112697D01*
X0068216Y0113370D01*
X0067815Y0113370D01*
X0067815Y0116144D01*
X0068086Y0116144D01*
X0068911Y0116969D01*
X0068938Y0116923D01*
X0069217Y0116643D01*
X0069559Y0116446D01*
X0069940Y0116344D01*
X0071705Y0116344D01*
X0071705Y0119470D01*
X0072705Y0119470D01*
X0072705Y0120470D01*
X0072705Y0119773D02*
X0126330Y0119773D01*
X0126330Y0118774D02*
X0075772Y0118774D01*
X0075772Y0119470D02*
X0072705Y0119470D01*
X0072705Y0116344D01*
X0074469Y0116344D01*
X0074851Y0116446D01*
X0075193Y0116643D01*
X0075472Y0116923D01*
X0075669Y0117265D01*
X0075772Y0117646D01*
X0075772Y0119470D01*
X0075772Y0120771D02*
X0125322Y0120771D01*
X0124930Y0121770D02*
X0075772Y0121770D01*
X0075886Y0122768D02*
X0075615Y0122768D01*
X0078264Y0122768D02*
X0124930Y0122768D01*
X0124930Y0123767D02*
X0079661Y0123767D01*
X0080198Y0124765D02*
X0124930Y0124765D01*
X0124930Y0125764D02*
X0080375Y0125764D01*
X0081242Y0126762D02*
X0124930Y0126762D01*
X0125059Y0127761D02*
X0082241Y0127761D01*
X0078731Y0130756D02*
X0076141Y0130756D01*
X0076169Y0131755D02*
X0079729Y0131755D01*
X0077732Y0129758D02*
X0075413Y0129758D01*
X0072988Y0129758D02*
X0072020Y0129758D01*
X0072020Y0130756D02*
X0072988Y0130756D01*
X0072988Y0131755D02*
X0072020Y0131755D01*
X0072988Y0132753D02*
X0100039Y0132753D01*
X0103549Y0129758D02*
X0123062Y0129758D01*
X0124060Y0128759D02*
X0102550Y0128759D01*
X0104547Y0130756D02*
X0122063Y0130756D01*
X0121065Y0131755D02*
X0105546Y0131755D01*
X0106544Y0132753D02*
X0120066Y0132753D01*
X0119068Y0133752D02*
X0107808Y0133752D01*
X0094003Y0133752D02*
X0076169Y0133752D01*
X0076169Y0133513D02*
X0076169Y0135195D01*
X0076067Y0135576D01*
X0075870Y0135918D01*
X0075590Y0136198D01*
X0075248Y0136395D01*
X0074867Y0136497D01*
X0072988Y0136497D01*
X0072988Y0133513D01*
X0076169Y0133513D01*
X0076169Y0134750D02*
X0093891Y0134750D01*
X0093891Y0135749D02*
X0075967Y0135749D01*
X0074083Y0137746D02*
X0093891Y0137746D01*
X0093891Y0138744D02*
X0075082Y0138744D01*
X0075621Y0139743D02*
X0094030Y0139743D01*
X0095259Y0140741D02*
X0075677Y0140741D01*
X0076505Y0141740D02*
X0095211Y0141740D01*
X0094257Y0142738D02*
X0076728Y0142738D01*
X0076728Y0143737D02*
X0094257Y0143737D01*
X0094257Y0144735D02*
X0076728Y0144735D01*
X0076728Y0145734D02*
X0094257Y0145734D01*
X0094257Y0146733D02*
X0076728Y0146733D01*
X0074254Y0151725D02*
X0007200Y0151725D01*
X0007200Y0150727D02*
X0011588Y0150727D01*
X0010135Y0149728D02*
X0007200Y0149728D01*
X0007200Y0148730D02*
X0009136Y0148730D01*
X0008386Y0147731D02*
X0007200Y0147731D01*
X0007200Y0146733D02*
X0007972Y0146733D01*
X0007559Y0145734D02*
X0007200Y0145734D01*
X0007200Y0144735D02*
X0007343Y0144735D01*
X0007343Y0143737D02*
X0007200Y0143737D01*
X0007200Y0142738D02*
X0007343Y0142738D01*
X0007464Y0141740D02*
X0007200Y0141740D01*
X0007200Y0140741D02*
X0007878Y0140741D01*
X0008291Y0139743D02*
X0007200Y0139743D01*
X0007200Y0138744D02*
X0008909Y0138744D01*
X0009907Y0137746D02*
X0007200Y0137746D01*
X0007200Y0136747D02*
X0011039Y0136747D01*
X0013450Y0135749D02*
X0007200Y0135749D01*
X0007200Y0134750D02*
X0027275Y0134750D01*
X0026277Y0133752D02*
X0007200Y0133752D01*
X0007200Y0132753D02*
X0025278Y0132753D01*
X0025929Y0138844D02*
X0025929Y0138844D01*
X0012210Y0131755D02*
X0007200Y0131755D01*
X0007200Y0130756D02*
X0011212Y0130756D01*
X0010669Y0129758D02*
X0007200Y0129758D01*
X0007200Y0128759D02*
X0010280Y0128759D01*
X0010280Y0127761D02*
X0007200Y0127761D01*
X0007200Y0126762D02*
X0010280Y0126762D01*
X0010280Y0125764D02*
X0007200Y0125764D01*
X0007200Y0124765D02*
X0010280Y0124765D01*
X0010280Y0123767D02*
X0007200Y0123767D01*
X0007200Y0122768D02*
X0010280Y0122768D01*
X0010280Y0121770D02*
X0007200Y0121770D01*
X0007200Y0120771D02*
X0010386Y0120771D01*
X0010799Y0119773D02*
X0007200Y0119773D01*
X0007200Y0118774D02*
X0011526Y0118774D01*
X0012837Y0117776D02*
X0007200Y0117776D01*
X0007200Y0102798D02*
X0013456Y0102798D01*
X0011783Y0101799D02*
X0007200Y0101799D01*
X0007200Y0100801D02*
X0010905Y0100801D01*
X0010492Y0099802D02*
X0007200Y0099802D01*
X0007200Y0098804D02*
X0010280Y0098804D01*
X0010280Y0097805D02*
X0007200Y0097805D01*
X0007200Y0096807D02*
X0010280Y0096807D01*
X0010280Y0095808D02*
X0007200Y0095808D01*
X0007200Y0094810D02*
X0010280Y0094810D01*
X0010280Y0093811D02*
X0007200Y0093811D01*
X0007200Y0092813D02*
X0010280Y0092813D01*
X0010280Y0091814D02*
X0007200Y0091814D01*
X0007200Y0090816D02*
X0010563Y0090816D01*
X0010976Y0089817D02*
X0007200Y0089817D01*
X0007200Y0088819D02*
X0011954Y0088819D01*
X0007200Y0085823D02*
X0134232Y0085823D01*
X0134095Y0084825D02*
X0007200Y0084825D01*
X0019027Y0083826D02*
X0134095Y0083826D01*
X0134095Y0082828D02*
X0020521Y0082828D01*
X0050611Y0090816D02*
X0079956Y0090816D01*
X0080717Y0091814D02*
X0051609Y0091814D01*
X0052608Y0092813D02*
X0134331Y0092813D01*
X0135329Y0093811D02*
X0102681Y0093811D01*
X0103680Y0094810D02*
X0124617Y0094810D01*
X0124607Y0094820D02*
X0124886Y0094541D01*
X0125228Y0094344D01*
X0125610Y0094241D01*
X0127433Y0094241D01*
X0127433Y0097308D01*
X0124307Y0097308D01*
X0124307Y0095544D01*
X0124409Y0095162D01*
X0124607Y0094820D01*
X0124307Y0095808D02*
X0104678Y0095808D01*
X0105677Y0096807D02*
X0124307Y0096807D01*
X0124307Y0098804D02*
X0107674Y0098804D01*
X0108672Y0099802D02*
X0124307Y0099802D01*
X0124612Y0100801D02*
X0120297Y0100801D01*
X0121212Y0101799D02*
X0124235Y0101799D01*
X0127433Y0100931D02*
X0127433Y0098308D01*
X0128433Y0098308D01*
X0128433Y0100931D01*
X0127433Y0100931D01*
X0127433Y0100801D02*
X0128433Y0100801D01*
X0128433Y0099802D02*
X0127433Y0099802D01*
X0127433Y0098804D02*
X0128433Y0098804D01*
X0128433Y0097805D02*
X0139323Y0097805D01*
X0138325Y0096807D02*
X0131559Y0096807D01*
X0131559Y0095808D02*
X0137326Y0095808D01*
X0136328Y0094810D02*
X0131249Y0094810D01*
X0128433Y0094810D02*
X0127433Y0094810D01*
X0127433Y0095808D02*
X0128433Y0095808D01*
X0128433Y0096807D02*
X0127433Y0096807D01*
X0127433Y0097805D02*
X0106675Y0097805D01*
X0109671Y0100801D02*
X0116411Y0100801D01*
X0115497Y0101799D02*
X0110669Y0101799D01*
X0111668Y0102798D02*
X0115083Y0102798D01*
X0115054Y0103797D02*
X0112666Y0103797D01*
X0113665Y0104795D02*
X0115309Y0104795D01*
X0114663Y0105794D02*
X0115956Y0105794D01*
X0115662Y0106792D02*
X0117619Y0106792D01*
X0110541Y0112783D02*
X0075496Y0112783D01*
X0075326Y0116777D02*
X0126330Y0116777D01*
X0126330Y0117776D02*
X0075772Y0117776D01*
X0072705Y0117776D02*
X0071705Y0117776D01*
X0071705Y0118774D02*
X0072705Y0118774D01*
X0072705Y0116777D02*
X0071705Y0116777D01*
X0069083Y0116777D02*
X0068719Y0116777D01*
X0067815Y0115779D02*
X0126588Y0115779D01*
X0127586Y0114780D02*
X0067815Y0114780D01*
X0067815Y0113782D02*
X0111540Y0113782D01*
X0109543Y0111785D02*
X0081277Y0111785D01*
X0082217Y0110786D02*
X0108544Y0110786D01*
X0107546Y0109788D02*
X0082631Y0109788D01*
X0082678Y0108789D02*
X0106547Y0108789D01*
X0105548Y0107791D02*
X0082442Y0107791D01*
X0081820Y0106792D02*
X0104550Y0106792D01*
X0103551Y0105794D02*
X0080219Y0105794D01*
X0078537Y0105794D02*
X0075063Y0105794D01*
X0075905Y0106792D02*
X0076936Y0106792D01*
X0069410Y0105794D02*
X0068370Y0105794D01*
X0062717Y0105794D02*
X0049205Y0105794D01*
X0048851Y0104795D02*
X0102553Y0104795D01*
X0101554Y0103797D02*
X0049932Y0103797D01*
X0050685Y0102798D02*
X0100556Y0102798D01*
X0099557Y0101799D02*
X0051098Y0101799D01*
X0050203Y0106792D02*
X0061875Y0106792D01*
X0061875Y0107791D02*
X0050797Y0107791D01*
X0051211Y0108789D02*
X0061875Y0108789D01*
X0061875Y0109788D02*
X0051333Y0109788D01*
X0051333Y0110786D02*
X0061875Y0110786D01*
X0061875Y0111785D02*
X0051105Y0111785D01*
X0050691Y0112783D02*
X0062283Y0112783D01*
X0062815Y0113782D02*
X0049947Y0113782D01*
X0048887Y0114780D02*
X0062815Y0114780D01*
X0062815Y0115779D02*
X0049190Y0115779D01*
X0050188Y0116777D02*
X0061910Y0116777D01*
X0068803Y0112783D02*
X0068976Y0112783D01*
X0061548Y0122768D02*
X0050697Y0122768D01*
X0049962Y0123767D02*
X0062515Y0123767D01*
X0069078Y0129758D02*
X0069594Y0129758D01*
X0072020Y0133752D02*
X0072988Y0133752D01*
X0072988Y0134750D02*
X0072020Y0134750D01*
X0072020Y0135749D02*
X0072988Y0135749D01*
X0072956Y0136747D02*
X0093891Y0136747D01*
X0106233Y0147731D02*
X0157983Y0147731D01*
X0158239Y0148730D02*
X0105873Y0148730D01*
X0105273Y0149728D02*
X0159238Y0149728D01*
X0157146Y0146733D02*
X0119325Y0146733D01*
X0120323Y0145734D02*
X0141174Y0145734D01*
X0138763Y0144735D02*
X0121322Y0144735D01*
X0122320Y0143737D02*
X0137367Y0143737D01*
X0136368Y0142738D02*
X0123319Y0142738D01*
X0124317Y0141740D02*
X0135444Y0141740D01*
X0135030Y0140741D02*
X0125316Y0140741D01*
X0126314Y0139743D02*
X0134616Y0139743D01*
X0134203Y0138744D02*
X0127313Y0138744D01*
X0128311Y0137746D02*
X0134095Y0137746D01*
X0134095Y0136747D02*
X0129310Y0136747D01*
X0130308Y0135749D02*
X0134095Y0135749D01*
X0134126Y0134750D02*
X0131307Y0134750D01*
X0132305Y0133752D02*
X0134540Y0133752D01*
X0134953Y0132753D02*
X0133304Y0132753D01*
X0134302Y0131755D02*
X0135367Y0131755D01*
X0135301Y0130756D02*
X0136183Y0130756D01*
X0136299Y0129758D02*
X0137181Y0129758D01*
X0137298Y0128759D02*
X0138316Y0128759D01*
X0138101Y0127761D02*
X0140726Y0127761D01*
X0138960Y0126762D02*
X0148720Y0126762D01*
X0148720Y0125764D02*
X0138960Y0125764D01*
X0138960Y0124765D02*
X0148720Y0124765D01*
X0148720Y0123767D02*
X0138960Y0123767D01*
X0138960Y0122768D02*
X0148720Y0122768D01*
X0148720Y0121770D02*
X0138960Y0121770D01*
X0138568Y0120771D02*
X0148720Y0120771D01*
X0148720Y0119773D02*
X0137965Y0119773D01*
X0137965Y0118774D02*
X0148720Y0118774D01*
X0148099Y0117776D02*
X0138586Y0117776D01*
X0142843Y0116777D02*
X0143842Y0116777D01*
X0143842Y0115779D02*
X0142843Y0115779D01*
X0142843Y0114780D02*
X0143842Y0114780D01*
X0143842Y0113782D02*
X0142843Y0113782D01*
X0142843Y0112783D02*
X0143842Y0112783D01*
X0143842Y0111785D02*
X0142843Y0111785D01*
X0142843Y0110786D02*
X0143842Y0110786D01*
X0143843Y0110623D02*
X0147646Y0110623D01*
X0147646Y0109623D01*
X0143843Y0109623D01*
X0143843Y0110623D01*
X0143843Y0109788D02*
X0147646Y0109788D01*
X0143842Y0108789D02*
X0142843Y0108789D01*
X0142842Y0109623D02*
X0139039Y0109623D01*
X0139039Y0110623D01*
X0142842Y0110623D01*
X0142842Y0109623D01*
X0142842Y0109788D02*
X0139039Y0109788D01*
X0142843Y0107791D02*
X0143842Y0107791D01*
X0143842Y0106792D02*
X0142843Y0106792D01*
X0142843Y0105794D02*
X0143842Y0105794D01*
X0143842Y0104795D02*
X0142843Y0104795D01*
X0142843Y0103797D02*
X0143842Y0103797D01*
X0143842Y0102798D02*
X0142843Y0102798D01*
X0143317Y0101799D02*
X0131632Y0101799D01*
X0131759Y0102798D02*
X0132739Y0102798D01*
X0131255Y0100801D02*
X0142319Y0100801D01*
X0141320Y0099802D02*
X0131559Y0099802D01*
X0131559Y0098804D02*
X0140322Y0098804D01*
X0135665Y0102798D02*
X0135665Y0102798D01*
X0135665Y0103797D02*
X0135665Y0103797D01*
X0133332Y0091814D02*
X0085125Y0091814D01*
X0085058Y0086822D02*
X0134646Y0086822D01*
X0147656Y0091814D02*
X0159812Y0091814D01*
X0159812Y0092813D02*
X0159495Y0092813D01*
X0159759Y0093811D02*
X0159812Y0093811D01*
X0159812Y0094810D02*
X0159759Y0094810D01*
X0159759Y0095808D02*
X0160285Y0095808D01*
X0159759Y0096807D02*
X0163683Y0096807D01*
X0164681Y0097805D02*
X0159759Y0097805D01*
X0159692Y0098804D02*
X0160861Y0098804D01*
X0163013Y0098804D02*
X0165680Y0098804D01*
X0166679Y0099802D02*
X0164476Y0099802D01*
X0165041Y0100801D02*
X0167491Y0100801D01*
X0165931Y0101799D02*
X0165237Y0101799D01*
X0172091Y0100801D02*
X0179198Y0100801D01*
X0179198Y0101799D02*
X0173651Y0101799D01*
X0175441Y0102798D02*
X0179198Y0102798D01*
X0179198Y0102812D02*
X0179198Y0097269D01*
X0180023Y0096445D01*
X0179977Y0096418D01*
X0179697Y0096139D01*
X0179500Y0095797D01*
X0179398Y0095415D01*
X0179398Y0093651D01*
X0182524Y0093651D01*
X0182524Y0092651D01*
X0183524Y0092651D01*
X0183524Y0093651D01*
X0186650Y0093651D01*
X0186650Y0095415D01*
X0186547Y0095797D01*
X0186350Y0096139D01*
X0186071Y0096418D01*
X0186025Y0096445D01*
X0186850Y0097269D01*
X0186850Y0097741D01*
X0188225Y0097741D01*
X0188225Y0096856D01*
X0189221Y0095860D01*
X0192992Y0095860D01*
X0193987Y0096856D01*
X0193987Y0103186D01*
X0192992Y0104182D01*
X0189221Y0104182D01*
X0188225Y0103186D01*
X0188225Y0102341D01*
X0186850Y0102341D01*
X0186850Y0102812D01*
X0185888Y0103773D01*
X0186661Y0104093D01*
X0187589Y0105022D01*
X0188091Y0106235D01*
X0188091Y0107547D01*
X0187589Y0108760D01*
X0186661Y0109689D01*
X0185448Y0110191D01*
X0184135Y0110191D01*
X0182922Y0109689D01*
X0181994Y0108760D01*
X0181491Y0107547D01*
X0181491Y0106844D01*
X0180724Y0106076D01*
X0180724Y0103807D01*
X0180193Y0103807D01*
X0179198Y0102812D01*
X0180182Y0103797D02*
X0176440Y0103797D01*
X0177438Y0104795D02*
X0180724Y0104795D01*
X0180724Y0105794D02*
X0177941Y0105794D01*
X0178355Y0106792D02*
X0181440Y0106792D01*
X0181592Y0107791D02*
X0178768Y0107791D01*
X0180730Y0108789D02*
X0182023Y0108789D01*
X0181728Y0109788D02*
X0183161Y0109788D01*
X0182727Y0110786D02*
X0189514Y0110786D01*
X0190512Y0109788D02*
X0186422Y0109788D01*
X0187560Y0108789D02*
X0191511Y0108789D01*
X0187991Y0107791D02*
X0207918Y0107791D01*
X0207918Y0106792D02*
X0188091Y0106792D01*
X0187909Y0105794D02*
X0208112Y0105794D01*
X0208526Y0104795D02*
X0187362Y0104795D01*
X0185944Y0103797D02*
X0188836Y0103797D01*
X0188225Y0102798D02*
X0186850Y0102798D01*
X0186387Y0096807D02*
X0188274Y0096807D01*
X0186541Y0095808D02*
X0196087Y0095808D01*
X0195755Y0096807D02*
X0193938Y0096807D01*
X0193987Y0097805D02*
X0195706Y0097805D01*
X0195706Y0098804D02*
X0193987Y0098804D01*
X0193987Y0099802D02*
X0195706Y0099802D01*
X0195706Y0100801D02*
X0193987Y0100801D01*
X0193987Y0101799D02*
X0195706Y0101799D01*
X0195706Y0102798D02*
X0193987Y0102798D01*
X0193377Y0103797D02*
X0196316Y0103797D01*
X0200857Y0103797D02*
X0209378Y0103797D01*
X0210991Y0102798D02*
X0201468Y0102798D01*
X0201468Y0101799D02*
X0220335Y0101799D01*
X0220335Y0100801D02*
X0201468Y0100801D01*
X0201468Y0099802D02*
X0220335Y0099802D01*
X0220335Y0098804D02*
X0201468Y0098804D01*
X0201468Y0097805D02*
X0220335Y0097805D01*
X0220335Y0096807D02*
X0201419Y0096807D01*
X0201087Y0095808D02*
X0220335Y0095808D01*
X0220335Y0094810D02*
X0201087Y0094810D01*
X0201087Y0093811D02*
X0220335Y0093811D01*
X0220335Y0092813D02*
X0201087Y0092813D01*
X0201087Y0091814D02*
X0220335Y0091814D01*
X0220335Y0090816D02*
X0201087Y0090816D01*
X0201087Y0089817D02*
X0220335Y0089817D01*
X0220335Y0088819D02*
X0201087Y0088819D01*
X0201087Y0087820D02*
X0220335Y0087820D01*
X0220335Y0086822D02*
X0201087Y0086822D01*
X0201087Y0085823D02*
X0220335Y0085823D01*
X0220335Y0084825D02*
X0200748Y0084825D01*
X0199809Y0083826D02*
X0202603Y0083826D01*
X0201756Y0083476D02*
X0199506Y0081225D01*
X0198288Y0078285D01*
X0198288Y0075103D01*
X0199506Y0072163D01*
X0201756Y0069913D01*
X0204696Y0068695D01*
X0207879Y0068695D01*
X0210819Y0069913D01*
X0213069Y0072163D01*
X0214287Y0075103D01*
X0214287Y0078285D01*
X0213069Y0081225D01*
X0210819Y0083476D01*
X0207879Y0084693D01*
X0204696Y0084693D01*
X0201756Y0083476D01*
X0201108Y0082828D02*
X0198811Y0082828D01*
X0197812Y0081829D02*
X0200110Y0081829D01*
X0199343Y0080831D02*
X0196814Y0080831D01*
X0196681Y0079832D02*
X0198929Y0079832D01*
X0198515Y0078834D02*
X0196681Y0078834D01*
X0196681Y0077835D02*
X0198288Y0077835D01*
X0198288Y0076837D02*
X0196681Y0076837D01*
X0196573Y0075838D02*
X0198288Y0075838D01*
X0198397Y0074840D02*
X0195961Y0074840D01*
X0194962Y0073841D02*
X0198811Y0073841D01*
X0199224Y0072843D02*
X0193964Y0072843D01*
X0192965Y0071844D02*
X0199825Y0071844D01*
X0200823Y0070846D02*
X0191843Y0070846D01*
X0189888Y0075838D02*
X0175367Y0075838D01*
X0175653Y0076837D02*
X0190887Y0076837D01*
X0191681Y0077835D02*
X0175653Y0077835D01*
X0175653Y0078834D02*
X0191681Y0078834D01*
X0191681Y0079832D02*
X0175653Y0079832D01*
X0175653Y0080831D02*
X0191681Y0080831D01*
X0191681Y0081829D02*
X0175653Y0081829D01*
X0174688Y0082828D02*
X0191928Y0082828D01*
X0192738Y0083826D02*
X0174540Y0083826D01*
X0174540Y0084825D02*
X0193737Y0084825D01*
X0194735Y0085823D02*
X0174540Y0085823D01*
X0174540Y0086822D02*
X0195734Y0086822D01*
X0194937Y0087820D02*
X0194756Y0087820D01*
X0194756Y0088819D02*
X0194937Y0088819D01*
X0194937Y0089817D02*
X0194756Y0089817D01*
X0194756Y0090816D02*
X0194937Y0090816D01*
X0194756Y0091814D02*
X0186650Y0091814D01*
X0186650Y0092651D02*
X0186650Y0090886D01*
X0186547Y0090505D01*
X0186350Y0090163D01*
X0186071Y0089884D01*
X0185729Y0089686D01*
X0185347Y0089584D01*
X0183524Y0089584D01*
X0183524Y0092651D01*
X0186650Y0092651D01*
X0186650Y0093811D02*
X0192165Y0093811D01*
X0192165Y0092813D02*
X0183524Y0092813D01*
X0183524Y0091814D02*
X0182524Y0091814D01*
X0182524Y0092651D02*
X0182524Y0089584D01*
X0180700Y0089584D01*
X0180319Y0089686D01*
X0179977Y0089884D01*
X0179697Y0090163D01*
X0179500Y0090505D01*
X0179398Y0090886D01*
X0179398Y0092651D01*
X0182524Y0092651D01*
X0182524Y0092813D02*
X0167346Y0092813D01*
X0167346Y0093811D02*
X0179398Y0093811D01*
X0179398Y0094810D02*
X0168191Y0094810D01*
X0169190Y0095808D02*
X0179507Y0095808D01*
X0179660Y0096807D02*
X0170188Y0096807D01*
X0171187Y0097805D02*
X0179198Y0097805D01*
X0179198Y0098804D02*
X0172091Y0098804D01*
X0172091Y0099802D02*
X0179198Y0099802D01*
X0186650Y0094810D02*
X0192277Y0094810D01*
X0194756Y0094810D02*
X0194937Y0094810D01*
X0194937Y0093811D02*
X0194756Y0093811D01*
X0194756Y0092813D02*
X0194937Y0092813D01*
X0192165Y0090816D02*
X0186631Y0090816D01*
X0185956Y0089817D02*
X0192165Y0089817D01*
X0192239Y0088819D02*
X0176007Y0088819D01*
X0176007Y0089817D02*
X0180091Y0089817D01*
X0179417Y0090816D02*
X0176007Y0090816D01*
X0175788Y0091814D02*
X0179398Y0091814D01*
X0182524Y0090816D02*
X0183524Y0090816D01*
X0183524Y0089817D02*
X0182524Y0089817D01*
X0176003Y0087820D02*
X0193364Y0087820D01*
X0209972Y0083826D02*
X0220335Y0083826D01*
X0220335Y0082828D02*
X0211466Y0082828D01*
X0212465Y0081829D02*
X0220335Y0081829D01*
X0220335Y0080831D02*
X0213232Y0080831D01*
X0213646Y0079832D02*
X0220335Y0079832D01*
X0220335Y0078834D02*
X0214059Y0078834D01*
X0214287Y0077835D02*
X0220335Y0077835D01*
X0220335Y0076837D02*
X0214287Y0076837D01*
X0214287Y0075838D02*
X0220335Y0075838D01*
X0220335Y0074840D02*
X0214178Y0074840D01*
X0213764Y0073841D02*
X0220335Y0073841D01*
X0220335Y0072843D02*
X0213350Y0072843D01*
X0212750Y0071844D02*
X0220335Y0071844D01*
X0220335Y0070846D02*
X0211752Y0070846D01*
X0210660Y0069847D02*
X0220335Y0069847D01*
X0220335Y0068849D02*
X0208250Y0068849D01*
X0204325Y0068849D02*
X0162257Y0068849D01*
X0163719Y0069847D02*
X0201915Y0069847D01*
X0169940Y0083826D02*
X0167088Y0083826D01*
X0167346Y0084825D02*
X0169940Y0084825D01*
X0169940Y0085823D02*
X0167346Y0085823D01*
X0167346Y0086822D02*
X0169940Y0086822D01*
X0168477Y0087820D02*
X0167346Y0087820D01*
X0166382Y0088819D02*
X0168473Y0088819D01*
X0168473Y0089817D02*
X0150151Y0089817D01*
X0151117Y0088819D02*
X0160776Y0088819D01*
X0160561Y0090816D02*
X0149153Y0090816D01*
X0152495Y0082828D02*
X0162588Y0082828D01*
X0161623Y0081829D02*
X0152494Y0081829D01*
X0152080Y0080831D02*
X0161623Y0080831D01*
X0161623Y0079832D02*
X0151667Y0079832D01*
X0151253Y0078834D02*
X0161623Y0078834D01*
X0161623Y0077835D02*
X0150479Y0077835D01*
X0149480Y0076837D02*
X0161623Y0076837D01*
X0161507Y0075838D02*
X0148446Y0075838D01*
X0146036Y0074840D02*
X0160509Y0074840D01*
X0164717Y0070846D02*
X0166578Y0070846D01*
X0167995Y0082828D02*
X0169281Y0082828D01*
X0168473Y0090816D02*
X0166597Y0090816D01*
X0167346Y0091814D02*
X0168692Y0091814D01*
X0183725Y0111785D02*
X0188515Y0111785D01*
X0192025Y0114780D02*
X0208218Y0114780D01*
X0207918Y0113782D02*
X0193023Y0113782D01*
X0194022Y0112783D02*
X0207918Y0112783D01*
X0208636Y0115779D02*
X0191026Y0115779D01*
X0181214Y0115779D02*
X0177182Y0115779D01*
X0177835Y0114780D02*
X0180215Y0114780D01*
X0179217Y0113782D02*
X0178249Y0113782D01*
X0176184Y0116777D02*
X0209634Y0116777D01*
X0211610Y0117776D02*
X0175185Y0117776D01*
X0173032Y0118774D02*
X0220335Y0118774D01*
X0220335Y0117776D02*
X0213564Y0117776D01*
X0215539Y0116777D02*
X0220335Y0116777D01*
X0220335Y0115779D02*
X0216537Y0115779D01*
X0216955Y0114780D02*
X0220335Y0114780D01*
X0220335Y0113782D02*
X0217255Y0113782D01*
X0217255Y0112783D02*
X0220335Y0112783D01*
X0220335Y0111785D02*
X0217255Y0111785D01*
X0217255Y0110786D02*
X0220335Y0110786D01*
X0220335Y0109788D02*
X0217255Y0109788D01*
X0217255Y0108789D02*
X0220335Y0108789D01*
X0220335Y0107791D02*
X0217255Y0107791D01*
X0217255Y0106792D02*
X0220335Y0106792D01*
X0220335Y0105794D02*
X0217061Y0105794D01*
X0216648Y0104795D02*
X0220335Y0104795D01*
X0220335Y0103797D02*
X0215795Y0103797D01*
X0214182Y0102798D02*
X0220335Y0102798D01*
X0220335Y0119773D02*
X0163544Y0119773D01*
X0164542Y0120771D02*
X0203955Y0120771D01*
X0203094Y0121128D02*
X0205166Y0120270D01*
X0207409Y0120270D01*
X0209480Y0121128D01*
X0211066Y0122714D01*
X0211924Y0124785D01*
X0211924Y0125373D01*
X0211924Y0127028D01*
X0211066Y0129100D01*
X0209480Y0130686D01*
X0207409Y0131544D01*
X0205166Y0131544D01*
X0203094Y0130686D01*
X0201509Y0129100D01*
X0200650Y0127028D01*
X0200650Y0124785D01*
X0201509Y0122714D01*
X0201509Y0122714D01*
X0203094Y0121128D01*
X0203094Y0121128D01*
X0202452Y0121770D02*
X0165541Y0121770D01*
X0166539Y0122768D02*
X0201486Y0122768D01*
X0201072Y0123767D02*
X0167538Y0123767D01*
X0164028Y0126762D02*
X0153320Y0126762D01*
X0153320Y0125764D02*
X0163030Y0125764D01*
X0162031Y0124765D02*
X0153320Y0124765D01*
X0153320Y0123767D02*
X0161033Y0123767D01*
X0160034Y0122768D02*
X0153320Y0122768D01*
X0153320Y0121770D02*
X0159036Y0121770D01*
X0158037Y0120771D02*
X0153320Y0120771D01*
X0153320Y0119773D02*
X0155624Y0119773D01*
X0155639Y0119787D02*
X0154710Y0118859D01*
X0154208Y0117646D01*
X0154208Y0117508D01*
X0153397Y0118319D01*
X0153320Y0118319D01*
X0153320Y0129883D01*
X0151289Y0131913D01*
X0152294Y0134339D01*
X0156418Y0134339D01*
X0156418Y0133966D01*
X0157414Y0132970D01*
X0163153Y0132970D01*
X0164149Y0133966D01*
X0164149Y0134339D01*
X0166418Y0134339D01*
X0166418Y0130701D01*
X0167414Y0129705D01*
X0173822Y0129705D01*
X0174401Y0130284D01*
X0178963Y0130284D01*
X0179105Y0129939D01*
X0179620Y0129425D01*
X0179012Y0128817D01*
X0166083Y0128817D01*
X0164735Y0127470D01*
X0157555Y0120289D01*
X0156851Y0120289D01*
X0155639Y0119787D01*
X0154675Y0118774D02*
X0153320Y0118774D01*
X0153941Y0117776D02*
X0154262Y0117776D01*
X0159966Y0114780D02*
X0161748Y0114780D01*
X0162401Y0115779D02*
X0160578Y0115779D01*
X0160808Y0116777D02*
X0163399Y0116777D01*
X0164398Y0117776D02*
X0161547Y0117776D01*
X0162545Y0118774D02*
X0166550Y0118774D01*
X0165027Y0127761D02*
X0153320Y0127761D01*
X0153320Y0128759D02*
X0166025Y0128759D01*
X0167361Y0129758D02*
X0153320Y0129758D01*
X0152446Y0130756D02*
X0166418Y0130756D01*
X0166418Y0131755D02*
X0151448Y0131755D01*
X0151637Y0132753D02*
X0166418Y0132753D01*
X0166418Y0133752D02*
X0163934Y0133752D01*
X0156633Y0133752D02*
X0152051Y0133752D01*
X0148720Y0127761D02*
X0145864Y0127761D01*
X0151974Y0139743D02*
X0156849Y0139743D01*
X0156418Y0140741D02*
X0151561Y0140741D01*
X0151147Y0141740D02*
X0156418Y0141740D01*
X0156418Y0142738D02*
X0150222Y0142738D01*
X0149224Y0143737D02*
X0156418Y0143737D01*
X0156418Y0144735D02*
X0147827Y0144735D01*
X0145417Y0145734D02*
X0156418Y0145734D01*
X0166913Y0150727D02*
X0104275Y0150727D01*
X0104352Y0150650D02*
X0104352Y0150650D01*
X0102750Y0151725D02*
X0220335Y0151725D01*
X0220335Y0150727D02*
X0210041Y0150727D01*
X0210819Y0150405D02*
X0207879Y0151622D01*
X0204696Y0151622D01*
X0201756Y0150405D01*
X0199506Y0148154D01*
X0198288Y0145214D01*
X0198288Y0142032D01*
X0199506Y0139092D01*
X0201756Y0136842D01*
X0204696Y0135624D01*
X0207879Y0135624D01*
X0210819Y0136842D01*
X0213069Y0139092D01*
X0214287Y0142032D01*
X0214287Y0145214D01*
X0213069Y0148154D01*
X0210819Y0150405D01*
X0211495Y0149728D02*
X0220335Y0149728D01*
X0220335Y0148730D02*
X0212494Y0148730D01*
X0213244Y0147731D02*
X0220335Y0147731D01*
X0220335Y0146733D02*
X0213658Y0146733D01*
X0214071Y0145734D02*
X0220335Y0145734D01*
X0220335Y0144735D02*
X0214287Y0144735D01*
X0214287Y0143737D02*
X0220335Y0143737D01*
X0220335Y0142738D02*
X0214287Y0142738D01*
X0214166Y0141740D02*
X0220335Y0141740D01*
X0220335Y0140741D02*
X0213752Y0140741D01*
X0213338Y0139743D02*
X0220335Y0139743D01*
X0220335Y0138744D02*
X0212721Y0138744D01*
X0211723Y0137746D02*
X0220335Y0137746D01*
X0220335Y0136747D02*
X0210591Y0136747D01*
X0208180Y0135749D02*
X0220335Y0135749D01*
X0220335Y0134750D02*
X0193156Y0134750D01*
X0193569Y0133752D02*
X0220335Y0133752D01*
X0220335Y0132753D02*
X0193668Y0132753D01*
X0193668Y0131755D02*
X0220335Y0131755D01*
X0220335Y0130756D02*
X0209310Y0130756D01*
X0210408Y0129758D02*
X0220335Y0129758D01*
X0220335Y0128759D02*
X0211207Y0128759D01*
X0211066Y0129100D02*
X0211066Y0129100D01*
X0211621Y0127761D02*
X0220335Y0127761D01*
X0220335Y0126762D02*
X0211924Y0126762D01*
X0211924Y0125764D02*
X0220335Y0125764D01*
X0220335Y0124765D02*
X0211916Y0124765D01*
X0211502Y0123767D02*
X0220335Y0123767D01*
X0220335Y0122768D02*
X0211089Y0122768D01*
X0211066Y0122714D02*
X0211066Y0122714D01*
X0210122Y0121770D02*
X0220335Y0121770D01*
X0220335Y0120771D02*
X0208619Y0120771D01*
X0209480Y0121128D02*
X0209480Y0121128D01*
X0200659Y0124765D02*
X0181466Y0124765D01*
X0182464Y0125764D02*
X0200650Y0125764D01*
X0200650Y0126762D02*
X0183463Y0126762D01*
X0184461Y0127761D02*
X0200954Y0127761D01*
X0201368Y0128759D02*
X0191778Y0128759D01*
X0192776Y0129758D02*
X0202167Y0129758D01*
X0201509Y0129100D02*
X0201509Y0129100D01*
X0203094Y0130686D02*
X0203094Y0130686D01*
X0203265Y0130756D02*
X0193296Y0130756D01*
X0192437Y0135749D02*
X0204395Y0135749D01*
X0201984Y0136747D02*
X0191148Y0136747D01*
X0191763Y0138744D02*
X0199854Y0138744D01*
X0199236Y0139743D02*
X0192761Y0139743D01*
X0193290Y0140741D02*
X0198823Y0140741D01*
X0198409Y0141740D02*
X0193668Y0141740D01*
X0193668Y0142738D02*
X0198288Y0142738D01*
X0198288Y0143737D02*
X0193576Y0143737D01*
X0193162Y0144735D02*
X0198288Y0144735D01*
X0198503Y0145734D02*
X0192452Y0145734D01*
X0191184Y0146733D02*
X0198917Y0146733D01*
X0199331Y0147731D02*
X0172324Y0147731D01*
X0172324Y0148730D02*
X0200081Y0148730D01*
X0201080Y0149728D02*
X0171950Y0149728D01*
X0171134Y0150727D02*
X0202533Y0150727D01*
X0200852Y0137746D02*
X0184257Y0137746D01*
X0178394Y0141740D02*
X0174818Y0141740D01*
X0174818Y0140741D02*
X0176236Y0140741D01*
X0175237Y0139743D02*
X0174818Y0139743D01*
X0174689Y0142738D02*
X0178394Y0142738D01*
X0178487Y0143737D02*
X0171324Y0143737D01*
X0171324Y0144735D02*
X0178901Y0144735D01*
X0179611Y0145734D02*
X0171324Y0145734D01*
X0172000Y0146733D02*
X0180879Y0146733D01*
X0179287Y0129758D02*
X0173875Y0129758D01*
X0075411Y0077835D02*
X0074452Y0077835D01*
X0069347Y0077991D02*
X0069347Y0077991D01*
X0069191Y0077835D02*
X0068232Y0077835D01*
X0064999Y0138744D02*
X0040603Y0138744D01*
X0041602Y0139743D02*
X0065998Y0139743D01*
X0066996Y0140741D02*
X0042600Y0140741D01*
X0019097Y0150727D02*
X0072729Y0150727D01*
D31*
X0066071Y0144793D02*
X0066059Y0144804D01*
X0058472Y0144804D01*
X0123138Y0079253D02*
X0130756Y0071635D01*
X0161406Y0071635D01*
X0165303Y0075533D01*
X0165303Y0078982D01*
X0165291Y0078993D01*
M02*
