%
M48
M72
T01C0.01575
T02C0.03150
T03C0.04331
T04C0.12598
%
T01
X55150Y87726
X53575Y114497
X59874Y131033
X58043Y139694
X76291Y122863
X69736Y116663
X82492Y115954
X80366Y166092
X64598Y186289
X44579Y186997
X42157Y172371
X30405Y170698
X25799Y164852
X12689Y177430
X38201Y142529
X28634Y134556
X14992Y137922
X26016Y116859
T02
X58043Y163611
X58043Y177785
X72217Y177785
X72217Y163611
T03
X46000Y105237
X46000Y95237
X36000Y95237
X36000Y105237
X26000Y105237
X26000Y95237
T04
X76803Y89300
X17748Y187726
M30
