G75*
%MOIN*%
%OFA0B0*%
%FSLAX25Y25*%
%IPPOS*%
%LPD*%
%AMOC8*
5,1,8,0,0,1.08239X$1,22.5*
%
%ADD10C,0.00000*%
%ADD11C,0.00600*%
%ADD12R,0.03400X0.01600*%
%ADD13C,0.00300*%
%ADD14C,0.00400*%
%ADD15R,0.01378X0.03150*%
%ADD16C,0.00197*%
%ADD17C,0.00394*%
%ADD18C,0.00787*%
%ADD19C,0.00800*%
%ADD20R,0.02000X0.02000*%
%ADD21R,0.01969X0.03740*%
%ADD22R,0.01600X0.03400*%
%ADD23R,0.01800X0.02300*%
%ADD24R,0.03150X0.01378*%
D10*
X0007905Y0079458D02*
X0007905Y0197568D01*
X0086646Y0197568D01*
X0086646Y0079458D01*
X0007905Y0079458D01*
X0070504Y0089300D02*
X0070506Y0089458D01*
X0070512Y0089616D01*
X0070522Y0089774D01*
X0070536Y0089932D01*
X0070554Y0090089D01*
X0070575Y0090246D01*
X0070601Y0090402D01*
X0070631Y0090558D01*
X0070664Y0090713D01*
X0070702Y0090866D01*
X0070743Y0091019D01*
X0070788Y0091171D01*
X0070837Y0091322D01*
X0070890Y0091471D01*
X0070946Y0091619D01*
X0071006Y0091765D01*
X0071070Y0091910D01*
X0071138Y0092053D01*
X0071209Y0092195D01*
X0071283Y0092335D01*
X0071361Y0092472D01*
X0071443Y0092608D01*
X0071527Y0092742D01*
X0071616Y0092873D01*
X0071707Y0093002D01*
X0071802Y0093129D01*
X0071899Y0093254D01*
X0072000Y0093376D01*
X0072104Y0093495D01*
X0072211Y0093612D01*
X0072321Y0093726D01*
X0072434Y0093837D01*
X0072549Y0093946D01*
X0072667Y0094051D01*
X0072788Y0094153D01*
X0072911Y0094253D01*
X0073037Y0094349D01*
X0073165Y0094442D01*
X0073295Y0094532D01*
X0073428Y0094618D01*
X0073563Y0094702D01*
X0073699Y0094781D01*
X0073838Y0094858D01*
X0073979Y0094930D01*
X0074121Y0095000D01*
X0074265Y0095065D01*
X0074411Y0095127D01*
X0074558Y0095185D01*
X0074707Y0095240D01*
X0074857Y0095291D01*
X0075008Y0095338D01*
X0075160Y0095381D01*
X0075313Y0095420D01*
X0075468Y0095456D01*
X0075623Y0095487D01*
X0075779Y0095515D01*
X0075935Y0095539D01*
X0076092Y0095559D01*
X0076250Y0095575D01*
X0076407Y0095587D01*
X0076566Y0095595D01*
X0076724Y0095599D01*
X0076882Y0095599D01*
X0077040Y0095595D01*
X0077199Y0095587D01*
X0077356Y0095575D01*
X0077514Y0095559D01*
X0077671Y0095539D01*
X0077827Y0095515D01*
X0077983Y0095487D01*
X0078138Y0095456D01*
X0078293Y0095420D01*
X0078446Y0095381D01*
X0078598Y0095338D01*
X0078749Y0095291D01*
X0078899Y0095240D01*
X0079048Y0095185D01*
X0079195Y0095127D01*
X0079341Y0095065D01*
X0079485Y0095000D01*
X0079627Y0094930D01*
X0079768Y0094858D01*
X0079907Y0094781D01*
X0080043Y0094702D01*
X0080178Y0094618D01*
X0080311Y0094532D01*
X0080441Y0094442D01*
X0080569Y0094349D01*
X0080695Y0094253D01*
X0080818Y0094153D01*
X0080939Y0094051D01*
X0081057Y0093946D01*
X0081172Y0093837D01*
X0081285Y0093726D01*
X0081395Y0093612D01*
X0081502Y0093495D01*
X0081606Y0093376D01*
X0081707Y0093254D01*
X0081804Y0093129D01*
X0081899Y0093002D01*
X0081990Y0092873D01*
X0082079Y0092742D01*
X0082163Y0092608D01*
X0082245Y0092472D01*
X0082323Y0092335D01*
X0082397Y0092195D01*
X0082468Y0092053D01*
X0082536Y0091910D01*
X0082600Y0091765D01*
X0082660Y0091619D01*
X0082716Y0091471D01*
X0082769Y0091322D01*
X0082818Y0091171D01*
X0082863Y0091019D01*
X0082904Y0090866D01*
X0082942Y0090713D01*
X0082975Y0090558D01*
X0083005Y0090402D01*
X0083031Y0090246D01*
X0083052Y0090089D01*
X0083070Y0089932D01*
X0083084Y0089774D01*
X0083094Y0089616D01*
X0083100Y0089458D01*
X0083102Y0089300D01*
X0083100Y0089142D01*
X0083094Y0088984D01*
X0083084Y0088826D01*
X0083070Y0088668D01*
X0083052Y0088511D01*
X0083031Y0088354D01*
X0083005Y0088198D01*
X0082975Y0088042D01*
X0082942Y0087887D01*
X0082904Y0087734D01*
X0082863Y0087581D01*
X0082818Y0087429D01*
X0082769Y0087278D01*
X0082716Y0087129D01*
X0082660Y0086981D01*
X0082600Y0086835D01*
X0082536Y0086690D01*
X0082468Y0086547D01*
X0082397Y0086405D01*
X0082323Y0086265D01*
X0082245Y0086128D01*
X0082163Y0085992D01*
X0082079Y0085858D01*
X0081990Y0085727D01*
X0081899Y0085598D01*
X0081804Y0085471D01*
X0081707Y0085346D01*
X0081606Y0085224D01*
X0081502Y0085105D01*
X0081395Y0084988D01*
X0081285Y0084874D01*
X0081172Y0084763D01*
X0081057Y0084654D01*
X0080939Y0084549D01*
X0080818Y0084447D01*
X0080695Y0084347D01*
X0080569Y0084251D01*
X0080441Y0084158D01*
X0080311Y0084068D01*
X0080178Y0083982D01*
X0080043Y0083898D01*
X0079907Y0083819D01*
X0079768Y0083742D01*
X0079627Y0083670D01*
X0079485Y0083600D01*
X0079341Y0083535D01*
X0079195Y0083473D01*
X0079048Y0083415D01*
X0078899Y0083360D01*
X0078749Y0083309D01*
X0078598Y0083262D01*
X0078446Y0083219D01*
X0078293Y0083180D01*
X0078138Y0083144D01*
X0077983Y0083113D01*
X0077827Y0083085D01*
X0077671Y0083061D01*
X0077514Y0083041D01*
X0077356Y0083025D01*
X0077199Y0083013D01*
X0077040Y0083005D01*
X0076882Y0083001D01*
X0076724Y0083001D01*
X0076566Y0083005D01*
X0076407Y0083013D01*
X0076250Y0083025D01*
X0076092Y0083041D01*
X0075935Y0083061D01*
X0075779Y0083085D01*
X0075623Y0083113D01*
X0075468Y0083144D01*
X0075313Y0083180D01*
X0075160Y0083219D01*
X0075008Y0083262D01*
X0074857Y0083309D01*
X0074707Y0083360D01*
X0074558Y0083415D01*
X0074411Y0083473D01*
X0074265Y0083535D01*
X0074121Y0083600D01*
X0073979Y0083670D01*
X0073838Y0083742D01*
X0073699Y0083819D01*
X0073563Y0083898D01*
X0073428Y0083982D01*
X0073295Y0084068D01*
X0073165Y0084158D01*
X0073037Y0084251D01*
X0072911Y0084347D01*
X0072788Y0084447D01*
X0072667Y0084549D01*
X0072549Y0084654D01*
X0072434Y0084763D01*
X0072321Y0084874D01*
X0072211Y0084988D01*
X0072104Y0085105D01*
X0072000Y0085224D01*
X0071899Y0085346D01*
X0071802Y0085471D01*
X0071707Y0085598D01*
X0071616Y0085727D01*
X0071527Y0085858D01*
X0071443Y0085992D01*
X0071361Y0086128D01*
X0071283Y0086265D01*
X0071209Y0086405D01*
X0071138Y0086547D01*
X0071070Y0086690D01*
X0071006Y0086835D01*
X0070946Y0086981D01*
X0070890Y0087129D01*
X0070837Y0087278D01*
X0070788Y0087429D01*
X0070743Y0087581D01*
X0070702Y0087734D01*
X0070664Y0087887D01*
X0070631Y0088042D01*
X0070601Y0088198D01*
X0070575Y0088354D01*
X0070554Y0088511D01*
X0070536Y0088668D01*
X0070522Y0088826D01*
X0070512Y0088984D01*
X0070506Y0089142D01*
X0070504Y0089300D01*
X0011449Y0187726D02*
X0011451Y0187884D01*
X0011457Y0188042D01*
X0011467Y0188200D01*
X0011481Y0188358D01*
X0011499Y0188515D01*
X0011520Y0188672D01*
X0011546Y0188828D01*
X0011576Y0188984D01*
X0011609Y0189139D01*
X0011647Y0189292D01*
X0011688Y0189445D01*
X0011733Y0189597D01*
X0011782Y0189748D01*
X0011835Y0189897D01*
X0011891Y0190045D01*
X0011951Y0190191D01*
X0012015Y0190336D01*
X0012083Y0190479D01*
X0012154Y0190621D01*
X0012228Y0190761D01*
X0012306Y0190898D01*
X0012388Y0191034D01*
X0012472Y0191168D01*
X0012561Y0191299D01*
X0012652Y0191428D01*
X0012747Y0191555D01*
X0012844Y0191680D01*
X0012945Y0191802D01*
X0013049Y0191921D01*
X0013156Y0192038D01*
X0013266Y0192152D01*
X0013379Y0192263D01*
X0013494Y0192372D01*
X0013612Y0192477D01*
X0013733Y0192579D01*
X0013856Y0192679D01*
X0013982Y0192775D01*
X0014110Y0192868D01*
X0014240Y0192958D01*
X0014373Y0193044D01*
X0014508Y0193128D01*
X0014644Y0193207D01*
X0014783Y0193284D01*
X0014924Y0193356D01*
X0015066Y0193426D01*
X0015210Y0193491D01*
X0015356Y0193553D01*
X0015503Y0193611D01*
X0015652Y0193666D01*
X0015802Y0193717D01*
X0015953Y0193764D01*
X0016105Y0193807D01*
X0016258Y0193846D01*
X0016413Y0193882D01*
X0016568Y0193913D01*
X0016724Y0193941D01*
X0016880Y0193965D01*
X0017037Y0193985D01*
X0017195Y0194001D01*
X0017352Y0194013D01*
X0017511Y0194021D01*
X0017669Y0194025D01*
X0017827Y0194025D01*
X0017985Y0194021D01*
X0018144Y0194013D01*
X0018301Y0194001D01*
X0018459Y0193985D01*
X0018616Y0193965D01*
X0018772Y0193941D01*
X0018928Y0193913D01*
X0019083Y0193882D01*
X0019238Y0193846D01*
X0019391Y0193807D01*
X0019543Y0193764D01*
X0019694Y0193717D01*
X0019844Y0193666D01*
X0019993Y0193611D01*
X0020140Y0193553D01*
X0020286Y0193491D01*
X0020430Y0193426D01*
X0020572Y0193356D01*
X0020713Y0193284D01*
X0020852Y0193207D01*
X0020988Y0193128D01*
X0021123Y0193044D01*
X0021256Y0192958D01*
X0021386Y0192868D01*
X0021514Y0192775D01*
X0021640Y0192679D01*
X0021763Y0192579D01*
X0021884Y0192477D01*
X0022002Y0192372D01*
X0022117Y0192263D01*
X0022230Y0192152D01*
X0022340Y0192038D01*
X0022447Y0191921D01*
X0022551Y0191802D01*
X0022652Y0191680D01*
X0022749Y0191555D01*
X0022844Y0191428D01*
X0022935Y0191299D01*
X0023024Y0191168D01*
X0023108Y0191034D01*
X0023190Y0190898D01*
X0023268Y0190761D01*
X0023342Y0190621D01*
X0023413Y0190479D01*
X0023481Y0190336D01*
X0023545Y0190191D01*
X0023605Y0190045D01*
X0023661Y0189897D01*
X0023714Y0189748D01*
X0023763Y0189597D01*
X0023808Y0189445D01*
X0023849Y0189292D01*
X0023887Y0189139D01*
X0023920Y0188984D01*
X0023950Y0188828D01*
X0023976Y0188672D01*
X0023997Y0188515D01*
X0024015Y0188358D01*
X0024029Y0188200D01*
X0024039Y0188042D01*
X0024045Y0187884D01*
X0024047Y0187726D01*
X0024045Y0187568D01*
X0024039Y0187410D01*
X0024029Y0187252D01*
X0024015Y0187094D01*
X0023997Y0186937D01*
X0023976Y0186780D01*
X0023950Y0186624D01*
X0023920Y0186468D01*
X0023887Y0186313D01*
X0023849Y0186160D01*
X0023808Y0186007D01*
X0023763Y0185855D01*
X0023714Y0185704D01*
X0023661Y0185555D01*
X0023605Y0185407D01*
X0023545Y0185261D01*
X0023481Y0185116D01*
X0023413Y0184973D01*
X0023342Y0184831D01*
X0023268Y0184691D01*
X0023190Y0184554D01*
X0023108Y0184418D01*
X0023024Y0184284D01*
X0022935Y0184153D01*
X0022844Y0184024D01*
X0022749Y0183897D01*
X0022652Y0183772D01*
X0022551Y0183650D01*
X0022447Y0183531D01*
X0022340Y0183414D01*
X0022230Y0183300D01*
X0022117Y0183189D01*
X0022002Y0183080D01*
X0021884Y0182975D01*
X0021763Y0182873D01*
X0021640Y0182773D01*
X0021514Y0182677D01*
X0021386Y0182584D01*
X0021256Y0182494D01*
X0021123Y0182408D01*
X0020988Y0182324D01*
X0020852Y0182245D01*
X0020713Y0182168D01*
X0020572Y0182096D01*
X0020430Y0182026D01*
X0020286Y0181961D01*
X0020140Y0181899D01*
X0019993Y0181841D01*
X0019844Y0181786D01*
X0019694Y0181735D01*
X0019543Y0181688D01*
X0019391Y0181645D01*
X0019238Y0181606D01*
X0019083Y0181570D01*
X0018928Y0181539D01*
X0018772Y0181511D01*
X0018616Y0181487D01*
X0018459Y0181467D01*
X0018301Y0181451D01*
X0018144Y0181439D01*
X0017985Y0181431D01*
X0017827Y0181427D01*
X0017669Y0181427D01*
X0017511Y0181431D01*
X0017352Y0181439D01*
X0017195Y0181451D01*
X0017037Y0181467D01*
X0016880Y0181487D01*
X0016724Y0181511D01*
X0016568Y0181539D01*
X0016413Y0181570D01*
X0016258Y0181606D01*
X0016105Y0181645D01*
X0015953Y0181688D01*
X0015802Y0181735D01*
X0015652Y0181786D01*
X0015503Y0181841D01*
X0015356Y0181899D01*
X0015210Y0181961D01*
X0015066Y0182026D01*
X0014924Y0182096D01*
X0014783Y0182168D01*
X0014644Y0182245D01*
X0014508Y0182324D01*
X0014373Y0182408D01*
X0014240Y0182494D01*
X0014110Y0182584D01*
X0013982Y0182677D01*
X0013856Y0182773D01*
X0013733Y0182873D01*
X0013612Y0182975D01*
X0013494Y0183080D01*
X0013379Y0183189D01*
X0013266Y0183300D01*
X0013156Y0183414D01*
X0013049Y0183531D01*
X0012945Y0183650D01*
X0012844Y0183772D01*
X0012747Y0183897D01*
X0012652Y0184024D01*
X0012561Y0184153D01*
X0012472Y0184284D01*
X0012388Y0184418D01*
X0012306Y0184554D01*
X0012228Y0184691D01*
X0012154Y0184831D01*
X0012083Y0184973D01*
X0012015Y0185116D01*
X0011951Y0185261D01*
X0011891Y0185407D01*
X0011835Y0185555D01*
X0011782Y0185704D01*
X0011733Y0185855D01*
X0011688Y0186007D01*
X0011647Y0186160D01*
X0011609Y0186313D01*
X0011576Y0186468D01*
X0011546Y0186624D01*
X0011520Y0186780D01*
X0011499Y0186937D01*
X0011481Y0187094D01*
X0011467Y0187252D01*
X0011457Y0187410D01*
X0011451Y0187568D01*
X0011449Y0187726D01*
D11*
X0014378Y0162477D02*
X0017780Y0162477D01*
X0017780Y0159674D02*
X0014378Y0159674D01*
X0013968Y0149210D02*
X0013968Y0145808D01*
X0011165Y0145808D02*
X0011165Y0149210D01*
X0013291Y0129698D02*
X0013291Y0126296D01*
X0016094Y0126296D02*
X0016094Y0129698D01*
X0036799Y0150218D02*
X0036799Y0153619D01*
X0039602Y0153619D02*
X0039602Y0150218D01*
X0045953Y0152684D02*
X0045953Y0155286D01*
X0047687Y0155286D01*
X0048899Y0155286D02*
X0050200Y0155286D01*
X0050634Y0154852D01*
X0050634Y0154419D01*
X0050200Y0153985D01*
X0048899Y0153985D01*
X0048899Y0152684D02*
X0048899Y0155286D01*
X0050200Y0153985D02*
X0050634Y0153551D01*
X0050634Y0153117D01*
X0050200Y0152684D01*
X0048899Y0152684D01*
X0046820Y0153985D02*
X0045953Y0153985D01*
X0051846Y0154419D02*
X0052713Y0155286D01*
X0052713Y0152684D01*
X0051846Y0152684D02*
X0053580Y0152684D01*
X0048815Y0162265D02*
X0048815Y0165666D01*
X0046012Y0165666D02*
X0046012Y0162265D01*
X0036134Y0161966D02*
X0032732Y0161966D01*
X0032732Y0164769D02*
X0036134Y0164769D01*
X0046012Y0175729D02*
X0046012Y0179131D01*
X0048815Y0179131D02*
X0048815Y0175729D01*
X0052189Y0190513D02*
X0055591Y0190513D01*
X0055591Y0193316D02*
X0052189Y0193316D01*
X0079476Y0154914D02*
X0079476Y0151513D01*
X0082280Y0151513D02*
X0082280Y0154914D01*
X0075529Y0144637D02*
X0064329Y0144637D01*
X0064329Y0139437D01*
X0075529Y0139437D01*
X0075529Y0144637D01*
X0079610Y0137009D02*
X0079610Y0133607D01*
X0082413Y0133607D02*
X0082413Y0137009D01*
X0080323Y0106698D02*
X0080323Y0103296D01*
X0077520Y0103296D02*
X0077520Y0106698D01*
X0071094Y0106698D02*
X0071094Y0103296D01*
X0068291Y0103296D02*
X0068291Y0106698D01*
X0051782Y0136490D02*
X0052215Y0136924D01*
X0052215Y0138659D01*
X0051782Y0139092D01*
X0050914Y0139092D01*
X0050480Y0138659D01*
X0050480Y0138225D01*
X0050914Y0137791D01*
X0052215Y0137791D01*
X0051782Y0136490D02*
X0050914Y0136490D01*
X0050480Y0136924D01*
X0049269Y0136924D02*
X0048835Y0136490D01*
X0047534Y0136490D01*
X0047534Y0139092D01*
X0048835Y0139092D01*
X0049269Y0138659D01*
X0049269Y0138225D01*
X0048835Y0137791D01*
X0047534Y0137791D01*
X0048835Y0137791D02*
X0049269Y0137357D01*
X0049269Y0136924D01*
X0046322Y0139092D02*
X0044587Y0139092D01*
X0044587Y0136490D01*
X0044587Y0137791D02*
X0045455Y0137791D01*
X0020909Y0090710D02*
X0020909Y0088108D01*
X0020042Y0088108D02*
X0021777Y0088108D01*
X0020042Y0089843D02*
X0020909Y0090710D01*
X0018830Y0090710D02*
X0017963Y0090710D01*
X0018396Y0090710D02*
X0018396Y0088542D01*
X0017963Y0088108D01*
X0017529Y0088108D01*
X0017095Y0088542D01*
D12*
X0014693Y0125497D03*
X0014693Y0130497D03*
X0012567Y0145009D03*
X0012567Y0150009D03*
X0038201Y0149418D03*
X0038201Y0154418D03*
X0047413Y0161466D03*
X0047413Y0166466D03*
X0047413Y0174930D03*
X0047413Y0179930D03*
X0080878Y0155714D03*
X0080878Y0150714D03*
X0081012Y0137808D03*
X0081012Y0132808D03*
X0078921Y0107497D03*
X0078921Y0102497D03*
X0069693Y0102497D03*
X0069693Y0107497D03*
D13*
X0066267Y0107896D02*
X0066267Y0105961D01*
X0066267Y0106929D02*
X0063365Y0106929D01*
X0064332Y0105961D01*
X0066267Y0104950D02*
X0066267Y0103015D01*
X0066267Y0103982D02*
X0063365Y0103982D01*
X0064332Y0103015D01*
X0063849Y0102003D02*
X0064816Y0102003D01*
X0065300Y0101520D01*
X0065300Y0100068D01*
X0066267Y0100068D02*
X0063365Y0100068D01*
X0063365Y0101520D01*
X0063849Y0102003D01*
X0065300Y0101036D02*
X0066267Y0102003D01*
X0073207Y0101130D02*
X0073691Y0101614D01*
X0074659Y0101614D01*
X0075142Y0101130D01*
X0075142Y0099679D01*
X0075142Y0100646D02*
X0076110Y0101614D01*
X0076110Y0102625D02*
X0076110Y0104560D01*
X0076110Y0103593D02*
X0073207Y0103593D01*
X0074175Y0102625D01*
X0073207Y0101130D02*
X0073207Y0099679D01*
X0076110Y0099679D01*
X0075626Y0105572D02*
X0073691Y0105572D01*
X0073207Y0106055D01*
X0073207Y0107023D01*
X0073691Y0107507D01*
X0075626Y0105572D01*
X0076110Y0106055D01*
X0076110Y0107023D01*
X0075626Y0107507D01*
X0073691Y0107507D01*
X0079947Y0120512D02*
X0079947Y0121964D01*
X0080430Y0122447D01*
X0081398Y0122447D01*
X0081882Y0121964D01*
X0081882Y0120512D01*
X0082849Y0120512D02*
X0079947Y0120512D01*
X0081882Y0121480D02*
X0082849Y0122447D01*
X0082849Y0123459D02*
X0080914Y0125394D01*
X0080430Y0125394D01*
X0079947Y0124910D01*
X0079947Y0123943D01*
X0080430Y0123459D01*
X0080430Y0126405D02*
X0079947Y0126889D01*
X0079947Y0127857D01*
X0080430Y0128340D01*
X0080914Y0128340D01*
X0081398Y0127857D01*
X0081882Y0128340D01*
X0082365Y0128340D01*
X0082849Y0127857D01*
X0082849Y0126889D01*
X0082365Y0126405D01*
X0082849Y0125394D02*
X0082849Y0123459D01*
X0081398Y0127373D02*
X0081398Y0127857D01*
X0074742Y0132080D02*
X0074258Y0131596D01*
X0073291Y0131596D01*
X0072807Y0132080D01*
X0071795Y0131596D02*
X0069860Y0131596D01*
X0070828Y0131596D02*
X0070828Y0134498D01*
X0069860Y0133531D01*
X0068849Y0134015D02*
X0068365Y0134498D01*
X0067398Y0134498D01*
X0066914Y0134015D01*
X0066914Y0132080D01*
X0067398Y0131596D01*
X0068365Y0131596D01*
X0068849Y0132080D01*
X0072807Y0134015D02*
X0073291Y0134498D01*
X0074258Y0134498D01*
X0074742Y0134015D01*
X0074742Y0133531D01*
X0074258Y0133047D01*
X0074742Y0132563D01*
X0074742Y0132080D01*
X0074258Y0133047D02*
X0073774Y0133047D01*
X0066221Y0146175D02*
X0065253Y0146175D01*
X0064770Y0146658D01*
X0063758Y0146658D02*
X0063274Y0146175D01*
X0062307Y0146175D01*
X0061823Y0146658D01*
X0061823Y0148593D01*
X0062307Y0149077D01*
X0063274Y0149077D01*
X0063758Y0148593D01*
X0063758Y0146658D01*
X0063758Y0146175D02*
X0062791Y0147142D01*
X0064770Y0148593D02*
X0065253Y0149077D01*
X0066221Y0149077D01*
X0066705Y0148593D01*
X0066705Y0148110D01*
X0066221Y0147626D01*
X0066705Y0147142D01*
X0066705Y0146658D01*
X0066221Y0146175D01*
X0066221Y0147626D02*
X0065737Y0147626D01*
X0074907Y0150632D02*
X0074907Y0152083D01*
X0075391Y0152567D01*
X0076359Y0152567D01*
X0076842Y0152083D01*
X0076842Y0150632D01*
X0076842Y0151600D02*
X0077810Y0152567D01*
X0076359Y0153579D02*
X0076359Y0155514D01*
X0077810Y0155030D02*
X0074907Y0155030D01*
X0076359Y0153579D01*
X0077810Y0150632D02*
X0074907Y0150632D01*
X0056651Y0128519D02*
X0055683Y0128519D01*
X0055200Y0128035D01*
X0055200Y0127551D01*
X0055683Y0127068D01*
X0057135Y0127068D01*
X0057135Y0128035D02*
X0057135Y0126100D01*
X0056651Y0125616D01*
X0055683Y0125616D01*
X0055200Y0126100D01*
X0054188Y0126100D02*
X0053704Y0125616D01*
X0052737Y0125616D01*
X0052253Y0126100D01*
X0052253Y0128035D01*
X0052737Y0128519D01*
X0053704Y0128519D01*
X0054188Y0128035D01*
X0056651Y0128519D02*
X0057135Y0128035D01*
X0041618Y0127889D02*
X0041618Y0128373D01*
X0041134Y0128857D01*
X0040167Y0128857D01*
X0039683Y0128373D01*
X0038672Y0128373D02*
X0038188Y0128857D01*
X0037220Y0128857D01*
X0036737Y0128373D01*
X0036737Y0126438D01*
X0037220Y0125954D01*
X0038188Y0125954D01*
X0038672Y0126438D01*
X0039683Y0125954D02*
X0041618Y0127889D01*
X0041618Y0125954D02*
X0039683Y0125954D01*
X0029538Y0126043D02*
X0029538Y0124108D01*
X0029538Y0125076D02*
X0026636Y0125076D01*
X0027603Y0124108D01*
X0027119Y0123097D02*
X0026636Y0122613D01*
X0026636Y0121646D01*
X0027119Y0121162D01*
X0029054Y0121162D01*
X0029538Y0121646D01*
X0029538Y0122613D01*
X0029054Y0123097D01*
X0029054Y0127055D02*
X0027119Y0127055D01*
X0026636Y0127539D01*
X0026636Y0128506D01*
X0027119Y0128990D01*
X0029054Y0127055D01*
X0029538Y0127539D01*
X0029538Y0128506D01*
X0029054Y0128990D01*
X0027119Y0128990D01*
X0020681Y0128855D02*
X0020197Y0128371D01*
X0020681Y0128855D02*
X0020681Y0129822D01*
X0020197Y0130306D01*
X0019229Y0130306D01*
X0018746Y0129822D01*
X0018746Y0129338D01*
X0019229Y0128371D01*
X0017778Y0128371D01*
X0017778Y0130306D01*
X0018262Y0127359D02*
X0017778Y0126876D01*
X0017778Y0125908D01*
X0018262Y0125424D01*
X0018262Y0124413D02*
X0019229Y0124413D01*
X0019713Y0123929D01*
X0019713Y0122478D01*
X0019713Y0123445D02*
X0020681Y0124413D01*
X0020681Y0125424D02*
X0018746Y0127359D01*
X0018262Y0127359D01*
X0020681Y0127359D02*
X0020681Y0125424D01*
X0018262Y0124413D02*
X0017778Y0123929D01*
X0017778Y0122478D01*
X0020681Y0122478D01*
X0018259Y0143340D02*
X0015357Y0143340D01*
X0015357Y0144791D01*
X0015841Y0145275D01*
X0016808Y0145275D01*
X0017292Y0144791D01*
X0017292Y0143340D01*
X0017292Y0144308D02*
X0018259Y0145275D01*
X0018259Y0146287D02*
X0016324Y0148222D01*
X0015841Y0148222D01*
X0015357Y0147738D01*
X0015357Y0146770D01*
X0015841Y0146287D01*
X0018259Y0146287D02*
X0018259Y0148222D01*
X0017776Y0149233D02*
X0016808Y0149233D01*
X0016808Y0150684D01*
X0017292Y0151168D01*
X0017776Y0151168D01*
X0018259Y0150684D01*
X0018259Y0149717D01*
X0017776Y0149233D01*
X0016808Y0149233D02*
X0015841Y0150201D01*
X0015357Y0151168D01*
X0022603Y0156945D02*
X0023571Y0156945D01*
X0023087Y0156945D02*
X0023087Y0159847D01*
X0022603Y0159847D02*
X0023571Y0159847D01*
X0024568Y0159364D02*
X0024568Y0157429D01*
X0025051Y0156945D01*
X0026019Y0156945D01*
X0026503Y0157429D01*
X0027514Y0157429D02*
X0027998Y0156945D01*
X0028965Y0156945D01*
X0029449Y0157429D01*
X0029449Y0157912D01*
X0028965Y0158396D01*
X0027514Y0158396D01*
X0027514Y0157429D01*
X0027514Y0158396D02*
X0028482Y0159364D01*
X0029449Y0159847D01*
X0031190Y0160720D02*
X0031190Y0157817D01*
X0031190Y0158785D02*
X0032641Y0158785D01*
X0033125Y0159268D01*
X0033125Y0160236D01*
X0032641Y0160720D01*
X0031190Y0160720D01*
X0032158Y0158785D02*
X0033125Y0157817D01*
X0034137Y0157817D02*
X0036072Y0157817D01*
X0035104Y0157817D02*
X0035104Y0160720D01*
X0034137Y0159752D01*
X0033706Y0153066D02*
X0033706Y0151614D01*
X0033222Y0151131D01*
X0032738Y0151131D01*
X0032255Y0151614D01*
X0032255Y0152582D01*
X0032738Y0153066D01*
X0034673Y0153066D01*
X0035157Y0152582D01*
X0035157Y0151614D01*
X0034673Y0151131D01*
X0035157Y0150119D02*
X0035157Y0148184D01*
X0035157Y0149152D02*
X0032255Y0149152D01*
X0033222Y0148184D01*
X0032738Y0147173D02*
X0033706Y0147173D01*
X0034190Y0146689D01*
X0034190Y0145238D01*
X0035157Y0145238D02*
X0032255Y0145238D01*
X0032255Y0146689D01*
X0032738Y0147173D01*
X0034190Y0146205D02*
X0035157Y0147173D01*
X0026503Y0159364D02*
X0026019Y0159847D01*
X0025051Y0159847D01*
X0024568Y0159364D01*
X0018557Y0167145D02*
X0016622Y0165210D01*
X0016622Y0164726D01*
X0015610Y0164726D02*
X0013675Y0164726D01*
X0015610Y0166661D01*
X0015610Y0167145D01*
X0015126Y0167628D01*
X0014159Y0167628D01*
X0013675Y0167145D01*
X0012664Y0167145D02*
X0012664Y0166177D01*
X0012180Y0165693D01*
X0010729Y0165693D01*
X0010729Y0164726D02*
X0010729Y0167628D01*
X0012180Y0167628D01*
X0012664Y0167145D01*
X0011696Y0165693D02*
X0012664Y0164726D01*
X0016622Y0167628D02*
X0018557Y0167628D01*
X0018557Y0167145D01*
X0022681Y0169914D02*
X0022681Y0171849D01*
X0023165Y0172333D01*
X0024133Y0172333D01*
X0024616Y0171849D01*
X0025628Y0171849D02*
X0026112Y0172333D01*
X0027079Y0172333D01*
X0027563Y0171849D01*
X0027563Y0171366D01*
X0027079Y0170882D01*
X0027563Y0170398D01*
X0027563Y0169914D01*
X0027079Y0169431D01*
X0026112Y0169431D01*
X0025628Y0169914D01*
X0024616Y0169914D02*
X0024133Y0169431D01*
X0023165Y0169431D01*
X0022681Y0169914D01*
X0026595Y0170882D02*
X0027079Y0170882D01*
X0030709Y0191835D02*
X0031677Y0191835D01*
X0031193Y0191835D02*
X0031193Y0194737D01*
X0030709Y0194737D02*
X0031677Y0194737D01*
X0032674Y0194253D02*
X0032674Y0192318D01*
X0033158Y0191835D01*
X0034125Y0191835D01*
X0034609Y0192318D01*
X0035620Y0192318D02*
X0036104Y0191835D01*
X0037072Y0191835D01*
X0037555Y0192318D01*
X0037555Y0192802D01*
X0037072Y0193286D01*
X0036588Y0193286D01*
X0037072Y0193286D02*
X0037555Y0193770D01*
X0037555Y0194253D01*
X0037072Y0194737D01*
X0036104Y0194737D01*
X0035620Y0194253D01*
X0034609Y0194253D02*
X0034125Y0194737D01*
X0033158Y0194737D01*
X0032674Y0194253D01*
X0049221Y0187731D02*
X0049221Y0184828D01*
X0049221Y0185796D02*
X0050672Y0185796D01*
X0051156Y0186280D01*
X0051156Y0187247D01*
X0050672Y0187731D01*
X0049221Y0187731D01*
X0050188Y0185796D02*
X0051156Y0184828D01*
X0052167Y0184828D02*
X0054102Y0184828D01*
X0053135Y0184828D02*
X0053135Y0187731D01*
X0052167Y0186763D01*
X0055114Y0187247D02*
X0055598Y0187731D01*
X0056565Y0187731D01*
X0057049Y0187247D01*
X0057049Y0186763D01*
X0056565Y0186280D01*
X0057049Y0185796D01*
X0057049Y0185312D01*
X0056565Y0184828D01*
X0055598Y0184828D01*
X0055114Y0185312D01*
X0056081Y0186280D02*
X0056565Y0186280D01*
X0053425Y0177206D02*
X0053425Y0175271D01*
X0051490Y0177206D01*
X0051006Y0177206D01*
X0050522Y0176722D01*
X0050522Y0175755D01*
X0051006Y0175271D01*
X0051006Y0174259D02*
X0050522Y0173776D01*
X0050522Y0172324D01*
X0053425Y0172324D01*
X0052457Y0172324D02*
X0052457Y0173776D01*
X0051974Y0174259D01*
X0051006Y0174259D01*
X0052457Y0173292D02*
X0053425Y0174259D01*
X0053267Y0169541D02*
X0053751Y0169057D01*
X0053751Y0168090D01*
X0053267Y0167606D01*
X0053751Y0166595D02*
X0052783Y0165627D01*
X0052783Y0166111D02*
X0052783Y0164660D01*
X0053751Y0164660D02*
X0050848Y0164660D01*
X0050848Y0166111D01*
X0051332Y0166595D01*
X0052300Y0166595D01*
X0052783Y0166111D01*
X0051332Y0167606D02*
X0050848Y0168090D01*
X0050848Y0169057D01*
X0051332Y0169541D01*
X0051816Y0169541D01*
X0052300Y0169057D01*
X0052783Y0169541D01*
X0053267Y0169541D01*
X0052300Y0169057D02*
X0052300Y0168574D01*
X0069308Y0185923D02*
X0069792Y0185439D01*
X0070759Y0185439D01*
X0071243Y0185923D01*
X0072255Y0185439D02*
X0074190Y0185439D01*
X0073222Y0185439D02*
X0073222Y0188342D01*
X0072255Y0187374D01*
X0071243Y0187858D02*
X0070759Y0188342D01*
X0069792Y0188342D01*
X0069308Y0187858D01*
X0069308Y0185923D01*
D14*
X0071213Y0190458D02*
X0065504Y0190458D01*
X0065504Y0193214D02*
X0071213Y0193214D01*
X0053480Y0149816D02*
X0050677Y0149816D01*
X0050677Y0146466D02*
X0053480Y0146466D01*
X0050287Y0133517D02*
X0047484Y0133517D01*
X0047484Y0130166D02*
X0050287Y0130166D01*
X0053937Y0124273D02*
X0059646Y0124273D01*
X0059646Y0121517D02*
X0053937Y0121517D01*
X0043772Y0121474D02*
X0038063Y0121474D01*
X0038063Y0124229D02*
X0043772Y0124229D01*
X0024965Y0124997D02*
X0024965Y0130706D01*
X0022209Y0130706D02*
X0022209Y0124997D01*
X0019087Y0169674D02*
X0013378Y0169674D01*
X0013378Y0172430D02*
X0019087Y0172430D01*
X0067059Y0130265D02*
X0072768Y0130265D01*
X0072768Y0127509D02*
X0067059Y0127509D01*
D15*
X0067453Y0128887D03*
X0072374Y0128887D03*
X0059252Y0122895D03*
X0054331Y0122895D03*
X0043378Y0122852D03*
X0038457Y0122852D03*
X0018693Y0171052D03*
X0013772Y0171052D03*
X0065898Y0191836D03*
X0070819Y0191836D03*
D16*
X0041055Y0191371D02*
X0041055Y0174836D01*
X0027197Y0174836D01*
X0027197Y0191371D01*
X0041055Y0191371D01*
X0031831Y0156296D02*
X0017657Y0156296D01*
X0017657Y0138974D01*
X0031831Y0138974D01*
X0031831Y0156296D01*
D17*
X0030453Y0150686D02*
X0019035Y0150686D01*
X0019035Y0144584D01*
X0030453Y0144584D01*
X0030453Y0150686D01*
X0026713Y0150686D02*
X0030453Y0146946D01*
X0028378Y0179954D02*
X0028378Y0186253D01*
X0039874Y0186253D01*
X0039874Y0179954D01*
X0028378Y0179954D01*
X0036134Y0186253D02*
X0039874Y0182513D01*
D18*
X0039874Y0181922D02*
X0028378Y0181922D01*
X0028378Y0184285D01*
X0039874Y0184285D01*
X0039874Y0181922D01*
X0039933Y0185663D02*
X0039933Y0190387D01*
X0030650Y0155312D02*
X0030650Y0149800D01*
X0030453Y0148422D02*
X0019035Y0148422D01*
X0019035Y0146848D01*
X0030453Y0146848D01*
X0030453Y0148422D01*
D19*
X0042587Y0134572D02*
X0042587Y0129060D01*
X0055185Y0129060D01*
X0055185Y0134572D01*
X0042587Y0134572D01*
X0045780Y0145411D02*
X0045780Y0150922D01*
X0058378Y0150922D01*
X0058378Y0145411D01*
X0045780Y0145411D01*
X0044661Y0117954D02*
X0027339Y0117954D01*
X0027339Y0112048D01*
X0044661Y0112048D01*
X0044661Y0117954D01*
X0061764Y0117954D01*
X0061764Y0082914D01*
X0061764Y0082521D02*
X0010736Y0082521D01*
X0010736Y0117954D01*
X0027339Y0117954D01*
X0027339Y0113623D02*
X0016067Y0113623D01*
X0016067Y0086852D01*
X0057933Y0086852D01*
X0057933Y0113623D01*
X0044661Y0113623D01*
X0043500Y0110663D02*
X0048500Y0110663D01*
D20*
X0046000Y0105237D03*
X0046000Y0095237D03*
X0036000Y0095237D03*
X0036000Y0105237D03*
X0026000Y0105237D03*
X0026000Y0105237D03*
X0026000Y0095237D03*
X0026000Y0095237D03*
D21*
X0046570Y0131836D03*
X0051170Y0131836D03*
X0049794Y0148146D03*
X0054394Y0148146D03*
D22*
X0036933Y0163367D03*
X0031933Y0163367D03*
X0018579Y0161076D03*
X0013579Y0161076D03*
X0051390Y0191914D03*
X0056390Y0191914D03*
D23*
X0069929Y0145987D03*
X0066229Y0138087D03*
X0073629Y0138087D03*
D24*
X0023587Y0130312D03*
X0023587Y0125391D03*
M02*
