G75*
%MOIN*%
%OFA0B0*%
%FSLAX25Y25*%
%IPPOS*%
%LPD*%
%AMOC8*
5,1,8,0,0,1.08239X$1,22.5*
%
%ADD10C,0.00000*%
D10*
X0007905Y0079458D02*
X0007905Y0197568D01*
X0086646Y0197568D01*
X0086646Y0079458D01*
X0007905Y0079458D01*
X0070504Y0089300D02*
X0070506Y0089458D01*
X0070512Y0089616D01*
X0070522Y0089774D01*
X0070536Y0089932D01*
X0070554Y0090089D01*
X0070575Y0090246D01*
X0070601Y0090402D01*
X0070631Y0090558D01*
X0070664Y0090713D01*
X0070702Y0090866D01*
X0070743Y0091019D01*
X0070788Y0091171D01*
X0070837Y0091322D01*
X0070890Y0091471D01*
X0070946Y0091619D01*
X0071006Y0091765D01*
X0071070Y0091910D01*
X0071138Y0092053D01*
X0071209Y0092195D01*
X0071283Y0092335D01*
X0071361Y0092472D01*
X0071443Y0092608D01*
X0071527Y0092742D01*
X0071616Y0092873D01*
X0071707Y0093002D01*
X0071802Y0093129D01*
X0071899Y0093254D01*
X0072000Y0093376D01*
X0072104Y0093495D01*
X0072211Y0093612D01*
X0072321Y0093726D01*
X0072434Y0093837D01*
X0072549Y0093946D01*
X0072667Y0094051D01*
X0072788Y0094153D01*
X0072911Y0094253D01*
X0073037Y0094349D01*
X0073165Y0094442D01*
X0073295Y0094532D01*
X0073428Y0094618D01*
X0073563Y0094702D01*
X0073699Y0094781D01*
X0073838Y0094858D01*
X0073979Y0094930D01*
X0074121Y0095000D01*
X0074265Y0095065D01*
X0074411Y0095127D01*
X0074558Y0095185D01*
X0074707Y0095240D01*
X0074857Y0095291D01*
X0075008Y0095338D01*
X0075160Y0095381D01*
X0075313Y0095420D01*
X0075468Y0095456D01*
X0075623Y0095487D01*
X0075779Y0095515D01*
X0075935Y0095539D01*
X0076092Y0095559D01*
X0076250Y0095575D01*
X0076407Y0095587D01*
X0076566Y0095595D01*
X0076724Y0095599D01*
X0076882Y0095599D01*
X0077040Y0095595D01*
X0077199Y0095587D01*
X0077356Y0095575D01*
X0077514Y0095559D01*
X0077671Y0095539D01*
X0077827Y0095515D01*
X0077983Y0095487D01*
X0078138Y0095456D01*
X0078293Y0095420D01*
X0078446Y0095381D01*
X0078598Y0095338D01*
X0078749Y0095291D01*
X0078899Y0095240D01*
X0079048Y0095185D01*
X0079195Y0095127D01*
X0079341Y0095065D01*
X0079485Y0095000D01*
X0079627Y0094930D01*
X0079768Y0094858D01*
X0079907Y0094781D01*
X0080043Y0094702D01*
X0080178Y0094618D01*
X0080311Y0094532D01*
X0080441Y0094442D01*
X0080569Y0094349D01*
X0080695Y0094253D01*
X0080818Y0094153D01*
X0080939Y0094051D01*
X0081057Y0093946D01*
X0081172Y0093837D01*
X0081285Y0093726D01*
X0081395Y0093612D01*
X0081502Y0093495D01*
X0081606Y0093376D01*
X0081707Y0093254D01*
X0081804Y0093129D01*
X0081899Y0093002D01*
X0081990Y0092873D01*
X0082079Y0092742D01*
X0082163Y0092608D01*
X0082245Y0092472D01*
X0082323Y0092335D01*
X0082397Y0092195D01*
X0082468Y0092053D01*
X0082536Y0091910D01*
X0082600Y0091765D01*
X0082660Y0091619D01*
X0082716Y0091471D01*
X0082769Y0091322D01*
X0082818Y0091171D01*
X0082863Y0091019D01*
X0082904Y0090866D01*
X0082942Y0090713D01*
X0082975Y0090558D01*
X0083005Y0090402D01*
X0083031Y0090246D01*
X0083052Y0090089D01*
X0083070Y0089932D01*
X0083084Y0089774D01*
X0083094Y0089616D01*
X0083100Y0089458D01*
X0083102Y0089300D01*
X0083100Y0089142D01*
X0083094Y0088984D01*
X0083084Y0088826D01*
X0083070Y0088668D01*
X0083052Y0088511D01*
X0083031Y0088354D01*
X0083005Y0088198D01*
X0082975Y0088042D01*
X0082942Y0087887D01*
X0082904Y0087734D01*
X0082863Y0087581D01*
X0082818Y0087429D01*
X0082769Y0087278D01*
X0082716Y0087129D01*
X0082660Y0086981D01*
X0082600Y0086835D01*
X0082536Y0086690D01*
X0082468Y0086547D01*
X0082397Y0086405D01*
X0082323Y0086265D01*
X0082245Y0086128D01*
X0082163Y0085992D01*
X0082079Y0085858D01*
X0081990Y0085727D01*
X0081899Y0085598D01*
X0081804Y0085471D01*
X0081707Y0085346D01*
X0081606Y0085224D01*
X0081502Y0085105D01*
X0081395Y0084988D01*
X0081285Y0084874D01*
X0081172Y0084763D01*
X0081057Y0084654D01*
X0080939Y0084549D01*
X0080818Y0084447D01*
X0080695Y0084347D01*
X0080569Y0084251D01*
X0080441Y0084158D01*
X0080311Y0084068D01*
X0080178Y0083982D01*
X0080043Y0083898D01*
X0079907Y0083819D01*
X0079768Y0083742D01*
X0079627Y0083670D01*
X0079485Y0083600D01*
X0079341Y0083535D01*
X0079195Y0083473D01*
X0079048Y0083415D01*
X0078899Y0083360D01*
X0078749Y0083309D01*
X0078598Y0083262D01*
X0078446Y0083219D01*
X0078293Y0083180D01*
X0078138Y0083144D01*
X0077983Y0083113D01*
X0077827Y0083085D01*
X0077671Y0083061D01*
X0077514Y0083041D01*
X0077356Y0083025D01*
X0077199Y0083013D01*
X0077040Y0083005D01*
X0076882Y0083001D01*
X0076724Y0083001D01*
X0076566Y0083005D01*
X0076407Y0083013D01*
X0076250Y0083025D01*
X0076092Y0083041D01*
X0075935Y0083061D01*
X0075779Y0083085D01*
X0075623Y0083113D01*
X0075468Y0083144D01*
X0075313Y0083180D01*
X0075160Y0083219D01*
X0075008Y0083262D01*
X0074857Y0083309D01*
X0074707Y0083360D01*
X0074558Y0083415D01*
X0074411Y0083473D01*
X0074265Y0083535D01*
X0074121Y0083600D01*
X0073979Y0083670D01*
X0073838Y0083742D01*
X0073699Y0083819D01*
X0073563Y0083898D01*
X0073428Y0083982D01*
X0073295Y0084068D01*
X0073165Y0084158D01*
X0073037Y0084251D01*
X0072911Y0084347D01*
X0072788Y0084447D01*
X0072667Y0084549D01*
X0072549Y0084654D01*
X0072434Y0084763D01*
X0072321Y0084874D01*
X0072211Y0084988D01*
X0072104Y0085105D01*
X0072000Y0085224D01*
X0071899Y0085346D01*
X0071802Y0085471D01*
X0071707Y0085598D01*
X0071616Y0085727D01*
X0071527Y0085858D01*
X0071443Y0085992D01*
X0071361Y0086128D01*
X0071283Y0086265D01*
X0071209Y0086405D01*
X0071138Y0086547D01*
X0071070Y0086690D01*
X0071006Y0086835D01*
X0070946Y0086981D01*
X0070890Y0087129D01*
X0070837Y0087278D01*
X0070788Y0087429D01*
X0070743Y0087581D01*
X0070702Y0087734D01*
X0070664Y0087887D01*
X0070631Y0088042D01*
X0070601Y0088198D01*
X0070575Y0088354D01*
X0070554Y0088511D01*
X0070536Y0088668D01*
X0070522Y0088826D01*
X0070512Y0088984D01*
X0070506Y0089142D01*
X0070504Y0089300D01*
X0011449Y0187726D02*
X0011451Y0187884D01*
X0011457Y0188042D01*
X0011467Y0188200D01*
X0011481Y0188358D01*
X0011499Y0188515D01*
X0011520Y0188672D01*
X0011546Y0188828D01*
X0011576Y0188984D01*
X0011609Y0189139D01*
X0011647Y0189292D01*
X0011688Y0189445D01*
X0011733Y0189597D01*
X0011782Y0189748D01*
X0011835Y0189897D01*
X0011891Y0190045D01*
X0011951Y0190191D01*
X0012015Y0190336D01*
X0012083Y0190479D01*
X0012154Y0190621D01*
X0012228Y0190761D01*
X0012306Y0190898D01*
X0012388Y0191034D01*
X0012472Y0191168D01*
X0012561Y0191299D01*
X0012652Y0191428D01*
X0012747Y0191555D01*
X0012844Y0191680D01*
X0012945Y0191802D01*
X0013049Y0191921D01*
X0013156Y0192038D01*
X0013266Y0192152D01*
X0013379Y0192263D01*
X0013494Y0192372D01*
X0013612Y0192477D01*
X0013733Y0192579D01*
X0013856Y0192679D01*
X0013982Y0192775D01*
X0014110Y0192868D01*
X0014240Y0192958D01*
X0014373Y0193044D01*
X0014508Y0193128D01*
X0014644Y0193207D01*
X0014783Y0193284D01*
X0014924Y0193356D01*
X0015066Y0193426D01*
X0015210Y0193491D01*
X0015356Y0193553D01*
X0015503Y0193611D01*
X0015652Y0193666D01*
X0015802Y0193717D01*
X0015953Y0193764D01*
X0016105Y0193807D01*
X0016258Y0193846D01*
X0016413Y0193882D01*
X0016568Y0193913D01*
X0016724Y0193941D01*
X0016880Y0193965D01*
X0017037Y0193985D01*
X0017195Y0194001D01*
X0017352Y0194013D01*
X0017511Y0194021D01*
X0017669Y0194025D01*
X0017827Y0194025D01*
X0017985Y0194021D01*
X0018144Y0194013D01*
X0018301Y0194001D01*
X0018459Y0193985D01*
X0018616Y0193965D01*
X0018772Y0193941D01*
X0018928Y0193913D01*
X0019083Y0193882D01*
X0019238Y0193846D01*
X0019391Y0193807D01*
X0019543Y0193764D01*
X0019694Y0193717D01*
X0019844Y0193666D01*
X0019993Y0193611D01*
X0020140Y0193553D01*
X0020286Y0193491D01*
X0020430Y0193426D01*
X0020572Y0193356D01*
X0020713Y0193284D01*
X0020852Y0193207D01*
X0020988Y0193128D01*
X0021123Y0193044D01*
X0021256Y0192958D01*
X0021386Y0192868D01*
X0021514Y0192775D01*
X0021640Y0192679D01*
X0021763Y0192579D01*
X0021884Y0192477D01*
X0022002Y0192372D01*
X0022117Y0192263D01*
X0022230Y0192152D01*
X0022340Y0192038D01*
X0022447Y0191921D01*
X0022551Y0191802D01*
X0022652Y0191680D01*
X0022749Y0191555D01*
X0022844Y0191428D01*
X0022935Y0191299D01*
X0023024Y0191168D01*
X0023108Y0191034D01*
X0023190Y0190898D01*
X0023268Y0190761D01*
X0023342Y0190621D01*
X0023413Y0190479D01*
X0023481Y0190336D01*
X0023545Y0190191D01*
X0023605Y0190045D01*
X0023661Y0189897D01*
X0023714Y0189748D01*
X0023763Y0189597D01*
X0023808Y0189445D01*
X0023849Y0189292D01*
X0023887Y0189139D01*
X0023920Y0188984D01*
X0023950Y0188828D01*
X0023976Y0188672D01*
X0023997Y0188515D01*
X0024015Y0188358D01*
X0024029Y0188200D01*
X0024039Y0188042D01*
X0024045Y0187884D01*
X0024047Y0187726D01*
X0024045Y0187568D01*
X0024039Y0187410D01*
X0024029Y0187252D01*
X0024015Y0187094D01*
X0023997Y0186937D01*
X0023976Y0186780D01*
X0023950Y0186624D01*
X0023920Y0186468D01*
X0023887Y0186313D01*
X0023849Y0186160D01*
X0023808Y0186007D01*
X0023763Y0185855D01*
X0023714Y0185704D01*
X0023661Y0185555D01*
X0023605Y0185407D01*
X0023545Y0185261D01*
X0023481Y0185116D01*
X0023413Y0184973D01*
X0023342Y0184831D01*
X0023268Y0184691D01*
X0023190Y0184554D01*
X0023108Y0184418D01*
X0023024Y0184284D01*
X0022935Y0184153D01*
X0022844Y0184024D01*
X0022749Y0183897D01*
X0022652Y0183772D01*
X0022551Y0183650D01*
X0022447Y0183531D01*
X0022340Y0183414D01*
X0022230Y0183300D01*
X0022117Y0183189D01*
X0022002Y0183080D01*
X0021884Y0182975D01*
X0021763Y0182873D01*
X0021640Y0182773D01*
X0021514Y0182677D01*
X0021386Y0182584D01*
X0021256Y0182494D01*
X0021123Y0182408D01*
X0020988Y0182324D01*
X0020852Y0182245D01*
X0020713Y0182168D01*
X0020572Y0182096D01*
X0020430Y0182026D01*
X0020286Y0181961D01*
X0020140Y0181899D01*
X0019993Y0181841D01*
X0019844Y0181786D01*
X0019694Y0181735D01*
X0019543Y0181688D01*
X0019391Y0181645D01*
X0019238Y0181606D01*
X0019083Y0181570D01*
X0018928Y0181539D01*
X0018772Y0181511D01*
X0018616Y0181487D01*
X0018459Y0181467D01*
X0018301Y0181451D01*
X0018144Y0181439D01*
X0017985Y0181431D01*
X0017827Y0181427D01*
X0017669Y0181427D01*
X0017511Y0181431D01*
X0017352Y0181439D01*
X0017195Y0181451D01*
X0017037Y0181467D01*
X0016880Y0181487D01*
X0016724Y0181511D01*
X0016568Y0181539D01*
X0016413Y0181570D01*
X0016258Y0181606D01*
X0016105Y0181645D01*
X0015953Y0181688D01*
X0015802Y0181735D01*
X0015652Y0181786D01*
X0015503Y0181841D01*
X0015356Y0181899D01*
X0015210Y0181961D01*
X0015066Y0182026D01*
X0014924Y0182096D01*
X0014783Y0182168D01*
X0014644Y0182245D01*
X0014508Y0182324D01*
X0014373Y0182408D01*
X0014240Y0182494D01*
X0014110Y0182584D01*
X0013982Y0182677D01*
X0013856Y0182773D01*
X0013733Y0182873D01*
X0013612Y0182975D01*
X0013494Y0183080D01*
X0013379Y0183189D01*
X0013266Y0183300D01*
X0013156Y0183414D01*
X0013049Y0183531D01*
X0012945Y0183650D01*
X0012844Y0183772D01*
X0012747Y0183897D01*
X0012652Y0184024D01*
X0012561Y0184153D01*
X0012472Y0184284D01*
X0012388Y0184418D01*
X0012306Y0184554D01*
X0012228Y0184691D01*
X0012154Y0184831D01*
X0012083Y0184973D01*
X0012015Y0185116D01*
X0011951Y0185261D01*
X0011891Y0185407D01*
X0011835Y0185555D01*
X0011782Y0185704D01*
X0011733Y0185855D01*
X0011688Y0186007D01*
X0011647Y0186160D01*
X0011609Y0186313D01*
X0011576Y0186468D01*
X0011546Y0186624D01*
X0011520Y0186780D01*
X0011499Y0186937D01*
X0011481Y0187094D01*
X0011467Y0187252D01*
X0011457Y0187410D01*
X0011451Y0187568D01*
X0011449Y0187726D01*
M02*
