G75*
%MOIN*%
%OFA0B0*%
%FSLAX25Y25*%
%IPPOS*%
%LPD*%
%AMOC8*
5,1,8,0,0,1.08239X$1,22.5*
%
%ADD10C,0.13398*%
%ADD11R,0.05131X0.04737*%
%ADD12R,0.04934X0.05052*%
%ADD13R,0.02965X0.05524*%
%ADD14R,0.08200X0.08200*%
%ADD15C,0.08200*%
%ADD16C,0.01969*%
%ADD17R,0.04737X0.05131*%
%ADD18R,0.04737X0.06312*%
%ADD19R,0.03162X0.06312*%
%ADD20R,0.05052X0.04934*%
%ADD21C,0.07800*%
%ADD22C,0.04000*%
D10*
X0076803Y0089300D03*
X0017748Y0187726D03*
D11*
X0038201Y0155265D03*
X0038201Y0148572D03*
X0048732Y0148166D03*
X0055425Y0148166D03*
X0047413Y0160619D03*
X0047413Y0167312D03*
X0047413Y0174084D03*
X0047413Y0180777D03*
X0080878Y0156560D03*
X0080878Y0149867D03*
X0081012Y0138655D03*
X0081012Y0131962D03*
X0078921Y0108344D03*
X0078921Y0101651D03*
X0069693Y0101651D03*
X0069693Y0108344D03*
X0052232Y0131816D03*
X0045539Y0131816D03*
X0014693Y0131344D03*
X0014693Y0124651D03*
X0012567Y0144163D03*
X0012567Y0150855D03*
D12*
X0012787Y0171052D03*
X0019677Y0171052D03*
X0037472Y0122852D03*
X0044362Y0122852D03*
X0053346Y0122895D03*
X0060236Y0122895D03*
X0066468Y0128887D03*
X0073358Y0128887D03*
X0071803Y0191836D03*
X0064913Y0191836D03*
D13*
X0037866Y0188025D03*
X0034126Y0188025D03*
X0030386Y0188025D03*
X0030386Y0178182D03*
X0037866Y0178182D03*
D14*
X0046000Y0105237D03*
D15*
X0046000Y0095237D03*
X0036000Y0095237D03*
X0036000Y0105237D03*
X0026000Y0105237D03*
X0026000Y0095237D03*
D16*
X0062393Y0084792D02*
X0062395Y0084684D01*
X0062401Y0084576D01*
X0062411Y0084469D01*
X0062424Y0084362D01*
X0062442Y0084256D01*
X0062464Y0084150D01*
X0062489Y0084045D01*
X0062518Y0083941D01*
X0062551Y0083839D01*
X0062588Y0083737D01*
X0062628Y0083637D01*
X0062672Y0083539D01*
X0062720Y0083442D01*
X0062771Y0083347D01*
X0062825Y0083254D01*
X0062883Y0083163D01*
X0062944Y0083074D01*
X0063009Y0082987D01*
X0063076Y0082903D01*
X0063147Y0082821D01*
X0063220Y0082742D01*
X0063296Y0082666D01*
X0063375Y0082593D01*
X0063457Y0082522D01*
X0063541Y0082455D01*
X0063628Y0082390D01*
X0063717Y0082329D01*
X0063808Y0082271D01*
X0063901Y0082217D01*
X0063996Y0082166D01*
X0064093Y0082118D01*
X0064191Y0082074D01*
X0064291Y0082034D01*
X0064393Y0081997D01*
X0064495Y0081964D01*
X0064599Y0081935D01*
X0064704Y0081910D01*
X0064810Y0081888D01*
X0064916Y0081870D01*
X0065023Y0081857D01*
X0065130Y0081847D01*
X0065238Y0081841D01*
X0065346Y0081839D01*
X0065454Y0081841D01*
X0065562Y0081847D01*
X0065669Y0081857D01*
X0065776Y0081870D01*
X0065882Y0081888D01*
X0065988Y0081910D01*
X0066093Y0081935D01*
X0066197Y0081964D01*
X0066299Y0081997D01*
X0066401Y0082034D01*
X0066501Y0082074D01*
X0066599Y0082118D01*
X0066696Y0082166D01*
X0066791Y0082217D01*
X0066884Y0082271D01*
X0066975Y0082329D01*
X0067064Y0082390D01*
X0067151Y0082455D01*
X0067235Y0082522D01*
X0067317Y0082593D01*
X0067396Y0082666D01*
X0067472Y0082742D01*
X0067545Y0082821D01*
X0067616Y0082903D01*
X0067683Y0082987D01*
X0067748Y0083074D01*
X0067809Y0083163D01*
X0067867Y0083254D01*
X0067921Y0083347D01*
X0067972Y0083442D01*
X0068020Y0083539D01*
X0068064Y0083637D01*
X0068104Y0083737D01*
X0068141Y0083839D01*
X0068174Y0083941D01*
X0068203Y0084045D01*
X0068228Y0084150D01*
X0068250Y0084256D01*
X0068268Y0084362D01*
X0068281Y0084469D01*
X0068291Y0084576D01*
X0068297Y0084684D01*
X0068299Y0084792D01*
X0068297Y0084900D01*
X0068291Y0085008D01*
X0068281Y0085115D01*
X0068268Y0085222D01*
X0068250Y0085328D01*
X0068228Y0085434D01*
X0068203Y0085539D01*
X0068174Y0085643D01*
X0068141Y0085745D01*
X0068104Y0085847D01*
X0068064Y0085947D01*
X0068020Y0086045D01*
X0067972Y0086142D01*
X0067921Y0086237D01*
X0067867Y0086330D01*
X0067809Y0086421D01*
X0067748Y0086510D01*
X0067683Y0086597D01*
X0067616Y0086681D01*
X0067545Y0086763D01*
X0067472Y0086842D01*
X0067396Y0086918D01*
X0067317Y0086991D01*
X0067235Y0087062D01*
X0067151Y0087129D01*
X0067064Y0087194D01*
X0066975Y0087255D01*
X0066884Y0087313D01*
X0066791Y0087367D01*
X0066696Y0087418D01*
X0066599Y0087466D01*
X0066501Y0087510D01*
X0066401Y0087550D01*
X0066299Y0087587D01*
X0066197Y0087620D01*
X0066093Y0087649D01*
X0065988Y0087674D01*
X0065882Y0087696D01*
X0065776Y0087714D01*
X0065669Y0087727D01*
X0065562Y0087737D01*
X0065454Y0087743D01*
X0065346Y0087745D01*
X0065238Y0087743D01*
X0065130Y0087737D01*
X0065023Y0087727D01*
X0064916Y0087714D01*
X0064810Y0087696D01*
X0064704Y0087674D01*
X0064599Y0087649D01*
X0064495Y0087620D01*
X0064393Y0087587D01*
X0064291Y0087550D01*
X0064191Y0087510D01*
X0064093Y0087466D01*
X0063996Y0087418D01*
X0063901Y0087367D01*
X0063808Y0087313D01*
X0063717Y0087255D01*
X0063628Y0087194D01*
X0063541Y0087129D01*
X0063457Y0087062D01*
X0063375Y0086991D01*
X0063296Y0086918D01*
X0063220Y0086842D01*
X0063147Y0086763D01*
X0063076Y0086681D01*
X0063009Y0086597D01*
X0062944Y0086510D01*
X0062883Y0086421D01*
X0062825Y0086330D01*
X0062771Y0086237D01*
X0062720Y0086142D01*
X0062672Y0086045D01*
X0062628Y0085947D01*
X0062588Y0085847D01*
X0062551Y0085745D01*
X0062518Y0085643D01*
X0062489Y0085539D01*
X0062464Y0085434D01*
X0062442Y0085328D01*
X0062424Y0085222D01*
X0062411Y0085115D01*
X0062401Y0085008D01*
X0062395Y0084900D01*
X0062393Y0084792D01*
X0020150Y0174615D02*
X0020042Y0174617D01*
X0019934Y0174623D01*
X0019827Y0174633D01*
X0019720Y0174646D01*
X0019614Y0174664D01*
X0019508Y0174686D01*
X0019403Y0174711D01*
X0019299Y0174740D01*
X0019197Y0174773D01*
X0019095Y0174810D01*
X0018995Y0174850D01*
X0018897Y0174894D01*
X0018800Y0174942D01*
X0018705Y0174993D01*
X0018612Y0175047D01*
X0018521Y0175105D01*
X0018432Y0175166D01*
X0018345Y0175231D01*
X0018261Y0175298D01*
X0018179Y0175369D01*
X0018100Y0175442D01*
X0018024Y0175518D01*
X0017951Y0175597D01*
X0017880Y0175679D01*
X0017813Y0175763D01*
X0017748Y0175850D01*
X0017687Y0175939D01*
X0017629Y0176030D01*
X0017575Y0176123D01*
X0017524Y0176218D01*
X0017476Y0176315D01*
X0017432Y0176413D01*
X0017392Y0176513D01*
X0017355Y0176615D01*
X0017322Y0176717D01*
X0017293Y0176821D01*
X0017268Y0176926D01*
X0017246Y0177032D01*
X0017228Y0177138D01*
X0017215Y0177245D01*
X0017205Y0177352D01*
X0017199Y0177460D01*
X0017197Y0177568D01*
X0020150Y0174615D02*
X0020258Y0174617D01*
X0020366Y0174623D01*
X0020473Y0174633D01*
X0020580Y0174646D01*
X0020686Y0174664D01*
X0020792Y0174686D01*
X0020897Y0174711D01*
X0021001Y0174740D01*
X0021103Y0174773D01*
X0021205Y0174810D01*
X0021305Y0174850D01*
X0021403Y0174894D01*
X0021500Y0174942D01*
X0021595Y0174993D01*
X0021688Y0175047D01*
X0021779Y0175105D01*
X0021868Y0175166D01*
X0021955Y0175231D01*
X0022039Y0175298D01*
X0022121Y0175369D01*
X0022200Y0175442D01*
X0022276Y0175518D01*
X0022349Y0175597D01*
X0022420Y0175679D01*
X0022487Y0175763D01*
X0022552Y0175850D01*
X0022613Y0175939D01*
X0022671Y0176030D01*
X0022725Y0176123D01*
X0022776Y0176218D01*
X0022824Y0176315D01*
X0022868Y0176413D01*
X0022908Y0176513D01*
X0022945Y0176615D01*
X0022978Y0176717D01*
X0023007Y0176821D01*
X0023032Y0176926D01*
X0023054Y0177032D01*
X0023072Y0177138D01*
X0023085Y0177245D01*
X0023095Y0177352D01*
X0023101Y0177460D01*
X0023103Y0177568D01*
X0023101Y0177676D01*
X0023095Y0177784D01*
X0023085Y0177891D01*
X0023072Y0177998D01*
X0023054Y0178104D01*
X0023032Y0178210D01*
X0023007Y0178315D01*
X0022978Y0178419D01*
X0022945Y0178521D01*
X0022908Y0178623D01*
X0022868Y0178723D01*
X0022824Y0178821D01*
X0022776Y0178918D01*
X0022725Y0179013D01*
X0022671Y0179106D01*
X0022613Y0179197D01*
X0022552Y0179286D01*
X0022487Y0179373D01*
X0022420Y0179457D01*
X0022349Y0179539D01*
X0022276Y0179618D01*
X0022200Y0179694D01*
X0022121Y0179767D01*
X0022039Y0179838D01*
X0021955Y0179905D01*
X0021868Y0179970D01*
X0021779Y0180031D01*
X0021688Y0180089D01*
X0021595Y0180143D01*
X0021500Y0180194D01*
X0021403Y0180242D01*
X0021305Y0180286D01*
X0021205Y0180326D01*
X0021103Y0180363D01*
X0021001Y0180396D01*
X0020897Y0180425D01*
X0020792Y0180450D01*
X0020686Y0180472D01*
X0020580Y0180490D01*
X0020473Y0180503D01*
X0020366Y0180513D01*
X0020258Y0180519D01*
X0020150Y0180521D01*
X0020042Y0180519D01*
X0019934Y0180513D01*
X0019827Y0180503D01*
X0019720Y0180490D01*
X0019614Y0180472D01*
X0019508Y0180450D01*
X0019403Y0180425D01*
X0019299Y0180396D01*
X0019197Y0180363D01*
X0019095Y0180326D01*
X0018995Y0180286D01*
X0018897Y0180242D01*
X0018800Y0180194D01*
X0018705Y0180143D01*
X0018612Y0180089D01*
X0018521Y0180031D01*
X0018432Y0179970D01*
X0018345Y0179905D01*
X0018261Y0179838D01*
X0018179Y0179767D01*
X0018100Y0179694D01*
X0018024Y0179618D01*
X0017951Y0179539D01*
X0017880Y0179457D01*
X0017813Y0179373D01*
X0017748Y0179286D01*
X0017687Y0179197D01*
X0017629Y0179106D01*
X0017575Y0179013D01*
X0017524Y0178918D01*
X0017476Y0178821D01*
X0017432Y0178723D01*
X0017392Y0178623D01*
X0017355Y0178521D01*
X0017322Y0178419D01*
X0017293Y0178315D01*
X0017268Y0178210D01*
X0017246Y0178104D01*
X0017228Y0177998D01*
X0017215Y0177891D01*
X0017205Y0177784D01*
X0017199Y0177676D01*
X0017197Y0177568D01*
X0079460Y0193395D02*
X0079462Y0193287D01*
X0079468Y0193179D01*
X0079478Y0193072D01*
X0079491Y0192965D01*
X0079509Y0192859D01*
X0079531Y0192753D01*
X0079556Y0192648D01*
X0079585Y0192544D01*
X0079618Y0192442D01*
X0079655Y0192340D01*
X0079695Y0192240D01*
X0079739Y0192142D01*
X0079787Y0192045D01*
X0079838Y0191950D01*
X0079892Y0191857D01*
X0079950Y0191766D01*
X0080011Y0191677D01*
X0080076Y0191590D01*
X0080143Y0191506D01*
X0080214Y0191424D01*
X0080287Y0191345D01*
X0080363Y0191269D01*
X0080442Y0191196D01*
X0080524Y0191125D01*
X0080608Y0191058D01*
X0080695Y0190993D01*
X0080784Y0190932D01*
X0080875Y0190874D01*
X0080968Y0190820D01*
X0081063Y0190769D01*
X0081160Y0190721D01*
X0081258Y0190677D01*
X0081358Y0190637D01*
X0081460Y0190600D01*
X0081562Y0190567D01*
X0081666Y0190538D01*
X0081771Y0190513D01*
X0081877Y0190491D01*
X0081983Y0190473D01*
X0082090Y0190460D01*
X0082197Y0190450D01*
X0082305Y0190444D01*
X0082413Y0190442D01*
X0082521Y0190444D01*
X0082629Y0190450D01*
X0082736Y0190460D01*
X0082843Y0190473D01*
X0082949Y0190491D01*
X0083055Y0190513D01*
X0083160Y0190538D01*
X0083264Y0190567D01*
X0083366Y0190600D01*
X0083468Y0190637D01*
X0083568Y0190677D01*
X0083666Y0190721D01*
X0083763Y0190769D01*
X0083858Y0190820D01*
X0083951Y0190874D01*
X0084042Y0190932D01*
X0084131Y0190993D01*
X0084218Y0191058D01*
X0084302Y0191125D01*
X0084384Y0191196D01*
X0084463Y0191269D01*
X0084539Y0191345D01*
X0084612Y0191424D01*
X0084683Y0191506D01*
X0084750Y0191590D01*
X0084815Y0191677D01*
X0084876Y0191766D01*
X0084934Y0191857D01*
X0084988Y0191950D01*
X0085039Y0192045D01*
X0085087Y0192142D01*
X0085131Y0192240D01*
X0085171Y0192340D01*
X0085208Y0192442D01*
X0085241Y0192544D01*
X0085270Y0192648D01*
X0085295Y0192753D01*
X0085317Y0192859D01*
X0085335Y0192965D01*
X0085348Y0193072D01*
X0085358Y0193179D01*
X0085364Y0193287D01*
X0085366Y0193395D01*
X0085364Y0193503D01*
X0085358Y0193611D01*
X0085348Y0193718D01*
X0085335Y0193825D01*
X0085317Y0193931D01*
X0085295Y0194037D01*
X0085270Y0194142D01*
X0085241Y0194246D01*
X0085208Y0194348D01*
X0085171Y0194450D01*
X0085131Y0194550D01*
X0085087Y0194648D01*
X0085039Y0194745D01*
X0084988Y0194840D01*
X0084934Y0194933D01*
X0084876Y0195024D01*
X0084815Y0195113D01*
X0084750Y0195200D01*
X0084683Y0195284D01*
X0084612Y0195366D01*
X0084539Y0195445D01*
X0084463Y0195521D01*
X0084384Y0195594D01*
X0084302Y0195665D01*
X0084218Y0195732D01*
X0084131Y0195797D01*
X0084042Y0195858D01*
X0083951Y0195916D01*
X0083858Y0195970D01*
X0083763Y0196021D01*
X0083666Y0196069D01*
X0083568Y0196113D01*
X0083468Y0196153D01*
X0083366Y0196190D01*
X0083264Y0196223D01*
X0083160Y0196252D01*
X0083055Y0196277D01*
X0082949Y0196299D01*
X0082843Y0196317D01*
X0082736Y0196330D01*
X0082629Y0196340D01*
X0082521Y0196346D01*
X0082413Y0196348D01*
X0082305Y0196346D01*
X0082197Y0196340D01*
X0082090Y0196330D01*
X0081983Y0196317D01*
X0081877Y0196299D01*
X0081771Y0196277D01*
X0081666Y0196252D01*
X0081562Y0196223D01*
X0081460Y0196190D01*
X0081358Y0196153D01*
X0081258Y0196113D01*
X0081160Y0196069D01*
X0081063Y0196021D01*
X0080968Y0195970D01*
X0080875Y0195916D01*
X0080784Y0195858D01*
X0080695Y0195797D01*
X0080608Y0195732D01*
X0080524Y0195665D01*
X0080442Y0195594D01*
X0080363Y0195521D01*
X0080287Y0195445D01*
X0080214Y0195366D01*
X0080143Y0195284D01*
X0080076Y0195200D01*
X0080011Y0195113D01*
X0079950Y0195024D01*
X0079892Y0194933D01*
X0079838Y0194840D01*
X0079787Y0194745D01*
X0079739Y0194648D01*
X0079695Y0194550D01*
X0079655Y0194450D01*
X0079618Y0194348D01*
X0079585Y0194246D01*
X0079556Y0194142D01*
X0079531Y0194037D01*
X0079509Y0193931D01*
X0079491Y0193825D01*
X0079478Y0193718D01*
X0079468Y0193611D01*
X0079462Y0193503D01*
X0079460Y0193395D01*
D17*
X0057236Y0191914D03*
X0050543Y0191914D03*
X0037780Y0163367D03*
X0031087Y0163367D03*
X0019425Y0161076D03*
X0012732Y0161076D03*
D18*
X0066189Y0137706D03*
X0069929Y0146367D03*
X0073669Y0137706D03*
D19*
X0028484Y0142714D03*
X0028484Y0152556D03*
X0024744Y0152556D03*
X0021004Y0152556D03*
X0021004Y0142714D03*
D20*
X0023587Y0131296D03*
X0023587Y0124407D03*
D21*
X0058043Y0163611D03*
X0058043Y0177785D03*
X0072217Y0177785D03*
X0072217Y0163611D03*
D22*
X0080366Y0166092D03*
X0064598Y0186289D03*
X0044579Y0186997D03*
X0042157Y0172371D03*
X0030405Y0170698D03*
X0025799Y0164852D03*
X0012689Y0177430D03*
X0038201Y0142529D03*
X0028634Y0134556D03*
X0014992Y0137922D03*
X0026016Y0116859D03*
X0053575Y0114497D03*
X0059874Y0131033D03*
X0058043Y0139694D03*
X0076291Y0122863D03*
X0069736Y0116663D03*
X0082492Y0115954D03*
X0055150Y0087726D03*
M02*
