G75*
%MOIN*%
%OFA0B0*%
%FSLAX25Y25*%
%IPPOS*%
%LPD*%
%AMOC8*
5,1,8,0,0,1.08239X$1,22.5*
%
%ADD10C,0.00000*%
%ADD11C,0.00300*%
%ADD12C,0.00354*%
%ADD13C,0.00500*%
%ADD14C,0.02400*%
%ADD15C,0.01000*%
%ADD16C,0.00800*%
%ADD17C,0.07000*%
%ADD18C,0.00400*%
D10*
X0007905Y0079458D02*
X0007905Y0197568D01*
X0086646Y0197568D01*
X0086646Y0079458D01*
X0007905Y0079458D01*
X0070504Y0089300D02*
X0070506Y0089458D01*
X0070512Y0089616D01*
X0070522Y0089774D01*
X0070536Y0089932D01*
X0070554Y0090089D01*
X0070575Y0090246D01*
X0070601Y0090402D01*
X0070631Y0090558D01*
X0070664Y0090713D01*
X0070702Y0090866D01*
X0070743Y0091019D01*
X0070788Y0091171D01*
X0070837Y0091322D01*
X0070890Y0091471D01*
X0070946Y0091619D01*
X0071006Y0091765D01*
X0071070Y0091910D01*
X0071138Y0092053D01*
X0071209Y0092195D01*
X0071283Y0092335D01*
X0071361Y0092472D01*
X0071443Y0092608D01*
X0071527Y0092742D01*
X0071616Y0092873D01*
X0071707Y0093002D01*
X0071802Y0093129D01*
X0071899Y0093254D01*
X0072000Y0093376D01*
X0072104Y0093495D01*
X0072211Y0093612D01*
X0072321Y0093726D01*
X0072434Y0093837D01*
X0072549Y0093946D01*
X0072667Y0094051D01*
X0072788Y0094153D01*
X0072911Y0094253D01*
X0073037Y0094349D01*
X0073165Y0094442D01*
X0073295Y0094532D01*
X0073428Y0094618D01*
X0073563Y0094702D01*
X0073699Y0094781D01*
X0073838Y0094858D01*
X0073979Y0094930D01*
X0074121Y0095000D01*
X0074265Y0095065D01*
X0074411Y0095127D01*
X0074558Y0095185D01*
X0074707Y0095240D01*
X0074857Y0095291D01*
X0075008Y0095338D01*
X0075160Y0095381D01*
X0075313Y0095420D01*
X0075468Y0095456D01*
X0075623Y0095487D01*
X0075779Y0095515D01*
X0075935Y0095539D01*
X0076092Y0095559D01*
X0076250Y0095575D01*
X0076407Y0095587D01*
X0076566Y0095595D01*
X0076724Y0095599D01*
X0076882Y0095599D01*
X0077040Y0095595D01*
X0077199Y0095587D01*
X0077356Y0095575D01*
X0077514Y0095559D01*
X0077671Y0095539D01*
X0077827Y0095515D01*
X0077983Y0095487D01*
X0078138Y0095456D01*
X0078293Y0095420D01*
X0078446Y0095381D01*
X0078598Y0095338D01*
X0078749Y0095291D01*
X0078899Y0095240D01*
X0079048Y0095185D01*
X0079195Y0095127D01*
X0079341Y0095065D01*
X0079485Y0095000D01*
X0079627Y0094930D01*
X0079768Y0094858D01*
X0079907Y0094781D01*
X0080043Y0094702D01*
X0080178Y0094618D01*
X0080311Y0094532D01*
X0080441Y0094442D01*
X0080569Y0094349D01*
X0080695Y0094253D01*
X0080818Y0094153D01*
X0080939Y0094051D01*
X0081057Y0093946D01*
X0081172Y0093837D01*
X0081285Y0093726D01*
X0081395Y0093612D01*
X0081502Y0093495D01*
X0081606Y0093376D01*
X0081707Y0093254D01*
X0081804Y0093129D01*
X0081899Y0093002D01*
X0081990Y0092873D01*
X0082079Y0092742D01*
X0082163Y0092608D01*
X0082245Y0092472D01*
X0082323Y0092335D01*
X0082397Y0092195D01*
X0082468Y0092053D01*
X0082536Y0091910D01*
X0082600Y0091765D01*
X0082660Y0091619D01*
X0082716Y0091471D01*
X0082769Y0091322D01*
X0082818Y0091171D01*
X0082863Y0091019D01*
X0082904Y0090866D01*
X0082942Y0090713D01*
X0082975Y0090558D01*
X0083005Y0090402D01*
X0083031Y0090246D01*
X0083052Y0090089D01*
X0083070Y0089932D01*
X0083084Y0089774D01*
X0083094Y0089616D01*
X0083100Y0089458D01*
X0083102Y0089300D01*
X0083100Y0089142D01*
X0083094Y0088984D01*
X0083084Y0088826D01*
X0083070Y0088668D01*
X0083052Y0088511D01*
X0083031Y0088354D01*
X0083005Y0088198D01*
X0082975Y0088042D01*
X0082942Y0087887D01*
X0082904Y0087734D01*
X0082863Y0087581D01*
X0082818Y0087429D01*
X0082769Y0087278D01*
X0082716Y0087129D01*
X0082660Y0086981D01*
X0082600Y0086835D01*
X0082536Y0086690D01*
X0082468Y0086547D01*
X0082397Y0086405D01*
X0082323Y0086265D01*
X0082245Y0086128D01*
X0082163Y0085992D01*
X0082079Y0085858D01*
X0081990Y0085727D01*
X0081899Y0085598D01*
X0081804Y0085471D01*
X0081707Y0085346D01*
X0081606Y0085224D01*
X0081502Y0085105D01*
X0081395Y0084988D01*
X0081285Y0084874D01*
X0081172Y0084763D01*
X0081057Y0084654D01*
X0080939Y0084549D01*
X0080818Y0084447D01*
X0080695Y0084347D01*
X0080569Y0084251D01*
X0080441Y0084158D01*
X0080311Y0084068D01*
X0080178Y0083982D01*
X0080043Y0083898D01*
X0079907Y0083819D01*
X0079768Y0083742D01*
X0079627Y0083670D01*
X0079485Y0083600D01*
X0079341Y0083535D01*
X0079195Y0083473D01*
X0079048Y0083415D01*
X0078899Y0083360D01*
X0078749Y0083309D01*
X0078598Y0083262D01*
X0078446Y0083219D01*
X0078293Y0083180D01*
X0078138Y0083144D01*
X0077983Y0083113D01*
X0077827Y0083085D01*
X0077671Y0083061D01*
X0077514Y0083041D01*
X0077356Y0083025D01*
X0077199Y0083013D01*
X0077040Y0083005D01*
X0076882Y0083001D01*
X0076724Y0083001D01*
X0076566Y0083005D01*
X0076407Y0083013D01*
X0076250Y0083025D01*
X0076092Y0083041D01*
X0075935Y0083061D01*
X0075779Y0083085D01*
X0075623Y0083113D01*
X0075468Y0083144D01*
X0075313Y0083180D01*
X0075160Y0083219D01*
X0075008Y0083262D01*
X0074857Y0083309D01*
X0074707Y0083360D01*
X0074558Y0083415D01*
X0074411Y0083473D01*
X0074265Y0083535D01*
X0074121Y0083600D01*
X0073979Y0083670D01*
X0073838Y0083742D01*
X0073699Y0083819D01*
X0073563Y0083898D01*
X0073428Y0083982D01*
X0073295Y0084068D01*
X0073165Y0084158D01*
X0073037Y0084251D01*
X0072911Y0084347D01*
X0072788Y0084447D01*
X0072667Y0084549D01*
X0072549Y0084654D01*
X0072434Y0084763D01*
X0072321Y0084874D01*
X0072211Y0084988D01*
X0072104Y0085105D01*
X0072000Y0085224D01*
X0071899Y0085346D01*
X0071802Y0085471D01*
X0071707Y0085598D01*
X0071616Y0085727D01*
X0071527Y0085858D01*
X0071443Y0085992D01*
X0071361Y0086128D01*
X0071283Y0086265D01*
X0071209Y0086405D01*
X0071138Y0086547D01*
X0071070Y0086690D01*
X0071006Y0086835D01*
X0070946Y0086981D01*
X0070890Y0087129D01*
X0070837Y0087278D01*
X0070788Y0087429D01*
X0070743Y0087581D01*
X0070702Y0087734D01*
X0070664Y0087887D01*
X0070631Y0088042D01*
X0070601Y0088198D01*
X0070575Y0088354D01*
X0070554Y0088511D01*
X0070536Y0088668D01*
X0070522Y0088826D01*
X0070512Y0088984D01*
X0070506Y0089142D01*
X0070504Y0089300D01*
X0011449Y0187726D02*
X0011451Y0187884D01*
X0011457Y0188042D01*
X0011467Y0188200D01*
X0011481Y0188358D01*
X0011499Y0188515D01*
X0011520Y0188672D01*
X0011546Y0188828D01*
X0011576Y0188984D01*
X0011609Y0189139D01*
X0011647Y0189292D01*
X0011688Y0189445D01*
X0011733Y0189597D01*
X0011782Y0189748D01*
X0011835Y0189897D01*
X0011891Y0190045D01*
X0011951Y0190191D01*
X0012015Y0190336D01*
X0012083Y0190479D01*
X0012154Y0190621D01*
X0012228Y0190761D01*
X0012306Y0190898D01*
X0012388Y0191034D01*
X0012472Y0191168D01*
X0012561Y0191299D01*
X0012652Y0191428D01*
X0012747Y0191555D01*
X0012844Y0191680D01*
X0012945Y0191802D01*
X0013049Y0191921D01*
X0013156Y0192038D01*
X0013266Y0192152D01*
X0013379Y0192263D01*
X0013494Y0192372D01*
X0013612Y0192477D01*
X0013733Y0192579D01*
X0013856Y0192679D01*
X0013982Y0192775D01*
X0014110Y0192868D01*
X0014240Y0192958D01*
X0014373Y0193044D01*
X0014508Y0193128D01*
X0014644Y0193207D01*
X0014783Y0193284D01*
X0014924Y0193356D01*
X0015066Y0193426D01*
X0015210Y0193491D01*
X0015356Y0193553D01*
X0015503Y0193611D01*
X0015652Y0193666D01*
X0015802Y0193717D01*
X0015953Y0193764D01*
X0016105Y0193807D01*
X0016258Y0193846D01*
X0016413Y0193882D01*
X0016568Y0193913D01*
X0016724Y0193941D01*
X0016880Y0193965D01*
X0017037Y0193985D01*
X0017195Y0194001D01*
X0017352Y0194013D01*
X0017511Y0194021D01*
X0017669Y0194025D01*
X0017827Y0194025D01*
X0017985Y0194021D01*
X0018144Y0194013D01*
X0018301Y0194001D01*
X0018459Y0193985D01*
X0018616Y0193965D01*
X0018772Y0193941D01*
X0018928Y0193913D01*
X0019083Y0193882D01*
X0019238Y0193846D01*
X0019391Y0193807D01*
X0019543Y0193764D01*
X0019694Y0193717D01*
X0019844Y0193666D01*
X0019993Y0193611D01*
X0020140Y0193553D01*
X0020286Y0193491D01*
X0020430Y0193426D01*
X0020572Y0193356D01*
X0020713Y0193284D01*
X0020852Y0193207D01*
X0020988Y0193128D01*
X0021123Y0193044D01*
X0021256Y0192958D01*
X0021386Y0192868D01*
X0021514Y0192775D01*
X0021640Y0192679D01*
X0021763Y0192579D01*
X0021884Y0192477D01*
X0022002Y0192372D01*
X0022117Y0192263D01*
X0022230Y0192152D01*
X0022340Y0192038D01*
X0022447Y0191921D01*
X0022551Y0191802D01*
X0022652Y0191680D01*
X0022749Y0191555D01*
X0022844Y0191428D01*
X0022935Y0191299D01*
X0023024Y0191168D01*
X0023108Y0191034D01*
X0023190Y0190898D01*
X0023268Y0190761D01*
X0023342Y0190621D01*
X0023413Y0190479D01*
X0023481Y0190336D01*
X0023545Y0190191D01*
X0023605Y0190045D01*
X0023661Y0189897D01*
X0023714Y0189748D01*
X0023763Y0189597D01*
X0023808Y0189445D01*
X0023849Y0189292D01*
X0023887Y0189139D01*
X0023920Y0188984D01*
X0023950Y0188828D01*
X0023976Y0188672D01*
X0023997Y0188515D01*
X0024015Y0188358D01*
X0024029Y0188200D01*
X0024039Y0188042D01*
X0024045Y0187884D01*
X0024047Y0187726D01*
X0024045Y0187568D01*
X0024039Y0187410D01*
X0024029Y0187252D01*
X0024015Y0187094D01*
X0023997Y0186937D01*
X0023976Y0186780D01*
X0023950Y0186624D01*
X0023920Y0186468D01*
X0023887Y0186313D01*
X0023849Y0186160D01*
X0023808Y0186007D01*
X0023763Y0185855D01*
X0023714Y0185704D01*
X0023661Y0185555D01*
X0023605Y0185407D01*
X0023545Y0185261D01*
X0023481Y0185116D01*
X0023413Y0184973D01*
X0023342Y0184831D01*
X0023268Y0184691D01*
X0023190Y0184554D01*
X0023108Y0184418D01*
X0023024Y0184284D01*
X0022935Y0184153D01*
X0022844Y0184024D01*
X0022749Y0183897D01*
X0022652Y0183772D01*
X0022551Y0183650D01*
X0022447Y0183531D01*
X0022340Y0183414D01*
X0022230Y0183300D01*
X0022117Y0183189D01*
X0022002Y0183080D01*
X0021884Y0182975D01*
X0021763Y0182873D01*
X0021640Y0182773D01*
X0021514Y0182677D01*
X0021386Y0182584D01*
X0021256Y0182494D01*
X0021123Y0182408D01*
X0020988Y0182324D01*
X0020852Y0182245D01*
X0020713Y0182168D01*
X0020572Y0182096D01*
X0020430Y0182026D01*
X0020286Y0181961D01*
X0020140Y0181899D01*
X0019993Y0181841D01*
X0019844Y0181786D01*
X0019694Y0181735D01*
X0019543Y0181688D01*
X0019391Y0181645D01*
X0019238Y0181606D01*
X0019083Y0181570D01*
X0018928Y0181539D01*
X0018772Y0181511D01*
X0018616Y0181487D01*
X0018459Y0181467D01*
X0018301Y0181451D01*
X0018144Y0181439D01*
X0017985Y0181431D01*
X0017827Y0181427D01*
X0017669Y0181427D01*
X0017511Y0181431D01*
X0017352Y0181439D01*
X0017195Y0181451D01*
X0017037Y0181467D01*
X0016880Y0181487D01*
X0016724Y0181511D01*
X0016568Y0181539D01*
X0016413Y0181570D01*
X0016258Y0181606D01*
X0016105Y0181645D01*
X0015953Y0181688D01*
X0015802Y0181735D01*
X0015652Y0181786D01*
X0015503Y0181841D01*
X0015356Y0181899D01*
X0015210Y0181961D01*
X0015066Y0182026D01*
X0014924Y0182096D01*
X0014783Y0182168D01*
X0014644Y0182245D01*
X0014508Y0182324D01*
X0014373Y0182408D01*
X0014240Y0182494D01*
X0014110Y0182584D01*
X0013982Y0182677D01*
X0013856Y0182773D01*
X0013733Y0182873D01*
X0013612Y0182975D01*
X0013494Y0183080D01*
X0013379Y0183189D01*
X0013266Y0183300D01*
X0013156Y0183414D01*
X0013049Y0183531D01*
X0012945Y0183650D01*
X0012844Y0183772D01*
X0012747Y0183897D01*
X0012652Y0184024D01*
X0012561Y0184153D01*
X0012472Y0184284D01*
X0012388Y0184418D01*
X0012306Y0184554D01*
X0012228Y0184691D01*
X0012154Y0184831D01*
X0012083Y0184973D01*
X0012015Y0185116D01*
X0011951Y0185261D01*
X0011891Y0185407D01*
X0011835Y0185555D01*
X0011782Y0185704D01*
X0011733Y0185855D01*
X0011688Y0186007D01*
X0011647Y0186160D01*
X0011609Y0186313D01*
X0011576Y0186468D01*
X0011546Y0186624D01*
X0011520Y0186780D01*
X0011499Y0186937D01*
X0011481Y0187094D01*
X0011467Y0187252D01*
X0011457Y0187410D01*
X0011451Y0187568D01*
X0011449Y0187726D01*
D11*
X0025341Y0183382D02*
X0025341Y0181481D01*
X0025816Y0181005D01*
X0026767Y0181005D01*
X0027242Y0181481D01*
X0025341Y0183382D01*
X0025816Y0183857D01*
X0026767Y0183857D01*
X0027242Y0183382D01*
X0027242Y0181481D01*
X0028241Y0181005D02*
X0030143Y0181005D01*
X0028241Y0182907D01*
X0028241Y0183382D01*
X0028717Y0183857D01*
X0029667Y0183857D01*
X0030143Y0183382D01*
X0031125Y0181481D02*
X0031601Y0181481D01*
X0031601Y0181005D01*
X0031125Y0181005D01*
X0031125Y0181481D01*
X0031125Y0181005D02*
X0032076Y0180055D01*
X0032583Y0179133D02*
X0034009Y0177707D01*
X0032108Y0177707D01*
X0031109Y0177707D02*
X0029208Y0177707D01*
X0028209Y0177707D02*
X0026308Y0177707D01*
X0026783Y0176281D02*
X0026783Y0179133D01*
X0028209Y0177707D01*
X0029683Y0176281D02*
X0029683Y0179133D01*
X0031109Y0177707D01*
X0032583Y0176281D02*
X0032583Y0179133D01*
X0033075Y0181005D02*
X0034976Y0181005D01*
X0033075Y0182907D01*
X0033075Y0183382D01*
X0033550Y0183857D01*
X0034501Y0183857D01*
X0034976Y0183382D01*
X0035483Y0185730D02*
X0035008Y0186205D01*
X0035008Y0186681D01*
X0035483Y0187156D01*
X0036434Y0187156D01*
X0036909Y0187631D01*
X0036909Y0188107D01*
X0036434Y0188582D01*
X0035483Y0188582D01*
X0035008Y0188107D01*
X0034009Y0188107D02*
X0033534Y0188582D01*
X0032583Y0188582D01*
X0032108Y0188107D01*
X0032108Y0187631D01*
X0034009Y0185730D01*
X0032108Y0185730D01*
X0031109Y0186205D02*
X0030634Y0185730D01*
X0029683Y0185730D01*
X0029208Y0186205D01*
X0029208Y0186681D01*
X0029683Y0187156D01*
X0031109Y0187156D01*
X0031109Y0186205D01*
X0031109Y0187156D02*
X0030159Y0188107D01*
X0029208Y0188582D01*
X0028209Y0186205D02*
X0027734Y0186205D01*
X0027734Y0185730D01*
X0028209Y0185730D01*
X0028209Y0186205D01*
X0026759Y0186205D02*
X0026284Y0186205D01*
X0026284Y0185730D01*
X0026759Y0185730D01*
X0026759Y0186205D01*
X0035008Y0178658D02*
X0035483Y0179133D01*
X0036434Y0179133D01*
X0036909Y0178658D01*
X0037908Y0178658D02*
X0038384Y0179133D01*
X0039334Y0179133D01*
X0039810Y0178658D01*
X0039810Y0178182D01*
X0039334Y0177707D01*
X0038384Y0177707D01*
X0037908Y0177232D01*
X0037908Y0176756D01*
X0038384Y0176281D01*
X0039334Y0176281D01*
X0039810Y0176756D01*
X0040808Y0176756D02*
X0040808Y0177707D01*
X0041759Y0177707D01*
X0040808Y0176756D02*
X0041284Y0176281D01*
X0042234Y0176281D01*
X0042710Y0176756D01*
X0042710Y0178658D01*
X0042234Y0179133D01*
X0041284Y0179133D01*
X0040808Y0178658D01*
X0039810Y0180055D02*
X0038859Y0181005D01*
X0039334Y0181005D01*
X0039334Y0181481D01*
X0038859Y0181481D01*
X0038859Y0181005D01*
X0037876Y0181005D02*
X0035975Y0181005D01*
X0036926Y0181005D02*
X0036926Y0183857D01*
X0037876Y0182907D01*
X0038384Y0185730D02*
X0037908Y0186205D01*
X0037908Y0187156D01*
X0038859Y0187156D01*
X0039810Y0188107D02*
X0039810Y0186205D01*
X0039334Y0185730D01*
X0038384Y0185730D01*
X0036909Y0186205D02*
X0036434Y0185730D01*
X0035483Y0185730D01*
X0037908Y0188107D02*
X0038384Y0188582D01*
X0039334Y0188582D01*
X0039810Y0188107D01*
X0040808Y0188582D02*
X0042710Y0188582D01*
X0041759Y0188582D02*
X0041759Y0185730D01*
X0041759Y0183857D02*
X0041759Y0181005D01*
X0042710Y0181005D02*
X0040808Y0181005D01*
X0042710Y0182907D02*
X0041759Y0183857D01*
X0044659Y0183857D02*
X0044659Y0181005D01*
X0045610Y0181005D02*
X0043708Y0181005D01*
X0043708Y0179133D02*
X0045610Y0179133D01*
X0044659Y0179133D02*
X0044659Y0176281D01*
X0045610Y0182907D02*
X0044659Y0183857D01*
X0036909Y0176281D02*
X0035008Y0178182D01*
X0035008Y0178658D01*
X0035008Y0176281D02*
X0036909Y0176281D01*
X0037130Y0137184D02*
X0036654Y0136709D01*
X0036654Y0136234D01*
X0038556Y0134332D01*
X0036654Y0134332D01*
X0036654Y0132460D02*
X0037605Y0131984D01*
X0038556Y0131034D01*
X0037130Y0131034D01*
X0036654Y0130558D01*
X0036654Y0130083D01*
X0037130Y0129608D01*
X0038080Y0129608D01*
X0038556Y0130083D01*
X0038556Y0131034D01*
X0039555Y0129608D02*
X0041456Y0129608D01*
X0040505Y0129608D02*
X0040505Y0132460D01*
X0041456Y0131509D01*
X0042455Y0131034D02*
X0044356Y0131034D01*
X0042930Y0132460D01*
X0042930Y0129608D01*
X0045355Y0130083D02*
X0045830Y0129608D01*
X0046781Y0129608D01*
X0047256Y0130083D01*
X0048255Y0130083D02*
X0048255Y0131034D01*
X0049206Y0131034D01*
X0050156Y0131984D02*
X0050156Y0130083D01*
X0049681Y0129608D01*
X0048730Y0129608D01*
X0048255Y0130083D01*
X0047256Y0131509D02*
X0047256Y0131984D01*
X0046781Y0132460D01*
X0045830Y0132460D01*
X0045355Y0131984D01*
X0045830Y0131034D02*
X0045355Y0130558D01*
X0045355Y0130083D01*
X0045830Y0131034D02*
X0046781Y0131034D01*
X0047256Y0131509D01*
X0048255Y0131984D02*
X0048730Y0132460D01*
X0049681Y0132460D01*
X0050156Y0131984D01*
X0051155Y0132460D02*
X0053056Y0132460D01*
X0052106Y0132460D02*
X0052106Y0129608D01*
X0053056Y0134332D02*
X0053056Y0137184D01*
X0052106Y0136234D01*
X0051155Y0137184D01*
X0051155Y0134332D01*
X0050156Y0134808D02*
X0050156Y0136709D01*
X0049681Y0137184D01*
X0048730Y0137184D01*
X0048255Y0136709D01*
X0048255Y0135758D02*
X0049206Y0135758D01*
X0048255Y0135758D02*
X0048255Y0134808D01*
X0048730Y0134332D01*
X0049681Y0134332D01*
X0050156Y0134808D01*
X0047256Y0135758D02*
X0045355Y0135758D01*
X0044356Y0135283D02*
X0043881Y0135758D01*
X0042930Y0135758D01*
X0042455Y0135283D01*
X0042455Y0134808D01*
X0042930Y0134332D01*
X0043881Y0134332D01*
X0044356Y0134808D01*
X0044356Y0135283D01*
X0043881Y0135758D02*
X0044356Y0136234D01*
X0044356Y0136709D01*
X0043881Y0137184D01*
X0042930Y0137184D01*
X0042455Y0136709D01*
X0042455Y0136234D01*
X0042930Y0135758D01*
X0041456Y0136234D02*
X0040505Y0137184D01*
X0040505Y0134332D01*
X0039555Y0134332D02*
X0041456Y0134332D01*
X0038556Y0136709D02*
X0038080Y0137184D01*
X0037130Y0137184D01*
X0034705Y0132460D02*
X0034705Y0129608D01*
X0035656Y0129608D02*
X0033754Y0129608D01*
X0035656Y0131509D02*
X0034705Y0132460D01*
D12*
X0032118Y0127332D02*
X0054972Y0127332D01*
X0055009Y0127334D01*
X0055046Y0127340D01*
X0055081Y0127349D01*
X0055116Y0127363D01*
X0055149Y0127379D01*
X0055180Y0127400D01*
X0055209Y0127423D01*
X0055235Y0127449D01*
X0055258Y0127478D01*
X0055279Y0127509D01*
X0055295Y0127542D01*
X0055309Y0127577D01*
X0055318Y0127612D01*
X0055324Y0127649D01*
X0055326Y0127686D01*
X0055327Y0127686D02*
X0055327Y0139202D01*
X0032472Y0139202D01*
X0032435Y0139200D01*
X0032398Y0139194D01*
X0032363Y0139185D01*
X0032328Y0139171D01*
X0032295Y0139155D01*
X0032264Y0139134D01*
X0032235Y0139111D01*
X0032209Y0139085D01*
X0032186Y0139056D01*
X0032165Y0139025D01*
X0032149Y0138992D01*
X0032135Y0138957D01*
X0032126Y0138922D01*
X0032120Y0138885D01*
X0032118Y0138848D01*
X0032118Y0127332D01*
X0022905Y0174970D02*
X0047886Y0174970D01*
X0047923Y0174972D01*
X0047960Y0174978D01*
X0047995Y0174987D01*
X0048030Y0175001D01*
X0048063Y0175017D01*
X0048094Y0175038D01*
X0048123Y0175061D01*
X0048149Y0175087D01*
X0048172Y0175116D01*
X0048193Y0175147D01*
X0048209Y0175180D01*
X0048223Y0175215D01*
X0048232Y0175250D01*
X0048238Y0175287D01*
X0048240Y0175324D01*
X0048240Y0191800D01*
X0048063Y0191800D02*
X0023260Y0191800D01*
X0023223Y0191798D01*
X0023186Y0191792D01*
X0023151Y0191783D01*
X0023116Y0191769D01*
X0023083Y0191753D01*
X0023052Y0191732D01*
X0023023Y0191709D01*
X0022997Y0191683D01*
X0022974Y0191654D01*
X0022953Y0191623D01*
X0022937Y0191590D01*
X0022923Y0191555D01*
X0022914Y0191520D01*
X0022908Y0191483D01*
X0022906Y0191446D01*
X0022905Y0191446D02*
X0022905Y0174970D01*
D13*
X0060130Y0190698D02*
X0060130Y0195698D01*
X0070130Y0195698D01*
X0070130Y0190698D01*
X0070130Y0195698D01*
X0045445Y0170698D02*
X0045451Y0171181D01*
X0045469Y0171664D01*
X0045498Y0172146D01*
X0045540Y0172627D01*
X0045593Y0173108D01*
X0045658Y0173586D01*
X0045735Y0174063D01*
X0045823Y0174538D01*
X0045923Y0175011D01*
X0046035Y0175481D01*
X0046158Y0175948D01*
X0046293Y0176412D01*
X0046439Y0176873D01*
X0046596Y0177330D01*
X0046764Y0177783D01*
X0046943Y0178231D01*
X0047134Y0178675D01*
X0047335Y0179114D01*
X0047547Y0179549D01*
X0047769Y0179977D01*
X0048002Y0180401D01*
X0048246Y0180818D01*
X0048499Y0181229D01*
X0048763Y0181634D01*
X0049036Y0182033D01*
X0049319Y0182424D01*
X0049611Y0182809D01*
X0049913Y0183186D01*
X0050224Y0183556D01*
X0050544Y0183918D01*
X0050873Y0184272D01*
X0051211Y0184617D01*
X0051556Y0184955D01*
X0051910Y0185284D01*
X0052272Y0185604D01*
X0052642Y0185915D01*
X0053019Y0186217D01*
X0053404Y0186509D01*
X0053795Y0186792D01*
X0054194Y0187065D01*
X0054599Y0187329D01*
X0055010Y0187582D01*
X0055427Y0187826D01*
X0055851Y0188059D01*
X0056279Y0188281D01*
X0056714Y0188493D01*
X0057153Y0188694D01*
X0057597Y0188885D01*
X0058045Y0189064D01*
X0058498Y0189232D01*
X0058955Y0189389D01*
X0059416Y0189535D01*
X0059880Y0189670D01*
X0060347Y0189793D01*
X0060817Y0189905D01*
X0061290Y0190005D01*
X0061765Y0190093D01*
X0062242Y0190170D01*
X0062720Y0190235D01*
X0063201Y0190288D01*
X0063682Y0190330D01*
X0064164Y0190359D01*
X0064647Y0190377D01*
X0065130Y0190383D01*
X0065613Y0190377D01*
X0066096Y0190359D01*
X0066578Y0190330D01*
X0067059Y0190288D01*
X0067540Y0190235D01*
X0068018Y0190170D01*
X0068495Y0190093D01*
X0068970Y0190005D01*
X0069443Y0189905D01*
X0069913Y0189793D01*
X0070380Y0189670D01*
X0070844Y0189535D01*
X0071305Y0189389D01*
X0071762Y0189232D01*
X0072215Y0189064D01*
X0072663Y0188885D01*
X0073107Y0188694D01*
X0073546Y0188493D01*
X0073981Y0188281D01*
X0074409Y0188059D01*
X0074833Y0187826D01*
X0075250Y0187582D01*
X0075661Y0187329D01*
X0076066Y0187065D01*
X0076465Y0186792D01*
X0076856Y0186509D01*
X0077241Y0186217D01*
X0077618Y0185915D01*
X0077988Y0185604D01*
X0078350Y0185284D01*
X0078704Y0184955D01*
X0079049Y0184617D01*
X0079387Y0184272D01*
X0079716Y0183918D01*
X0080036Y0183556D01*
X0080347Y0183186D01*
X0080649Y0182809D01*
X0080941Y0182424D01*
X0081224Y0182033D01*
X0081497Y0181634D01*
X0081761Y0181229D01*
X0082014Y0180818D01*
X0082258Y0180401D01*
X0082491Y0179977D01*
X0082713Y0179549D01*
X0082925Y0179114D01*
X0083126Y0178675D01*
X0083317Y0178231D01*
X0083496Y0177783D01*
X0083664Y0177330D01*
X0083821Y0176873D01*
X0083967Y0176412D01*
X0084102Y0175948D01*
X0084225Y0175481D01*
X0084337Y0175011D01*
X0084437Y0174538D01*
X0084525Y0174063D01*
X0084602Y0173586D01*
X0084667Y0173108D01*
X0084720Y0172627D01*
X0084762Y0172146D01*
X0084791Y0171664D01*
X0084809Y0171181D01*
X0084815Y0170698D01*
X0084809Y0170215D01*
X0084791Y0169732D01*
X0084762Y0169250D01*
X0084720Y0168769D01*
X0084667Y0168288D01*
X0084602Y0167810D01*
X0084525Y0167333D01*
X0084437Y0166858D01*
X0084337Y0166385D01*
X0084225Y0165915D01*
X0084102Y0165448D01*
X0083967Y0164984D01*
X0083821Y0164523D01*
X0083664Y0164066D01*
X0083496Y0163613D01*
X0083317Y0163165D01*
X0083126Y0162721D01*
X0082925Y0162282D01*
X0082713Y0161847D01*
X0082491Y0161419D01*
X0082258Y0160995D01*
X0082014Y0160578D01*
X0081761Y0160167D01*
X0081497Y0159762D01*
X0081224Y0159363D01*
X0080941Y0158972D01*
X0080649Y0158587D01*
X0080347Y0158210D01*
X0080036Y0157840D01*
X0079716Y0157478D01*
X0079387Y0157124D01*
X0079049Y0156779D01*
X0078704Y0156441D01*
X0078350Y0156112D01*
X0077988Y0155792D01*
X0077618Y0155481D01*
X0077241Y0155179D01*
X0076856Y0154887D01*
X0076465Y0154604D01*
X0076066Y0154331D01*
X0075661Y0154067D01*
X0075250Y0153814D01*
X0074833Y0153570D01*
X0074409Y0153337D01*
X0073981Y0153115D01*
X0073546Y0152903D01*
X0073107Y0152702D01*
X0072663Y0152511D01*
X0072215Y0152332D01*
X0071762Y0152164D01*
X0071305Y0152007D01*
X0070844Y0151861D01*
X0070380Y0151726D01*
X0069913Y0151603D01*
X0069443Y0151491D01*
X0068970Y0151391D01*
X0068495Y0151303D01*
X0068018Y0151226D01*
X0067540Y0151161D01*
X0067059Y0151108D01*
X0066578Y0151066D01*
X0066096Y0151037D01*
X0065613Y0151019D01*
X0065130Y0151013D01*
X0064647Y0151019D01*
X0064164Y0151037D01*
X0063682Y0151066D01*
X0063201Y0151108D01*
X0062720Y0151161D01*
X0062242Y0151226D01*
X0061765Y0151303D01*
X0061290Y0151391D01*
X0060817Y0151491D01*
X0060347Y0151603D01*
X0059880Y0151726D01*
X0059416Y0151861D01*
X0058955Y0152007D01*
X0058498Y0152164D01*
X0058045Y0152332D01*
X0057597Y0152511D01*
X0057153Y0152702D01*
X0056714Y0152903D01*
X0056279Y0153115D01*
X0055851Y0153337D01*
X0055427Y0153570D01*
X0055010Y0153814D01*
X0054599Y0154067D01*
X0054194Y0154331D01*
X0053795Y0154604D01*
X0053404Y0154887D01*
X0053019Y0155179D01*
X0052642Y0155481D01*
X0052272Y0155792D01*
X0051910Y0156112D01*
X0051556Y0156441D01*
X0051211Y0156779D01*
X0050873Y0157124D01*
X0050544Y0157478D01*
X0050224Y0157840D01*
X0049913Y0158210D01*
X0049611Y0158587D01*
X0049319Y0158972D01*
X0049036Y0159363D01*
X0048763Y0159762D01*
X0048499Y0160167D01*
X0048246Y0160578D01*
X0048002Y0160995D01*
X0047769Y0161419D01*
X0047547Y0161847D01*
X0047335Y0162282D01*
X0047134Y0162721D01*
X0046943Y0163165D01*
X0046764Y0163613D01*
X0046596Y0164066D01*
X0046439Y0164523D01*
X0046293Y0164984D01*
X0046158Y0165448D01*
X0046035Y0165915D01*
X0045923Y0166385D01*
X0045823Y0166858D01*
X0045735Y0167333D01*
X0045658Y0167810D01*
X0045593Y0168288D01*
X0045540Y0168769D01*
X0045498Y0169250D01*
X0045469Y0169732D01*
X0045451Y0170215D01*
X0045445Y0170698D01*
X0045451Y0171181D01*
X0045469Y0171664D01*
X0045498Y0172146D01*
X0045540Y0172627D01*
X0045593Y0173108D01*
X0045658Y0173586D01*
X0045735Y0174063D01*
X0045823Y0174538D01*
X0045923Y0175011D01*
X0046035Y0175481D01*
X0046158Y0175948D01*
X0046293Y0176412D01*
X0046439Y0176873D01*
X0046596Y0177330D01*
X0046764Y0177783D01*
X0046943Y0178231D01*
X0047134Y0178675D01*
X0047335Y0179114D01*
X0047547Y0179549D01*
X0047769Y0179977D01*
X0048002Y0180401D01*
X0048246Y0180818D01*
X0048499Y0181229D01*
X0048763Y0181634D01*
X0049036Y0182033D01*
X0049319Y0182424D01*
X0049611Y0182809D01*
X0049913Y0183186D01*
X0050224Y0183556D01*
X0050544Y0183918D01*
X0050873Y0184272D01*
X0051211Y0184617D01*
X0051556Y0184955D01*
X0051910Y0185284D01*
X0052272Y0185604D01*
X0052642Y0185915D01*
X0053019Y0186217D01*
X0053404Y0186509D01*
X0053795Y0186792D01*
X0054194Y0187065D01*
X0054599Y0187329D01*
X0055010Y0187582D01*
X0055427Y0187826D01*
X0055851Y0188059D01*
X0056279Y0188281D01*
X0056714Y0188493D01*
X0057153Y0188694D01*
X0057597Y0188885D01*
X0058045Y0189064D01*
X0058498Y0189232D01*
X0058955Y0189389D01*
X0059416Y0189535D01*
X0059880Y0189670D01*
X0060347Y0189793D01*
X0060817Y0189905D01*
X0061290Y0190005D01*
X0061765Y0190093D01*
X0062242Y0190170D01*
X0062720Y0190235D01*
X0063201Y0190288D01*
X0063682Y0190330D01*
X0064164Y0190359D01*
X0064647Y0190377D01*
X0065130Y0190383D01*
X0065613Y0190377D01*
X0066096Y0190359D01*
X0066578Y0190330D01*
X0067059Y0190288D01*
X0067540Y0190235D01*
X0068018Y0190170D01*
X0068495Y0190093D01*
X0068970Y0190005D01*
X0069443Y0189905D01*
X0069913Y0189793D01*
X0070380Y0189670D01*
X0070844Y0189535D01*
X0071305Y0189389D01*
X0071762Y0189232D01*
X0072215Y0189064D01*
X0072663Y0188885D01*
X0073107Y0188694D01*
X0073546Y0188493D01*
X0073981Y0188281D01*
X0074409Y0188059D01*
X0074833Y0187826D01*
X0075250Y0187582D01*
X0075661Y0187329D01*
X0076066Y0187065D01*
X0076465Y0186792D01*
X0076856Y0186509D01*
X0077241Y0186217D01*
X0077618Y0185915D01*
X0077988Y0185604D01*
X0078350Y0185284D01*
X0078704Y0184955D01*
X0079049Y0184617D01*
X0079387Y0184272D01*
X0079716Y0183918D01*
X0080036Y0183556D01*
X0080347Y0183186D01*
X0080649Y0182809D01*
X0080941Y0182424D01*
X0081224Y0182033D01*
X0081497Y0181634D01*
X0081761Y0181229D01*
X0082014Y0180818D01*
X0082258Y0180401D01*
X0082491Y0179977D01*
X0082713Y0179549D01*
X0082925Y0179114D01*
X0083126Y0178675D01*
X0083317Y0178231D01*
X0083496Y0177783D01*
X0083664Y0177330D01*
X0083821Y0176873D01*
X0083967Y0176412D01*
X0084102Y0175948D01*
X0084225Y0175481D01*
X0084337Y0175011D01*
X0084437Y0174538D01*
X0084525Y0174063D01*
X0084602Y0173586D01*
X0084667Y0173108D01*
X0084720Y0172627D01*
X0084762Y0172146D01*
X0084791Y0171664D01*
X0084809Y0171181D01*
X0084815Y0170698D01*
X0084809Y0170215D01*
X0084791Y0169732D01*
X0084762Y0169250D01*
X0084720Y0168769D01*
X0084667Y0168288D01*
X0084602Y0167810D01*
X0084525Y0167333D01*
X0084437Y0166858D01*
X0084337Y0166385D01*
X0084225Y0165915D01*
X0084102Y0165448D01*
X0083967Y0164984D01*
X0083821Y0164523D01*
X0083664Y0164066D01*
X0083496Y0163613D01*
X0083317Y0163165D01*
X0083126Y0162721D01*
X0082925Y0162282D01*
X0082713Y0161847D01*
X0082491Y0161419D01*
X0082258Y0160995D01*
X0082014Y0160578D01*
X0081761Y0160167D01*
X0081497Y0159762D01*
X0081224Y0159363D01*
X0080941Y0158972D01*
X0080649Y0158587D01*
X0080347Y0158210D01*
X0080036Y0157840D01*
X0079716Y0157478D01*
X0079387Y0157124D01*
X0079049Y0156779D01*
X0078704Y0156441D01*
X0078350Y0156112D01*
X0077988Y0155792D01*
X0077618Y0155481D01*
X0077241Y0155179D01*
X0076856Y0154887D01*
X0076465Y0154604D01*
X0076066Y0154331D01*
X0075661Y0154067D01*
X0075250Y0153814D01*
X0074833Y0153570D01*
X0074409Y0153337D01*
X0073981Y0153115D01*
X0073546Y0152903D01*
X0073107Y0152702D01*
X0072663Y0152511D01*
X0072215Y0152332D01*
X0071762Y0152164D01*
X0071305Y0152007D01*
X0070844Y0151861D01*
X0070380Y0151726D01*
X0069913Y0151603D01*
X0069443Y0151491D01*
X0068970Y0151391D01*
X0068495Y0151303D01*
X0068018Y0151226D01*
X0067540Y0151161D01*
X0067059Y0151108D01*
X0066578Y0151066D01*
X0066096Y0151037D01*
X0065613Y0151019D01*
X0065130Y0151013D01*
X0064647Y0151019D01*
X0064164Y0151037D01*
X0063682Y0151066D01*
X0063201Y0151108D01*
X0062720Y0151161D01*
X0062242Y0151226D01*
X0061765Y0151303D01*
X0061290Y0151391D01*
X0060817Y0151491D01*
X0060347Y0151603D01*
X0059880Y0151726D01*
X0059416Y0151861D01*
X0058955Y0152007D01*
X0058498Y0152164D01*
X0058045Y0152332D01*
X0057597Y0152511D01*
X0057153Y0152702D01*
X0056714Y0152903D01*
X0056279Y0153115D01*
X0055851Y0153337D01*
X0055427Y0153570D01*
X0055010Y0153814D01*
X0054599Y0154067D01*
X0054194Y0154331D01*
X0053795Y0154604D01*
X0053404Y0154887D01*
X0053019Y0155179D01*
X0052642Y0155481D01*
X0052272Y0155792D01*
X0051910Y0156112D01*
X0051556Y0156441D01*
X0051211Y0156779D01*
X0050873Y0157124D01*
X0050544Y0157478D01*
X0050224Y0157840D01*
X0049913Y0158210D01*
X0049611Y0158587D01*
X0049319Y0158972D01*
X0049036Y0159363D01*
X0048763Y0159762D01*
X0048499Y0160167D01*
X0048246Y0160578D01*
X0048002Y0160995D01*
X0047769Y0161419D01*
X0047547Y0161847D01*
X0047335Y0162282D01*
X0047134Y0162721D01*
X0046943Y0163165D01*
X0046764Y0163613D01*
X0046596Y0164066D01*
X0046439Y0164523D01*
X0046293Y0164984D01*
X0046158Y0165448D01*
X0046035Y0165915D01*
X0045923Y0166385D01*
X0045823Y0166858D01*
X0045735Y0167333D01*
X0045658Y0167810D01*
X0045593Y0168288D01*
X0045540Y0168769D01*
X0045498Y0169250D01*
X0045469Y0169732D01*
X0045451Y0170215D01*
X0045445Y0170698D01*
X0043050Y0124585D02*
X0040936Y0124585D01*
X0040231Y0123881D01*
X0040231Y0122471D01*
X0040936Y0121767D01*
X0043050Y0121767D01*
X0043050Y0120357D02*
X0043050Y0124585D01*
X0038700Y0123881D02*
X0038700Y0121062D01*
X0037995Y0120357D01*
X0036586Y0120357D01*
X0035881Y0121062D01*
X0034350Y0120357D02*
X0032236Y0120357D01*
X0031531Y0121062D01*
X0031531Y0121767D01*
X0032236Y0122471D01*
X0034350Y0122471D01*
X0035881Y0123881D02*
X0036586Y0124585D01*
X0037995Y0124585D01*
X0038700Y0123881D01*
X0034350Y0124585D02*
X0034350Y0120357D01*
X0032236Y0122471D02*
X0031531Y0123176D01*
X0031531Y0123881D01*
X0032236Y0124585D01*
X0034350Y0124585D01*
X0030000Y0119653D02*
X0027181Y0119653D01*
X0025649Y0121767D02*
X0024240Y0120357D01*
X0022831Y0121767D01*
X0022831Y0124585D01*
X0021299Y0123176D02*
X0019890Y0124585D01*
X0019890Y0120357D01*
X0021299Y0120357D02*
X0018481Y0120357D01*
X0025649Y0121767D02*
X0025649Y0124585D01*
X0044582Y0119653D02*
X0047400Y0119653D01*
X0048932Y0121062D02*
X0049636Y0120357D01*
X0051046Y0120357D01*
X0051750Y0121062D01*
X0053282Y0121062D02*
X0053987Y0120357D01*
X0055396Y0120357D01*
X0056101Y0121062D01*
X0056101Y0123881D01*
X0055396Y0124585D01*
X0053987Y0124585D01*
X0053282Y0123881D01*
X0053282Y0122471D02*
X0054691Y0122471D01*
X0053282Y0122471D02*
X0053282Y0121062D01*
X0051750Y0123176D02*
X0051046Y0122471D01*
X0049636Y0122471D01*
X0048932Y0121767D01*
X0048932Y0121062D01*
X0048932Y0123881D02*
X0049636Y0124585D01*
X0051046Y0124585D01*
X0051750Y0123881D01*
X0051750Y0123176D01*
X0057632Y0124585D02*
X0060451Y0124585D01*
X0059041Y0124585D02*
X0059041Y0120357D01*
X0058261Y0111117D02*
X0058261Y0110412D01*
X0058261Y0109003D02*
X0058261Y0106184D01*
X0058966Y0106184D02*
X0057556Y0106184D01*
X0056066Y0106184D02*
X0056066Y0110412D01*
X0053952Y0109003D02*
X0056066Y0107594D01*
X0053952Y0106184D01*
X0058261Y0109003D02*
X0058966Y0109003D01*
X0060497Y0109003D02*
X0062611Y0109003D01*
X0063316Y0108298D01*
X0063316Y0106889D01*
X0062611Y0106184D01*
X0060497Y0106184D01*
X0064847Y0106889D02*
X0065552Y0106184D01*
X0067666Y0106184D01*
X0067666Y0104775D02*
X0067666Y0109003D01*
X0065552Y0109003D01*
X0064847Y0108298D01*
X0064847Y0106889D01*
X0067727Y0103326D02*
X0069137Y0103326D01*
X0069841Y0102621D01*
X0069841Y0101916D01*
X0069137Y0101212D01*
X0067023Y0101212D01*
X0067023Y0102621D02*
X0067023Y0099802D01*
X0067727Y0099098D01*
X0069137Y0099098D01*
X0069841Y0099802D01*
X0071373Y0099098D02*
X0074191Y0099098D01*
X0072782Y0099098D02*
X0072782Y0103326D01*
X0074191Y0101916D01*
X0075723Y0103326D02*
X0078542Y0099098D01*
X0080073Y0099802D02*
X0080778Y0099098D01*
X0082187Y0099098D01*
X0082892Y0099802D01*
X0082892Y0100507D01*
X0082187Y0101212D01*
X0080778Y0101212D01*
X0080073Y0100507D01*
X0080073Y0099802D01*
X0080778Y0101212D02*
X0080073Y0101916D01*
X0080073Y0102621D01*
X0080778Y0103326D01*
X0082187Y0103326D01*
X0082892Y0102621D01*
X0082892Y0101916D01*
X0082187Y0101212D01*
X0082187Y0106184D02*
X0081482Y0106184D01*
X0080778Y0106889D01*
X0080778Y0110412D01*
X0081482Y0110412D02*
X0080073Y0110412D01*
X0076366Y0110412D02*
X0076366Y0106184D01*
X0076366Y0107594D02*
X0074252Y0107594D01*
X0073548Y0108298D01*
X0073548Y0109708D01*
X0074252Y0110412D01*
X0076366Y0110412D01*
X0074957Y0107594D02*
X0073548Y0106184D01*
X0072016Y0106889D02*
X0072016Y0108298D01*
X0071312Y0109003D01*
X0069902Y0109003D01*
X0069198Y0108298D01*
X0069198Y0107594D01*
X0072016Y0107594D01*
X0072016Y0106889D02*
X0071312Y0106184D01*
X0069902Y0106184D01*
X0067727Y0103326D02*
X0067023Y0102621D01*
X0077837Y0106184D02*
X0078542Y0106184D01*
X0078542Y0106889D01*
X0077837Y0106889D01*
X0077837Y0106184D01*
X0082187Y0106184D02*
X0082892Y0106889D01*
D14*
X0044671Y0151505D02*
X0044673Y0151614D01*
X0044679Y0151723D01*
X0044689Y0151831D01*
X0044703Y0151939D01*
X0044720Y0152046D01*
X0044742Y0152153D01*
X0044767Y0152259D01*
X0044797Y0152364D01*
X0044830Y0152468D01*
X0044867Y0152570D01*
X0044907Y0152671D01*
X0044951Y0152771D01*
X0044999Y0152868D01*
X0045050Y0152965D01*
X0045105Y0153059D01*
X0045163Y0153151D01*
X0045225Y0153241D01*
X0045289Y0153328D01*
X0045357Y0153413D01*
X0045428Y0153496D01*
X0045502Y0153576D01*
X0045578Y0153654D01*
X0045658Y0153728D01*
X0045740Y0153800D01*
X0045824Y0153868D01*
X0045911Y0153934D01*
X0046001Y0153996D01*
X0046092Y0154055D01*
X0046186Y0154110D01*
X0046281Y0154163D01*
X0046379Y0154211D01*
X0046478Y0154256D01*
X0046579Y0154298D01*
X0046681Y0154335D01*
X0046784Y0154369D01*
X0046889Y0154400D01*
X0046994Y0154426D01*
X0047101Y0154449D01*
X0047208Y0154467D01*
X0047316Y0154482D01*
X0047424Y0154493D01*
X0047533Y0154500D01*
X0047642Y0154503D01*
X0047751Y0154502D01*
X0047859Y0154497D01*
X0047968Y0154488D01*
X0048076Y0154475D01*
X0048184Y0154458D01*
X0048291Y0154438D01*
X0048397Y0154413D01*
X0048502Y0154385D01*
X0048606Y0154353D01*
X0048709Y0154317D01*
X0048810Y0154277D01*
X0048910Y0154234D01*
X0049008Y0154187D01*
X0049105Y0154137D01*
X0049199Y0154083D01*
X0049292Y0154026D01*
X0049382Y0153965D01*
X0049471Y0153901D01*
X0049556Y0153834D01*
X0049640Y0153764D01*
X0049720Y0153691D01*
X0049799Y0153615D01*
X0049874Y0153537D01*
X0049946Y0153455D01*
X0050015Y0153371D01*
X0050082Y0153285D01*
X0050145Y0153196D01*
X0050204Y0153105D01*
X0050261Y0153012D01*
X0050314Y0152917D01*
X0050363Y0152820D01*
X0050409Y0152721D01*
X0050452Y0152621D01*
X0050490Y0152519D01*
X0050525Y0152416D01*
X0050556Y0152312D01*
X0050584Y0152206D01*
X0050607Y0152100D01*
X0050627Y0151993D01*
X0050643Y0151885D01*
X0050655Y0151777D01*
X0050663Y0151668D01*
X0050667Y0151559D01*
X0050667Y0151451D01*
X0050663Y0151342D01*
X0050655Y0151233D01*
X0050643Y0151125D01*
X0050627Y0151017D01*
X0050607Y0150910D01*
X0050584Y0150804D01*
X0050556Y0150698D01*
X0050525Y0150594D01*
X0050490Y0150491D01*
X0050452Y0150389D01*
X0050409Y0150289D01*
X0050363Y0150190D01*
X0050314Y0150093D01*
X0050261Y0149998D01*
X0050204Y0149905D01*
X0050145Y0149814D01*
X0050082Y0149725D01*
X0050015Y0149639D01*
X0049946Y0149555D01*
X0049874Y0149473D01*
X0049799Y0149395D01*
X0049720Y0149319D01*
X0049640Y0149246D01*
X0049556Y0149176D01*
X0049471Y0149109D01*
X0049382Y0149045D01*
X0049292Y0148984D01*
X0049199Y0148927D01*
X0049105Y0148873D01*
X0049008Y0148823D01*
X0048910Y0148776D01*
X0048810Y0148733D01*
X0048709Y0148693D01*
X0048606Y0148657D01*
X0048502Y0148625D01*
X0048397Y0148597D01*
X0048291Y0148572D01*
X0048184Y0148552D01*
X0048076Y0148535D01*
X0047968Y0148522D01*
X0047859Y0148513D01*
X0047751Y0148508D01*
X0047642Y0148507D01*
X0047533Y0148510D01*
X0047424Y0148517D01*
X0047316Y0148528D01*
X0047208Y0148543D01*
X0047101Y0148561D01*
X0046994Y0148584D01*
X0046889Y0148610D01*
X0046784Y0148641D01*
X0046681Y0148675D01*
X0046579Y0148712D01*
X0046478Y0148754D01*
X0046379Y0148799D01*
X0046281Y0148847D01*
X0046186Y0148900D01*
X0046092Y0148955D01*
X0046001Y0149014D01*
X0045911Y0149076D01*
X0045824Y0149142D01*
X0045740Y0149210D01*
X0045658Y0149282D01*
X0045578Y0149356D01*
X0045502Y0149434D01*
X0045428Y0149514D01*
X0045357Y0149597D01*
X0045289Y0149682D01*
X0045225Y0149769D01*
X0045163Y0149859D01*
X0045105Y0149951D01*
X0045050Y0150045D01*
X0044999Y0150142D01*
X0044951Y0150239D01*
X0044907Y0150339D01*
X0044867Y0150440D01*
X0044830Y0150542D01*
X0044797Y0150646D01*
X0044767Y0150751D01*
X0044742Y0150857D01*
X0044720Y0150964D01*
X0044703Y0151071D01*
X0044689Y0151179D01*
X0044679Y0151287D01*
X0044673Y0151396D01*
X0044671Y0151505D01*
D15*
X0051213Y0145993D02*
X0054362Y0142844D01*
X0054362Y0136938D01*
X0053575Y0131033D02*
X0055543Y0131033D01*
X0064598Y0140088D01*
X0064598Y0144418D01*
X0058299Y0147174D02*
X0070898Y0147174D01*
X0070898Y0147568D01*
X0071291Y0147568D01*
X0071291Y0150718D01*
X0058299Y0151111D02*
X0058299Y0147174D01*
X0050031Y0190088D02*
X0048457Y0190088D01*
X0050031Y0190088D02*
X0053968Y0194025D01*
X0059480Y0194025D01*
D16*
X0048500Y0110812D02*
X0043500Y0110812D01*
D17*
X0079612Y0190698D02*
X0079614Y0190743D01*
X0079620Y0190788D01*
X0079630Y0190832D01*
X0079643Y0190875D01*
X0079661Y0190917D01*
X0079681Y0190957D01*
X0079706Y0190995D01*
X0079733Y0191031D01*
X0079764Y0191064D01*
X0079797Y0191095D01*
X0079833Y0191122D01*
X0079871Y0191147D01*
X0079911Y0191167D01*
X0079953Y0191185D01*
X0079996Y0191198D01*
X0080040Y0191208D01*
X0080085Y0191214D01*
X0080130Y0191216D01*
X0080175Y0191214D01*
X0080220Y0191208D01*
X0080264Y0191198D01*
X0080307Y0191185D01*
X0080349Y0191167D01*
X0080389Y0191147D01*
X0080427Y0191122D01*
X0080463Y0191095D01*
X0080496Y0191064D01*
X0080527Y0191031D01*
X0080554Y0190995D01*
X0080579Y0190957D01*
X0080599Y0190917D01*
X0080617Y0190875D01*
X0080630Y0190832D01*
X0080640Y0190788D01*
X0080646Y0190743D01*
X0080648Y0190698D01*
X0080646Y0190653D01*
X0080640Y0190608D01*
X0080630Y0190564D01*
X0080617Y0190521D01*
X0080599Y0190479D01*
X0080579Y0190439D01*
X0080554Y0190401D01*
X0080527Y0190365D01*
X0080496Y0190332D01*
X0080463Y0190301D01*
X0080427Y0190274D01*
X0080389Y0190249D01*
X0080349Y0190229D01*
X0080307Y0190211D01*
X0080264Y0190198D01*
X0080220Y0190188D01*
X0080175Y0190182D01*
X0080130Y0190180D01*
X0080085Y0190182D01*
X0080040Y0190188D01*
X0079996Y0190198D01*
X0079953Y0190211D01*
X0079911Y0190229D01*
X0079871Y0190249D01*
X0079833Y0190274D01*
X0079797Y0190301D01*
X0079764Y0190332D01*
X0079733Y0190365D01*
X0079706Y0190401D01*
X0079681Y0190439D01*
X0079661Y0190479D01*
X0079643Y0190521D01*
X0079630Y0190564D01*
X0079620Y0190608D01*
X0079614Y0190653D01*
X0079612Y0190698D01*
X0079614Y0190743D01*
X0079620Y0190788D01*
X0079630Y0190832D01*
X0079643Y0190875D01*
X0079661Y0190917D01*
X0079681Y0190957D01*
X0079706Y0190995D01*
X0079733Y0191031D01*
X0079764Y0191064D01*
X0079797Y0191095D01*
X0079833Y0191122D01*
X0079871Y0191147D01*
X0079911Y0191167D01*
X0079953Y0191185D01*
X0079996Y0191198D01*
X0080040Y0191208D01*
X0080085Y0191214D01*
X0080130Y0191216D01*
X0080175Y0191214D01*
X0080220Y0191208D01*
X0080264Y0191198D01*
X0080307Y0191185D01*
X0080349Y0191167D01*
X0080389Y0191147D01*
X0080427Y0191122D01*
X0080463Y0191095D01*
X0080496Y0191064D01*
X0080527Y0191031D01*
X0080554Y0190995D01*
X0080579Y0190957D01*
X0080599Y0190917D01*
X0080617Y0190875D01*
X0080630Y0190832D01*
X0080640Y0190788D01*
X0080646Y0190743D01*
X0080648Y0190698D01*
X0080646Y0190653D01*
X0080640Y0190608D01*
X0080630Y0190564D01*
X0080617Y0190521D01*
X0080599Y0190479D01*
X0080579Y0190439D01*
X0080554Y0190401D01*
X0080527Y0190365D01*
X0080496Y0190332D01*
X0080463Y0190301D01*
X0080427Y0190274D01*
X0080389Y0190249D01*
X0080349Y0190229D01*
X0080307Y0190211D01*
X0080264Y0190198D01*
X0080220Y0190188D01*
X0080175Y0190182D01*
X0080130Y0190180D01*
X0080085Y0190182D01*
X0080040Y0190188D01*
X0079996Y0190198D01*
X0079953Y0190211D01*
X0079911Y0190229D01*
X0079871Y0190249D01*
X0079833Y0190274D01*
X0079797Y0190301D01*
X0079764Y0190332D01*
X0079733Y0190365D01*
X0079706Y0190401D01*
X0079681Y0190439D01*
X0079661Y0190479D01*
X0079643Y0190521D01*
X0079630Y0190564D01*
X0079620Y0190608D01*
X0079614Y0190653D01*
X0079612Y0190698D01*
D18*
X0079086Y0152982D02*
X0077552Y0152982D01*
X0076784Y0152215D01*
X0076784Y0151448D01*
X0079854Y0148378D01*
X0076784Y0148378D01*
X0079854Y0152215D02*
X0079086Y0152982D01*
X0081388Y0152982D02*
X0081388Y0149146D01*
X0082156Y0148378D01*
X0083690Y0148378D01*
X0084457Y0149146D01*
X0084457Y0152982D01*
M02*
