G75*
%MOIN*%
%OFA0B0*%
%FSLAX25Y25*%
%IPPOS*%
%LPD*%
%AMOC8*
5,1,8,0,0,1.08239X$1,22.5*
%
%ADD10C,0.00000*%
D10*
X0014500Y0220400D02*
X0014500Y0614101D01*
X0408201Y0614101D01*
X0408201Y0220400D01*
X0014500Y0220400D01*
X0032020Y0244022D02*
X0032022Y0244178D01*
X0032028Y0244334D01*
X0032038Y0244489D01*
X0032052Y0244644D01*
X0032070Y0244799D01*
X0032092Y0244953D01*
X0032117Y0245107D01*
X0032147Y0245260D01*
X0032181Y0245412D01*
X0032218Y0245564D01*
X0032259Y0245714D01*
X0032304Y0245863D01*
X0032353Y0246011D01*
X0032406Y0246158D01*
X0032462Y0246303D01*
X0032522Y0246447D01*
X0032586Y0246589D01*
X0032654Y0246730D01*
X0032725Y0246868D01*
X0032799Y0247005D01*
X0032877Y0247140D01*
X0032958Y0247273D01*
X0033043Y0247404D01*
X0033131Y0247533D01*
X0033222Y0247659D01*
X0033317Y0247783D01*
X0033414Y0247904D01*
X0033515Y0248023D01*
X0033619Y0248140D01*
X0033725Y0248253D01*
X0033835Y0248364D01*
X0033947Y0248472D01*
X0034062Y0248577D01*
X0034180Y0248680D01*
X0034300Y0248779D01*
X0034423Y0248875D01*
X0034548Y0248968D01*
X0034675Y0249057D01*
X0034805Y0249144D01*
X0034937Y0249227D01*
X0035071Y0249306D01*
X0035207Y0249383D01*
X0035345Y0249455D01*
X0035484Y0249525D01*
X0035626Y0249590D01*
X0035769Y0249652D01*
X0035913Y0249710D01*
X0036059Y0249765D01*
X0036207Y0249816D01*
X0036355Y0249863D01*
X0036505Y0249906D01*
X0036656Y0249945D01*
X0036808Y0249981D01*
X0036960Y0250012D01*
X0037114Y0250040D01*
X0037268Y0250064D01*
X0037422Y0250084D01*
X0037577Y0250100D01*
X0037733Y0250112D01*
X0037888Y0250120D01*
X0038044Y0250124D01*
X0038200Y0250124D01*
X0038356Y0250120D01*
X0038511Y0250112D01*
X0038667Y0250100D01*
X0038822Y0250084D01*
X0038976Y0250064D01*
X0039130Y0250040D01*
X0039284Y0250012D01*
X0039436Y0249981D01*
X0039588Y0249945D01*
X0039739Y0249906D01*
X0039889Y0249863D01*
X0040037Y0249816D01*
X0040185Y0249765D01*
X0040331Y0249710D01*
X0040475Y0249652D01*
X0040618Y0249590D01*
X0040760Y0249525D01*
X0040899Y0249455D01*
X0041037Y0249383D01*
X0041173Y0249306D01*
X0041307Y0249227D01*
X0041439Y0249144D01*
X0041569Y0249057D01*
X0041696Y0248968D01*
X0041821Y0248875D01*
X0041944Y0248779D01*
X0042064Y0248680D01*
X0042182Y0248577D01*
X0042297Y0248472D01*
X0042409Y0248364D01*
X0042519Y0248253D01*
X0042625Y0248140D01*
X0042729Y0248023D01*
X0042830Y0247904D01*
X0042927Y0247783D01*
X0043022Y0247659D01*
X0043113Y0247533D01*
X0043201Y0247404D01*
X0043286Y0247273D01*
X0043367Y0247140D01*
X0043445Y0247005D01*
X0043519Y0246868D01*
X0043590Y0246730D01*
X0043658Y0246589D01*
X0043722Y0246447D01*
X0043782Y0246303D01*
X0043838Y0246158D01*
X0043891Y0246011D01*
X0043940Y0245863D01*
X0043985Y0245714D01*
X0044026Y0245564D01*
X0044063Y0245412D01*
X0044097Y0245260D01*
X0044127Y0245107D01*
X0044152Y0244953D01*
X0044174Y0244799D01*
X0044192Y0244644D01*
X0044206Y0244489D01*
X0044216Y0244334D01*
X0044222Y0244178D01*
X0044224Y0244022D01*
X0044222Y0243866D01*
X0044216Y0243710D01*
X0044206Y0243555D01*
X0044192Y0243400D01*
X0044174Y0243245D01*
X0044152Y0243091D01*
X0044127Y0242937D01*
X0044097Y0242784D01*
X0044063Y0242632D01*
X0044026Y0242480D01*
X0043985Y0242330D01*
X0043940Y0242181D01*
X0043891Y0242033D01*
X0043838Y0241886D01*
X0043782Y0241741D01*
X0043722Y0241597D01*
X0043658Y0241455D01*
X0043590Y0241314D01*
X0043519Y0241176D01*
X0043445Y0241039D01*
X0043367Y0240904D01*
X0043286Y0240771D01*
X0043201Y0240640D01*
X0043113Y0240511D01*
X0043022Y0240385D01*
X0042927Y0240261D01*
X0042830Y0240140D01*
X0042729Y0240021D01*
X0042625Y0239904D01*
X0042519Y0239791D01*
X0042409Y0239680D01*
X0042297Y0239572D01*
X0042182Y0239467D01*
X0042064Y0239364D01*
X0041944Y0239265D01*
X0041821Y0239169D01*
X0041696Y0239076D01*
X0041569Y0238987D01*
X0041439Y0238900D01*
X0041307Y0238817D01*
X0041173Y0238738D01*
X0041037Y0238661D01*
X0040899Y0238589D01*
X0040760Y0238519D01*
X0040618Y0238454D01*
X0040475Y0238392D01*
X0040331Y0238334D01*
X0040185Y0238279D01*
X0040037Y0238228D01*
X0039889Y0238181D01*
X0039739Y0238138D01*
X0039588Y0238099D01*
X0039436Y0238063D01*
X0039284Y0238032D01*
X0039130Y0238004D01*
X0038976Y0237980D01*
X0038822Y0237960D01*
X0038667Y0237944D01*
X0038511Y0237932D01*
X0038356Y0237924D01*
X0038200Y0237920D01*
X0038044Y0237920D01*
X0037888Y0237924D01*
X0037733Y0237932D01*
X0037577Y0237944D01*
X0037422Y0237960D01*
X0037268Y0237980D01*
X0037114Y0238004D01*
X0036960Y0238032D01*
X0036808Y0238063D01*
X0036656Y0238099D01*
X0036505Y0238138D01*
X0036355Y0238181D01*
X0036207Y0238228D01*
X0036059Y0238279D01*
X0035913Y0238334D01*
X0035769Y0238392D01*
X0035626Y0238454D01*
X0035484Y0238519D01*
X0035345Y0238589D01*
X0035207Y0238661D01*
X0035071Y0238738D01*
X0034937Y0238817D01*
X0034805Y0238900D01*
X0034675Y0238987D01*
X0034548Y0239076D01*
X0034423Y0239169D01*
X0034300Y0239265D01*
X0034180Y0239364D01*
X0034062Y0239467D01*
X0033947Y0239572D01*
X0033835Y0239680D01*
X0033725Y0239791D01*
X0033619Y0239904D01*
X0033515Y0240021D01*
X0033414Y0240140D01*
X0033317Y0240261D01*
X0033222Y0240385D01*
X0033131Y0240511D01*
X0033043Y0240640D01*
X0032958Y0240771D01*
X0032877Y0240904D01*
X0032799Y0241039D01*
X0032725Y0241176D01*
X0032654Y0241314D01*
X0032586Y0241455D01*
X0032522Y0241597D01*
X0032462Y0241741D01*
X0032406Y0241886D01*
X0032353Y0242033D01*
X0032304Y0242181D01*
X0032259Y0242330D01*
X0032218Y0242480D01*
X0032181Y0242632D01*
X0032147Y0242784D01*
X0032117Y0242937D01*
X0032092Y0243091D01*
X0032070Y0243245D01*
X0032052Y0243400D01*
X0032038Y0243555D01*
X0032028Y0243710D01*
X0032022Y0243866D01*
X0032020Y0244022D01*
X0022094Y0313500D02*
X0022096Y0313634D01*
X0022102Y0313768D01*
X0022112Y0313902D01*
X0022126Y0314036D01*
X0022144Y0314169D01*
X0022165Y0314301D01*
X0022191Y0314433D01*
X0022221Y0314564D01*
X0022254Y0314694D01*
X0022291Y0314822D01*
X0022333Y0314950D01*
X0022377Y0315077D01*
X0022426Y0315202D01*
X0022478Y0315325D01*
X0022534Y0315447D01*
X0022594Y0315568D01*
X0022657Y0315686D01*
X0022723Y0315803D01*
X0022793Y0315917D01*
X0022866Y0316030D01*
X0022943Y0316140D01*
X0023023Y0316248D01*
X0023106Y0316353D01*
X0023192Y0316456D01*
X0023281Y0316556D01*
X0023373Y0316654D01*
X0023468Y0316749D01*
X0023566Y0316841D01*
X0023666Y0316930D01*
X0023769Y0317016D01*
X0023874Y0317099D01*
X0023982Y0317179D01*
X0024092Y0317256D01*
X0024205Y0317329D01*
X0024319Y0317399D01*
X0024436Y0317465D01*
X0024554Y0317528D01*
X0024675Y0317588D01*
X0024797Y0317644D01*
X0024920Y0317696D01*
X0025045Y0317745D01*
X0025172Y0317789D01*
X0025300Y0317831D01*
X0025428Y0317868D01*
X0025558Y0317901D01*
X0025689Y0317931D01*
X0025821Y0317957D01*
X0025953Y0317978D01*
X0026086Y0317996D01*
X0026220Y0318010D01*
X0026354Y0318020D01*
X0026488Y0318026D01*
X0026622Y0318028D01*
X0026756Y0318026D01*
X0026890Y0318020D01*
X0027024Y0318010D01*
X0027158Y0317996D01*
X0027291Y0317978D01*
X0027423Y0317957D01*
X0027555Y0317931D01*
X0027686Y0317901D01*
X0027816Y0317868D01*
X0027944Y0317831D01*
X0028072Y0317789D01*
X0028199Y0317745D01*
X0028324Y0317696D01*
X0028447Y0317644D01*
X0028569Y0317588D01*
X0028690Y0317528D01*
X0028808Y0317465D01*
X0028925Y0317399D01*
X0029039Y0317329D01*
X0029152Y0317256D01*
X0029262Y0317179D01*
X0029370Y0317099D01*
X0029475Y0317016D01*
X0029578Y0316930D01*
X0029678Y0316841D01*
X0029776Y0316749D01*
X0029871Y0316654D01*
X0029963Y0316556D01*
X0030052Y0316456D01*
X0030138Y0316353D01*
X0030221Y0316248D01*
X0030301Y0316140D01*
X0030378Y0316030D01*
X0030451Y0315917D01*
X0030521Y0315803D01*
X0030587Y0315686D01*
X0030650Y0315568D01*
X0030710Y0315447D01*
X0030766Y0315325D01*
X0030818Y0315202D01*
X0030867Y0315077D01*
X0030911Y0314950D01*
X0030953Y0314822D01*
X0030990Y0314694D01*
X0031023Y0314564D01*
X0031053Y0314433D01*
X0031079Y0314301D01*
X0031100Y0314169D01*
X0031118Y0314036D01*
X0031132Y0313902D01*
X0031142Y0313768D01*
X0031148Y0313634D01*
X0031150Y0313500D01*
X0031148Y0313366D01*
X0031142Y0313232D01*
X0031132Y0313098D01*
X0031118Y0312964D01*
X0031100Y0312831D01*
X0031079Y0312699D01*
X0031053Y0312567D01*
X0031023Y0312436D01*
X0030990Y0312306D01*
X0030953Y0312178D01*
X0030911Y0312050D01*
X0030867Y0311923D01*
X0030818Y0311798D01*
X0030766Y0311675D01*
X0030710Y0311553D01*
X0030650Y0311432D01*
X0030587Y0311314D01*
X0030521Y0311197D01*
X0030451Y0311083D01*
X0030378Y0310970D01*
X0030301Y0310860D01*
X0030221Y0310752D01*
X0030138Y0310647D01*
X0030052Y0310544D01*
X0029963Y0310444D01*
X0029871Y0310346D01*
X0029776Y0310251D01*
X0029678Y0310159D01*
X0029578Y0310070D01*
X0029475Y0309984D01*
X0029370Y0309901D01*
X0029262Y0309821D01*
X0029152Y0309744D01*
X0029039Y0309671D01*
X0028925Y0309601D01*
X0028808Y0309535D01*
X0028690Y0309472D01*
X0028569Y0309412D01*
X0028447Y0309356D01*
X0028324Y0309304D01*
X0028199Y0309255D01*
X0028072Y0309211D01*
X0027944Y0309169D01*
X0027816Y0309132D01*
X0027686Y0309099D01*
X0027555Y0309069D01*
X0027423Y0309043D01*
X0027291Y0309022D01*
X0027158Y0309004D01*
X0027024Y0308990D01*
X0026890Y0308980D01*
X0026756Y0308974D01*
X0026622Y0308972D01*
X0026488Y0308974D01*
X0026354Y0308980D01*
X0026220Y0308990D01*
X0026086Y0309004D01*
X0025953Y0309022D01*
X0025821Y0309043D01*
X0025689Y0309069D01*
X0025558Y0309099D01*
X0025428Y0309132D01*
X0025300Y0309169D01*
X0025172Y0309211D01*
X0025045Y0309255D01*
X0024920Y0309304D01*
X0024797Y0309356D01*
X0024675Y0309412D01*
X0024554Y0309472D01*
X0024436Y0309535D01*
X0024319Y0309601D01*
X0024205Y0309671D01*
X0024092Y0309744D01*
X0023982Y0309821D01*
X0023874Y0309901D01*
X0023769Y0309984D01*
X0023666Y0310070D01*
X0023566Y0310159D01*
X0023468Y0310251D01*
X0023373Y0310346D01*
X0023281Y0310444D01*
X0023192Y0310544D01*
X0023106Y0310647D01*
X0023023Y0310752D01*
X0022943Y0310860D01*
X0022866Y0310970D01*
X0022793Y0311083D01*
X0022723Y0311197D01*
X0022657Y0311314D01*
X0022594Y0311432D01*
X0022534Y0311553D01*
X0022478Y0311675D01*
X0022426Y0311798D01*
X0022377Y0311923D01*
X0022333Y0312050D01*
X0022291Y0312178D01*
X0022254Y0312306D01*
X0022221Y0312436D01*
X0022191Y0312567D01*
X0022165Y0312699D01*
X0022144Y0312831D01*
X0022126Y0312964D01*
X0022112Y0313098D01*
X0022102Y0313232D01*
X0022096Y0313366D01*
X0022094Y0313500D01*
X0087315Y0322408D02*
X0087317Y0322542D01*
X0087323Y0322676D01*
X0087333Y0322810D01*
X0087347Y0322944D01*
X0087365Y0323077D01*
X0087386Y0323209D01*
X0087412Y0323341D01*
X0087442Y0323472D01*
X0087475Y0323602D01*
X0087512Y0323730D01*
X0087554Y0323858D01*
X0087598Y0323985D01*
X0087647Y0324110D01*
X0087699Y0324233D01*
X0087755Y0324355D01*
X0087815Y0324476D01*
X0087878Y0324594D01*
X0087944Y0324711D01*
X0088014Y0324825D01*
X0088087Y0324938D01*
X0088164Y0325048D01*
X0088244Y0325156D01*
X0088327Y0325261D01*
X0088413Y0325364D01*
X0088502Y0325464D01*
X0088594Y0325562D01*
X0088689Y0325657D01*
X0088787Y0325749D01*
X0088887Y0325838D01*
X0088990Y0325924D01*
X0089095Y0326007D01*
X0089203Y0326087D01*
X0089313Y0326164D01*
X0089426Y0326237D01*
X0089540Y0326307D01*
X0089657Y0326373D01*
X0089775Y0326436D01*
X0089896Y0326496D01*
X0090018Y0326552D01*
X0090141Y0326604D01*
X0090266Y0326653D01*
X0090393Y0326697D01*
X0090521Y0326739D01*
X0090649Y0326776D01*
X0090779Y0326809D01*
X0090910Y0326839D01*
X0091042Y0326865D01*
X0091174Y0326886D01*
X0091307Y0326904D01*
X0091441Y0326918D01*
X0091575Y0326928D01*
X0091709Y0326934D01*
X0091843Y0326936D01*
X0091977Y0326934D01*
X0092111Y0326928D01*
X0092245Y0326918D01*
X0092379Y0326904D01*
X0092512Y0326886D01*
X0092644Y0326865D01*
X0092776Y0326839D01*
X0092907Y0326809D01*
X0093037Y0326776D01*
X0093165Y0326739D01*
X0093293Y0326697D01*
X0093420Y0326653D01*
X0093545Y0326604D01*
X0093668Y0326552D01*
X0093790Y0326496D01*
X0093911Y0326436D01*
X0094029Y0326373D01*
X0094146Y0326307D01*
X0094260Y0326237D01*
X0094373Y0326164D01*
X0094483Y0326087D01*
X0094591Y0326007D01*
X0094696Y0325924D01*
X0094799Y0325838D01*
X0094899Y0325749D01*
X0094997Y0325657D01*
X0095092Y0325562D01*
X0095184Y0325464D01*
X0095273Y0325364D01*
X0095359Y0325261D01*
X0095442Y0325156D01*
X0095522Y0325048D01*
X0095599Y0324938D01*
X0095672Y0324825D01*
X0095742Y0324711D01*
X0095808Y0324594D01*
X0095871Y0324476D01*
X0095931Y0324355D01*
X0095987Y0324233D01*
X0096039Y0324110D01*
X0096088Y0323985D01*
X0096132Y0323858D01*
X0096174Y0323730D01*
X0096211Y0323602D01*
X0096244Y0323472D01*
X0096274Y0323341D01*
X0096300Y0323209D01*
X0096321Y0323077D01*
X0096339Y0322944D01*
X0096353Y0322810D01*
X0096363Y0322676D01*
X0096369Y0322542D01*
X0096371Y0322408D01*
X0096369Y0322274D01*
X0096363Y0322140D01*
X0096353Y0322006D01*
X0096339Y0321872D01*
X0096321Y0321739D01*
X0096300Y0321607D01*
X0096274Y0321475D01*
X0096244Y0321344D01*
X0096211Y0321214D01*
X0096174Y0321086D01*
X0096132Y0320958D01*
X0096088Y0320831D01*
X0096039Y0320706D01*
X0095987Y0320583D01*
X0095931Y0320461D01*
X0095871Y0320340D01*
X0095808Y0320222D01*
X0095742Y0320105D01*
X0095672Y0319991D01*
X0095599Y0319878D01*
X0095522Y0319768D01*
X0095442Y0319660D01*
X0095359Y0319555D01*
X0095273Y0319452D01*
X0095184Y0319352D01*
X0095092Y0319254D01*
X0094997Y0319159D01*
X0094899Y0319067D01*
X0094799Y0318978D01*
X0094696Y0318892D01*
X0094591Y0318809D01*
X0094483Y0318729D01*
X0094373Y0318652D01*
X0094260Y0318579D01*
X0094146Y0318509D01*
X0094029Y0318443D01*
X0093911Y0318380D01*
X0093790Y0318320D01*
X0093668Y0318264D01*
X0093545Y0318212D01*
X0093420Y0318163D01*
X0093293Y0318119D01*
X0093165Y0318077D01*
X0093037Y0318040D01*
X0092907Y0318007D01*
X0092776Y0317977D01*
X0092644Y0317951D01*
X0092512Y0317930D01*
X0092379Y0317912D01*
X0092245Y0317898D01*
X0092111Y0317888D01*
X0091977Y0317882D01*
X0091843Y0317880D01*
X0091709Y0317882D01*
X0091575Y0317888D01*
X0091441Y0317898D01*
X0091307Y0317912D01*
X0091174Y0317930D01*
X0091042Y0317951D01*
X0090910Y0317977D01*
X0090779Y0318007D01*
X0090649Y0318040D01*
X0090521Y0318077D01*
X0090393Y0318119D01*
X0090266Y0318163D01*
X0090141Y0318212D01*
X0090018Y0318264D01*
X0089896Y0318320D01*
X0089775Y0318380D01*
X0089657Y0318443D01*
X0089540Y0318509D01*
X0089426Y0318579D01*
X0089313Y0318652D01*
X0089203Y0318729D01*
X0089095Y0318809D01*
X0088990Y0318892D01*
X0088887Y0318978D01*
X0088787Y0319067D01*
X0088689Y0319159D01*
X0088594Y0319254D01*
X0088502Y0319352D01*
X0088413Y0319452D01*
X0088327Y0319555D01*
X0088244Y0319660D01*
X0088164Y0319768D01*
X0088087Y0319878D01*
X0088014Y0319991D01*
X0087944Y0320105D01*
X0087878Y0320222D01*
X0087815Y0320340D01*
X0087755Y0320461D01*
X0087699Y0320583D01*
X0087647Y0320706D01*
X0087598Y0320831D01*
X0087554Y0320958D01*
X0087512Y0321086D01*
X0087475Y0321214D01*
X0087442Y0321344D01*
X0087412Y0321475D01*
X0087386Y0321607D01*
X0087365Y0321739D01*
X0087347Y0321872D01*
X0087333Y0322006D01*
X0087323Y0322140D01*
X0087317Y0322274D01*
X0087315Y0322408D01*
X0197551Y0322408D02*
X0197553Y0322542D01*
X0197559Y0322676D01*
X0197569Y0322810D01*
X0197583Y0322944D01*
X0197601Y0323077D01*
X0197622Y0323209D01*
X0197648Y0323341D01*
X0197678Y0323472D01*
X0197711Y0323602D01*
X0197748Y0323730D01*
X0197790Y0323858D01*
X0197834Y0323985D01*
X0197883Y0324110D01*
X0197935Y0324233D01*
X0197991Y0324355D01*
X0198051Y0324476D01*
X0198114Y0324594D01*
X0198180Y0324711D01*
X0198250Y0324825D01*
X0198323Y0324938D01*
X0198400Y0325048D01*
X0198480Y0325156D01*
X0198563Y0325261D01*
X0198649Y0325364D01*
X0198738Y0325464D01*
X0198830Y0325562D01*
X0198925Y0325657D01*
X0199023Y0325749D01*
X0199123Y0325838D01*
X0199226Y0325924D01*
X0199331Y0326007D01*
X0199439Y0326087D01*
X0199549Y0326164D01*
X0199662Y0326237D01*
X0199776Y0326307D01*
X0199893Y0326373D01*
X0200011Y0326436D01*
X0200132Y0326496D01*
X0200254Y0326552D01*
X0200377Y0326604D01*
X0200502Y0326653D01*
X0200629Y0326697D01*
X0200757Y0326739D01*
X0200885Y0326776D01*
X0201015Y0326809D01*
X0201146Y0326839D01*
X0201278Y0326865D01*
X0201410Y0326886D01*
X0201543Y0326904D01*
X0201677Y0326918D01*
X0201811Y0326928D01*
X0201945Y0326934D01*
X0202079Y0326936D01*
X0202213Y0326934D01*
X0202347Y0326928D01*
X0202481Y0326918D01*
X0202615Y0326904D01*
X0202748Y0326886D01*
X0202880Y0326865D01*
X0203012Y0326839D01*
X0203143Y0326809D01*
X0203273Y0326776D01*
X0203401Y0326739D01*
X0203529Y0326697D01*
X0203656Y0326653D01*
X0203781Y0326604D01*
X0203904Y0326552D01*
X0204026Y0326496D01*
X0204147Y0326436D01*
X0204265Y0326373D01*
X0204382Y0326307D01*
X0204496Y0326237D01*
X0204609Y0326164D01*
X0204719Y0326087D01*
X0204827Y0326007D01*
X0204932Y0325924D01*
X0205035Y0325838D01*
X0205135Y0325749D01*
X0205233Y0325657D01*
X0205328Y0325562D01*
X0205420Y0325464D01*
X0205509Y0325364D01*
X0205595Y0325261D01*
X0205678Y0325156D01*
X0205758Y0325048D01*
X0205835Y0324938D01*
X0205908Y0324825D01*
X0205978Y0324711D01*
X0206044Y0324594D01*
X0206107Y0324476D01*
X0206167Y0324355D01*
X0206223Y0324233D01*
X0206275Y0324110D01*
X0206324Y0323985D01*
X0206368Y0323858D01*
X0206410Y0323730D01*
X0206447Y0323602D01*
X0206480Y0323472D01*
X0206510Y0323341D01*
X0206536Y0323209D01*
X0206557Y0323077D01*
X0206575Y0322944D01*
X0206589Y0322810D01*
X0206599Y0322676D01*
X0206605Y0322542D01*
X0206607Y0322408D01*
X0206605Y0322274D01*
X0206599Y0322140D01*
X0206589Y0322006D01*
X0206575Y0321872D01*
X0206557Y0321739D01*
X0206536Y0321607D01*
X0206510Y0321475D01*
X0206480Y0321344D01*
X0206447Y0321214D01*
X0206410Y0321086D01*
X0206368Y0320958D01*
X0206324Y0320831D01*
X0206275Y0320706D01*
X0206223Y0320583D01*
X0206167Y0320461D01*
X0206107Y0320340D01*
X0206044Y0320222D01*
X0205978Y0320105D01*
X0205908Y0319991D01*
X0205835Y0319878D01*
X0205758Y0319768D01*
X0205678Y0319660D01*
X0205595Y0319555D01*
X0205509Y0319452D01*
X0205420Y0319352D01*
X0205328Y0319254D01*
X0205233Y0319159D01*
X0205135Y0319067D01*
X0205035Y0318978D01*
X0204932Y0318892D01*
X0204827Y0318809D01*
X0204719Y0318729D01*
X0204609Y0318652D01*
X0204496Y0318579D01*
X0204382Y0318509D01*
X0204265Y0318443D01*
X0204147Y0318380D01*
X0204026Y0318320D01*
X0203904Y0318264D01*
X0203781Y0318212D01*
X0203656Y0318163D01*
X0203529Y0318119D01*
X0203401Y0318077D01*
X0203273Y0318040D01*
X0203143Y0318007D01*
X0203012Y0317977D01*
X0202880Y0317951D01*
X0202748Y0317930D01*
X0202615Y0317912D01*
X0202481Y0317898D01*
X0202347Y0317888D01*
X0202213Y0317882D01*
X0202079Y0317880D01*
X0201945Y0317882D01*
X0201811Y0317888D01*
X0201677Y0317898D01*
X0201543Y0317912D01*
X0201410Y0317930D01*
X0201278Y0317951D01*
X0201146Y0317977D01*
X0201015Y0318007D01*
X0200885Y0318040D01*
X0200757Y0318077D01*
X0200629Y0318119D01*
X0200502Y0318163D01*
X0200377Y0318212D01*
X0200254Y0318264D01*
X0200132Y0318320D01*
X0200011Y0318380D01*
X0199893Y0318443D01*
X0199776Y0318509D01*
X0199662Y0318579D01*
X0199549Y0318652D01*
X0199439Y0318729D01*
X0199331Y0318809D01*
X0199226Y0318892D01*
X0199123Y0318978D01*
X0199023Y0319067D01*
X0198925Y0319159D01*
X0198830Y0319254D01*
X0198738Y0319352D01*
X0198649Y0319452D01*
X0198563Y0319555D01*
X0198480Y0319660D01*
X0198400Y0319768D01*
X0198323Y0319878D01*
X0198250Y0319991D01*
X0198180Y0320105D01*
X0198114Y0320222D01*
X0198051Y0320340D01*
X0197991Y0320461D01*
X0197935Y0320583D01*
X0197883Y0320706D01*
X0197834Y0320831D01*
X0197790Y0320958D01*
X0197748Y0321086D01*
X0197711Y0321214D01*
X0197678Y0321344D01*
X0197648Y0321475D01*
X0197622Y0321607D01*
X0197601Y0321739D01*
X0197583Y0321872D01*
X0197569Y0322006D01*
X0197559Y0322140D01*
X0197553Y0322274D01*
X0197551Y0322408D01*
X0220835Y0278900D02*
X0220837Y0278993D01*
X0220843Y0279085D01*
X0220853Y0279177D01*
X0220867Y0279268D01*
X0220884Y0279359D01*
X0220906Y0279449D01*
X0220931Y0279538D01*
X0220960Y0279626D01*
X0220993Y0279712D01*
X0221030Y0279797D01*
X0221070Y0279881D01*
X0221114Y0279962D01*
X0221161Y0280042D01*
X0221211Y0280120D01*
X0221265Y0280195D01*
X0221322Y0280268D01*
X0221382Y0280338D01*
X0221445Y0280406D01*
X0221511Y0280471D01*
X0221579Y0280533D01*
X0221650Y0280593D01*
X0221724Y0280649D01*
X0221800Y0280702D01*
X0221878Y0280751D01*
X0221958Y0280798D01*
X0222040Y0280840D01*
X0222124Y0280880D01*
X0222209Y0280915D01*
X0222296Y0280947D01*
X0222384Y0280976D01*
X0222473Y0281000D01*
X0222563Y0281021D01*
X0222654Y0281037D01*
X0222746Y0281050D01*
X0222838Y0281059D01*
X0222931Y0281064D01*
X0223023Y0281065D01*
X0223116Y0281062D01*
X0223208Y0281055D01*
X0223300Y0281044D01*
X0223391Y0281029D01*
X0223482Y0281011D01*
X0223572Y0280988D01*
X0223660Y0280962D01*
X0223748Y0280932D01*
X0223834Y0280898D01*
X0223918Y0280861D01*
X0224001Y0280819D01*
X0224082Y0280775D01*
X0224162Y0280727D01*
X0224239Y0280676D01*
X0224313Y0280621D01*
X0224386Y0280563D01*
X0224456Y0280503D01*
X0224523Y0280439D01*
X0224587Y0280373D01*
X0224649Y0280303D01*
X0224707Y0280232D01*
X0224762Y0280158D01*
X0224814Y0280081D01*
X0224863Y0280002D01*
X0224909Y0279922D01*
X0224951Y0279839D01*
X0224989Y0279755D01*
X0225024Y0279669D01*
X0225055Y0279582D01*
X0225082Y0279494D01*
X0225105Y0279404D01*
X0225125Y0279314D01*
X0225141Y0279223D01*
X0225153Y0279131D01*
X0225161Y0279039D01*
X0225165Y0278946D01*
X0225165Y0278854D01*
X0225161Y0278761D01*
X0225153Y0278669D01*
X0225141Y0278577D01*
X0225125Y0278486D01*
X0225105Y0278396D01*
X0225082Y0278306D01*
X0225055Y0278218D01*
X0225024Y0278131D01*
X0224989Y0278045D01*
X0224951Y0277961D01*
X0224909Y0277878D01*
X0224863Y0277798D01*
X0224814Y0277719D01*
X0224762Y0277642D01*
X0224707Y0277568D01*
X0224649Y0277497D01*
X0224587Y0277427D01*
X0224523Y0277361D01*
X0224456Y0277297D01*
X0224386Y0277237D01*
X0224313Y0277179D01*
X0224239Y0277124D01*
X0224162Y0277073D01*
X0224083Y0277025D01*
X0224001Y0276981D01*
X0223918Y0276939D01*
X0223834Y0276902D01*
X0223748Y0276868D01*
X0223660Y0276838D01*
X0223572Y0276812D01*
X0223482Y0276789D01*
X0223391Y0276771D01*
X0223300Y0276756D01*
X0223208Y0276745D01*
X0223116Y0276738D01*
X0223023Y0276735D01*
X0222931Y0276736D01*
X0222838Y0276741D01*
X0222746Y0276750D01*
X0222654Y0276763D01*
X0222563Y0276779D01*
X0222473Y0276800D01*
X0222384Y0276824D01*
X0222296Y0276853D01*
X0222209Y0276885D01*
X0222124Y0276920D01*
X0222040Y0276960D01*
X0221958Y0277002D01*
X0221878Y0277049D01*
X0221800Y0277098D01*
X0221724Y0277151D01*
X0221650Y0277207D01*
X0221579Y0277267D01*
X0221511Y0277329D01*
X0221445Y0277394D01*
X0221382Y0277462D01*
X0221322Y0277532D01*
X0221265Y0277605D01*
X0221211Y0277680D01*
X0221161Y0277758D01*
X0221114Y0277838D01*
X0221070Y0277919D01*
X0221030Y0278003D01*
X0220993Y0278088D01*
X0220960Y0278174D01*
X0220931Y0278262D01*
X0220906Y0278351D01*
X0220884Y0278441D01*
X0220867Y0278532D01*
X0220853Y0278623D01*
X0220843Y0278715D01*
X0220837Y0278807D01*
X0220835Y0278900D01*
X0302850Y0278900D02*
X0302852Y0279012D01*
X0302858Y0279123D01*
X0302868Y0279235D01*
X0302882Y0279346D01*
X0302899Y0279456D01*
X0302921Y0279566D01*
X0302947Y0279675D01*
X0302976Y0279783D01*
X0303009Y0279889D01*
X0303046Y0279995D01*
X0303087Y0280099D01*
X0303132Y0280202D01*
X0303180Y0280303D01*
X0303231Y0280402D01*
X0303286Y0280499D01*
X0303345Y0280594D01*
X0303406Y0280688D01*
X0303471Y0280779D01*
X0303540Y0280867D01*
X0303611Y0280953D01*
X0303685Y0281037D01*
X0303763Y0281117D01*
X0303843Y0281195D01*
X0303926Y0281271D01*
X0304011Y0281343D01*
X0304099Y0281412D01*
X0304189Y0281478D01*
X0304282Y0281540D01*
X0304377Y0281600D01*
X0304474Y0281656D01*
X0304572Y0281708D01*
X0304673Y0281757D01*
X0304775Y0281802D01*
X0304879Y0281844D01*
X0304984Y0281882D01*
X0305091Y0281916D01*
X0305198Y0281946D01*
X0305307Y0281973D01*
X0305416Y0281995D01*
X0305527Y0282014D01*
X0305637Y0282029D01*
X0305749Y0282040D01*
X0305860Y0282047D01*
X0305972Y0282050D01*
X0306084Y0282049D01*
X0306196Y0282044D01*
X0306307Y0282035D01*
X0306418Y0282022D01*
X0306529Y0282005D01*
X0306639Y0281985D01*
X0306748Y0281960D01*
X0306856Y0281932D01*
X0306963Y0281899D01*
X0307069Y0281863D01*
X0307173Y0281823D01*
X0307276Y0281780D01*
X0307378Y0281733D01*
X0307477Y0281682D01*
X0307575Y0281628D01*
X0307671Y0281570D01*
X0307765Y0281509D01*
X0307856Y0281445D01*
X0307945Y0281378D01*
X0308032Y0281307D01*
X0308116Y0281233D01*
X0308198Y0281157D01*
X0308276Y0281077D01*
X0308352Y0280995D01*
X0308425Y0280910D01*
X0308495Y0280823D01*
X0308561Y0280733D01*
X0308625Y0280641D01*
X0308685Y0280547D01*
X0308742Y0280451D01*
X0308795Y0280352D01*
X0308845Y0280252D01*
X0308891Y0280151D01*
X0308934Y0280047D01*
X0308973Y0279942D01*
X0309008Y0279836D01*
X0309039Y0279729D01*
X0309067Y0279620D01*
X0309090Y0279511D01*
X0309110Y0279401D01*
X0309126Y0279290D01*
X0309138Y0279179D01*
X0309146Y0279068D01*
X0309150Y0278956D01*
X0309150Y0278844D01*
X0309146Y0278732D01*
X0309138Y0278621D01*
X0309126Y0278510D01*
X0309110Y0278399D01*
X0309090Y0278289D01*
X0309067Y0278180D01*
X0309039Y0278071D01*
X0309008Y0277964D01*
X0308973Y0277858D01*
X0308934Y0277753D01*
X0308891Y0277649D01*
X0308845Y0277548D01*
X0308795Y0277448D01*
X0308742Y0277349D01*
X0308685Y0277253D01*
X0308625Y0277159D01*
X0308561Y0277067D01*
X0308495Y0276977D01*
X0308425Y0276890D01*
X0308352Y0276805D01*
X0308276Y0276723D01*
X0308198Y0276643D01*
X0308116Y0276567D01*
X0308032Y0276493D01*
X0307945Y0276422D01*
X0307856Y0276355D01*
X0307765Y0276291D01*
X0307671Y0276230D01*
X0307575Y0276172D01*
X0307477Y0276118D01*
X0307378Y0276067D01*
X0307276Y0276020D01*
X0307173Y0275977D01*
X0307069Y0275937D01*
X0306963Y0275901D01*
X0306856Y0275868D01*
X0306748Y0275840D01*
X0306639Y0275815D01*
X0306529Y0275795D01*
X0306418Y0275778D01*
X0306307Y0275765D01*
X0306196Y0275756D01*
X0306084Y0275751D01*
X0305972Y0275750D01*
X0305860Y0275753D01*
X0305749Y0275760D01*
X0305637Y0275771D01*
X0305527Y0275786D01*
X0305416Y0275805D01*
X0305307Y0275827D01*
X0305198Y0275854D01*
X0305091Y0275884D01*
X0304984Y0275918D01*
X0304879Y0275956D01*
X0304775Y0275998D01*
X0304673Y0276043D01*
X0304572Y0276092D01*
X0304474Y0276144D01*
X0304377Y0276200D01*
X0304282Y0276260D01*
X0304189Y0276322D01*
X0304099Y0276388D01*
X0304011Y0276457D01*
X0303926Y0276529D01*
X0303843Y0276605D01*
X0303763Y0276683D01*
X0303685Y0276763D01*
X0303611Y0276847D01*
X0303540Y0276933D01*
X0303471Y0277021D01*
X0303406Y0277112D01*
X0303345Y0277206D01*
X0303286Y0277301D01*
X0303231Y0277398D01*
X0303180Y0277497D01*
X0303132Y0277598D01*
X0303087Y0277701D01*
X0303046Y0277805D01*
X0303009Y0277911D01*
X0302976Y0278017D01*
X0302947Y0278125D01*
X0302921Y0278234D01*
X0302899Y0278344D01*
X0302882Y0278454D01*
X0302868Y0278565D01*
X0302858Y0278677D01*
X0302852Y0278788D01*
X0302850Y0278900D01*
X0378477Y0244022D02*
X0378479Y0244178D01*
X0378485Y0244334D01*
X0378495Y0244489D01*
X0378509Y0244644D01*
X0378527Y0244799D01*
X0378549Y0244953D01*
X0378574Y0245107D01*
X0378604Y0245260D01*
X0378638Y0245412D01*
X0378675Y0245564D01*
X0378716Y0245714D01*
X0378761Y0245863D01*
X0378810Y0246011D01*
X0378863Y0246158D01*
X0378919Y0246303D01*
X0378979Y0246447D01*
X0379043Y0246589D01*
X0379111Y0246730D01*
X0379182Y0246868D01*
X0379256Y0247005D01*
X0379334Y0247140D01*
X0379415Y0247273D01*
X0379500Y0247404D01*
X0379588Y0247533D01*
X0379679Y0247659D01*
X0379774Y0247783D01*
X0379871Y0247904D01*
X0379972Y0248023D01*
X0380076Y0248140D01*
X0380182Y0248253D01*
X0380292Y0248364D01*
X0380404Y0248472D01*
X0380519Y0248577D01*
X0380637Y0248680D01*
X0380757Y0248779D01*
X0380880Y0248875D01*
X0381005Y0248968D01*
X0381132Y0249057D01*
X0381262Y0249144D01*
X0381394Y0249227D01*
X0381528Y0249306D01*
X0381664Y0249383D01*
X0381802Y0249455D01*
X0381941Y0249525D01*
X0382083Y0249590D01*
X0382226Y0249652D01*
X0382370Y0249710D01*
X0382516Y0249765D01*
X0382664Y0249816D01*
X0382812Y0249863D01*
X0382962Y0249906D01*
X0383113Y0249945D01*
X0383265Y0249981D01*
X0383417Y0250012D01*
X0383571Y0250040D01*
X0383725Y0250064D01*
X0383879Y0250084D01*
X0384034Y0250100D01*
X0384190Y0250112D01*
X0384345Y0250120D01*
X0384501Y0250124D01*
X0384657Y0250124D01*
X0384813Y0250120D01*
X0384968Y0250112D01*
X0385124Y0250100D01*
X0385279Y0250084D01*
X0385433Y0250064D01*
X0385587Y0250040D01*
X0385741Y0250012D01*
X0385893Y0249981D01*
X0386045Y0249945D01*
X0386196Y0249906D01*
X0386346Y0249863D01*
X0386494Y0249816D01*
X0386642Y0249765D01*
X0386788Y0249710D01*
X0386932Y0249652D01*
X0387075Y0249590D01*
X0387217Y0249525D01*
X0387356Y0249455D01*
X0387494Y0249383D01*
X0387630Y0249306D01*
X0387764Y0249227D01*
X0387896Y0249144D01*
X0388026Y0249057D01*
X0388153Y0248968D01*
X0388278Y0248875D01*
X0388401Y0248779D01*
X0388521Y0248680D01*
X0388639Y0248577D01*
X0388754Y0248472D01*
X0388866Y0248364D01*
X0388976Y0248253D01*
X0389082Y0248140D01*
X0389186Y0248023D01*
X0389287Y0247904D01*
X0389384Y0247783D01*
X0389479Y0247659D01*
X0389570Y0247533D01*
X0389658Y0247404D01*
X0389743Y0247273D01*
X0389824Y0247140D01*
X0389902Y0247005D01*
X0389976Y0246868D01*
X0390047Y0246730D01*
X0390115Y0246589D01*
X0390179Y0246447D01*
X0390239Y0246303D01*
X0390295Y0246158D01*
X0390348Y0246011D01*
X0390397Y0245863D01*
X0390442Y0245714D01*
X0390483Y0245564D01*
X0390520Y0245412D01*
X0390554Y0245260D01*
X0390584Y0245107D01*
X0390609Y0244953D01*
X0390631Y0244799D01*
X0390649Y0244644D01*
X0390663Y0244489D01*
X0390673Y0244334D01*
X0390679Y0244178D01*
X0390681Y0244022D01*
X0390679Y0243866D01*
X0390673Y0243710D01*
X0390663Y0243555D01*
X0390649Y0243400D01*
X0390631Y0243245D01*
X0390609Y0243091D01*
X0390584Y0242937D01*
X0390554Y0242784D01*
X0390520Y0242632D01*
X0390483Y0242480D01*
X0390442Y0242330D01*
X0390397Y0242181D01*
X0390348Y0242033D01*
X0390295Y0241886D01*
X0390239Y0241741D01*
X0390179Y0241597D01*
X0390115Y0241455D01*
X0390047Y0241314D01*
X0389976Y0241176D01*
X0389902Y0241039D01*
X0389824Y0240904D01*
X0389743Y0240771D01*
X0389658Y0240640D01*
X0389570Y0240511D01*
X0389479Y0240385D01*
X0389384Y0240261D01*
X0389287Y0240140D01*
X0389186Y0240021D01*
X0389082Y0239904D01*
X0388976Y0239791D01*
X0388866Y0239680D01*
X0388754Y0239572D01*
X0388639Y0239467D01*
X0388521Y0239364D01*
X0388401Y0239265D01*
X0388278Y0239169D01*
X0388153Y0239076D01*
X0388026Y0238987D01*
X0387896Y0238900D01*
X0387764Y0238817D01*
X0387630Y0238738D01*
X0387494Y0238661D01*
X0387356Y0238589D01*
X0387217Y0238519D01*
X0387075Y0238454D01*
X0386932Y0238392D01*
X0386788Y0238334D01*
X0386642Y0238279D01*
X0386494Y0238228D01*
X0386346Y0238181D01*
X0386196Y0238138D01*
X0386045Y0238099D01*
X0385893Y0238063D01*
X0385741Y0238032D01*
X0385587Y0238004D01*
X0385433Y0237980D01*
X0385279Y0237960D01*
X0385124Y0237944D01*
X0384968Y0237932D01*
X0384813Y0237924D01*
X0384657Y0237920D01*
X0384501Y0237920D01*
X0384345Y0237924D01*
X0384190Y0237932D01*
X0384034Y0237944D01*
X0383879Y0237960D01*
X0383725Y0237980D01*
X0383571Y0238004D01*
X0383417Y0238032D01*
X0383265Y0238063D01*
X0383113Y0238099D01*
X0382962Y0238138D01*
X0382812Y0238181D01*
X0382664Y0238228D01*
X0382516Y0238279D01*
X0382370Y0238334D01*
X0382226Y0238392D01*
X0382083Y0238454D01*
X0381941Y0238519D01*
X0381802Y0238589D01*
X0381664Y0238661D01*
X0381528Y0238738D01*
X0381394Y0238817D01*
X0381262Y0238900D01*
X0381132Y0238987D01*
X0381005Y0239076D01*
X0380880Y0239169D01*
X0380757Y0239265D01*
X0380637Y0239364D01*
X0380519Y0239467D01*
X0380404Y0239572D01*
X0380292Y0239680D01*
X0380182Y0239791D01*
X0380076Y0239904D01*
X0379972Y0240021D01*
X0379871Y0240140D01*
X0379774Y0240261D01*
X0379679Y0240385D01*
X0379588Y0240511D01*
X0379500Y0240640D01*
X0379415Y0240771D01*
X0379334Y0240904D01*
X0379256Y0241039D01*
X0379182Y0241176D01*
X0379111Y0241314D01*
X0379043Y0241455D01*
X0378979Y0241597D01*
X0378919Y0241741D01*
X0378863Y0241886D01*
X0378810Y0242033D01*
X0378761Y0242181D01*
X0378716Y0242330D01*
X0378675Y0242480D01*
X0378638Y0242632D01*
X0378604Y0242784D01*
X0378574Y0242937D01*
X0378549Y0243091D01*
X0378527Y0243245D01*
X0378509Y0243400D01*
X0378495Y0243555D01*
X0378485Y0243710D01*
X0378479Y0243866D01*
X0378477Y0244022D01*
X0382414Y0590479D02*
X0382416Y0590635D01*
X0382422Y0590791D01*
X0382432Y0590946D01*
X0382446Y0591101D01*
X0382464Y0591256D01*
X0382486Y0591410D01*
X0382511Y0591564D01*
X0382541Y0591717D01*
X0382575Y0591869D01*
X0382612Y0592021D01*
X0382653Y0592171D01*
X0382698Y0592320D01*
X0382747Y0592468D01*
X0382800Y0592615D01*
X0382856Y0592760D01*
X0382916Y0592904D01*
X0382980Y0593046D01*
X0383048Y0593187D01*
X0383119Y0593325D01*
X0383193Y0593462D01*
X0383271Y0593597D01*
X0383352Y0593730D01*
X0383437Y0593861D01*
X0383525Y0593990D01*
X0383616Y0594116D01*
X0383711Y0594240D01*
X0383808Y0594361D01*
X0383909Y0594480D01*
X0384013Y0594597D01*
X0384119Y0594710D01*
X0384229Y0594821D01*
X0384341Y0594929D01*
X0384456Y0595034D01*
X0384574Y0595137D01*
X0384694Y0595236D01*
X0384817Y0595332D01*
X0384942Y0595425D01*
X0385069Y0595514D01*
X0385199Y0595601D01*
X0385331Y0595684D01*
X0385465Y0595763D01*
X0385601Y0595840D01*
X0385739Y0595912D01*
X0385878Y0595982D01*
X0386020Y0596047D01*
X0386163Y0596109D01*
X0386307Y0596167D01*
X0386453Y0596222D01*
X0386601Y0596273D01*
X0386749Y0596320D01*
X0386899Y0596363D01*
X0387050Y0596402D01*
X0387202Y0596438D01*
X0387354Y0596469D01*
X0387508Y0596497D01*
X0387662Y0596521D01*
X0387816Y0596541D01*
X0387971Y0596557D01*
X0388127Y0596569D01*
X0388282Y0596577D01*
X0388438Y0596581D01*
X0388594Y0596581D01*
X0388750Y0596577D01*
X0388905Y0596569D01*
X0389061Y0596557D01*
X0389216Y0596541D01*
X0389370Y0596521D01*
X0389524Y0596497D01*
X0389678Y0596469D01*
X0389830Y0596438D01*
X0389982Y0596402D01*
X0390133Y0596363D01*
X0390283Y0596320D01*
X0390431Y0596273D01*
X0390579Y0596222D01*
X0390725Y0596167D01*
X0390869Y0596109D01*
X0391012Y0596047D01*
X0391154Y0595982D01*
X0391293Y0595912D01*
X0391431Y0595840D01*
X0391567Y0595763D01*
X0391701Y0595684D01*
X0391833Y0595601D01*
X0391963Y0595514D01*
X0392090Y0595425D01*
X0392215Y0595332D01*
X0392338Y0595236D01*
X0392458Y0595137D01*
X0392576Y0595034D01*
X0392691Y0594929D01*
X0392803Y0594821D01*
X0392913Y0594710D01*
X0393019Y0594597D01*
X0393123Y0594480D01*
X0393224Y0594361D01*
X0393321Y0594240D01*
X0393416Y0594116D01*
X0393507Y0593990D01*
X0393595Y0593861D01*
X0393680Y0593730D01*
X0393761Y0593597D01*
X0393839Y0593462D01*
X0393913Y0593325D01*
X0393984Y0593187D01*
X0394052Y0593046D01*
X0394116Y0592904D01*
X0394176Y0592760D01*
X0394232Y0592615D01*
X0394285Y0592468D01*
X0394334Y0592320D01*
X0394379Y0592171D01*
X0394420Y0592021D01*
X0394457Y0591869D01*
X0394491Y0591717D01*
X0394521Y0591564D01*
X0394546Y0591410D01*
X0394568Y0591256D01*
X0394586Y0591101D01*
X0394600Y0590946D01*
X0394610Y0590791D01*
X0394616Y0590635D01*
X0394618Y0590479D01*
X0394616Y0590323D01*
X0394610Y0590167D01*
X0394600Y0590012D01*
X0394586Y0589857D01*
X0394568Y0589702D01*
X0394546Y0589548D01*
X0394521Y0589394D01*
X0394491Y0589241D01*
X0394457Y0589089D01*
X0394420Y0588937D01*
X0394379Y0588787D01*
X0394334Y0588638D01*
X0394285Y0588490D01*
X0394232Y0588343D01*
X0394176Y0588198D01*
X0394116Y0588054D01*
X0394052Y0587912D01*
X0393984Y0587771D01*
X0393913Y0587633D01*
X0393839Y0587496D01*
X0393761Y0587361D01*
X0393680Y0587228D01*
X0393595Y0587097D01*
X0393507Y0586968D01*
X0393416Y0586842D01*
X0393321Y0586718D01*
X0393224Y0586597D01*
X0393123Y0586478D01*
X0393019Y0586361D01*
X0392913Y0586248D01*
X0392803Y0586137D01*
X0392691Y0586029D01*
X0392576Y0585924D01*
X0392458Y0585821D01*
X0392338Y0585722D01*
X0392215Y0585626D01*
X0392090Y0585533D01*
X0391963Y0585444D01*
X0391833Y0585357D01*
X0391701Y0585274D01*
X0391567Y0585195D01*
X0391431Y0585118D01*
X0391293Y0585046D01*
X0391154Y0584976D01*
X0391012Y0584911D01*
X0390869Y0584849D01*
X0390725Y0584791D01*
X0390579Y0584736D01*
X0390431Y0584685D01*
X0390283Y0584638D01*
X0390133Y0584595D01*
X0389982Y0584556D01*
X0389830Y0584520D01*
X0389678Y0584489D01*
X0389524Y0584461D01*
X0389370Y0584437D01*
X0389216Y0584417D01*
X0389061Y0584401D01*
X0388905Y0584389D01*
X0388750Y0584381D01*
X0388594Y0584377D01*
X0388438Y0584377D01*
X0388282Y0584381D01*
X0388127Y0584389D01*
X0387971Y0584401D01*
X0387816Y0584417D01*
X0387662Y0584437D01*
X0387508Y0584461D01*
X0387354Y0584489D01*
X0387202Y0584520D01*
X0387050Y0584556D01*
X0386899Y0584595D01*
X0386749Y0584638D01*
X0386601Y0584685D01*
X0386453Y0584736D01*
X0386307Y0584791D01*
X0386163Y0584849D01*
X0386020Y0584911D01*
X0385878Y0584976D01*
X0385739Y0585046D01*
X0385601Y0585118D01*
X0385465Y0585195D01*
X0385331Y0585274D01*
X0385199Y0585357D01*
X0385069Y0585444D01*
X0384942Y0585533D01*
X0384817Y0585626D01*
X0384694Y0585722D01*
X0384574Y0585821D01*
X0384456Y0585924D01*
X0384341Y0586029D01*
X0384229Y0586137D01*
X0384119Y0586248D01*
X0384013Y0586361D01*
X0383909Y0586478D01*
X0383808Y0586597D01*
X0383711Y0586718D01*
X0383616Y0586842D01*
X0383525Y0586968D01*
X0383437Y0587097D01*
X0383352Y0587228D01*
X0383271Y0587361D01*
X0383193Y0587496D01*
X0383119Y0587633D01*
X0383048Y0587771D01*
X0382980Y0587912D01*
X0382916Y0588054D01*
X0382856Y0588198D01*
X0382800Y0588343D01*
X0382747Y0588490D01*
X0382698Y0588638D01*
X0382653Y0588787D01*
X0382612Y0588937D01*
X0382575Y0589089D01*
X0382541Y0589241D01*
X0382511Y0589394D01*
X0382486Y0589548D01*
X0382464Y0589702D01*
X0382446Y0589857D01*
X0382432Y0590012D01*
X0382422Y0590167D01*
X0382416Y0590323D01*
X0382414Y0590479D01*
X0028083Y0590479D02*
X0028085Y0590635D01*
X0028091Y0590791D01*
X0028101Y0590946D01*
X0028115Y0591101D01*
X0028133Y0591256D01*
X0028155Y0591410D01*
X0028180Y0591564D01*
X0028210Y0591717D01*
X0028244Y0591869D01*
X0028281Y0592021D01*
X0028322Y0592171D01*
X0028367Y0592320D01*
X0028416Y0592468D01*
X0028469Y0592615D01*
X0028525Y0592760D01*
X0028585Y0592904D01*
X0028649Y0593046D01*
X0028717Y0593187D01*
X0028788Y0593325D01*
X0028862Y0593462D01*
X0028940Y0593597D01*
X0029021Y0593730D01*
X0029106Y0593861D01*
X0029194Y0593990D01*
X0029285Y0594116D01*
X0029380Y0594240D01*
X0029477Y0594361D01*
X0029578Y0594480D01*
X0029682Y0594597D01*
X0029788Y0594710D01*
X0029898Y0594821D01*
X0030010Y0594929D01*
X0030125Y0595034D01*
X0030243Y0595137D01*
X0030363Y0595236D01*
X0030486Y0595332D01*
X0030611Y0595425D01*
X0030738Y0595514D01*
X0030868Y0595601D01*
X0031000Y0595684D01*
X0031134Y0595763D01*
X0031270Y0595840D01*
X0031408Y0595912D01*
X0031547Y0595982D01*
X0031689Y0596047D01*
X0031832Y0596109D01*
X0031976Y0596167D01*
X0032122Y0596222D01*
X0032270Y0596273D01*
X0032418Y0596320D01*
X0032568Y0596363D01*
X0032719Y0596402D01*
X0032871Y0596438D01*
X0033023Y0596469D01*
X0033177Y0596497D01*
X0033331Y0596521D01*
X0033485Y0596541D01*
X0033640Y0596557D01*
X0033796Y0596569D01*
X0033951Y0596577D01*
X0034107Y0596581D01*
X0034263Y0596581D01*
X0034419Y0596577D01*
X0034574Y0596569D01*
X0034730Y0596557D01*
X0034885Y0596541D01*
X0035039Y0596521D01*
X0035193Y0596497D01*
X0035347Y0596469D01*
X0035499Y0596438D01*
X0035651Y0596402D01*
X0035802Y0596363D01*
X0035952Y0596320D01*
X0036100Y0596273D01*
X0036248Y0596222D01*
X0036394Y0596167D01*
X0036538Y0596109D01*
X0036681Y0596047D01*
X0036823Y0595982D01*
X0036962Y0595912D01*
X0037100Y0595840D01*
X0037236Y0595763D01*
X0037370Y0595684D01*
X0037502Y0595601D01*
X0037632Y0595514D01*
X0037759Y0595425D01*
X0037884Y0595332D01*
X0038007Y0595236D01*
X0038127Y0595137D01*
X0038245Y0595034D01*
X0038360Y0594929D01*
X0038472Y0594821D01*
X0038582Y0594710D01*
X0038688Y0594597D01*
X0038792Y0594480D01*
X0038893Y0594361D01*
X0038990Y0594240D01*
X0039085Y0594116D01*
X0039176Y0593990D01*
X0039264Y0593861D01*
X0039349Y0593730D01*
X0039430Y0593597D01*
X0039508Y0593462D01*
X0039582Y0593325D01*
X0039653Y0593187D01*
X0039721Y0593046D01*
X0039785Y0592904D01*
X0039845Y0592760D01*
X0039901Y0592615D01*
X0039954Y0592468D01*
X0040003Y0592320D01*
X0040048Y0592171D01*
X0040089Y0592021D01*
X0040126Y0591869D01*
X0040160Y0591717D01*
X0040190Y0591564D01*
X0040215Y0591410D01*
X0040237Y0591256D01*
X0040255Y0591101D01*
X0040269Y0590946D01*
X0040279Y0590791D01*
X0040285Y0590635D01*
X0040287Y0590479D01*
X0040285Y0590323D01*
X0040279Y0590167D01*
X0040269Y0590012D01*
X0040255Y0589857D01*
X0040237Y0589702D01*
X0040215Y0589548D01*
X0040190Y0589394D01*
X0040160Y0589241D01*
X0040126Y0589089D01*
X0040089Y0588937D01*
X0040048Y0588787D01*
X0040003Y0588638D01*
X0039954Y0588490D01*
X0039901Y0588343D01*
X0039845Y0588198D01*
X0039785Y0588054D01*
X0039721Y0587912D01*
X0039653Y0587771D01*
X0039582Y0587633D01*
X0039508Y0587496D01*
X0039430Y0587361D01*
X0039349Y0587228D01*
X0039264Y0587097D01*
X0039176Y0586968D01*
X0039085Y0586842D01*
X0038990Y0586718D01*
X0038893Y0586597D01*
X0038792Y0586478D01*
X0038688Y0586361D01*
X0038582Y0586248D01*
X0038472Y0586137D01*
X0038360Y0586029D01*
X0038245Y0585924D01*
X0038127Y0585821D01*
X0038007Y0585722D01*
X0037884Y0585626D01*
X0037759Y0585533D01*
X0037632Y0585444D01*
X0037502Y0585357D01*
X0037370Y0585274D01*
X0037236Y0585195D01*
X0037100Y0585118D01*
X0036962Y0585046D01*
X0036823Y0584976D01*
X0036681Y0584911D01*
X0036538Y0584849D01*
X0036394Y0584791D01*
X0036248Y0584736D01*
X0036100Y0584685D01*
X0035952Y0584638D01*
X0035802Y0584595D01*
X0035651Y0584556D01*
X0035499Y0584520D01*
X0035347Y0584489D01*
X0035193Y0584461D01*
X0035039Y0584437D01*
X0034885Y0584417D01*
X0034730Y0584401D01*
X0034574Y0584389D01*
X0034419Y0584381D01*
X0034263Y0584377D01*
X0034107Y0584377D01*
X0033951Y0584381D01*
X0033796Y0584389D01*
X0033640Y0584401D01*
X0033485Y0584417D01*
X0033331Y0584437D01*
X0033177Y0584461D01*
X0033023Y0584489D01*
X0032871Y0584520D01*
X0032719Y0584556D01*
X0032568Y0584595D01*
X0032418Y0584638D01*
X0032270Y0584685D01*
X0032122Y0584736D01*
X0031976Y0584791D01*
X0031832Y0584849D01*
X0031689Y0584911D01*
X0031547Y0584976D01*
X0031408Y0585046D01*
X0031270Y0585118D01*
X0031134Y0585195D01*
X0031000Y0585274D01*
X0030868Y0585357D01*
X0030738Y0585444D01*
X0030611Y0585533D01*
X0030486Y0585626D01*
X0030363Y0585722D01*
X0030243Y0585821D01*
X0030125Y0585924D01*
X0030010Y0586029D01*
X0029898Y0586137D01*
X0029788Y0586248D01*
X0029682Y0586361D01*
X0029578Y0586478D01*
X0029477Y0586597D01*
X0029380Y0586718D01*
X0029285Y0586842D01*
X0029194Y0586968D01*
X0029106Y0587097D01*
X0029021Y0587228D01*
X0028940Y0587361D01*
X0028862Y0587496D01*
X0028788Y0587633D01*
X0028717Y0587771D01*
X0028649Y0587912D01*
X0028585Y0588054D01*
X0028525Y0588198D01*
X0028469Y0588343D01*
X0028416Y0588490D01*
X0028367Y0588638D01*
X0028322Y0588787D01*
X0028281Y0588937D01*
X0028244Y0589089D01*
X0028210Y0589241D01*
X0028180Y0589394D01*
X0028155Y0589548D01*
X0028133Y0589702D01*
X0028115Y0589857D01*
X0028101Y0590012D01*
X0028091Y0590167D01*
X0028085Y0590323D01*
X0028083Y0590479D01*
M02*
