G75*
%MOIN*%
%OFA0B0*%
%FSLAX25Y25*%
%IPPOS*%
%LPD*%
%AMOC8*
5,1,8,0,0,1.08239X$1,22.5*
%
%ADD10C,0.13005*%
%ADD11R,0.05052X0.04934*%
%ADD12R,0.04934X0.05052*%
%ADD13R,0.01575X0.04134*%
%ADD14R,0.11811X0.11811*%
%ADD15R,0.04134X0.01575*%
%ADD16R,0.04737X0.05131*%
%ADD17R,0.05131X0.04737*%
%ADD18R,0.06312X0.04737*%
%ADD19R,0.04343X0.06706*%
%ADD20R,0.06706X0.04343*%
%ADD21R,0.24422X0.24422*%
%ADD22C,0.04737*%
%ADD23R,0.04737X0.07887*%
%ADD24R,0.04343X0.03556*%
%ADD25R,0.02965X0.03162*%
%ADD26R,0.11036X0.03359*%
%ADD27R,0.03359X0.11036*%
%ADD28C,0.08200*%
%ADD29R,0.05800X0.10800*%
%ADD30R,0.03600X0.06400*%
%ADD31C,0.07099*%
%ADD32C,0.05131*%
%ADD33R,0.05524X0.02965*%
%ADD34R,0.05721X0.19304*%
%ADD35R,0.04737X0.05800*%
%ADD36OC8,0.07800*%
%ADD37C,0.10800*%
%ADD38C,0.08477*%
%ADD39R,0.14580X0.07099*%
%ADD40R,0.03162X0.02965*%
%ADD41C,0.09855*%
%ADD42C,0.06800*%
%ADD43R,0.02572X0.06706*%
%ADD44C,0.06800*%
%ADD45C,0.08300*%
%ADD46R,0.06312X0.01981*%
%ADD47R,0.03556X0.07690*%
%ADD48R,0.06706X0.05918*%
%ADD49R,0.03950X0.06706*%
%ADD50R,0.03950X0.06312*%
%ADD51R,0.06902X0.04737*%
%ADD52R,0.04737X0.06902*%
%ADD53R,0.25209X0.22060*%
%ADD54R,0.07099X0.04737*%
%ADD55R,0.02000X0.04700*%
%ADD56R,0.03162X0.05328*%
%ADD57R,0.02572X0.05328*%
%ADD58C,0.01969*%
%ADD59R,0.08200X0.08200*%
%ADD60R,0.06312X0.03044*%
%ADD61R,0.05524X0.03359*%
%ADD62C,0.00500*%
%ADD63R,0.05800X0.04737*%
%ADD64R,0.03359X0.06816*%
%ADD65C,0.04000*%
%ADD66C,0.03975*%
D10*
X0038122Y0244022D03*
X0034185Y0590479D03*
X0384579Y0244022D03*
X0388516Y0590479D03*
D11*
X0357500Y0495795D03*
X0357500Y0488905D03*
X0340350Y0488905D03*
X0340350Y0495795D03*
X0314625Y0495795D03*
X0314625Y0488905D03*
X0297475Y0488905D03*
X0297475Y0495795D03*
X0250925Y0497020D03*
X0250925Y0490130D03*
X0233775Y0490130D03*
X0233775Y0497020D03*
X0192125Y0410045D03*
X0192125Y0403155D03*
X0192125Y0395345D03*
X0192125Y0388455D03*
X0233500Y0390645D03*
X0233500Y0383755D03*
X0246150Y0383755D03*
X0246150Y0390645D03*
X0311375Y0317545D03*
X0317675Y0317545D03*
X0317675Y0310655D03*
X0311375Y0310655D03*
X0389475Y0455105D03*
X0395825Y0455105D03*
X0395825Y0461995D03*
X0389475Y0461995D03*
X0139450Y0487680D03*
X0139450Y0494570D03*
X0122300Y0494570D03*
X0122300Y0487680D03*
X0097800Y0487680D03*
X0097800Y0494570D03*
X0080650Y0494570D03*
X0080650Y0487680D03*
X0058750Y0420370D03*
X0058750Y0413480D03*
X0065300Y0384595D03*
X0065300Y0377705D03*
X0111800Y0324920D03*
X0111800Y0318030D03*
X0030425Y0477880D03*
X0030425Y0484770D03*
D12*
X0058830Y0443350D03*
X0065720Y0443350D03*
X0058220Y0426900D03*
X0051330Y0426900D03*
X0107830Y0465400D03*
X0114720Y0465400D03*
X0182555Y0423750D03*
X0189445Y0423750D03*
X0234005Y0465400D03*
X0240895Y0465400D03*
X0270555Y0396525D03*
X0277445Y0396525D03*
X0324655Y0466625D03*
X0331545Y0466625D03*
X0253395Y0300675D03*
X0246505Y0300675D03*
X0199545Y0274100D03*
X0192655Y0274100D03*
X0174445Y0278400D03*
X0174445Y0284725D03*
X0174445Y0291050D03*
X0167555Y0291050D03*
X0167555Y0284725D03*
X0167555Y0278400D03*
X0172455Y0241450D03*
X0172455Y0234500D03*
X0179345Y0234500D03*
X0179345Y0241450D03*
X0130495Y0271650D03*
X0123605Y0271650D03*
X0104595Y0276750D03*
X0097705Y0276750D03*
X0097480Y0284725D03*
X0104370Y0284725D03*
X0104270Y0291775D03*
X0097380Y0291775D03*
X0110510Y0306030D03*
X0117400Y0306030D03*
X0137380Y0365800D03*
X0144270Y0365800D03*
X0108270Y0241750D03*
X0101380Y0241750D03*
X0101205Y0234075D03*
X0108095Y0234075D03*
X0324030Y0267200D03*
X0330920Y0267200D03*
D13*
X0338594Y0281709D03*
X0340563Y0281709D03*
X0342531Y0281709D03*
X0344500Y0281709D03*
X0346469Y0281709D03*
X0348437Y0281709D03*
X0350406Y0281709D03*
X0350406Y0301591D03*
X0348437Y0301591D03*
X0346469Y0301591D03*
X0344500Y0301591D03*
X0342531Y0301591D03*
X0340563Y0301591D03*
X0338594Y0301591D03*
D14*
X0344500Y0291650D03*
D15*
X0354441Y0291650D03*
X0354441Y0293619D03*
X0354441Y0295587D03*
X0354441Y0297556D03*
X0354441Y0289681D03*
X0354441Y0287713D03*
X0354441Y0285744D03*
X0334559Y0285744D03*
X0334559Y0287713D03*
X0334559Y0289681D03*
X0334559Y0291650D03*
X0334559Y0293619D03*
X0334559Y0295587D03*
X0334559Y0297556D03*
D16*
X0351154Y0274150D03*
X0357846Y0274150D03*
X0372379Y0265425D03*
X0379071Y0265425D03*
X0393754Y0299975D03*
X0400446Y0299975D03*
X0339962Y0331686D03*
X0333269Y0331686D03*
X0326871Y0331425D03*
X0320179Y0331425D03*
X0301746Y0386500D03*
X0295054Y0386500D03*
X0295054Y0395475D03*
X0301746Y0395475D03*
X0315254Y0392400D03*
X0321946Y0392400D03*
X0321846Y0427500D03*
X0315154Y0427500D03*
X0315204Y0436425D03*
X0321896Y0436425D03*
X0321646Y0445450D03*
X0314954Y0445450D03*
X0343754Y0460825D03*
X0350446Y0460825D03*
X0371304Y0478875D03*
X0377996Y0478875D03*
X0389379Y0470225D03*
X0396071Y0470225D03*
X0284896Y0478875D03*
X0278204Y0478875D03*
X0266521Y0478875D03*
X0259829Y0478875D03*
X0265354Y0438625D03*
X0272046Y0438625D03*
X0251271Y0402025D03*
X0244579Y0402025D03*
X0237671Y0402175D03*
X0230979Y0402175D03*
X0213846Y0416400D03*
X0207154Y0416400D03*
X0200371Y0416400D03*
X0193679Y0416400D03*
X0182475Y0401513D03*
X0182475Y0394820D03*
X0172525Y0394679D03*
X0172525Y0401371D03*
X0179879Y0365200D03*
X0186571Y0365200D03*
X0246654Y0310325D03*
X0253346Y0310325D03*
X0201296Y0255375D03*
X0201296Y0247025D03*
X0194604Y0247025D03*
X0194604Y0255375D03*
X0192754Y0267150D03*
X0199446Y0267150D03*
X0201296Y0238662D03*
X0194604Y0238662D03*
X0166519Y0234498D03*
X0159826Y0234498D03*
X0129424Y0236340D03*
X0122731Y0236340D03*
X0122759Y0244673D03*
X0129451Y0244673D03*
X0129446Y0252875D03*
X0122754Y0252875D03*
X0123479Y0264200D03*
X0130171Y0264200D03*
X0094096Y0234150D03*
X0087404Y0234150D03*
X0072746Y0369475D03*
X0066054Y0369475D03*
X0022550Y0427904D03*
X0022550Y0434596D03*
X0039329Y0477650D03*
X0046021Y0477650D03*
X0058929Y0477650D03*
X0065621Y0477650D03*
X0123854Y0456825D03*
X0130546Y0456825D03*
X0152029Y0478875D03*
X0158721Y0478875D03*
X0170404Y0478436D03*
X0177096Y0478436D03*
X0188779Y0478875D03*
X0195471Y0478875D03*
X0207154Y0478875D03*
X0213846Y0478875D03*
D17*
X0225200Y0490229D03*
X0225200Y0496921D03*
X0242350Y0496921D03*
X0242350Y0490229D03*
X0269775Y0413371D03*
X0269775Y0406679D03*
X0306050Y0489004D03*
X0306050Y0495696D03*
X0323200Y0495696D03*
X0323200Y0489004D03*
X0331775Y0489004D03*
X0331775Y0495696D03*
X0348925Y0495696D03*
X0348925Y0489004D03*
X0400814Y0536779D03*
X0400814Y0543471D03*
X0400375Y0560054D03*
X0400375Y0566746D03*
X0398025Y0365271D03*
X0398025Y0358579D03*
X0372725Y0359804D03*
X0372725Y0366496D03*
X0364600Y0366396D03*
X0364600Y0359704D03*
X0356425Y0359704D03*
X0356425Y0366396D03*
X0348275Y0366396D03*
X0348275Y0359704D03*
X0354900Y0319394D03*
X0354900Y0312701D03*
X0362000Y0307496D03*
X0362000Y0300804D03*
X0370112Y0300854D03*
X0370112Y0307546D03*
X0394600Y0290821D03*
X0394600Y0284129D03*
X0349465Y0263129D03*
X0349465Y0256436D03*
X0343215Y0256436D03*
X0343215Y0263129D03*
X0325775Y0293304D03*
X0325775Y0299996D03*
X0317050Y0299996D03*
X0317050Y0293304D03*
X0231725Y0305454D03*
X0231725Y0312146D03*
X0183550Y0313829D03*
X0183550Y0320521D03*
X0166425Y0352129D03*
X0166425Y0358821D03*
X0151371Y0374750D03*
X0144679Y0374750D03*
X0144820Y0383877D03*
X0151513Y0383877D03*
X0140675Y0462054D03*
X0140675Y0468746D03*
X0130875Y0487779D03*
X0130875Y0494471D03*
X0114950Y0494471D03*
X0114950Y0487779D03*
X0106375Y0487779D03*
X0106375Y0494471D03*
X0089225Y0494471D03*
X0089225Y0487779D03*
X0076646Y0420565D03*
X0069954Y0420565D03*
X0064396Y0404150D03*
X0057704Y0404150D03*
X0057704Y0393125D03*
X0064396Y0393125D03*
X0074800Y0384496D03*
X0074800Y0377804D03*
X0039896Y0358825D03*
X0033204Y0358825D03*
X0033204Y0339225D03*
X0039896Y0339225D03*
X0030425Y0440004D03*
X0030425Y0446696D03*
X0030425Y0464504D03*
X0030425Y0471196D03*
D18*
X0148119Y0355575D03*
X0156781Y0351835D03*
X0156781Y0359315D03*
X0376519Y0294975D03*
X0385181Y0291235D03*
X0385181Y0298715D03*
X0385181Y0283715D03*
X0385181Y0276235D03*
X0376519Y0279975D03*
D19*
X0378437Y0374617D03*
X0373437Y0374617D03*
X0368437Y0374617D03*
X0363437Y0374617D03*
X0358437Y0374617D03*
X0353437Y0374617D03*
X0348437Y0374617D03*
X0343437Y0374617D03*
X0338437Y0374617D03*
X0383437Y0374617D03*
X0388437Y0374617D03*
X0393437Y0374617D03*
X0398437Y0374617D03*
X0403437Y0374617D03*
X0403437Y0445483D03*
X0398437Y0445483D03*
X0393437Y0445483D03*
X0388437Y0445483D03*
X0383437Y0445483D03*
X0378437Y0445483D03*
X0373437Y0445483D03*
X0368437Y0445483D03*
X0363437Y0445483D03*
X0358437Y0445483D03*
X0353437Y0445483D03*
X0348437Y0445483D03*
X0343437Y0445483D03*
X0338437Y0445483D03*
D20*
X0332571Y0432550D03*
X0332571Y0427550D03*
X0332571Y0422550D03*
X0332571Y0417550D03*
X0332571Y0412550D03*
X0332571Y0407550D03*
X0332571Y0402550D03*
X0332571Y0397550D03*
X0332571Y0392550D03*
X0332571Y0387550D03*
D21*
X0373122Y0410050D03*
D22*
X0373425Y0453150D03*
X0373425Y0464175D03*
X0351375Y0453150D03*
X0345250Y0453150D03*
X0345250Y0477650D03*
X0247250Y0461725D03*
X0184425Y0452950D03*
X0149250Y0439675D03*
X0143125Y0439675D03*
X0137000Y0439675D03*
X0130875Y0439675D03*
X0132100Y0472750D03*
X0100725Y0360400D03*
X0087175Y0285875D03*
X0082700Y0234250D03*
X0153775Y0234575D03*
X0158650Y0285075D03*
X0176525Y0351675D03*
X0396700Y0324525D03*
X0404050Y0324525D03*
D23*
X0367146Y0455400D03*
X0357304Y0455400D03*
D24*
X0357225Y0464091D03*
X0357225Y0469209D03*
X0367225Y0469209D03*
X0367225Y0464091D03*
D25*
X0364740Y0263326D03*
X0364740Y0258208D03*
X0357456Y0260767D03*
X0335211Y0255033D03*
X0327927Y0252474D03*
X0327927Y0257592D03*
D26*
X0298524Y0412965D03*
X0298524Y0417965D03*
X0298524Y0422965D03*
X0298524Y0427965D03*
X0298524Y0432965D03*
X0283958Y0432965D03*
X0283958Y0427965D03*
X0283958Y0422965D03*
X0283958Y0417965D03*
X0283958Y0412965D03*
D27*
X0369125Y0333258D03*
X0374125Y0333258D03*
X0379125Y0333258D03*
X0379125Y0318692D03*
X0374125Y0318692D03*
X0369125Y0318692D03*
D28*
X0359146Y0518550D03*
X0349146Y0518550D03*
X0349146Y0528550D03*
X0339146Y0528550D03*
X0339146Y0518550D03*
X0339146Y0569731D03*
X0339146Y0579731D03*
X0349146Y0579731D03*
X0349146Y0569731D03*
X0359146Y0569731D03*
X0290248Y0569731D03*
X0280248Y0569731D03*
X0280248Y0579731D03*
X0270248Y0579731D03*
X0270248Y0569731D03*
X0270248Y0528550D03*
X0270248Y0518550D03*
X0280248Y0518550D03*
X0280248Y0528550D03*
X0290248Y0518550D03*
X0221350Y0518550D03*
X0211350Y0518550D03*
X0211350Y0528550D03*
X0201350Y0528550D03*
X0201350Y0518550D03*
X0201350Y0569731D03*
X0201350Y0579731D03*
X0211350Y0579731D03*
X0211350Y0569731D03*
X0221350Y0569731D03*
X0152453Y0569731D03*
X0142453Y0569731D03*
X0142453Y0579731D03*
X0132453Y0579731D03*
X0132453Y0569731D03*
X0132453Y0528550D03*
X0132453Y0518550D03*
X0142453Y0518550D03*
X0142453Y0528550D03*
X0152453Y0518550D03*
X0083555Y0518550D03*
X0073555Y0518550D03*
X0073555Y0528550D03*
X0063555Y0528550D03*
X0063555Y0518550D03*
X0063555Y0569731D03*
X0063555Y0579731D03*
X0073555Y0579731D03*
X0073555Y0569731D03*
X0083555Y0569731D03*
X0122000Y0325400D03*
X0122000Y0315400D03*
X0132000Y0315400D03*
X0132000Y0325400D03*
X0142000Y0325400D03*
X0142000Y0315400D03*
X0152000Y0315400D03*
X0152000Y0325400D03*
X0162000Y0325400D03*
X0162000Y0315400D03*
X0172000Y0315400D03*
X0172000Y0325400D03*
D29*
X0215000Y0282900D03*
X0215000Y0227900D03*
X0315000Y0282900D03*
X0322000Y0227900D03*
D30*
X0306000Y0290900D03*
X0296000Y0290900D03*
X0286000Y0290900D03*
X0276000Y0290900D03*
X0266000Y0290900D03*
X0256000Y0290900D03*
X0246000Y0290900D03*
X0236000Y0290900D03*
X0230000Y0290900D03*
X0225000Y0290900D03*
X0220000Y0290900D03*
D31*
X0306000Y0278900D03*
D32*
X0223000Y0278900D03*
D33*
X0185993Y0264865D03*
X0185993Y0261125D03*
X0185993Y0257385D03*
X0175757Y0257385D03*
X0175757Y0261125D03*
X0175757Y0264865D03*
X0115518Y0263465D03*
X0115518Y0259725D03*
X0115518Y0255985D03*
X0105282Y0255985D03*
X0105282Y0259725D03*
X0105282Y0263465D03*
D34*
X0091798Y0255725D03*
X0079002Y0255725D03*
X0150502Y0256550D03*
X0163298Y0256550D03*
D35*
X0090215Y0377038D03*
X0086475Y0384912D03*
X0082735Y0377038D03*
X0066015Y0488852D03*
X0062275Y0496726D03*
X0058535Y0488852D03*
X0046415Y0488852D03*
X0042675Y0496726D03*
X0038935Y0488852D03*
X0151635Y0489638D03*
X0155375Y0497512D03*
X0159115Y0489638D03*
X0170132Y0489587D03*
X0177613Y0489587D03*
X0173873Y0497461D03*
X0188385Y0489638D03*
X0195865Y0489638D03*
X0192125Y0497512D03*
X0206760Y0489638D03*
X0210500Y0497512D03*
X0214240Y0489638D03*
X0259435Y0488852D03*
X0263175Y0496726D03*
X0266915Y0488852D03*
X0277320Y0488780D03*
X0281060Y0496655D03*
X0284800Y0488780D03*
D36*
X0396950Y0493625D03*
X0396950Y0511425D03*
D37*
X0387150Y0516325D03*
X0387150Y0488725D03*
D38*
X0067961Y0317339D02*
X0067961Y0309661D01*
X0059989Y0294996D02*
X0052311Y0294996D01*
X0044339Y0309661D02*
X0044339Y0317339D01*
X0035839Y0377607D02*
X0028161Y0377607D01*
X0028161Y0397293D02*
X0035839Y0397293D01*
D39*
X0073495Y0351000D03*
X0094755Y0351000D03*
D40*
X0077275Y0405433D03*
X0074716Y0412717D03*
X0079834Y0412717D03*
X0262591Y0422983D03*
X0267709Y0422983D03*
X0265150Y0430267D03*
D41*
X0202079Y0322408D03*
X0091843Y0322408D03*
X0026622Y0313500D03*
D42*
X0125400Y0352675D02*
X0125400Y0358675D01*
X0135400Y0358675D02*
X0135400Y0352675D01*
X0196350Y0449683D02*
X0196350Y0455683D01*
X0206350Y0455683D02*
X0206350Y0449683D01*
X0216350Y0449683D02*
X0216350Y0455683D01*
X0226350Y0455683D02*
X0226350Y0449683D01*
X0226500Y0392200D02*
X0220500Y0392200D01*
X0220500Y0382200D02*
X0226500Y0382200D01*
X0226500Y0372200D02*
X0220500Y0372200D01*
X0220500Y0362200D02*
X0226500Y0362200D01*
X0253150Y0362200D02*
X0259150Y0362200D01*
X0259150Y0372200D02*
X0253150Y0372200D01*
X0253150Y0382200D02*
X0259150Y0382200D01*
X0259150Y0392200D02*
X0253150Y0392200D01*
X0313300Y0361825D02*
X0313300Y0355825D01*
X0323300Y0355825D02*
X0323300Y0361825D01*
D43*
X0340597Y0241033D03*
X0343156Y0241033D03*
X0345715Y0241033D03*
X0348274Y0241033D03*
X0350833Y0241033D03*
D44*
X0356738Y0242017D03*
X0334691Y0242017D03*
D45*
X0345715Y0233552D03*
D46*
X0336936Y0473313D03*
X0336936Y0475281D03*
X0336936Y0477250D03*
X0336936Y0479219D03*
X0336936Y0481187D03*
X0319614Y0481187D03*
X0319614Y0479219D03*
X0319614Y0477250D03*
X0319614Y0475281D03*
X0319614Y0473313D03*
X0246111Y0472488D03*
X0246111Y0474456D03*
X0246111Y0476425D03*
X0246111Y0478394D03*
X0246111Y0480362D03*
X0228789Y0480362D03*
X0228789Y0478394D03*
X0228789Y0476425D03*
X0228789Y0474456D03*
X0228789Y0472488D03*
X0119761Y0472713D03*
X0119761Y0474681D03*
X0119761Y0476650D03*
X0119761Y0478619D03*
X0119761Y0480587D03*
X0102439Y0480587D03*
X0102439Y0478619D03*
X0102439Y0476650D03*
X0102439Y0474681D03*
X0102439Y0472713D03*
D47*
X0249351Y0227422D03*
X0253681Y0227422D03*
X0258012Y0227422D03*
X0262343Y0227422D03*
X0266674Y0227422D03*
X0271004Y0227422D03*
X0275335Y0227422D03*
X0279666Y0227422D03*
D48*
X0289311Y0228308D03*
X0244233Y0228308D03*
D49*
X0243544Y0257836D03*
D50*
X0290591Y0260395D03*
D51*
X0244725Y0263741D03*
D52*
X0289016Y0269942D03*
D53*
X0102657Y0398025D03*
D54*
X0131398Y0389049D03*
X0131398Y0407001D03*
D55*
X0151100Y0430638D03*
X0153659Y0430638D03*
X0156218Y0430638D03*
X0158777Y0430638D03*
X0161336Y0430638D03*
X0163895Y0430638D03*
X0166455Y0430638D03*
X0169014Y0430638D03*
X0171573Y0430638D03*
X0174132Y0430638D03*
X0176691Y0430638D03*
X0179250Y0430638D03*
X0179250Y0453612D03*
X0176691Y0453612D03*
X0174132Y0453612D03*
X0171573Y0453612D03*
X0169014Y0453612D03*
X0166455Y0453612D03*
X0163895Y0453612D03*
X0161336Y0453612D03*
X0158777Y0453612D03*
X0156218Y0453612D03*
X0153659Y0453612D03*
X0151100Y0453612D03*
D56*
X0199016Y0407813D03*
X0207284Y0407813D03*
X0207284Y0390687D03*
X0199016Y0390687D03*
D57*
X0201870Y0390687D03*
X0204430Y0390687D03*
X0204430Y0407813D03*
X0201870Y0407813D03*
D58*
X0019421Y0228274D02*
X0019423Y0228166D01*
X0019429Y0228058D01*
X0019439Y0227951D01*
X0019452Y0227844D01*
X0019470Y0227738D01*
X0019492Y0227632D01*
X0019517Y0227527D01*
X0019546Y0227423D01*
X0019579Y0227321D01*
X0019616Y0227219D01*
X0019656Y0227119D01*
X0019700Y0227021D01*
X0019748Y0226924D01*
X0019799Y0226829D01*
X0019853Y0226736D01*
X0019911Y0226645D01*
X0019972Y0226556D01*
X0020037Y0226469D01*
X0020104Y0226385D01*
X0020175Y0226303D01*
X0020248Y0226224D01*
X0020324Y0226148D01*
X0020403Y0226075D01*
X0020485Y0226004D01*
X0020569Y0225937D01*
X0020656Y0225872D01*
X0020745Y0225811D01*
X0020836Y0225753D01*
X0020929Y0225699D01*
X0021024Y0225648D01*
X0021121Y0225600D01*
X0021219Y0225556D01*
X0021319Y0225516D01*
X0021421Y0225479D01*
X0021523Y0225446D01*
X0021627Y0225417D01*
X0021732Y0225392D01*
X0021838Y0225370D01*
X0021944Y0225352D01*
X0022051Y0225339D01*
X0022158Y0225329D01*
X0022266Y0225323D01*
X0022374Y0225321D01*
X0022482Y0225323D01*
X0022590Y0225329D01*
X0022697Y0225339D01*
X0022804Y0225352D01*
X0022910Y0225370D01*
X0023016Y0225392D01*
X0023121Y0225417D01*
X0023225Y0225446D01*
X0023327Y0225479D01*
X0023429Y0225516D01*
X0023529Y0225556D01*
X0023627Y0225600D01*
X0023724Y0225648D01*
X0023819Y0225699D01*
X0023912Y0225753D01*
X0024003Y0225811D01*
X0024092Y0225872D01*
X0024179Y0225937D01*
X0024263Y0226004D01*
X0024345Y0226075D01*
X0024424Y0226148D01*
X0024500Y0226224D01*
X0024573Y0226303D01*
X0024644Y0226385D01*
X0024711Y0226469D01*
X0024776Y0226556D01*
X0024837Y0226645D01*
X0024895Y0226736D01*
X0024949Y0226829D01*
X0025000Y0226924D01*
X0025048Y0227021D01*
X0025092Y0227119D01*
X0025132Y0227219D01*
X0025169Y0227321D01*
X0025202Y0227423D01*
X0025231Y0227527D01*
X0025256Y0227632D01*
X0025278Y0227738D01*
X0025296Y0227844D01*
X0025309Y0227951D01*
X0025319Y0228058D01*
X0025325Y0228166D01*
X0025327Y0228274D01*
X0025325Y0228382D01*
X0025319Y0228490D01*
X0025309Y0228597D01*
X0025296Y0228704D01*
X0025278Y0228810D01*
X0025256Y0228916D01*
X0025231Y0229021D01*
X0025202Y0229125D01*
X0025169Y0229227D01*
X0025132Y0229329D01*
X0025092Y0229429D01*
X0025048Y0229527D01*
X0025000Y0229624D01*
X0024949Y0229719D01*
X0024895Y0229812D01*
X0024837Y0229903D01*
X0024776Y0229992D01*
X0024711Y0230079D01*
X0024644Y0230163D01*
X0024573Y0230245D01*
X0024500Y0230324D01*
X0024424Y0230400D01*
X0024345Y0230473D01*
X0024263Y0230544D01*
X0024179Y0230611D01*
X0024092Y0230676D01*
X0024003Y0230737D01*
X0023912Y0230795D01*
X0023819Y0230849D01*
X0023724Y0230900D01*
X0023627Y0230948D01*
X0023529Y0230992D01*
X0023429Y0231032D01*
X0023327Y0231069D01*
X0023225Y0231102D01*
X0023121Y0231131D01*
X0023016Y0231156D01*
X0022910Y0231178D01*
X0022804Y0231196D01*
X0022697Y0231209D01*
X0022590Y0231219D01*
X0022482Y0231225D01*
X0022374Y0231227D01*
X0022266Y0231225D01*
X0022158Y0231219D01*
X0022051Y0231209D01*
X0021944Y0231196D01*
X0021838Y0231178D01*
X0021732Y0231156D01*
X0021627Y0231131D01*
X0021523Y0231102D01*
X0021421Y0231069D01*
X0021319Y0231032D01*
X0021219Y0230992D01*
X0021121Y0230948D01*
X0021024Y0230900D01*
X0020929Y0230849D01*
X0020836Y0230795D01*
X0020745Y0230737D01*
X0020656Y0230676D01*
X0020569Y0230611D01*
X0020485Y0230544D01*
X0020403Y0230473D01*
X0020324Y0230400D01*
X0020248Y0230324D01*
X0020175Y0230245D01*
X0020104Y0230163D01*
X0020037Y0230079D01*
X0019972Y0229992D01*
X0019911Y0229903D01*
X0019853Y0229812D01*
X0019799Y0229719D01*
X0019748Y0229624D01*
X0019700Y0229527D01*
X0019656Y0229429D01*
X0019616Y0229329D01*
X0019579Y0229227D01*
X0019546Y0229125D01*
X0019517Y0229021D01*
X0019492Y0228916D01*
X0019470Y0228810D01*
X0019452Y0228704D01*
X0019439Y0228597D01*
X0019429Y0228490D01*
X0019423Y0228382D01*
X0019421Y0228274D01*
X0022374Y0603274D02*
X0022266Y0603276D01*
X0022158Y0603282D01*
X0022051Y0603292D01*
X0021944Y0603305D01*
X0021838Y0603323D01*
X0021732Y0603345D01*
X0021627Y0603370D01*
X0021523Y0603399D01*
X0021421Y0603432D01*
X0021319Y0603469D01*
X0021219Y0603509D01*
X0021121Y0603553D01*
X0021024Y0603601D01*
X0020929Y0603652D01*
X0020836Y0603706D01*
X0020745Y0603764D01*
X0020656Y0603825D01*
X0020569Y0603890D01*
X0020485Y0603957D01*
X0020403Y0604028D01*
X0020324Y0604101D01*
X0020248Y0604177D01*
X0020175Y0604256D01*
X0020104Y0604338D01*
X0020037Y0604422D01*
X0019972Y0604509D01*
X0019911Y0604598D01*
X0019853Y0604689D01*
X0019799Y0604782D01*
X0019748Y0604877D01*
X0019700Y0604974D01*
X0019656Y0605072D01*
X0019616Y0605172D01*
X0019579Y0605274D01*
X0019546Y0605376D01*
X0019517Y0605480D01*
X0019492Y0605585D01*
X0019470Y0605691D01*
X0019452Y0605797D01*
X0019439Y0605904D01*
X0019429Y0606011D01*
X0019423Y0606119D01*
X0019421Y0606227D01*
X0022374Y0603274D02*
X0022482Y0603276D01*
X0022590Y0603282D01*
X0022697Y0603292D01*
X0022804Y0603305D01*
X0022910Y0603323D01*
X0023016Y0603345D01*
X0023121Y0603370D01*
X0023225Y0603399D01*
X0023327Y0603432D01*
X0023429Y0603469D01*
X0023529Y0603509D01*
X0023627Y0603553D01*
X0023724Y0603601D01*
X0023819Y0603652D01*
X0023912Y0603706D01*
X0024003Y0603764D01*
X0024092Y0603825D01*
X0024179Y0603890D01*
X0024263Y0603957D01*
X0024345Y0604028D01*
X0024424Y0604101D01*
X0024500Y0604177D01*
X0024573Y0604256D01*
X0024644Y0604338D01*
X0024711Y0604422D01*
X0024776Y0604509D01*
X0024837Y0604598D01*
X0024895Y0604689D01*
X0024949Y0604782D01*
X0025000Y0604877D01*
X0025048Y0604974D01*
X0025092Y0605072D01*
X0025132Y0605172D01*
X0025169Y0605274D01*
X0025202Y0605376D01*
X0025231Y0605480D01*
X0025256Y0605585D01*
X0025278Y0605691D01*
X0025296Y0605797D01*
X0025309Y0605904D01*
X0025319Y0606011D01*
X0025325Y0606119D01*
X0025327Y0606227D01*
X0025325Y0606335D01*
X0025319Y0606443D01*
X0025309Y0606550D01*
X0025296Y0606657D01*
X0025278Y0606763D01*
X0025256Y0606869D01*
X0025231Y0606974D01*
X0025202Y0607078D01*
X0025169Y0607180D01*
X0025132Y0607282D01*
X0025092Y0607382D01*
X0025048Y0607480D01*
X0025000Y0607577D01*
X0024949Y0607672D01*
X0024895Y0607765D01*
X0024837Y0607856D01*
X0024776Y0607945D01*
X0024711Y0608032D01*
X0024644Y0608116D01*
X0024573Y0608198D01*
X0024500Y0608277D01*
X0024424Y0608353D01*
X0024345Y0608426D01*
X0024263Y0608497D01*
X0024179Y0608564D01*
X0024092Y0608629D01*
X0024003Y0608690D01*
X0023912Y0608748D01*
X0023819Y0608802D01*
X0023724Y0608853D01*
X0023627Y0608901D01*
X0023529Y0608945D01*
X0023429Y0608985D01*
X0023327Y0609022D01*
X0023225Y0609055D01*
X0023121Y0609084D01*
X0023016Y0609109D01*
X0022910Y0609131D01*
X0022804Y0609149D01*
X0022697Y0609162D01*
X0022590Y0609172D01*
X0022482Y0609178D01*
X0022374Y0609180D01*
X0022266Y0609178D01*
X0022158Y0609172D01*
X0022051Y0609162D01*
X0021944Y0609149D01*
X0021838Y0609131D01*
X0021732Y0609109D01*
X0021627Y0609084D01*
X0021523Y0609055D01*
X0021421Y0609022D01*
X0021319Y0608985D01*
X0021219Y0608945D01*
X0021121Y0608901D01*
X0021024Y0608853D01*
X0020929Y0608802D01*
X0020836Y0608748D01*
X0020745Y0608690D01*
X0020656Y0608629D01*
X0020569Y0608564D01*
X0020485Y0608497D01*
X0020403Y0608426D01*
X0020324Y0608353D01*
X0020248Y0608277D01*
X0020175Y0608198D01*
X0020104Y0608116D01*
X0020037Y0608032D01*
X0019972Y0607945D01*
X0019911Y0607856D01*
X0019853Y0607765D01*
X0019799Y0607672D01*
X0019748Y0607577D01*
X0019700Y0607480D01*
X0019656Y0607382D01*
X0019616Y0607282D01*
X0019579Y0607180D01*
X0019546Y0607078D01*
X0019517Y0606974D01*
X0019492Y0606869D01*
X0019470Y0606763D01*
X0019452Y0606657D01*
X0019439Y0606550D01*
X0019429Y0606443D01*
X0019423Y0606335D01*
X0019421Y0606227D01*
X0397374Y0606227D02*
X0397376Y0606119D01*
X0397382Y0606011D01*
X0397392Y0605904D01*
X0397405Y0605797D01*
X0397423Y0605691D01*
X0397445Y0605585D01*
X0397470Y0605480D01*
X0397499Y0605376D01*
X0397532Y0605274D01*
X0397569Y0605172D01*
X0397609Y0605072D01*
X0397653Y0604974D01*
X0397701Y0604877D01*
X0397752Y0604782D01*
X0397806Y0604689D01*
X0397864Y0604598D01*
X0397925Y0604509D01*
X0397990Y0604422D01*
X0398057Y0604338D01*
X0398128Y0604256D01*
X0398201Y0604177D01*
X0398277Y0604101D01*
X0398356Y0604028D01*
X0398438Y0603957D01*
X0398522Y0603890D01*
X0398609Y0603825D01*
X0398698Y0603764D01*
X0398789Y0603706D01*
X0398882Y0603652D01*
X0398977Y0603601D01*
X0399074Y0603553D01*
X0399172Y0603509D01*
X0399272Y0603469D01*
X0399374Y0603432D01*
X0399476Y0603399D01*
X0399580Y0603370D01*
X0399685Y0603345D01*
X0399791Y0603323D01*
X0399897Y0603305D01*
X0400004Y0603292D01*
X0400111Y0603282D01*
X0400219Y0603276D01*
X0400327Y0603274D01*
X0400435Y0603276D01*
X0400543Y0603282D01*
X0400650Y0603292D01*
X0400757Y0603305D01*
X0400863Y0603323D01*
X0400969Y0603345D01*
X0401074Y0603370D01*
X0401178Y0603399D01*
X0401280Y0603432D01*
X0401382Y0603469D01*
X0401482Y0603509D01*
X0401580Y0603553D01*
X0401677Y0603601D01*
X0401772Y0603652D01*
X0401865Y0603706D01*
X0401956Y0603764D01*
X0402045Y0603825D01*
X0402132Y0603890D01*
X0402216Y0603957D01*
X0402298Y0604028D01*
X0402377Y0604101D01*
X0402453Y0604177D01*
X0402526Y0604256D01*
X0402597Y0604338D01*
X0402664Y0604422D01*
X0402729Y0604509D01*
X0402790Y0604598D01*
X0402848Y0604689D01*
X0402902Y0604782D01*
X0402953Y0604877D01*
X0403001Y0604974D01*
X0403045Y0605072D01*
X0403085Y0605172D01*
X0403122Y0605274D01*
X0403155Y0605376D01*
X0403184Y0605480D01*
X0403209Y0605585D01*
X0403231Y0605691D01*
X0403249Y0605797D01*
X0403262Y0605904D01*
X0403272Y0606011D01*
X0403278Y0606119D01*
X0403280Y0606227D01*
X0403278Y0606335D01*
X0403272Y0606443D01*
X0403262Y0606550D01*
X0403249Y0606657D01*
X0403231Y0606763D01*
X0403209Y0606869D01*
X0403184Y0606974D01*
X0403155Y0607078D01*
X0403122Y0607180D01*
X0403085Y0607282D01*
X0403045Y0607382D01*
X0403001Y0607480D01*
X0402953Y0607577D01*
X0402902Y0607672D01*
X0402848Y0607765D01*
X0402790Y0607856D01*
X0402729Y0607945D01*
X0402664Y0608032D01*
X0402597Y0608116D01*
X0402526Y0608198D01*
X0402453Y0608277D01*
X0402377Y0608353D01*
X0402298Y0608426D01*
X0402216Y0608497D01*
X0402132Y0608564D01*
X0402045Y0608629D01*
X0401956Y0608690D01*
X0401865Y0608748D01*
X0401772Y0608802D01*
X0401677Y0608853D01*
X0401580Y0608901D01*
X0401482Y0608945D01*
X0401382Y0608985D01*
X0401280Y0609022D01*
X0401178Y0609055D01*
X0401074Y0609084D01*
X0400969Y0609109D01*
X0400863Y0609131D01*
X0400757Y0609149D01*
X0400650Y0609162D01*
X0400543Y0609172D01*
X0400435Y0609178D01*
X0400327Y0609180D01*
X0400219Y0609178D01*
X0400111Y0609172D01*
X0400004Y0609162D01*
X0399897Y0609149D01*
X0399791Y0609131D01*
X0399685Y0609109D01*
X0399580Y0609084D01*
X0399476Y0609055D01*
X0399374Y0609022D01*
X0399272Y0608985D01*
X0399172Y0608945D01*
X0399074Y0608901D01*
X0398977Y0608853D01*
X0398882Y0608802D01*
X0398789Y0608748D01*
X0398698Y0608690D01*
X0398609Y0608629D01*
X0398522Y0608564D01*
X0398438Y0608497D01*
X0398356Y0608426D01*
X0398277Y0608353D01*
X0398201Y0608277D01*
X0398128Y0608198D01*
X0398057Y0608116D01*
X0397990Y0608032D01*
X0397925Y0607945D01*
X0397864Y0607856D01*
X0397806Y0607765D01*
X0397752Y0607672D01*
X0397701Y0607577D01*
X0397653Y0607480D01*
X0397609Y0607382D01*
X0397569Y0607282D01*
X0397532Y0607180D01*
X0397499Y0607078D01*
X0397470Y0606974D01*
X0397445Y0606869D01*
X0397423Y0606763D01*
X0397405Y0606657D01*
X0397392Y0606550D01*
X0397382Y0606443D01*
X0397376Y0606335D01*
X0397374Y0606227D01*
D59*
X0359146Y0579731D03*
X0359146Y0528550D03*
X0290248Y0528550D03*
X0290248Y0579731D03*
X0221350Y0579731D03*
X0221350Y0528550D03*
X0152453Y0528550D03*
X0152453Y0579731D03*
X0083555Y0579731D03*
X0083555Y0528550D03*
D60*
X0044507Y0426656D03*
X0044507Y0414844D03*
D61*
X0044901Y0420750D03*
D62*
X0047200Y0420802D02*
X0029200Y0420802D01*
X0029200Y0421300D02*
X0047200Y0421300D01*
X0047200Y0421799D02*
X0029200Y0421799D01*
X0029200Y0422297D02*
X0042661Y0422297D01*
X0042700Y0422250D02*
X0047200Y0422250D01*
X0047200Y0419250D01*
X0042700Y0419250D01*
X0040200Y0416250D01*
X0029200Y0416250D01*
X0029200Y0425250D01*
X0040200Y0425250D01*
X0042700Y0422250D01*
X0042245Y0422796D02*
X0029200Y0422796D01*
X0029200Y0423294D02*
X0041830Y0423294D01*
X0041414Y0423793D02*
X0029200Y0423793D01*
X0029200Y0424291D02*
X0040999Y0424291D01*
X0040584Y0424790D02*
X0029200Y0424790D01*
X0029200Y0420303D02*
X0047200Y0420303D01*
X0047200Y0419805D02*
X0029200Y0419805D01*
X0029200Y0419306D02*
X0047200Y0419306D01*
X0042331Y0418808D02*
X0029200Y0418808D01*
X0029200Y0418309D02*
X0041916Y0418309D01*
X0041500Y0417810D02*
X0029200Y0417810D01*
X0029200Y0417312D02*
X0041085Y0417312D01*
X0040670Y0416813D02*
X0029200Y0416813D01*
X0029200Y0416315D02*
X0040254Y0416315D01*
D63*
X0384188Y0540125D03*
X0392062Y0536385D03*
X0392062Y0543865D03*
X0392062Y0559660D03*
X0392062Y0567140D03*
X0384188Y0563400D03*
D64*
X0052625Y0465048D03*
X0047625Y0465048D03*
X0042625Y0465048D03*
X0037625Y0465048D03*
X0037625Y0443702D03*
X0042625Y0443702D03*
X0047625Y0443702D03*
X0052625Y0443702D03*
D65*
X0065950Y0410225D03*
X0046350Y0404150D03*
X0046350Y0391900D03*
X0041450Y0383325D03*
X0041450Y0371075D03*
X0047575Y0360050D03*
X0047575Y0352700D03*
X0047575Y0346800D03*
X0041450Y0346800D03*
X0041450Y0352925D03*
X0047575Y0338225D03*
X0040225Y0326975D03*
X0053700Y0326975D03*
X0062275Y0324525D03*
X0062275Y0330650D03*
X0069625Y0339225D03*
X0076975Y0358825D03*
X0065950Y0361275D03*
X0080650Y0371075D03*
X0125975Y0336775D03*
X0132100Y0344125D03*
X0135775Y0306150D03*
X0133325Y0290225D03*
X0123525Y0276750D03*
X0125975Y0259600D03*
X0109425Y0271050D03*
X0105050Y0267300D03*
X0100050Y0271050D03*
X0093800Y0271050D03*
X0085550Y0280425D03*
X0080650Y0279200D03*
X0091675Y0289000D03*
X0100250Y0297575D03*
X0110050Y0291675D03*
X0110050Y0284800D03*
X0112500Y0301250D03*
X0099883Y0259725D03*
X0094125Y0241225D03*
X0040225Y0293900D03*
X0018175Y0390675D03*
X0018175Y0404150D03*
X0091602Y0470731D03*
X0127130Y0470353D03*
X0129650Y0395575D03*
X0187225Y0296350D03*
X0180425Y0291250D03*
X0180425Y0285125D03*
X0181800Y0272775D03*
X0177375Y0268850D03*
X0171050Y0261025D03*
X0169550Y0272775D03*
X0163425Y0272775D03*
X0165175Y0241225D03*
X0193595Y0261193D03*
X0192125Y0279200D03*
X0206825Y0287775D03*
X0204375Y0296350D03*
X0198250Y0296350D03*
X0192125Y0296350D03*
X0215400Y0311050D03*
X0220300Y0307375D03*
X0223975Y0330650D03*
X0239900Y0318400D03*
X0242350Y0349025D03*
X0279100Y0322075D03*
X0286450Y0334325D03*
X0299925Y0326975D03*
X0304825Y0334325D03*
X0301150Y0315950D03*
X0324425Y0315950D03*
X0334225Y0303700D03*
X0345250Y0307375D03*
X0350150Y0312275D03*
X0363625Y0314725D03*
X0362400Y0320850D03*
X0378325Y0302475D03*
X0384450Y0318400D03*
X0390575Y0317175D03*
X0389350Y0304925D03*
X0375875Y0286550D03*
X0365625Y0280400D03*
X0358725Y0281650D03*
X0358725Y0268175D03*
X0355050Y0248575D03*
X0337900Y0248575D03*
X0335450Y0264500D03*
X0337000Y0271650D03*
X0325650Y0284100D03*
X0365625Y0295275D03*
X0394250Y0276750D03*
X0397925Y0342900D03*
X0397925Y0351475D03*
X0377100Y0352700D03*
X0370975Y0350250D03*
X0341575Y0361275D03*
X0337900Y0367400D03*
X0329325Y0377200D03*
X0307275Y0387000D03*
X0307275Y0395575D03*
X0309725Y0410275D03*
X0309725Y0415175D03*
X0309725Y0437225D03*
X0276650Y0405375D03*
X0236225Y0284100D03*
X0249700Y0282875D03*
X0258275Y0282875D03*
X0281550Y0279200D03*
X0215000Y0273075D03*
X0215400Y0254700D03*
X0378325Y0388225D03*
X0388125Y0389450D03*
X0394250Y0410275D03*
D66*
X0036550Y0225300D03*
X0021850Y0253475D03*
X0021850Y0265725D03*
X0021850Y0277975D03*
X0111275Y0355150D03*
X0111275Y0364950D03*
X0118625Y0364950D03*
X0128425Y0368625D03*
X0135775Y0374750D03*
X0135775Y0382100D03*
X0146800Y0401700D03*
X0146800Y0413950D03*
X0159050Y0413950D03*
X0159050Y0406600D03*
X0159050Y0395575D03*
X0159050Y0384550D03*
X0159050Y0375975D03*
X0171300Y0383325D03*
X0177425Y0378425D03*
X0183550Y0383325D03*
X0177425Y0388225D03*
X0172525Y0407825D03*
X0172525Y0412725D03*
X0176200Y0420075D03*
X0182325Y0412725D03*
X0182325Y0407825D03*
X0168850Y0424975D03*
X0168850Y0437225D03*
X0164685Y0448740D03*
X0176200Y0438450D03*
X0187225Y0432325D03*
X0183550Y0460500D03*
X0194575Y0469075D03*
X0195800Y0483775D03*
X0182325Y0478875D03*
X0165175Y0478875D03*
X0165175Y0469075D03*
X0154150Y0461725D03*
X0146800Y0460500D03*
X0145575Y0454375D03*
X0141900Y0481325D03*
X0134550Y0481325D03*
X0139450Y0500925D03*
X0122300Y0502150D03*
X0110662Y0502273D03*
X0097800Y0502150D03*
X0080650Y0502150D03*
X0070850Y0481325D03*
X0085550Y0473117D03*
X0086775Y0459275D03*
X0078200Y0460500D03*
X0073300Y0462950D03*
X0063500Y0453150D03*
X0058600Y0449475D03*
X0072075Y0437225D03*
X0075750Y0444575D03*
X0063500Y0427425D03*
X0051617Y0420810D03*
X0052475Y0410275D03*
X0040225Y0437225D03*
X0030425Y0451925D03*
X0030425Y0459275D03*
X0036550Y0471525D03*
X0052475Y0481325D03*
X0048800Y0532775D03*
X0063500Y0540125D03*
X0052475Y0569525D03*
X0042675Y0565850D03*
X0032875Y0552375D03*
X0018175Y0567075D03*
X0059825Y0609950D03*
X0070850Y0601375D03*
X0068400Y0589125D03*
X0084325Y0590350D03*
X0094125Y0596475D03*
X0099025Y0590350D03*
X0107600Y0586675D03*
X0107600Y0575650D03*
X0121075Y0569525D03*
X0133325Y0543800D03*
X0145575Y0558500D03*
X0152925Y0590350D03*
X0152925Y0596475D03*
X0165175Y0596475D03*
X0170075Y0590350D03*
X0177425Y0587900D03*
X0177425Y0575650D03*
X0189675Y0569525D03*
X0200700Y0601375D03*
X0210500Y0596475D03*
X0221525Y0596475D03*
X0221525Y0590350D03*
X0232550Y0596475D03*
X0237450Y0590350D03*
X0246025Y0587900D03*
X0246025Y0575650D03*
X0257050Y0569525D03*
X0269300Y0601375D03*
X0280325Y0596475D03*
X0291350Y0596475D03*
X0290125Y0590350D03*
X0302375Y0596475D03*
X0307275Y0590350D03*
X0313400Y0575650D03*
X0323200Y0569525D03*
X0339125Y0541350D03*
X0340350Y0502150D03*
X0355050Y0502150D03*
X0362400Y0502150D03*
X0370975Y0508275D03*
X0374650Y0487450D03*
X0373425Y0471525D03*
X0362400Y0469075D03*
X0362400Y0476425D03*
X0373425Y0458050D03*
X0383225Y0451925D03*
X0385675Y0438450D03*
X0390575Y0433550D03*
X0396700Y0431100D03*
X0397925Y0437225D03*
X0402825Y0424975D03*
X0396700Y0401700D03*
X0356275Y0404150D03*
X0350150Y0404150D03*
X0342800Y0410275D03*
X0340350Y0405375D03*
X0348925Y0424975D03*
X0341575Y0431100D03*
X0315850Y0417625D03*
X0302375Y0404150D03*
X0297475Y0404150D03*
X0292575Y0404150D03*
X0287675Y0404150D03*
X0282775Y0404150D03*
X0269300Y0384550D03*
X0284000Y0366175D03*
X0295025Y0377200D03*
X0263175Y0415175D03*
X0239900Y0396800D03*
X0239900Y0390675D03*
X0239900Y0378425D03*
X0247250Y0353925D03*
X0223975Y0349025D03*
X0215400Y0356375D03*
X0210500Y0350250D03*
X0215400Y0330650D03*
X0199475Y0313500D03*
X0183550Y0325750D03*
X0181100Y0330650D03*
X0184775Y0350250D03*
X0189675Y0355150D03*
X0195800Y0361275D03*
X0195800Y0374750D03*
X0197025Y0384550D03*
X0211725Y0407825D03*
X0206825Y0422525D03*
X0238675Y0417625D03*
X0237450Y0445800D03*
X0227650Y0467850D03*
X0220300Y0471525D03*
X0214175Y0462950D03*
X0219075Y0483775D03*
X0217850Y0502150D03*
X0233775Y0503375D03*
X0250925Y0503375D03*
X0254600Y0478875D03*
X0247250Y0467850D03*
X0237450Y0475200D03*
X0266850Y0465400D03*
X0272975Y0469075D03*
X0277875Y0459275D03*
X0284000Y0466625D03*
X0293800Y0470300D03*
X0290125Y0483775D03*
X0293800Y0502150D03*
X0307275Y0511950D03*
X0328100Y0483775D03*
X0339125Y0470300D03*
X0317075Y0470300D03*
X0292575Y0447025D03*
X0275425Y0447025D03*
X0270525Y0483775D03*
X0347700Y0380875D03*
X0345250Y0333100D03*
X0314625Y0331875D03*
X0277875Y0307375D03*
X0266850Y0307375D03*
X0266000Y0282025D03*
X0244800Y0274300D03*
X0226425Y0270625D03*
X0222750Y0231425D03*
X0261950Y0236325D03*
X0269300Y0238775D03*
X0299925Y0231425D03*
X0342000Y0270400D03*
X0349500Y0267900D03*
X0404050Y0478875D03*
X0379550Y0531550D03*
X0396700Y0552375D03*
X0377100Y0575650D03*
X0377100Y0596475D03*
X0359950Y0590350D03*
X0348925Y0596475D03*
X0339125Y0601375D03*
X0181100Y0503375D03*
X0162725Y0504600D03*
X0117400Y0454375D03*
X0110050Y0454375D03*
X0107600Y0460500D03*
X0172525Y0364950D03*
X0171300Y0351475D03*
X0155375Y0295125D03*
X0146800Y0295125D03*
X0114950Y0241225D03*
X0114950Y0235100D03*
X0138225Y0235100D03*
X0145575Y0235100D03*
X0030425Y0413950D03*
X0024300Y0412725D03*
X0024300Y0418850D03*
X0018175Y0418850D03*
X0018175Y0412725D03*
X0141900Y0596475D03*
X0132100Y0601375D03*
M02*
