%
M48
M72
T01C0.01571
T02C0.01575
T03C0.04000
T04C0.04331
T05C0.05000
T06C0.05118
T07C0.05900
T08C0.06299
T09C0.09055
T10C0.12205
%
T01
X337900Y248575
X335450Y264500
X355050Y248575
T02
X36550Y225300
X21850Y253475
X21850Y265725
X21850Y277975
X40225Y293900
X62275Y324525
X62275Y330650
X53700Y326975
X47575Y338225
X40225Y326975
X41450Y346800
X41450Y352925
X47575Y352700
X47575Y346800
X47575Y360050
X41450Y371075
X41450Y383325
X46350Y391900
X46350Y404150
X52475Y410275
X51617Y420810
X63500Y427425
X72075Y437225
X75750Y444575
X78200Y460500
X73300Y462950
X63500Y453150
X58600Y449475
X40225Y437225
X30425Y451925
X30425Y459275
X36550Y471525
X52475Y481325
X70850Y481325
X85550Y473117
X91602Y470731
X86775Y459275
X107600Y460500
X110050Y454375
X117400Y454375
X127130Y470353
X134550Y481325
X141900Y481325
X139450Y500925
X122300Y502150
X110662Y502273
X97800Y502150
X80650Y502150
X63500Y540125
X48800Y532775
X32875Y552375
X42675Y565850
X52475Y569525
X68400Y589125
X70850Y601375
X59825Y609950
X84325Y590350
X94125Y596475
X99025Y590350
X107600Y586675
X107600Y575650
X121075Y569525
X133325Y543800
X145575Y558500
X152925Y590350
X152925Y596475
X165175Y596475
X170075Y590350
X177425Y587900
X177425Y575650
X189675Y569525
X200700Y601375
X210500Y596475
X221525Y596475
X221525Y590350
X232550Y596475
X237450Y590350
X246025Y587900
X246025Y575650
X257050Y569525
X269300Y601375
X280325Y596475
X291350Y596475
X290125Y590350
X302375Y596475
X307275Y590350
X313400Y575650
X323200Y569525
X339125Y541350
X340350Y502150
X355050Y502150
X362400Y502150
X370975Y508275
X374650Y487450
X373425Y471525
X362400Y469075
X362400Y476425
X373425Y458050
X383225Y451925
X385675Y438450
X390575Y433550
X396700Y431100
X397925Y437225
X402825Y424975
X394250Y410275
X396700Y401700
X388125Y389450
X378325Y388225
X356275Y404150
X350150Y404150
X342800Y410275
X340350Y405375
X348925Y424975
X341575Y431100
X315850Y417625
X309725Y415175
X309725Y410275
X302375Y404150
X297475Y404150
X292575Y404150
X287675Y404150
X282775Y404150
X276650Y405375
X263175Y415175
X239900Y396800
X239900Y390675
X239900Y378425
X247250Y353925
X242350Y349025
X223975Y349025
X215400Y356375
X210500Y350250
X215400Y330650
X223975Y330650
X215400Y311050
X220300Y307375
X206825Y287775
X204375Y296350
X198250Y296350
X192125Y296350
X187225Y296350
X180425Y291250
X180425Y285125
X181800Y272775
X177375Y268850
X171050Y261025
X169550Y272775
X163425Y272775
X155375Y295125
X146800Y295125
X135775Y306150
X133325Y290225
X123525Y276750
X125975Y259600
X109425Y271050
X105050Y267300
X100050Y271050
X93800Y271050
X85550Y280425
X80650Y279200
X91675Y289000
X100250Y297575
X110050Y291675
X110050Y284800
X112500Y301250
X125975Y336775
X132100Y344125
X128425Y368625
X135775Y374750
X135775Y382100
X129650Y395575
X146800Y401700
X146800Y413950
X159050Y413950
X159050Y406600
X159050Y395575
X159050Y384550
X159050Y375975
X171300Y383325
X177425Y378425
X183550Y383325
X177425Y388225
X172525Y407825
X172525Y412725
X176200Y420075
X182325Y412725
X182325Y407825
X168850Y424975
X168850Y437225
X164685Y448740
X176200Y438450
X187225Y432325
X183550Y460500
X194575Y469075
X195800Y483775
X182325Y478875
X165175Y478875
X165175Y469075
X154150Y461725
X146800Y460500
X145575Y454375
X181100Y503375
X162725Y504600
X214175Y462950
X220300Y471525
X227650Y467850
X237450Y475200
X247250Y467850
X254600Y478875
X266850Y465400
X272975Y469075
X277875Y459275
X284000Y466625
X293800Y470300
X290125Y483775
X293800Y502150
X307275Y511950
X328100Y483775
X339125Y470300
X317075Y470300
X292575Y447025
X275425Y447025
X270525Y483775
X250925Y503375
X233775Y503375
X217850Y502150
X219075Y483775
X237450Y445800
X238675Y417625
X211725Y407825
X206825Y422525
X197025Y384550
X195800Y374750
X195800Y361275
X189675Y355150
X184775Y350250
X171300Y351475
X172525Y364950
X181100Y330650
X183550Y325750
X199475Y313500
X192125Y279200
X193595Y261193
X215400Y254700
X226425Y270625
X215000Y273075
X236225Y284100
X244800Y274300
X249700Y282875
X258275Y282875
X266000Y282025
X281550Y279200
X277875Y307375
X266850Y307375
X279100Y322075
X286450Y334325
X299925Y326975
X304825Y334325
X314625Y331875
X324425Y315950
X334225Y303700
X345250Y307375
X350150Y312275
X363625Y314725
X362400Y320850
X378325Y302475
X384450Y318400
X390575Y317175
X389350Y304925
X375875Y286550
X365625Y280400
X358725Y281650
X358725Y268175
X349500Y267900
X342000Y270400
X337000Y271650
X325650Y284100
X301150Y315950
X284000Y366175
X295025Y377200
X307275Y387000
X307275Y395575
X329325Y377200
X337900Y367400
X341575Y361275
X347700Y380875
X370975Y350250
X377100Y352700
X397925Y351475
X397925Y342900
X365625Y295275
X394250Y276750
X345250Y333100
X309725Y437225
X269300Y384550
X239900Y318400
X269300Y238775
X261950Y236325
X299925Y231425
X222750Y231425
X165175Y241225
X145575Y235100
X138225Y235100
X114950Y235100
X114950Y241225
X99883Y259725
X94125Y241225
X69625Y339225
X76975Y358825
X65950Y361275
X80650Y371075
X65950Y410225
X30425Y413950
X24300Y412725
X24300Y418850
X18175Y418850
X18175Y412725
X18175Y404150
X18175Y390675
X111275Y364950
X118625Y364950
X111275Y355150
X18175Y567075
X132100Y601375
X141900Y596475
X339125Y601375
X348925Y596475
X359950Y590350
X377100Y596475
X377100Y575650
X396700Y552375
X379550Y531550
X404050Y478875
T03
X396950Y493625
X396950Y511425
X323300Y358825
X313300Y358825
X256150Y362200
X256150Y372200
X256150Y382200
X256150Y392200
X223500Y392200
X223500Y382200
X223500Y372200
X223500Y362200
X172000Y325400
X172000Y315400
X162000Y315400
X162000Y325400
X152000Y325400
X152000Y315400
X142000Y315400
X142000Y325400
X132000Y325400
X132000Y315400
X122000Y315400
X122000Y325400
X125400Y355675
X135400Y355675
X196350Y452683
X206350Y452683
X216350Y452683
X226350Y452683
X334691Y242017
X356738Y242017
T04
X223000Y278900
X221350Y518550
X221350Y528550
X211350Y528550
X211350Y518550
X201350Y518550
X201350Y528550
X201350Y569731
X201350Y579731
X211350Y579731
X211350Y569731
X221350Y569731
X221350Y579731
X270248Y579731
X280248Y579731
X290248Y579731
X290248Y569731
X280248Y569731
X270248Y569731
X270248Y528550
X270248Y518550
X280248Y518550
X280248Y528550
X290248Y528550
X290248Y518550
X339146Y518550
X339146Y528550
X349146Y528550
X349146Y518550
X359146Y518550
X359146Y528550
X359146Y569731
X359146Y579731
X349146Y579731
X349146Y569731
X339146Y569731
X339146Y579731
X152453Y579731
X152453Y569731
X142453Y569731
X142453Y579731
X132453Y579731
X132453Y569731
X132453Y528550
X132453Y518550
X142453Y518550
X142453Y528550
X152453Y528550
X152453Y518550
X83555Y518550
X83555Y528550
X73555Y528550
X73555Y518550
X63555Y518550
X63555Y528550
X63555Y569731
X63555Y579731
X73555Y579731
X73555Y569731
X83555Y569731
X83555Y579731
T05
X345715Y233552
T06
X67961Y313500
X56150Y294996
X44339Y313500
X32000Y377607
X32000Y397293
T07
X387150Y488725
X387150Y516325
T08
X306000Y278900
T09
X202079Y322408
X91843Y322408
X26622Y313500
T10
X38122Y244022
X34185Y590479
X384579Y244022
X388516Y590479
M30
