M48
;GenerationSoftware,Autodesk,EAGLE,9.5.2*%
;CreationDate,2020-03-07T13:52:44Z*%
FMAT,2
ICI,OFF
METRIC,TZ,000.000
T5C1.016
T4C1.100
T3C1.300
T2C1.400
T1C3.100
%
G90
M71
T1
X6000Y6000
X5000Y88000
X95000Y88000
X94000Y6000
T2
X96000Y58000
X96000Y63000
X50000Y22368
X45000Y22368
X40000Y22368
X35000Y22368
X30000Y22368
X25000Y22368
X20000Y22368
X50000Y80000
X15000Y22368
X55000Y22368
X60000Y22368
X65000Y22368
X70000Y22368
X75000Y22368
X80000Y22368
X85000Y22368
X85000Y80000
X80000Y80000
X75000Y80000
X70000Y80000
X65000Y80000
X60000Y80000
X55000Y80000
X45000Y80000
X40000Y80000
X35000Y80000
X30000Y80000
X25000Y80000
X20000Y80000
X15000Y80000
X96000Y43000
X96000Y48000
X96000Y53000
T3
X6445Y25931
X6445Y20931
T4
X67500Y58730
X70040Y61270
X70040Y58730
X64960Y48270
X64960Y45730
X67500Y48270
X67500Y45730
X70040Y48270
X70040Y45730
X82460Y61270
X82460Y58730
X85000Y61270
X85000Y58730
X87540Y61270
X87540Y58730
X82460Y48270
X82460Y45730
X85000Y48270
X85000Y45730
X87540Y48270
X87540Y45730
X47460Y61270
X47460Y58730
X50000Y61270
X50000Y58730
X52540Y61270
X52540Y58730
X47460Y48270
X47460Y45730
X50000Y48270
X50000Y45730
X52540Y48270
X52540Y45730
X12460Y68730
X12460Y71270
X15000Y68730
X15000Y71270
X17540Y68730
X17540Y71270
X12460Y34730
X12460Y37270
X15000Y34730
X15000Y37270
X17540Y34730
X17540Y37270
X29960Y68730
X29960Y71270
X32500Y68730
X32500Y71270
X35040Y68730
X17540Y48270
X29960Y34730
X29960Y37270
X32500Y34730
X32500Y37270
X35040Y34730
X35040Y37270
X64960Y68730
X64960Y71270
X67500Y68730
X67500Y71270
X70040Y68730
X70040Y71270
X64960Y34730
X64960Y37270
X67500Y34730
X67500Y37270
X70040Y34730
X70040Y37270
X82460Y68730
X82460Y71270
X85000Y68730
X85000Y71270
X87540Y68730
X87540Y71270
X82460Y34730
X82460Y37270
X85000Y34730
X85000Y37270
X87540Y34730
X87540Y37270
X47460Y68730
X47460Y71270
X50000Y68730
X50000Y71270
X52540Y68730
X52540Y71270
X47460Y34730
X47460Y37270
X50000Y34730
X50000Y37270
X52540Y34730
X52540Y37270
X12460Y61270
X12460Y58730
X15000Y61270
X15000Y58730
X17540Y61270
X17540Y58730
X12460Y48270
X12460Y45730
X15000Y48270
X15000Y45730
X17540Y45730
X29960Y61270
X29960Y58730
X32500Y61270
X35040Y71270
X32500Y58730
X35040Y61270
X35040Y58730
X29960Y48270
X29960Y45730
X32500Y48270
X32500Y45730
X35040Y48270
X35040Y45730
X64960Y61270
X64960Y58730
X67500Y61270
T5
X46190Y29000
X75895Y5160
X78435Y5160
X30709Y4360
X28169Y4360
X53086Y6017
X53086Y8557
X41190Y3000
X43730Y3000
X46270Y3000
X48810Y3000
X41190Y8000
X43730Y8000
X46270Y8000
X48810Y8000
X70270Y3000
X67730Y3000
X53086Y11097
X53086Y13637
X53810Y29000
X51270Y29000
X48730Y29000
M30