G04 EAGLE Gerber RS-274X export*
G75*
%MOMM*%
%FSLAX34Y34*%
%LPD*%
%IN*%
%IPPOS*%
%AMOC8*
5,1,8,0,0,1.08239X$1,22.5*%
G01*
%ADD10C,0.254000*%


D10*
X0Y0D02*
X1000000Y0D01*
X1000000Y930000D01*
X0Y930000D01*
X0Y0D01*
X75500Y59446D02*
X75421Y58342D01*
X75263Y57246D01*
X75028Y56164D01*
X74716Y55102D01*
X74329Y54065D01*
X73869Y53058D01*
X73339Y52086D01*
X72740Y51154D01*
X72077Y50268D01*
X71352Y49431D01*
X70569Y48648D01*
X69732Y47923D01*
X68846Y47260D01*
X67914Y46661D01*
X66943Y46131D01*
X65935Y45671D01*
X64898Y45284D01*
X63836Y44972D01*
X62754Y44737D01*
X61658Y44579D01*
X60554Y44500D01*
X59446Y44500D01*
X58342Y44579D01*
X57246Y44737D01*
X56164Y44972D01*
X55102Y45284D01*
X54065Y45671D01*
X53058Y46131D01*
X52086Y46661D01*
X51154Y47260D01*
X50268Y47923D01*
X49431Y48648D01*
X48648Y49431D01*
X47923Y50268D01*
X47260Y51154D01*
X46661Y52086D01*
X46131Y53058D01*
X45671Y54065D01*
X45284Y55102D01*
X44972Y56164D01*
X44737Y57246D01*
X44579Y58342D01*
X44500Y59446D01*
X44500Y60554D01*
X44579Y61658D01*
X44737Y62754D01*
X44972Y63836D01*
X45284Y64898D01*
X45671Y65935D01*
X46131Y66943D01*
X46661Y67914D01*
X47260Y68846D01*
X47923Y69732D01*
X48648Y70569D01*
X49431Y71352D01*
X50268Y72077D01*
X51154Y72740D01*
X52086Y73339D01*
X53058Y73869D01*
X54065Y74329D01*
X55102Y74716D01*
X56164Y75028D01*
X57246Y75263D01*
X58342Y75421D01*
X59446Y75500D01*
X60554Y75500D01*
X61658Y75421D01*
X62754Y75263D01*
X63836Y75028D01*
X64898Y74716D01*
X65935Y74329D01*
X66943Y73869D01*
X67914Y73339D01*
X68846Y72740D01*
X69732Y72077D01*
X70569Y71352D01*
X71352Y70569D01*
X72077Y69732D01*
X72740Y68846D01*
X73339Y67914D01*
X73869Y66943D01*
X74329Y65935D01*
X74716Y64898D01*
X75028Y63836D01*
X75263Y62754D01*
X75421Y61658D01*
X75500Y60554D01*
X75500Y59446D01*
X65500Y879446D02*
X65421Y878342D01*
X65263Y877246D01*
X65028Y876164D01*
X64716Y875102D01*
X64329Y874065D01*
X63869Y873058D01*
X63339Y872086D01*
X62740Y871154D01*
X62077Y870268D01*
X61352Y869431D01*
X60569Y868648D01*
X59732Y867923D01*
X58846Y867260D01*
X57914Y866661D01*
X56943Y866131D01*
X55935Y865671D01*
X54898Y865284D01*
X53836Y864972D01*
X52754Y864737D01*
X51658Y864579D01*
X50554Y864500D01*
X49446Y864500D01*
X48342Y864579D01*
X47246Y864737D01*
X46164Y864972D01*
X45102Y865284D01*
X44065Y865671D01*
X43058Y866131D01*
X42086Y866661D01*
X41154Y867260D01*
X40268Y867923D01*
X39431Y868648D01*
X38648Y869431D01*
X37923Y870268D01*
X37260Y871154D01*
X36661Y872086D01*
X36131Y873058D01*
X35671Y874065D01*
X35284Y875102D01*
X34972Y876164D01*
X34737Y877246D01*
X34579Y878342D01*
X34500Y879446D01*
X34500Y880554D01*
X34579Y881658D01*
X34737Y882754D01*
X34972Y883836D01*
X35284Y884898D01*
X35671Y885935D01*
X36131Y886943D01*
X36661Y887914D01*
X37260Y888846D01*
X37923Y889732D01*
X38648Y890569D01*
X39431Y891352D01*
X40268Y892077D01*
X41154Y892740D01*
X42086Y893339D01*
X43058Y893869D01*
X44065Y894329D01*
X45102Y894716D01*
X46164Y895028D01*
X47246Y895263D01*
X48342Y895421D01*
X49446Y895500D01*
X50554Y895500D01*
X51658Y895421D01*
X52754Y895263D01*
X53836Y895028D01*
X54898Y894716D01*
X55935Y894329D01*
X56943Y893869D01*
X57914Y893339D01*
X58846Y892740D01*
X59732Y892077D01*
X60569Y891352D01*
X61352Y890569D01*
X62077Y889732D01*
X62740Y888846D01*
X63339Y887914D01*
X63869Y886943D01*
X64329Y885935D01*
X64716Y884898D01*
X65028Y883836D01*
X65263Y882754D01*
X65421Y881658D01*
X65500Y880554D01*
X65500Y879446D01*
X965500Y879446D02*
X965421Y878342D01*
X965263Y877246D01*
X965028Y876164D01*
X964716Y875102D01*
X964329Y874065D01*
X963869Y873058D01*
X963339Y872086D01*
X962740Y871154D01*
X962077Y870268D01*
X961352Y869431D01*
X960569Y868648D01*
X959732Y867923D01*
X958846Y867260D01*
X957914Y866661D01*
X956943Y866131D01*
X955935Y865671D01*
X954898Y865284D01*
X953836Y864972D01*
X952754Y864737D01*
X951658Y864579D01*
X950554Y864500D01*
X949446Y864500D01*
X948342Y864579D01*
X947246Y864737D01*
X946164Y864972D01*
X945102Y865284D01*
X944065Y865671D01*
X943058Y866131D01*
X942086Y866661D01*
X941154Y867260D01*
X940268Y867923D01*
X939431Y868648D01*
X938648Y869431D01*
X937923Y870268D01*
X937260Y871154D01*
X936661Y872086D01*
X936131Y873058D01*
X935671Y874065D01*
X935284Y875102D01*
X934972Y876164D01*
X934737Y877246D01*
X934579Y878342D01*
X934500Y879446D01*
X934500Y880554D01*
X934579Y881658D01*
X934737Y882754D01*
X934972Y883836D01*
X935284Y884898D01*
X935671Y885935D01*
X936131Y886943D01*
X936661Y887914D01*
X937260Y888846D01*
X937923Y889732D01*
X938648Y890569D01*
X939431Y891352D01*
X940268Y892077D01*
X941154Y892740D01*
X942086Y893339D01*
X943058Y893869D01*
X944065Y894329D01*
X945102Y894716D01*
X946164Y895028D01*
X947246Y895263D01*
X948342Y895421D01*
X949446Y895500D01*
X950554Y895500D01*
X951658Y895421D01*
X952754Y895263D01*
X953836Y895028D01*
X954898Y894716D01*
X955935Y894329D01*
X956943Y893869D01*
X957914Y893339D01*
X958846Y892740D01*
X959732Y892077D01*
X960569Y891352D01*
X961352Y890569D01*
X962077Y889732D01*
X962740Y888846D01*
X963339Y887914D01*
X963869Y886943D01*
X964329Y885935D01*
X964716Y884898D01*
X965028Y883836D01*
X965263Y882754D01*
X965421Y881658D01*
X965500Y880554D01*
X965500Y879446D01*
X955500Y59446D02*
X955421Y58342D01*
X955263Y57246D01*
X955028Y56164D01*
X954716Y55102D01*
X954329Y54065D01*
X953869Y53058D01*
X953339Y52086D01*
X952740Y51154D01*
X952077Y50268D01*
X951352Y49431D01*
X950569Y48648D01*
X949732Y47923D01*
X948846Y47260D01*
X947914Y46661D01*
X946943Y46131D01*
X945935Y45671D01*
X944898Y45284D01*
X943836Y44972D01*
X942754Y44737D01*
X941658Y44579D01*
X940554Y44500D01*
X939446Y44500D01*
X938342Y44579D01*
X937246Y44737D01*
X936164Y44972D01*
X935102Y45284D01*
X934065Y45671D01*
X933058Y46131D01*
X932086Y46661D01*
X931154Y47260D01*
X930268Y47923D01*
X929431Y48648D01*
X928648Y49431D01*
X927923Y50268D01*
X927260Y51154D01*
X926661Y52086D01*
X926131Y53058D01*
X925671Y54065D01*
X925284Y55102D01*
X924972Y56164D01*
X924737Y57246D01*
X924579Y58342D01*
X924500Y59446D01*
X924500Y60554D01*
X924579Y61658D01*
X924737Y62754D01*
X924972Y63836D01*
X925284Y64898D01*
X925671Y65935D01*
X926131Y66943D01*
X926661Y67914D01*
X927260Y68846D01*
X927923Y69732D01*
X928648Y70569D01*
X929431Y71352D01*
X930268Y72077D01*
X931154Y72740D01*
X932086Y73339D01*
X933058Y73869D01*
X934065Y74329D01*
X935102Y74716D01*
X936164Y75028D01*
X937246Y75263D01*
X938342Y75421D01*
X939446Y75500D01*
X940554Y75500D01*
X941658Y75421D01*
X942754Y75263D01*
X943836Y75028D01*
X944898Y74716D01*
X945935Y74329D01*
X946943Y73869D01*
X947914Y73339D01*
X948846Y72740D01*
X949732Y72077D01*
X950569Y71352D01*
X951352Y70569D01*
X952077Y69732D01*
X952740Y68846D01*
X953339Y67914D01*
X953869Y66943D01*
X954329Y65935D01*
X954716Y64898D01*
X955028Y63836D01*
X955263Y62754D01*
X955421Y61658D01*
X955500Y60554D01*
X955500Y59446D01*
M02*
