G04 EAGLE Gerber RS-274X export*
G75*
%MOMM*%
%FSLAX34Y34*%
%LPD*%
%INSoldermask Top*%
%IPPOS*%
%AMOC8*
5,1,8,0,0,1.08239X$1,22.5*%
G01*
%ADD10C,3.303200*%
%ADD11C,2.153200*%
%ADD12C,1.727200*%
%ADD13R,2.082800X2.082800*%
%ADD14C,2.082800*%
%ADD15C,2.303200*%
%ADD16R,1.473200X0.838200*%


D10*
X60000Y60000D03*
X50000Y880000D03*
X950000Y880000D03*
X940000Y60000D03*
D11*
X74200Y259307D02*
X54700Y259307D01*
X54700Y209307D02*
X74200Y209307D01*
D12*
X523240Y136372D02*
X538480Y136372D01*
X538480Y110972D02*
X523240Y110972D01*
X523240Y85572D02*
X538480Y85572D01*
X538480Y60172D02*
X523240Y60172D01*
X281686Y51219D02*
X281686Y35979D01*
X307086Y35979D02*
X307086Y51219D01*
D13*
X124600Y612700D03*
D14*
X124600Y587300D03*
X150000Y612700D03*
X150000Y587300D03*
X175400Y612700D03*
X175400Y587300D03*
D13*
X124600Y482700D03*
D14*
X124600Y457300D03*
X150000Y482700D03*
X150000Y457300D03*
X175400Y482700D03*
X175400Y457300D03*
D13*
X299600Y612700D03*
D14*
X299600Y587300D03*
X325000Y612700D03*
X325000Y587300D03*
X350400Y612700D03*
X350400Y587300D03*
D13*
X299600Y482700D03*
D14*
X299600Y457300D03*
X325000Y482700D03*
X325000Y457300D03*
X350400Y482700D03*
X350400Y457300D03*
D13*
X649600Y612700D03*
D14*
X649600Y587300D03*
X675000Y612700D03*
X675000Y587300D03*
X700400Y612700D03*
X700400Y587300D03*
D13*
X649600Y482700D03*
D14*
X649600Y457300D03*
X675000Y482700D03*
X675000Y457300D03*
X700400Y482700D03*
X700400Y457300D03*
D13*
X824600Y612700D03*
D14*
X824600Y587300D03*
X850000Y612700D03*
X850000Y587300D03*
X875400Y612700D03*
X875400Y587300D03*
D13*
X824600Y482700D03*
D14*
X824600Y457300D03*
X850000Y482700D03*
X850000Y457300D03*
X875400Y482700D03*
X875400Y457300D03*
D13*
X474600Y612700D03*
D14*
X474600Y587300D03*
X500000Y612700D03*
X500000Y587300D03*
X525400Y612700D03*
X525400Y587300D03*
D13*
X474600Y482700D03*
D14*
X474600Y457300D03*
X500000Y482700D03*
X500000Y457300D03*
X525400Y482700D03*
X525400Y457300D03*
D12*
X784352Y59220D02*
X784352Y43980D01*
X758952Y43980D02*
X758952Y59220D01*
D13*
X124600Y687300D03*
D14*
X124600Y712700D03*
X150000Y687300D03*
X150000Y712700D03*
X175400Y687300D03*
X175400Y712700D03*
D13*
X124600Y347300D03*
D14*
X124600Y372700D03*
X150000Y347300D03*
X150000Y372700D03*
X175400Y347300D03*
X175400Y372700D03*
D13*
X299600Y687300D03*
D14*
X299600Y712700D03*
X325000Y687300D03*
X325000Y712700D03*
X350400Y687300D03*
X350400Y712700D03*
D13*
X299600Y347300D03*
D14*
X299600Y372700D03*
X325000Y347300D03*
X325000Y372700D03*
X350400Y347300D03*
X350400Y372700D03*
D13*
X649600Y687300D03*
D14*
X649600Y712700D03*
X675000Y687300D03*
X675000Y712700D03*
X700400Y687300D03*
X700400Y712700D03*
D13*
X649600Y347300D03*
D14*
X649600Y372700D03*
X675000Y347300D03*
X675000Y372700D03*
X700400Y347300D03*
X700400Y372700D03*
D13*
X824600Y687300D03*
D14*
X824600Y712700D03*
X850000Y687300D03*
X850000Y712700D03*
X875400Y687300D03*
X875400Y712700D03*
D13*
X824600Y347300D03*
D14*
X824600Y372700D03*
X850000Y347300D03*
X850000Y372700D03*
X875400Y347300D03*
X875400Y372700D03*
D13*
X474600Y687300D03*
D14*
X474600Y712700D03*
X500000Y687300D03*
X500000Y712700D03*
X525400Y687300D03*
X525400Y712700D03*
D13*
X474600Y347300D03*
D14*
X474600Y372700D03*
X500000Y347300D03*
X500000Y372700D03*
X525400Y347300D03*
X525400Y372700D03*
D12*
X538100Y297620D02*
X538100Y282380D01*
X512700Y282380D02*
X512700Y297620D01*
X487300Y297620D02*
X487300Y282380D01*
X461900Y282380D02*
X461900Y297620D01*
D15*
X150000Y234180D02*
X150000Y213180D01*
X200000Y213180D02*
X200000Y234180D01*
X250000Y234180D02*
X250000Y213180D01*
X300000Y213180D02*
X300000Y234180D01*
X350000Y234180D02*
X350000Y213180D01*
X400000Y213180D02*
X400000Y234180D01*
X450000Y234180D02*
X450000Y213180D01*
X500000Y213180D02*
X500000Y234180D01*
X550000Y234180D02*
X550000Y213180D01*
X600000Y213180D02*
X600000Y234180D01*
X650000Y234180D02*
X650000Y213180D01*
X700000Y213180D02*
X700000Y234180D01*
X750000Y234180D02*
X750000Y213180D01*
X800000Y213180D02*
X800000Y234180D01*
X850000Y234180D02*
X850000Y213180D01*
X850000Y789500D02*
X850000Y810500D01*
X800000Y810500D02*
X800000Y789500D01*
X750000Y789500D02*
X750000Y810500D01*
X700000Y810500D02*
X700000Y789500D01*
X650000Y789500D02*
X650000Y810500D01*
X600000Y810500D02*
X600000Y789500D01*
X550000Y789500D02*
X550000Y810500D01*
X500000Y810500D02*
X500000Y789500D01*
X450000Y789500D02*
X450000Y810500D01*
X400000Y810500D02*
X400000Y789500D01*
X350000Y789500D02*
X350000Y810500D01*
X300000Y810500D02*
X300000Y789500D01*
X250000Y789500D02*
X250000Y810500D01*
X200000Y810500D02*
X200000Y789500D01*
X150000Y789500D02*
X150000Y810500D01*
D16*
X90000Y459840D03*
X90000Y470000D03*
X90000Y480160D03*
X260000Y459840D03*
X260000Y470000D03*
X260000Y480160D03*
X610000Y459840D03*
X610000Y470000D03*
X610000Y480160D03*
X790000Y459840D03*
X790000Y470000D03*
X790000Y480160D03*
X430000Y459840D03*
X430000Y470000D03*
X430000Y480160D03*
X440000Y589840D03*
X440000Y600000D03*
X440000Y610160D03*
X790000Y589840D03*
X790000Y600000D03*
X790000Y610160D03*
X610000Y589840D03*
X610000Y600000D03*
X610000Y610160D03*
X260000Y589840D03*
X260000Y600000D03*
X260000Y610160D03*
X90000Y589840D03*
X90000Y600000D03*
X90000Y610160D03*
D12*
X411900Y37620D02*
X411900Y22380D01*
X437300Y22380D02*
X437300Y37620D01*
X462700Y37620D02*
X462700Y22380D01*
X488100Y22380D02*
X488100Y37620D01*
X411900Y72380D02*
X411900Y87620D01*
X437300Y87620D02*
X437300Y72380D01*
X462700Y72380D02*
X462700Y87620D01*
X488100Y87620D02*
X488100Y72380D01*
X702700Y37620D02*
X702700Y22380D01*
X677300Y22380D02*
X677300Y37620D01*
D15*
X949500Y430000D02*
X970500Y430000D01*
X970500Y480000D02*
X949500Y480000D01*
X949500Y530000D02*
X970500Y530000D01*
X970500Y580000D02*
X949500Y580000D01*
X949500Y630000D02*
X970500Y630000D01*
M02*
