%
M48
M72
T01C0.01571
T02C0.01575
T03C0.03150
T04C0.03200
T05C0.03937
T06C0.04000
T07C0.04331
T08C0.04700
T09C0.05000
T10C0.05900
T11C0.06299
T12C0.09055
T13C0.12205
%
T01
X337900Y283075
X335450Y299000
X355050Y283075
T02
X36550Y259800
X21850Y287975
X21850Y300225
X21850Y312475
X40225Y328400
X40225Y361475
X47575Y372725
X47575Y381300
X47575Y387200
X41450Y387425
X41450Y381300
X47575Y394550
X41450Y405575
X41450Y417825
X46350Y426400
X46350Y438650
X52475Y444775
X50392Y455310
X40225Y471725
X30425Y486425
X30425Y493775
X36550Y506025
X52475Y515825
X63500Y487650
X58600Y483975
X72075Y471725
X75750Y479075
X78200Y495000
X73300Y497450
X70850Y515825
X80650Y536650
X85550Y507617
X86775Y493775
X97800Y536650
X110662Y536773
X122300Y536650
X139450Y535425
X154150Y496225
X145575Y488875
X165175Y503575
X165175Y513375
X162725Y539100
X181100Y537875
X195800Y518275
X194575Y503575
X183550Y495000
X182325Y513375
X176200Y476625
X168850Y474175
X168850Y459475
X172525Y447225
X172525Y442325
X182325Y442325
X182325Y447225
X176200Y454575
X187225Y466825
X183550Y474175
X206825Y457025
X211725Y442325
X197025Y419050
X195800Y409250
X195800Y395775
X189675Y389650
X184775Y384750
X181100Y365150
X181100Y356575
X181100Y348000
X187225Y330850
X180425Y325750
X180375Y319075
X181800Y307275
X177375Y303350
X171417Y295525
X169550Y307275
X163425Y307275
X155375Y329625
X146800Y329625
X135775Y340650
X123525Y311250
X125975Y294100
X114950Y275725
X114950Y269600
X100740Y294225
X105050Y301800
X109425Y305550
X110050Y319300
X110050Y326175
X112500Y335750
X100250Y332075
X91675Y323500
X85550Y314925
X80650Y313700
X93800Y305550
X100050Y305550
X94125Y275725
X62275Y359025
X62275Y365150
X69625Y373725
X76975Y393325
X80650Y405575
X65950Y395775
X53700Y361475
X18175Y425175
X18175Y438650
X18175Y447225
X18175Y453350
X24300Y453350
X24300Y447225
X30425Y448450
X63500Y461925
X65950Y444725
X107600Y495000
X110050Y488875
X129650Y430075
X135775Y416600
X135775Y409250
X128425Y403125
X118625Y399450
X111275Y399450
X111275Y389650
X132100Y378625
X159050Y410475
X159050Y419050
X159050Y430075
X159050Y441100
X159050Y448450
X146800Y448450
X146800Y436200
X171300Y417825
X177425Y412925
X177425Y422725
X183550Y417825
X172525Y399450
X171300Y385975
X192125Y330850
X198250Y330850
X204375Y330850
X206825Y322275
X211725Y338200
X220300Y341875
X223975Y365150
X210500Y384750
X215400Y390875
X242350Y383525
X247250Y388425
X239900Y412925
X239900Y425175
X239900Y431300
X238675Y452125
X214175Y497450
X220300Y506025
X219075Y518275
X227650Y502350
X237450Y509700
X247250Y502350
X254600Y513375
X266850Y499900
X272975Y503575
X277875Y493775
X275425Y481525
X284000Y501125
X290125Y518275
X293800Y504800
X292575Y481525
X309725Y471725
X315850Y452125
X309725Y449675
X309725Y444775
X302375Y438650
X297475Y438650
X292575Y438650
X287675Y438650
X282775Y438650
X276650Y439875
X269300Y419050
X263175Y449675
X284000Y400675
X295025Y411700
X307275Y421500
X307275Y430075
X329325Y411700
X337900Y401900
X341575Y395775
X347700Y415375
X350150Y438650
X356275Y438650
X348925Y459475
X341575Y465600
X342800Y444775
X340350Y439875
X367300Y468050
X383225Y486425
X385675Y472950
X397925Y471725
X396700Y465600
X394250Y444775
X384450Y427625
X378325Y422725
X377100Y387200
X370975Y384750
X362400Y355350
X363625Y349225
X350150Y346775
X345250Y341875
X345250Y367600
X334225Y338200
X324425Y350450
X314625Y366375
X304825Y368825
X299925Y361475
X301150Y350450
X286450Y368825
X279100Y356575
X277875Y341875
X266850Y341875
X270525Y317375
X281550Y313700
X276650Y296550
X258275Y317375
X249700Y317375
X236225Y318600
X242350Y289200
X222750Y265925
X215400Y289200
X215000Y307575
X192125Y313700
X193595Y295693
X165175Y275725
X145575Y269600
X138225Y269600
X239900Y352900
X299925Y265925
X325650Y318600
X337000Y306150
X342000Y304900
X349500Y302400
X358725Y302675
X358725Y316150
X365625Y314900
X365625Y329775
X375875Y321050
X378325Y336975
X384450Y352900
X390575Y351675
X389350Y339425
X394250Y311250
X397925Y377400
X397925Y385975
X373425Y492550
X373425Y506025
X362400Y503575
X362400Y510925
X362400Y536650
X355050Y536650
X340350Y536650
X328100Y518275
X339125Y504800
X317075Y504800
X307275Y546450
X293800Y536650
X270525Y518275
X250925Y537875
X233775Y537875
X217850Y536650
X189675Y604025
X177425Y610150
X177425Y622400
X170075Y624850
X165175Y630975
X152925Y630975
X152925Y624850
X141900Y630975
X132100Y635875
X121075Y604025
X107600Y610150
X107600Y621175
X99025Y624850
X94125Y630975
X84325Y624850
X70850Y635875
X68400Y623625
X59825Y644450
X52475Y604025
X42675Y600350
X32875Y586875
X18175Y601575
X48800Y567275
X63500Y574625
X133325Y578300
X145575Y593000
X200700Y635875
X210500Y630975
X221525Y630975
X221525Y624850
X232550Y630975
X237450Y624850
X246025Y622400
X246025Y610150
X257050Y604025
X269300Y635875
X280325Y630975
X291350Y630975
X290125Y624850
X302375Y630975
X307275Y624850
X313400Y610150
X323200Y604025
X339125Y575850
X359950Y624850
X348925Y630975
X339125Y635875
X377100Y630975
X377100Y610150
X379550Y566050
X370975Y542775
X374650Y521950
X404050Y513375
X396700Y586875
T03
X57000Y328502
X45189Y347400
T04
X311925Y392050
X321925Y392050
T05
X68811Y347400
T06
X122000Y349900
X122000Y359900
X132000Y359900
X132000Y349900
X142000Y349900
X142000Y359900
X152000Y359900
X152000Y349900
X162000Y349900
X162000Y359900
X172000Y359900
X172000Y349900
X135400Y390175
X125400Y390175
X196350Y487183
X206350Y487183
X216350Y487183
X226350Y487183
X223500Y426700
X223500Y416700
X223500Y406700
X223500Y396700
X256150Y396700
X256150Y406700
X256150Y416700
X256150Y426700
X334691Y276517
X356738Y276517
X396950Y528125
X396950Y545925
T07
X359146Y553050
X359146Y563050
X349146Y563050
X349146Y553050
X339146Y553050
X339146Y563050
X339146Y604231
X339146Y614231
X349146Y614231
X349146Y604231
X359146Y604231
X359146Y614231
X290248Y614231
X290248Y604231
X280248Y604231
X280248Y614231
X270248Y614231
X270248Y604231
X270248Y563050
X270248Y553050
X280248Y553050
X280248Y563050
X290248Y563050
X290248Y553050
X221350Y553050
X221350Y563050
X211350Y563050
X211350Y553050
X201350Y553050
X201350Y563050
X201350Y604231
X201350Y614231
X211350Y614231
X211350Y604231
X221350Y604231
X221350Y614231
X152453Y614231
X152453Y604231
X142453Y604231
X142453Y614231
X132453Y614231
X132453Y604231
X132453Y563050
X132453Y553050
X142453Y553050
X142453Y563050
X152453Y563050
X152453Y553050
X83555Y553050
X83555Y563050
X73555Y563050
X73555Y553050
X63555Y553050
X63555Y563050
X63555Y604231
X63555Y614231
X73555Y614231
X73555Y604231
X83555Y604231
X83555Y614231
X223000Y313400
T08
X32000Y412107
X32000Y431793
T09
X345715Y268052
T10
X387150Y523225
X387150Y550825
T11
X306000Y313400
T12
X202079Y356908
X91843Y356908
T13
X38122Y278522
X34185Y624979
X384579Y278522
X388516Y624979
M30
