G75*
%MOIN*%
%OFA0B0*%
%FSLAX25Y25*%
%IPPOS*%
%LPD*%
%AMOC8*
5,1,8,0,0,1.08239X$1,22.5*
%
%ADD10C,0.00000*%
D10*
X0015725Y0254900D02*
X0014500Y0648601D01*
X0408201Y0648601D01*
X0409426Y0254900D01*
X0015725Y0254900D01*
X0032020Y0278522D02*
X0032022Y0278678D01*
X0032028Y0278834D01*
X0032038Y0278989D01*
X0032052Y0279144D01*
X0032070Y0279299D01*
X0032092Y0279453D01*
X0032117Y0279607D01*
X0032147Y0279760D01*
X0032181Y0279912D01*
X0032218Y0280064D01*
X0032259Y0280214D01*
X0032304Y0280363D01*
X0032353Y0280511D01*
X0032406Y0280658D01*
X0032462Y0280803D01*
X0032522Y0280947D01*
X0032586Y0281089D01*
X0032654Y0281230D01*
X0032725Y0281368D01*
X0032799Y0281505D01*
X0032877Y0281640D01*
X0032958Y0281773D01*
X0033043Y0281904D01*
X0033131Y0282033D01*
X0033222Y0282159D01*
X0033317Y0282283D01*
X0033414Y0282404D01*
X0033515Y0282523D01*
X0033619Y0282640D01*
X0033725Y0282753D01*
X0033835Y0282864D01*
X0033947Y0282972D01*
X0034062Y0283077D01*
X0034180Y0283180D01*
X0034300Y0283279D01*
X0034423Y0283375D01*
X0034548Y0283468D01*
X0034675Y0283557D01*
X0034805Y0283644D01*
X0034937Y0283727D01*
X0035071Y0283806D01*
X0035207Y0283883D01*
X0035345Y0283955D01*
X0035484Y0284025D01*
X0035626Y0284090D01*
X0035769Y0284152D01*
X0035913Y0284210D01*
X0036059Y0284265D01*
X0036207Y0284316D01*
X0036355Y0284363D01*
X0036505Y0284406D01*
X0036656Y0284445D01*
X0036808Y0284481D01*
X0036960Y0284512D01*
X0037114Y0284540D01*
X0037268Y0284564D01*
X0037422Y0284584D01*
X0037577Y0284600D01*
X0037733Y0284612D01*
X0037888Y0284620D01*
X0038044Y0284624D01*
X0038200Y0284624D01*
X0038356Y0284620D01*
X0038511Y0284612D01*
X0038667Y0284600D01*
X0038822Y0284584D01*
X0038976Y0284564D01*
X0039130Y0284540D01*
X0039284Y0284512D01*
X0039436Y0284481D01*
X0039588Y0284445D01*
X0039739Y0284406D01*
X0039889Y0284363D01*
X0040037Y0284316D01*
X0040185Y0284265D01*
X0040331Y0284210D01*
X0040475Y0284152D01*
X0040618Y0284090D01*
X0040760Y0284025D01*
X0040899Y0283955D01*
X0041037Y0283883D01*
X0041173Y0283806D01*
X0041307Y0283727D01*
X0041439Y0283644D01*
X0041569Y0283557D01*
X0041696Y0283468D01*
X0041821Y0283375D01*
X0041944Y0283279D01*
X0042064Y0283180D01*
X0042182Y0283077D01*
X0042297Y0282972D01*
X0042409Y0282864D01*
X0042519Y0282753D01*
X0042625Y0282640D01*
X0042729Y0282523D01*
X0042830Y0282404D01*
X0042927Y0282283D01*
X0043022Y0282159D01*
X0043113Y0282033D01*
X0043201Y0281904D01*
X0043286Y0281773D01*
X0043367Y0281640D01*
X0043445Y0281505D01*
X0043519Y0281368D01*
X0043590Y0281230D01*
X0043658Y0281089D01*
X0043722Y0280947D01*
X0043782Y0280803D01*
X0043838Y0280658D01*
X0043891Y0280511D01*
X0043940Y0280363D01*
X0043985Y0280214D01*
X0044026Y0280064D01*
X0044063Y0279912D01*
X0044097Y0279760D01*
X0044127Y0279607D01*
X0044152Y0279453D01*
X0044174Y0279299D01*
X0044192Y0279144D01*
X0044206Y0278989D01*
X0044216Y0278834D01*
X0044222Y0278678D01*
X0044224Y0278522D01*
X0044222Y0278366D01*
X0044216Y0278210D01*
X0044206Y0278055D01*
X0044192Y0277900D01*
X0044174Y0277745D01*
X0044152Y0277591D01*
X0044127Y0277437D01*
X0044097Y0277284D01*
X0044063Y0277132D01*
X0044026Y0276980D01*
X0043985Y0276830D01*
X0043940Y0276681D01*
X0043891Y0276533D01*
X0043838Y0276386D01*
X0043782Y0276241D01*
X0043722Y0276097D01*
X0043658Y0275955D01*
X0043590Y0275814D01*
X0043519Y0275676D01*
X0043445Y0275539D01*
X0043367Y0275404D01*
X0043286Y0275271D01*
X0043201Y0275140D01*
X0043113Y0275011D01*
X0043022Y0274885D01*
X0042927Y0274761D01*
X0042830Y0274640D01*
X0042729Y0274521D01*
X0042625Y0274404D01*
X0042519Y0274291D01*
X0042409Y0274180D01*
X0042297Y0274072D01*
X0042182Y0273967D01*
X0042064Y0273864D01*
X0041944Y0273765D01*
X0041821Y0273669D01*
X0041696Y0273576D01*
X0041569Y0273487D01*
X0041439Y0273400D01*
X0041307Y0273317D01*
X0041173Y0273238D01*
X0041037Y0273161D01*
X0040899Y0273089D01*
X0040760Y0273019D01*
X0040618Y0272954D01*
X0040475Y0272892D01*
X0040331Y0272834D01*
X0040185Y0272779D01*
X0040037Y0272728D01*
X0039889Y0272681D01*
X0039739Y0272638D01*
X0039588Y0272599D01*
X0039436Y0272563D01*
X0039284Y0272532D01*
X0039130Y0272504D01*
X0038976Y0272480D01*
X0038822Y0272460D01*
X0038667Y0272444D01*
X0038511Y0272432D01*
X0038356Y0272424D01*
X0038200Y0272420D01*
X0038044Y0272420D01*
X0037888Y0272424D01*
X0037733Y0272432D01*
X0037577Y0272444D01*
X0037422Y0272460D01*
X0037268Y0272480D01*
X0037114Y0272504D01*
X0036960Y0272532D01*
X0036808Y0272563D01*
X0036656Y0272599D01*
X0036505Y0272638D01*
X0036355Y0272681D01*
X0036207Y0272728D01*
X0036059Y0272779D01*
X0035913Y0272834D01*
X0035769Y0272892D01*
X0035626Y0272954D01*
X0035484Y0273019D01*
X0035345Y0273089D01*
X0035207Y0273161D01*
X0035071Y0273238D01*
X0034937Y0273317D01*
X0034805Y0273400D01*
X0034675Y0273487D01*
X0034548Y0273576D01*
X0034423Y0273669D01*
X0034300Y0273765D01*
X0034180Y0273864D01*
X0034062Y0273967D01*
X0033947Y0274072D01*
X0033835Y0274180D01*
X0033725Y0274291D01*
X0033619Y0274404D01*
X0033515Y0274521D01*
X0033414Y0274640D01*
X0033317Y0274761D01*
X0033222Y0274885D01*
X0033131Y0275011D01*
X0033043Y0275140D01*
X0032958Y0275271D01*
X0032877Y0275404D01*
X0032799Y0275539D01*
X0032725Y0275676D01*
X0032654Y0275814D01*
X0032586Y0275955D01*
X0032522Y0276097D01*
X0032462Y0276241D01*
X0032406Y0276386D01*
X0032353Y0276533D01*
X0032304Y0276681D01*
X0032259Y0276830D01*
X0032218Y0276980D01*
X0032181Y0277132D01*
X0032147Y0277284D01*
X0032117Y0277437D01*
X0032092Y0277591D01*
X0032070Y0277745D01*
X0032052Y0277900D01*
X0032038Y0278055D01*
X0032028Y0278210D01*
X0032022Y0278366D01*
X0032020Y0278522D01*
X0087315Y0356908D02*
X0087317Y0357042D01*
X0087323Y0357176D01*
X0087333Y0357310D01*
X0087347Y0357444D01*
X0087365Y0357577D01*
X0087386Y0357709D01*
X0087412Y0357841D01*
X0087442Y0357972D01*
X0087475Y0358102D01*
X0087512Y0358230D01*
X0087554Y0358358D01*
X0087598Y0358485D01*
X0087647Y0358610D01*
X0087699Y0358733D01*
X0087755Y0358855D01*
X0087815Y0358976D01*
X0087878Y0359094D01*
X0087944Y0359211D01*
X0088014Y0359325D01*
X0088087Y0359438D01*
X0088164Y0359548D01*
X0088244Y0359656D01*
X0088327Y0359761D01*
X0088413Y0359864D01*
X0088502Y0359964D01*
X0088594Y0360062D01*
X0088689Y0360157D01*
X0088787Y0360249D01*
X0088887Y0360338D01*
X0088990Y0360424D01*
X0089095Y0360507D01*
X0089203Y0360587D01*
X0089313Y0360664D01*
X0089426Y0360737D01*
X0089540Y0360807D01*
X0089657Y0360873D01*
X0089775Y0360936D01*
X0089896Y0360996D01*
X0090018Y0361052D01*
X0090141Y0361104D01*
X0090266Y0361153D01*
X0090393Y0361197D01*
X0090521Y0361239D01*
X0090649Y0361276D01*
X0090779Y0361309D01*
X0090910Y0361339D01*
X0091042Y0361365D01*
X0091174Y0361386D01*
X0091307Y0361404D01*
X0091441Y0361418D01*
X0091575Y0361428D01*
X0091709Y0361434D01*
X0091843Y0361436D01*
X0091977Y0361434D01*
X0092111Y0361428D01*
X0092245Y0361418D01*
X0092379Y0361404D01*
X0092512Y0361386D01*
X0092644Y0361365D01*
X0092776Y0361339D01*
X0092907Y0361309D01*
X0093037Y0361276D01*
X0093165Y0361239D01*
X0093293Y0361197D01*
X0093420Y0361153D01*
X0093545Y0361104D01*
X0093668Y0361052D01*
X0093790Y0360996D01*
X0093911Y0360936D01*
X0094029Y0360873D01*
X0094146Y0360807D01*
X0094260Y0360737D01*
X0094373Y0360664D01*
X0094483Y0360587D01*
X0094591Y0360507D01*
X0094696Y0360424D01*
X0094799Y0360338D01*
X0094899Y0360249D01*
X0094997Y0360157D01*
X0095092Y0360062D01*
X0095184Y0359964D01*
X0095273Y0359864D01*
X0095359Y0359761D01*
X0095442Y0359656D01*
X0095522Y0359548D01*
X0095599Y0359438D01*
X0095672Y0359325D01*
X0095742Y0359211D01*
X0095808Y0359094D01*
X0095871Y0358976D01*
X0095931Y0358855D01*
X0095987Y0358733D01*
X0096039Y0358610D01*
X0096088Y0358485D01*
X0096132Y0358358D01*
X0096174Y0358230D01*
X0096211Y0358102D01*
X0096244Y0357972D01*
X0096274Y0357841D01*
X0096300Y0357709D01*
X0096321Y0357577D01*
X0096339Y0357444D01*
X0096353Y0357310D01*
X0096363Y0357176D01*
X0096369Y0357042D01*
X0096371Y0356908D01*
X0096369Y0356774D01*
X0096363Y0356640D01*
X0096353Y0356506D01*
X0096339Y0356372D01*
X0096321Y0356239D01*
X0096300Y0356107D01*
X0096274Y0355975D01*
X0096244Y0355844D01*
X0096211Y0355714D01*
X0096174Y0355586D01*
X0096132Y0355458D01*
X0096088Y0355331D01*
X0096039Y0355206D01*
X0095987Y0355083D01*
X0095931Y0354961D01*
X0095871Y0354840D01*
X0095808Y0354722D01*
X0095742Y0354605D01*
X0095672Y0354491D01*
X0095599Y0354378D01*
X0095522Y0354268D01*
X0095442Y0354160D01*
X0095359Y0354055D01*
X0095273Y0353952D01*
X0095184Y0353852D01*
X0095092Y0353754D01*
X0094997Y0353659D01*
X0094899Y0353567D01*
X0094799Y0353478D01*
X0094696Y0353392D01*
X0094591Y0353309D01*
X0094483Y0353229D01*
X0094373Y0353152D01*
X0094260Y0353079D01*
X0094146Y0353009D01*
X0094029Y0352943D01*
X0093911Y0352880D01*
X0093790Y0352820D01*
X0093668Y0352764D01*
X0093545Y0352712D01*
X0093420Y0352663D01*
X0093293Y0352619D01*
X0093165Y0352577D01*
X0093037Y0352540D01*
X0092907Y0352507D01*
X0092776Y0352477D01*
X0092644Y0352451D01*
X0092512Y0352430D01*
X0092379Y0352412D01*
X0092245Y0352398D01*
X0092111Y0352388D01*
X0091977Y0352382D01*
X0091843Y0352380D01*
X0091709Y0352382D01*
X0091575Y0352388D01*
X0091441Y0352398D01*
X0091307Y0352412D01*
X0091174Y0352430D01*
X0091042Y0352451D01*
X0090910Y0352477D01*
X0090779Y0352507D01*
X0090649Y0352540D01*
X0090521Y0352577D01*
X0090393Y0352619D01*
X0090266Y0352663D01*
X0090141Y0352712D01*
X0090018Y0352764D01*
X0089896Y0352820D01*
X0089775Y0352880D01*
X0089657Y0352943D01*
X0089540Y0353009D01*
X0089426Y0353079D01*
X0089313Y0353152D01*
X0089203Y0353229D01*
X0089095Y0353309D01*
X0088990Y0353392D01*
X0088887Y0353478D01*
X0088787Y0353567D01*
X0088689Y0353659D01*
X0088594Y0353754D01*
X0088502Y0353852D01*
X0088413Y0353952D01*
X0088327Y0354055D01*
X0088244Y0354160D01*
X0088164Y0354268D01*
X0088087Y0354378D01*
X0088014Y0354491D01*
X0087944Y0354605D01*
X0087878Y0354722D01*
X0087815Y0354840D01*
X0087755Y0354961D01*
X0087699Y0355083D01*
X0087647Y0355206D01*
X0087598Y0355331D01*
X0087554Y0355458D01*
X0087512Y0355586D01*
X0087475Y0355714D01*
X0087442Y0355844D01*
X0087412Y0355975D01*
X0087386Y0356107D01*
X0087365Y0356239D01*
X0087347Y0356372D01*
X0087333Y0356506D01*
X0087323Y0356640D01*
X0087317Y0356774D01*
X0087315Y0356908D01*
X0197551Y0356908D02*
X0197553Y0357042D01*
X0197559Y0357176D01*
X0197569Y0357310D01*
X0197583Y0357444D01*
X0197601Y0357577D01*
X0197622Y0357709D01*
X0197648Y0357841D01*
X0197678Y0357972D01*
X0197711Y0358102D01*
X0197748Y0358230D01*
X0197790Y0358358D01*
X0197834Y0358485D01*
X0197883Y0358610D01*
X0197935Y0358733D01*
X0197991Y0358855D01*
X0198051Y0358976D01*
X0198114Y0359094D01*
X0198180Y0359211D01*
X0198250Y0359325D01*
X0198323Y0359438D01*
X0198400Y0359548D01*
X0198480Y0359656D01*
X0198563Y0359761D01*
X0198649Y0359864D01*
X0198738Y0359964D01*
X0198830Y0360062D01*
X0198925Y0360157D01*
X0199023Y0360249D01*
X0199123Y0360338D01*
X0199226Y0360424D01*
X0199331Y0360507D01*
X0199439Y0360587D01*
X0199549Y0360664D01*
X0199662Y0360737D01*
X0199776Y0360807D01*
X0199893Y0360873D01*
X0200011Y0360936D01*
X0200132Y0360996D01*
X0200254Y0361052D01*
X0200377Y0361104D01*
X0200502Y0361153D01*
X0200629Y0361197D01*
X0200757Y0361239D01*
X0200885Y0361276D01*
X0201015Y0361309D01*
X0201146Y0361339D01*
X0201278Y0361365D01*
X0201410Y0361386D01*
X0201543Y0361404D01*
X0201677Y0361418D01*
X0201811Y0361428D01*
X0201945Y0361434D01*
X0202079Y0361436D01*
X0202213Y0361434D01*
X0202347Y0361428D01*
X0202481Y0361418D01*
X0202615Y0361404D01*
X0202748Y0361386D01*
X0202880Y0361365D01*
X0203012Y0361339D01*
X0203143Y0361309D01*
X0203273Y0361276D01*
X0203401Y0361239D01*
X0203529Y0361197D01*
X0203656Y0361153D01*
X0203781Y0361104D01*
X0203904Y0361052D01*
X0204026Y0360996D01*
X0204147Y0360936D01*
X0204265Y0360873D01*
X0204382Y0360807D01*
X0204496Y0360737D01*
X0204609Y0360664D01*
X0204719Y0360587D01*
X0204827Y0360507D01*
X0204932Y0360424D01*
X0205035Y0360338D01*
X0205135Y0360249D01*
X0205233Y0360157D01*
X0205328Y0360062D01*
X0205420Y0359964D01*
X0205509Y0359864D01*
X0205595Y0359761D01*
X0205678Y0359656D01*
X0205758Y0359548D01*
X0205835Y0359438D01*
X0205908Y0359325D01*
X0205978Y0359211D01*
X0206044Y0359094D01*
X0206107Y0358976D01*
X0206167Y0358855D01*
X0206223Y0358733D01*
X0206275Y0358610D01*
X0206324Y0358485D01*
X0206368Y0358358D01*
X0206410Y0358230D01*
X0206447Y0358102D01*
X0206480Y0357972D01*
X0206510Y0357841D01*
X0206536Y0357709D01*
X0206557Y0357577D01*
X0206575Y0357444D01*
X0206589Y0357310D01*
X0206599Y0357176D01*
X0206605Y0357042D01*
X0206607Y0356908D01*
X0206605Y0356774D01*
X0206599Y0356640D01*
X0206589Y0356506D01*
X0206575Y0356372D01*
X0206557Y0356239D01*
X0206536Y0356107D01*
X0206510Y0355975D01*
X0206480Y0355844D01*
X0206447Y0355714D01*
X0206410Y0355586D01*
X0206368Y0355458D01*
X0206324Y0355331D01*
X0206275Y0355206D01*
X0206223Y0355083D01*
X0206167Y0354961D01*
X0206107Y0354840D01*
X0206044Y0354722D01*
X0205978Y0354605D01*
X0205908Y0354491D01*
X0205835Y0354378D01*
X0205758Y0354268D01*
X0205678Y0354160D01*
X0205595Y0354055D01*
X0205509Y0353952D01*
X0205420Y0353852D01*
X0205328Y0353754D01*
X0205233Y0353659D01*
X0205135Y0353567D01*
X0205035Y0353478D01*
X0204932Y0353392D01*
X0204827Y0353309D01*
X0204719Y0353229D01*
X0204609Y0353152D01*
X0204496Y0353079D01*
X0204382Y0353009D01*
X0204265Y0352943D01*
X0204147Y0352880D01*
X0204026Y0352820D01*
X0203904Y0352764D01*
X0203781Y0352712D01*
X0203656Y0352663D01*
X0203529Y0352619D01*
X0203401Y0352577D01*
X0203273Y0352540D01*
X0203143Y0352507D01*
X0203012Y0352477D01*
X0202880Y0352451D01*
X0202748Y0352430D01*
X0202615Y0352412D01*
X0202481Y0352398D01*
X0202347Y0352388D01*
X0202213Y0352382D01*
X0202079Y0352380D01*
X0201945Y0352382D01*
X0201811Y0352388D01*
X0201677Y0352398D01*
X0201543Y0352412D01*
X0201410Y0352430D01*
X0201278Y0352451D01*
X0201146Y0352477D01*
X0201015Y0352507D01*
X0200885Y0352540D01*
X0200757Y0352577D01*
X0200629Y0352619D01*
X0200502Y0352663D01*
X0200377Y0352712D01*
X0200254Y0352764D01*
X0200132Y0352820D01*
X0200011Y0352880D01*
X0199893Y0352943D01*
X0199776Y0353009D01*
X0199662Y0353079D01*
X0199549Y0353152D01*
X0199439Y0353229D01*
X0199331Y0353309D01*
X0199226Y0353392D01*
X0199123Y0353478D01*
X0199023Y0353567D01*
X0198925Y0353659D01*
X0198830Y0353754D01*
X0198738Y0353852D01*
X0198649Y0353952D01*
X0198563Y0354055D01*
X0198480Y0354160D01*
X0198400Y0354268D01*
X0198323Y0354378D01*
X0198250Y0354491D01*
X0198180Y0354605D01*
X0198114Y0354722D01*
X0198051Y0354840D01*
X0197991Y0354961D01*
X0197935Y0355083D01*
X0197883Y0355206D01*
X0197834Y0355331D01*
X0197790Y0355458D01*
X0197748Y0355586D01*
X0197711Y0355714D01*
X0197678Y0355844D01*
X0197648Y0355975D01*
X0197622Y0356107D01*
X0197601Y0356239D01*
X0197583Y0356372D01*
X0197569Y0356506D01*
X0197559Y0356640D01*
X0197553Y0356774D01*
X0197551Y0356908D01*
X0220835Y0313400D02*
X0220837Y0313493D01*
X0220843Y0313585D01*
X0220853Y0313677D01*
X0220867Y0313768D01*
X0220884Y0313859D01*
X0220906Y0313949D01*
X0220931Y0314038D01*
X0220960Y0314126D01*
X0220993Y0314212D01*
X0221030Y0314297D01*
X0221070Y0314381D01*
X0221114Y0314462D01*
X0221161Y0314542D01*
X0221211Y0314620D01*
X0221265Y0314695D01*
X0221322Y0314768D01*
X0221382Y0314838D01*
X0221445Y0314906D01*
X0221511Y0314971D01*
X0221579Y0315033D01*
X0221650Y0315093D01*
X0221724Y0315149D01*
X0221800Y0315202D01*
X0221878Y0315251D01*
X0221958Y0315298D01*
X0222040Y0315340D01*
X0222124Y0315380D01*
X0222209Y0315415D01*
X0222296Y0315447D01*
X0222384Y0315476D01*
X0222473Y0315500D01*
X0222563Y0315521D01*
X0222654Y0315537D01*
X0222746Y0315550D01*
X0222838Y0315559D01*
X0222931Y0315564D01*
X0223023Y0315565D01*
X0223116Y0315562D01*
X0223208Y0315555D01*
X0223300Y0315544D01*
X0223391Y0315529D01*
X0223482Y0315511D01*
X0223572Y0315488D01*
X0223660Y0315462D01*
X0223748Y0315432D01*
X0223834Y0315398D01*
X0223918Y0315361D01*
X0224001Y0315319D01*
X0224082Y0315275D01*
X0224162Y0315227D01*
X0224239Y0315176D01*
X0224313Y0315121D01*
X0224386Y0315063D01*
X0224456Y0315003D01*
X0224523Y0314939D01*
X0224587Y0314873D01*
X0224649Y0314803D01*
X0224707Y0314732D01*
X0224762Y0314658D01*
X0224814Y0314581D01*
X0224863Y0314502D01*
X0224909Y0314422D01*
X0224951Y0314339D01*
X0224989Y0314255D01*
X0225024Y0314169D01*
X0225055Y0314082D01*
X0225082Y0313994D01*
X0225105Y0313904D01*
X0225125Y0313814D01*
X0225141Y0313723D01*
X0225153Y0313631D01*
X0225161Y0313539D01*
X0225165Y0313446D01*
X0225165Y0313354D01*
X0225161Y0313261D01*
X0225153Y0313169D01*
X0225141Y0313077D01*
X0225125Y0312986D01*
X0225105Y0312896D01*
X0225082Y0312806D01*
X0225055Y0312718D01*
X0225024Y0312631D01*
X0224989Y0312545D01*
X0224951Y0312461D01*
X0224909Y0312378D01*
X0224863Y0312298D01*
X0224814Y0312219D01*
X0224762Y0312142D01*
X0224707Y0312068D01*
X0224649Y0311997D01*
X0224587Y0311927D01*
X0224523Y0311861D01*
X0224456Y0311797D01*
X0224386Y0311737D01*
X0224313Y0311679D01*
X0224239Y0311624D01*
X0224162Y0311573D01*
X0224083Y0311525D01*
X0224001Y0311481D01*
X0223918Y0311439D01*
X0223834Y0311402D01*
X0223748Y0311368D01*
X0223660Y0311338D01*
X0223572Y0311312D01*
X0223482Y0311289D01*
X0223391Y0311271D01*
X0223300Y0311256D01*
X0223208Y0311245D01*
X0223116Y0311238D01*
X0223023Y0311235D01*
X0222931Y0311236D01*
X0222838Y0311241D01*
X0222746Y0311250D01*
X0222654Y0311263D01*
X0222563Y0311279D01*
X0222473Y0311300D01*
X0222384Y0311324D01*
X0222296Y0311353D01*
X0222209Y0311385D01*
X0222124Y0311420D01*
X0222040Y0311460D01*
X0221958Y0311502D01*
X0221878Y0311549D01*
X0221800Y0311598D01*
X0221724Y0311651D01*
X0221650Y0311707D01*
X0221579Y0311767D01*
X0221511Y0311829D01*
X0221445Y0311894D01*
X0221382Y0311962D01*
X0221322Y0312032D01*
X0221265Y0312105D01*
X0221211Y0312180D01*
X0221161Y0312258D01*
X0221114Y0312338D01*
X0221070Y0312419D01*
X0221030Y0312503D01*
X0220993Y0312588D01*
X0220960Y0312674D01*
X0220931Y0312762D01*
X0220906Y0312851D01*
X0220884Y0312941D01*
X0220867Y0313032D01*
X0220853Y0313123D01*
X0220843Y0313215D01*
X0220837Y0313307D01*
X0220835Y0313400D01*
X0302850Y0313400D02*
X0302852Y0313512D01*
X0302858Y0313623D01*
X0302868Y0313735D01*
X0302882Y0313846D01*
X0302899Y0313956D01*
X0302921Y0314066D01*
X0302947Y0314175D01*
X0302976Y0314283D01*
X0303009Y0314389D01*
X0303046Y0314495D01*
X0303087Y0314599D01*
X0303132Y0314702D01*
X0303180Y0314803D01*
X0303231Y0314902D01*
X0303286Y0314999D01*
X0303345Y0315094D01*
X0303406Y0315188D01*
X0303471Y0315279D01*
X0303540Y0315367D01*
X0303611Y0315453D01*
X0303685Y0315537D01*
X0303763Y0315617D01*
X0303843Y0315695D01*
X0303926Y0315771D01*
X0304011Y0315843D01*
X0304099Y0315912D01*
X0304189Y0315978D01*
X0304282Y0316040D01*
X0304377Y0316100D01*
X0304474Y0316156D01*
X0304572Y0316208D01*
X0304673Y0316257D01*
X0304775Y0316302D01*
X0304879Y0316344D01*
X0304984Y0316382D01*
X0305091Y0316416D01*
X0305198Y0316446D01*
X0305307Y0316473D01*
X0305416Y0316495D01*
X0305527Y0316514D01*
X0305637Y0316529D01*
X0305749Y0316540D01*
X0305860Y0316547D01*
X0305972Y0316550D01*
X0306084Y0316549D01*
X0306196Y0316544D01*
X0306307Y0316535D01*
X0306418Y0316522D01*
X0306529Y0316505D01*
X0306639Y0316485D01*
X0306748Y0316460D01*
X0306856Y0316432D01*
X0306963Y0316399D01*
X0307069Y0316363D01*
X0307173Y0316323D01*
X0307276Y0316280D01*
X0307378Y0316233D01*
X0307477Y0316182D01*
X0307575Y0316128D01*
X0307671Y0316070D01*
X0307765Y0316009D01*
X0307856Y0315945D01*
X0307945Y0315878D01*
X0308032Y0315807D01*
X0308116Y0315733D01*
X0308198Y0315657D01*
X0308276Y0315577D01*
X0308352Y0315495D01*
X0308425Y0315410D01*
X0308495Y0315323D01*
X0308561Y0315233D01*
X0308625Y0315141D01*
X0308685Y0315047D01*
X0308742Y0314951D01*
X0308795Y0314852D01*
X0308845Y0314752D01*
X0308891Y0314651D01*
X0308934Y0314547D01*
X0308973Y0314442D01*
X0309008Y0314336D01*
X0309039Y0314229D01*
X0309067Y0314120D01*
X0309090Y0314011D01*
X0309110Y0313901D01*
X0309126Y0313790D01*
X0309138Y0313679D01*
X0309146Y0313568D01*
X0309150Y0313456D01*
X0309150Y0313344D01*
X0309146Y0313232D01*
X0309138Y0313121D01*
X0309126Y0313010D01*
X0309110Y0312899D01*
X0309090Y0312789D01*
X0309067Y0312680D01*
X0309039Y0312571D01*
X0309008Y0312464D01*
X0308973Y0312358D01*
X0308934Y0312253D01*
X0308891Y0312149D01*
X0308845Y0312048D01*
X0308795Y0311948D01*
X0308742Y0311849D01*
X0308685Y0311753D01*
X0308625Y0311659D01*
X0308561Y0311567D01*
X0308495Y0311477D01*
X0308425Y0311390D01*
X0308352Y0311305D01*
X0308276Y0311223D01*
X0308198Y0311143D01*
X0308116Y0311067D01*
X0308032Y0310993D01*
X0307945Y0310922D01*
X0307856Y0310855D01*
X0307765Y0310791D01*
X0307671Y0310730D01*
X0307575Y0310672D01*
X0307477Y0310618D01*
X0307378Y0310567D01*
X0307276Y0310520D01*
X0307173Y0310477D01*
X0307069Y0310437D01*
X0306963Y0310401D01*
X0306856Y0310368D01*
X0306748Y0310340D01*
X0306639Y0310315D01*
X0306529Y0310295D01*
X0306418Y0310278D01*
X0306307Y0310265D01*
X0306196Y0310256D01*
X0306084Y0310251D01*
X0305972Y0310250D01*
X0305860Y0310253D01*
X0305749Y0310260D01*
X0305637Y0310271D01*
X0305527Y0310286D01*
X0305416Y0310305D01*
X0305307Y0310327D01*
X0305198Y0310354D01*
X0305091Y0310384D01*
X0304984Y0310418D01*
X0304879Y0310456D01*
X0304775Y0310498D01*
X0304673Y0310543D01*
X0304572Y0310592D01*
X0304474Y0310644D01*
X0304377Y0310700D01*
X0304282Y0310760D01*
X0304189Y0310822D01*
X0304099Y0310888D01*
X0304011Y0310957D01*
X0303926Y0311029D01*
X0303843Y0311105D01*
X0303763Y0311183D01*
X0303685Y0311263D01*
X0303611Y0311347D01*
X0303540Y0311433D01*
X0303471Y0311521D01*
X0303406Y0311612D01*
X0303345Y0311706D01*
X0303286Y0311801D01*
X0303231Y0311898D01*
X0303180Y0311997D01*
X0303132Y0312098D01*
X0303087Y0312201D01*
X0303046Y0312305D01*
X0303009Y0312411D01*
X0302976Y0312517D01*
X0302947Y0312625D01*
X0302921Y0312734D01*
X0302899Y0312844D01*
X0302882Y0312954D01*
X0302868Y0313065D01*
X0302858Y0313177D01*
X0302852Y0313288D01*
X0302850Y0313400D01*
X0378477Y0278522D02*
X0378479Y0278678D01*
X0378485Y0278834D01*
X0378495Y0278989D01*
X0378509Y0279144D01*
X0378527Y0279299D01*
X0378549Y0279453D01*
X0378574Y0279607D01*
X0378604Y0279760D01*
X0378638Y0279912D01*
X0378675Y0280064D01*
X0378716Y0280214D01*
X0378761Y0280363D01*
X0378810Y0280511D01*
X0378863Y0280658D01*
X0378919Y0280803D01*
X0378979Y0280947D01*
X0379043Y0281089D01*
X0379111Y0281230D01*
X0379182Y0281368D01*
X0379256Y0281505D01*
X0379334Y0281640D01*
X0379415Y0281773D01*
X0379500Y0281904D01*
X0379588Y0282033D01*
X0379679Y0282159D01*
X0379774Y0282283D01*
X0379871Y0282404D01*
X0379972Y0282523D01*
X0380076Y0282640D01*
X0380182Y0282753D01*
X0380292Y0282864D01*
X0380404Y0282972D01*
X0380519Y0283077D01*
X0380637Y0283180D01*
X0380757Y0283279D01*
X0380880Y0283375D01*
X0381005Y0283468D01*
X0381132Y0283557D01*
X0381262Y0283644D01*
X0381394Y0283727D01*
X0381528Y0283806D01*
X0381664Y0283883D01*
X0381802Y0283955D01*
X0381941Y0284025D01*
X0382083Y0284090D01*
X0382226Y0284152D01*
X0382370Y0284210D01*
X0382516Y0284265D01*
X0382664Y0284316D01*
X0382812Y0284363D01*
X0382962Y0284406D01*
X0383113Y0284445D01*
X0383265Y0284481D01*
X0383417Y0284512D01*
X0383571Y0284540D01*
X0383725Y0284564D01*
X0383879Y0284584D01*
X0384034Y0284600D01*
X0384190Y0284612D01*
X0384345Y0284620D01*
X0384501Y0284624D01*
X0384657Y0284624D01*
X0384813Y0284620D01*
X0384968Y0284612D01*
X0385124Y0284600D01*
X0385279Y0284584D01*
X0385433Y0284564D01*
X0385587Y0284540D01*
X0385741Y0284512D01*
X0385893Y0284481D01*
X0386045Y0284445D01*
X0386196Y0284406D01*
X0386346Y0284363D01*
X0386494Y0284316D01*
X0386642Y0284265D01*
X0386788Y0284210D01*
X0386932Y0284152D01*
X0387075Y0284090D01*
X0387217Y0284025D01*
X0387356Y0283955D01*
X0387494Y0283883D01*
X0387630Y0283806D01*
X0387764Y0283727D01*
X0387896Y0283644D01*
X0388026Y0283557D01*
X0388153Y0283468D01*
X0388278Y0283375D01*
X0388401Y0283279D01*
X0388521Y0283180D01*
X0388639Y0283077D01*
X0388754Y0282972D01*
X0388866Y0282864D01*
X0388976Y0282753D01*
X0389082Y0282640D01*
X0389186Y0282523D01*
X0389287Y0282404D01*
X0389384Y0282283D01*
X0389479Y0282159D01*
X0389570Y0282033D01*
X0389658Y0281904D01*
X0389743Y0281773D01*
X0389824Y0281640D01*
X0389902Y0281505D01*
X0389976Y0281368D01*
X0390047Y0281230D01*
X0390115Y0281089D01*
X0390179Y0280947D01*
X0390239Y0280803D01*
X0390295Y0280658D01*
X0390348Y0280511D01*
X0390397Y0280363D01*
X0390442Y0280214D01*
X0390483Y0280064D01*
X0390520Y0279912D01*
X0390554Y0279760D01*
X0390584Y0279607D01*
X0390609Y0279453D01*
X0390631Y0279299D01*
X0390649Y0279144D01*
X0390663Y0278989D01*
X0390673Y0278834D01*
X0390679Y0278678D01*
X0390681Y0278522D01*
X0390679Y0278366D01*
X0390673Y0278210D01*
X0390663Y0278055D01*
X0390649Y0277900D01*
X0390631Y0277745D01*
X0390609Y0277591D01*
X0390584Y0277437D01*
X0390554Y0277284D01*
X0390520Y0277132D01*
X0390483Y0276980D01*
X0390442Y0276830D01*
X0390397Y0276681D01*
X0390348Y0276533D01*
X0390295Y0276386D01*
X0390239Y0276241D01*
X0390179Y0276097D01*
X0390115Y0275955D01*
X0390047Y0275814D01*
X0389976Y0275676D01*
X0389902Y0275539D01*
X0389824Y0275404D01*
X0389743Y0275271D01*
X0389658Y0275140D01*
X0389570Y0275011D01*
X0389479Y0274885D01*
X0389384Y0274761D01*
X0389287Y0274640D01*
X0389186Y0274521D01*
X0389082Y0274404D01*
X0388976Y0274291D01*
X0388866Y0274180D01*
X0388754Y0274072D01*
X0388639Y0273967D01*
X0388521Y0273864D01*
X0388401Y0273765D01*
X0388278Y0273669D01*
X0388153Y0273576D01*
X0388026Y0273487D01*
X0387896Y0273400D01*
X0387764Y0273317D01*
X0387630Y0273238D01*
X0387494Y0273161D01*
X0387356Y0273089D01*
X0387217Y0273019D01*
X0387075Y0272954D01*
X0386932Y0272892D01*
X0386788Y0272834D01*
X0386642Y0272779D01*
X0386494Y0272728D01*
X0386346Y0272681D01*
X0386196Y0272638D01*
X0386045Y0272599D01*
X0385893Y0272563D01*
X0385741Y0272532D01*
X0385587Y0272504D01*
X0385433Y0272480D01*
X0385279Y0272460D01*
X0385124Y0272444D01*
X0384968Y0272432D01*
X0384813Y0272424D01*
X0384657Y0272420D01*
X0384501Y0272420D01*
X0384345Y0272424D01*
X0384190Y0272432D01*
X0384034Y0272444D01*
X0383879Y0272460D01*
X0383725Y0272480D01*
X0383571Y0272504D01*
X0383417Y0272532D01*
X0383265Y0272563D01*
X0383113Y0272599D01*
X0382962Y0272638D01*
X0382812Y0272681D01*
X0382664Y0272728D01*
X0382516Y0272779D01*
X0382370Y0272834D01*
X0382226Y0272892D01*
X0382083Y0272954D01*
X0381941Y0273019D01*
X0381802Y0273089D01*
X0381664Y0273161D01*
X0381528Y0273238D01*
X0381394Y0273317D01*
X0381262Y0273400D01*
X0381132Y0273487D01*
X0381005Y0273576D01*
X0380880Y0273669D01*
X0380757Y0273765D01*
X0380637Y0273864D01*
X0380519Y0273967D01*
X0380404Y0274072D01*
X0380292Y0274180D01*
X0380182Y0274291D01*
X0380076Y0274404D01*
X0379972Y0274521D01*
X0379871Y0274640D01*
X0379774Y0274761D01*
X0379679Y0274885D01*
X0379588Y0275011D01*
X0379500Y0275140D01*
X0379415Y0275271D01*
X0379334Y0275404D01*
X0379256Y0275539D01*
X0379182Y0275676D01*
X0379111Y0275814D01*
X0379043Y0275955D01*
X0378979Y0276097D01*
X0378919Y0276241D01*
X0378863Y0276386D01*
X0378810Y0276533D01*
X0378761Y0276681D01*
X0378716Y0276830D01*
X0378675Y0276980D01*
X0378638Y0277132D01*
X0378604Y0277284D01*
X0378574Y0277437D01*
X0378549Y0277591D01*
X0378527Y0277745D01*
X0378509Y0277900D01*
X0378495Y0278055D01*
X0378485Y0278210D01*
X0378479Y0278366D01*
X0378477Y0278522D01*
X0382414Y0624979D02*
X0382416Y0625135D01*
X0382422Y0625291D01*
X0382432Y0625446D01*
X0382446Y0625601D01*
X0382464Y0625756D01*
X0382486Y0625910D01*
X0382511Y0626064D01*
X0382541Y0626217D01*
X0382575Y0626369D01*
X0382612Y0626521D01*
X0382653Y0626671D01*
X0382698Y0626820D01*
X0382747Y0626968D01*
X0382800Y0627115D01*
X0382856Y0627260D01*
X0382916Y0627404D01*
X0382980Y0627546D01*
X0383048Y0627687D01*
X0383119Y0627825D01*
X0383193Y0627962D01*
X0383271Y0628097D01*
X0383352Y0628230D01*
X0383437Y0628361D01*
X0383525Y0628490D01*
X0383616Y0628616D01*
X0383711Y0628740D01*
X0383808Y0628861D01*
X0383909Y0628980D01*
X0384013Y0629097D01*
X0384119Y0629210D01*
X0384229Y0629321D01*
X0384341Y0629429D01*
X0384456Y0629534D01*
X0384574Y0629637D01*
X0384694Y0629736D01*
X0384817Y0629832D01*
X0384942Y0629925D01*
X0385069Y0630014D01*
X0385199Y0630101D01*
X0385331Y0630184D01*
X0385465Y0630263D01*
X0385601Y0630340D01*
X0385739Y0630412D01*
X0385878Y0630482D01*
X0386020Y0630547D01*
X0386163Y0630609D01*
X0386307Y0630667D01*
X0386453Y0630722D01*
X0386601Y0630773D01*
X0386749Y0630820D01*
X0386899Y0630863D01*
X0387050Y0630902D01*
X0387202Y0630938D01*
X0387354Y0630969D01*
X0387508Y0630997D01*
X0387662Y0631021D01*
X0387816Y0631041D01*
X0387971Y0631057D01*
X0388127Y0631069D01*
X0388282Y0631077D01*
X0388438Y0631081D01*
X0388594Y0631081D01*
X0388750Y0631077D01*
X0388905Y0631069D01*
X0389061Y0631057D01*
X0389216Y0631041D01*
X0389370Y0631021D01*
X0389524Y0630997D01*
X0389678Y0630969D01*
X0389830Y0630938D01*
X0389982Y0630902D01*
X0390133Y0630863D01*
X0390283Y0630820D01*
X0390431Y0630773D01*
X0390579Y0630722D01*
X0390725Y0630667D01*
X0390869Y0630609D01*
X0391012Y0630547D01*
X0391154Y0630482D01*
X0391293Y0630412D01*
X0391431Y0630340D01*
X0391567Y0630263D01*
X0391701Y0630184D01*
X0391833Y0630101D01*
X0391963Y0630014D01*
X0392090Y0629925D01*
X0392215Y0629832D01*
X0392338Y0629736D01*
X0392458Y0629637D01*
X0392576Y0629534D01*
X0392691Y0629429D01*
X0392803Y0629321D01*
X0392913Y0629210D01*
X0393019Y0629097D01*
X0393123Y0628980D01*
X0393224Y0628861D01*
X0393321Y0628740D01*
X0393416Y0628616D01*
X0393507Y0628490D01*
X0393595Y0628361D01*
X0393680Y0628230D01*
X0393761Y0628097D01*
X0393839Y0627962D01*
X0393913Y0627825D01*
X0393984Y0627687D01*
X0394052Y0627546D01*
X0394116Y0627404D01*
X0394176Y0627260D01*
X0394232Y0627115D01*
X0394285Y0626968D01*
X0394334Y0626820D01*
X0394379Y0626671D01*
X0394420Y0626521D01*
X0394457Y0626369D01*
X0394491Y0626217D01*
X0394521Y0626064D01*
X0394546Y0625910D01*
X0394568Y0625756D01*
X0394586Y0625601D01*
X0394600Y0625446D01*
X0394610Y0625291D01*
X0394616Y0625135D01*
X0394618Y0624979D01*
X0394616Y0624823D01*
X0394610Y0624667D01*
X0394600Y0624512D01*
X0394586Y0624357D01*
X0394568Y0624202D01*
X0394546Y0624048D01*
X0394521Y0623894D01*
X0394491Y0623741D01*
X0394457Y0623589D01*
X0394420Y0623437D01*
X0394379Y0623287D01*
X0394334Y0623138D01*
X0394285Y0622990D01*
X0394232Y0622843D01*
X0394176Y0622698D01*
X0394116Y0622554D01*
X0394052Y0622412D01*
X0393984Y0622271D01*
X0393913Y0622133D01*
X0393839Y0621996D01*
X0393761Y0621861D01*
X0393680Y0621728D01*
X0393595Y0621597D01*
X0393507Y0621468D01*
X0393416Y0621342D01*
X0393321Y0621218D01*
X0393224Y0621097D01*
X0393123Y0620978D01*
X0393019Y0620861D01*
X0392913Y0620748D01*
X0392803Y0620637D01*
X0392691Y0620529D01*
X0392576Y0620424D01*
X0392458Y0620321D01*
X0392338Y0620222D01*
X0392215Y0620126D01*
X0392090Y0620033D01*
X0391963Y0619944D01*
X0391833Y0619857D01*
X0391701Y0619774D01*
X0391567Y0619695D01*
X0391431Y0619618D01*
X0391293Y0619546D01*
X0391154Y0619476D01*
X0391012Y0619411D01*
X0390869Y0619349D01*
X0390725Y0619291D01*
X0390579Y0619236D01*
X0390431Y0619185D01*
X0390283Y0619138D01*
X0390133Y0619095D01*
X0389982Y0619056D01*
X0389830Y0619020D01*
X0389678Y0618989D01*
X0389524Y0618961D01*
X0389370Y0618937D01*
X0389216Y0618917D01*
X0389061Y0618901D01*
X0388905Y0618889D01*
X0388750Y0618881D01*
X0388594Y0618877D01*
X0388438Y0618877D01*
X0388282Y0618881D01*
X0388127Y0618889D01*
X0387971Y0618901D01*
X0387816Y0618917D01*
X0387662Y0618937D01*
X0387508Y0618961D01*
X0387354Y0618989D01*
X0387202Y0619020D01*
X0387050Y0619056D01*
X0386899Y0619095D01*
X0386749Y0619138D01*
X0386601Y0619185D01*
X0386453Y0619236D01*
X0386307Y0619291D01*
X0386163Y0619349D01*
X0386020Y0619411D01*
X0385878Y0619476D01*
X0385739Y0619546D01*
X0385601Y0619618D01*
X0385465Y0619695D01*
X0385331Y0619774D01*
X0385199Y0619857D01*
X0385069Y0619944D01*
X0384942Y0620033D01*
X0384817Y0620126D01*
X0384694Y0620222D01*
X0384574Y0620321D01*
X0384456Y0620424D01*
X0384341Y0620529D01*
X0384229Y0620637D01*
X0384119Y0620748D01*
X0384013Y0620861D01*
X0383909Y0620978D01*
X0383808Y0621097D01*
X0383711Y0621218D01*
X0383616Y0621342D01*
X0383525Y0621468D01*
X0383437Y0621597D01*
X0383352Y0621728D01*
X0383271Y0621861D01*
X0383193Y0621996D01*
X0383119Y0622133D01*
X0383048Y0622271D01*
X0382980Y0622412D01*
X0382916Y0622554D01*
X0382856Y0622698D01*
X0382800Y0622843D01*
X0382747Y0622990D01*
X0382698Y0623138D01*
X0382653Y0623287D01*
X0382612Y0623437D01*
X0382575Y0623589D01*
X0382541Y0623741D01*
X0382511Y0623894D01*
X0382486Y0624048D01*
X0382464Y0624202D01*
X0382446Y0624357D01*
X0382432Y0624512D01*
X0382422Y0624667D01*
X0382416Y0624823D01*
X0382414Y0624979D01*
X0028083Y0624979D02*
X0028085Y0625135D01*
X0028091Y0625291D01*
X0028101Y0625446D01*
X0028115Y0625601D01*
X0028133Y0625756D01*
X0028155Y0625910D01*
X0028180Y0626064D01*
X0028210Y0626217D01*
X0028244Y0626369D01*
X0028281Y0626521D01*
X0028322Y0626671D01*
X0028367Y0626820D01*
X0028416Y0626968D01*
X0028469Y0627115D01*
X0028525Y0627260D01*
X0028585Y0627404D01*
X0028649Y0627546D01*
X0028717Y0627687D01*
X0028788Y0627825D01*
X0028862Y0627962D01*
X0028940Y0628097D01*
X0029021Y0628230D01*
X0029106Y0628361D01*
X0029194Y0628490D01*
X0029285Y0628616D01*
X0029380Y0628740D01*
X0029477Y0628861D01*
X0029578Y0628980D01*
X0029682Y0629097D01*
X0029788Y0629210D01*
X0029898Y0629321D01*
X0030010Y0629429D01*
X0030125Y0629534D01*
X0030243Y0629637D01*
X0030363Y0629736D01*
X0030486Y0629832D01*
X0030611Y0629925D01*
X0030738Y0630014D01*
X0030868Y0630101D01*
X0031000Y0630184D01*
X0031134Y0630263D01*
X0031270Y0630340D01*
X0031408Y0630412D01*
X0031547Y0630482D01*
X0031689Y0630547D01*
X0031832Y0630609D01*
X0031976Y0630667D01*
X0032122Y0630722D01*
X0032270Y0630773D01*
X0032418Y0630820D01*
X0032568Y0630863D01*
X0032719Y0630902D01*
X0032871Y0630938D01*
X0033023Y0630969D01*
X0033177Y0630997D01*
X0033331Y0631021D01*
X0033485Y0631041D01*
X0033640Y0631057D01*
X0033796Y0631069D01*
X0033951Y0631077D01*
X0034107Y0631081D01*
X0034263Y0631081D01*
X0034419Y0631077D01*
X0034574Y0631069D01*
X0034730Y0631057D01*
X0034885Y0631041D01*
X0035039Y0631021D01*
X0035193Y0630997D01*
X0035347Y0630969D01*
X0035499Y0630938D01*
X0035651Y0630902D01*
X0035802Y0630863D01*
X0035952Y0630820D01*
X0036100Y0630773D01*
X0036248Y0630722D01*
X0036394Y0630667D01*
X0036538Y0630609D01*
X0036681Y0630547D01*
X0036823Y0630482D01*
X0036962Y0630412D01*
X0037100Y0630340D01*
X0037236Y0630263D01*
X0037370Y0630184D01*
X0037502Y0630101D01*
X0037632Y0630014D01*
X0037759Y0629925D01*
X0037884Y0629832D01*
X0038007Y0629736D01*
X0038127Y0629637D01*
X0038245Y0629534D01*
X0038360Y0629429D01*
X0038472Y0629321D01*
X0038582Y0629210D01*
X0038688Y0629097D01*
X0038792Y0628980D01*
X0038893Y0628861D01*
X0038990Y0628740D01*
X0039085Y0628616D01*
X0039176Y0628490D01*
X0039264Y0628361D01*
X0039349Y0628230D01*
X0039430Y0628097D01*
X0039508Y0627962D01*
X0039582Y0627825D01*
X0039653Y0627687D01*
X0039721Y0627546D01*
X0039785Y0627404D01*
X0039845Y0627260D01*
X0039901Y0627115D01*
X0039954Y0626968D01*
X0040003Y0626820D01*
X0040048Y0626671D01*
X0040089Y0626521D01*
X0040126Y0626369D01*
X0040160Y0626217D01*
X0040190Y0626064D01*
X0040215Y0625910D01*
X0040237Y0625756D01*
X0040255Y0625601D01*
X0040269Y0625446D01*
X0040279Y0625291D01*
X0040285Y0625135D01*
X0040287Y0624979D01*
X0040285Y0624823D01*
X0040279Y0624667D01*
X0040269Y0624512D01*
X0040255Y0624357D01*
X0040237Y0624202D01*
X0040215Y0624048D01*
X0040190Y0623894D01*
X0040160Y0623741D01*
X0040126Y0623589D01*
X0040089Y0623437D01*
X0040048Y0623287D01*
X0040003Y0623138D01*
X0039954Y0622990D01*
X0039901Y0622843D01*
X0039845Y0622698D01*
X0039785Y0622554D01*
X0039721Y0622412D01*
X0039653Y0622271D01*
X0039582Y0622133D01*
X0039508Y0621996D01*
X0039430Y0621861D01*
X0039349Y0621728D01*
X0039264Y0621597D01*
X0039176Y0621468D01*
X0039085Y0621342D01*
X0038990Y0621218D01*
X0038893Y0621097D01*
X0038792Y0620978D01*
X0038688Y0620861D01*
X0038582Y0620748D01*
X0038472Y0620637D01*
X0038360Y0620529D01*
X0038245Y0620424D01*
X0038127Y0620321D01*
X0038007Y0620222D01*
X0037884Y0620126D01*
X0037759Y0620033D01*
X0037632Y0619944D01*
X0037502Y0619857D01*
X0037370Y0619774D01*
X0037236Y0619695D01*
X0037100Y0619618D01*
X0036962Y0619546D01*
X0036823Y0619476D01*
X0036681Y0619411D01*
X0036538Y0619349D01*
X0036394Y0619291D01*
X0036248Y0619236D01*
X0036100Y0619185D01*
X0035952Y0619138D01*
X0035802Y0619095D01*
X0035651Y0619056D01*
X0035499Y0619020D01*
X0035347Y0618989D01*
X0035193Y0618961D01*
X0035039Y0618937D01*
X0034885Y0618917D01*
X0034730Y0618901D01*
X0034574Y0618889D01*
X0034419Y0618881D01*
X0034263Y0618877D01*
X0034107Y0618877D01*
X0033951Y0618881D01*
X0033796Y0618889D01*
X0033640Y0618901D01*
X0033485Y0618917D01*
X0033331Y0618937D01*
X0033177Y0618961D01*
X0033023Y0618989D01*
X0032871Y0619020D01*
X0032719Y0619056D01*
X0032568Y0619095D01*
X0032418Y0619138D01*
X0032270Y0619185D01*
X0032122Y0619236D01*
X0031976Y0619291D01*
X0031832Y0619349D01*
X0031689Y0619411D01*
X0031547Y0619476D01*
X0031408Y0619546D01*
X0031270Y0619618D01*
X0031134Y0619695D01*
X0031000Y0619774D01*
X0030868Y0619857D01*
X0030738Y0619944D01*
X0030611Y0620033D01*
X0030486Y0620126D01*
X0030363Y0620222D01*
X0030243Y0620321D01*
X0030125Y0620424D01*
X0030010Y0620529D01*
X0029898Y0620637D01*
X0029788Y0620748D01*
X0029682Y0620861D01*
X0029578Y0620978D01*
X0029477Y0621097D01*
X0029380Y0621218D01*
X0029285Y0621342D01*
X0029194Y0621468D01*
X0029106Y0621597D01*
X0029021Y0621728D01*
X0028940Y0621861D01*
X0028862Y0621996D01*
X0028788Y0622133D01*
X0028717Y0622271D01*
X0028649Y0622412D01*
X0028585Y0622554D01*
X0028525Y0622698D01*
X0028469Y0622843D01*
X0028416Y0622990D01*
X0028367Y0623138D01*
X0028322Y0623287D01*
X0028281Y0623437D01*
X0028244Y0623589D01*
X0028210Y0623741D01*
X0028180Y0623894D01*
X0028155Y0624048D01*
X0028133Y0624202D01*
X0028115Y0624357D01*
X0028101Y0624512D01*
X0028091Y0624667D01*
X0028085Y0624823D01*
X0028083Y0624979D01*
M02*
