M48
;GenerationSoftware,Autodesk,EAGLE,9.6.2*%
;CreationDate,2020-12-04T18:09:35Z*%
FMAT,2
ICI,OFF
METRIC,TZ,000.000
T2C1.000
T1C1.400
%
G90
M71
T1
X13000Y15980
X48000Y50020
X43000Y50020
X38000Y50020
X33000Y50020
X28000Y50020
X23000Y50020
X18000Y50020
X13000Y50020
X8000Y50020
X3000Y50020
X3000Y15980
X8000Y15980
X18000Y15980
X23000Y15980
X28000Y15980
X33000Y15980
X38000Y15980
X43000Y15980
X48000Y15980
T2
X43000Y28270
X43000Y25730
X40460Y28270
X40460Y25730
X10540Y41270
X10540Y38730
X8000Y41270
X8000Y38730
X28040Y25730
X5460Y38730
X10540Y28270
X10540Y25730
X8000Y28270
X8000Y25730
X5460Y28270
X5460Y25730
X28040Y41270
X28040Y38730
X25500Y41270
X25500Y38730
X22960Y41270
X22960Y38730
X28040Y28270
X25500Y28270
X25500Y25730
X22960Y28270
X22960Y25730
X45540Y41270
X5460Y41270
X45540Y38730
X43000Y41270
X43000Y38730
X40460Y41270
X40460Y38730
X45540Y28270
X45540Y25730
M30