G04 EAGLE Gerber RS-274X export*
G75*
%MOMM*%
%FSLAX34Y34*%
%LPD*%
%INSilk BOTTOM*%
%IPPOS*%
%AMOC8*
5,1,8,0,0,1.08239X$1,22.5*%
G01*
%ADD10C,0.000000*%
%ADD11C,0.152400*%
%ADD12C,0.050000*%
%ADD13C,0.100000*%
%ADD14C,0.200000*%
%ADD15C,0.127000*%


D10*
X0Y0D02*
X510000Y0D01*
X510000Y670000D01*
X0Y670000D01*
X0Y0D01*
D11*
X102542Y434804D02*
X102542Y445651D01*
X97118Y451074D01*
X91695Y445651D01*
X91695Y434804D01*
X91695Y442939D02*
X102542Y442939D01*
X86170Y448362D02*
X83458Y451074D01*
X78035Y451074D01*
X75323Y448362D01*
X75323Y445651D01*
X78035Y442939D01*
X80747Y442939D01*
X78035Y442939D02*
X75323Y440227D01*
X75323Y437516D01*
X78035Y434804D01*
X83458Y434804D01*
X86170Y437516D01*
X69798Y437516D02*
X69798Y434804D01*
X69798Y437516D02*
X67087Y437516D01*
X67087Y434804D01*
X69798Y434804D01*
X61613Y445651D02*
X56189Y451074D01*
X56189Y434804D01*
X50766Y434804D02*
X61613Y434804D01*
X103113Y315171D02*
X103113Y304324D01*
X103113Y315171D02*
X97690Y320594D01*
X92266Y315171D01*
X92266Y304324D01*
X92266Y312459D02*
X103113Y312459D01*
X86741Y317882D02*
X84030Y320594D01*
X78607Y320594D01*
X75895Y317882D01*
X75895Y315171D01*
X78607Y312459D01*
X81318Y312459D01*
X78607Y312459D02*
X75895Y309747D01*
X75895Y307036D01*
X78607Y304324D01*
X84030Y304324D01*
X86741Y307036D01*
X70370Y307036D02*
X70370Y304324D01*
X70370Y307036D02*
X67658Y307036D01*
X67658Y304324D01*
X70370Y304324D01*
X62184Y304324D02*
X51338Y304324D01*
X62184Y304324D02*
X51338Y315171D01*
X51338Y317882D01*
X54049Y320594D01*
X59472Y320594D01*
X62184Y317882D01*
X268754Y314804D02*
X268754Y325651D01*
X263331Y331074D01*
X257907Y325651D01*
X257907Y314804D01*
X257907Y322939D02*
X268754Y322939D01*
X252382Y314804D02*
X241536Y314804D01*
X252382Y314804D02*
X241536Y325651D01*
X241536Y328362D01*
X244248Y331074D01*
X249671Y331074D01*
X252382Y328362D01*
X236011Y317516D02*
X236011Y314804D01*
X236011Y317516D02*
X233299Y317516D01*
X233299Y314804D01*
X236011Y314804D01*
X227825Y314804D02*
X216979Y314804D01*
X227825Y314804D02*
X216979Y325651D01*
X216979Y328362D01*
X219690Y331074D01*
X225113Y331074D01*
X227825Y328362D01*
X449897Y436133D02*
X449897Y446979D01*
X444474Y452402D01*
X439050Y446979D01*
X439050Y436133D01*
X439050Y444267D02*
X449897Y444267D01*
X433525Y436133D02*
X422679Y436133D01*
X433525Y436133D02*
X422679Y446979D01*
X422679Y449691D01*
X425391Y452402D01*
X430814Y452402D01*
X433525Y449691D01*
X417154Y438844D02*
X417154Y436133D01*
X417154Y438844D02*
X414442Y438844D01*
X414442Y436133D01*
X417154Y436133D01*
X408968Y449691D02*
X406256Y452402D01*
X400833Y452402D01*
X398122Y449691D01*
X398122Y446979D01*
X400833Y444267D01*
X403545Y444267D01*
X400833Y444267D02*
X398122Y441556D01*
X398122Y438844D01*
X400833Y436133D01*
X406256Y436133D01*
X408968Y438844D01*
X275538Y435376D02*
X275538Y446222D01*
X270115Y451645D01*
X264691Y446222D01*
X264691Y435376D01*
X264691Y443510D02*
X275538Y443510D01*
X259166Y435376D02*
X248320Y435376D01*
X259166Y435376D02*
X248320Y446222D01*
X248320Y448934D01*
X251032Y451645D01*
X256455Y451645D01*
X259166Y448934D01*
X242795Y438087D02*
X242795Y435376D01*
X242795Y438087D02*
X240083Y438087D01*
X240083Y435376D01*
X242795Y435376D01*
X234609Y446222D02*
X229186Y451645D01*
X229186Y435376D01*
X234609Y435376D02*
X223763Y435376D01*
X322676Y287165D02*
X321263Y285751D01*
X322676Y287165D02*
X325504Y287165D01*
X326918Y285751D01*
X326918Y280096D01*
X325504Y278682D01*
X322676Y278682D01*
X321263Y280096D01*
X321263Y282924D01*
X324090Y282924D01*
X317710Y287165D02*
X317710Y278682D01*
X312055Y278682D02*
X317710Y287165D01*
X312055Y287165D02*
X312055Y278682D01*
X308502Y278682D02*
X308502Y287165D01*
X308502Y278682D02*
X304261Y278682D01*
X302847Y280096D01*
X302847Y285751D01*
X304261Y287165D01*
X308502Y287165D01*
X366598Y258418D02*
X366598Y252762D01*
X366598Y258418D02*
X363770Y261245D01*
X360943Y258418D01*
X360943Y252762D01*
X360943Y257004D02*
X366598Y257004D01*
X357390Y258418D02*
X357390Y252762D01*
X357390Y258418D02*
X353149Y258418D01*
X351735Y257004D01*
X351735Y252762D01*
X346768Y258418D02*
X343941Y258418D01*
X342527Y257004D01*
X342527Y252762D01*
X346768Y252762D01*
X348182Y254176D01*
X346768Y255590D01*
X342527Y255590D01*
X338974Y261245D02*
X337561Y261245D01*
X337561Y252762D01*
X338974Y252762D02*
X336147Y252762D01*
X331422Y252762D02*
X328594Y252762D01*
X327180Y254176D01*
X327180Y257004D01*
X328594Y258418D01*
X331422Y258418D01*
X332836Y257004D01*
X332836Y254176D01*
X331422Y252762D01*
X320800Y249934D02*
X319386Y249934D01*
X317973Y251348D01*
X317973Y258418D01*
X322214Y258418D01*
X323628Y257004D01*
X323628Y254176D01*
X322214Y252762D01*
X317973Y252762D01*
X314420Y252762D02*
X311592Y252762D01*
X313006Y252762D02*
X313006Y261245D01*
X314420Y261245D02*
X311592Y261245D01*
X308282Y261245D02*
X308282Y252762D01*
X302626Y252762D02*
X308282Y261245D01*
X302626Y261245D02*
X302626Y252762D01*
X204836Y288445D02*
X203423Y287031D01*
X204836Y288445D02*
X207664Y288445D01*
X209078Y287031D01*
X209078Y285618D01*
X207664Y284204D01*
X204836Y284204D01*
X203423Y282790D01*
X203423Y281376D01*
X204836Y279962D01*
X207664Y279962D01*
X209078Y281376D01*
X199870Y279962D02*
X199870Y288445D01*
X199870Y279962D02*
X195629Y279962D01*
X194215Y281376D01*
X194215Y287031D01*
X195629Y288445D01*
X199870Y288445D01*
X190662Y285618D02*
X190662Y279962D01*
X190662Y285618D02*
X187835Y288445D01*
X185007Y285618D01*
X185007Y279962D01*
X185007Y284204D02*
X190662Y284204D01*
X181454Y278548D02*
X175799Y278548D01*
X172247Y288445D02*
X166591Y288445D01*
X172247Y288445D02*
X172247Y284204D01*
X169419Y285618D01*
X168005Y285618D01*
X166591Y284204D01*
X166591Y281376D01*
X168005Y279962D01*
X170833Y279962D01*
X172247Y281376D01*
X163039Y282790D02*
X163039Y288445D01*
X163039Y282790D02*
X160211Y279962D01*
X157383Y282790D01*
X157383Y288445D01*
X204063Y259511D02*
X205476Y260925D01*
X208304Y260925D01*
X209718Y259511D01*
X209718Y258098D01*
X208304Y256684D01*
X205476Y256684D01*
X204063Y255270D01*
X204063Y253856D01*
X205476Y252442D01*
X208304Y252442D01*
X209718Y253856D01*
X196269Y260925D02*
X194855Y259511D01*
X196269Y260925D02*
X199096Y260925D01*
X200510Y259511D01*
X200510Y253856D01*
X199096Y252442D01*
X196269Y252442D01*
X194855Y253856D01*
X191302Y252442D02*
X191302Y260925D01*
X191302Y252442D02*
X185647Y252442D01*
X182094Y251028D02*
X176439Y251028D01*
X172887Y260925D02*
X167231Y260925D01*
X172887Y260925D02*
X172887Y256684D01*
X170059Y258098D01*
X168645Y258098D01*
X167231Y256684D01*
X167231Y253856D01*
X168645Y252442D01*
X171473Y252442D01*
X172887Y253856D01*
X163679Y255270D02*
X163679Y260925D01*
X163679Y255270D02*
X160851Y252442D01*
X158023Y255270D01*
X158023Y260925D01*
X250783Y308925D02*
X256438Y308925D01*
X256438Y304684D01*
X253610Y306098D01*
X252196Y306098D01*
X250783Y304684D01*
X250783Y301856D01*
X252196Y300442D01*
X255024Y300442D01*
X256438Y301856D01*
X247230Y303270D02*
X247230Y308925D01*
X247230Y303270D02*
X244402Y300442D01*
X241575Y303270D01*
X241575Y308925D01*
X267743Y240125D02*
X273398Y240125D01*
X273398Y235884D01*
X270570Y237298D01*
X269156Y237298D01*
X267743Y235884D01*
X267743Y233056D01*
X269156Y231642D01*
X271984Y231642D01*
X273398Y233056D01*
X264190Y234470D02*
X264190Y240125D01*
X264190Y234470D02*
X261362Y231642D01*
X258535Y234470D01*
X258535Y240125D01*
X254982Y231642D02*
X249327Y240125D01*
X245774Y240125D02*
X245774Y231642D01*
X245774Y235884D02*
X240119Y235884D01*
X240119Y240125D02*
X240119Y231642D01*
X236567Y237298D02*
X235153Y237298D01*
X235153Y231642D01*
X236567Y231642D02*
X233739Y231642D01*
X235153Y240125D02*
X235153Y241539D01*
X230428Y240125D02*
X224773Y240125D01*
X224773Y238711D01*
X230428Y233056D01*
X230428Y231642D01*
X224773Y231642D01*
X448754Y304804D02*
X448754Y315651D01*
X443331Y321074D01*
X437907Y315651D01*
X437907Y304804D01*
X437907Y312939D02*
X448754Y312939D01*
X432382Y304804D02*
X421536Y304804D01*
X432382Y304804D02*
X421536Y315651D01*
X421536Y318362D01*
X424248Y321074D01*
X429671Y321074D01*
X432382Y318362D01*
X416011Y307516D02*
X416011Y304804D01*
X416011Y307516D02*
X413299Y307516D01*
X413299Y304804D01*
X416011Y304804D01*
X399690Y304804D02*
X399690Y321074D01*
X407825Y312939D01*
X396979Y312939D01*
D12*
X298150Y427250D02*
X211850Y427250D01*
X211850Y370350D01*
X298150Y370350D01*
X298150Y427250D01*
D13*
X295650Y424750D02*
X214350Y424750D01*
X214350Y375250D01*
X295650Y375250D01*
X295650Y424750D01*
D14*
X280400Y425950D02*
X214350Y425950D01*
X214350Y372850D01*
X295650Y372850D01*
X295650Y412700D01*
D15*
X207379Y397029D02*
X203354Y397029D01*
X202549Y397834D01*
X202549Y399444D01*
X203354Y400249D01*
X207379Y400249D01*
X207379Y402642D02*
X207379Y405862D01*
X207379Y402642D02*
X204964Y402642D01*
X205769Y404252D01*
X205769Y405057D01*
X204964Y405862D01*
X203354Y405862D01*
X202549Y405057D01*
X202549Y403447D01*
X203354Y402642D01*
D12*
X211850Y297250D02*
X298150Y297250D01*
X211850Y297250D02*
X211850Y240350D01*
X298150Y240350D01*
X298150Y297250D01*
D13*
X295650Y294750D02*
X214350Y294750D01*
X214350Y245250D01*
X295650Y245250D01*
X295650Y294750D01*
D14*
X280400Y295950D02*
X214350Y295950D01*
X214350Y242850D01*
X295650Y242850D01*
X295650Y282700D01*
D15*
X207379Y264489D02*
X203354Y264489D01*
X202549Y265294D01*
X202549Y266904D01*
X203354Y267709D01*
X207379Y267709D01*
X206574Y271712D02*
X207379Y273322D01*
X206574Y271712D02*
X204964Y270102D01*
X203354Y270102D01*
X202549Y270907D01*
X202549Y272517D01*
X203354Y273322D01*
X204159Y273322D01*
X204964Y272517D01*
X204964Y270102D01*
D12*
X386850Y427250D02*
X473150Y427250D01*
X386850Y427250D02*
X386850Y370350D01*
X473150Y370350D01*
X473150Y427250D01*
D13*
X470650Y424750D02*
X389350Y424750D01*
X389350Y375250D01*
X470650Y375250D01*
X470650Y424750D01*
D14*
X455400Y425950D02*
X389350Y425950D01*
X389350Y372850D01*
X470650Y372850D01*
X470650Y412700D01*
D15*
X382379Y397029D02*
X378354Y397029D01*
X377549Y397834D01*
X377549Y399444D01*
X378354Y400249D01*
X382379Y400249D01*
X382379Y402642D02*
X382379Y405862D01*
X381574Y405862D01*
X378354Y402642D01*
X377549Y402642D01*
D12*
X386850Y297250D02*
X473150Y297250D01*
X386850Y297250D02*
X386850Y240350D01*
X473150Y240350D01*
X473150Y297250D01*
D13*
X470650Y294750D02*
X389350Y294750D01*
X389350Y245250D01*
X470650Y245250D01*
X470650Y294750D01*
D14*
X455400Y295950D02*
X389350Y295950D01*
X389350Y242850D01*
X470650Y242850D01*
X470650Y282700D01*
D15*
X382379Y264489D02*
X378354Y264489D01*
X377549Y265294D01*
X377549Y266904D01*
X378354Y267709D01*
X382379Y267709D01*
X381574Y270102D02*
X382379Y270907D01*
X382379Y272517D01*
X381574Y273322D01*
X380769Y273322D01*
X379964Y272517D01*
X379159Y273322D01*
X378354Y273322D01*
X377549Y272517D01*
X377549Y270907D01*
X378354Y270102D01*
X379159Y270102D01*
X379964Y270907D01*
X380769Y270102D01*
X381574Y270102D01*
X379964Y270907D02*
X379964Y272517D01*
D12*
X123150Y427250D02*
X36850Y427250D01*
X36850Y370350D01*
X123150Y370350D01*
X123150Y427250D01*
D13*
X120650Y424750D02*
X39350Y424750D01*
X39350Y375250D01*
X120650Y375250D01*
X120650Y424750D01*
D14*
X105400Y425950D02*
X39350Y425950D01*
X39350Y372850D01*
X120650Y372850D01*
X120650Y412700D01*
D15*
X32379Y397029D02*
X28354Y397029D01*
X27549Y397834D01*
X27549Y399444D01*
X28354Y400249D01*
X32379Y400249D01*
X28354Y402642D02*
X27549Y403447D01*
X27549Y405057D01*
X28354Y405862D01*
X31574Y405862D01*
X32379Y405057D01*
X32379Y403447D01*
X31574Y402642D01*
X30769Y402642D01*
X29964Y403447D01*
X29964Y405862D01*
D12*
X36850Y297250D02*
X123150Y297250D01*
X36850Y297250D02*
X36850Y240350D01*
X123150Y240350D01*
X123150Y297250D01*
D13*
X120650Y294750D02*
X39350Y294750D01*
X39350Y245250D01*
X120650Y245250D01*
X120650Y294750D01*
D14*
X105400Y295950D02*
X39350Y295950D01*
X39350Y242850D01*
X120650Y242850D01*
X120650Y282700D01*
D15*
X32379Y296976D02*
X28354Y296976D01*
X27549Y297781D01*
X27549Y299391D01*
X28354Y300196D01*
X32379Y300196D01*
X30769Y302589D02*
X32379Y304199D01*
X27549Y304199D01*
X27549Y302589D02*
X27549Y305809D01*
X28354Y308202D02*
X31574Y308202D01*
X32379Y309007D01*
X32379Y310617D01*
X31574Y311422D01*
X28354Y311422D01*
X27549Y310617D01*
X27549Y309007D01*
X28354Y308202D01*
X31574Y311422D01*
M02*
