G04 EAGLE Gerber RS-274X export*
G75*
%MOMM*%
%FSLAX34Y34*%
%LPD*%
%INTOP*%
%IPPOS*%
%AMOC8*
5,1,8,0,0,1.08239X$1,22.5*%
G01*
%ADD10R,1.750000X1.750000*%
%ADD11C,1.750000*%
%ADD12C,2.100000*%
%ADD13R,1.270000X0.635000*%
%ADD14C,0.609600*%
%ADD15C,0.406400*%

G36*
X502964Y4071D02*
X502964Y4071D01*
X503040Y4069D01*
X503209Y4091D01*
X503380Y4105D01*
X503454Y4123D01*
X503529Y4133D01*
X503693Y4182D01*
X503859Y4223D01*
X503928Y4253D01*
X504002Y4275D01*
X504155Y4351D01*
X504312Y4418D01*
X504376Y4459D01*
X504445Y4492D01*
X504584Y4591D01*
X504728Y4683D01*
X504785Y4734D01*
X504847Y4778D01*
X504968Y4898D01*
X505096Y5012D01*
X505144Y5071D01*
X505198Y5125D01*
X505299Y5263D01*
X505406Y5396D01*
X505443Y5462D01*
X505488Y5523D01*
X505565Y5676D01*
X505650Y5824D01*
X505676Y5896D01*
X505711Y5964D01*
X505762Y6127D01*
X505821Y6287D01*
X505836Y6362D01*
X505859Y6434D01*
X505871Y6539D01*
X505916Y6771D01*
X505923Y7007D01*
X505935Y7112D01*
X505935Y662888D01*
X505929Y662964D01*
X505931Y663040D01*
X505909Y663209D01*
X505895Y663380D01*
X505877Y663454D01*
X505867Y663529D01*
X505818Y663693D01*
X505777Y663859D01*
X505747Y663928D01*
X505725Y664002D01*
X505649Y664155D01*
X505582Y664312D01*
X505541Y664376D01*
X505508Y664445D01*
X505409Y664584D01*
X505317Y664728D01*
X505266Y664785D01*
X505222Y664847D01*
X505102Y664968D01*
X504988Y665096D01*
X504929Y665144D01*
X504875Y665198D01*
X504737Y665299D01*
X504604Y665406D01*
X504538Y665443D01*
X504477Y665488D01*
X504324Y665565D01*
X504176Y665650D01*
X504104Y665676D01*
X504036Y665711D01*
X503873Y665762D01*
X503713Y665821D01*
X503638Y665836D01*
X503566Y665859D01*
X503461Y665871D01*
X503229Y665916D01*
X502993Y665923D01*
X502888Y665935D01*
X7112Y665935D01*
X7036Y665929D01*
X6960Y665931D01*
X6791Y665909D01*
X6620Y665895D01*
X6546Y665877D01*
X6471Y665867D01*
X6307Y665818D01*
X6141Y665777D01*
X6072Y665747D01*
X5998Y665725D01*
X5845Y665649D01*
X5688Y665582D01*
X5624Y665541D01*
X5555Y665508D01*
X5416Y665409D01*
X5272Y665317D01*
X5215Y665266D01*
X5153Y665222D01*
X5032Y665102D01*
X4904Y664988D01*
X4856Y664929D01*
X4802Y664875D01*
X4701Y664737D01*
X4594Y664604D01*
X4557Y664538D01*
X4512Y664477D01*
X4435Y664324D01*
X4350Y664176D01*
X4324Y664104D01*
X4289Y664036D01*
X4238Y663873D01*
X4179Y663713D01*
X4164Y663638D01*
X4141Y663566D01*
X4129Y663461D01*
X4084Y663229D01*
X4077Y662993D01*
X4065Y662888D01*
X4065Y438300D01*
X4068Y438262D01*
X4066Y438224D01*
X4088Y438017D01*
X4105Y437809D01*
X4114Y437772D01*
X4118Y437734D01*
X4173Y437533D01*
X4223Y437330D01*
X4238Y437295D01*
X4249Y437258D01*
X4336Y437068D01*
X4418Y436876D01*
X4438Y436844D01*
X4454Y436810D01*
X4571Y436636D01*
X4683Y436460D01*
X4708Y436432D01*
X4730Y436400D01*
X4873Y436248D01*
X5012Y436093D01*
X5041Y436069D01*
X5067Y436041D01*
X5233Y435914D01*
X5396Y435783D01*
X5429Y435764D01*
X5459Y435740D01*
X5643Y435642D01*
X5824Y435539D01*
X5860Y435525D01*
X5894Y435507D01*
X6091Y435440D01*
X6287Y435367D01*
X6324Y435360D01*
X6360Y435347D01*
X6567Y435312D01*
X6771Y435272D01*
X6809Y435271D01*
X6847Y435265D01*
X7056Y435263D01*
X7264Y435257D01*
X7302Y435262D01*
X7340Y435262D01*
X7547Y435294D01*
X7753Y435321D01*
X7790Y435332D01*
X7827Y435338D01*
X8026Y435404D01*
X8225Y435464D01*
X8260Y435481D01*
X8296Y435493D01*
X8481Y435589D01*
X8669Y435681D01*
X8700Y435703D01*
X8734Y435720D01*
X8806Y435778D01*
X9071Y435966D01*
X9193Y436087D01*
X9267Y436146D01*
X64543Y491422D01*
X64617Y491509D01*
X64698Y491589D01*
X64776Y491696D01*
X64862Y491798D01*
X64921Y491895D01*
X64988Y491988D01*
X65048Y492106D01*
X65117Y492220D01*
X65159Y492326D01*
X65211Y492428D01*
X65251Y492555D01*
X65300Y492678D01*
X65325Y492790D01*
X65359Y492899D01*
X65369Y492992D01*
X65407Y493160D01*
X65425Y493484D01*
X65435Y493576D01*
X65435Y513597D01*
X67653Y518950D01*
X71750Y523047D01*
X77103Y525265D01*
X82897Y525265D01*
X88250Y523047D01*
X92347Y518950D01*
X94565Y513597D01*
X94565Y486803D01*
X92347Y481450D01*
X88250Y477353D01*
X82897Y475135D01*
X77103Y475135D01*
X72812Y476913D01*
X72605Y476979D01*
X72397Y477050D01*
X72369Y477055D01*
X72342Y477064D01*
X72127Y477096D01*
X71911Y477133D01*
X71883Y477133D01*
X71855Y477137D01*
X71637Y477135D01*
X71418Y477136D01*
X71390Y477132D01*
X71361Y477131D01*
X71146Y477093D01*
X70930Y477059D01*
X70903Y477051D01*
X70875Y477046D01*
X70670Y476974D01*
X70462Y476905D01*
X70437Y476892D01*
X70410Y476883D01*
X70218Y476778D01*
X70024Y476677D01*
X70006Y476663D01*
X69976Y476647D01*
X69587Y476344D01*
X69532Y476285D01*
X69491Y476252D01*
X35205Y441966D01*
X35184Y441942D01*
X35162Y441922D01*
X35097Y441842D01*
X35013Y441756D01*
X34954Y441670D01*
X34886Y441591D01*
X34861Y441549D01*
X34852Y441538D01*
X34815Y441473D01*
X34812Y441468D01*
X34730Y441351D01*
X34685Y441258D01*
X34631Y441168D01*
X34578Y441035D01*
X34516Y440907D01*
X34487Y440807D01*
X34448Y440710D01*
X34417Y440571D01*
X34377Y440434D01*
X34364Y440330D01*
X34341Y440228D01*
X34333Y440086D01*
X34316Y439944D01*
X34320Y439840D01*
X34314Y439736D01*
X34329Y439594D01*
X34334Y439451D01*
X34355Y439349D01*
X34366Y439245D01*
X34404Y439108D01*
X34432Y438968D01*
X34469Y438870D01*
X34497Y438769D01*
X34556Y438640D01*
X34607Y438506D01*
X34659Y438416D01*
X34702Y438321D01*
X34782Y438203D01*
X34853Y438079D01*
X34920Y437998D01*
X34978Y437912D01*
X35075Y437808D01*
X35166Y437697D01*
X35244Y437628D01*
X35316Y437552D01*
X35429Y437465D01*
X35536Y437371D01*
X35624Y437315D01*
X35707Y437252D01*
X35833Y437184D01*
X35954Y437109D01*
X36050Y437068D01*
X36142Y437019D01*
X36277Y436972D01*
X36408Y436917D01*
X36510Y436892D01*
X36608Y436859D01*
X36749Y436835D01*
X36888Y436801D01*
X36992Y436794D01*
X37095Y436776D01*
X37238Y436775D01*
X37380Y436765D01*
X37484Y436774D01*
X37588Y436773D01*
X37729Y436795D01*
X37871Y436808D01*
X37947Y436829D01*
X38032Y436843D01*
X65285Y436843D01*
X67899Y435760D01*
X77252Y426407D01*
X77339Y426333D01*
X77419Y426252D01*
X77526Y426174D01*
X77628Y426088D01*
X77726Y426029D01*
X77818Y425962D01*
X77936Y425902D01*
X78050Y425833D01*
X78156Y425791D01*
X78258Y425739D01*
X78385Y425699D01*
X78508Y425650D01*
X78620Y425625D01*
X78729Y425591D01*
X78822Y425581D01*
X78990Y425543D01*
X79314Y425525D01*
X79406Y425515D01*
X82549Y425515D01*
X87259Y423564D01*
X89318Y421504D01*
X89492Y421357D01*
X89664Y421207D01*
X89680Y421197D01*
X89694Y421185D01*
X89889Y421067D01*
X90083Y420947D01*
X90101Y420940D01*
X90117Y420930D01*
X90328Y420846D01*
X90539Y420759D01*
X90557Y420754D01*
X90575Y420747D01*
X90798Y420698D01*
X91019Y420646D01*
X91038Y420645D01*
X91057Y420641D01*
X91286Y420628D01*
X91511Y420612D01*
X91530Y420614D01*
X91549Y420613D01*
X91775Y420637D01*
X92003Y420658D01*
X92021Y420663D01*
X92040Y420665D01*
X92258Y420725D01*
X92480Y420783D01*
X92497Y420791D01*
X92515Y420796D01*
X92722Y420891D01*
X92931Y420983D01*
X92947Y420994D01*
X92964Y421001D01*
X93153Y421129D01*
X93343Y421253D01*
X93357Y421266D01*
X93373Y421277D01*
X93539Y421433D01*
X93707Y421587D01*
X93716Y421599D01*
X93733Y421615D01*
X94033Y422006D01*
X94077Y422088D01*
X94112Y422136D01*
X94617Y423010D01*
X95090Y423483D01*
X95669Y423818D01*
X96315Y423991D01*
X102353Y423991D01*
X102353Y412700D01*
X102359Y412624D01*
X102356Y412548D01*
X102379Y412379D01*
X102393Y412209D01*
X102411Y412135D01*
X102421Y412059D01*
X102470Y411895D01*
X102511Y411730D01*
X102541Y411660D01*
X102563Y411587D01*
X102638Y411433D01*
X102706Y411276D01*
X102747Y411212D01*
X102780Y411144D01*
X102879Y411004D01*
X102971Y410860D01*
X103022Y410804D01*
X103066Y410741D01*
X103186Y410620D01*
X103300Y410492D01*
X103359Y410445D01*
X103412Y410390D01*
X103551Y410290D01*
X103683Y410183D01*
X103750Y410145D01*
X103811Y410100D01*
X103964Y410023D01*
X104112Y409939D01*
X104184Y409912D01*
X104252Y409878D01*
X104414Y409826D01*
X104575Y409767D01*
X104649Y409752D01*
X104722Y409729D01*
X104827Y409718D01*
X105059Y409672D01*
X105295Y409665D01*
X105400Y409653D01*
X105476Y409659D01*
X105552Y409657D01*
X105721Y409679D01*
X105892Y409693D01*
X105966Y409711D01*
X106041Y409721D01*
X106205Y409771D01*
X106371Y409812D01*
X106441Y409842D01*
X106514Y409864D01*
X106667Y409939D01*
X106824Y410006D01*
X106888Y410047D01*
X106957Y410081D01*
X107096Y410180D01*
X107240Y410271D01*
X107297Y410322D01*
X107359Y410366D01*
X107481Y410486D01*
X107608Y410600D01*
X107656Y410659D01*
X107710Y410713D01*
X107811Y410851D01*
X107918Y410984D01*
X107956Y411050D01*
X108000Y411112D01*
X108077Y411264D01*
X108162Y411413D01*
X108188Y411484D01*
X108223Y411552D01*
X108274Y411715D01*
X108334Y411875D01*
X108348Y411950D01*
X108371Y412023D01*
X108383Y412127D01*
X108428Y412359D01*
X108436Y412595D01*
X108447Y412700D01*
X108447Y423991D01*
X114670Y423991D01*
X114746Y423997D01*
X114822Y423995D01*
X114991Y424017D01*
X115162Y424031D01*
X115236Y424049D01*
X115311Y424059D01*
X115475Y424108D01*
X115641Y424149D01*
X115710Y424179D01*
X115784Y424201D01*
X115937Y424277D01*
X116094Y424344D01*
X116158Y424385D01*
X116227Y424418D01*
X116366Y424517D01*
X116510Y424609D01*
X116567Y424660D01*
X116629Y424704D01*
X116750Y424824D01*
X116878Y424938D01*
X116926Y424997D01*
X116980Y425051D01*
X117081Y425189D01*
X117188Y425322D01*
X117225Y425388D01*
X117270Y425449D01*
X117347Y425602D01*
X117432Y425750D01*
X117458Y425822D01*
X117493Y425890D01*
X117544Y426053D01*
X117603Y426213D01*
X117618Y426288D01*
X117641Y426360D01*
X117653Y426465D01*
X117698Y426697D01*
X117705Y426933D01*
X117717Y427038D01*
X117717Y480688D01*
X117716Y480697D01*
X117717Y480707D01*
X117697Y480942D01*
X117677Y481179D01*
X117675Y481189D01*
X117674Y481198D01*
X117663Y481237D01*
X117559Y481658D01*
X117507Y481778D01*
X117485Y481854D01*
X115435Y486803D01*
X115435Y513597D01*
X117653Y518950D01*
X121750Y523047D01*
X127103Y525265D01*
X132897Y525265D01*
X138250Y523047D01*
X142347Y518950D01*
X144565Y513597D01*
X144565Y486803D01*
X142347Y481450D01*
X138250Y477353D01*
X133824Y475519D01*
X133629Y475419D01*
X133433Y475324D01*
X133410Y475307D01*
X133385Y475294D01*
X133209Y475164D01*
X133031Y475038D01*
X133011Y475018D01*
X132988Y475001D01*
X132835Y474844D01*
X132680Y474691D01*
X132663Y474668D01*
X132643Y474648D01*
X132518Y474469D01*
X132390Y474293D01*
X132377Y474267D01*
X132361Y474244D01*
X132266Y474047D01*
X132167Y473852D01*
X132159Y473825D01*
X132146Y473799D01*
X132085Y473590D01*
X132019Y473382D01*
X132016Y473358D01*
X132007Y473326D01*
X131946Y472837D01*
X131949Y472756D01*
X131943Y472704D01*
X131943Y388945D01*
X130860Y386331D01*
X125799Y381270D01*
X123185Y380187D01*
X117672Y380187D01*
X117559Y380178D01*
X117444Y380179D01*
X117313Y380158D01*
X117181Y380147D01*
X117070Y380120D01*
X116957Y380102D01*
X116831Y380061D01*
X116702Y380029D01*
X116597Y379984D01*
X116488Y379948D01*
X116370Y379886D01*
X116248Y379834D01*
X116152Y379773D01*
X116051Y379720D01*
X115977Y379661D01*
X115832Y379569D01*
X115590Y379353D01*
X115517Y379295D01*
X112659Y376436D01*
X107949Y374485D01*
X102851Y374485D01*
X98141Y376436D01*
X94855Y379722D01*
X94797Y379772D01*
X94745Y379827D01*
X94609Y379931D01*
X94479Y380042D01*
X94413Y380081D01*
X94353Y380128D01*
X94203Y380208D01*
X94056Y380297D01*
X93986Y380325D01*
X93918Y380361D01*
X93757Y380416D01*
X93598Y380480D01*
X93524Y380496D01*
X93452Y380521D01*
X93283Y380549D01*
X93117Y380586D01*
X93040Y380591D01*
X92965Y380603D01*
X92794Y380605D01*
X92624Y380614D01*
X92548Y380606D01*
X92472Y380606D01*
X92303Y380580D01*
X92133Y380562D01*
X92060Y380542D01*
X91985Y380530D01*
X91822Y380476D01*
X91658Y380431D01*
X91588Y380399D01*
X91516Y380376D01*
X91364Y380297D01*
X91209Y380225D01*
X91146Y380183D01*
X91078Y380148D01*
X90996Y380082D01*
X90800Y379950D01*
X90627Y379788D01*
X90545Y379722D01*
X87259Y376436D01*
X82549Y374485D01*
X78506Y374485D01*
X78393Y374476D01*
X78278Y374477D01*
X78147Y374456D01*
X78015Y374445D01*
X77904Y374418D01*
X77791Y374400D01*
X77665Y374359D01*
X77536Y374327D01*
X77431Y374282D01*
X77322Y374246D01*
X77205Y374184D01*
X77082Y374132D01*
X76986Y374071D01*
X76885Y374018D01*
X76811Y373959D01*
X76666Y373867D01*
X76424Y373651D01*
X76352Y373593D01*
X65499Y362740D01*
X62885Y361657D01*
X26895Y361657D01*
X24281Y362740D01*
X13970Y373051D01*
X12887Y375665D01*
X12887Y380545D01*
X12870Y380763D01*
X12856Y380981D01*
X12850Y381009D01*
X12847Y381037D01*
X12795Y381249D01*
X12746Y381462D01*
X12735Y381488D01*
X12729Y381516D01*
X12642Y381717D01*
X12560Y381919D01*
X12545Y381943D01*
X12534Y381969D01*
X12417Y382153D01*
X12303Y382340D01*
X12284Y382362D01*
X12269Y382385D01*
X12124Y382548D01*
X11981Y382714D01*
X11959Y382732D01*
X11940Y382753D01*
X11770Y382890D01*
X11603Y383031D01*
X11582Y383042D01*
X11556Y383063D01*
X11434Y383133D01*
X10204Y384362D01*
X9927Y385031D01*
X9862Y385157D01*
X9806Y385289D01*
X9750Y385377D01*
X9702Y385470D01*
X9618Y385584D01*
X9541Y385705D01*
X9471Y385783D01*
X9409Y385867D01*
X9307Y385966D01*
X9212Y386073D01*
X9131Y386138D01*
X9056Y386211D01*
X8939Y386293D01*
X8828Y386383D01*
X8738Y386434D01*
X8652Y386494D01*
X8524Y386556D01*
X8400Y386627D01*
X8302Y386663D01*
X8208Y386708D01*
X8071Y386749D01*
X7937Y386798D01*
X7835Y386818D01*
X7734Y386848D01*
X7593Y386865D01*
X7453Y386893D01*
X7349Y386896D01*
X7245Y386909D01*
X7102Y386904D01*
X6960Y386908D01*
X6856Y386895D01*
X6752Y386891D01*
X6612Y386862D01*
X6471Y386844D01*
X6371Y386814D01*
X6268Y386793D01*
X6135Y386742D01*
X5998Y386701D01*
X5905Y386655D01*
X5807Y386618D01*
X5683Y386547D01*
X5555Y386484D01*
X5470Y386424D01*
X5380Y386372D01*
X5269Y386281D01*
X5153Y386199D01*
X5079Y386125D01*
X4998Y386059D01*
X4903Y385952D01*
X4802Y385852D01*
X4741Y385768D01*
X4671Y385689D01*
X4596Y385569D01*
X4512Y385453D01*
X4465Y385360D01*
X4409Y385272D01*
X4354Y385140D01*
X4289Y385013D01*
X4258Y384913D01*
X4217Y384817D01*
X4184Y384679D01*
X4141Y384542D01*
X4132Y384464D01*
X4102Y384337D01*
X4069Y383904D01*
X4065Y383865D01*
X4065Y286135D01*
X4076Y285993D01*
X4078Y285851D01*
X4096Y285748D01*
X4105Y285644D01*
X4139Y285505D01*
X4164Y285365D01*
X4198Y285266D01*
X4223Y285165D01*
X4280Y285034D01*
X4327Y284899D01*
X4377Y284807D01*
X4418Y284711D01*
X4494Y284591D01*
X4563Y284466D01*
X4627Y284383D01*
X4683Y284295D01*
X4778Y284189D01*
X4865Y284076D01*
X4942Y284005D01*
X5012Y283927D01*
X5123Y283838D01*
X5227Y283741D01*
X5314Y283683D01*
X5396Y283617D01*
X5519Y283547D01*
X5638Y283468D01*
X5733Y283425D01*
X5824Y283373D01*
X5958Y283324D01*
X6088Y283265D01*
X6189Y283238D01*
X6287Y283202D01*
X6427Y283175D01*
X6564Y283138D01*
X6669Y283127D01*
X6771Y283107D01*
X6913Y283103D01*
X7055Y283089D01*
X7160Y283095D01*
X7264Y283092D01*
X7405Y283110D01*
X7548Y283119D01*
X7650Y283143D01*
X7753Y283156D01*
X7890Y283197D01*
X8029Y283229D01*
X8126Y283269D01*
X8225Y283299D01*
X8353Y283361D01*
X8486Y283415D01*
X8575Y283470D01*
X8669Y283516D01*
X8785Y283598D01*
X8906Y283672D01*
X8986Y283741D01*
X9071Y283801D01*
X9172Y283901D01*
X9280Y283994D01*
X9348Y284074D01*
X9422Y284148D01*
X9506Y284263D01*
X9597Y284372D01*
X9635Y284441D01*
X9712Y284547D01*
X9908Y284934D01*
X9927Y284969D01*
X10204Y285638D01*
X11414Y286848D01*
X11420Y286852D01*
X11445Y286864D01*
X11621Y286994D01*
X11799Y287121D01*
X11819Y287141D01*
X11842Y287157D01*
X11995Y287314D01*
X12150Y287467D01*
X12167Y287490D01*
X12186Y287510D01*
X12312Y287690D01*
X12440Y287866D01*
X12453Y287891D01*
X12469Y287915D01*
X12564Y288112D01*
X12663Y288307D01*
X12671Y288334D01*
X12683Y288359D01*
X12745Y288568D01*
X12811Y288777D01*
X12814Y288800D01*
X12823Y288832D01*
X12884Y289322D01*
X12881Y289402D01*
X12887Y289455D01*
X12887Y292025D01*
X13970Y294639D01*
X29361Y310030D01*
X31975Y311113D01*
X60115Y311113D01*
X62729Y310030D01*
X76352Y296407D01*
X76439Y296333D01*
X76519Y296252D01*
X76626Y296174D01*
X76728Y296088D01*
X76826Y296029D01*
X76918Y295962D01*
X77036Y295902D01*
X77150Y295833D01*
X77256Y295791D01*
X77358Y295739D01*
X77485Y295699D01*
X77608Y295650D01*
X77720Y295625D01*
X77829Y295591D01*
X77922Y295581D01*
X78090Y295543D01*
X78414Y295525D01*
X78506Y295515D01*
X82549Y295515D01*
X87259Y293564D01*
X89318Y291504D01*
X89492Y291357D01*
X89664Y291207D01*
X89680Y291197D01*
X89694Y291185D01*
X89890Y291067D01*
X90083Y290947D01*
X90101Y290940D01*
X90117Y290930D01*
X90328Y290846D01*
X90539Y290759D01*
X90557Y290754D01*
X90575Y290747D01*
X90797Y290698D01*
X91019Y290646D01*
X91038Y290645D01*
X91057Y290641D01*
X91285Y290628D01*
X91511Y290612D01*
X91530Y290614D01*
X91549Y290613D01*
X91776Y290637D01*
X92003Y290658D01*
X92021Y290663D01*
X92040Y290665D01*
X92259Y290725D01*
X92480Y290783D01*
X92497Y290791D01*
X92515Y290796D01*
X92723Y290891D01*
X92931Y290983D01*
X92947Y290994D01*
X92964Y291001D01*
X93153Y291129D01*
X93343Y291254D01*
X93357Y291266D01*
X93373Y291277D01*
X93540Y291433D01*
X93707Y291587D01*
X93716Y291599D01*
X93733Y291615D01*
X94033Y292006D01*
X94077Y292088D01*
X94112Y292136D01*
X94617Y293010D01*
X95090Y293483D01*
X95669Y293818D01*
X96315Y293991D01*
X102353Y293991D01*
X102353Y282700D01*
X102359Y282624D01*
X102356Y282548D01*
X102379Y282379D01*
X102393Y282209D01*
X102411Y282135D01*
X102421Y282059D01*
X102470Y281895D01*
X102511Y281730D01*
X102541Y281660D01*
X102563Y281587D01*
X102638Y281433D01*
X102706Y281276D01*
X102747Y281212D01*
X102780Y281144D01*
X102879Y281004D01*
X102971Y280860D01*
X103022Y280804D01*
X103066Y280741D01*
X103186Y280620D01*
X103300Y280492D01*
X103359Y280444D01*
X103412Y280390D01*
X103413Y280390D01*
X103551Y280289D01*
X103684Y280182D01*
X103750Y280144D01*
X103812Y280099D01*
X103964Y280023D01*
X104113Y279938D01*
X104184Y279911D01*
X104252Y279877D01*
X104415Y279826D01*
X104575Y279766D01*
X104650Y279752D01*
X104723Y279729D01*
X104827Y279717D01*
X105059Y279672D01*
X105295Y279664D01*
X105400Y279653D01*
X116691Y279653D01*
X116691Y273615D01*
X116518Y272969D01*
X116183Y272390D01*
X115710Y271917D01*
X114836Y271412D01*
X114648Y271283D01*
X114459Y271155D01*
X114445Y271142D01*
X114430Y271132D01*
X114266Y270974D01*
X114100Y270818D01*
X114088Y270803D01*
X114074Y270789D01*
X113938Y270607D01*
X113799Y270426D01*
X113790Y270409D01*
X113779Y270394D01*
X113674Y270192D01*
X113566Y269991D01*
X113560Y269973D01*
X113551Y269957D01*
X113480Y269741D01*
X113406Y269525D01*
X113403Y269506D01*
X113397Y269488D01*
X113362Y269264D01*
X113324Y269038D01*
X113323Y269019D01*
X113320Y269001D01*
X113322Y268774D01*
X113320Y268545D01*
X113323Y268526D01*
X113324Y268507D01*
X113362Y268283D01*
X113397Y268058D01*
X113403Y268040D01*
X113406Y268021D01*
X113480Y267806D01*
X113551Y267589D01*
X113560Y267572D01*
X113566Y267554D01*
X113673Y267355D01*
X113779Y267152D01*
X113789Y267139D01*
X113800Y267120D01*
X114100Y266728D01*
X114167Y266665D01*
X114204Y266618D01*
X116264Y264559D01*
X118215Y259849D01*
X118215Y254751D01*
X116264Y250041D01*
X115055Y248833D01*
X114981Y248745D01*
X114900Y248665D01*
X114822Y248558D01*
X114736Y248457D01*
X114677Y248359D01*
X114610Y248266D01*
X114550Y248148D01*
X114481Y248034D01*
X114439Y247928D01*
X114387Y247826D01*
X114347Y247699D01*
X114298Y247576D01*
X114273Y247465D01*
X114239Y247356D01*
X114229Y247262D01*
X114191Y247094D01*
X114173Y246770D01*
X114163Y246678D01*
X114163Y236958D01*
X114172Y236845D01*
X114171Y236730D01*
X114192Y236599D01*
X114203Y236467D01*
X114230Y236356D01*
X114248Y236243D01*
X114289Y236117D01*
X114321Y235988D01*
X114366Y235883D01*
X114402Y235774D01*
X114464Y235656D01*
X114516Y235534D01*
X114577Y235438D01*
X114630Y235337D01*
X114689Y235263D01*
X114781Y235118D01*
X114997Y234876D01*
X115055Y234804D01*
X133600Y216259D01*
X133601Y216258D01*
X136030Y213829D01*
X137113Y211215D01*
X137113Y185047D01*
X137122Y184933D01*
X137121Y184819D01*
X137142Y184688D01*
X137153Y184555D01*
X137180Y184445D01*
X137198Y184332D01*
X137239Y184205D01*
X137271Y184077D01*
X137316Y183972D01*
X137352Y183863D01*
X137414Y183745D01*
X137466Y183623D01*
X137527Y183527D01*
X137580Y183426D01*
X137639Y183352D01*
X137731Y183207D01*
X137947Y182965D01*
X138005Y182892D01*
X142347Y178550D01*
X144565Y173197D01*
X144565Y146403D01*
X142347Y141050D01*
X138250Y136953D01*
X132897Y134735D01*
X127103Y134735D01*
X121750Y136953D01*
X117653Y141050D01*
X115435Y146403D01*
X115435Y173197D01*
X117653Y178550D01*
X121995Y182892D01*
X122069Y182979D01*
X122150Y183060D01*
X122228Y183167D01*
X122314Y183268D01*
X122373Y183366D01*
X122440Y183458D01*
X122500Y183577D01*
X122569Y183691D01*
X122611Y183797D01*
X122663Y183899D01*
X122703Y184026D01*
X122752Y184149D01*
X122777Y184260D01*
X122811Y184369D01*
X122821Y184463D01*
X122859Y184631D01*
X122877Y184955D01*
X122887Y185047D01*
X122887Y205592D01*
X122878Y205705D01*
X122879Y205820D01*
X122858Y205951D01*
X122847Y206083D01*
X122820Y206194D01*
X122802Y206307D01*
X122761Y206433D01*
X122729Y206562D01*
X122684Y206667D01*
X122648Y206776D01*
X122586Y206894D01*
X122534Y207016D01*
X122473Y207112D01*
X122420Y207213D01*
X122361Y207287D01*
X122269Y207432D01*
X122053Y207674D01*
X121995Y207746D01*
X103450Y226291D01*
X103449Y226292D01*
X101020Y228721D01*
X99937Y231335D01*
X99937Y243656D01*
X99920Y243874D01*
X99906Y244092D01*
X99900Y244120D01*
X99897Y244148D01*
X99845Y244360D01*
X99796Y244573D01*
X99785Y244599D01*
X99779Y244627D01*
X99692Y244827D01*
X99610Y245030D01*
X99595Y245054D01*
X99584Y245080D01*
X99467Y245264D01*
X99353Y245451D01*
X99334Y245472D01*
X99319Y245496D01*
X99174Y245659D01*
X99031Y245825D01*
X99009Y245843D01*
X98990Y245864D01*
X98821Y246001D01*
X98653Y246142D01*
X98632Y246153D01*
X98606Y246174D01*
X98178Y246418D01*
X98148Y246429D01*
X94855Y249722D01*
X94797Y249772D01*
X94745Y249827D01*
X94609Y249931D01*
X94479Y250042D01*
X94413Y250081D01*
X94353Y250128D01*
X94203Y250208D01*
X94056Y250297D01*
X93986Y250325D01*
X93918Y250361D01*
X93757Y250416D01*
X93598Y250480D01*
X93524Y250496D01*
X93452Y250521D01*
X93283Y250549D01*
X93117Y250586D01*
X93040Y250591D01*
X92965Y250603D01*
X92794Y250605D01*
X92624Y250614D01*
X92548Y250606D01*
X92472Y250606D01*
X92303Y250580D01*
X92133Y250562D01*
X92060Y250542D01*
X91985Y250530D01*
X91822Y250476D01*
X91658Y250431D01*
X91588Y250399D01*
X91516Y250376D01*
X91364Y250297D01*
X91209Y250225D01*
X91146Y250183D01*
X91078Y250148D01*
X90996Y250082D01*
X90800Y249950D01*
X90627Y249788D01*
X90545Y249722D01*
X87259Y246436D01*
X82390Y244419D01*
X82384Y244418D01*
X82271Y244400D01*
X82145Y244359D01*
X82016Y244327D01*
X81911Y244282D01*
X81802Y244246D01*
X81684Y244184D01*
X81562Y244132D01*
X81466Y244071D01*
X81365Y244018D01*
X81291Y243959D01*
X81146Y243867D01*
X80904Y243651D01*
X80832Y243593D01*
X67899Y230660D01*
X65285Y229577D01*
X41735Y229577D01*
X39121Y230660D01*
X36691Y233090D01*
X18073Y251708D01*
X17986Y251782D01*
X17906Y251863D01*
X17799Y251941D01*
X17697Y252027D01*
X17599Y252086D01*
X17507Y252153D01*
X17389Y252213D01*
X17275Y252282D01*
X17169Y252324D01*
X17067Y252376D01*
X16940Y252416D01*
X16817Y252465D01*
X16705Y252490D01*
X16596Y252524D01*
X16503Y252534D01*
X16335Y252572D01*
X16011Y252590D01*
X15919Y252600D01*
X15494Y252600D01*
X15418Y252594D01*
X15342Y252596D01*
X15173Y252574D01*
X15002Y252560D01*
X14928Y252542D01*
X14853Y252532D01*
X14689Y252483D01*
X14523Y252442D01*
X14454Y252412D01*
X14380Y252390D01*
X14227Y252314D01*
X14070Y252247D01*
X14006Y252206D01*
X13937Y252173D01*
X13798Y252074D01*
X13654Y251982D01*
X13597Y251931D01*
X13535Y251887D01*
X13414Y251767D01*
X13286Y251653D01*
X13238Y251594D01*
X13184Y251540D01*
X13083Y251402D01*
X12976Y251269D01*
X12939Y251203D01*
X12894Y251142D01*
X12817Y250989D01*
X12732Y250841D01*
X12706Y250769D01*
X12671Y250701D01*
X12620Y250538D01*
X12561Y250378D01*
X12546Y250303D01*
X12523Y250231D01*
X12511Y250126D01*
X12466Y249894D01*
X12459Y249658D01*
X12447Y249553D01*
X12447Y228721D01*
X12464Y228503D01*
X12478Y228286D01*
X12484Y228258D01*
X12487Y228230D01*
X12539Y228017D01*
X12588Y227805D01*
X12599Y227779D01*
X12605Y227751D01*
X12691Y227551D01*
X12774Y227348D01*
X12789Y227324D01*
X12800Y227297D01*
X12917Y227114D01*
X13031Y226927D01*
X13050Y226905D01*
X13065Y226881D01*
X13210Y226719D01*
X13353Y226553D01*
X13375Y226535D01*
X13394Y226514D01*
X13564Y226376D01*
X13731Y226236D01*
X13751Y226225D01*
X13778Y226204D01*
X13958Y226101D01*
X32054Y208005D01*
X32141Y207931D01*
X32221Y207850D01*
X32328Y207772D01*
X32430Y207686D01*
X32528Y207627D01*
X32620Y207560D01*
X32738Y207500D01*
X32852Y207431D01*
X32958Y207389D01*
X33060Y207337D01*
X33187Y207297D01*
X33310Y207248D01*
X33422Y207223D01*
X33531Y207189D01*
X33624Y207179D01*
X33792Y207141D01*
X34116Y207123D01*
X34208Y207113D01*
X61415Y207113D01*
X64029Y206030D01*
X86390Y183669D01*
X86397Y183663D01*
X86404Y183655D01*
X86585Y183504D01*
X86766Y183350D01*
X86774Y183345D01*
X86782Y183338D01*
X86816Y183319D01*
X87188Y183095D01*
X87310Y183046D01*
X87378Y183009D01*
X88250Y182647D01*
X92347Y178550D01*
X94565Y173197D01*
X94565Y146403D01*
X92347Y141050D01*
X88250Y136953D01*
X82897Y134735D01*
X77103Y134735D01*
X71750Y136953D01*
X67653Y141050D01*
X65435Y146403D01*
X65435Y173197D01*
X67698Y178659D01*
X67726Y178706D01*
X67772Y178766D01*
X67853Y178917D01*
X67941Y179063D01*
X67969Y179134D01*
X68005Y179201D01*
X68061Y179363D01*
X68124Y179521D01*
X68141Y179595D01*
X68165Y179668D01*
X68194Y179836D01*
X68231Y180003D01*
X68235Y180079D01*
X68248Y180154D01*
X68249Y180325D01*
X68259Y180495D01*
X68251Y180571D01*
X68251Y180647D01*
X68224Y180816D01*
X68206Y180986D01*
X68186Y181059D01*
X68174Y181135D01*
X68121Y181297D01*
X68076Y181461D01*
X68044Y181531D01*
X68020Y181603D01*
X67941Y181755D01*
X67870Y181910D01*
X67828Y181973D01*
X67792Y182041D01*
X67727Y182123D01*
X67595Y182319D01*
X67433Y182492D01*
X67367Y182574D01*
X57946Y191995D01*
X57859Y192069D01*
X57779Y192150D01*
X57672Y192228D01*
X57570Y192314D01*
X57473Y192373D01*
X57380Y192440D01*
X57262Y192500D01*
X57148Y192569D01*
X57042Y192611D01*
X56940Y192663D01*
X56813Y192703D01*
X56690Y192752D01*
X56578Y192777D01*
X56469Y192811D01*
X56376Y192821D01*
X56208Y192859D01*
X55884Y192877D01*
X55792Y192887D01*
X28585Y192887D01*
X25971Y193970D01*
X23541Y196400D01*
X9267Y210674D01*
X9238Y210699D01*
X9212Y210727D01*
X9050Y210859D01*
X8891Y210994D01*
X8858Y211014D01*
X8828Y211037D01*
X8648Y211140D01*
X8468Y211248D01*
X8433Y211263D01*
X8400Y211281D01*
X8204Y211354D01*
X8010Y211432D01*
X7973Y211440D01*
X7937Y211453D01*
X7732Y211493D01*
X7528Y211538D01*
X7490Y211540D01*
X7453Y211548D01*
X7245Y211554D01*
X7036Y211566D01*
X6998Y211562D01*
X6960Y211563D01*
X6753Y211536D01*
X6545Y211514D01*
X6509Y211504D01*
X6471Y211499D01*
X6271Y211438D01*
X6070Y211383D01*
X6035Y211367D01*
X5998Y211356D01*
X5811Y211265D01*
X5621Y211177D01*
X5589Y211156D01*
X5555Y211139D01*
X5386Y211019D01*
X5212Y210902D01*
X5184Y210876D01*
X5153Y210854D01*
X5005Y210707D01*
X4852Y210564D01*
X4829Y210534D01*
X4802Y210507D01*
X4679Y210338D01*
X4552Y210173D01*
X4534Y210139D01*
X4512Y210108D01*
X4418Y209922D01*
X4319Y209738D01*
X4306Y209702D01*
X4289Y209668D01*
X4227Y209469D01*
X4159Y209271D01*
X4153Y209234D01*
X4141Y209197D01*
X4131Y209105D01*
X4076Y208785D01*
X4075Y208613D01*
X4065Y208520D01*
X4065Y7112D01*
X4071Y7036D01*
X4069Y6960D01*
X4091Y6791D01*
X4105Y6620D01*
X4123Y6546D01*
X4133Y6471D01*
X4182Y6307D01*
X4223Y6141D01*
X4253Y6072D01*
X4275Y5998D01*
X4351Y5845D01*
X4418Y5688D01*
X4459Y5624D01*
X4492Y5555D01*
X4591Y5416D01*
X4683Y5272D01*
X4734Y5215D01*
X4778Y5153D01*
X4898Y5032D01*
X5012Y4904D01*
X5071Y4856D01*
X5125Y4802D01*
X5263Y4701D01*
X5396Y4594D01*
X5462Y4557D01*
X5523Y4512D01*
X5676Y4435D01*
X5824Y4350D01*
X5896Y4324D01*
X5964Y4289D01*
X6127Y4238D01*
X6287Y4179D01*
X6362Y4164D01*
X6434Y4141D01*
X6539Y4129D01*
X6771Y4084D01*
X7007Y4077D01*
X7112Y4065D01*
X502888Y4065D01*
X502964Y4071D01*
G37*
%LPC*%
G36*
X381225Y355307D02*
X381225Y355307D01*
X378611Y356390D01*
X363910Y371091D01*
X362827Y373705D01*
X362827Y376726D01*
X362880Y377077D01*
X362878Y377208D01*
X362887Y377286D01*
X362887Y380545D01*
X362870Y380763D01*
X362856Y380981D01*
X362850Y381009D01*
X362847Y381037D01*
X362795Y381249D01*
X362746Y381462D01*
X362735Y381488D01*
X362729Y381516D01*
X362642Y381717D01*
X362560Y381919D01*
X362545Y381943D01*
X362534Y381969D01*
X362417Y382153D01*
X362303Y382340D01*
X362284Y382362D01*
X362269Y382385D01*
X362124Y382548D01*
X361981Y382714D01*
X361959Y382732D01*
X361940Y382753D01*
X361770Y382890D01*
X361603Y383031D01*
X361582Y383042D01*
X361556Y383063D01*
X361434Y383133D01*
X360204Y384362D01*
X359585Y385856D01*
X359585Y389840D01*
X359579Y389916D01*
X359581Y389992D01*
X359559Y390161D01*
X359545Y390332D01*
X359527Y390406D01*
X359517Y390481D01*
X359468Y390645D01*
X359427Y390811D01*
X359397Y390880D01*
X359375Y390954D01*
X359299Y391107D01*
X359232Y391264D01*
X359191Y391328D01*
X359158Y391397D01*
X359059Y391536D01*
X358967Y391680D01*
X358916Y391737D01*
X358872Y391799D01*
X358752Y391920D01*
X358638Y392048D01*
X358579Y392096D01*
X358525Y392150D01*
X358387Y392251D01*
X358254Y392358D01*
X358188Y392395D01*
X358127Y392440D01*
X357974Y392517D01*
X357826Y392602D01*
X357754Y392628D01*
X357686Y392663D01*
X357523Y392714D01*
X357363Y392773D01*
X357288Y392788D01*
X357216Y392811D01*
X357111Y392823D01*
X356879Y392868D01*
X356643Y392875D01*
X356538Y392887D01*
X349995Y392887D01*
X347381Y393970D01*
X343270Y398081D01*
X342187Y400695D01*
X342187Y470915D01*
X343270Y473529D01*
X364543Y494802D01*
X364617Y494889D01*
X364698Y494969D01*
X364776Y495076D01*
X364862Y495178D01*
X364921Y495276D01*
X364988Y495368D01*
X365048Y495486D01*
X365117Y495600D01*
X365159Y495706D01*
X365211Y495808D01*
X365251Y495935D01*
X365300Y496058D01*
X365325Y496170D01*
X365359Y496279D01*
X365369Y496372D01*
X365407Y496540D01*
X365425Y496864D01*
X365435Y496956D01*
X365435Y513597D01*
X367653Y518950D01*
X371750Y523047D01*
X377103Y525265D01*
X382897Y525265D01*
X388250Y523047D01*
X392347Y518950D01*
X394565Y513597D01*
X394565Y486803D01*
X392347Y481450D01*
X388250Y477353D01*
X382897Y475135D01*
X377103Y475135D01*
X371750Y477353D01*
X371635Y477467D01*
X371577Y477516D01*
X371525Y477572D01*
X371390Y477676D01*
X371260Y477786D01*
X371194Y477826D01*
X371134Y477872D01*
X370983Y477953D01*
X370837Y478041D01*
X370766Y478069D01*
X370699Y478105D01*
X370537Y478161D01*
X370379Y478224D01*
X370304Y478241D01*
X370232Y478265D01*
X370064Y478294D01*
X369897Y478331D01*
X369821Y478335D01*
X369746Y478348D01*
X369575Y478349D01*
X369405Y478359D01*
X369329Y478351D01*
X369253Y478351D01*
X369084Y478324D01*
X368914Y478306D01*
X368841Y478286D01*
X368765Y478274D01*
X368603Y478221D01*
X368438Y478176D01*
X368369Y478144D01*
X368297Y478120D01*
X368145Y478041D01*
X367990Y477970D01*
X367927Y477928D01*
X367859Y477892D01*
X367777Y477827D01*
X367581Y477695D01*
X367408Y477533D01*
X367326Y477467D01*
X357305Y467446D01*
X357231Y467359D01*
X357150Y467279D01*
X357072Y467172D01*
X356986Y467070D01*
X356927Y466973D01*
X356860Y466880D01*
X356800Y466762D01*
X356731Y466648D01*
X356689Y466542D01*
X356637Y466440D01*
X356597Y466313D01*
X356548Y466190D01*
X356523Y466078D01*
X356489Y465969D01*
X356479Y465876D01*
X356441Y465708D01*
X356423Y465384D01*
X356413Y465292D01*
X356413Y419203D01*
X356416Y419165D01*
X356414Y419126D01*
X356436Y418919D01*
X356453Y418711D01*
X356462Y418674D01*
X356466Y418636D01*
X356521Y418434D01*
X356571Y418232D01*
X356586Y418197D01*
X356597Y418160D01*
X356684Y417970D01*
X356766Y417779D01*
X356786Y417747D01*
X356802Y417712D01*
X356919Y417538D01*
X357031Y417363D01*
X357056Y417334D01*
X357078Y417303D01*
X357221Y417151D01*
X357360Y416995D01*
X357390Y416971D01*
X357416Y416943D01*
X357581Y416816D01*
X357744Y416685D01*
X357777Y416666D01*
X357807Y416643D01*
X357991Y416544D01*
X358172Y416441D01*
X358208Y416428D01*
X358242Y416410D01*
X358439Y416342D01*
X358635Y416269D01*
X358672Y416262D01*
X358709Y416250D01*
X358915Y416215D01*
X359119Y416175D01*
X359157Y416174D01*
X359195Y416167D01*
X359405Y416166D01*
X359612Y416159D01*
X359650Y416164D01*
X359688Y416164D01*
X359895Y416197D01*
X360101Y416224D01*
X360138Y416235D01*
X360176Y416241D01*
X360374Y416306D01*
X360573Y416366D01*
X360608Y416383D01*
X360644Y416395D01*
X360829Y416492D01*
X361017Y416583D01*
X361048Y416605D01*
X361082Y416623D01*
X361155Y416681D01*
X361222Y416729D01*
X362841Y417400D01*
X365919Y417400D01*
X366032Y417409D01*
X366147Y417408D01*
X366278Y417429D01*
X366410Y417440D01*
X366521Y417467D01*
X366634Y417485D01*
X366760Y417526D01*
X366889Y417558D01*
X366994Y417603D01*
X367103Y417639D01*
X367220Y417701D01*
X367343Y417753D01*
X367439Y417814D01*
X367540Y417867D01*
X367614Y417926D01*
X367759Y418018D01*
X368001Y418234D01*
X368073Y418292D01*
X384271Y434490D01*
X386885Y435573D01*
X415655Y435573D01*
X418269Y434490D01*
X426352Y426407D01*
X426439Y426333D01*
X426519Y426252D01*
X426626Y426174D01*
X426728Y426088D01*
X426826Y426029D01*
X426918Y425962D01*
X427036Y425902D01*
X427150Y425833D01*
X427256Y425791D01*
X427358Y425739D01*
X427485Y425699D01*
X427608Y425650D01*
X427720Y425625D01*
X427829Y425591D01*
X427922Y425581D01*
X428090Y425543D01*
X428414Y425525D01*
X428506Y425515D01*
X432549Y425515D01*
X437259Y423564D01*
X439318Y421504D01*
X439492Y421357D01*
X439664Y421207D01*
X439680Y421197D01*
X439694Y421185D01*
X439890Y421067D01*
X440083Y420947D01*
X440101Y420940D01*
X440117Y420930D01*
X440328Y420846D01*
X440539Y420759D01*
X440557Y420754D01*
X440575Y420747D01*
X440797Y420698D01*
X441019Y420646D01*
X441038Y420645D01*
X441057Y420641D01*
X441285Y420628D01*
X441511Y420612D01*
X441530Y420614D01*
X441549Y420613D01*
X441776Y420637D01*
X442003Y420658D01*
X442021Y420663D01*
X442040Y420665D01*
X442259Y420725D01*
X442480Y420783D01*
X442497Y420791D01*
X442515Y420796D01*
X442723Y420891D01*
X442931Y420983D01*
X442947Y420994D01*
X442964Y421001D01*
X443153Y421129D01*
X443343Y421254D01*
X443357Y421266D01*
X443373Y421277D01*
X443540Y421433D01*
X443707Y421587D01*
X443716Y421599D01*
X443733Y421615D01*
X444033Y422006D01*
X444077Y422088D01*
X444112Y422136D01*
X444617Y423010D01*
X445090Y423483D01*
X445669Y423818D01*
X446315Y423991D01*
X452353Y423991D01*
X452353Y412700D01*
X452359Y412624D01*
X452356Y412548D01*
X452379Y412379D01*
X452393Y412209D01*
X452411Y412135D01*
X452421Y412059D01*
X452470Y411895D01*
X452511Y411730D01*
X452541Y411660D01*
X452563Y411587D01*
X452638Y411433D01*
X452706Y411276D01*
X452747Y411212D01*
X452780Y411144D01*
X452879Y411004D01*
X452971Y410860D01*
X453022Y410804D01*
X453066Y410741D01*
X453186Y410620D01*
X453300Y410492D01*
X453359Y410444D01*
X453412Y410390D01*
X453413Y410390D01*
X453551Y410289D01*
X453684Y410182D01*
X453750Y410144D01*
X453812Y410099D01*
X453964Y410023D01*
X454113Y409938D01*
X454184Y409911D01*
X454252Y409877D01*
X454415Y409826D01*
X454575Y409766D01*
X454650Y409752D01*
X454723Y409729D01*
X454827Y409717D01*
X455059Y409672D01*
X455295Y409664D01*
X455400Y409653D01*
X466691Y409653D01*
X466691Y403615D01*
X466518Y402969D01*
X466011Y402092D01*
X465971Y402006D01*
X465921Y401925D01*
X465865Y401783D01*
X465800Y401646D01*
X465774Y401555D01*
X465738Y401467D01*
X465705Y401319D01*
X465663Y401172D01*
X465652Y401078D01*
X465632Y400985D01*
X465623Y400833D01*
X465605Y400682D01*
X465609Y400588D01*
X465604Y400493D01*
X465620Y400341D01*
X465627Y400190D01*
X465646Y400097D01*
X465656Y400002D01*
X465696Y399855D01*
X465727Y399707D01*
X465762Y399618D01*
X465787Y399526D01*
X465850Y399388D01*
X465905Y399246D01*
X465953Y399164D01*
X465992Y399078D01*
X466077Y398952D01*
X466154Y398821D01*
X466215Y398747D01*
X466268Y398669D01*
X466372Y398558D01*
X466469Y398441D01*
X466541Y398378D01*
X466606Y398309D01*
X466726Y398217D01*
X466841Y398117D01*
X466922Y398066D01*
X466997Y398009D01*
X467131Y397937D01*
X467260Y397857D01*
X467348Y397820D01*
X467432Y397775D01*
X467576Y397726D01*
X467716Y397668D01*
X467808Y397646D01*
X467898Y397615D01*
X468048Y397590D01*
X468196Y397555D01*
X468291Y397549D01*
X468385Y397533D01*
X468537Y397532D01*
X468688Y397522D01*
X468783Y397530D01*
X468878Y397530D01*
X469029Y397554D01*
X469180Y397568D01*
X469271Y397592D01*
X469366Y397606D01*
X469510Y397654D01*
X469657Y397692D01*
X469744Y397731D01*
X469834Y397761D01*
X469969Y397831D01*
X470108Y397893D01*
X470187Y397945D01*
X470272Y397989D01*
X470351Y398052D01*
X470520Y398163D01*
X470724Y398349D01*
X470805Y398414D01*
X473695Y401304D01*
X473769Y401391D01*
X473850Y401471D01*
X473928Y401578D01*
X474014Y401680D01*
X474073Y401778D01*
X474140Y401870D01*
X474200Y401988D01*
X474269Y402102D01*
X474311Y402208D01*
X474363Y402310D01*
X474403Y402437D01*
X474452Y402560D01*
X474477Y402672D01*
X474511Y402781D01*
X474521Y402874D01*
X474559Y403042D01*
X474577Y403366D01*
X474587Y403458D01*
X474587Y443302D01*
X474578Y443415D01*
X474579Y443530D01*
X474558Y443661D01*
X474547Y443793D01*
X474520Y443904D01*
X474502Y444017D01*
X474461Y444143D01*
X474429Y444272D01*
X474384Y444377D01*
X474348Y444486D01*
X474286Y444603D01*
X474234Y444726D01*
X474173Y444822D01*
X474120Y444923D01*
X474061Y444997D01*
X473969Y445142D01*
X473753Y445384D01*
X473695Y445456D01*
X442179Y476972D01*
X442121Y477022D01*
X442068Y477078D01*
X441933Y477181D01*
X441803Y477291D01*
X441737Y477331D01*
X441677Y477378D01*
X441527Y477458D01*
X441381Y477546D01*
X441309Y477575D01*
X441242Y477611D01*
X441081Y477666D01*
X440922Y477729D01*
X440848Y477746D01*
X440775Y477771D01*
X440607Y477799D01*
X440441Y477836D01*
X440364Y477840D01*
X440289Y477853D01*
X440119Y477854D01*
X439948Y477864D01*
X439872Y477855D01*
X439795Y477856D01*
X439627Y477829D01*
X439458Y477811D01*
X439384Y477791D01*
X439308Y477779D01*
X439146Y477726D01*
X438982Y477681D01*
X438912Y477649D01*
X438839Y477625D01*
X438688Y477546D01*
X438534Y477475D01*
X438514Y477462D01*
X432897Y475135D01*
X427103Y475135D01*
X421750Y477353D01*
X417653Y481450D01*
X415435Y486803D01*
X415435Y513597D01*
X417653Y518950D01*
X421750Y523047D01*
X427103Y525265D01*
X432897Y525265D01*
X438250Y523047D01*
X442347Y518950D01*
X444565Y513597D01*
X444565Y495689D01*
X444582Y495471D01*
X444596Y495254D01*
X444602Y495226D01*
X444605Y495198D01*
X444657Y494985D01*
X444706Y494773D01*
X444717Y494746D01*
X444723Y494719D01*
X444809Y494518D01*
X444892Y494316D01*
X444907Y494291D01*
X444918Y494265D01*
X445035Y494082D01*
X445149Y493895D01*
X445168Y493873D01*
X445183Y493849D01*
X445328Y493687D01*
X445471Y493521D01*
X445493Y493503D01*
X445512Y493481D01*
X445681Y493344D01*
X445849Y493204D01*
X445870Y493192D01*
X445896Y493171D01*
X446324Y492927D01*
X446352Y492917D01*
X487730Y451539D01*
X488813Y448925D01*
X488813Y397835D01*
X487730Y395221D01*
X473779Y381270D01*
X471165Y380187D01*
X467672Y380187D01*
X467559Y380178D01*
X467444Y380179D01*
X467313Y380158D01*
X467181Y380147D01*
X467070Y380120D01*
X466957Y380102D01*
X466831Y380061D01*
X466702Y380029D01*
X466597Y379984D01*
X466488Y379948D01*
X466370Y379886D01*
X466248Y379834D01*
X466152Y379773D01*
X466051Y379720D01*
X465977Y379661D01*
X465832Y379569D01*
X465590Y379353D01*
X465518Y379295D01*
X462659Y376436D01*
X457949Y374485D01*
X452851Y374485D01*
X448141Y376436D01*
X444855Y379722D01*
X444797Y379772D01*
X444745Y379827D01*
X444609Y379931D01*
X444479Y380042D01*
X444413Y380081D01*
X444353Y380128D01*
X444203Y380208D01*
X444056Y380297D01*
X443986Y380325D01*
X443918Y380361D01*
X443757Y380416D01*
X443598Y380480D01*
X443524Y380496D01*
X443452Y380521D01*
X443283Y380549D01*
X443117Y380586D01*
X443040Y380591D01*
X442965Y380603D01*
X442794Y380605D01*
X442624Y380614D01*
X442548Y380606D01*
X442472Y380606D01*
X442303Y380580D01*
X442133Y380562D01*
X442060Y380542D01*
X441985Y380530D01*
X441822Y380476D01*
X441658Y380431D01*
X441588Y380399D01*
X441516Y380376D01*
X441364Y380297D01*
X441209Y380225D01*
X441146Y380183D01*
X441078Y380148D01*
X440996Y380082D01*
X440800Y379950D01*
X440627Y379788D01*
X440545Y379722D01*
X438005Y377182D01*
X437931Y377096D01*
X437850Y377015D01*
X437772Y376908D01*
X437686Y376807D01*
X437627Y376709D01*
X437560Y376616D01*
X437500Y376498D01*
X437431Y376384D01*
X437389Y376278D01*
X437337Y376176D01*
X437297Y376049D01*
X437248Y375926D01*
X437223Y375815D01*
X437189Y375705D01*
X437179Y375612D01*
X437141Y375444D01*
X437123Y375120D01*
X437113Y375028D01*
X437113Y370265D01*
X436030Y367651D01*
X424769Y356390D01*
X422155Y355307D01*
X381225Y355307D01*
G37*
%LPD*%
%LPC*%
G36*
X207235Y361657D02*
X207235Y361657D01*
X204621Y362740D01*
X193970Y373391D01*
X192887Y376005D01*
X192887Y380545D01*
X192870Y380763D01*
X192856Y380981D01*
X192850Y381009D01*
X192847Y381037D01*
X192795Y381248D01*
X192746Y381462D01*
X192735Y381488D01*
X192729Y381516D01*
X192642Y381717D01*
X192560Y381919D01*
X192545Y381943D01*
X192534Y381969D01*
X192417Y382153D01*
X192303Y382340D01*
X192284Y382361D01*
X192269Y382385D01*
X192124Y382548D01*
X191981Y382713D01*
X191959Y382732D01*
X191940Y382753D01*
X191770Y382890D01*
X191603Y383031D01*
X191583Y383042D01*
X191556Y383063D01*
X191434Y383133D01*
X190204Y384362D01*
X189585Y385856D01*
X189585Y389840D01*
X189579Y389916D01*
X189581Y389992D01*
X189559Y390161D01*
X189545Y390332D01*
X189527Y390406D01*
X189517Y390481D01*
X189468Y390645D01*
X189427Y390811D01*
X189397Y390880D01*
X189375Y390954D01*
X189299Y391107D01*
X189232Y391264D01*
X189191Y391328D01*
X189158Y391397D01*
X189059Y391536D01*
X188967Y391680D01*
X188916Y391737D01*
X188872Y391799D01*
X188752Y391920D01*
X188638Y392048D01*
X188579Y392096D01*
X188525Y392150D01*
X188387Y392251D01*
X188254Y392358D01*
X188188Y392395D01*
X188127Y392440D01*
X187974Y392517D01*
X187826Y392602D01*
X187754Y392628D01*
X187686Y392663D01*
X187523Y392714D01*
X187363Y392773D01*
X187288Y392788D01*
X187216Y392811D01*
X187111Y392823D01*
X186879Y392868D01*
X186643Y392875D01*
X186538Y392887D01*
X183625Y392887D01*
X181011Y393970D01*
X172140Y402841D01*
X171057Y405455D01*
X171057Y449785D01*
X172140Y452399D01*
X214543Y494802D01*
X214617Y494889D01*
X214698Y494969D01*
X214776Y495076D01*
X214862Y495178D01*
X214921Y495276D01*
X214988Y495368D01*
X215048Y495486D01*
X215117Y495600D01*
X215159Y495706D01*
X215211Y495808D01*
X215251Y495935D01*
X215300Y496058D01*
X215325Y496170D01*
X215359Y496279D01*
X215369Y496372D01*
X215407Y496540D01*
X215425Y496864D01*
X215435Y496956D01*
X215435Y513597D01*
X217653Y518950D01*
X221750Y523047D01*
X227103Y525265D01*
X232897Y525265D01*
X238250Y523047D01*
X242347Y518950D01*
X244565Y513597D01*
X244565Y486803D01*
X242347Y481450D01*
X238250Y477353D01*
X232897Y475135D01*
X227103Y475135D01*
X221750Y477353D01*
X221635Y477467D01*
X221577Y477516D01*
X221525Y477572D01*
X221390Y477676D01*
X221260Y477786D01*
X221194Y477826D01*
X221134Y477872D01*
X220983Y477953D01*
X220837Y478041D01*
X220766Y478069D01*
X220699Y478105D01*
X220537Y478161D01*
X220379Y478224D01*
X220304Y478241D01*
X220232Y478265D01*
X220064Y478294D01*
X219897Y478331D01*
X219821Y478335D01*
X219746Y478348D01*
X219575Y478349D01*
X219405Y478359D01*
X219329Y478351D01*
X219253Y478351D01*
X219084Y478324D01*
X218914Y478306D01*
X218841Y478286D01*
X218765Y478274D01*
X218603Y478221D01*
X218438Y478176D01*
X218369Y478144D01*
X218297Y478120D01*
X218145Y478041D01*
X217990Y477970D01*
X217927Y477928D01*
X217859Y477892D01*
X217777Y477827D01*
X217581Y477695D01*
X217408Y477533D01*
X217326Y477467D01*
X186175Y446316D01*
X186101Y446229D01*
X186020Y446149D01*
X185942Y446042D01*
X185856Y445940D01*
X185797Y445843D01*
X185730Y445750D01*
X185670Y445632D01*
X185601Y445518D01*
X185559Y445412D01*
X185507Y445310D01*
X185467Y445183D01*
X185418Y445060D01*
X185393Y444948D01*
X185359Y444839D01*
X185349Y444746D01*
X185311Y444578D01*
X185293Y444254D01*
X185283Y444162D01*
X185283Y418073D01*
X185286Y418035D01*
X185284Y417997D01*
X185306Y417789D01*
X185323Y417581D01*
X185332Y417544D01*
X185336Y417506D01*
X185391Y417305D01*
X185441Y417102D01*
X185456Y417067D01*
X185467Y417030D01*
X185553Y416841D01*
X185636Y416649D01*
X185656Y416617D01*
X185672Y416582D01*
X185789Y416408D01*
X185901Y416233D01*
X185926Y416204D01*
X185948Y416173D01*
X186091Y416020D01*
X186230Y415865D01*
X186259Y415841D01*
X186286Y415813D01*
X186451Y415686D01*
X186614Y415555D01*
X186647Y415536D01*
X186677Y415513D01*
X186861Y415414D01*
X187042Y415311D01*
X187078Y415298D01*
X187112Y415280D01*
X187309Y415212D01*
X187505Y415139D01*
X187542Y415132D01*
X187578Y415120D01*
X187785Y415085D01*
X187989Y415045D01*
X188027Y415044D01*
X188065Y415037D01*
X188274Y415036D01*
X188482Y415029D01*
X188520Y415034D01*
X188558Y415034D01*
X188765Y415067D01*
X188971Y415094D01*
X189008Y415105D01*
X189045Y415111D01*
X189243Y415176D01*
X189443Y415236D01*
X189478Y415253D01*
X189514Y415265D01*
X189699Y415361D01*
X189887Y415453D01*
X189918Y415475D01*
X189952Y415493D01*
X190024Y415551D01*
X190289Y415739D01*
X190411Y415859D01*
X190485Y415918D01*
X191414Y416848D01*
X191420Y416852D01*
X191445Y416864D01*
X191621Y416994D01*
X191799Y417121D01*
X191819Y417141D01*
X191842Y417157D01*
X191995Y417314D01*
X192150Y417467D01*
X192167Y417490D01*
X192186Y417510D01*
X192312Y417690D01*
X192440Y417866D01*
X192453Y417891D01*
X192469Y417915D01*
X192564Y418112D01*
X192663Y418307D01*
X192671Y418334D01*
X192683Y418359D01*
X192745Y418568D01*
X192811Y418777D01*
X192814Y418800D01*
X192823Y418832D01*
X192884Y419322D01*
X192881Y419402D01*
X192887Y419455D01*
X192887Y425035D01*
X193970Y427649D01*
X203351Y437030D01*
X205965Y438113D01*
X238115Y438113D01*
X240729Y437030D01*
X251352Y426407D01*
X251439Y426333D01*
X251519Y426252D01*
X251626Y426174D01*
X251728Y426088D01*
X251826Y426029D01*
X251918Y425962D01*
X252036Y425902D01*
X252150Y425833D01*
X252256Y425791D01*
X252358Y425739D01*
X252485Y425699D01*
X252608Y425650D01*
X252720Y425625D01*
X252829Y425591D01*
X252922Y425581D01*
X253090Y425543D01*
X253414Y425525D01*
X253506Y425515D01*
X257549Y425515D01*
X262259Y423564D01*
X264318Y421504D01*
X264492Y421357D01*
X264664Y421207D01*
X264680Y421197D01*
X264694Y421185D01*
X264889Y421067D01*
X265083Y420947D01*
X265101Y420940D01*
X265117Y420930D01*
X265328Y420846D01*
X265539Y420759D01*
X265557Y420754D01*
X265575Y420747D01*
X265798Y420698D01*
X266019Y420646D01*
X266038Y420645D01*
X266057Y420641D01*
X266286Y420628D01*
X266511Y420612D01*
X266530Y420614D01*
X266549Y420613D01*
X266775Y420637D01*
X267003Y420658D01*
X267021Y420663D01*
X267040Y420665D01*
X267258Y420725D01*
X267480Y420783D01*
X267497Y420791D01*
X267515Y420796D01*
X267722Y420891D01*
X267931Y420983D01*
X267947Y420994D01*
X267964Y421001D01*
X268153Y421129D01*
X268343Y421253D01*
X268357Y421266D01*
X268373Y421277D01*
X268539Y421433D01*
X268707Y421587D01*
X268716Y421599D01*
X268733Y421615D01*
X269033Y422006D01*
X269077Y422088D01*
X269112Y422136D01*
X269617Y423010D01*
X270090Y423483D01*
X270669Y423818D01*
X271315Y423991D01*
X277353Y423991D01*
X277353Y412700D01*
X277359Y412624D01*
X277356Y412548D01*
X277379Y412379D01*
X277393Y412209D01*
X277411Y412135D01*
X277421Y412059D01*
X277470Y411895D01*
X277511Y411730D01*
X277541Y411660D01*
X277563Y411587D01*
X277638Y411433D01*
X277706Y411276D01*
X277747Y411212D01*
X277780Y411144D01*
X277879Y411004D01*
X277971Y410860D01*
X278022Y410804D01*
X278066Y410741D01*
X278186Y410620D01*
X278300Y410492D01*
X278359Y410444D01*
X278412Y410390D01*
X278413Y410390D01*
X278551Y410289D01*
X278684Y410182D01*
X278750Y410144D01*
X278812Y410099D01*
X278964Y410023D01*
X279113Y409938D01*
X279184Y409911D01*
X279252Y409877D01*
X279415Y409826D01*
X279575Y409766D01*
X279650Y409752D01*
X279723Y409729D01*
X279827Y409717D01*
X280059Y409672D01*
X280295Y409664D01*
X280400Y409653D01*
X291691Y409653D01*
X291691Y403615D01*
X291518Y402969D01*
X291183Y402390D01*
X290710Y401917D01*
X289836Y401412D01*
X289648Y401283D01*
X289459Y401155D01*
X289445Y401143D01*
X289430Y401132D01*
X289264Y400972D01*
X289100Y400818D01*
X289088Y400803D01*
X289074Y400789D01*
X288938Y400606D01*
X288799Y400426D01*
X288790Y400409D01*
X288779Y400394D01*
X288674Y400192D01*
X288566Y399991D01*
X288560Y399973D01*
X288551Y399957D01*
X288480Y399741D01*
X288406Y399525D01*
X288403Y399506D01*
X288397Y399488D01*
X288362Y399265D01*
X288323Y399038D01*
X288323Y399019D01*
X288320Y399001D01*
X288322Y398774D01*
X288320Y398545D01*
X288323Y398526D01*
X288324Y398507D01*
X288362Y398283D01*
X288397Y398058D01*
X288403Y398040D01*
X288406Y398021D01*
X288480Y397806D01*
X288551Y397589D01*
X288560Y397572D01*
X288566Y397554D01*
X288674Y397353D01*
X288779Y397152D01*
X288789Y397139D01*
X288799Y397120D01*
X289100Y396728D01*
X289167Y396665D01*
X289204Y396618D01*
X290518Y395305D01*
X290604Y395231D01*
X290685Y395150D01*
X290792Y395072D01*
X290893Y394986D01*
X290991Y394927D01*
X291084Y394860D01*
X291202Y394800D01*
X291316Y394731D01*
X291422Y394689D01*
X291524Y394637D01*
X291651Y394597D01*
X291774Y394548D01*
X291885Y394523D01*
X291994Y394489D01*
X292088Y394479D01*
X292256Y394441D01*
X292580Y394423D01*
X292672Y394413D01*
X293092Y394413D01*
X293205Y394422D01*
X293320Y394421D01*
X293451Y394442D01*
X293583Y394453D01*
X293694Y394480D01*
X293807Y394498D01*
X293933Y394539D01*
X294062Y394571D01*
X294167Y394616D01*
X294276Y394652D01*
X294393Y394714D01*
X294516Y394766D01*
X294612Y394827D01*
X294713Y394880D01*
X294787Y394939D01*
X294932Y395031D01*
X295174Y395247D01*
X295246Y395305D01*
X301995Y402054D01*
X302069Y402141D01*
X302150Y402221D01*
X302228Y402328D01*
X302314Y402430D01*
X302373Y402528D01*
X302440Y402620D01*
X302500Y402738D01*
X302569Y402852D01*
X302611Y402958D01*
X302663Y403060D01*
X302703Y403187D01*
X302752Y403310D01*
X302777Y403422D01*
X302811Y403531D01*
X302821Y403624D01*
X302859Y403792D01*
X302877Y404116D01*
X302887Y404208D01*
X302887Y465992D01*
X302878Y466105D01*
X302879Y466220D01*
X302858Y466351D01*
X302847Y466483D01*
X302820Y466594D01*
X302802Y466707D01*
X302761Y466833D01*
X302729Y466962D01*
X302684Y467067D01*
X302648Y467176D01*
X302586Y467293D01*
X302534Y467416D01*
X302473Y467512D01*
X302420Y467613D01*
X302361Y467687D01*
X302269Y467832D01*
X302053Y468073D01*
X301995Y468146D01*
X292674Y477467D01*
X292616Y477516D01*
X292564Y477572D01*
X292428Y477676D01*
X292298Y477786D01*
X292233Y477826D01*
X292172Y477872D01*
X292022Y477953D01*
X291876Y478041D01*
X291805Y478069D01*
X291738Y478105D01*
X291576Y478161D01*
X291418Y478224D01*
X291343Y478241D01*
X291271Y478265D01*
X291103Y478294D01*
X290936Y478331D01*
X290860Y478335D01*
X290785Y478348D01*
X290614Y478349D01*
X290443Y478359D01*
X290367Y478350D01*
X290291Y478351D01*
X290123Y478324D01*
X289953Y478306D01*
X289879Y478286D01*
X289804Y478274D01*
X289642Y478221D01*
X289477Y478176D01*
X289408Y478144D01*
X289335Y478120D01*
X289184Y478041D01*
X289029Y477970D01*
X288965Y477927D01*
X288898Y477892D01*
X288816Y477827D01*
X288619Y477695D01*
X288447Y477532D01*
X288365Y477467D01*
X288250Y477353D01*
X282897Y475135D01*
X277103Y475135D01*
X271750Y477353D01*
X267653Y481450D01*
X265435Y486803D01*
X265435Y513597D01*
X267653Y518950D01*
X271750Y523047D01*
X277103Y525265D01*
X282897Y525265D01*
X288250Y523047D01*
X292347Y518950D01*
X294565Y513597D01*
X294565Y496956D01*
X294574Y496843D01*
X294573Y496728D01*
X294594Y496597D01*
X294605Y496465D01*
X294632Y496354D01*
X294650Y496241D01*
X294691Y496115D01*
X294723Y495986D01*
X294768Y495881D01*
X294804Y495772D01*
X294866Y495655D01*
X294918Y495532D01*
X294979Y495436D01*
X295032Y495335D01*
X295091Y495261D01*
X295183Y495116D01*
X295399Y494874D01*
X295457Y494802D01*
X316030Y474229D01*
X317113Y471615D01*
X317113Y398585D01*
X316030Y395971D01*
X301329Y381270D01*
X298715Y380187D01*
X292672Y380187D01*
X292559Y380178D01*
X292444Y380179D01*
X292313Y380158D01*
X292181Y380147D01*
X292070Y380120D01*
X291957Y380102D01*
X291831Y380061D01*
X291702Y380029D01*
X291597Y379984D01*
X291488Y379948D01*
X291370Y379886D01*
X291248Y379834D01*
X291152Y379773D01*
X291051Y379720D01*
X290977Y379661D01*
X290832Y379569D01*
X290590Y379353D01*
X290517Y379295D01*
X287659Y376436D01*
X282949Y374485D01*
X277851Y374485D01*
X273141Y376436D01*
X269855Y379722D01*
X269797Y379772D01*
X269745Y379827D01*
X269609Y379931D01*
X269479Y380042D01*
X269414Y380081D01*
X269353Y380128D01*
X269202Y380209D01*
X269056Y380297D01*
X268986Y380325D01*
X268918Y380361D01*
X268756Y380416D01*
X268598Y380480D01*
X268524Y380496D01*
X268452Y380521D01*
X268283Y380550D01*
X268117Y380586D01*
X268041Y380591D01*
X267965Y380603D01*
X267794Y380605D01*
X267624Y380614D01*
X267548Y380606D01*
X267472Y380606D01*
X267303Y380580D01*
X267133Y380562D01*
X267060Y380542D01*
X266985Y380530D01*
X266822Y380476D01*
X266658Y380431D01*
X266588Y380399D01*
X266516Y380376D01*
X266365Y380297D01*
X266209Y380225D01*
X266146Y380183D01*
X266079Y380148D01*
X265996Y380082D01*
X265800Y379950D01*
X265628Y379788D01*
X265545Y379723D01*
X263005Y377183D01*
X262931Y377095D01*
X262850Y377015D01*
X262772Y376908D01*
X262686Y376807D01*
X262627Y376709D01*
X262560Y376616D01*
X262500Y376498D01*
X262431Y376384D01*
X262389Y376278D01*
X262337Y376176D01*
X262300Y376056D01*
X261030Y372991D01*
X250779Y362740D01*
X248165Y361657D01*
X207235Y361657D01*
G37*
%LPD*%
%LPC*%
G36*
X227103Y134735D02*
X227103Y134735D01*
X221750Y136953D01*
X217653Y141050D01*
X215435Y146403D01*
X215435Y173197D01*
X217653Y178550D01*
X221995Y182892D01*
X222069Y182979D01*
X222150Y183060D01*
X222228Y183167D01*
X222314Y183268D01*
X222373Y183366D01*
X222440Y183458D01*
X222500Y183577D01*
X222569Y183691D01*
X222611Y183797D01*
X222663Y183899D01*
X222703Y184026D01*
X222752Y184149D01*
X222777Y184260D01*
X222811Y184369D01*
X222821Y184463D01*
X222859Y184631D01*
X222877Y184955D01*
X222887Y185047D01*
X222887Y195792D01*
X222878Y195905D01*
X222879Y196020D01*
X222858Y196151D01*
X222847Y196283D01*
X222820Y196394D01*
X222802Y196507D01*
X222761Y196633D01*
X222729Y196762D01*
X222684Y196867D01*
X222648Y196976D01*
X222586Y197093D01*
X222534Y197216D01*
X222473Y197312D01*
X222420Y197413D01*
X222361Y197487D01*
X222269Y197632D01*
X222053Y197874D01*
X221995Y197946D01*
X187946Y231995D01*
X187859Y232069D01*
X187779Y232150D01*
X187672Y232228D01*
X187570Y232314D01*
X187472Y232373D01*
X187380Y232440D01*
X187262Y232500D01*
X187148Y232569D01*
X187042Y232611D01*
X186940Y232663D01*
X186813Y232703D01*
X186690Y232752D01*
X186578Y232777D01*
X186469Y232811D01*
X186376Y232821D01*
X186208Y232859D01*
X185884Y232877D01*
X185792Y232887D01*
X178585Y232887D01*
X175971Y233970D01*
X173970Y235971D01*
X172887Y238585D01*
X172887Y271415D01*
X173970Y274029D01*
X175971Y276030D01*
X178585Y277113D01*
X186538Y277113D01*
X186614Y277119D01*
X186690Y277117D01*
X186859Y277139D01*
X187030Y277153D01*
X187104Y277171D01*
X187179Y277181D01*
X187343Y277230D01*
X187509Y277271D01*
X187578Y277301D01*
X187652Y277323D01*
X187805Y277399D01*
X187962Y277466D01*
X188026Y277507D01*
X188095Y277540D01*
X188234Y277639D01*
X188378Y277731D01*
X188435Y277782D01*
X188497Y277826D01*
X188618Y277946D01*
X188746Y278060D01*
X188794Y278119D01*
X188848Y278173D01*
X188949Y278311D01*
X189056Y278444D01*
X189093Y278510D01*
X189138Y278571D01*
X189215Y278724D01*
X189300Y278872D01*
X189326Y278944D01*
X189361Y279012D01*
X189412Y279175D01*
X189471Y279335D01*
X189486Y279410D01*
X189509Y279482D01*
X189521Y279587D01*
X189566Y279819D01*
X189573Y280055D01*
X189585Y280160D01*
X189585Y284144D01*
X190204Y285638D01*
X191414Y286848D01*
X191420Y286852D01*
X191445Y286865D01*
X191621Y286994D01*
X191799Y287121D01*
X191819Y287141D01*
X191842Y287158D01*
X191995Y287314D01*
X192150Y287467D01*
X192167Y287490D01*
X192187Y287511D01*
X192312Y287690D01*
X192440Y287866D01*
X192453Y287891D01*
X192470Y287915D01*
X192565Y288112D01*
X192663Y288307D01*
X192671Y288334D01*
X192684Y288359D01*
X192745Y288568D01*
X192811Y288777D01*
X192814Y288801D01*
X192823Y288833D01*
X192884Y289322D01*
X192881Y289402D01*
X192887Y289455D01*
X192887Y292955D01*
X193970Y295569D01*
X209701Y311300D01*
X212315Y312383D01*
X241815Y312383D01*
X244429Y311300D01*
X259240Y296489D01*
X261670Y294059D01*
X261678Y294052D01*
X261684Y294045D01*
X261865Y293893D01*
X262046Y293739D01*
X262055Y293734D01*
X262062Y293728D01*
X262098Y293708D01*
X262140Y293683D01*
X264318Y291504D01*
X264492Y291357D01*
X264664Y291207D01*
X264680Y291197D01*
X264694Y291185D01*
X264890Y291067D01*
X265083Y290947D01*
X265101Y290940D01*
X265117Y290930D01*
X265328Y290846D01*
X265539Y290759D01*
X265557Y290754D01*
X265575Y290747D01*
X265797Y290698D01*
X266019Y290646D01*
X266038Y290645D01*
X266057Y290641D01*
X266285Y290628D01*
X266511Y290612D01*
X266530Y290614D01*
X266549Y290613D01*
X266776Y290637D01*
X267003Y290658D01*
X267021Y290663D01*
X267040Y290665D01*
X267259Y290725D01*
X267480Y290783D01*
X267497Y290791D01*
X267515Y290796D01*
X267723Y290891D01*
X267931Y290983D01*
X267947Y290994D01*
X267964Y291001D01*
X268153Y291129D01*
X268343Y291254D01*
X268357Y291266D01*
X268373Y291277D01*
X268540Y291433D01*
X268707Y291587D01*
X268716Y291599D01*
X268733Y291615D01*
X269033Y292006D01*
X269077Y292088D01*
X269112Y292136D01*
X269617Y293010D01*
X270090Y293483D01*
X270669Y293818D01*
X271315Y293991D01*
X277353Y293991D01*
X277353Y282700D01*
X277359Y282624D01*
X277356Y282548D01*
X277379Y282379D01*
X277393Y282209D01*
X277411Y282135D01*
X277421Y282059D01*
X277470Y281895D01*
X277511Y281730D01*
X277541Y281660D01*
X277563Y281587D01*
X277638Y281433D01*
X277706Y281276D01*
X277747Y281212D01*
X277780Y281144D01*
X277879Y281004D01*
X277971Y280860D01*
X278022Y280804D01*
X278066Y280741D01*
X278186Y280620D01*
X278300Y280492D01*
X278359Y280444D01*
X278412Y280390D01*
X278413Y280390D01*
X278551Y280289D01*
X278684Y280182D01*
X278750Y280144D01*
X278812Y280099D01*
X278964Y280023D01*
X279113Y279938D01*
X279184Y279911D01*
X279252Y279877D01*
X279415Y279826D01*
X279575Y279766D01*
X279650Y279752D01*
X279723Y279729D01*
X279827Y279717D01*
X280059Y279672D01*
X280295Y279664D01*
X280400Y279653D01*
X291691Y279653D01*
X291691Y273615D01*
X291518Y272969D01*
X291183Y272390D01*
X290710Y271917D01*
X289836Y271412D01*
X289648Y271283D01*
X289459Y271155D01*
X289445Y271142D01*
X289430Y271132D01*
X289266Y270974D01*
X289100Y270818D01*
X289088Y270803D01*
X289074Y270789D01*
X288938Y270607D01*
X288799Y270426D01*
X288790Y270409D01*
X288779Y270394D01*
X288674Y270192D01*
X288566Y269991D01*
X288560Y269973D01*
X288551Y269957D01*
X288480Y269741D01*
X288406Y269525D01*
X288403Y269506D01*
X288397Y269488D01*
X288362Y269264D01*
X288324Y269038D01*
X288323Y269019D01*
X288320Y269001D01*
X288322Y268774D01*
X288320Y268545D01*
X288323Y268526D01*
X288324Y268507D01*
X288362Y268283D01*
X288397Y268058D01*
X288403Y268040D01*
X288406Y268021D01*
X288480Y267806D01*
X288551Y267589D01*
X288560Y267572D01*
X288566Y267554D01*
X288673Y267355D01*
X288779Y267152D01*
X288789Y267139D01*
X288800Y267120D01*
X289100Y266728D01*
X289167Y266665D01*
X289204Y266618D01*
X291264Y264559D01*
X293215Y259849D01*
X293215Y254751D01*
X291264Y250041D01*
X288005Y246782D01*
X287931Y246696D01*
X287850Y246615D01*
X287772Y246508D01*
X287686Y246407D01*
X287627Y246309D01*
X287560Y246216D01*
X287500Y246098D01*
X287431Y245984D01*
X287389Y245878D01*
X287337Y245776D01*
X287297Y245649D01*
X287248Y245526D01*
X287223Y245415D01*
X287189Y245305D01*
X287179Y245212D01*
X287141Y245044D01*
X287123Y244720D01*
X287113Y244628D01*
X287113Y185047D01*
X287122Y184933D01*
X287121Y184819D01*
X287142Y184688D01*
X287153Y184555D01*
X287180Y184445D01*
X287198Y184332D01*
X287239Y184205D01*
X287271Y184077D01*
X287316Y183972D01*
X287352Y183863D01*
X287414Y183745D01*
X287466Y183623D01*
X287527Y183527D01*
X287580Y183426D01*
X287639Y183352D01*
X287731Y183207D01*
X287947Y182965D01*
X288005Y182892D01*
X292347Y178550D01*
X294565Y173197D01*
X294565Y146403D01*
X292347Y141050D01*
X288250Y136953D01*
X282897Y134735D01*
X277103Y134735D01*
X271750Y136953D01*
X267653Y141050D01*
X265435Y146403D01*
X265435Y173197D01*
X267653Y178550D01*
X271995Y182892D01*
X272069Y182979D01*
X272150Y183060D01*
X272228Y183167D01*
X272314Y183268D01*
X272373Y183366D01*
X272440Y183458D01*
X272500Y183577D01*
X272569Y183691D01*
X272611Y183797D01*
X272663Y183899D01*
X272703Y184026D01*
X272752Y184149D01*
X272777Y184260D01*
X272811Y184369D01*
X272821Y184463D01*
X272859Y184631D01*
X272877Y184955D01*
X272887Y185047D01*
X272887Y245428D01*
X272878Y245541D01*
X272879Y245656D01*
X272858Y245787D01*
X272847Y245919D01*
X272820Y246030D01*
X272802Y246143D01*
X272761Y246269D01*
X272729Y246398D01*
X272684Y246503D01*
X272648Y246612D01*
X272587Y246729D01*
X272534Y246852D01*
X272473Y246948D01*
X272420Y247049D01*
X272361Y247123D01*
X272269Y247268D01*
X272053Y247510D01*
X271995Y247582D01*
X269855Y249722D01*
X269797Y249772D01*
X269745Y249827D01*
X269609Y249931D01*
X269479Y250042D01*
X269413Y250081D01*
X269353Y250128D01*
X269203Y250208D01*
X269056Y250297D01*
X268986Y250325D01*
X268918Y250361D01*
X268757Y250416D01*
X268598Y250480D01*
X268524Y250496D01*
X268452Y250521D01*
X268283Y250549D01*
X268117Y250586D01*
X268040Y250591D01*
X267965Y250603D01*
X267795Y250605D01*
X267624Y250614D01*
X267548Y250606D01*
X267472Y250606D01*
X267303Y250580D01*
X267133Y250562D01*
X267060Y250542D01*
X266985Y250530D01*
X266822Y250476D01*
X266658Y250431D01*
X266589Y250399D01*
X266516Y250376D01*
X266364Y250297D01*
X266209Y250225D01*
X266146Y250183D01*
X266078Y250148D01*
X265996Y250082D01*
X265800Y249950D01*
X265627Y249788D01*
X265545Y249722D01*
X262259Y246436D01*
X257549Y244485D01*
X256976Y244485D01*
X256863Y244476D01*
X256748Y244477D01*
X256617Y244456D01*
X256485Y244445D01*
X256374Y244418D01*
X256261Y244400D01*
X256135Y244359D01*
X256006Y244327D01*
X255901Y244282D01*
X255792Y244246D01*
X255675Y244184D01*
X255552Y244132D01*
X255456Y244071D01*
X255355Y244018D01*
X255281Y243959D01*
X255136Y243867D01*
X254894Y243651D01*
X254822Y243593D01*
X244429Y233200D01*
X241815Y232117D01*
X219195Y232117D01*
X216581Y233200D01*
X214151Y235630D01*
X198073Y251708D01*
X197986Y251782D01*
X197906Y251863D01*
X197799Y251941D01*
X197697Y252027D01*
X197599Y252086D01*
X197507Y252153D01*
X197389Y252213D01*
X197275Y252282D01*
X197169Y252324D01*
X197067Y252376D01*
X196940Y252416D01*
X196817Y252465D01*
X196705Y252490D01*
X196596Y252524D01*
X196503Y252534D01*
X196335Y252572D01*
X196011Y252590D01*
X195919Y252600D01*
X193486Y252600D01*
X193344Y252589D01*
X193202Y252587D01*
X193099Y252569D01*
X192995Y252560D01*
X192856Y252526D01*
X192716Y252501D01*
X192617Y252467D01*
X192516Y252442D01*
X192385Y252385D01*
X192250Y252338D01*
X192159Y252288D01*
X192062Y252247D01*
X191942Y252171D01*
X191817Y252102D01*
X191734Y252038D01*
X191646Y251982D01*
X191540Y251887D01*
X191427Y251800D01*
X191356Y251723D01*
X191278Y251653D01*
X191189Y251542D01*
X191092Y251438D01*
X191034Y251351D01*
X190968Y251269D01*
X190898Y251146D01*
X190819Y251027D01*
X190776Y250932D01*
X190724Y250841D01*
X190675Y250707D01*
X190616Y250577D01*
X190589Y250476D01*
X190553Y250378D01*
X190526Y250238D01*
X190489Y250101D01*
X190478Y249996D01*
X190458Y249894D01*
X190454Y249752D01*
X190440Y249610D01*
X190446Y249505D01*
X190443Y249401D01*
X190461Y249260D01*
X190470Y249117D01*
X190494Y249016D01*
X190507Y248912D01*
X190548Y248775D01*
X190580Y248636D01*
X190620Y248540D01*
X190650Y248440D01*
X190712Y248311D01*
X190766Y248179D01*
X190821Y248090D01*
X190867Y247996D01*
X190949Y247880D01*
X191023Y247759D01*
X191092Y247679D01*
X191152Y247594D01*
X191252Y247493D01*
X191345Y247385D01*
X191425Y247317D01*
X191499Y247243D01*
X191614Y247159D01*
X191723Y247068D01*
X191792Y247030D01*
X191898Y246953D01*
X192285Y246757D01*
X192320Y246738D01*
X194029Y246030D01*
X236030Y204029D01*
X237113Y201415D01*
X237113Y185047D01*
X237122Y184933D01*
X237121Y184819D01*
X237142Y184688D01*
X237153Y184555D01*
X237180Y184445D01*
X237198Y184332D01*
X237239Y184205D01*
X237271Y184077D01*
X237316Y183972D01*
X237352Y183863D01*
X237414Y183745D01*
X237466Y183623D01*
X237527Y183527D01*
X237580Y183426D01*
X237639Y183352D01*
X237731Y183207D01*
X237947Y182965D01*
X238005Y182892D01*
X242347Y178550D01*
X244565Y173197D01*
X244565Y146403D01*
X242347Y141050D01*
X238250Y136953D01*
X232897Y134735D01*
X227103Y134735D01*
G37*
%LPD*%
%LPC*%
G36*
X377103Y134735D02*
X377103Y134735D01*
X371750Y136953D01*
X367653Y141050D01*
X365435Y146403D01*
X365435Y173197D01*
X367653Y178550D01*
X371995Y182892D01*
X372069Y182979D01*
X372150Y183060D01*
X372228Y183167D01*
X372314Y183268D01*
X372373Y183366D01*
X372440Y183458D01*
X372500Y183577D01*
X372569Y183691D01*
X372611Y183797D01*
X372663Y183899D01*
X372703Y184026D01*
X372752Y184149D01*
X372777Y184260D01*
X372811Y184369D01*
X372821Y184463D01*
X372859Y184631D01*
X372877Y184955D01*
X372887Y185047D01*
X372887Y205792D01*
X372878Y205905D01*
X372879Y206020D01*
X372858Y206151D01*
X372847Y206283D01*
X372820Y206394D01*
X372802Y206507D01*
X372761Y206633D01*
X372729Y206762D01*
X372684Y206867D01*
X372648Y206976D01*
X372586Y207093D01*
X372534Y207216D01*
X372473Y207312D01*
X372420Y207413D01*
X372361Y207487D01*
X372269Y207632D01*
X372053Y207874D01*
X371995Y207946D01*
X343970Y235971D01*
X342887Y238585D01*
X342887Y261415D01*
X343970Y264029D01*
X355971Y276030D01*
X357704Y276748D01*
X357899Y276848D01*
X358095Y276943D01*
X358118Y276960D01*
X358143Y276973D01*
X358319Y277103D01*
X358497Y277229D01*
X358517Y277249D01*
X358540Y277266D01*
X358693Y277422D01*
X358848Y277576D01*
X358865Y277599D01*
X358885Y277619D01*
X359010Y277798D01*
X359138Y277974D01*
X359151Y278000D01*
X359167Y278023D01*
X359262Y278220D01*
X359361Y278415D01*
X359369Y278442D01*
X359382Y278468D01*
X359443Y278677D01*
X359509Y278885D01*
X359512Y278909D01*
X359521Y278941D01*
X359582Y279430D01*
X359579Y279511D01*
X359585Y279563D01*
X359585Y284144D01*
X360204Y285638D01*
X361347Y286781D01*
X362841Y287400D01*
X365919Y287400D01*
X366032Y287409D01*
X366147Y287408D01*
X366278Y287429D01*
X366410Y287440D01*
X366521Y287467D01*
X366634Y287485D01*
X366760Y287526D01*
X366889Y287558D01*
X366994Y287603D01*
X367103Y287639D01*
X367220Y287701D01*
X367343Y287753D01*
X367439Y287814D01*
X367540Y287867D01*
X367614Y287926D01*
X367759Y288018D01*
X368001Y288234D01*
X368073Y288292D01*
X388541Y308760D01*
X391155Y309843D01*
X417075Y309843D01*
X419689Y308760D01*
X432778Y295671D01*
X432785Y295665D01*
X432792Y295657D01*
X432973Y295505D01*
X433154Y295352D01*
X433162Y295346D01*
X433170Y295340D01*
X433204Y295321D01*
X433576Y295097D01*
X433698Y295048D01*
X433767Y295010D01*
X437259Y293564D01*
X439318Y291504D01*
X439492Y291357D01*
X439664Y291207D01*
X439680Y291197D01*
X439694Y291185D01*
X439890Y291067D01*
X440083Y290947D01*
X440101Y290940D01*
X440117Y290930D01*
X440328Y290846D01*
X440539Y290759D01*
X440557Y290754D01*
X440575Y290747D01*
X440797Y290698D01*
X441019Y290646D01*
X441038Y290645D01*
X441057Y290641D01*
X441285Y290628D01*
X441511Y290612D01*
X441530Y290614D01*
X441549Y290613D01*
X441776Y290637D01*
X442003Y290658D01*
X442021Y290663D01*
X442040Y290665D01*
X442259Y290725D01*
X442480Y290783D01*
X442497Y290791D01*
X442515Y290796D01*
X442723Y290891D01*
X442931Y290983D01*
X442947Y290994D01*
X442964Y291001D01*
X443153Y291129D01*
X443343Y291254D01*
X443357Y291266D01*
X443373Y291277D01*
X443540Y291433D01*
X443707Y291587D01*
X443716Y291599D01*
X443733Y291615D01*
X444033Y292006D01*
X444077Y292088D01*
X444112Y292136D01*
X444617Y293010D01*
X445090Y293483D01*
X445669Y293818D01*
X446315Y293991D01*
X452353Y293991D01*
X452353Y282700D01*
X452359Y282624D01*
X452356Y282548D01*
X452379Y282379D01*
X452393Y282209D01*
X452411Y282135D01*
X452421Y282059D01*
X452470Y281895D01*
X452511Y281730D01*
X452541Y281660D01*
X452563Y281587D01*
X452638Y281433D01*
X452706Y281276D01*
X452747Y281212D01*
X452780Y281144D01*
X452879Y281004D01*
X452971Y280860D01*
X453022Y280804D01*
X453066Y280741D01*
X453186Y280620D01*
X453300Y280492D01*
X453359Y280444D01*
X453412Y280390D01*
X453413Y280390D01*
X453551Y280289D01*
X453684Y280182D01*
X453750Y280144D01*
X453812Y280099D01*
X453964Y280023D01*
X454113Y279938D01*
X454184Y279911D01*
X454252Y279877D01*
X454415Y279826D01*
X454575Y279766D01*
X454650Y279752D01*
X454723Y279729D01*
X454827Y279717D01*
X455059Y279672D01*
X455295Y279664D01*
X455400Y279653D01*
X466691Y279653D01*
X466691Y273615D01*
X466518Y272969D01*
X466183Y272390D01*
X465710Y271917D01*
X464836Y271412D01*
X464648Y271283D01*
X464459Y271155D01*
X464445Y271142D01*
X464430Y271132D01*
X464266Y270974D01*
X464100Y270818D01*
X464088Y270803D01*
X464074Y270789D01*
X463938Y270607D01*
X463799Y270426D01*
X463790Y270409D01*
X463779Y270394D01*
X463674Y270192D01*
X463566Y269991D01*
X463560Y269973D01*
X463551Y269957D01*
X463480Y269741D01*
X463406Y269525D01*
X463403Y269506D01*
X463397Y269488D01*
X463362Y269264D01*
X463324Y269038D01*
X463323Y269019D01*
X463320Y269001D01*
X463322Y268774D01*
X463320Y268545D01*
X463323Y268526D01*
X463324Y268507D01*
X463362Y268283D01*
X463397Y268058D01*
X463403Y268040D01*
X463406Y268021D01*
X463480Y267806D01*
X463551Y267589D01*
X463560Y267572D01*
X463566Y267554D01*
X463673Y267355D01*
X463779Y267152D01*
X463789Y267139D01*
X463800Y267120D01*
X464100Y266728D01*
X464167Y266665D01*
X464204Y266618D01*
X466264Y264559D01*
X468215Y259849D01*
X468215Y254751D01*
X466264Y250041D01*
X463405Y247183D01*
X463331Y247095D01*
X463250Y247015D01*
X463172Y246908D01*
X463086Y246807D01*
X463027Y246709D01*
X462960Y246616D01*
X462900Y246498D01*
X462831Y246384D01*
X462789Y246278D01*
X462737Y246176D01*
X462697Y246049D01*
X462648Y245926D01*
X462623Y245815D01*
X462589Y245706D01*
X462579Y245612D01*
X462541Y245444D01*
X462523Y245120D01*
X462513Y245028D01*
X462513Y183785D01*
X461430Y181171D01*
X445457Y165198D01*
X445383Y165111D01*
X445302Y165031D01*
X445224Y164924D01*
X445138Y164822D01*
X445079Y164724D01*
X445012Y164632D01*
X444952Y164514D01*
X444883Y164400D01*
X444841Y164294D01*
X444789Y164192D01*
X444749Y164065D01*
X444700Y163942D01*
X444675Y163830D01*
X444641Y163721D01*
X444631Y163628D01*
X444593Y163460D01*
X444575Y163136D01*
X444565Y163044D01*
X444565Y146403D01*
X442347Y141050D01*
X438250Y136953D01*
X432897Y134735D01*
X427103Y134735D01*
X421750Y136953D01*
X417653Y141050D01*
X415435Y146403D01*
X415435Y173197D01*
X417653Y178550D01*
X421750Y182647D01*
X427103Y184865D01*
X432897Y184865D01*
X438250Y182647D01*
X438365Y182533D01*
X438423Y182484D01*
X438475Y182428D01*
X438610Y182324D01*
X438740Y182214D01*
X438806Y182174D01*
X438866Y182128D01*
X439017Y182047D01*
X439163Y181959D01*
X439234Y181931D01*
X439301Y181895D01*
X439463Y181839D01*
X439621Y181776D01*
X439696Y181759D01*
X439768Y181735D01*
X439936Y181706D01*
X440103Y181669D01*
X440179Y181665D01*
X440254Y181652D01*
X440425Y181651D01*
X440595Y181641D01*
X440671Y181649D01*
X440747Y181649D01*
X440916Y181676D01*
X441086Y181694D01*
X441159Y181714D01*
X441235Y181726D01*
X441397Y181779D01*
X441562Y181824D01*
X441631Y181856D01*
X441703Y181880D01*
X441855Y181959D01*
X442010Y182030D01*
X442073Y182072D01*
X442141Y182108D01*
X442223Y182173D01*
X442419Y182305D01*
X442592Y182467D01*
X442674Y182533D01*
X447395Y187254D01*
X447469Y187341D01*
X447550Y187421D01*
X447628Y187528D01*
X447714Y187630D01*
X447773Y187727D01*
X447840Y187820D01*
X447900Y187938D01*
X447969Y188052D01*
X448011Y188158D01*
X448063Y188260D01*
X448103Y188387D01*
X448152Y188510D01*
X448177Y188622D01*
X448211Y188731D01*
X448221Y188824D01*
X448259Y188992D01*
X448277Y189316D01*
X448287Y189408D01*
X448287Y245028D01*
X448278Y245141D01*
X448279Y245256D01*
X448258Y245387D01*
X448247Y245519D01*
X448220Y245630D01*
X448202Y245743D01*
X448161Y245869D01*
X448129Y245998D01*
X448084Y246103D01*
X448048Y246212D01*
X447986Y246330D01*
X447934Y246452D01*
X447873Y246548D01*
X447820Y246649D01*
X447761Y246723D01*
X447669Y246868D01*
X447453Y247110D01*
X447395Y247182D01*
X444855Y249722D01*
X444797Y249772D01*
X444745Y249827D01*
X444609Y249931D01*
X444479Y250042D01*
X444413Y250081D01*
X444353Y250128D01*
X444203Y250208D01*
X444056Y250297D01*
X443986Y250325D01*
X443918Y250361D01*
X443756Y250416D01*
X443598Y250480D01*
X443524Y250496D01*
X443452Y250521D01*
X443283Y250549D01*
X443117Y250586D01*
X443040Y250591D01*
X442965Y250603D01*
X442794Y250605D01*
X442624Y250614D01*
X442548Y250606D01*
X442472Y250606D01*
X442303Y250580D01*
X442133Y250562D01*
X442060Y250542D01*
X441985Y250530D01*
X441822Y250476D01*
X441658Y250431D01*
X441588Y250399D01*
X441516Y250376D01*
X441365Y250297D01*
X441209Y250225D01*
X441146Y250183D01*
X441078Y250148D01*
X440996Y250082D01*
X440800Y249950D01*
X440628Y249788D01*
X440545Y249723D01*
X436986Y246163D01*
X436980Y246156D01*
X436972Y246150D01*
X436821Y245969D01*
X436667Y245787D01*
X436662Y245779D01*
X436655Y245772D01*
X436636Y245737D01*
X436412Y245365D01*
X436364Y245244D01*
X436326Y245175D01*
X436030Y244461D01*
X424769Y233200D01*
X422155Y232117D01*
X391385Y232117D01*
X388771Y233200D01*
X370263Y251708D01*
X370176Y251782D01*
X370096Y251863D01*
X369989Y251941D01*
X369887Y252027D01*
X369789Y252086D01*
X369697Y252153D01*
X369579Y252213D01*
X369465Y252282D01*
X369359Y252324D01*
X369257Y252376D01*
X369130Y252416D01*
X369007Y252465D01*
X368895Y252490D01*
X368786Y252524D01*
X368693Y252534D01*
X368525Y252572D01*
X368201Y252590D01*
X368109Y252600D01*
X362841Y252600D01*
X361326Y253228D01*
X361154Y253283D01*
X360985Y253346D01*
X360920Y253359D01*
X360857Y253379D01*
X360678Y253406D01*
X360501Y253441D01*
X360435Y253443D01*
X360369Y253453D01*
X360188Y253451D01*
X360008Y253456D01*
X359942Y253447D01*
X359875Y253447D01*
X359698Y253415D01*
X359519Y253392D01*
X359455Y253372D01*
X359390Y253361D01*
X359220Y253301D01*
X359046Y253249D01*
X358987Y253220D01*
X358924Y253198D01*
X358765Y253112D01*
X358603Y253032D01*
X358549Y252994D01*
X358491Y252962D01*
X358348Y252851D01*
X358201Y252747D01*
X358154Y252700D01*
X358101Y252659D01*
X357978Y252527D01*
X357850Y252400D01*
X357811Y252346D01*
X357766Y252298D01*
X357666Y252147D01*
X357560Y252001D01*
X357530Y251942D01*
X357493Y251887D01*
X357419Y251722D01*
X357337Y251561D01*
X357317Y251497D01*
X357290Y251437D01*
X357243Y251263D01*
X357189Y251090D01*
X357183Y251038D01*
X357162Y250960D01*
X357113Y250469D01*
X357115Y250436D01*
X357113Y250413D01*
X357113Y244208D01*
X357122Y244095D01*
X357121Y243980D01*
X357142Y243849D01*
X357153Y243717D01*
X357180Y243606D01*
X357198Y243493D01*
X357239Y243367D01*
X357271Y243238D01*
X357316Y243133D01*
X357352Y243024D01*
X357414Y242907D01*
X357466Y242784D01*
X357527Y242688D01*
X357580Y242587D01*
X357639Y242513D01*
X357731Y242368D01*
X357947Y242126D01*
X358005Y242054D01*
X386030Y214029D01*
X387113Y211415D01*
X387113Y185047D01*
X387122Y184933D01*
X387121Y184819D01*
X387142Y184688D01*
X387153Y184555D01*
X387180Y184445D01*
X387198Y184332D01*
X387239Y184205D01*
X387271Y184077D01*
X387316Y183972D01*
X387352Y183863D01*
X387414Y183745D01*
X387466Y183623D01*
X387527Y183527D01*
X387580Y183426D01*
X387639Y183352D01*
X387731Y183207D01*
X387947Y182965D01*
X388005Y182892D01*
X392347Y178550D01*
X394565Y173197D01*
X394565Y146403D01*
X392347Y141050D01*
X388250Y136953D01*
X382897Y134735D01*
X377103Y134735D01*
G37*
%LPD*%
%LPC*%
G36*
X183499Y163299D02*
X183499Y163299D01*
X183499Y182875D01*
X185006Y182385D01*
X186835Y181453D01*
X188496Y180247D01*
X189947Y178796D01*
X191153Y177135D01*
X192085Y175306D01*
X192720Y173354D01*
X193041Y171326D01*
X193041Y163299D01*
X183499Y163299D01*
G37*
%LPD*%
%LPC*%
G36*
X183499Y503699D02*
X183499Y503699D01*
X183499Y523275D01*
X185006Y522785D01*
X186835Y521853D01*
X188496Y520647D01*
X189947Y519196D01*
X191153Y517535D01*
X192085Y515706D01*
X192720Y513754D01*
X193041Y511726D01*
X193041Y503699D01*
X183499Y503699D01*
G37*
%LPD*%
%LPC*%
G36*
X483499Y503699D02*
X483499Y503699D01*
X483499Y523275D01*
X485006Y522785D01*
X486835Y521853D01*
X488496Y520647D01*
X489947Y519196D01*
X491153Y517535D01*
X492085Y515706D01*
X492720Y513754D01*
X493041Y511726D01*
X493041Y503699D01*
X483499Y503699D01*
G37*
%LPD*%
%LPC*%
G36*
X333499Y503699D02*
X333499Y503699D01*
X333499Y523275D01*
X335006Y522785D01*
X336835Y521853D01*
X338496Y520647D01*
X339947Y519196D01*
X341153Y517535D01*
X342085Y515706D01*
X342720Y513754D01*
X343041Y511726D01*
X343041Y503699D01*
X333499Y503699D01*
G37*
%LPD*%
%LPC*%
G36*
X333499Y163299D02*
X333499Y163299D01*
X333499Y182875D01*
X335006Y182385D01*
X336835Y181453D01*
X338496Y180247D01*
X339947Y178796D01*
X341153Y177135D01*
X342085Y175306D01*
X342720Y173354D01*
X343041Y171326D01*
X343041Y163299D01*
X333499Y163299D01*
G37*
%LPD*%
%LPC*%
G36*
X33499Y163299D02*
X33499Y163299D01*
X33499Y182875D01*
X35006Y182385D01*
X36835Y181453D01*
X38496Y180247D01*
X39947Y178796D01*
X41153Y177135D01*
X42085Y175306D01*
X42720Y173354D01*
X43041Y171326D01*
X43041Y163299D01*
X33499Y163299D01*
G37*
%LPD*%
%LPC*%
G36*
X33499Y503699D02*
X33499Y503699D01*
X33499Y523275D01*
X35006Y522785D01*
X36835Y521853D01*
X38496Y520647D01*
X39947Y519196D01*
X41153Y517535D01*
X42085Y515706D01*
X42720Y513754D01*
X43041Y511726D01*
X43041Y503699D01*
X33499Y503699D01*
G37*
%LPD*%
%LPC*%
G36*
X483499Y163299D02*
X483499Y163299D01*
X483499Y182875D01*
X485006Y182385D01*
X486835Y181453D01*
X488496Y180247D01*
X489947Y178796D01*
X491153Y177135D01*
X492085Y175306D01*
X492720Y173354D01*
X493041Y171326D01*
X493041Y163299D01*
X483499Y163299D01*
G37*
%LPD*%
%LPC*%
G36*
X483499Y496701D02*
X483499Y496701D01*
X493041Y496701D01*
X493041Y488674D01*
X492720Y486646D01*
X492085Y484694D01*
X491153Y482865D01*
X489947Y481204D01*
X488496Y479753D01*
X486835Y478547D01*
X485006Y477615D01*
X483499Y477125D01*
X483499Y496701D01*
G37*
%LPD*%
%LPC*%
G36*
X483499Y156301D02*
X483499Y156301D01*
X493041Y156301D01*
X493041Y148274D01*
X492720Y146246D01*
X492085Y144294D01*
X491153Y142465D01*
X489947Y140804D01*
X488496Y139353D01*
X486835Y138147D01*
X485006Y137215D01*
X483499Y136725D01*
X483499Y156301D01*
G37*
%LPD*%
%LPC*%
G36*
X333499Y156301D02*
X333499Y156301D01*
X343041Y156301D01*
X343041Y148274D01*
X342720Y146246D01*
X342085Y144294D01*
X341153Y142465D01*
X339947Y140804D01*
X338496Y139353D01*
X336835Y138147D01*
X335006Y137215D01*
X333499Y136725D01*
X333499Y156301D01*
G37*
%LPD*%
%LPC*%
G36*
X183499Y156301D02*
X183499Y156301D01*
X193041Y156301D01*
X193041Y148274D01*
X192720Y146246D01*
X192085Y144294D01*
X191153Y142465D01*
X189947Y140804D01*
X188496Y139353D01*
X186835Y138147D01*
X185006Y137215D01*
X183499Y136725D01*
X183499Y156301D01*
G37*
%LPD*%
%LPC*%
G36*
X33499Y156301D02*
X33499Y156301D01*
X43041Y156301D01*
X43041Y148274D01*
X42720Y146246D01*
X42085Y144294D01*
X41153Y142465D01*
X39947Y140804D01*
X38496Y139353D01*
X36835Y138147D01*
X35006Y137215D01*
X33499Y136725D01*
X33499Y156301D01*
G37*
%LPD*%
%LPC*%
G36*
X333499Y496701D02*
X333499Y496701D01*
X343041Y496701D01*
X343041Y488674D01*
X342720Y486646D01*
X342085Y484694D01*
X341153Y482865D01*
X339947Y481204D01*
X338496Y479753D01*
X336835Y478547D01*
X335006Y477615D01*
X333499Y477125D01*
X333499Y496701D01*
G37*
%LPD*%
%LPC*%
G36*
X33499Y496701D02*
X33499Y496701D01*
X43041Y496701D01*
X43041Y488674D01*
X42720Y486646D01*
X42085Y484694D01*
X41153Y482865D01*
X39947Y481204D01*
X38496Y479753D01*
X36835Y478547D01*
X35006Y477615D01*
X33499Y477125D01*
X33499Y496701D01*
G37*
%LPD*%
%LPC*%
G36*
X183499Y496701D02*
X183499Y496701D01*
X193041Y496701D01*
X193041Y488674D01*
X192720Y486646D01*
X192085Y484694D01*
X191153Y482865D01*
X189947Y481204D01*
X188496Y479753D01*
X186835Y478547D01*
X185006Y477615D01*
X183499Y477125D01*
X183499Y496701D01*
G37*
%LPD*%
%LPC*%
G36*
X166959Y503699D02*
X166959Y503699D01*
X166959Y511726D01*
X167280Y513754D01*
X167915Y515706D01*
X168847Y517535D01*
X170053Y519196D01*
X171504Y520647D01*
X173165Y521853D01*
X174994Y522785D01*
X176501Y523275D01*
X176501Y503699D01*
X166959Y503699D01*
G37*
%LPD*%
%LPC*%
G36*
X466959Y503699D02*
X466959Y503699D01*
X466959Y511726D01*
X467280Y513754D01*
X467915Y515706D01*
X468847Y517535D01*
X470053Y519196D01*
X471504Y520647D01*
X473165Y521853D01*
X474994Y522785D01*
X476501Y523275D01*
X476501Y503699D01*
X466959Y503699D01*
G37*
%LPD*%
%LPC*%
G36*
X16959Y503699D02*
X16959Y503699D01*
X16959Y511726D01*
X17280Y513754D01*
X17915Y515706D01*
X18847Y517535D01*
X20053Y519196D01*
X21504Y520647D01*
X23165Y521853D01*
X24994Y522785D01*
X26501Y523275D01*
X26501Y503699D01*
X16959Y503699D01*
G37*
%LPD*%
%LPC*%
G36*
X316959Y503699D02*
X316959Y503699D01*
X316959Y511726D01*
X317280Y513754D01*
X317915Y515706D01*
X318847Y517535D01*
X320053Y519196D01*
X321504Y520647D01*
X323165Y521853D01*
X324994Y522785D01*
X326501Y523275D01*
X326501Y503699D01*
X316959Y503699D01*
G37*
%LPD*%
%LPC*%
G36*
X16959Y163299D02*
X16959Y163299D01*
X16959Y171326D01*
X17280Y173354D01*
X17915Y175306D01*
X18847Y177135D01*
X20053Y178796D01*
X21504Y180247D01*
X23165Y181453D01*
X24994Y182385D01*
X26501Y182875D01*
X26501Y163299D01*
X16959Y163299D01*
G37*
%LPD*%
%LPC*%
G36*
X166959Y163299D02*
X166959Y163299D01*
X166959Y171326D01*
X167280Y173354D01*
X167915Y175306D01*
X168847Y177135D01*
X170053Y178796D01*
X171504Y180247D01*
X173165Y181453D01*
X174994Y182385D01*
X176501Y182875D01*
X176501Y163299D01*
X166959Y163299D01*
G37*
%LPD*%
%LPC*%
G36*
X316959Y163299D02*
X316959Y163299D01*
X316959Y171326D01*
X317280Y173354D01*
X317915Y175306D01*
X318847Y177135D01*
X320053Y178796D01*
X321504Y180247D01*
X323165Y181453D01*
X324994Y182385D01*
X326501Y182875D01*
X326501Y163299D01*
X316959Y163299D01*
G37*
%LPD*%
%LPC*%
G36*
X466959Y163299D02*
X466959Y163299D01*
X466959Y171326D01*
X467280Y173354D01*
X467915Y175306D01*
X468847Y177135D01*
X470053Y178796D01*
X471504Y180247D01*
X473165Y181453D01*
X474994Y182385D01*
X476501Y182875D01*
X476501Y163299D01*
X466959Y163299D01*
G37*
%LPD*%
%LPC*%
G36*
X474994Y477615D02*
X474994Y477615D01*
X473165Y478547D01*
X471504Y479753D01*
X470053Y481204D01*
X468847Y482865D01*
X467915Y484694D01*
X467280Y486646D01*
X466959Y488674D01*
X466959Y496701D01*
X476501Y496701D01*
X476501Y477125D01*
X474994Y477615D01*
G37*
%LPD*%
%LPC*%
G36*
X324994Y477615D02*
X324994Y477615D01*
X323165Y478547D01*
X321504Y479753D01*
X320053Y481204D01*
X318847Y482865D01*
X317915Y484694D01*
X317280Y486646D01*
X316959Y488674D01*
X316959Y496701D01*
X326501Y496701D01*
X326501Y477125D01*
X324994Y477615D01*
G37*
%LPD*%
%LPC*%
G36*
X24994Y477615D02*
X24994Y477615D01*
X23165Y478547D01*
X21504Y479753D01*
X20053Y481204D01*
X18847Y482865D01*
X17915Y484694D01*
X17280Y486646D01*
X16959Y488674D01*
X16959Y496701D01*
X26501Y496701D01*
X26501Y477125D01*
X24994Y477615D01*
G37*
%LPD*%
%LPC*%
G36*
X174994Y477615D02*
X174994Y477615D01*
X173165Y478547D01*
X171504Y479753D01*
X170053Y481204D01*
X168847Y482865D01*
X167915Y484694D01*
X167280Y486646D01*
X166959Y488674D01*
X166959Y496701D01*
X176501Y496701D01*
X176501Y477125D01*
X174994Y477615D01*
G37*
%LPD*%
%LPC*%
G36*
X474994Y137215D02*
X474994Y137215D01*
X473165Y138147D01*
X471504Y139353D01*
X470053Y140804D01*
X468847Y142465D01*
X467915Y144294D01*
X467280Y146246D01*
X466959Y148274D01*
X466959Y156301D01*
X476501Y156301D01*
X476501Y136725D01*
X474994Y137215D01*
G37*
%LPD*%
%LPC*%
G36*
X324994Y137215D02*
X324994Y137215D01*
X323165Y138147D01*
X321504Y139353D01*
X320053Y140804D01*
X318847Y142465D01*
X317915Y144294D01*
X317280Y146246D01*
X316959Y148274D01*
X316959Y156301D01*
X326501Y156301D01*
X326501Y136725D01*
X324994Y137215D01*
G37*
%LPD*%
%LPC*%
G36*
X174994Y137215D02*
X174994Y137215D01*
X173165Y138147D01*
X171504Y139353D01*
X170053Y140804D01*
X168847Y142465D01*
X167915Y144294D01*
X167280Y146246D01*
X166959Y148274D01*
X166959Y156301D01*
X176501Y156301D01*
X176501Y136725D01*
X174994Y137215D01*
G37*
%LPD*%
%LPC*%
G36*
X24994Y137215D02*
X24994Y137215D01*
X23165Y138147D01*
X21504Y139353D01*
X20053Y140804D01*
X18847Y142465D01*
X17915Y144294D01*
X17280Y146246D01*
X16959Y148274D01*
X16959Y156301D01*
X26501Y156301D01*
X26501Y136725D01*
X24994Y137215D01*
G37*
%LPD*%
%LPC*%
G36*
X458447Y415747D02*
X458447Y415747D01*
X458447Y423991D01*
X464485Y423991D01*
X465131Y423818D01*
X465710Y423483D01*
X466183Y423010D01*
X466518Y422431D01*
X466691Y421785D01*
X466691Y415747D01*
X458447Y415747D01*
G37*
%LPD*%
%LPC*%
G36*
X283447Y415747D02*
X283447Y415747D01*
X283447Y423991D01*
X289485Y423991D01*
X290131Y423818D01*
X290710Y423483D01*
X291183Y423010D01*
X291518Y422431D01*
X291691Y421785D01*
X291691Y415747D01*
X283447Y415747D01*
G37*
%LPD*%
%LPC*%
G36*
X108447Y285747D02*
X108447Y285747D01*
X108447Y293991D01*
X114485Y293991D01*
X115131Y293818D01*
X115710Y293483D01*
X116183Y293010D01*
X116518Y292431D01*
X116691Y291785D01*
X116691Y285747D01*
X108447Y285747D01*
G37*
%LPD*%
%LPC*%
G36*
X458447Y285747D02*
X458447Y285747D01*
X458447Y293991D01*
X464485Y293991D01*
X465131Y293818D01*
X465710Y293483D01*
X466183Y293010D01*
X466518Y292431D01*
X466691Y291785D01*
X466691Y285747D01*
X458447Y285747D01*
G37*
%LPD*%
%LPC*%
G36*
X283447Y285747D02*
X283447Y285747D01*
X283447Y293991D01*
X289485Y293991D01*
X290131Y293818D01*
X290710Y293483D01*
X291183Y293010D01*
X291518Y292431D01*
X291691Y291785D01*
X291691Y285747D01*
X283447Y285747D01*
G37*
%LPD*%
D10*
X280400Y412700D03*
D11*
X280400Y387300D03*
X255000Y412700D03*
X255000Y387300D03*
X229600Y412700D03*
X229600Y387300D03*
D10*
X280400Y282700D03*
D11*
X280400Y257300D03*
X255000Y282700D03*
X255000Y257300D03*
X229600Y282700D03*
X229600Y257300D03*
D10*
X455400Y412700D03*
D11*
X455400Y387300D03*
X430000Y412700D03*
X430000Y387300D03*
X404600Y412700D03*
X404600Y387300D03*
D10*
X455400Y282700D03*
D11*
X455400Y257300D03*
X430000Y282700D03*
X430000Y257300D03*
X404600Y282700D03*
X404600Y257300D03*
D10*
X105400Y412700D03*
D11*
X105400Y387300D03*
X80000Y412700D03*
X80000Y387300D03*
X54600Y412700D03*
X54600Y387300D03*
D10*
X105400Y282700D03*
D11*
X105400Y257300D03*
X80000Y282700D03*
X80000Y257300D03*
X54600Y282700D03*
X54600Y257300D03*
D12*
X480000Y489700D02*
X480000Y510700D01*
X430000Y510700D02*
X430000Y489700D01*
X380000Y489700D02*
X380000Y510700D01*
X330000Y510700D02*
X330000Y489700D01*
X280000Y489700D02*
X280000Y510700D01*
X230000Y510700D02*
X230000Y489700D01*
X180000Y489700D02*
X180000Y510700D01*
X130000Y510700D02*
X130000Y489700D01*
X80000Y489700D02*
X80000Y510700D01*
X30000Y510700D02*
X30000Y489700D01*
X30000Y170300D02*
X30000Y149300D01*
X80000Y149300D02*
X80000Y170300D01*
X130000Y170300D02*
X130000Y149300D01*
X180000Y149300D02*
X180000Y170300D01*
X230000Y170300D02*
X230000Y149300D01*
X280000Y149300D02*
X280000Y170300D01*
X330000Y170300D02*
X330000Y149300D01*
X380000Y149300D02*
X380000Y170300D01*
X430000Y170300D02*
X430000Y149300D01*
X480000Y149300D02*
X480000Y170300D01*
D13*
X370000Y410160D03*
X370000Y400000D03*
X370000Y389840D03*
X370000Y280160D03*
X370000Y270000D03*
X370000Y259840D03*
X20000Y410160D03*
X20000Y400000D03*
X20000Y389840D03*
X20000Y280160D03*
X20000Y270000D03*
X20000Y259840D03*
X200000Y280160D03*
X200000Y270000D03*
X200000Y259840D03*
X200000Y410160D03*
X200000Y400000D03*
X200000Y389840D03*
D14*
X39570Y429730D02*
X20000Y410160D01*
X39570Y429730D02*
X63870Y429730D01*
X80000Y413600D01*
X80000Y412700D01*
X200000Y410160D02*
X200000Y423620D01*
X207380Y431000D01*
X370000Y410160D02*
X388300Y428460D01*
X414240Y428460D01*
X430000Y412700D01*
X20000Y290610D02*
X20000Y280160D01*
X20000Y290610D02*
X33390Y304000D01*
X58700Y304000D01*
X80000Y282700D01*
X200000Y280160D02*
X200000Y291540D01*
X213730Y305270D01*
X240400Y305270D01*
X255640Y290030D01*
X255640Y283340D01*
X255000Y282700D01*
X370000Y280160D02*
X392570Y302730D01*
X415660Y302730D01*
X430000Y288390D01*
X430000Y282700D01*
X236700Y431000D02*
X207380Y431000D01*
X236700Y431000D02*
X255000Y412700D01*
X280400Y387300D02*
X297300Y387300D01*
X310000Y470200D02*
X280000Y500200D01*
X310000Y400000D02*
X297300Y387300D01*
X310000Y400000D02*
X310000Y470200D01*
X280400Y252560D02*
X280000Y252160D01*
X280000Y159800D01*
X280400Y252560D02*
X280400Y257300D01*
X455400Y387300D02*
X469750Y387300D01*
X481700Y399250D01*
X481700Y447510D01*
X442330Y486880D01*
X430000Y486880D01*
X430000Y500200D01*
X455400Y257300D02*
X456300Y256400D01*
X455400Y257300D02*
X455400Y185200D01*
X430000Y159800D01*
X121770Y387300D02*
X105400Y387300D01*
X121770Y387300D02*
X124830Y390360D01*
X124830Y495030D02*
X130000Y500200D01*
X124830Y495030D02*
X124830Y390360D01*
X107050Y255650D02*
X107050Y232750D01*
X130000Y209800D02*
X130000Y159800D01*
X130000Y209800D02*
X107050Y232750D01*
X107050Y255650D02*
X105400Y257300D01*
X351410Y400000D02*
X370000Y400000D01*
X351410Y400000D02*
X349300Y402110D01*
X349300Y469500D01*
X380000Y500200D01*
X370000Y389840D02*
X370000Y375180D01*
X369940Y375120D01*
X382640Y362420D01*
X420740Y362420D01*
X430000Y371680D02*
X430000Y387300D01*
X430000Y371680D02*
X420740Y362420D01*
X380000Y210000D02*
X380000Y159800D01*
X380000Y210000D02*
X350000Y240000D01*
X350000Y260000D01*
X360000Y270000D01*
X370000Y270000D01*
X370000Y259840D02*
X372190Y259840D01*
X392800Y239230D02*
X420740Y239230D01*
X430000Y248490D01*
X430000Y257300D01*
X392800Y239230D02*
X372190Y259840D01*
X20000Y400000D02*
X8510Y400000D01*
X6720Y401790D01*
X6720Y423540D01*
X80000Y496820D02*
X80000Y500200D01*
X80000Y496820D02*
X6720Y423540D01*
X20000Y389840D02*
X20000Y377080D01*
X28310Y368770D01*
X61470Y368770D01*
X80000Y387300D01*
X20000Y270000D02*
X19800Y270000D01*
X10000Y220000D02*
X30000Y200000D01*
X60000Y200000D01*
X80000Y180000D01*
X80000Y159800D01*
D15*
X10000Y220000D02*
X6350Y223650D01*
X6350Y267970D01*
X8380Y270000D01*
X20000Y270000D01*
D14*
X20000Y259840D02*
X43150Y236690D01*
X63870Y236690D01*
X80000Y252820D01*
X80000Y257300D01*
X230000Y200000D02*
X230000Y159800D01*
X230000Y200000D02*
X190000Y240000D01*
X180000Y240000D01*
X180000Y270000D01*
X200000Y270000D01*
X200000Y259840D02*
X220610Y239230D01*
X240400Y239230D01*
X255000Y253830D01*
X255000Y257300D01*
X200000Y400000D02*
X185040Y400000D01*
X178170Y406870D01*
X178170Y448370D01*
X230000Y500200D01*
X200000Y389840D02*
X200000Y377420D01*
X208650Y368770D01*
X246750Y368770D01*
X255000Y377020D02*
X255000Y387300D01*
X255000Y377020D02*
X246750Y368770D01*
M02*
